<?xml version="1.0" encoding="utf-8" standalone="no"?>
<!DOCTYPE svg PUBLIC "-//W3C//DTD SVG 1.1//EN"
  "http://www.w3.org/Graphics/SVG/1.1/DTD/svg11.dtd">
<svg xmlns:xlink="http://www.w3.org/1999/xlink" width="1728pt" height="648pt" viewBox="0 0 1728 648" xmlns="http://www.w3.org/2000/svg" version="1.1">
 <metadata>
  <rdf:RDF xmlns:dc="http://purl.org/dc/elements/1.1/" xmlns:cc="http://creativecommons.org/ns#" xmlns:rdf="http://www.w3.org/1999/02/22-rdf-syntax-ns#">
   <cc:Work>
    <dc:type rdf:resource="http://purl.org/dc/dcmitype/StillImage"/>
    <dc:date>2024-06-02T15:05:32.356035</dc:date>
    <dc:format>image/svg+xml</dc:format>
    <dc:creator>
     <cc:Agent>
      <dc:title>Matplotlib v3.9.0, https://matplotlib.org/</dc:title>
     </cc:Agent>
    </dc:creator>
   </cc:Work>
  </rdf:RDF>
 </metadata>
 <defs>
  <style type="text/css">*{stroke-linejoin: round; stroke-linecap: butt}</style>
 </defs>
 <g id="figure_1">
  <g id="patch_1">
   <path d="M 0 648 
L 1728 648 
L 1728 0 
L 0 0 
z
" style="fill: #ffffff"/>
  </g>
  <g id="axes_1">
   <g id="patch_2">
    <path d="M 60.48 607.176 
L 1693.44 607.176 
L 1693.44 27.864 
L 60.48 27.864 
z
" style="fill: #ffffff"/>
   </g>
   <g id="patch_3">
    <path d="M 134.705455 607.176 
L 164.544833 607.176 
L 164.544833 604.692351 
L 134.705455 604.692351 
z
" clip-path="url(#p0fd2a63548)" style="fill: #800000"/>
   </g>
   <g id="patch_4">
    <path d="M 172.004678 607.176 
L 201.844057 607.176 
L 201.844057 605.908832 
L 172.004678 605.908832 
z
" clip-path="url(#p0fd2a63548)" style="fill: #800000"/>
   </g>
   <g id="patch_5">
    <path d="M 209.303901 607.176 
L 239.14328 607.176 
L 239.14328 605.921504 
L 209.303901 605.921504 
z
" clip-path="url(#p0fd2a63548)" style="fill: #800000"/>
   </g>
   <g id="patch_6">
    <path d="M 246.603125 607.176 
L 276.442503 607.176 
L 276.442503 585.608804 
L 246.603125 585.608804 
z
" clip-path="url(#p0fd2a63548)" style="fill: #800000"/>
   </g>
   <g id="patch_7">
    <path d="M 283.902348 607.176 
L 313.741727 607.176 
L 313.741727 574.039561 
L 283.902348 574.039561 
z
" clip-path="url(#p0fd2a63548)" style="fill: #800000"/>
   </g>
   <g id="patch_8">
    <path d="M 321.201571 607.176 
L 351.04095 607.176 
L 351.04095 607.176 
L 321.201571 607.176 
z
" clip-path="url(#p0fd2a63548)" style="fill: #800000"/>
   </g>
   <g id="patch_9">
    <path d="M 358.500795 607.176 
L 388.340174 607.176 
L 388.340174 607.176 
L 358.500795 607.176 
z
" clip-path="url(#p0fd2a63548)" style="fill: #800000"/>
   </g>
   <g id="patch_10">
    <path d="M 395.800018 607.176 
L 425.639397 607.176 
L 425.639397 607.09997 
L 395.800018 607.09997 
z
" clip-path="url(#p0fd2a63548)" style="fill: #800000"/>
   </g>
   <g id="patch_11">
    <path d="M 433.099242 607.176 
L 462.93862 607.176 
L 462.93862 607.176 
L 433.099242 607.176 
z
" clip-path="url(#p0fd2a63548)" style="fill: #800000"/>
   </g>
   <g id="patch_12">
    <path d="M 470.398465 607.176 
L 500.237844 607.176 
L 500.237844 607.150657 
L 470.398465 607.150657 
z
" clip-path="url(#p0fd2a63548)" style="fill: #800000"/>
   </g>
   <g id="patch_13">
    <path d="M 507.697688 607.176 
L 537.537067 607.176 
L 537.537067 607.176 
L 507.697688 607.176 
z
" clip-path="url(#p0fd2a63548)" style="fill: #800000"/>
   </g>
   <g id="patch_14">
    <path d="M 544.996912 607.176 
L 574.836291 607.176 
L 574.836291 607.176 
L 544.996912 607.176 
z
" clip-path="url(#p0fd2a63548)" style="fill: #800000"/>
   </g>
   <g id="patch_15">
    <path d="M 582.296135 607.176 
L 612.135514 607.176 
L 612.135514 606.922566 
L 582.296135 606.922566 
z
" clip-path="url(#p0fd2a63548)" style="fill: #800000"/>
   </g>
   <g id="patch_16">
    <path d="M 619.595359 607.176 
L 649.434737 607.176 
L 649.434737 484.057974 
L 619.595359 484.057974 
z
" clip-path="url(#p0fd2a63548)" style="fill: #800000"/>
   </g>
   <g id="patch_17">
    <path d="M 656.894582 607.176 
L 686.733961 607.176 
L 686.733961 574.128263 
L 656.894582 574.128263 
z
" clip-path="url(#p0fd2a63548)" style="fill: #800000"/>
   </g>
   <g id="patch_18">
    <path d="M 694.193805 607.176 
L 724.033184 607.176 
L 724.033184 574.128263 
L 694.193805 574.128263 
z
" clip-path="url(#p0fd2a63548)" style="fill: #800000"/>
   </g>
   <g id="patch_19">
    <path d="M 731.493029 607.176 
L 761.332407 607.176 
L 761.332407 576.130388 
L 731.493029 576.130388 
z
" clip-path="url(#p0fd2a63548)" style="fill: #800000"/>
   </g>
   <g id="patch_20">
    <path d="M 768.792252 607.176 
L 798.631631 607.176 
L 798.631631 596.620492 
L 768.792252 596.620492 
z
" clip-path="url(#p0fd2a63548)" style="fill: #800000"/>
   </g>
   <g id="patch_21">
    <path d="M 806.091476 607.176 
L 835.930854 607.176 
L 835.930854 572.569647 
L 806.091476 572.569647 
z
" clip-path="url(#p0fd2a63548)" style="fill: #800000"/>
   </g>
   <g id="patch_22">
    <path d="M 843.390699 607.176 
L 873.230078 607.176 
L 873.230078 441.531822 
L 843.390699 441.531822 
z
" clip-path="url(#p0fd2a63548)" style="fill: #800000"/>
   </g>
   <g id="patch_23">
    <path d="M 880.689922 607.176 
L 910.529301 607.176 
L 910.529301 320.897446 
L 880.689922 320.897446 
z
" clip-path="url(#p0fd2a63548)" style="fill: #800000"/>
   </g>
   <g id="patch_24">
    <path d="M 917.989146 607.176 
L 947.828524 607.176 
L 947.828524 367.871357 
L 917.989146 367.871357 
z
" clip-path="url(#p0fd2a63548)" style="fill: #800000"/>
   </g>
   <g id="patch_25">
    <path d="M 955.288369 607.176 
L 985.127748 607.176 
L 985.127748 370.000199 
L 955.288369 370.000199 
z
" clip-path="url(#p0fd2a63548)" style="fill: #800000"/>
   </g>
   <g id="patch_26">
    <path d="M 992.587593 607.176 
L 1022.426971 607.176 
L 1022.426971 265.243435 
L 992.587593 265.243435 
z
" clip-path="url(#p0fd2a63548)" style="fill: #800000"/>
   </g>
   <g id="patch_27">
    <path d="M 1029.886816 607.176 
L 1059.726195 607.176 
L 1059.726195 467.800211 
L 1029.886816 467.800211 
z
" clip-path="url(#p0fd2a63548)" style="fill: #800000"/>
   </g>
   <g id="patch_28">
    <path d="M 1067.186039 607.176 
L 1097.025418 607.176 
L 1097.025418 487.175207 
L 1067.186039 487.175207 
z
" clip-path="url(#p0fd2a63548)" style="fill: #800000"/>
   </g>
   <g id="patch_29">
    <path d="M 1104.485263 607.176 
L 1134.324641 607.176 
L 1134.324641 449.033456 
L 1104.485263 449.033456 
z
" clip-path="url(#p0fd2a63548)" style="fill: #800000"/>
   </g>
   <g id="patch_30">
    <path d="M 1141.784486 607.176 
L 1171.623865 607.176 
L 1171.623865 415.16206 
L 1141.784486 415.16206 
z
" clip-path="url(#p0fd2a63548)" style="fill: #800000"/>
   </g>
   <g id="patch_31">
    <path d="M 1179.083709 607.176 
L 1208.923088 607.176 
L 1208.923088 418.583413 
L 1179.083709 418.583413 
z
" clip-path="url(#p0fd2a63548)" style="fill: #800000"/>
   </g>
   <g id="patch_32">
    <path d="M 1216.382933 607.176 
L 1246.222312 607.176 
L 1246.222312 328.576483 
L 1216.382933 328.576483 
z
" clip-path="url(#p0fd2a63548)" style="fill: #800000"/>
   </g>
   <g id="patch_33">
    <path d="M 1253.682156 607.176 
L 1283.521535 607.176 
L 1283.521535 581.667912 
L 1253.682156 581.667912 
z
" clip-path="url(#p0fd2a63548)" style="fill: #800000"/>
   </g>
   <g id="patch_34">
    <path d="M 1290.98138 607.176 
L 1320.820758 607.176 
L 1320.820758 321.302939 
L 1290.98138 321.302939 
z
" clip-path="url(#p0fd2a63548)" style="fill: #800000"/>
   </g>
   <g id="patch_35">
    <path d="M 1328.280603 607.176 
L 1358.119982 607.176 
L 1358.119982 305.311282 
L 1328.280603 305.311282 
z
" clip-path="url(#p0fd2a63548)" style="fill: #800000"/>
   </g>
   <g id="patch_36">
    <path d="M 1365.579826 607.176 
L 1395.419205 607.176 
L 1395.419205 512.936729 
L 1365.579826 512.936729 
z
" clip-path="url(#p0fd2a63548)" style="fill: #800000"/>
   </g>
   <g id="patch_37">
    <path d="M 1402.87905 607.176 
L 1432.718429 607.176 
L 1432.718429 376.50077 
L 1402.87905 376.50077 
z
" clip-path="url(#p0fd2a63548)" style="fill: #800000"/>
   </g>
   <g id="patch_38">
    <path d="M 1440.178273 607.176 
L 1470.017652 607.176 
L 1470.017652 524.848107 
L 1440.178273 524.848107 
z
" clip-path="url(#p0fd2a63548)" style="fill: #800000"/>
   </g>
   <g id="patch_39">
    <path d="M 1477.477497 607.176 
L 1507.316875 607.176 
L 1507.316875 570.833627 
L 1477.477497 570.833627 
z
" clip-path="url(#p0fd2a63548)" style="fill: #800000"/>
   </g>
   <g id="patch_40">
    <path d="M 1514.77672 607.176 
L 1544.616099 607.176 
L 1544.616099 55.450286 
L 1514.77672 55.450286 
z
" clip-path="url(#p0fd2a63548)" style="fill: #800000"/>
   </g>
   <g id="patch_41">
    <path d="M 1552.075943 607.176 
L 1581.915322 607.176 
L 1581.915322 415.54221 
L 1552.075943 415.54221 
z
" clip-path="url(#p0fd2a63548)" style="fill: #800000"/>
   </g>
   <g id="patch_42">
    <path d="M 1589.375167 607.176 
L 1619.214545 607.176 
L 1619.214545 354.122586 
L 1589.375167 354.122586 
z
" clip-path="url(#p0fd2a63548)" style="fill: #800000"/>
   </g>
   <g id="matplotlib.axis_1">
    <g id="xtick_1">
     <g id="line2d_1">
      <defs>
       <path id="mf6fedf5652" d="M 0 0 
L 0 3.5 
" style="stroke: #000000; stroke-width: 0.8"/>
      </defs>
      <g>
       <use xlink:href="#mf6fedf5652" x="149.625144" y="607.176" style="stroke: #000000; stroke-width: 0.8"/>
      </g>
     </g>
     <g id="text_1">
      <!-- addi -->
      <g transform="translate(138.823581 621.774437) scale(0.1 -0.1)">
       <defs>
        <path id="DejaVuSans-61" d="M 2194 1759 
Q 1497 1759 1228 1600 
Q 959 1441 959 1056 
Q 959 750 1161 570 
Q 1363 391 1709 391 
Q 2188 391 2477 730 
Q 2766 1069 2766 1631 
L 2766 1759 
L 2194 1759 
z
M 3341 1997 
L 3341 0 
L 2766 0 
L 2766 531 
Q 2569 213 2275 61 
Q 1981 -91 1556 -91 
Q 1019 -91 701 211 
Q 384 513 384 1019 
Q 384 1609 779 1909 
Q 1175 2209 1959 2209 
L 2766 2209 
L 2766 2266 
Q 2766 2663 2505 2880 
Q 2244 3097 1772 3097 
Q 1472 3097 1187 3025 
Q 903 2953 641 2809 
L 641 3341 
Q 956 3463 1253 3523 
Q 1550 3584 1831 3584 
Q 2591 3584 2966 3190 
Q 3341 2797 3341 1997 
z
" transform="scale(0.015625)"/>
        <path id="DejaVuSans-64" d="M 2906 2969 
L 2906 4863 
L 3481 4863 
L 3481 0 
L 2906 0 
L 2906 525 
Q 2725 213 2448 61 
Q 2172 -91 1784 -91 
Q 1150 -91 751 415 
Q 353 922 353 1747 
Q 353 2572 751 3078 
Q 1150 3584 1784 3584 
Q 2172 3584 2448 3432 
Q 2725 3281 2906 2969 
z
M 947 1747 
Q 947 1113 1208 752 
Q 1469 391 1925 391 
Q 2381 391 2643 752 
Q 2906 1113 2906 1747 
Q 2906 2381 2643 2742 
Q 2381 3103 1925 3103 
Q 1469 3103 1208 2742 
Q 947 2381 947 1747 
z
" transform="scale(0.015625)"/>
        <path id="DejaVuSans-69" d="M 603 3500 
L 1178 3500 
L 1178 0 
L 603 0 
L 603 3500 
z
M 603 4863 
L 1178 4863 
L 1178 4134 
L 603 4134 
L 603 4863 
z
" transform="scale(0.015625)"/>
       </defs>
       <use xlink:href="#DejaVuSans-61"/>
       <use xlink:href="#DejaVuSans-64" x="61.279297"/>
       <use xlink:href="#DejaVuSans-64" x="124.755859"/>
       <use xlink:href="#DejaVuSans-69" x="188.232422"/>
      </g>
     </g>
    </g>
    <g id="xtick_2">
     <g id="line2d_2">
      <g>
       <use xlink:href="#mf6fedf5652" x="186.924367" y="607.176" style="stroke: #000000; stroke-width: 0.8"/>
      </g>
     </g>
     <g id="text_2">
      <!-- subi -->
      <g transform="translate(176.587649 621.774437) scale(0.1 -0.1)">
       <defs>
        <path id="DejaVuSans-73" d="M 2834 3397 
L 2834 2853 
Q 2591 2978 2328 3040 
Q 2066 3103 1784 3103 
Q 1356 3103 1142 2972 
Q 928 2841 928 2578 
Q 928 2378 1081 2264 
Q 1234 2150 1697 2047 
L 1894 2003 
Q 2506 1872 2764 1633 
Q 3022 1394 3022 966 
Q 3022 478 2636 193 
Q 2250 -91 1575 -91 
Q 1294 -91 989 -36 
Q 684 19 347 128 
L 347 722 
Q 666 556 975 473 
Q 1284 391 1588 391 
Q 1994 391 2212 530 
Q 2431 669 2431 922 
Q 2431 1156 2273 1281 
Q 2116 1406 1581 1522 
L 1381 1569 
Q 847 1681 609 1914 
Q 372 2147 372 2553 
Q 372 3047 722 3315 
Q 1072 3584 1716 3584 
Q 2034 3584 2315 3537 
Q 2597 3491 2834 3397 
z
" transform="scale(0.015625)"/>
        <path id="DejaVuSans-75" d="M 544 1381 
L 544 3500 
L 1119 3500 
L 1119 1403 
Q 1119 906 1312 657 
Q 1506 409 1894 409 
Q 2359 409 2629 706 
Q 2900 1003 2900 1516 
L 2900 3500 
L 3475 3500 
L 3475 0 
L 2900 0 
L 2900 538 
Q 2691 219 2414 64 
Q 2138 -91 1772 -91 
Q 1169 -91 856 284 
Q 544 659 544 1381 
z
M 1991 3584 
L 1991 3584 
z
" transform="scale(0.015625)"/>
        <path id="DejaVuSans-62" d="M 3116 1747 
Q 3116 2381 2855 2742 
Q 2594 3103 2138 3103 
Q 1681 3103 1420 2742 
Q 1159 2381 1159 1747 
Q 1159 1113 1420 752 
Q 1681 391 2138 391 
Q 2594 391 2855 752 
Q 3116 1113 3116 1747 
z
M 1159 2969 
Q 1341 3281 1617 3432 
Q 1894 3584 2278 3584 
Q 2916 3584 3314 3078 
Q 3713 2572 3713 1747 
Q 3713 922 3314 415 
Q 2916 -91 2278 -91 
Q 1894 -91 1617 61 
Q 1341 213 1159 525 
L 1159 0 
L 581 0 
L 581 4863 
L 1159 4863 
L 1159 2969 
z
" transform="scale(0.015625)"/>
       </defs>
       <use xlink:href="#DejaVuSans-73"/>
       <use xlink:href="#DejaVuSans-75" x="52.099609"/>
       <use xlink:href="#DejaVuSans-62" x="115.478516"/>
       <use xlink:href="#DejaVuSans-69" x="178.955078"/>
      </g>
     </g>
    </g>
    <g id="xtick_3">
     <g id="line2d_3">
      <g>
       <use xlink:href="#mf6fedf5652" x="224.223591" y="607.176" style="stroke: #000000; stroke-width: 0.8"/>
      </g>
     </g>
     <g id="text_3">
      <!-- muli -->
      <g transform="translate(213.406403 621.774437) scale(0.1 -0.1)">
       <defs>
        <path id="DejaVuSans-6d" d="M 3328 2828 
Q 3544 3216 3844 3400 
Q 4144 3584 4550 3584 
Q 5097 3584 5394 3201 
Q 5691 2819 5691 2113 
L 5691 0 
L 5113 0 
L 5113 2094 
Q 5113 2597 4934 2840 
Q 4756 3084 4391 3084 
Q 3944 3084 3684 2787 
Q 3425 2491 3425 1978 
L 3425 0 
L 2847 0 
L 2847 2094 
Q 2847 2600 2669 2842 
Q 2491 3084 2119 3084 
Q 1678 3084 1418 2786 
Q 1159 2488 1159 1978 
L 1159 0 
L 581 0 
L 581 3500 
L 1159 3500 
L 1159 2956 
Q 1356 3278 1631 3431 
Q 1906 3584 2284 3584 
Q 2666 3584 2933 3390 
Q 3200 3197 3328 2828 
z
" transform="scale(0.015625)"/>
        <path id="DejaVuSans-6c" d="M 603 4863 
L 1178 4863 
L 1178 0 
L 603 0 
L 603 4863 
z
" transform="scale(0.015625)"/>
       </defs>
       <use xlink:href="#DejaVuSans-6d"/>
       <use xlink:href="#DejaVuSans-75" x="97.412109"/>
       <use xlink:href="#DejaVuSans-6c" x="160.791016"/>
       <use xlink:href="#DejaVuSans-69" x="188.574219"/>
      </g>
     </g>
    </g>
    <g id="xtick_4">
     <g id="line2d_4">
      <g>
       <use xlink:href="#mf6fedf5652" x="261.522814" y="607.176" style="stroke: #000000; stroke-width: 0.8"/>
      </g>
     </g>
     <g id="text_4">
      <!-- divi -->
      <g transform="translate(252.611095 621.774437) scale(0.1 -0.1)">
       <defs>
        <path id="DejaVuSans-76" d="M 191 3500 
L 800 3500 
L 1894 563 
L 2988 3500 
L 3597 3500 
L 2284 0 
L 1503 0 
L 191 3500 
z
" transform="scale(0.015625)"/>
       </defs>
       <use xlink:href="#DejaVuSans-64"/>
       <use xlink:href="#DejaVuSans-69" x="63.476562"/>
       <use xlink:href="#DejaVuSans-76" x="91.259766"/>
       <use xlink:href="#DejaVuSans-69" x="150.439453"/>
      </g>
     </g>
    </g>
    <g id="xtick_5">
     <g id="line2d_5">
      <g>
       <use xlink:href="#mf6fedf5652" x="298.822037" y="607.176" style="stroke: #000000; stroke-width: 0.8"/>
      </g>
     </g>
     <g id="text_5">
      <!-- modi -->
      <g transform="translate(286.329069 621.774437) scale(0.1 -0.1)">
       <defs>
        <path id="DejaVuSans-6f" d="M 1959 3097 
Q 1497 3097 1228 2736 
Q 959 2375 959 1747 
Q 959 1119 1226 758 
Q 1494 397 1959 397 
Q 2419 397 2687 759 
Q 2956 1122 2956 1747 
Q 2956 2369 2687 2733 
Q 2419 3097 1959 3097 
z
M 1959 3584 
Q 2709 3584 3137 3096 
Q 3566 2609 3566 1747 
Q 3566 888 3137 398 
Q 2709 -91 1959 -91 
Q 1206 -91 779 398 
Q 353 888 353 1747 
Q 353 2609 779 3096 
Q 1206 3584 1959 3584 
z
" transform="scale(0.015625)"/>
       </defs>
       <use xlink:href="#DejaVuSans-6d"/>
       <use xlink:href="#DejaVuSans-6f" x="97.412109"/>
       <use xlink:href="#DejaVuSans-64" x="158.59375"/>
       <use xlink:href="#DejaVuSans-69" x="222.070312"/>
      </g>
     </g>
    </g>
    <g id="xtick_6">
     <g id="line2d_6">
      <g>
       <use xlink:href="#mf6fedf5652" x="336.121261" y="607.176" style="stroke: #000000; stroke-width: 0.8"/>
      </g>
     </g>
     <g id="text_6">
      <!-- addf -->
      <g transform="translate(324.948605 621.774437) scale(0.1 -0.1)">
       <defs>
        <path id="DejaVuSans-66" d="M 2375 4863 
L 2375 4384 
L 1825 4384 
Q 1516 4384 1395 4259 
Q 1275 4134 1275 3809 
L 1275 3500 
L 2222 3500 
L 2222 3053 
L 1275 3053 
L 1275 0 
L 697 0 
L 697 3053 
L 147 3053 
L 147 3500 
L 697 3500 
L 697 3744 
Q 697 4328 969 4595 
Q 1241 4863 1831 4863 
L 2375 4863 
z
" transform="scale(0.015625)"/>
       </defs>
       <use xlink:href="#DejaVuSans-61"/>
       <use xlink:href="#DejaVuSans-64" x="61.279297"/>
       <use xlink:href="#DejaVuSans-64" x="124.755859"/>
       <use xlink:href="#DejaVuSans-66" x="188.232422"/>
      </g>
     </g>
    </g>
    <g id="xtick_7">
     <g id="line2d_7">
      <g>
       <use xlink:href="#mf6fedf5652" x="373.420484" y="607.176" style="stroke: #000000; stroke-width: 0.8"/>
      </g>
     </g>
     <g id="text_7">
      <!-- subf -->
      <g transform="translate(362.712672 621.774437) scale(0.1 -0.1)">
       <use xlink:href="#DejaVuSans-73"/>
       <use xlink:href="#DejaVuSans-75" x="52.099609"/>
       <use xlink:href="#DejaVuSans-62" x="115.478516"/>
       <use xlink:href="#DejaVuSans-66" x="178.955078"/>
      </g>
     </g>
    </g>
    <g id="xtick_8">
     <g id="line2d_8">
      <g>
       <use xlink:href="#mf6fedf5652" x="410.719708" y="607.176" style="stroke: #000000; stroke-width: 0.8"/>
      </g>
     </g>
     <g id="text_8">
      <!-- mulf -->
      <g transform="translate(399.531426 621.774437) scale(0.1 -0.1)">
       <use xlink:href="#DejaVuSans-6d"/>
       <use xlink:href="#DejaVuSans-75" x="97.412109"/>
       <use xlink:href="#DejaVuSans-6c" x="160.791016"/>
       <use xlink:href="#DejaVuSans-66" x="188.574219"/>
      </g>
     </g>
    </g>
    <g id="xtick_9">
     <g id="line2d_9">
      <g>
       <use xlink:href="#mf6fedf5652" x="448.018931" y="607.176" style="stroke: #000000; stroke-width: 0.8"/>
      </g>
     </g>
     <g id="text_9">
      <!-- divf -->
      <g transform="translate(438.736119 621.774437) scale(0.1 -0.1)">
       <use xlink:href="#DejaVuSans-64"/>
       <use xlink:href="#DejaVuSans-69" x="63.476562"/>
       <use xlink:href="#DejaVuSans-76" x="91.259766"/>
       <use xlink:href="#DejaVuSans-66" x="150.439453"/>
      </g>
     </g>
    </g>
    <g id="xtick_10">
     <g id="line2d_10">
      <g>
       <use xlink:href="#mf6fedf5652" x="485.318154" y="607.176" style="stroke: #000000; stroke-width: 0.8"/>
      </g>
     </g>
     <g id="text_10">
      <!-- add -->
      <g transform="translate(475.905654 621.774437) scale(0.1 -0.1)">
       <use xlink:href="#DejaVuSans-61"/>
       <use xlink:href="#DejaVuSans-64" x="61.279297"/>
       <use xlink:href="#DejaVuSans-64" x="124.755859"/>
      </g>
     </g>
    </g>
    <g id="xtick_11">
     <g id="line2d_11">
      <g>
       <use xlink:href="#mf6fedf5652" x="522.617378" y="607.176" style="stroke: #000000; stroke-width: 0.8"/>
      </g>
     </g>
     <g id="text_11">
      <!-- sub -->
      <g transform="translate(513.669722 621.774437) scale(0.1 -0.1)">
       <use xlink:href="#DejaVuSans-73"/>
       <use xlink:href="#DejaVuSans-75" x="52.099609"/>
       <use xlink:href="#DejaVuSans-62" x="115.478516"/>
      </g>
     </g>
    </g>
    <g id="xtick_12">
     <g id="line2d_12">
      <g>
       <use xlink:href="#mf6fedf5652" x="559.916601" y="607.176" style="stroke: #000000; stroke-width: 0.8"/>
      </g>
     </g>
     <g id="text_12">
      <!-- mul -->
      <g transform="translate(550.488476 621.774437) scale(0.1 -0.1)">
       <use xlink:href="#DejaVuSans-6d"/>
       <use xlink:href="#DejaVuSans-75" x="97.412109"/>
       <use xlink:href="#DejaVuSans-6c" x="160.791016"/>
      </g>
     </g>
    </g>
    <g id="xtick_13">
     <g id="line2d_13">
      <g>
       <use xlink:href="#mf6fedf5652" x="597.215825" y="607.176" style="stroke: #000000; stroke-width: 0.8"/>
      </g>
     </g>
     <g id="text_13">
      <!-- div -->
      <g transform="translate(589.693168 621.774437) scale(0.1 -0.1)">
       <use xlink:href="#DejaVuSans-64"/>
       <use xlink:href="#DejaVuSans-69" x="63.476562"/>
       <use xlink:href="#DejaVuSans-76" x="91.259766"/>
      </g>
     </g>
    </g>
    <g id="xtick_14">
     <g id="line2d_14">
      <g>
       <use xlink:href="#mf6fedf5652" x="634.515048" y="607.176" style="stroke: #000000; stroke-width: 0.8"/>
      </g>
     </g>
     <g id="text_14">
      <!-- fmod -->
      <g transform="translate(621.650985 621.774437) scale(0.1 -0.1)">
       <use xlink:href="#DejaVuSans-66"/>
       <use xlink:href="#DejaVuSans-6d" x="35.205078"/>
       <use xlink:href="#DejaVuSans-6f" x="132.617188"/>
       <use xlink:href="#DejaVuSans-64" x="193.798828"/>
      </g>
     </g>
    </g>
    <g id="xtick_15">
     <g id="line2d_15">
      <g>
       <use xlink:href="#mf6fedf5652" x="671.814271" y="607.176" style="stroke: #000000; stroke-width: 0.8"/>
      </g>
     </g>
     <g id="text_15">
      <!-- floor -->
      <g transform="translate(660.490834 621.774437) scale(0.1 -0.1)">
       <defs>
        <path id="DejaVuSans-72" d="M 2631 2963 
Q 2534 3019 2420 3045 
Q 2306 3072 2169 3072 
Q 1681 3072 1420 2755 
Q 1159 2438 1159 1844 
L 1159 0 
L 581 0 
L 581 3500 
L 1159 3500 
L 1159 2956 
Q 1341 3275 1631 3429 
Q 1922 3584 2338 3584 
Q 2397 3584 2469 3576 
Q 2541 3569 2628 3553 
L 2631 2963 
z
" transform="scale(0.015625)"/>
       </defs>
       <use xlink:href="#DejaVuSans-66"/>
       <use xlink:href="#DejaVuSans-6c" x="35.205078"/>
       <use xlink:href="#DejaVuSans-6f" x="62.988281"/>
       <use xlink:href="#DejaVuSans-6f" x="124.169922"/>
       <use xlink:href="#DejaVuSans-72" x="185.351562"/>
      </g>
     </g>
    </g>
    <g id="xtick_16">
     <g id="line2d_16">
      <g>
       <use xlink:href="#mf6fedf5652" x="709.113495" y="607.176" style="stroke: #000000; stroke-width: 0.8"/>
      </g>
     </g>
     <g id="text_16">
      <!-- ceil -->
      <g transform="translate(700.509588 621.774437) scale(0.1 -0.1)">
       <defs>
        <path id="DejaVuSans-63" d="M 3122 3366 
L 3122 2828 
Q 2878 2963 2633 3030 
Q 2388 3097 2138 3097 
Q 1578 3097 1268 2742 
Q 959 2388 959 1747 
Q 959 1106 1268 751 
Q 1578 397 2138 397 
Q 2388 397 2633 464 
Q 2878 531 3122 666 
L 3122 134 
Q 2881 22 2623 -34 
Q 2366 -91 2075 -91 
Q 1284 -91 818 406 
Q 353 903 353 1747 
Q 353 2603 823 3093 
Q 1294 3584 2113 3584 
Q 2378 3584 2631 3529 
Q 2884 3475 3122 3366 
z
" transform="scale(0.015625)"/>
        <path id="DejaVuSans-65" d="M 3597 1894 
L 3597 1613 
L 953 1613 
Q 991 1019 1311 708 
Q 1631 397 2203 397 
Q 2534 397 2845 478 
Q 3156 559 3463 722 
L 3463 178 
Q 3153 47 2828 -22 
Q 2503 -91 2169 -91 
Q 1331 -91 842 396 
Q 353 884 353 1716 
Q 353 2575 817 3079 
Q 1281 3584 2069 3584 
Q 2775 3584 3186 3129 
Q 3597 2675 3597 1894 
z
M 3022 2063 
Q 3016 2534 2758 2815 
Q 2500 3097 2075 3097 
Q 1594 3097 1305 2825 
Q 1016 2553 972 2059 
L 3022 2063 
z
" transform="scale(0.015625)"/>
       </defs>
       <use xlink:href="#DejaVuSans-63"/>
       <use xlink:href="#DejaVuSans-65" x="54.980469"/>
       <use xlink:href="#DejaVuSans-69" x="116.503906"/>
       <use xlink:href="#DejaVuSans-6c" x="144.287109"/>
      </g>
     </g>
    </g>
    <g id="xtick_17">
     <g id="line2d_17">
      <g>
       <use xlink:href="#mf6fedf5652" x="746.412718" y="607.176" style="stroke: #000000; stroke-width: 0.8"/>
      </g>
     </g>
     <g id="text_17">
      <!-- modf -->
      <g transform="translate(733.548656 621.774437) scale(0.1 -0.1)">
       <use xlink:href="#DejaVuSans-6d"/>
       <use xlink:href="#DejaVuSans-6f" x="97.412109"/>
       <use xlink:href="#DejaVuSans-64" x="158.59375"/>
       <use xlink:href="#DejaVuSans-66" x="222.070312"/>
      </g>
     </g>
    </g>
    <g id="xtick_18">
     <g id="line2d_18">
      <g>
       <use xlink:href="#mf6fedf5652" x="783.711942" y="607.176" style="stroke: #000000; stroke-width: 0.8"/>
      </g>
     </g>
     <g id="text_18">
      <!-- fabs -->
      <g transform="translate(773.108817 621.774437) scale(0.1 -0.1)">
       <use xlink:href="#DejaVuSans-66"/>
       <use xlink:href="#DejaVuSans-61" x="35.205078"/>
       <use xlink:href="#DejaVuSans-62" x="96.484375"/>
       <use xlink:href="#DejaVuSans-73" x="159.960938"/>
      </g>
     </g>
    </g>
    <g id="xtick_19">
     <g id="line2d_19">
      <g>
       <use xlink:href="#mf6fedf5652" x="821.011165" y="607.176" style="stroke: #000000; stroke-width: 0.8"/>
      </g>
     </g>
     <g id="text_19">
      <!-- sqrt -->
      <g transform="translate(811.216634 621.774437) scale(0.1 -0.1)">
       <defs>
        <path id="DejaVuSans-71" d="M 947 1747 
Q 947 1113 1208 752 
Q 1469 391 1925 391 
Q 2381 391 2643 752 
Q 2906 1113 2906 1747 
Q 2906 2381 2643 2742 
Q 2381 3103 1925 3103 
Q 1469 3103 1208 2742 
Q 947 2381 947 1747 
z
M 2906 525 
Q 2725 213 2448 61 
Q 2172 -91 1784 -91 
Q 1150 -91 751 415 
Q 353 922 353 1747 
Q 353 2572 751 3078 
Q 1150 3584 1784 3584 
Q 2172 3584 2448 3432 
Q 2725 3281 2906 2969 
L 2906 3500 
L 3481 3500 
L 3481 -1331 
L 2906 -1331 
L 2906 525 
z
" transform="scale(0.015625)"/>
        <path id="DejaVuSans-74" d="M 1172 4494 
L 1172 3500 
L 2356 3500 
L 2356 3053 
L 1172 3053 
L 1172 1153 
Q 1172 725 1289 603 
Q 1406 481 1766 481 
L 2356 481 
L 2356 0 
L 1766 0 
Q 1100 0 847 248 
Q 594 497 594 1153 
L 594 3053 
L 172 3053 
L 172 3500 
L 594 3500 
L 594 4494 
L 1172 4494 
z
" transform="scale(0.015625)"/>
       </defs>
       <use xlink:href="#DejaVuSans-73"/>
       <use xlink:href="#DejaVuSans-71" x="52.099609"/>
       <use xlink:href="#DejaVuSans-72" x="115.576172"/>
       <use xlink:href="#DejaVuSans-74" x="156.689453"/>
      </g>
     </g>
    </g>
    <g id="xtick_20">
     <g id="line2d_20">
      <g>
       <use xlink:href="#mf6fedf5652" x="858.310388" y="607.176" style="stroke: #000000; stroke-width: 0.8"/>
      </g>
     </g>
     <g id="text_20">
      <!-- hypot -->
      <g transform="translate(843.988513 621.774437) scale(0.1 -0.1)">
       <defs>
        <path id="DejaVuSans-68" d="M 3513 2113 
L 3513 0 
L 2938 0 
L 2938 2094 
Q 2938 2591 2744 2837 
Q 2550 3084 2163 3084 
Q 1697 3084 1428 2787 
Q 1159 2491 1159 1978 
L 1159 0 
L 581 0 
L 581 4863 
L 1159 4863 
L 1159 2956 
Q 1366 3272 1645 3428 
Q 1925 3584 2291 3584 
Q 2894 3584 3203 3211 
Q 3513 2838 3513 2113 
z
" transform="scale(0.015625)"/>
        <path id="DejaVuSans-79" d="M 2059 -325 
Q 1816 -950 1584 -1140 
Q 1353 -1331 966 -1331 
L 506 -1331 
L 506 -850 
L 844 -850 
Q 1081 -850 1212 -737 
Q 1344 -625 1503 -206 
L 1606 56 
L 191 3500 
L 800 3500 
L 1894 763 
L 2988 3500 
L 3597 3500 
L 2059 -325 
z
" transform="scale(0.015625)"/>
        <path id="DejaVuSans-70" d="M 1159 525 
L 1159 -1331 
L 581 -1331 
L 581 3500 
L 1159 3500 
L 1159 2969 
Q 1341 3281 1617 3432 
Q 1894 3584 2278 3584 
Q 2916 3584 3314 3078 
Q 3713 2572 3713 1747 
Q 3713 922 3314 415 
Q 2916 -91 2278 -91 
Q 1894 -91 1617 61 
Q 1341 213 1159 525 
z
M 3116 1747 
Q 3116 2381 2855 2742 
Q 2594 3103 2138 3103 
Q 1681 3103 1420 2742 
Q 1159 2381 1159 1747 
Q 1159 1113 1420 752 
Q 1681 391 2138 391 
Q 2594 391 2855 752 
Q 3116 1113 3116 1747 
z
" transform="scale(0.015625)"/>
       </defs>
       <use xlink:href="#DejaVuSans-68"/>
       <use xlink:href="#DejaVuSans-79" x="63.378906"/>
       <use xlink:href="#DejaVuSans-70" x="122.558594"/>
       <use xlink:href="#DejaVuSans-6f" x="186.035156"/>
       <use xlink:href="#DejaVuSans-74" x="247.216797"/>
      </g>
     </g>
    </g>
    <g id="xtick_21">
     <g id="line2d_21">
      <g>
       <use xlink:href="#mf6fedf5652" x="895.609612" y="607.176" style="stroke: #000000; stroke-width: 0.8"/>
      </g>
     </g>
     <g id="text_21">
      <!-- cbrt -->
      <g transform="translate(885.670549 621.774437) scale(0.1 -0.1)">
       <use xlink:href="#DejaVuSans-63"/>
       <use xlink:href="#DejaVuSans-62" x="54.980469"/>
       <use xlink:href="#DejaVuSans-72" x="118.457031"/>
       <use xlink:href="#DejaVuSans-74" x="159.570312"/>
      </g>
     </g>
    </g>
    <g id="xtick_22">
     <g id="line2d_22">
      <g>
       <use xlink:href="#mf6fedf5652" x="932.908835" y="607.176" style="stroke: #000000; stroke-width: 0.8"/>
      </g>
     </g>
     <g id="text_22">
      <!-- sin -->
      <g transform="translate(925.746335 621.774437) scale(0.1 -0.1)">
       <defs>
        <path id="DejaVuSans-6e" d="M 3513 2113 
L 3513 0 
L 2938 0 
L 2938 2094 
Q 2938 2591 2744 2837 
Q 2550 3084 2163 3084 
Q 1697 3084 1428 2787 
Q 1159 2491 1159 1978 
L 1159 0 
L 581 0 
L 581 3500 
L 1159 3500 
L 1159 2956 
Q 1366 3272 1645 3428 
Q 1925 3584 2291 3584 
Q 2894 3584 3203 3211 
Q 3513 2838 3513 2113 
z
" transform="scale(0.015625)"/>
       </defs>
       <use xlink:href="#DejaVuSans-73"/>
       <use xlink:href="#DejaVuSans-69" x="52.099609"/>
       <use xlink:href="#DejaVuSans-6e" x="79.882812"/>
      </g>
     </g>
    </g>
    <g id="xtick_23">
     <g id="line2d_23">
      <g>
       <use xlink:href="#mf6fedf5652" x="970.208058" y="607.176" style="stroke: #000000; stroke-width: 0.8"/>
      </g>
     </g>
     <g id="text_23">
      <!-- cos -->
      <g transform="translate(961.794777 621.774437) scale(0.1 -0.1)">
       <use xlink:href="#DejaVuSans-63"/>
       <use xlink:href="#DejaVuSans-6f" x="54.980469"/>
       <use xlink:href="#DejaVuSans-73" x="116.162109"/>
      </g>
     </g>
    </g>
    <g id="xtick_24">
     <g id="line2d_24">
      <g>
       <use xlink:href="#mf6fedf5652" x="1007.507282" y="607.176" style="stroke: #000000; stroke-width: 0.8"/>
      </g>
     </g>
     <g id="text_24">
      <!-- tan -->
      <g transform="translate(999.314313 621.774437) scale(0.1 -0.1)">
       <use xlink:href="#DejaVuSans-74"/>
       <use xlink:href="#DejaVuSans-61" x="39.208984"/>
       <use xlink:href="#DejaVuSans-6e" x="100.488281"/>
      </g>
     </g>
    </g>
    <g id="xtick_25">
     <g id="line2d_25">
      <g>
       <use xlink:href="#mf6fedf5652" x="1044.806505" y="607.176" style="stroke: #000000; stroke-width: 0.8"/>
      </g>
     </g>
     <g id="text_25">
      <!-- asin -->
      <g transform="translate(1034.579943 621.774437) scale(0.1 -0.1)">
       <use xlink:href="#DejaVuSans-61"/>
       <use xlink:href="#DejaVuSans-73" x="61.279297"/>
       <use xlink:href="#DejaVuSans-69" x="113.378906"/>
       <use xlink:href="#DejaVuSans-6e" x="141.162109"/>
      </g>
     </g>
    </g>
    <g id="xtick_26">
     <g id="line2d_26">
      <g>
       <use xlink:href="#mf6fedf5652" x="1082.105729" y="607.176" style="stroke: #000000; stroke-width: 0.8"/>
      </g>
     </g>
     <g id="text_26">
      <!-- acos -->
      <g transform="translate(1070.628385 621.774437) scale(0.1 -0.1)">
       <use xlink:href="#DejaVuSans-61"/>
       <use xlink:href="#DejaVuSans-63" x="61.279297"/>
       <use xlink:href="#DejaVuSans-6f" x="116.259766"/>
       <use xlink:href="#DejaVuSans-73" x="177.441406"/>
      </g>
     </g>
    </g>
    <g id="xtick_27">
     <g id="line2d_27">
      <g>
       <use xlink:href="#mf6fedf5652" x="1119.404952" y="607.176" style="stroke: #000000; stroke-width: 0.8"/>
      </g>
     </g>
     <g id="text_27">
      <!-- atan -->
      <g transform="translate(1108.147921 621.774437) scale(0.1 -0.1)">
       <use xlink:href="#DejaVuSans-61"/>
       <use xlink:href="#DejaVuSans-74" x="61.279297"/>
       <use xlink:href="#DejaVuSans-61" x="100.488281"/>
       <use xlink:href="#DejaVuSans-6e" x="161.767578"/>
      </g>
     </g>
    </g>
    <g id="xtick_28">
     <g id="line2d_28">
      <g>
       <use xlink:href="#mf6fedf5652" x="1156.704175" y="607.176" style="stroke: #000000; stroke-width: 0.8"/>
      </g>
     </g>
     <g id="text_28">
      <!-- atan2 -->
      <g transform="translate(1142.265894 621.774437) scale(0.1 -0.1)">
       <defs>
        <path id="DejaVuSans-32" d="M 1228 531 
L 3431 531 
L 3431 0 
L 469 0 
L 469 531 
Q 828 903 1448 1529 
Q 2069 2156 2228 2338 
Q 2531 2678 2651 2914 
Q 2772 3150 2772 3378 
Q 2772 3750 2511 3984 
Q 2250 4219 1831 4219 
Q 1534 4219 1204 4116 
Q 875 4013 500 3803 
L 500 4441 
Q 881 4594 1212 4672 
Q 1544 4750 1819 4750 
Q 2544 4750 2975 4387 
Q 3406 4025 3406 3419 
Q 3406 3131 3298 2873 
Q 3191 2616 2906 2266 
Q 2828 2175 2409 1742 
Q 1991 1309 1228 531 
z
" transform="scale(0.015625)"/>
       </defs>
       <use xlink:href="#DejaVuSans-61"/>
       <use xlink:href="#DejaVuSans-74" x="61.279297"/>
       <use xlink:href="#DejaVuSans-61" x="100.488281"/>
       <use xlink:href="#DejaVuSans-6e" x="161.767578"/>
       <use xlink:href="#DejaVuSans-32" x="225.146484"/>
      </g>
     </g>
    </g>
    <g id="xtick_29">
     <g id="line2d_29">
      <g>
       <use xlink:href="#mf6fedf5652" x="1194.003399" y="607.176" style="stroke: #000000; stroke-width: 0.8"/>
      </g>
     </g>
     <g id="text_29">
      <!-- sinh -->
      <g transform="translate(1183.672149 621.774437) scale(0.1 -0.1)">
       <use xlink:href="#DejaVuSans-73"/>
       <use xlink:href="#DejaVuSans-69" x="52.099609"/>
       <use xlink:href="#DejaVuSans-6e" x="79.882812"/>
       <use xlink:href="#DejaVuSans-68" x="143.261719"/>
      </g>
     </g>
    </g>
    <g id="xtick_30">
     <g id="line2d_30">
      <g>
       <use xlink:href="#mf6fedf5652" x="1231.302622" y="607.176" style="stroke: #000000; stroke-width: 0.8"/>
      </g>
     </g>
     <g id="text_30">
      <!-- cosh -->
      <g transform="translate(1219.720591 621.774437) scale(0.1 -0.1)">
       <use xlink:href="#DejaVuSans-63"/>
       <use xlink:href="#DejaVuSans-6f" x="54.980469"/>
       <use xlink:href="#DejaVuSans-73" x="116.162109"/>
       <use xlink:href="#DejaVuSans-68" x="168.261719"/>
      </g>
     </g>
    </g>
    <g id="xtick_31">
     <g id="line2d_31">
      <g>
       <use xlink:href="#mf6fedf5652" x="1268.601846" y="607.176" style="stroke: #000000; stroke-width: 0.8"/>
      </g>
     </g>
     <g id="text_31">
      <!-- tanh -->
      <g transform="translate(1257.240127 621.774437) scale(0.1 -0.1)">
       <use xlink:href="#DejaVuSans-74"/>
       <use xlink:href="#DejaVuSans-61" x="39.208984"/>
       <use xlink:href="#DejaVuSans-6e" x="100.488281"/>
       <use xlink:href="#DejaVuSans-68" x="163.867188"/>
      </g>
     </g>
    </g>
    <g id="xtick_32">
     <g id="line2d_32">
      <g>
       <use xlink:href="#mf6fedf5652" x="1305.901069" y="607.176" style="stroke: #000000; stroke-width: 0.8"/>
      </g>
     </g>
     <g id="text_32">
      <!-- asinh -->
      <g transform="translate(1292.505756 621.774437) scale(0.1 -0.1)">
       <use xlink:href="#DejaVuSans-61"/>
       <use xlink:href="#DejaVuSans-73" x="61.279297"/>
       <use xlink:href="#DejaVuSans-69" x="113.378906"/>
       <use xlink:href="#DejaVuSans-6e" x="141.162109"/>
       <use xlink:href="#DejaVuSans-68" x="204.541016"/>
      </g>
     </g>
    </g>
    <g id="xtick_33">
     <g id="line2d_33">
      <g>
       <use xlink:href="#mf6fedf5652" x="1343.200292" y="607.176" style="stroke: #000000; stroke-width: 0.8"/>
      </g>
     </g>
     <g id="text_33">
      <!-- acosh -->
      <g transform="translate(1328.554199 621.774437) scale(0.1 -0.1)">
       <use xlink:href="#DejaVuSans-61"/>
       <use xlink:href="#DejaVuSans-63" x="61.279297"/>
       <use xlink:href="#DejaVuSans-6f" x="116.259766"/>
       <use xlink:href="#DejaVuSans-73" x="177.441406"/>
       <use xlink:href="#DejaVuSans-68" x="229.541016"/>
      </g>
     </g>
    </g>
    <g id="xtick_34">
     <g id="line2d_34">
      <g>
       <use xlink:href="#mf6fedf5652" x="1380.499516" y="607.176" style="stroke: #000000; stroke-width: 0.8"/>
      </g>
     </g>
     <g id="text_34">
      <!-- atanh -->
      <g transform="translate(1366.073735 621.774437) scale(0.1 -0.1)">
       <use xlink:href="#DejaVuSans-61"/>
       <use xlink:href="#DejaVuSans-74" x="61.279297"/>
       <use xlink:href="#DejaVuSans-61" x="100.488281"/>
       <use xlink:href="#DejaVuSans-6e" x="161.767578"/>
       <use xlink:href="#DejaVuSans-68" x="225.146484"/>
      </g>
     </g>
    </g>
    <g id="xtick_35">
     <g id="line2d_35">
      <g>
       <use xlink:href="#mf6fedf5652" x="1417.798739" y="607.176" style="stroke: #000000; stroke-width: 0.8"/>
      </g>
     </g>
     <g id="text_35">
      <!-- exp -->
      <g transform="translate(1408.676083 621.774437) scale(0.1 -0.1)">
       <defs>
        <path id="DejaVuSans-78" d="M 3513 3500 
L 2247 1797 
L 3578 0 
L 2900 0 
L 1881 1375 
L 863 0 
L 184 0 
L 1544 1831 
L 300 3500 
L 978 3500 
L 1906 2253 
L 2834 3500 
L 3513 3500 
z
" transform="scale(0.015625)"/>
       </defs>
       <use xlink:href="#DejaVuSans-65"/>
       <use xlink:href="#DejaVuSans-78" x="59.773438"/>
       <use xlink:href="#DejaVuSans-70" x="118.953125"/>
      </g>
     </g>
    </g>
    <g id="xtick_36">
     <g id="line2d_36">
      <g>
       <use xlink:href="#mf6fedf5652" x="1455.097963" y="607.176" style="stroke: #000000; stroke-width: 0.8"/>
      </g>
     </g>
     <g id="text_36">
      <!-- ldexp -->
      <g transform="translate(1441.412025 621.774437) scale(0.1 -0.1)">
       <use xlink:href="#DejaVuSans-6c"/>
       <use xlink:href="#DejaVuSans-64" x="27.783203"/>
       <use xlink:href="#DejaVuSans-65" x="91.259766"/>
       <use xlink:href="#DejaVuSans-78" x="151.033203"/>
       <use xlink:href="#DejaVuSans-70" x="210.212891"/>
      </g>
     </g>
    </g>
    <g id="xtick_37">
     <g id="line2d_37">
      <g>
       <use xlink:href="#mf6fedf5652" x="1492.397186" y="607.176" style="stroke: #000000; stroke-width: 0.8"/>
      </g>
     </g>
     <g id="text_37">
      <!-- frexp -->
      <g transform="translate(1479.571405 621.774437) scale(0.1 -0.1)">
       <use xlink:href="#DejaVuSans-66"/>
       <use xlink:href="#DejaVuSans-72" x="35.205078"/>
       <use xlink:href="#DejaVuSans-65" x="74.068359"/>
       <use xlink:href="#DejaVuSans-78" x="133.841797"/>
       <use xlink:href="#DejaVuSans-70" x="193.021484"/>
      </g>
     </g>
    </g>
    <g id="xtick_38">
     <g id="line2d_38">
      <g>
       <use xlink:href="#mf6fedf5652" x="1529.696409" y="607.176" style="stroke: #000000; stroke-width: 0.8"/>
      </g>
     </g>
     <g id="text_38">
      <!-- pow -->
      <g transform="translate(1519.373753 621.774437) scale(0.1 -0.1)">
       <defs>
        <path id="DejaVuSans-77" d="M 269 3500 
L 844 3500 
L 1563 769 
L 2278 3500 
L 2956 3500 
L 3675 769 
L 4391 3500 
L 4966 3500 
L 4050 0 
L 3372 0 
L 2619 2869 
L 1863 0 
L 1184 0 
L 269 3500 
z
" transform="scale(0.015625)"/>
       </defs>
       <use xlink:href="#DejaVuSans-70"/>
       <use xlink:href="#DejaVuSans-6f" x="63.476562"/>
       <use xlink:href="#DejaVuSans-77" x="124.658203"/>
      </g>
     </g>
    </g>
    <g id="xtick_39">
     <g id="line2d_39">
      <g>
       <use xlink:href="#mf6fedf5652" x="1566.995633" y="607.176" style="stroke: #000000; stroke-width: 0.8"/>
      </g>
     </g>
     <g id="text_39">
      <!-- log -->
      <g transform="translate(1559.372976 621.774437) scale(0.1 -0.1)">
       <defs>
        <path id="DejaVuSans-67" d="M 2906 1791 
Q 2906 2416 2648 2759 
Q 2391 3103 1925 3103 
Q 1463 3103 1205 2759 
Q 947 2416 947 1791 
Q 947 1169 1205 825 
Q 1463 481 1925 481 
Q 2391 481 2648 825 
Q 2906 1169 2906 1791 
z
M 3481 434 
Q 3481 -459 3084 -895 
Q 2688 -1331 1869 -1331 
Q 1566 -1331 1297 -1286 
Q 1028 -1241 775 -1147 
L 775 -588 
Q 1028 -725 1275 -790 
Q 1522 -856 1778 -856 
Q 2344 -856 2625 -561 
Q 2906 -266 2906 331 
L 2906 616 
Q 2728 306 2450 153 
Q 2172 0 1784 0 
Q 1141 0 747 490 
Q 353 981 353 1791 
Q 353 2603 747 3093 
Q 1141 3584 1784 3584 
Q 2172 3584 2450 3431 
Q 2728 3278 2906 2969 
L 2906 3500 
L 3481 3500 
L 3481 434 
z
" transform="scale(0.015625)"/>
       </defs>
       <use xlink:href="#DejaVuSans-6c"/>
       <use xlink:href="#DejaVuSans-6f" x="27.783203"/>
       <use xlink:href="#DejaVuSans-67" x="88.964844"/>
      </g>
     </g>
    </g>
    <g id="xtick_40">
     <g id="line2d_40">
      <g>
       <use xlink:href="#mf6fedf5652" x="1604.294856" y="607.176" style="stroke: #000000; stroke-width: 0.8"/>
      </g>
     </g>
     <g id="text_40">
      <!-- log10 -->
      <g transform="translate(1590.3097 621.774437) scale(0.1 -0.1)">
       <defs>
        <path id="DejaVuSans-31" d="M 794 531 
L 1825 531 
L 1825 4091 
L 703 3866 
L 703 4441 
L 1819 4666 
L 2450 4666 
L 2450 531 
L 3481 531 
L 3481 0 
L 794 0 
L 794 531 
z
" transform="scale(0.015625)"/>
        <path id="DejaVuSans-30" d="M 2034 4250 
Q 1547 4250 1301 3770 
Q 1056 3291 1056 2328 
Q 1056 1369 1301 889 
Q 1547 409 2034 409 
Q 2525 409 2770 889 
Q 3016 1369 3016 2328 
Q 3016 3291 2770 3770 
Q 2525 4250 2034 4250 
z
M 2034 4750 
Q 2819 4750 3233 4129 
Q 3647 3509 3647 2328 
Q 3647 1150 3233 529 
Q 2819 -91 2034 -91 
Q 1250 -91 836 529 
Q 422 1150 422 2328 
Q 422 3509 836 4129 
Q 1250 4750 2034 4750 
z
" transform="scale(0.015625)"/>
       </defs>
       <use xlink:href="#DejaVuSans-6c"/>
       <use xlink:href="#DejaVuSans-6f" x="27.783203"/>
       <use xlink:href="#DejaVuSans-67" x="88.964844"/>
       <use xlink:href="#DejaVuSans-31" x="152.441406"/>
       <use xlink:href="#DejaVuSans-30" x="216.064453"/>
      </g>
     </g>
    </g>
    <g id="text_41">
     <!-- Math operations -->
     <g transform="translate(836.252187 635.452562) scale(0.1 -0.1)">
      <defs>
       <path id="DejaVuSans-4d" d="M 628 4666 
L 1569 4666 
L 2759 1491 
L 3956 4666 
L 4897 4666 
L 4897 0 
L 4281 0 
L 4281 4097 
L 3078 897 
L 2444 897 
L 1241 4097 
L 1241 0 
L 628 0 
L 628 4666 
z
" transform="scale(0.015625)"/>
       <path id="DejaVuSans-20" transform="scale(0.015625)"/>
      </defs>
      <use xlink:href="#DejaVuSans-4d"/>
      <use xlink:href="#DejaVuSans-61" x="86.279297"/>
      <use xlink:href="#DejaVuSans-74" x="147.558594"/>
      <use xlink:href="#DejaVuSans-68" x="186.767578"/>
      <use xlink:href="#DejaVuSans-20" x="250.146484"/>
      <use xlink:href="#DejaVuSans-6f" x="281.933594"/>
      <use xlink:href="#DejaVuSans-70" x="343.115234"/>
      <use xlink:href="#DejaVuSans-65" x="406.591797"/>
      <use xlink:href="#DejaVuSans-72" x="468.115234"/>
      <use xlink:href="#DejaVuSans-61" x="509.228516"/>
      <use xlink:href="#DejaVuSans-74" x="570.507812"/>
      <use xlink:href="#DejaVuSans-69" x="609.716797"/>
      <use xlink:href="#DejaVuSans-6f" x="637.5"/>
      <use xlink:href="#DejaVuSans-6e" x="698.681641"/>
      <use xlink:href="#DejaVuSans-73" x="762.060547"/>
     </g>
    </g>
   </g>
   <g id="matplotlib.axis_2">
    <g id="ytick_1">
     <g id="line2d_41">
      <defs>
       <path id="m40e8086b83" d="M 0 0 
L -3.5 0 
" style="stroke: #000000; stroke-width: 0.8"/>
      </defs>
      <g>
       <use xlink:href="#m40e8086b83" x="60.48" y="607.176" style="stroke: #000000; stroke-width: 0.8"/>
      </g>
     </g>
     <g id="text_42">
      <!-- 0 -->
      <g transform="translate(47.1175 610.975219) scale(0.1 -0.1)">
       <use xlink:href="#DejaVuSans-30"/>
      </g>
     </g>
    </g>
    <g id="ytick_2">
     <g id="line2d_42">
      <g>
       <use xlink:href="#m40e8086b83" x="60.48" y="522.698145" style="stroke: #000000; stroke-width: 0.8"/>
      </g>
     </g>
     <g id="text_43">
      <!-- 100 -->
      <g transform="translate(34.3925 526.497364) scale(0.1 -0.1)">
       <use xlink:href="#DejaVuSans-31"/>
       <use xlink:href="#DejaVuSans-30" x="63.623047"/>
       <use xlink:href="#DejaVuSans-30" x="127.246094"/>
      </g>
     </g>
    </g>
    <g id="ytick_3">
     <g id="line2d_43">
      <g>
       <use xlink:href="#m40e8086b83" x="60.48" y="438.22029" style="stroke: #000000; stroke-width: 0.8"/>
      </g>
     </g>
     <g id="text_44">
      <!-- 200 -->
      <g transform="translate(34.3925 442.019509) scale(0.1 -0.1)">
       <use xlink:href="#DejaVuSans-32"/>
       <use xlink:href="#DejaVuSans-30" x="63.623047"/>
       <use xlink:href="#DejaVuSans-30" x="127.246094"/>
      </g>
     </g>
    </g>
    <g id="ytick_4">
     <g id="line2d_44">
      <g>
       <use xlink:href="#m40e8086b83" x="60.48" y="353.742436" style="stroke: #000000; stroke-width: 0.8"/>
      </g>
     </g>
     <g id="text_45">
      <!-- 300 -->
      <g transform="translate(34.3925 357.541654) scale(0.1 -0.1)">
       <defs>
        <path id="DejaVuSans-33" d="M 2597 2516 
Q 3050 2419 3304 2112 
Q 3559 1806 3559 1356 
Q 3559 666 3084 287 
Q 2609 -91 1734 -91 
Q 1441 -91 1130 -33 
Q 819 25 488 141 
L 488 750 
Q 750 597 1062 519 
Q 1375 441 1716 441 
Q 2309 441 2620 675 
Q 2931 909 2931 1356 
Q 2931 1769 2642 2001 
Q 2353 2234 1838 2234 
L 1294 2234 
L 1294 2753 
L 1863 2753 
Q 2328 2753 2575 2939 
Q 2822 3125 2822 3475 
Q 2822 3834 2567 4026 
Q 2313 4219 1838 4219 
Q 1578 4219 1281 4162 
Q 984 4106 628 3988 
L 628 4550 
Q 988 4650 1302 4700 
Q 1616 4750 1894 4750 
Q 2613 4750 3031 4423 
Q 3450 4097 3450 3541 
Q 3450 3153 3228 2886 
Q 3006 2619 2597 2516 
z
" transform="scale(0.015625)"/>
       </defs>
       <use xlink:href="#DejaVuSans-33"/>
       <use xlink:href="#DejaVuSans-30" x="63.623047"/>
       <use xlink:href="#DejaVuSans-30" x="127.246094"/>
      </g>
     </g>
    </g>
    <g id="ytick_5">
     <g id="line2d_45">
      <g>
       <use xlink:href="#m40e8086b83" x="60.48" y="269.264581" style="stroke: #000000; stroke-width: 0.8"/>
      </g>
     </g>
     <g id="text_46">
      <!-- 400 -->
      <g transform="translate(34.3925 273.0638) scale(0.1 -0.1)">
       <defs>
        <path id="DejaVuSans-34" d="M 2419 4116 
L 825 1625 
L 2419 1625 
L 2419 4116 
z
M 2253 4666 
L 3047 4666 
L 3047 1625 
L 3713 1625 
L 3713 1100 
L 3047 1100 
L 3047 0 
L 2419 0 
L 2419 1100 
L 313 1100 
L 313 1709 
L 2253 4666 
z
" transform="scale(0.015625)"/>
       </defs>
       <use xlink:href="#DejaVuSans-34"/>
       <use xlink:href="#DejaVuSans-30" x="63.623047"/>
       <use xlink:href="#DejaVuSans-30" x="127.246094"/>
      </g>
     </g>
    </g>
    <g id="ytick_6">
     <g id="line2d_46">
      <g>
       <use xlink:href="#m40e8086b83" x="60.48" y="184.786726" style="stroke: #000000; stroke-width: 0.8"/>
      </g>
     </g>
     <g id="text_47">
      <!-- 500 -->
      <g transform="translate(34.3925 188.585945) scale(0.1 -0.1)">
       <defs>
        <path id="DejaVuSans-35" d="M 691 4666 
L 3169 4666 
L 3169 4134 
L 1269 4134 
L 1269 2991 
Q 1406 3038 1543 3061 
Q 1681 3084 1819 3084 
Q 2600 3084 3056 2656 
Q 3513 2228 3513 1497 
Q 3513 744 3044 326 
Q 2575 -91 1722 -91 
Q 1428 -91 1123 -41 
Q 819 9 494 109 
L 494 744 
Q 775 591 1075 516 
Q 1375 441 1709 441 
Q 2250 441 2565 725 
Q 2881 1009 2881 1497 
Q 2881 1984 2565 2268 
Q 2250 2553 1709 2553 
Q 1456 2553 1204 2497 
Q 953 2441 691 2322 
L 691 4666 
z
" transform="scale(0.015625)"/>
       </defs>
       <use xlink:href="#DejaVuSans-35"/>
       <use xlink:href="#DejaVuSans-30" x="63.623047"/>
       <use xlink:href="#DejaVuSans-30" x="127.246094"/>
      </g>
     </g>
    </g>
    <g id="ytick_7">
     <g id="line2d_47">
      <g>
       <use xlink:href="#m40e8086b83" x="60.48" y="100.308871" style="stroke: #000000; stroke-width: 0.8"/>
      </g>
     </g>
     <g id="text_48">
      <!-- 600 -->
      <g transform="translate(34.3925 104.10809) scale(0.1 -0.1)">
       <defs>
        <path id="DejaVuSans-36" d="M 2113 2584 
Q 1688 2584 1439 2293 
Q 1191 2003 1191 1497 
Q 1191 994 1439 701 
Q 1688 409 2113 409 
Q 2538 409 2786 701 
Q 3034 994 3034 1497 
Q 3034 2003 2786 2293 
Q 2538 2584 2113 2584 
z
M 3366 4563 
L 3366 3988 
Q 3128 4100 2886 4159 
Q 2644 4219 2406 4219 
Q 1781 4219 1451 3797 
Q 1122 3375 1075 2522 
Q 1259 2794 1537 2939 
Q 1816 3084 2150 3084 
Q 2853 3084 3261 2657 
Q 3669 2231 3669 1497 
Q 3669 778 3244 343 
Q 2819 -91 2113 -91 
Q 1303 -91 875 529 
Q 447 1150 447 2328 
Q 447 3434 972 4092 
Q 1497 4750 2381 4750 
Q 2619 4750 2861 4703 
Q 3103 4656 3366 4563 
z
" transform="scale(0.015625)"/>
       </defs>
       <use xlink:href="#DejaVuSans-36"/>
       <use xlink:href="#DejaVuSans-30" x="63.623047"/>
       <use xlink:href="#DejaVuSans-30" x="127.246094"/>
      </g>
     </g>
    </g>
    <g id="text_49">
     <!-- Average nanoseconds -->
     <g transform="translate(28.312812 372.540313) rotate(-90) scale(0.1 -0.1)">
      <defs>
       <path id="DejaVuSans-41" d="M 2188 4044 
L 1331 1722 
L 3047 1722 
L 2188 4044 
z
M 1831 4666 
L 2547 4666 
L 4325 0 
L 3669 0 
L 3244 1197 
L 1141 1197 
L 716 0 
L 50 0 
L 1831 4666 
z
" transform="scale(0.015625)"/>
      </defs>
      <use xlink:href="#DejaVuSans-41"/>
      <use xlink:href="#DejaVuSans-76" x="62.533203"/>
      <use xlink:href="#DejaVuSans-65" x="121.712891"/>
      <use xlink:href="#DejaVuSans-72" x="183.236328"/>
      <use xlink:href="#DejaVuSans-61" x="224.349609"/>
      <use xlink:href="#DejaVuSans-67" x="285.628906"/>
      <use xlink:href="#DejaVuSans-65" x="349.105469"/>
      <use xlink:href="#DejaVuSans-20" x="410.628906"/>
      <use xlink:href="#DejaVuSans-6e" x="442.416016"/>
      <use xlink:href="#DejaVuSans-61" x="505.794922"/>
      <use xlink:href="#DejaVuSans-6e" x="567.074219"/>
      <use xlink:href="#DejaVuSans-6f" x="630.453125"/>
      <use xlink:href="#DejaVuSans-73" x="691.634766"/>
      <use xlink:href="#DejaVuSans-65" x="743.734375"/>
      <use xlink:href="#DejaVuSans-63" x="805.257812"/>
      <use xlink:href="#DejaVuSans-6f" x="860.238281"/>
      <use xlink:href="#DejaVuSans-6e" x="921.419922"/>
      <use xlink:href="#DejaVuSans-64" x="984.798828"/>
      <use xlink:href="#DejaVuSans-73" x="1048.275391"/>
     </g>
    </g>
   </g>
   <g id="patch_43">
    <path d="M 60.48 607.176 
L 60.48 27.864 
" style="fill: none; stroke: #000000; stroke-width: 0.8; stroke-linejoin: miter; stroke-linecap: square"/>
   </g>
   <g id="patch_44">
    <path d="M 1693.44 607.176 
L 1693.44 27.864 
" style="fill: none; stroke: #000000; stroke-width: 0.8; stroke-linejoin: miter; stroke-linecap: square"/>
   </g>
   <g id="patch_45">
    <path d="M 60.48 607.176 
L 1693.44 607.176 
" style="fill: none; stroke: #000000; stroke-width: 0.8; stroke-linejoin: miter; stroke-linecap: square"/>
   </g>
   <g id="patch_46">
    <path d="M 60.48 27.864 
L 1693.44 27.864 
" style="fill: none; stroke: #000000; stroke-width: 0.8; stroke-linejoin: miter; stroke-linecap: square"/>
   </g>
   <g id="text_50">
    <!-- AMDC average nanoseconds per math operation -->
    <g transform="translate(730.840312 21.864) scale(0.12 -0.12)">
     <defs>
      <path id="DejaVuSans-44" d="M 1259 4147 
L 1259 519 
L 2022 519 
Q 2988 519 3436 956 
Q 3884 1394 3884 2338 
Q 3884 3275 3436 3711 
Q 2988 4147 2022 4147 
L 1259 4147 
z
M 628 4666 
L 1925 4666 
Q 3281 4666 3915 4102 
Q 4550 3538 4550 2338 
Q 4550 1131 3912 565 
Q 3275 0 1925 0 
L 628 0 
L 628 4666 
z
" transform="scale(0.015625)"/>
      <path id="DejaVuSans-43" d="M 4122 4306 
L 4122 3641 
Q 3803 3938 3442 4084 
Q 3081 4231 2675 4231 
Q 1875 4231 1450 3742 
Q 1025 3253 1025 2328 
Q 1025 1406 1450 917 
Q 1875 428 2675 428 
Q 3081 428 3442 575 
Q 3803 722 4122 1019 
L 4122 359 
Q 3791 134 3420 21 
Q 3050 -91 2638 -91 
Q 1578 -91 968 557 
Q 359 1206 359 2328 
Q 359 3453 968 4101 
Q 1578 4750 2638 4750 
Q 3056 4750 3426 4639 
Q 3797 4528 4122 4306 
z
" transform="scale(0.015625)"/>
     </defs>
     <use xlink:href="#DejaVuSans-41"/>
     <use xlink:href="#DejaVuSans-4d" x="68.408203"/>
     <use xlink:href="#DejaVuSans-44" x="154.6875"/>
     <use xlink:href="#DejaVuSans-43" x="231.689453"/>
     <use xlink:href="#DejaVuSans-20" x="301.513672"/>
     <use xlink:href="#DejaVuSans-61" x="333.300781"/>
     <use xlink:href="#DejaVuSans-76" x="394.580078"/>
     <use xlink:href="#DejaVuSans-65" x="453.759766"/>
     <use xlink:href="#DejaVuSans-72" x="515.283203"/>
     <use xlink:href="#DejaVuSans-61" x="556.396484"/>
     <use xlink:href="#DejaVuSans-67" x="617.675781"/>
     <use xlink:href="#DejaVuSans-65" x="681.152344"/>
     <use xlink:href="#DejaVuSans-20" x="742.675781"/>
     <use xlink:href="#DejaVuSans-6e" x="774.462891"/>
     <use xlink:href="#DejaVuSans-61" x="837.841797"/>
     <use xlink:href="#DejaVuSans-6e" x="899.121094"/>
     <use xlink:href="#DejaVuSans-6f" x="962.5"/>
     <use xlink:href="#DejaVuSans-73" x="1023.681641"/>
     <use xlink:href="#DejaVuSans-65" x="1075.78125"/>
     <use xlink:href="#DejaVuSans-63" x="1137.304688"/>
     <use xlink:href="#DejaVuSans-6f" x="1192.285156"/>
     <use xlink:href="#DejaVuSans-6e" x="1253.466797"/>
     <use xlink:href="#DejaVuSans-64" x="1316.845703"/>
     <use xlink:href="#DejaVuSans-73" x="1380.322266"/>
     <use xlink:href="#DejaVuSans-20" x="1432.421875"/>
     <use xlink:href="#DejaVuSans-70" x="1464.208984"/>
     <use xlink:href="#DejaVuSans-65" x="1527.685547"/>
     <use xlink:href="#DejaVuSans-72" x="1589.208984"/>
     <use xlink:href="#DejaVuSans-20" x="1630.322266"/>
     <use xlink:href="#DejaVuSans-6d" x="1662.109375"/>
     <use xlink:href="#DejaVuSans-61" x="1759.521484"/>
     <use xlink:href="#DejaVuSans-74" x="1820.800781"/>
     <use xlink:href="#DejaVuSans-68" x="1860.009766"/>
     <use xlink:href="#DejaVuSans-20" x="1923.388672"/>
     <use xlink:href="#DejaVuSans-6f" x="1955.175781"/>
     <use xlink:href="#DejaVuSans-70" x="2016.357422"/>
     <use xlink:href="#DejaVuSans-65" x="2079.833984"/>
     <use xlink:href="#DejaVuSans-72" x="2141.357422"/>
     <use xlink:href="#DejaVuSans-61" x="2182.470703"/>
     <use xlink:href="#DejaVuSans-74" x="2243.75"/>
     <use xlink:href="#DejaVuSans-69" x="2282.958984"/>
     <use xlink:href="#DejaVuSans-6f" x="2310.742188"/>
     <use xlink:href="#DejaVuSans-6e" x="2371.923828"/>
    </g>
   </g>
  </g>
 </g>
 <defs>
  <clipPath id="p0fd2a63548">
   <rect x="60.48" y="27.864" width="1632.96" height="579.312"/>
  </clipPath>
 </defs>
</svg>
