<?xml version="1.0" encoding="utf-8" standalone="no"?>
<!DOCTYPE svg PUBLIC "-//W3C//DTD SVG 1.1//EN"
  "http://www.w3.org/Graphics/SVG/1.1/DTD/svg11.dtd">
<svg xmlns:xlink="http://www.w3.org/1999/xlink" width="280.821875pt" height="179.465625pt" viewBox="0 0 280.821875 179.465625" xmlns="http://www.w3.org/2000/svg" version="1.1">
 <metadata>
  <rdf:RDF xmlns:dc="http://purl.org/dc/elements/1.1/" xmlns:cc="http://creativecommons.org/ns#" xmlns:rdf="http://www.w3.org/1999/02/22-rdf-syntax-ns#">
   <cc:Work>
    <dc:type rdf:resource="http://purl.org/dc/dcmitype/StillImage"/>
    <dc:date>2022-03-23T20:57:59.091536</dc:date>
    <dc:format>image/svg+xml</dc:format>
    <dc:creator>
     <cc:Agent>
      <dc:title>Matplotlib v3.5.1, https://matplotlib.org/</dc:title>
     </cc:Agent>
    </dc:creator>
   </cc:Work>
  </rdf:RDF>
 </metadata>
 <defs>
  <style type="text/css">*{stroke-linejoin: round; stroke-linecap: butt}</style>
 </defs>
 <g id="figure_1">
  <g id="patch_1">
   <path d="M 0 179.465625 
L 280.821875 179.465625 
L 280.821875 0 
L 0 0 
L 0 179.465625 
z
" style="fill: none"/>
  </g>
  <g id="axes_1">
   <g id="patch_2">
    <path d="M 50.421875 143.1 
L 273.621875 143.1 
L 273.621875 7.2 
L 50.421875 7.2 
z
" style="fill: #ffffff"/>
   </g>
   <g id="matplotlib.axis_1">
    <g id="xtick_1">
     <g id="line2d_1">
      <path d="M 59.547686 143.1 
L 59.547686 7.2 
" clip-path="url(#p40e020ef1b)" style="fill: none; stroke-dasharray: 3.2,0.8,0.5,0.8; stroke-dashoffset: 0; stroke: #a9a9a9; stroke-width: 0.5"/>
     </g>
     <g id="line2d_2">
      <defs>
       <path id="m392f35cde1" d="M 0 0 
L 0 3.5 
" style="stroke: #000000; stroke-width: 0.8"/>
      </defs>
      <g>
       <use xlink:href="#m392f35cde1" x="59.547686" y="143.1" style="stroke: #000000; stroke-width: 0.8"/>
      </g>
     </g>
     <g id="text_1">
      <!-- 0.60 -->
      <g transform="translate(50.797686 157.04375)scale(0.1 -0.1)">
       <defs>
        <path id="TimesNewRomanPSMT-30" d="M 231 2094 
Q 231 2819 450 3342 
Q 669 3866 1031 4122 
Q 1313 4325 1613 4325 
Q 2100 4325 2488 3828 
Q 2972 3213 2972 2159 
Q 2972 1422 2759 906 
Q 2547 391 2217 158 
Q 1888 -75 1581 -75 
Q 975 -75 572 641 
Q 231 1244 231 2094 
z
M 844 2016 
Q 844 1141 1059 588 
Q 1238 122 1591 122 
Q 1759 122 1940 273 
Q 2122 425 2216 781 
Q 2359 1319 2359 2297 
Q 2359 3022 2209 3506 
Q 2097 3866 1919 4016 
Q 1791 4119 1609 4119 
Q 1397 4119 1231 3928 
Q 1006 3669 925 3112 
Q 844 2556 844 2016 
z
" transform="scale(0.015625)"/>
        <path id="TimesNewRomanPSMT-2e" d="M 800 606 
Q 947 606 1047 504 
Q 1147 403 1147 259 
Q 1147 116 1045 14 
Q 944 -88 800 -88 
Q 656 -88 554 14 
Q 453 116 453 259 
Q 453 406 554 506 
Q 656 606 800 606 
z
" transform="scale(0.015625)"/>
        <path id="TimesNewRomanPSMT-36" d="M 2869 4325 
L 2869 4209 
Q 2456 4169 2195 4045 
Q 1934 3922 1679 3669 
Q 1425 3416 1258 3105 
Q 1091 2794 978 2366 
Q 1428 2675 1881 2675 
Q 2316 2675 2634 2325 
Q 2953 1975 2953 1425 
Q 2953 894 2631 456 
Q 2244 -75 1606 -75 
Q 1172 -75 869 213 
Q 275 772 275 1663 
Q 275 2231 503 2743 
Q 731 3256 1154 3653 
Q 1578 4050 1965 4187 
Q 2353 4325 2688 4325 
L 2869 4325 
z
M 925 2138 
Q 869 1716 869 1456 
Q 869 1156 980 804 
Q 1091 453 1309 247 
Q 1469 100 1697 100 
Q 1969 100 2183 356 
Q 2397 613 2397 1088 
Q 2397 1622 2184 2012 
Q 1972 2403 1581 2403 
Q 1463 2403 1327 2353 
Q 1191 2303 925 2138 
z
" transform="scale(0.015625)"/>
       </defs>
       <use xlink:href="#TimesNewRomanPSMT-30"/>
       <use xlink:href="#TimesNewRomanPSMT-2e" x="50"/>
       <use xlink:href="#TimesNewRomanPSMT-36" x="75"/>
       <use xlink:href="#TimesNewRomanPSMT-30" x="125"/>
      </g>
     </g>
    </g>
    <g id="xtick_2">
     <g id="line2d_3">
      <path d="M 100.333433 143.1 
L 100.333433 7.2 
" clip-path="url(#p40e020ef1b)" style="fill: none; stroke-dasharray: 3.2,0.8,0.5,0.8; stroke-dashoffset: 0; stroke: #a9a9a9; stroke-width: 0.5"/>
     </g>
     <g id="line2d_4">
      <g>
       <use xlink:href="#m392f35cde1" x="100.333433" y="143.1" style="stroke: #000000; stroke-width: 0.8"/>
      </g>
     </g>
     <g id="text_2">
      <!-- 0.64 -->
      <g transform="translate(91.583433 157.04375)scale(0.1 -0.1)">
       <defs>
        <path id="TimesNewRomanPSMT-34" d="M 2978 1563 
L 2978 1119 
L 2409 1119 
L 2409 0 
L 1894 0 
L 1894 1119 
L 100 1119 
L 100 1519 
L 2066 4325 
L 2409 4325 
L 2409 1563 
L 2978 1563 
z
M 1894 1563 
L 1894 3666 
L 406 1563 
L 1894 1563 
z
" transform="scale(0.015625)"/>
       </defs>
       <use xlink:href="#TimesNewRomanPSMT-30"/>
       <use xlink:href="#TimesNewRomanPSMT-2e" x="50"/>
       <use xlink:href="#TimesNewRomanPSMT-36" x="75"/>
       <use xlink:href="#TimesNewRomanPSMT-34" x="125"/>
      </g>
     </g>
    </g>
    <g id="xtick_3">
     <g id="line2d_5">
      <path d="M 141.11918 143.1 
L 141.11918 7.2 
" clip-path="url(#p40e020ef1b)" style="fill: none; stroke-dasharray: 3.2,0.8,0.5,0.8; stroke-dashoffset: 0; stroke: #a9a9a9; stroke-width: 0.5"/>
     </g>
     <g id="line2d_6">
      <g>
       <use xlink:href="#m392f35cde1" x="141.11918" y="143.1" style="stroke: #000000; stroke-width: 0.8"/>
      </g>
     </g>
     <g id="text_3">
      <!-- 0.68 -->
      <g transform="translate(132.36918 157.04375)scale(0.1 -0.1)">
       <defs>
        <path id="TimesNewRomanPSMT-38" d="M 1228 2134 
Q 725 2547 579 2797 
Q 434 3047 434 3316 
Q 434 3728 753 4026 
Q 1072 4325 1600 4325 
Q 2113 4325 2425 4047 
Q 2738 3769 2738 3413 
Q 2738 3175 2569 2928 
Q 2400 2681 1866 2347 
Q 2416 1922 2594 1678 
Q 2831 1359 2831 1006 
Q 2831 559 2490 242 
Q 2150 -75 1597 -75 
Q 994 -75 656 303 
Q 388 606 388 966 
Q 388 1247 577 1523 
Q 766 1800 1228 2134 
z
M 1719 2469 
Q 2094 2806 2194 3001 
Q 2294 3197 2294 3444 
Q 2294 3772 2109 3958 
Q 1925 4144 1606 4144 
Q 1288 4144 1088 3959 
Q 888 3775 888 3528 
Q 888 3366 970 3203 
Q 1053 3041 1206 2894 
L 1719 2469 
z
M 1375 2016 
Q 1116 1797 991 1539 
Q 866 1281 866 981 
Q 866 578 1086 336 
Q 1306 94 1647 94 
Q 1984 94 2187 284 
Q 2391 475 2391 747 
Q 2391 972 2272 1150 
Q 2050 1481 1375 2016 
z
" transform="scale(0.015625)"/>
       </defs>
       <use xlink:href="#TimesNewRomanPSMT-30"/>
       <use xlink:href="#TimesNewRomanPSMT-2e" x="50"/>
       <use xlink:href="#TimesNewRomanPSMT-36" x="75"/>
       <use xlink:href="#TimesNewRomanPSMT-38" x="125"/>
      </g>
     </g>
    </g>
    <g id="xtick_4">
     <g id="line2d_7">
      <path d="M 181.904927 143.1 
L 181.904927 7.2 
" clip-path="url(#p40e020ef1b)" style="fill: none; stroke-dasharray: 3.2,0.8,0.5,0.8; stroke-dashoffset: 0; stroke: #a9a9a9; stroke-width: 0.5"/>
     </g>
     <g id="line2d_8">
      <g>
       <use xlink:href="#m392f35cde1" x="181.904927" y="143.1" style="stroke: #000000; stroke-width: 0.8"/>
      </g>
     </g>
     <g id="text_4">
      <!-- 0.72 -->
      <g transform="translate(173.154927 157.04375)scale(0.1 -0.1)">
       <defs>
        <path id="TimesNewRomanPSMT-37" d="M 644 4238 
L 2916 4238 
L 2916 4119 
L 1503 -88 
L 1153 -88 
L 2419 3728 
L 1253 3728 
Q 900 3728 750 3644 
Q 488 3500 328 3200 
L 238 3234 
L 644 4238 
z
" transform="scale(0.015625)"/>
        <path id="TimesNewRomanPSMT-32" d="M 2934 816 
L 2638 0 
L 138 0 
L 138 116 
Q 1241 1122 1691 1759 
Q 2141 2397 2141 2925 
Q 2141 3328 1894 3587 
Q 1647 3847 1303 3847 
Q 991 3847 742 3664 
Q 494 3481 375 3128 
L 259 3128 
Q 338 3706 661 4015 
Q 984 4325 1469 4325 
Q 1984 4325 2329 3994 
Q 2675 3663 2675 3213 
Q 2675 2891 2525 2569 
Q 2294 2063 1775 1497 
Q 997 647 803 472 
L 1909 472 
Q 2247 472 2383 497 
Q 2519 522 2628 598 
Q 2738 675 2819 816 
L 2934 816 
z
" transform="scale(0.015625)"/>
       </defs>
       <use xlink:href="#TimesNewRomanPSMT-30"/>
       <use xlink:href="#TimesNewRomanPSMT-2e" x="50"/>
       <use xlink:href="#TimesNewRomanPSMT-37" x="75"/>
       <use xlink:href="#TimesNewRomanPSMT-32" x="125"/>
      </g>
     </g>
    </g>
    <g id="xtick_5">
     <g id="line2d_9">
      <path d="M 222.690674 143.1 
L 222.690674 7.2 
" clip-path="url(#p40e020ef1b)" style="fill: none; stroke-dasharray: 3.2,0.8,0.5,0.8; stroke-dashoffset: 0; stroke: #a9a9a9; stroke-width: 0.5"/>
     </g>
     <g id="line2d_10">
      <g>
       <use xlink:href="#m392f35cde1" x="222.690674" y="143.1" style="stroke: #000000; stroke-width: 0.8"/>
      </g>
     </g>
     <g id="text_5">
      <!-- 0.76 -->
      <g transform="translate(213.940674 157.04375)scale(0.1 -0.1)">
       <use xlink:href="#TimesNewRomanPSMT-30"/>
       <use xlink:href="#TimesNewRomanPSMT-2e" x="50"/>
       <use xlink:href="#TimesNewRomanPSMT-37" x="75"/>
       <use xlink:href="#TimesNewRomanPSMT-36" x="125"/>
      </g>
     </g>
    </g>
    <g id="xtick_6">
     <g id="line2d_11">
      <path d="M 263.47642 143.1 
L 263.47642 7.2 
" clip-path="url(#p40e020ef1b)" style="fill: none; stroke-dasharray: 3.2,0.8,0.5,0.8; stroke-dashoffset: 0; stroke: #a9a9a9; stroke-width: 0.5"/>
     </g>
     <g id="line2d_12">
      <g>
       <use xlink:href="#m392f35cde1" x="263.47642" y="143.1" style="stroke: #000000; stroke-width: 0.8"/>
      </g>
     </g>
     <g id="text_6">
      <!-- 0.80 -->
      <g transform="translate(254.72642 157.04375)scale(0.1 -0.1)">
       <use xlink:href="#TimesNewRomanPSMT-30"/>
       <use xlink:href="#TimesNewRomanPSMT-2e" x="50"/>
       <use xlink:href="#TimesNewRomanPSMT-38" x="75"/>
       <use xlink:href="#TimesNewRomanPSMT-30" x="125"/>
      </g>
     </g>
    </g>
    <g id="text_7">
     <!-- time [s] -->
     <g transform="translate(146.609375 170.126563)scale(0.1 -0.1)">
      <defs>
       <path id="TimesNewRomanPSMT-74" d="M 1031 3803 
L 1031 2863 
L 1700 2863 
L 1700 2644 
L 1031 2644 
L 1031 788 
Q 1031 509 1111 412 
Q 1191 316 1316 316 
Q 1419 316 1516 380 
Q 1613 444 1666 569 
L 1788 569 
Q 1678 263 1478 108 
Q 1278 -47 1066 -47 
Q 922 -47 784 33 
Q 647 113 581 261 
Q 516 409 516 719 
L 516 2644 
L 63 2644 
L 63 2747 
Q 234 2816 414 2980 
Q 594 3144 734 3369 
Q 806 3488 934 3803 
L 1031 3803 
z
" transform="scale(0.015625)"/>
       <path id="TimesNewRomanPSMT-69" d="M 928 4444 
Q 1059 4444 1151 4351 
Q 1244 4259 1244 4128 
Q 1244 3997 1151 3903 
Q 1059 3809 928 3809 
Q 797 3809 703 3903 
Q 609 3997 609 4128 
Q 609 4259 701 4351 
Q 794 4444 928 4444 
z
M 1188 2947 
L 1188 647 
Q 1188 378 1227 289 
Q 1266 200 1342 156 
Q 1419 113 1622 113 
L 1622 0 
L 231 0 
L 231 113 
Q 441 113 512 153 
Q 584 194 626 287 
Q 669 381 669 647 
L 669 1750 
Q 669 2216 641 2353 
Q 619 2453 572 2492 
Q 525 2531 444 2531 
Q 356 2531 231 2484 
L 188 2597 
L 1050 2947 
L 1188 2947 
z
" transform="scale(0.015625)"/>
       <path id="TimesNewRomanPSMT-6d" d="M 1050 2338 
Q 1363 2650 1419 2697 
Q 1559 2816 1721 2881 
Q 1884 2947 2044 2947 
Q 2313 2947 2506 2790 
Q 2700 2634 2766 2338 
Q 3088 2713 3309 2830 
Q 3531 2947 3766 2947 
Q 3994 2947 4170 2830 
Q 4347 2713 4450 2447 
Q 4519 2266 4519 1878 
L 4519 647 
Q 4519 378 4559 278 
Q 4591 209 4675 161 
Q 4759 113 4950 113 
L 4950 0 
L 3538 0 
L 3538 113 
L 3597 113 
Q 3781 113 3884 184 
Q 3956 234 3988 344 
Q 4000 397 4000 647 
L 4000 1878 
Q 4000 2228 3916 2372 
Q 3794 2572 3525 2572 
Q 3359 2572 3192 2489 
Q 3025 2406 2788 2181 
L 2781 2147 
L 2788 2013 
L 2788 647 
Q 2788 353 2820 281 
Q 2853 209 2943 161 
Q 3034 113 3253 113 
L 3253 0 
L 1806 0 
L 1806 113 
Q 2044 113 2133 169 
Q 2222 225 2256 338 
Q 2272 391 2272 647 
L 2272 1878 
Q 2272 2228 2169 2381 
Q 2031 2581 1784 2581 
Q 1616 2581 1450 2491 
Q 1191 2353 1050 2181 
L 1050 647 
Q 1050 366 1089 281 
Q 1128 197 1204 155 
Q 1281 113 1516 113 
L 1516 0 
L 100 0 
L 100 113 
Q 297 113 375 155 
Q 453 197 493 289 
Q 534 381 534 647 
L 534 1741 
Q 534 2213 506 2350 
Q 484 2453 437 2492 
Q 391 2531 309 2531 
Q 222 2531 100 2484 
L 53 2597 
L 916 2947 
L 1050 2947 
L 1050 2338 
z
" transform="scale(0.015625)"/>
       <path id="TimesNewRomanPSMT-65" d="M 681 1784 
Q 678 1147 991 784 
Q 1303 422 1725 422 
Q 2006 422 2214 576 
Q 2422 731 2563 1106 
L 2659 1044 
Q 2594 616 2278 264 
Q 1963 -88 1488 -88 
Q 972 -88 605 314 
Q 238 716 238 1394 
Q 238 2128 614 2539 
Q 991 2950 1559 2950 
Q 2041 2950 2350 2633 
Q 2659 2316 2659 1784 
L 681 1784 
z
M 681 1966 
L 2006 1966 
Q 1991 2241 1941 2353 
Q 1863 2528 1708 2628 
Q 1553 2728 1384 2728 
Q 1125 2728 920 2526 
Q 716 2325 681 1966 
z
" transform="scale(0.015625)"/>
       <path id="TimesNewRomanPSMT-20" transform="scale(0.015625)"/>
       <path id="TimesNewRomanPSMT-5b" d="M 1900 -1269 
L 525 -1269 
L 525 4334 
L 1900 4334 
L 1900 4088 
L 994 4088 
L 994 -1025 
L 1900 -1025 
L 1900 -1269 
z
" transform="scale(0.015625)"/>
       <path id="TimesNewRomanPSMT-73" d="M 2050 2947 
L 2050 1972 
L 1947 1972 
Q 1828 2431 1642 2597 
Q 1456 2763 1169 2763 
Q 950 2763 815 2647 
Q 681 2531 681 2391 
Q 681 2216 781 2091 
Q 878 1963 1175 1819 
L 1631 1597 
Q 2266 1288 2266 781 
Q 2266 391 1970 151 
Q 1675 -88 1309 -88 
Q 1047 -88 709 6 
Q 606 38 541 38 
Q 469 38 428 -44 
L 325 -44 
L 325 978 
L 428 978 
Q 516 541 762 319 
Q 1009 97 1316 97 
Q 1531 97 1667 223 
Q 1803 350 1803 528 
Q 1803 744 1651 891 
Q 1500 1038 1047 1263 
Q 594 1488 453 1669 
Q 313 1847 313 2119 
Q 313 2472 555 2709 
Q 797 2947 1181 2947 
Q 1350 2947 1591 2875 
Q 1750 2828 1803 2828 
Q 1853 2828 1881 2850 
Q 1909 2872 1947 2947 
L 2050 2947 
z
" transform="scale(0.015625)"/>
       <path id="TimesNewRomanPSMT-5d" d="M 234 4334 
L 1609 4334 
L 1609 -1272 
L 234 -1272 
L 234 -1025 
L 1141 -1025 
L 1141 4088 
L 234 4088 
L 234 4334 
z
" transform="scale(0.015625)"/>
      </defs>
      <use xlink:href="#TimesNewRomanPSMT-74"/>
      <use xlink:href="#TimesNewRomanPSMT-69" x="27.783203"/>
      <use xlink:href="#TimesNewRomanPSMT-6d" x="55.566406"/>
      <use xlink:href="#TimesNewRomanPSMT-65" x="133.349609"/>
      <use xlink:href="#TimesNewRomanPSMT-20" x="177.734375"/>
      <use xlink:href="#TimesNewRomanPSMT-5b" x="202.734375"/>
      <use xlink:href="#TimesNewRomanPSMT-73" x="236.035156"/>
      <use xlink:href="#TimesNewRomanPSMT-5d" x="274.951172"/>
     </g>
    </g>
   </g>
   <g id="matplotlib.axis_2">
    <g id="ytick_1">
     <g id="line2d_13">
      <path d="M 50.421875 129.51 
L 273.621875 129.51 
" clip-path="url(#p40e020ef1b)" style="fill: none; stroke-dasharray: 3.2,0.8,0.5,0.8; stroke-dashoffset: 0; stroke: #a9a9a9; stroke-width: 0.5"/>
     </g>
     <g id="line2d_14">
      <defs>
       <path id="m2309e6a6a2" d="M 0 0 
L -3.5 0 
" style="stroke: #000000; stroke-width: 0.8"/>
      </defs>
      <g>
       <use xlink:href="#m2309e6a6a2" x="50.421875" y="129.51" style="stroke: #000000; stroke-width: 0.8"/>
      </g>
     </g>
     <g id="text_8">
      <!-- −0.02 -->
      <g transform="translate(20.282812 132.981875)scale(0.1 -0.1)">
       <defs>
        <path id="TimesNewRomanPSMT-2212" d="M 3484 2000 
L 116 2000 
L 116 2256 
L 3484 2256 
L 3484 2000 
z
" transform="scale(0.015625)"/>
       </defs>
       <use xlink:href="#TimesNewRomanPSMT-2212"/>
       <use xlink:href="#TimesNewRomanPSMT-30" x="56.396484"/>
       <use xlink:href="#TimesNewRomanPSMT-2e" x="106.396484"/>
       <use xlink:href="#TimesNewRomanPSMT-30" x="131.396484"/>
       <use xlink:href="#TimesNewRomanPSMT-32" x="181.396484"/>
      </g>
     </g>
    </g>
    <g id="ytick_2">
     <g id="line2d_15">
      <path d="M 50.421875 102.33 
L 273.621875 102.33 
" clip-path="url(#p40e020ef1b)" style="fill: none; stroke-dasharray: 3.2,0.8,0.5,0.8; stroke-dashoffset: 0; stroke: #a9a9a9; stroke-width: 0.5"/>
     </g>
     <g id="line2d_16">
      <g>
       <use xlink:href="#m2309e6a6a2" x="50.421875" y="102.33" style="stroke: #000000; stroke-width: 0.8"/>
      </g>
     </g>
     <g id="text_9">
      <!-- −0.01 -->
      <g transform="translate(20.282812 105.801875)scale(0.1 -0.1)">
       <defs>
        <path id="TimesNewRomanPSMT-31" d="M 750 3822 
L 1781 4325 
L 1884 4325 
L 1884 747 
Q 1884 391 1914 303 
Q 1944 216 2037 169 
Q 2131 122 2419 116 
L 2419 0 
L 825 0 
L 825 116 
Q 1125 122 1212 167 
Q 1300 213 1334 289 
Q 1369 366 1369 747 
L 1369 3034 
Q 1369 3497 1338 3628 
Q 1316 3728 1258 3775 
Q 1200 3822 1119 3822 
Q 1003 3822 797 3725 
L 750 3822 
z
" transform="scale(0.015625)"/>
       </defs>
       <use xlink:href="#TimesNewRomanPSMT-2212"/>
       <use xlink:href="#TimesNewRomanPSMT-30" x="56.396484"/>
       <use xlink:href="#TimesNewRomanPSMT-2e" x="106.396484"/>
       <use xlink:href="#TimesNewRomanPSMT-30" x="131.396484"/>
       <use xlink:href="#TimesNewRomanPSMT-31" x="181.396484"/>
      </g>
     </g>
    </g>
    <g id="ytick_3">
     <g id="line2d_17">
      <path d="M 50.421875 75.15 
L 273.621875 75.15 
" clip-path="url(#p40e020ef1b)" style="fill: none; stroke-dasharray: 3.2,0.8,0.5,0.8; stroke-dashoffset: 0; stroke: #a9a9a9; stroke-width: 0.5"/>
     </g>
     <g id="line2d_18">
      <g>
       <use xlink:href="#m2309e6a6a2" x="50.421875" y="75.15" style="stroke: #000000; stroke-width: 0.8"/>
      </g>
     </g>
     <g id="text_10">
      <!-- 0.00 -->
      <g transform="translate(25.921875 78.621875)scale(0.1 -0.1)">
       <use xlink:href="#TimesNewRomanPSMT-30"/>
       <use xlink:href="#TimesNewRomanPSMT-2e" x="50"/>
       <use xlink:href="#TimesNewRomanPSMT-30" x="75"/>
       <use xlink:href="#TimesNewRomanPSMT-30" x="125"/>
      </g>
     </g>
    </g>
    <g id="ytick_4">
     <g id="line2d_19">
      <path d="M 50.421875 47.97 
L 273.621875 47.97 
" clip-path="url(#p40e020ef1b)" style="fill: none; stroke-dasharray: 3.2,0.8,0.5,0.8; stroke-dashoffset: 0; stroke: #a9a9a9; stroke-width: 0.5"/>
     </g>
     <g id="line2d_20">
      <g>
       <use xlink:href="#m2309e6a6a2" x="50.421875" y="47.97" style="stroke: #000000; stroke-width: 0.8"/>
      </g>
     </g>
     <g id="text_11">
      <!-- 0.01 -->
      <g transform="translate(25.921875 51.441875)scale(0.1 -0.1)">
       <use xlink:href="#TimesNewRomanPSMT-30"/>
       <use xlink:href="#TimesNewRomanPSMT-2e" x="50"/>
       <use xlink:href="#TimesNewRomanPSMT-30" x="75"/>
       <use xlink:href="#TimesNewRomanPSMT-31" x="125"/>
      </g>
     </g>
    </g>
    <g id="ytick_5">
     <g id="line2d_21">
      <path d="M 50.421875 20.79 
L 273.621875 20.79 
" clip-path="url(#p40e020ef1b)" style="fill: none; stroke-dasharray: 3.2,0.8,0.5,0.8; stroke-dashoffset: 0; stroke: #a9a9a9; stroke-width: 0.5"/>
     </g>
     <g id="line2d_22">
      <g>
       <use xlink:href="#m2309e6a6a2" x="50.421875" y="20.79" style="stroke: #000000; stroke-width: 0.8"/>
      </g>
     </g>
     <g id="text_12">
      <!-- 0.02 -->
      <g transform="translate(25.921875 24.261875)scale(0.1 -0.1)">
       <use xlink:href="#TimesNewRomanPSMT-30"/>
       <use xlink:href="#TimesNewRomanPSMT-2e" x="50"/>
       <use xlink:href="#TimesNewRomanPSMT-30" x="75"/>
       <use xlink:href="#TimesNewRomanPSMT-32" x="125"/>
      </g>
     </g>
    </g>
    <g id="text_13">
     <!-- Current [A] -->
     <g transform="translate(14.14375 98.614063)rotate(-90)scale(0.1 -0.1)">
      <defs>
       <path id="TimesNewRomanPSMT-43" d="M 3853 4334 
L 3950 2894 
L 3853 2894 
Q 3659 3541 3300 3825 
Q 2941 4109 2438 4109 
Q 2016 4109 1675 3895 
Q 1334 3681 1139 3212 
Q 944 2744 944 2047 
Q 944 1472 1128 1050 
Q 1313 628 1683 403 
Q 2053 178 2528 178 
Q 2941 178 3256 354 
Q 3572 531 3950 1056 
L 4047 994 
Q 3728 428 3303 165 
Q 2878 -97 2294 -97 
Q 1241 -97 663 684 
Q 231 1266 231 2053 
Q 231 2688 515 3219 
Q 800 3750 1298 4042 
Q 1797 4334 2388 4334 
Q 2847 4334 3294 4109 
Q 3425 4041 3481 4041 
Q 3566 4041 3628 4100 
Q 3709 4184 3744 4334 
L 3853 4334 
z
" transform="scale(0.015625)"/>
       <path id="TimesNewRomanPSMT-75" d="M 2709 2863 
L 2709 1128 
Q 2709 631 2732 520 
Q 2756 409 2807 365 
Q 2859 322 2928 322 
Q 3025 322 3147 375 
L 3191 266 
L 2334 -88 
L 2194 -88 
L 2194 519 
Q 1825 119 1631 15 
Q 1438 -88 1222 -88 
Q 981 -88 804 51 
Q 628 191 559 409 
Q 491 628 491 1028 
L 491 2306 
Q 491 2509 447 2587 
Q 403 2666 317 2708 
Q 231 2750 6 2747 
L 6 2863 
L 1009 2863 
L 1009 947 
Q 1009 547 1148 422 
Q 1288 297 1484 297 
Q 1619 297 1789 381 
Q 1959 466 2194 703 
L 2194 2325 
Q 2194 2569 2105 2655 
Q 2016 2741 1734 2747 
L 1734 2863 
L 2709 2863 
z
" transform="scale(0.015625)"/>
       <path id="TimesNewRomanPSMT-72" d="M 1038 2947 
L 1038 2303 
Q 1397 2947 1775 2947 
Q 1947 2947 2059 2842 
Q 2172 2738 2172 2600 
Q 2172 2478 2090 2393 
Q 2009 2309 1897 2309 
Q 1788 2309 1652 2417 
Q 1516 2525 1450 2525 
Q 1394 2525 1328 2463 
Q 1188 2334 1038 2041 
L 1038 669 
Q 1038 431 1097 309 
Q 1138 225 1241 169 
Q 1344 113 1538 113 
L 1538 0 
L 72 0 
L 72 113 
Q 291 113 397 181 
Q 475 231 506 341 
Q 522 394 522 644 
L 522 1753 
Q 522 2253 501 2348 
Q 481 2444 426 2487 
Q 372 2531 291 2531 
Q 194 2531 72 2484 
L 41 2597 
L 906 2947 
L 1038 2947 
z
" transform="scale(0.015625)"/>
       <path id="TimesNewRomanPSMT-6e" d="M 1034 2341 
Q 1538 2947 1994 2947 
Q 2228 2947 2397 2830 
Q 2566 2713 2666 2444 
Q 2734 2256 2734 1869 
L 2734 647 
Q 2734 375 2778 278 
Q 2813 200 2889 156 
Q 2966 113 3172 113 
L 3172 0 
L 1756 0 
L 1756 113 
L 1816 113 
Q 2016 113 2095 173 
Q 2175 234 2206 353 
Q 2219 400 2219 647 
L 2219 1819 
Q 2219 2209 2117 2386 
Q 2016 2563 1775 2563 
Q 1403 2563 1034 2156 
L 1034 647 
Q 1034 356 1069 288 
Q 1113 197 1189 155 
Q 1266 113 1500 113 
L 1500 0 
L 84 0 
L 84 113 
L 147 113 
Q 366 113 442 223 
Q 519 334 519 647 
L 519 1709 
Q 519 2225 495 2337 
Q 472 2450 423 2490 
Q 375 2531 294 2531 
Q 206 2531 84 2484 
L 38 2597 
L 900 2947 
L 1034 2947 
L 1034 2341 
z
" transform="scale(0.015625)"/>
       <path id="TimesNewRomanPSMT-41" d="M 2928 1419 
L 1288 1419 
L 1000 750 
Q 894 503 894 381 
Q 894 284 986 211 
Q 1078 138 1384 116 
L 1384 0 
L 50 0 
L 50 116 
Q 316 163 394 238 
Q 553 388 747 847 
L 2238 4334 
L 2347 4334 
L 3822 809 
Q 4000 384 4145 257 
Q 4291 131 4550 116 
L 4550 0 
L 2878 0 
L 2878 116 
Q 3131 128 3220 200 
Q 3309 272 3309 375 
Q 3309 513 3184 809 
L 2928 1419 
z
M 2841 1650 
L 2122 3363 
L 1384 1650 
L 2841 1650 
z
" transform="scale(0.015625)"/>
      </defs>
      <use xlink:href="#TimesNewRomanPSMT-43"/>
      <use xlink:href="#TimesNewRomanPSMT-75" x="66.699219"/>
      <use xlink:href="#TimesNewRomanPSMT-72" x="116.699219"/>
      <use xlink:href="#TimesNewRomanPSMT-72" x="150"/>
      <use xlink:href="#TimesNewRomanPSMT-65" x="183.300781"/>
      <use xlink:href="#TimesNewRomanPSMT-6e" x="227.685547"/>
      <use xlink:href="#TimesNewRomanPSMT-74" x="277.685547"/>
      <use xlink:href="#TimesNewRomanPSMT-20" x="305.46875"/>
      <use xlink:href="#TimesNewRomanPSMT-5b" x="330.46875"/>
      <use xlink:href="#TimesNewRomanPSMT-41" x="363.769531"/>
      <use xlink:href="#TimesNewRomanPSMT-5d" x="435.986328"/>
     </g>
    </g>
   </g>
   <g id="line2d_23">
    <path d="M 60.56733 102.329973 
L 61.586973 61.560014 
L 63.626261 61.560014 
L 65.665548 88.739986 
L 66.685192 47.969946 
L 67.704835 75.15 
L 68.724479 75.15 
L 69.744123 115.920041 
L 70.763766 47.970027 
L 72.803054 75.15 
L 73.822697 75.15 
L 74.842341 61.560011 
L 75.861985 88.739989 
L 76.881628 75.15 
L 77.901272 88.740068 
L 78.920916 75.15 
L 79.940559 88.739986 
L 80.960203 75.15 
L 81.979847 88.739986 
L 82.99949 88.739986 
L 84.019134 115.919962 
L 85.038778 61.560014 
L 86.058421 88.739986 
L 87.078065 88.740068 
L 88.097709 20.78997 
L 89.117352 170.279951 
L 90.136996 75.15 
L 91.15664 88.739986 
L 92.176283 88.739986 
L 93.195927 102.330057 
L 94.215571 61.560011 
L 95.235214 102.329976 
L 96.254858 102.329973 
L 97.274502 115.920043 
L 98.294145 61.560014 
L 99.313789 143.099935 
L 100.333433 61.560014 
L 102.37272 115.920041 
L 103.392364 88.739986 
L 104.412007 115.920003 
L 105.431651 75.15 
L 106.451295 88.739986 
L 107.470938 129.51003 
L 108.490582 88.739986 
L 109.510226 75.15 
L 110.52987 102.330016 
L 111.549513 115.919959 
L 112.569157 88.740027 
L 113.588801 102.329976 
L 114.608444 75.15 
L 115.628088 129.510038 
L 116.647732 88.739989 
L 117.667375 102.330014 
L 118.687019 88.739986 
L 120.726306 115.920003 
L 121.74595 115.92 
L 122.765594 61.559995 
L 123.785237 129.510008 
L 124.804881 102.330005 
L 125.824525 115.919989 
L 126.844168 88.740008 
L 127.863812 115.919992 
L 128.883456 88.740008 
L 129.903099 88.740005 
L 130.922743 115.919981 
L 131.942387 115.920003 
L 132.96203 47.970005 
L 133.981674 129.510008 
L 135.001318 88.739989 
L 136.020961 115.92 
L 137.040605 88.739986 
L 138.060249 129.51003 
L 139.079892 88.739986 
L 140.099536 34.38 
L 141.11918 102.330014 
L 142.138823 102.329976 
L 143.158467 88.740027 
L 145.197754 115.920003 
L 146.217398 75.15 
L 147.237042 115.92 
L 148.256685 102.330016 
L 149.276329 61.559973 
L 150.295973 75.15 
L 151.315616 102.330014 
L 152.33526 61.560014 
L 153.354904 115.920041 
L 154.374547 75.15 
L 155.394191 115.919962 
L 157.433478 61.560014 
L 158.453122 75.15 
L 159.472766 129.51003 
L 160.492409 75.15 
L 163.551341 75.15 
L 164.570984 88.739986 
L 165.590628 75.15 
L 167.629915 75.15 
L 168.649559 88.739986 
L 169.669203 88.739986 
L 170.688846 75.15 
L 171.70849 47.970027 
L 172.728134 102.329973 
L 174.767421 47.970027 
L 175.787065 88.739986 
L 177.826352 61.560014 
L 178.845996 75.15 
L 179.865639 61.560014 
L 180.885283 61.560014 
L 181.904927 129.509946 
L 182.92457 7.199984 
L 183.944214 75.15 
L 184.963858 75.15 
L 185.983501 61.560014 
L 187.003145 61.560014 
L 188.022789 47.970027 
L 189.042432 88.739986 
L 190.062076 61.560014 
L 191.08172 88.739986 
L 192.101363 7.199984 
L 193.121007 61.559973 
L 194.140651 75.15 
L 195.160294 47.970024 
L 196.179938 75.15 
L 197.199582 20.790011 
L 198.219225 75.15 
L 199.238869 102.329976 
L 200.258513 34.379997 
L 201.278156 34.38 
L 202.2978 61.560011 
L 203.317444 61.560014 
L 205.356731 34.379997 
L 206.376375 75.15 
L 208.415662 47.969986 
L 210.454949 47.970005 
L 211.474593 34.379997 
L 212.494237 75.15 
L 215.553168 34.379997 
L 216.572812 61.560003 
L 217.592455 75.15 
L 218.612099 7.200005 
L 219.631743 61.559992 
L 220.651386 34.379997 
L 221.67103 34.38 
L 222.690674 61.560011 
L 225.749605 61.560014 
L 226.769248 7.200003 
L 227.788892 75.15 
L 228.808536 20.789962 
L 229.828179 75.15 
L 230.847823 61.560014 
L 231.867467 34.379997 
L 232.88711 61.560014 
L 233.906754 61.560014 
L 234.926398 20.78997 
L 236.965685 75.15 
L 237.985329 34.38 
L 239.004972 61.559973 
L 240.024616 47.970024 
L 241.04426 61.560014 
L 242.063903 47.969946 
L 243.083547 61.560014 
L 245.122834 61.560014 
L 246.142478 34.379959 
L 247.162122 61.560011 
L 250.221053 61.560014 
L 251.240696 75.15 
L 252.26034 34.379957 
L 253.279984 61.560014 
L 254.299627 61.560014 
L 255.319271 47.970065 
L 256.338915 75.15 
L 257.358558 61.559932 
L 258.378202 61.560014 
L 260.417489 88.739986 
L 261.437133 47.970027 
L 262.456777 61.560011 
L 263.47642 47.970027 
L 263.47642 47.970027 
" clip-path="url(#p40e020ef1b)" style="fill: none; stroke: #1f77b4; stroke-width: 1.5; stroke-linecap: square"/>
   </g>
   <g id="line2d_24">
    <path d="M 60.56733 115.92 
L 61.586973 47.969986 
L 62.606617 7.200024 
L 63.626261 75.15 
L 64.645904 61.560014 
L 65.665548 20.78997 
L 66.685192 34.379997 
L 67.704835 88.74003 
L 68.724479 47.969984 
L 69.744123 143.100016 
L 70.645095 -1 
M 71.001108 -1 
L 71.78341 61.560014 
L 72.803054 34.379997 
L 73.822697 75.15 
L 74.842341 20.789992 
L 75.861985 61.560014 
L 76.881628 61.559992 
L 77.901272 75.15 
L 78.920916 34.379997 
L 79.940559 47.970005 
L 80.960203 20.790003 
L 81.979847 75.15 
L 82.99949 47.969995 
L 84.019134 75.15 
L 85.038778 7.200008 
L 87.078065 88.740008 
L 87.595996 -1 
M 88.460057 -1 
L 89.117352 156.689984 
L 90.136996 61.560014 
L 91.15664 34.379997 
L 92.176283 47.970005 
L 93.195927 47.969986 
L 94.215571 75.15 
L 95.235214 34.379997 
L 97.274502 61.560011 
L 98.294145 47.969986 
L 99.313789 47.970027 
L 100.333433 61.560011 
L 101.353076 34.38 
L 103.392364 61.560014 
L 105.431651 34.379997 
L 106.451295 75.15 
L 107.470938 47.970027 
L 108.490582 75.15 
L 109.510226 34.379957 
L 110.52987 61.560014 
L 113.588801 61.560011 
L 114.608444 34.379959 
L 115.628088 61.560014 
L 116.647732 61.560011 
L 117.667375 75.15 
L 118.687019 34.379959 
L 119.706663 47.970024 
L 120.726306 102.329976 
L 121.74595 75.15 
L 122.765594 20.790052 
L 123.785237 102.329973 
L 124.804881 34.379959 
L 125.824525 88.740068 
L 126.844168 61.559932 
L 128.883456 61.560011 
L 129.903099 115.920043 
L 130.922743 47.969946 
L 131.942387 75.15 
L 132.96203 34.380038 
L 133.981674 88.739986 
L 135.001318 75.15 
L 136.020961 88.739986 
L 137.040605 47.970027 
L 138.060249 88.739986 
L 140.099536 61.560014 
L 141.11918 75.15 
L 142.138823 61.560014 
L 143.158467 102.329973 
L 145.197754 75.15 
L 146.217398 75.15 
L 147.237042 102.329976 
L 148.256685 75.15 
L 150.295973 75.15 
L 151.315616 88.740068 
L 152.33526 88.739986 
L 153.354904 75.15 
L 154.374547 102.329976 
L 155.394191 88.739986 
L 156.413835 115.920041 
L 157.433478 34.379959 
L 158.453122 102.330054 
L 159.472766 102.329976 
L 160.492409 75.15 
L 162.531697 102.329973 
L 163.551341 88.740068 
L 164.570984 115.919962 
L 165.590628 88.739986 
L 166.610272 75.15 
L 168.649559 102.330054 
L 170.688846 102.330016 
L 171.70849 75.15 
L 172.728134 143.099976 
L 173.747777 102.330014 
L 174.767421 47.969986 
L 176.806708 129.509989 
L 177.826352 102.329973 
L 178.845996 115.920003 
L 179.865639 88.740027 
L 180.885283 102.329973 
L 181.904927 143.100016 
L 182.92457 47.969986 
L 183.944214 102.330014 
L 188.022789 102.329997 
L 189.042432 88.740008 
L 190.062076 102.329995 
L 191.08172 143.099992 
L 192.101363 61.560003 
L 193.121007 102.330005 
L 194.140651 102.330005 
L 195.160294 88.739997 
L 196.179938 115.92 
L 197.199582 88.739989 
L 198.219225 115.92 
L 199.238869 129.510008 
L 200.258513 75.15 
L 201.278156 102.329995 
L 202.2978 75.15 
L 203.317444 88.740008 
L 204.337087 156.690003 
L 205.356731 34.38 
L 206.376375 102.330014 
L 207.396018 143.099976 
L 208.415662 115.920003 
L 209.435306 75.15 
L 210.454949 75.15 
L 211.474593 88.740027 
L 212.494237 75.15 
L 214.533524 129.509989 
L 215.553168 75.15 
L 216.572812 115.920003 
L 217.592455 115.920041 
L 218.612099 34.379959 
L 219.631743 102.330014 
L 220.651386 88.740027 
L 221.67103 34.379959 
L 222.690674 143.100016 
L 223.710317 88.739986 
L 224.729961 88.739986 
L 225.749605 75.15 
L 226.769248 75.15 
L 227.788892 115.920043 
L 228.808536 47.970024 
L 229.828179 102.329976 
L 230.847823 75.15 
L 231.867467 88.739986 
L 233.906754 61.560014 
L 234.926398 102.329973 
L 235.946041 61.560014 
L 236.965685 115.920041 
L 237.985329 47.969946 
L 239.004972 88.739986 
L 240.024616 47.970027 
L 241.04426 115.920041 
L 242.063903 47.969946 
L 244.103191 75.15 
L 246.142478 75.15 
L 247.162122 88.739986 
L 248.181765 47.970027 
L 249.201409 88.739986 
L 250.221053 61.560014 
L 251.240696 88.739986 
L 252.26034 34.380038 
L 253.279984 61.559932 
L 255.319271 61.560014 
L 256.338915 75.15 
L 257.358558 34.379997 
L 258.378202 88.740027 
L 259.397846 75.15 
L 260.417489 88.739986 
L 261.437133 20.789973 
L 262.456777 61.560011 
L 263.47642 47.969986 
L 263.47642 47.969986 
" clip-path="url(#p40e020ef1b)" style="fill: none; stroke: #ff7f0e; stroke-width: 1.5; stroke-linecap: square"/>
   </g>
   <g id="line2d_25">
    <path d="M 60.56733 115.920003 
L 61.586973 61.559992 
L 62.606617 129.510008 
L 63.626261 75.15 
L 64.645904 115.920003 
L 65.665548 88.739986 
L 66.685192 129.510008 
L 67.704835 47.969986 
L 68.724479 88.740027 
L 69.489154 180.465625 
M 69.920639 180.465625 
L 70.763766 34.38 
L 71.78341 88.739986 
L 72.803054 47.969984 
L 73.822697 143.100016 
L 74.842341 88.74003 
L 75.861985 75.15 
L 76.881628 88.739986 
L 77.901272 170.279989 
L 78.920916 88.740027 
L 79.940559 20.789973 
L 80.960203 88.740027 
L 81.979847 115.92 
L 82.99949 61.559973 
L 84.019134 143.099976 
L 85.038778 47.970027 
L 86.058421 75.15 
L 87.078065 115.919962 
L 87.875555 -1 
M 88.233469 -1 
L 88.989868 180.465625 
M 89.346824 180.465625 
L 90.136996 75.15 
L 91.15664 88.739986 
L 92.176283 75.15 
L 93.195927 88.739986 
L 96.254858 88.739986 
L 98.294145 61.560014 
L 99.313789 115.920041 
L 100.333433 47.969946 
L 101.353076 88.740068 
L 102.37272 47.969946 
L 103.392364 102.330054 
L 104.412007 61.559932 
L 105.431651 75.15 
L 106.451295 75.15 
L 107.470938 88.740068 
L 108.490582 88.739986 
L 109.510226 34.379959 
L 110.52987 88.739986 
L 111.549513 47.970024 
L 112.569157 75.15 
L 113.588801 75.15 
L 114.608444 47.970027 
L 115.628088 61.560014 
L 116.647732 88.739986 
L 117.667375 47.969946 
L 118.687019 61.560014 
L 119.706663 61.560011 
L 120.726306 88.739989 
L 121.74595 61.560011 
L 122.765594 20.790052 
L 123.785237 75.15 
L 124.804881 61.559973 
L 125.824525 75.15 
L 126.844168 61.560014 
L 128.883456 61.559973 
L 129.903099 115.92 
L 130.922743 47.970027 
L 131.841285 -1 
M 132.077189 -1 
L 133.981674 75.15 
L 135.001318 61.560014 
L 136.020961 61.560014 
L 137.040605 47.969984 
L 138.060249 61.560014 
L 139.079892 88.739986 
L 139.753202 -1 
M 140.44587 -1 
L 141.11918 88.739986 
L 142.138823 47.970005 
L 143.158467 61.560014 
L 145.197754 61.559995 
L 146.217398 34.379997 
L 147.237042 34.379997 
L 148.256685 61.560003 
L 149.276329 61.560005 
L 150.295973 7.199997 
L 151.315616 75.15 
L 152.33526 34.379997 
L 153.354904 34.380005 
L 154.374547 75.15 
L 155.394191 75.15 
L 156.413835 34.379986 
L 158.453122 34.380019 
L 159.472766 88.739986 
L 160.492409 34.379997 
L 161.512053 34.38003 
L 162.531697 61.559973 
L 163.551341 47.970024 
L 164.570984 75.15 
L 165.590628 34.38 
L 166.610272 47.969984 
L 167.629915 20.790014 
L 168.649559 61.560011 
L 169.669203 61.559973 
L 170.688846 75.15 
L 171.70849 34.38 
L 172.728134 75.15 
L 173.747777 61.560011 
L 174.767421 7.199984 
L 175.787065 61.560014 
L 176.806708 75.15 
L 177.826352 47.970027 
L 178.845996 47.969943 
L 179.865639 75.15 
L 180.885283 34.380041 
L 181.904927 156.690003 
L 182.750021 -1 
M 183.273669 -1 
L 183.944214 61.559932 
L 184.963858 75.15 
L 187.003145 47.970027 
L 188.022789 47.970024 
L 189.042432 88.739986 
L 192.101363 47.969946 
L 193.121007 61.560014 
L 194.140651 61.560011 
L 195.160294 75.15 
L 196.179938 75.15 
L 197.199582 34.379959 
L 198.219225 102.330054 
L 199.238869 61.560014 
L 200.258513 88.739986 
L 201.278156 61.560014 
L 203.317444 88.739986 
L 204.337087 143.100016 
L 205.168754 -1 
M 205.601101 -1 
L 206.376375 102.330054 
L 209.435306 61.560014 
L 210.454949 88.739986 
L 211.474593 61.560014 
L 212.494237 88.739986 
L 213.51388 88.739986 
L 214.533524 75.15 
L 215.553168 75.15 
L 216.572812 88.739989 
L 217.592455 156.690003 
L 218.612099 7.199984 
L 219.631743 102.330054 
L 220.651386 75.15 
L 221.67103 34.379959 
L 222.690674 156.690003 
L 223.710317 61.560014 
L 224.729961 88.739986 
L 225.749605 129.51003 
L 226.769248 47.969943 
L 227.788892 102.330057 
L 228.808536 61.560011 
L 229.828179 115.919962 
L 230.847823 88.739986 
L 231.867467 102.330057 
L 232.88711 88.739986 
L 233.906754 115.919959 
L 234.926398 61.560014 
L 235.946041 75.15 
L 236.965685 143.100016 
L 237.985329 75.15 
L 239.004972 102.329976 
L 240.024616 88.740027 
L 241.04426 115.92 
L 242.063903 88.739989 
L 243.083547 115.92 
L 244.103191 75.15 
L 245.122834 129.509989 
L 246.142478 75.15 
L 247.162122 115.920003 
L 248.181765 88.739986 
L 250.221053 115.919992 
L 251.240696 115.920003 
L 252.26034 61.559992 
L 253.279984 102.329995 
L 254.299627 102.330014 
L 255.319271 88.739986 
L 256.338915 115.920014 
L 257.358558 102.329997 
L 258.378202 102.33 
L 259.397846 88.739997 
L 260.417489 143.100008 
L 261.437133 88.739997 
L 263.47642 88.739997 
L 263.47642 88.739997 
" clip-path="url(#p40e020ef1b)" style="fill: none; stroke: #2ca02c; stroke-width: 1.5; stroke-linecap: square"/>
   </g>
   <g id="patch_3">
    <path d="M 50.421875 143.1 
L 50.421875 7.2 
" style="fill: none; stroke: #000000; stroke-width: 0.8; stroke-linejoin: miter; stroke-linecap: square"/>
   </g>
   <g id="patch_4">
    <path d="M 273.621875 143.1 
L 273.621875 7.2 
" style="fill: none; stroke: #000000; stroke-width: 0.8; stroke-linejoin: miter; stroke-linecap: square"/>
   </g>
   <g id="patch_5">
    <path d="M 50.421875 143.1 
L 273.621875 143.1 
" style="fill: none; stroke: #000000; stroke-width: 0.8; stroke-linejoin: miter; stroke-linecap: square"/>
   </g>
   <g id="patch_6">
    <path d="M 50.421875 7.2 
L 273.621875 7.2 
" style="fill: none; stroke: #000000; stroke-width: 0.8; stroke-linejoin: miter; stroke-linecap: square"/>
   </g>
   <g id="legend_1">
    <g id="patch_7">
     <path d="M 57.421875 138.1 
L 103.921875 138.1 
Q 105.921875 138.1 105.921875 136.1 
L 105.921875 94.682813 
Q 105.921875 92.682813 103.921875 92.682813 
L 57.421875 92.682813 
Q 55.421875 92.682813 55.421875 94.682813 
L 55.421875 136.1 
Q 55.421875 138.1 57.421875 138.1 
z
" style="fill: #ffffff; opacity: 0.8; stroke: #cccccc; stroke-linejoin: miter"/>
    </g>
    <g id="line2d_26">
     <path d="M 59.421875 100.182813 
L 69.421875 100.182813 
L 79.421875 100.182813 
" style="fill: none; stroke: #1f77b4; stroke-width: 1.5; stroke-linecap: square"/>
    </g>
    <g id="text_14">
     <!-- $\Delta I_{a}$ -->
     <g transform="translate(87.421875 103.682813)scale(0.1 -0.1)">
      <defs>
       <path id="STIXGeneral-Regular-394" d="M 4320 0 
L 307 0 
L 2221 4314 
L 2349 4314 
L 4320 0 
z
M 3354 589 
L 2118 3405 
L 870 589 
L 3354 589 
z
" transform="scale(0.015625)"/>
       <path id="STIXGeneral-Italic-49" d="M 2458 4179 
L 2458 4077 
Q 2189 4045 2102 3961 
Q 2016 3878 1933 3584 
L 1165 838 
Q 1069 499 1069 352 
Q 1069 224 1149 179 
Q 1229 134 1510 102 
L 1510 0 
L -51 0 
L -51 102 
Q 218 154 317 237 
Q 416 320 486 582 
L 1254 3405 
Q 1338 3699 1338 3802 
Q 1338 3930 1235 3997 
Q 1133 4064 877 4077 
L 877 4179 
L 2458 4179 
z
" transform="scale(0.015625)"/>
       <path id="STIXGeneral-Italic-61" d="M 2963 710 
L 3046 640 
Q 2688 205 2518 70 
Q 2349 -64 2157 -64 
Q 1901 -64 1901 198 
Q 1901 358 2048 934 
Q 1690 397 1389 163 
Q 1088 -70 749 -70 
Q 467 -70 288 125 
Q 109 320 109 672 
Q 109 1158 387 1664 
Q 666 2170 1094 2496 
Q 1523 2822 1939 2822 
Q 2368 2822 2451 2451 
L 2522 2758 
L 2541 2778 
L 2931 2822 
L 2976 2803 
Q 2970 2778 2938 2669 
Q 2368 595 2368 346 
Q 2368 262 2458 262 
Q 2554 262 2790 525 
L 2963 710 
z
M 2336 2310 
Q 2336 2477 2240 2579 
Q 2144 2682 1978 2682 
Q 1542 2682 1139 2093 
Q 928 1779 787 1395 
Q 646 1011 646 717 
Q 646 243 1030 243 
Q 1408 243 1843 870 
Q 2336 1581 2336 2310 
z
" transform="scale(0.015625)"/>
      </defs>
      <use xlink:href="#STIXGeneral-Regular-394" transform="translate(0 0.59375)"/>
      <use xlink:href="#STIXGeneral-Italic-49" transform="translate(72.199982 0.59375)"/>
      <use xlink:href="#STIXGeneral-Italic-61" transform="translate(105.499969 -12.634375)scale(0.7)"/>
     </g>
    </g>
    <g id="line2d_27">
     <path d="M 59.421875 114.321875 
L 69.421875 114.321875 
L 79.421875 114.321875 
" style="fill: none; stroke: #ff7f0e; stroke-width: 1.5; stroke-linecap: square"/>
    </g>
    <g id="text_15">
     <!-- $\Delta I_{b}$ -->
     <g transform="translate(87.421875 117.821875)scale(0.1 -0.1)">
      <defs>
       <path id="STIXGeneral-Italic-62" d="M 1043 1856 
L 1050 1856 
Q 1370 2387 1654 2604 
Q 1939 2822 2285 2822 
Q 2618 2822 2822 2617 
Q 3027 2413 3027 2054 
Q 3027 1562 2726 1062 
Q 2426 563 1942 246 
Q 1459 -70 979 -70 
Q 685 -70 416 32 
Q 147 134 147 269 
L 147 307 
L 1056 3654 
Q 1114 3885 1114 3955 
Q 1114 4058 1053 4080 
Q 992 4102 704 4115 
L 704 4224 
Q 1184 4282 1683 4371 
L 1715 4339 
L 1581 3814 
L 1043 1856 
z
M 2483 1958 
Q 2483 2509 2035 2509 
Q 1594 2509 1158 1773 
Q 954 1427 826 1008 
Q 698 589 698 294 
Q 698 77 992 77 
Q 1414 77 1779 454 
Q 2074 762 2278 1187 
Q 2483 1613 2483 1958 
z
" transform="scale(0.015625)"/>
      </defs>
      <use xlink:href="#STIXGeneral-Regular-394" transform="translate(0 0.59375)"/>
      <use xlink:href="#STIXGeneral-Italic-49" transform="translate(72.199982 0.59375)"/>
      <use xlink:href="#STIXGeneral-Italic-62" transform="translate(105.499969 -12.634375)scale(0.7)"/>
     </g>
    </g>
    <g id="line2d_28">
     <path d="M 59.421875 128.460938 
L 69.421875 128.460938 
L 79.421875 128.460938 
" style="fill: none; stroke: #2ca02c; stroke-width: 1.5; stroke-linecap: square"/>
    </g>
    <g id="text_16">
     <!-- $\Delta I_{c}$ -->
     <g transform="translate(87.421875 131.960938)scale(0.1 -0.1)">
      <defs>
       <path id="STIXGeneral-Italic-63" d="M 2240 685 
L 2342 621 
Q 2048 250 1769 90 
Q 1491 -70 1133 -70 
Q 678 -70 435 179 
Q 192 429 192 915 
Q 192 1344 409 1744 
Q 627 2144 979 2432 
Q 1472 2822 2048 2822 
Q 2342 2822 2531 2675 
Q 2720 2528 2720 2304 
Q 2720 2176 2630 2086 
Q 2541 1997 2413 1997 
Q 2285 1997 2224 2070 
Q 2163 2144 2163 2253 
Q 2163 2310 2211 2403 
Q 2259 2496 2259 2560 
Q 2259 2688 2022 2688 
Q 1619 2688 1325 2381 
Q 742 1766 742 890 
Q 742 544 889 352 
Q 1037 160 1312 160 
Q 1562 160 1766 281 
Q 1971 403 2240 685 
z
" transform="scale(0.015625)"/>
      </defs>
      <use xlink:href="#STIXGeneral-Regular-394" transform="translate(0 0.59375)"/>
      <use xlink:href="#STIXGeneral-Italic-49" transform="translate(72.199982 0.59375)"/>
      <use xlink:href="#STIXGeneral-Italic-63" transform="translate(105.499969 -12.634375)scale(0.7)"/>
     </g>
    </g>
   </g>
  </g>
 </g>
 <defs>
  <clipPath id="p40e020ef1b">
   <rect x="50.421875" y="7.2" width="223.2" height="135.9"/>
  </clipPath>
 </defs>
</svg>
