<?xml version="1.0" encoding="utf-8" standalone="no"?>
<!DOCTYPE svg PUBLIC "-//W3C//DTD SVG 1.1//EN"
  "http://www.w3.org/Graphics/SVG/1.1/DTD/svg11.dtd">
<svg xmlns:xlink="http://www.w3.org/1999/xlink" width="360pt" height="216pt" viewBox="0 0 360 216" xmlns="http://www.w3.org/2000/svg" version="1.1">
 <metadata>
  <rdf:RDF xmlns:dc="http://purl.org/dc/elements/1.1/" xmlns:cc="http://creativecommons.org/ns#" xmlns:rdf="http://www.w3.org/1999/02/22-rdf-syntax-ns#">
   <cc:Work>
    <dc:type rdf:resource="http://purl.org/dc/dcmitype/StillImage"/>
    <dc:date>2026-06-15T16:49:10.056802</dc:date>
    <dc:format>image/svg+xml</dc:format>
    <dc:creator>
     <cc:Agent>
      <dc:title>Matplotlib v3.11.0, https://matplotlib.org/</dc:title>
     </cc:Agent>
    </dc:creator>
   </cc:Work>
  </rdf:RDF>
 </metadata>
 <defs>
  <style type="text/css">*{stroke-linejoin: round; stroke-linecap: butt}</style>
 </defs>
 <g id="figure_1">
  <g id="patch_1">
   <path d="M 0 216 
L 360 216 
L 360 0 
L 0 0 
z
" style="fill: #ffffff"/>
  </g>
  <g id="axes_1">
   <g id="patch_2">
    <path d="M 47.962344 173.877656 
L 349.2 173.877656 
L 349.2 14.598828 
L 47.962344 14.598828 
z
" style="fill: #ffffff"/>
   </g>
   <g id="matplotlib.axis_1">
    <g id="xtick_1">
     <g id="line2d_1">
      <defs>
       <path id="m8d35ca7abf" d="M 0 0 
L 0 3.5 
" style="stroke: #000000; stroke-width: 0.8"/>
      </defs>
      <g>
       <use xlink:href="#m8d35ca7abf" x="61.654964" y="173.877656" style="stroke: #000000; stroke-width: 0.8"/>
      </g>
     </g>
     <g id="text_1">
      <!-- 0.0 -->
      <g transform="translate(53.703402 188.475313) scale(0.1 -0.1)">
       <defs>
        <path id="DejaVuSans-13" d="M 2034 4250 
Q 1547 4250 1301 3770 
Q 1056 3291 1056 2328 
Q 1056 1369 1301 889 
Q 1547 409 2034 409 
Q 2525 409 2770 889 
Q 3016 1369 3016 2328 
Q 3016 3291 2770 3770 
Q 2525 4250 2034 4250 
z
M 2034 4750 
Q 2819 4750 3233 4129 
Q 3647 3509 3647 2328 
Q 3647 1150 3233 529 
Q 2819 -91 2034 -91 
Q 1250 -91 836 529 
Q 422 1150 422 2328 
Q 422 3509 836 4129 
Q 1250 4750 2034 4750 
z
" transform="scale(0.015625)"/>
        <path id="DejaVuSans-11" d="M 684 794 
L 1344 794 
L 1344 0 
L 684 0 
L 684 794 
z
" transform="scale(0.015625)"/>
       </defs>
       <use xlink:href="#DejaVuSans-13"/>
       <use xlink:href="#DejaVuSans-11" transform="translate(63.625 0)"/>
       <use xlink:href="#DejaVuSans-13" transform="translate(95.40625 0)"/>
      </g>
     </g>
    </g>
    <g id="xtick_2">
     <g id="line2d_2">
      <g>
       <use xlink:href="#m8d35ca7abf" x="116.425447" y="173.877656" style="stroke: #000000; stroke-width: 0.8"/>
      </g>
     </g>
     <g id="text_2">
      <!-- 0.2 -->
      <g transform="translate(108.473885 188.475313) scale(0.1 -0.1)">
       <defs>
        <path id="DejaVuSans-15" d="M 1228 531 
L 3431 531 
L 3431 0 
L 469 0 
L 469 531 
Q 828 903 1448 1529 
Q 2069 2156 2228 2338 
Q 2531 2678 2651 2914 
Q 2772 3150 2772 3378 
Q 2772 3750 2511 3984 
Q 2250 4219 1831 4219 
Q 1534 4219 1204 4116 
Q 875 4013 500 3803 
L 500 4441 
Q 881 4594 1212 4672 
Q 1544 4750 1819 4750 
Q 2544 4750 2975 4387 
Q 3406 4025 3406 3419 
Q 3406 3131 3298 2873 
Q 3191 2616 2906 2266 
Q 2828 2175 2409 1742 
Q 1991 1309 1228 531 
z
" transform="scale(0.015625)"/>
       </defs>
       <use xlink:href="#DejaVuSans-13"/>
       <use xlink:href="#DejaVuSans-11" transform="translate(63.625 0)"/>
       <use xlink:href="#DejaVuSans-15" transform="translate(95.40625 0)"/>
      </g>
     </g>
    </g>
    <g id="xtick_3">
     <g id="line2d_3">
      <g>
       <use xlink:href="#m8d35ca7abf" x="171.19593" y="173.877656" style="stroke: #000000; stroke-width: 0.8"/>
      </g>
     </g>
     <g id="text_3">
      <!-- 0.4 -->
      <g transform="translate(163.244368 188.475313) scale(0.1 -0.1)">
       <defs>
        <path id="DejaVuSans-17" d="M 2419 4116 
L 825 1625 
L 2419 1625 
L 2419 4116 
z
M 2253 4666 
L 3047 4666 
L 3047 1625 
L 3713 1625 
L 3713 1100 
L 3047 1100 
L 3047 0 
L 2419 0 
L 2419 1100 
L 313 1100 
L 313 1709 
L 2253 4666 
z
" transform="scale(0.015625)"/>
       </defs>
       <use xlink:href="#DejaVuSans-13"/>
       <use xlink:href="#DejaVuSans-11" transform="translate(63.625 0)"/>
       <use xlink:href="#DejaVuSans-17" transform="translate(95.40625 0)"/>
      </g>
     </g>
    </g>
    <g id="xtick_4">
     <g id="line2d_4">
      <g>
       <use xlink:href="#m8d35ca7abf" x="225.966413" y="173.877656" style="stroke: #000000; stroke-width: 0.8"/>
      </g>
     </g>
     <g id="text_4">
      <!-- 0.6 -->
      <g transform="translate(218.014851 188.475313) scale(0.1 -0.1)">
       <defs>
        <path id="DejaVuSans-19" d="M 2113 2584 
Q 1688 2584 1439 2293 
Q 1191 2003 1191 1497 
Q 1191 994 1439 701 
Q 1688 409 2113 409 
Q 2538 409 2786 701 
Q 3034 994 3034 1497 
Q 3034 2003 2786 2293 
Q 2538 2584 2113 2584 
z
M 3366 4563 
L 3366 3988 
Q 3128 4100 2886 4159 
Q 2644 4219 2406 4219 
Q 1781 4219 1451 3797 
Q 1122 3375 1075 2522 
Q 1259 2794 1537 2939 
Q 1816 3084 2150 3084 
Q 2853 3084 3261 2657 
Q 3669 2231 3669 1497 
Q 3669 778 3244 343 
Q 2819 -91 2113 -91 
Q 1303 -91 875 529 
Q 447 1150 447 2328 
Q 447 3434 972 4092 
Q 1497 4750 2381 4750 
Q 2619 4750 2861 4703 
Q 3103 4656 3366 4563 
z
" transform="scale(0.015625)"/>
       </defs>
       <use xlink:href="#DejaVuSans-13"/>
       <use xlink:href="#DejaVuSans-11" transform="translate(63.625 0)"/>
       <use xlink:href="#DejaVuSans-19" transform="translate(95.40625 0)"/>
      </g>
     </g>
    </g>
    <g id="xtick_5">
     <g id="line2d_5">
      <g>
       <use xlink:href="#m8d35ca7abf" x="280.736896" y="173.877656" style="stroke: #000000; stroke-width: 0.8"/>
      </g>
     </g>
     <g id="text_5">
      <!-- 0.8 -->
      <g transform="translate(272.785334 188.475313) scale(0.1 -0.1)">
       <defs>
        <path id="DejaVuSans-1b" d="M 2034 2216 
Q 1584 2216 1326 1975 
Q 1069 1734 1069 1313 
Q 1069 891 1326 650 
Q 1584 409 2034 409 
Q 2484 409 2743 651 
Q 3003 894 3003 1313 
Q 3003 1734 2745 1975 
Q 2488 2216 2034 2216 
z
M 1403 2484 
Q 997 2584 770 2862 
Q 544 3141 544 3541 
Q 544 4100 942 4425 
Q 1341 4750 2034 4750 
Q 2731 4750 3128 4425 
Q 3525 4100 3525 3541 
Q 3525 3141 3298 2862 
Q 3072 2584 2669 2484 
Q 3125 2378 3379 2068 
Q 3634 1759 3634 1313 
Q 3634 634 3220 271 
Q 2806 -91 2034 -91 
Q 1263 -91 848 271 
Q 434 634 434 1313 
Q 434 1759 690 2068 
Q 947 2378 1403 2484 
z
M 1172 3481 
Q 1172 3119 1398 2916 
Q 1625 2713 2034 2713 
Q 2441 2713 2670 2916 
Q 2900 3119 2900 3481 
Q 2900 3844 2670 4047 
Q 2441 4250 2034 4250 
Q 1625 4250 1398 4047 
Q 1172 3844 1172 3481 
z
" transform="scale(0.015625)"/>
       </defs>
       <use xlink:href="#DejaVuSans-13"/>
       <use xlink:href="#DejaVuSans-11" transform="translate(63.625 0)"/>
       <use xlink:href="#DejaVuSans-1b" transform="translate(95.40625 0)"/>
      </g>
     </g>
    </g>
    <g id="xtick_6">
     <g id="line2d_6">
      <g>
       <use xlink:href="#m8d35ca7abf" x="335.507379" y="173.877656" style="stroke: #000000; stroke-width: 0.8"/>
      </g>
     </g>
     <g id="text_6">
      <!-- 1.0 -->
      <g transform="translate(327.555817 188.475313) scale(0.1 -0.1)">
       <defs>
        <path id="DejaVuSans-14" d="M 794 531 
L 1825 531 
L 1825 4091 
L 703 3866 
L 703 4441 
L 1819 4666 
L 2450 4666 
L 2450 531 
L 3481 531 
L 3481 0 
L 794 0 
L 794 531 
z
" transform="scale(0.015625)"/>
       </defs>
       <use xlink:href="#DejaVuSans-14"/>
       <use xlink:href="#DejaVuSans-11" transform="translate(63.625 0)"/>
       <use xlink:href="#DejaVuSans-13" transform="translate(95.40625 0)"/>
      </g>
     </g>
    </g>
    <g id="text_7">
     <!-- Time (sec) -->
     <g transform="translate(172.424141 202.476094) scale(0.1 -0.1)">
      <defs>
       <path id="DejaVuSans-37" d="M -19 4666 
L 3928 4666 
L 3928 4134 
L 2272 4134 
L 2272 0 
L 1638 0 
L 1638 4134 
L -19 4134 
L -19 4666 
z
" transform="scale(0.015625)"/>
       <path id="DejaVuSans-4c" d="M 603 3500 
L 1178 3500 
L 1178 0 
L 603 0 
L 603 3500 
z
M 603 4863 
L 1178 4863 
L 1178 4134 
L 603 4134 
L 603 4863 
z
" transform="scale(0.015625)"/>
       <path id="DejaVuSans-50" d="M 3328 2828 
Q 3544 3216 3844 3400 
Q 4144 3584 4550 3584 
Q 5097 3584 5394 3201 
Q 5691 2819 5691 2113 
L 5691 0 
L 5113 0 
L 5113 2094 
Q 5113 2597 4934 2840 
Q 4756 3084 4391 3084 
Q 3944 3084 3684 2787 
Q 3425 2491 3425 1978 
L 3425 0 
L 2847 0 
L 2847 2094 
Q 2847 2600 2669 2842 
Q 2491 3084 2119 3084 
Q 1678 3084 1418 2786 
Q 1159 2488 1159 1978 
L 1159 0 
L 581 0 
L 581 3500 
L 1159 3500 
L 1159 2956 
Q 1356 3278 1631 3431 
Q 1906 3584 2284 3584 
Q 2666 3584 2933 3390 
Q 3200 3197 3328 2828 
z
" transform="scale(0.015625)"/>
       <path id="DejaVuSans-48" d="M 3597 1894 
L 3597 1613 
L 953 1613 
Q 991 1019 1311 708 
Q 1631 397 2203 397 
Q 2534 397 2845 478 
Q 3156 559 3463 722 
L 3463 178 
Q 3153 47 2828 -22 
Q 2503 -91 2169 -91 
Q 1331 -91 842 396 
Q 353 884 353 1716 
Q 353 2575 817 3079 
Q 1281 3584 2069 3584 
Q 2775 3584 3186 3129 
Q 3597 2675 3597 1894 
z
M 3022 2063 
Q 3016 2534 2758 2815 
Q 2500 3097 2075 3097 
Q 1594 3097 1305 2825 
Q 1016 2553 972 2059 
L 3022 2063 
z
" transform="scale(0.015625)"/>
       <path id="DejaVuSans-3" transform="scale(0.015625)"/>
       <path id="DejaVuSans-b" d="M 1984 4856 
Q 1566 4138 1362 3434 
Q 1159 2731 1159 2009 
Q 1159 1288 1364 580 
Q 1569 -128 1984 -844 
L 1484 -844 
Q 1016 -109 783 600 
Q 550 1309 550 2009 
Q 550 2706 781 3412 
Q 1013 4119 1484 4856 
L 1984 4856 
z
" transform="scale(0.015625)"/>
       <path id="DejaVuSans-56" d="M 2834 3397 
L 2834 2853 
Q 2591 2978 2328 3040 
Q 2066 3103 1784 3103 
Q 1356 3103 1142 2972 
Q 928 2841 928 2578 
Q 928 2378 1081 2264 
Q 1234 2150 1697 2047 
L 1894 2003 
Q 2506 1872 2764 1633 
Q 3022 1394 3022 966 
Q 3022 478 2636 193 
Q 2250 -91 1575 -91 
Q 1294 -91 989 -36 
Q 684 19 347 128 
L 347 722 
Q 666 556 975 473 
Q 1284 391 1588 391 
Q 1994 391 2212 530 
Q 2431 669 2431 922 
Q 2431 1156 2273 1281 
Q 2116 1406 1581 1522 
L 1381 1569 
Q 847 1681 609 1914 
Q 372 2147 372 2553 
Q 372 3047 722 3315 
Q 1072 3584 1716 3584 
Q 2034 3584 2315 3537 
Q 2597 3491 2834 3397 
z
" transform="scale(0.015625)"/>
       <path id="DejaVuSans-46" d="M 3122 3366 
L 3122 2828 
Q 2878 2963 2633 3030 
Q 2388 3097 2138 3097 
Q 1578 3097 1268 2742 
Q 959 2388 959 1747 
Q 959 1106 1268 751 
Q 1578 397 2138 397 
Q 2388 397 2633 464 
Q 2878 531 3122 666 
L 3122 134 
Q 2881 22 2623 -34 
Q 2366 -91 2075 -91 
Q 1284 -91 818 406 
Q 353 903 353 1747 
Q 353 2603 823 3093 
Q 1294 3584 2113 3584 
Q 2378 3584 2631 3529 
Q 2884 3475 3122 3366 
z
" transform="scale(0.015625)"/>
       <path id="DejaVuSans-c" d="M 513 4856 
L 1013 4856 
Q 1481 4119 1714 3412 
Q 1947 2706 1947 2009 
Q 1947 1309 1714 600 
Q 1481 -109 1013 -844 
L 513 -844 
Q 928 -128 1133 580 
Q 1338 1288 1338 2009 
Q 1338 2731 1133 3434 
Q 928 4138 513 4856 
z
" transform="scale(0.015625)"/>
      </defs>
      <use xlink:href="#DejaVuSans-37"/>
      <use xlink:href="#DejaVuSans-4c" transform="translate(58 0)"/>
      <use xlink:href="#DejaVuSans-50" transform="translate(85.78125 0)"/>
      <use xlink:href="#DejaVuSans-48" transform="translate(183.1875 0)"/>
      <use xlink:href="#DejaVuSans-3" transform="translate(244.71875 0)"/>
      <use xlink:href="#DejaVuSans-b" transform="translate(276.5 0)"/>
      <use xlink:href="#DejaVuSans-56" transform="translate(315.515625 0)"/>
      <use xlink:href="#DejaVuSans-48" transform="translate(367.609375 0)"/>
      <use xlink:href="#DejaVuSans-46" transform="translate(429.140625 0)"/>
      <use xlink:href="#DejaVuSans-c" transform="translate(484.125 0)"/>
     </g>
    </g>
   </g>
   <g id="matplotlib.axis_2">
    <g id="ytick_1">
     <g id="line2d_7">
      <defs>
       <path id="m250ec85c98" d="M 0 0 
L -3.5 0 
" style="stroke: #000000; stroke-width: 0.8"/>
      </defs>
      <g>
       <use xlink:href="#m250ec85c98" x="47.962344" y="159.397763" style="stroke: #000000; stroke-width: 0.8"/>
      </g>
     </g>
     <g id="text_8">
      <!-- 0.0 -->
      <g transform="translate(25.059219 163.196591) scale(0.1 -0.1)">
       <use xlink:href="#DejaVuSans-13"/>
       <use xlink:href="#DejaVuSans-11" transform="translate(63.625 0)"/>
       <use xlink:href="#DejaVuSans-13" transform="translate(95.40625 0)"/>
      </g>
     </g>
    </g>
    <g id="ytick_2">
     <g id="line2d_8">
      <g>
       <use xlink:href="#m250ec85c98" x="47.962344" y="130.437976" style="stroke: #000000; stroke-width: 0.8"/>
      </g>
     </g>
     <g id="text_9">
      <!-- 0.2 -->
      <g transform="translate(25.059219 134.236804) scale(0.1 -0.1)">
       <use xlink:href="#DejaVuSans-13"/>
       <use xlink:href="#DejaVuSans-11" transform="translate(63.625 0)"/>
       <use xlink:href="#DejaVuSans-15" transform="translate(95.40625 0)"/>
      </g>
     </g>
    </g>
    <g id="ytick_3">
     <g id="line2d_9">
      <g>
       <use xlink:href="#m250ec85c98" x="47.962344" y="101.478189" style="stroke: #000000; stroke-width: 0.8"/>
      </g>
     </g>
     <g id="text_10">
      <!-- 0.4 -->
      <g transform="translate(25.059219 105.277017) scale(0.1 -0.1)">
       <use xlink:href="#DejaVuSans-13"/>
       <use xlink:href="#DejaVuSans-11" transform="translate(63.625 0)"/>
       <use xlink:href="#DejaVuSans-17" transform="translate(95.40625 0)"/>
      </g>
     </g>
    </g>
    <g id="ytick_4">
     <g id="line2d_10">
      <g>
       <use xlink:href="#m250ec85c98" x="47.962344" y="72.518402" style="stroke: #000000; stroke-width: 0.8"/>
      </g>
     </g>
     <g id="text_11">
      <!-- 0.6 -->
      <g transform="translate(25.059219 76.31723) scale(0.1 -0.1)">
       <use xlink:href="#DejaVuSans-13"/>
       <use xlink:href="#DejaVuSans-11" transform="translate(63.625 0)"/>
       <use xlink:href="#DejaVuSans-19" transform="translate(95.40625 0)"/>
      </g>
     </g>
    </g>
    <g id="ytick_5">
     <g id="line2d_11">
      <g>
       <use xlink:href="#m250ec85c98" x="47.962344" y="43.558615" style="stroke: #000000; stroke-width: 0.8"/>
      </g>
     </g>
     <g id="text_12">
      <!-- 0.8 -->
      <g transform="translate(25.059219 47.357443) scale(0.1 -0.1)">
       <use xlink:href="#DejaVuSans-13"/>
       <use xlink:href="#DejaVuSans-11" transform="translate(63.625 0)"/>
       <use xlink:href="#DejaVuSans-1b" transform="translate(95.40625 0)"/>
      </g>
     </g>
    </g>
    <g id="ytick_6">
     <g id="line2d_12">
      <g>
       <use xlink:href="#m250ec85c98" x="47.962344" y="14.598828" style="stroke: #000000; stroke-width: 0.8"/>
      </g>
     </g>
     <g id="text_13">
      <!-- 1.0 -->
      <g transform="translate(25.059219 18.397656) scale(0.1 -0.1)">
       <use xlink:href="#DejaVuSans-14"/>
       <use xlink:href="#DejaVuSans-11" transform="translate(63.625 0)"/>
       <use xlink:href="#DejaVuSans-13" transform="translate(95.40625 0)"/>
      </g>
     </g>
    </g>
    <g id="text_14">
     <!-- Injected Signal -->
     <g transform="translate(18.656875 131.256211) rotate(-90) scale(0.1 -0.1)">
      <defs>
       <path id="DejaVuSans-2c" d="M 628 4666 
L 1259 4666 
L 1259 0 
L 628 0 
L 628 4666 
z
" transform="scale(0.015625)"/>
       <path id="DejaVuSans-51" d="M 3513 2113 
L 3513 0 
L 2938 0 
L 2938 2094 
Q 2938 2591 2744 2837 
Q 2550 3084 2163 3084 
Q 1697 3084 1428 2787 
Q 1159 2491 1159 1978 
L 1159 0 
L 581 0 
L 581 3500 
L 1159 3500 
L 1159 2956 
Q 1366 3272 1645 3428 
Q 1925 3584 2291 3584 
Q 2894 3584 3203 3211 
Q 3513 2838 3513 2113 
z
" transform="scale(0.015625)"/>
       <path id="DejaVuSans-4d" d="M 603 3500 
L 1178 3500 
L 1178 -63 
Q 1178 -731 923 -1031 
Q 669 -1331 103 -1331 
L -116 -1331 
L -116 -844 
L 38 -844 
Q 366 -844 484 -692 
Q 603 -541 603 -63 
L 603 3500 
z
M 603 4863 
L 1178 4863 
L 1178 4134 
L 603 4134 
L 603 4863 
z
" transform="scale(0.015625)"/>
       <path id="DejaVuSans-57" d="M 1172 4494 
L 1172 3500 
L 2356 3500 
L 2356 3053 
L 1172 3053 
L 1172 1153 
Q 1172 725 1289 603 
Q 1406 481 1766 481 
L 2356 481 
L 2356 0 
L 1766 0 
Q 1100 0 847 248 
Q 594 497 594 1153 
L 594 3053 
L 172 3053 
L 172 3500 
L 594 3500 
L 594 4494 
L 1172 4494 
z
" transform="scale(0.015625)"/>
       <path id="DejaVuSans-47" d="M 2906 2969 
L 2906 4863 
L 3481 4863 
L 3481 0 
L 2906 0 
L 2906 525 
Q 2725 213 2448 61 
Q 2172 -91 1784 -91 
Q 1150 -91 751 415 
Q 353 922 353 1747 
Q 353 2572 751 3078 
Q 1150 3584 1784 3584 
Q 2172 3584 2448 3432 
Q 2725 3281 2906 2969 
z
M 947 1747 
Q 947 1113 1208 752 
Q 1469 391 1925 391 
Q 2381 391 2643 752 
Q 2906 1113 2906 1747 
Q 2906 2381 2643 2742 
Q 2381 3103 1925 3103 
Q 1469 3103 1208 2742 
Q 947 2381 947 1747 
z
" transform="scale(0.015625)"/>
       <path id="DejaVuSans-36" d="M 3425 4513 
L 3425 3897 
Q 3066 4069 2747 4153 
Q 2428 4238 2131 4238 
Q 1616 4238 1336 4038 
Q 1056 3838 1056 3469 
Q 1056 3159 1242 3001 
Q 1428 2844 1947 2747 
L 2328 2669 
Q 3034 2534 3370 2195 
Q 3706 1856 3706 1288 
Q 3706 609 3251 259 
Q 2797 -91 1919 -91 
Q 1588 -91 1214 -16 
Q 841 59 441 206 
L 441 856 
Q 825 641 1194 531 
Q 1563 422 1919 422 
Q 2459 422 2753 634 
Q 3047 847 3047 1241 
Q 3047 1584 2836 1778 
Q 2625 1972 2144 2069 
L 1759 2144 
Q 1053 2284 737 2584 
Q 422 2884 422 3419 
Q 422 4038 858 4394 
Q 1294 4750 2059 4750 
Q 2388 4750 2728 4690 
Q 3069 4631 3425 4513 
z
" transform="scale(0.015625)"/>
       <path id="DejaVuSans-4a" d="M 2906 1791 
Q 2906 2416 2648 2759 
Q 2391 3103 1925 3103 
Q 1463 3103 1205 2759 
Q 947 2416 947 1791 
Q 947 1169 1205 825 
Q 1463 481 1925 481 
Q 2391 481 2648 825 
Q 2906 1169 2906 1791 
z
M 3481 434 
Q 3481 -459 3084 -895 
Q 2688 -1331 1869 -1331 
Q 1566 -1331 1297 -1286 
Q 1028 -1241 775 -1147 
L 775 -588 
Q 1028 -725 1275 -790 
Q 1522 -856 1778 -856 
Q 2344 -856 2625 -561 
Q 2906 -266 2906 331 
L 2906 616 
Q 2728 306 2450 153 
Q 2172 0 1784 0 
Q 1141 0 747 490 
Q 353 981 353 1791 
Q 353 2603 747 3093 
Q 1141 3584 1784 3584 
Q 2172 3584 2450 3431 
Q 2728 3278 2906 2969 
L 2906 3500 
L 3481 3500 
L 3481 434 
z
" transform="scale(0.015625)"/>
       <path id="DejaVuSans-44" d="M 2194 1759 
Q 1497 1759 1228 1600 
Q 959 1441 959 1056 
Q 959 750 1161 570 
Q 1363 391 1709 391 
Q 2188 391 2477 730 
Q 2766 1069 2766 1631 
L 2766 1759 
L 2194 1759 
z
M 3341 1997 
L 3341 0 
L 2766 0 
L 2766 531 
Q 2569 213 2275 61 
Q 1981 -91 1556 -91 
Q 1019 -91 701 211 
Q 384 513 384 1019 
Q 384 1609 779 1909 
Q 1175 2209 1959 2209 
L 2766 2209 
L 2766 2266 
Q 2766 2663 2505 2880 
Q 2244 3097 1772 3097 
Q 1472 3097 1187 3025 
Q 903 2953 641 2809 
L 641 3341 
Q 956 3463 1253 3523 
Q 1550 3584 1831 3584 
Q 2591 3584 2966 3190 
Q 3341 2797 3341 1997 
z
" transform="scale(0.015625)"/>
       <path id="DejaVuSans-4f" d="M 603 4863 
L 1178 4863 
L 1178 0 
L 603 0 
L 603 4863 
z
" transform="scale(0.015625)"/>
      </defs>
      <use xlink:href="#DejaVuSans-2c"/>
      <use xlink:href="#DejaVuSans-51" transform="translate(29.5 0)"/>
      <use xlink:href="#DejaVuSans-4d" transform="translate(92.875 0)"/>
      <use xlink:href="#DejaVuSans-48" transform="translate(120.65625 0)"/>
      <use xlink:href="#DejaVuSans-46" transform="translate(182.1875 0)"/>
      <use xlink:href="#DejaVuSans-57" transform="translate(237.171875 0)"/>
      <use xlink:href="#DejaVuSans-48" transform="translate(276.375 0)"/>
      <use xlink:href="#DejaVuSans-47" transform="translate(337.90625 0)"/>
      <use xlink:href="#DejaVuSans-3" transform="translate(401.390625 0)"/>
      <use xlink:href="#DejaVuSans-36" transform="translate(433.171875 0)"/>
      <use xlink:href="#DejaVuSans-4c" transform="translate(496.65625 0)"/>
      <use xlink:href="#DejaVuSans-4a" transform="translate(524.4375 0)"/>
      <use xlink:href="#DejaVuSans-51" transform="translate(587.921875 0)"/>
      <use xlink:href="#DejaVuSans-44" transform="translate(651.296875 0)"/>
      <use xlink:href="#DejaVuSans-4f" transform="translate(712.578125 0)"/>
     </g>
    </g>
   </g>
   <g id="line2d_13">
    <path d="M 61.654964 111.236714 
L 62.202669 61.946942 
L 62.476522 120.373889 
L 62.750374 49.254816 
L 63.024227 122.781892 
L 63.571931 89.944511 
L 63.845784 94.746063 
L 64.119636 47.680449 
L 64.393489 86.942345 
L 64.667341 47.68664 
L 64.941193 48.445016 
L 65.215046 75.572637 
L 65.488898 87.107144 
L 66.036603 124.461321 
L 66.310456 99.215231 
L 66.584308 45.357057 
L 66.85816 63.010487 
L 67.132013 72.38833 
L 67.405865 125.600323 
L 67.679718 115.925719 
L 67.95357 80.660256 
L 68.227422 112.047555 
L 68.501275 55.585125 
L 68.775127 101.029144 
L 69.04898 68.430958 
L 69.322832 60.633951 
L 69.596685 79.602311 
L 69.870537 57.65718 
L 70.144389 77.726126 
L 70.418242 114.729694 
L 70.692094 128.555966 
L 70.965947 90.915289 
L 71.239799 120.610783 
L 71.513651 123.053114 
L 71.787504 79.046648 
L 72.061356 97.524817 
L 72.335209 127.353751 
L 72.609061 129.201314 
L 72.882913 111.517797 
L 73.156766 129.887387 
L 73.430618 109.996637 
L 73.978323 87.852556 
L 74.252176 70.01731 
L 74.526028 126.935546 
L 74.79988 50.273402 
L 75.073733 61.463146 
L 75.347585 97.795992 
L 75.621438 105.647136 
L 75.89529 83.769232 
L 76.169142 83.705999 
L 76.442995 96.992607 
L 76.716847 126.959442 
L 76.9907 130.407936 
L 77.264552 78.934593 
L 77.538405 87.954804 
L 77.812257 47.666499 
L 78.086109 100.083229 
L 78.359962 57.935747 
L 78.633814 57.035643 
L 79.455371 114.802866 
L 79.729224 65.260146 
L 80.003076 78.528798 
L 80.276929 106.063824 
L 80.550781 103.563629 
L 80.824634 113.883059 
L 81.098486 104.126327 
L 81.372338 103.392163 
L 81.646191 64.495136 
L 81.920043 88.862515 
L 82.193896 70.09228 
L 82.467748 95.584101 
L 82.7416 64.554317 
L 83.015453 127.770643 
L 83.289305 126.573629 
L 83.563158 124.83881 
L 83.83701 60.458624 
L 84.110862 120.428003 
L 84.384715 81.773434 
L 84.658567 121.994048 
L 84.93242 45.587319 
L 85.206272 56.354867 
L 85.753977 107.748985 
L 86.027829 77.715307 
L 86.301682 108.25161 
L 86.575534 83.35158 
L 86.849387 87.75523 
L 87.123239 47.762812 
L 87.397091 101.707342 
L 87.670944 78.468874 
L 87.944796 104.768122 
L 88.218649 76.917189 
L 88.492501 89.169717 
L 88.766354 81.793418 
L 89.040206 107.035034 
L 89.314058 118.94825 
L 89.587911 106.073981 
L 89.861763 75.33961 
L 90.135616 121.557345 
L 90.409468 86.083711 
L 90.957173 62.175149 
L 91.231025 91.618665 
L 91.504878 92.890425 
L 91.77873 71.199326 
L 92.052583 74.101522 
L 92.326435 96.969269 
L 92.600287 69.922028 
L 92.87414 93.831324 
L 93.147992 69.443384 
L 93.695697 45.523945 
L 93.969549 104.350144 
L 94.243402 91.045377 
L 94.517254 128.031114 
L 94.791107 81.352571 
L 95.064959 127.718934 
L 95.338812 122.567479 
L 95.612664 65.540417 
L 95.886516 45.842455 
L 96.160369 65.149506 
L 96.434221 114.653612 
L 96.708074 58.986505 
L 96.981926 130.041622 
L 97.255778 69.873261 
L 97.529631 101.629729 
L 97.803483 82.71063 
L 98.077336 81.38675 
L 98.351188 56.296864 
L 98.62504 118.492249 
L 98.898893 48.529899 
L 99.172745 101.789014 
L 99.72045 94.325214 
L 99.994303 120.146797 
L 100.268155 114.099351 
L 100.542007 53.491707 
L 101.089712 118.777991 
L 101.363565 130.395352 
L 101.637417 51.737253 
L 101.911269 110.160124 
L 102.185122 74.266013 
L 102.458974 129.030442 
L 102.732827 89.707741 
L 103.006679 86.619373 
L 103.280532 91.456674 
L 103.554384 90.391436 
L 103.828236 88.27598 
L 104.102089 85.040818 
L 104.375941 115.288847 
L 104.923646 91.981928 
L 105.197498 65.827542 
L 105.745203 83.034742 
L 106.019056 52.866609 
L 106.292908 58.054265 
L 106.566761 112.3954 
L 106.840613 95.061967 
L 107.114465 117.728106 
L 107.388318 103.416706 
L 107.66217 55.56804 
L 108.209875 103.700778 
L 108.483727 67.352118 
L 108.75758 125.058493 
L 109.031432 105.611724 
L 109.305285 94.855825 
L 109.852989 55.961101 
L 110.126842 94.264954 
L 110.400694 52.468441 
L 110.674547 113.023525 
L 110.948399 67.691933 
L 111.222252 81.102658 
L 111.496104 62.091946 
L 111.769956 57.365575 
L 112.043809 57.717981 
L 112.317661 60.512138 
L 112.591514 103.418143 
L 112.865366 91.803994 
L 113.139218 93.295354 
L 113.413071 113.344056 
L 113.960776 55.994567 
L 114.508481 111.381109 
L 114.782333 129.041657 
L 115.056185 66.756015 
L 115.330038 76.734821 
L 115.60389 64.68057 
L 115.877743 112.321635 
L 116.151595 57.044698 
L 116.425447 89.489797 
L 116.6993 67.690391 
L 116.973152 89.512674 
L 117.247005 89.903614 
L 117.520857 124.033046 
L 117.79471 115.391639 
L 118.068562 51.16338 
L 118.342414 127.720819 
L 118.890119 113.569226 
L 119.163972 65.208566 
L 119.437824 117.862012 
L 119.711676 76.734535 
L 119.985529 126.669962 
L 120.259381 46.750692 
L 120.533234 81.936196 
L 120.807086 46.553461 
L 121.080938 107.470629 
L 121.354791 79.633807 
L 121.628643 127.123132 
L 121.902496 71.88472 
L 122.176348 55.259954 
L 122.450201 78.236808 
L 122.724053 80.959854 
L 122.997905 86.530012 
L 123.271758 48.807949 
L 123.819463 70.244402 
L 124.093315 69.933342 
L 124.367167 99.594496 
L 124.64102 86.40939 
L 124.914872 63.738343 
L 125.188725 84.439231 
L 125.462577 50.294366 
L 125.73643 117.23369 
L 126.010282 44.796472 
L 126.284134 102.451346 
L 126.557987 70.20501 
L 126.831839 84.263503 
L 127.105692 53.91621 
L 127.379544 85.526951 
L 127.653396 86.366944 
L 127.927249 74.6706 
L 128.201101 70.223635 
L 128.474954 99.496348 
L 128.748806 95.852251 
L 129.022659 81.155505 
L 129.296511 121.882809 
L 129.570363 106.256324 
L 129.844216 54.473396 
L 130.118068 95.465196 
L 130.391921 60.140262 
L 130.665773 120.075848 
L 130.939625 76.695031 
L 131.213478 71.571266 
L 131.761183 102.836513 
L 132.035035 103.121435 
L 132.308887 129.918444 
L 132.58274 90.63356 
L 132.856592 95.157412 
L 133.404297 115.182432 
L 133.952002 79.051312 
L 134.225854 70.014688 
L 134.499707 84.787054 
L 134.773559 74.700179 
L 135.047412 109.389309 
L 135.321264 107.557443 
L 135.595116 128.80935 
L 135.868969 76.174742 
L 136.142821 67.607957 
L 136.416674 54.209812 
L 136.690526 109.965657 
L 136.964379 128.025115 
L 137.238231 112.351445 
L 137.512083 129.497985 
L 137.785936 61.016306 
L 138.059788 93.222709 
L 138.333641 73.428788 
L 138.607493 110.573873 
L 138.881345 66.165705 
L 139.155198 105.273535 
L 139.42905 124.318922 
L 139.702903 62.453927 
L 140.250608 122.054387 
L 140.798312 61.099529 
L 141.072165 73.838884 
L 141.346017 51.544503 
L 141.61987 83.63192 
L 141.893722 60.355028 
L 142.441427 119.837287 
L 142.989132 45.401356 
L 143.262984 130.271879 
L 143.536837 62.377857 
L 143.810689 98.042781 
L 144.084541 112.861586 
L 144.358394 74.043714 
L 144.632246 85.114406 
L 144.906099 129.851532 
L 145.179951 124.191554 
L 145.453803 108.411652 
L 145.727656 121.650601 
L 146.275361 87.126598 
L 146.549213 47.735322 
L 146.823065 129.061944 
L 147.096918 84.287063 
L 147.37077 61.410595 
L 147.644623 129.07964 
L 147.918475 65.645106 
L 148.192328 47.431083 
L 148.46618 71.558247 
L 148.740032 59.002118 
L 149.013885 87.422245 
L 149.287737 71.878896 
L 149.56159 101.494798 
L 149.835442 58.913793 
L 150.109294 118.025701 
L 150.383147 45.187507 
L 150.656999 47.617256 
L 150.930852 55.816411 
L 151.204704 128.018041 
L 151.478557 70.764744 
L 151.752409 59.840357 
L 152.026261 97.809229 
L 152.300114 104.828961 
L 152.573966 129.885368 
L 152.847819 63.77612 
L 153.121671 108.891945 
L 153.395523 43.722863 
L 153.669376 104.319601 
L 153.943228 55.177358 
L 154.217081 68.78839 
L 154.490933 89.015012 
L 154.764786 74.416349 
L 155.038638 79.830949 
L 155.31249 72.255043 
L 155.586343 104.829532 
L 155.860195 80.694597 
L 156.134048 89.096161 
L 156.4079 55.785623 
L 156.681752 48.292706 
L 156.955605 62.667879 
L 157.229457 106.668332 
L 157.50331 54.056637 
L 157.777162 90.006596 
L 158.051014 67.288462 
L 158.324867 60.398452 
L 158.598719 93.035715 
L 158.872572 91.697664 
L 159.146424 117.740615 
L 159.420277 100.658909 
L 159.694129 128.734275 
L 159.967981 64.445661 
L 160.241834 87.697556 
L 160.515686 57.55826 
L 160.789539 44.179455 
L 161.063391 103.119969 
L 161.337243 48.169163 
L 161.611096 93.815603 
L 161.884948 48.45848 
L 162.158801 130.284245 
L 162.432653 62.490119 
L 162.706506 125.513248 
L 162.980358 123.327887 
L 163.25421 87.347894 
L 163.528063 96.220036 
L 163.801915 65.780209 
L 164.075768 72.126304 
L 164.34962 88.17308 
L 164.623472 56.53706 
L 164.897325 55.192353 
L 165.171177 101.052804 
L 165.44503 50.693497 
L 165.718882 53.687042 
L 165.992735 52.762191 
L 166.266587 49.022045 
L 166.540439 103.529323 
L 166.814292 72.340345 
L 167.088144 71.068916 
L 167.361997 62.453607 
L 167.635849 99.539839 
L 168.183554 61.451103 
L 168.457406 72.880379 
L 168.731259 78.205684 
L 169.005111 56.603773 
L 169.278963 122.29513 
L 169.552816 46.327841 
L 169.826668 73.621708 
L 170.100521 63.293041 
L 170.374373 101.995466 
L 170.648226 100.456387 
L 170.922078 64.115309 
L 171.19593 57.162726 
L 171.469783 57.088973 
L 171.743635 117.847619 
L 172.017488 79.963839 
L 172.29134 76.752358 
L 172.565192 115.675052 
L 172.839045 85.918159 
L 173.112897 107.89869 
L 173.38675 96.991389 
L 173.660602 69.917197 
L 173.934455 81.659246 
L 174.208307 59.639879 
L 174.482159 86.423322 
L 174.756012 130.021292 
L 175.029864 95.505862 
L 175.303717 117.032403 
L 175.851421 79.508662 
L 176.125274 48.179647 
L 176.399126 62.44495 
L 176.672979 49.134431 
L 176.946831 69.167943 
L 177.220684 112.29651 
L 177.494536 113.557692 
L 177.768388 110.559112 
L 178.042241 124.745857 
L 178.316093 57.908944 
L 178.589946 99.614749 
L 178.863798 43.653146 
L 179.13765 49.851515 
L 179.411503 105.301612 
L 179.685355 128.718491 
L 179.959208 87.045651 
L 180.23306 106.920757 
L 180.506912 86.611192 
L 180.780765 128.811224 
L 181.32847 56.746793 
L 181.602322 44.323595 
L 181.876175 47.515299 
L 182.150027 46.617349 
L 182.423879 47.954944 
L 182.697732 126.87059 
L 182.971584 123.423374 
L 183.519289 82.877707 
L 183.793141 126.6828 
L 184.066994 45.751657 
L 184.340846 72.490913 
L 184.614699 84.357971 
L 184.888551 48.770976 
L 185.162404 123.1479 
L 185.436256 61.865195 
L 185.710108 55.612531 
L 185.983961 62.646798 
L 186.257813 95.959738 
L 186.531666 62.226003 
L 186.805518 49.979233 
L 187.07937 115.735459 
L 187.353223 126.720162 
L 187.627075 47.304628 
L 187.900928 105.582689 
L 188.448633 77.387579 
L 188.722485 69.923253 
L 188.996337 103.686462 
L 189.27019 52.43906 
L 189.544042 52.853275 
L 189.817895 62.393788 
L 190.091747 48.29552 
L 190.365599 127.719979 
L 190.639452 111.205617 
L 190.913304 123.542412 
L 191.187157 91.612043 
L 191.461009 92.732054 
L 191.734862 44.274224 
L 192.008714 95.188035 
L 192.282566 56.436763 
L 192.556419 63.297936 
L 192.830271 127.459892 
L 193.104124 56.631359 
L 193.377976 89.63649 
L 193.651828 67.757284 
L 193.925681 68.724854 
L 194.199533 108.268221 
L 194.473386 121.766154 
L 194.747238 122.901612 
L 195.02109 111.487637 
L 195.294943 109.815577 
L 195.568795 99.153842 
L 195.842648 50.971745 
L 196.1165 129.970906 
L 196.390353 49.430474 
L 196.664205 60.57959 
L 196.938057 55.850523 
L 197.21191 108.915411 
L 197.485762 115.475796 
L 197.759615 124.821098 
L 198.033467 61.89054 
L 198.307319 126.494173 
L 198.581172 88.211972 
L 198.855024 118.355806 
L 199.128877 112.851274 
L 199.402729 116.740909 
L 199.676582 49.172107 
L 199.950434 55.579466 
L 200.224286 65.077788 
L 200.498139 110.133302 
L 200.771991 123.21208 
L 201.045844 61.213747 
L 201.319696 101.202066 
L 201.593548 99.93386 
L 201.867401 119.648225 
L 202.141253 55.239579 
L 202.962811 121.43385 
L 203.510515 46.245952 
L 203.784368 100.666982 
L 204.05822 129.097186 
L 204.332073 50.207784 
L 204.605925 44.056781 
L 204.879777 78.53186 
L 205.15363 50.582369 
L 205.427482 82.535175 
L 205.701335 81.894796 
L 205.975187 110.112231 
L 206.249039 115.316069 
L 206.522892 68.719673 
L 206.796744 50.466063 
L 207.070597 93.510471 
L 207.344449 82.09312 
L 207.618302 52.771205 
L 207.892154 60.222569 
L 208.439859 126.669307 
L 208.713711 54.567862 
L 208.987564 71.220132 
L 209.261416 127.744399 
L 209.535268 62.796784 
L 209.809121 50.193933 
L 210.082973 79.334764 
L 210.356826 91.592705 
L 210.630678 93.175077 
L 210.904531 102.452706 
L 211.178383 124.278806 
L 211.452235 120.294272 
L 211.726088 118.334592 
L 211.99994 107.519826 
L 212.273793 45.821234 
L 212.547645 80.83208 
L 212.821497 89.8661 
L 213.09535 121.080928 
L 213.369202 90.442387 
L 213.643055 105.489902 
L 213.916907 93.368994 
L 214.19076 58.275458 
L 214.464612 115.899956 
L 214.738464 119.250741 
L 215.012317 84.531229 
L 215.286169 104.039749 
L 215.560022 93.897226 
L 215.833874 74.292048 
L 216.107726 116.572167 
L 216.381579 79.442392 
L 216.655431 105.343064 
L 216.929284 45.661981 
L 217.203136 52.754599 
L 217.476988 77.754446 
L 217.750841 63.992271 
L 218.024693 84.444994 
L 218.298546 71.772893 
L 218.572398 122.031619 
L 218.846251 68.264557 
L 219.120103 66.08807 
L 219.393955 112.987 
L 219.667808 129.520545 
L 219.94166 71.318032 
L 220.215513 105.829651 
L 220.489365 106.007419 
L 220.763217 91.334181 
L 221.03707 50.250295 
L 221.310922 73.590612 
L 221.584775 61.003947 
L 221.858627 100.614087 
L 222.13248 111.70794 
L 222.406332 68.820029 
L 222.680184 79.647079 
L 222.954037 67.143983 
L 223.227889 94.999517 
L 223.501742 56.596649 
L 223.775594 126.554888 
L 224.323299 45.050873 
L 224.871004 88.916283 
L 225.144856 71.852431 
L 225.418709 93.237096 
L 225.692561 71.87847 
L 225.966413 121.654281 
L 226.240266 129.588758 
L 226.787971 103.830955 
L 227.061823 80.136567 
L 227.335675 107.613815 
L 227.609528 58.69635 
L 227.88338 121.689671 
L 228.157233 85.252312 
L 228.431085 85.664256 
L 228.704937 75.494414 
L 228.97879 103.519417 
L 229.252642 118.34367 
L 229.800347 105.624591 
L 230.0742 63.338112 
L 230.348052 128.796055 
L 230.621904 125.656909 
L 230.895757 83.079 
L 231.443462 104.901917 
L 231.717314 85.662109 
L 231.991166 55.226356 
L 232.265019 114.244139 
L 232.538871 123.96283 
L 232.812724 82.135117 
L 233.086576 97.921323 
L 233.360429 80.303801 
L 233.634281 85.560585 
L 233.908133 73.118175 
L 234.181986 124.539361 
L 234.455838 69.778264 
L 234.729691 44.126052 
L 235.003543 69.262359 
L 235.277395 114.471904 
L 235.551248 82.667915 
L 235.8251 93.930779 
L 236.098953 126.273442 
L 236.372805 62.888097 
L 236.646658 69.113659 
L 236.92051 87.237212 
L 237.194362 95.61951 
L 237.468215 82.298293 
L 237.742067 119.264427 
L 238.01592 44.690769 
L 238.289772 104.626093 
L 238.563624 112.830426 
L 238.837477 101.089379 
L 239.111329 127.099074 
L 239.385182 71.554142 
L 239.659034 128.228874 
L 239.932887 122.371284 
L 240.206739 120.148269 
L 240.480591 116.768869 
L 240.754444 90.249894 
L 241.028296 51.803754 
L 241.302149 65.713412 
L 241.576001 124.603422 
L 241.849853 92.975134 
L 242.123706 99.615067 
L 242.397558 99.345258 
L 242.671411 100.51656 
L 242.945263 95.394865 
L 243.219115 64.762878 
L 243.492968 119.710846 
L 243.76682 79.010461 
L 244.040673 105.370445 
L 244.314525 61.924516 
L 244.588378 67.354385 
L 244.86223 84.859517 
L 245.136082 120.483823 
L 245.409935 84.028055 
L 245.683787 79.118116 
L 245.95764 77.871708 
L 246.505344 104.229861 
L 246.779197 44.631531 
L 247.053049 127.040708 
L 247.326902 120.750268 
L 247.600754 102.149754 
L 247.874607 93.161981 
L 248.148459 77.011082 
L 248.422311 75.330132 
L 248.696164 124.609618 
L 248.970016 76.909821 
L 249.243869 76.40537 
L 249.517721 54.678814 
L 249.791573 62.031395 
L 250.065426 53.869238 
L 250.339278 68.371498 
L 250.613131 66.940115 
L 250.886983 74.241292 
L 251.434688 69.137818 
L 251.70854 112.843658 
L 251.982393 113.940493 
L 252.256245 73.316036 
L 252.530098 106.038117 
L 252.80395 102.769902 
L 253.077802 47.365783 
L 253.625507 106.873097 
L 253.89936 58.289557 
L 254.173212 57.521072 
L 254.447064 124.641722 
L 254.720917 121.854921 
L 254.994769 75.176117 
L 255.268622 118.585721 
L 255.542474 44.013365 
L 255.816327 123.561338 
L 256.090179 57.952883 
L 256.364031 67.600951 
L 256.637884 108.44185 
L 256.911736 56.622632 
L 257.185589 83.980591 
L 257.459441 45.984176 
L 257.733293 72.36922 
L 258.007146 109.559955 
L 258.280998 49.303455 
L 258.554851 53.654557 
L 258.828703 119.219077 
L 259.102556 90.384096 
L 259.376408 112.208676 
L 259.65026 49.3784 
L 259.924113 47.767154 
L 260.197965 97.32953 
L 260.471818 52.898812 
L 260.74567 92.975413 
L 261.019522 63.886572 
L 261.293375 128.945361 
L 261.567227 87.132026 
L 261.84108 110.659483 
L 262.114932 62.86302 
L 262.388785 43.905005 
L 262.662637 63.638913 
L 262.936489 64.987485 
L 263.210342 51.658888 
L 263.484194 114.819587 
L 263.758047 109.026527 
L 264.031899 69.231299 
L 264.305751 125.852695 
L 264.579604 52.320746 
L 264.853456 71.204207 
L 265.127309 72.063512 
L 265.401161 59.647367 
L 265.675013 86.5624 
L 265.948866 51.919943 
L 266.222718 74.780179 
L 266.496571 47.528982 
L 266.770423 72.984055 
L 267.044276 47.082268 
L 267.318128 129.482343 
L 267.59198 53.877272 
L 267.865833 116.142662 
L 268.139685 65.301965 
L 268.413538 47.565712 
L 268.68739 47.901157 
L 268.961242 47.509817 
L 269.235095 85.49821 
L 269.7828 84.642081 
L 270.056652 60.268712 
L 270.604357 67.753059 
L 270.878209 51.289027 
L 271.152062 116.907753 
L 271.425914 121.104106 
L 271.699767 121.459379 
L 271.973619 64.335461 
L 272.247471 50.049809 
L 272.521324 45.309262 
L 272.795176 61.171692 
L 273.069029 47.308033 
L 273.342881 119.208138 
L 273.616734 99.589435 
L 274.164438 49.184614 
L 274.438291 97.229737 
L 274.712143 66.945126 
L 274.985996 84.426369 
L 275.259848 87.175367 
L 275.5337 57.250029 
L 276.081405 54.001148 
L 276.355258 79.940241 
L 276.62911 124.681013 
L 276.902963 66.837749 
L 277.176815 73.650813 
L 277.450667 60.713512 
L 277.72452 102.759057 
L 277.998372 43.755183 
L 278.272225 114.328964 
L 278.546077 84.404741 
L 278.819929 107.78418 
L 279.093782 106.889672 
L 279.367634 81.714336 
L 279.641487 84.614823 
L 279.915339 123.480877 
L 280.463044 62.894068 
L 280.736896 105.929241 
L 281.010749 99.102899 
L 281.284601 64.22611 
L 281.558454 68.382657 
L 281.832306 66.665162 
L 282.380011 105.137059 
L 282.653863 88.220107 
L 282.927716 117.127069 
L 283.47542 85.73891 
L 283.749273 104.285559 
L 284.023125 61.439346 
L 284.296978 74.711557 
L 284.57083 126.902919 
L 284.844683 95.601983 
L 285.118535 77.97698 
L 285.392387 85.309926 
L 285.66624 54.999578 
L 285.940092 107.091617 
L 286.213945 70.479228 
L 286.487797 71.838902 
L 286.761649 75.014653 
L 287.035502 64.230957 
L 287.309354 66.604485 
L 287.583207 99.085448 
L 287.857059 53.773423 
L 288.130912 126.319426 
L 288.404764 120.407287 
L 288.678616 53.178523 
L 288.952469 66.197772 
L 289.226321 92.756657 
L 289.500174 78.201779 
L 289.774026 124.987368 
L 290.047878 76.740834 
L 290.321731 109.324398 
L 290.595583 44.669763 
L 290.869436 91.218718 
L 291.143288 92.560951 
L 291.41714 100.470085 
L 291.690993 61.672021 
L 291.964845 65.490608 
L 292.238698 81.97136 
L 292.51255 69.673046 
L 292.786403 67.616365 
L 293.334107 127.628291 
L 293.60796 99.401382 
L 293.881812 95.200529 
L 294.155665 117.539638 
L 294.429517 96.859509 
L 294.703369 62.192368 
L 294.977222 82.68637 
L 295.251074 55.523689 
L 295.524927 68.423549 
L 295.798779 118.31208 
L 296.072632 101.831279 
L 296.346484 92.935252 
L 296.620336 100.645953 
L 296.894189 92.482202 
L 297.168041 129.504994 
L 297.441894 121.475662 
L 297.715746 91.578672 
L 297.989598 119.276945 
L 298.263451 72.475719 
L 298.537303 109.095884 
L 298.811156 64.420027 
L 299.085008 81.693651 
L 299.358861 86.9405 
L 299.632713 98.457239 
L 299.906565 68.365113 
L 300.180418 115.868666 
L 300.45427 103.874915 
L 300.728123 80.431843 
L 301.001975 67.642233 
L 301.275827 76.401704 
L 301.54968 115.922963 
L 301.823532 85.855136 
L 302.097385 73.280168 
L 302.645089 125.939986 
L 302.918942 80.790265 
L 303.192794 71.784191 
L 303.466647 54.090113 
L 303.740499 60.975096 
L 304.014352 96.02545 
L 304.288204 115.159624 
L 304.562056 112.982516 
L 304.835909 123.85515 
L 305.109761 74.652807 
L 305.383614 54.960364 
L 305.657466 107.963659 
L 305.931318 130.09304 
L 306.479023 116.085683 
L 306.752876 48.162697 
L 307.026728 122.347742 
L 307.300581 129.351498 
L 307.574433 71.078152 
L 307.848285 73.712615 
L 308.122138 63.262602 
L 308.39599 62.385439 
L 308.669843 110.198854 
L 308.943695 50.726375 
L 309.217547 54.283295 
L 309.4914 109.707452 
L 309.765252 104.554652 
L 310.039105 89.093306 
L 310.312957 100.486038 
L 310.58681 129.983413 
L 310.860662 123.434747 
L 311.134514 59.972894 
L 311.408367 47.418931 
L 311.682219 127.079066 
L 311.956072 122.892835 
L 312.229924 126.178046 
L 312.503776 106.850253 
L 312.777629 100.497901 
L 313.051481 52.809679 
L 313.325334 92.005076 
L 313.599186 75.252643 
L 313.873038 123.112997 
L 314.146891 54.614489 
L 314.420743 61.297432 
L 315.242301 120.532094 
L 315.516153 53.686358 
L 315.790005 126.383891 
L 316.063858 114.806838 
L 316.33771 67.737229 
L 316.885415 93.02232 
L 317.159267 111.971769 
L 317.43312 90.515371 
L 317.706972 109.522671 
L 317.980825 101.673308 
L 318.254677 121.344332 
L 318.52853 102.386532 
L 318.802382 50.405082 
L 319.076234 125.701053 
L 319.350087 69.071781 
L 319.623939 83.774203 
L 319.897792 80.169489 
L 320.171644 45.409306 
L 320.445496 93.412091 
L 320.719349 87.752189 
L 320.993201 102.571487 
L 321.540906 83.922832 
L 321.814759 47.157861 
L 322.088611 113.542845 
L 322.362463 58.851665 
L 322.636316 93.794076 
L 322.910168 89.771992 
L 323.184021 129.604812 
L 323.457873 108.032811 
L 323.731725 103.327352 
L 324.005578 111.634839 
L 324.553283 49.306663 
L 324.827135 56.294587 
L 325.100987 93.71095 
L 325.37484 50.319823 
L 325.648692 101.900479 
L 325.922545 68.801816 
L 326.196397 77.320706 
L 326.47025 51.720272 
L 326.744102 106.769114 
L 327.017954 48.01626 
L 327.291807 119.758545 
L 327.565659 106.660637 
L 327.839512 79.396444 
L 328.113364 125.240652 
L 328.387216 86.972888 
L 328.661069 83.984523 
L 328.934921 104.939222 
L 329.208774 111.059757 
L 329.482626 90.211271 
L 329.756479 85.968101 
L 330.030331 125.870454 
L 330.304183 55.552302 
L 330.578036 67.422628 
L 330.851888 105.416746 
L 331.125741 45.71534 
L 331.673445 101.722815 
L 331.947298 53.051414 
L 332.22115 99.312522 
L 332.495003 54.883517 
L 333.042708 118.131412 
L 333.31656 102.74476 
L 333.590412 95.272735 
L 333.864265 113.396275 
L 334.138117 106.174746 
L 334.41197 71.511652 
L 334.685822 105.145364 
L 334.959674 78.764578 
L 335.233527 65.944497 
L 335.233527 65.944497 
" clip-path="url(#p29118ec65e)" style="fill: none; stroke: #1f77b4; stroke-width: 1.5; stroke-linecap: square"/>
   </g>
   <g id="line2d_14">
    <path d="M 61.654964 86.998295 
L 335.507379 86.998295 
" clip-path="url(#p29118ec65e)" style="fill: none; stroke-dasharray: 7.4,3.2; stroke-dashoffset: 0; stroke: #ff0000; stroke-width: 2"/>
   </g>
   <g id="line2d_15">
    <path d="M 193.104124 86.998295 
L 204.05822 86.998295 
" clip-path="url(#p29118ec65e)" style="fill: none; stroke: #000000; stroke-width: 2; stroke-linecap: square"/>
   </g>
   <g id="line2d_16">
    <path d="M 193.104124 43.558615 
L 204.05822 43.558615 
" clip-path="url(#p29118ec65e)" style="fill: none; stroke: #000000; stroke-width: 2; stroke-linecap: square"/>
   </g>
   <g id="line2d_17">
    <path d="M 198.581172 86.998295 
L 198.581172 43.558615 
" clip-path="url(#p29118ec65e)" style="fill: none; stroke: #000000; stroke-width: 2; stroke-linecap: square"/>
   </g>
   <g id="line2d_18">
    <path d="M 193.104124 159.397763 
L 204.05822 159.397763 
" clip-path="url(#p29118ec65e)" style="fill: none; stroke: #000000; stroke-width: 2; stroke-linecap: square"/>
   </g>
   <g id="line2d_19">
    <path d="M 198.581172 159.397763 
L 198.581172 86.998295 
" clip-path="url(#p29118ec65e)" style="fill: none; stroke: #000000; stroke-width: 2; stroke-linecap: square"/>
   </g>
   <g id="patch_3">
    <path d="M 47.962344 173.877656 
L 47.962344 14.598828 
" style="fill: none; stroke: #000000; stroke-width: 0.8; stroke-linejoin: miter; stroke-linecap: square"/>
   </g>
   <g id="patch_4">
    <path d="M 349.2 173.877656 
L 349.2 14.598828 
" style="fill: none; stroke: #000000; stroke-width: 0.8; stroke-linejoin: miter; stroke-linecap: square"/>
   </g>
   <g id="patch_5">
    <path d="M 47.962344 173.877656 
L 349.2 173.877656 
" style="fill: none; stroke: #000000; stroke-width: 0.8; stroke-linejoin: miter; stroke-linecap: square"/>
   </g>
   <g id="patch_6">
    <path d="M 47.962344 14.598828 
L 349.2 14.598828 
" style="fill: none; stroke: #000000; stroke-width: 0.8; stroke-linejoin: miter; stroke-linecap: square"/>
   </g>
   <g id="text_15">
    <g id="patch_7">
     <path d="M 205.535268 71.680799 
L 235.127456 71.680799 
L 235.127456 53.680018 
L 205.535268 53.680018 
z
" style="fill: #ffffff; opacity: 0.8; stroke: #000000; stroke-linejoin: miter"/>
    </g>
    <!-- gain -->
    <g transform="translate(209.535268 65.278455) scale(0.1 -0.1)">
     <use xlink:href="#DejaVuSans-4a"/>
     <use xlink:href="#DejaVuSans-44" transform="translate(63.484375 0)"/>
     <use xlink:href="#DejaVuSans-4c" transform="translate(124.765625 0)"/>
     <use xlink:href="#DejaVuSans-51" transform="translate(152.546875 0)"/>
    </g>
   </g>
   <g id="text_16">
    <g id="patch_8">
     <path d="M 205.535268 129.600373 
L 241.825893 129.600373 
L 241.825893 111.599592 
L 205.535268 111.599592 
z
" style="fill: #ffffff; opacity: 0.8; stroke: #000000; stroke-linejoin: miter"/>
    </g>
    <!-- offset -->
    <g transform="translate(209.535268 123.198029) scale(0.1 -0.1)">
     <defs>
      <path id="DejaVuSans-52" d="M 1959 3097 
Q 1497 3097 1228 2736 
Q 959 2375 959 1747 
Q 959 1119 1226 758 
Q 1494 397 1959 397 
Q 2419 397 2687 759 
Q 2956 1122 2956 1747 
Q 2956 2369 2687 2733 
Q 2419 3097 1959 3097 
z
M 1959 3584 
Q 2709 3584 3137 3096 
Q 3566 2609 3566 1747 
Q 3566 888 3137 398 
Q 2709 -91 1959 -91 
Q 1206 -91 779 398 
Q 353 888 353 1747 
Q 353 2609 779 3096 
Q 1206 3584 1959 3584 
z
" transform="scale(0.015625)"/>
      <path id="DejaVuSans-13ae" d="M 4531 4863 
L 4531 4384 
L 3981 4384 
Q 3672 4384 3551 4259 
Q 3431 4134 3431 3809 
L 3431 3500 
L 4378 3500 
L 4378 3053 
L 3431 3053 
L 3431 0 
L 2853 0 
L 2853 3053 
L 1275 3053 
L 1275 0 
L 697 0 
L 697 3053 
L 147 3053 
L 147 3500 
L 697 3500 
L 697 3744 
Q 697 4328 969 4595 
Q 1241 4863 1831 4863 
L 2375 4863 
L 2375 4384 
L 1825 4384 
Q 1516 4384 1394 4259 
Q 1275 4134 1275 3809 
L 1275 3500 
L 2853 3500 
L 2853 3744 
Q 2853 4328 3125 4595 
Q 3397 4863 3988 4863 
L 4531 4863 
z
" transform="scale(0.015625)"/>
     </defs>
     <use xlink:href="#DejaVuSans-52"/>
     <use xlink:href="#DejaVuSans-13ae" transform="translate(61.1875 0)"/>
     <use xlink:href="#DejaVuSans-56" transform="translate(130.078125 0)"/>
     <use xlink:href="#DejaVuSans-48" transform="translate(182.171875 0)"/>
     <use xlink:href="#DejaVuSans-57" transform="translate(243.703125 0)"/>
    </g>
   </g>
  </g>
 </g>
 <defs>
  <clipPath id="p29118ec65e">
   <rect x="47.962344" y="14.598828" width="301.237656" height="159.278828"/>
  </clipPath>
 </defs>
</svg>
