<?xml version="1.0" encoding="utf-8" standalone="no"?>
<!DOCTYPE svg PUBLIC "-//W3C//DTD SVG 1.1//EN"
  "http://www.w3.org/Graphics/SVG/1.1/DTD/svg11.dtd">
<svg xmlns:xlink="http://www.w3.org/1999/xlink" width="360pt" height="216pt" viewBox="0 0 360 216" xmlns="http://www.w3.org/2000/svg" version="1.1">
 <metadata>
  <rdf:RDF xmlns:dc="http://purl.org/dc/elements/1.1/" xmlns:cc="http://creativecommons.org/ns#" xmlns:rdf="http://www.w3.org/1999/02/22-rdf-syntax-ns#">
   <cc:Work>
    <dc:type rdf:resource="http://purl.org/dc/dcmitype/StillImage"/>
    <dc:date>2026-05-29T21:46:40.400620</dc:date>
    <dc:format>image/svg+xml</dc:format>
    <dc:creator>
     <cc:Agent>
      <dc:title>Matplotlib v3.10.9, https://matplotlib.org/</dc:title>
     </cc:Agent>
    </dc:creator>
   </cc:Work>
  </rdf:RDF>
 </metadata>
 <defs>
  <style type="text/css">*{stroke-linejoin: round; stroke-linecap: butt}</style>
 </defs>
 <g id="figure_1">
  <g id="patch_1">
   <path d="M 0 216 
L 360 216 
L 360 0 
L 0 0 
z
" style="fill: #ffffff"/>
  </g>
  <g id="axes_1">
   <g id="patch_2">
    <path d="M 47.72 174.04 
L 349.2 174.04 
L 349.2 14.76 
L 47.72 14.76 
z
" style="fill: #ffffff"/>
   </g>
   <g id="matplotlib.axis_1">
    <g id="xtick_1">
     <g id="line2d_1">
      <defs>
       <path id="m1f197c2df4" d="M 0 0 
L 0 3.5 
" style="stroke: #000000; stroke-width: 0.8"/>
      </defs>
      <g>
       <use xlink:href="#m1f197c2df4" x="61.423636" y="174.04" style="stroke: #000000; stroke-width: 0.8"/>
      </g>
     </g>
     <g id="text_1">
      <!-- 0.0 -->
      <g transform="translate(53.472074 188.638438) scale(0.1 -0.1)">
       <defs>
        <path id="DejaVuSans-30" d="M 2034 4250 
Q 1547 4250 1301 3770 
Q 1056 3291 1056 2328 
Q 1056 1369 1301 889 
Q 1547 409 2034 409 
Q 2525 409 2770 889 
Q 3016 1369 3016 2328 
Q 3016 3291 2770 3770 
Q 2525 4250 2034 4250 
z
M 2034 4750 
Q 2819 4750 3233 4129 
Q 3647 3509 3647 2328 
Q 3647 1150 3233 529 
Q 2819 -91 2034 -91 
Q 1250 -91 836 529 
Q 422 1150 422 2328 
Q 422 3509 836 4129 
Q 1250 4750 2034 4750 
z
" transform="scale(0.015625)"/>
        <path id="DejaVuSans-2e" d="M 684 794 
L 1344 794 
L 1344 0 
L 684 0 
L 684 794 
z
" transform="scale(0.015625)"/>
       </defs>
       <use xlink:href="#DejaVuSans-30"/>
       <use xlink:href="#DejaVuSans-2e" transform="translate(63.623047 0)"/>
       <use xlink:href="#DejaVuSans-30" transform="translate(95.410156 0)"/>
      </g>
     </g>
    </g>
    <g id="xtick_2">
     <g id="line2d_2">
      <g>
       <use xlink:href="#m1f197c2df4" x="116.238182" y="174.04" style="stroke: #000000; stroke-width: 0.8"/>
      </g>
     </g>
     <g id="text_2">
      <!-- 0.2 -->
      <g transform="translate(108.286619 188.638438) scale(0.1 -0.1)">
       <defs>
        <path id="DejaVuSans-32" d="M 1228 531 
L 3431 531 
L 3431 0 
L 469 0 
L 469 531 
Q 828 903 1448 1529 
Q 2069 2156 2228 2338 
Q 2531 2678 2651 2914 
Q 2772 3150 2772 3378 
Q 2772 3750 2511 3984 
Q 2250 4219 1831 4219 
Q 1534 4219 1204 4116 
Q 875 4013 500 3803 
L 500 4441 
Q 881 4594 1212 4672 
Q 1544 4750 1819 4750 
Q 2544 4750 2975 4387 
Q 3406 4025 3406 3419 
Q 3406 3131 3298 2873 
Q 3191 2616 2906 2266 
Q 2828 2175 2409 1742 
Q 1991 1309 1228 531 
z
" transform="scale(0.015625)"/>
       </defs>
       <use xlink:href="#DejaVuSans-30"/>
       <use xlink:href="#DejaVuSans-2e" transform="translate(63.623047 0)"/>
       <use xlink:href="#DejaVuSans-32" transform="translate(95.410156 0)"/>
      </g>
     </g>
    </g>
    <g id="xtick_3">
     <g id="line2d_3">
      <g>
       <use xlink:href="#m1f197c2df4" x="171.052727" y="174.04" style="stroke: #000000; stroke-width: 0.8"/>
      </g>
     </g>
     <g id="text_3">
      <!-- 0.4 -->
      <g transform="translate(163.101165 188.638438) scale(0.1 -0.1)">
       <defs>
        <path id="DejaVuSans-34" d="M 2419 4116 
L 825 1625 
L 2419 1625 
L 2419 4116 
z
M 2253 4666 
L 3047 4666 
L 3047 1625 
L 3713 1625 
L 3713 1100 
L 3047 1100 
L 3047 0 
L 2419 0 
L 2419 1100 
L 313 1100 
L 313 1709 
L 2253 4666 
z
" transform="scale(0.015625)"/>
       </defs>
       <use xlink:href="#DejaVuSans-30"/>
       <use xlink:href="#DejaVuSans-2e" transform="translate(63.623047 0)"/>
       <use xlink:href="#DejaVuSans-34" transform="translate(95.410156 0)"/>
      </g>
     </g>
    </g>
    <g id="xtick_4">
     <g id="line2d_4">
      <g>
       <use xlink:href="#m1f197c2df4" x="225.867273" y="174.04" style="stroke: #000000; stroke-width: 0.8"/>
      </g>
     </g>
     <g id="text_4">
      <!-- 0.6 -->
      <g transform="translate(217.91571 188.638438) scale(0.1 -0.1)">
       <defs>
        <path id="DejaVuSans-36" d="M 2113 2584 
Q 1688 2584 1439 2293 
Q 1191 2003 1191 1497 
Q 1191 994 1439 701 
Q 1688 409 2113 409 
Q 2538 409 2786 701 
Q 3034 994 3034 1497 
Q 3034 2003 2786 2293 
Q 2538 2584 2113 2584 
z
M 3366 4563 
L 3366 3988 
Q 3128 4100 2886 4159 
Q 2644 4219 2406 4219 
Q 1781 4219 1451 3797 
Q 1122 3375 1075 2522 
Q 1259 2794 1537 2939 
Q 1816 3084 2150 3084 
Q 2853 3084 3261 2657 
Q 3669 2231 3669 1497 
Q 3669 778 3244 343 
Q 2819 -91 2113 -91 
Q 1303 -91 875 529 
Q 447 1150 447 2328 
Q 447 3434 972 4092 
Q 1497 4750 2381 4750 
Q 2619 4750 2861 4703 
Q 3103 4656 3366 4563 
z
" transform="scale(0.015625)"/>
       </defs>
       <use xlink:href="#DejaVuSans-30"/>
       <use xlink:href="#DejaVuSans-2e" transform="translate(63.623047 0)"/>
       <use xlink:href="#DejaVuSans-36" transform="translate(95.410156 0)"/>
      </g>
     </g>
    </g>
    <g id="xtick_5">
     <g id="line2d_5">
      <g>
       <use xlink:href="#m1f197c2df4" x="280.681818" y="174.04" style="stroke: #000000; stroke-width: 0.8"/>
      </g>
     </g>
     <g id="text_5">
      <!-- 0.8 -->
      <g transform="translate(272.730256 188.638438) scale(0.1 -0.1)">
       <defs>
        <path id="DejaVuSans-38" d="M 2034 2216 
Q 1584 2216 1326 1975 
Q 1069 1734 1069 1313 
Q 1069 891 1326 650 
Q 1584 409 2034 409 
Q 2484 409 2743 651 
Q 3003 894 3003 1313 
Q 3003 1734 2745 1975 
Q 2488 2216 2034 2216 
z
M 1403 2484 
Q 997 2584 770 2862 
Q 544 3141 544 3541 
Q 544 4100 942 4425 
Q 1341 4750 2034 4750 
Q 2731 4750 3128 4425 
Q 3525 4100 3525 3541 
Q 3525 3141 3298 2862 
Q 3072 2584 2669 2484 
Q 3125 2378 3379 2068 
Q 3634 1759 3634 1313 
Q 3634 634 3220 271 
Q 2806 -91 2034 -91 
Q 1263 -91 848 271 
Q 434 634 434 1313 
Q 434 1759 690 2068 
Q 947 2378 1403 2484 
z
M 1172 3481 
Q 1172 3119 1398 2916 
Q 1625 2713 2034 2713 
Q 2441 2713 2670 2916 
Q 2900 3119 2900 3481 
Q 2900 3844 2670 4047 
Q 2441 4250 2034 4250 
Q 1625 4250 1398 4047 
Q 1172 3844 1172 3481 
z
" transform="scale(0.015625)"/>
       </defs>
       <use xlink:href="#DejaVuSans-30"/>
       <use xlink:href="#DejaVuSans-2e" transform="translate(63.623047 0)"/>
       <use xlink:href="#DejaVuSans-38" transform="translate(95.410156 0)"/>
      </g>
     </g>
    </g>
    <g id="xtick_6">
     <g id="line2d_6">
      <g>
       <use xlink:href="#m1f197c2df4" x="335.496364" y="174.04" style="stroke: #000000; stroke-width: 0.8"/>
      </g>
     </g>
     <g id="text_6">
      <!-- 1.0 -->
      <g transform="translate(327.544801 188.638438) scale(0.1 -0.1)">
       <defs>
        <path id="DejaVuSans-31" d="M 794 531 
L 1825 531 
L 1825 4091 
L 703 3866 
L 703 4441 
L 1819 4666 
L 2450 4666 
L 2450 531 
L 3481 531 
L 3481 0 
L 794 0 
L 794 531 
z
" transform="scale(0.015625)"/>
       </defs>
       <use xlink:href="#DejaVuSans-31"/>
       <use xlink:href="#DejaVuSans-2e" transform="translate(63.623047 0)"/>
       <use xlink:href="#DejaVuSans-30" transform="translate(95.410156 0)"/>
      </g>
     </g>
    </g>
    <g id="text_7">
     <!-- Time (sec) -->
     <g transform="translate(172.305312 202.316563) scale(0.1 -0.1)">
      <defs>
       <path id="DejaVuSans-54" d="M -19 4666 
L 3928 4666 
L 3928 4134 
L 2272 4134 
L 2272 0 
L 1638 0 
L 1638 4134 
L -19 4134 
L -19 4666 
z
" transform="scale(0.015625)"/>
       <path id="DejaVuSans-69" d="M 603 3500 
L 1178 3500 
L 1178 0 
L 603 0 
L 603 3500 
z
M 603 4863 
L 1178 4863 
L 1178 4134 
L 603 4134 
L 603 4863 
z
" transform="scale(0.015625)"/>
       <path id="DejaVuSans-6d" d="M 3328 2828 
Q 3544 3216 3844 3400 
Q 4144 3584 4550 3584 
Q 5097 3584 5394 3201 
Q 5691 2819 5691 2113 
L 5691 0 
L 5113 0 
L 5113 2094 
Q 5113 2597 4934 2840 
Q 4756 3084 4391 3084 
Q 3944 3084 3684 2787 
Q 3425 2491 3425 1978 
L 3425 0 
L 2847 0 
L 2847 2094 
Q 2847 2600 2669 2842 
Q 2491 3084 2119 3084 
Q 1678 3084 1418 2786 
Q 1159 2488 1159 1978 
L 1159 0 
L 581 0 
L 581 3500 
L 1159 3500 
L 1159 2956 
Q 1356 3278 1631 3431 
Q 1906 3584 2284 3584 
Q 2666 3584 2933 3390 
Q 3200 3197 3328 2828 
z
" transform="scale(0.015625)"/>
       <path id="DejaVuSans-65" d="M 3597 1894 
L 3597 1613 
L 953 1613 
Q 991 1019 1311 708 
Q 1631 397 2203 397 
Q 2534 397 2845 478 
Q 3156 559 3463 722 
L 3463 178 
Q 3153 47 2828 -22 
Q 2503 -91 2169 -91 
Q 1331 -91 842 396 
Q 353 884 353 1716 
Q 353 2575 817 3079 
Q 1281 3584 2069 3584 
Q 2775 3584 3186 3129 
Q 3597 2675 3597 1894 
z
M 3022 2063 
Q 3016 2534 2758 2815 
Q 2500 3097 2075 3097 
Q 1594 3097 1305 2825 
Q 1016 2553 972 2059 
L 3022 2063 
z
" transform="scale(0.015625)"/>
       <path id="DejaVuSans-20" transform="scale(0.015625)"/>
       <path id="DejaVuSans-28" d="M 1984 4856 
Q 1566 4138 1362 3434 
Q 1159 2731 1159 2009 
Q 1159 1288 1364 580 
Q 1569 -128 1984 -844 
L 1484 -844 
Q 1016 -109 783 600 
Q 550 1309 550 2009 
Q 550 2706 781 3412 
Q 1013 4119 1484 4856 
L 1984 4856 
z
" transform="scale(0.015625)"/>
       <path id="DejaVuSans-73" d="M 2834 3397 
L 2834 2853 
Q 2591 2978 2328 3040 
Q 2066 3103 1784 3103 
Q 1356 3103 1142 2972 
Q 928 2841 928 2578 
Q 928 2378 1081 2264 
Q 1234 2150 1697 2047 
L 1894 2003 
Q 2506 1872 2764 1633 
Q 3022 1394 3022 966 
Q 3022 478 2636 193 
Q 2250 -91 1575 -91 
Q 1294 -91 989 -36 
Q 684 19 347 128 
L 347 722 
Q 666 556 975 473 
Q 1284 391 1588 391 
Q 1994 391 2212 530 
Q 2431 669 2431 922 
Q 2431 1156 2273 1281 
Q 2116 1406 1581 1522 
L 1381 1569 
Q 847 1681 609 1914 
Q 372 2147 372 2553 
Q 372 3047 722 3315 
Q 1072 3584 1716 3584 
Q 2034 3584 2315 3537 
Q 2597 3491 2834 3397 
z
" transform="scale(0.015625)"/>
       <path id="DejaVuSans-63" d="M 3122 3366 
L 3122 2828 
Q 2878 2963 2633 3030 
Q 2388 3097 2138 3097 
Q 1578 3097 1268 2742 
Q 959 2388 959 1747 
Q 959 1106 1268 751 
Q 1578 397 2138 397 
Q 2388 397 2633 464 
Q 2878 531 3122 666 
L 3122 134 
Q 2881 22 2623 -34 
Q 2366 -91 2075 -91 
Q 1284 -91 818 406 
Q 353 903 353 1747 
Q 353 2603 823 3093 
Q 1294 3584 2113 3584 
Q 2378 3584 2631 3529 
Q 2884 3475 3122 3366 
z
" transform="scale(0.015625)"/>
       <path id="DejaVuSans-29" d="M 513 4856 
L 1013 4856 
Q 1481 4119 1714 3412 
Q 1947 2706 1947 2009 
Q 1947 1309 1714 600 
Q 1481 -109 1013 -844 
L 513 -844 
Q 928 -128 1133 580 
Q 1338 1288 1338 2009 
Q 1338 2731 1133 3434 
Q 928 4138 513 4856 
z
" transform="scale(0.015625)"/>
      </defs>
      <use xlink:href="#DejaVuSans-54"/>
      <use xlink:href="#DejaVuSans-69" transform="translate(57.958984 0)"/>
      <use xlink:href="#DejaVuSans-6d" transform="translate(85.742188 0)"/>
      <use xlink:href="#DejaVuSans-65" transform="translate(183.154297 0)"/>
      <use xlink:href="#DejaVuSans-20" transform="translate(244.677734 0)"/>
      <use xlink:href="#DejaVuSans-28" transform="translate(276.464844 0)"/>
      <use xlink:href="#DejaVuSans-73" transform="translate(315.478516 0)"/>
      <use xlink:href="#DejaVuSans-65" transform="translate(367.578125 0)"/>
      <use xlink:href="#DejaVuSans-63" transform="translate(429.101562 0)"/>
      <use xlink:href="#DejaVuSans-29" transform="translate(484.082031 0)"/>
     </g>
    </g>
   </g>
   <g id="matplotlib.axis_2">
    <g id="ytick_1">
     <g id="line2d_7">
      <defs>
       <path id="m75803575c8" d="M 0 0 
L -3.5 0 
" style="stroke: #000000; stroke-width: 0.8"/>
      </defs>
      <g>
       <use xlink:href="#m75803575c8" x="47.72" y="159.56" style="stroke: #000000; stroke-width: 0.8"/>
      </g>
     </g>
     <g id="text_8">
      <!-- 0.0 -->
      <g transform="translate(24.816875 163.359219) scale(0.1 -0.1)">
       <use xlink:href="#DejaVuSans-30"/>
       <use xlink:href="#DejaVuSans-2e" transform="translate(63.623047 0)"/>
       <use xlink:href="#DejaVuSans-30" transform="translate(95.410156 0)"/>
      </g>
     </g>
    </g>
    <g id="ytick_2">
     <g id="line2d_8">
      <g>
       <use xlink:href="#m75803575c8" x="47.72" y="130.6" style="stroke: #000000; stroke-width: 0.8"/>
      </g>
     </g>
     <g id="text_9">
      <!-- 0.2 -->
      <g transform="translate(24.816875 134.399219) scale(0.1 -0.1)">
       <use xlink:href="#DejaVuSans-30"/>
       <use xlink:href="#DejaVuSans-2e" transform="translate(63.623047 0)"/>
       <use xlink:href="#DejaVuSans-32" transform="translate(95.410156 0)"/>
      </g>
     </g>
    </g>
    <g id="ytick_3">
     <g id="line2d_9">
      <g>
       <use xlink:href="#m75803575c8" x="47.72" y="101.64" style="stroke: #000000; stroke-width: 0.8"/>
      </g>
     </g>
     <g id="text_10">
      <!-- 0.4 -->
      <g transform="translate(24.816875 105.439219) scale(0.1 -0.1)">
       <use xlink:href="#DejaVuSans-30"/>
       <use xlink:href="#DejaVuSans-2e" transform="translate(63.623047 0)"/>
       <use xlink:href="#DejaVuSans-34" transform="translate(95.410156 0)"/>
      </g>
     </g>
    </g>
    <g id="ytick_4">
     <g id="line2d_10">
      <g>
       <use xlink:href="#m75803575c8" x="47.72" y="72.68" style="stroke: #000000; stroke-width: 0.8"/>
      </g>
     </g>
     <g id="text_11">
      <!-- 0.6 -->
      <g transform="translate(24.816875 76.479219) scale(0.1 -0.1)">
       <use xlink:href="#DejaVuSans-30"/>
       <use xlink:href="#DejaVuSans-2e" transform="translate(63.623047 0)"/>
       <use xlink:href="#DejaVuSans-36" transform="translate(95.410156 0)"/>
      </g>
     </g>
    </g>
    <g id="ytick_5">
     <g id="line2d_11">
      <g>
       <use xlink:href="#m75803575c8" x="47.72" y="43.72" style="stroke: #000000; stroke-width: 0.8"/>
      </g>
     </g>
     <g id="text_12">
      <!-- 0.8 -->
      <g transform="translate(24.816875 47.519219) scale(0.1 -0.1)">
       <use xlink:href="#DejaVuSans-30"/>
       <use xlink:href="#DejaVuSans-2e" transform="translate(63.623047 0)"/>
       <use xlink:href="#DejaVuSans-38" transform="translate(95.410156 0)"/>
      </g>
     </g>
    </g>
    <g id="ytick_6">
     <g id="line2d_12">
      <g>
       <use xlink:href="#m75803575c8" x="47.72" y="14.76" style="stroke: #000000; stroke-width: 0.8"/>
      </g>
     </g>
     <g id="text_13">
      <!-- 1.0 -->
      <g transform="translate(24.816875 18.559219) scale(0.1 -0.1)">
       <use xlink:href="#DejaVuSans-31"/>
       <use xlink:href="#DejaVuSans-2e" transform="translate(63.623047 0)"/>
       <use xlink:href="#DejaVuSans-30" transform="translate(95.410156 0)"/>
      </g>
     </g>
    </g>
    <g id="text_14">
     <!-- Injected Signal -->
     <g transform="translate(18.737188 131.417969) rotate(-90) scale(0.1 -0.1)">
      <defs>
       <path id="DejaVuSans-49" d="M 628 4666 
L 1259 4666 
L 1259 0 
L 628 0 
L 628 4666 
z
" transform="scale(0.015625)"/>
       <path id="DejaVuSans-6e" d="M 3513 2113 
L 3513 0 
L 2938 0 
L 2938 2094 
Q 2938 2591 2744 2837 
Q 2550 3084 2163 3084 
Q 1697 3084 1428 2787 
Q 1159 2491 1159 1978 
L 1159 0 
L 581 0 
L 581 3500 
L 1159 3500 
L 1159 2956 
Q 1366 3272 1645 3428 
Q 1925 3584 2291 3584 
Q 2894 3584 3203 3211 
Q 3513 2838 3513 2113 
z
" transform="scale(0.015625)"/>
       <path id="DejaVuSans-6a" d="M 603 3500 
L 1178 3500 
L 1178 -63 
Q 1178 -731 923 -1031 
Q 669 -1331 103 -1331 
L -116 -1331 
L -116 -844 
L 38 -844 
Q 366 -844 484 -692 
Q 603 -541 603 -63 
L 603 3500 
z
M 603 4863 
L 1178 4863 
L 1178 4134 
L 603 4134 
L 603 4863 
z
" transform="scale(0.015625)"/>
       <path id="DejaVuSans-74" d="M 1172 4494 
L 1172 3500 
L 2356 3500 
L 2356 3053 
L 1172 3053 
L 1172 1153 
Q 1172 725 1289 603 
Q 1406 481 1766 481 
L 2356 481 
L 2356 0 
L 1766 0 
Q 1100 0 847 248 
Q 594 497 594 1153 
L 594 3053 
L 172 3053 
L 172 3500 
L 594 3500 
L 594 4494 
L 1172 4494 
z
" transform="scale(0.015625)"/>
       <path id="DejaVuSans-64" d="M 2906 2969 
L 2906 4863 
L 3481 4863 
L 3481 0 
L 2906 0 
L 2906 525 
Q 2725 213 2448 61 
Q 2172 -91 1784 -91 
Q 1150 -91 751 415 
Q 353 922 353 1747 
Q 353 2572 751 3078 
Q 1150 3584 1784 3584 
Q 2172 3584 2448 3432 
Q 2725 3281 2906 2969 
z
M 947 1747 
Q 947 1113 1208 752 
Q 1469 391 1925 391 
Q 2381 391 2643 752 
Q 2906 1113 2906 1747 
Q 2906 2381 2643 2742 
Q 2381 3103 1925 3103 
Q 1469 3103 1208 2742 
Q 947 2381 947 1747 
z
" transform="scale(0.015625)"/>
       <path id="DejaVuSans-53" d="M 3425 4513 
L 3425 3897 
Q 3066 4069 2747 4153 
Q 2428 4238 2131 4238 
Q 1616 4238 1336 4038 
Q 1056 3838 1056 3469 
Q 1056 3159 1242 3001 
Q 1428 2844 1947 2747 
L 2328 2669 
Q 3034 2534 3370 2195 
Q 3706 1856 3706 1288 
Q 3706 609 3251 259 
Q 2797 -91 1919 -91 
Q 1588 -91 1214 -16 
Q 841 59 441 206 
L 441 856 
Q 825 641 1194 531 
Q 1563 422 1919 422 
Q 2459 422 2753 634 
Q 3047 847 3047 1241 
Q 3047 1584 2836 1778 
Q 2625 1972 2144 2069 
L 1759 2144 
Q 1053 2284 737 2584 
Q 422 2884 422 3419 
Q 422 4038 858 4394 
Q 1294 4750 2059 4750 
Q 2388 4750 2728 4690 
Q 3069 4631 3425 4513 
z
" transform="scale(0.015625)"/>
       <path id="DejaVuSans-67" d="M 2906 1791 
Q 2906 2416 2648 2759 
Q 2391 3103 1925 3103 
Q 1463 3103 1205 2759 
Q 947 2416 947 1791 
Q 947 1169 1205 825 
Q 1463 481 1925 481 
Q 2391 481 2648 825 
Q 2906 1169 2906 1791 
z
M 3481 434 
Q 3481 -459 3084 -895 
Q 2688 -1331 1869 -1331 
Q 1566 -1331 1297 -1286 
Q 1028 -1241 775 -1147 
L 775 -588 
Q 1028 -725 1275 -790 
Q 1522 -856 1778 -856 
Q 2344 -856 2625 -561 
Q 2906 -266 2906 331 
L 2906 616 
Q 2728 306 2450 153 
Q 2172 0 1784 0 
Q 1141 0 747 490 
Q 353 981 353 1791 
Q 353 2603 747 3093 
Q 1141 3584 1784 3584 
Q 2172 3584 2450 3431 
Q 2728 3278 2906 2969 
L 2906 3500 
L 3481 3500 
L 3481 434 
z
" transform="scale(0.015625)"/>
       <path id="DejaVuSans-61" d="M 2194 1759 
Q 1497 1759 1228 1600 
Q 959 1441 959 1056 
Q 959 750 1161 570 
Q 1363 391 1709 391 
Q 2188 391 2477 730 
Q 2766 1069 2766 1631 
L 2766 1759 
L 2194 1759 
z
M 3341 1997 
L 3341 0 
L 2766 0 
L 2766 531 
Q 2569 213 2275 61 
Q 1981 -91 1556 -91 
Q 1019 -91 701 211 
Q 384 513 384 1019 
Q 384 1609 779 1909 
Q 1175 2209 1959 2209 
L 2766 2209 
L 2766 2266 
Q 2766 2663 2505 2880 
Q 2244 3097 1772 3097 
Q 1472 3097 1187 3025 
Q 903 2953 641 2809 
L 641 3341 
Q 956 3463 1253 3523 
Q 1550 3584 1831 3584 
Q 2591 3584 2966 3190 
Q 3341 2797 3341 1997 
z
" transform="scale(0.015625)"/>
       <path id="DejaVuSans-6c" d="M 603 4863 
L 1178 4863 
L 1178 0 
L 603 0 
L 603 4863 
z
" transform="scale(0.015625)"/>
      </defs>
      <use xlink:href="#DejaVuSans-49"/>
      <use xlink:href="#DejaVuSans-6e" transform="translate(29.492188 0)"/>
      <use xlink:href="#DejaVuSans-6a" transform="translate(92.871094 0)"/>
      <use xlink:href="#DejaVuSans-65" transform="translate(120.654297 0)"/>
      <use xlink:href="#DejaVuSans-63" transform="translate(182.177734 0)"/>
      <use xlink:href="#DejaVuSans-74" transform="translate(237.158203 0)"/>
      <use xlink:href="#DejaVuSans-65" transform="translate(276.367188 0)"/>
      <use xlink:href="#DejaVuSans-64" transform="translate(337.890625 0)"/>
      <use xlink:href="#DejaVuSans-20" transform="translate(401.367188 0)"/>
      <use xlink:href="#DejaVuSans-53" transform="translate(433.154297 0)"/>
      <use xlink:href="#DejaVuSans-69" transform="translate(496.630859 0)"/>
      <use xlink:href="#DejaVuSans-67" transform="translate(524.414062 0)"/>
      <use xlink:href="#DejaVuSans-6e" transform="translate(587.890625 0)"/>
      <use xlink:href="#DejaVuSans-61" transform="translate(651.269531 0)"/>
      <use xlink:href="#DejaVuSans-6c" transform="translate(712.548828 0)"/>
     </g>
    </g>
   </g>
   <g id="line2d_13">
    <path d="M 61.423636 56.626295 
L 61.697709 50.534477 
L 61.971782 113.636091 
L 62.245855 125.04357 
L 62.519927 110.955646 
L 62.794 114.347228 
L 63.068073 88.940215 
L 63.342145 97.598576 
L 63.616218 91.650127 
L 63.890291 77.844039 
L 64.164364 108.447101 
L 64.438436 125.660158 
L 64.986582 80.966549 
L 65.260655 116.387134 
L 65.8088 53.428284 
L 66.082873 87.53321 
L 66.356945 104.05199 
L 66.631018 67.481572 
L 66.905091 51.261499 
L 67.179164 56.970423 
L 67.453236 51.989966 
L 68.001382 128.805255 
L 68.275455 63.508242 
L 68.549527 122.126381 
L 68.8236 82.871034 
L 69.097673 119.67116 
L 69.371745 90.25615 
L 69.645818 76.201045 
L 69.919891 48.995313 
L 70.193964 118.868384 
L 70.468036 59.166703 
L 70.742109 84.115519 
L 71.016182 76.233923 
L 71.290255 75.303639 
L 71.564327 86.671615 
L 71.8384 54.480842 
L 72.112473 122.129089 
L 72.660618 66.846094 
L 72.934691 75.645722 
L 73.208764 99.549045 
L 73.482836 69.112576 
L 73.756909 109.814135 
L 74.030982 70.082155 
L 74.305055 117.152302 
L 74.579127 91.24335 
L 74.8532 87.452788 
L 75.401345 77.626194 
L 75.675418 94.286649 
L 75.949491 96.898459 
L 76.223564 61.860185 
L 76.771709 104.286784 
L 77.045782 118.813878 
L 77.319855 69.567685 
L 77.593927 48.391634 
L 77.868 113.645002 
L 78.142073 102.928125 
L 78.416145 104.700903 
L 78.690218 124.782117 
L 78.964291 124.963509 
L 79.512436 106.605993 
L 79.786509 77.792243 
L 80.060582 99.872245 
L 80.334655 49.299429 
L 80.608727 54.482467 
L 80.8828 126.22512 
L 81.156873 120.409121 
L 81.430945 99.539361 
L 81.705018 89.070913 
L 81.979091 108.482385 
L 82.527236 60.479361 
L 82.801309 61.324797 
L 83.075382 107.304716 
L 83.349455 109.328087 
L 83.623527 122.538832 
L 83.8976 68.376797 
L 84.171673 45.406962 
L 84.445745 68.539729 
L 84.719818 108.981174 
L 84.993891 45.01849 
L 85.267964 77.37531 
L 85.542036 82.211534 
L 85.816109 110.392979 
L 86.090182 125.99494 
L 86.364255 115.469036 
L 86.638327 61.838472 
L 86.9124 62.138714 
L 87.186473 53.295404 
L 87.460545 70.66229 
L 87.734618 73.930357 
L 88.008691 105.087943 
L 88.282764 110.498764 
L 88.556836 70.79348 
L 88.830909 50.439378 
L 89.104982 115.574134 
L 89.379055 68.725464 
L 89.653127 47.569041 
L 89.9272 63.263367 
L 90.201273 62.113526 
L 90.475345 76.499052 
L 90.749418 120.825407 
L 91.023491 55.925715 
L 91.297564 82.42567 
L 91.571636 90.087964 
L 91.845709 69.990883 
L 92.119782 73.479275 
L 92.393855 45.819869 
L 92.667927 118.888267 
L 92.942 114.424002 
L 93.216073 120.070117 
L 93.490145 49.009496 
L 93.764218 96.888481 
L 94.038291 124.522296 
L 94.312364 54.910032 
L 94.586436 119.054749 
L 94.860509 77.573145 
L 95.134582 127.945055 
L 95.408655 126.13279 
L 95.682727 48.799529 
L 95.9568 72.439736 
L 96.230873 52.824947 
L 96.504945 90.166932 
L 97.053091 43.989844 
L 97.327164 99.759612 
L 97.601236 114.87326 
L 97.875309 105.106996 
L 98.149382 47.663065 
L 98.423455 118.702534 
L 98.697527 119.397104 
L 99.245673 67.842564 
L 99.519745 101.984596 
L 99.793818 121.351177 
L 100.067891 97.218513 
L 100.341964 109.789082 
L 100.616036 75.958083 
L 100.890109 117.449175 
L 101.164182 76.783862 
L 101.712327 110.02943 
L 101.9864 104.673083 
L 102.260473 86.325819 
L 102.534545 113.97795 
L 102.808618 82.23046 
L 103.082691 103.02592 
L 103.356764 49.955405 
L 103.630836 84.989898 
L 103.904909 77.825453 
L 104.178982 79.416542 
L 104.453055 64.745142 
L 104.727127 112.077557 
L 105.0012 121.977511 
L 105.275273 44.314987 
L 105.549345 63.484857 
L 105.823418 123.58234 
L 106.097491 55.981031 
L 106.371564 73.879571 
L 106.645636 68.036212 
L 106.919709 73.996511 
L 107.193782 116.084065 
L 107.467855 90.695949 
L 107.741927 94.113604 
L 108.016 56.023199 
L 108.290073 64.755201 
L 108.564145 118.839173 
L 108.838218 110.534012 
L 109.112291 128.366394 
L 109.386364 45.558185 
L 109.660436 126.703856 
L 109.934509 114.876442 
L 110.208582 109.339163 
L 110.482655 126.035044 
L 110.756727 119.382888 
L 111.0308 78.62637 
L 111.304873 55.74142 
L 111.578945 50.405014 
L 111.853018 92.507273 
L 112.127091 76.311145 
L 112.401164 91.707591 
L 112.675236 121.238304 
L 112.949309 96.851968 
L 113.223382 124.5887 
L 113.497455 46.291696 
L 113.771527 44.474038 
L 114.0456 58.082275 
L 114.319673 77.80551 
L 114.593745 84.903966 
L 114.867818 67.143112 
L 115.141891 112.127044 
L 115.415964 52.155107 
L 115.690036 114.530748 
L 115.964109 103.844999 
L 116.238182 99.56361 
L 116.512255 47.824183 
L 117.334473 124.993747 
L 117.608545 75.590917 
L 117.882618 123.703921 
L 118.156691 122.254252 
L 118.430764 121.716009 
L 118.704836 72.304465 
L 118.978909 83.122898 
L 119.252982 114.633837 
L 119.527055 48.459188 
L 119.801127 60.296471 
L 120.0752 116.602254 
L 120.349273 72.374635 
L 120.623345 46.250571 
L 120.897418 47.408636 
L 121.171491 94.196686 
L 121.445564 97.316572 
L 121.719636 89.519394 
L 121.993709 105.906356 
L 122.267782 88.433391 
L 122.541855 125.892438 
L 122.815927 79.374161 
L 123.09 52.296755 
L 123.364073 67.283512 
L 123.638145 54.010437 
L 123.912218 102.126308 
L 124.186291 103.275416 
L 124.460364 87.288662 
L 124.734436 46.261357 
L 125.008509 71.615688 
L 125.282582 129.567025 
L 125.556655 124.801784 
L 125.830727 115.449188 
L 126.378873 69.998516 
L 126.652945 127.800837 
L 126.927018 86.445212 
L 127.201091 123.270781 
L 127.475164 66.240285 
L 128.023309 91.170808 
L 128.297382 107.48002 
L 128.571455 108.27012 
L 128.845527 89.031114 
L 129.1196 90.561582 
L 129.393673 125.049984 
L 129.667745 55.73267 
L 129.941818 49.796757 
L 130.215891 64.411153 
L 130.489964 52.204559 
L 130.764036 108.363313 
L 131.038109 53.766107 
L 131.312182 114.083486 
L 131.586255 75.61233 
L 131.860327 82.093352 
L 132.1344 96.904488 
L 132.408473 127.323937 
L 132.956618 60.374864 
L 133.230691 81.875746 
L 133.504764 87.076502 
L 133.778836 101.227641 
L 134.052909 98.532436 
L 134.326982 117.189051 
L 134.601055 112.587129 
L 134.875127 120.8433 
L 135.1492 62.895533 
L 135.423273 83.820538 
L 135.697345 49.921511 
L 135.971418 63.578556 
L 136.519564 129.001098 
L 136.793636 119.65106 
L 137.067709 127.94514 
L 137.341782 71.835861 
L 137.615855 123.085173 
L 137.889927 53.595907 
L 138.438073 100.790659 
L 138.712145 65.283014 
L 138.986218 120.552721 
L 139.260291 56.363376 
L 139.534364 128.233842 
L 139.808436 111.119012 
L 140.356582 46.120815 
L 140.630655 87.856525 
L 140.904727 107.91616 
L 141.1788 90.202609 
L 141.452873 64.853823 
L 142.275091 99.68339 
L 142.549164 94.932552 
L 142.823236 85.372374 
L 143.097309 69.617206 
L 143.371382 103.572499 
L 143.645455 116.954915 
L 143.919527 79.535452 
L 144.1936 119.006328 
L 145.015818 44.571616 
L 145.563964 127.310095 
L 145.838036 120.411657 
L 146.112109 53.173704 
L 146.386182 85.455495 
L 146.660255 76.432765 
L 146.934327 87.924617 
L 147.482473 50.461915 
L 147.756545 127.924631 
L 148.030618 56.908394 
L 148.304691 62.170178 
L 148.578764 78.886529 
L 148.852836 53.670682 
L 149.126909 98.435334 
L 149.400982 94.885105 
L 149.675055 128.084943 
L 149.949127 120.673624 
L 150.2232 65.63011 
L 150.497273 49.709282 
L 150.771345 80.582914 
L 151.045418 55.243972 
L 151.319491 44.672658 
L 151.593564 72.881376 
L 151.867636 46.069699 
L 152.141709 115.209456 
L 152.415782 60.91917 
L 152.689855 115.770218 
L 152.963927 70.390103 
L 153.238 82.648231 
L 153.512073 74.929444 
L 153.786145 77.79307 
L 154.060218 68.438962 
L 154.334291 83.958281 
L 154.608364 120.769913 
L 155.156509 54.16296 
L 155.430582 103.462812 
L 155.704655 100.829168 
L 155.978727 90.584578 
L 156.2528 112.154532 
L 156.526873 74.715962 
L 156.800945 84.299865 
L 157.075018 72.548228 
L 157.349091 47.610508 
L 157.623164 51.761859 
L 157.897236 128.013492 
L 158.171309 54.084319 
L 158.445382 118.338033 
L 158.719455 112.040077 
L 158.993527 124.701066 
L 159.2676 111.09858 
L 159.541673 121.29248 
L 159.815745 121.952424 
L 160.363891 53.205848 
L 160.637964 104.174634 
L 160.912036 85.477381 
L 161.186109 117.912839 
L 161.460182 45.405629 
L 161.734255 125.541194 
L 162.008327 79.045865 
L 162.2824 70.222516 
L 162.556473 115.915935 
L 162.830545 60.356786 
L 163.104618 79.400748 
L 163.378691 125.733069 
L 163.652764 49.470341 
L 163.926836 76.054818 
L 164.474982 88.947049 
L 164.749055 105.926435 
L 165.023127 98.699394 
L 165.2972 96.990974 
L 165.571273 84.936869 
L 165.845345 88.890532 
L 166.119418 98.247362 
L 166.393491 128.890073 
L 166.667564 70.994207 
L 166.941636 78.571853 
L 167.215709 72.539929 
L 167.489782 103.278692 
L 167.763855 96.540942 
L 168.037927 63.877837 
L 168.312 109.602082 
L 168.586073 95.907521 
L 168.860145 99.490841 
L 169.134218 57.66011 
L 169.408291 96.111959 
L 169.682364 88.216036 
L 169.956436 105.473921 
L 170.230509 98.610379 
L 170.504582 65.941143 
L 170.778655 110.488184 
L 171.052727 68.126422 
L 171.3268 76.771315 
L 171.600873 76.405319 
L 171.874945 99.063541 
L 172.149018 62.920728 
L 172.697164 80.245993 
L 172.971236 72.976337 
L 173.245309 111.698834 
L 173.519382 98.401977 
L 173.793455 127.747747 
L 174.3416 63.041889 
L 174.615673 91.442755 
L 174.889745 75.494696 
L 175.163818 89.892609 
L 175.437891 110.741494 
L 175.711964 55.766725 
L 175.986036 54.191673 
L 176.260109 66.259367 
L 176.534182 118.208467 
L 176.808255 105.648699 
L 177.3564 60.970649 
L 177.630473 94.679544 
L 177.904545 92.306821 
L 178.178618 72.310653 
L 178.452691 61.319223 
L 179.000836 129.903613 
L 179.274909 61.257834 
L 179.548982 120.710604 
L 179.823055 111.666876 
L 180.097127 106.596838 
L 180.645273 44.708311 
L 180.919345 94.131244 
L 181.193418 117.16544 
L 181.467491 119.183273 
L 181.741564 70.072993 
L 182.015636 128.222782 
L 182.289709 76.87808 
L 182.563782 128.591295 
L 182.837855 60.470632 
L 183.111927 56.485723 
L 183.386 79.051645 
L 183.660073 61.220498 
L 183.934145 102.246406 
L 184.208218 115.272575 
L 184.482291 63.85232 
L 184.756364 102.634189 
L 185.030436 72.721273 
L 185.304509 77.378268 
L 185.578582 108.468619 
L 185.852655 126.394138 
L 186.126727 90.066961 
L 186.4008 74.542591 
L 186.674873 121.301508 
L 187.223018 46.880261 
L 187.497091 60.986373 
L 188.045236 129.136802 
L 188.319309 92.097398 
L 188.593382 121.902575 
L 188.867455 121.335544 
L 189.4156 49.629108 
L 189.689673 65.207368 
L 189.963745 130.277917 
L 190.237818 67.413509 
L 190.511891 128.712344 
L 190.785964 48.801773 
L 191.060036 89.065815 
L 191.334109 96.127474 
L 191.608182 117.918553 
L 191.882255 48.781244 
L 192.156327 127.260268 
L 192.4304 117.600823 
L 192.978545 76.150775 
L 193.252618 93.888202 
L 193.526691 67.980338 
L 193.800764 104.427795 
L 194.074836 79.312811 
L 194.348909 114.019604 
L 194.622982 94.857778 
L 194.897055 128.230403 
L 195.171127 76.166533 
L 195.4452 66.625365 
L 195.719273 105.208079 
L 195.993345 53.917651 
L 196.267418 55.287052 
L 196.541491 102.109186 
L 196.815564 107.517301 
L 197.089636 53.894994 
L 197.637782 105.279478 
L 197.911855 53.11924 
L 198.185927 106.31592 
L 198.46 117.98488 
L 198.734073 100.120393 
L 199.008145 61.57392 
L 199.282218 91.833897 
L 199.556291 97.716674 
L 199.830364 90.892036 
L 200.104436 56.171972 
L 200.378509 121.798229 
L 200.652582 53.020176 
L 200.926655 104.182328 
L 201.200727 46.90612 
L 201.4748 127.678146 
L 201.748873 71.32282 
L 202.022945 99.472551 
L 202.297018 60.996765 
L 202.571091 94.255743 
L 202.845164 112.877308 
L 203.119236 108.612988 
L 203.393309 96.889119 
L 203.667382 104.056908 
L 203.941455 82.184539 
L 204.4896 58.450518 
L 204.763673 77.93973 
L 205.037745 81.550322 
L 205.311818 127.108414 
L 205.859964 100.912928 
L 206.134036 108.044045 
L 206.408109 76.873805 
L 206.956255 64.641235 
L 207.230327 75.955989 
L 207.5044 128.687656 
L 208.052545 88.469727 
L 208.326618 120.869429 
L 208.600691 52.679308 
L 208.874764 87.386761 
L 209.148836 46.632468 
L 209.422909 105.708963 
L 209.696982 68.425009 
L 209.971055 98.580455 
L 210.245127 109.614106 
L 210.5192 81.474322 
L 211.067345 110.774666 
L 211.615491 48.662581 
L 211.889564 126.301883 
L 212.163636 62.46333 
L 212.437709 68.572806 
L 212.711782 55.781847 
L 212.985855 123.189717 
L 213.259927 49.282379 
L 213.534 114.112008 
L 214.082145 54.146621 
L 214.356218 48.108802 
L 214.630291 68.853106 
L 214.904364 48.559143 
L 215.178436 46.724922 
L 215.452509 89.328686 
L 215.726582 100.165976 
L 216.000655 125.416927 
L 216.274727 113.767756 
L 216.5488 111.477819 
L 216.822873 66.32564 
L 217.096945 88.967245 
L 217.371018 85.859193 
L 217.645091 88.310196 
L 218.193236 50.666807 
L 218.467309 73.654968 
L 218.741382 113.142474 
L 219.015455 52.294164 
L 219.5636 109.708605 
L 219.837673 75.972872 
L 220.111745 95.623629 
L 220.385818 61.743936 
L 220.659891 99.525895 
L 220.933964 82.145211 
L 221.208036 77.851029 
L 221.482109 77.972469 
L 222.030255 117.979634 
L 222.304327 63.817378 
L 222.5784 105.562053 
L 222.852473 115.954574 
L 223.126545 91.633155 
L 223.400618 124.477379 
L 223.674691 61.441587 
L 223.948764 69.98054 
L 224.222836 59.575801 
L 224.496909 69.576337 
L 224.770982 89.040654 
L 225.045055 98.295974 
L 225.319127 49.341866 
L 225.5932 118.665172 
L 225.867273 72.594881 
L 226.141345 60.675638 
L 226.415418 122.801503 
L 226.689491 95.623135 
L 226.963564 107.046207 
L 227.237636 73.311096 
L 227.785782 54.011397 
L 228.059855 112.627522 
L 228.333927 57.14915 
L 228.608 119.461562 
L 228.882073 44.805494 
L 229.156145 118.395642 
L 229.430218 59.646424 
L 229.704291 94.626773 
L 229.978364 98.998235 
L 230.252436 72.579248 
L 230.526509 114.82765 
L 230.800582 73.850894 
L 231.074655 116.016824 
L 231.348727 79.887348 
L 231.6228 93.136609 
L 231.896873 113.563173 
L 232.170945 121.856453 
L 232.445018 107.289421 
L 232.719091 84.894823 
L 232.993164 44.69271 
L 233.541309 122.727474 
L 233.815382 83.123528 
L 234.089455 101.316434 
L 234.363527 80.941943 
L 234.6376 91.532218 
L 234.911673 129.460942 
L 235.185745 60.390218 
L 235.459818 83.383321 
L 235.733891 76.123301 
L 236.007964 123.112713 
L 236.282036 67.745367 
L 236.556109 50.259815 
L 236.830182 101.338003 
L 237.104255 47.752312 
L 237.6524 102.932591 
L 237.926473 52.805038 
L 238.200545 54.90667 
L 238.474618 98.27015 
L 238.748691 97.084163 
L 239.022764 107.532548 
L 239.296836 123.36457 
L 239.570909 74.869837 
L 239.844982 100.723157 
L 240.119055 78.307538 
L 240.393127 115.297544 
L 240.6672 120.395909 
L 240.941273 79.735638 
L 241.215345 56.114944 
L 241.489418 104.991118 
L 241.763491 96.264561 
L 242.037564 114.934215 
L 242.311636 52.898735 
L 242.585709 72.126956 
L 242.859782 127.589793 
L 243.133855 97.602339 
L 243.407927 43.82077 
L 243.682 66.912927 
L 243.956073 117.295181 
L 244.230145 92.228957 
L 244.504218 115.170547 
L 244.778291 110.700556 
L 245.052364 73.003788 
L 245.326436 111.842637 
L 245.600509 80.336311 
L 245.874582 86.146088 
L 246.148655 44.959606 
L 246.422727 67.701476 
L 246.6968 61.520066 
L 246.970873 60.015544 
L 247.244945 72.933408 
L 247.519018 65.389551 
L 248.067164 117.702631 
L 248.341236 111.858174 
L 248.615309 95.402836 
L 248.889382 126.696612 
L 249.163455 58.513877 
L 249.437527 94.87189 
L 249.7116 66.967421 
L 249.985673 84.688305 
L 250.259745 59.188574 
L 250.533818 122.939846 
L 250.807891 90.600743 
L 251.081964 80.442271 
L 251.356036 111.465462 
L 251.630109 45.984265 
L 251.904182 68.914109 
L 252.178255 81.306924 
L 252.452327 78.720479 
L 252.7264 122.581571 
L 253.000473 85.157715 
L 253.274545 98.342328 
L 253.548618 55.549831 
L 253.822691 71.97052 
L 254.096764 50.764266 
L 254.370836 51.444701 
L 254.644909 106.302494 
L 254.918982 103.588427 
L 255.193055 53.853224 
L 255.467127 102.921892 
L 255.7412 79.432393 
L 256.015273 88.737111 
L 256.289345 104.752475 
L 256.563418 105.029224 
L 256.837491 57.748591 
L 257.111564 69.916237 
L 257.385636 66.975978 
L 257.659709 84.917569 
L 257.933782 119.20037 
L 258.207855 103.44207 
L 258.481927 96.182507 
L 258.756 93.92842 
L 259.030073 83.845802 
L 259.304145 114.285225 
L 259.578218 56.575488 
L 259.852291 98.146726 
L 260.126364 86.230329 
L 260.400436 101.340496 
L 260.674509 107.642692 
L 261.222655 66.581159 
L 261.496727 58.919068 
L 261.7708 81.872709 
L 262.044873 83.431519 
L 262.318945 55.727453 
L 262.593018 51.073491 
L 262.867091 80.948666 
L 263.141164 74.284461 
L 263.415236 106.418929 
L 263.963382 52.140628 
L 264.237455 84.224234 
L 264.511527 59.255196 
L 264.7856 113.654304 
L 265.059673 45.618677 
L 265.333745 86.544244 
L 265.607818 75.624521 
L 265.881891 116.144357 
L 266.155964 114.60507 
L 266.430036 44.45578 
L 266.704109 84.902075 
L 266.978182 81.251796 
L 267.252255 64.135338 
L 267.526327 101.104489 
L 267.8004 52.263323 
L 268.074473 106.078596 
L 268.348545 111.341121 
L 268.896691 61.221544 
L 269.170764 89.119574 
L 269.992982 50.846355 
L 270.267055 77.556111 
L 270.541127 120.840408 
L 270.8152 85.541614 
L 271.089273 76.136136 
L 271.363345 45.822301 
L 271.637418 99.453298 
L 271.911491 86.836398 
L 272.185564 121.010866 
L 272.459636 100.466871 
L 272.733709 124.151702 
L 273.007782 83.005856 
L 273.281855 123.283549 
L 273.555927 113.2277 
L 273.83 108.200053 
L 274.104073 69.237278 
L 274.378145 81.801818 
L 274.652218 78.177443 
L 274.926291 61.077567 
L 275.200364 97.560563 
L 275.474436 77.174252 
L 275.748509 46.829545 
L 276.296655 60.312148 
L 276.570727 128.579065 
L 276.8448 62.082508 
L 277.118873 82.155871 
L 277.392945 92.759647 
L 277.667018 109.624182 
L 277.941091 82.882081 
L 278.215164 120.210259 
L 278.489236 107.521968 
L 279.037382 114.596398 
L 279.311455 47.954373 
L 279.585527 102.934274 
L 279.8596 82.425977 
L 280.133673 106.368168 
L 280.407745 89.019865 
L 280.681818 46.661684 
L 280.955891 109.656721 
L 281.229964 102.025586 
L 281.504036 115.673936 
L 281.778109 51.865193 
L 282.052182 50.117424 
L 282.326255 50.200928 
L 282.600327 65.789291 
L 282.8744 57.418816 
L 283.422545 114.186641 
L 283.696618 53.113219 
L 283.970691 98.727401 
L 284.518836 46.423857 
L 284.792909 104.876753 
L 285.066982 69.74145 
L 285.341055 90.611491 
L 285.615127 123.01449 
L 285.8892 55.361956 
L 286.163273 60.522165 
L 286.437345 70.829424 
L 286.711418 51.107944 
L 286.985491 82.811646 
L 287.259564 70.403087 
L 287.807709 109.084297 
L 288.081782 84.354657 
L 288.355855 98.118907 
L 288.629927 127.370133 
L 288.904 91.451432 
L 289.178073 109.47718 
L 289.726218 76.997818 
L 290.000291 95.686817 
L 290.274364 49.74751 
L 290.548436 53.667274 
L 290.822509 43.909146 
L 291.096582 77.457134 
L 291.370655 85.233824 
L 291.644727 107.936416 
L 291.9188 69.684626 
L 292.192873 114.270376 
L 292.466945 48.867392 
L 292.741018 119.973298 
L 293.015091 81.077203 
L 293.289164 101.027465 
L 293.563236 98.786413 
L 293.837309 59.524997 
L 294.111382 116.749115 
L 294.385455 101.870161 
L 294.9336 105.072723 
L 295.207673 77.420353 
L 295.481745 112.989475 
L 295.755818 66.24876 
L 296.029891 77.679563 
L 296.303964 61.805377 
L 296.578036 81.679795 
L 296.852109 124.576501 
L 297.126182 124.657053 
L 297.400255 122.23349 
L 297.674327 92.138941 
L 297.9484 84.327021 
L 298.222473 49.810307 
L 298.496545 129.193491 
L 298.770618 74.864771 
L 299.044691 68.111873 
L 299.318764 103.995284 
L 299.592836 60.134832 
L 299.866909 76.745787 
L 300.140982 128.370219 
L 300.415055 108.20315 
L 300.689127 63.816187 
L 301.237273 90.282591 
L 301.511345 74.575644 
L 301.785418 120.844855 
L 302.059491 46.592228 
L 302.333564 47.719448 
L 302.607636 85.834879 
L 302.881709 87.92265 
L 303.155782 109.450375 
L 303.429855 82.305942 
L 303.703927 70.60719 
L 303.978 128.459457 
L 304.252073 100.335576 
L 304.526145 91.880304 
L 304.800218 113.557477 
L 305.074291 78.288401 
L 305.348364 93.286121 
L 305.622436 48.632525 
L 305.896509 60.164241 
L 306.170582 79.447727 
L 306.444655 55.434745 
L 306.718727 89.169958 
L 306.9928 70.878794 
L 307.266873 75.603432 
L 307.540945 95.790677 
L 307.815018 107.612933 
L 308.089091 48.506549 
L 308.911309 128.898763 
L 309.185382 54.962097 
L 309.459455 99.071062 
L 309.733527 54.721677 
L 310.0076 127.478588 
L 310.281673 127.217629 
L 310.555745 99.50553 
L 310.829818 107.655056 
L 311.103891 86.900499 
L 311.377964 108.46962 
L 311.652036 107.490733 
L 311.926109 90.859935 
L 312.474255 116.688147 
L 312.748327 113.915017 
L 313.0224 57.511431 
L 313.296473 68.626364 
L 313.570545 62.29233 
L 313.844618 127.064502 
L 314.392764 47.610484 
L 314.666836 45.982998 
L 314.940909 50.911197 
L 315.214982 107.541963 
L 315.489055 49.715053 
L 315.763127 62.525354 
L 316.0372 112.870018 
L 316.311273 66.59019 
L 316.585345 60.437799 
L 316.859418 116.518289 
L 317.133491 121.40587 
L 317.407564 65.169748 
L 317.681636 101.005095 
L 317.955709 113.64371 
L 318.229782 99.316804 
L 318.503855 56.56891 
L 318.777927 110.847227 
L 319.052 122.661451 
L 319.874218 53.313795 
L 320.148291 88.312124 
L 320.422364 106.580962 
L 320.696436 96.871695 
L 320.970509 97.622565 
L 321.244582 87.462553 
L 321.518655 120.1948 
L 321.792727 127.479599 
L 322.0668 62.065076 
L 322.340873 78.847345 
L 322.614945 48.111292 
L 322.889018 54.693288 
L 323.163091 85.39468 
L 323.437164 95.601395 
L 323.711236 54.794068 
L 323.985309 60.237352 
L 324.259382 104.466592 
L 324.533455 59.697072 
L 324.807527 52.428794 
L 325.0816 72.101644 
L 325.629745 126.333506 
L 325.903818 72.145213 
L 326.177891 115.913807 
L 326.451964 82.85459 
L 326.726036 96.484416 
L 327.000109 129.761251 
L 327.274182 95.64134 
L 327.548255 46.256713 
L 328.0964 104.287159 
L 328.370473 106.840085 
L 328.644545 98.788767 
L 328.918618 85.011666 
L 329.192691 126.771173 
L 329.466764 121.499404 
L 330.014909 94.519922 
L 330.288982 120.573125 
L 330.563055 63.736315 
L 330.837127 97.834767 
L 331.1112 100.888621 
L 331.385273 123.12044 
L 331.659345 66.914704 
L 331.933418 65.956144 
L 332.207491 110.636785 
L 332.481564 54.543811 
L 332.755636 58.455128 
L 333.029709 80.09672 
L 333.303782 112.509983 
L 333.577855 74.476942 
L 333.851927 101.385176 
L 334.126 97.139102 
L 334.948218 60.096025 
L 335.222291 90.74157 
L 335.222291 90.74157 
" clip-path="url(#p8067d7170c)" style="fill: none; stroke: #1f77b4; stroke-width: 1.5; stroke-linecap: square"/>
   </g>
   <g id="line2d_14">
    <path d="M 61.423636 87.16 
L 335.496364 87.16 
" clip-path="url(#p8067d7170c)" style="fill: none; stroke-dasharray: 7.4,3.2; stroke-dashoffset: 0; stroke: #ff0000; stroke-width: 2"/>
   </g>
   <g id="line2d_15">
    <path d="M 192.978545 87.16 
L 203.941455 87.16 
" clip-path="url(#p8067d7170c)" style="fill: none; stroke: #000000; stroke-width: 2; stroke-linecap: square"/>
   </g>
   <g id="line2d_16">
    <path d="M 192.978545 43.72 
L 203.941455 43.72 
" clip-path="url(#p8067d7170c)" style="fill: none; stroke: #000000; stroke-width: 2; stroke-linecap: square"/>
   </g>
   <g id="line2d_17">
    <path d="M 198.46 87.16 
L 198.46 43.72 
" clip-path="url(#p8067d7170c)" style="fill: none; stroke: #000000; stroke-width: 2; stroke-linecap: square"/>
   </g>
   <g id="line2d_18">
    <path d="M 192.978545 159.56 
L 203.941455 159.56 
" clip-path="url(#p8067d7170c)" style="fill: none; stroke: #000000; stroke-width: 2; stroke-linecap: square"/>
   </g>
   <g id="line2d_19">
    <path d="M 198.46 159.56 
L 198.46 87.16 
" clip-path="url(#p8067d7170c)" style="fill: none; stroke: #000000; stroke-width: 2; stroke-linecap: square"/>
   </g>
   <g id="patch_3">
    <path d="M 47.72 174.04 
L 47.72 14.76 
" style="fill: none; stroke: #000000; stroke-width: 0.8; stroke-linejoin: miter; stroke-linecap: square"/>
   </g>
   <g id="patch_4">
    <path d="M 349.2 174.04 
L 349.2 14.76 
" style="fill: none; stroke: #000000; stroke-width: 0.8; stroke-linejoin: miter; stroke-linecap: square"/>
   </g>
   <g id="patch_5">
    <path d="M 47.72 174.04 
L 349.2 174.04 
" style="fill: none; stroke: #000000; stroke-width: 0.8; stroke-linejoin: miter; stroke-linecap: square"/>
   </g>
   <g id="patch_6">
    <path d="M 47.72 14.76 
L 349.2 14.76 
" style="fill: none; stroke: #000000; stroke-width: 0.8; stroke-linejoin: miter; stroke-linecap: square"/>
   </g>
   <g id="text_15">
    <g id="patch_7">
     <path d="M 205.422909 71.519688 
L 235.015097 71.519688 
L 235.015097 53.841563 
L 205.422909 53.841563 
z
" style="fill: #ffffff; opacity: 0.8; stroke: #000000; stroke-linejoin: miter"/>
    </g>
    <!-- gain -->
    <g transform="translate(209.422909 65.44) scale(0.1 -0.1)">
     <use xlink:href="#DejaVuSans-67"/>
     <use xlink:href="#DejaVuSans-61" transform="translate(63.476562 0)"/>
     <use xlink:href="#DejaVuSans-69" transform="translate(124.755859 0)"/>
     <use xlink:href="#DejaVuSans-6e" transform="translate(152.539062 0)"/>
    </g>
   </g>
   <g id="text_16">
    <g id="patch_8">
     <path d="M 205.422909 129.439688 
L 241.865097 129.439688 
L 241.865097 111.761563 
L 205.422909 111.761563 
z
" style="fill: #ffffff; opacity: 0.8; stroke: #000000; stroke-linejoin: miter"/>
    </g>
    <!-- offset -->
    <g transform="translate(209.422909 123.36) scale(0.1 -0.1)">
     <defs>
      <path id="DejaVuSans-6f" d="M 1959 3097 
Q 1497 3097 1228 2736 
Q 959 2375 959 1747 
Q 959 1119 1226 758 
Q 1494 397 1959 397 
Q 2419 397 2687 759 
Q 2956 1122 2956 1747 
Q 2956 2369 2687 2733 
Q 2419 3097 1959 3097 
z
M 1959 3584 
Q 2709 3584 3137 3096 
Q 3566 2609 3566 1747 
Q 3566 888 3137 398 
Q 2709 -91 1959 -91 
Q 1206 -91 779 398 
Q 353 888 353 1747 
Q 353 2609 779 3096 
Q 1206 3584 1959 3584 
z
" transform="scale(0.015625)"/>
      <path id="DejaVuSans-66" d="M 2375 4863 
L 2375 4384 
L 1825 4384 
Q 1516 4384 1395 4259 
Q 1275 4134 1275 3809 
L 1275 3500 
L 2222 3500 
L 2222 3053 
L 1275 3053 
L 1275 0 
L 697 0 
L 697 3053 
L 147 3053 
L 147 3500 
L 697 3500 
L 697 3744 
Q 697 4328 969 4595 
Q 1241 4863 1831 4863 
L 2375 4863 
z
" transform="scale(0.015625)"/>
     </defs>
     <use xlink:href="#DejaVuSans-6f"/>
     <use xlink:href="#DejaVuSans-66" transform="translate(61.181641 0)"/>
     <use xlink:href="#DejaVuSans-66" transform="translate(96.386719 0)"/>
     <use xlink:href="#DejaVuSans-73" transform="translate(131.591797 0)"/>
     <use xlink:href="#DejaVuSans-65" transform="translate(183.691406 0)"/>
     <use xlink:href="#DejaVuSans-74" transform="translate(245.214844 0)"/>
    </g>
   </g>
  </g>
 </g>
 <defs>
  <clipPath id="p8067d7170c">
   <rect x="47.72" y="14.76" width="301.48" height="159.28"/>
  </clipPath>
 </defs>
</svg>
