<?xml version="1.0" encoding="utf-8" standalone="no"?>
<!DOCTYPE svg PUBLIC "-//W3C//DTD SVG 1.1//EN"
  "http://www.w3.org/Graphics/SVG/1.1/DTD/svg11.dtd">
<svg xmlns:xlink="http://www.w3.org/1999/xlink" width="360pt" height="216pt" viewBox="0 0 360 216" xmlns="http://www.w3.org/2000/svg" version="1.1">
 <metadata>
  <rdf:RDF xmlns:dc="http://purl.org/dc/elements/1.1/" xmlns:cc="http://creativecommons.org/ns#" xmlns:rdf="http://www.w3.org/1999/02/22-rdf-syntax-ns#">
   <cc:Work>
    <dc:type rdf:resource="http://purl.org/dc/dcmitype/StillImage"/>
    <dc:date>2026-05-29T21:46:05.328678</dc:date>
    <dc:format>image/svg+xml</dc:format>
    <dc:creator>
     <cc:Agent>
      <dc:title>Matplotlib v3.10.9, https://matplotlib.org/</dc:title>
     </cc:Agent>
    </dc:creator>
   </cc:Work>
  </rdf:RDF>
 </metadata>
 <defs>
  <style type="text/css">*{stroke-linejoin: round; stroke-linecap: butt}</style>
 </defs>
 <g id="figure_1">
  <g id="patch_1">
   <path d="M 0 216 
L 360 216 
L 360 0 
L 0 0 
z
" style="fill: #ffffff"/>
  </g>
  <g id="axes_1">
   <g id="patch_2">
    <path d="M 47.72 174.04 
L 349.2 174.04 
L 349.2 14.76 
L 47.72 14.76 
z
" style="fill: #ffffff"/>
   </g>
   <g id="matplotlib.axis_1">
    <g id="xtick_1">
     <g id="line2d_1">
      <defs>
       <path id="m37f536622c" d="M 0 0 
L 0 3.5 
" style="stroke: #000000; stroke-width: 0.8"/>
      </defs>
      <g>
       <use xlink:href="#m37f536622c" x="61.423636" y="174.04" style="stroke: #000000; stroke-width: 0.8"/>
      </g>
     </g>
     <g id="text_1">
      <!-- 0.0 -->
      <g transform="translate(53.472074 188.638438) scale(0.1 -0.1)">
       <defs>
        <path id="DejaVuSans-30" d="M 2034 4250 
Q 1547 4250 1301 3770 
Q 1056 3291 1056 2328 
Q 1056 1369 1301 889 
Q 1547 409 2034 409 
Q 2525 409 2770 889 
Q 3016 1369 3016 2328 
Q 3016 3291 2770 3770 
Q 2525 4250 2034 4250 
z
M 2034 4750 
Q 2819 4750 3233 4129 
Q 3647 3509 3647 2328 
Q 3647 1150 3233 529 
Q 2819 -91 2034 -91 
Q 1250 -91 836 529 
Q 422 1150 422 2328 
Q 422 3509 836 4129 
Q 1250 4750 2034 4750 
z
" transform="scale(0.015625)"/>
        <path id="DejaVuSans-2e" d="M 684 794 
L 1344 794 
L 1344 0 
L 684 0 
L 684 794 
z
" transform="scale(0.015625)"/>
       </defs>
       <use xlink:href="#DejaVuSans-30"/>
       <use xlink:href="#DejaVuSans-2e" transform="translate(63.623047 0)"/>
       <use xlink:href="#DejaVuSans-30" transform="translate(95.410156 0)"/>
      </g>
     </g>
    </g>
    <g id="xtick_2">
     <g id="line2d_2">
      <g>
       <use xlink:href="#m37f536622c" x="116.238182" y="174.04" style="stroke: #000000; stroke-width: 0.8"/>
      </g>
     </g>
     <g id="text_2">
      <!-- 0.2 -->
      <g transform="translate(108.286619 188.638438) scale(0.1 -0.1)">
       <defs>
        <path id="DejaVuSans-32" d="M 1228 531 
L 3431 531 
L 3431 0 
L 469 0 
L 469 531 
Q 828 903 1448 1529 
Q 2069 2156 2228 2338 
Q 2531 2678 2651 2914 
Q 2772 3150 2772 3378 
Q 2772 3750 2511 3984 
Q 2250 4219 1831 4219 
Q 1534 4219 1204 4116 
Q 875 4013 500 3803 
L 500 4441 
Q 881 4594 1212 4672 
Q 1544 4750 1819 4750 
Q 2544 4750 2975 4387 
Q 3406 4025 3406 3419 
Q 3406 3131 3298 2873 
Q 3191 2616 2906 2266 
Q 2828 2175 2409 1742 
Q 1991 1309 1228 531 
z
" transform="scale(0.015625)"/>
       </defs>
       <use xlink:href="#DejaVuSans-30"/>
       <use xlink:href="#DejaVuSans-2e" transform="translate(63.623047 0)"/>
       <use xlink:href="#DejaVuSans-32" transform="translate(95.410156 0)"/>
      </g>
     </g>
    </g>
    <g id="xtick_3">
     <g id="line2d_3">
      <g>
       <use xlink:href="#m37f536622c" x="171.052727" y="174.04" style="stroke: #000000; stroke-width: 0.8"/>
      </g>
     </g>
     <g id="text_3">
      <!-- 0.4 -->
      <g transform="translate(163.101165 188.638438) scale(0.1 -0.1)">
       <defs>
        <path id="DejaVuSans-34" d="M 2419 4116 
L 825 1625 
L 2419 1625 
L 2419 4116 
z
M 2253 4666 
L 3047 4666 
L 3047 1625 
L 3713 1625 
L 3713 1100 
L 3047 1100 
L 3047 0 
L 2419 0 
L 2419 1100 
L 313 1100 
L 313 1709 
L 2253 4666 
z
" transform="scale(0.015625)"/>
       </defs>
       <use xlink:href="#DejaVuSans-30"/>
       <use xlink:href="#DejaVuSans-2e" transform="translate(63.623047 0)"/>
       <use xlink:href="#DejaVuSans-34" transform="translate(95.410156 0)"/>
      </g>
     </g>
    </g>
    <g id="xtick_4">
     <g id="line2d_4">
      <g>
       <use xlink:href="#m37f536622c" x="225.867273" y="174.04" style="stroke: #000000; stroke-width: 0.8"/>
      </g>
     </g>
     <g id="text_4">
      <!-- 0.6 -->
      <g transform="translate(217.91571 188.638438) scale(0.1 -0.1)">
       <defs>
        <path id="DejaVuSans-36" d="M 2113 2584 
Q 1688 2584 1439 2293 
Q 1191 2003 1191 1497 
Q 1191 994 1439 701 
Q 1688 409 2113 409 
Q 2538 409 2786 701 
Q 3034 994 3034 1497 
Q 3034 2003 2786 2293 
Q 2538 2584 2113 2584 
z
M 3366 4563 
L 3366 3988 
Q 3128 4100 2886 4159 
Q 2644 4219 2406 4219 
Q 1781 4219 1451 3797 
Q 1122 3375 1075 2522 
Q 1259 2794 1537 2939 
Q 1816 3084 2150 3084 
Q 2853 3084 3261 2657 
Q 3669 2231 3669 1497 
Q 3669 778 3244 343 
Q 2819 -91 2113 -91 
Q 1303 -91 875 529 
Q 447 1150 447 2328 
Q 447 3434 972 4092 
Q 1497 4750 2381 4750 
Q 2619 4750 2861 4703 
Q 3103 4656 3366 4563 
z
" transform="scale(0.015625)"/>
       </defs>
       <use xlink:href="#DejaVuSans-30"/>
       <use xlink:href="#DejaVuSans-2e" transform="translate(63.623047 0)"/>
       <use xlink:href="#DejaVuSans-36" transform="translate(95.410156 0)"/>
      </g>
     </g>
    </g>
    <g id="xtick_5">
     <g id="line2d_5">
      <g>
       <use xlink:href="#m37f536622c" x="280.681818" y="174.04" style="stroke: #000000; stroke-width: 0.8"/>
      </g>
     </g>
     <g id="text_5">
      <!-- 0.8 -->
      <g transform="translate(272.730256 188.638438) scale(0.1 -0.1)">
       <defs>
        <path id="DejaVuSans-38" d="M 2034 2216 
Q 1584 2216 1326 1975 
Q 1069 1734 1069 1313 
Q 1069 891 1326 650 
Q 1584 409 2034 409 
Q 2484 409 2743 651 
Q 3003 894 3003 1313 
Q 3003 1734 2745 1975 
Q 2488 2216 2034 2216 
z
M 1403 2484 
Q 997 2584 770 2862 
Q 544 3141 544 3541 
Q 544 4100 942 4425 
Q 1341 4750 2034 4750 
Q 2731 4750 3128 4425 
Q 3525 4100 3525 3541 
Q 3525 3141 3298 2862 
Q 3072 2584 2669 2484 
Q 3125 2378 3379 2068 
Q 3634 1759 3634 1313 
Q 3634 634 3220 271 
Q 2806 -91 2034 -91 
Q 1263 -91 848 271 
Q 434 634 434 1313 
Q 434 1759 690 2068 
Q 947 2378 1403 2484 
z
M 1172 3481 
Q 1172 3119 1398 2916 
Q 1625 2713 2034 2713 
Q 2441 2713 2670 2916 
Q 2900 3119 2900 3481 
Q 2900 3844 2670 4047 
Q 2441 4250 2034 4250 
Q 1625 4250 1398 4047 
Q 1172 3844 1172 3481 
z
" transform="scale(0.015625)"/>
       </defs>
       <use xlink:href="#DejaVuSans-30"/>
       <use xlink:href="#DejaVuSans-2e" transform="translate(63.623047 0)"/>
       <use xlink:href="#DejaVuSans-38" transform="translate(95.410156 0)"/>
      </g>
     </g>
    </g>
    <g id="xtick_6">
     <g id="line2d_6">
      <g>
       <use xlink:href="#m37f536622c" x="335.496364" y="174.04" style="stroke: #000000; stroke-width: 0.8"/>
      </g>
     </g>
     <g id="text_6">
      <!-- 1.0 -->
      <g transform="translate(327.544801 188.638438) scale(0.1 -0.1)">
       <defs>
        <path id="DejaVuSans-31" d="M 794 531 
L 1825 531 
L 1825 4091 
L 703 3866 
L 703 4441 
L 1819 4666 
L 2450 4666 
L 2450 531 
L 3481 531 
L 3481 0 
L 794 0 
L 794 531 
z
" transform="scale(0.015625)"/>
       </defs>
       <use xlink:href="#DejaVuSans-31"/>
       <use xlink:href="#DejaVuSans-2e" transform="translate(63.623047 0)"/>
       <use xlink:href="#DejaVuSans-30" transform="translate(95.410156 0)"/>
      </g>
     </g>
    </g>
    <g id="text_7">
     <!-- Time (sec) -->
     <g transform="translate(172.305312 202.316563) scale(0.1 -0.1)">
      <defs>
       <path id="DejaVuSans-54" d="M -19 4666 
L 3928 4666 
L 3928 4134 
L 2272 4134 
L 2272 0 
L 1638 0 
L 1638 4134 
L -19 4134 
L -19 4666 
z
" transform="scale(0.015625)"/>
       <path id="DejaVuSans-69" d="M 603 3500 
L 1178 3500 
L 1178 0 
L 603 0 
L 603 3500 
z
M 603 4863 
L 1178 4863 
L 1178 4134 
L 603 4134 
L 603 4863 
z
" transform="scale(0.015625)"/>
       <path id="DejaVuSans-6d" d="M 3328 2828 
Q 3544 3216 3844 3400 
Q 4144 3584 4550 3584 
Q 5097 3584 5394 3201 
Q 5691 2819 5691 2113 
L 5691 0 
L 5113 0 
L 5113 2094 
Q 5113 2597 4934 2840 
Q 4756 3084 4391 3084 
Q 3944 3084 3684 2787 
Q 3425 2491 3425 1978 
L 3425 0 
L 2847 0 
L 2847 2094 
Q 2847 2600 2669 2842 
Q 2491 3084 2119 3084 
Q 1678 3084 1418 2786 
Q 1159 2488 1159 1978 
L 1159 0 
L 581 0 
L 581 3500 
L 1159 3500 
L 1159 2956 
Q 1356 3278 1631 3431 
Q 1906 3584 2284 3584 
Q 2666 3584 2933 3390 
Q 3200 3197 3328 2828 
z
" transform="scale(0.015625)"/>
       <path id="DejaVuSans-65" d="M 3597 1894 
L 3597 1613 
L 953 1613 
Q 991 1019 1311 708 
Q 1631 397 2203 397 
Q 2534 397 2845 478 
Q 3156 559 3463 722 
L 3463 178 
Q 3153 47 2828 -22 
Q 2503 -91 2169 -91 
Q 1331 -91 842 396 
Q 353 884 353 1716 
Q 353 2575 817 3079 
Q 1281 3584 2069 3584 
Q 2775 3584 3186 3129 
Q 3597 2675 3597 1894 
z
M 3022 2063 
Q 3016 2534 2758 2815 
Q 2500 3097 2075 3097 
Q 1594 3097 1305 2825 
Q 1016 2553 972 2059 
L 3022 2063 
z
" transform="scale(0.015625)"/>
       <path id="DejaVuSans-20" transform="scale(0.015625)"/>
       <path id="DejaVuSans-28" d="M 1984 4856 
Q 1566 4138 1362 3434 
Q 1159 2731 1159 2009 
Q 1159 1288 1364 580 
Q 1569 -128 1984 -844 
L 1484 -844 
Q 1016 -109 783 600 
Q 550 1309 550 2009 
Q 550 2706 781 3412 
Q 1013 4119 1484 4856 
L 1984 4856 
z
" transform="scale(0.015625)"/>
       <path id="DejaVuSans-73" d="M 2834 3397 
L 2834 2853 
Q 2591 2978 2328 3040 
Q 2066 3103 1784 3103 
Q 1356 3103 1142 2972 
Q 928 2841 928 2578 
Q 928 2378 1081 2264 
Q 1234 2150 1697 2047 
L 1894 2003 
Q 2506 1872 2764 1633 
Q 3022 1394 3022 966 
Q 3022 478 2636 193 
Q 2250 -91 1575 -91 
Q 1294 -91 989 -36 
Q 684 19 347 128 
L 347 722 
Q 666 556 975 473 
Q 1284 391 1588 391 
Q 1994 391 2212 530 
Q 2431 669 2431 922 
Q 2431 1156 2273 1281 
Q 2116 1406 1581 1522 
L 1381 1569 
Q 847 1681 609 1914 
Q 372 2147 372 2553 
Q 372 3047 722 3315 
Q 1072 3584 1716 3584 
Q 2034 3584 2315 3537 
Q 2597 3491 2834 3397 
z
" transform="scale(0.015625)"/>
       <path id="DejaVuSans-63" d="M 3122 3366 
L 3122 2828 
Q 2878 2963 2633 3030 
Q 2388 3097 2138 3097 
Q 1578 3097 1268 2742 
Q 959 2388 959 1747 
Q 959 1106 1268 751 
Q 1578 397 2138 397 
Q 2388 397 2633 464 
Q 2878 531 3122 666 
L 3122 134 
Q 2881 22 2623 -34 
Q 2366 -91 2075 -91 
Q 1284 -91 818 406 
Q 353 903 353 1747 
Q 353 2603 823 3093 
Q 1294 3584 2113 3584 
Q 2378 3584 2631 3529 
Q 2884 3475 3122 3366 
z
" transform="scale(0.015625)"/>
       <path id="DejaVuSans-29" d="M 513 4856 
L 1013 4856 
Q 1481 4119 1714 3412 
Q 1947 2706 1947 2009 
Q 1947 1309 1714 600 
Q 1481 -109 1013 -844 
L 513 -844 
Q 928 -128 1133 580 
Q 1338 1288 1338 2009 
Q 1338 2731 1133 3434 
Q 928 4138 513 4856 
z
" transform="scale(0.015625)"/>
      </defs>
      <use xlink:href="#DejaVuSans-54"/>
      <use xlink:href="#DejaVuSans-69" transform="translate(57.958984 0)"/>
      <use xlink:href="#DejaVuSans-6d" transform="translate(85.742188 0)"/>
      <use xlink:href="#DejaVuSans-65" transform="translate(183.154297 0)"/>
      <use xlink:href="#DejaVuSans-20" transform="translate(244.677734 0)"/>
      <use xlink:href="#DejaVuSans-28" transform="translate(276.464844 0)"/>
      <use xlink:href="#DejaVuSans-73" transform="translate(315.478516 0)"/>
      <use xlink:href="#DejaVuSans-65" transform="translate(367.578125 0)"/>
      <use xlink:href="#DejaVuSans-63" transform="translate(429.101562 0)"/>
      <use xlink:href="#DejaVuSans-29" transform="translate(484.082031 0)"/>
     </g>
    </g>
   </g>
   <g id="matplotlib.axis_2">
    <g id="ytick_1">
     <g id="line2d_7">
      <defs>
       <path id="meef7af3c4e" d="M 0 0 
L -3.5 0 
" style="stroke: #000000; stroke-width: 0.8"/>
      </defs>
      <g>
       <use xlink:href="#meef7af3c4e" x="47.72" y="159.56" style="stroke: #000000; stroke-width: 0.8"/>
      </g>
     </g>
     <g id="text_8">
      <!-- 0.0 -->
      <g transform="translate(24.816875 163.359219) scale(0.1 -0.1)">
       <use xlink:href="#DejaVuSans-30"/>
       <use xlink:href="#DejaVuSans-2e" transform="translate(63.623047 0)"/>
       <use xlink:href="#DejaVuSans-30" transform="translate(95.410156 0)"/>
      </g>
     </g>
    </g>
    <g id="ytick_2">
     <g id="line2d_8">
      <g>
       <use xlink:href="#meef7af3c4e" x="47.72" y="130.6" style="stroke: #000000; stroke-width: 0.8"/>
      </g>
     </g>
     <g id="text_9">
      <!-- 0.2 -->
      <g transform="translate(24.816875 134.399219) scale(0.1 -0.1)">
       <use xlink:href="#DejaVuSans-30"/>
       <use xlink:href="#DejaVuSans-2e" transform="translate(63.623047 0)"/>
       <use xlink:href="#DejaVuSans-32" transform="translate(95.410156 0)"/>
      </g>
     </g>
    </g>
    <g id="ytick_3">
     <g id="line2d_9">
      <g>
       <use xlink:href="#meef7af3c4e" x="47.72" y="101.64" style="stroke: #000000; stroke-width: 0.8"/>
      </g>
     </g>
     <g id="text_10">
      <!-- 0.4 -->
      <g transform="translate(24.816875 105.439219) scale(0.1 -0.1)">
       <use xlink:href="#DejaVuSans-30"/>
       <use xlink:href="#DejaVuSans-2e" transform="translate(63.623047 0)"/>
       <use xlink:href="#DejaVuSans-34" transform="translate(95.410156 0)"/>
      </g>
     </g>
    </g>
    <g id="ytick_4">
     <g id="line2d_10">
      <g>
       <use xlink:href="#meef7af3c4e" x="47.72" y="72.68" style="stroke: #000000; stroke-width: 0.8"/>
      </g>
     </g>
     <g id="text_11">
      <!-- 0.6 -->
      <g transform="translate(24.816875 76.479219) scale(0.1 -0.1)">
       <use xlink:href="#DejaVuSans-30"/>
       <use xlink:href="#DejaVuSans-2e" transform="translate(63.623047 0)"/>
       <use xlink:href="#DejaVuSans-36" transform="translate(95.410156 0)"/>
      </g>
     </g>
    </g>
    <g id="ytick_5">
     <g id="line2d_11">
      <g>
       <use xlink:href="#meef7af3c4e" x="47.72" y="43.72" style="stroke: #000000; stroke-width: 0.8"/>
      </g>
     </g>
     <g id="text_12">
      <!-- 0.8 -->
      <g transform="translate(24.816875 47.519219) scale(0.1 -0.1)">
       <use xlink:href="#DejaVuSans-30"/>
       <use xlink:href="#DejaVuSans-2e" transform="translate(63.623047 0)"/>
       <use xlink:href="#DejaVuSans-38" transform="translate(95.410156 0)"/>
      </g>
     </g>
    </g>
    <g id="ytick_6">
     <g id="line2d_12">
      <g>
       <use xlink:href="#meef7af3c4e" x="47.72" y="14.76" style="stroke: #000000; stroke-width: 0.8"/>
      </g>
     </g>
     <g id="text_13">
      <!-- 1.0 -->
      <g transform="translate(24.816875 18.559219) scale(0.1 -0.1)">
       <use xlink:href="#DejaVuSans-31"/>
       <use xlink:href="#DejaVuSans-2e" transform="translate(63.623047 0)"/>
       <use xlink:href="#DejaVuSans-30" transform="translate(95.410156 0)"/>
      </g>
     </g>
    </g>
    <g id="text_14">
     <!-- Injected Signal -->
     <g transform="translate(18.737188 131.417969) rotate(-90) scale(0.1 -0.1)">
      <defs>
       <path id="DejaVuSans-49" d="M 628 4666 
L 1259 4666 
L 1259 0 
L 628 0 
L 628 4666 
z
" transform="scale(0.015625)"/>
       <path id="DejaVuSans-6e" d="M 3513 2113 
L 3513 0 
L 2938 0 
L 2938 2094 
Q 2938 2591 2744 2837 
Q 2550 3084 2163 3084 
Q 1697 3084 1428 2787 
Q 1159 2491 1159 1978 
L 1159 0 
L 581 0 
L 581 3500 
L 1159 3500 
L 1159 2956 
Q 1366 3272 1645 3428 
Q 1925 3584 2291 3584 
Q 2894 3584 3203 3211 
Q 3513 2838 3513 2113 
z
" transform="scale(0.015625)"/>
       <path id="DejaVuSans-6a" d="M 603 3500 
L 1178 3500 
L 1178 -63 
Q 1178 -731 923 -1031 
Q 669 -1331 103 -1331 
L -116 -1331 
L -116 -844 
L 38 -844 
Q 366 -844 484 -692 
Q 603 -541 603 -63 
L 603 3500 
z
M 603 4863 
L 1178 4863 
L 1178 4134 
L 603 4134 
L 603 4863 
z
" transform="scale(0.015625)"/>
       <path id="DejaVuSans-74" d="M 1172 4494 
L 1172 3500 
L 2356 3500 
L 2356 3053 
L 1172 3053 
L 1172 1153 
Q 1172 725 1289 603 
Q 1406 481 1766 481 
L 2356 481 
L 2356 0 
L 1766 0 
Q 1100 0 847 248 
Q 594 497 594 1153 
L 594 3053 
L 172 3053 
L 172 3500 
L 594 3500 
L 594 4494 
L 1172 4494 
z
" transform="scale(0.015625)"/>
       <path id="DejaVuSans-64" d="M 2906 2969 
L 2906 4863 
L 3481 4863 
L 3481 0 
L 2906 0 
L 2906 525 
Q 2725 213 2448 61 
Q 2172 -91 1784 -91 
Q 1150 -91 751 415 
Q 353 922 353 1747 
Q 353 2572 751 3078 
Q 1150 3584 1784 3584 
Q 2172 3584 2448 3432 
Q 2725 3281 2906 2969 
z
M 947 1747 
Q 947 1113 1208 752 
Q 1469 391 1925 391 
Q 2381 391 2643 752 
Q 2906 1113 2906 1747 
Q 2906 2381 2643 2742 
Q 2381 3103 1925 3103 
Q 1469 3103 1208 2742 
Q 947 2381 947 1747 
z
" transform="scale(0.015625)"/>
       <path id="DejaVuSans-53" d="M 3425 4513 
L 3425 3897 
Q 3066 4069 2747 4153 
Q 2428 4238 2131 4238 
Q 1616 4238 1336 4038 
Q 1056 3838 1056 3469 
Q 1056 3159 1242 3001 
Q 1428 2844 1947 2747 
L 2328 2669 
Q 3034 2534 3370 2195 
Q 3706 1856 3706 1288 
Q 3706 609 3251 259 
Q 2797 -91 1919 -91 
Q 1588 -91 1214 -16 
Q 841 59 441 206 
L 441 856 
Q 825 641 1194 531 
Q 1563 422 1919 422 
Q 2459 422 2753 634 
Q 3047 847 3047 1241 
Q 3047 1584 2836 1778 
Q 2625 1972 2144 2069 
L 1759 2144 
Q 1053 2284 737 2584 
Q 422 2884 422 3419 
Q 422 4038 858 4394 
Q 1294 4750 2059 4750 
Q 2388 4750 2728 4690 
Q 3069 4631 3425 4513 
z
" transform="scale(0.015625)"/>
       <path id="DejaVuSans-67" d="M 2906 1791 
Q 2906 2416 2648 2759 
Q 2391 3103 1925 3103 
Q 1463 3103 1205 2759 
Q 947 2416 947 1791 
Q 947 1169 1205 825 
Q 1463 481 1925 481 
Q 2391 481 2648 825 
Q 2906 1169 2906 1791 
z
M 3481 434 
Q 3481 -459 3084 -895 
Q 2688 -1331 1869 -1331 
Q 1566 -1331 1297 -1286 
Q 1028 -1241 775 -1147 
L 775 -588 
Q 1028 -725 1275 -790 
Q 1522 -856 1778 -856 
Q 2344 -856 2625 -561 
Q 2906 -266 2906 331 
L 2906 616 
Q 2728 306 2450 153 
Q 2172 0 1784 0 
Q 1141 0 747 490 
Q 353 981 353 1791 
Q 353 2603 747 3093 
Q 1141 3584 1784 3584 
Q 2172 3584 2450 3431 
Q 2728 3278 2906 2969 
L 2906 3500 
L 3481 3500 
L 3481 434 
z
" transform="scale(0.015625)"/>
       <path id="DejaVuSans-61" d="M 2194 1759 
Q 1497 1759 1228 1600 
Q 959 1441 959 1056 
Q 959 750 1161 570 
Q 1363 391 1709 391 
Q 2188 391 2477 730 
Q 2766 1069 2766 1631 
L 2766 1759 
L 2194 1759 
z
M 3341 1997 
L 3341 0 
L 2766 0 
L 2766 531 
Q 2569 213 2275 61 
Q 1981 -91 1556 -91 
Q 1019 -91 701 211 
Q 384 513 384 1019 
Q 384 1609 779 1909 
Q 1175 2209 1959 2209 
L 2766 2209 
L 2766 2266 
Q 2766 2663 2505 2880 
Q 2244 3097 1772 3097 
Q 1472 3097 1187 3025 
Q 903 2953 641 2809 
L 641 3341 
Q 956 3463 1253 3523 
Q 1550 3584 1831 3584 
Q 2591 3584 2966 3190 
Q 3341 2797 3341 1997 
z
" transform="scale(0.015625)"/>
       <path id="DejaVuSans-6c" d="M 603 4863 
L 1178 4863 
L 1178 0 
L 603 0 
L 603 4863 
z
" transform="scale(0.015625)"/>
      </defs>
      <use xlink:href="#DejaVuSans-49"/>
      <use xlink:href="#DejaVuSans-6e" transform="translate(29.492188 0)"/>
      <use xlink:href="#DejaVuSans-6a" transform="translate(92.871094 0)"/>
      <use xlink:href="#DejaVuSans-65" transform="translate(120.654297 0)"/>
      <use xlink:href="#DejaVuSans-63" transform="translate(182.177734 0)"/>
      <use xlink:href="#DejaVuSans-74" transform="translate(237.158203 0)"/>
      <use xlink:href="#DejaVuSans-65" transform="translate(276.367188 0)"/>
      <use xlink:href="#DejaVuSans-64" transform="translate(337.890625 0)"/>
      <use xlink:href="#DejaVuSans-20" transform="translate(401.367188 0)"/>
      <use xlink:href="#DejaVuSans-53" transform="translate(433.154297 0)"/>
      <use xlink:href="#DejaVuSans-69" transform="translate(496.630859 0)"/>
      <use xlink:href="#DejaVuSans-67" transform="translate(524.414062 0)"/>
      <use xlink:href="#DejaVuSans-6e" transform="translate(587.890625 0)"/>
      <use xlink:href="#DejaVuSans-61" transform="translate(651.269531 0)"/>
      <use xlink:href="#DejaVuSans-6c" transform="translate(712.548828 0)"/>
     </g>
    </g>
   </g>
   <g id="line2d_13">
    <path d="M 61.423636 101.448915 
L 61.697709 86.897309 
L 61.971782 57.395627 
L 62.245855 128.451998 
L 62.519927 105.294289 
L 63.068073 46.356574 
L 63.342145 101.174834 
L 63.616218 56.448104 
L 64.164364 106.282246 
L 64.438436 57.231199 
L 64.712509 89.658735 
L 64.986582 78.766847 
L 65.260655 61.329454 
L 65.534727 68.444333 
L 65.8088 43.819221 
L 66.082873 89.245213 
L 66.356945 104.115578 
L 66.631018 48.320606 
L 66.905091 122.889749 
L 67.453236 111.775454 
L 67.727309 55.799984 
L 68.001382 73.30435 
L 68.275455 46.728433 
L 68.549527 60.532387 
L 68.8236 84.358967 
L 69.097673 63.220399 
L 69.371745 114.697123 
L 69.645818 106.949874 
L 69.919891 55.838706 
L 70.193964 103.294893 
L 70.468036 113.578366 
L 70.742109 65.784638 
L 71.016182 66.462594 
L 71.290255 46.949011 
L 71.564327 97.172765 
L 71.8384 121.052289 
L 72.112473 67.431205 
L 72.386545 121.141796 
L 72.934691 61.599214 
L 73.482836 109.914239 
L 73.756909 77.063919 
L 74.030982 78.352608 
L 74.305055 115.195518 
L 74.579127 116.474893 
L 74.8532 125.457263 
L 75.127273 83.48724 
L 75.401345 122.41426 
L 75.949491 45.499168 
L 76.223564 84.188563 
L 76.497636 97.357168 
L 76.771709 102.260804 
L 77.045782 45.27165 
L 77.319855 110.176357 
L 77.593927 86.603828 
L 77.868 126.935183 
L 78.416145 46.433248 
L 78.690218 71.069366 
L 78.964291 117.424991 
L 79.238364 102.603314 
L 79.512436 53.538145 
L 79.786509 118.825102 
L 80.060582 116.262527 
L 80.334655 67.91204 
L 80.608727 123.609986 
L 80.8828 125.516803 
L 81.156873 57.333501 
L 81.430945 124.790238 
L 81.705018 76.129936 
L 81.979091 110.331853 
L 82.253164 106.345382 
L 82.527236 85.338816 
L 82.801309 103.911735 
L 83.075382 109.718171 
L 83.623527 98.073616 
L 83.8976 126.504765 
L 84.171673 77.892416 
L 84.445745 62.315797 
L 84.719818 124.321124 
L 85.267964 57.029072 
L 85.542036 72.918465 
L 85.816109 98.079903 
L 86.090182 95.393205 
L 86.364255 73.737859 
L 86.638327 122.448655 
L 86.9124 64.292217 
L 87.186473 117.148284 
L 87.460545 116.248547 
L 87.734618 65.658417 
L 88.008691 64.591469 
L 88.282764 73.607661 
L 88.556836 107.940307 
L 88.830909 127.290976 
L 89.653127 63.958172 
L 89.9272 100.500876 
L 90.201273 48.971845 
L 90.475345 105.646159 
L 90.749418 68.199029 
L 91.023491 129.193149 
L 91.297564 56.946134 
L 91.571636 59.416971 
L 91.845709 84.501321 
L 92.393855 57.493313 
L 92.667927 85.922723 
L 92.942 97.692673 
L 93.490145 52.569588 
L 93.764218 117.095897 
L 94.038291 109.378867 
L 94.312364 66.832895 
L 94.586436 82.864942 
L 94.860509 121.700868 
L 95.134582 74.400306 
L 95.408655 51.487988 
L 95.9568 129.659279 
L 96.230873 103.819501 
L 96.779018 113.83274 
L 97.053091 59.719527 
L 97.327164 112.991197 
L 97.601236 116.464542 
L 97.875309 115.15686 
L 98.149382 52.91614 
L 98.423455 125.853358 
L 98.697527 114.221313 
L 98.9716 110.124504 
L 99.245673 117.437673 
L 99.519745 121.56066 
L 99.793818 97.246736 
L 100.067891 83.138509 
L 100.341964 96.381366 
L 100.616036 54.649672 
L 101.164182 97.780296 
L 101.438255 71.331431 
L 101.712327 58.945606 
L 101.9864 110.321181 
L 102.260473 68.127288 
L 102.534545 78.268174 
L 103.082691 124.668304 
L 103.356764 107.157714 
L 103.630836 82.217472 
L 104.178982 114.192352 
L 104.453055 52.987603 
L 104.727127 49.319463 
L 105.0012 105.02229 
L 105.275273 53.036208 
L 105.549345 116.329576 
L 105.823418 93.293991 
L 106.097491 121.975495 
L 106.919709 54.439166 
L 107.193782 73.219083 
L 107.467855 125.15989 
L 107.741927 44.264253 
L 108.016 112.700025 
L 108.290073 129.215652 
L 108.564145 65.800488 
L 108.838218 73.035292 
L 109.112291 85.627888 
L 109.386364 121.931914 
L 109.660436 48.211181 
L 109.934509 110.763458 
L 110.208582 118.683199 
L 110.482655 77.801503 
L 110.756727 127.661214 
L 111.0308 66.303757 
L 111.853018 111.853602 
L 112.127091 64.704108 
L 112.401164 89.684496 
L 112.675236 129.676612 
L 112.949309 96.84169 
L 113.223382 129.991203 
L 113.497455 116.589029 
L 113.771527 47.408834 
L 114.0456 77.833636 
L 114.319673 63.855182 
L 114.593745 96.864974 
L 114.867818 47.2451 
L 115.141891 112.276752 
L 115.415964 90.977714 
L 115.690036 45.069249 
L 115.964109 85.932953 
L 116.238182 82.673026 
L 116.512255 51.974758 
L 116.786327 100.562559 
L 117.0604 50.574317 
L 117.334473 72.808542 
L 117.608545 119.560575 
L 117.882618 55.430268 
L 118.156691 115.884424 
L 118.430764 118.435651 
L 118.704836 46.867215 
L 118.978909 53.327979 
L 119.252982 48.816582 
L 119.527055 50.215471 
L 119.801127 64.170561 
L 120.0752 120.829753 
L 120.349273 66.95557 
L 120.623345 51.561863 
L 121.171491 124.844947 
L 121.445564 99.498544 
L 121.719636 52.351141 
L 121.993709 77.572887 
L 122.267782 70.631238 
L 122.541855 88.554732 
L 122.815927 64.19666 
L 123.09 62.013515 
L 123.364073 74.118273 
L 123.638145 76.628719 
L 123.912218 105.365377 
L 124.460364 67.832685 
L 125.008509 113.71206 
L 125.282582 80.381624 
L 125.556655 68.803667 
L 125.830727 115.540862 
L 126.1048 61.769083 
L 126.378873 106.381228 
L 126.652945 106.692033 
L 126.927018 67.762528 
L 127.201091 127.651326 
L 127.475164 97.936367 
L 127.749236 116.401024 
L 128.571455 78.697733 
L 128.845527 113.740476 
L 129.393673 69.317374 
L 129.667745 123.985864 
L 129.941818 124.765627 
L 130.215891 72.55846 
L 130.489964 121.167881 
L 131.312182 61.239536 
L 131.586255 130.594564 
L 131.860327 105.167835 
L 132.1344 55.400333 
L 132.408473 90.199948 
L 132.682545 53.209349 
L 132.956618 125.019321 
L 133.230691 75.222356 
L 133.504764 62.815343 
L 133.778836 116.325902 
L 134.052909 66.266007 
L 134.326982 66.510174 
L 134.601055 127.431221 
L 134.875127 97.629568 
L 135.1492 129.658502 
L 135.423273 124.811573 
L 135.697345 81.139619 
L 135.971418 90.112969 
L 136.245491 78.5445 
L 136.519564 93.307994 
L 136.793636 83.484701 
L 137.067709 115.584086 
L 137.341782 52.638208 
L 137.615855 123.489751 
L 137.889927 103.164263 
L 138.164 60.994016 
L 138.438073 48.784666 
L 138.712145 45.808816 
L 138.986218 103.709095 
L 139.260291 71.826079 
L 139.534364 83.596898 
L 139.808436 71.734229 
L 140.082509 80.012674 
L 140.356582 47.8394 
L 140.630655 122.181955 
L 140.904727 68.478814 
L 141.1788 106.891694 
L 141.452873 124.310852 
L 141.726945 77.886571 
L 142.001018 109.911741 
L 142.275091 106.225964 
L 142.549164 68.096921 
L 142.823236 57.271261 
L 143.097309 116.488134 
L 143.371382 100.37288 
L 143.645455 113.273214 
L 143.919527 95.377968 
L 144.1936 92.417618 
L 144.467673 108.044139 
L 144.741745 68.107983 
L 145.015818 68.113663 
L 145.289891 72.876844 
L 145.563964 44.862048 
L 145.838036 74.733603 
L 146.112109 125.548062 
L 146.386182 53.976457 
L 146.660255 123.581838 
L 146.934327 60.199699 
L 147.2084 67.665801 
L 147.482473 91.818839 
L 147.756545 60.018096 
L 148.030618 102.688643 
L 148.304691 111.52798 
L 148.578764 108.585568 
L 148.852836 108.683183 
L 149.126909 105.668458 
L 149.400982 91.984102 
L 149.675055 91.064913 
L 149.949127 124.012872 
L 150.2232 70.89445 
L 150.497273 81.539044 
L 150.771345 98.907699 
L 151.045418 53.033671 
L 151.319491 115.649495 
L 151.593564 78.659865 
L 151.867636 79.343552 
L 152.415782 121.316493 
L 152.689855 112.711966 
L 152.963927 126.713641 
L 153.238 113.907289 
L 153.512073 128.344988 
L 153.786145 51.159478 
L 154.060218 96.103852 
L 154.334291 99.697217 
L 154.608364 70.368242 
L 154.882436 61.580937 
L 155.156509 48.221497 
L 155.430582 58.186233 
L 155.704655 48.385611 
L 155.978727 85.592694 
L 156.2528 45.718725 
L 156.526873 108.696635 
L 156.800945 66.633837 
L 157.075018 113.21681 
L 157.623164 69.010846 
L 157.897236 74.603527 
L 158.171309 112.184825 
L 158.445382 88.621783 
L 158.719455 46.112134 
L 158.993527 125.750236 
L 159.2676 130.444709 
L 159.541673 104.766707 
L 159.815745 66.422173 
L 160.089818 55.455205 
L 160.363891 100.247212 
L 160.637964 121.687265 
L 160.912036 130.336081 
L 161.186109 59.542951 
L 161.460182 64.819987 
L 161.734255 123.979462 
L 162.008327 99.015958 
L 162.2824 120.129284 
L 162.556473 73.87711 
L 162.830545 100.448454 
L 163.378691 76.86882 
L 163.652764 88.312291 
L 163.926836 45.593515 
L 164.200909 117.02176 
L 164.474982 117.091142 
L 164.749055 44.784818 
L 165.023127 104.264107 
L 165.2972 71.747095 
L 165.571273 63.489839 
L 165.845345 70.843718 
L 166.119418 61.546357 
L 166.393491 70.628026 
L 166.667564 114.793318 
L 166.941636 117.182127 
L 167.215709 98.805879 
L 167.489782 98.490342 
L 167.763855 89.480189 
L 168.037927 68.996556 
L 168.586073 129.6175 
L 168.860145 66.613812 
L 169.134218 84.979162 
L 169.408291 64.760058 
L 169.682364 104.808098 
L 169.956436 97.771581 
L 170.230509 110.968187 
L 170.504582 74.463991 
L 170.778655 70.675755 
L 171.052727 76.508248 
L 171.3268 123.604175 
L 171.600873 105.47263 
L 171.874945 56.780768 
L 172.149018 72.021269 
L 172.423091 115.53321 
L 172.697164 122.745828 
L 172.971236 53.040683 
L 173.245309 97.972035 
L 173.519382 110.743663 
L 173.793455 111.678088 
L 174.067527 96.829821 
L 174.3416 74.687695 
L 174.615673 104.055353 
L 174.889745 47.732132 
L 175.437891 127.963537 
L 175.711964 128.650675 
L 175.986036 66.576838 
L 176.260109 103.554331 
L 176.534182 48.373956 
L 176.808255 109.518712 
L 177.082327 105.169297 
L 177.3564 68.256557 
L 177.630473 110.252346 
L 177.904545 73.086069 
L 178.178618 67.710497 
L 178.452691 83.344985 
L 178.726764 82.511984 
L 179.274909 126.169995 
L 179.548982 61.382413 
L 179.823055 92.335483 
L 180.097127 66.476987 
L 180.3712 60.124197 
L 180.645273 92.440294 
L 180.919345 80.170937 
L 181.193418 57.199739 
L 181.467491 129.588039 
L 181.741564 103.372118 
L 182.015636 115.873256 
L 182.289709 53.931945 
L 182.563782 109.659663 
L 182.837855 51.902219 
L 183.111927 90.165616 
L 183.386 96.589689 
L 183.660073 119.636941 
L 183.934145 105.840132 
L 184.208218 68.210649 
L 184.482291 66.016924 
L 184.756364 65.471108 
L 185.030436 66.021874 
L 185.304509 115.126322 
L 185.578582 128.552775 
L 186.126727 91.183314 
L 186.4008 118.970447 
L 186.948945 57.328809 
L 187.223018 66.973233 
L 187.497091 51.484683 
L 187.771164 52.834885 
L 188.045236 116.97094 
L 188.319309 75.035378 
L 188.593382 96.011705 
L 188.867455 91.814798 
L 189.141527 114.072434 
L 189.4156 55.969413 
L 189.689673 98.055121 
L 189.963745 121.522694 
L 190.237818 121.780775 
L 190.511891 61.535758 
L 190.785964 75.48607 
L 191.060036 62.851689 
L 191.334109 113.922519 
L 191.608182 115.403215 
L 191.882255 126.9671 
L 192.156327 74.229641 
L 192.4304 93.246065 
L 192.704473 61.183607 
L 192.978545 61.945644 
L 193.252618 116.835048 
L 193.526691 100.294462 
L 193.800764 75.069887 
L 194.074836 112.318905 
L 194.348909 84.830567 
L 194.622982 90.727446 
L 194.897055 121.235623 
L 195.171127 118.31932 
L 195.4452 130.350166 
L 195.719273 100.737965 
L 195.993345 48.369286 
L 196.267418 108.165979 
L 196.541491 77.25637 
L 196.815564 68.227619 
L 197.089636 96.717218 
L 197.363709 67.030044 
L 197.637782 112.901747 
L 197.911855 117.539195 
L 198.185927 91.762458 
L 198.46 130.284091 
L 198.734073 58.148277 
L 199.008145 66.128929 
L 199.282218 123.073875 
L 199.556291 66.340369 
L 199.830364 56.378406 
L 200.104436 68.973458 
L 200.378509 112.394234 
L 200.652582 69.328691 
L 200.926655 56.551236 
L 201.200727 60.899911 
L 201.748873 98.216472 
L 202.022945 44.761893 
L 202.571091 122.199786 
L 202.845164 124.186928 
L 203.119236 45.084281 
L 203.393309 94.833314 
L 203.667382 60.590162 
L 203.941455 62.64576 
L 204.215527 120.484607 
L 204.4896 95.160785 
L 204.763673 93.010402 
L 205.037745 89.607168 
L 205.311818 92.378034 
L 205.585891 55.576851 
L 205.859964 92.19542 
L 206.134036 88.586718 
L 206.408109 47.354156 
L 206.682182 89.572379 
L 206.956255 44.058549 
L 207.230327 102.911157 
L 207.5044 65.821779 
L 207.778473 93.557925 
L 208.052545 72.750154 
L 208.326618 120.57943 
L 208.600691 107.165714 
L 208.874764 64.190986 
L 209.148836 96.743407 
L 209.422909 54.771651 
L 209.696982 88.016653 
L 209.971055 51.408559 
L 210.245127 103.370966 
L 210.5192 95.10244 
L 210.793273 105.986822 
L 211.067345 102.053599 
L 211.341418 75.609382 
L 211.615491 109.851354 
L 211.889564 109.745189 
L 212.163636 91.020945 
L 212.437709 87.143861 
L 212.711782 73.497679 
L 212.985855 115.757799 
L 213.259927 71.423612 
L 213.534 71.271791 
L 213.808073 86.363293 
L 214.082145 53.534824 
L 214.356218 100.153619 
L 214.630291 52.27025 
L 214.904364 102.75348 
L 215.452509 44.424985 
L 215.726582 76.715292 
L 216.000655 59.552829 
L 216.5488 113.591902 
L 216.822873 55.556534 
L 217.096945 125.973983 
L 217.371018 102.246606 
L 217.645091 118.18725 
L 217.919164 44.516292 
L 218.193236 112.676695 
L 218.467309 125.495821 
L 218.741382 79.343832 
L 219.015455 128.291516 
L 219.289527 113.732786 
L 219.5636 52.636844 
L 219.837673 91.680291 
L 220.385818 117.38434 
L 220.659891 54.477009 
L 220.933964 56.379187 
L 221.208036 79.790948 
L 221.482109 87.575031 
L 221.756182 99.823013 
L 222.030255 70.45284 
L 222.304327 65.818545 
L 222.5784 112.13725 
L 222.852473 101.259211 
L 223.126545 73.926881 
L 223.400618 77.977725 
L 223.674691 51.666678 
L 223.948764 71.019816 
L 224.222836 45.146069 
L 224.496909 111.288068 
L 224.770982 98.934968 
L 225.045055 102.527113 
L 225.319127 126.301715 
L 225.5932 50.03592 
L 225.867273 100.528655 
L 226.141345 102.445268 
L 226.415418 129.080529 
L 226.689491 122.157262 
L 226.963564 45.879802 
L 227.237636 52.496876 
L 227.511709 84.91938 
L 227.785782 96.764979 
L 228.059855 60.825991 
L 228.333927 73.239117 
L 228.608 46.363601 
L 228.882073 52.873989 
L 229.156145 89.909764 
L 229.430218 111.656435 
L 229.704291 73.239985 
L 229.978364 106.752149 
L 230.252436 65.928799 
L 230.526509 54.163763 
L 230.800582 102.10104 
L 231.074655 48.735086 
L 231.6228 127.850095 
L 231.896873 85.703988 
L 232.170945 82.602286 
L 232.445018 77.07766 
L 232.719091 120.048155 
L 232.993164 75.088608 
L 233.267236 59.000413 
L 233.541309 84.154098 
L 233.815382 77.919706 
L 234.363527 116.352447 
L 234.6376 64.383091 
L 234.911673 102.17348 
L 235.185745 92.817572 
L 235.459818 47.626706 
L 236.007964 101.909349 
L 236.282036 51.295161 
L 236.556109 79.024017 
L 236.830182 67.757018 
L 237.104255 124.218092 
L 237.378327 74.755752 
L 237.6524 130.286009 
L 237.926473 76.35389 
L 238.200545 107.5169 
L 238.474618 95.054115 
L 238.748691 113.77809 
L 239.022764 124.342417 
L 239.296836 95.163521 
L 239.570909 92.659976 
L 239.844982 75.608752 
L 240.119055 102.604814 
L 240.6672 68.516978 
L 240.941273 126.1947 
L 241.215345 64.878233 
L 241.489418 86.050682 
L 241.763491 80.555824 
L 242.037564 85.459094 
L 242.311636 64.931853 
L 242.585709 103.993612 
L 242.859782 112.945063 
L 243.133855 81.053332 
L 243.407927 122.629141 
L 243.682 62.299143 
L 243.956073 107.058473 
L 244.230145 45.307459 
L 244.778291 120.384796 
L 245.052364 71.615827 
L 245.326436 75.549585 
L 245.600509 48.905297 
L 245.874582 45.726033 
L 246.148655 73.517716 
L 246.422727 114.217702 
L 246.6968 102.387392 
L 246.970873 46.128011 
L 247.244945 102.497804 
L 247.519018 115.682194 
L 248.067164 66.458315 
L 248.341236 98.490371 
L 248.615309 43.814991 
L 249.163455 127.78416 
L 249.437527 63.244215 
L 249.985673 130.37101 
L 250.533818 48.967149 
L 250.807891 73.938931 
L 251.081964 59.05031 
L 251.356036 95.258794 
L 251.630109 89.306847 
L 251.904182 90.600251 
L 252.178255 72.747633 
L 252.452327 83.890596 
L 252.7264 70.098158 
L 253.000473 86.382149 
L 253.274545 87.814283 
L 253.548618 90.758693 
L 253.822691 62.143549 
L 254.096764 107.013302 
L 254.370836 77.427471 
L 254.918982 128.318168 
L 255.193055 60.420608 
L 255.467127 106.5225 
L 255.7412 115.003538 
L 256.015273 60.163667 
L 256.289345 130.21076 
L 256.563418 52.302004 
L 256.837491 123.762834 
L 257.111564 126.178 
L 257.385636 63.398597 
L 257.659709 119.76816 
L 257.933782 78.25582 
L 258.207855 129.632998 
L 258.481927 52.443431 
L 258.756 61.916962 
L 259.030073 47.630655 
L 259.304145 125.891136 
L 259.578218 115.160481 
L 259.852291 92.152979 
L 260.126364 105.996241 
L 260.400436 107.240017 
L 260.674509 53.008288 
L 260.948582 102.506273 
L 261.222655 119.75339 
L 261.496727 112.828751 
L 261.7708 62.487242 
L 262.044873 130.157078 
L 262.318945 109.243585 
L 262.593018 129.656816 
L 263.141164 98.538144 
L 263.415236 123.616928 
L 263.689309 115.758617 
L 263.963382 95.919724 
L 264.237455 128.553409 
L 264.511527 111.004425 
L 264.7856 62.749055 
L 265.059673 54.865755 
L 265.333745 83.351842 
L 265.607818 77.303391 
L 265.881891 93.872921 
L 266.155964 62.243072 
L 266.430036 119.72842 
L 266.704109 65.973842 
L 266.978182 120.747264 
L 267.252255 81.376726 
L 267.526327 78.89355 
L 267.8004 45.255688 
L 268.074473 71.845193 
L 268.348545 86.16332 
L 268.622618 49.851658 
L 268.896691 130.130665 
L 269.170764 118.7367 
L 269.718909 52.543069 
L 270.267055 86.550692 
L 270.541127 80.156543 
L 270.8152 78.600072 
L 271.089273 96.503947 
L 271.363345 79.423963 
L 271.637418 106.171951 
L 271.911491 60.556801 
L 272.185564 86.915488 
L 272.459636 69.320222 
L 272.733709 70.456965 
L 273.007782 130.077534 
L 273.281855 85.94171 
L 273.555927 108.140836 
L 273.83 68.896151 
L 274.104073 48.880609 
L 274.378145 48.27322 
L 274.652218 86.861232 
L 275.200364 47.250847 
L 275.474436 104.707062 
L 275.748509 103.922017 
L 276.022582 53.601856 
L 276.296655 115.121092 
L 276.570727 110.190256 
L 276.8448 121.863256 
L 277.118873 73.174061 
L 277.392945 123.23289 
L 277.667018 127.213822 
L 277.941091 114.087203 
L 278.215164 89.062279 
L 278.489236 92.732068 
L 278.763309 58.297835 
L 279.037382 72.371954 
L 279.311455 102.37053 
L 279.585527 102.101943 
L 279.8596 77.31235 
L 280.133673 99.455256 
L 280.407745 49.876158 
L 280.681818 102.514399 
L 280.955891 78.880142 
L 281.229964 117.177338 
L 281.504036 98.144481 
L 281.778109 94.639919 
L 282.052182 121.152485 
L 282.326255 111.993895 
L 282.600327 89.806245 
L 282.8744 94.391872 
L 283.148473 86.014646 
L 283.422545 48.558412 
L 283.696618 129.86118 
L 283.970691 109.504226 
L 284.244764 74.586179 
L 284.518836 107.119756 
L 284.792909 86.650866 
L 285.066982 81.435169 
L 285.341055 59.320529 
L 285.615127 108.243414 
L 285.8892 97.735845 
L 286.163273 94.387922 
L 286.437345 54.598882 
L 286.711418 68.8025 
L 286.985491 73.928545 
L 287.259564 116.278732 
L 287.533636 50.275516 
L 287.807709 56.9168 
L 288.081782 57.07566 
L 288.355855 72.538595 
L 288.629927 124.83083 
L 288.904 125.350867 
L 289.178073 111.716923 
L 289.452145 63.240079 
L 289.726218 70.302712 
L 290.000291 50.400794 
L 290.274364 91.328131 
L 290.548436 98.466227 
L 290.822509 54.014654 
L 291.096582 116.768842 
L 291.370655 65.027257 
L 291.644727 126.576947 
L 291.9188 48.347172 
L 292.192873 122.702312 
L 292.466945 61.294201 
L 292.741018 117.465816 
L 293.015091 96.642544 
L 293.289164 92.274238 
L 293.837309 70.684056 
L 294.111382 96.598162 
L 294.385455 71.361704 
L 294.9336 51.175171 
L 295.207673 103.494864 
L 295.481745 55.483797 
L 295.755818 93.6375 
L 296.029891 113.021949 
L 296.303964 84.485018 
L 296.578036 107.026155 
L 296.852109 104.763766 
L 297.126182 47.093266 
L 297.400255 72.375763 
L 297.674327 125.529267 
L 297.9484 45.362478 
L 298.222473 126.982936 
L 298.496545 130.165785 
L 299.044691 46.367045 
L 299.318764 65.3913 
L 299.592836 101.972364 
L 299.866909 77.941618 
L 300.140982 80.169976 
L 300.415055 74.898739 
L 300.689127 71.982112 
L 300.9632 96.861081 
L 301.237273 66.484902 
L 301.511345 91.998527 
L 301.785418 85.980979 
L 302.059491 58.175762 
L 302.333564 81.703908 
L 302.607636 125.196352 
L 302.881709 73.053109 
L 303.155782 78.026995 
L 303.429855 53.054942 
L 303.703927 51.657569 
L 303.978 110.840742 
L 304.252073 101.442155 
L 304.526145 57.586821 
L 304.800218 120.564572 
L 305.074291 94.662751 
L 305.348364 111.024519 
L 305.622436 89.850762 
L 305.896509 101.471676 
L 306.170582 81.564419 
L 306.444655 110.963655 
L 306.718727 115.528874 
L 306.9928 124.531437 
L 307.266873 96.738307 
L 307.540945 109.770282 
L 307.815018 64.038899 
L 308.089091 110.402101 
L 308.363164 93.354624 
L 308.637236 113.799696 
L 308.911309 91.936171 
L 309.185382 97.831372 
L 309.459455 110.008761 
L 309.733527 108.454782 
L 310.0076 97.383176 
L 310.281673 77.207183 
L 310.555745 95.90828 
L 310.829818 56.282042 
L 311.103891 87.933446 
L 311.377964 73.329432 
L 311.652036 114.172989 
L 311.926109 100.638308 
L 312.200182 110.930608 
L 312.474255 57.256529 
L 313.0224 130.265002 
L 313.296473 103.580068 
L 313.570545 127.490366 
L 313.844618 45.547448 
L 314.118691 99.909104 
L 314.666836 81.674863 
L 314.940909 99.786975 
L 315.214982 61.965536 
L 315.489055 129.965338 
L 315.763127 118.810382 
L 316.0372 65.205548 
L 316.311273 44.342929 
L 317.133491 82.539888 
L 317.407564 48.268512 
L 317.681636 105.350161 
L 317.955709 94.74609 
L 318.229782 101.18439 
L 318.503855 126.284639 
L 318.777927 52.080725 
L 319.052 71.97214 
L 319.326073 105.949582 
L 319.600145 79.180542 
L 319.874218 102.694747 
L 320.148291 95.948861 
L 320.422364 119.880228 
L 320.696436 54.052314 
L 320.970509 69.415459 
L 321.244582 113.304558 
L 321.518655 107.66529 
L 321.792727 126.8056 
L 322.340873 91.187889 
L 322.614945 88.378831 
L 322.889018 77.150187 
L 323.163091 92.907343 
L 323.437164 73.944121 
L 323.711236 72.978161 
L 323.985309 78.542534 
L 324.259382 118.36554 
L 324.533455 51.535862 
L 324.807527 79.96842 
L 325.0816 84.310478 
L 325.355673 80.927521 
L 325.629745 58.834023 
L 325.903818 107.835663 
L 326.177891 76.234373 
L 326.451964 90.231311 
L 326.726036 83.150414 
L 327.000109 71.665694 
L 327.274182 83.205201 
L 327.548255 84.016138 
L 327.822327 116.857282 
L 328.0964 55.640634 
L 328.370473 114.131799 
L 328.644545 126.262864 
L 328.918618 46.198617 
L 329.192691 120.848308 
L 329.740836 60.69095 
L 330.014909 73.119914 
L 330.288982 116.716491 
L 330.563055 79.545145 
L 330.837127 128.779905 
L 331.1112 79.051013 
L 331.385273 88.168373 
L 331.659345 114.449845 
L 331.933418 91.52231 
L 332.207491 122.252825 
L 332.481564 57.093744 
L 332.755636 70.014172 
L 333.303782 116.267501 
L 333.577855 74.5182 
L 333.851927 122.723175 
L 334.126 90.861966 
L 334.674145 112.225024 
L 334.948218 88.226292 
L 335.222291 114.468596 
L 335.222291 114.468596 
" clip-path="url(#pc8ab7c984f)" style="fill: none; stroke: #1f77b4; stroke-width: 1.5; stroke-linecap: square"/>
   </g>
   <g id="line2d_14">
    <path d="M 61.423636 87.16 
L 335.496364 87.16 
" clip-path="url(#pc8ab7c984f)" style="fill: none; stroke-dasharray: 7.4,3.2; stroke-dashoffset: 0; stroke: #ff0000; stroke-width: 2"/>
   </g>
   <g id="line2d_15">
    <path d="M 192.978545 87.16 
L 203.941455 87.16 
" clip-path="url(#pc8ab7c984f)" style="fill: none; stroke: #000000; stroke-width: 2; stroke-linecap: square"/>
   </g>
   <g id="line2d_16">
    <path d="M 192.978545 43.72 
L 203.941455 43.72 
" clip-path="url(#pc8ab7c984f)" style="fill: none; stroke: #000000; stroke-width: 2; stroke-linecap: square"/>
   </g>
   <g id="line2d_17">
    <path d="M 198.46 87.16 
L 198.46 43.72 
" clip-path="url(#pc8ab7c984f)" style="fill: none; stroke: #000000; stroke-width: 2; stroke-linecap: square"/>
   </g>
   <g id="line2d_18">
    <path d="M 192.978545 159.56 
L 203.941455 159.56 
" clip-path="url(#pc8ab7c984f)" style="fill: none; stroke: #000000; stroke-width: 2; stroke-linecap: square"/>
   </g>
   <g id="line2d_19">
    <path d="M 198.46 159.56 
L 198.46 87.16 
" clip-path="url(#pc8ab7c984f)" style="fill: none; stroke: #000000; stroke-width: 2; stroke-linecap: square"/>
   </g>
   <g id="patch_3">
    <path d="M 47.72 174.04 
L 47.72 14.76 
" style="fill: none; stroke: #000000; stroke-width: 0.8; stroke-linejoin: miter; stroke-linecap: square"/>
   </g>
   <g id="patch_4">
    <path d="M 349.2 174.04 
L 349.2 14.76 
" style="fill: none; stroke: #000000; stroke-width: 0.8; stroke-linejoin: miter; stroke-linecap: square"/>
   </g>
   <g id="patch_5">
    <path d="M 47.72 174.04 
L 349.2 174.04 
" style="fill: none; stroke: #000000; stroke-width: 0.8; stroke-linejoin: miter; stroke-linecap: square"/>
   </g>
   <g id="patch_6">
    <path d="M 47.72 14.76 
L 349.2 14.76 
" style="fill: none; stroke: #000000; stroke-width: 0.8; stroke-linejoin: miter; stroke-linecap: square"/>
   </g>
   <g id="text_15">
    <g id="patch_7">
     <path d="M 205.422909 71.519688 
L 235.015097 71.519688 
L 235.015097 53.841563 
L 205.422909 53.841563 
z
" style="fill: #ffffff; opacity: 0.8; stroke: #000000; stroke-linejoin: miter"/>
    </g>
    <!-- gain -->
    <g transform="translate(209.422909 65.44) scale(0.1 -0.1)">
     <use xlink:href="#DejaVuSans-67"/>
     <use xlink:href="#DejaVuSans-61" transform="translate(63.476562 0)"/>
     <use xlink:href="#DejaVuSans-69" transform="translate(124.755859 0)"/>
     <use xlink:href="#DejaVuSans-6e" transform="translate(152.539062 0)"/>
    </g>
   </g>
   <g id="text_16">
    <g id="patch_8">
     <path d="M 205.422909 129.439688 
L 241.865097 129.439688 
L 241.865097 111.761563 
L 205.422909 111.761563 
z
" style="fill: #ffffff; opacity: 0.8; stroke: #000000; stroke-linejoin: miter"/>
    </g>
    <!-- offset -->
    <g transform="translate(209.422909 123.36) scale(0.1 -0.1)">
     <defs>
      <path id="DejaVuSans-6f" d="M 1959 3097 
Q 1497 3097 1228 2736 
Q 959 2375 959 1747 
Q 959 1119 1226 758 
Q 1494 397 1959 397 
Q 2419 397 2687 759 
Q 2956 1122 2956 1747 
Q 2956 2369 2687 2733 
Q 2419 3097 1959 3097 
z
M 1959 3584 
Q 2709 3584 3137 3096 
Q 3566 2609 3566 1747 
Q 3566 888 3137 398 
Q 2709 -91 1959 -91 
Q 1206 -91 779 398 
Q 353 888 353 1747 
Q 353 2609 779 3096 
Q 1206 3584 1959 3584 
z
" transform="scale(0.015625)"/>
      <path id="DejaVuSans-66" d="M 2375 4863 
L 2375 4384 
L 1825 4384 
Q 1516 4384 1395 4259 
Q 1275 4134 1275 3809 
L 1275 3500 
L 2222 3500 
L 2222 3053 
L 1275 3053 
L 1275 0 
L 697 0 
L 697 3053 
L 147 3053 
L 147 3500 
L 697 3500 
L 697 3744 
Q 697 4328 969 4595 
Q 1241 4863 1831 4863 
L 2375 4863 
z
" transform="scale(0.015625)"/>
     </defs>
     <use xlink:href="#DejaVuSans-6f"/>
     <use xlink:href="#DejaVuSans-66" transform="translate(61.181641 0)"/>
     <use xlink:href="#DejaVuSans-66" transform="translate(96.386719 0)"/>
     <use xlink:href="#DejaVuSans-73" transform="translate(131.591797 0)"/>
     <use xlink:href="#DejaVuSans-65" transform="translate(183.691406 0)"/>
     <use xlink:href="#DejaVuSans-74" transform="translate(245.214844 0)"/>
    </g>
   </g>
  </g>
 </g>
 <defs>
  <clipPath id="pc8ab7c984f">
   <rect x="47.72" y="14.76" width="301.48" height="159.28"/>
  </clipPath>
 </defs>
</svg>
