<?xml version="1.0" encoding="utf-8" standalone="no"?>
<!DOCTYPE svg PUBLIC "-//W3C//DTD SVG 1.1//EN"
  "http://www.w3.org/Graphics/SVG/1.1/DTD/svg11.dtd">
<svg xmlns:xlink="http://www.w3.org/1999/xlink" width="360pt" height="216pt" viewBox="0 0 360 216" xmlns="http://www.w3.org/2000/svg" version="1.1">
 <metadata>
  <rdf:RDF xmlns:dc="http://purl.org/dc/elements/1.1/" xmlns:cc="http://creativecommons.org/ns#" xmlns:rdf="http://www.w3.org/1999/02/22-rdf-syntax-ns#">
   <cc:Work>
    <dc:type rdf:resource="http://purl.org/dc/dcmitype/StillImage"/>
    <dc:date>2026-06-15T16:48:36.942796</dc:date>
    <dc:format>image/svg+xml</dc:format>
    <dc:creator>
     <cc:Agent>
      <dc:title>Matplotlib v3.11.0, https://matplotlib.org/</dc:title>
     </cc:Agent>
    </dc:creator>
   </cc:Work>
  </rdf:RDF>
 </metadata>
 <defs>
  <style type="text/css">*{stroke-linejoin: round; stroke-linecap: butt}</style>
 </defs>
 <g id="figure_1">
  <g id="patch_1">
   <path d="M 0 216 
L 360 216 
L 360 0 
L 0 0 
z
" style="fill: #ffffff"/>
  </g>
  <g id="axes_1">
   <g id="patch_2">
    <path d="M 47.962344 173.877656 
L 349.2 173.877656 
L 349.2 14.598828 
L 47.962344 14.598828 
z
" style="fill: #ffffff"/>
   </g>
   <g id="matplotlib.axis_1">
    <g id="xtick_1">
     <g id="line2d_1">
      <defs>
       <path id="m37f495b5c6" d="M 0 0 
L 0 3.5 
" style="stroke: #000000; stroke-width: 0.8"/>
      </defs>
      <g>
       <use xlink:href="#m37f495b5c6" x="61.654964" y="173.877656" style="stroke: #000000; stroke-width: 0.8"/>
      </g>
     </g>
     <g id="text_1">
      <!-- 0.0 -->
      <g transform="translate(53.703402 188.475313) scale(0.1 -0.1)">
       <defs>
        <path id="DejaVuSans-13" d="M 2034 4250 
Q 1547 4250 1301 3770 
Q 1056 3291 1056 2328 
Q 1056 1369 1301 889 
Q 1547 409 2034 409 
Q 2525 409 2770 889 
Q 3016 1369 3016 2328 
Q 3016 3291 2770 3770 
Q 2525 4250 2034 4250 
z
M 2034 4750 
Q 2819 4750 3233 4129 
Q 3647 3509 3647 2328 
Q 3647 1150 3233 529 
Q 2819 -91 2034 -91 
Q 1250 -91 836 529 
Q 422 1150 422 2328 
Q 422 3509 836 4129 
Q 1250 4750 2034 4750 
z
" transform="scale(0.015625)"/>
        <path id="DejaVuSans-11" d="M 684 794 
L 1344 794 
L 1344 0 
L 684 0 
L 684 794 
z
" transform="scale(0.015625)"/>
       </defs>
       <use xlink:href="#DejaVuSans-13"/>
       <use xlink:href="#DejaVuSans-11" transform="translate(63.625 0)"/>
       <use xlink:href="#DejaVuSans-13" transform="translate(95.40625 0)"/>
      </g>
     </g>
    </g>
    <g id="xtick_2">
     <g id="line2d_2">
      <g>
       <use xlink:href="#m37f495b5c6" x="116.425447" y="173.877656" style="stroke: #000000; stroke-width: 0.8"/>
      </g>
     </g>
     <g id="text_2">
      <!-- 0.2 -->
      <g transform="translate(108.473885 188.475313) scale(0.1 -0.1)">
       <defs>
        <path id="DejaVuSans-15" d="M 1228 531 
L 3431 531 
L 3431 0 
L 469 0 
L 469 531 
Q 828 903 1448 1529 
Q 2069 2156 2228 2338 
Q 2531 2678 2651 2914 
Q 2772 3150 2772 3378 
Q 2772 3750 2511 3984 
Q 2250 4219 1831 4219 
Q 1534 4219 1204 4116 
Q 875 4013 500 3803 
L 500 4441 
Q 881 4594 1212 4672 
Q 1544 4750 1819 4750 
Q 2544 4750 2975 4387 
Q 3406 4025 3406 3419 
Q 3406 3131 3298 2873 
Q 3191 2616 2906 2266 
Q 2828 2175 2409 1742 
Q 1991 1309 1228 531 
z
" transform="scale(0.015625)"/>
       </defs>
       <use xlink:href="#DejaVuSans-13"/>
       <use xlink:href="#DejaVuSans-11" transform="translate(63.625 0)"/>
       <use xlink:href="#DejaVuSans-15" transform="translate(95.40625 0)"/>
      </g>
     </g>
    </g>
    <g id="xtick_3">
     <g id="line2d_3">
      <g>
       <use xlink:href="#m37f495b5c6" x="171.19593" y="173.877656" style="stroke: #000000; stroke-width: 0.8"/>
      </g>
     </g>
     <g id="text_3">
      <!-- 0.4 -->
      <g transform="translate(163.244368 188.475313) scale(0.1 -0.1)">
       <defs>
        <path id="DejaVuSans-17" d="M 2419 4116 
L 825 1625 
L 2419 1625 
L 2419 4116 
z
M 2253 4666 
L 3047 4666 
L 3047 1625 
L 3713 1625 
L 3713 1100 
L 3047 1100 
L 3047 0 
L 2419 0 
L 2419 1100 
L 313 1100 
L 313 1709 
L 2253 4666 
z
" transform="scale(0.015625)"/>
       </defs>
       <use xlink:href="#DejaVuSans-13"/>
       <use xlink:href="#DejaVuSans-11" transform="translate(63.625 0)"/>
       <use xlink:href="#DejaVuSans-17" transform="translate(95.40625 0)"/>
      </g>
     </g>
    </g>
    <g id="xtick_4">
     <g id="line2d_4">
      <g>
       <use xlink:href="#m37f495b5c6" x="225.966413" y="173.877656" style="stroke: #000000; stroke-width: 0.8"/>
      </g>
     </g>
     <g id="text_4">
      <!-- 0.6 -->
      <g transform="translate(218.014851 188.475313) scale(0.1 -0.1)">
       <defs>
        <path id="DejaVuSans-19" d="M 2113 2584 
Q 1688 2584 1439 2293 
Q 1191 2003 1191 1497 
Q 1191 994 1439 701 
Q 1688 409 2113 409 
Q 2538 409 2786 701 
Q 3034 994 3034 1497 
Q 3034 2003 2786 2293 
Q 2538 2584 2113 2584 
z
M 3366 4563 
L 3366 3988 
Q 3128 4100 2886 4159 
Q 2644 4219 2406 4219 
Q 1781 4219 1451 3797 
Q 1122 3375 1075 2522 
Q 1259 2794 1537 2939 
Q 1816 3084 2150 3084 
Q 2853 3084 3261 2657 
Q 3669 2231 3669 1497 
Q 3669 778 3244 343 
Q 2819 -91 2113 -91 
Q 1303 -91 875 529 
Q 447 1150 447 2328 
Q 447 3434 972 4092 
Q 1497 4750 2381 4750 
Q 2619 4750 2861 4703 
Q 3103 4656 3366 4563 
z
" transform="scale(0.015625)"/>
       </defs>
       <use xlink:href="#DejaVuSans-13"/>
       <use xlink:href="#DejaVuSans-11" transform="translate(63.625 0)"/>
       <use xlink:href="#DejaVuSans-19" transform="translate(95.40625 0)"/>
      </g>
     </g>
    </g>
    <g id="xtick_5">
     <g id="line2d_5">
      <g>
       <use xlink:href="#m37f495b5c6" x="280.736896" y="173.877656" style="stroke: #000000; stroke-width: 0.8"/>
      </g>
     </g>
     <g id="text_5">
      <!-- 0.8 -->
      <g transform="translate(272.785334 188.475313) scale(0.1 -0.1)">
       <defs>
        <path id="DejaVuSans-1b" d="M 2034 2216 
Q 1584 2216 1326 1975 
Q 1069 1734 1069 1313 
Q 1069 891 1326 650 
Q 1584 409 2034 409 
Q 2484 409 2743 651 
Q 3003 894 3003 1313 
Q 3003 1734 2745 1975 
Q 2488 2216 2034 2216 
z
M 1403 2484 
Q 997 2584 770 2862 
Q 544 3141 544 3541 
Q 544 4100 942 4425 
Q 1341 4750 2034 4750 
Q 2731 4750 3128 4425 
Q 3525 4100 3525 3541 
Q 3525 3141 3298 2862 
Q 3072 2584 2669 2484 
Q 3125 2378 3379 2068 
Q 3634 1759 3634 1313 
Q 3634 634 3220 271 
Q 2806 -91 2034 -91 
Q 1263 -91 848 271 
Q 434 634 434 1313 
Q 434 1759 690 2068 
Q 947 2378 1403 2484 
z
M 1172 3481 
Q 1172 3119 1398 2916 
Q 1625 2713 2034 2713 
Q 2441 2713 2670 2916 
Q 2900 3119 2900 3481 
Q 2900 3844 2670 4047 
Q 2441 4250 2034 4250 
Q 1625 4250 1398 4047 
Q 1172 3844 1172 3481 
z
" transform="scale(0.015625)"/>
       </defs>
       <use xlink:href="#DejaVuSans-13"/>
       <use xlink:href="#DejaVuSans-11" transform="translate(63.625 0)"/>
       <use xlink:href="#DejaVuSans-1b" transform="translate(95.40625 0)"/>
      </g>
     </g>
    </g>
    <g id="xtick_6">
     <g id="line2d_6">
      <g>
       <use xlink:href="#m37f495b5c6" x="335.507379" y="173.877656" style="stroke: #000000; stroke-width: 0.8"/>
      </g>
     </g>
     <g id="text_6">
      <!-- 1.0 -->
      <g transform="translate(327.555817 188.475313) scale(0.1 -0.1)">
       <defs>
        <path id="DejaVuSans-14" d="M 794 531 
L 1825 531 
L 1825 4091 
L 703 3866 
L 703 4441 
L 1819 4666 
L 2450 4666 
L 2450 531 
L 3481 531 
L 3481 0 
L 794 0 
L 794 531 
z
" transform="scale(0.015625)"/>
       </defs>
       <use xlink:href="#DejaVuSans-14"/>
       <use xlink:href="#DejaVuSans-11" transform="translate(63.625 0)"/>
       <use xlink:href="#DejaVuSans-13" transform="translate(95.40625 0)"/>
      </g>
     </g>
    </g>
    <g id="text_7">
     <!-- Time (sec) -->
     <g transform="translate(172.424141 202.476094) scale(0.1 -0.1)">
      <defs>
       <path id="DejaVuSans-37" d="M -19 4666 
L 3928 4666 
L 3928 4134 
L 2272 4134 
L 2272 0 
L 1638 0 
L 1638 4134 
L -19 4134 
L -19 4666 
z
" transform="scale(0.015625)"/>
       <path id="DejaVuSans-4c" d="M 603 3500 
L 1178 3500 
L 1178 0 
L 603 0 
L 603 3500 
z
M 603 4863 
L 1178 4863 
L 1178 4134 
L 603 4134 
L 603 4863 
z
" transform="scale(0.015625)"/>
       <path id="DejaVuSans-50" d="M 3328 2828 
Q 3544 3216 3844 3400 
Q 4144 3584 4550 3584 
Q 5097 3584 5394 3201 
Q 5691 2819 5691 2113 
L 5691 0 
L 5113 0 
L 5113 2094 
Q 5113 2597 4934 2840 
Q 4756 3084 4391 3084 
Q 3944 3084 3684 2787 
Q 3425 2491 3425 1978 
L 3425 0 
L 2847 0 
L 2847 2094 
Q 2847 2600 2669 2842 
Q 2491 3084 2119 3084 
Q 1678 3084 1418 2786 
Q 1159 2488 1159 1978 
L 1159 0 
L 581 0 
L 581 3500 
L 1159 3500 
L 1159 2956 
Q 1356 3278 1631 3431 
Q 1906 3584 2284 3584 
Q 2666 3584 2933 3390 
Q 3200 3197 3328 2828 
z
" transform="scale(0.015625)"/>
       <path id="DejaVuSans-48" d="M 3597 1894 
L 3597 1613 
L 953 1613 
Q 991 1019 1311 708 
Q 1631 397 2203 397 
Q 2534 397 2845 478 
Q 3156 559 3463 722 
L 3463 178 
Q 3153 47 2828 -22 
Q 2503 -91 2169 -91 
Q 1331 -91 842 396 
Q 353 884 353 1716 
Q 353 2575 817 3079 
Q 1281 3584 2069 3584 
Q 2775 3584 3186 3129 
Q 3597 2675 3597 1894 
z
M 3022 2063 
Q 3016 2534 2758 2815 
Q 2500 3097 2075 3097 
Q 1594 3097 1305 2825 
Q 1016 2553 972 2059 
L 3022 2063 
z
" transform="scale(0.015625)"/>
       <path id="DejaVuSans-3" transform="scale(0.015625)"/>
       <path id="DejaVuSans-b" d="M 1984 4856 
Q 1566 4138 1362 3434 
Q 1159 2731 1159 2009 
Q 1159 1288 1364 580 
Q 1569 -128 1984 -844 
L 1484 -844 
Q 1016 -109 783 600 
Q 550 1309 550 2009 
Q 550 2706 781 3412 
Q 1013 4119 1484 4856 
L 1984 4856 
z
" transform="scale(0.015625)"/>
       <path id="DejaVuSans-56" d="M 2834 3397 
L 2834 2853 
Q 2591 2978 2328 3040 
Q 2066 3103 1784 3103 
Q 1356 3103 1142 2972 
Q 928 2841 928 2578 
Q 928 2378 1081 2264 
Q 1234 2150 1697 2047 
L 1894 2003 
Q 2506 1872 2764 1633 
Q 3022 1394 3022 966 
Q 3022 478 2636 193 
Q 2250 -91 1575 -91 
Q 1294 -91 989 -36 
Q 684 19 347 128 
L 347 722 
Q 666 556 975 473 
Q 1284 391 1588 391 
Q 1994 391 2212 530 
Q 2431 669 2431 922 
Q 2431 1156 2273 1281 
Q 2116 1406 1581 1522 
L 1381 1569 
Q 847 1681 609 1914 
Q 372 2147 372 2553 
Q 372 3047 722 3315 
Q 1072 3584 1716 3584 
Q 2034 3584 2315 3537 
Q 2597 3491 2834 3397 
z
" transform="scale(0.015625)"/>
       <path id="DejaVuSans-46" d="M 3122 3366 
L 3122 2828 
Q 2878 2963 2633 3030 
Q 2388 3097 2138 3097 
Q 1578 3097 1268 2742 
Q 959 2388 959 1747 
Q 959 1106 1268 751 
Q 1578 397 2138 397 
Q 2388 397 2633 464 
Q 2878 531 3122 666 
L 3122 134 
Q 2881 22 2623 -34 
Q 2366 -91 2075 -91 
Q 1284 -91 818 406 
Q 353 903 353 1747 
Q 353 2603 823 3093 
Q 1294 3584 2113 3584 
Q 2378 3584 2631 3529 
Q 2884 3475 3122 3366 
z
" transform="scale(0.015625)"/>
       <path id="DejaVuSans-c" d="M 513 4856 
L 1013 4856 
Q 1481 4119 1714 3412 
Q 1947 2706 1947 2009 
Q 1947 1309 1714 600 
Q 1481 -109 1013 -844 
L 513 -844 
Q 928 -128 1133 580 
Q 1338 1288 1338 2009 
Q 1338 2731 1133 3434 
Q 928 4138 513 4856 
z
" transform="scale(0.015625)"/>
      </defs>
      <use xlink:href="#DejaVuSans-37"/>
      <use xlink:href="#DejaVuSans-4c" transform="translate(58 0)"/>
      <use xlink:href="#DejaVuSans-50" transform="translate(85.78125 0)"/>
      <use xlink:href="#DejaVuSans-48" transform="translate(183.1875 0)"/>
      <use xlink:href="#DejaVuSans-3" transform="translate(244.71875 0)"/>
      <use xlink:href="#DejaVuSans-b" transform="translate(276.5 0)"/>
      <use xlink:href="#DejaVuSans-56" transform="translate(315.515625 0)"/>
      <use xlink:href="#DejaVuSans-48" transform="translate(367.609375 0)"/>
      <use xlink:href="#DejaVuSans-46" transform="translate(429.140625 0)"/>
      <use xlink:href="#DejaVuSans-c" transform="translate(484.125 0)"/>
     </g>
    </g>
   </g>
   <g id="matplotlib.axis_2">
    <g id="ytick_1">
     <g id="line2d_7">
      <defs>
       <path id="m4112a0016d" d="M 0 0 
L -3.5 0 
" style="stroke: #000000; stroke-width: 0.8"/>
      </defs>
      <g>
       <use xlink:href="#m4112a0016d" x="47.962344" y="159.397763" style="stroke: #000000; stroke-width: 0.8"/>
      </g>
     </g>
     <g id="text_8">
      <!-- 0.0 -->
      <g transform="translate(25.059219 163.196591) scale(0.1 -0.1)">
       <use xlink:href="#DejaVuSans-13"/>
       <use xlink:href="#DejaVuSans-11" transform="translate(63.625 0)"/>
       <use xlink:href="#DejaVuSans-13" transform="translate(95.40625 0)"/>
      </g>
     </g>
    </g>
    <g id="ytick_2">
     <g id="line2d_8">
      <g>
       <use xlink:href="#m4112a0016d" x="47.962344" y="130.437976" style="stroke: #000000; stroke-width: 0.8"/>
      </g>
     </g>
     <g id="text_9">
      <!-- 0.2 -->
      <g transform="translate(25.059219 134.236804) scale(0.1 -0.1)">
       <use xlink:href="#DejaVuSans-13"/>
       <use xlink:href="#DejaVuSans-11" transform="translate(63.625 0)"/>
       <use xlink:href="#DejaVuSans-15" transform="translate(95.40625 0)"/>
      </g>
     </g>
    </g>
    <g id="ytick_3">
     <g id="line2d_9">
      <g>
       <use xlink:href="#m4112a0016d" x="47.962344" y="101.478189" style="stroke: #000000; stroke-width: 0.8"/>
      </g>
     </g>
     <g id="text_10">
      <!-- 0.4 -->
      <g transform="translate(25.059219 105.277017) scale(0.1 -0.1)">
       <use xlink:href="#DejaVuSans-13"/>
       <use xlink:href="#DejaVuSans-11" transform="translate(63.625 0)"/>
       <use xlink:href="#DejaVuSans-17" transform="translate(95.40625 0)"/>
      </g>
     </g>
    </g>
    <g id="ytick_4">
     <g id="line2d_10">
      <g>
       <use xlink:href="#m4112a0016d" x="47.962344" y="72.518402" style="stroke: #000000; stroke-width: 0.8"/>
      </g>
     </g>
     <g id="text_11">
      <!-- 0.6 -->
      <g transform="translate(25.059219 76.31723) scale(0.1 -0.1)">
       <use xlink:href="#DejaVuSans-13"/>
       <use xlink:href="#DejaVuSans-11" transform="translate(63.625 0)"/>
       <use xlink:href="#DejaVuSans-19" transform="translate(95.40625 0)"/>
      </g>
     </g>
    </g>
    <g id="ytick_5">
     <g id="line2d_11">
      <g>
       <use xlink:href="#m4112a0016d" x="47.962344" y="43.558615" style="stroke: #000000; stroke-width: 0.8"/>
      </g>
     </g>
     <g id="text_12">
      <!-- 0.8 -->
      <g transform="translate(25.059219 47.357443) scale(0.1 -0.1)">
       <use xlink:href="#DejaVuSans-13"/>
       <use xlink:href="#DejaVuSans-11" transform="translate(63.625 0)"/>
       <use xlink:href="#DejaVuSans-1b" transform="translate(95.40625 0)"/>
      </g>
     </g>
    </g>
    <g id="ytick_6">
     <g id="line2d_12">
      <g>
       <use xlink:href="#m4112a0016d" x="47.962344" y="14.598828" style="stroke: #000000; stroke-width: 0.8"/>
      </g>
     </g>
     <g id="text_13">
      <!-- 1.0 -->
      <g transform="translate(25.059219 18.397656) scale(0.1 -0.1)">
       <use xlink:href="#DejaVuSans-14"/>
       <use xlink:href="#DejaVuSans-11" transform="translate(63.625 0)"/>
       <use xlink:href="#DejaVuSans-13" transform="translate(95.40625 0)"/>
      </g>
     </g>
    </g>
    <g id="text_14">
     <!-- Injected Signal -->
     <g transform="translate(18.656875 131.256211) rotate(-90) scale(0.1 -0.1)">
      <defs>
       <path id="DejaVuSans-2c" d="M 628 4666 
L 1259 4666 
L 1259 0 
L 628 0 
L 628 4666 
z
" transform="scale(0.015625)"/>
       <path id="DejaVuSans-51" d="M 3513 2113 
L 3513 0 
L 2938 0 
L 2938 2094 
Q 2938 2591 2744 2837 
Q 2550 3084 2163 3084 
Q 1697 3084 1428 2787 
Q 1159 2491 1159 1978 
L 1159 0 
L 581 0 
L 581 3500 
L 1159 3500 
L 1159 2956 
Q 1366 3272 1645 3428 
Q 1925 3584 2291 3584 
Q 2894 3584 3203 3211 
Q 3513 2838 3513 2113 
z
" transform="scale(0.015625)"/>
       <path id="DejaVuSans-4d" d="M 603 3500 
L 1178 3500 
L 1178 -63 
Q 1178 -731 923 -1031 
Q 669 -1331 103 -1331 
L -116 -1331 
L -116 -844 
L 38 -844 
Q 366 -844 484 -692 
Q 603 -541 603 -63 
L 603 3500 
z
M 603 4863 
L 1178 4863 
L 1178 4134 
L 603 4134 
L 603 4863 
z
" transform="scale(0.015625)"/>
       <path id="DejaVuSans-57" d="M 1172 4494 
L 1172 3500 
L 2356 3500 
L 2356 3053 
L 1172 3053 
L 1172 1153 
Q 1172 725 1289 603 
Q 1406 481 1766 481 
L 2356 481 
L 2356 0 
L 1766 0 
Q 1100 0 847 248 
Q 594 497 594 1153 
L 594 3053 
L 172 3053 
L 172 3500 
L 594 3500 
L 594 4494 
L 1172 4494 
z
" transform="scale(0.015625)"/>
       <path id="DejaVuSans-47" d="M 2906 2969 
L 2906 4863 
L 3481 4863 
L 3481 0 
L 2906 0 
L 2906 525 
Q 2725 213 2448 61 
Q 2172 -91 1784 -91 
Q 1150 -91 751 415 
Q 353 922 353 1747 
Q 353 2572 751 3078 
Q 1150 3584 1784 3584 
Q 2172 3584 2448 3432 
Q 2725 3281 2906 2969 
z
M 947 1747 
Q 947 1113 1208 752 
Q 1469 391 1925 391 
Q 2381 391 2643 752 
Q 2906 1113 2906 1747 
Q 2906 2381 2643 2742 
Q 2381 3103 1925 3103 
Q 1469 3103 1208 2742 
Q 947 2381 947 1747 
z
" transform="scale(0.015625)"/>
       <path id="DejaVuSans-36" d="M 3425 4513 
L 3425 3897 
Q 3066 4069 2747 4153 
Q 2428 4238 2131 4238 
Q 1616 4238 1336 4038 
Q 1056 3838 1056 3469 
Q 1056 3159 1242 3001 
Q 1428 2844 1947 2747 
L 2328 2669 
Q 3034 2534 3370 2195 
Q 3706 1856 3706 1288 
Q 3706 609 3251 259 
Q 2797 -91 1919 -91 
Q 1588 -91 1214 -16 
Q 841 59 441 206 
L 441 856 
Q 825 641 1194 531 
Q 1563 422 1919 422 
Q 2459 422 2753 634 
Q 3047 847 3047 1241 
Q 3047 1584 2836 1778 
Q 2625 1972 2144 2069 
L 1759 2144 
Q 1053 2284 737 2584 
Q 422 2884 422 3419 
Q 422 4038 858 4394 
Q 1294 4750 2059 4750 
Q 2388 4750 2728 4690 
Q 3069 4631 3425 4513 
z
" transform="scale(0.015625)"/>
       <path id="DejaVuSans-4a" d="M 2906 1791 
Q 2906 2416 2648 2759 
Q 2391 3103 1925 3103 
Q 1463 3103 1205 2759 
Q 947 2416 947 1791 
Q 947 1169 1205 825 
Q 1463 481 1925 481 
Q 2391 481 2648 825 
Q 2906 1169 2906 1791 
z
M 3481 434 
Q 3481 -459 3084 -895 
Q 2688 -1331 1869 -1331 
Q 1566 -1331 1297 -1286 
Q 1028 -1241 775 -1147 
L 775 -588 
Q 1028 -725 1275 -790 
Q 1522 -856 1778 -856 
Q 2344 -856 2625 -561 
Q 2906 -266 2906 331 
L 2906 616 
Q 2728 306 2450 153 
Q 2172 0 1784 0 
Q 1141 0 747 490 
Q 353 981 353 1791 
Q 353 2603 747 3093 
Q 1141 3584 1784 3584 
Q 2172 3584 2450 3431 
Q 2728 3278 2906 2969 
L 2906 3500 
L 3481 3500 
L 3481 434 
z
" transform="scale(0.015625)"/>
       <path id="DejaVuSans-44" d="M 2194 1759 
Q 1497 1759 1228 1600 
Q 959 1441 959 1056 
Q 959 750 1161 570 
Q 1363 391 1709 391 
Q 2188 391 2477 730 
Q 2766 1069 2766 1631 
L 2766 1759 
L 2194 1759 
z
M 3341 1997 
L 3341 0 
L 2766 0 
L 2766 531 
Q 2569 213 2275 61 
Q 1981 -91 1556 -91 
Q 1019 -91 701 211 
Q 384 513 384 1019 
Q 384 1609 779 1909 
Q 1175 2209 1959 2209 
L 2766 2209 
L 2766 2266 
Q 2766 2663 2505 2880 
Q 2244 3097 1772 3097 
Q 1472 3097 1187 3025 
Q 903 2953 641 2809 
L 641 3341 
Q 956 3463 1253 3523 
Q 1550 3584 1831 3584 
Q 2591 3584 2966 3190 
Q 3341 2797 3341 1997 
z
" transform="scale(0.015625)"/>
       <path id="DejaVuSans-4f" d="M 603 4863 
L 1178 4863 
L 1178 0 
L 603 0 
L 603 4863 
z
" transform="scale(0.015625)"/>
      </defs>
      <use xlink:href="#DejaVuSans-2c"/>
      <use xlink:href="#DejaVuSans-51" transform="translate(29.5 0)"/>
      <use xlink:href="#DejaVuSans-4d" transform="translate(92.875 0)"/>
      <use xlink:href="#DejaVuSans-48" transform="translate(120.65625 0)"/>
      <use xlink:href="#DejaVuSans-46" transform="translate(182.1875 0)"/>
      <use xlink:href="#DejaVuSans-57" transform="translate(237.171875 0)"/>
      <use xlink:href="#DejaVuSans-48" transform="translate(276.375 0)"/>
      <use xlink:href="#DejaVuSans-47" transform="translate(337.90625 0)"/>
      <use xlink:href="#DejaVuSans-3" transform="translate(401.390625 0)"/>
      <use xlink:href="#DejaVuSans-36" transform="translate(433.171875 0)"/>
      <use xlink:href="#DejaVuSans-4c" transform="translate(496.65625 0)"/>
      <use xlink:href="#DejaVuSans-4a" transform="translate(524.4375 0)"/>
      <use xlink:href="#DejaVuSans-51" transform="translate(587.921875 0)"/>
      <use xlink:href="#DejaVuSans-44" transform="translate(651.296875 0)"/>
      <use xlink:href="#DejaVuSans-4f" transform="translate(712.578125 0)"/>
     </g>
    </g>
   </g>
   <g id="line2d_13">
    <path d="M 61.654964 104.563438 
L 61.928817 78.014917 
L 62.202669 104.94203 
L 62.476522 53.89901 
L 62.750374 68.618058 
L 63.024227 67.41918 
L 63.298079 47.731345 
L 63.571931 118.997877 
L 63.845784 128.430545 
L 64.119636 110.35944 
L 64.393489 106.03122 
L 64.667341 114.787463 
L 64.941193 56.500282 
L 65.215046 98.675984 
L 65.762751 67.342901 
L 66.036603 57.398753 
L 66.584308 93.712642 
L 66.85816 59.641896 
L 67.132013 114.958402 
L 67.405865 46.995882 
L 67.679718 44.635041 
L 67.95357 123.064951 
L 68.227422 71.886398 
L 68.501275 122.427399 
L 68.775127 72.383368 
L 69.04898 118.122353 
L 69.322832 105.62855 
L 69.596685 79.96473 
L 69.870537 81.885332 
L 70.144389 101.095045 
L 70.418242 53.721706 
L 70.692094 94.321115 
L 70.965947 53.855879 
L 71.239799 107.22789 
L 71.513651 126.954538 
L 71.787504 61.747823 
L 72.061356 87.992741 
L 72.335209 54.890153 
L 72.609061 119.581511 
L 73.156766 73.966095 
L 73.430618 73.748804 
L 73.704471 91.766775 
L 73.978323 88.8335 
L 74.252176 52.336114 
L 74.526028 126.5785 
L 74.79988 73.877498 
L 75.073733 52.560935 
L 75.347585 101.456593 
L 75.621438 63.240706 
L 75.89529 116.12008 
L 76.169142 104.061859 
L 76.442995 128.298085 
L 76.716847 124.385448 
L 76.9907 49.017503 
L 77.264552 47.430661 
L 77.538405 118.169644 
L 77.812257 92.483039 
L 78.086109 90.996867 
L 78.359962 72.310231 
L 78.633814 92.813648 
L 78.907667 88.605272 
L 79.181519 114.664668 
L 79.455371 130.072407 
L 80.003076 45.09198 
L 80.276929 117.411539 
L 80.824634 52.2856 
L 81.098486 55.411322 
L 81.372338 128.542623 
L 81.646191 78.751859 
L 81.920043 102.538194 
L 82.193896 107.918642 
L 82.7416 64.76643 
L 83.015453 89.083022 
L 83.289305 68.59131 
L 83.563158 118.626927 
L 83.83701 94.717029 
L 84.110862 108.183113 
L 84.384715 48.645223 
L 84.658567 106.942035 
L 84.93242 51.196178 
L 85.206272 71.667298 
L 85.480125 63.283041 
L 85.753977 66.946641 
L 86.027829 76.38654 
L 86.301682 62.890309 
L 86.575534 84.674126 
L 86.849387 89.739189 
L 87.123239 71.762517 
L 87.397091 117.482302 
L 87.670944 48.142388 
L 87.944796 117.402803 
L 88.492501 58.687393 
L 88.766354 89.53106 
L 89.040206 103.371499 
L 89.314058 78.80359 
L 89.587911 122.788968 
L 89.861763 110.463697 
L 90.135616 116.467857 
L 90.409468 99.313637 
L 90.68332 60.849969 
L 90.957173 100.517773 
L 91.231025 110.33785 
L 91.504878 115.71849 
L 91.77873 48.018846 
L 92.052583 110.974152 
L 92.326435 45.347702 
L 92.600287 89.777722 
L 92.87414 88.510999 
L 93.421845 110.920515 
L 93.695697 68.4731 
L 93.969549 66.529609 
L 94.243402 70.724525 
L 94.517254 63.854562 
L 94.791107 99.243435 
L 95.064959 94.144662 
L 95.338812 94.687339 
L 95.886516 98.939235 
L 96.160369 108.102229 
L 96.434221 69.02485 
L 96.708074 47.624787 
L 96.981926 117.233261 
L 97.255778 72.660291 
L 97.529631 57.360901 
L 97.803483 50.948956 
L 98.077336 67.068806 
L 98.351188 73.980628 
L 98.62504 113.646514 
L 98.898893 98.680919 
L 99.172745 111.303536 
L 99.446598 90.059004 
L 99.72045 123.162003 
L 99.994303 119.559534 
L 100.268155 104.646229 
L 100.542007 100.178514 
L 100.81586 80.914053 
L 101.089712 115.967789 
L 101.637417 124.204794 
L 101.911269 60.945851 
L 102.185122 84.376436 
L 102.458974 80.985908 
L 102.732827 121.138991 
L 103.006679 64.790765 
L 103.828236 109.830364 
L 104.102089 70.068566 
L 104.375941 121.29513 
L 104.649794 64.612446 
L 104.923646 63.786276 
L 105.197498 44.087155 
L 105.471351 125.78813 
L 106.019056 52.588492 
L 106.292908 69.578065 
L 106.566761 97.832062 
L 106.840613 43.909895 
L 107.114465 44.916185 
L 107.388318 73.820378 
L 107.66217 53.240858 
L 107.936023 43.575694 
L 108.209875 123.958581 
L 108.483727 97.542982 
L 108.75758 105.511962 
L 109.031432 54.209085 
L 109.305285 104.168151 
L 109.579137 86.185829 
L 109.852989 114.182116 
L 110.126842 68.828353 
L 110.400694 50.252815 
L 110.674547 55.406856 
L 110.948399 122.80901 
L 111.222252 111.580529 
L 111.496104 80.669856 
L 111.769956 123.525837 
L 112.043809 101.01924 
L 112.317661 60.100604 
L 112.591514 49.976751 
L 112.865366 80.355901 
L 113.139218 89.402316 
L 113.413071 85.323196 
L 113.686923 52.647136 
L 113.960776 84.667592 
L 114.234628 80.269017 
L 114.508481 60.133923 
L 114.782333 124.02439 
L 115.056185 80.52964 
L 115.330038 72.596984 
L 115.60389 58.662389 
L 115.877743 97.326177 
L 116.151595 89.146907 
L 116.425447 104.748659 
L 116.6993 113.781137 
L 116.973152 71.062624 
L 117.247005 103.76352 
L 117.520857 52.600636 
L 117.79471 90.314902 
L 118.068562 49.171358 
L 118.342414 58.245594 
L 118.616267 91.864815 
L 118.890119 63.717111 
L 119.163972 129.0555 
L 119.437824 70.534847 
L 119.711676 87.829392 
L 119.985529 124.669021 
L 120.259381 95.792759 
L 120.533234 83.342891 
L 120.807086 118.106076 
L 121.080938 106.051578 
L 121.354791 57.278056 
L 121.628643 57.229974 
L 121.902496 104.555605 
L 122.176348 43.893097 
L 122.450201 104.0717 
L 122.997905 75.315243 
L 123.271758 121.143895 
L 123.54561 118.309312 
L 124.093315 94.679823 
L 124.367167 101.624453 
L 124.914872 61.09966 
L 125.462577 112.16539 
L 125.73643 49.630967 
L 126.010282 55.053521 
L 126.284134 71.364323 
L 126.557987 66.551208 
L 126.831839 74.041671 
L 127.105692 57.233632 
L 127.379544 92.297466 
L 127.653396 53.971245 
L 127.927249 121.705715 
L 128.201101 119.093937 
L 128.474954 83.68372 
L 129.022659 113.801159 
L 129.296511 44.563037 
L 129.570363 43.656927 
L 130.118068 111.985232 
L 130.391921 107.101762 
L 130.665773 97.965925 
L 130.939625 101.362988 
L 131.213478 48.305486 
L 131.48733 52.415466 
L 131.761183 88.985981 
L 132.035035 96.99686 
L 132.308887 95.929359 
L 132.58274 117.533613 
L 132.856592 106.06027 
L 133.130445 130.182688 
L 133.67815 56.774719 
L 134.225854 103.963349 
L 134.499707 49.813503 
L 134.773559 84.95482 
L 135.321264 129.381821 
L 135.595116 52.137148 
L 135.868969 130.368329 
L 136.416674 101.678664 
L 136.690526 65.539215 
L 136.964379 127.843396 
L 137.238231 72.675322 
L 137.512083 98.613323 
L 137.785936 57.198212 
L 138.059788 51.653423 
L 138.333641 130.329412 
L 138.607493 83.556439 
L 138.881345 63.810243 
L 139.155198 76.83578 
L 139.42905 66.444805 
L 139.702903 71.88871 
L 139.976755 60.319965 
L 140.250608 67.385841 
L 140.52446 99.935099 
L 140.798312 79.214472 
L 141.072165 125.954045 
L 141.346017 57.602954 
L 141.61987 86.0039 
L 141.893722 74.140698 
L 142.167574 53.019548 
L 142.441427 98.74327 
L 142.715279 54.61057 
L 142.989132 108.160315 
L 143.262984 120.267863 
L 143.536837 120.774417 
L 143.810689 67.657485 
L 144.084541 45.529457 
L 144.358394 64.535603 
L 144.632246 102.081136 
L 144.906099 61.755358 
L 145.179951 57.205296 
L 145.453803 62.475129 
L 145.727656 125.259257 
L 146.275361 70.926926 
L 146.549213 82.930319 
L 146.823065 66.818446 
L 147.096918 129.406304 
L 147.37077 44.851664 
L 147.918475 76.790438 
L 148.192328 121.449291 
L 148.46618 115.364537 
L 148.740032 92.20598 
L 149.013885 55.88908 
L 149.287737 112.414494 
L 149.56159 111.184019 
L 149.835442 50.906309 
L 150.109294 89.681644 
L 150.383147 69.077642 
L 150.656999 106.473547 
L 150.930852 70.502136 
L 151.204704 97.075476 
L 151.478557 49.578521 
L 151.752409 114.122829 
L 152.026261 44.31075 
L 152.573966 111.021886 
L 152.847819 44.718346 
L 153.121671 51.830007 
L 153.669376 103.442518 
L 153.943228 60.666549 
L 154.217081 60.696217 
L 154.490933 51.829094 
L 154.764786 88.515531 
L 155.038638 84.462081 
L 155.31249 89.845158 
L 155.586343 106.705132 
L 155.860195 54.881405 
L 156.134048 92.954095 
L 156.4079 86.095497 
L 156.681752 101.884383 
L 156.955605 79.476888 
L 157.229457 127.010947 
L 157.50331 128.721111 
L 157.777162 84.965279 
L 158.051014 62.07376 
L 158.324867 106.749119 
L 158.598719 60.228934 
L 158.872572 96.431731 
L 159.420277 80.572835 
L 159.694129 43.609162 
L 159.967981 115.226588 
L 160.515686 56.805508 
L 160.789539 52.397448 
L 161.063391 118.141428 
L 161.337243 80.273665 
L 161.611096 66.069958 
L 161.884948 44.362991 
L 162.158801 126.622068 
L 162.432653 116.837702 
L 162.706506 77.391064 
L 162.980358 108.372637 
L 163.25421 88.115459 
L 163.528063 83.748235 
L 163.801915 128.124434 
L 164.34962 69.45588 
L 164.623472 75.26528 
L 164.897325 77.918458 
L 165.171177 114.601463 
L 165.44503 88.182487 
L 165.718882 97.401369 
L 165.992735 45.842471 
L 166.266587 77.736815 
L 166.540439 127.986538 
L 166.814292 63.7545 
L 167.361997 74.747288 
L 167.635849 66.774399 
L 168.183554 116.935812 
L 168.457406 123.597649 
L 168.731259 72.630752 
L 169.005111 47.928638 
L 169.278963 51.540717 
L 169.552816 97.86195 
L 169.826668 82.432335 
L 170.100521 90.715895 
L 170.374373 128.668043 
L 170.648226 108.540676 
L 170.922078 109.209921 
L 171.19593 50.44816 
L 171.469783 99.271195 
L 172.017488 129.397064 
L 172.29134 48.56686 
L 172.565192 59.807866 
L 172.839045 45.913519 
L 173.112897 49.427981 
L 173.38675 71.92556 
L 173.934455 50.983702 
L 174.208307 114.517056 
L 174.482159 46.812128 
L 174.756012 61.202154 
L 175.029864 85.744008 
L 175.303717 53.623125 
L 175.577569 70.026295 
L 175.851421 67.853481 
L 176.125274 43.819393 
L 176.399126 108.171414 
L 176.672979 107.129701 
L 176.946831 117.950077 
L 177.494536 109.483465 
L 177.768388 124.722464 
L 178.042241 103.480437 
L 178.316093 51.057807 
L 178.589946 114.40072 
L 178.863798 121.119068 
L 179.13765 87.520368 
L 179.411503 121.878283 
L 179.685355 100.660212 
L 179.959208 104.406705 
L 180.23306 96.552346 
L 180.506912 44.080525 
L 180.780765 98.185309 
L 181.054617 63.936219 
L 181.32847 69.973039 
L 181.602322 106.7077 
L 181.876175 108.438681 
L 182.150027 129.18262 
L 182.423879 121.570418 
L 182.697732 50.111039 
L 182.971584 59.610778 
L 183.245437 97.957414 
L 183.519289 50.465788 
L 183.793141 120.466734 
L 184.066994 110.3696 
L 184.614699 50.27189 
L 184.888551 127.067684 
L 185.162404 46.430942 
L 185.436256 77.831893 
L 185.710108 47.447205 
L 185.983961 58.719756 
L 186.257813 92.641839 
L 186.531666 100.706738 
L 186.805518 45.430633 
L 187.07937 66.020293 
L 187.353223 57.936493 
L 187.627075 71.162022 
L 187.900928 109.808537 
L 188.17478 61.07171 
L 188.448633 87.524677 
L 188.722485 127.627816 
L 188.996337 79.727622 
L 189.27019 65.433796 
L 189.544042 59.043021 
L 189.817895 77.866543 
L 190.091747 79.810712 
L 190.365599 100.551139 
L 190.639452 61.765522 
L 190.913304 107.210343 
L 191.187157 62.303174 
L 191.461009 46.747905 
L 191.734862 101.045494 
L 192.008714 46.459182 
L 192.282566 57.226116 
L 192.556419 94.434382 
L 192.830271 55.791309 
L 193.104124 122.958212 
L 193.377976 103.592371 
L 193.651828 127.61917 
L 193.925681 55.754108 
L 194.747238 116.451826 
L 195.02109 125.187533 
L 195.294943 127.967473 
L 195.568795 116.060097 
L 195.842648 129.96653 
L 196.1165 57.259702 
L 196.390353 61.254627 
L 196.664205 100.008855 
L 197.21191 53.802942 
L 197.485762 75.000502 
L 197.759615 75.896859 
L 198.033467 105.118243 
L 198.307319 47.680975 
L 198.581172 126.558135 
L 199.128877 78.551913 
L 199.402729 113.322091 
L 199.676582 77.195728 
L 199.950434 116.680212 
L 200.224286 76.558484 
L 200.498139 113.757806 
L 200.771991 117.987966 
L 201.045844 67.324063 
L 201.319696 65.869796 
L 201.593548 125.475281 
L 201.867401 114.987502 
L 202.141253 124.859663 
L 202.415106 62.815102 
L 202.688958 69.653142 
L 202.962811 115.438777 
L 203.236663 89.375658 
L 203.510515 74.00586 
L 203.784368 104.306552 
L 204.05822 49.686654 
L 204.332073 58.53884 
L 204.605925 126.610166 
L 204.879777 95.86301 
L 205.427482 72.349609 
L 205.701335 121.350624 
L 205.975187 54.927364 
L 206.249039 95.289829 
L 206.522892 69.971603 
L 206.796744 89.774892 
L 207.070597 53.486851 
L 207.344449 63.628408 
L 207.892154 101.731774 
L 208.166006 76.672228 
L 208.439859 104.734172 
L 208.713711 68.132853 
L 208.987564 48.031026 
L 209.261416 99.98194 
L 209.535268 117.067912 
L 209.809121 89.918781 
L 210.082973 99.738395 
L 210.356826 74.195174 
L 210.630678 61.502495 
L 210.904531 104.028761 
L 211.178383 98.391664 
L 211.452235 110.932097 
L 211.726088 130.36224 
L 211.99994 48.113296 
L 212.273793 47.716162 
L 212.547645 69.676364 
L 212.821497 56.281812 
L 213.09535 66.099843 
L 213.369202 62.855928 
L 214.19076 126.720759 
L 214.464612 70.992425 
L 214.738464 101.075947 
L 215.012317 49.644791 
L 215.286169 94.401248 
L 215.560022 51.181052 
L 215.833874 56.627231 
L 216.107726 85.689806 
L 216.381579 81.282842 
L 216.655431 109.880127 
L 216.929284 49.948826 
L 217.203136 102.814662 
L 217.476988 62.750075 
L 218.024693 66.608014 
L 218.298546 123.464032 
L 218.572398 62.716299 
L 218.846251 130.133148 
L 219.120103 129.681495 
L 219.393955 63.578615 
L 219.667808 98.784239 
L 219.94166 49.172813 
L 220.215513 73.377377 
L 220.489365 47.151226 
L 221.03707 122.937767 
L 221.310922 121.103846 
L 221.584775 71.357092 
L 221.858627 130.361577 
L 222.406332 61.026914 
L 222.680184 127.664923 
L 222.954037 55.889515 
L 223.227889 62.368517 
L 223.501742 46.104489 
L 223.775594 88.567886 
L 224.049446 60.920097 
L 224.323299 83.868257 
L 224.597151 47.141008 
L 224.871004 55.422516 
L 225.144856 130.374733 
L 225.418709 50.745219 
L 225.692561 49.967136 
L 225.966413 81.072727 
L 226.240266 126.257323 
L 226.514118 110.079374 
L 226.787971 61.721817 
L 227.061823 111.4685 
L 227.335675 80.270885 
L 227.609528 74.441288 
L 227.88338 126.86567 
L 228.157233 55.709919 
L 228.431085 83.39561 
L 228.704937 69.591931 
L 228.97879 114.392676 
L 229.252642 48.245757 
L 229.526495 104.824119 
L 229.800347 52.685541 
L 230.0742 91.903961 
L 230.621904 118.702778 
L 230.895757 118.93906 
L 231.169609 116.779259 
L 231.443462 102.735347 
L 231.717314 59.576059 
L 231.991166 83.500329 
L 232.265019 96.53532 
L 232.812724 48.425501 
L 233.086576 51.364425 
L 233.360429 99.712878 
L 233.634281 64.778556 
L 233.908133 78.356902 
L 234.181986 124.787139 
L 234.455838 43.892219 
L 234.729691 90.560409 
L 235.003543 105.009821 
L 235.277395 92.669379 
L 235.551248 52.99218 
L 235.8251 127.075731 
L 236.098953 55.90478 
L 236.372805 102.165973 
L 236.646658 105.978592 
L 236.92051 106.595339 
L 237.194362 44.634756 
L 237.468215 103.949659 
L 237.742067 83.134049 
L 238.01592 122.958997 
L 238.289772 83.092527 
L 238.563624 73.028122 
L 238.837477 48.826811 
L 239.111329 123.646703 
L 239.385182 122.502252 
L 239.659034 49.410709 
L 239.932887 127.72254 
L 240.206739 82.311114 
L 240.480591 103.875403 
L 240.754444 62.504457 
L 241.028296 54.995507 
L 241.302149 82.146614 
L 241.576001 92.805936 
L 241.849853 77.744256 
L 242.123706 121.458325 
L 242.671411 46.274062 
L 242.945263 117.133484 
L 243.219115 103.321487 
L 243.492968 116.504247 
L 243.76682 47.386783 
L 244.040673 101.198299 
L 244.314525 81.470346 
L 244.588378 96.540936 
L 244.86223 122.554728 
L 245.136082 96.50384 
L 245.409935 129.852164 
L 245.683787 50.747217 
L 245.95764 122.275099 
L 246.505344 49.576323 
L 246.779197 89.551829 
L 247.053049 92.929265 
L 247.326902 86.768002 
L 247.600754 120.528052 
L 247.874607 46.45865 
L 248.148459 66.652626 
L 248.422311 72.603598 
L 248.696164 55.957276 
L 249.243869 101.856618 
L 249.517721 62.656314 
L 249.791573 89.649477 
L 250.065426 53.502172 
L 250.339278 82.083801 
L 250.613131 81.764438 
L 250.886983 100.321267 
L 251.160836 67.941761 
L 251.434688 77.890709 
L 251.70854 103.702872 
L 251.982393 51.483436 
L 252.530098 99.817847 
L 252.80395 121.247336 
L 253.351655 74.703977 
L 253.625507 112.275807 
L 253.89936 69.809244 
L 254.173212 127.307493 
L 254.447064 72.111267 
L 254.720917 52.660077 
L 255.268622 116.892489 
L 255.542474 67.040862 
L 255.816327 92.162953 
L 256.090179 59.674784 
L 256.364031 60.180817 
L 256.637884 83.607106 
L 256.911736 70.114114 
L 257.185589 130.436217 
L 257.733293 90.359117 
L 258.007146 78.633967 
L 258.554851 97.231803 
L 258.828703 60.782804 
L 259.102556 74.998067 
L 259.376408 121.079211 
L 259.65026 107.193638 
L 259.924113 83.725528 
L 260.471818 105.419252 
L 260.74567 99.86379 
L 261.019522 87.818033 
L 261.293375 111.911038 
L 261.567227 121.920958 
L 261.84108 57.107828 
L 262.114932 63.524492 
L 262.388785 73.147507 
L 262.662637 72.428026 
L 262.936489 123.787093 
L 263.210342 91.642673 
L 263.484194 97.858559 
L 264.031899 53.992653 
L 264.579604 80.310432 
L 264.853456 118.546986 
L 265.127309 44.17326 
L 265.401161 102.649651 
L 265.675013 79.043294 
L 265.948866 83.305527 
L 266.222718 56.454231 
L 266.496571 47.176322 
L 266.770423 121.389126 
L 267.044276 105.365522 
L 267.318128 124.109254 
L 267.59198 69.255648 
L 268.413538 126.081482 
L 268.68739 60.442233 
L 268.961242 122.403511 
L 269.235095 129.070908 
L 269.508947 125.045347 
L 269.7828 94.062296 
L 270.056652 98.636599 
L 270.330505 123.186793 
L 270.604357 52.992245 
L 271.152062 66.413938 
L 271.425914 51.545316 
L 271.699767 48.326911 
L 271.973619 87.840641 
L 272.247471 104.648164 
L 272.795176 71.711047 
L 273.069029 128.995291 
L 273.342881 86.715803 
L 273.616734 99.76911 
L 273.890586 82.826772 
L 274.164438 79.511108 
L 274.438291 74.336021 
L 274.712143 88.892913 
L 274.985996 62.462313 
L 275.259848 76.355273 
L 275.5337 107.979124 
L 275.807553 63.619344 
L 276.081405 118.709362 
L 276.355258 125.100606 
L 276.62911 103.899056 
L 276.902963 128.246456 
L 277.176815 106.899108 
L 277.450667 76.610619 
L 277.72452 103.097636 
L 277.998372 59.42483 
L 278.272225 74.044357 
L 278.546077 79.571154 
L 278.819929 56.044161 
L 279.093782 104.661994 
L 279.367634 77.088252 
L 279.641487 92.032035 
L 279.915339 62.866188 
L 280.189191 52.881457 
L 280.463044 85.310298 
L 280.736896 104.123919 
L 281.010749 73.206531 
L 281.558454 101.615857 
L 281.832306 52.628665 
L 282.106158 101.332973 
L 282.380011 129.983879 
L 282.653863 70.938917 
L 282.927716 73.260319 
L 283.201568 62.494561 
L 283.47542 123.571449 
L 283.749273 71.468944 
L 284.023125 95.086789 
L 284.296978 71.403142 
L 284.57083 88.170608 
L 284.844683 123.867247 
L 285.118535 91.982239 
L 285.392387 86.064431 
L 285.66624 128.05039 
L 285.940092 62.27396 
L 286.213945 61.300607 
L 286.487797 52.727218 
L 287.035502 121.484033 
L 287.309354 112.633821 
L 287.583207 97.153748 
L 287.857059 64.082625 
L 288.130912 107.984155 
L 288.404764 114.554394 
L 288.678616 86.670816 
L 288.952469 71.56488 
L 289.226321 88.334838 
L 289.500174 79.71565 
L 289.774026 47.315098 
L 290.047878 54.938986 
L 290.321731 125.934459 
L 290.595583 81.922488 
L 290.869436 99.127774 
L 291.143288 102.822128 
L 291.41714 51.293428 
L 291.690993 105.723595 
L 291.964845 82.27659 
L 292.238698 44.747023 
L 292.51255 92.776199 
L 292.786403 114.657574 
L 293.060255 108.158498 
L 293.334107 116.006425 
L 293.60796 99.885204 
L 293.881812 67.274974 
L 294.155665 106.63136 
L 294.429517 124.280249 
L 294.703369 58.234782 
L 294.977222 94.468434 
L 295.251074 79.095781 
L 295.524927 49.908801 
L 296.072632 128.036866 
L 296.346484 50.415359 
L 296.620336 79.744471 
L 297.168041 75.666718 
L 297.441894 128.612875 
L 297.715746 80.51291 
L 297.989598 128.891301 
L 298.263451 60.515445 
L 298.537303 84.26015 
L 298.811156 49.362189 
L 299.085008 111.602002 
L 299.358861 64.203731 
L 299.632713 64.884238 
L 299.906565 48.161815 
L 300.180418 99.154049 
L 300.45427 49.142691 
L 300.728123 101.15124 
L 301.001975 74.328804 
L 301.275827 97.636138 
L 301.54968 76.442918 
L 301.823532 80.788126 
L 302.097385 117.529658 
L 302.371237 107.104547 
L 302.645089 77.338437 
L 302.918942 112.346848 
L 303.192794 78.661355 
L 303.466647 99.426737 
L 303.740499 61.870692 
L 304.014352 107.997821 
L 304.288204 123.094061 
L 304.562056 46.269993 
L 304.835909 70.333213 
L 305.109761 56.855707 
L 305.657466 92.18073 
L 305.931318 85.473828 
L 306.205171 55.981277 
L 306.479023 52.424707 
L 306.752876 51.480317 
L 307.026728 67.645182 
L 307.300581 108.155875 
L 307.574433 90.999904 
L 307.848285 112.761277 
L 308.122138 119.700869 
L 308.39599 60.47738 
L 308.669843 59.079457 
L 308.943695 103.064182 
L 309.217547 71.851968 
L 309.4914 90.808688 
L 309.765252 89.951085 
L 310.039105 71.737575 
L 310.312957 86.543552 
L 310.58681 76.099678 
L 310.860662 57.534799 
L 311.134514 60.265229 
L 311.408367 116.643405 
L 311.956072 44.661726 
L 312.229924 110.912743 
L 312.503776 106.689534 
L 312.777629 112.401217 
L 313.051481 101.785112 
L 313.325334 45.458732 
L 313.599186 101.915269 
L 313.873038 48.696597 
L 314.146891 50.757693 
L 314.420743 47.984438 
L 314.694596 51.132971 
L 314.968448 95.17555 
L 315.242301 109.209676 
L 315.516153 46.411269 
L 315.790005 81.570207 
L 316.063858 63.023926 
L 316.33771 114.49512 
L 316.611563 78.97185 
L 316.885415 96.034971 
L 317.159267 53.3317 
L 317.43312 74.362781 
L 317.706972 81.102331 
L 317.980825 61.145477 
L 318.254677 60.843956 
L 318.52853 117.814922 
L 318.802382 66.805867 
L 319.076234 119.774048 
L 319.350087 111.647232 
L 319.623939 127.821574 
L 319.897792 94.379707 
L 320.171644 77.384685 
L 320.445496 117.904537 
L 320.719349 104.47731 
L 320.993201 124.38156 
L 321.540906 45.678088 
L 322.088611 102.636521 
L 322.362463 98.364004 
L 322.636316 57.687042 
L 322.910168 116.53833 
L 323.184021 93.937233 
L 323.457873 96.28479 
L 323.731725 115.800214 
L 324.005578 95.455509 
L 324.27943 118.766309 
L 324.553283 59.022296 
L 324.827135 53.362642 
L 325.100987 122.672183 
L 325.37484 126.290514 
L 325.648692 96.327175 
L 325.922545 128.071891 
L 326.47025 65.345834 
L 326.744102 129.398866 
L 327.017954 73.268779 
L 327.291807 119.755882 
L 327.565659 109.196996 
L 327.839512 50.923086 
L 328.113364 113.277604 
L 328.387216 109.221626 
L 328.661069 88.938493 
L 328.934921 90.111562 
L 329.208774 44.786139 
L 329.482626 45.33134 
L 330.030331 111.023539 
L 330.304183 85.628826 
L 330.578036 45.759872 
L 331.399593 125.134238 
L 331.673445 52.584457 
L 331.947298 63.683684 
L 332.22115 60.641855 
L 332.495003 128.774552 
L 332.768855 67.465249 
L 333.042708 109.524719 
L 333.31656 44.598629 
L 333.590412 66.052059 
L 333.864265 129.15375 
L 334.138117 101.083361 
L 334.41197 119.852072 
L 334.685822 62.744002 
L 334.959674 92.333918 
L 335.233527 102.741721 
L 335.233527 102.741721 
" clip-path="url(#pc9b4651f9e)" style="fill: none; stroke: #1f77b4; stroke-width: 1.5; stroke-linecap: square"/>
   </g>
   <g id="line2d_14">
    <path d="M 61.654964 86.998295 
L 335.507379 86.998295 
" clip-path="url(#pc9b4651f9e)" style="fill: none; stroke-dasharray: 7.4,3.2; stroke-dashoffset: 0; stroke: #ff0000; stroke-width: 2"/>
   </g>
   <g id="line2d_15">
    <path d="M 193.104124 86.998295 
L 204.05822 86.998295 
" clip-path="url(#pc9b4651f9e)" style="fill: none; stroke: #000000; stroke-width: 2; stroke-linecap: square"/>
   </g>
   <g id="line2d_16">
    <path d="M 193.104124 43.558615 
L 204.05822 43.558615 
" clip-path="url(#pc9b4651f9e)" style="fill: none; stroke: #000000; stroke-width: 2; stroke-linecap: square"/>
   </g>
   <g id="line2d_17">
    <path d="M 198.581172 86.998295 
L 198.581172 43.558615 
" clip-path="url(#pc9b4651f9e)" style="fill: none; stroke: #000000; stroke-width: 2; stroke-linecap: square"/>
   </g>
   <g id="line2d_18">
    <path d="M 193.104124 159.397763 
L 204.05822 159.397763 
" clip-path="url(#pc9b4651f9e)" style="fill: none; stroke: #000000; stroke-width: 2; stroke-linecap: square"/>
   </g>
   <g id="line2d_19">
    <path d="M 198.581172 159.397763 
L 198.581172 86.998295 
" clip-path="url(#pc9b4651f9e)" style="fill: none; stroke: #000000; stroke-width: 2; stroke-linecap: square"/>
   </g>
   <g id="patch_3">
    <path d="M 47.962344 173.877656 
L 47.962344 14.598828 
" style="fill: none; stroke: #000000; stroke-width: 0.8; stroke-linejoin: miter; stroke-linecap: square"/>
   </g>
   <g id="patch_4">
    <path d="M 349.2 173.877656 
L 349.2 14.598828 
" style="fill: none; stroke: #000000; stroke-width: 0.8; stroke-linejoin: miter; stroke-linecap: square"/>
   </g>
   <g id="patch_5">
    <path d="M 47.962344 173.877656 
L 349.2 173.877656 
" style="fill: none; stroke: #000000; stroke-width: 0.8; stroke-linejoin: miter; stroke-linecap: square"/>
   </g>
   <g id="patch_6">
    <path d="M 47.962344 14.598828 
L 349.2 14.598828 
" style="fill: none; stroke: #000000; stroke-width: 0.8; stroke-linejoin: miter; stroke-linecap: square"/>
   </g>
   <g id="text_15">
    <g id="patch_7">
     <path d="M 205.535268 71.680799 
L 235.127456 71.680799 
L 235.127456 53.680018 
L 205.535268 53.680018 
z
" style="fill: #ffffff; opacity: 0.8; stroke: #000000; stroke-linejoin: miter"/>
    </g>
    <!-- gain -->
    <g transform="translate(209.535268 65.278455) scale(0.1 -0.1)">
     <use xlink:href="#DejaVuSans-4a"/>
     <use xlink:href="#DejaVuSans-44" transform="translate(63.484375 0)"/>
     <use xlink:href="#DejaVuSans-4c" transform="translate(124.765625 0)"/>
     <use xlink:href="#DejaVuSans-51" transform="translate(152.546875 0)"/>
    </g>
   </g>
   <g id="text_16">
    <g id="patch_8">
     <path d="M 205.535268 129.600373 
L 241.825893 129.600373 
L 241.825893 111.599592 
L 205.535268 111.599592 
z
" style="fill: #ffffff; opacity: 0.8; stroke: #000000; stroke-linejoin: miter"/>
    </g>
    <!-- offset -->
    <g transform="translate(209.535268 123.198029) scale(0.1 -0.1)">
     <defs>
      <path id="DejaVuSans-52" d="M 1959 3097 
Q 1497 3097 1228 2736 
Q 959 2375 959 1747 
Q 959 1119 1226 758 
Q 1494 397 1959 397 
Q 2419 397 2687 759 
Q 2956 1122 2956 1747 
Q 2956 2369 2687 2733 
Q 2419 3097 1959 3097 
z
M 1959 3584 
Q 2709 3584 3137 3096 
Q 3566 2609 3566 1747 
Q 3566 888 3137 398 
Q 2709 -91 1959 -91 
Q 1206 -91 779 398 
Q 353 888 353 1747 
Q 353 2609 779 3096 
Q 1206 3584 1959 3584 
z
" transform="scale(0.015625)"/>
      <path id="DejaVuSans-13ae" d="M 4531 4863 
L 4531 4384 
L 3981 4384 
Q 3672 4384 3551 4259 
Q 3431 4134 3431 3809 
L 3431 3500 
L 4378 3500 
L 4378 3053 
L 3431 3053 
L 3431 0 
L 2853 0 
L 2853 3053 
L 1275 3053 
L 1275 0 
L 697 0 
L 697 3053 
L 147 3053 
L 147 3500 
L 697 3500 
L 697 3744 
Q 697 4328 969 4595 
Q 1241 4863 1831 4863 
L 2375 4863 
L 2375 4384 
L 1825 4384 
Q 1516 4384 1394 4259 
Q 1275 4134 1275 3809 
L 1275 3500 
L 2853 3500 
L 2853 3744 
Q 2853 4328 3125 4595 
Q 3397 4863 3988 4863 
L 4531 4863 
z
" transform="scale(0.015625)"/>
     </defs>
     <use xlink:href="#DejaVuSans-52"/>
     <use xlink:href="#DejaVuSans-13ae" transform="translate(61.1875 0)"/>
     <use xlink:href="#DejaVuSans-56" transform="translate(130.078125 0)"/>
     <use xlink:href="#DejaVuSans-48" transform="translate(182.171875 0)"/>
     <use xlink:href="#DejaVuSans-57" transform="translate(243.703125 0)"/>
    </g>
   </g>
  </g>
 </g>
 <defs>
  <clipPath id="pc9b4651f9e">
   <rect x="47.962344" y="14.598828" width="301.237656" height="159.278828"/>
  </clipPath>
 </defs>
</svg>
