<?xml version="1.0" encoding="UTF-8" standalone="no"?>
<svg
   width="1088"
   height="695"
   xml:space="preserve"
   overflow="hidden"
   version="1.1"
   id="svg22"
   sodipodi:docname="reference-frame-dark.svg"
   inkscape:version="1.4.4 (dcaf3e7d9e, 2026-05-05)"
   xmlns:inkscape="http://www.inkscape.org/namespaces/inkscape"
   xmlns:sodipodi="http://sodipodi.sourceforge.net/DTD/sodipodi-0.dtd"
   xmlns="http://www.w3.org/2000/svg"
   xmlns:svg="http://www.w3.org/2000/svg"><sodipodi:namedview
     id="namedview22"
     pagecolor="#333333"
     bordercolor="#000000"
     borderopacity="0.25"
     inkscape:showpageshadow="2"
     inkscape:pageopacity="0.0"
     inkscape:pagecheckerboard="0"
     inkscape:deskcolor="#d1d1d1"
     inkscape:zoom="1.0200453"
     inkscape:cx="553.89699"
     inkscape:cy="339.20063"
     inkscape:window-width="1920"
     inkscape:window-height="1022"
     inkscape:window-x="0"
     inkscape:window-y="0"
     inkscape:window-maximized="1"
     inkscape:current-layer="svg22" /><defs
     id="defs1" /><path
     d="m 491.5,565.79167 454.89,3.4e-4 v -4.58333 l -454.89,-3.5e-4 z m 450.307,11.45863 27.5,-13.74994 -27.5,-13.75006 z"
     id="path1"
     style="fill:#ffffff;fill-opacity:1" /><path
     d="M 492.67046,561.44955 171.01479,239.7934 l -3.2409,3.24091 321.65565,321.65614 z M 182.3577,234.93183 l -29.16812,-9.72276 9.72268,29.16821 z"
     id="path2"
     style="stroke:#ffffff;stroke-opacity:1;fill:#ffffff;fill-opacity:1" /><path
     d="m 492.67045,564.69046 321.65615,-321.65567 -3.24091,-3.2409 -321.65614,321.65565 z m 326.51772,-310.31276 9.72276,-29.16812 -29.16821,9.72268 z"
     id="path3"
     style="fill:#ffffff;fill-opacity:1" /><path
     d="m 499.13949,562.17458 -7.16338,-16.8759 -4.21897,1.79084 7.16337,16.8759 z m -12.53592,-29.53285 -7.16342,-16.87599 -4.21897,1.79085 7.16341,16.87599 z m -12.53595,-29.53294 -7.16338,-16.8759 -4.21898,1.79085 7.16337,16.8759 z m -12.53592,-29.53285 -7.16326,-16.87562 -4.21898,1.79085 7.16326,16.87562 z m -12.5358,-29.53257 -7.16365,-16.87655 -4.21899,1.79086 7.16366,16.87654 z m -12.53619,-29.53349 -7.16326,-16.87563 -4.21898,1.79085 7.16325,16.87563 z m -12.5358,-29.53257 -7.16326,-16.87563 -4.21899,1.79085 7.16327,16.87563 z m -12.5358,-29.53258 -7.16365,-16.87654 -4.21898,1.79085 7.16364,16.87655 z m -12.53619,-29.53349 -7.16327,-16.87562 -4.21898,1.79085 7.16327,16.87562 z m -12.53581,-29.53257 -7.16325,-16.87562 -4.21898,1.79085 7.16325,16.87562 z m -12.53579,-29.53257 -7.16366,-16.87654 -4.21898,1.79085 7.16366,16.87654 z m -12.5362,-29.53349 -7.16325,-16.87563 -4.21899,1.79086 7.16326,16.87562 z m -12.53579,-29.53257 -7.16327,-16.87563 -4.21897,1.79085 7.16325,16.87563 z m -12.53581,-29.53257 -7.16364,-16.87655 -4.21899,1.79085 7.16365,16.87654 z m -12.53618,-29.5335 -2.23616,-5.26805 -4.21898,1.79085 2.23615,5.26805 z m 10.10198,-5.52648 -23.40199,-19.94136 -1.9119,30.68646 z"
     id="path4"
     style="stroke:#ffffff;stroke-opacity:1;fill:#ffffff;fill-opacity:1" /><path
     d="m 497.92542,565.17949 16.8759,-7.16338 -1.79084,-4.21897 -16.8759,7.16337 z m 29.53285,-12.53592 16.87599,-7.16342 -1.79085,-4.21897 -16.87599,7.16341 z m 29.53294,-12.53595 16.8759,-7.16338 -1.79085,-4.21898 -16.8759,7.16337 z m 29.53285,-12.53592 16.87562,-7.16326 -1.79085,-4.21898 -16.87562,7.16326 z m 29.53257,-12.5358 16.87655,-7.16365 -1.79086,-4.21899 -16.87654,7.16366 z m 29.53349,-12.53619 16.87563,-7.16326 -1.79085,-4.21898 -16.87563,7.16325 z m 29.53257,-12.5358 16.87563,-7.16326 -1.79085,-4.21899 -16.87563,7.16327 z m 29.53258,-12.5358 16.87654,-7.16365 -1.79085,-4.21898 -16.87655,7.16364 z m 29.53349,-12.53619 16.87562,-7.16327 -1.79085,-4.21898 -16.87562,7.16327 z m 29.53257,-12.53581 16.87562,-7.16325 -1.79085,-4.21898 -16.87562,7.16325 z m 29.53257,-12.53579 16.87654,-7.16366 -1.79085,-4.21898 -16.87654,7.16366 z m 29.53349,-12.5362 16.87563,-7.16325 -1.79086,-4.21899 -16.87562,7.16326 z m 29.53257,-12.53579 16.87563,-7.16327 -1.79085,-4.21897 -16.87563,7.16325 z m 29.53257,-12.53581 16.87655,-7.16364 -1.79085,-4.21899 -16.87654,7.16365 z m 29.5335,-12.53618 5.26805,-2.23616 -1.79085,-4.21898 -5.26805,2.23615 z m 5.52648,10.10198 19.94136,-23.40199 -30.68646,-1.9119 z"
     id="path5"
     style="fill:#ffffff;fill-opacity:1" /><path
     d="m 493.26358,563.67313 117.73451,-439.38999 -4.42716,-1.18626 -117.73451,439.38999 z m 127.6162,-431.99753 -6.1639,-30.12171 -20.39907,23.00419 z"
     fill="#ff0000"
     id="path6" /><path
     d="m 603.4,475.16 7.98,3.84 4.45,3.77 3.9,4.1 3.57,4.48 3.12,4.87 2.78,5.24 2.27,5.5 1.87,5.81 1.36,6.01 0.84,6.27 0.25,6.48 -0.57,9.07 -1.68,8.85 -2.78,8.47 -3.77,7.84 -4.13,-1.99 3.7,-7.7 -0.11,0.28 2.69,-8.19 -0.08,0.29 1.63,-8.56 -0.04,0.28 0.56,-8.82 v 0.24 l -0.25,-6.25 0.02,0.21 -0.81,-6.06 0.03,0.2 -1.31,-5.81 0.05,0.2 -1.81,-5.63 0.06,0.17 -2.18,-5.31 0.09,0.2 -2.69,-5.06 0.1,0.16 -3,-4.69 0.14,0.2 -3.44,-4.32 0.13,0.16 -3.75,-3.94 0.18,0.17 -4.13,-3.5 0.49,0.31 -7.72,-3.71 z m -0.64,16.55 -22.26,-21.21 30.32,-5.08 z"
     fill="#4472c4"
     id="path7"
     style="fill:#78eeee;fill-opacity:1" /><path
     d="m 751.69,479.11 4.82,6.38 4.55,11.43 3.07,12.45 0.96,6.55 0.57,6.65 0.13,6.83 -0.25,6.82 -0.71,6.9 -1.15,6.91 -1.79,7.23 -2.22,6.8 -4.35,-1.42 2.19,-6.73 -0.05,0.16 1.75,-7.06 -0.03,0.18 1.12,-6.75 -0.02,0.14 0.69,-6.75 -0.01,0.15 0.25,-6.69 v 0.13 l -0.13,-6.69 0.01,0.16 -0.56,-6.5 0.02,0.13 -0.94,-6.37 0.04,0.21 -3,-12.19 0.1,0.3 -4.38,-11 0.3,0.54 -4.63,-6.13 z m -8.68,14.16 -8.88,-29.44 28.88,10.56 z"
     fill="#4472c4"
     id="path8"
     style="fill:#78eeee;fill-opacity:1" /><path
     d="m 248.25,109.04 c -2.69,-1.85 -5.7,-2.89 -9.05,-3.14 -3.35,-0.24 -6.56,0.29 -9.63,1.6 -2.01,0.85 -3.37,1.83 -4.06,2.94 -0.7,1.11 -0.74,2.39 -0.13,3.82 0.52,1.23 1.49,2.18 2.91,2.86 1.42,0.68 3.14,0.96 5.17,0.86 2.03,-0.1 4.14,-0.62 6.35,-1.56 2.01,-0.85 3.74,-1.91 5.19,-3.17 1.44,-1.26 2.53,-2.66 3.25,-4.21 z m 18.58,-4.94 c 1.71,4.03 2.19,8.7 1.43,14 l -5.92,1.02 -1.66,-3.92 c 1.76,-1.67 2.9,-3.31 3.43,-4.92 0.53,-1.6 0.47,-3.16 -0.17,-4.68 -0.41,-0.95 -0.96,-1.62 -1.66,-1.99 -0.7,-0.37 -1.47,-0.38 -2.29,-0.03 -0.65,0.28 -1.24,0.7 -1.76,1.26 -0.52,0.56 -1.06,1.34 -1.61,2.36 -0.55,1.02 -1.37,2.74 -2.44,5.16 -1.01,2.26 -1.97,4.11 -2.88,5.55 -0.9,1.44 -1.99,2.71 -3.25,3.82 -1.25,1.11 -2.76,2.04 -4.5,2.78 -2.78,1.18 -5.6,1.57 -8.45,1.18 -2.85,-0.4 -5.41,-1.54 -7.67,-3.44 -2.26,-1.89 -4.02,-4.32 -5.28,-7.29 -1.01,-2.38 -1.48,-4.62 -1.39,-6.71 0.08,-2.1 0.71,-3.95 1.9,-5.56 1.18,-1.61 2.86,-2.88 5.02,-3.8 3.36,-1.42 7,-1.58 10.91,-0.49 3.92,1.1 7.65,3.4 11.2,6.9 0.99,-2.19 1.93,-3.86 2.8,-5 0.87,-1.14 2.05,-2.02 3.52,-2.65 1.31,-0.55 2.64,-0.66 3.99,-0.31 1.36,0.34 2.63,1.09 3.8,2.27 1.18,1.17 2.16,2.67 2.93,4.49 z"
     fill-rule="evenodd"
     id="path9"
     style="stroke:none;stroke-opacity:1;fill:#ffffff;fill-opacity:1" /><text
     fill="#000000"
     fill-opacity="0"
     font-family="Arial, Arial_MSFontService, sans-serif"
     font-size="28.6967px"
     x="220.75"
     y="122.25"
     id="text9"
     style="stroke:none;stroke-opacity:1">𝜹</text><text
     font-family="'Times New Roman', 'Times New Roman_MSFontService', sans-serif"
     font-weight="700"
     font-size="64px"
     transform="rotate(67.00001)"
     id="text10"
     x="214.52702"
     y="-159.88794"
     style="stroke:none;stroke-opacity:1;fill:#ffffff;fill-opacity:1">-<tspan
   font-size="64px"
   x="235.25291"
   y="-160.08832"
   id="tspan9"
   style="stroke:none;stroke-opacity:1;fill:#ffffff;fill-opacity:1">axis</tspan></text><text
     font-family="'Times New Roman', 'Times New Roman_MSFontService', sans-serif"
     font-weight="700"
     font-size="64.8917px"
     transform="rotate(45)"
     id="text11"
     x="218.19008"
     y="127.35759"
     style="stroke-width:1.01393;stroke:none;stroke-opacity:1;fill:#ffffff;fill-opacity:1">q<tspan
   font-size="64.8917px"
   x="254.12184"
   y="127.27374"
   id="tspan10"
   style="stroke-width:1.01393;stroke:none;stroke-opacity:1;fill:#ffffff;fill-opacity:1">-</tspan><tspan
   font-size="64.8917px"
   x="275.62289"
   y="127.28144"
   id="tspan11"
   style="stroke-width:1.01393;stroke:none;stroke-opacity:1;fill:#ffffff;fill-opacity:1">axis</tspan></text><text
     font-family="'Times New Roman', 'Times New Roman_MSFontService', sans-serif"
     font-weight="700"
     font-size="64px"
     transform="rotate(-45)"
     id="text13"
     x="329.81607"
     y="826.20453"
     style="stroke:none;stroke-opacity:1;fill:#ffffff;fill-opacity:1">d<tspan
   font-size="64px"
   x="365.96118"
   y="825.58014"
   id="tspan12"
   style="stroke:none;stroke-opacity:1;fill:#ffffff;fill-opacity:1">-</tspan><tspan
   font-size="64px"
   x="387.16678"
   y="825.57251"
   id="tspan13"
   style="stroke:none;stroke-opacity:1;fill:#ffffff;fill-opacity:1">axis</tspan></text><path
     d="m 874.58,453.78 c 1.68,-0.72 3.18,-0.91 4.49,-0.57 1.31,0.34 2.5,1.17 3.57,2.49 1.07,1.32 2.12,3.19 3.15,5.61 1.11,2.63 2.36,6.25 3.76,10.86 l 0.32,0.04 c 0.49,-4.65 0.78,-9.11 0.87,-13.38 0.09,-4.27 -0.02,-8.01 -0.32,-11.23 l 9.46,-4.02 0.42,2.1 c -1.6,5.41 -3.16,11.31 -4.67,17.7 -1.52,6.39 -2.71,12.18 -3.56,17.37 1.32,4.28 2.34,8.32 3.08,12.13 l -6.85,2.91 -2.45,-1.61 c -0.11,-1.65 -0.15,-3.57 -0.13,-5.75 0.02,-2.18 0.15,-4.16 0.37,-5.93 -0.86,-2.51 -2.09,-5.64 -3.69,-9.4 -0.98,-2.32 -1.91,-4.39 -2.78,-6.2 -0.87,-1.82 -1.71,-3.33 -2.5,-4.54 -0.8,-1.21 -1.57,-2.06 -2.31,-2.55 -0.74,-0.49 -1.46,-0.59 -2.17,-0.28 -0.37,0.15 -0.68,0.36 -0.95,0.62 -0.26,0.25 -0.54,0.66 -0.84,1.2 -0.3,0.55 -0.62,1.28 -0.96,2.19 l -2.93,-1.16 c 1.12,-2.42 2.19,-4.26 3.22,-5.51 1.03,-1.26 2.5,-2.29 4.4,-3.09 z"
     fill-rule="evenodd"
     id="path13"
     style="fill:#ffffff;fill-opacity:1" /><text
     font-family="'Times New Roman', 'Times New Roman_MSFontService', sans-serif"
     font-weight="700"
     font-size="64px"
     transform="rotate(-22.99999)"
     id="text15"
     x="655.77521"
     y="791.12177"
     style="stroke:none;stroke-opacity:1;fill:#ffffff;fill-opacity:1">-<tspan
   font-size="64px"
   x="676.86261"
   y="791.38196"
   id="tspan14"
   style="stroke:none;stroke-opacity:1;fill:#ffffff;fill-opacity:1">axis</tspan></text><path
     d="m 604.59,45.53 h 16.16 l -0.47,2.06 c -0.92,0.06 -1.63,0.29 -2.14,0.69 -0.51,0.39 -0.88,0.92 -1.1,1.59 -0.22,0.67 -0.32,1.67 -0.32,3 v 1.34 c 0,0.46 0.01,0.95 0.03,1.47 l 0.22,10.97 c 0.08,4.19 0.12,8.01 0.12,11.47 h 0.38 l 10.09,-18.94 c 1.62,-3.04 2.62,-5.09 2.98,-6.14 0.37,-1.05 0.55,-2 0.55,-2.86 0,-1.5 -0.89,-2.36 -2.66,-2.59 l 0.47,-2.06 h 13.32 l -0.47,2.06 c -0.75,0.17 -1.4,0.45 -1.96,0.86 -0.55,0.41 -1.06,0.94 -1.54,1.59 -0.48,0.66 -1.19,1.82 -2.13,3.49 l -19.4,34.87 h -7.85 L 607.53,55 c -0.04,-1.19 -0.13,-2.26 -0.25,-3.21 -0.13,-0.95 -0.33,-1.72 -0.6,-2.33 -0.27,-0.6 -0.61,-1.04 -1.01,-1.32 -0.41,-0.28 -0.92,-0.47 -1.55,-0.55 z"
     fill="#ff0000"
     fill-rule="evenodd"
     id="path15" /><text
     fill="#000000"
     fill-opacity="0"
     font-family="Arial, Arial_MSFontService, sans-serif"
     font-size="42.875px"
     x="604.12012"
     y="83.040039"
     id="text16">𝑽</text><path
     d="m 635.04,25.62 7.85,6.78 v 1.81 l -7.85,6.78 -1.65,-1.87 5,-4.35 h -12.21 -6.25 -0.6 -11.9 -6.25 v -2.93 h 6.25 11.9 0.6 6.25 12.21 l -5,-4.35 z"
     fill="#ff0000"
     fill-rule="evenodd"
     id="path16" /><path
     d="m 660.41,525.4 c -0.54,2.23 -0.93,4.35 -1.17,6.35 -0.24,2 -0.36,3.77 -0.36,5.31 0,1.83 0.28,3.2 0.83,4.09 0.55,0.9 1.42,1.35 2.61,1.35 2.08,0 4.04,-1.47 5.89,-4.41 1.84,-2.94 3.42,-7.17 4.73,-12.69 z m 11.53,-20.72 c -2.12,0 -4.11,1.42 -5.95,4.25 -1.84,2.84 -3.42,7.02 -4.74,12.54 h 12.54 c 0.45,-2.11 0.81,-4.05 1.07,-5.82 0.26,-1.77 0.39,-3.41 0.39,-4.93 0,-2.17 -0.25,-3.72 -0.76,-4.64 -0.51,-0.93 -1.36,-1.4 -2.55,-1.4 z m 0.06,-3.25 c 3.84,0 6.7,1.1 8.6,3.3 1.89,2.2 2.84,5.5 2.84,9.89 0,3.09 -0.5,6.72 -1.51,10.89 -1.01,4.18 -2.44,7.8 -4.28,10.88 -1.85,3.07 -4.07,5.4 -6.68,6.98 -2.6,1.59 -5.54,2.38 -8.81,2.38 -3.81,0 -6.68,-1.1 -8.59,-3.28 -1.92,-2.19 -2.88,-5.39 -2.88,-9.6 0,-3.08 0.5,-6.73 1.49,-10.94 0.99,-4.2 2.4,-7.86 4.23,-10.96 1.83,-3.11 4.05,-5.47 6.66,-7.1 2.6,-1.62 5.58,-2.44 8.93,-2.44 z"
     fill-rule="evenodd"
     id="path17"
     style="stroke:none;stroke-opacity:1;fill:#ffffff;fill-opacity:1" /><path
     d="m 703.24,537.59 c -1.42,0 -2.7,0.7 -3.84,2.11 -1.14,1.41 -2.08,3.46 -2.81,6.15 2.81,-0.08 4.97,-0.62 6.46,-1.62 1.49,-1 2.24,-2.42 2.24,-4.26 0,-0.78 -0.18,-1.37 -0.54,-1.78 -0.36,-0.4 -0.86,-0.6 -1.51,-0.6 z m 0.58,-2.39 c 4.68,0 7.02,1.69 7.02,5.07 0,1.16 -0.23,2.19 -0.7,3.08 -0.47,0.88 -1.24,1.69 -2.33,2.41 -1.09,0.72 -2.62,1.3 -4.6,1.74 -1.98,0.44 -4.37,0.7 -7.17,0.76 -0.2,0.9 -0.3,1.83 -0.3,2.8 0,1.42 0.3,2.49 0.89,3.21 0.6,0.72 1.5,1.08 2.71,1.08 1.35,0 2.57,-0.27 3.65,-0.82 1.09,-0.54 2.37,-1.51 3.83,-2.9 l 1.93,1.93 c -1.54,1.74 -3.21,3.04 -4.99,3.88 -1.78,0.84 -3.71,1.26 -5.79,1.26 -1.79,0 -3.32,-0.31 -4.57,-0.94 -1.26,-0.63 -2.2,-1.56 -2.84,-2.79 -0.63,-1.23 -0.95,-2.7 -0.95,-4.42 0,-0.79 0.11,-1.81 0.32,-3.05 0.29,-1.68 0.74,-3.18 1.33,-4.5 0.75,-1.62 1.73,-3.01 2.94,-4.17 1.21,-1.17 2.63,-2.06 4.26,-2.69 1.63,-0.63 3.41,-0.94 5.36,-0.94 z"
     fill-rule="evenodd"
     id="path18"
     style="stroke:none;stroke-opacity:1;fill:#ffffff;fill-opacity:1" /><path
     d="m 789.65,524.44 c -0.55,2.22 -0.94,4.34 -1.18,6.34 -0.23,2 -0.35,3.77 -0.35,5.31 0,1.83 0.27,3.2 0.82,4.1 0.56,0.89 1.43,1.34 2.61,1.34 2.09,0 4.05,-1.47 5.89,-4.41 1.85,-2.93 3.43,-7.16 4.74,-12.68 z m 11.53,-20.72 c -2.13,0 -4.11,1.41 -5.96,4.25 -1.84,2.83 -3.42,7.01 -4.73,12.53 h 12.53 c 0.46,-2.11 0.82,-4.04 1.08,-5.81 0.26,-1.78 0.39,-3.42 0.39,-4.94 0,-2.17 -0.25,-3.72 -0.77,-4.64 -0.51,-0.93 -1.35,-1.39 -2.54,-1.39 z m 0.06,-3.25 c 3.83,0 6.7,1.1 8.59,3.29 1.9,2.2 2.85,5.5 2.85,9.89 0,3.09 -0.51,6.72 -1.52,10.89 -1.01,4.18 -2.44,7.81 -4.28,10.88 -1.84,3.07 -4.07,5.4 -6.67,6.98 -2.61,1.59 -5.54,2.38 -8.81,2.38 -3.82,0 -6.68,-1.09 -8.6,-3.28 -1.91,-2.19 -2.87,-5.39 -2.87,-9.6 0,-3.08 0.49,-6.73 1.48,-10.93 0.99,-4.21 2.4,-7.87 4.24,-10.97 1.83,-3.11 4.05,-5.47 6.65,-7.1 2.61,-1.62 5.59,-2.43 8.94,-2.43 z"
     fill-rule="evenodd"
     id="path19"
     style="fill:#ffffff;fill-opacity:1" /><path
     d="m 794.05,487.79 h 4.19 l 15.87,7.72 -0.9,1.97 -16.72,-5.66 h -0.35 l -16.68,5.66 -0.88,-1.97 z"
     fill-rule="evenodd"
     id="path20"
     style="stroke:none;stroke-opacity:1;fill:#ffffff;fill-opacity:1" /><text
     fill="#000000"
     fill-opacity="0"
     font-family="Arial, Arial_MSFontService, sans-serif"
     font-size="9.6875px"
     x="778.58008"
     y="496.27002"
     id="text20">෡</text><path
     d="m 832.48,536.62 c -1.42,0 -2.7,0.7 -3.84,2.11 -1.14,1.41 -2.08,3.46 -2.82,6.15 2.82,-0.08 4.97,-0.62 6.46,-1.62 1.5,-1 2.24,-2.42 2.24,-4.25 0,-0.79 -0.18,-1.38 -0.54,-1.78 -0.36,-0.41 -0.86,-0.61 -1.5,-0.61 z m 0.57,-2.39 c 4.69,0 7.03,1.69 7.03,5.07 0,1.17 -0.24,2.19 -0.7,3.08 -0.47,0.89 -1.25,1.69 -2.33,2.41 -1.09,0.72 -2.62,1.3 -4.6,1.74 -1.99,0.45 -4.38,0.7 -7.18,0.76 -0.2,0.9 -0.29,1.84 -0.29,2.8 0,1.42 0.29,2.49 0.89,3.21 0.6,0.72 1.5,1.08 2.71,1.08 1.34,0 2.56,-0.27 3.65,-0.81 1.08,-0.55 2.36,-1.51 3.83,-2.91 l 1.93,1.93 c -1.55,1.75 -3.21,3.04 -4.99,3.88 -1.79,0.84 -3.72,1.26 -5.8,1.26 -1.79,0 -3.31,-0.31 -4.57,-0.94 -1.25,-0.63 -2.19,-1.56 -2.83,-2.79 -0.63,-1.23 -0.95,-2.7 -0.95,-4.42 0,-0.79 0.11,-1.81 0.32,-3.05 0.29,-1.68 0.73,-3.18 1.33,-4.5 0.75,-1.62 1.73,-3.01 2.94,-4.17 1.21,-1.17 2.63,-2.06 4.25,-2.69 1.63,-0.62 3.42,-0.94 5.36,-0.94 z"
     fill-rule="evenodd"
     id="path21"
     style="stroke:none;stroke-opacity:1;fill:#ffffff;fill-opacity:1" /><text
     font-family="'Times New Roman', 'Times New Roman_MSFontService', sans-serif"
     font-weight="700"
     font-size="64px"
     id="text22"
     x="709.75"
     y="641"
     style="stroke:none;stroke-opacity:1;fill:#ffffff;fill-opacity:1">phase u<tspan
   font-size="64px"
   x="918.29199"
   y="641"
   id="tspan21"
   style="stroke:none;stroke-opacity:1;fill:#ffffff;fill-opacity:1">-</tspan><tspan
   font-size="64px"
   x="939.48999"
   y="641"
   id="tspan22"
   style="stroke:none;stroke-opacity:1;fill:#ffffff;fill-opacity:1">axis</tspan></text></svg>
