<svg width="1088" height="695" xmlns="http://www.w3.org/2000/svg" xmlns:xlink="http://www.w3.org/1999/xlink" xml:space="preserve" overflow="hidden"><defs><clipPath id="clip0"><rect x="2286" y="1366" width="1088" height="695"/></clipPath></defs><g clip-path="url(#clip0)" transform="translate(-2286 -1366)"><path d="M2.29167-1.73092e-06 2.29201 454.89-2.29132 454.89-2.29167 1.73092e-06ZM13.7503 450.307 0.000360892 477.807-13.7497 450.307Z" transform="matrix(6.12323e-17 1 1 -6.12323e-17 2777.5 1929.5)"/><path d="M2.29167-1.73092e-06 2.29201 454.89-2.29132 454.89-2.29167 1.73092e-06ZM13.7503 450.307 0.000360892 477.807-13.7497 450.307Z" transform="matrix(0.707107 -0.707107 -0.707107 -0.707107 2777.05 1929.07)"/><path d="M2.29167-1.73092e-06 2.29201 454.89-2.29132 454.89-2.29167 1.73092e-06ZM13.7503 450.307 0.000360892 477.807-13.7497 450.307Z" transform="matrix(0.707107 0.707107 0.707107 -0.707107 2777.05 1929.07)"/><path d="M2.29167-1.73092e-06 2.29168 18.3333-2.29165 18.3333-2.29167 1.73092e-06ZM2.29169 32.0833 2.2917 50.4167-2.29163 50.4167-2.29164 32.0833ZM2.29172 64.1667 2.29173 82.5-2.2916 82.5-2.29162 64.1667ZM2.29174 96.25 2.29175 114.583-2.29158 114.583-2.29159 96.25ZM2.29176 128.333 2.29178 146.667-2.29156 146.667-2.29157 128.333ZM2.29179 160.417 2.2918 178.75-2.29153 178.75-2.29155 160.417ZM2.29181 192.5 2.29183 210.833-2.29151 210.833-2.29152 192.5ZM2.29184 224.583 2.29185 242.917-2.29148 242.917-2.2915 224.583ZM2.29186 256.667 2.29187 275-2.29146 275-2.29147 256.667ZM2.29188 288.75 2.2919 307.083-2.29143 307.083-2.29145 288.75ZM2.29191 320.833 2.29192 339.167-2.29141 339.167-2.29142 320.833ZM2.29193 352.917 2.29195 371.25-2.29139 371.25-2.2914 352.917ZM2.29196 385 2.29197 403.333-2.29136 403.333-2.29138 385ZM2.29198 417.083 2.292 435.417-2.29134 435.417-2.29135 417.083ZM2.29201 449.167 2.29201 454.89-2.29132 454.89-2.29133 449.167ZM13.7503 450.307 0.000360892 477.807-13.7497 450.307Z" transform="matrix(0.920505 -0.390731 -0.390731 -0.920505 2783.03 1929.07)"/><path d="M2.29167-1.73092e-06 2.29168 18.3333-2.29165 18.3333-2.29167 1.73092e-06ZM2.29169 32.0833 2.2917 50.4167-2.29163 50.4167-2.29164 32.0833ZM2.29172 64.1667 2.29173 82.5-2.2916 82.5-2.29162 64.1667ZM2.29174 96.25 2.29175 114.583-2.29158 114.583-2.29159 96.25ZM2.29176 128.333 2.29178 146.667-2.29156 146.667-2.29157 128.333ZM2.29179 160.417 2.2918 178.75-2.29153 178.75-2.29155 160.417ZM2.29181 192.5 2.29183 210.833-2.29151 210.833-2.29152 192.5ZM2.29184 224.583 2.29185 242.917-2.29148 242.917-2.2915 224.583ZM2.29186 256.667 2.29187 275-2.29146 275-2.29147 256.667ZM2.29188 288.75 2.2919 307.083-2.29143 307.083-2.29145 288.75ZM2.29191 320.833 2.29192 339.167-2.29141 339.167-2.29142 320.833ZM2.29193 352.917 2.29195 371.25-2.29139 371.25-2.2914 352.917ZM2.29196 385 2.29197 403.333-2.29136 403.333-2.29138 385ZM2.29198 417.083 2.292 435.417-2.29134 435.417-2.29135 417.083ZM2.29201 449.167 2.29201 454.89-2.29132 454.89-2.29133 449.167ZM13.7503 450.307 0.000360892 477.807-13.7497 450.307Z" transform="matrix(0.390731 0.920505 0.920505 -0.390731 2783.03 1929.07)"/><path d="M2.29167-1.73092e-06 2.29201 454.89-2.29132 454.89-2.29167 1.73092e-06ZM13.7503 450.307 0.000360892 477.807-13.7497 450.307Z" fill="#FF0000" transform="matrix(0.965926 0.258819 0.258819 -0.965926 2777.05 1929.08)"/><path d="M2889.4 1841.16 2897.38 1845 2901.83 1848.77 2905.73 1852.87 2909.3 1857.35 2912.42 1862.22 2915.2 1867.46 2917.47 1872.96 2919.34 1878.77 2920.7 1884.78 2921.54 1891.05 2921.79 1897.53 2921.22 1906.6 2919.54 1915.45 2916.76 1923.92 2912.99 1931.76 2908.86 1929.77 2912.56 1922.07 2912.45 1922.35 2915.14 1914.16 2915.06 1914.45 2916.69 1905.89 2916.65 1906.17 2917.21 1897.35 2917.21 1897.59 2916.96 1891.34 2916.98 1891.55 2916.17 1885.49 2916.2 1885.69 2914.89 1879.88 2914.94 1880.08 2913.13 1874.45 2913.19 1874.62 2911.01 1869.31 2911.1 1869.51 2908.41 1864.45 2908.51 1864.61 2905.51 1859.92 2905.65 1860.12 2902.21 1855.8 2902.34 1855.96 2898.59 1852.02 2898.77 1852.19 2894.64 1848.69 2895.13 1849 2887.41 1845.29ZM2888.76 1857.71 2866.5 1836.5 2896.82 1831.42Z" fill="#4472C4"/><path d="M3037.69 1845.11 3042.51 1851.49 3047.06 1862.92 3050.13 1875.37 3051.09 1881.92 3051.66 1888.57 3051.79 1895.4 3051.54 1902.22 3050.83 1909.12 3049.68 1916.03 3047.89 1923.26 3045.67 1930.06 3041.32 1928.64 3043.51 1921.91 3043.46 1922.07 3045.21 1915.01 3045.18 1915.19 3046.3 1908.44 3046.28 1908.58 3046.97 1901.83 3046.96 1901.98 3047.21 1895.29 3047.21 1895.42 3047.08 1888.73 3047.09 1888.89 3046.53 1882.39 3046.55 1882.52 3045.61 1876.15 3045.65 1876.36 3042.65 1864.17 3042.75 1864.47 3038.37 1853.47 3038.67 1854.01 3034.04 1847.88ZM3029.01 1859.27 3020.13 1829.83 3049.01 1840.39Z" fill="#4472C4"/><path d="M2534.25 1475.04C2531.56 1473.19 2528.55 1472.15 2525.2 1471.9 2521.85 1471.66 2518.64 1472.19 2515.57 1473.5 2513.56 1474.35 2512.2 1475.33 2511.51 1476.44 2510.81 1477.55 2510.77 1478.83 2511.38 1480.26 2511.9 1481.49 2512.87 1482.44 2514.29 1483.12 2515.71 1483.8 2517.43 1484.08 2519.46 1483.98 2521.49 1483.88 2523.6 1483.36 2525.81 1482.42 2527.82 1481.57 2529.55 1480.51 2531 1479.25 2532.44 1477.99 2533.53 1476.59 2534.25 1475.04ZM2552.83 1470.1C2554.54 1474.13 2555.02 1478.8 2554.26 1484.1L2548.34 1485.12 2546.68 1481.2C2548.44 1479.53 2549.58 1477.89 2550.11 1476.28 2550.64 1474.68 2550.58 1473.12 2549.94 1471.6 2549.53 1470.65 2548.98 1469.98 2548.28 1469.61 2547.58 1469.24 2546.81 1469.23 2545.99 1469.58 2545.34 1469.86 2544.75 1470.28 2544.23 1470.84 2543.71 1471.4 2543.17 1472.18 2542.62 1473.2 2542.07 1474.22 2541.25 1475.94 2540.18 1478.36 2539.17 1480.62 2538.21 1482.47 2537.3 1483.91 2536.4 1485.35 2535.31 1486.62 2534.05 1487.73 2532.8 1488.84 2531.29 1489.77 2529.55 1490.51 2526.77 1491.69 2523.95 1492.08 2521.1 1491.69 2518.25 1491.29 2515.69 1490.15 2513.43 1488.25 2511.17 1486.36 2509.41 1483.93 2508.15 1480.96 2507.14 1478.58 2506.67 1476.34 2506.76 1474.25 2506.84 1472.15 2507.47 1470.3 2508.66 1468.69 2509.84 1467.08 2511.52 1465.81 2513.68 1464.89 2517.04 1463.47 2520.68 1463.31 2524.59 1464.4 2528.51 1465.5 2532.24 1467.8 2535.79 1471.3 2536.78 1469.11 2537.72 1467.44 2538.59 1466.3 2539.46 1465.16 2540.64 1464.28 2542.11 1463.65 2543.42 1463.1 2544.75 1462.99 2546.1 1463.34 2547.46 1463.68 2548.73 1464.43 2549.9 1465.61 2551.08 1466.78 2552.06 1468.28 2552.83 1470.1Z" fill-rule="evenodd"/><text fill="#000000" fill-opacity="0" font-family="Arial,Arial_MSFontService,sans-serif" font-size="28.6967" x="2506.75" y="1488.25">𝜹</text><text font-family="Times New Roman,Times New Roman_MSFontService,sans-serif" font-weight="700" font-size="64" transform="matrix(0.390731 0.920505 -0.920505 0.390731 2517 1501)">-<tspan font-size="64" x="20.7259" y="-0.200388">axis</tspan></text><text font-family="Times New Roman,Times New Roman_MSFontService,sans-serif" font-weight="700" font-size="64" transform="matrix(0.707107 0.707107 -0.707107 0.707107 2351.12 1611)">q<tspan font-size="64" x="35.438" y="-0.0826912">-</tspan><tspan font-size="64" x="56.6436" y="-0.0750961">axis</tspan></text><text font-family="Times New Roman,Times New Roman_MSFontService,sans-serif" font-weight="700" font-size="64" transform="matrix(0.707107 -0.707107 0.707107 0.707107 3103.43 1717)">d<tspan font-size="64" x="36.1451" y="-0.624414">-</tspan><tspan font-size="64" x="57.3507" y="-0.632011">axis</tspan></text><path d="M3160.58 1819.78C3162.26 1819.06 3163.76 1818.87 3165.07 1819.21 3166.38 1819.55 3167.57 1820.38 3168.64 1821.7 3169.71 1823.02 3170.76 1824.89 3171.79 1827.31 3172.9 1829.94 3174.15 1833.56 3175.55 1838.17L3175.87 1838.21C3176.36 1833.56 3176.65 1829.1 3176.74 1824.83 3176.83 1820.56 3176.72 1816.82 3176.42 1813.6L3185.88 1809.58 3186.3 1811.68C3184.7 1817.09 3183.14 1822.99 3181.63 1829.38 3180.11 1835.77 3178.92 1841.56 3178.07 1846.75 3179.39 1851.03 3180.41 1855.07 3181.15 1858.88L3174.3 1861.79 3171.85 1860.18C3171.74 1858.53 3171.7 1856.61 3171.72 1854.43 3171.74 1852.25 3171.87 1850.27 3172.09 1848.5 3171.23 1845.99 3170 1842.86 3168.4 1839.1 3167.42 1836.78 3166.49 1834.71 3165.62 1832.9 3164.75 1831.08 3163.91 1829.57 3163.12 1828.36 3162.32 1827.15 3161.55 1826.3 3160.81 1825.81 3160.07 1825.32 3159.35 1825.22 3158.64 1825.53 3158.27 1825.68 3157.96 1825.89 3157.69 1826.15 3157.43 1826.4 3157.15 1826.81 3156.85 1827.35 3156.55 1827.9 3156.23 1828.63 3155.89 1829.54L3152.96 1828.38C3154.08 1825.96 3155.15 1824.12 3156.18 1822.87 3157.21 1821.61 3158.68 1820.58 3160.58 1819.78Z" fill-rule="evenodd"/><text fill="#000000" fill-opacity="0" font-family="Arial,Arial_MSFontService,sans-serif" font-size="52.2078" x="3152.96" y="1855.26">𝜸</text><text font-family="Times New Roman,Times New Roman_MSFontService,sans-serif" font-weight="700" font-size="64" transform="matrix(0.920505 -0.390731 0.390731 0.920505 3198.76 1838)">-<tspan font-size="64" x="21.0874" y="0.260178">axis</tspan></text><path d="M2890.59 1411.53 2906.75 1411.53 2906.28 1413.59C2905.36 1413.65 2904.65 1413.88 2904.14 1414.28 2903.63 1414.67 2903.26 1415.2 2903.04 1415.87 2902.82 1416.54 2902.72 1417.54 2902.72 1418.87L2902.72 1420.21C2902.72 1420.67 2902.73 1421.16 2902.75 1421.68L2902.97 1432.65C2903.05 1436.84 2903.09 1440.66 2903.09 1444.12L2903.47 1444.12 2913.56 1425.18C2915.18 1422.14 2916.18 1420.09 2916.54 1419.04 2916.91 1417.99 2917.09 1417.04 2917.09 1416.18 2917.09 1414.68 2916.2 1413.82 2914.43 1413.59L2914.9 1411.53 2928.22 1411.53 2927.75 1413.59C2927 1413.76 2926.35 1414.04 2925.79 1414.45 2925.24 1414.86 2924.73 1415.39 2924.25 1416.04 2923.77 1416.7 2923.06 1417.86 2922.12 1419.53L2902.72 1454.4 2894.87 1454.4 2893.53 1421C2893.49 1419.81 2893.4 1418.74 2893.28 1417.79 2893.15 1416.84 2892.95 1416.07 2892.68 1415.46 2892.41 1414.86 2892.07 1414.42 2891.67 1414.14 2891.26 1413.86 2890.75 1413.67 2890.12 1413.59Z" fill="#FF0000" fill-rule="evenodd"/><text fill="#000000" fill-opacity="0" font-family="Arial,Arial_MSFontService,sans-serif" font-size="42.875" x="2890.12" y="1449.04">𝑽</text><path d="M2921.04 1391.62 2928.89 1398.4 2928.89 1400.21 2921.04 1406.99 2919.39 1405.12 2924.39 1400.77 2912.18 1400.77 2905.93 1400.77 2905.33 1400.77 2893.43 1400.77 2887.18 1400.77 2887.18 1397.84 2893.43 1397.84 2905.33 1397.84 2905.93 1397.84 2912.18 1397.84 2924.39 1397.84 2919.39 1393.49Z" fill="#FF0000" fill-rule="evenodd"/><path d="M2946.41 1891.4C2945.87 1893.63 2945.48 1895.75 2945.24 1897.75 2945 1899.75 2944.88 1901.52 2944.88 1903.06 2944.88 1904.89 2945.16 1906.26 2945.71 1907.15 2946.26 1908.05 2947.13 1908.5 2948.32 1908.5 2950.4 1908.5 2952.36 1907.03 2954.21 1904.09 2956.05 1901.15 2957.63 1896.92 2958.94 1891.4ZM2957.94 1870.68C2955.82 1870.68 2953.83 1872.1 2951.99 1874.93 2950.15 1877.77 2948.57 1881.95 2947.25 1887.47L2959.79 1887.47C2960.24 1885.36 2960.6 1883.42 2960.86 1881.65 2961.12 1879.88 2961.25 1878.24 2961.25 1876.72 2961.25 1874.55 2961 1873 2960.49 1872.08 2959.98 1871.15 2959.13 1870.68 2957.94 1870.68ZM2958 1867.43C2961.84 1867.43 2964.7 1868.53 2966.6 1870.73 2968.49 1872.93 2969.44 1876.23 2969.44 1880.62 2969.44 1883.71 2968.94 1887.34 2967.93 1891.51 2966.92 1895.69 2965.49 1899.31 2963.65 1902.39 2961.8 1905.46 2959.58 1907.79 2956.97 1909.37 2954.37 1910.96 2951.43 1911.75 2948.16 1911.75 2944.35 1911.75 2941.48 1910.65 2939.57 1908.47 2937.65 1906.28 2936.69 1903.08 2936.69 1898.87 2936.69 1895.79 2937.19 1892.14 2938.18 1887.93 2939.17 1883.73 2940.58 1880.07 2942.41 1876.97 2944.24 1873.86 2946.46 1871.5 2949.07 1869.87 2951.67 1868.25 2954.65 1867.43 2958 1867.43Z" fill-rule="evenodd"/><text fill="#000000" fill-opacity="0" font-family="Arial,Arial_MSFontService,sans-serif" font-size="44.3125" x="2936.69" y="1906.21">𝜽</text><path d="M2989.24 1903.59C2987.82 1903.59 2986.54 1904.29 2985.4 1905.7 2984.26 1907.11 2983.32 1909.16 2982.59 1911.85 2985.4 1911.77 2987.56 1911.23 2989.05 1910.23 2990.54 1909.23 2991.29 1907.81 2991.29 1905.97 2991.29 1905.19 2991.11 1904.6 2990.75 1904.19 2990.39 1903.79 2989.89 1903.59 2989.24 1903.59ZM2989.82 1901.2C2994.5 1901.2 2996.84 1902.89 2996.84 1906.27 2996.84 1907.43 2996.61 1908.46 2996.14 1909.35 2995.67 1910.23 2994.9 1911.04 2993.81 1911.76 2992.72 1912.48 2991.19 1913.06 2989.21 1913.5 2987.23 1913.94 2984.84 1914.2 2982.04 1914.26 2981.84 1915.16 2981.74 1916.09 2981.74 1917.06 2981.74 1918.48 2982.04 1919.55 2982.63 1920.27 2983.23 1920.99 2984.13 1921.35 2985.34 1921.35 2986.69 1921.35 2987.91 1921.08 2988.99 1920.53 2990.08 1919.99 2991.36 1919.02 2992.82 1917.63L2994.75 1919.56C2993.21 1921.3 2991.54 1922.6 2989.76 1923.44 2987.98 1924.28 2986.05 1924.7 2983.97 1924.7 2982.18 1924.7 2980.65 1924.39 2979.4 1923.76 2978.14 1923.13 2977.2 1922.2 2976.56 1920.97 2975.93 1919.74 2975.61 1918.27 2975.61 1916.55 2975.61 1915.76 2975.72 1914.74 2975.93 1913.5 2976.22 1911.82 2976.67 1910.32 2977.26 1909 2978.01 1907.38 2978.99 1905.99 2980.2 1904.83 2981.41 1903.66 2982.83 1902.77 2984.46 1902.14 2986.09 1901.51 2987.87 1901.2 2989.82 1901.2Z" fill-rule="evenodd"/><text fill="#000000" fill-opacity="0" font-family="Arial,Arial_MSFontService,sans-serif" font-size="23.5" x="2975.61" y="1921.76">𝒆</text><path d="M3075.65 1890.44C3075.1 1892.66 3074.71 1894.78 3074.47 1896.78 3074.24 1898.78 3074.12 1900.55 3074.12 1902.09 3074.12 1903.92 3074.39 1905.29 3074.94 1906.19 3075.5 1907.08 3076.37 1907.53 3077.55 1907.53 3079.64 1907.53 3081.6 1906.06 3083.44 1903.12 3085.29 1900.19 3086.87 1895.96 3088.18 1890.44ZM3087.18 1869.72C3085.05 1869.72 3083.07 1871.13 3081.22 1873.97 3079.38 1876.8 3077.8 1880.98 3076.49 1886.5L3089.02 1886.5C3089.48 1884.39 3089.84 1882.46 3090.1 1880.69 3090.36 1878.91 3090.49 1877.27 3090.49 1875.75 3090.49 1873.58 3090.24 1872.03 3089.72 1871.11 3089.21 1870.18 3088.37 1869.72 3087.18 1869.72ZM3087.24 1866.47C3091.07 1866.47 3093.94 1867.57 3095.83 1869.76 3097.73 1871.96 3098.68 1875.26 3098.68 1879.65 3098.68 1882.74 3098.17 1886.37 3097.16 1890.54 3096.15 1894.72 3094.72 1898.35 3092.88 1901.42 3091.04 1904.49 3088.81 1906.82 3086.21 1908.4 3083.6 1909.99 3080.67 1910.78 3077.4 1910.78 3073.58 1910.78 3070.72 1909.69 3068.8 1907.5 3066.89 1905.31 3065.93 1902.11 3065.93 1897.9 3065.93 1894.82 3066.42 1891.17 3067.41 1886.97 3068.4 1882.76 3069.81 1879.1 3071.65 1876 3073.48 1872.89 3075.7 1870.53 3078.3 1868.9 3080.91 1867.28 3083.89 1866.47 3087.24 1866.47Z" fill-rule="evenodd"/><text fill="#000000" fill-opacity="0" font-family="Arial,Arial_MSFontService,sans-serif" font-size="44.3125" x="3065.93" y="1905.24">𝜽</text><path d="M3080.05 1853.79 3084.24 1853.79 3100.11 1861.51 3099.21 1863.48 3082.49 1857.82 3082.14 1857.82 3065.46 1863.48 3064.58 1861.51Z" fill-rule="evenodd"/><text fill="#000000" fill-opacity="0" font-family="Arial,Arial_MSFontService,sans-serif" font-size="9.6875" x="3064.58" y="1862.27">෡</text><path d="M3118.48 1902.62C3117.06 1902.62 3115.78 1903.32 3114.64 1904.73 3113.5 1906.14 3112.56 1908.19 3111.82 1910.88 3114.64 1910.8 3116.79 1910.26 3118.28 1909.26 3119.78 1908.26 3120.52 1906.84 3120.52 1905.01 3120.52 1904.22 3120.34 1903.63 3119.98 1903.23 3119.62 1902.82 3119.12 1902.62 3118.48 1902.62ZM3119.05 1900.23C3123.74 1900.23 3126.08 1901.92 3126.08 1905.3 3126.08 1906.47 3125.84 1907.49 3125.38 1908.38 3124.91 1909.27 3124.13 1910.07 3123.05 1910.79 3121.96 1911.51 3120.43 1912.09 3118.45 1912.53 3116.46 1912.98 3114.07 1913.23 3111.27 1913.29 3111.07 1914.19 3110.98 1915.13 3110.98 1916.09 3110.98 1917.51 3111.27 1918.58 3111.87 1919.3 3112.47 1920.02 3113.37 1920.38 3114.58 1920.38 3115.92 1920.38 3117.14 1920.11 3118.23 1919.57 3119.31 1919.02 3120.59 1918.06 3122.06 1916.66L3123.99 1918.59C3122.44 1920.34 3120.78 1921.63 3119 1922.47 3117.21 1923.31 3115.28 1923.73 3113.2 1923.73 3111.41 1923.73 3109.89 1923.42 3108.63 1922.79 3107.38 1922.16 3106.44 1921.23 3105.8 1920 3105.17 1918.77 3104.85 1917.3 3104.85 1915.58 3104.85 1914.79 3104.96 1913.77 3105.17 1912.53 3105.46 1910.85 3105.9 1909.35 3106.5 1908.03 3107.25 1906.41 3108.23 1905.02 3109.44 1903.86 3110.65 1902.69 3112.07 1901.8 3113.69 1901.17 3115.32 1900.55 3117.11 1900.23 3119.05 1900.23Z" fill-rule="evenodd"/><text fill="#000000" fill-opacity="0" font-family="Arial,Arial_MSFontService,sans-serif" font-size="23.5" x="3104.85" y="1920.79">𝒆</text><text font-family="Times New Roman,Times New Roman_MSFontService,sans-serif" font-weight="700" font-size="64" transform="matrix(1 0 0 1 2995.75 2007)">phase u<tspan font-size="64" x="208.542" y="0">-</tspan><tspan font-size="64" x="229.74" y="0">axis</tspan></text></g></svg>