<svg viewBox="4.5728619882 12.929626080168775 581.5485 121.73721518987342" version="1.1" xmlns:xlink="http://www.w3.org/1999/xlink" xmlns="http://www.w3.org/2000/svg" style="max-height: 500px" width="581.5485" height="121.73721518987342">
<defs>
<clipPath id="clip_0">
<path clip-rule="evenodd" d="M-142.72-30.72V120H601.28V-30.72Z" transform="matrix(.75,0,0,.75,123.61001,37.829988)"/>
</clipPath>
<clipPath id="clip_1">
<path clip-rule="evenodd" d="M269.28 347.36V379.36H301.28V347.36Z" transform="matrix(.75,0,0,.75,-100.43,-234.69)"/>
</clipPath>
<clipPath id="clip_2">
<path clip-rule="evenodd" d="M156 332.64V483.36H900V332.64Z" transform="matrix(.75,0,0,.75,-100.43,-234.69)"/>
</clipPath>
<clipPath id="clip_3">
<path clip-rule="evenodd" d="M529.28 336.64V390.08H581.28V336.64Z" transform="matrix(.75,0,0,.75,-100.43,-234.69)"/>
</clipPath>
<clipPath id="clip_4">
<path clip-rule="evenodd" d="M156 332.64V483.36H900V332.64Z" transform="matrix(.75,0,0,.75,-100.43,-234.69)"/>
</clipPath>
<clipPath id="clip_5">
<path clip-rule="evenodd" d="M-4.32-33.12V8.16H36.96V-33.12Z" transform="matrix(.75,0,0,.75,21.849999,47.309999)"/>
</clipPath>
<clipPath id="clip_6">
<path clip-rule="evenodd" d="M156 332.64V483.36H900V332.64Z" transform="matrix(.75,0,0,.75,-100.43,-234.69)"/>
</clipPath>
<clipPath id="clip_7">
<path clip-rule="evenodd" d="M820.48 348.32V379.04H829.92V348.32Z" transform="matrix(.75,0,0,.75,-100.43,-234.69)"/>
</clipPath>
<clipPath id="clip_8">
<path clip-rule="evenodd" d="M156 332.64V483.36H900V332.64Z" transform="matrix(.75,0,0,.75,-100.43,-234.69)"/>
</clipPath>
<clipPath id="clip_9">
<path clip-rule="evenodd" d="M391.52 334.88V392.16H446.24V334.88Z" transform="matrix(.75,0,0,.75,-100.43,-234.69)"/>
</clipPath>
<clipPath id="clip_10">
<path clip-rule="evenodd" d="M156 332.64V483.36H900V332.64Z" transform="matrix(.75,0,0,.75,-100.43,-234.69)"/>
</clipPath>
<clipPath id="clip_11">
<path clip-rule="evenodd" d="M658.24 334.88V392.16H712.96V334.88Z" transform="matrix(.75,0,0,.75,-100.43,-234.69)"/>
</clipPath>
<clipPath id="clip_12">
<path clip-rule="evenodd" d="M156 332.64V483.36H900V332.64Z" transform="matrix(.75,0,0,.75,-100.43,-234.69)"/>
</clipPath>
</defs>
<path fill-rule="evenodd" fill="#ffffff" d="M0 0H1056V816H0V0Z" transform="matrix(.75,0,0,.75,-100.43,-234.69)"/>
<g clip-path="url(#clip_0)">
<path fill="#ffffff" d="M0 0C0 7.36-6.08 13.28-13.44 13.28-20.8 13.28-26.72 7.36-26.72 0-26.72-7.36-20.8-13.28-13.44-13.28-6.08-13.28 0-7.36 0 0Z" transform="matrix(.75,0,0,.75,123.61001,37.829988)"/>
</g>
<g clip-path="url(#clip_1)">
<path d="M0 0V-2.56H-2.56V-3.68H0V-6.24H1.12V-3.68H3.68V-2.56H1.12V0H0Z" transform="matrix(.75,0,0,.75,108.13,40.109987)"/>
<path d="M288.48 370.56H282.24V369.44H288.48V370.56Z" transform="matrix(.75,0,0,.75,-100.43,-234.69)"/>
</g>
<g clip-path="url(#clip_2)">
<path d="M0 0C0 7.52-6.24 13.76-13.76 13.76-21.28 13.76-27.36 7.52-27.36 0-27.36-7.52-21.28-13.76-13.76-13.76-6.24-13.76 0-7.52 0 0ZM-.8 0C-.8-7.2-6.56-12.96-13.76-12.96-20.96-12.96-26.72-7.2-26.72 0-26.72 7.2-20.96 12.96-13.76 12.96-6.56 12.96-.8 7.2-.8 0Z" transform="matrix(.75,0,0,.75,123.85,37.829988)"/>
<path fill-rule="evenodd" fill="#ffffff" d="M532 339.36H578.72V387.36H532V339.36Z" transform="matrix(.75,0,0,.75,-100.43,-234.69)"/>
</g>
<g clip-path="url(#clip_3)">
<path d="M543.36 363.84H567.36V364.16H543.36V363.84Z" transform="matrix(.75,0,0,.75,-100.43,-234.69)"/>
<path d="M0 0V-9.6H1.28V-4.96L5.92-9.6H7.68L3.68-5.76 7.84 0H6.24L2.72-4.96 1.28-3.36V0H0ZM14.72 0V-8.48H11.52V-9.6H19.2V-8.48H16V0H14.72ZM18.4-2.08 19.52-2.4C19.52-1.92 19.68-1.44 20-1.28 20.32-.96 20.8-.96 21.28-.96 21.76-.96 22.24-.96 22.56-1.28 22.72-1.44 22.88-1.76 22.88-1.92 22.88-2.24 22.72-2.4 22.56-2.56 22.4-2.72 21.92-2.88 21.28-3.04 20.48-3.2 19.84-3.36 19.52-3.52 19.2-3.68 19.04-4 18.72-4.16 18.56-4.48 18.56-4.8 18.56-5.12 18.56-5.44 18.56-5.76 18.72-6.08 18.88-6.24 19.04-6.56 19.36-6.72 19.52-6.88 19.68-6.88 20-7.04 20.32-7.04 20.64-7.2 21.12-7.2 21.6-7.2 22.08-7.04 22.56-6.88 22.88-6.72 23.2-6.56 23.36-6.24 23.68-6.08 23.68-5.6 23.84-5.28L22.72-5.12C22.56-5.44 22.4-5.76 22.24-5.92 21.92-6.08 21.6-6.24 21.12-6.24 20.64-6.24 20.32-6.08 20-5.92 19.84-5.76 19.68-5.6 19.68-5.28 19.68-5.12 19.68-4.96 19.84-4.96 19.84-4.8 20-4.64 20.32-4.64 20.32-4.48 20.8-4.48 21.28-4.32 22.08-4 22.72-3.84 23.04-3.68 23.36-3.52 23.68-3.36 23.84-3.04 24-2.88 24-2.56 24-2.08 24-1.76 24-1.28 23.68-.96 23.52-.64 23.2-.32 22.72-.16 22.4 0 21.92 .16 21.28 .16 20.48 .16 19.68-.16 19.2-.48 18.72-.8 18.4-1.44 18.4-2.08Z" transform="matrix(.75,0,0,.75,306.73,33.869997)"/>
<path d="M0 0V-.96L4.32-5.92C3.84-5.92 3.36-5.92 3.04-5.92H.16V-6.88H5.76V-6.08L2.08-1.76 1.44-.96C1.92-.96 2.4-.96 2.88-.96H6.08V0H0ZM6.72-2.88V-4H10.4V-2.88H6.72ZM15.68 0H14.56V-7.36C14.24-7.2 13.92-6.88 13.44-6.56 12.96-6.4 12.64-6.24 12.16-6.08V-7.2C12.8-7.52 13.44-7.84 13.92-8.32 14.4-8.64 14.72-9.12 15.04-9.6H15.68V0Z" transform="matrix(.75,0,0,.75,308.89,50.79001)"/>
</g>
<g clip-path="url(#clip_4)">
<path d="M0 0H46.72 47.04V.48 48.48 48.8H46.72 0-.32V48.48 .48 0H0ZM.32 .48V48.48H0V48H46.72V48.48H46.24V.48H46.72V.8H0V.48H.32Z" transform="matrix(.75,0,0,.75,298.57,19.470002)"/>
<path fill-rule="evenodd" fill="#ffffff" d="M158.72 343.36H198.72V383.36H158.72V343.36Z" transform="matrix(.75,0,0,.75,-100.43,-234.69)"/>
</g>
<g clip-path="url(#clip_5)">
<path d="M0 0H16V.64H15.36V-26.08C15.36-26.4 15.68-26.72 16-26.72H32C32.48-26.72 32.8-26.4 32.8-26.08 32.8-25.6 32.48-25.28 32-25.28H16V-26.08H16.8V.64C16.8 .96 16.48 1.28 16 1.28H0C-.32 1.28-.64 .96-.64 .64-.64 .32-.32 0 0 0Z" transform="matrix(.75,0,0,.75,21.849999,47.309999)"/>
</g>
<g clip-path="url(#clip_6)">
<path d="M0 0H40 40.32V.48 40.48 40.8H40 0-.48V40.48 .48 0H0ZM.32 .48V40.48H0V40H40V40.48H39.52V.48H40V.8H0V.48H.32Z" transform="matrix(.75,0,0,.75,18.61,22.470002)"/>
<path fill-rule="evenodd" fill="#ffffff" d="M785.28 339.36H865.28V387.36H785.28V339.36Z" transform="matrix(.75,0,0,.75,-100.43,-234.69)"/>
</g>
<g clip-path="url(#clip_7)">
<path fill-rule="evenodd" d="M821.44 363.2H828V364.16H821.44V363.2Z" transform="matrix(.75,0,0,.75,-100.43,-234.69)"/>
<path d="M0 0V-.32C-.96-.32-1.28-.48-1.28-1.12V-8.8L-1.44-8.96-3.68-7.68V-7.52L-3.36-7.68C-3.2-7.68-2.88-7.84-2.88-7.84-2.56-7.84-2.4-7.68-2.4-7.2V-1.28C-2.4-.64-2.72-.32-3.68-.32V0H0Z" transform="matrix(.75,0,0,.75,519.85,34.94998)"/>
<path d="M0 0V-.16C-.96-.16-1.28-.48-1.28-.96V-8.8H-1.44L-3.68-7.68V-7.52L-3.36-7.68C-3.2-7.68-2.88-7.84-2.88-7.84-2.56-7.84-2.4-7.52-2.4-7.2V-1.28C-2.4-.48-2.72-.32-3.68-.16V0H0Z" transform="matrix(.75,0,0,.75,519.85,46.829988)"/>
</g>
<g clip-path="url(#clip_8)">
<path d="M0 0H80 80.48V.48 48.48 48.8H80 0-.32V48.48 .48 0H0ZM.48 .48V48.48H0V48H80V48.48H79.68V.48H80V.8H0V.48H.48Z" transform="matrix(.75,0,0,.75,488.53004,19.470002)"/>
<path fill-rule="evenodd" fill="#ffffff" d="M392 335.36H445.28V391.36H392V335.36Z" transform="matrix(.75,0,0,.75,-100.43,-234.69)"/>
</g>
<g clip-path="url(#clip_9)">
<path d="M0 0H14.24C14.72 0 15.04 .32 15.04 .64 15.04 .96 14.72 1.28 14.24 1.28 13.92 1.28 13.6 .96 13.6 .64H15.04V11.36C15.04 11.68 14.72 12 14.24 12H0C-.32 12-.64 11.68-.64 11.36V.64C-.64 .32-.32 0 0 0ZM.8 .64V11.36H0V10.56H14.24V11.36H13.6V.64H14.24V1.28H0V.64H.8Z" transform="matrix(.75,0,0,.75,207.85,20.670014)"/>
<path d="M0 0H13.28C13.6 0 13.92 .32 13.92 .64 13.92 1.12 13.6 1.44 13.28 1.44 12.96 1.44 12.64 1.12 12.64 .64H13.92V11.36C13.92 11.68 13.6 12 13.28 12H0C-.48 12-.8 11.68-.8 11.36V.64C-.8 .32-.48 0 0 0ZM.64 .64V11.36H0V10.72H13.28V11.36H12.64V.64H13.28V1.44H0V.64H.64Z" transform="matrix(.75,0,0,.75,198.61002,45.26999)"/>
<path d="M0 0H13.44C13.76 0 14.08 .32 14.08 .64 14.08 1.12 13.76 1.44 13.44 1.44 12.96 1.44 12.64 1.12 12.64 .64H14.08V11.36C14.08 11.68 13.76 12 13.44 12H0C-.32 12-.64 11.68-.64 11.36V.64C-.64 .32-.32 0 0 0ZM.64 .64V11.36H0V10.72H13.44V11.36H12.64V.64H13.44V1.44H0V.64H.64Z" transform="matrix(.75,0,0,.75,218.53,45.26999)"/>
<path d="M0 0H-40C-40.48 0-40.8-.32-40.8-.64-40.8-.96-40.48-1.28-40-1.28H0C.32-1.28 .64-.96 .64-.64 .64-.32 .32 0 0 0Z" transform="matrix(.75,0,0,.75,228.61002,38.309999)"/>
<path fill="#ababab" d="M0 0V13.44C0 13.76-.32 14.08-.64 14.08-.96 14.08-1.28 13.76-1.28 13.44V0C-1.28-.32-.96-.64-.64-.64-.32-.64 0-.32 0 0Z" transform="matrix(.75,0,0,.75,209.05002,33.75)"/>
<path fill="#e4e4e4" d="M409.28 357.92H414.72L412 353.6 409.28 357.92Z" transform="matrix(.75,0,0,.75,-100.43,-234.69)"/>
<path fill="#ababab" d="M0 0H5.44V.64L4.8 1.12 2.08-3.36 2.72-3.68 3.36-3.36 .64 1.12 0 .64V0ZM-.48 .32 2.08-4C2.24-4.32 2.4-4.32 2.72-4.32 3.04-4.32 3.36-4.16 3.36-3.68 3.36-3.36 3.04-3.04 2.72-3.04L3.36-4 5.92 .32C6.08 .48 6.08 .64 6.08 .64 6.08 1.12 5.76 1.44 5.44 1.44H0C-.32 1.44-.64 1.12-.64 .64-.64 .64-.64 .48-.48 .32Z" transform="matrix(.75,0,0,.75,206.53,33.26999)"/>
<path fill="#ababab" d="M0 0V13.44C0 13.76-.16 14.08-.64 14.08-.96 14.08-1.28 13.76-1.28 13.44V0C-1.28-.32-.96-.64-.64-.64-.16-.64 0-.32 0 0Z" transform="matrix(.75,0,0,.75,219.01001,31.109986)"/>
<path fill="#e4e4e4" d="M422.72 367.84H428L425.28 372.16 422.72 367.84Z" transform="matrix(.75,0,0,.75,-100.43,-234.69)"/>
<path fill="#ababab" d="M0 0H5.28C5.6 0 5.92 .32 5.92 .8 5.92 1.12 5.6 1.44 5.28 1.44 4.96 1.44 4.8 1.28 4.64 1.12H5.92L3.2 5.6C3.04 5.76 2.88 5.92 2.56 5.92 2.4 5.92 2.08 5.76 2.08 5.6L-.64 1.12C-.64 .96-.8 .8-.8 .8-.8 .32-.48 0 0 0ZM.48 .32 3.2 4.8 2.56 5.12 2.08 4.8 4.64 .32 5.28 .8V1.44H0V.8L.48 .32Z" transform="matrix(.75,0,0,.75,216.61002,40.589998)"/>
<path d="M0 0V10.72C0 11.04-.16 11.36-.64 11.36-.96 11.36-1.28 11.04-1.28 10.72V0C-1.28-.32-.96-.64-.64-.64-.16-.64 0-.32 0 0Z" transform="matrix(.75,0,0,.75,201.01001,45.75)"/>
<path d="M0 0V10.72C0 11.04-.32 11.36-.64 11.36-.96 11.36-1.28 11.04-1.28 10.72V0C-1.28-.32-.96-.64-.64-.64-.32-.64 0-.32 0 0Z" transform="matrix(.75,0,0,.75,203.05002,45.75)"/>
<path d="M0 0V10.72C0 11.04-.32 11.36-.64 11.36-1.12 11.36-1.44 11.04-1.44 10.72V0C-1.44-.32-1.12-.64-.64-.64-.32-.64 0-.32 0 0Z" transform="matrix(.75,0,0,.75,205.09,45.75)"/>
<path d="M0 0V10.72C0 11.04-.16 11.36-.64 11.36-.96 11.36-1.28 11.04-1.28 10.72V0C-1.28-.32-.96-.64-.64-.64-.16-.64 0-.32 0 0Z" transform="matrix(.75,0,0,.75,207.01001,45.75)"/>
<path d="M0 0V10.72C0 11.04-.32 11.36-.64 11.36-.96 11.36-1.28 11.04-1.28 10.72V0C-1.28-.32-.96-.64-.64-.64-.32-.64 0-.32 0 0Z" transform="matrix(.75,0,0,.75,221.05002,45.75)"/>
<path d="M0 0V10.72C0 11.04-.32 11.36-.64 11.36-1.12 11.36-1.44 11.04-1.44 10.72V0C-1.44-.32-1.12-.64-.64-.64-.32-.64 0-.32 0 0Z" transform="matrix(.75,0,0,.75,223.09,45.75)"/>
<path d="M0 0V10.72C0 11.04-.16 11.36-.64 11.36-.96 11.36-1.28 11.04-1.28 10.72V0C-1.28-.32-.96-.64-.64-.64-.16-.64 0-.32 0 0Z" transform="matrix(.75,0,0,.75,225.01001,45.75)"/>
<path d="M0 0V10.72C0 11.04-.32 11.36-.64 11.36-.96 11.36-1.28 11.04-1.28 10.72V0C-1.28-.32-.96-.64-.64-.64-.32-.64 0-.32 0 0Z" transform="matrix(.75,0,0,.75,227.05002,45.75)"/>
</g>
<g clip-path="url(#clip_10)">
<path d="M0 0H53.28 53.76V.48 56.48 56.8H53.28 0-.32V56.48 .48 0H0ZM.32 .48V56.48H0V56H53.28V56.48H52.96V.48H53.28V.8H0V.48H.32Z" transform="matrix(.75,0,0,.75,193.57,16.470002)"/>
<path fill-rule="evenodd" fill="#ffffff" d="M658.72 335.36H712V391.36H658.72V335.36Z" transform="matrix(.75,0,0,.75,-100.43,-234.69)"/>
</g>
<g clip-path="url(#clip_11)">
<path d="M0 0H14.24C14.56 0 14.88 .32 14.88 .64 14.88 .96 14.56 1.28 14.24 1.28 13.92 1.28 13.6 .96 13.6 .64H14.88V11.36C14.88 11.68 14.56 12 14.24 12H0C-.32 12-.64 11.68-.64 11.36V.64C-.64 .32-.32 0 0 0ZM.64 .64V11.36H0V10.56H14.24V11.36H13.6V.64H14.24V1.28H0V.64H.64Z" transform="matrix(.75,0,0,.75,407.89,20.670014)"/>
<path d="M0 0H13.44C13.76 0 14.08 .32 14.08 .64 14.08 1.12 13.76 1.44 13.44 1.44 12.96 1.44 12.64 1.12 12.64 .64H14.08V11.36C14.08 11.68 13.76 12 13.44 12H0C-.32 12-.64 11.68-.64 11.36V.64C-.64 .32-.32 0 0 0ZM.64 .64V11.36H0V10.72H13.44V11.36H12.64V.64H13.44V1.44H0V.64H.64Z" transform="matrix(.75,0,0,.75,398.53004,45.26999)"/>
<path d="M0 0H13.28C13.76 0 13.92 .32 13.92 .64 13.92 1.12 13.76 1.44 13.28 1.44 12.96 1.44 12.64 1.12 12.64 .64H13.92V11.36C13.92 11.68 13.76 12 13.28 12H0C-.32 12-.64 11.68-.64 11.36V.64C-.64 .32-.32 0 0 0ZM.64 .64V11.36H0V10.72H13.28V11.36H12.64V.64H13.28V1.44H0V.64H.64Z" transform="matrix(.75,0,0,.75,418.57,45.26999)"/>
<path d="M0 0H-40C-40.32 0-40.64-.32-40.64-.64-40.64-.96-40.32-1.28-40-1.28H0C.48-1.28 .64-.96 .64-.64 .64-.32 .48 0 0 0Z" transform="matrix(.75,0,0,.75,428.53004,38.309999)"/>
<path fill="#ababab" d="M0 0V13.44C0 13.76-.32 14.08-.64 14.08-1.12 14.08-1.44 13.76-1.44 13.44V0C-1.44-.32-1.12-.64-.64-.64-.32-.64 0-.32 0 0Z" transform="matrix(.75,0,0,.75,409.09,33.75)"/>
<path fill="#e4e4e4" d="M676 357.92H681.28L678.72 353.6 676 357.92Z" transform="matrix(.75,0,0,.75,-100.43,-234.69)"/>
<path fill="#ababab" d="M0 0H5.28V.64L4.8 1.12 2.08-3.36 2.72-3.68 3.2-3.36 .64 1.12 0 .64V0ZM-.64 .32 2.08-4C2.24-4.32 2.4-4.32 2.72-4.32 3.04-4.32 3.36-4.16 3.36-3.68 3.36-3.36 3.04-3.04 2.72-3.04H2.56L3.2-4 5.92 .32C5.92 .48 5.92 .64 5.92 .64 5.92 1.12 5.76 1.44 5.28 1.44H0C-.32 1.44-.64 1.12-.64 .64-.64 .64-.64 .48-.64 .32Z" transform="matrix(.75,0,0,.75,406.57,33.26999)"/>
<path fill="#ababab" d="M0 0V13.44C0 13.76-.32 14.08-.64 14.08-.96 14.08-1.28 13.76-1.28 13.44V0C-1.28-.32-.96-.64-.64-.64-.32-.64 0-.32 0 0Z" transform="matrix(.75,0,0,.75,419.05,31.109986)"/>
<path fill="#e4e4e4" d="M689.28 367.84H694.72L692 372.16 689.28 367.84Z" transform="matrix(.75,0,0,.75,-100.43,-234.69)"/>
<path fill="#ababab" d="M0 0H5.44C5.76 0 6.08 .32 6.08 .8 6.08 1.12 5.76 1.44 5.44 1.44 5.12 1.44 4.96 1.28 4.8 1.12H5.92L3.36 5.6C3.2 5.76 3.04 5.92 2.72 5.92 2.4 5.92 2.24 5.76 2.08 5.6L-.48 1.12C-.64 .96-.64 .8-.64 .8-.64 .32-.32 0 0 0ZM.64 .32 3.36 4.8 2.72 5.12 2.08 4.8 4.8 .32 5.44 .8V1.44H0V.8L.64 .32Z" transform="matrix(.75,0,0,.75,416.53004,40.589998)"/>
<path d="M0 0V10.72C0 11.04-.32 11.36-.64 11.36-.96 11.36-1.28 11.04-1.28 10.72V0C-1.28-.32-.96-.64-.64-.64-.32-.64 0-.32 0 0Z" transform="matrix(.75,0,0,.75,401.05003,45.75)"/>
<path d="M0 0V10.72C0 11.04-.32 11.36-.64 11.36-1.12 11.36-1.44 11.04-1.44 10.72V0C-1.44-.32-1.12-.64-.64-.64-.32-.64 0-.32 0 0Z" transform="matrix(.75,0,0,.75,403.09,45.75)"/>
<path d="M0 0V10.72C0 11.04-.16 11.36-.64 11.36-.96 11.36-1.28 11.04-1.28 10.72V0C-1.28-.32-.96-.64-.64-.64-.16-.64 0-.32 0 0Z" transform="matrix(.75,0,0,.75,405.01,45.75)"/>
<path d="M0 0V10.72C0 11.04-.32 11.36-.64 11.36-.96 11.36-1.28 11.04-1.28 10.72V0C-1.28-.32-.96-.64-.64-.64-.32-.64 0-.32 0 0Z" transform="matrix(.75,0,0,.75,407.05003,45.75)"/>
<path d="M0 0V10.72C0 11.04-.32 11.36-.64 11.36-1.12 11.36-1.44 11.04-1.44 10.72V0C-1.44-.32-1.12-.64-.64-.64-.32-.64 0-.32 0 0Z" transform="matrix(.75,0,0,.75,421.09004,45.75)"/>
<path d="M0 0V10.72C0 11.04-.16 11.36-.64 11.36-.96 11.36-1.28 11.04-1.28 10.72V0C-1.28-.32-.96-.64-.64-.64-.16-.64 0-.32 0 0Z" transform="matrix(.75,0,0,.75,423.01,45.75)"/>
<path d="M0 0V10.72C0 11.04-.32 11.36-.64 11.36-.96 11.36-1.28 11.04-1.28 10.72V0C-1.28-.32-.96-.64-.64-.64-.32-.64 0-.32 0 0Z" transform="matrix(.75,0,0,.75,425.05,45.75)"/>
<path d="M0 0V10.72C0 11.04-.32 11.36-.64 11.36-1.12 11.36-1.44 11.04-1.44 10.72V0C-1.44-.32-1.12-.64-.64-.64-.32-.64 0-.32 0 0Z" transform="matrix(.75,0,0,.75,427.09004,45.75)"/>
</g>
<g clip-path="url(#clip_12)">
<path d="M0 0H53.28 53.6V.48 56.48 56.8H53.28 0-.48V56.48 .48 0H0ZM.32 .48V56.48H0V56H53.28V56.48H52.96V.48H53.28V.8H0V.48H.32Z" transform="matrix(.75,0,0,.75,393.61,16.470002)"/>
<path d="M392 363.36 381.28 358.08V368.64L392 363.36Z" transform="matrix(.75,0,0,.75,-100.43,-234.69)"/>
<path d="M298.72 363.2H381.44V363.52H298.72V363.2Z" transform="matrix(.75,0,0,.75,-100.43,-234.69)"/>
<path d="M272 363.36 261.28 358.08V368.64L272 363.36Z" transform="matrix(.75,0,0,.75,-100.43,-234.69)"/>
<path d="M198.88 363.2H261.44V363.52H198.88V363.2Z" transform="matrix(.75,0,0,.75,-100.43,-234.69)"/>
<path d="M658.72 363.36 648 358.08V368.64L658.72 363.36Z" transform="matrix(.75,0,0,.75,-100.43,-234.69)"/>
<path d="M578.72 363.2H648V363.52H578.72V363.2Z" transform="matrix(.75,0,0,.75,-100.43,-234.69)"/>
<path d="M285.28 376.64 280 387.36H290.72L285.28 376.64Z" transform="matrix(.75,0,0,.75,-100.43,-234.69)"/>
<path d="M0 0H32 32.16V.16 117.28 117.44H32-579.84-580V117.28 24H-579.68V117.28H-579.84V117.12H32V117.28H31.84V.16H32V.32H0V0Z" transform="matrix(.75,0,0,.75,548.65,37.710023)"/>
<path d="M532 363.36 521.28 358.08V368.64L532 363.36Z" transform="matrix(.75,0,0,.75,-100.43,-234.69)"/>
<path d="M445.6 363.2H521.28V363.52H445.6V363.2Z" transform="matrix(.75,0,0,.75,-100.43,-234.69)"/>
<path d="M785.28 363.36 774.72 358.08V368.64L785.28 363.36Z" transform="matrix(.75,0,0,.75,-100.43,-234.69)"/>
<path d="M712.16 363.2H774.72V363.52H712.16V363.2Z" transform="matrix(.75,0,0,.75,-100.43,-234.69)"/>
</g>
</svg>