<svg viewBox="6.386454803666 5.351315185296154 245.964481 42.27029159615385" version="1.1" xmlns:xlink="http://www.w3.org/1999/xlink" xmlns="http://www.w3.org/2000/svg" style="max-height: 500px" width="245.964481" height="42.27029159615385">
<defs>
<clipPath id="clip_0">
<path clip-rule="evenodd" d="M365.28 381.28V434.72H690.72V381.28Z" transform="matrix(.75,0,0,.75,-267,-279.59)"/>
</clipPath>
<clipPath id="clip_1">
<path clip-rule="evenodd" d="M505.28 381.28V434.72H557.28V381.28Z" transform="matrix(.75,0,0,.75,-267,-279.59)"/>
</clipPath>
<clipPath id="clip_2">
<path clip-rule="evenodd" d="M365.28 381.28V434.72H690.72V381.28Z" transform="matrix(.75,0,0,.75,-267,-279.59)"/>
</clipPath>
<clipPath id="clip_3">
<path clip-rule="evenodd" d="M-24-16.64V7.36H21.44V-16.64Z" transform="matrix(.75,0,0,.75,24.959992,29.890015)"/>
</clipPath>
<clipPath id="clip_4">
<path clip-rule="evenodd" d="M365.28 381.28V434.72H690.72V381.28Z" transform="matrix(.75,0,0,.75,-267,-279.59)"/>
</clipPath>
<clipPath id="clip_5">
<path clip-rule="evenodd" d="M-24-16.64V7.36H21.44V-16.64Z" transform="matrix(.75,0,0,.75,234.96002,29.890015)"/>
</clipPath>
<clipPath id="clip_6">
<path clip-rule="evenodd" d="M365.28 381.28V434.72H690.72V381.28Z" transform="matrix(.75,0,0,.75,-267,-279.59)"/>
</clipPath>
<clipPath id="clip_7">
<path d="M267 278.47H525.91V332.41H267Z" transform="matrix(1,0,0,-1,-267,332.41)"/>
</clipPath>
</defs>
<path fill-rule="evenodd" fill="#ffffff" d="M0 0H1056V816H0V0Z" transform="matrix(.75,0,0,.75,-267,-279.59)"/>
<g clip-path="url(#clip_0)">
<path fill-rule="evenodd" fill="#ffffff" d="M508 384H554.72V432H508V384Z" transform="matrix(.75,0,0,.75,-267,-279.59)"/>
</g>
<g clip-path="url(#clip_1)">
<path d="M519.36 408.48H543.36V408.8H519.36V408.48Z" transform="matrix(.75,0,0,.75,-267,-279.59)"/>
<path d="M0 0V-9.6H1.28V-4.8L5.92-9.6H7.68L3.68-5.76 7.84 0H6.24L2.72-4.96 1.28-3.36V0H0ZM14.72 0V-8.48H11.52V-9.6H19.2V-8.48H16V0H14.72ZM18.4-2.08 19.52-2.24C19.52-1.76 19.68-1.44 20-1.28 20.32-.96 20.8-.8 21.28-.8 21.76-.8 22.24-.96 22.56-1.12 22.72-1.44 22.88-1.6 22.88-1.92 22.88-2.24 22.72-2.4 22.56-2.56 22.4-2.72 21.92-2.88 21.28-3.04 20.48-3.2 19.84-3.36 19.52-3.52 19.2-3.68 19.04-4 18.72-4.16 18.56-4.48 18.56-4.8 18.56-5.12 18.56-5.44 18.56-5.76 18.72-5.92 18.88-6.24 19.04-6.4 19.36-6.56 19.52-6.72 19.68-6.88 20-7.04 20.32-7.04 20.64-7.04 21.12-7.04 21.6-7.04 22.08-7.04 22.56-6.88 22.88-6.72 23.2-6.56 23.36-6.24 23.68-5.92 23.68-5.6 23.84-5.12L22.72-4.96C22.56-5.44 22.4-5.6 22.24-5.92 21.92-6.08 21.6-6.08 21.12-6.08 20.64-6.08 20.32-6.08 20-5.92 19.84-5.76 19.68-5.44 19.68-5.28 19.68-5.12 19.68-4.96 19.84-4.8 19.84-4.8 20-4.64 20.32-4.48 20.32-4.48 20.8-4.48 21.28-4.32 22.08-4 22.72-3.84 23.04-3.68 23.36-3.52 23.68-3.36 23.84-3.04 24-2.88 24-2.56 24-2.08 24-1.76 24-1.28 23.68-.96 23.52-.64 23.2-.32 22.72-.16 22.4 0 21.92 .16 21.28 .16 20.48 .16 19.68 0 19.2-.48 18.72-.8 18.4-1.44 18.4-2.08Z" transform="matrix(.75,0,0,.75,122.16,22.450013)"/>
<path d="M0 0V-.96L4.32-5.92C3.84-5.92 3.36-5.92 3.04-5.92H.16V-6.88H5.76V-6.08L2.08-1.76 1.44-.96C1.92-.96 2.4-.96 2.88-.96H6.08V0H0ZM6.72-2.88V-4H10.4V-2.88H6.72ZM15.68 0H14.56V-7.36C14.24-7.2 13.92-6.88 13.44-6.56 12.96-6.4 12.64-6.08 12.16-6.08V-7.2C12.8-7.36 13.44-7.84 13.92-8.32 14.4-8.64 14.72-9.12 15.04-9.6H15.68V0Z" transform="matrix(.75,0,0,.75,124.32001,39.369997)"/>
</g>
<g clip-path="url(#clip_2)">
<path d="M0 0H46.72 47.04V.32 48.32 48.64H46.72 0-.32V48.32 .32 0H0ZM.32 .32V48.32H0V48H46.72V48.32H46.24V.32H46.72V.64H0V.32H.32Z" transform="matrix(.75,0,0,.75,114,8.170013)"/>
<path fill="#ffffff" d="M0 0H21.44C26.56 0 30.72 4.16 30.72 9.28 30.72 14.4 26.56 18.56 21.44 18.56H0C-5.12 18.56-9.28 14.4-9.28 9.28-9.28 4.16-5.12 0 0 0Z" transform="matrix(.75,0,0,.75,15.959991,19.450013)"/>
</g>
<g clip-path="url(#clip_3)">
<path d="M0 0H-1.12V-7.36C-1.44-7.2-1.76-6.88-2.24-6.56-2.72-6.4-3.2-6.24-3.52-6.08V-7.2C-2.88-7.52-2.24-7.84-1.76-8.32-1.28-8.64-.96-9.12-.8-9.6H0V0Z" transform="matrix(.75,0,0,.75,24.959992,29.890015)"/>
</g>
<g clip-path="url(#clip_4)">
<path d="M0 0H21.44C26.72 0 31.04 4.48 31.04 9.76 31.04 15.04 26.72 19.52 21.44 19.52H0C-5.28 19.52-9.6 15.04-9.6 9.76-9.6 4.48-5.28 0 0 0ZM0 .8C-4.96 .8-8.96 4.8-8.96 9.76-8.96 14.72-4.96 18.72 0 18.72H21.44C26.4 18.72 30.4 14.72 30.4 9.76 30.4 4.8 26.4 .8 21.44 .8H0Z" transform="matrix(.75,0,0,.75,15.959991,19.089997)"/>
<path fill="#ffffff" d="M0 0H21.44C26.56 0 30.72 4.16 30.72 9.28 30.72 14.4 26.56 18.56 21.44 18.56H0C-5.12 18.56-9.28 14.4-9.28 9.28-9.28 4.16-5.12 0 0 0Z" transform="matrix(.75,0,0,.75,225.96002,19.450013)"/>
</g>
<g clip-path="url(#clip_5)">
<path d="M0 0H-1.12V-7.36C-1.44-7.2-1.76-6.88-2.24-6.56-2.72-6.4-3.2-6.24-3.52-6.08V-7.2C-2.88-7.52-2.24-7.84-1.76-8.32-1.28-8.64-.96-9.12-.8-9.6H0V0Z" transform="matrix(.75,0,0,.75,234.96002,29.890015)"/>
</g>
<g clip-path="url(#clip_6)">
<path d="M0 0H21.44C26.72 0 31.04 4.48 31.04 9.76 31.04 15.04 26.72 19.52 21.44 19.52H0C-5.28 19.52-9.6 15.04-9.6 9.76-9.6 4.48-5.28 0 0 0ZM0 .8C-4.96 .8-8.96 4.8-8.96 9.76-8.96 14.72-4.96 18.72 0 18.72H21.44C26.4 18.72 30.4 14.72 30.4 9.76 30.4 4.8 26.4 .8 21.44 .8H0Z" transform="matrix(.75,0,0,.75,225.96002,19.089997)"/>
<path d="M508 408 497.28 402.72V413.28L508 408Z" transform="matrix(.75,0,0,.75,-267,-279.59)"/>
<path d="M408.16 407.68H497.28V408H408.16V407.68Z" transform="matrix(.75,0,0,.75,-267,-279.59)"/>
<path d="M648 408 637.28 402.72V413.28L648 408Z" transform="matrix(.75,0,0,.75,-267,-279.59)"/>
<path d="M554.72 407.68H637.44V408H554.72V407.68Z" transform="matrix(.75,0,0,.75,-267,-279.59)"/>
</g>
<g clip-path="url(#clip_7)">
<g>
<path fill-rule="evenodd" fill-opacity=".1" fill="#ffffff" d="M267.5 278.97H525.41006V331.91H267.5Z" transform="matrix(1,0,0,-1,-267,332.41)"/>
<path d="M267.5 278.97H525.41006V331.91H267.5Z" stroke-opacity=".1" stroke="#00a5e4" fill="none" stroke-linejoin="miter" stroke-miterlimit="10" stroke-linecap="butt" stroke-width="1" transform="matrix(1,0,0,-1,-267,332.41)"/>
</g>
</g>
</svg>