<?xml version="1.0" encoding="UTF-8" standalone="no"?>
<!-- Created with Inkscape (http://www.inkscape.org/) -->

<svg
   width="7.7441444in"
   height="1.6992222in"
   viewBox="0 0 196.70127 43.160246"
   version="1.1"
   id="svg8"
   inkscape:version="1.2.2 (732a01da63, 2022-12-09)"
   sodipodi:docname="control-diagram-sat.svg"
   xml:space="preserve"
   xmlns:inkscape="http://www.inkscape.org/namespaces/inkscape"
   xmlns:sodipodi="http://sodipodi.sourceforge.net/DTD/sodipodi-0.dtd"
   xmlns:xlink="http://www.w3.org/1999/xlink"
   xmlns="http://www.w3.org/2000/svg"
   xmlns:svg="http://www.w3.org/2000/svg"
   xmlns:rdf="http://www.w3.org/1999/02/22-rdf-syntax-ns#"
   xmlns:cc="http://creativecommons.org/ns#"
   xmlns:dc="http://purl.org/dc/elements/1.1/"><defs
     id="defs2"><linearGradient
   id="linearGradient7917"
   inkscape:swatch="solid"><stop
     style="stop-color:#000000;stop-opacity:1;"
     offset="0"
     id="stop7915" /></linearGradient><linearGradient
   id="linearGradient4410"
   inkscape:swatch="solid"><stop
     style="stop-color:#000000;stop-opacity:1;"
     offset="0"
     id="stop4408" /></linearGradient><linearGradient
   id="linearGradient3774"
   inkscape:swatch="solid"><stop
     style="stop-color:#ff0000;stop-opacity:1;"
     offset="0"
     id="stop3772" /></linearGradient><linearGradient
   id="linearGradient2266"
   inkscape:swatch="solid"><stop
     style="stop-color:#000000;stop-opacity:1;"
     offset="0"
     id="stop2264" /></linearGradient><linearGradient
   id="linearGradient1738"
   inkscape:swatch="solid"><stop
     style="stop-color:#2b0000;stop-opacity:1;"
     offset="0"
     id="stop1736" /></linearGradient><marker
   inkscape:isstock="true"
   style="overflow:visible"
   id="marker33921"
   refX="0"
   refY="0"
   orient="auto"
   inkscape:stockid="Arrow2Mend"><path
     transform="scale(-0.6)"
     d="M 8.7185878,4.0337352 -2.2072895,0.01601326 8.7185884,-4.0017078 c -1.7454984,2.3720609 -1.7354408,5.6174519 -6e-7,8.035443 z"
     style="fill:#808080;fill-opacity:1;fill-rule:evenodd;stroke:#808080;stroke-width:0.625;stroke-linejoin:round;stroke-opacity:1"
     id="path33919"
     inkscape:connector-curvature="0" /></marker><marker
   inkscape:isstock="true"
   style="overflow:visible"
   id="marker29550"
   refX="0"
   refY="0"
   orient="auto"
   inkscape:stockid="Arrow2Mend"><path
     transform="scale(-0.6)"
     d="M 8.7185878,4.0337352 -2.2072895,0.01601326 8.7185884,-4.0017078 c -1.7454984,2.3720609 -1.7354408,5.6174519 -6e-7,8.035443 z"
     style="fill:#808080;fill-opacity:1;fill-rule:evenodd;stroke:#808080;stroke-width:0.625;stroke-linejoin:round;stroke-opacity:1"
     id="path29548"
     inkscape:connector-curvature="0" /></marker><marker
   inkscape:stockid="Arrow2Mend"
   orient="auto"
   refY="0"
   refX="0"
   id="Arrow2Mend"
   style="overflow:visible"
   inkscape:isstock="true"
   inkscape:collect="always"><path
     id="path1007"
     style="fill:#000000;fill-opacity:1;fill-rule:evenodd;stroke:#000000;stroke-width:0.625;stroke-linejoin:round;stroke-opacity:1"
     d="M 8.7185878,4.0337352 -2.2072895,0.01601326 8.7185884,-4.0017078 c -1.7454984,2.3720609 -1.7354408,5.6174519 -6e-7,8.035443 z"
     transform="scale(-0.6)"
     inkscape:connector-curvature="0" /></marker><marker
   inkscape:isstock="true"
   style="overflow:visible"
   id="marker10101"
   refX="0"
   refY="0"
   orient="auto"
   inkscape:stockid="TriangleOutM"><path
     transform="scale(0.4)"
     style="fill:#000000;fill-opacity:1;fill-rule:evenodd;stroke:#000000;stroke-width:1pt;stroke-opacity:1"
     d="M 5.77,0 -2.88,5 V -5 Z"
     id="path10099"
     inkscape:connector-curvature="0" /></marker><marker
   inkscape:stockid="TriangleOutM"
   orient="auto"
   refY="0"
   refX="0"
   id="TriangleOutM-2"
   style="overflow:visible"
   inkscape:isstock="true"><path
     inkscape:connector-curvature="0"
     id="path2040-8"
     d="M 5.77,0 -2.88,5 V -5 Z"
     style="fill:#000000;fill-opacity:1;fill-rule:evenodd;stroke:#000000;stroke-width:1pt;stroke-opacity:1"
     transform="scale(0.4)" /></marker><marker
   inkscape:stockid="TriangleOutM"
   orient="auto"
   refY="0"
   refX="0"
   id="TriangleOutM-6"
   style="overflow:visible"
   inkscape:isstock="true"><path
     inkscape:connector-curvature="0"
     id="path2040-0"
     d="M 5.77,0 -2.88,5 V -5 Z"
     style="fill:#000000;fill-opacity:1;fill-rule:evenodd;stroke:#000000;stroke-width:1pt;stroke-opacity:1"
     transform="scale(0.4)" /></marker><marker
   inkscape:stockid="TriangleOutM"
   orient="auto"
   refY="0"
   refX="0"
   id="TriangleOutM-9"
   style="overflow:visible"
   inkscape:isstock="true"><path
     inkscape:connector-curvature="0"
     id="path2040-7"
     d="M 5.77,0 -2.88,5 V -5 Z"
     style="fill:#000000;fill-opacity:1;fill-rule:evenodd;stroke:#000000;stroke-width:1pt;stroke-opacity:1"
     transform="scale(0.4)" /></marker><marker
   inkscape:stockid="TriangleOutM"
   orient="auto"
   refY="0"
   refX="0"
   id="TriangleOutM-4"
   style="overflow:visible"
   inkscape:isstock="true"><path
     inkscape:connector-curvature="0"
     id="path2040-74"
     d="M 5.77,0 -2.88,5 V -5 Z"
     style="fill:#000000;fill-opacity:1;fill-rule:evenodd;stroke:#000000;stroke-width:1pt;stroke-opacity:1"
     transform="scale(0.4)" /></marker><marker
   inkscape:stockid="TriangleOutM"
   orient="auto"
   refY="0"
   refX="0"
   id="TriangleOutM-5"
   style="overflow:visible"
   inkscape:isstock="true"><path
     inkscape:connector-curvature="0"
     id="path2040-80"
     d="M 5.77,0 -2.88,5 V -5 Z"
     style="fill:#000000;fill-opacity:1;fill-rule:evenodd;stroke:#000000;stroke-width:1pt;stroke-opacity:1"
     transform="scale(0.4)" /></marker><marker
   inkscape:stockid="TriangleOutM"
   orient="auto"
   refY="0"
   refX="0"
   id="TriangleOutM-1"
   style="overflow:visible"
   inkscape:isstock="true"><path
     inkscape:connector-curvature="0"
     id="path2040-89"
     d="M 5.77,0 -2.88,5 V -5 Z"
     style="fill:#000000;fill-opacity:1;fill-rule:evenodd;stroke:#000000;stroke-width:1pt;stroke-opacity:1"
     transform="scale(0.4)" /></marker><marker
   inkscape:stockid="TriangleOutM"
   orient="auto"
   refY="0"
   refX="0"
   id="TriangleOutM-67"
   style="overflow:visible"
   inkscape:isstock="true"><path
     inkscape:connector-curvature="0"
     id="path2040-5"
     d="M 5.77,0 -2.88,5 V -5 Z"
     style="fill:#000000;fill-opacity:1;fill-rule:evenodd;stroke:#000000;stroke-width:1pt;stroke-opacity:1"
     transform="scale(0.4)" /></marker><marker
   inkscape:stockid="TriangleOutM"
   orient="auto"
   refY="0"
   refX="0"
   id="TriangleOutM-67-5"
   style="overflow:visible"
   inkscape:isstock="true"><path
     inkscape:connector-curvature="0"
     id="path2040-5-9"
     d="M 5.77,0 -2.88,5 V -5 Z"
     style="fill:#000000;fill-opacity:1;fill-rule:evenodd;stroke:#000000;stroke-width:1pt;stroke-opacity:1"
     transform="scale(0.4)" /></marker><marker
   inkscape:stockid="TriangleOutM"
   orient="auto"
   refY="0"
   refX="0"
   id="TriangleOutM-67-5-5"
   style="overflow:visible"
   inkscape:isstock="true"><path
     inkscape:connector-curvature="0"
     id="path2040-5-9-3"
     d="M 5.77,0 -2.88,5 V -5 Z"
     style="fill:#000000;fill-opacity:1;fill-rule:evenodd;stroke:#000000;stroke-width:1pt;stroke-opacity:1"
     transform="scale(0.4)" /></marker><marker
   inkscape:stockid="TriangleOutM"
   orient="auto"
   refY="0"
   refX="0"
   id="TriangleOutM-67-5-55"
   style="overflow:visible"
   inkscape:isstock="true"><path
     inkscape:connector-curvature="0"
     id="path2040-5-9-0"
     d="M 5.77,0 -2.88,5 V -5 Z"
     style="fill:#000000;fill-opacity:1;fill-rule:evenodd;stroke:#000000;stroke-width:1pt;stroke-opacity:1"
     transform="scale(0.4)" /></marker><marker
   inkscape:stockid="TriangleOutM"
   orient="auto"
   refY="0"
   refX="0"
   id="TriangleOutM-67-5-7"
   style="overflow:visible"
   inkscape:isstock="true"><path
     inkscape:connector-curvature="0"
     id="path2040-5-9-7"
     d="M 5.77,0 -2.88,5 V -5 Z"
     style="fill:#000000;fill-opacity:1;fill-rule:evenodd;stroke:#000000;stroke-width:1pt;stroke-opacity:1"
     transform="scale(0.4)" /></marker><marker
   inkscape:stockid="TriangleOutM"
   orient="auto"
   refY="0"
   refX="0"
   id="TriangleOutM-67-5-56"
   style="overflow:visible"
   inkscape:isstock="true"><path
     inkscape:connector-curvature="0"
     id="path2040-5-9-9"
     d="M 5.77,0 -2.88,5 V -5 Z"
     style="fill:#000000;fill-opacity:1;fill-rule:evenodd;stroke:#000000;stroke-width:1pt;stroke-opacity:1"
     transform="scale(0.4)" /></marker><marker
   inkscape:stockid="TriangleOutM"
   orient="auto"
   refY="0"
   refX="0"
   id="TriangleOutM-67-5-5-7"
   style="overflow:visible"
   inkscape:isstock="true"><path
     inkscape:connector-curvature="0"
     id="path2040-5-9-3-5"
     d="M 5.77,0 -2.88,5 V -5 Z"
     style="fill:#000000;fill-opacity:1;fill-rule:evenodd;stroke:#000000;stroke-width:1pt;stroke-opacity:1"
     transform="scale(0.4)" /></marker><marker
   inkscape:stockid="TriangleOutM"
   orient="auto"
   refY="0"
   refX="0"
   id="TriangleOutM-67-5-5-7-2"
   style="overflow:visible"
   inkscape:isstock="true"><path
     inkscape:connector-curvature="0"
     id="path2040-5-9-3-5-5"
     d="M 5.77,0 -2.88,5 V -5 Z"
     style="fill:#000000;fill-opacity:1;fill-rule:evenodd;stroke:#000000;stroke-width:1pt;stroke-opacity:1"
     transform="scale(0.4)" /></marker><marker
   inkscape:stockid="TriangleOutM"
   orient="auto"
   refY="0"
   refX="0"
   id="TriangleOutM-67-5-5-7-9"
   style="overflow:visible"
   inkscape:isstock="true"><path
     inkscape:connector-curvature="0"
     id="path2040-5-9-3-5-54"
     d="M 5.77,0 -2.88,5 V -5 Z"
     style="fill:#000000;fill-opacity:1;fill-rule:evenodd;stroke:#000000;stroke-width:1pt;stroke-opacity:1"
     transform="scale(0.4)" /></marker><marker
   inkscape:stockid="TriangleOutM"
   orient="auto"
   refY="0"
   refX="0"
   id="TriangleOutM-67-5-5-7-3"
   style="overflow:visible"
   inkscape:isstock="true"><path
     inkscape:connector-curvature="0"
     id="path2040-5-9-3-5-0"
     d="M 5.77,0 -2.88,5 V -5 Z"
     style="fill:#000000;fill-opacity:1;fill-rule:evenodd;stroke:#000000;stroke-width:1pt;stroke-opacity:1"
     transform="scale(0.4)" /></marker><marker
   inkscape:stockid="TriangleOutM"
   orient="auto"
   refY="0"
   refX="0"
   id="TriangleOutM-67-5-5-7-4"
   style="overflow:visible"
   inkscape:isstock="true"><path
     inkscape:connector-curvature="0"
     id="path2040-5-9-3-5-08"
     d="M 5.77,0 -2.88,5 V -5 Z"
     style="fill:#000000;fill-opacity:1;fill-rule:evenodd;stroke:#000000;stroke-width:1pt;stroke-opacity:1"
     transform="scale(0.4)" /></marker><marker
   inkscape:stockid="TriangleOutM"
   orient="auto"
   refY="0"
   refX="0"
   id="TriangleOutM-67-5-1"
   style="overflow:visible"
   inkscape:isstock="true"><path
     inkscape:connector-curvature="0"
     id="path2040-5-9-4"
     d="M 5.77,0 -2.88,5 V -5 Z"
     style="fill:#000000;fill-opacity:1;fill-rule:evenodd;stroke:#000000;stroke-width:1pt;stroke-opacity:1"
     transform="scale(0.4)" /></marker><marker
   inkscape:stockid="TriangleOutM"
   orient="auto"
   refY="0"
   refX="0"
   id="TriangleOutM-2-5"
   style="overflow:visible"
   inkscape:isstock="true"><path
     inkscape:connector-curvature="0"
     id="path2040-8-6"
     d="M 5.77,0 -2.88,5 V -5 Z"
     style="fill:#000000;fill-opacity:1;fill-rule:evenodd;stroke:#000000;stroke-width:1pt;stroke-opacity:1"
     transform="scale(0.4)" /></marker><marker
   inkscape:stockid="Arrow2Mend"
   orient="auto"
   refY="0"
   refX="0"
   id="Arrow2Mend-3"
   style="overflow:visible"
   inkscape:isstock="true"><path
     inkscape:connector-curvature="0"
     id="path1007-9"
     style="fill:#000000;fill-opacity:1;fill-rule:evenodd;stroke:#000000;stroke-width:0.625;stroke-linejoin:round;stroke-opacity:1"
     d="M 8.7185878,4.0337352 -2.2072895,0.01601326 8.7185884,-4.0017078 c -1.7454984,2.3720609 -1.7354408,5.6174519 -6e-7,8.035443 z"
     transform="scale(-0.6)" /></marker><marker
   inkscape:stockid="Arrow2Mend"
   orient="auto"
   refY="0"
   refX="0"
   id="Arrow2Mend-3-6"
   style="overflow:visible"
   inkscape:isstock="true"><path
     inkscape:connector-curvature="0"
     id="path1007-9-8"
     style="fill:#000000;fill-opacity:1;fill-rule:evenodd;stroke:#000000;stroke-width:0.625;stroke-linejoin:round;stroke-opacity:1"
     d="M 8.7185878,4.0337352 -2.2072895,0.01601326 8.7185884,-4.0017078 c -1.7454984,2.3720609 -1.7354408,5.6174519 -6e-7,8.035443 z"
     transform="scale(-0.6)" /></marker><marker
   inkscape:stockid="Arrow2Mend"
   orient="auto"
   refY="0"
   refX="0"
   id="Arrow2Mend-3-0"
   style="overflow:visible"
   inkscape:isstock="true"><path
     inkscape:connector-curvature="0"
     id="path1007-9-3"
     style="fill:#000000;fill-opacity:1;fill-rule:evenodd;stroke:#000000;stroke-width:0.625;stroke-linejoin:round;stroke-opacity:1"
     d="M 8.7185878,4.0337352 -2.2072895,0.01601326 8.7185884,-4.0017078 c -1.7454984,2.3720609 -1.7354408,5.6174519 -6e-7,8.035443 z"
     transform="scale(-0.6)" /></marker><marker
   inkscape:stockid="Arrow2Mend"
   orient="auto"
   refY="0"
   refX="0"
   id="Arrow2Mend-3-4"
   style="overflow:visible"
   inkscape:isstock="true"><path
     inkscape:connector-curvature="0"
     id="path1007-9-9"
     style="fill:#000000;fill-opacity:1;fill-rule:evenodd;stroke:#000000;stroke-width:0.625;stroke-linejoin:round;stroke-opacity:1"
     d="M 8.7185878,4.0337352 -2.2072895,0.01601326 8.7185884,-4.0017078 c -1.7454984,2.3720609 -1.7354408,5.6174519 -6e-7,8.035443 z"
     transform="scale(-0.6)" /></marker><marker
   inkscape:stockid="Arrow2Mend"
   orient="auto"
   refY="0"
   refX="0"
   id="Arrow2Mend-3-6-1"
   style="overflow:visible"
   inkscape:isstock="true"><path
     inkscape:connector-curvature="0"
     id="path1007-9-8-8"
     style="fill:#000000;fill-opacity:1;fill-rule:evenodd;stroke:#000000;stroke-width:0.625;stroke-linejoin:round;stroke-opacity:1"
     d="M 8.7185878,4.0337352 -2.2072895,0.01601326 8.7185884,-4.0017078 c -1.7454984,2.3720609 -1.7354408,5.6174519 -6e-7,8.035443 z"
     transform="scale(-0.6)" /></marker><marker
   inkscape:stockid="Arrow2Mend"
   orient="auto"
   refY="0"
   refX="0"
   id="Arrow2Mend-3-0-7"
   style="overflow:visible"
   inkscape:isstock="true"><path
     inkscape:connector-curvature="0"
     id="path1007-9-3-4"
     style="fill:#000000;fill-opacity:1;fill-rule:evenodd;stroke:#000000;stroke-width:0.625;stroke-linejoin:round;stroke-opacity:1"
     d="M 8.7185878,4.0337352 -2.2072895,0.01601326 8.7185884,-4.0017078 c -1.7454984,2.3720609 -1.7354408,5.6174519 -6e-7,8.035443 z"
     transform="scale(-0.6)" /></marker><linearGradient
   inkscape:collect="always"
   xlink:href="#linearGradient7917"
   id="linearGradient7919"
   x1="37.59285"
   y1="195.49791"
   x2="45.629566"
   y2="195.49791"
   gradientUnits="userSpaceOnUse"
   gradientTransform="translate(-4.4528176,-4.3095714)" /><linearGradient
   inkscape:collect="always"
   xlink:href="#linearGradient7917"
   id="linearGradient8269"
   gradientUnits="userSpaceOnUse"
   x1="37.59285"
   y1="195.49791"
   x2="45.629566"
   y2="195.49791"
   gradientTransform="translate(-4.4528176,-4.3095714)" /><linearGradient
   inkscape:collect="always"
   xlink:href="#linearGradient7917"
   id="linearGradient8271"
   gradientUnits="userSpaceOnUse"
   x1="37.59285"
   y1="195.49791"
   x2="45.629566"
   y2="195.49791"
   gradientTransform="translate(-4.4528176,-4.3095714)" /><linearGradient
   inkscape:collect="always"
   xlink:href="#linearGradient7917"
   id="linearGradient8275"
   gradientUnits="userSpaceOnUse"
   x1="37.59285"
   y1="195.49791"
   x2="45.629566"
   y2="195.49791"
   gradientTransform="translate(-4.4528176,-4.3095714)" /><linearGradient
   inkscape:collect="always"
   xlink:href="#linearGradient7917"
   id="linearGradient8277"
   gradientUnits="userSpaceOnUse"
   x1="37.59285"
   y1="195.49791"
   x2="45.629566"
   y2="195.49791"
   gradientTransform="translate(-4.4528176,-4.3095714)" /><linearGradient
   inkscape:collect="always"
   xlink:href="#linearGradient7917"
   id="linearGradient8279"
   gradientUnits="userSpaceOnUse"
   x1="37.59285"
   y1="195.49791"
   x2="45.629566"
   y2="195.49791"
   gradientTransform="translate(-4.4528176,-4.3095714)" /><clipPath
   id="clipPath9697">
      <path
   clip-rule="nonzero"
   d="m 35,8 h 13.933594 v 2 H 35 Z m 0,0"
   id="path9619" />
    </clipPath>
    <clipPath
   id="clipPath6755">
      <path
   clip-rule="nonzero"
   d="m 40,13 h 4 v 4.695313 h -4 z m 0,0"
   id="path9494" />
    </clipPath>
  <clipPath
   id="clipPath1724">
      <path
   clip-rule="nonzero"
   d="m 1,12 h 5 v 5.847656 H 1 Z m 0,0"
   id="path9841" />
    </clipPath>
    <clipPath
   id="clipPath7953">
      <path
   clip-rule="nonzero"
   d="m 6,10 h 12 v 7.847656 H 6 Z m 0,0"
   id="path1733" />
    </clipPath>
  <marker
   inkscape:stockid="Arrow2Mend"
   orient="auto"
   refY="0"
   refX="0"
   id="Arrow2Mend-3-6-3"
   style="overflow:visible"
   inkscape:isstock="true"><path
     inkscape:connector-curvature="0"
     id="path1007-9-8-1"
     style="fill:#000000;fill-opacity:1;fill-rule:evenodd;stroke:#000000;stroke-width:0.625;stroke-linejoin:round;stroke-opacity:1"
     d="M 8.7185878,4.0337352 -2.2072895,0.01601326 8.7185884,-4.0017078 c -1.7454984,2.3720609 -1.7354408,5.6174519 -6e-7,8.035443 z"
     transform="scale(-0.6)" /></marker><marker
   inkscape:stockid="Arrow2Mend"
   orient="auto"
   refY="0"
   refX="0"
   id="Arrow2Mend-3-60"
   style="overflow:visible"
   inkscape:isstock="true"><path
     inkscape:connector-curvature="0"
     id="path1007-9-0"
     style="fill:#000000;fill-opacity:1;fill-rule:evenodd;stroke:#000000;stroke-width:0.625;stroke-linejoin:round;stroke-opacity:1"
     d="M 8.7185878,4.0337352 -2.2072895,0.01601326 8.7185884,-4.0017078 c -1.7454984,2.3720609 -1.7354408,5.6174519 -6e-7,8.035443 z"
     transform="scale(-0.6)" /></marker></defs><sodipodi:namedview
     id="base"
     pagecolor="#ffffff"
     bordercolor="#666666"
     borderopacity="1.0"
     inkscape:pageopacity="0.0"
     inkscape:pageshadow="2"
     inkscape:zoom="2.8284273"
     inkscape:cx="367.51873"
     inkscape:cy="89.09545"
     inkscape:document-units="mm"
     inkscape:current-layer="layer1"
     showgrid="false"
     inkscape:window-width="2880"
     inkscape:window-height="1514"
     inkscape:window-x="2869"
     inkscape:window-y="-11"
     inkscape:window-maximized="1"
     units="in"
     fit-margin-left="0.1"
     fit-margin-top="0.1"
     fit-margin-bottom="0.1"
     fit-margin-right="0.1"
     inkscape:snap-bbox="true"
     inkscape:snap-global="true"
     inkscape:bbox-paths="true"
     inkscape:snap-bbox-edge-midpoints="true"
     inkscape:bbox-nodes="true"
     inkscape:snap-bbox-midpoints="true"
     inkscape:object-paths="true"
     inkscape:snap-midpoints="true"
     inkscape:snap-smooth-nodes="true"
     inkscape:snap-intersection-paths="true"
     inkscape:snap-center="true"
     inkscape:snap-object-midpoints="true"
     inkscape:snap-text-baseline="true"
     inkscape:snap-page="true"
     inkscape:showpageshadow="2"
     inkscape:pagecheckerboard="0"
     inkscape:deskcolor="#d1d1d1" /><metadata
     id="metadata5"><rdf:RDF><cc:Work
         rdf:about=""><dc:format>image/svg+xml</dc:format><dc:type
           rdf:resource="http://purl.org/dc/dcmitype/StillImage" /></cc:Work></rdf:RDF></metadata><g
     inkscape:label="Layer 1"
     inkscape:groupmode="layer"
     id="layer1"
     transform="translate(13.726058,-253.75975)"><g
       id="g1283"
       transform="translate(26.781832,122.34625)"><g
         id="g14078"><rect
           style="fill:#ffffff;fill-opacity:1;stroke:#000000;stroke-width:0.5;stroke-miterlimit:4;stroke-dasharray:none;stroke-opacity:1"
           id="rect815"
           width="26.611591"
           height="15.43338"
           x="6.8327394"
           y="146.6628" /><text
           xml:space="preserve"
           style="font-style:normal;font-weight:normal;font-size:10.5833px;line-height:1.25;font-family:sans-serif;letter-spacing:0px;word-spacing:0px;fill:#000000;fill-opacity:1;stroke:none;stroke-width:0.264583"
           x="9.2671928"
           y="145.03479"
           id="text819"><tspan
             sodipodi:role="line"
             id="tspan817"
             x="9.2671928"
             y="145.03479"
             style="font-style:normal;font-variant:normal;font-weight:normal;font-stretch:normal;font-size:4.93889px;font-family:Arial;-inkscape-font-specification:Arial;stroke-width:0.264583">Controller</tspan></text></g></g><circle
       r="3.0590165"
       cy="276.73053"
       cx="15.564516"
       id="path1333"
       style="fill:none;fill-opacity:1;stroke:#000000;stroke-width:0.5;stroke-linecap:round;stroke-linejoin:round;stroke-miterlimit:4;stroke-dasharray:none;stroke-dashoffset:0;stroke-opacity:1" /><path
       sodipodi:nodetypes="cc"
       inkscape:connector-curvature="0"
       id="path978-4"
       d="M 18.623533,276.73054 H 32.608652"
       style="fill:none;stroke:#000000;stroke-width:0.5;stroke-linecap:butt;stroke-linejoin:miter;stroke-miterlimit:4;stroke-dasharray:none;stroke-opacity:1;marker-end:url(#Arrow2Mend-3)" /><path
       sodipodi:nodetypes="cc"
       inkscape:connector-curvature="0"
       id="path978-4-32"
       d="m 120.61128,258.50009 v 13.98512"
       style="fill:none;stroke:#000000;stroke-width:0.5;stroke-linecap:butt;stroke-linejoin:miter;stroke-miterlimit:4;stroke-dasharray:none;stroke-opacity:1;marker-end:url(#Arrow2Mend-3-60)" /><path
       sodipodi:nodetypes="cc"
       inkscape:connector-curvature="0"
       id="path978-4-9"
       d="M 96.659372,276.48476 H 116.67937"
       style="fill:none;stroke:#000000;stroke-width:0.5;stroke-linecap:butt;stroke-linejoin:miter;stroke-miterlimit:4;stroke-dasharray:none;stroke-opacity:1;marker-end:url(#Arrow2Mend-3-6)" /><path
       sodipodi:nodetypes="cc"
       inkscape:connector-curvature="0"
       id="path978-4-9-0"
       d="m 123.79687,276.47903 h 8.53551"
       style="fill:none;stroke:#000000;stroke-width:0.500001;stroke-linecap:butt;stroke-linejoin:miter;stroke-miterlimit:4;stroke-dasharray:none;stroke-opacity:1;marker-end:url(#Arrow2Mend-3-6-3)" /><path
       sodipodi:nodetypes="cc"
       inkscape:connector-curvature="0"
       id="path978-4-1"
       d="M 15.569321,296.91875 V 280.99593"
       style="fill:none;stroke:#000000;stroke-width:0.5;stroke-linecap:butt;stroke-linejoin:miter;stroke-miterlimit:4;stroke-dasharray:none;stroke-opacity:1;marker-end:url(#Arrow2Mend-3-0)" /><path
       sodipodi:nodetypes="cc"
       inkscape:connector-curvature="0"
       id="path978-4-3"
       d="m 159.80206,276.47698 h 22.07002"
       style="fill:none;stroke:#000000;stroke-width:0.5;stroke-linecap:butt;stroke-linejoin:miter;stroke-miterlimit:4;stroke-dasharray:none;stroke-opacity:1;marker-end:url(#Arrow2Mend-3-4)" /><path
       sodipodi:nodetypes="ccc"
       inkscape:connector-curvature="0"
       id="path13907"
       d="m 169.3077,276.47698 v 20.19301 H 15.668541"
       style="fill:none;stroke:#000000;stroke-width:0.500001;stroke-linecap:round;stroke-linejoin:miter;stroke-miterlimit:4;stroke-dasharray:none;stroke-opacity:1" /><g
       id="g20017"
       transform="translate(-4.4099474,-0.1830355)"
       style="fill:#000000"><path
         style="fill:#000000;stroke:#000000;stroke-width:0.5;stroke-linecap:butt;stroke-linejoin:miter;stroke-miterlimit:4;stroke-dasharray:none;stroke-opacity:1;marker-end:url(#Arrow2Mend)"
         d="M -9.316111,276.92243 H 15.909528"
         id="path978"
         inkscape:connector-curvature="0"
         sodipodi:nodetypes="cc" /><text
         xml:space="preserve"
         style="font-style:normal;font-variant:normal;font-weight:normal;font-stretch:normal;font-size:4.23333px;line-height:1.25;font-family:'Times New Roman';-inkscape-font-specification:'Times New Roman, ';letter-spacing:0px;word-spacing:0px;fill:#000000;fill-opacity:1;stroke:none;stroke-width:0.264583"
         x="-9.3161144"
         y="275.08939"
         id="text13911"><tspan
           sodipodi:role="line"
           id="tspan13909"
           x="-9.3161144"
           y="275.08939"
           style="font-style:normal;font-variant:normal;font-weight:normal;font-stretch:normal;font-size:4.93889px;font-family:Arial;-inkscape-font-specification:Arial;fill:#000000;stroke-width:0.264583">Reference</tspan></text></g><text
       id="text13911-3"
       y="274.89749"
       x="19.1527"
       style="font-style:normal;font-variant:normal;font-weight:normal;font-stretch:normal;font-size:4.23333px;line-height:1.25;font-family:'Times New Roman';-inkscape-font-specification:'Times New Roman, ';letter-spacing:0px;word-spacing:0px;fill:#000000;fill-opacity:1;stroke:none;stroke-width:0.264583"
       xml:space="preserve"><tspan
         style="font-style:normal;font-variant:normal;font-weight:normal;font-stretch:normal;font-size:4.93889px;font-family:Arial;-inkscape-font-specification:Arial;stroke-width:0.264583"
         y="274.89749"
         x="19.1527"
         id="tspan13909-3"
         sodipodi:role="line">Error</tspan></text><text
       id="text13911-3-2-9"
       y="273.69479"
       x="168.18507"
       style="font-style:normal;font-variant:normal;font-weight:normal;font-stretch:normal;font-size:4.23333px;line-height:1.25;font-family:'Times New Roman';-inkscape-font-specification:'Times New Roman, ';letter-spacing:0px;word-spacing:0px;fill:#000000;fill-opacity:1;stroke:none;stroke-width:0.264583"
       xml:space="preserve"><tspan
         style="font-style:normal;font-variant:normal;font-weight:normal;font-stretch:normal;font-size:4.93889px;font-family:Arial;-inkscape-font-specification:Arial;stroke-width:0.264583"
         y="273.69479"
         x="168.18507"
         id="tspan13909-3-2-3"
         sodipodi:role="line">Output</tspan></text><path
       sodipodi:nodetypes="cc"
       inkscape:connector-curvature="0"
       id="path978-4-9-9"
       d="M 60.226162,276.48986 H 79.917145"
       style="fill:none;stroke:#000000;stroke-width:0.500001;stroke-linecap:butt;stroke-linejoin:miter;stroke-miterlimit:4;stroke-dasharray:none;stroke-opacity:1;marker-end:url(#Arrow2Mend-3-6-1)" /><text
       xml:space="preserve"
       style="font-style:normal;font-variant:normal;font-weight:normal;font-stretch:normal;font-size:4.93889px;line-height:1.25;font-family:Arial;-inkscape-font-specification:'Arial, Normal';font-variant-ligatures:normal;font-variant-caps:normal;font-variant-numeric:normal;font-variant-east-asian:normal;letter-spacing:0px;word-spacing:0px;fill:#000000;fill-opacity:1;stroke:none;stroke-width:0.264583"
       x="77.656586"
       y="267.07999"
       id="text13911-3-2"><tspan
         sodipodi:role="line"
         id="tspan16382"
         x="77.656586"
         y="267.07999">Saturation</tspan></text><text
       xml:space="preserve"
       style="font-style:normal;font-variant:normal;font-weight:normal;font-stretch:normal;font-size:4.93889px;line-height:1.25;font-family:Arial;-inkscape-font-specification:'Arial, Normal';font-variant-ligatures:normal;font-variant-caps:normal;font-variant-numeric:normal;font-variant-east-asian:normal;letter-spacing:0px;word-spacing:0px;fill:#000000;fill-opacity:1;stroke:none;stroke-width:0.264583"
       x="63.404434"
       y="273.84756"
       id="text13911-3-2-7"><tspan
         sodipodi:role="line"
         id="tspan16382-5"
         x="63.404434"
         y="273.84756">preSat</tspan></text><rect
       y="268.76028"
       x="133.19026"
       height="15.43338"
       width="26.611591"
       id="rect815-52"
       style="fill:#ffffff;fill-opacity:1;stroke:#000000;stroke-width:0.5;stroke-miterlimit:4;stroke-dasharray:none;stroke-opacity:1" /><text
       id="text819-7"
       y="267.20584"
       x="140.08725"
       style="font-style:normal;font-weight:normal;font-size:10.5833px;line-height:1.25;font-family:sans-serif;letter-spacing:0px;word-spacing:0px;fill:#000000;fill-opacity:1;stroke:none;stroke-width:0.264583"
       xml:space="preserve"><tspan
         style="font-style:normal;font-variant:normal;font-weight:normal;font-stretch:normal;font-size:4.93889px;font-family:Arial;-inkscape-font-specification:Arial;stroke-width:0.264583"
         y="267.20584"
         x="140.08725"
         id="tspan817-7"
         sodipodi:role="line">Plant</tspan></text><g
       transform="matrix(-1,0,0,1,135.9616,46.897913)"
       id="g10539-8-3"><path
         sodipodi:nodetypes="cc"
         inkscape:connector-curvature="0"
         id="path9930-1-4-6"
         d="m 121.08908,231.69294 h -1.55442"
         style="fill:none;stroke:#000000;stroke-width:0.3;stroke-linecap:butt;stroke-linejoin:miter;stroke-miterlimit:4;stroke-dasharray:none;stroke-opacity:1" /></g><g
       id="g10539-3-6"
       transform="matrix(-1,0,0,1,134.40717,45.087153)"><path
         sodipodi:nodetypes="cc"
         inkscape:connector-curvature="0"
         id="path9930-8-5"
         d="m 120.31187,230.91573 v 1.55443"
         style="fill:none;stroke:#000000;stroke-width:0.3;stroke-linecap:butt;stroke-linejoin:miter;stroke-miterlimit:4;stroke-dasharray:none;stroke-opacity:1" /><path
         sodipodi:nodetypes="cc"
         inkscape:connector-curvature="0"
         id="path9930-1-5-8"
         d="m 121.08908,231.69294 h -1.55442"
         style="fill:none;stroke:#000000;stroke-width:0.3;stroke-linecap:butt;stroke-linejoin:miter;stroke-miterlimit:4;stroke-dasharray:none;stroke-opacity:1" /></g><g
       id="g7565"
       transform="matrix(1.9014085,0,0,1.9014085,9.9456707,-95.148506)"
       style="stroke:url(#linearGradient7919)"><g
         id="g7557"
         style="stroke:url(#linearGradient8271)"><rect
           style="fill:#ff0000;fill-opacity:0.182203;stroke:url(#linearGradient8269);stroke-width:0.264583"
           id="rect400"
           width="8.0367184"
           height="7.9540362"
           x="37.59285"
           y="191.52089" /></g><path
         style="fill:none;fill-opacity:1;stroke:url(#linearGradient8275);stroke-width:0.264583"
         d="m 38.188164,197.82129 h 1.984375 l 2.912068,-5.04386 h 1.701604 v 0.0829"
         id="path559" /><path
         style="fill:#2b0000;fill-opacity:1;stroke:url(#linearGradient8277);stroke-width:0.065;stroke-dasharray:none"
         d="m 38.138555,195.45657 c 6.912239,0 6.912239,0 6.912239,0"
         id="path3770" /><path
         style="fill:#2b0000;fill-opacity:1;stroke:url(#linearGradient8279);stroke-width:0.065;stroke-dasharray:none"
         d="m 41.578137,191.93431 c 0,6.91224 0,6.91224 0,6.91224"
         id="path6856" /></g><text
       xml:space="preserve"
       style="font-style:normal;font-variant:normal;font-weight:normal;font-stretch:normal;font-size:4.9389px;font-family:Arial;-inkscape-font-specification:'Arial, Normal';font-variant-ligatures:normal;font-variant-caps:normal;font-variant-numeric:normal;font-variant-east-asian:normal;fill:#ff0000;fill-opacity:0.182203;stroke-width:0.0649999;stroke-dasharray:none"
       x="81.408524"
       y="255.03212"
       id="text16386"><tspan
         sodipodi:role="line"
         id="tspan16384"
         style="stroke-width:0.065"
         x="81.408524"
         y="255.03212" /></text><circle
       style="fill:#000000;fill-opacity:1;stroke:#000000;stroke-width:0.499999;stroke-linecap:square;stroke-dasharray:none;stroke-opacity:1;paint-order:fill markers stroke"
       id="path24444-0"
       cx="169.81136"
       cy="276.47699"
       r="1.0252603" /><g
       inkscape:label=""
       transform="matrix(1.2343656,0,0,1.2343656,37.024241,273.14066)"
       id="g2141"
       style="stroke-width:0.810133"><g
   fill="#000000"
   fill-opacity="1"
   id="g36"
   transform="matrix(0.352778,0,0,0.352778,-0.23151,0.00158747)"
   style="stroke-width:0.656315">
    <g
   id="use34"
   transform="translate(0,12.75)"
   style="stroke-width:0.810133">
      <path
   d="M 7.171875,-5.796875 C 7.15625,-5.84375 7.09375,-5.953125 7.09375,-6 c 0,-0.015625 0.015625,-0.03125 0.265625,-0.203125 L 8.75,-7.296875 c 1.921875,-1.5 2.546875,-2 3.546875,-2.078125 0.09375,-0.015625 0.234375,-0.015625 0.234375,-0.265625 0,-0.078125 -0.03125,-0.15625 -0.15625,-0.15625 -0.15625,0 -0.328125,0.03125 -0.484375,0.03125 H 11.34375 c -0.4375,0 -0.921875,-0.03125 -1.34375,-0.03125 -0.109375,0 -0.28125,0 -0.28125,0.265625 0,0.140625 0.109375,0.15625 0.1875,0.15625 0.15625,0.015625 0.34375,0.0625 0.34375,0.265625 0,0.28125 -0.421875,0.625 -0.546875,0.71875 L 4.09375,-4.015625 5.28125,-8.75 c 0.125,-0.484375 0.15625,-0.625 1.171875,-0.625 0.28125,0 0.40625,0 0.40625,-0.28125 0,-0.140625 -0.140625,-0.140625 -0.21875,-0.140625 -0.25,0 -0.5625,0.03125 -0.828125,0.03125 H 4.109375 c -0.25,0 -0.5625,-0.03125 -0.828125,-0.03125 -0.109375,0 -0.265625,0 -0.265625,0.265625 0,0.15625 0.125,0.15625 0.34375,0.15625 0.875,0 0.875,0.109375 0.875,0.265625 0,0.03125 0,0.109375 -0.0625,0.328125 l -1.9375,7.71875 c -0.125,0.5 -0.15625,0.640625 -1.15625,0.640625 -0.28125,0 -0.421875,0 -0.421875,0.265625 C 0.65625,0 0.78125,0 0.875,0 1.140625,0 1.4375,-0.03125 1.703125,-0.03125 h 1.6875 C 3.65625,-0.03125 3.953125,0 4.234375,0 4.34375,0 4.5,0 4.5,-0.265625 c 0,-0.15625 -0.125,-0.15625 -0.34375,-0.15625 -0.875,0 -0.875,-0.109375 -0.875,-0.25 0,-0.109375 0.09375,-0.46875 0.140625,-0.6875 l 0.5625,-2.21875 2.1875,-1.71875 C 6.578125,-4.375 7.34375,-2.53125 7.9375,-1.140625 7.96875,-1.046875 8,-0.96875 8,-0.859375 c 0,0.421875 -0.5625,0.4375 -0.703125,0.4375 -0.125,0 -0.265625,0 -0.265625,0.28125 C 7.03125,0 7.1875,0 7.234375,0 c 0.5,0 1.03125,-0.03125 1.53125,-0.03125 h 0.6875 C 9.671875,-0.03125 9.90625,0 10.125,0 c 0.09375,0 0.25,0 0.25,-0.265625 0,-0.15625 -0.140625,-0.15625 -0.28125,-0.15625 C 9.5625,-0.4375 9.375,-0.546875 9.171875,-1.0625 Z m 0,0"
   id="path68"
   style="stroke-width:0.810133" />
    </g>
  </g>
  <g
   fill="#000000"
   fill-opacity="1"
   id="g40"
   transform="matrix(0.352778,0,0,0.352778,-0.23151,0.00158747)"
   style="stroke-width:0.656315">
    <g
   id="use38"
   transform="translate(11.951,14.902)"
   style="stroke-width:0.810133">
      <path
   d="M 0.453125,1.21875 C 0.375,1.5625 0.34375,1.625 -0.09375,1.625 c -0.109375,0 -0.21875,0 -0.21875,0.1875 0,0.078125 0.046875,0.125 0.125,0.125 0.265625,0 0.5625,-0.03125 0.828125,-0.03125 0.34375,0 0.671875,0.03125 1,0.03125 0.046875,0 0.171875,0 0.171875,-0.203125 C 1.8125,1.625 1.71875,1.625 1.578125,1.625 c -0.5,0 -0.5,-0.0625 -0.5,-0.15625 0,-0.125 0.421875,-1.75 0.484375,-2 0.125,0.296875 0.40625,0.640625 0.921875,0.640625 1.15625,0 2.40625,-1.453125 2.40625,-2.921875 0,-0.9375 -0.578125,-1.59375 -1.328125,-1.59375 -0.5,0 -0.984375,0.359375 -1.3125,0.75 -0.09375,-0.546875 -0.53125,-0.75 -0.890625,-0.75 -0.46875,0 -0.65625,0.390625 -0.734375,0.5625 C 0.4375,-3.5 0.3125,-2.90625 0.3125,-2.875 c 0,0.109375 0.09375,0.109375 0.109375,0.109375 0.109375,0 0.109375,-0.015625 0.171875,-0.234375 0.171875,-0.703125 0.375,-1.1875 0.734375,-1.1875 0.171875,0 0.3125,0.078125 0.3125,0.453125 0,0.234375 -0.03125,0.34375 -0.078125,0.515625 z m 1.75,-4.328125 C 2.265625,-3.375 2.546875,-3.65625 2.71875,-3.8125 c 0.359375,-0.296875 0.640625,-0.375 0.8125,-0.375 0.390625,0 0.640625,0.34375 0.640625,0.9375 0,0.59375 -0.328125,1.734375 -0.515625,2.109375 -0.34375,0.703125 -0.8125,1.03125 -1.1875,1.03125 C 1.8125,-0.109375 1.6875,-0.9375 1.6875,-1 c 0,-0.015625 0,-0.03125 0.03125,-0.15625 z m 0,0"
   id="path72"
   style="stroke-width:0.810133" />
    </g>
  </g>
  <g
   fill="#000000"
   fill-opacity="1"
   id="g44"
   transform="matrix(0.352778,0,0,0.352778,-0.23151,0.00158747)"
   style="stroke-width:0.656315">
    <g
   id="use42"
   transform="translate(20.65,12.75)"
   style="stroke-width:0.810133">
      <path
   d="M 5.71875,-3.3125 H 9.6875 c 0.203125,0 0.453125,0 0.453125,-0.265625 0,-0.265625 -0.25,-0.265625 -0.453125,-0.265625 H 5.71875 v -3.953125 c 0,-0.203125 0,-0.46875 -0.25,-0.46875 -0.28125,0 -0.28125,0.25 -0.28125,0.46875 V -3.84375 H 1.234375 c -0.203125,0 -0.453125,0 -0.453125,0.265625 0,0.265625 0.234375,0.265625 0.453125,0.265625 H 5.1875 v 3.953125 c 0,0.203125 0,0.46875 0.265625,0.46875 0.265625,0 0.265625,-0.25 0.265625,-0.46875 z m 0,0"
   id="path76"
   style="stroke-width:0.810133" />
    </g>
  </g>
  <g
   fill="#000000"
   fill-opacity="1"
   id="g48"
   transform="matrix(0.352778,0,0,0.352778,-0.23151,0.00158747)"
   style="stroke-width:0.656315">
    <g
   id="use46"
   transform="translate(35.959,6.8080001)"
   style="stroke-width:0.810133">
      <path
   d="M 5.078125,-4.03125 C 5.0625,-4.0625 5.03125,-4.140625 5.03125,-4.171875 c 0,0 0.171875,-0.140625 0.28125,-0.21875 l 1.75,-1.34375 C 8,-6.4375 8.390625,-6.46875 8.6875,-6.5 8.765625,-6.515625 8.859375,-6.515625 8.859375,-6.703125 8.859375,-6.734375 8.828125,-6.8125 8.75,-6.8125 c -0.21875,0 -0.46875,0.03125 -0.703125,0.03125 -0.359375,0 -0.75,-0.03125 -1.109375,-0.03125 -0.0625,0 -0.1875,0 -0.1875,0.203125 0,0.0625 0.046875,0.09375 0.125,0.109375 0.21875,0.015625 0.296875,0.0625 0.296875,0.203125 0,0.1875 -0.296875,0.421875 -0.359375,0.46875 L 2.9375,-2.84375 3.734375,-6.046875 C 3.8125,-6.40625 3.84375,-6.5 4.5625,-6.5 c 0.25,0 0.34375,0 0.34375,-0.203125 0,-0.078125 -0.078125,-0.109375 -0.140625,-0.109375 -0.28125,0 -1,0.03125 -1.28125,0.03125 C 3.203125,-6.78125 2.5,-6.8125 2.203125,-6.8125 2.140625,-6.8125 2,-6.8125 2,-6.625 2,-6.5 2.09375,-6.5 2.296875,-6.5 c 0.125,0 0.3125,0.015625 0.421875,0.015625 0.15625,0.03125 0.21875,0.046875 0.21875,0.171875 0,0.03125 0,0.0625 -0.03125,0.1875 L 1.5625,-0.78125 c -0.09375,0.390625 -0.109375,0.46875 -0.90625,0.46875 -0.171875,0 -0.28125,0 -0.28125,0.1875 C 0.375,0 0.5,0 0.53125,0 0.8125,0 1.515625,-0.03125 1.796875,-0.03125 2,-0.03125 2.21875,-0.015625 2.4375,-0.015625 2.65625,-0.015625 2.875,0 3.078125,0 3.15625,0 3.28125,0 3.28125,-0.203125 3.28125,-0.3125 3.1875,-0.3125 3,-0.3125 c -0.375,0 -0.640625,0 -0.640625,-0.171875 0,-0.078125 0.046875,-0.296875 0.078125,-0.4375 C 2.578125,-1.453125 2.71875,-1.96875 2.84375,-2.5 l 1.484375,-1.15625 1.15625,2.6875 c 0.125,0.265625 0.125,0.296875 0.125,0.34375 0,0.3125 -0.4375,0.3125 -0.53125,0.3125 -0.109375,0 -0.21875,0 -0.21875,0.203125 C 4.859375,0 4.984375,0 5,0 5.40625,0 5.828125,-0.03125 6.21875,-0.03125 6.4375,-0.03125 6.984375,0 7.203125,0 7.25,0 7.375,0 7.375,-0.203125 7.375,-0.3125 7.265625,-0.3125 7.171875,-0.3125 c -0.40625,0 -0.53125,-0.09375 -0.6875,-0.4375 z m 0,0"
   id="path80"
   style="stroke-width:0.810133" />
    </g>
  </g>
  <g
   fill="#000000"
   fill-opacity="1"
   id="g52"
   transform="matrix(0.352778,0,0,0.352778,-0.23151,0.00158747)"
   style="stroke-width:0.656315">
    <g
   id="use50"
   transform="translate(44.419998,8.3030005)"
   style="stroke-width:0.810133">
      <path
   d="m 2.265625,-4.359375 c 0,-0.109375 -0.09375,-0.265625 -0.28125,-0.265625 -0.1875,0 -0.390625,0.1875 -0.390625,0.390625 0,0.109375 0.078125,0.265625 0.28125,0.265625 0.1875,0 0.390625,-0.203125 0.390625,-0.390625 z M 0.84375,-0.8125 c -0.03125,0.09375 -0.0625,0.171875 -0.0625,0.296875 0,0.328125 0.265625,0.578125 0.65625,0.578125 0.6875,0 1,-0.953125 1,-1.0625 0,-0.09375 -0.09375,-0.09375 -0.109375,-0.09375 -0.09375,0 -0.109375,0.046875 -0.140625,0.125 -0.15625,0.5625 -0.453125,0.84375 -0.734375,0.84375 -0.140625,0 -0.171875,-0.09375 -0.171875,-0.25 0,-0.15625 0.046875,-0.28125 0.109375,-0.4375 C 1.46875,-1 1.546875,-1.1875 1.609375,-1.375 1.671875,-1.546875 1.9375,-2.171875 1.953125,-2.265625 1.984375,-2.328125 2,-2.40625 2,-2.484375 2,-2.8125 1.71875,-3.078125 1.34375,-3.078125 0.640625,-3.078125 0.328125,-2.125 0.328125,-2 c 0,0.078125 0.09375,0.078125 0.125,0.078125 0.09375,0 0.09375,-0.03125 0.125,-0.109375 C 0.75,-2.625 1.0625,-2.875 1.3125,-2.875 c 0.109375,0 0.171875,0.046875 0.171875,0.234375 0,0.171875 -0.03125,0.265625 -0.203125,0.703125 z m 0,0"
   id="path84"
   style="stroke-width:0.810133" />
    </g>
  </g>
  <g
   clip-path="url(#clipPath9697)"
   id="g56"
   transform="matrix(0.352778,0,0,0.352778,-0.23151,0.00158747)"
   style="stroke-width:0.810133">
    <path
   fill="none"
   stroke-width="0.465016"
   stroke-linecap="butt"
   stroke-linejoin="miter"
   stroke="#000000"
   stroke-opacity="1"
   stroke-miterlimit="10"
   d="M 0.0019375,-0.0010625 H 11.779281"
   transform="matrix(1,0,0,-1,35.959,9.163)"
   id="path54" />
  </g>
  <g
   clip-path="url(#clipPath6755)"
   id="g62"
   transform="matrix(0.352778,0,0,0.352778,-0.23151,0.00158747)"
   style="stroke-width:0.810133">
    <g
   fill="#000000"
   fill-opacity="1"
   id="g60"
   style="stroke-width:0.656315">
      <g
   id="use58"
   transform="translate(39.513,17.697001)"
   style="stroke-width:0.810133">
        <path
   d="M 3.890625,-3.734375 C 3.625,-3.71875 3.421875,-3.5 3.421875,-3.28125 c 0,0.140625 0.09375,0.296875 0.3125,0.296875 0.21875,0 0.453125,-0.171875 0.453125,-0.5625 C 4.1875,-4 3.765625,-4.40625 3,-4.40625 c -1.3125,0 -1.6875,1.015625 -1.6875,1.453125 0,0.78125 0.734375,0.921875 1.03125,0.984375 0.515625,0.109375 1.03125,0.21875 1.03125,0.765625 0,0.25 -0.21875,1.09375 -1.421875,1.09375 -0.140625,0 -0.90625,0 -1.140625,-0.53125 0.390625,0.046875 0.640625,-0.25 0.640625,-0.53125 0,-0.21875 -0.171875,-0.34375 -0.375,-0.34375 -0.265625,0 -0.5625,0.203125 -0.5625,0.65625 0,0.5625 0.578125,0.96875 1.421875,0.96875 1.625,0 2.015625,-1.203125 2.015625,-1.65625 0,-0.359375 -0.1875,-0.609375 -0.3125,-0.71875 -0.265625,-0.28125 -0.5625,-0.34375 -1,-0.421875 -0.359375,-0.078125 -0.75,-0.15625 -0.75,-0.609375 C 1.890625,-3.578125 2.125,-4.1875 3,-4.1875 c 0.25,0 0.75,0.078125 0.890625,0.453125 z m 0,0"
   id="path88"
   style="stroke-width:0.810133" />
      </g>
    </g>
  </g>
</g><g
       inkscape:label=""
       transform="matrix(1.905854,0,0,1.905854,140.53534,270.15412)"
       id="g3765"
       style="stroke-width:0.5247"><g
   fill="#000000"
   fill-opacity="1"
   id="g25"
   transform="matrix(0.352778,0,0,0.352778,-0.42168,0.0778316)"
   style="stroke-width:0.233827">
    <g
   id="use23"
   transform="translate(7.4050002,6.4200001)"
   style="stroke-width:0.5247">
      <path
   d="m 2.9375,-6.375 c 0,-0.25 0,-0.265625 -0.234375,-0.265625 C 2.078125,-6 1.203125,-6 0.890625,-6 v 0.3125 c 0.203125,0 0.78125,0 1.296875,-0.265625 v 5.171875 c 0,0.359375 -0.03125,0.46875 -0.921875,0.46875 h -0.3125 V 0 c 0.34375,-0.03125 1.203125,-0.03125 1.609375,-0.03125 0.390625,0 1.265625,0 1.609375,0.03125 v -0.3125 h -0.3125 c -0.90625,0 -0.921875,-0.109375 -0.921875,-0.46875 z m 0,0"
   id="path47"
   style="stroke-width:0.5247" />
    </g>
  </g>
  <path
   fill="none"
   stroke-width="0.301177"
   stroke-linecap="butt"
   stroke-linejoin="miter"
   stroke="#000000"
   stroke-opacity="1"
   stroke-miterlimit="10"
   d="M 0,8.7010937 H 17.402343"
   id="path27"
   transform="scale(0.352778)" />
  <g
   clip-path="url(#clipPath1724)"
   id="g33"
   transform="matrix(0.352778,0,0,0.352778,-0.42168,0.0778316)"
   style="stroke-width:0.5247">
    <g
   fill="#000000"
   fill-opacity="1"
   id="g31"
   style="stroke-width:0.233827">
      <g
   id="use29"
   transform="translate(1.196,17.016001)"
   style="stroke-width:0.5247">
        <path
   d="M 3.890625,-3.734375 C 3.625,-3.71875 3.421875,-3.5 3.421875,-3.28125 c 0,0.140625 0.09375,0.296875 0.3125,0.296875 0.21875,0 0.453125,-0.171875 0.453125,-0.5625 C 4.1875,-4 3.765625,-4.40625 3,-4.40625 c -1.3125,0 -1.6875,1.015625 -1.6875,1.453125 0,0.78125 0.734375,0.921875 1.03125,0.984375 0.515625,0.109375 1.03125,0.21875 1.03125,0.765625 0,0.25 -0.21875,1.09375 -1.421875,1.09375 -0.140625,0 -0.90625,0 -1.140625,-0.53125 0.390625,0.046875 0.640625,-0.25 0.640625,-0.53125 0,-0.21875 -0.171875,-0.34375 -0.375,-0.34375 -0.265625,0 -0.5625,0.203125 -0.5625,0.65625 0,0.5625 0.578125,0.96875 1.421875,0.96875 1.625,0 2.015625,-1.203125 2.015625,-1.65625 0,-0.359375 -0.1875,-0.609375 -0.3125,-0.71875 -0.265625,-0.28125 -0.5625,-0.34375 -1,-0.421875 -0.359375,-0.078125 -0.75,-0.15625 -0.75,-0.609375 C 1.890625,-3.578125 2.125,-4.1875 3,-4.1875 c 0.25,0 0.75,0.078125 0.890625,0.453125 z m 0,0"
   id="path51"
   style="stroke-width:0.5247" />
      </g>
    </g>
  </g>
  <g
   clip-path="url(#clipPath7953)"
   id="g41"
   transform="matrix(0.352778,0,0,0.352778,-0.42168,0.0778316)"
   style="stroke-width:0.5247">
    <g
   fill="#000000"
   fill-opacity="1"
   id="g39"
   style="stroke-width:0.233827">
      <g
   id="use35"
   transform="translate(5.8660002,17.016001)"
   style="stroke-width:0.5247">
        <path
   d="m 4.078125,-2.296875 h 2.78125 C 7,-2.296875 7.1875,-2.296875 7.1875,-2.5 7.1875,-2.6875 7,-2.6875 6.859375,-2.6875 h -2.78125 v -2.796875 c 0,-0.140625 0,-0.328125 -0.203125,-0.328125 -0.203125,0 -0.203125,0.1875 -0.203125,0.328125 V -2.6875 h -2.78125 c -0.140625,0 -0.328125,0 -0.328125,0.1875 0,0.203125 0.1875,0.203125 0.328125,0.203125 h 2.78125 V 0.5 c 0,0.140625 0,0.328125 0.203125,0.328125 0.203125,0 0.203125,-0.1875 0.203125,-0.328125 z m 0,0"
   id="path55"
   style="stroke-width:0.5247" />
      </g>
      <g
   id="use37"
   transform="translate(13.61491,17.016001)"
   style="stroke-width:0.5247">
        <path
   d="m 2.9375,-6.375 c 0,-0.25 0,-0.265625 -0.234375,-0.265625 C 2.078125,-6 1.203125,-6 0.890625,-6 v 0.3125 c 0.203125,0 0.78125,0 1.296875,-0.265625 v 5.171875 c 0,0.359375 -0.03125,0.46875 -0.921875,0.46875 h -0.3125 V 0 c 0.34375,-0.03125 1.203125,-0.03125 1.609375,-0.03125 0.390625,0 1.265625,0 1.609375,0.03125 v -0.3125 h -0.3125 c -0.90625,0 -0.921875,-0.109375 -0.921875,-0.46875 z m 0,0"
   id="path59"
   style="stroke-width:0.5247" />
      </g>
    </g>
  </g>
</g><text
       xml:space="preserve"
       style="font-style:normal;font-variant:normal;font-weight:normal;font-stretch:normal;font-size:4.93889px;line-height:1.25;font-family:Arial;-inkscape-font-specification:'Arial, Normal';font-variant-ligatures:normal;font-variant-caps:normal;font-variant-numeric:normal;font-variant-east-asian:normal;letter-spacing:0px;word-spacing:0px;fill:#000000;fill-opacity:1;stroke:none;stroke-width:0.264583"
       x="98.701836"
       y="273.69357"
       id="text13911-3-2-7-2"><tspan
         sodipodi:role="line"
         id="tspan16382-5-6"
         x="98.701836"
         y="273.69357">postSat</tspan></text><circle
       r="3.0590165"
       cy="276.47995"
       cx="120.61608"
       id="path1333-6"
       style="fill:none;fill-opacity:1;stroke:#000000;stroke-width:0.5;stroke-linecap:round;stroke-linejoin:round;stroke-miterlimit:4;stroke-dasharray:none;stroke-dashoffset:0;stroke-opacity:1" /><g
       id="g10539-3-6-4"
       transform="matrix(-1,0,0,1,239.45873,44.83657)"><path
         sodipodi:nodetypes="cc"
         inkscape:connector-curvature="0"
         id="path9930-8-5-7"
         d="m 120.31187,230.91573 v 1.55443"
         style="fill:none;stroke:#000000;stroke-width:0.3;stroke-linecap:butt;stroke-linejoin:miter;stroke-miterlimit:4;stroke-dasharray:none;stroke-opacity:1" /><path
         sodipodi:nodetypes="cc"
         inkscape:connector-curvature="0"
         id="path9930-1-5-8-4"
         d="m 121.08908,231.69294 h -1.55442"
         style="fill:none;stroke:#000000;stroke-width:0.3;stroke-linecap:butt;stroke-linejoin:miter;stroke-miterlimit:4;stroke-dasharray:none;stroke-opacity:1" /></g><g
       id="g10539-3-6-4-2"
       transform="matrix(-1,0,0,1,240.92795,42.845299)"><path
         sodipodi:nodetypes="cc"
         inkscape:connector-curvature="0"
         id="path9930-8-5-7-7"
         d="m 120.31187,230.91573 v 1.55443"
         style="fill:none;stroke:#000000;stroke-width:0.3;stroke-linecap:butt;stroke-linejoin:miter;stroke-miterlimit:4;stroke-dasharray:none;stroke-opacity:1" /><path
         sodipodi:nodetypes="cc"
         inkscape:connector-curvature="0"
         id="path9930-1-5-8-4-1"
         d="m 121.08908,231.69294 h -1.55442"
         style="fill:none;stroke:#000000;stroke-width:0.3;stroke-linecap:butt;stroke-linejoin:miter;stroke-miterlimit:4;stroke-dasharray:none;stroke-opacity:1" /></g><text
       xml:space="preserve"
       style="font-style:normal;font-variant:normal;font-weight:normal;font-stretch:normal;font-size:4.93889px;line-height:1.25;font-family:Arial;-inkscape-font-specification:'Arial, Normal';font-variant-ligatures:normal;font-variant-caps:normal;font-variant-numeric:normal;font-variant-east-asian:normal;letter-spacing:0px;word-spacing:0px;fill:#000000;fill-opacity:1;stroke:none;stroke-width:0.264583"
       x="107.35126"
       y="257.2951"
       id="text13911-3-2-7-2-1"><tspan
         sodipodi:role="line"
         id="tspan16382-5-6-5"
         x="107.35126"
         y="257.2951">Disturbance</tspan></text></g></svg>
