<?xml version="1.0" encoding="utf-8" standalone="no"?>
<!DOCTYPE svg PUBLIC "-//W3C//DTD SVG 1.1//EN"
  "http://www.w3.org/Graphics/SVG/1.1/DTD/svg11.dtd">
<!-- Created with matplotlib (https://matplotlib.org/) -->
<svg height="179.465625pt" version="1.1" viewBox="0 0 267.739063 179.465625" width="267.739063pt" xmlns="http://www.w3.org/2000/svg" xmlns:xlink="http://www.w3.org/1999/xlink">
 <defs>
  <style type="text/css">
*{stroke-linecap:butt;stroke-linejoin:round;}
  </style>
 </defs>
 <g id="figure_1">
  <g id="patch_1">
   <path d="M 0 179.465625 
L 267.739063 179.465625 
L 267.739063 0 
L 0 0 
z
" style="fill:#ffffff;"/>
  </g>
  <g id="axes_1">
   <g id="patch_2">
    <path d="M 37.339063 143.1 
L 260.539062 143.1 
L 260.539062 7.2 
L 37.339063 7.2 
z
" style="fill:#ffffff;"/>
   </g>
   <g id="matplotlib.axis_1">
    <g id="xtick_1">
     <g id="line2d_1">
      <path clip-path="url(#p27e4b47142)" d="M 46.464873 143.1 
L 46.464873 7.2 
" style="fill:none;stroke:#a9a9a9;stroke-dasharray:3.2,0.8,0.5,0.8;stroke-dashoffset:0;stroke-width:0.5;"/>
     </g>
     <g id="line2d_2">
      <defs>
       <path d="M 0 0 
L 0 3.5 
" id="ma2445dd293" style="stroke:#000000;stroke-width:0.8;"/>
      </defs>
      <g>
       <use style="stroke:#000000;stroke-width:0.8;" x="46.464873" xlink:href="#ma2445dd293" y="143.1"/>
      </g>
     </g>
     <g id="text_1">
      <!-- 0.80 -->
      <defs>
       <path d="M 3.609375 32.71875 
Q 3.609375 44.046875 7.03125 52.21875 
Q 10.453125 60.40625 16.109375 64.40625 
Q 20.515625 67.578125 25.203125 67.578125 
Q 32.8125 67.578125 38.875 59.8125 
Q 46.4375 50.203125 46.4375 33.734375 
Q 46.4375 22.21875 43.109375 14.15625 
Q 39.796875 6.109375 34.640625 2.46875 
Q 29.5 -1.171875 24.703125 -1.171875 
Q 15.234375 -1.171875 8.9375 10.015625 
Q 3.609375 19.4375 3.609375 32.71875 
z
M 13.1875 31.5 
Q 13.1875 17.828125 16.546875 9.1875 
Q 19.34375 1.90625 24.859375 1.90625 
Q 27.484375 1.90625 30.3125 4.265625 
Q 33.15625 6.640625 34.625 12.203125 
Q 36.859375 20.609375 36.859375 35.890625 
Q 36.859375 47.21875 34.515625 54.78125 
Q 32.765625 60.40625 29.984375 62.75 
Q 27.984375 64.359375 25.140625 64.359375 
Q 21.828125 64.359375 19.234375 61.375 
Q 15.71875 57.328125 14.453125 48.625 
Q 13.1875 39.9375 13.1875 31.5 
z
" id="TimesNewRomanPSMT-48"/>
       <path d="M 12.5 9.46875 
Q 14.796875 9.46875 16.359375 7.875 
Q 17.921875 6.296875 17.921875 4.046875 
Q 17.921875 1.8125 16.328125 0.21875 
Q 14.75 -1.375 12.5 -1.375 
Q 10.25 -1.375 8.65625 0.21875 
Q 7.078125 1.8125 7.078125 4.046875 
Q 7.078125 6.34375 8.65625 7.90625 
Q 10.25 9.46875 12.5 9.46875 
z
" id="TimesNewRomanPSMT-46"/>
       <path d="M 19.1875 33.34375 
Q 11.328125 39.796875 9.046875 43.703125 
Q 6.78125 47.609375 6.78125 51.8125 
Q 6.78125 58.25 11.765625 62.90625 
Q 16.75 67.578125 25 67.578125 
Q 33.015625 67.578125 37.890625 63.234375 
Q 42.78125 58.890625 42.78125 53.328125 
Q 42.78125 49.609375 40.140625 45.75 
Q 37.5 41.890625 29.15625 36.671875 
Q 37.75 30.03125 40.53125 26.21875 
Q 44.234375 21.234375 44.234375 15.71875 
Q 44.234375 8.734375 38.90625 3.78125 
Q 33.59375 -1.171875 24.953125 -1.171875 
Q 15.53125 -1.171875 10.25 4.734375 
Q 6.0625 9.46875 6.0625 15.09375 
Q 6.0625 19.484375 9.015625 23.796875 
Q 11.96875 28.125 19.1875 33.34375 
z
M 26.859375 38.578125 
Q 32.71875 43.84375 34.28125 46.890625 
Q 35.84375 49.953125 35.84375 53.8125 
Q 35.84375 58.9375 32.953125 61.84375 
Q 30.078125 64.75 25.09375 64.75 
Q 20.125 64.75 17 61.859375 
Q 13.875 58.984375 13.875 55.125 
Q 13.875 52.59375 15.15625 50.046875 
Q 16.453125 47.515625 18.84375 45.21875 
z
M 21.484375 31.5 
Q 17.4375 28.078125 15.484375 24.046875 
Q 13.53125 20.015625 13.53125 15.328125 
Q 13.53125 9.03125 16.96875 5.25 
Q 20.40625 1.46875 25.734375 1.46875 
Q 31 1.46875 34.171875 4.4375 
Q 37.359375 7.421875 37.359375 11.671875 
Q 37.359375 15.1875 35.5 17.96875 
Q 32.03125 23.140625 21.484375 31.5 
z
" id="TimesNewRomanPSMT-56"/>
      </defs>
      <g transform="translate(37.714873 157.04375)scale(0.1 -0.1)">
       <use xlink:href="#TimesNewRomanPSMT-48"/>
       <use x="50" xlink:href="#TimesNewRomanPSMT-46"/>
       <use x="75" xlink:href="#TimesNewRomanPSMT-56"/>
       <use x="125" xlink:href="#TimesNewRomanPSMT-48"/>
      </g>
     </g>
    </g>
    <g id="xtick_2">
     <g id="line2d_3">
      <path clip-path="url(#p27e4b47142)" d="M 87.25062 143.1 
L 87.25062 7.2 
" style="fill:none;stroke:#a9a9a9;stroke-dasharray:3.2,0.8,0.5,0.8;stroke-dashoffset:0;stroke-width:0.5;"/>
     </g>
     <g id="line2d_4">
      <g>
       <use style="stroke:#000000;stroke-width:0.8;" x="87.25062" xlink:href="#ma2445dd293" y="143.1"/>
      </g>
     </g>
     <g id="text_2">
      <!-- 0.84 -->
      <defs>
       <path d="M 46.53125 24.421875 
L 46.53125 17.484375 
L 37.640625 17.484375 
L 37.640625 0 
L 29.59375 0 
L 29.59375 17.484375 
L 1.5625 17.484375 
L 1.5625 23.734375 
L 32.28125 67.578125 
L 37.640625 67.578125 
L 37.640625 24.421875 
z
M 29.59375 24.421875 
L 29.59375 57.28125 
L 6.34375 24.421875 
z
" id="TimesNewRomanPSMT-52"/>
      </defs>
      <g transform="translate(78.50062 157.04375)scale(0.1 -0.1)">
       <use xlink:href="#TimesNewRomanPSMT-48"/>
       <use x="50" xlink:href="#TimesNewRomanPSMT-46"/>
       <use x="75" xlink:href="#TimesNewRomanPSMT-56"/>
       <use x="125" xlink:href="#TimesNewRomanPSMT-52"/>
      </g>
     </g>
    </g>
    <g id="xtick_3">
     <g id="line2d_5">
      <path clip-path="url(#p27e4b47142)" d="M 128.036367 143.1 
L 128.036367 7.2 
" style="fill:none;stroke:#a9a9a9;stroke-dasharray:3.2,0.8,0.5,0.8;stroke-dashoffset:0;stroke-width:0.5;"/>
     </g>
     <g id="line2d_6">
      <g>
       <use style="stroke:#000000;stroke-width:0.8;" x="128.036367" xlink:href="#ma2445dd293" y="143.1"/>
      </g>
     </g>
     <g id="text_3">
      <!-- 0.88 -->
      <g transform="translate(119.286367 157.04375)scale(0.1 -0.1)">
       <use xlink:href="#TimesNewRomanPSMT-48"/>
       <use x="50" xlink:href="#TimesNewRomanPSMT-46"/>
       <use x="75" xlink:href="#TimesNewRomanPSMT-56"/>
       <use x="125" xlink:href="#TimesNewRomanPSMT-56"/>
      </g>
     </g>
    </g>
    <g id="xtick_4">
     <g id="line2d_7">
      <path clip-path="url(#p27e4b47142)" d="M 168.822114 143.1 
L 168.822114 7.2 
" style="fill:none;stroke:#a9a9a9;stroke-dasharray:3.2,0.8,0.5,0.8;stroke-dashoffset:0;stroke-width:0.5;"/>
     </g>
     <g id="line2d_8">
      <g>
       <use style="stroke:#000000;stroke-width:0.8;" x="168.822114" xlink:href="#ma2445dd293" y="143.1"/>
      </g>
     </g>
     <g id="text_4">
      <!-- 0.92 -->
      <defs>
       <path d="M 5.28125 -1.375 
L 5.28125 0.4375 
Q 11.625 0.53125 17.09375 3.390625 
Q 22.5625 6.25 27.65625 13.375 
Q 32.765625 20.515625 34.765625 29.046875 
Q 27.09375 24.125 20.90625 24.125 
Q 13.921875 24.125 8.9375 29.515625 
Q 3.953125 34.90625 3.953125 43.84375 
Q 3.953125 52.546875 8.9375 59.328125 
Q 14.9375 67.578125 24.609375 67.578125 
Q 32.765625 67.578125 38.578125 60.84375 
Q 45.703125 52.484375 45.703125 40.234375 
Q 45.703125 29.203125 40.28125 19.65625 
Q 34.859375 10.109375 25.203125 3.8125 
Q 17.328125 -1.375 8.0625 -1.375 
z
M 35.546875 32.671875 
Q 36.421875 39.015625 36.421875 42.828125 
Q 36.421875 47.5625 34.8125 53.046875 
Q 33.203125 58.546875 30.25 61.46875 
Q 27.296875 64.40625 23.53125 64.40625 
Q 19.1875 64.40625 15.90625 60.5 
Q 12.640625 56.59375 12.640625 48.875 
Q 12.640625 38.578125 17 32.765625 
Q 20.171875 28.5625 24.8125 28.5625 
Q 27.046875 28.5625 30.125 29.640625 
Q 33.203125 30.71875 35.546875 32.671875 
z
" id="TimesNewRomanPSMT-57"/>
       <path d="M 45.84375 12.75 
L 41.21875 0 
L 2.15625 0 
L 2.15625 1.8125 
Q 19.390625 17.53125 26.421875 27.484375 
Q 33.453125 37.453125 33.453125 45.703125 
Q 33.453125 52 29.59375 56.046875 
Q 25.734375 60.109375 20.359375 60.109375 
Q 15.484375 60.109375 11.59375 57.25 
Q 7.71875 54.390625 5.859375 48.875 
L 4.046875 48.875 
Q 5.28125 57.90625 10.328125 62.734375 
Q 15.375 67.578125 22.953125 67.578125 
Q 31 67.578125 36.390625 62.40625 
Q 41.796875 57.234375 41.796875 50.203125 
Q 41.796875 45.171875 39.453125 40.140625 
Q 35.84375 32.234375 27.734375 23.390625 
Q 15.578125 10.109375 12.546875 7.375 
L 29.828125 7.375 
Q 35.109375 7.375 37.234375 7.765625 
Q 39.359375 8.15625 41.0625 9.34375 
Q 42.78125 10.546875 44.046875 12.75 
z
" id="TimesNewRomanPSMT-50"/>
      </defs>
      <g transform="translate(160.072114 157.04375)scale(0.1 -0.1)">
       <use xlink:href="#TimesNewRomanPSMT-48"/>
       <use x="50" xlink:href="#TimesNewRomanPSMT-46"/>
       <use x="75" xlink:href="#TimesNewRomanPSMT-57"/>
       <use x="125" xlink:href="#TimesNewRomanPSMT-50"/>
      </g>
     </g>
    </g>
    <g id="xtick_5">
     <g id="line2d_9">
      <path clip-path="url(#p27e4b47142)" d="M 209.607861 143.1 
L 209.607861 7.2 
" style="fill:none;stroke:#a9a9a9;stroke-dasharray:3.2,0.8,0.5,0.8;stroke-dashoffset:0;stroke-width:0.5;"/>
     </g>
     <g id="line2d_10">
      <g>
       <use style="stroke:#000000;stroke-width:0.8;" x="209.607861" xlink:href="#ma2445dd293" y="143.1"/>
      </g>
     </g>
     <g id="text_5">
      <!-- 0.96 -->
      <defs>
       <path d="M 44.828125 67.578125 
L 44.828125 65.765625 
Q 38.375 65.140625 34.296875 63.203125 
Q 30.21875 61.28125 26.234375 57.328125 
Q 22.265625 53.375 19.65625 48.515625 
Q 17.046875 43.65625 15.28125 36.96875 
Q 22.3125 41.796875 29.390625 41.796875 
Q 36.1875 41.796875 41.15625 36.328125 
Q 46.140625 30.859375 46.140625 22.265625 
Q 46.140625 13.96875 41.109375 7.125 
Q 35.0625 -1.171875 25.09375 -1.171875 
Q 18.3125 -1.171875 13.578125 3.328125 
Q 4.296875 12.0625 4.296875 25.984375 
Q 4.296875 34.859375 7.859375 42.859375 
Q 11.421875 50.875 18.03125 57.078125 
Q 24.65625 63.28125 30.703125 65.421875 
Q 36.765625 67.578125 42 67.578125 
z
M 14.453125 33.40625 
Q 13.578125 26.8125 13.578125 22.75 
Q 13.578125 18.0625 15.3125 12.5625 
Q 17.046875 7.078125 20.453125 3.859375 
Q 22.953125 1.5625 26.515625 1.5625 
Q 30.765625 1.5625 34.109375 5.5625 
Q 37.453125 9.578125 37.453125 17 
Q 37.453125 25.34375 34.125 31.4375 
Q 30.8125 37.546875 24.703125 37.546875 
Q 22.859375 37.546875 20.734375 36.765625 
Q 18.609375 35.984375 14.453125 33.40625 
z
" id="TimesNewRomanPSMT-54"/>
      </defs>
      <g transform="translate(200.857861 157.04375)scale(0.1 -0.1)">
       <use xlink:href="#TimesNewRomanPSMT-48"/>
       <use x="50" xlink:href="#TimesNewRomanPSMT-46"/>
       <use x="75" xlink:href="#TimesNewRomanPSMT-57"/>
       <use x="125" xlink:href="#TimesNewRomanPSMT-54"/>
      </g>
     </g>
    </g>
    <g id="xtick_6">
     <g id="line2d_11">
      <path clip-path="url(#p27e4b47142)" d="M 250.393608 143.1 
L 250.393608 7.2 
" style="fill:none;stroke:#a9a9a9;stroke-dasharray:3.2,0.8,0.5,0.8;stroke-dashoffset:0;stroke-width:0.5;"/>
     </g>
     <g id="line2d_12">
      <g>
       <use style="stroke:#000000;stroke-width:0.8;" x="250.393608" xlink:href="#ma2445dd293" y="143.1"/>
      </g>
     </g>
     <g id="text_6">
      <!-- 1.00 -->
      <defs>
       <path d="M 11.71875 59.71875 
L 27.828125 67.578125 
L 29.4375 67.578125 
L 29.4375 11.671875 
Q 29.4375 6.109375 29.90625 4.734375 
Q 30.375 3.375 31.828125 2.640625 
Q 33.296875 1.90625 37.796875 1.8125 
L 37.796875 0 
L 12.890625 0 
L 12.890625 1.8125 
Q 17.578125 1.90625 18.9375 2.609375 
Q 20.3125 3.328125 20.84375 4.515625 
Q 21.390625 5.71875 21.390625 11.671875 
L 21.390625 47.40625 
Q 21.390625 54.640625 20.90625 56.6875 
Q 20.5625 58.25 19.65625 58.984375 
Q 18.75 59.71875 17.484375 59.71875 
Q 15.671875 59.71875 12.453125 58.203125 
z
" id="TimesNewRomanPSMT-49"/>
      </defs>
      <g transform="translate(241.643608 157.04375)scale(0.1 -0.1)">
       <use xlink:href="#TimesNewRomanPSMT-49"/>
       <use x="50" xlink:href="#TimesNewRomanPSMT-46"/>
       <use x="75" xlink:href="#TimesNewRomanPSMT-48"/>
       <use x="125" xlink:href="#TimesNewRomanPSMT-48"/>
      </g>
     </g>
    </g>
    <g id="text_7">
     <!-- time [s] -->
     <defs>
      <path d="M 16.109375 59.421875 
L 16.109375 44.734375 
L 26.5625 44.734375 
L 26.5625 41.3125 
L 16.109375 41.3125 
L 16.109375 12.3125 
Q 16.109375 7.953125 17.359375 6.4375 
Q 18.609375 4.9375 20.5625 4.9375 
Q 22.171875 4.9375 23.6875 5.9375 
Q 25.203125 6.9375 26.03125 8.890625 
L 27.9375 8.890625 
Q 26.21875 4.109375 23.09375 1.6875 
Q 19.96875 -0.734375 16.65625 -0.734375 
Q 14.40625 -0.734375 12.25 0.515625 
Q 10.109375 1.765625 9.078125 4.078125 
Q 8.0625 6.390625 8.0625 11.234375 
L 8.0625 41.3125 
L 0.984375 41.3125 
L 0.984375 42.921875 
Q 3.65625 44 6.46875 46.5625 
Q 9.28125 49.125 11.46875 52.640625 
Q 12.59375 54.5 14.59375 59.421875 
z
" id="TimesNewRomanPSMT-116"/>
      <path d="M 14.5 69.4375 
Q 16.546875 69.4375 17.984375 67.984375 
Q 19.4375 66.546875 19.4375 64.5 
Q 19.4375 62.453125 17.984375 60.984375 
Q 16.546875 59.515625 14.5 59.515625 
Q 12.453125 59.515625 10.984375 60.984375 
Q 9.515625 62.453125 9.515625 64.5 
Q 9.515625 66.546875 10.953125 67.984375 
Q 12.40625 69.4375 14.5 69.4375 
z
M 18.5625 46.046875 
L 18.5625 10.109375 
Q 18.5625 5.90625 19.171875 4.515625 
Q 19.78125 3.125 20.96875 2.4375 
Q 22.171875 1.765625 25.34375 1.765625 
L 25.34375 0 
L 3.609375 0 
L 3.609375 1.765625 
Q 6.890625 1.765625 8 2.390625 
Q 9.125 3.03125 9.78125 4.484375 
Q 10.453125 5.953125 10.453125 10.109375 
L 10.453125 27.34375 
Q 10.453125 34.625 10.015625 36.765625 
Q 9.671875 38.328125 8.9375 38.9375 
Q 8.203125 39.546875 6.9375 39.546875 
Q 5.5625 39.546875 3.609375 38.8125 
L 2.9375 40.578125 
L 16.40625 46.046875 
z
" id="TimesNewRomanPSMT-105"/>
      <path d="M 16.40625 36.53125 
Q 21.296875 41.40625 22.171875 42.140625 
Q 24.359375 44 26.890625 45.015625 
Q 29.4375 46.046875 31.9375 46.046875 
Q 36.140625 46.046875 39.15625 43.59375 
Q 42.1875 41.15625 43.21875 36.53125 
Q 48.25 42.390625 51.703125 44.21875 
Q 55.171875 46.046875 58.84375 46.046875 
Q 62.40625 46.046875 65.15625 44.21875 
Q 67.921875 42.390625 69.53125 38.234375 
Q 70.609375 35.40625 70.609375 29.34375 
L 70.609375 10.109375 
Q 70.609375 5.90625 71.234375 4.34375 
Q 71.734375 3.265625 73.046875 2.515625 
Q 74.359375 1.765625 77.34375 1.765625 
L 77.34375 0 
L 55.28125 0 
L 55.28125 1.765625 
L 56.203125 1.765625 
Q 59.078125 1.765625 60.6875 2.875 
Q 61.8125 3.65625 62.3125 5.375 
Q 62.5 6.203125 62.5 10.109375 
L 62.5 29.34375 
Q 62.5 34.8125 61.1875 37.0625 
Q 59.28125 40.1875 55.078125 40.1875 
Q 52.484375 40.1875 49.875 38.890625 
Q 47.265625 37.59375 43.5625 34.078125 
L 43.453125 33.546875 
L 43.5625 31.453125 
L 43.5625 10.109375 
Q 43.5625 5.515625 44.0625 4.390625 
Q 44.578125 3.265625 45.984375 2.515625 
Q 47.40625 1.765625 50.828125 1.765625 
L 50.828125 0 
L 28.21875 0 
L 28.21875 1.765625 
Q 31.9375 1.765625 33.328125 2.640625 
Q 34.71875 3.515625 35.25 5.28125 
Q 35.5 6.109375 35.5 10.109375 
L 35.5 29.34375 
Q 35.5 34.8125 33.890625 37.203125 
Q 31.734375 40.328125 27.875 40.328125 
Q 25.25 40.328125 22.65625 38.921875 
Q 18.609375 36.765625 16.40625 34.078125 
L 16.40625 10.109375 
Q 16.40625 5.71875 17.015625 4.390625 
Q 17.625 3.078125 18.8125 2.421875 
Q 20.015625 1.765625 23.6875 1.765625 
L 23.6875 0 
L 1.5625 0 
L 1.5625 1.765625 
Q 4.640625 1.765625 5.859375 2.421875 
Q 7.078125 3.078125 7.703125 4.515625 
Q 8.34375 5.953125 8.34375 10.109375 
L 8.34375 27.203125 
Q 8.34375 34.578125 7.90625 36.71875 
Q 7.5625 38.328125 6.828125 38.9375 
Q 6.109375 39.546875 4.828125 39.546875 
Q 3.46875 39.546875 1.5625 38.8125 
L 0.828125 40.578125 
L 14.3125 46.046875 
L 16.40625 46.046875 
z
" id="TimesNewRomanPSMT-109"/>
      <path d="M 10.640625 27.875 
Q 10.59375 17.921875 15.484375 12.25 
Q 20.359375 6.59375 26.953125 6.59375 
Q 31.34375 6.59375 34.59375 9 
Q 37.84375 11.421875 40.046875 17.28125 
L 41.546875 16.3125 
Q 40.53125 9.625 35.59375 4.125 
Q 30.671875 -1.375 23.25 -1.375 
Q 15.1875 -1.375 9.453125 4.90625 
Q 3.71875 11.1875 3.71875 21.78125 
Q 3.71875 33.25 9.59375 39.671875 
Q 15.484375 46.09375 24.359375 46.09375 
Q 31.890625 46.09375 36.71875 41.140625 
Q 41.546875 36.1875 41.546875 27.875 
z
M 10.640625 30.71875 
L 31.34375 30.71875 
Q 31.109375 35.015625 30.328125 36.765625 
Q 29.109375 39.5 26.6875 41.0625 
Q 24.265625 42.625 21.625 42.625 
Q 17.578125 42.625 14.375 39.46875 
Q 11.1875 36.328125 10.640625 30.71875 
z
" id="TimesNewRomanPSMT-101"/>
      <path id="TimesNewRomanPSMT-32"/>
      <path d="M 29.6875 -19.828125 
L 8.203125 -19.828125 
L 8.203125 67.71875 
L 29.6875 67.71875 
L 29.6875 63.875 
L 15.53125 63.875 
L 15.53125 -16.015625 
L 29.6875 -16.015625 
z
" id="TimesNewRomanPSMT-91"/>
      <path d="M 32.03125 46.046875 
L 32.03125 30.8125 
L 30.421875 30.8125 
Q 28.5625 37.984375 25.65625 40.578125 
Q 22.75 43.171875 18.265625 43.171875 
Q 14.84375 43.171875 12.734375 41.359375 
Q 10.640625 39.546875 10.640625 37.359375 
Q 10.640625 34.625 12.203125 32.671875 
Q 13.71875 30.671875 18.359375 28.421875 
L 25.484375 24.953125 
Q 35.40625 20.125 35.40625 12.203125 
Q 35.40625 6.109375 30.78125 2.359375 
Q 26.171875 -1.375 20.453125 -1.375 
Q 16.359375 -1.375 11.078125 0.09375 
Q 9.46875 0.59375 8.453125 0.59375 
Q 7.328125 0.59375 6.6875 -0.6875 
L 5.078125 -0.6875 
L 5.078125 15.28125 
L 6.6875 15.28125 
Q 8.0625 8.453125 11.90625 4.984375 
Q 15.765625 1.515625 20.5625 1.515625 
Q 23.921875 1.515625 26.046875 3.484375 
Q 28.171875 5.46875 28.171875 8.25 
Q 28.171875 11.625 25.796875 13.921875 
Q 23.4375 16.21875 16.359375 19.734375 
Q 9.28125 23.25 7.078125 26.078125 
Q 4.890625 28.859375 4.890625 33.109375 
Q 4.890625 38.625 8.671875 42.328125 
Q 12.453125 46.046875 18.453125 46.046875 
Q 21.09375 46.046875 24.859375 44.921875 
Q 27.34375 44.1875 28.171875 44.1875 
Q 28.953125 44.1875 29.390625 44.53125 
Q 29.828125 44.875 30.421875 46.046875 
z
" id="TimesNewRomanPSMT-115"/>
      <path d="M 3.65625 67.71875 
L 25.140625 67.71875 
L 25.140625 -19.875 
L 3.65625 -19.875 
L 3.65625 -16.015625 
L 17.828125 -16.015625 
L 17.828125 63.875 
L 3.65625 63.875 
z
" id="TimesNewRomanPSMT-93"/>
     </defs>
     <g transform="translate(133.526563 170.126563)scale(0.1 -0.1)">
      <use xlink:href="#TimesNewRomanPSMT-116"/>
      <use x="27.783203" xlink:href="#TimesNewRomanPSMT-105"/>
      <use x="55.566406" xlink:href="#TimesNewRomanPSMT-109"/>
      <use x="133.349609" xlink:href="#TimesNewRomanPSMT-101"/>
      <use x="177.734375" xlink:href="#TimesNewRomanPSMT-32"/>
      <use x="202.734375" xlink:href="#TimesNewRomanPSMT-91"/>
      <use x="236.035156" xlink:href="#TimesNewRomanPSMT-115"/>
      <use x="274.951172" xlink:href="#TimesNewRomanPSMT-93"/>
     </g>
    </g>
   </g>
   <g id="matplotlib.axis_2">
    <g id="ytick_1">
     <g id="line2d_13">
      <path clip-path="url(#p27e4b47142)" d="M 37.339063 141.674497 
L 260.539062 141.674497 
" style="fill:none;stroke:#a9a9a9;stroke-dasharray:3.2,0.8,0.5,0.8;stroke-dashoffset:0;stroke-width:0.5;"/>
     </g>
     <g id="line2d_14">
      <defs>
       <path d="M 0 0 
L -3.5 0 
" id="m330499d42d" style="stroke:#000000;stroke-width:0.8;"/>
      </defs>
      <g>
       <use style="stroke:#000000;stroke-width:0.8;" x="37.339063" xlink:href="#m330499d42d" y="141.674497"/>
      </g>
     </g>
     <g id="text_8">
      <!-- −0.09 -->
      <defs>
       <path d="M 54.4375 31.25 
L 1.8125 31.25 
L 1.8125 35.25 
L 54.4375 35.25 
z
" id="TimesNewRomanPSMT-8722"/>
      </defs>
      <g transform="translate(7.2 145.146372)scale(0.1 -0.1)">
       <use xlink:href="#TimesNewRomanPSMT-8722"/>
       <use x="56.396484" xlink:href="#TimesNewRomanPSMT-48"/>
       <use x="106.396484" xlink:href="#TimesNewRomanPSMT-46"/>
       <use x="131.396484" xlink:href="#TimesNewRomanPSMT-48"/>
       <use x="181.396484" xlink:href="#TimesNewRomanPSMT-57"/>
      </g>
     </g>
    </g>
    <g id="ytick_2">
     <g id="line2d_15">
      <path clip-path="url(#p27e4b47142)" d="M 37.339063 113.164 
L 260.539062 113.164 
" style="fill:none;stroke:#a9a9a9;stroke-dasharray:3.2,0.8,0.5,0.8;stroke-dashoffset:0;stroke-width:0.5;"/>
     </g>
     <g id="line2d_16">
      <g>
       <use style="stroke:#000000;stroke-width:0.8;" x="37.339063" xlink:href="#m330499d42d" y="113.164"/>
      </g>
     </g>
     <g id="text_9">
      <!-- −0.06 -->
      <g transform="translate(7.2 116.635875)scale(0.1 -0.1)">
       <use xlink:href="#TimesNewRomanPSMT-8722"/>
       <use x="56.396484" xlink:href="#TimesNewRomanPSMT-48"/>
       <use x="106.396484" xlink:href="#TimesNewRomanPSMT-46"/>
       <use x="131.396484" xlink:href="#TimesNewRomanPSMT-48"/>
       <use x="181.396484" xlink:href="#TimesNewRomanPSMT-54"/>
      </g>
     </g>
    </g>
    <g id="ytick_3">
     <g id="line2d_17">
      <path clip-path="url(#p27e4b47142)" d="M 37.339063 84.653503 
L 260.539062 84.653503 
" style="fill:none;stroke:#a9a9a9;stroke-dasharray:3.2,0.8,0.5,0.8;stroke-dashoffset:0;stroke-width:0.5;"/>
     </g>
     <g id="line2d_18">
      <g>
       <use style="stroke:#000000;stroke-width:0.8;" x="37.339063" xlink:href="#m330499d42d" y="84.653503"/>
      </g>
     </g>
     <g id="text_10">
      <!-- −0.03 -->
      <defs>
       <path d="M 5.078125 53.609375 
Q 7.90625 60.296875 12.21875 63.9375 
Q 16.546875 67.578125 23 67.578125 
Q 30.953125 67.578125 35.203125 62.40625 
Q 38.421875 58.546875 38.421875 54.15625 
Q 38.421875 46.921875 29.34375 39.203125 
Q 35.453125 36.8125 38.578125 32.375 
Q 41.703125 27.9375 41.703125 21.921875 
Q 41.703125 13.328125 36.234375 7.03125 
Q 29.109375 -1.171875 15.578125 -1.171875 
Q 8.890625 -1.171875 6.46875 0.484375 
Q 4.046875 2.15625 4.046875 4.046875 
Q 4.046875 5.46875 5.1875 6.546875 
Q 6.34375 7.625 7.953125 7.625 
Q 9.1875 7.625 10.453125 7.234375 
Q 11.28125 6.984375 14.203125 5.4375 
Q 17.140625 3.90625 18.265625 3.609375 
Q 20.0625 3.078125 22.125 3.078125 
Q 27.09375 3.078125 30.78125 6.9375 
Q 34.46875 10.796875 34.46875 16.0625 
Q 34.46875 19.921875 32.765625 23.578125 
Q 31.5 26.3125 29.984375 27.734375 
Q 27.875 29.6875 24.21875 31.265625 
Q 20.5625 32.859375 16.75 32.859375 
L 15.1875 32.859375 
L 15.1875 34.328125 
Q 19.046875 34.8125 22.921875 37.109375 
Q 26.8125 39.40625 28.5625 42.625 
Q 30.328125 45.84375 30.328125 49.703125 
Q 30.328125 54.734375 27.171875 57.828125 
Q 24.03125 60.9375 19.34375 60.9375 
Q 11.765625 60.9375 6.6875 52.828125 
z
" id="TimesNewRomanPSMT-51"/>
      </defs>
      <g transform="translate(7.2 88.125378)scale(0.1 -0.1)">
       <use xlink:href="#TimesNewRomanPSMT-8722"/>
       <use x="56.396484" xlink:href="#TimesNewRomanPSMT-48"/>
       <use x="106.396484" xlink:href="#TimesNewRomanPSMT-46"/>
       <use x="131.396484" xlink:href="#TimesNewRomanPSMT-48"/>
       <use x="181.396484" xlink:href="#TimesNewRomanPSMT-51"/>
      </g>
     </g>
    </g>
    <g id="ytick_4">
     <g id="line2d_19">
      <path clip-path="url(#p27e4b47142)" d="M 37.339063 56.143006 
L 260.539062 56.143006 
" style="fill:none;stroke:#a9a9a9;stroke-dasharray:3.2,0.8,0.5,0.8;stroke-dashoffset:0;stroke-width:0.5;"/>
     </g>
     <g id="line2d_20">
      <g>
       <use style="stroke:#000000;stroke-width:0.8;" x="37.339063" xlink:href="#m330499d42d" y="56.143006"/>
      </g>
     </g>
     <g id="text_11">
      <!-- 0.00 -->
      <g transform="translate(12.839063 59.614881)scale(0.1 -0.1)">
       <use xlink:href="#TimesNewRomanPSMT-48"/>
       <use x="50" xlink:href="#TimesNewRomanPSMT-46"/>
       <use x="75" xlink:href="#TimesNewRomanPSMT-48"/>
       <use x="125" xlink:href="#TimesNewRomanPSMT-48"/>
      </g>
     </g>
    </g>
    <g id="ytick_5">
     <g id="line2d_21">
      <path clip-path="url(#p27e4b47142)" d="M 37.339063 27.632509 
L 260.539062 27.632509 
" style="fill:none;stroke:#a9a9a9;stroke-dasharray:3.2,0.8,0.5,0.8;stroke-dashoffset:0;stroke-width:0.5;"/>
     </g>
     <g id="line2d_22">
      <g>
       <use style="stroke:#000000;stroke-width:0.8;" x="37.339063" xlink:href="#m330499d42d" y="27.632509"/>
      </g>
     </g>
     <g id="text_12">
      <!-- 0.03 -->
      <g transform="translate(12.839063 31.104384)scale(0.1 -0.1)">
       <use xlink:href="#TimesNewRomanPSMT-48"/>
       <use x="50" xlink:href="#TimesNewRomanPSMT-46"/>
       <use x="75" xlink:href="#TimesNewRomanPSMT-48"/>
       <use x="125" xlink:href="#TimesNewRomanPSMT-51"/>
      </g>
     </g>
    </g>
   </g>
   <g id="line2d_23">
    <path clip-path="url(#p27e4b47142)" d="M 47.484517 56.143006 
L 48.504161 56.143006 
L 49.523804 46.639488 
L 50.543448 65.646524 
L 51.563092 46.639488 
L 52.582735 56.143006 
L 53.602379 51.391261 
L 54.622023 65.646524 
L 55.641666 51.391233 
L 56.66131 56.143006 
L 57.680954 51.391261 
L 58.700597 60.894751 
L 59.720241 56.143006 
L 60.739885 60.894779 
L 61.759528 56.143006 
L 62.779172 65.646496 
L 63.798816 51.391261 
L 64.818459 51.391261 
L 65.838103 84.653476 
L 66.857747 46.639516 
L 67.877391 46.639516 
L 68.897034 60.894751 
L 69.916678 51.391261 
L 70.936322 60.894751 
L 71.955965 65.646496 
L 72.975609 51.391261 
L 73.995253 70.398269 
L 75.014896 56.143006 
L 76.03454 60.894737 
L 77.054184 70.398241 
L 78.073827 46.639516 
L 79.093471 65.646496 
L 80.113115 60.894751 
L 81.132758 70.398269 
L 82.152402 60.894751 
L 83.172046 60.894751 
L 84.191689 65.646524 
L 85.211333 75.149986 
L 86.230977 51.391261 
L 87.25062 60.894751 
L 88.270264 60.894751 
L 89.289908 70.398269 
L 90.309551 75.15 
L 91.329195 51.391261 
L 92.348839 60.894751 
L 93.368482 60.894751 
L 94.388126 70.398255 
L 95.40777 56.143006 
L 96.427413 70.398255 
L 97.447057 60.894765 
L 98.466701 70.398241 
L 99.486344 56.143006 
L 100.505988 70.398255 
L 101.525632 60.894769 
L 102.545275 60.894751 
L 103.564919 75.15 
L 104.584563 60.894765 
L 105.604206 65.646503 
L 107.643494 65.646503 
L 108.663137 70.398255 
L 109.682781 60.894758 
L 110.702425 60.894751 
L 111.722068 75.150007 
L 112.741712 60.894754 
L 113.761356 65.646506 
L 114.780999 65.646506 
L 115.800643 70.398255 
L 116.820287 56.143006 
L 117.83993 65.646503 
L 118.859574 65.646503 
L 119.879218 70.398255 
L 120.898861 70.398248 
L 121.918505 46.639516 
L 122.938149 60.894751 
L 124.977436 70.398255 
L 127.016724 60.894765 
L 128.036367 60.894751 
L 129.056011 70.398255 
L 130.075655 56.143006 
L 131.095298 60.894751 
L 132.114942 60.894765 
L 133.134586 65.646496 
L 134.154229 60.894765 
L 135.173873 65.646496 
L 136.193517 56.143006 
L 137.21316 75.15 
L 138.232804 56.143006 
L 141.291735 56.143006 
L 142.311379 65.646524 
L 143.331022 60.894751 
L 144.350666 65.646496 
L 145.37031 56.143006 
L 146.389953 65.646524 
L 147.409597 46.639488 
L 148.429241 65.646524 
L 149.448884 56.143006 
L 150.468528 60.894751 
L 151.488172 60.894751 
L 152.507815 46.639516 
L 153.527459 60.894751 
L 154.547103 60.894751 
L 155.566746 70.398241 
L 156.58639 46.639516 
L 157.606034 56.143006 
L 161.684608 56.143006 
L 162.704252 60.894751 
L 163.723896 51.391261 
L 164.743539 46.639516 
L 165.763183 75.149986 
L 166.782827 37.136026 
L 167.80247 51.391261 
L 168.822114 60.894751 
L 169.841758 51.391261 
L 170.861401 56.143006 
L 171.881045 56.143006 
L 172.900689 51.391233 
L 173.920332 37.136026 
L 174.939976 60.894751 
L 175.95962 37.135998 
L 176.979264 60.894751 
L 177.998907 60.894779 
L 179.018551 41.887743 
L 180.038195 65.646496 
L 181.057838 56.143006 
L 182.077482 32.384267 
L 183.097126 51.391261 
L 184.116769 46.639502 
L 185.136413 46.639502 
L 186.156057 56.143006 
L 187.1757 51.391261 
L 189.214988 51.391247 
L 190.234631 46.639516 
L 191.254275 46.639502 
L 192.273919 37.136012 
L 193.293562 60.894751 
L 194.313206 51.391261 
L 195.33285 46.639502 
L 197.372137 56.143006 
L 198.391781 37.136005 
L 199.411424 46.639509 
L 202.470355 46.639509 
L 203.489999 51.391257 
L 204.509643 46.639505 
L 205.529286 46.639509 
L 206.54893 51.391257 
L 207.568574 37.136005 
L 208.588217 46.639509 
L 209.607861 41.887757 
L 210.627505 51.391254 
L 211.647148 46.639509 
L 212.666792 56.143006 
L 213.686436 46.639502 
L 214.706079 46.639516 
L 215.725723 56.143006 
L 216.745367 37.135994 
L 217.76501 41.887757 
L 218.784654 41.887771 
L 219.804298 56.143006 
L 221.843585 46.639516 
L 223.882872 46.639502 
L 224.902516 41.887757 
L 225.92216 60.894765 
L 226.941803 46.639502 
L 228.981091 46.639488 
L 230.000734 51.391261 
L 231.020378 51.391261 
L 232.040022 41.887771 
L 233.059666 56.143006 
L 234.079309 41.887743 
L 235.098953 60.894751 
L 236.118597 46.639516 
L 237.13824 41.887743 
L 238.157884 60.894779 
L 239.177528 37.135998 
L 240.197171 56.143006 
L 241.216815 65.646496 
L 242.236459 32.384267 
L 243.256102 60.894779 
L 245.29539 41.887771 
L 246.315033 56.143006 
L 247.334677 56.143006 
L 248.354321 51.391261 
L 249.373964 60.894751 
L 250.393608 51.391261 
L 250.393608 51.391261 
" style="fill:none;stroke:#1f77b4;stroke-linecap:square;stroke-width:1.5;"/>
   </g>
   <g id="line2d_24">
    <path clip-path="url(#p27e4b47142)" d="M 47.484517 46.639516 
L 48.504161 56.143006 
L 49.523804 41.887757 
L 50.543448 65.646496 
L 51.563092 51.391261 
L 52.582735 27.632508 
L 53.602379 51.391261 
L 54.622023 51.391261 
L 55.641666 41.887757 
L 56.66131 70.398255 
L 57.680954 32.384253 
L 58.700597 60.894751 
L 59.720241 56.143006 
L 60.739885 32.38426 
L 61.759528 46.639509 
L 62.779172 56.143006 
L 63.798816 41.887757 
L 64.818459 37.136005 
L 65.838103 94.157008 
L 66.857747 32.384253 
L 67.877391 27.632511 
L 68.897034 46.639509 
L 69.916678 37.136005 
L 70.936322 46.639509 
L 71.955965 51.391258 
L 72.975609 51.391254 
L 73.995253 41.887757 
L 75.014896 51.391254 
L 76.03454 41.887763 
L 77.054184 56.143006 
L 78.073827 32.38426 
L 79.093471 46.639502 
L 80.113115 56.143006 
L 81.132758 46.639502 
L 82.152402 56.143006 
L 83.172046 46.639516 
L 84.191689 46.639502 
L 85.211333 51.391261 
L 86.230977 41.887757 
L 87.25062 51.391261 
L 88.270264 41.887757 
L 89.289908 46.639502 
L 90.309551 56.143006 
L 92.348839 37.136012 
L 93.368482 46.639516 
L 94.388126 65.646496 
L 95.40777 32.384253 
L 96.427413 56.143006 
L 97.447057 46.639516 
L 98.466701 51.391261 
L 100.505988 51.391233 
L 102.545275 41.887771 
L 103.564919 65.646496 
L 104.584563 46.639516 
L 105.604206 46.639488 
L 106.62385 60.894751 
L 107.643494 41.887771 
L 108.663137 65.646496 
L 109.682781 37.136026 
L 110.702425 60.894751 
L 112.741712 51.391261 
L 113.761356 51.391233 
L 114.780999 60.894779 
L 115.800643 46.639488 
L 116.820287 51.391261 
L 117.83993 70.398269 
L 118.859574 37.135998 
L 119.879218 65.646496 
L 120.898861 60.894751 
L 121.918505 41.887771 
L 122.938149 56.143006 
L 123.957793 56.143006 
L 124.977436 51.391261 
L 125.99708 60.894751 
L 127.016724 51.391261 
L 128.036367 60.894751 
L 129.056011 60.894751 
L 130.075655 56.143006 
L 131.095298 56.143006 
L 132.114942 51.391261 
L 133.134586 65.646496 
L 134.154229 51.391261 
L 135.173873 60.894751 
L 137.21316 60.894779 
L 138.232804 51.391233 
L 139.252448 56.143006 
L 140.272091 65.646524 
L 141.291735 60.894751 
L 142.311379 60.894751 
L 143.331022 51.391261 
L 144.350666 75.150014 
L 145.37031 60.894751 
L 146.389953 65.646496 
L 147.409597 51.391261 
L 148.429241 60.894751 
L 149.448884 65.646496 
L 150.468528 60.894779 
L 151.488172 65.646496 
L 152.507815 60.894751 
L 153.527459 51.391261 
L 154.547103 79.901759 
L 155.566746 65.646496 
L 156.58639 56.143006 
L 158.625677 65.64651 
L 159.645321 65.64651 
L 160.664965 70.398255 
L 161.684608 56.143006 
L 162.704252 70.398255 
L 163.723896 60.894751 
L 164.743539 65.646496 
L 165.763183 84.653504 
L 166.782827 41.887757 
L 167.80247 65.64651 
L 168.822114 60.894751 
L 169.841758 75.150014 
L 170.861401 56.143006 
L 171.881045 75.15 
L 172.900689 65.646503 
L 173.920332 51.391261 
L 174.939976 75.150001 
L 175.95962 56.143006 
L 176.979264 70.398255 
L 177.998907 70.398254 
L 179.018551 60.894754 
L 180.038195 70.398255 
L 181.057838 70.398255 
L 182.077482 56.143006 
L 183.097126 70.398251 
L 184.116769 60.894758 
L 185.136413 60.894758 
L 186.156057 70.398255 
L 187.1757 56.143006 
L 188.195344 70.398255 
L 189.214988 70.398248 
L 190.234631 51.391261 
L 191.254275 75.15 
L 192.273919 65.64651 
L 193.293562 60.894751 
L 194.313206 60.894765 
L 196.352493 70.398255 
L 197.372137 65.64651 
L 198.391781 70.398255 
L 199.411424 51.391247 
L 200.431068 56.143006 
L 201.450712 65.64651 
L 202.470355 65.64651 
L 203.489999 51.391247 
L 204.509643 70.398255 
L 205.529286 51.391261 
L 206.54893 75.150014 
L 207.568574 51.391247 
L 208.588217 65.64651 
L 209.607861 56.143006 
L 210.627505 60.894751 
L 211.647148 60.894751 
L 212.666792 65.646524 
L 213.686436 51.391233 
L 214.706079 65.646524 
L 215.725723 65.646496 
L 216.745367 51.391261 
L 217.76501 51.391261 
L 218.784654 41.887743 
L 219.804298 79.901759 
L 220.823941 60.894751 
L 221.843585 56.143006 
L 222.863229 56.143006 
L 223.882872 60.894751 
L 224.902516 56.143006 
L 228.981091 56.143006 
L 230.000734 51.391261 
L 231.020378 56.143006 
L 232.040022 56.143006 
L 233.059666 46.639516 
L 234.079309 60.894751 
L 237.13824 46.639516 
L 238.157884 60.894751 
L 239.177528 41.887743 
L 240.197171 60.894751 
L 241.216815 60.894779 
L 242.236459 41.887743 
L 243.256102 56.143006 
L 244.275746 46.639516 
L 245.29539 46.639502 
L 246.315033 65.64651 
L 247.334677 41.887743 
L 248.354321 56.143006 
L 249.373964 65.64651 
L 250.393608 41.887757 
L 250.393608 41.887757 
" style="fill:none;stroke:#ff7f0e;stroke-linecap:square;stroke-width:1.5;"/>
   </g>
   <g id="line2d_25">
    <path clip-path="url(#p27e4b47142)" d="M 47.484517 60.894758 
L 48.504161 79.901752 
L 49.523804 56.143006 
L 50.543448 79.901752 
L 51.563092 51.391261 
L 52.582735 51.391254 
L 53.602379 79.901759 
L 54.622023 56.143006 
L 55.641666 60.894751 
L 56.66131 70.398255 
L 57.680954 60.894751 
L 58.700597 65.64651 
L 59.720241 84.653504 
L 60.739885 46.639502 
L 61.759528 51.391261 
L 62.779172 79.901759 
L 63.798816 60.894751 
L 64.818459 51.391261 
L 65.838103 136.922727 
L 66.857747 13.377273 
L 67.877391 56.143006 
L 68.897034 56.143006 
L 69.916678 51.391261 
L 70.936322 56.143006 
L 71.955965 70.398241 
L 72.975609 56.143006 
L 73.995253 56.143006 
L 75.014896 60.894751 
L 76.03454 51.391261 
L 77.054184 84.653504 
L 78.073827 32.384253 
L 79.093471 70.398269 
L 80.113115 60.894751 
L 81.132758 60.894751 
L 82.152402 56.143006 
L 83.172046 56.143006 
L 84.191689 60.894751 
L 85.211333 70.398269 
L 86.230977 56.143006 
L 88.270264 46.639488 
L 89.289908 70.398269 
L 90.309551 51.391261 
L 91.329195 60.894751 
L 92.348839 41.887743 
L 93.368482 65.646524 
L 94.388126 51.391233 
L 95.40777 51.391261 
L 96.427413 56.143006 
L 97.447057 56.143006 
L 98.466701 51.391261 
L 99.486344 56.143006 
L 100.505988 56.143006 
L 101.525632 51.391261 
L 102.545275 41.887743 
L 103.564919 65.646524 
L 104.584563 51.391261 
L 105.604206 46.639488 
L 106.62385 60.894751 
L 107.643494 41.887771 
L 108.663137 56.143006 
L 109.682781 46.639516 
L 110.702425 56.143006 
L 111.722068 70.398241 
L 112.741712 32.384267 
L 113.761356 51.391261 
L 115.800643 51.391247 
L 116.820287 37.136012 
L 117.83993 65.64651 
L 118.859574 46.639502 
L 119.879218 65.64651 
L 120.898861 46.639502 
L 121.918505 18.129004 
L 122.938149 56.143006 
L 123.957793 41.887757 
L 124.977436 60.894765 
L 125.99708 51.391247 
L 127.016724 37.136012 
L 128.036367 56.143006 
L 129.056011 56.143006 
L 130.075655 37.136012 
L 131.095298 46.639502 
L 132.114942 37.136005 
L 133.134586 60.894758 
L 134.154229 41.887757 
L 135.173873 56.143006 
L 136.193517 41.88776 
L 137.21316 46.639505 
L 139.252448 37.136009 
L 140.272091 56.143006 
L 141.291735 46.639509 
L 142.311379 51.391254 
L 143.331022 41.887756 
L 144.350666 56.143006 
L 145.37031 56.143006 
L 146.389953 46.639509 
L 147.409597 41.887757 
L 149.448884 41.887757 
L 150.468528 51.391261 
L 151.488172 46.639502 
L 152.507815 46.639502 
L 153.527459 32.384267 
L 154.547103 65.646496 
L 155.566746 56.143006 
L 156.58639 32.384267 
L 157.606034 51.391261 
L 158.625677 51.391247 
L 159.645321 46.639516 
L 160.664965 51.391247 
L 161.684608 37.136012 
L 162.704252 60.894751 
L 163.723896 56.143006 
L 164.743539 46.639516 
L 165.763183 65.646496 
L 166.782827 27.632508 
L 167.80247 46.639516 
L 168.822114 56.143006 
L 169.841758 51.391261 
L 170.861401 51.391261 
L 171.881045 60.894751 
L 172.900689 41.887743 
L 174.939976 51.391261 
L 179.018551 51.391261 
L 180.038195 56.143006 
L 181.057838 65.646496 
L 182.077482 37.136026 
L 183.097126 56.143006 
L 184.116769 60.894751 
L 185.136413 41.887743 
L 186.156057 60.894779 
L 187.1757 60.894751 
L 188.195344 51.391261 
L 189.214988 60.894751 
L 190.234631 51.391261 
L 191.254275 56.143006 
L 192.273919 51.391233 
L 193.293562 56.143006 
L 194.313206 56.143006 
L 195.33285 70.398269 
L 196.352493 51.391261 
L 197.372137 60.894751 
L 198.391781 51.391261 
L 199.411424 56.143006 
L 200.431068 56.143006 
L 201.450712 51.391261 
L 202.470355 70.398241 
L 203.489999 51.391261 
L 204.509643 56.143006 
L 205.529286 70.398241 
L 206.54893 60.894779 
L 207.568574 56.143006 
L 209.607861 56.143006 
L 210.627505 65.646496 
L 211.647148 65.646496 
L 212.666792 60.894751 
L 213.686436 60.894779 
L 214.706079 65.646496 
L 215.725723 56.143006 
L 216.745367 65.646496 
L 217.76501 51.391261 
L 218.784654 46.639516 
L 219.804298 84.653504 
L 221.843585 56.143006 
L 222.863229 51.391261 
L 223.882872 79.901759 
L 224.902516 65.646496 
L 225.92216 70.398255 
L 226.941803 46.639516 
L 227.961447 70.398255 
L 228.981091 60.894751 
L 230.000734 60.894751 
L 231.020378 75.15 
L 232.040022 60.894765 
L 233.059666 65.646496 
L 234.079309 56.143006 
L 235.098953 70.398255 
L 236.118597 60.894765 
L 238.157884 70.398255 
L 240.197171 60.894751 
L 241.216815 79.90176 
L 242.236459 46.639501 
L 243.256102 70.398259 
L 244.275746 65.646503 
L 245.29539 51.391257 
L 246.315033 84.653504 
L 247.334677 56.143006 
L 248.354321 75.150004 
L 249.373964 56.143006 
L 250.393608 75.15 
L 250.393608 75.15 
" style="fill:none;stroke:#2ca02c;stroke-linecap:square;stroke-width:1.5;"/>
   </g>
   <g id="patch_3">
    <path d="M 37.339063 143.1 
L 37.339063 7.2 
" style="fill:none;stroke:#000000;stroke-linecap:square;stroke-linejoin:miter;stroke-width:0.8;"/>
   </g>
   <g id="patch_4">
    <path d="M 260.539062 143.1 
L 260.539062 7.2 
" style="fill:none;stroke:#000000;stroke-linecap:square;stroke-linejoin:miter;stroke-width:0.8;"/>
   </g>
   <g id="patch_5">
    <path d="M 37.339063 143.1 
L 260.539062 143.1 
" style="fill:none;stroke:#000000;stroke-linecap:square;stroke-linejoin:miter;stroke-width:0.8;"/>
   </g>
   <g id="patch_6">
    <path d="M 37.339063 7.2 
L 260.539062 7.2 
" style="fill:none;stroke:#000000;stroke-linecap:square;stroke-linejoin:miter;stroke-width:0.8;"/>
   </g>
   <g id="legend_1">
    <g id="patch_7">
     <path d="M 214.239062 138.1 
L 253.539062 138.1 
Q 255.539062 138.1 255.539062 136.1 
L 255.539062 94.682813 
Q 255.539062 92.682813 253.539062 92.682813 
L 214.239062 92.682813 
Q 212.239062 92.682813 212.239062 94.682813 
L 212.239062 136.1 
Q 212.239062 138.1 214.239062 138.1 
z
" style="fill:#ffffff;opacity:0.8;stroke:#cccccc;stroke-linejoin:miter;"/>
    </g>
    <g id="line2d_26">
     <path d="M 216.239062 100.182813 
L 236.239062 100.182813 
" style="fill:none;stroke:#1f77b4;stroke-linecap:square;stroke-width:1.5;"/>
    </g>
    <g id="line2d_27"/>
    <g id="text_13">
     <!-- $I_{a}$ -->
     <defs>
      <path d="M 38.40625 65.296875 
L 38.40625 63.703125 
Q 34.203125 63.203125 32.84375 61.890625 
Q 31.5 60.59375 30.203125 56 
L 18.203125 13.09375 
Q 16.703125 7.796875 16.703125 5.5 
Q 16.703125 3.5 17.953125 2.796875 
Q 19.203125 2.09375 23.59375 1.59375 
L 23.59375 0 
L -0.796875 0 
L -0.796875 1.59375 
Q 3.40625 2.40625 4.953125 3.703125 
Q 6.5 5 7.59375 9.09375 
L 19.59375 53.203125 
Q 20.90625 57.796875 20.90625 59.40625 
Q 20.90625 61.40625 19.296875 62.453125 
Q 17.703125 63.5 13.703125 63.703125 
L 13.703125 65.296875 
z
" id="STIXGeneral-Italic-73"/>
      <path d="M 46.296875 11.09375 
L 47.59375 10 
Q 42 3.203125 39.34375 1.09375 
Q 36.703125 -1 33.703125 -1 
Q 29.703125 -1 29.703125 3.09375 
Q 29.703125 5.59375 32 14.59375 
Q 26.40625 6.203125 21.703125 2.546875 
Q 17 -1.09375 11.703125 -1.09375 
Q 7.296875 -1.09375 4.5 1.953125 
Q 1.703125 5 1.703125 10.5 
Q 1.703125 18.09375 6.046875 26 
Q 10.40625 33.90625 17.09375 39 
Q 23.796875 44.09375 30.296875 44.09375 
Q 37 44.09375 38.296875 38.296875 
L 39.40625 43.09375 
L 39.703125 43.40625 
L 45.796875 44.09375 
L 46.5 43.796875 
Q 46.40625 43.40625 45.90625 41.703125 
Q 37 9.296875 37 5.40625 
Q 37 4.09375 38.40625 4.09375 
Q 39.90625 4.09375 43.59375 8.203125 
z
M 36.5 36.09375 
Q 36.5 38.703125 35 40.296875 
Q 33.5 41.90625 30.90625 41.90625 
Q 24.09375 41.90625 17.796875 32.703125 
Q 14.5 27.796875 12.296875 21.796875 
Q 10.09375 15.796875 10.09375 11.203125 
Q 10.09375 3.796875 16.09375 3.796875 
Q 22 3.796875 28.796875 13.59375 
Q 36.5 24.703125 36.5 36.09375 
z
" id="STIXGeneral-Italic-97"/>
     </defs>
     <g transform="translate(244.239062 103.682813)scale(0.1 -0.1)">
      <use transform="translate(0 0.703125)" xlink:href="#STIXGeneral-Italic-73"/>
      <use transform="translate(33.299988 -12.525)scale(0.7)" xlink:href="#STIXGeneral-Italic-97"/>
     </g>
    </g>
    <g id="line2d_28">
     <path d="M 216.239062 114.321875 
L 236.239062 114.321875 
" style="fill:none;stroke:#ff7f0e;stroke-linecap:square;stroke-width:1.5;"/>
    </g>
    <g id="line2d_29"/>
    <g id="text_14">
     <!-- $I_{b}$ -->
     <defs>
      <path d="M 16.296875 29 
L 16.40625 29 
Q 21.40625 37.296875 25.84375 40.6875 
Q 30.296875 44.09375 35.703125 44.09375 
Q 40.90625 44.09375 44.09375 40.890625 
Q 47.296875 37.703125 47.296875 32.09375 
Q 47.296875 24.40625 42.59375 16.59375 
Q 37.90625 8.796875 30.34375 3.84375 
Q 22.796875 -1.09375 15.296875 -1.09375 
Q 10.703125 -1.09375 6.5 0.5 
Q 2.296875 2.09375 2.296875 4.203125 
L 2.296875 4.796875 
L 16.5 57.09375 
Q 17.40625 60.703125 17.40625 61.796875 
Q 17.40625 63.40625 16.453125 63.75 
Q 15.5 64.09375 11 64.296875 
L 11 66 
Q 18.5 66.90625 26.296875 68.296875 
L 26.796875 67.796875 
L 24.703125 59.59375 
z
M 38.796875 30.59375 
Q 38.796875 39.203125 31.796875 39.203125 
Q 24.90625 39.203125 18.09375 27.703125 
Q 14.90625 22.296875 12.90625 15.75 
Q 10.90625 9.203125 10.90625 4.59375 
Q 10.90625 1.203125 15.5 1.203125 
Q 22.09375 1.203125 27.796875 7.09375 
Q 32.40625 11.90625 35.59375 18.546875 
Q 38.796875 25.203125 38.796875 30.59375 
z
" id="STIXGeneral-Italic-98"/>
     </defs>
     <g transform="translate(244.239062 117.821875)scale(0.1 -0.1)">
      <use transform="translate(0 0.703125)" xlink:href="#STIXGeneral-Italic-73"/>
      <use transform="translate(33.299988 -12.525)scale(0.7)" xlink:href="#STIXGeneral-Italic-98"/>
     </g>
    </g>
    <g id="line2d_30">
     <path d="M 216.239062 128.460938 
L 236.239062 128.460938 
" style="fill:none;stroke:#2ca02c;stroke-linecap:square;stroke-width:1.5;"/>
    </g>
    <g id="line2d_31"/>
    <g id="text_15">
     <!-- $I_{c}$ -->
     <defs>
      <path d="M 35 10.703125 
L 36.59375 9.703125 
Q 32 3.90625 27.640625 1.40625 
Q 23.296875 -1.09375 17.703125 -1.09375 
Q 10.59375 -1.09375 6.796875 2.796875 
Q 3 6.703125 3 14.296875 
Q 3 21 6.390625 27.25 
Q 9.796875 33.5 15.296875 38 
Q 23 44.09375 32 44.09375 
Q 36.59375 44.09375 39.546875 41.796875 
Q 42.5 39.5 42.5 36 
Q 42.5 34 41.09375 32.59375 
Q 39.703125 31.203125 37.703125 31.203125 
Q 35.703125 31.203125 34.75 32.34375 
Q 33.796875 33.5 33.796875 35.203125 
Q 33.796875 36.09375 34.546875 37.546875 
Q 35.296875 39 35.296875 40 
Q 35.296875 42 31.59375 42 
Q 25.296875 42 20.703125 37.203125 
Q 11.59375 27.59375 11.59375 13.90625 
Q 11.59375 8.5 13.890625 5.5 
Q 16.203125 2.5 20.5 2.5 
Q 24.40625 2.5 27.59375 4.390625 
Q 30.796875 6.296875 35 10.703125 
z
" id="STIXGeneral-Italic-99"/>
     </defs>
     <g transform="translate(244.239062 131.960938)scale(0.1 -0.1)">
      <use transform="translate(0 0.703125)" xlink:href="#STIXGeneral-Italic-73"/>
      <use transform="translate(33.299988 -12.525)scale(0.7)" xlink:href="#STIXGeneral-Italic-99"/>
     </g>
    </g>
   </g>
  </g>
 </g>
 <defs>
  <clipPath id="p27e4b47142">
   <rect height="135.9" width="223.2" x="37.339063" y="7.2"/>
  </clipPath>
 </defs>
</svg>
