<?xml version="1.0" encoding="utf-8" standalone="no"?>
<!DOCTYPE svg PUBLIC "-//W3C//DTD SVG 1.1//EN"
  "http://www.w3.org/Graphics/SVG/1.1/DTD/svg11.dtd">
<svg height="182.165625pt" version="1.1" viewBox="0 0 267.739062 182.165625" width="267.739062pt" xmlns="http://www.w3.org/2000/svg" xmlns:xlink="http://www.w3.org/1999/xlink">
 <metadata>
  <rdf:RDF xmlns:cc="http://creativecommons.org/ns#" xmlns:dc="http://purl.org/dc/elements/1.1/" xmlns:rdf="http://www.w3.org/1999/02/22-rdf-syntax-ns#">
   <cc:Work>
    <dc:type rdf:resource="http://purl.org/dc/dcmitype/StillImage"/>
    <dc:date>2022-02-27T13:01:35.502416</dc:date>
    <dc:format>image/svg+xml</dc:format>
    <dc:creator>
     <cc:Agent>
      <dc:title>Matplotlib v3.4.3, https://matplotlib.org/</dc:title>
     </cc:Agent>
    </dc:creator>
   </cc:Work>
  </rdf:RDF>
 </metadata>
 <defs>
  <style type="text/css">*{stroke-linecap:butt;stroke-linejoin:round;}</style>
 </defs>
 <g id="figure_1">
  <g id="patch_1">
   <path d="M 0 182.165625 
L 267.739063 182.165625 
L 267.739063 0 
L 0 0 
z
" style="fill:#ffffff;"/>
  </g>
  <g id="axes_1">
   <g id="patch_2">
    <path d="M 37.339063 145.8 
L 260.539062 145.8 
L 260.539062 7.2 
L 37.339063 7.2 
z
" style="fill:#ffffff;"/>
   </g>
   <g id="matplotlib.axis_1">
    <g id="xtick_1">
     <g id="line2d_1">
      <path clip-path="url(#p95d204c66d)" d="M 47.484517 145.8 
L 47.484517 7.2 
" style="fill:none;stroke:#a9a9a9;stroke-dasharray:3.2,0.8,0.5,0.8;stroke-dashoffset:0;stroke-width:0.5;"/>
     </g>
     <g id="line2d_2">
      <defs>
       <path d="M 0 0 
L 0 3.5 
" id="m9c93af966a" style="stroke:#000000;stroke-width:0.8;"/>
      </defs>
      <g>
       <use style="stroke:#000000;stroke-width:0.8;" x="47.484517" xlink:href="#m9c93af966a" y="145.8"/>
      </g>
     </g>
     <g id="text_1">
      <!-- 0.0 -->
      <g transform="translate(41.234517 159.74375)scale(0.1 -0.1)">
       <defs>
        <path d="M 231 2094 
Q 231 2819 450 3342 
Q 669 3866 1031 4122 
Q 1313 4325 1613 4325 
Q 2100 4325 2488 3828 
Q 2972 3213 2972 2159 
Q 2972 1422 2759 906 
Q 2547 391 2217 158 
Q 1888 -75 1581 -75 
Q 975 -75 572 641 
Q 231 1244 231 2094 
z
M 844 2016 
Q 844 1141 1059 588 
Q 1238 122 1591 122 
Q 1759 122 1940 273 
Q 2122 425 2216 781 
Q 2359 1319 2359 2297 
Q 2359 3022 2209 3506 
Q 2097 3866 1919 4016 
Q 1791 4119 1609 4119 
Q 1397 4119 1231 3928 
Q 1006 3669 925 3112 
Q 844 2556 844 2016 
z
" id="TimesNewRomanPSMT-30" transform="scale(0.015625)"/>
        <path d="M 800 606 
Q 947 606 1047 504 
Q 1147 403 1147 259 
Q 1147 116 1045 14 
Q 944 -88 800 -88 
Q 656 -88 554 14 
Q 453 116 453 259 
Q 453 406 554 506 
Q 656 606 800 606 
z
" id="TimesNewRomanPSMT-2e" transform="scale(0.015625)"/>
       </defs>
       <use xlink:href="#TimesNewRomanPSMT-30"/>
       <use x="50" xlink:href="#TimesNewRomanPSMT-2e"/>
       <use x="75" xlink:href="#TimesNewRomanPSMT-30"/>
      </g>
     </g>
    </g>
    <g id="xtick_2">
     <g id="line2d_3">
      <path clip-path="url(#p95d204c66d)" d="M 88.066335 145.8 
L 88.066335 7.2 
" style="fill:none;stroke:#a9a9a9;stroke-dasharray:3.2,0.8,0.5,0.8;stroke-dashoffset:0;stroke-width:0.5;"/>
     </g>
     <g id="line2d_4">
      <g>
       <use style="stroke:#000000;stroke-width:0.8;" x="88.066335" xlink:href="#m9c93af966a" y="145.8"/>
      </g>
     </g>
     <g id="text_2">
      <!-- 0.1 -->
      <g transform="translate(81.816335 159.74375)scale(0.1 -0.1)">
       <defs>
        <path d="M 750 3822 
L 1781 4325 
L 1884 4325 
L 1884 747 
Q 1884 391 1914 303 
Q 1944 216 2037 169 
Q 2131 122 2419 116 
L 2419 0 
L 825 0 
L 825 116 
Q 1125 122 1212 167 
Q 1300 213 1334 289 
Q 1369 366 1369 747 
L 1369 3034 
Q 1369 3497 1338 3628 
Q 1316 3728 1258 3775 
Q 1200 3822 1119 3822 
Q 1003 3822 797 3725 
L 750 3822 
z
" id="TimesNewRomanPSMT-31" transform="scale(0.015625)"/>
       </defs>
       <use xlink:href="#TimesNewRomanPSMT-30"/>
       <use x="50" xlink:href="#TimesNewRomanPSMT-2e"/>
       <use x="75" xlink:href="#TimesNewRomanPSMT-31"/>
      </g>
     </g>
    </g>
    <g id="xtick_3">
     <g id="line2d_5">
      <path clip-path="url(#p95d204c66d)" d="M 128.648153 145.8 
L 128.648153 7.2 
" style="fill:none;stroke:#a9a9a9;stroke-dasharray:3.2,0.8,0.5,0.8;stroke-dashoffset:0;stroke-width:0.5;"/>
     </g>
     <g id="line2d_6">
      <g>
       <use style="stroke:#000000;stroke-width:0.8;" x="128.648153" xlink:href="#m9c93af966a" y="145.8"/>
      </g>
     </g>
     <g id="text_3">
      <!-- 0.2 -->
      <g transform="translate(122.398153 159.74375)scale(0.1 -0.1)">
       <defs>
        <path d="M 2934 816 
L 2638 0 
L 138 0 
L 138 116 
Q 1241 1122 1691 1759 
Q 2141 2397 2141 2925 
Q 2141 3328 1894 3587 
Q 1647 3847 1303 3847 
Q 991 3847 742 3664 
Q 494 3481 375 3128 
L 259 3128 
Q 338 3706 661 4015 
Q 984 4325 1469 4325 
Q 1984 4325 2329 3994 
Q 2675 3663 2675 3213 
Q 2675 2891 2525 2569 
Q 2294 2063 1775 1497 
Q 997 647 803 472 
L 1909 472 
Q 2247 472 2383 497 
Q 2519 522 2628 598 
Q 2738 675 2819 816 
L 2934 816 
z
" id="TimesNewRomanPSMT-32" transform="scale(0.015625)"/>
       </defs>
       <use xlink:href="#TimesNewRomanPSMT-30"/>
       <use x="50" xlink:href="#TimesNewRomanPSMT-2e"/>
       <use x="75" xlink:href="#TimesNewRomanPSMT-32"/>
      </g>
     </g>
    </g>
    <g id="xtick_4">
     <g id="line2d_7">
      <path clip-path="url(#p95d204c66d)" d="M 169.229972 145.8 
L 169.229972 7.2 
" style="fill:none;stroke:#a9a9a9;stroke-dasharray:3.2,0.8,0.5,0.8;stroke-dashoffset:0;stroke-width:0.5;"/>
     </g>
     <g id="line2d_8">
      <g>
       <use style="stroke:#000000;stroke-width:0.8;" x="169.229972" xlink:href="#m9c93af966a" y="145.8"/>
      </g>
     </g>
     <g id="text_4">
      <!-- 0.3 -->
      <g transform="translate(162.979972 159.74375)scale(0.1 -0.1)">
       <defs>
        <path d="M 325 3431 
Q 506 3859 782 4092 
Q 1059 4325 1472 4325 
Q 1981 4325 2253 3994 
Q 2459 3747 2459 3466 
Q 2459 3003 1878 2509 
Q 2269 2356 2469 2072 
Q 2669 1788 2669 1403 
Q 2669 853 2319 450 
Q 1863 -75 997 -75 
Q 569 -75 414 31 
Q 259 138 259 259 
Q 259 350 332 419 
Q 406 488 509 488 
Q 588 488 669 463 
Q 722 447 909 348 
Q 1097 250 1169 231 
Q 1284 197 1416 197 
Q 1734 197 1970 444 
Q 2206 691 2206 1028 
Q 2206 1275 2097 1509 
Q 2016 1684 1919 1775 
Q 1784 1900 1550 2001 
Q 1316 2103 1072 2103 
L 972 2103 
L 972 2197 
Q 1219 2228 1467 2375 
Q 1716 2522 1828 2728 
Q 1941 2934 1941 3181 
Q 1941 3503 1739 3701 
Q 1538 3900 1238 3900 
Q 753 3900 428 3381 
L 325 3431 
z
" id="TimesNewRomanPSMT-33" transform="scale(0.015625)"/>
       </defs>
       <use xlink:href="#TimesNewRomanPSMT-30"/>
       <use x="50" xlink:href="#TimesNewRomanPSMT-2e"/>
       <use x="75" xlink:href="#TimesNewRomanPSMT-33"/>
      </g>
     </g>
    </g>
    <g id="xtick_5">
     <g id="line2d_9">
      <path clip-path="url(#p95d204c66d)" d="M 209.81179 145.8 
L 209.81179 7.2 
" style="fill:none;stroke:#a9a9a9;stroke-dasharray:3.2,0.8,0.5,0.8;stroke-dashoffset:0;stroke-width:0.5;"/>
     </g>
     <g id="line2d_10">
      <g>
       <use style="stroke:#000000;stroke-width:0.8;" x="209.81179" xlink:href="#m9c93af966a" y="145.8"/>
      </g>
     </g>
     <g id="text_5">
      <!-- 0.4 -->
      <g transform="translate(203.56179 159.74375)scale(0.1 -0.1)">
       <defs>
        <path d="M 2978 1563 
L 2978 1119 
L 2409 1119 
L 2409 0 
L 1894 0 
L 1894 1119 
L 100 1119 
L 100 1519 
L 2066 4325 
L 2409 4325 
L 2409 1563 
L 2978 1563 
z
M 1894 1563 
L 1894 3666 
L 406 1563 
L 1894 1563 
z
" id="TimesNewRomanPSMT-34" transform="scale(0.015625)"/>
       </defs>
       <use xlink:href="#TimesNewRomanPSMT-30"/>
       <use x="50" xlink:href="#TimesNewRomanPSMT-2e"/>
       <use x="75" xlink:href="#TimesNewRomanPSMT-34"/>
      </g>
     </g>
    </g>
    <g id="xtick_6">
     <g id="line2d_11">
      <path clip-path="url(#p95d204c66d)" d="M 250.393608 145.8 
L 250.393608 7.2 
" style="fill:none;stroke:#a9a9a9;stroke-dasharray:3.2,0.8,0.5,0.8;stroke-dashoffset:0;stroke-width:0.5;"/>
     </g>
     <g id="line2d_12">
      <g>
       <use style="stroke:#000000;stroke-width:0.8;" x="250.393608" xlink:href="#m9c93af966a" y="145.8"/>
      </g>
     </g>
     <g id="text_6">
      <!-- 0.5 -->
      <g transform="translate(244.143608 159.74375)scale(0.1 -0.1)">
       <defs>
        <path d="M 2778 4238 
L 2534 3706 
L 1259 3706 
L 981 3138 
Q 1809 3016 2294 2522 
Q 2709 2097 2709 1522 
Q 2709 1188 2573 903 
Q 2438 619 2231 419 
Q 2025 219 1772 97 
Q 1413 -75 1034 -75 
Q 653 -75 479 54 
Q 306 184 306 341 
Q 306 428 378 495 
Q 450 563 559 563 
Q 641 563 702 538 
Q 763 513 909 409 
Q 1144 247 1384 247 
Q 1750 247 2026 523 
Q 2303 800 2303 1197 
Q 2303 1581 2056 1914 
Q 1809 2247 1375 2428 
Q 1034 2569 447 2591 
L 1259 4238 
L 2778 4238 
z
" id="TimesNewRomanPSMT-35" transform="scale(0.015625)"/>
       </defs>
       <use xlink:href="#TimesNewRomanPSMT-30"/>
       <use x="50" xlink:href="#TimesNewRomanPSMT-2e"/>
       <use x="75" xlink:href="#TimesNewRomanPSMT-35"/>
      </g>
     </g>
    </g>
    <g id="text_7">
     <!-- time [s] -->
     <g transform="translate(133.526563 172.826563)scale(0.1 -0.1)">
      <defs>
       <path d="M 1031 3803 
L 1031 2863 
L 1700 2863 
L 1700 2644 
L 1031 2644 
L 1031 788 
Q 1031 509 1111 412 
Q 1191 316 1316 316 
Q 1419 316 1516 380 
Q 1613 444 1666 569 
L 1788 569 
Q 1678 263 1478 108 
Q 1278 -47 1066 -47 
Q 922 -47 784 33 
Q 647 113 581 261 
Q 516 409 516 719 
L 516 2644 
L 63 2644 
L 63 2747 
Q 234 2816 414 2980 
Q 594 3144 734 3369 
Q 806 3488 934 3803 
L 1031 3803 
z
" id="TimesNewRomanPSMT-74" transform="scale(0.015625)"/>
       <path d="M 928 4444 
Q 1059 4444 1151 4351 
Q 1244 4259 1244 4128 
Q 1244 3997 1151 3903 
Q 1059 3809 928 3809 
Q 797 3809 703 3903 
Q 609 3997 609 4128 
Q 609 4259 701 4351 
Q 794 4444 928 4444 
z
M 1188 2947 
L 1188 647 
Q 1188 378 1227 289 
Q 1266 200 1342 156 
Q 1419 113 1622 113 
L 1622 0 
L 231 0 
L 231 113 
Q 441 113 512 153 
Q 584 194 626 287 
Q 669 381 669 647 
L 669 1750 
Q 669 2216 641 2353 
Q 619 2453 572 2492 
Q 525 2531 444 2531 
Q 356 2531 231 2484 
L 188 2597 
L 1050 2947 
L 1188 2947 
z
" id="TimesNewRomanPSMT-69" transform="scale(0.015625)"/>
       <path d="M 1050 2338 
Q 1363 2650 1419 2697 
Q 1559 2816 1721 2881 
Q 1884 2947 2044 2947 
Q 2313 2947 2506 2790 
Q 2700 2634 2766 2338 
Q 3088 2713 3309 2830 
Q 3531 2947 3766 2947 
Q 3994 2947 4170 2830 
Q 4347 2713 4450 2447 
Q 4519 2266 4519 1878 
L 4519 647 
Q 4519 378 4559 278 
Q 4591 209 4675 161 
Q 4759 113 4950 113 
L 4950 0 
L 3538 0 
L 3538 113 
L 3597 113 
Q 3781 113 3884 184 
Q 3956 234 3988 344 
Q 4000 397 4000 647 
L 4000 1878 
Q 4000 2228 3916 2372 
Q 3794 2572 3525 2572 
Q 3359 2572 3192 2489 
Q 3025 2406 2788 2181 
L 2781 2147 
L 2788 2013 
L 2788 647 
Q 2788 353 2820 281 
Q 2853 209 2943 161 
Q 3034 113 3253 113 
L 3253 0 
L 1806 0 
L 1806 113 
Q 2044 113 2133 169 
Q 2222 225 2256 338 
Q 2272 391 2272 647 
L 2272 1878 
Q 2272 2228 2169 2381 
Q 2031 2581 1784 2581 
Q 1616 2581 1450 2491 
Q 1191 2353 1050 2181 
L 1050 647 
Q 1050 366 1089 281 
Q 1128 197 1204 155 
Q 1281 113 1516 113 
L 1516 0 
L 100 0 
L 100 113 
Q 297 113 375 155 
Q 453 197 493 289 
Q 534 381 534 647 
L 534 1741 
Q 534 2213 506 2350 
Q 484 2453 437 2492 
Q 391 2531 309 2531 
Q 222 2531 100 2484 
L 53 2597 
L 916 2947 
L 1050 2947 
L 1050 2338 
z
" id="TimesNewRomanPSMT-6d" transform="scale(0.015625)"/>
       <path d="M 681 1784 
Q 678 1147 991 784 
Q 1303 422 1725 422 
Q 2006 422 2214 576 
Q 2422 731 2563 1106 
L 2659 1044 
Q 2594 616 2278 264 
Q 1963 -88 1488 -88 
Q 972 -88 605 314 
Q 238 716 238 1394 
Q 238 2128 614 2539 
Q 991 2950 1559 2950 
Q 2041 2950 2350 2633 
Q 2659 2316 2659 1784 
L 681 1784 
z
M 681 1966 
L 2006 1966 
Q 1991 2241 1941 2353 
Q 1863 2528 1708 2628 
Q 1553 2728 1384 2728 
Q 1125 2728 920 2526 
Q 716 2325 681 1966 
z
" id="TimesNewRomanPSMT-65" transform="scale(0.015625)"/>
       <path id="TimesNewRomanPSMT-20" transform="scale(0.015625)"/>
       <path d="M 1900 -1269 
L 525 -1269 
L 525 4334 
L 1900 4334 
L 1900 4088 
L 994 4088 
L 994 -1025 
L 1900 -1025 
L 1900 -1269 
z
" id="TimesNewRomanPSMT-5b" transform="scale(0.015625)"/>
       <path d="M 2050 2947 
L 2050 1972 
L 1947 1972 
Q 1828 2431 1642 2597 
Q 1456 2763 1169 2763 
Q 950 2763 815 2647 
Q 681 2531 681 2391 
Q 681 2216 781 2091 
Q 878 1963 1175 1819 
L 1631 1597 
Q 2266 1288 2266 781 
Q 2266 391 1970 151 
Q 1675 -88 1309 -88 
Q 1047 -88 709 6 
Q 606 38 541 38 
Q 469 38 428 -44 
L 325 -44 
L 325 978 
L 428 978 
Q 516 541 762 319 
Q 1009 97 1316 97 
Q 1531 97 1667 223 
Q 1803 350 1803 528 
Q 1803 744 1651 891 
Q 1500 1038 1047 1263 
Q 594 1488 453 1669 
Q 313 1847 313 2119 
Q 313 2472 555 2709 
Q 797 2947 1181 2947 
Q 1350 2947 1591 2875 
Q 1750 2828 1803 2828 
Q 1853 2828 1881 2850 
Q 1909 2872 1947 2947 
L 2050 2947 
z
" id="TimesNewRomanPSMT-73" transform="scale(0.015625)"/>
       <path d="M 234 4334 
L 1609 4334 
L 1609 -1272 
L 234 -1272 
L 234 -1025 
L 1141 -1025 
L 1141 4088 
L 234 4088 
L 234 4334 
z
" id="TimesNewRomanPSMT-5d" transform="scale(0.015625)"/>
      </defs>
      <use xlink:href="#TimesNewRomanPSMT-74"/>
      <use x="27.783203" xlink:href="#TimesNewRomanPSMT-69"/>
      <use x="55.566406" xlink:href="#TimesNewRomanPSMT-6d"/>
      <use x="133.349609" xlink:href="#TimesNewRomanPSMT-65"/>
      <use x="177.734375" xlink:href="#TimesNewRomanPSMT-20"/>
      <use x="202.734375" xlink:href="#TimesNewRomanPSMT-5b"/>
      <use x="236.035156" xlink:href="#TimesNewRomanPSMT-73"/>
      <use x="274.951172" xlink:href="#TimesNewRomanPSMT-5d"/>
     </g>
    </g>
   </g>
   <g id="matplotlib.axis_2">
    <g id="ytick_1">
     <g id="line2d_13">
      <path clip-path="url(#p95d204c66d)" d="M 37.339063 135.9 
L 260.539062 135.9 
" style="fill:none;stroke:#a9a9a9;stroke-dasharray:3.2,0.8,0.5,0.8;stroke-dashoffset:0;stroke-width:0.5;"/>
     </g>
     <g id="line2d_14">
      <defs>
       <path d="M 0 0 
L -3.5 0 
" id="m2ba2340311" style="stroke:#000000;stroke-width:0.8;"/>
      </defs>
      <g>
       <use style="stroke:#000000;stroke-width:0.8;" x="37.339063" xlink:href="#m2ba2340311" y="135.9"/>
      </g>
     </g>
     <g id="text_8">
      <!-- −0.30 -->
      <g transform="translate(7.2 139.371875)scale(0.1 -0.1)">
       <defs>
        <path d="M 3484 2000 
L 116 2000 
L 116 2256 
L 3484 2256 
L 3484 2000 
z
" id="TimesNewRomanPSMT-2212" transform="scale(0.015625)"/>
       </defs>
       <use xlink:href="#TimesNewRomanPSMT-2212"/>
       <use x="56.396484" xlink:href="#TimesNewRomanPSMT-30"/>
       <use x="106.396484" xlink:href="#TimesNewRomanPSMT-2e"/>
       <use x="131.396484" xlink:href="#TimesNewRomanPSMT-33"/>
       <use x="181.396484" xlink:href="#TimesNewRomanPSMT-30"/>
      </g>
     </g>
    </g>
    <g id="ytick_2">
     <g id="line2d_15">
      <path clip-path="url(#p95d204c66d)" d="M 37.339063 106.2 
L 260.539062 106.2 
" style="fill:none;stroke:#a9a9a9;stroke-dasharray:3.2,0.8,0.5,0.8;stroke-dashoffset:0;stroke-width:0.5;"/>
     </g>
     <g id="line2d_16">
      <g>
       <use style="stroke:#000000;stroke-width:0.8;" x="37.339063" xlink:href="#m2ba2340311" y="106.2"/>
      </g>
     </g>
     <g id="text_9">
      <!-- −0.15 -->
      <g transform="translate(7.2 109.671875)scale(0.1 -0.1)">
       <use xlink:href="#TimesNewRomanPSMT-2212"/>
       <use x="56.396484" xlink:href="#TimesNewRomanPSMT-30"/>
       <use x="106.396484" xlink:href="#TimesNewRomanPSMT-2e"/>
       <use x="131.396484" xlink:href="#TimesNewRomanPSMT-31"/>
       <use x="181.396484" xlink:href="#TimesNewRomanPSMT-35"/>
      </g>
     </g>
    </g>
    <g id="ytick_3">
     <g id="line2d_17">
      <path clip-path="url(#p95d204c66d)" d="M 37.339063 76.5 
L 260.539062 76.5 
" style="fill:none;stroke:#a9a9a9;stroke-dasharray:3.2,0.8,0.5,0.8;stroke-dashoffset:0;stroke-width:0.5;"/>
     </g>
     <g id="line2d_18">
      <g>
       <use style="stroke:#000000;stroke-width:0.8;" x="37.339063" xlink:href="#m2ba2340311" y="76.5"/>
      </g>
     </g>
     <g id="text_10">
      <!-- 0.00 -->
      <g transform="translate(12.839063 79.971875)scale(0.1 -0.1)">
       <use xlink:href="#TimesNewRomanPSMT-30"/>
       <use x="50" xlink:href="#TimesNewRomanPSMT-2e"/>
       <use x="75" xlink:href="#TimesNewRomanPSMT-30"/>
       <use x="125" xlink:href="#TimesNewRomanPSMT-30"/>
      </g>
     </g>
    </g>
    <g id="ytick_4">
     <g id="line2d_19">
      <path clip-path="url(#p95d204c66d)" d="M 37.339063 46.8 
L 260.539062 46.8 
" style="fill:none;stroke:#a9a9a9;stroke-dasharray:3.2,0.8,0.5,0.8;stroke-dashoffset:0;stroke-width:0.5;"/>
     </g>
     <g id="line2d_20">
      <g>
       <use style="stroke:#000000;stroke-width:0.8;" x="37.339063" xlink:href="#m2ba2340311" y="46.8"/>
      </g>
     </g>
     <g id="text_11">
      <!-- 0.15 -->
      <g transform="translate(12.839063 50.271875)scale(0.1 -0.1)">
       <use xlink:href="#TimesNewRomanPSMT-30"/>
       <use x="50" xlink:href="#TimesNewRomanPSMT-2e"/>
       <use x="75" xlink:href="#TimesNewRomanPSMT-31"/>
       <use x="125" xlink:href="#TimesNewRomanPSMT-35"/>
      </g>
     </g>
    </g>
    <g id="ytick_5">
     <g id="line2d_21">
      <path clip-path="url(#p95d204c66d)" d="M 37.339063 17.1 
L 260.539062 17.1 
" style="fill:none;stroke:#a9a9a9;stroke-dasharray:3.2,0.8,0.5,0.8;stroke-dashoffset:0;stroke-width:0.5;"/>
     </g>
     <g id="line2d_22">
      <g>
       <use style="stroke:#000000;stroke-width:0.8;" x="37.339063" xlink:href="#m2ba2340311" y="17.1"/>
      </g>
     </g>
     <g id="text_12">
      <!-- 0.30 -->
      <g transform="translate(12.839063 20.571875)scale(0.1 -0.1)">
       <use xlink:href="#TimesNewRomanPSMT-30"/>
       <use x="50" xlink:href="#TimesNewRomanPSMT-2e"/>
       <use x="75" xlink:href="#TimesNewRomanPSMT-33"/>
       <use x="125" xlink:href="#TimesNewRomanPSMT-30"/>
      </g>
     </g>
    </g>
   </g>
   <g id="line2d_23">
    <path clip-path="url(#p95d204c66d)" d="M 47.484517 92.78356 
L 49.10779 103.842652 
L 50.325244 111.088265 
L 51.542699 117.062717 
L 52.354335 120.240616 
L 53.977608 124.308327 
L 54.383426 124.816792 
L 54.789244 125.071025 
L 55.600881 125.071025 
L 56.006699 124.943908 
L 56.818335 124.054097 
L 57.224153 123.291399 
L 58.441608 119.859267 
L 59.659063 114.647513 
L 60.876517 108.037479 
L 62.49979 97.741083 
L 64.528881 82.995627 
L 68.181244 55.157224 
L 70.210335 42.318508 
L 71.833608 34.437317 
L 73.051063 30.242487 
L 73.862699 27.954399 
L 74.268517 27.191704 
L 75.080153 26.174777 
L 75.485972 26.301893 
L 75.89179 26.301893 
L 76.297608 26.429009 
L 76.703426 26.810358 
L 77.920881 29.225559 
L 78.732517 31.640764 
L 79.949972 36.471172 
L 80.761608 40.411766 
L 81.573244 45.115058 
L 81.979062 48.292961 
L 82.384881 50.326816 
L 83.602335 58.843587 
L 87.660517 89.859892 
L 89.28379 101.300331 
L 90.907062 110.961148 
L 91.718699 115.155975 
L 92.530335 118.715223 
L 93.74779 122.528704 
L 94.153608 123.545632 
L 94.559426 124.054097 
L 94.965244 124.816792 
L 95.371062 125.071025 
L 95.776881 125.071025 
L 96.182699 125.198141 
L 96.994335 124.689676 
L 97.400153 124.18121 
L 97.805972 123.037166 
L 98.21179 122.274471 
L 99.023426 119.732151 
L 99.835062 116.554252 
L 101.052517 110.579799 
L 102.67579 100.537635 
L 105.110699 83.122744 
L 109.980517 47.0218 
L 112.415426 34.56443 
L 113.227063 31.386531 
L 114.038699 28.971327 
L 114.850335 27.191704 
L 115.661972 26.301893 
L 116.06779 26.429009 
L 116.473608 26.174777 
L 116.879426 26.429009 
L 117.691062 27.57305 
L 118.502699 29.225559 
L 118.908517 30.369603 
L 120.937608 38.250795 
L 122.966699 50.326816 
L 124.184153 58.843587 
L 130.271426 103.842652 
L 131.894699 113.376353 
L 133.517972 120.240616 
L 134.735426 123.418515 
L 135.141244 124.18121 
L 135.952881 125.198141 
L 136.358699 125.198141 
L 136.764517 125.071025 
L 137.576153 124.562559 
L 138.38779 123.291399 
L 139.199426 121.130428 
L 140.011062 118.333874 
L 141.228517 112.613655 
L 142.040153 108.164595 
L 143.257608 100.664751 
L 146.504153 76.766944 
L 148.533244 61.004559 
L 150.156517 49.691234 
L 152.185608 38.123678 
L 152.997244 34.56443 
L 154.214699 29.988254 
L 155.837972 26.683242 
L 156.649608 26.04766 
L 157.461244 26.301893 
L 157.867063 27.064588 
L 158.272881 27.445937 
L 159.490335 30.369603 
L 160.70779 34.818663 
L 161.925244 40.538883 
L 163.548517 50.1997 
L 166.389244 71.428072 
L 169.229972 93.037791 
L 171.259062 106.384972 
L 172.476517 113.249236 
L 173.693972 118.460991 
L 174.505608 121.511777 
L 175.317244 123.418515 
L 175.723062 124.18121 
L 176.128881 124.689676 
L 176.940517 125.071025 
L 177.346335 125.071025 
L 178.157972 124.562559 
L 178.56379 124.054097 
L 178.969608 123.291399 
L 179.781244 121.130428 
L 181.404517 114.647513 
L 182.216153 110.452683 
L 184.245244 97.8682 
L 186.274335 83.122744 
L 189.926699 55.157224 
L 191.95579 42.445625 
L 193.579062 34.56443 
L 194.390699 31.513647 
L 195.202335 29.098443 
L 196.013972 27.064588 
L 196.825608 26.301893 
L 197.231426 26.174777 
L 198.854699 27.318821 
L 200.88379 33.166157 
L 202.101244 38.250795 
L 203.318699 44.987942 
L 204.536153 52.869135 
L 211.029244 101.173215 
L 212.246699 108.927293 
L 213.464153 115.028859 
L 214.27579 118.588107 
L 215.087426 121.511777 
L 215.493244 122.401588 
L 215.899062 123.672748 
L 216.710699 124.689676 
L 217.522335 125.198141 
L 217.928153 125.198141 
L 218.333972 125.071025 
L 219.145608 123.926981 
L 219.957244 122.274471 
L 221.174699 118.333874 
L 222.392153 112.613655 
L 223.609608 105.876507 
L 227.261972 79.944844 
L 229.696881 61.004559 
L 231.320153 49.691234 
L 232.943426 40.284653 
L 234.566699 33.03904 
L 235.378335 30.115371 
L 236.189972 27.954399 
L 237.001608 26.683242 
L 237.407426 26.301893 
L 237.813244 26.301893 
L 238.219062 26.174777 
L 239.030699 26.810358 
L 240.248153 29.225559 
L 241.05979 31.76788 
L 241.871426 34.691547 
L 243.088881 40.411766 
L 243.900517 45.115058 
L 245.117972 52.996251 
L 250.393608 92.910676 
L 250.393608 92.910676 
" style="fill:none;stroke:#1f77b4;stroke-linecap:square;stroke-width:1.5;"/>
   </g>
   <g id="line2d_24">
    <path clip-path="url(#p95d204c66d)" d="M 47.484517 26.478429 
L 48.296153 25.847798 
L 48.701972 25.721673 
L 49.10779 25.973923 
L 49.919426 27.10906 
L 50.325244 27.739688 
L 51.136881 29.88383 
L 52.760153 36.316257 
L 54.383426 45.145076 
L 56.006699 55.613535 
L 58.03579 70.87478 
L 60.876517 92.3162 
L 63.311426 108.334204 
L 64.123063 112.874738 
L 65.340517 118.172031 
L 66.152153 120.820677 
L 66.557972 122.081935 
L 67.369608 123.59545 
L 68.587063 124.982833 
L 68.992881 124.856708 
L 69.398699 124.856708 
L 69.804517 124.604456 
L 70.210335 123.8477 
L 70.616153 123.343197 
L 71.42779 121.451307 
L 73.051063 115.145005 
L 74.674335 106.063933 
L 76.297608 95.595476 
L 81.573244 55.361282 
L 83.196517 44.640573 
L 84.81979 36.190132 
L 85.631426 32.784728 
L 86.443062 30.136083 
L 87.254699 27.865815 
L 88.066335 26.478429 
L 88.877972 25.721673 
L 89.689608 25.973923 
L 90.501244 26.982935 
L 91.312881 28.874821 
L 92.124517 31.145091 
L 93.341972 36.190132 
L 94.965244 45.018951 
L 97.400153 61.415331 
L 103.081608 103.289163 
L 103.893244 108.334204 
L 105.516517 116.658517 
L 106.733972 120.946802 
L 107.13979 122.081935 
L 107.951426 123.721575 
L 108.357244 124.099953 
L 108.763062 124.730583 
L 109.168881 124.982833 
L 109.574699 124.982833 
L 110.386335 124.478331 
L 110.792153 123.973828 
L 111.60379 122.460313 
L 112.009608 121.451307 
L 113.632881 115.01888 
L 115.256153 106.063933 
L 117.691062 89.541428 
L 119.314335 77.433332 
L 122.155062 55.235157 
L 123.778335 44.640573 
L 125.401608 36.190132 
L 126.619062 31.271216 
L 127.836517 27.739688 
L 128.242335 26.982935 
L 129.053972 25.973923 
L 129.45979 25.973923 
L 129.865608 25.721673 
L 130.677244 26.352304 
L 131.083062 26.982935 
L 132.300517 29.88383 
L 133.112153 32.910853 
L 134.735426 40.352289 
L 135.952881 47.667596 
L 137.170335 55.487408 
L 143.663426 103.289163 
L 144.880881 110.604471 
L 145.692517 114.766628 
L 147.31579 120.946802 
L 148.127426 122.838691 
L 148.939062 124.226078 
L 149.750699 124.856708 
L 150.156517 124.856708 
L 150.562335 124.982833 
L 151.373972 124.099953 
L 151.77979 123.469322 
L 153.403062 118.676534 
L 154.620517 113.000863 
L 156.649608 101.018894 
L 157.867063 92.568453 
L 159.896153 77.307206 
L 162.736881 55.235157 
L 164.360153 44.640573 
L 165.577608 38.082021 
L 167.200881 31.397341 
L 168.012517 28.748696 
L 169.229972 26.478429 
L 169.63579 25.973923 
L 170.041608 25.847798 
L 170.447426 25.847798 
L 171.664881 26.982935 
L 172.882335 29.88383 
L 173.288153 31.523469 
L 173.693972 32.532475 
L 174.505608 36.316257 
L 175.723062 42.748684 
L 177.346335 52.838762 
L 178.969608 64.568481 
L 181.404517 83.361254 
L 182.621972 92.190075 
L 184.651063 105.937808 
L 185.868517 112.874738 
L 187.085972 118.172031 
L 187.897608 120.946802 
L 188.709244 122.964819 
L 189.520881 124.352206 
L 190.332517 124.856708 
L 191.144153 124.856708 
L 191.549972 124.604456 
L 192.767426 122.586441 
L 193.173244 121.451307 
L 195.202335 113.000863 
L 196.41979 106.190061 
L 198.043062 95.469351 
L 200.477972 77.307206 
L 203.318699 55.235157 
L 204.536153 47.163093 
L 206.159426 38.082021 
L 207.376881 32.658603 
L 208.594335 28.874821 
L 209.405972 26.982935 
L 209.81179 26.352304 
L 211.029244 25.721673 
L 212.246699 26.982935 
L 213.058335 28.874821 
L 213.869972 31.271216 
L 214.681608 34.676617 
L 215.493244 38.208146 
L 217.116517 47.541471 
L 219.957244 67.72163 
L 224.827062 103.415288 
L 226.856153 114.892755 
L 227.66779 118.172031 
L 228.479426 121.07293 
L 229.291063 122.838691 
L 230.102699 124.226078 
L 230.508517 124.730583 
L 231.320153 124.982833 
L 231.725972 124.856708 
L 232.537608 124.099953 
L 233.755063 121.32518 
L 234.566699 118.550409 
L 234.972517 117.036898 
L 236.59579 108.460328 
L 237.813244 101.145021 
L 241.05979 77.307206 
L 243.494699 58.388307 
L 244.712153 49.559486 
L 246.741244 38.082021 
L 247.958699 32.910853 
L 249.176153 28.748696 
L 250.393608 26.604554 
L 250.393608 26.604554 
" style="fill:none;stroke:#ff7f0e;stroke-linecap:square;stroke-width:1.5;"/>
   </g>
   <g id="line2d_25">
    <path clip-path="url(#p95d204c66d)" d="M 47.484517 106.662726 
L 48.296153 101.768166 
L 50.325244 87.696306 
L 53.165972 66.40497 
L 54.789244 54.046206 
L 55.600881 49.151645 
L 56.006699 46.337274 
L 56.412517 44.501815 
L 57.629972 37.771795 
L 58.441608 33.733781 
L 59.253244 31.286503 
L 59.659063 29.695769 
L 60.470699 27.982673 
L 60.876517 27.493217 
L 61.282335 26.39194 
L 61.688153 26.759032 
L 62.093972 26.759032 
L 62.49979 26.147214 
L 62.905608 26.759032 
L 63.311426 27.737947 
L 63.717244 27.248491 
L 64.123063 29.083951 
L 64.528881 30.062862 
L 65.746335 33.856147 
L 66.557972 37.771795 
L 66.96379 39.484889 
L 68.181244 46.214911 
L 68.587063 49.518737 
L 68.992881 51.598926 
L 70.616153 63.590597 
L 71.021972 67.139154 
L 71.42779 69.586434 
L 74.268517 91.000134 
L 75.485972 99.687977 
L 75.89179 101.278711 
L 76.297608 104.94963 
L 77.109244 109.477097 
L 77.920881 113.882201 
L 78.326699 115.105841 
L 79.138335 119.143853 
L 79.544153 120.000401 
L 79.949972 121.224042 
L 80.35579 121.835861 
L 80.761608 122.937138 
L 81.167426 123.671323 
L 81.573244 123.916049 
L 81.979062 123.916049 
L 82.384881 124.160779 
L 82.790699 123.793686 
L 83.196517 124.038413 
L 83.602335 123.304231 
L 84.008153 122.814775 
L 84.81979 121.346405 
L 85.631426 118.532034 
L 86.037244 117.18603 
L 88.066335 107.029818 
L 88.877972 101.890529 
L 89.689608 96.506514 
L 91.312881 85.126662 
L 92.124517 78.763734 
L 93.74779 66.40497 
L 95.776881 51.721289 
L 96.588517 46.949093 
L 97.400153 41.809807 
L 98.617608 35.691607 
L 99.429244 32.632506 
L 100.240881 29.940499 
L 101.052517 27.737947 
L 101.458335 27.248491 
L 101.864153 27.248491 
L 102.269972 26.759032 
L 102.67579 25.657761 
L 103.487426 27.126125 
L 103.893244 27.370854 
L 105.110699 30.185225 
L 105.922335 32.510143 
L 107.545608 39.484889 
L 108.763062 46.459637 
L 109.168881 49.88583 
L 109.574699 51.966019 
L 110.792153 60.409134 
L 111.60379 66.527334 
L 112.415426 72.767898 
L 117.285244 107.396911 
L 117.691062 108.987641 
L 118.502699 113.637474 
L 118.908517 115.595297 
L 119.314335 116.941301 
L 119.720153 118.899127 
L 120.53179 121.224042 
L 120.937608 121.713497 
L 121.749244 123.793686 
L 122.560881 124.160779 
L 122.966699 124.160779 
L 124.184153 123.548957 
L 124.99579 122.447682 
L 125.807426 120.24513 
L 126.619062 116.941301 
L 127.024881 115.595297 
L 127.430699 113.759838 
L 130.677244 94.181598 
L 131.488881 87.81867 
L 133.92379 69.46407 
L 135.547062 57.105306 
L 138.38779 39.607255 
L 139.199426 35.691607 
L 140.416881 31.286503 
L 141.228517 28.716858 
L 141.634335 28.105039 
L 142.445972 26.39194 
L 143.257608 26.759032 
L 143.663426 26.39194 
L 144.069244 26.514306 
L 144.475062 27.493217 
L 144.880881 27.493217 
L 145.692517 30.062862 
L 146.098335 30.797047 
L 146.909972 34.100873 
L 147.721608 37.404703 
L 148.127426 39.974347 
L 148.939062 44.134722 
L 149.344881 46.092545 
L 150.156517 52.210747 
L 150.562335 53.679114 
L 151.373972 60.653862 
L 152.185608 66.40497 
L 152.997244 73.13499 
L 153.403062 75.704634 
L 153.808881 79.25319 
L 154.214699 81.333378 
L 155.026335 88.185762 
L 157.055426 102.257622 
L 158.272881 109.599463 
L 159.490335 115.595297 
L 160.70779 120.000401 
L 161.113608 120.856949 
L 161.519426 122.08059 
L 162.331062 123.426594 
L 162.736881 123.671323 
L 163.142699 124.894961 
L 163.548517 124.283142 
L 163.954335 124.283142 
L 164.360153 123.304231 
L 164.765972 123.548957 
L 165.17179 123.059501 
L 165.577608 122.325319 
L 165.983426 121.346405 
L 166.389244 119.878038 
L 166.795062 119.02149 
L 167.606699 115.472934 
L 170.041608 101.890529 
L 173.288153 78.763734 
L 174.09979 72.400806 
L 174.911426 66.037878 
L 175.723062 60.286769 
L 176.940517 51.966019 
L 177.346335 48.295097 
L 178.157972 44.134722 
L 179.375426 37.404703 
L 180.998699 30.91941 
L 181.404517 30.307591 
L 181.810335 28.961587 
L 183.02779 26.636672 
L 183.433608 26.759032 
L 184.245244 26.514306 
L 184.651063 26.514306 
L 185.462699 27.86031 
L 185.868517 28.839221 
L 186.274335 30.307591 
L 186.680153 31.041773 
L 188.303426 37.894159 
L 188.709244 39.362526 
L 191.144153 54.413299 
L 194.390699 78.886098 
L 194.796517 82.801746 
L 195.202335 85.004298 
L 195.608153 88.43049 
L 196.013972 90.633042 
L 196.825608 96.873607 
L 197.637244 102.012893 
L 199.260517 111.679649 
L 200.072153 115.472934 
L 200.88379 118.899127 
L 202.507062 123.059501 
L 203.724517 124.038413 
L 204.536153 124.038413 
L 204.941972 124.283142 
L 206.159426 122.325319 
L 206.971063 120.122767 
L 207.376881 119.02149 
L 207.782699 117.553123 
L 209.81179 107.396911 
L 210.217608 103.725989 
L 210.623426 102.012893 
L 211.029244 99.687977 
L 211.435063 95.649966 
L 212.246699 91.244862 
L 213.058335 84.881934 
L 214.681608 73.012626 
L 215.087426 68.729886 
L 215.899062 63.712962 
L 216.304881 59.919678 
L 217.116517 54.78039 
L 217.928153 49.029282 
L 218.73979 44.012359 
L 219.145608 41.565078 
L 219.551426 39.974347 
L 219.957244 37.649429 
L 221.986335 29.573406 
L 222.392153 29.206314 
L 223.20379 27.248491 
L 224.015426 26.636672 
L 224.827062 26.39194 
L 226.044517 27.86031 
L 227.261972 31.408866 
L 228.479426 35.569243 
L 228.885244 38.016522 
L 229.291063 39.607255 
L 229.696881 41.93217 
L 230.102699 43.278174 
L 230.508517 46.704367 
L 231.320153 51.721289 
L 234.566699 75.215178 
L 234.972517 79.25319 
L 235.784153 84.881934 
L 237.001608 93.93687 
L 238.219062 102.502351 
L 239.030699 107.274545 
L 240.653972 115.840026 
L 241.465608 118.409671 
L 241.871426 120.000401 
L 242.277244 120.979315 
L 242.683062 121.591134 
L 243.088881 123.304231 
L 244.712153 124.283142 
L 245.117972 124.160779 
L 245.52379 124.527871 
L 247.552881 120.489857 
L 247.958699 118.042578 
L 248.364517 117.063667 
L 248.770335 115.595297 
L 250.393608 107.029818 
L 250.393608 107.029818 
" style="fill:none;stroke:#2ca02c;stroke-linecap:square;stroke-width:1.5;"/>
   </g>
   <g id="patch_3">
    <path d="M 37.339063 145.8 
L 37.339063 7.2 
" style="fill:none;stroke:#000000;stroke-linecap:square;stroke-linejoin:miter;stroke-width:0.8;"/>
   </g>
   <g id="patch_4">
    <path d="M 260.539062 145.8 
L 260.539062 7.2 
" style="fill:none;stroke:#000000;stroke-linecap:square;stroke-linejoin:miter;stroke-width:0.8;"/>
   </g>
   <g id="patch_5">
    <path d="M 37.339063 145.8 
L 260.539062 145.8 
" style="fill:none;stroke:#000000;stroke-linecap:square;stroke-linejoin:miter;stroke-width:0.8;"/>
   </g>
   <g id="patch_6">
    <path d="M 37.339063 7.2 
L 260.539062 7.2 
" style="fill:none;stroke:#000000;stroke-linecap:square;stroke-linejoin:miter;stroke-width:0.8;"/>
   </g>
   <g id="legend_1">
    <g id="patch_7">
     <path d="M 214.239062 99.208594 
L 253.539062 99.208594 
Q 255.539062 99.208594 255.539062 97.208594 
L 255.539062 55.791406 
Q 255.539062 53.791406 253.539062 53.791406 
L 214.239062 53.791406 
Q 212.239062 53.791406 212.239062 55.791406 
L 212.239062 97.208594 
Q 212.239062 99.208594 214.239062 99.208594 
z
" style="fill:#ffffff;opacity:0.8;stroke:#cccccc;stroke-linejoin:miter;"/>
    </g>
    <g id="line2d_26">
     <path d="M 216.239062 61.291406 
L 236.239062 61.291406 
" style="fill:none;stroke:#1f77b4;stroke-linecap:square;stroke-width:1.5;"/>
    </g>
    <g id="line2d_27"/>
    <g id="text_13">
     <!-- $I_{a}$ -->
     <g transform="translate(244.239062 64.791406)scale(0.1 -0.1)">
      <defs>
       <path d="M 2458 4179 
L 2458 4077 
Q 2189 4045 2102 3961 
Q 2016 3878 1933 3584 
L 1165 838 
Q 1069 499 1069 352 
Q 1069 224 1149 179 
Q 1229 134 1510 102 
L 1510 0 
L -51 0 
L -51 102 
Q 218 154 317 237 
Q 416 320 486 582 
L 1254 3405 
Q 1338 3699 1338 3802 
Q 1338 3930 1235 3997 
Q 1133 4064 877 4077 
L 877 4179 
L 2458 4179 
z
" id="STIXGeneral-Italic-49" transform="scale(0.015625)"/>
       <path d="M 2963 710 
L 3046 640 
Q 2688 205 2518 70 
Q 2349 -64 2157 -64 
Q 1901 -64 1901 198 
Q 1901 358 2048 934 
Q 1690 397 1389 163 
Q 1088 -70 749 -70 
Q 467 -70 288 125 
Q 109 320 109 672 
Q 109 1158 387 1664 
Q 666 2170 1094 2496 
Q 1523 2822 1939 2822 
Q 2368 2822 2451 2451 
L 2522 2758 
L 2541 2778 
L 2931 2822 
L 2976 2803 
Q 2970 2778 2938 2669 
Q 2368 595 2368 346 
Q 2368 262 2458 262 
Q 2554 262 2790 525 
L 2963 710 
z
M 2336 2310 
Q 2336 2477 2240 2579 
Q 2144 2682 1978 2682 
Q 1542 2682 1139 2093 
Q 928 1779 787 1395 
Q 646 1011 646 717 
Q 646 243 1030 243 
Q 1408 243 1843 870 
Q 2336 1581 2336 2310 
z
" id="STIXGeneral-Italic-61" transform="scale(0.015625)"/>
      </defs>
      <use transform="translate(0 0.703125)" xlink:href="#STIXGeneral-Italic-49"/>
      <use transform="translate(33.299988 -12.525)scale(0.7)" xlink:href="#STIXGeneral-Italic-61"/>
     </g>
    </g>
    <g id="line2d_28">
     <path d="M 216.239062 75.430469 
L 236.239062 75.430469 
" style="fill:none;stroke:#ff7f0e;stroke-linecap:square;stroke-width:1.5;"/>
    </g>
    <g id="line2d_29"/>
    <g id="text_14">
     <!-- $I_{b}$ -->
     <g transform="translate(244.239062 78.930469)scale(0.1 -0.1)">
      <defs>
       <path d="M 1043 1856 
L 1050 1856 
Q 1370 2387 1654 2604 
Q 1939 2822 2285 2822 
Q 2618 2822 2822 2617 
Q 3027 2413 3027 2054 
Q 3027 1562 2726 1062 
Q 2426 563 1942 246 
Q 1459 -70 979 -70 
Q 685 -70 416 32 
Q 147 134 147 269 
L 147 307 
L 1056 3654 
Q 1114 3885 1114 3955 
Q 1114 4058 1053 4080 
Q 992 4102 704 4115 
L 704 4224 
Q 1184 4282 1683 4371 
L 1715 4339 
L 1581 3814 
L 1043 1856 
z
M 2483 1958 
Q 2483 2509 2035 2509 
Q 1594 2509 1158 1773 
Q 954 1427 826 1008 
Q 698 589 698 294 
Q 698 77 992 77 
Q 1414 77 1779 454 
Q 2074 762 2278 1187 
Q 2483 1613 2483 1958 
z
" id="STIXGeneral-Italic-62" transform="scale(0.015625)"/>
      </defs>
      <use transform="translate(0 0.703125)" xlink:href="#STIXGeneral-Italic-49"/>
      <use transform="translate(33.299988 -12.525)scale(0.7)" xlink:href="#STIXGeneral-Italic-62"/>
     </g>
    </g>
    <g id="line2d_30">
     <path d="M 216.239062 89.569531 
L 236.239062 89.569531 
" style="fill:none;stroke:#2ca02c;stroke-linecap:square;stroke-width:1.5;"/>
    </g>
    <g id="line2d_31"/>
    <g id="text_15">
     <!-- $I_{c}$ -->
     <g transform="translate(244.239062 93.069531)scale(0.1 -0.1)">
      <defs>
       <path d="M 2240 685 
L 2342 621 
Q 2048 250 1769 90 
Q 1491 -70 1133 -70 
Q 678 -70 435 179 
Q 192 429 192 915 
Q 192 1344 409 1744 
Q 627 2144 979 2432 
Q 1472 2822 2048 2822 
Q 2342 2822 2531 2675 
Q 2720 2528 2720 2304 
Q 2720 2176 2630 2086 
Q 2541 1997 2413 1997 
Q 2285 1997 2224 2070 
Q 2163 2144 2163 2253 
Q 2163 2310 2211 2403 
Q 2259 2496 2259 2560 
Q 2259 2688 2022 2688 
Q 1619 2688 1325 2381 
Q 742 1766 742 890 
Q 742 544 889 352 
Q 1037 160 1312 160 
Q 1562 160 1766 281 
Q 1971 403 2240 685 
z
" id="STIXGeneral-Italic-63" transform="scale(0.015625)"/>
      </defs>
      <use transform="translate(0 0.703125)" xlink:href="#STIXGeneral-Italic-49"/>
      <use transform="translate(33.299988 -12.525)scale(0.7)" xlink:href="#STIXGeneral-Italic-63"/>
     </g>
    </g>
   </g>
  </g>
 </g>
 <defs>
  <clipPath id="p95d204c66d">
   <rect height="138.6" width="223.2" x="37.339063" y="7.2"/>
  </clipPath>
 </defs>
</svg>
