<?xml version="1.0" encoding="utf-8" standalone="no"?>
<!DOCTYPE svg PUBLIC "-//W3C//DTD SVG 1.1//EN"
  "http://www.w3.org/Graphics/SVG/1.1/DTD/svg11.dtd">
<svg height="182.165625pt" version="1.1" viewBox="0 0 257.1 182.165625" width="257.1pt" xmlns="http://www.w3.org/2000/svg" xmlns:xlink="http://www.w3.org/1999/xlink">
 <metadata>
  <rdf:RDF xmlns:cc="http://creativecommons.org/ns#" xmlns:dc="http://purl.org/dc/elements/1.1/" xmlns:rdf="http://www.w3.org/1999/02/22-rdf-syntax-ns#">
   <cc:Work>
    <dc:type rdf:resource="http://purl.org/dc/dcmitype/StillImage"/>
    <dc:date>2022-02-27T13:24:43.574419</dc:date>
    <dc:format>image/svg+xml</dc:format>
    <dc:creator>
     <cc:Agent>
      <dc:title>Matplotlib v3.4.3, https://matplotlib.org/</dc:title>
     </cc:Agent>
    </dc:creator>
   </cc:Work>
  </rdf:RDF>
 </metadata>
 <defs>
  <style type="text/css">*{stroke-linecap:butt;stroke-linejoin:round;}</style>
 </defs>
 <g id="figure_1">
  <g id="patch_1">
   <path d="M 0 182.165625 
L 257.1 182.165625 
L 257.1 0 
L 0 0 
z
" style="fill:#ffffff;"/>
  </g>
  <g id="axes_1">
   <g id="patch_2">
    <path d="M 26.7 145.8 
L 249.9 145.8 
L 249.9 7.2 
L 26.7 7.2 
z
" style="fill:#ffffff;"/>
   </g>
   <g id="matplotlib.axis_1">
    <g id="xtick_1">
     <g id="line2d_1">
      <path clip-path="url(#p86c6b6ba98)" d="M 36.845455 145.8 
L 36.845455 7.2 
" style="fill:none;stroke:#a9a9a9;stroke-dasharray:3.2,0.8,0.5,0.8;stroke-dashoffset:0;stroke-width:0.5;"/>
     </g>
     <g id="line2d_2">
      <defs>
       <path d="M 0 0 
L 0 3.5 
" id="m72d54ed34d" style="stroke:#000000;stroke-width:0.8;"/>
      </defs>
      <g>
       <use style="stroke:#000000;stroke-width:0.8;" x="36.845455" xlink:href="#m72d54ed34d" y="145.8"/>
      </g>
     </g>
     <g id="text_1">
      <!-- 0.0 -->
      <g transform="translate(30.595455 159.74375)scale(0.1 -0.1)">
       <defs>
        <path d="M 231 2094 
Q 231 2819 450 3342 
Q 669 3866 1031 4122 
Q 1313 4325 1613 4325 
Q 2100 4325 2488 3828 
Q 2972 3213 2972 2159 
Q 2972 1422 2759 906 
Q 2547 391 2217 158 
Q 1888 -75 1581 -75 
Q 975 -75 572 641 
Q 231 1244 231 2094 
z
M 844 2016 
Q 844 1141 1059 588 
Q 1238 122 1591 122 
Q 1759 122 1940 273 
Q 2122 425 2216 781 
Q 2359 1319 2359 2297 
Q 2359 3022 2209 3506 
Q 2097 3866 1919 4016 
Q 1791 4119 1609 4119 
Q 1397 4119 1231 3928 
Q 1006 3669 925 3112 
Q 844 2556 844 2016 
z
" id="TimesNewRomanPSMT-30" transform="scale(0.015625)"/>
        <path d="M 800 606 
Q 947 606 1047 504 
Q 1147 403 1147 259 
Q 1147 116 1045 14 
Q 944 -88 800 -88 
Q 656 -88 554 14 
Q 453 116 453 259 
Q 453 406 554 506 
Q 656 606 800 606 
z
" id="TimesNewRomanPSMT-2e" transform="scale(0.015625)"/>
       </defs>
       <use xlink:href="#TimesNewRomanPSMT-30"/>
       <use x="50" xlink:href="#TimesNewRomanPSMT-2e"/>
       <use x="75" xlink:href="#TimesNewRomanPSMT-30"/>
      </g>
     </g>
    </g>
    <g id="xtick_2">
     <g id="line2d_3">
      <path clip-path="url(#p86c6b6ba98)" d="M 77.427273 145.8 
L 77.427273 7.2 
" style="fill:none;stroke:#a9a9a9;stroke-dasharray:3.2,0.8,0.5,0.8;stroke-dashoffset:0;stroke-width:0.5;"/>
     </g>
     <g id="line2d_4">
      <g>
       <use style="stroke:#000000;stroke-width:0.8;" x="77.427273" xlink:href="#m72d54ed34d" y="145.8"/>
      </g>
     </g>
     <g id="text_2">
      <!-- 0.1 -->
      <g transform="translate(71.177273 159.74375)scale(0.1 -0.1)">
       <defs>
        <path d="M 750 3822 
L 1781 4325 
L 1884 4325 
L 1884 747 
Q 1884 391 1914 303 
Q 1944 216 2037 169 
Q 2131 122 2419 116 
L 2419 0 
L 825 0 
L 825 116 
Q 1125 122 1212 167 
Q 1300 213 1334 289 
Q 1369 366 1369 747 
L 1369 3034 
Q 1369 3497 1338 3628 
Q 1316 3728 1258 3775 
Q 1200 3822 1119 3822 
Q 1003 3822 797 3725 
L 750 3822 
z
" id="TimesNewRomanPSMT-31" transform="scale(0.015625)"/>
       </defs>
       <use xlink:href="#TimesNewRomanPSMT-30"/>
       <use x="50" xlink:href="#TimesNewRomanPSMT-2e"/>
       <use x="75" xlink:href="#TimesNewRomanPSMT-31"/>
      </g>
     </g>
    </g>
    <g id="xtick_3">
     <g id="line2d_5">
      <path clip-path="url(#p86c6b6ba98)" d="M 118.009091 145.8 
L 118.009091 7.2 
" style="fill:none;stroke:#a9a9a9;stroke-dasharray:3.2,0.8,0.5,0.8;stroke-dashoffset:0;stroke-width:0.5;"/>
     </g>
     <g id="line2d_6">
      <g>
       <use style="stroke:#000000;stroke-width:0.8;" x="118.009091" xlink:href="#m72d54ed34d" y="145.8"/>
      </g>
     </g>
     <g id="text_3">
      <!-- 0.2 -->
      <g transform="translate(111.759091 159.74375)scale(0.1 -0.1)">
       <defs>
        <path d="M 2934 816 
L 2638 0 
L 138 0 
L 138 116 
Q 1241 1122 1691 1759 
Q 2141 2397 2141 2925 
Q 2141 3328 1894 3587 
Q 1647 3847 1303 3847 
Q 991 3847 742 3664 
Q 494 3481 375 3128 
L 259 3128 
Q 338 3706 661 4015 
Q 984 4325 1469 4325 
Q 1984 4325 2329 3994 
Q 2675 3663 2675 3213 
Q 2675 2891 2525 2569 
Q 2294 2063 1775 1497 
Q 997 647 803 472 
L 1909 472 
Q 2247 472 2383 497 
Q 2519 522 2628 598 
Q 2738 675 2819 816 
L 2934 816 
z
" id="TimesNewRomanPSMT-32" transform="scale(0.015625)"/>
       </defs>
       <use xlink:href="#TimesNewRomanPSMT-30"/>
       <use x="50" xlink:href="#TimesNewRomanPSMT-2e"/>
       <use x="75" xlink:href="#TimesNewRomanPSMT-32"/>
      </g>
     </g>
    </g>
    <g id="xtick_4">
     <g id="line2d_7">
      <path clip-path="url(#p86c6b6ba98)" d="M 158.590909 145.8 
L 158.590909 7.2 
" style="fill:none;stroke:#a9a9a9;stroke-dasharray:3.2,0.8,0.5,0.8;stroke-dashoffset:0;stroke-width:0.5;"/>
     </g>
     <g id="line2d_8">
      <g>
       <use style="stroke:#000000;stroke-width:0.8;" x="158.590909" xlink:href="#m72d54ed34d" y="145.8"/>
      </g>
     </g>
     <g id="text_4">
      <!-- 0.3 -->
      <g transform="translate(152.340909 159.74375)scale(0.1 -0.1)">
       <defs>
        <path d="M 325 3431 
Q 506 3859 782 4092 
Q 1059 4325 1472 4325 
Q 1981 4325 2253 3994 
Q 2459 3747 2459 3466 
Q 2459 3003 1878 2509 
Q 2269 2356 2469 2072 
Q 2669 1788 2669 1403 
Q 2669 853 2319 450 
Q 1863 -75 997 -75 
Q 569 -75 414 31 
Q 259 138 259 259 
Q 259 350 332 419 
Q 406 488 509 488 
Q 588 488 669 463 
Q 722 447 909 348 
Q 1097 250 1169 231 
Q 1284 197 1416 197 
Q 1734 197 1970 444 
Q 2206 691 2206 1028 
Q 2206 1275 2097 1509 
Q 2016 1684 1919 1775 
Q 1784 1900 1550 2001 
Q 1316 2103 1072 2103 
L 972 2103 
L 972 2197 
Q 1219 2228 1467 2375 
Q 1716 2522 1828 2728 
Q 1941 2934 1941 3181 
Q 1941 3503 1739 3701 
Q 1538 3900 1238 3900 
Q 753 3900 428 3381 
L 325 3431 
z
" id="TimesNewRomanPSMT-33" transform="scale(0.015625)"/>
       </defs>
       <use xlink:href="#TimesNewRomanPSMT-30"/>
       <use x="50" xlink:href="#TimesNewRomanPSMT-2e"/>
       <use x="75" xlink:href="#TimesNewRomanPSMT-33"/>
      </g>
     </g>
    </g>
    <g id="xtick_5">
     <g id="line2d_9">
      <path clip-path="url(#p86c6b6ba98)" d="M 199.172727 145.8 
L 199.172727 7.2 
" style="fill:none;stroke:#a9a9a9;stroke-dasharray:3.2,0.8,0.5,0.8;stroke-dashoffset:0;stroke-width:0.5;"/>
     </g>
     <g id="line2d_10">
      <g>
       <use style="stroke:#000000;stroke-width:0.8;" x="199.172727" xlink:href="#m72d54ed34d" y="145.8"/>
      </g>
     </g>
     <g id="text_5">
      <!-- 0.4 -->
      <g transform="translate(192.922727 159.74375)scale(0.1 -0.1)">
       <defs>
        <path d="M 2978 1563 
L 2978 1119 
L 2409 1119 
L 2409 0 
L 1894 0 
L 1894 1119 
L 100 1119 
L 100 1519 
L 2066 4325 
L 2409 4325 
L 2409 1563 
L 2978 1563 
z
M 1894 1563 
L 1894 3666 
L 406 1563 
L 1894 1563 
z
" id="TimesNewRomanPSMT-34" transform="scale(0.015625)"/>
       </defs>
       <use xlink:href="#TimesNewRomanPSMT-30"/>
       <use x="50" xlink:href="#TimesNewRomanPSMT-2e"/>
       <use x="75" xlink:href="#TimesNewRomanPSMT-34"/>
      </g>
     </g>
    </g>
    <g id="xtick_6">
     <g id="line2d_11">
      <path clip-path="url(#p86c6b6ba98)" d="M 239.754545 145.8 
L 239.754545 7.2 
" style="fill:none;stroke:#a9a9a9;stroke-dasharray:3.2,0.8,0.5,0.8;stroke-dashoffset:0;stroke-width:0.5;"/>
     </g>
     <g id="line2d_12">
      <g>
       <use style="stroke:#000000;stroke-width:0.8;" x="239.754545" xlink:href="#m72d54ed34d" y="145.8"/>
      </g>
     </g>
     <g id="text_6">
      <!-- 0.5 -->
      <g transform="translate(233.504545 159.74375)scale(0.1 -0.1)">
       <defs>
        <path d="M 2778 4238 
L 2534 3706 
L 1259 3706 
L 981 3138 
Q 1809 3016 2294 2522 
Q 2709 2097 2709 1522 
Q 2709 1188 2573 903 
Q 2438 619 2231 419 
Q 2025 219 1772 97 
Q 1413 -75 1034 -75 
Q 653 -75 479 54 
Q 306 184 306 341 
Q 306 428 378 495 
Q 450 563 559 563 
Q 641 563 702 538 
Q 763 513 909 409 
Q 1144 247 1384 247 
Q 1750 247 2026 523 
Q 2303 800 2303 1197 
Q 2303 1581 2056 1914 
Q 1809 2247 1375 2428 
Q 1034 2569 447 2591 
L 1259 4238 
L 2778 4238 
z
" id="TimesNewRomanPSMT-35" transform="scale(0.015625)"/>
       </defs>
       <use xlink:href="#TimesNewRomanPSMT-30"/>
       <use x="50" xlink:href="#TimesNewRomanPSMT-2e"/>
       <use x="75" xlink:href="#TimesNewRomanPSMT-35"/>
      </g>
     </g>
    </g>
    <g id="text_7">
     <!-- time [s] -->
     <g transform="translate(122.8875 172.826563)scale(0.1 -0.1)">
      <defs>
       <path d="M 1031 3803 
L 1031 2863 
L 1700 2863 
L 1700 2644 
L 1031 2644 
L 1031 788 
Q 1031 509 1111 412 
Q 1191 316 1316 316 
Q 1419 316 1516 380 
Q 1613 444 1666 569 
L 1788 569 
Q 1678 263 1478 108 
Q 1278 -47 1066 -47 
Q 922 -47 784 33 
Q 647 113 581 261 
Q 516 409 516 719 
L 516 2644 
L 63 2644 
L 63 2747 
Q 234 2816 414 2980 
Q 594 3144 734 3369 
Q 806 3488 934 3803 
L 1031 3803 
z
" id="TimesNewRomanPSMT-74" transform="scale(0.015625)"/>
       <path d="M 928 4444 
Q 1059 4444 1151 4351 
Q 1244 4259 1244 4128 
Q 1244 3997 1151 3903 
Q 1059 3809 928 3809 
Q 797 3809 703 3903 
Q 609 3997 609 4128 
Q 609 4259 701 4351 
Q 794 4444 928 4444 
z
M 1188 2947 
L 1188 647 
Q 1188 378 1227 289 
Q 1266 200 1342 156 
Q 1419 113 1622 113 
L 1622 0 
L 231 0 
L 231 113 
Q 441 113 512 153 
Q 584 194 626 287 
Q 669 381 669 647 
L 669 1750 
Q 669 2216 641 2353 
Q 619 2453 572 2492 
Q 525 2531 444 2531 
Q 356 2531 231 2484 
L 188 2597 
L 1050 2947 
L 1188 2947 
z
" id="TimesNewRomanPSMT-69" transform="scale(0.015625)"/>
       <path d="M 1050 2338 
Q 1363 2650 1419 2697 
Q 1559 2816 1721 2881 
Q 1884 2947 2044 2947 
Q 2313 2947 2506 2790 
Q 2700 2634 2766 2338 
Q 3088 2713 3309 2830 
Q 3531 2947 3766 2947 
Q 3994 2947 4170 2830 
Q 4347 2713 4450 2447 
Q 4519 2266 4519 1878 
L 4519 647 
Q 4519 378 4559 278 
Q 4591 209 4675 161 
Q 4759 113 4950 113 
L 4950 0 
L 3538 0 
L 3538 113 
L 3597 113 
Q 3781 113 3884 184 
Q 3956 234 3988 344 
Q 4000 397 4000 647 
L 4000 1878 
Q 4000 2228 3916 2372 
Q 3794 2572 3525 2572 
Q 3359 2572 3192 2489 
Q 3025 2406 2788 2181 
L 2781 2147 
L 2788 2013 
L 2788 647 
Q 2788 353 2820 281 
Q 2853 209 2943 161 
Q 3034 113 3253 113 
L 3253 0 
L 1806 0 
L 1806 113 
Q 2044 113 2133 169 
Q 2222 225 2256 338 
Q 2272 391 2272 647 
L 2272 1878 
Q 2272 2228 2169 2381 
Q 2031 2581 1784 2581 
Q 1616 2581 1450 2491 
Q 1191 2353 1050 2181 
L 1050 647 
Q 1050 366 1089 281 
Q 1128 197 1204 155 
Q 1281 113 1516 113 
L 1516 0 
L 100 0 
L 100 113 
Q 297 113 375 155 
Q 453 197 493 289 
Q 534 381 534 647 
L 534 1741 
Q 534 2213 506 2350 
Q 484 2453 437 2492 
Q 391 2531 309 2531 
Q 222 2531 100 2484 
L 53 2597 
L 916 2947 
L 1050 2947 
L 1050 2338 
z
" id="TimesNewRomanPSMT-6d" transform="scale(0.015625)"/>
       <path d="M 681 1784 
Q 678 1147 991 784 
Q 1303 422 1725 422 
Q 2006 422 2214 576 
Q 2422 731 2563 1106 
L 2659 1044 
Q 2594 616 2278 264 
Q 1963 -88 1488 -88 
Q 972 -88 605 314 
Q 238 716 238 1394 
Q 238 2128 614 2539 
Q 991 2950 1559 2950 
Q 2041 2950 2350 2633 
Q 2659 2316 2659 1784 
L 681 1784 
z
M 681 1966 
L 2006 1966 
Q 1991 2241 1941 2353 
Q 1863 2528 1708 2628 
Q 1553 2728 1384 2728 
Q 1125 2728 920 2526 
Q 716 2325 681 1966 
z
" id="TimesNewRomanPSMT-65" transform="scale(0.015625)"/>
       <path id="TimesNewRomanPSMT-20" transform="scale(0.015625)"/>
       <path d="M 1900 -1269 
L 525 -1269 
L 525 4334 
L 1900 4334 
L 1900 4088 
L 994 4088 
L 994 -1025 
L 1900 -1025 
L 1900 -1269 
z
" id="TimesNewRomanPSMT-5b" transform="scale(0.015625)"/>
       <path d="M 2050 2947 
L 2050 1972 
L 1947 1972 
Q 1828 2431 1642 2597 
Q 1456 2763 1169 2763 
Q 950 2763 815 2647 
Q 681 2531 681 2391 
Q 681 2216 781 2091 
Q 878 1963 1175 1819 
L 1631 1597 
Q 2266 1288 2266 781 
Q 2266 391 1970 151 
Q 1675 -88 1309 -88 
Q 1047 -88 709 6 
Q 606 38 541 38 
Q 469 38 428 -44 
L 325 -44 
L 325 978 
L 428 978 
Q 516 541 762 319 
Q 1009 97 1316 97 
Q 1531 97 1667 223 
Q 1803 350 1803 528 
Q 1803 744 1651 891 
Q 1500 1038 1047 1263 
Q 594 1488 453 1669 
Q 313 1847 313 2119 
Q 313 2472 555 2709 
Q 797 2947 1181 2947 
Q 1350 2947 1591 2875 
Q 1750 2828 1803 2828 
Q 1853 2828 1881 2850 
Q 1909 2872 1947 2947 
L 2050 2947 
z
" id="TimesNewRomanPSMT-73" transform="scale(0.015625)"/>
       <path d="M 234 4334 
L 1609 4334 
L 1609 -1272 
L 234 -1272 
L 234 -1025 
L 1141 -1025 
L 1141 4088 
L 234 4088 
L 234 4334 
z
" id="TimesNewRomanPSMT-5d" transform="scale(0.015625)"/>
      </defs>
      <use xlink:href="#TimesNewRomanPSMT-74"/>
      <use x="27.783203" xlink:href="#TimesNewRomanPSMT-69"/>
      <use x="55.566406" xlink:href="#TimesNewRomanPSMT-6d"/>
      <use x="133.349609" xlink:href="#TimesNewRomanPSMT-65"/>
      <use x="177.734375" xlink:href="#TimesNewRomanPSMT-20"/>
      <use x="202.734375" xlink:href="#TimesNewRomanPSMT-5b"/>
      <use x="236.035156" xlink:href="#TimesNewRomanPSMT-73"/>
      <use x="274.951172" xlink:href="#TimesNewRomanPSMT-5d"/>
     </g>
    </g>
   </g>
   <g id="matplotlib.axis_2">
    <g id="ytick_1">
     <g id="line2d_13">
      <path clip-path="url(#p86c6b6ba98)" d="M 26.7 128.475 
L 249.9 128.475 
" style="fill:none;stroke:#a9a9a9;stroke-dasharray:3.2,0.8,0.5,0.8;stroke-dashoffset:0;stroke-width:0.5;"/>
     </g>
     <g id="line2d_14">
      <defs>
       <path d="M 0 0 
L -3.5 0 
" id="m5433228316" style="stroke:#000000;stroke-width:0.8;"/>
      </defs>
      <g>
       <use style="stroke:#000000;stroke-width:0.8;" x="26.7" xlink:href="#m5433228316" y="128.475"/>
      </g>
     </g>
     <g id="text_8">
      <!-- 0.0 -->
      <g transform="translate(7.2 131.946875)scale(0.1 -0.1)">
       <use xlink:href="#TimesNewRomanPSMT-30"/>
       <use x="50" xlink:href="#TimesNewRomanPSMT-2e"/>
       <use x="75" xlink:href="#TimesNewRomanPSMT-30"/>
      </g>
     </g>
    </g>
    <g id="ytick_2">
     <g id="line2d_15">
      <path clip-path="url(#p86c6b6ba98)" d="M 26.7 93.825 
L 249.9 93.825 
" style="fill:none;stroke:#a9a9a9;stroke-dasharray:3.2,0.8,0.5,0.8;stroke-dashoffset:0;stroke-width:0.5;"/>
     </g>
     <g id="line2d_16">
      <g>
       <use style="stroke:#000000;stroke-width:0.8;" x="26.7" xlink:href="#m5433228316" y="93.825"/>
      </g>
     </g>
     <g id="text_9">
      <!-- 0.1 -->
      <g transform="translate(7.2 97.296875)scale(0.1 -0.1)">
       <use xlink:href="#TimesNewRomanPSMT-30"/>
       <use x="50" xlink:href="#TimesNewRomanPSMT-2e"/>
       <use x="75" xlink:href="#TimesNewRomanPSMT-31"/>
      </g>
     </g>
    </g>
    <g id="ytick_3">
     <g id="line2d_17">
      <path clip-path="url(#p86c6b6ba98)" d="M 26.7 59.175 
L 249.9 59.175 
" style="fill:none;stroke:#a9a9a9;stroke-dasharray:3.2,0.8,0.5,0.8;stroke-dashoffset:0;stroke-width:0.5;"/>
     </g>
     <g id="line2d_18">
      <g>
       <use style="stroke:#000000;stroke-width:0.8;" x="26.7" xlink:href="#m5433228316" y="59.175"/>
      </g>
     </g>
     <g id="text_10">
      <!-- 0.2 -->
      <g transform="translate(7.2 62.646875)scale(0.1 -0.1)">
       <use xlink:href="#TimesNewRomanPSMT-30"/>
       <use x="50" xlink:href="#TimesNewRomanPSMT-2e"/>
       <use x="75" xlink:href="#TimesNewRomanPSMT-32"/>
      </g>
     </g>
    </g>
    <g id="ytick_4">
     <g id="line2d_19">
      <path clip-path="url(#p86c6b6ba98)" d="M 26.7 24.525 
L 249.9 24.525 
" style="fill:none;stroke:#a9a9a9;stroke-dasharray:3.2,0.8,0.5,0.8;stroke-dashoffset:0;stroke-width:0.5;"/>
     </g>
     <g id="line2d_20">
      <g>
       <use style="stroke:#000000;stroke-width:0.8;" x="26.7" xlink:href="#m5433228316" y="24.525"/>
      </g>
     </g>
     <g id="text_11">
      <!-- 0.3 -->
      <g transform="translate(7.2 27.996875)scale(0.1 -0.1)">
       <use xlink:href="#TimesNewRomanPSMT-30"/>
       <use x="50" xlink:href="#TimesNewRomanPSMT-2e"/>
       <use x="75" xlink:href="#TimesNewRomanPSMT-33"/>
      </g>
     </g>
    </g>
   </g>
   <g id="line2d_21">
    <path clip-path="url(#p86c6b6ba98)" d="M 36.845455 41.383459 
L 37.251273 41.577277 
L 38.874545 41.596113 
L 39.280364 41.434554 
L 40.497818 41.738639 
L 42.121091 41.665827 
L 42.526909 41.956471 
L 42.932727 41.808271 
L 43.338545 41.905366 
L 43.744364 41.835202 
L 44.150182 41.647673 
L 44.556 41.605334 
L 44.961818 41.833106 
L 45.367636 41.488304 
L 45.773455 41.736532 
L 46.585091 41.800629 
L 46.990909 42.263416 
L 47.396727 41.626741 
L 47.802545 41.729479 
L 48.208364 42.118974 
L 48.614182 41.949914 
L 49.02 42.002553 
L 49.425818 41.884346 
L 50.237455 42.148653 
L 50.643273 41.742171 
L 51.049091 41.710644 
L 51.454909 42.269736 
L 51.860727 41.984549 
L 52.266545 41.856036 
L 52.672364 42.130793 
L 53.078182 40.975562 
L 53.484 41.974326 
L 53.889818 42.058229 
L 54.295636 41.499467 
L 54.701455 42.154229 
L 55.107273 42.07217 
L 55.513091 41.807661 
L 55.918909 42.00923 
L 56.324727 41.710437 
L 56.730545 42.379517 
L 57.542182 41.883071 
L 57.948 42.034313 
L 58.353818 41.818008 
L 58.759636 41.766138 
L 59.165455 42.053582 
L 59.977091 42.00939 
L 60.382909 42.074271 
L 60.788727 42.001423 
L 61.194545 41.805121 
L 62.006182 42.163719 
L 62.412 41.935596 
L 63.223636 42.077606 
L 63.629455 41.963199 
L 64.035273 42.003617 
L 64.441091 41.802746 
L 64.846909 41.901225 
L 65.252727 42.356329 
L 65.658545 42.171087 
L 66.064364 41.832455 
L 66.876 41.987523 
L 67.281818 41.853878 
L 68.499273 41.831309 
L 68.905091 41.609589 
L 69.310909 41.634682 
L 69.716727 42.040958 
L 70.122545 41.785501 
L 70.528364 42.024425 
L 70.934182 42.540771 
L 71.34 41.796034 
L 71.745818 41.669173 
L 72.151636 42.02125 
L 72.557455 41.879152 
L 72.963273 42.044231 
L 73.369091 41.693739 
L 73.774909 41.977445 
L 74.180727 41.369136 
L 74.586545 41.718162 
L 76.209818 41.601524 
L 76.615636 41.036808 
L 77.021455 41.620968 
L 77.427273 41.477213 
L 77.833091 42.167158 
L 78.238909 41.582523 
L 78.644727 41.456085 
L 79.050545 41.515586 
L 79.456364 41.43631 
L 80.268 41.636882 
L 81.079636 41.892793 
L 81.485455 41.583762 
L 81.891273 41.90977 
L 82.297091 41.63303 
L 82.702909 41.750008 
L 83.514545 41.737895 
L 83.920364 42.027513 
L 84.326182 41.844981 
L 84.732 42.012983 
L 85.137818 42.051826 
L 85.543636 41.692459 
L 85.949455 41.826239 
L 86.761091 41.389169 
L 87.166909 42.427505 
L 87.572727 41.989552 
L 88.384364 42.101709 
L 88.790182 41.619853 
L 89.601818 42.511784 
L 90.819273 41.307776 
L 91.225091 41.600594 
L 91.630909 42.067951 
L 92.036727 41.836493 
L 92.442545 41.760996 
L 92.848364 42.081515 
L 93.254182 41.85017 
L 93.66 41.948804 
L 94.065818 41.56218 
L 94.471636 42.053974 
L 95.283273 41.778613 
L 95.689091 42.062752 
L 96.094909 41.792616 
L 96.500727 42.00923 
L 96.906545 41.817761 
L 97.312364 42.376832 
L 97.718182 41.987626 
L 98.124 42.007118 
L 98.529818 41.718285 
L 98.935636 42.025489 
L 99.341455 42.035175 
L 99.747273 41.841728 
L 100.558909 41.795961 
L 100.964727 41.908009 
L 101.370545 41.901906 
L 101.776364 42.155453 
L 102.182182 41.949124 
L 102.993818 41.916544 
L 103.805455 42.21813 
L 105.022909 42.068246 
L 105.428727 42.194487 
L 105.834545 42.059391 
L 106.240364 42.107099 
L 106.646182 41.832455 
L 107.052 42.187935 
L 107.457818 42.202015 
L 107.863636 41.963597 
L 108.675273 42.067951 
L 109.081091 41.956198 
L 109.486909 42.123492 
L 109.892727 41.63967 
L 110.298545 41.739548 
L 110.704364 42.061828 
L 111.110182 41.787029 
L 111.516 41.747912 
L 111.921818 41.99848 
L 112.733455 42.02125 
L 113.545091 41.527493 
L 113.950909 41.693739 
L 114.356727 42.249259 
L 114.762545 41.887119 
L 115.168364 41.304347 
L 115.574182 41.949868 
L 115.98 41.619812 
L 116.385818 41.662553 
L 116.791636 41.38097 
L 117.603273 41.716323 
L 118.009091 41.53088 
L 118.414909 42.275793 
L 118.820727 41.503825 
L 119.226545 41.308963 
L 119.632364 41.57799 
L 120.444 41.53405 
L 121.255636 41.824628 
L 121.661455 41.547464 
L 122.878909 41.889767 
L 123.284727 41.76746 
L 123.690545 41.982783 
L 124.502182 41.850263 
L 124.908 41.648943 
L 125.313818 41.88921 
L 125.719636 41.978467 
L 126.125455 41.612284 
L 126.531273 42.304268 
L 126.937091 41.641952 
L 127.342909 41.33796 
L 127.748727 41.870348 
L 128.154545 41.689857 
L 128.560364 41.637976 
L 128.966182 41.867731 
L 129.372 41.61502 
L 130.183636 42.002553 
L 130.589455 41.613079 
L 130.995273 42.069872 
L 131.401091 42.33676 
L 131.806909 41.84527 
L 132.212727 41.700606 
L 132.618545 41.979252 
L 133.430182 41.519573 
L 133.836 42.556426 
L 134.241818 41.59603 
L 135.053455 42.062488 
L 135.459273 42.012188 
L 135.865091 41.77473 
L 137.082545 41.981751 
L 137.488364 42.238178 
L 137.894182 42.040271 
L 138.3 42.172708 
L 138.705818 41.295312 
L 139.111636 41.955614 
L 139.517455 42.09465 
L 139.923273 41.666849 
L 140.329091 41.682835 
L 141.140727 42.009674 
L 141.546545 41.823192 
L 141.952364 41.902614 
L 142.358182 41.768173 
L 142.764 42.076243 
L 143.169818 41.775639 
L 143.575636 42.034029 
L 145.198909 42.040488 
L 145.604727 42.246393 
L 146.010545 41.68458 
L 146.822182 42.190656 
L 147.228 41.884176 
L 147.633818 42.086415 
L 148.039636 41.748625 
L 148.851273 42.121515 
L 149.257091 42.199588 
L 149.662909 41.576709 
L 150.068727 42.364678 
L 150.474545 42.195974 
L 150.880364 41.739548 
L 151.286182 42.165919 
L 151.692 41.696176 
L 152.097818 41.969416 
L 152.503636 42.430845 
L 152.909455 41.74372 
L 153.315273 41.512695 
L 153.721091 43.012646 
L 154.126909 41.854714 
L 154.532727 41.452739 
L 154.938545 41.973025 
L 155.750182 42.084582 
L 156.156 41.828118 
L 156.561818 41.368847 
L 156.967636 41.416008 
L 157.779273 41.945654 
L 158.590909 41.437136 
L 160.214182 41.492507 
L 160.62 41.597032 
L 161.025818 41.52423 
L 161.431636 41.636882 
L 161.837455 41.525675 
L 162.243273 41.756607 
L 163.054909 41.527916 
L 164.272364 41.783828 
L 164.678182 41.700865 
L 165.084 41.806567 
L 165.489818 41.795579 
L 165.895636 41.584289 
L 166.301455 41.882136 
L 166.707273 41.68491 
L 167.518909 41.610869 
L 167.924727 41.821747 
L 168.330545 41.694194 
L 169.142182 41.653807 
L 169.548 42.330962 
L 169.953818 41.991881 
L 170.359636 41.820931 
L 170.765455 42.039657 
L 171.171273 41.753736 
L 171.577091 42.208035 
L 171.982909 42.288799 
L 172.388727 41.737121 
L 172.794545 41.84305 
L 173.200364 42.12201 
L 173.606182 42.065602 
L 174.012 41.430971 
L 174.417818 41.759065 
L 175.229455 42.001185 
L 175.635273 41.79244 
L 176.041091 41.378265 
L 176.446909 41.899727 
L 176.852727 41.46257 
L 177.258545 41.889876 
L 178.476 41.886602 
L 178.881818 41.976438 
L 179.287636 41.800928 
L 180.099273 42.378567 
L 180.505091 41.849174 
L 180.910909 41.947658 
L 181.722545 41.795961 
L 182.94 41.900182 
L 183.345818 42.07723 
L 183.751636 42.056654 
L 184.157455 41.880035 
L 184.563273 42.095688 
L 184.969091 41.829667 
L 185.374909 42.108168 
L 185.780727 41.938947 
L 186.186545 42.273366 
L 186.592364 41.764455 
L 186.998182 42.127969 
L 187.404 41.939995 
L 187.809818 42.160069 
L 188.215636 41.463159 
L 188.621455 42.059912 
L 189.027273 42.073311 
L 189.433091 42.336151 
L 190.244727 41.454454 
L 190.650545 41.86061 
L 191.462182 42.035929 
L 191.868 41.642282 
L 192.273818 41.734002 
L 192.679636 42.121097 
L 193.085455 42.140929 
L 193.491273 42.530682 
L 193.897091 41.451242 
L 194.302909 41.595782 
L 194.708727 41.999724 
L 195.114545 41.965941 
L 195.520364 42.358307 
L 195.926182 41.62133 
L 196.332 41.442506 
L 197.143636 41.610394 
L 197.549455 41.677599 
L 197.955273 41.294971 
L 198.361091 41.770331 
L 198.766909 41.719008 
L 199.172727 41.490803 
L 199.984364 41.872858 
L 200.390182 41.316233 
L 200.796 42.067456 
L 201.201818 41.544067 
L 201.607636 41.77757 
L 202.825091 41.837794 
L 203.230909 41.601906 
L 203.636727 41.781907 
L 205.26 41.770785 
L 205.665818 41.995227 
L 206.071636 41.936737 
L 206.477455 41.765436 
L 206.883273 41.830204 
L 207.289091 41.688411 
L 207.694909 42.057325 
L 208.100727 41.878909 
L 208.506545 41.969462 
L 208.912364 41.762287 
L 209.318182 41.909284 
L 209.724 41.653807 
L 210.129818 41.729479 
L 210.535636 41.996714 
L 210.941455 41.809076 
L 211.347273 41.753478 
L 211.753091 42.160642 
L 212.158909 41.655387 
L 212.564727 41.873431 
L 212.970545 41.284015 
L 213.376364 42.417865 
L 213.782182 41.831526 
L 214.188 41.61849 
L 214.593818 42.007335 
L 214.999636 41.763763 
L 215.405455 42.01574 
L 215.811273 42.404482 
L 216.217091 42.036115 
L 216.622909 42.274982 
L 217.028727 41.018665 
L 217.434545 42.066418 
L 217.840364 42.13987 
L 218.246182 42.336864 
L 218.652 41.993074 
L 219.057818 42.135636 
L 219.463636 41.388333 
L 219.869455 42.007118 
L 220.275273 42.019014 
L 220.681091 41.818008 
L 221.086909 42.057026 
L 221.492727 41.881439 
L 222.304364 42.151518 
L 222.710182 41.965569 
L 223.521818 41.880701 
L 223.927636 42.07723 
L 224.333455 41.784169 
L 225.145091 41.984002 
L 226.362545 41.991091 
L 227.174182 42.323031 
L 227.985818 41.712627 
L 228.391636 41.978756 
L 228.797455 41.899851 
L 229.609091 42.347175 
L 230.014909 41.870617 
L 230.420727 41.827354 
L 230.826545 42.078882 
L 231.232364 41.222644 
L 232.044 42.171562 
L 232.449818 41.780451 
L 232.855636 42.11661 
L 233.261455 41.639763 
L 234.073091 41.670536 
L 234.478909 41.878749 
L 234.884727 42.220417 
L 235.290545 42.004417 
L 235.696364 41.314354 
L 236.102182 42.6614 
L 236.508 41.617075 
L 236.913818 41.446574 
L 237.319636 41.824555 
L 237.725455 41.59889 
L 238.131273 41.909104 
L 238.537091 41.356693 
L 238.942909 41.528185 
L 239.348727 41.915103 
L 239.754545 41.662295 
L 239.754545 41.662295 
" style="fill:none;stroke:#1f77b4;stroke-linecap:square;stroke-width:1.5;"/>
   </g>
   <g id="line2d_22">
    <path clip-path="url(#p86c6b6ba98)" d="M 36.845455 128.584756 
L 37.251273 128.596394 
L 37.657091 128.360341 
L 38.468727 128.443699 
L 38.874545 128.326629 
L 39.280364 128.582775 
L 39.686182 129.092914 
L 40.092 128.635725 
L 40.497818 128.412538 
L 40.903636 128.488166 
L 41.309455 128.301107 
L 41.715273 128.487866 
L 42.121091 128.858727 
L 42.526909 128.638364 
L 42.932727 128.650972 
L 43.338545 128.435229 
L 44.150182 128.26245 
L 44.556 128.563565 
L 44.961818 128.36089 
L 45.367636 128.305014 
L 45.773455 128.651271 
L 46.179273 128.465201 
L 46.585091 128.555299 
L 46.990909 128.919742 
L 47.396727 128.658672 
L 48.208364 128.472452 
L 48.614182 128.923996 
L 49.02 128.517947 
L 49.831636 128.627454 
L 51.049091 128.539149 
L 52.266545 128.470702 
L 52.672364 128.55179 
L 53.078182 128.895717 
L 53.889818 128.448988 
L 54.295636 128.704788 
L 54.701455 128.362395 
L 55.513091 128.852803 
L 55.918909 128.479569 
L 56.324727 128.737847 
L 56.730545 128.07164 
L 57.136364 128.536514 
L 57.542182 128.453704 
L 57.948 127.958139 
L 58.353818 128.726788 
L 59.165455 127.968728 
L 59.571273 128.161677 
L 59.977091 128.557512 
L 60.382909 128.440905 
L 60.788727 128.66505 
L 61.194545 127.999028 
L 61.600364 129.670689 
L 62.006182 128.396753 
L 62.817818 128.848606 
L 63.223636 128.516817 
L 63.629455 128.493675 
L 64.035273 128.714333 
L 64.441091 128.200772 
L 65.252727 128.880449 
L 66.064364 128.30493 
L 66.876 128.679384 
L 67.281818 128.196212 
L 68.093455 128.47034 
L 68.499273 128.269516 
L 68.905091 128.298292 
L 69.310909 128.058654 
L 69.716727 128.350161 
L 70.122545 128.253819 
L 70.528364 128.373934 
L 70.934182 128.303475 
L 71.34 127.999702 
L 71.745818 128.327076 
L 72.963273 128.142261 
L 73.369091 128.281985 
L 73.774909 128.176947 
L 74.180727 128.268754 
L 74.586545 128.136473 
L 74.992364 128.129917 
L 75.398182 128.437851 
L 76.209818 128.106753 
L 76.615636 128.968428 
L 77.021455 128.452124 
L 77.427273 128.470585 
L 77.833091 127.78976 
L 78.644727 128.779588 
L 79.050545 128.823703 
L 79.862182 128.547597 
L 80.268 128.821648 
L 80.673818 128.080207 
L 81.079636 128.214361 
L 81.485455 128.83808 
L 81.891273 129.021233 
L 82.702909 128.491559 
L 83.514545 128.891982 
L 83.920364 129.228232 
L 84.326182 128.766152 
L 84.732 129.04268 
L 85.137818 128.315558 
L 85.543636 128.617603 
L 85.949455 128.771467 
L 86.761091 128.292831 
L 87.166909 129.14626 
L 87.572727 129.024678 
L 87.978545 128.618892 
L 88.384364 128.690939 
L 88.790182 128.488524 
L 89.196 128.986404 
L 89.601818 128.584166 
L 92.442545 128.43158 
L 93.254182 128.604423 
L 94.065818 128.752121 
L 94.471636 128.451733 
L 94.877455 128.665367 
L 95.283273 128.712557 
L 95.689091 128.493315 
L 96.094909 128.705266 
L 96.500727 128.479569 
L 96.906545 128.636325 
L 97.312364 128.075937 
L 97.718182 128.511526 
L 98.124 128.715839 
L 98.529818 128.691263 
L 99.341455 128.105397 
L 99.747273 128.499007 
L 100.153091 128.327459 
L 100.558909 128.867911 
L 101.370545 128.433445 
L 101.776364 128.526255 
L 102.182182 128.961872 
L 102.588 128.981466 
L 102.993818 128.480819 
L 103.399636 128.200951 
L 103.805455 128.552572 
L 104.211273 128.660865 
L 105.428727 128.495205 
L 105.834545 128.648327 
L 106.240364 128.659896 
L 106.646182 128.30493 
L 107.052 128.530993 
L 107.863636 128.28755 
L 108.269455 128.257453 
L 108.675273 128.624072 
L 109.081091 128.338677 
L 109.486909 128.398805 
L 109.892727 128.059568 
L 110.298545 128.117066 
L 111.110182 128.458713 
L 111.921818 128.141781 
L 112.733455 128.254124 
L 113.139273 127.939063 
L 113.950909 128.281985 
L 114.356727 128.089559 
L 114.762545 128.20134 
L 115.168364 128.613109 
L 115.574182 128.286405 
L 115.98 128.575559 
L 116.385818 128.28058 
L 116.791636 128.288066 
L 117.197455 128.477299 
L 117.603273 128.352657 
L 118.009091 128.605288 
L 118.414909 127.423627 
L 118.820727 128.490086 
L 119.226545 128.782215 
L 119.632364 128.689805 
L 120.038182 128.464182 
L 120.444 128.688261 
L 120.849818 128.683485 
L 121.255636 127.514558 
L 121.661455 128.888815 
L 122.067273 129.057958 
L 122.473091 128.518413 
L 122.878909 128.758174 
L 123.284727 128.633246 
L 123.690545 128.778675 
L 124.096364 129.195364 
L 124.502182 128.680182 
L 124.908 128.615397 
L 125.313818 128.779886 
L 126.125455 128.24954 
L 126.531273 129.215992 
L 126.937091 128.537792 
L 127.342909 128.427669 
L 127.748727 128.7965 
L 128.560364 128.510256 
L 128.966182 128.390208 
L 129.372 128.486993 
L 129.777818 129.008257 
L 130.183636 128.517947 
L 130.589455 128.517043 
L 131.806909 128.763883 
L 132.212727 128.540491 
L 132.618545 128.487638 
L 133.024364 128.687025 
L 133.430182 128.640546 
L 133.836 128.470944 
L 134.241818 128.47656 
L 134.647636 128.66226 
L 135.053455 128.446243 
L 135.865091 128.715814 
L 136.676727 128.474176 
L 137.488364 128.242598 
L 138.3 128.28764 
L 138.705818 129.255739 
L 139.111636 128.08316 
L 139.517455 128.227243 
L 139.923273 128.884208 
L 140.329091 128.896716 
L 140.734909 128.57361 
L 141.140727 128.552454 
L 141.546545 128.391616 
L 142.358182 128.573841 
L 142.764 128.740966 
L 143.169818 128.345102 
L 143.575636 128.392217 
L 144.387273 128.097102 
L 144.793091 128.769911 
L 145.198909 128.462145 
L 145.604727 128.852279 
L 146.010545 128.363079 
L 146.416364 128.155825 
L 146.822182 128.775649 
L 147.228 128.167172 
L 147.633818 128.423676 
L 148.039636 128.101621 
L 148.445455 128.144949 
L 149.257091 128.555772 
L 149.662909 128.129663 
L 150.068727 128.373278 
L 150.474545 128.417969 
L 150.880364 128.117066 
L 151.286182 128.220044 
L 152.503636 128.169324 
L 153.315273 128.156879 
L 153.721091 128.035996 
L 154.126909 128.308478 
L 154.938545 128.17942 
L 155.344364 128.295842 
L 156.156 128.206533 
L 156.561818 128.583103 
L 156.967636 128.30015 
L 157.779273 127.943203 
L 158.185091 128.452124 
L 158.590909 128.71946 
L 159.402545 128.485363 
L 159.808364 128.15558 
L 160.214182 128.572682 
L 160.62 128.321646 
L 161.025818 128.306478 
L 161.431636 128.821648 
L 161.837455 129.066295 
L 162.243273 128.265909 
L 162.649091 128.553185 
L 163.054909 128.231529 
L 163.460727 128.482969 
L 163.866545 128.575354 
L 164.272364 129.105897 
L 164.678182 128.231258 
L 165.084 128.544276 
L 165.489818 128.637516 
L 165.895636 128.129014 
L 166.301455 129.068694 
L 166.707273 128.366642 
L 167.113091 128.53652 
L 167.518909 128.296158 
L 167.924727 128.569569 
L 168.330545 128.982079 
L 168.736364 128.463056 
L 169.142182 128.363963 
L 169.548 128.989838 
L 169.953818 128.548884 
L 170.359636 128.862813 
L 170.765455 128.808302 
L 171.171273 128.562177 
L 171.577091 128.663385 
L 172.794545 128.549896 
L 173.200364 128.488081 
L 173.606182 128.668684 
L 174.417818 128.490838 
L 174.823636 128.652387 
L 175.229455 128.476073 
L 175.635273 128.553271 
L 176.041091 128.759158 
L 176.446909 128.502426 
L 176.852727 128.870421 
L 177.258545 128.477894 
L 178.070182 128.34735 
L 178.476 128.594753 
L 178.881818 128.123491 
L 179.287636 128.564339 
L 179.693455 128.341712 
L 180.099273 127.979674 
L 180.505091 128.502177 
L 180.910909 128.233868 
L 181.316727 128.709244 
L 182.128364 129.054517 
L 182.94 128.508823 
L 183.345818 128.745936 
L 183.751636 128.757913 
L 184.157455 128.192638 
L 184.563273 128.476877 
L 184.969091 128.061347 
L 185.374909 128.524958 
L 185.780727 128.200614 
L 186.186545 128.606428 
L 186.592364 128.241332 
L 186.998182 128.518137 
L 187.404 128.428391 
L 187.809818 128.501207 
L 188.215636 127.941151 
L 188.621455 128.395759 
L 189.027273 128.378888 
L 189.433091 128.65655 
L 190.244727 128.207626 
L 191.462182 128.349562 
L 191.868 128.217608 
L 192.273818 128.319638 
L 193.085455 128.151186 
L 193.491273 128.328743 
L 195.520364 128.188358 
L 196.332 128.407991 
L 196.737818 128.201562 
L 197.143636 128.430863 
L 197.955273 128.525024 
L 198.361091 128.282495 
L 198.766909 128.348361 
L 199.172727 128.854163 
L 199.578545 128.481161 
L 199.984364 128.387747 
L 200.390182 129.034191 
L 200.796 127.657945 
L 201.201818 128.454216 
L 201.607636 128.7636 
L 202.013455 128.644354 
L 202.419273 128.307472 
L 202.825091 128.63909 
L 203.636727 128.513443 
L 204.042545 128.691823 
L 204.854182 128.593856 
L 205.26 129.025796 
L 205.665818 128.711465 
L 207.289091 128.370311 
L 207.694909 128.872175 
L 208.100727 128.623791 
L 208.506545 128.916092 
L 208.912364 128.69577 
L 209.318182 128.79074 
L 209.724 128.363964 
L 210.129818 128.605507 
L 210.535636 128.550416 
L 210.941455 128.716145 
L 211.347273 128.556741 
L 211.753091 128.695781 
L 212.158909 128.519664 
L 212.564727 128.50824 
L 212.970545 128.690206 
L 214.188 128.440103 
L 215.405455 128.369147 
L 215.811273 128.347463 
L 216.217091 128.595632 
L 216.622909 128.48121 
L 217.028727 128.98439 
L 217.434545 128.489821 
L 217.840364 128.454607 
L 218.246182 128.211527 
L 218.652 128.297034 
L 219.057818 128.145656 
L 219.463636 129.030655 
L 220.275273 128.457286 
L 220.681091 128.726789 
L 221.086909 128.361335 
L 221.492727 128.743102 
L 222.304364 128.513323 
L 222.710182 129.006556 
L 223.116 128.443553 
L 223.521818 128.788697 
L 223.927636 128.745936 
L 224.333455 128.487605 
L 224.739273 128.617699 
L 225.550909 128.614876 
L 225.956727 128.634005 
L 226.362545 128.333509 
L 226.768364 128.593562 
L 227.174182 128.996769 
L 227.58 128.272928 
L 228.391636 128.280651 
L 228.797455 128.220837 
L 229.203273 128.49649 
L 229.609091 128.273952 
L 230.420727 128.47034 
L 230.826545 128.553431 
L 231.232364 128.114744 
L 232.044 128.394097 
L 232.449818 128.253538 
L 232.855636 128.262007 
L 233.261455 128.057312 
L 233.667273 128.246241 
L 234.073091 128.071214 
L 234.478909 128.262647 
L 234.884727 128.004184 
L 235.290545 128.278365 
L 235.696364 128.246684 
L 236.102182 127.956005 
L 236.508 128.308369 
L 236.913818 128.404984 
L 237.319636 128.354792 
L 237.725455 128.134482 
L 238.131273 128.261011 
L 238.537091 128.141766 
L 238.942909 128.332811 
L 239.348727 128.140835 
L 239.754545 128.246699 
L 239.754545 128.246699 
" style="fill:none;stroke:#ff7f0e;stroke-linecap:square;stroke-width:1.5;"/>
   </g>
   <g id="patch_3">
    <path d="M 26.7 145.8 
L 26.7 7.2 
" style="fill:none;stroke:#000000;stroke-linecap:square;stroke-linejoin:miter;stroke-width:0.8;"/>
   </g>
   <g id="patch_4">
    <path d="M 249.9 145.8 
L 249.9 7.2 
" style="fill:none;stroke:#000000;stroke-linecap:square;stroke-linejoin:miter;stroke-width:0.8;"/>
   </g>
   <g id="patch_5">
    <path d="M 26.7 145.8 
L 249.9 145.8 
" style="fill:none;stroke:#000000;stroke-linecap:square;stroke-linejoin:miter;stroke-width:0.8;"/>
   </g>
   <g id="patch_6">
    <path d="M 26.7 7.2 
L 249.9 7.2 
" style="fill:none;stroke:#000000;stroke-linecap:square;stroke-linejoin:miter;stroke-width:0.8;"/>
   </g>
   <g id="legend_1">
    <g id="patch_7">
     <path d="M 203.6 92.469531 
L 242.9 92.469531 
Q 244.9 92.469531 244.9 90.469531 
L 244.9 62.530469 
Q 244.9 60.530469 242.9 60.530469 
L 203.6 60.530469 
Q 201.6 60.530469 201.6 62.530469 
L 201.6 90.469531 
Q 201.6 92.469531 203.6 92.469531 
z
" style="fill:#ffffff;opacity:0.8;stroke:#cccccc;stroke-linejoin:miter;"/>
    </g>
    <g id="line2d_23">
     <path d="M 205.6 68.030469 
L 225.6 68.030469 
" style="fill:none;stroke:#1f77b4;stroke-linecap:square;stroke-width:1.5;"/>
    </g>
    <g id="line2d_24"/>
    <g id="text_12">
     <!-- $I_{d}$ -->
     <g transform="translate(233.6 71.530469)scale(0.1 -0.1)">
      <defs>
       <path d="M 2458 4179 
L 2458 4077 
Q 2189 4045 2102 3961 
Q 2016 3878 1933 3584 
L 1165 838 
Q 1069 499 1069 352 
Q 1069 224 1149 179 
Q 1229 134 1510 102 
L 1510 0 
L -51 0 
L -51 102 
Q 218 154 317 237 
Q 416 320 486 582 
L 1254 3405 
Q 1338 3699 1338 3802 
Q 1338 3930 1235 3997 
Q 1133 4064 877 4077 
L 877 4179 
L 2458 4179 
z
" id="STIXGeneral-Italic-49" transform="scale(0.015625)"/>
       <path d="M 3334 4371 
L 3373 4333 
L 3123 3360 
L 2739 1958 
Q 2323 429 2323 384 
Q 2323 256 2438 256 
Q 2522 256 2614 336 
Q 2707 416 2963 710 
L 3040 646 
Q 2547 -83 2099 -83 
Q 1978 -83 1907 -6 
Q 1837 70 1837 205 
Q 1837 397 1920 774 
Q 1645 307 1379 118 
Q 1114 -70 781 -70 
Q 461 -70 278 125 
Q 96 320 96 678 
Q 96 1440 713 2131 
Q 1331 2822 1965 2822 
Q 2163 2822 2256 2732 
Q 2349 2643 2381 2451 
L 2387 2451 
L 2675 3494 
Q 2765 3808 2765 3949 
Q 2765 4051 2694 4076 
Q 2624 4102 2355 4115 
L 2355 4224 
Q 2848 4269 3334 4371 
z
M 2278 2310 
Q 2278 2477 2185 2576 
Q 2093 2675 1978 2675 
Q 1677 2675 1395 2381 
Q 1075 2042 864 1571 
Q 653 1101 653 704 
Q 653 486 752 361 
Q 851 237 1024 237 
Q 1312 237 1606 550 
Q 1901 864 2089 1350 
Q 2278 1837 2278 2310 
z
" id="STIXGeneral-Italic-64" transform="scale(0.015625)"/>
      </defs>
      <use transform="translate(0 0.703125)" xlink:href="#STIXGeneral-Italic-49"/>
      <use transform="translate(33.299988 -12.525)scale(0.7)" xlink:href="#STIXGeneral-Italic-64"/>
     </g>
    </g>
    <g id="line2d_25">
     <path d="M 205.6 82.169531 
L 225.6 82.169531 
" style="fill:none;stroke:#ff7f0e;stroke-linecap:square;stroke-width:1.5;"/>
    </g>
    <g id="line2d_26"/>
    <g id="text_13">
     <!-- $I_{q}$ -->
     <g transform="translate(233.6 85.669531)scale(0.1 -0.1)">
      <defs>
       <path d="M 3098 2739 
L 2042 -966 
Q 2029 -1018 2029 -1037 
Q 2029 -1235 2394 -1235 
L 2490 -1235 
L 2490 -1338 
L 973 -1338 
L 973 -1235 
Q 1267 -1216 1382 -1139 
Q 1498 -1062 1555 -877 
L 2131 979 
Q 1754 378 1466 154 
Q 1178 -70 800 -70 
Q 499 -70 329 128 
Q 160 326 160 672 
Q 160 1165 445 1670 
Q 730 2176 1168 2499 
Q 1606 2822 2035 2822 
Q 2438 2822 2528 2426 
L 2630 2739 
L 3098 2739 
z
M 2432 2298 
Q 2432 2458 2323 2570 
Q 2214 2682 2054 2682 
Q 1792 2682 1459 2368 
Q 1133 2054 921 1606 
Q 710 1158 710 762 
Q 710 269 1050 269 
Q 1312 269 1574 499 
Q 1901 781 2166 1341 
Q 2432 1901 2432 2298 
z
" id="STIXGeneral-Italic-71" transform="scale(0.015625)"/>
      </defs>
      <use transform="translate(0 0.703125)" xlink:href="#STIXGeneral-Italic-49"/>
      <use transform="translate(33.299988 -12.525)scale(0.7)" xlink:href="#STIXGeneral-Italic-71"/>
     </g>
    </g>
   </g>
  </g>
 </g>
 <defs>
  <clipPath id="p86c6b6ba98">
   <rect height="138.6" width="223.2" x="26.7" y="7.2"/>
  </clipPath>
 </defs>
</svg>
