<?xml version="1.0" encoding="utf-8" standalone="no"?>
<!DOCTYPE svg PUBLIC "-//W3C//DTD SVG 1.1//EN"
  "http://www.w3.org/Graphics/SVG/1.1/DTD/svg11.dtd">
<svg height="182.165625pt" version="1.1" viewBox="0 0 255.239062 182.165625" width="255.239062pt" xmlns="http://www.w3.org/2000/svg" xmlns:xlink="http://www.w3.org/1999/xlink">
 <metadata>
  <rdf:RDF xmlns:cc="http://creativecommons.org/ns#" xmlns:dc="http://purl.org/dc/elements/1.1/" xmlns:rdf="http://www.w3.org/1999/02/22-rdf-syntax-ns#">
   <cc:Work>
    <dc:type rdf:resource="http://purl.org/dc/dcmitype/StillImage"/>
    <dc:date>2022-02-27T13:30:25.108530</dc:date>
    <dc:format>image/svg+xml</dc:format>
    <dc:creator>
     <cc:Agent>
      <dc:title>Matplotlib v3.4.3, https://matplotlib.org/</dc:title>
     </cc:Agent>
    </dc:creator>
   </cc:Work>
  </rdf:RDF>
 </metadata>
 <defs>
  <style type="text/css">*{stroke-linecap:butt;stroke-linejoin:round;}</style>
 </defs>
 <g id="figure_1">
  <g id="patch_1">
   <path d="M 0 182.165625 
L 255.239062 182.165625 
L 255.239062 0 
L 0 0 
z
" style="fill:#ffffff;"/>
  </g>
  <g id="axes_1">
   <g id="patch_2">
    <path d="M 24.839063 145.8 
L 248.039062 145.8 
L 248.039062 7.2 
L 24.839063 7.2 
z
" style="fill:#ffffff;"/>
   </g>
   <g id="matplotlib.axis_1">
    <g id="xtick_1">
     <g id="line2d_1">
      <path clip-path="url(#p4f806f9f6a)" d="M 34.984517 145.8 
L 34.984517 7.2 
" style="fill:none;stroke:#a9a9a9;stroke-dasharray:3.2,0.8,0.5,0.8;stroke-dashoffset:0;stroke-width:0.5;"/>
     </g>
     <g id="line2d_2">
      <defs>
       <path d="M 0 0 
L 0 3.5 
" id="m58f25e40b6" style="stroke:#000000;stroke-width:0.8;"/>
      </defs>
      <g>
       <use style="stroke:#000000;stroke-width:0.8;" x="34.984517" xlink:href="#m58f25e40b6" y="145.8"/>
      </g>
     </g>
     <g id="text_1">
      <!-- 0.0 -->
      <g transform="translate(28.734517 159.74375)scale(0.1 -0.1)">
       <defs>
        <path d="M 231 2094 
Q 231 2819 450 3342 
Q 669 3866 1031 4122 
Q 1313 4325 1613 4325 
Q 2100 4325 2488 3828 
Q 2972 3213 2972 2159 
Q 2972 1422 2759 906 
Q 2547 391 2217 158 
Q 1888 -75 1581 -75 
Q 975 -75 572 641 
Q 231 1244 231 2094 
z
M 844 2016 
Q 844 1141 1059 588 
Q 1238 122 1591 122 
Q 1759 122 1940 273 
Q 2122 425 2216 781 
Q 2359 1319 2359 2297 
Q 2359 3022 2209 3506 
Q 2097 3866 1919 4016 
Q 1791 4119 1609 4119 
Q 1397 4119 1231 3928 
Q 1006 3669 925 3112 
Q 844 2556 844 2016 
z
" id="TimesNewRomanPSMT-30" transform="scale(0.015625)"/>
        <path d="M 800 606 
Q 947 606 1047 504 
Q 1147 403 1147 259 
Q 1147 116 1045 14 
Q 944 -88 800 -88 
Q 656 -88 554 14 
Q 453 116 453 259 
Q 453 406 554 506 
Q 656 606 800 606 
z
" id="TimesNewRomanPSMT-2e" transform="scale(0.015625)"/>
       </defs>
       <use xlink:href="#TimesNewRomanPSMT-30"/>
       <use x="50" xlink:href="#TimesNewRomanPSMT-2e"/>
       <use x="75" xlink:href="#TimesNewRomanPSMT-30"/>
      </g>
     </g>
    </g>
    <g id="xtick_2">
     <g id="line2d_3">
      <path clip-path="url(#p4f806f9f6a)" d="M 75.566335 145.8 
L 75.566335 7.2 
" style="fill:none;stroke:#a9a9a9;stroke-dasharray:3.2,0.8,0.5,0.8;stroke-dashoffset:0;stroke-width:0.5;"/>
     </g>
     <g id="line2d_4">
      <g>
       <use style="stroke:#000000;stroke-width:0.8;" x="75.566335" xlink:href="#m58f25e40b6" y="145.8"/>
      </g>
     </g>
     <g id="text_2">
      <!-- 0.1 -->
      <g transform="translate(69.316335 159.74375)scale(0.1 -0.1)">
       <defs>
        <path d="M 750 3822 
L 1781 4325 
L 1884 4325 
L 1884 747 
Q 1884 391 1914 303 
Q 1944 216 2037 169 
Q 2131 122 2419 116 
L 2419 0 
L 825 0 
L 825 116 
Q 1125 122 1212 167 
Q 1300 213 1334 289 
Q 1369 366 1369 747 
L 1369 3034 
Q 1369 3497 1338 3628 
Q 1316 3728 1258 3775 
Q 1200 3822 1119 3822 
Q 1003 3822 797 3725 
L 750 3822 
z
" id="TimesNewRomanPSMT-31" transform="scale(0.015625)"/>
       </defs>
       <use xlink:href="#TimesNewRomanPSMT-30"/>
       <use x="50" xlink:href="#TimesNewRomanPSMT-2e"/>
       <use x="75" xlink:href="#TimesNewRomanPSMT-31"/>
      </g>
     </g>
    </g>
    <g id="xtick_3">
     <g id="line2d_5">
      <path clip-path="url(#p4f806f9f6a)" d="M 116.148153 145.8 
L 116.148153 7.2 
" style="fill:none;stroke:#a9a9a9;stroke-dasharray:3.2,0.8,0.5,0.8;stroke-dashoffset:0;stroke-width:0.5;"/>
     </g>
     <g id="line2d_6">
      <g>
       <use style="stroke:#000000;stroke-width:0.8;" x="116.148153" xlink:href="#m58f25e40b6" y="145.8"/>
      </g>
     </g>
     <g id="text_3">
      <!-- 0.2 -->
      <g transform="translate(109.898153 159.74375)scale(0.1 -0.1)">
       <defs>
        <path d="M 2934 816 
L 2638 0 
L 138 0 
L 138 116 
Q 1241 1122 1691 1759 
Q 2141 2397 2141 2925 
Q 2141 3328 1894 3587 
Q 1647 3847 1303 3847 
Q 991 3847 742 3664 
Q 494 3481 375 3128 
L 259 3128 
Q 338 3706 661 4015 
Q 984 4325 1469 4325 
Q 1984 4325 2329 3994 
Q 2675 3663 2675 3213 
Q 2675 2891 2525 2569 
Q 2294 2063 1775 1497 
Q 997 647 803 472 
L 1909 472 
Q 2247 472 2383 497 
Q 2519 522 2628 598 
Q 2738 675 2819 816 
L 2934 816 
z
" id="TimesNewRomanPSMT-32" transform="scale(0.015625)"/>
       </defs>
       <use xlink:href="#TimesNewRomanPSMT-30"/>
       <use x="50" xlink:href="#TimesNewRomanPSMT-2e"/>
       <use x="75" xlink:href="#TimesNewRomanPSMT-32"/>
      </g>
     </g>
    </g>
    <g id="xtick_4">
     <g id="line2d_7">
      <path clip-path="url(#p4f806f9f6a)" d="M 156.729972 145.8 
L 156.729972 7.2 
" style="fill:none;stroke:#a9a9a9;stroke-dasharray:3.2,0.8,0.5,0.8;stroke-dashoffset:0;stroke-width:0.5;"/>
     </g>
     <g id="line2d_8">
      <g>
       <use style="stroke:#000000;stroke-width:0.8;" x="156.729972" xlink:href="#m58f25e40b6" y="145.8"/>
      </g>
     </g>
     <g id="text_4">
      <!-- 0.3 -->
      <g transform="translate(150.479972 159.74375)scale(0.1 -0.1)">
       <defs>
        <path d="M 325 3431 
Q 506 3859 782 4092 
Q 1059 4325 1472 4325 
Q 1981 4325 2253 3994 
Q 2459 3747 2459 3466 
Q 2459 3003 1878 2509 
Q 2269 2356 2469 2072 
Q 2669 1788 2669 1403 
Q 2669 853 2319 450 
Q 1863 -75 997 -75 
Q 569 -75 414 31 
Q 259 138 259 259 
Q 259 350 332 419 
Q 406 488 509 488 
Q 588 488 669 463 
Q 722 447 909 348 
Q 1097 250 1169 231 
Q 1284 197 1416 197 
Q 1734 197 1970 444 
Q 2206 691 2206 1028 
Q 2206 1275 2097 1509 
Q 2016 1684 1919 1775 
Q 1784 1900 1550 2001 
Q 1316 2103 1072 2103 
L 972 2103 
L 972 2197 
Q 1219 2228 1467 2375 
Q 1716 2522 1828 2728 
Q 1941 2934 1941 3181 
Q 1941 3503 1739 3701 
Q 1538 3900 1238 3900 
Q 753 3900 428 3381 
L 325 3431 
z
" id="TimesNewRomanPSMT-33" transform="scale(0.015625)"/>
       </defs>
       <use xlink:href="#TimesNewRomanPSMT-30"/>
       <use x="50" xlink:href="#TimesNewRomanPSMT-2e"/>
       <use x="75" xlink:href="#TimesNewRomanPSMT-33"/>
      </g>
     </g>
    </g>
    <g id="xtick_5">
     <g id="line2d_9">
      <path clip-path="url(#p4f806f9f6a)" d="M 197.31179 145.8 
L 197.31179 7.2 
" style="fill:none;stroke:#a9a9a9;stroke-dasharray:3.2,0.8,0.5,0.8;stroke-dashoffset:0;stroke-width:0.5;"/>
     </g>
     <g id="line2d_10">
      <g>
       <use style="stroke:#000000;stroke-width:0.8;" x="197.31179" xlink:href="#m58f25e40b6" y="145.8"/>
      </g>
     </g>
     <g id="text_5">
      <!-- 0.4 -->
      <g transform="translate(191.06179 159.74375)scale(0.1 -0.1)">
       <defs>
        <path d="M 2978 1563 
L 2978 1119 
L 2409 1119 
L 2409 0 
L 1894 0 
L 1894 1119 
L 100 1119 
L 100 1519 
L 2066 4325 
L 2409 4325 
L 2409 1563 
L 2978 1563 
z
M 1894 1563 
L 1894 3666 
L 406 1563 
L 1894 1563 
z
" id="TimesNewRomanPSMT-34" transform="scale(0.015625)"/>
       </defs>
       <use xlink:href="#TimesNewRomanPSMT-30"/>
       <use x="50" xlink:href="#TimesNewRomanPSMT-2e"/>
       <use x="75" xlink:href="#TimesNewRomanPSMT-34"/>
      </g>
     </g>
    </g>
    <g id="xtick_6">
     <g id="line2d_11">
      <path clip-path="url(#p4f806f9f6a)" d="M 237.893608 145.8 
L 237.893608 7.2 
" style="fill:none;stroke:#a9a9a9;stroke-dasharray:3.2,0.8,0.5,0.8;stroke-dashoffset:0;stroke-width:0.5;"/>
     </g>
     <g id="line2d_12">
      <g>
       <use style="stroke:#000000;stroke-width:0.8;" x="237.893608" xlink:href="#m58f25e40b6" y="145.8"/>
      </g>
     </g>
     <g id="text_6">
      <!-- 0.5 -->
      <g transform="translate(231.643608 159.74375)scale(0.1 -0.1)">
       <defs>
        <path d="M 2778 4238 
L 2534 3706 
L 1259 3706 
L 981 3138 
Q 1809 3016 2294 2522 
Q 2709 2097 2709 1522 
Q 2709 1188 2573 903 
Q 2438 619 2231 419 
Q 2025 219 1772 97 
Q 1413 -75 1034 -75 
Q 653 -75 479 54 
Q 306 184 306 341 
Q 306 428 378 495 
Q 450 563 559 563 
Q 641 563 702 538 
Q 763 513 909 409 
Q 1144 247 1384 247 
Q 1750 247 2026 523 
Q 2303 800 2303 1197 
Q 2303 1581 2056 1914 
Q 1809 2247 1375 2428 
Q 1034 2569 447 2591 
L 1259 4238 
L 2778 4238 
z
" id="TimesNewRomanPSMT-35" transform="scale(0.015625)"/>
       </defs>
       <use xlink:href="#TimesNewRomanPSMT-30"/>
       <use x="50" xlink:href="#TimesNewRomanPSMT-2e"/>
       <use x="75" xlink:href="#TimesNewRomanPSMT-35"/>
      </g>
     </g>
    </g>
    <g id="text_7">
     <!-- time [s] -->
     <g transform="translate(121.026563 172.826563)scale(0.1 -0.1)">
      <defs>
       <path d="M 1031 3803 
L 1031 2863 
L 1700 2863 
L 1700 2644 
L 1031 2644 
L 1031 788 
Q 1031 509 1111 412 
Q 1191 316 1316 316 
Q 1419 316 1516 380 
Q 1613 444 1666 569 
L 1788 569 
Q 1678 263 1478 108 
Q 1278 -47 1066 -47 
Q 922 -47 784 33 
Q 647 113 581 261 
Q 516 409 516 719 
L 516 2644 
L 63 2644 
L 63 2747 
Q 234 2816 414 2980 
Q 594 3144 734 3369 
Q 806 3488 934 3803 
L 1031 3803 
z
" id="TimesNewRomanPSMT-74" transform="scale(0.015625)"/>
       <path d="M 928 4444 
Q 1059 4444 1151 4351 
Q 1244 4259 1244 4128 
Q 1244 3997 1151 3903 
Q 1059 3809 928 3809 
Q 797 3809 703 3903 
Q 609 3997 609 4128 
Q 609 4259 701 4351 
Q 794 4444 928 4444 
z
M 1188 2947 
L 1188 647 
Q 1188 378 1227 289 
Q 1266 200 1342 156 
Q 1419 113 1622 113 
L 1622 0 
L 231 0 
L 231 113 
Q 441 113 512 153 
Q 584 194 626 287 
Q 669 381 669 647 
L 669 1750 
Q 669 2216 641 2353 
Q 619 2453 572 2492 
Q 525 2531 444 2531 
Q 356 2531 231 2484 
L 188 2597 
L 1050 2947 
L 1188 2947 
z
" id="TimesNewRomanPSMT-69" transform="scale(0.015625)"/>
       <path d="M 1050 2338 
Q 1363 2650 1419 2697 
Q 1559 2816 1721 2881 
Q 1884 2947 2044 2947 
Q 2313 2947 2506 2790 
Q 2700 2634 2766 2338 
Q 3088 2713 3309 2830 
Q 3531 2947 3766 2947 
Q 3994 2947 4170 2830 
Q 4347 2713 4450 2447 
Q 4519 2266 4519 1878 
L 4519 647 
Q 4519 378 4559 278 
Q 4591 209 4675 161 
Q 4759 113 4950 113 
L 4950 0 
L 3538 0 
L 3538 113 
L 3597 113 
Q 3781 113 3884 184 
Q 3956 234 3988 344 
Q 4000 397 4000 647 
L 4000 1878 
Q 4000 2228 3916 2372 
Q 3794 2572 3525 2572 
Q 3359 2572 3192 2489 
Q 3025 2406 2788 2181 
L 2781 2147 
L 2788 2013 
L 2788 647 
Q 2788 353 2820 281 
Q 2853 209 2943 161 
Q 3034 113 3253 113 
L 3253 0 
L 1806 0 
L 1806 113 
Q 2044 113 2133 169 
Q 2222 225 2256 338 
Q 2272 391 2272 647 
L 2272 1878 
Q 2272 2228 2169 2381 
Q 2031 2581 1784 2581 
Q 1616 2581 1450 2491 
Q 1191 2353 1050 2181 
L 1050 647 
Q 1050 366 1089 281 
Q 1128 197 1204 155 
Q 1281 113 1516 113 
L 1516 0 
L 100 0 
L 100 113 
Q 297 113 375 155 
Q 453 197 493 289 
Q 534 381 534 647 
L 534 1741 
Q 534 2213 506 2350 
Q 484 2453 437 2492 
Q 391 2531 309 2531 
Q 222 2531 100 2484 
L 53 2597 
L 916 2947 
L 1050 2947 
L 1050 2338 
z
" id="TimesNewRomanPSMT-6d" transform="scale(0.015625)"/>
       <path d="M 681 1784 
Q 678 1147 991 784 
Q 1303 422 1725 422 
Q 2006 422 2214 576 
Q 2422 731 2563 1106 
L 2659 1044 
Q 2594 616 2278 264 
Q 1963 -88 1488 -88 
Q 972 -88 605 314 
Q 238 716 238 1394 
Q 238 2128 614 2539 
Q 991 2950 1559 2950 
Q 2041 2950 2350 2633 
Q 2659 2316 2659 1784 
L 681 1784 
z
M 681 1966 
L 2006 1966 
Q 1991 2241 1941 2353 
Q 1863 2528 1708 2628 
Q 1553 2728 1384 2728 
Q 1125 2728 920 2526 
Q 716 2325 681 1966 
z
" id="TimesNewRomanPSMT-65" transform="scale(0.015625)"/>
       <path id="TimesNewRomanPSMT-20" transform="scale(0.015625)"/>
       <path d="M 1900 -1269 
L 525 -1269 
L 525 4334 
L 1900 4334 
L 1900 4088 
L 994 4088 
L 994 -1025 
L 1900 -1025 
L 1900 -1269 
z
" id="TimesNewRomanPSMT-5b" transform="scale(0.015625)"/>
       <path d="M 2050 2947 
L 2050 1972 
L 1947 1972 
Q 1828 2431 1642 2597 
Q 1456 2763 1169 2763 
Q 950 2763 815 2647 
Q 681 2531 681 2391 
Q 681 2216 781 2091 
Q 878 1963 1175 1819 
L 1631 1597 
Q 2266 1288 2266 781 
Q 2266 391 1970 151 
Q 1675 -88 1309 -88 
Q 1047 -88 709 6 
Q 606 38 541 38 
Q 469 38 428 -44 
L 325 -44 
L 325 978 
L 428 978 
Q 516 541 762 319 
Q 1009 97 1316 97 
Q 1531 97 1667 223 
Q 1803 350 1803 528 
Q 1803 744 1651 891 
Q 1500 1038 1047 1263 
Q 594 1488 453 1669 
Q 313 1847 313 2119 
Q 313 2472 555 2709 
Q 797 2947 1181 2947 
Q 1350 2947 1591 2875 
Q 1750 2828 1803 2828 
Q 1853 2828 1881 2850 
Q 1909 2872 1947 2947 
L 2050 2947 
z
" id="TimesNewRomanPSMT-73" transform="scale(0.015625)"/>
       <path d="M 234 4334 
L 1609 4334 
L 1609 -1272 
L 234 -1272 
L 234 -1025 
L 1141 -1025 
L 1141 4088 
L 234 4088 
L 234 4334 
z
" id="TimesNewRomanPSMT-5d" transform="scale(0.015625)"/>
      </defs>
      <use xlink:href="#TimesNewRomanPSMT-74"/>
      <use x="27.783203" xlink:href="#TimesNewRomanPSMT-69"/>
      <use x="55.566406" xlink:href="#TimesNewRomanPSMT-6d"/>
      <use x="133.349609" xlink:href="#TimesNewRomanPSMT-65"/>
      <use x="177.734375" xlink:href="#TimesNewRomanPSMT-20"/>
      <use x="202.734375" xlink:href="#TimesNewRomanPSMT-5b"/>
      <use x="236.035156" xlink:href="#TimesNewRomanPSMT-73"/>
      <use x="274.951172" xlink:href="#TimesNewRomanPSMT-5d"/>
     </g>
    </g>
   </g>
   <g id="matplotlib.axis_2">
    <g id="ytick_1">
     <g id="line2d_13">
      <path clip-path="url(#p4f806f9f6a)" d="M 24.839063 145.8 
L 248.039062 145.8 
" style="fill:none;stroke:#a9a9a9;stroke-dasharray:3.2,0.8,0.5,0.8;stroke-dashoffset:0;stroke-width:0.5;"/>
     </g>
     <g id="line2d_14">
      <defs>
       <path d="M 0 0 
L -3.5 0 
" id="m087ffdde98" style="stroke:#000000;stroke-width:0.8;"/>
      </defs>
      <g>
       <use style="stroke:#000000;stroke-width:0.8;" x="24.839063" xlink:href="#m087ffdde98" y="145.8"/>
      </g>
     </g>
     <g id="text_8">
      <!-- −4 -->
      <g transform="translate(7.2 149.271875)scale(0.1 -0.1)">
       <defs>
        <path d="M 3484 2000 
L 116 2000 
L 116 2256 
L 3484 2256 
L 3484 2000 
z
" id="TimesNewRomanPSMT-2212" transform="scale(0.015625)"/>
       </defs>
       <use xlink:href="#TimesNewRomanPSMT-2212"/>
       <use x="56.396484" xlink:href="#TimesNewRomanPSMT-34"/>
      </g>
     </g>
    </g>
    <g id="ytick_2">
     <g id="line2d_15">
      <path clip-path="url(#p4f806f9f6a)" d="M 24.839063 113.188235 
L 248.039062 113.188235 
" style="fill:none;stroke:#a9a9a9;stroke-dasharray:3.2,0.8,0.5,0.8;stroke-dashoffset:0;stroke-width:0.5;"/>
     </g>
     <g id="line2d_16">
      <g>
       <use style="stroke:#000000;stroke-width:0.8;" x="24.839063" xlink:href="#m087ffdde98" y="113.188235"/>
      </g>
     </g>
     <g id="text_9">
      <!-- 0 -->
      <g transform="translate(12.839063 116.66011)scale(0.1 -0.1)">
       <use xlink:href="#TimesNewRomanPSMT-30"/>
      </g>
     </g>
    </g>
    <g id="ytick_3">
     <g id="line2d_17">
      <path clip-path="url(#p4f806f9f6a)" d="M 24.839063 80.576471 
L 248.039062 80.576471 
" style="fill:none;stroke:#a9a9a9;stroke-dasharray:3.2,0.8,0.5,0.8;stroke-dashoffset:0;stroke-width:0.5;"/>
     </g>
     <g id="line2d_18">
      <g>
       <use style="stroke:#000000;stroke-width:0.8;" x="24.839063" xlink:href="#m087ffdde98" y="80.576471"/>
      </g>
     </g>
     <g id="text_10">
      <!-- 4 -->
      <g transform="translate(12.839063 84.048346)scale(0.1 -0.1)">
       <use xlink:href="#TimesNewRomanPSMT-34"/>
      </g>
     </g>
    </g>
    <g id="ytick_4">
     <g id="line2d_19">
      <path clip-path="url(#p4f806f9f6a)" d="M 24.839063 47.964706 
L 248.039062 47.964706 
" style="fill:none;stroke:#a9a9a9;stroke-dasharray:3.2,0.8,0.5,0.8;stroke-dashoffset:0;stroke-width:0.5;"/>
     </g>
     <g id="line2d_20">
      <g>
       <use style="stroke:#000000;stroke-width:0.8;" x="24.839063" xlink:href="#m087ffdde98" y="47.964706"/>
      </g>
     </g>
     <g id="text_11">
      <!-- 8 -->
      <g transform="translate(12.839063 51.436581)scale(0.1 -0.1)">
       <defs>
        <path d="M 1228 2134 
Q 725 2547 579 2797 
Q 434 3047 434 3316 
Q 434 3728 753 4026 
Q 1072 4325 1600 4325 
Q 2113 4325 2425 4047 
Q 2738 3769 2738 3413 
Q 2738 3175 2569 2928 
Q 2400 2681 1866 2347 
Q 2416 1922 2594 1678 
Q 2831 1359 2831 1006 
Q 2831 559 2490 242 
Q 2150 -75 1597 -75 
Q 994 -75 656 303 
Q 388 606 388 966 
Q 388 1247 577 1523 
Q 766 1800 1228 2134 
z
M 1719 2469 
Q 2094 2806 2194 3001 
Q 2294 3197 2294 3444 
Q 2294 3772 2109 3958 
Q 1925 4144 1606 4144 
Q 1288 4144 1088 3959 
Q 888 3775 888 3528 
Q 888 3366 970 3203 
Q 1053 3041 1206 2894 
L 1719 2469 
z
M 1375 2016 
Q 1116 1797 991 1539 
Q 866 1281 866 981 
Q 866 578 1086 336 
Q 1306 94 1647 94 
Q 1984 94 2187 284 
Q 2391 475 2391 747 
Q 2391 972 2272 1150 
Q 2050 1481 1375 2016 
z
" id="TimesNewRomanPSMT-38" transform="scale(0.015625)"/>
       </defs>
       <use xlink:href="#TimesNewRomanPSMT-38"/>
      </g>
     </g>
    </g>
    <g id="ytick_5">
     <g id="line2d_21">
      <path clip-path="url(#p4f806f9f6a)" d="M 24.839063 15.352941 
L 248.039062 15.352941 
" style="fill:none;stroke:#a9a9a9;stroke-dasharray:3.2,0.8,0.5,0.8;stroke-dashoffset:0;stroke-width:0.5;"/>
     </g>
     <g id="line2d_22">
      <g>
       <use style="stroke:#000000;stroke-width:0.8;" x="24.839063" xlink:href="#m087ffdde98" y="15.352941"/>
      </g>
     </g>
     <g id="text_12">
      <!-- 12 -->
      <g transform="translate(7.839063 18.824816)scale(0.1 -0.1)">
       <use xlink:href="#TimesNewRomanPSMT-31"/>
       <use x="50" xlink:href="#TimesNewRomanPSMT-32"/>
      </g>
     </g>
    </g>
   </g>
   <g id="line2d_23">
    <path clip-path="url(#p4f806f9f6a)" d="M 34.984517 30.495879 
L 35.390335 30.673948 
L 36.60779 31.719556 
L 37.013608 32.150017 
L 37.419426 32.812445 
L 39.042699 33.502771 
L 39.854335 34.226157 
L 40.260153 34.30964 
L 40.665972 34.065209 
L 41.07179 34.259839 
L 41.477608 34.178821 
L 41.883426 34.310713 
L 42.695062 34.847298 
L 43.100881 34.552686 
L 43.506699 35.15348 
L 43.912517 35.046889 
L 44.724153 35.108873 
L 45.129972 34.689189 
L 45.53579 35.63658 
L 45.941608 35.489744 
L 46.347426 34.997197 
L 46.753244 35.181339 
L 47.159062 34.991436 
L 47.564881 35.073574 
L 47.970699 34.718245 
L 48.376517 34.646145 
L 48.782335 35.302788 
L 49.188153 35.247498 
L 49.593972 34.284145 
L 49.99979 34.713331 
L 50.405608 34.883142 
L 50.811426 34.537758 
L 51.217244 36.333141 
L 51.623063 34.657372 
L 52.028881 34.424503 
L 52.434699 35.328042 
L 52.840517 34.160689 
L 53.246335 34.12738 
L 53.652153 34.515458 
L 54.057972 33.855736 
L 54.46379 34.11508 
L 54.869608 32.872766 
L 55.275426 33.029476 
L 55.681244 33.336419 
L 56.087062 33.227232 
L 56.898699 33.27508 
L 57.304517 32.9589 
L 57.710335 33.043456 
L 58.92779 32.914464 
L 59.333608 33.119023 
L 59.739426 32.799624 
L 60.145244 32.140586 
L 60.551063 32.224823 
L 60.956881 31.787543 
L 61.362699 31.515704 
L 61.768517 31.395064 
L 62.174335 30.933813 
L 62.580153 31.044353 
L 62.985972 30.577947 
L 63.39179 29.591649 
L 63.797608 29.592955 
L 64.203426 29.711007 
L 65.015062 28.931025 
L 65.420881 28.829247 
L 65.826699 28.562664 
L 66.232517 28.448454 
L 66.638335 28.032361 
L 67.044153 28.388234 
L 67.449972 28.163607 
L 67.85579 27.395972 
L 68.261608 27.573878 
L 68.667426 27.23207 
L 69.073244 26.347939 
L 69.479062 27.513262 
L 69.884881 27.394332 
L 70.290699 27.047563 
L 70.696517 27.285797 
L 71.102335 27.042206 
L 71.508153 27.673665 
L 71.913972 27.255132 
L 72.31979 28.336373 
L 72.725608 28.090419 
L 73.131426 28.30881 
L 73.537244 28.350276 
L 74.348881 29.245044 
L 74.754699 30.327631 
L 75.160517 29.857181 
L 75.566335 30.431166 
L 75.972153 29.665319 
L 76.377972 30.917523 
L 77.595426 32.388041 
L 78.001244 32.450328 
L 78.407062 32.854711 
L 79.218699 33.025946 
L 79.624517 33.765652 
L 80.030335 33.531368 
L 80.436153 34.168457 
L 80.841972 34.142394 
L 81.24779 34.396155 
L 81.653608 34.312555 
L 82.059426 34.027266 
L 82.465244 34.293257 
L 82.871062 34.088216 
L 83.276881 34.199045 
L 83.682699 34.75468 
L 84.088517 34.727303 
L 84.900153 35.612554 
L 85.305972 34.428795 
L 85.71179 35.019162 
L 86.523426 35.109892 
L 86.929244 35.65489 
L 87.740881 34.377347 
L 88.146699 34.669128 
L 88.958335 35.891359 
L 89.364153 35.389669 
L 89.769972 34.634233 
L 90.581608 35.110833 
L 90.987426 34.631457 
L 91.393244 34.849911 
L 91.799062 34.930602 
L 92.204881 35.384257 
L 92.610699 34.498819 
L 93.422335 34.721176 
L 93.828153 34.145349 
L 94.233972 34.422661 
L 94.63979 33.801014 
L 95.045608 34.02351 
L 95.451426 32.960463 
L 95.857244 33.262523 
L 96.263062 33.104064 
L 96.668881 33.570392 
L 97.074699 32.992419 
L 97.480517 32.990576 
L 97.886335 33.232122 
L 98.697972 33.353128 
L 99.10379 33.1745 
L 99.509608 33.136347 
L 99.915426 32.647618 
L 100.321244 32.779245 
L 101.132881 32.322706 
L 101.944517 31.352463 
L 102.350335 31.134103 
L 102.756153 30.783408 
L 103.161972 30.661033 
L 103.56779 30.083153 
L 103.973608 30.038866 
L 104.379426 29.658524 
L 104.785244 29.734721 
L 105.191062 28.901308 
L 105.596881 28.655726 
L 106.002699 28.727469 
L 107.220153 27.789975 
L 107.625972 27.667406 
L 108.03179 28.197492 
L 108.437608 27.94307 
L 108.843426 27.329813 
L 109.249244 27.37753 
L 109.655062 27.621346 
L 110.060881 27.252301 
L 110.466699 27.052003 
L 110.872517 27.122167 
L 111.684153 27.838617 
L 112.089972 27.768329 
L 112.49579 26.897268 
L 112.901608 27.601122 
L 113.307426 28.60986 
L 113.713244 28.053937 
L 114.119062 28.688538 
L 114.524881 28.730027 
L 114.930699 29.472019 
L 115.742335 29.741517 
L 116.148153 30.405041 
L 116.553972 29.515653 
L 116.95979 31.113537 
L 117.365608 31.723708 
L 117.771426 31.78944 
L 118.177244 32.09262 
L 118.583062 32.636204 
L 119.394699 32.833804 
L 119.800517 33.559243 
L 120.206335 33.594845 
L 120.612153 33.778411 
L 121.017972 33.794024 
L 121.42379 34.129145 
L 121.829608 33.934499 
L 122.641244 34.215862 
L 123.047062 34.557981 
L 123.452881 34.253922 
L 123.858699 34.23139 
L 124.264517 34.819346 
L 124.670335 33.966013 
L 125.076153 34.992937 
L 125.481972 35.671996 
L 125.88779 35.021347 
L 126.699426 35.635149 
L 127.105244 35.297097 
L 127.511062 35.648056 
L 128.322699 35.021114 
L 128.728517 35.595915 
L 129.134335 34.861994 
L 129.540153 34.416316 
L 129.945972 35.011263 
L 130.35179 35.174154 
L 130.757608 34.641021 
L 131.569244 35.378667 
L 131.975062 33.902139 
L 132.380881 35.169909 
L 132.786699 34.863657 
L 133.192517 34.379804 
L 133.598335 34.459414 
L 134.004153 34.715834 
L 134.409972 34.593296 
L 134.81579 34.307797 
L 135.627426 33.492002 
L 136.033244 33.446268 
L 136.439062 33.112974 
L 136.844881 34.275421 
L 137.250699 33.162464 
L 137.656517 32.909729 
L 138.062335 33.44172 
L 138.468153 33.489607 
L 139.27979 33.002325 
L 139.685608 33.265183 
L 140.091426 33.066921 
L 140.497244 33.189669 
L 140.903062 32.571848 
L 141.308881 32.709796 
L 141.714699 32.083446 
L 142.526335 31.660767 
L 143.74379 30.376778 
L 144.149608 30.887363 
L 144.555426 30.26207 
L 144.961244 29.415182 
L 145.367063 29.741074 
L 145.772881 29.062815 
L 146.178699 29.230473 
L 147.396153 27.72562 
L 147.801972 28.538141 
L 148.20779 27.357275 
L 148.613608 27.355448 
L 149.019426 27.900516 
L 149.425244 27.215237 
L 149.831062 27.71807 
L 150.236881 27.312528 
L 150.642699 26.294484 
L 151.048517 27.448852 
L 151.454335 27.934393 
L 151.860153 25.558797 
L 152.265972 27.298743 
L 152.67179 27.886972 
L 153.077608 27.409634 
L 153.483426 27.663379 
L 153.889244 27.508092 
L 154.295062 28.060865 
L 154.700881 29.00251 
L 155.106699 29.241187 
L 155.918335 28.8487 
L 156.324153 29.855012 
L 156.729972 30.462578 
L 159.976517 33.319897 
L 160.382335 33.261209 
L 161.193972 34.066943 
L 162.005608 34.403549 
L 162.411426 34.287706 
L 162.817244 34.391078 
L 163.223062 34.290233 
L 163.628881 34.367721 
L 164.034699 34.719932 
L 164.440517 34.445893 
L 164.846335 34.846427 
L 165.657972 35.21223 
L 166.06379 34.946876 
L 166.469608 35.308728 
L 167.281244 35.626441 
L 167.687062 34.711449 
L 168.092881 35.157585 
L 168.498699 35.264371 
L 168.904517 35.162849 
L 169.310335 35.302236 
L 169.716153 34.526577 
L 170.121972 34.421253 
L 170.52779 35.146047 
L 170.933608 35.032855 
L 171.339426 34.501362 
L 171.745244 34.670256 
L 172.151062 35.527252 
L 172.556881 34.938867 
L 173.368517 34.525831 
L 174.180153 35.364391 
L 174.585972 34.586283 
L 174.99179 35.09239 
L 175.397608 34.178883 
L 176.209244 34.034901 
L 177.020881 33.24244 
L 177.426699 33.44018 
L 177.832517 32.85248 
L 178.238335 32.522778 
L 178.644153 33.161056 
L 179.049972 33.086779 
L 179.861608 33.385372 
L 181.079062 33.026234 
L 181.484881 32.529232 
L 181.890699 32.334679 
L 182.296517 32.371464 
L 182.702335 31.738613 
L 183.108153 31.89883 
L 183.513972 31.196484 
L 183.91979 31.087926 
L 184.325608 30.230191 
L 184.731426 30.750892 
L 185.137244 29.994648 
L 185.543062 29.901772 
L 185.948881 29.293989 
L 186.354699 29.827845 
L 186.760517 28.881162 
L 187.166335 28.625753 
L 187.572153 27.852154 
L 187.977972 28.388499 
L 188.38379 28.669069 
L 188.789608 28.001035 
L 189.601244 27.266413 
L 190.007062 27.858802 
L 190.412881 27.636352 
L 190.818699 26.989957 
L 191.224517 26.988674 
L 191.630335 26.221583 
L 192.036153 28.009059 
L 192.441972 27.701338 
L 192.84779 27.200689 
L 193.253608 27.170964 
L 193.659426 26.633679 
L 194.065244 28.051589 
L 194.471062 28.377847 
L 194.876881 28.40373 
L 195.688517 28.88599 
L 196.094335 29.614531 
L 196.500153 29.332873 
L 196.905972 29.74909 
L 197.31179 30.346975 
L 197.717608 30.568057 
L 198.123426 30.516655 
L 198.529244 31.6811 
L 198.935062 31.011075 
L 199.340881 32.159674 
L 199.746699 32.165389 
L 200.964153 33.192017 
L 201.369972 33.762456 
L 201.77579 33.811619 
L 202.181608 34.048687 
L 203.399062 34.358958 
L 203.804881 34.123819 
L 204.210699 34.243884 
L 204.616517 34.511509 
L 205.022335 34.438717 
L 205.428153 34.727645 
L 205.833972 34.360358 
L 206.23979 34.712118 
L 206.645608 34.813787 
L 207.051426 35.383145 
L 207.457244 35.142175 
L 207.863062 35.670884 
L 208.268881 35.706899 
L 208.674699 35.149141 
L 209.080517 35.541379 
L 209.486335 35.522081 
L 209.892153 34.827254 
L 210.297972 35.333096 
L 210.70379 35.044362 
L 211.109608 35.881803 
L 211.515426 34.286664 
L 211.921244 34.834788 
L 212.327062 35.137455 
L 212.732881 34.801899 
L 213.138699 34.956377 
L 213.544517 34.583189 
L 213.950335 33.898539 
L 214.356153 34.38838 
L 214.761972 34.064214 
L 215.16779 36.122307 
L 215.573608 34.25711 
L 216.385244 33.441455 
L 216.791062 33.75105 
L 217.196881 33.278883 
L 217.602699 34.242874 
L 218.008517 33.104826 
L 218.414335 33.043611 
L 218.820153 33.26044 
L 219.225972 32.895454 
L 219.63179 33.222675 
L 220.443426 32.844884 
L 220.849244 33.027493 
L 221.660881 33.001866 
L 222.066699 32.576707 
L 222.472517 32.7808 
L 223.284153 31.893527 
L 223.689972 31.669973 
L 224.09579 31.298301 
L 224.501608 31.088369 
L 225.313244 29.889363 
L 226.124881 30.207767 
L 226.530699 29.458202 
L 226.936517 29.277 
L 227.748153 28.070094 
L 228.153972 28.421194 
L 228.55979 28.421994 
L 228.965608 27.881475 
L 229.371426 28.880136 
L 229.777244 27.898207 
L 230.183062 27.243717 
L 230.588881 27.603999 
L 230.994699 27.112907 
L 231.400517 27.758688 
L 232.212153 27.546478 
L 232.617972 27.357267 
L 233.02379 26.757578 
L 233.429608 27.143977 
L 233.835426 28.207164 
L 234.241244 26.226341 
L 234.647062 27.97676 
L 235.052881 28.525226 
L 235.458699 28.210655 
L 235.864517 28.753407 
L 236.270335 28.360648 
L 236.676153 29.657443 
L 237.081972 29.69013 
L 237.48779 29.467991 
L 237.893608 30.169583 
L 237.893608 30.169583 
" style="fill:none;stroke:#1f77b4;stroke-linecap:square;stroke-width:1.5;"/>
   </g>
   <g id="line2d_24">
    <path clip-path="url(#p4f806f9f6a)" d="M 34.984517 111.977215 
L 35.390335 112.106841 
L 35.796153 112.494367 
L 36.201972 112.413474 
L 37.013608 112.57453 
L 37.825244 111.318119 
L 38.231063 111.827631 
L 38.636881 112.03759 
L 39.448517 112.011257 
L 40.260153 110.90778 
L 40.665972 110.865286 
L 41.07179 110.663258 
L 41.477608 110.770562 
L 41.883426 110.486446 
L 42.289244 110.593767 
L 42.695062 110.052623 
L 43.100881 110.191791 
L 43.506699 110.148272 
L 43.912517 109.567184 
L 44.318335 109.628092 
L 44.724153 109.189104 
L 45.129972 108.565108 
L 45.53579 108.600969 
L 45.941608 108.459361 
L 46.347426 108.481338 
L 46.753244 107.572391 
L 47.159062 108.179862 
L 47.564881 107.811805 
L 49.188153 107.357464 
L 49.593972 107.33149 
L 49.99979 107.081625 
L 50.405608 107.057408 
L 50.811426 106.808298 
L 51.217244 106.11285 
L 51.623063 106.41492 
L 52.028881 106.496669 
L 52.434699 106.081555 
L 52.840517 106.449353 
L 53.652153 105.416967 
L 54.057972 106.005125 
L 54.46379 105.578516 
L 54.869608 106.555424 
L 55.275426 105.891756 
L 55.681244 105.894903 
L 56.087062 106.430386 
L 56.492881 105.444578 
L 56.898699 105.945569 
L 57.304517 106.249335 
L 57.710335 105.837709 
L 58.116153 105.143345 
L 58.521972 105.090554 
L 58.92779 104.474656 
L 59.333608 105.301269 
L 59.739426 102.577244 
L 60.145244 104.405403 
L 60.551063 104.04063 
L 60.956881 103.287834 
L 61.362699 103.981854 
L 61.768517 103.871643 
L 62.174335 103.329275 
L 62.580153 104.1953 
L 62.985972 103.852748 
L 63.39179 103.214965 
L 63.797608 103.782912 
L 64.203426 104.120789 
L 64.609244 104.110265 
L 65.015062 103.915176 
L 65.420881 104.729565 
L 66.232517 104.747985 
L 66.638335 105.119056 
L 67.044153 105.333968 
L 67.449972 105.867614 
L 67.85579 105.712386 
L 68.261608 106.101085 
L 68.667426 106.320394 
L 69.073244 106.747941 
L 69.479062 107.561322 
L 69.884881 107.561323 
L 71.102335 109.312519 
L 71.508153 109.552306 
L 71.913972 110.212955 
L 72.31979 110.536178 
L 72.725608 111.137941 
L 73.131426 111.494215 
L 73.537244 111.421902 
L 74.348881 111.997784 
L 74.754699 111.207644 
L 75.160517 112.137026 
L 75.566335 112.176726 
L 75.972153 113.389828 
L 76.377972 112.529028 
L 76.78379 111.978047 
L 77.189608 111.808277 
L 77.595426 111.970702 
L 78.001244 112.276603 
L 78.407062 111.674451 
L 78.812881 112.682147 
L 79.218699 112.337679 
L 79.624517 111.333941 
L 80.030335 111.0522 
L 80.436153 111.041929 
L 80.841972 111.211929 
L 81.24779 111.013325 
L 82.059426 109.57079 
L 82.465244 109.974177 
L 82.871062 109.464708 
L 83.276881 110.471663 
L 83.682699 109.803528 
L 84.088517 109.565058 
L 84.494335 109.550119 
L 84.900153 109.870739 
L 85.305972 108.560412 
L 85.71179 108.257735 
L 86.117608 108.616045 
L 86.523426 108.409748 
L 86.929244 108.458298 
L 87.335062 107.519134 
L 87.740881 108.05537 
L 88.146699 107.837414 
L 89.364153 107.647804 
L 90.581608 107.294832 
L 91.393244 106.751912 
L 92.204881 106.201123 
L 92.610699 106.522092 
L 93.422335 105.943772 
L 93.828153 106.136634 
L 94.233972 105.778915 
L 94.63979 106.069749 
L 95.045608 105.69277 
L 95.451426 106.553732 
L 95.857244 105.89373 
L 96.263062 105.557674 
L 96.668881 105.387756 
L 97.074699 106.001958 
L 97.480517 106.167298 
L 97.886335 105.62719 
L 98.292153 105.698534 
L 98.697972 104.638723 
L 99.509608 104.732229 
L 99.915426 104.599991 
L 100.321244 103.716108 
L 100.727062 103.173909 
L 101.132881 104.16425 
L 101.538699 104.439652 
L 102.350335 103.598504 
L 102.756153 103.581585 
L 103.161972 103.758043 
L 104.379426 103.657528 
L 104.785244 104.213014 
L 105.191062 103.998779 
L 106.408517 104.896615 
L 106.814335 104.565935 
L 107.220153 105.001632 
L 107.625972 105.182522 
L 108.03179 105.930666 
L 108.437608 106.140868 
L 108.843426 106.057914 
L 109.249244 106.148722 
L 110.466699 107.860765 
L 110.872517 108.122943 
L 111.278335 109.152192 
L 112.089972 109.591185 
L 112.49579 110.39022 
L 112.901608 110.567941 
L 113.307426 110.480012 
L 113.713244 111.197578 
L 114.119062 111.03186 
L 114.524881 111.760971 
L 115.336517 111.942837 
L 115.742335 112.268569 
L 116.148153 111.860609 
L 116.553972 113.789111 
L 116.95979 112.276065 
L 117.365608 112.023959 
L 117.771426 112.043236 
L 118.177244 112.506327 
L 118.583062 111.903806 
L 118.988881 111.815867 
L 119.394699 113.502492 
L 119.800517 111.418856 
L 120.206335 111.005764 
L 120.612153 111.770343 
L 121.017972 111.157429 
L 121.42379 111.058253 
L 121.829608 110.597039 
L 122.235426 109.855636 
L 122.641244 110.312406 
L 123.047062 110.170387 
L 123.452881 109.817597 
L 124.264517 110.324895 
L 124.670335 108.986786 
L 125.076153 109.647892 
L 125.481972 109.696352 
L 125.88779 108.975917 
L 126.699426 108.868312 
L 127.105244 108.802952 
L 127.511062 108.488098 
L 127.916881 107.453308 
L 128.322699 108.146231 
L 129.134335 107.763582 
L 129.945972 107.17544 
L 130.35179 107.375186 
L 130.757608 107.270813 
L 131.163426 106.911025 
L 132.380881 106.745814 
L 132.786699 106.33722 
L 133.192517 106.628581 
L 134.004153 105.970208 
L 134.409972 105.921267 
L 135.221608 106.230663 
L 135.627426 106.162449 
L 136.033244 106.308965 
L 136.439062 106.250394 
L 136.844881 104.64383 
L 137.250699 106.461974 
L 137.656517 106.096592 
L 138.062335 105.185394 
L 138.468153 104.948611 
L 138.873972 105.239969 
L 139.27979 105.096052 
L 139.685608 105.09622 
L 140.903062 104.102425 
L 141.308881 104.324016 
L 141.714699 104.176616 
L 142.526335 104.411261 
L 142.932153 103.482084 
L 143.337972 103.767669 
L 143.74379 103.055522 
L 144.149608 104.006888 
L 144.555426 104.205413 
L 144.961244 103.271236 
L 145.367063 104.338207 
L 145.772881 104.027661 
L 146.178699 104.706482 
L 146.584517 104.890912 
L 146.990335 104.653823 
L 147.396153 104.622405 
L 147.801972 105.371446 
L 148.20779 105.275203 
L 148.613608 105.398251 
L 149.019426 106.098879 
L 149.425244 106.234408 
L 150.642699 107.328824 
L 151.860153 108.978956 
L 152.265972 109.097321 
L 153.077608 110.188931 
L 153.483426 110.392444 
L 154.295062 111.302554 
L 154.700881 111.101146 
L 155.106699 111.639855 
L 155.512517 111.946267 
L 155.918335 112.796868 
L 156.324153 112.10001 
L 156.729972 111.785599 
L 157.13579 112.129736 
L 157.541608 112.278986 
L 157.947426 112.929427 
L 158.353244 112.254047 
L 158.759062 112.577957 
L 159.164881 112.591729 
L 159.570699 111.632837 
L 159.976517 111.252444 
L 160.382335 112.382235 
L 160.788153 111.686401 
L 161.193972 112.291495 
L 162.411426 110.111577 
L 162.817244 111.178252 
L 163.223062 110.518577 
L 163.628881 110.216704 
L 164.034699 110.686838 
L 164.440517 109.248249 
L 164.846335 110.198097 
L 165.252153 109.810794 
L 165.657972 110.076589 
L 166.469608 108.635699 
L 166.875426 109.153299 
L 167.281244 109.088588 
L 167.687062 107.95793 
L 168.092881 108.384498 
L 168.498699 107.622766 
L 168.904517 107.795428 
L 169.310335 107.839602 
L 169.716153 107.607096 
L 170.52779 107.597356 
L 170.933608 107.344193 
L 171.339426 107.312265 
L 171.745244 106.872878 
L 172.151062 106.944408 
L 172.556881 106.82656 
L 172.962699 106.477083 
L 173.368517 106.595759 
L 173.774335 106.433165 
L 174.180153 106.103826 
L 174.585972 106.270928 
L 174.99179 105.5124 
L 175.397608 106.041762 
L 176.209244 106.089752 
L 176.615062 105.798422 
L 177.020881 106.508161 
L 177.426699 105.814786 
L 177.832517 106.200672 
L 178.238335 106.381426 
L 178.644153 105.801187 
L 179.049972 105.908184 
L 179.861608 104.584308 
L 180.267426 104.080253 
L 180.673244 104.403611 
L 181.079062 104.42485 
L 181.484881 104.061778 
L 181.890699 103.893297 
L 182.296517 104.401563 
L 182.702335 104.093026 
L 183.108153 104.569206 
L 183.513972 103.914381 
L 183.91979 104.175119 
L 184.325608 103.566132 
L 184.731426 104.165059 
L 185.137244 103.833957 
L 185.543062 103.952763 
L 185.948881 103.948007 
L 186.354699 104.713409 
L 186.760517 104.323922 
L 187.166335 104.554978 
L 187.572153 104.278384 
L 188.38379 105.248372 
L 189.601244 105.676284 
L 190.007062 106.176565 
L 190.412881 106.306548 
L 191.224517 107.393415 
L 191.630335 107.573756 
L 193.659426 110.247008 
L 194.471062 110.691597 
L 194.876881 111.398348 
L 195.282699 111.254329 
L 195.688517 111.488363 
L 196.094335 111.446537 
L 196.500153 112.17232 
L 196.905972 112.264896 
L 197.31179 111.666983 
L 197.717608 112.191004 
L 198.123426 112.48941 
L 198.529244 111.598646 
L 198.935062 113.622574 
L 199.340881 112.398589 
L 199.746699 111.971647 
L 200.152517 111.917949 
L 200.558335 112.248033 
L 200.964153 111.859147 
L 202.181608 111.296463 
L 202.587426 110.98464 
L 202.993244 110.914632 
L 203.399062 110.129894 
L 203.804881 110.296784 
L 205.022335 110.12092 
L 205.428153 110.166615 
L 205.833972 109.418134 
L 206.23979 109.476858 
L 206.645608 108.964989 
L 207.051426 109.289517 
L 207.457244 108.660095 
L 207.863062 109.086728 
L 208.268881 108.628383 
L 208.674699 108.398998 
L 209.080517 107.980084 
L 209.486335 108.072782 
L 209.892153 107.680792 
L 210.297972 107.838751 
L 210.70379 107.653788 
L 211.109608 107.272349 
L 212.327062 107.234979 
L 213.138699 106.890689 
L 213.544517 106.895415 
L 213.950335 106.774213 
L 214.356153 106.381623 
L 214.761972 106.389334 
L 215.16779 105.417784 
L 215.573608 106.123989 
L 215.979426 106.124783 
L 216.385244 106.411028 
L 216.791062 106.144394 
L 217.196881 106.43873 
L 217.602699 105.108506 
L 218.008517 105.612624 
L 218.414335 105.939051 
L 218.820153 105.523211 
L 219.225972 105.980598 
L 219.63179 105.241454 
L 220.443426 104.993576 
L 220.849244 104.117394 
L 221.255062 104.819715 
L 221.660881 104.021753 
L 222.066699 103.846836 
L 222.472517 104.071355 
L 222.878335 103.904316 
L 223.284153 103.863618 
L 224.09579 103.544883 
L 224.501608 104.006299 
L 225.313244 103.119188 
L 225.719062 104.029684 
L 226.124881 103.981884 
L 226.936517 104.440479 
L 227.342335 104.101703 
L 227.748153 104.598959 
L 228.965608 104.85502 
L 229.371426 105.50408 
L 230.183062 105.647188 
L 230.588881 106.158701 
L 230.994699 106.490165 
L 231.400517 107.112396 
L 231.806335 107.255707 
L 232.212153 108.027502 
L 232.617972 108.222604 
L 233.02379 109.086916 
L 233.429608 109.163705 
L 233.835426 109.693095 
L 234.241244 110.555122 
L 234.647062 110.457358 
L 235.052881 110.716344 
L 235.458699 111.130333 
L 235.864517 111.788836 
L 237.081972 112.102261 
L 237.48779 112.547249 
L 237.893608 112.462676 
L 237.893608 112.462676 
" style="fill:none;stroke:#ff7f0e;stroke-linecap:square;stroke-width:1.5;"/>
   </g>
   <g id="patch_3">
    <path d="M 24.839063 145.8 
L 24.839063 7.2 
" style="fill:none;stroke:#000000;stroke-linecap:square;stroke-linejoin:miter;stroke-width:0.8;"/>
   </g>
   <g id="patch_4">
    <path d="M 248.039062 145.8 
L 248.039062 7.2 
" style="fill:none;stroke:#000000;stroke-linecap:square;stroke-linejoin:miter;stroke-width:0.8;"/>
   </g>
   <g id="patch_5">
    <path d="M 24.839063 145.8 
L 248.039062 145.8 
" style="fill:none;stroke:#000000;stroke-linecap:square;stroke-linejoin:miter;stroke-width:0.8;"/>
   </g>
   <g id="patch_6">
    <path d="M 24.839063 7.2 
L 248.039062 7.2 
" style="fill:none;stroke:#000000;stroke-linecap:square;stroke-linejoin:miter;stroke-width:0.8;"/>
   </g>
   <g id="legend_1">
    <g id="patch_7">
     <path d="M 198.939063 92.469531 
L 241.039062 92.469531 
Q 243.039062 92.469531 243.039062 90.469531 
L 243.039062 62.530469 
Q 243.039062 60.530469 241.039062 60.530469 
L 198.939063 60.530469 
Q 196.939063 60.530469 196.939063 62.530469 
L 196.939063 90.469531 
Q 196.939063 92.469531 198.939063 92.469531 
z
" style="fill:#ffffff;opacity:0.8;stroke:#cccccc;stroke-linejoin:miter;"/>
    </g>
    <g id="line2d_25">
     <path d="M 200.939063 68.030469 
L 220.939063 68.030469 
" style="fill:none;stroke:#1f77b4;stroke-linecap:square;stroke-width:1.5;"/>
    </g>
    <g id="line2d_26"/>
    <g id="text_13">
     <!-- $V_{d}$ -->
     <g transform="translate(228.939063 71.530469)scale(0.1 -0.1)">
      <defs>
       <path d="M 4403 4179 
L 4403 4077 
Q 4198 4070 4045 3821 
L 1658 -115 
L 1536 -115 
L 1011 3104 
Q 902 3776 828 3910 
Q 755 4045 486 4077 
L 486 4179 
L 2022 4179 
L 2022 4077 
Q 1722 4045 1629 3981 
Q 1536 3917 1536 3750 
Q 1536 3686 1542 3654 
L 1958 819 
L 3302 3123 
Q 3616 3661 3616 3859 
Q 3616 4032 3219 4077 
L 3219 4179 
L 4403 4179 
z
" id="STIXGeneral-Italic-56" transform="scale(0.015625)"/>
       <path d="M 3334 4371 
L 3373 4333 
L 3123 3360 
L 2739 1958 
Q 2323 429 2323 384 
Q 2323 256 2438 256 
Q 2522 256 2614 336 
Q 2707 416 2963 710 
L 3040 646 
Q 2547 -83 2099 -83 
Q 1978 -83 1907 -6 
Q 1837 70 1837 205 
Q 1837 397 1920 774 
Q 1645 307 1379 118 
Q 1114 -70 781 -70 
Q 461 -70 278 125 
Q 96 320 96 678 
Q 96 1440 713 2131 
Q 1331 2822 1965 2822 
Q 2163 2822 2256 2732 
Q 2349 2643 2381 2451 
L 2387 2451 
L 2675 3494 
Q 2765 3808 2765 3949 
Q 2765 4051 2694 4076 
Q 2624 4102 2355 4115 
L 2355 4224 
Q 2848 4269 3334 4371 
z
M 2278 2310 
Q 2278 2477 2185 2576 
Q 2093 2675 1978 2675 
Q 1677 2675 1395 2381 
Q 1075 2042 864 1571 
Q 653 1101 653 704 
Q 653 486 752 361 
Q 851 237 1024 237 
Q 1312 237 1606 550 
Q 1901 864 2089 1350 
Q 2278 1837 2278 2310 
z
" id="STIXGeneral-Italic-64" transform="scale(0.015625)"/>
      </defs>
      <use transform="translate(0 0.703125)" xlink:href="#STIXGeneral-Italic-56"/>
      <use transform="translate(61.099991 -12.525)scale(0.7)" xlink:href="#STIXGeneral-Italic-64"/>
     </g>
    </g>
    <g id="line2d_27">
     <path d="M 200.939063 82.169531 
L 220.939063 82.169531 
" style="fill:none;stroke:#ff7f0e;stroke-linecap:square;stroke-width:1.5;"/>
    </g>
    <g id="line2d_28"/>
    <g id="text_14">
     <!-- $V_{q}$ -->
     <g transform="translate(228.939063 85.669531)scale(0.1 -0.1)">
      <defs>
       <path d="M 3098 2739 
L 2042 -966 
Q 2029 -1018 2029 -1037 
Q 2029 -1235 2394 -1235 
L 2490 -1235 
L 2490 -1338 
L 973 -1338 
L 973 -1235 
Q 1267 -1216 1382 -1139 
Q 1498 -1062 1555 -877 
L 2131 979 
Q 1754 378 1466 154 
Q 1178 -70 800 -70 
Q 499 -70 329 128 
Q 160 326 160 672 
Q 160 1165 445 1670 
Q 730 2176 1168 2499 
Q 1606 2822 2035 2822 
Q 2438 2822 2528 2426 
L 2630 2739 
L 3098 2739 
z
M 2432 2298 
Q 2432 2458 2323 2570 
Q 2214 2682 2054 2682 
Q 1792 2682 1459 2368 
Q 1133 2054 921 1606 
Q 710 1158 710 762 
Q 710 269 1050 269 
Q 1312 269 1574 499 
Q 1901 781 2166 1341 
Q 2432 1901 2432 2298 
z
" id="STIXGeneral-Italic-71" transform="scale(0.015625)"/>
      </defs>
      <use transform="translate(0 0.703125)" xlink:href="#STIXGeneral-Italic-56"/>
      <use transform="translate(61.099991 -12.525)scale(0.7)" xlink:href="#STIXGeneral-Italic-71"/>
     </g>
    </g>
   </g>
  </g>
 </g>
 <defs>
  <clipPath id="p4f806f9f6a">
   <rect height="138.6" width="223.2" x="24.839063" y="7.2"/>
  </clipPath>
 </defs>
</svg>
