<?xml version="1.0" encoding="utf-8" standalone="no"?>
<!DOCTYPE svg PUBLIC "-//W3C//DTD SVG 1.1//EN"
  "http://www.w3.org/Graphics/SVG/1.1/DTD/svg11.dtd">
<svg height="185.6375pt" version="1.1" viewBox="0 0 275.821875 185.6375" width="275.821875pt" xmlns="http://www.w3.org/2000/svg" xmlns:xlink="http://www.w3.org/1999/xlink">
 <metadata>
  <rdf:RDF xmlns:cc="http://creativecommons.org/ns#" xmlns:dc="http://purl.org/dc/elements/1.1/" xmlns:rdf="http://www.w3.org/1999/02/22-rdf-syntax-ns#">
   <cc:Work>
    <dc:type rdf:resource="http://purl.org/dc/dcmitype/StillImage"/>
    <dc:date>2022-02-27T13:02:03.767078</dc:date>
    <dc:format>image/svg+xml</dc:format>
    <dc:creator>
     <cc:Agent>
      <dc:title>Matplotlib v3.4.3, https://matplotlib.org/</dc:title>
     </cc:Agent>
    </dc:creator>
   </cc:Work>
  </rdf:RDF>
 </metadata>
 <defs>
  <style type="text/css">*{stroke-linecap:butt;stroke-linejoin:round;}</style>
 </defs>
 <g id="figure_1">
  <g id="patch_1">
   <path d="M 0 185.6375 
L 275.821875 185.6375 
L 275.821875 0 
L 0 0 
z
" style="fill:#ffffff;"/>
  </g>
  <g id="axes_1">
   <g id="patch_2">
    <path d="M 45.421875 149.271875 
L 268.621875 149.271875 
L 268.621875 10.671875 
L 45.421875 10.671875 
z
" style="fill:#ffffff;"/>
   </g>
   <g id="matplotlib.axis_1">
    <g id="xtick_1">
     <g id="line2d_1">
      <path clip-path="url(#p186e0111e7)" d="M 55.56733 149.271875 
L 55.56733 10.671875 
" style="fill:none;stroke:#a9a9a9;stroke-dasharray:3.2,0.8,0.5,0.8;stroke-dashoffset:0;stroke-width:0.5;"/>
     </g>
     <g id="line2d_2">
      <defs>
       <path d="M 0 0 
L 0 3.5 
" id="m1dd49b9b80" style="stroke:#000000;stroke-width:0.8;"/>
      </defs>
      <g>
       <use style="stroke:#000000;stroke-width:0.8;" x="55.56733" xlink:href="#m1dd49b9b80" y="149.271875"/>
      </g>
     </g>
     <g id="text_1">
      <!-- 0.0 -->
      <g transform="translate(49.31733 163.215625)scale(0.1 -0.1)">
       <defs>
        <path d="M 231 2094 
Q 231 2819 450 3342 
Q 669 3866 1031 4122 
Q 1313 4325 1613 4325 
Q 2100 4325 2488 3828 
Q 2972 3213 2972 2159 
Q 2972 1422 2759 906 
Q 2547 391 2217 158 
Q 1888 -75 1581 -75 
Q 975 -75 572 641 
Q 231 1244 231 2094 
z
M 844 2016 
Q 844 1141 1059 588 
Q 1238 122 1591 122 
Q 1759 122 1940 273 
Q 2122 425 2216 781 
Q 2359 1319 2359 2297 
Q 2359 3022 2209 3506 
Q 2097 3866 1919 4016 
Q 1791 4119 1609 4119 
Q 1397 4119 1231 3928 
Q 1006 3669 925 3112 
Q 844 2556 844 2016 
z
" id="TimesNewRomanPSMT-30" transform="scale(0.015625)"/>
        <path d="M 800 606 
Q 947 606 1047 504 
Q 1147 403 1147 259 
Q 1147 116 1045 14 
Q 944 -88 800 -88 
Q 656 -88 554 14 
Q 453 116 453 259 
Q 453 406 554 506 
Q 656 606 800 606 
z
" id="TimesNewRomanPSMT-2e" transform="scale(0.015625)"/>
       </defs>
       <use xlink:href="#TimesNewRomanPSMT-30"/>
       <use x="50" xlink:href="#TimesNewRomanPSMT-2e"/>
       <use x="75" xlink:href="#TimesNewRomanPSMT-30"/>
      </g>
     </g>
    </g>
    <g id="xtick_2">
     <g id="line2d_3">
      <path clip-path="url(#p186e0111e7)" d="M 96.149148 149.271875 
L 96.149148 10.671875 
" style="fill:none;stroke:#a9a9a9;stroke-dasharray:3.2,0.8,0.5,0.8;stroke-dashoffset:0;stroke-width:0.5;"/>
     </g>
     <g id="line2d_4">
      <g>
       <use style="stroke:#000000;stroke-width:0.8;" x="96.149148" xlink:href="#m1dd49b9b80" y="149.271875"/>
      </g>
     </g>
     <g id="text_2">
      <!-- 0.2 -->
      <g transform="translate(89.899148 163.215625)scale(0.1 -0.1)">
       <defs>
        <path d="M 2934 816 
L 2638 0 
L 138 0 
L 138 116 
Q 1241 1122 1691 1759 
Q 2141 2397 2141 2925 
Q 2141 3328 1894 3587 
Q 1647 3847 1303 3847 
Q 991 3847 742 3664 
Q 494 3481 375 3128 
L 259 3128 
Q 338 3706 661 4015 
Q 984 4325 1469 4325 
Q 1984 4325 2329 3994 
Q 2675 3663 2675 3213 
Q 2675 2891 2525 2569 
Q 2294 2063 1775 1497 
Q 997 647 803 472 
L 1909 472 
Q 2247 472 2383 497 
Q 2519 522 2628 598 
Q 2738 675 2819 816 
L 2934 816 
z
" id="TimesNewRomanPSMT-32" transform="scale(0.015625)"/>
       </defs>
       <use xlink:href="#TimesNewRomanPSMT-30"/>
       <use x="50" xlink:href="#TimesNewRomanPSMT-2e"/>
       <use x="75" xlink:href="#TimesNewRomanPSMT-32"/>
      </g>
     </g>
    </g>
    <g id="xtick_3">
     <g id="line2d_5">
      <path clip-path="url(#p186e0111e7)" d="M 136.730966 149.271875 
L 136.730966 10.671875 
" style="fill:none;stroke:#a9a9a9;stroke-dasharray:3.2,0.8,0.5,0.8;stroke-dashoffset:0;stroke-width:0.5;"/>
     </g>
     <g id="line2d_6">
      <g>
       <use style="stroke:#000000;stroke-width:0.8;" x="136.730966" xlink:href="#m1dd49b9b80" y="149.271875"/>
      </g>
     </g>
     <g id="text_3">
      <!-- 0.4 -->
      <g transform="translate(130.480966 163.215625)scale(0.1 -0.1)">
       <defs>
        <path d="M 2978 1563 
L 2978 1119 
L 2409 1119 
L 2409 0 
L 1894 0 
L 1894 1119 
L 100 1119 
L 100 1519 
L 2066 4325 
L 2409 4325 
L 2409 1563 
L 2978 1563 
z
M 1894 1563 
L 1894 3666 
L 406 1563 
L 1894 1563 
z
" id="TimesNewRomanPSMT-34" transform="scale(0.015625)"/>
       </defs>
       <use xlink:href="#TimesNewRomanPSMT-30"/>
       <use x="50" xlink:href="#TimesNewRomanPSMT-2e"/>
       <use x="75" xlink:href="#TimesNewRomanPSMT-34"/>
      </g>
     </g>
    </g>
    <g id="xtick_4">
     <g id="line2d_7">
      <path clip-path="url(#p186e0111e7)" d="M 177.312784 149.271875 
L 177.312784 10.671875 
" style="fill:none;stroke:#a9a9a9;stroke-dasharray:3.2,0.8,0.5,0.8;stroke-dashoffset:0;stroke-width:0.5;"/>
     </g>
     <g id="line2d_8">
      <g>
       <use style="stroke:#000000;stroke-width:0.8;" x="177.312784" xlink:href="#m1dd49b9b80" y="149.271875"/>
      </g>
     </g>
     <g id="text_4">
      <!-- 0.6 -->
      <g transform="translate(171.062784 163.215625)scale(0.1 -0.1)">
       <defs>
        <path d="M 2869 4325 
L 2869 4209 
Q 2456 4169 2195 4045 
Q 1934 3922 1679 3669 
Q 1425 3416 1258 3105 
Q 1091 2794 978 2366 
Q 1428 2675 1881 2675 
Q 2316 2675 2634 2325 
Q 2953 1975 2953 1425 
Q 2953 894 2631 456 
Q 2244 -75 1606 -75 
Q 1172 -75 869 213 
Q 275 772 275 1663 
Q 275 2231 503 2743 
Q 731 3256 1154 3653 
Q 1578 4050 1965 4187 
Q 2353 4325 2688 4325 
L 2869 4325 
z
M 925 2138 
Q 869 1716 869 1456 
Q 869 1156 980 804 
Q 1091 453 1309 247 
Q 1469 100 1697 100 
Q 1969 100 2183 356 
Q 2397 613 2397 1088 
Q 2397 1622 2184 2012 
Q 1972 2403 1581 2403 
Q 1463 2403 1327 2353 
Q 1191 2303 925 2138 
z
" id="TimesNewRomanPSMT-36" transform="scale(0.015625)"/>
       </defs>
       <use xlink:href="#TimesNewRomanPSMT-30"/>
       <use x="50" xlink:href="#TimesNewRomanPSMT-2e"/>
       <use x="75" xlink:href="#TimesNewRomanPSMT-36"/>
      </g>
     </g>
    </g>
    <g id="xtick_5">
     <g id="line2d_9">
      <path clip-path="url(#p186e0111e7)" d="M 217.894602 149.271875 
L 217.894602 10.671875 
" style="fill:none;stroke:#a9a9a9;stroke-dasharray:3.2,0.8,0.5,0.8;stroke-dashoffset:0;stroke-width:0.5;"/>
     </g>
     <g id="line2d_10">
      <g>
       <use style="stroke:#000000;stroke-width:0.8;" x="217.894602" xlink:href="#m1dd49b9b80" y="149.271875"/>
      </g>
     </g>
     <g id="text_5">
      <!-- 0.8 -->
      <g transform="translate(211.644602 163.215625)scale(0.1 -0.1)">
       <defs>
        <path d="M 1228 2134 
Q 725 2547 579 2797 
Q 434 3047 434 3316 
Q 434 3728 753 4026 
Q 1072 4325 1600 4325 
Q 2113 4325 2425 4047 
Q 2738 3769 2738 3413 
Q 2738 3175 2569 2928 
Q 2400 2681 1866 2347 
Q 2416 1922 2594 1678 
Q 2831 1359 2831 1006 
Q 2831 559 2490 242 
Q 2150 -75 1597 -75 
Q 994 -75 656 303 
Q 388 606 388 966 
Q 388 1247 577 1523 
Q 766 1800 1228 2134 
z
M 1719 2469 
Q 2094 2806 2194 3001 
Q 2294 3197 2294 3444 
Q 2294 3772 2109 3958 
Q 1925 4144 1606 4144 
Q 1288 4144 1088 3959 
Q 888 3775 888 3528 
Q 888 3366 970 3203 
Q 1053 3041 1206 2894 
L 1719 2469 
z
M 1375 2016 
Q 1116 1797 991 1539 
Q 866 1281 866 981 
Q 866 578 1086 336 
Q 1306 94 1647 94 
Q 1984 94 2187 284 
Q 2391 475 2391 747 
Q 2391 972 2272 1150 
Q 2050 1481 1375 2016 
z
" id="TimesNewRomanPSMT-38" transform="scale(0.015625)"/>
       </defs>
       <use xlink:href="#TimesNewRomanPSMT-30"/>
       <use x="50" xlink:href="#TimesNewRomanPSMT-2e"/>
       <use x="75" xlink:href="#TimesNewRomanPSMT-38"/>
      </g>
     </g>
    </g>
    <g id="xtick_6">
     <g id="line2d_11">
      <path clip-path="url(#p186e0111e7)" d="M 258.47642 149.271875 
L 258.47642 10.671875 
" style="fill:none;stroke:#a9a9a9;stroke-dasharray:3.2,0.8,0.5,0.8;stroke-dashoffset:0;stroke-width:0.5;"/>
     </g>
     <g id="line2d_12">
      <g>
       <use style="stroke:#000000;stroke-width:0.8;" x="258.47642" xlink:href="#m1dd49b9b80" y="149.271875"/>
      </g>
     </g>
     <g id="text_6">
      <!-- 1.0 -->
      <g transform="translate(252.22642 163.215625)scale(0.1 -0.1)">
       <defs>
        <path d="M 750 3822 
L 1781 4325 
L 1884 4325 
L 1884 747 
Q 1884 391 1914 303 
Q 1944 216 2037 169 
Q 2131 122 2419 116 
L 2419 0 
L 825 0 
L 825 116 
Q 1125 122 1212 167 
Q 1300 213 1334 289 
Q 1369 366 1369 747 
L 1369 3034 
Q 1369 3497 1338 3628 
Q 1316 3728 1258 3775 
Q 1200 3822 1119 3822 
Q 1003 3822 797 3725 
L 750 3822 
z
" id="TimesNewRomanPSMT-31" transform="scale(0.015625)"/>
       </defs>
       <use xlink:href="#TimesNewRomanPSMT-31"/>
       <use x="50" xlink:href="#TimesNewRomanPSMT-2e"/>
       <use x="75" xlink:href="#TimesNewRomanPSMT-30"/>
      </g>
     </g>
    </g>
    <g id="text_7">
     <!-- time [s] -->
     <g transform="translate(141.609375 176.298438)scale(0.1 -0.1)">
      <defs>
       <path d="M 1031 3803 
L 1031 2863 
L 1700 2863 
L 1700 2644 
L 1031 2644 
L 1031 788 
Q 1031 509 1111 412 
Q 1191 316 1316 316 
Q 1419 316 1516 380 
Q 1613 444 1666 569 
L 1788 569 
Q 1678 263 1478 108 
Q 1278 -47 1066 -47 
Q 922 -47 784 33 
Q 647 113 581 261 
Q 516 409 516 719 
L 516 2644 
L 63 2644 
L 63 2747 
Q 234 2816 414 2980 
Q 594 3144 734 3369 
Q 806 3488 934 3803 
L 1031 3803 
z
" id="TimesNewRomanPSMT-74" transform="scale(0.015625)"/>
       <path d="M 928 4444 
Q 1059 4444 1151 4351 
Q 1244 4259 1244 4128 
Q 1244 3997 1151 3903 
Q 1059 3809 928 3809 
Q 797 3809 703 3903 
Q 609 3997 609 4128 
Q 609 4259 701 4351 
Q 794 4444 928 4444 
z
M 1188 2947 
L 1188 647 
Q 1188 378 1227 289 
Q 1266 200 1342 156 
Q 1419 113 1622 113 
L 1622 0 
L 231 0 
L 231 113 
Q 441 113 512 153 
Q 584 194 626 287 
Q 669 381 669 647 
L 669 1750 
Q 669 2216 641 2353 
Q 619 2453 572 2492 
Q 525 2531 444 2531 
Q 356 2531 231 2484 
L 188 2597 
L 1050 2947 
L 1188 2947 
z
" id="TimesNewRomanPSMT-69" transform="scale(0.015625)"/>
       <path d="M 1050 2338 
Q 1363 2650 1419 2697 
Q 1559 2816 1721 2881 
Q 1884 2947 2044 2947 
Q 2313 2947 2506 2790 
Q 2700 2634 2766 2338 
Q 3088 2713 3309 2830 
Q 3531 2947 3766 2947 
Q 3994 2947 4170 2830 
Q 4347 2713 4450 2447 
Q 4519 2266 4519 1878 
L 4519 647 
Q 4519 378 4559 278 
Q 4591 209 4675 161 
Q 4759 113 4950 113 
L 4950 0 
L 3538 0 
L 3538 113 
L 3597 113 
Q 3781 113 3884 184 
Q 3956 234 3988 344 
Q 4000 397 4000 647 
L 4000 1878 
Q 4000 2228 3916 2372 
Q 3794 2572 3525 2572 
Q 3359 2572 3192 2489 
Q 3025 2406 2788 2181 
L 2781 2147 
L 2788 2013 
L 2788 647 
Q 2788 353 2820 281 
Q 2853 209 2943 161 
Q 3034 113 3253 113 
L 3253 0 
L 1806 0 
L 1806 113 
Q 2044 113 2133 169 
Q 2222 225 2256 338 
Q 2272 391 2272 647 
L 2272 1878 
Q 2272 2228 2169 2381 
Q 2031 2581 1784 2581 
Q 1616 2581 1450 2491 
Q 1191 2353 1050 2181 
L 1050 647 
Q 1050 366 1089 281 
Q 1128 197 1204 155 
Q 1281 113 1516 113 
L 1516 0 
L 100 0 
L 100 113 
Q 297 113 375 155 
Q 453 197 493 289 
Q 534 381 534 647 
L 534 1741 
Q 534 2213 506 2350 
Q 484 2453 437 2492 
Q 391 2531 309 2531 
Q 222 2531 100 2484 
L 53 2597 
L 916 2947 
L 1050 2947 
L 1050 2338 
z
" id="TimesNewRomanPSMT-6d" transform="scale(0.015625)"/>
       <path d="M 681 1784 
Q 678 1147 991 784 
Q 1303 422 1725 422 
Q 2006 422 2214 576 
Q 2422 731 2563 1106 
L 2659 1044 
Q 2594 616 2278 264 
Q 1963 -88 1488 -88 
Q 972 -88 605 314 
Q 238 716 238 1394 
Q 238 2128 614 2539 
Q 991 2950 1559 2950 
Q 2041 2950 2350 2633 
Q 2659 2316 2659 1784 
L 681 1784 
z
M 681 1966 
L 2006 1966 
Q 1991 2241 1941 2353 
Q 1863 2528 1708 2628 
Q 1553 2728 1384 2728 
Q 1125 2728 920 2526 
Q 716 2325 681 1966 
z
" id="TimesNewRomanPSMT-65" transform="scale(0.015625)"/>
       <path id="TimesNewRomanPSMT-20" transform="scale(0.015625)"/>
       <path d="M 1900 -1269 
L 525 -1269 
L 525 4334 
L 1900 4334 
L 1900 4088 
L 994 4088 
L 994 -1025 
L 1900 -1025 
L 1900 -1269 
z
" id="TimesNewRomanPSMT-5b" transform="scale(0.015625)"/>
       <path d="M 2050 2947 
L 2050 1972 
L 1947 1972 
Q 1828 2431 1642 2597 
Q 1456 2763 1169 2763 
Q 950 2763 815 2647 
Q 681 2531 681 2391 
Q 681 2216 781 2091 
Q 878 1963 1175 1819 
L 1631 1597 
Q 2266 1288 2266 781 
Q 2266 391 1970 151 
Q 1675 -88 1309 -88 
Q 1047 -88 709 6 
Q 606 38 541 38 
Q 469 38 428 -44 
L 325 -44 
L 325 978 
L 428 978 
Q 516 541 762 319 
Q 1009 97 1316 97 
Q 1531 97 1667 223 
Q 1803 350 1803 528 
Q 1803 744 1651 891 
Q 1500 1038 1047 1263 
Q 594 1488 453 1669 
Q 313 1847 313 2119 
Q 313 2472 555 2709 
Q 797 2947 1181 2947 
Q 1350 2947 1591 2875 
Q 1750 2828 1803 2828 
Q 1853 2828 1881 2850 
Q 1909 2872 1947 2947 
L 2050 2947 
z
" id="TimesNewRomanPSMT-73" transform="scale(0.015625)"/>
       <path d="M 234 4334 
L 1609 4334 
L 1609 -1272 
L 234 -1272 
L 234 -1025 
L 1141 -1025 
L 1141 4088 
L 234 4088 
L 234 4334 
z
" id="TimesNewRomanPSMT-5d" transform="scale(0.015625)"/>
      </defs>
      <use xlink:href="#TimesNewRomanPSMT-74"/>
      <use x="27.783203" xlink:href="#TimesNewRomanPSMT-69"/>
      <use x="55.566406" xlink:href="#TimesNewRomanPSMT-6d"/>
      <use x="133.349609" xlink:href="#TimesNewRomanPSMT-65"/>
      <use x="177.734375" xlink:href="#TimesNewRomanPSMT-20"/>
      <use x="202.734375" xlink:href="#TimesNewRomanPSMT-5b"/>
      <use x="236.035156" xlink:href="#TimesNewRomanPSMT-73"/>
      <use x="274.951172" xlink:href="#TimesNewRomanPSMT-5d"/>
     </g>
    </g>
   </g>
   <g id="matplotlib.axis_2">
    <g id="ytick_1">
     <g id="line2d_13">
      <path clip-path="url(#p186e0111e7)" d="M 45.421875 149.271875 
L 268.621875 149.271875 
" style="fill:none;stroke:#a9a9a9;stroke-dasharray:3.2,0.8,0.5,0.8;stroke-dashoffset:0;stroke-width:0.5;"/>
     </g>
     <g id="line2d_14">
      <defs>
       <path d="M 0 0 
L -3.5 0 
" id="mb998086f4a" style="stroke:#000000;stroke-width:0.8;"/>
      </defs>
      <g>
       <use style="stroke:#000000;stroke-width:0.8;" x="45.421875" xlink:href="#mb998086f4a" y="149.271875"/>
      </g>
     </g>
     <g id="text_8">
      <!-- −0.4 -->
      <g transform="translate(20.282812 152.74375)scale(0.1 -0.1)">
       <defs>
        <path d="M 3484 2000 
L 116 2000 
L 116 2256 
L 3484 2256 
L 3484 2000 
z
" id="TimesNewRomanPSMT-2212" transform="scale(0.015625)"/>
       </defs>
       <use xlink:href="#TimesNewRomanPSMT-2212"/>
       <use x="56.396484" xlink:href="#TimesNewRomanPSMT-30"/>
       <use x="106.396484" xlink:href="#TimesNewRomanPSMT-2e"/>
       <use x="131.396484" xlink:href="#TimesNewRomanPSMT-34"/>
      </g>
     </g>
    </g>
    <g id="ytick_2">
     <g id="line2d_15">
      <path clip-path="url(#p186e0111e7)" d="M 45.421875 114.621875 
L 268.621875 114.621875 
" style="fill:none;stroke:#a9a9a9;stroke-dasharray:3.2,0.8,0.5,0.8;stroke-dashoffset:0;stroke-width:0.5;"/>
     </g>
     <g id="line2d_16">
      <g>
       <use style="stroke:#000000;stroke-width:0.8;" x="45.421875" xlink:href="#mb998086f4a" y="114.621875"/>
      </g>
     </g>
     <g id="text_9">
      <!-- −0.2 -->
      <g transform="translate(20.282812 118.09375)scale(0.1 -0.1)">
       <use xlink:href="#TimesNewRomanPSMT-2212"/>
       <use x="56.396484" xlink:href="#TimesNewRomanPSMT-30"/>
       <use x="106.396484" xlink:href="#TimesNewRomanPSMT-2e"/>
       <use x="131.396484" xlink:href="#TimesNewRomanPSMT-32"/>
      </g>
     </g>
    </g>
    <g id="ytick_3">
     <g id="line2d_17">
      <path clip-path="url(#p186e0111e7)" d="M 45.421875 79.971875 
L 268.621875 79.971875 
" style="fill:none;stroke:#a9a9a9;stroke-dasharray:3.2,0.8,0.5,0.8;stroke-dashoffset:0;stroke-width:0.5;"/>
     </g>
     <g id="line2d_18">
      <g>
       <use style="stroke:#000000;stroke-width:0.8;" x="45.421875" xlink:href="#mb998086f4a" y="79.971875"/>
      </g>
     </g>
     <g id="text_10">
      <!-- 0.0 -->
      <g transform="translate(25.921875 83.44375)scale(0.1 -0.1)">
       <use xlink:href="#TimesNewRomanPSMT-30"/>
       <use x="50" xlink:href="#TimesNewRomanPSMT-2e"/>
       <use x="75" xlink:href="#TimesNewRomanPSMT-30"/>
      </g>
     </g>
    </g>
    <g id="ytick_4">
     <g id="line2d_19">
      <path clip-path="url(#p186e0111e7)" d="M 45.421875 45.321875 
L 268.621875 45.321875 
" style="fill:none;stroke:#a9a9a9;stroke-dasharray:3.2,0.8,0.5,0.8;stroke-dashoffset:0;stroke-width:0.5;"/>
     </g>
     <g id="line2d_20">
      <g>
       <use style="stroke:#000000;stroke-width:0.8;" x="45.421875" xlink:href="#mb998086f4a" y="45.321875"/>
      </g>
     </g>
     <g id="text_11">
      <!-- 0.2 -->
      <g transform="translate(25.921875 48.79375)scale(0.1 -0.1)">
       <use xlink:href="#TimesNewRomanPSMT-30"/>
       <use x="50" xlink:href="#TimesNewRomanPSMT-2e"/>
       <use x="75" xlink:href="#TimesNewRomanPSMT-32"/>
      </g>
     </g>
    </g>
    <g id="ytick_5">
     <g id="line2d_21">
      <path clip-path="url(#p186e0111e7)" d="M 45.421875 10.671875 
L 268.621875 10.671875 
" style="fill:none;stroke:#a9a9a9;stroke-dasharray:3.2,0.8,0.5,0.8;stroke-dashoffset:0;stroke-width:0.5;"/>
     </g>
     <g id="line2d_22">
      <g>
       <use style="stroke:#000000;stroke-width:0.8;" x="45.421875" xlink:href="#mb998086f4a" y="10.671875"/>
      </g>
     </g>
     <g id="text_12">
      <!-- 0.4 -->
      <g transform="translate(25.921875 14.14375)scale(0.1 -0.1)">
       <use xlink:href="#TimesNewRomanPSMT-30"/>
       <use x="50" xlink:href="#TimesNewRomanPSMT-2e"/>
       <use x="75" xlink:href="#TimesNewRomanPSMT-34"/>
      </g>
     </g>
    </g>
    <g id="text_13">
     <!-- Current [A] -->
     <g transform="translate(14.14375 103.435938)rotate(-90)scale(0.1 -0.1)">
      <defs>
       <path d="M 3853 4334 
L 3950 2894 
L 3853 2894 
Q 3659 3541 3300 3825 
Q 2941 4109 2438 4109 
Q 2016 4109 1675 3895 
Q 1334 3681 1139 3212 
Q 944 2744 944 2047 
Q 944 1472 1128 1050 
Q 1313 628 1683 403 
Q 2053 178 2528 178 
Q 2941 178 3256 354 
Q 3572 531 3950 1056 
L 4047 994 
Q 3728 428 3303 165 
Q 2878 -97 2294 -97 
Q 1241 -97 663 684 
Q 231 1266 231 2053 
Q 231 2688 515 3219 
Q 800 3750 1298 4042 
Q 1797 4334 2388 4334 
Q 2847 4334 3294 4109 
Q 3425 4041 3481 4041 
Q 3566 4041 3628 4100 
Q 3709 4184 3744 4334 
L 3853 4334 
z
" id="TimesNewRomanPSMT-43" transform="scale(0.015625)"/>
       <path d="M 2709 2863 
L 2709 1128 
Q 2709 631 2732 520 
Q 2756 409 2807 365 
Q 2859 322 2928 322 
Q 3025 322 3147 375 
L 3191 266 
L 2334 -88 
L 2194 -88 
L 2194 519 
Q 1825 119 1631 15 
Q 1438 -88 1222 -88 
Q 981 -88 804 51 
Q 628 191 559 409 
Q 491 628 491 1028 
L 491 2306 
Q 491 2509 447 2587 
Q 403 2666 317 2708 
Q 231 2750 6 2747 
L 6 2863 
L 1009 2863 
L 1009 947 
Q 1009 547 1148 422 
Q 1288 297 1484 297 
Q 1619 297 1789 381 
Q 1959 466 2194 703 
L 2194 2325 
Q 2194 2569 2105 2655 
Q 2016 2741 1734 2747 
L 1734 2863 
L 2709 2863 
z
" id="TimesNewRomanPSMT-75" transform="scale(0.015625)"/>
       <path d="M 1038 2947 
L 1038 2303 
Q 1397 2947 1775 2947 
Q 1947 2947 2059 2842 
Q 2172 2738 2172 2600 
Q 2172 2478 2090 2393 
Q 2009 2309 1897 2309 
Q 1788 2309 1652 2417 
Q 1516 2525 1450 2525 
Q 1394 2525 1328 2463 
Q 1188 2334 1038 2041 
L 1038 669 
Q 1038 431 1097 309 
Q 1138 225 1241 169 
Q 1344 113 1538 113 
L 1538 0 
L 72 0 
L 72 113 
Q 291 113 397 181 
Q 475 231 506 341 
Q 522 394 522 644 
L 522 1753 
Q 522 2253 501 2348 
Q 481 2444 426 2487 
Q 372 2531 291 2531 
Q 194 2531 72 2484 
L 41 2597 
L 906 2947 
L 1038 2947 
z
" id="TimesNewRomanPSMT-72" transform="scale(0.015625)"/>
       <path d="M 1034 2341 
Q 1538 2947 1994 2947 
Q 2228 2947 2397 2830 
Q 2566 2713 2666 2444 
Q 2734 2256 2734 1869 
L 2734 647 
Q 2734 375 2778 278 
Q 2813 200 2889 156 
Q 2966 113 3172 113 
L 3172 0 
L 1756 0 
L 1756 113 
L 1816 113 
Q 2016 113 2095 173 
Q 2175 234 2206 353 
Q 2219 400 2219 647 
L 2219 1819 
Q 2219 2209 2117 2386 
Q 2016 2563 1775 2563 
Q 1403 2563 1034 2156 
L 1034 647 
Q 1034 356 1069 288 
Q 1113 197 1189 155 
Q 1266 113 1500 113 
L 1500 0 
L 84 0 
L 84 113 
L 147 113 
Q 366 113 442 223 
Q 519 334 519 647 
L 519 1709 
Q 519 2225 495 2337 
Q 472 2450 423 2490 
Q 375 2531 294 2531 
Q 206 2531 84 2484 
L 38 2597 
L 900 2947 
L 1034 2947 
L 1034 2341 
z
" id="TimesNewRomanPSMT-6e" transform="scale(0.015625)"/>
       <path d="M 2928 1419 
L 1288 1419 
L 1000 750 
Q 894 503 894 381 
Q 894 284 986 211 
Q 1078 138 1384 116 
L 1384 0 
L 50 0 
L 50 116 
Q 316 163 394 238 
Q 553 388 747 847 
L 2238 4334 
L 2347 4334 
L 3822 809 
Q 4000 384 4145 257 
Q 4291 131 4550 116 
L 4550 0 
L 2878 0 
L 2878 116 
Q 3131 128 3220 200 
Q 3309 272 3309 375 
Q 3309 513 3184 809 
L 2928 1419 
z
M 2841 1650 
L 2122 3363 
L 1384 1650 
L 2841 1650 
z
" id="TimesNewRomanPSMT-41" transform="scale(0.015625)"/>
      </defs>
      <use xlink:href="#TimesNewRomanPSMT-43"/>
      <use x="66.699219" xlink:href="#TimesNewRomanPSMT-75"/>
      <use x="116.699219" xlink:href="#TimesNewRomanPSMT-72"/>
      <use x="150" xlink:href="#TimesNewRomanPSMT-72"/>
      <use x="183.300781" xlink:href="#TimesNewRomanPSMT-65"/>
      <use x="227.685547" xlink:href="#TimesNewRomanPSMT-6e"/>
      <use x="277.685547" xlink:href="#TimesNewRomanPSMT-74"/>
      <use x="305.46875" xlink:href="#TimesNewRomanPSMT-20"/>
      <use x="330.46875" xlink:href="#TimesNewRomanPSMT-5b"/>
      <use x="363.769531" xlink:href="#TimesNewRomanPSMT-41"/>
      <use x="435.986328" xlink:href="#TimesNewRomanPSMT-5d"/>
     </g>
    </g>
   </g>
   <g id="line2d_23">
    <path clip-path="url(#p186e0111e7)" d="M 55.56733 32.383567 
L 55.973148 30.651069 
L 56.176057 28.918565 
L 56.784784 28.918565 
L 56.987693 28.052316 
L 57.190602 28.918565 
L 57.393511 31.517318 
L 57.59642 28.918565 
L 57.79933 28.918565 
L 58.002239 28.052316 
L 58.205148 29.78482 
L 58.610966 28.052316 
L 58.813875 28.918565 
L 59.016784 28.052316 
L 59.219693 34.116065 
L 59.422602 30.651069 
L 59.625511 29.78482 
L 60.03133 32.383567 
L 60.234239 31.517318 
L 60.437148 31.517318 
L 60.640057 34.982314 
L 61.045875 34.982314 
L 61.248784 36.714815 
L 61.451693 35.848569 
L 62.06042 41.046066 
L 62.26333 40.179812 
L 62.466239 42.778565 
L 62.669148 43.644814 
L 63.074966 46.243567 
L 63.277875 47.109816 
L 63.480784 47.109816 
L 63.886602 52.307316 
L 64.089511 53.173565 
L 64.29242 53.173565 
L 65.104057 60.103564 
L 65.306966 60.103564 
L 65.509875 63.568566 
L 65.712784 64.434815 
L 65.915693 67.033565 
L 66.52442 69.632316 
L 67.538966 78.294815 
L 67.741875 81.759814 
L 67.944784 80.027315 
L 68.350602 85.224815 
L 69.973875 98.218565 
L 70.176784 99.084815 
L 70.379693 102.549815 
L 70.582602 103.416064 
L 70.785511 105.148565 
L 70.98842 108.613564 
L 71.19133 107.747315 
L 71.394239 107.747315 
L 71.597148 108.613564 
L 71.800057 110.346065 
L 72.002966 100.817315 
L 72.205875 113.811064 
L 72.408784 113.811064 
L 73.017511 119.008564 
L 73.22042 118.142315 
L 73.42333 119.008564 
L 73.626239 121.607314 
L 73.829148 120.741065 
L 74.437875 125.072316 
L 74.640784 125.938566 
L 74.843693 125.072316 
L 75.249511 127.671064 
L 75.45242 127.671064 
L 75.65533 128.537318 
L 75.858239 128.537318 
L 76.061148 127.671064 
L 76.264057 130.269817 
L 76.466966 129.403567 
L 76.669875 130.269817 
L 76.872784 130.269817 
L 77.075693 129.403567 
L 77.481511 132.868564 
L 77.68442 132.002315 
L 78.496057 132.002315 
L 78.698966 131.136066 
L 78.901875 131.136066 
L 79.104784 130.269817 
L 79.307693 130.269817 
L 79.510602 129.403567 
L 79.713511 129.403567 
L 79.91642 130.269817 
L 80.11933 127.671064 
L 80.322239 128.537318 
L 80.728057 125.938566 
L 80.930966 125.938566 
L 81.133875 124.206067 
L 81.336784 125.938566 
L 81.945511 121.607314 
L 82.14842 122.473564 
L 82.35133 118.142315 
L 82.554239 118.142315 
L 82.960057 116.409814 
L 83.162966 119.008564 
L 83.365875 114.677316 
L 84.177511 107.747315 
L 84.38042 115.543565 
L 84.786239 100.817315 
L 84.989148 107.747315 
L 85.192057 102.549815 
L 85.394966 101.683565 
L 87.221148 86.957315 
L 87.424057 82.626065 
L 87.626966 82.626065 
L 87.829875 80.893565 
L 88.032784 80.893565 
L 91.27933 53.173565 
L 91.482239 54.906064 
L 91.685148 51.441067 
L 91.888057 52.307316 
L 92.293875 47.976065 
L 92.496784 46.243567 
L 92.699693 46.243567 
L 93.105511 43.644814 
L 93.30842 42.778565 
L 93.51133 41.046066 
L 93.714239 41.046066 
L 93.917148 38.447314 
L 94.322966 36.714815 
L 94.525875 37.581065 
L 94.728784 34.982314 
L 94.931693 35.848569 
L 95.337511 34.116065 
L 95.54042 32.383567 
L 95.74333 32.383567 
L 95.946239 31.517318 
L 96.149148 31.517318 
L 96.352057 30.651069 
L 96.554966 30.651069 
L 96.757875 31.517318 
L 97.163693 29.78482 
L 97.366602 30.651069 
L 97.569511 29.78482 
L 97.77242 29.78482 
L 97.97533 28.918565 
L 98.584057 28.918565 
L 98.786966 29.78482 
L 98.989875 28.918565 
L 99.192784 29.78482 
L 99.395693 28.918565 
L 99.598602 28.918565 
L 100.00442 30.651069 
L 100.410239 33.249816 
L 100.613148 31.517318 
L 100.816057 32.383567 
L 101.018966 34.116065 
L 101.221875 33.249816 
L 101.627693 34.982314 
L 101.830602 31.517318 
L 102.033511 37.581065 
L 102.23642 36.714815 
L 102.43933 39.313563 
L 102.642239 40.179812 
L 102.845148 40.179812 
L 103.048057 41.912316 
L 103.250966 41.046066 
L 103.656784 47.109816 
L 103.859693 47.109816 
L 104.46842 51.441067 
L 104.67133 52.307316 
L 104.874239 54.906064 
L 105.280057 54.906064 
L 105.482966 59.237315 
L 105.685875 59.237315 
L 107.106239 72.231066 
L 107.309148 70.498565 
L 107.714966 75.696065 
L 108.120784 77.428565 
L 108.323693 80.027315 
L 108.526602 79.161066 
L 108.93242 86.957315 
L 109.541148 91.288565 
L 109.744057 91.288565 
L 110.149875 94.753566 
L 110.352784 121.607314 
L 110.555693 99.084815 
L 110.758602 100.817315 
L 110.961511 100.817315 
L 111.16442 103.416064 
L 111.36733 103.416064 
L 111.570239 106.014814 
L 111.773148 106.881066 
L 111.976057 106.881066 
L 112.178966 108.613564 
L 112.381875 112.078566 
L 112.584784 112.078566 
L 112.787693 112.944815 
L 113.193511 115.543565 
L 113.39642 114.677316 
L 113.59933 119.008564 
L 113.802239 118.142315 
L 114.005148 122.473564 
L 114.208057 122.473564 
L 114.410966 119.874814 
L 114.816784 124.206067 
L 115.019693 124.206067 
L 115.222602 125.938566 
L 115.425511 125.072316 
L 115.62842 125.938566 
L 115.83133 128.537318 
L 116.237148 126.804815 
L 116.440057 128.537318 
L 116.642966 128.537318 
L 116.845875 129.403567 
L 117.048784 129.403567 
L 117.251693 130.269817 
L 117.454602 130.269817 
L 117.657511 131.136066 
L 117.86042 131.136066 
L 118.06333 130.269817 
L 118.266239 132.002315 
L 118.469148 131.136066 
L 118.672057 132.002315 
L 118.874966 130.269817 
L 119.077875 131.136066 
L 119.280784 131.136066 
L 119.483693 132.002315 
L 119.889511 129.403567 
L 120.09242 128.537318 
L 120.29533 128.537318 
L 120.498239 127.671064 
L 120.904057 129.403567 
L 121.106966 128.537318 
L 121.309875 125.072316 
L 121.715693 125.072316 
L 121.918602 124.206067 
L 122.121511 124.206067 
L 122.32442 122.473564 
L 122.52733 125.072316 
L 123.136057 118.142315 
L 123.744784 113.811064 
L 123.947693 112.944815 
L 124.150602 113.811064 
L 124.55642 109.479816 
L 124.75933 110.346065 
L 124.962239 107.747315 
L 125.165148 106.881066 
L 125.368057 103.416064 
L 125.570966 103.416064 
L 125.773875 100.817315 
L 125.976784 101.683565 
L 126.179693 100.817315 
L 126.382602 98.218565 
L 126.585511 97.352314 
L 126.78842 93.887315 
L 126.99133 93.021065 
L 127.397148 88.689815 
L 127.600057 89.556065 
L 127.802966 86.091066 
L 128.005875 85.224815 
L 128.208784 83.492315 
L 128.411693 80.027315 
L 129.02042 77.428565 
L 129.22333 73.963564 
L 129.629148 72.231066 
L 131.049511 60.103564 
L 131.25242 60.103564 
L 131.45533 57.504814 
L 131.658239 56.638564 
L 132.266966 52.307316 
L 132.469875 52.307316 
L 132.875693 47.976065 
L 133.078602 47.976065 
L 134.093148 40.179812 
L 134.296057 40.179812 
L 134.498966 39.313563 
L 134.701875 39.313563 
L 135.310602 34.982314 
L 135.513511 35.848569 
L 135.71642 35.848569 
L 136.122239 33.249816 
L 136.325148 33.249816 
L 136.528057 29.78482 
L 136.730966 31.517318 
L 136.933875 30.651069 
L 137.136784 28.918565 
L 137.339693 30.651069 
L 137.94842 28.052316 
L 138.15133 30.651069 
L 138.354239 28.918565 
L 138.557148 28.918565 
L 138.760057 29.78482 
L 138.962966 29.78482 
L 139.165875 28.918565 
L 139.571693 28.918565 
L 139.774602 30.651069 
L 140.18042 28.918565 
L 140.38333 32.383567 
L 140.586239 30.651069 
L 140.789148 32.383567 
L 140.992057 30.651069 
L 141.194966 34.116065 
L 141.397875 32.383567 
L 141.600784 34.116065 
L 142.006602 34.116065 
L 142.209511 48.842314 
L 142.41242 34.982314 
L 142.61533 60.103564 
L 142.818239 39.313563 
L 143.021148 37.581065 
L 143.426966 41.912316 
L 143.629875 41.046066 
L 143.832784 43.644814 
L 144.035693 43.644814 
L 144.441511 45.377312 
L 144.84733 50.574813 
L 145.050239 51.441067 
L 145.456057 54.039814 
L 145.658966 54.906064 
L 147.07933 66.167313 
L 147.485148 67.899814 
L 147.688057 70.498565 
L 147.890966 71.364814 
L 148.296784 76.562316 
L 148.499693 77.428565 
L 148.702602 79.161066 
L 148.905511 79.161066 
L 149.514239 84.358564 
L 149.717148 87.823565 
L 150.122966 89.556065 
L 150.528784 94.753566 
L 150.731693 94.753566 
L 151.34042 99.951064 
L 151.54333 99.951064 
L 151.949148 105.148565 
L 152.152057 105.148565 
L 152.760784 107.747315 
L 153.166602 112.078566 
L 153.57242 116.409814 
L 153.77533 115.543565 
L 153.978239 115.543565 
L 154.181148 119.008564 
L 154.384057 119.874814 
L 154.586966 119.874814 
L 154.789875 120.741065 
L 154.992784 120.741065 
L 155.195693 124.206067 
L 155.601511 124.206067 
L 155.80442 125.938566 
L 156.00733 125.938566 
L 156.210239 125.072316 
L 156.616057 128.537318 
L 156.818966 128.537318 
L 157.021875 129.403567 
L 157.224784 129.403567 
L 157.427693 130.269817 
L 157.833511 130.269817 
L 158.03642 128.537318 
L 158.23933 134.601068 
L 158.442239 129.403567 
L 158.645148 132.002315 
L 158.848057 130.269817 
L 159.253875 132.002315 
L 159.456784 131.136066 
L 159.659693 129.403567 
L 159.862602 130.269817 
L 160.065511 129.403567 
L 160.26842 129.403567 
L 160.47133 130.269817 
L 160.674239 130.269817 
L 160.877148 127.671064 
L 161.282966 129.403567 
L 161.688784 126.804815 
L 161.891693 125.938566 
L 162.094602 128.537318 
L 162.297511 125.938566 
L 162.50042 125.072316 
L 162.906239 120.741065 
L 163.109148 121.607314 
L 163.312057 119.008564 
L 163.514966 118.142315 
L 163.717875 118.142315 
L 164.123693 116.409814 
L 164.326602 113.811064 
L 164.529511 113.811064 
L 164.73242 112.944815 
L 164.93533 111.212314 
L 165.138239 111.212314 
L 165.341148 108.613564 
L 165.746966 108.613564 
L 166.152784 101.683565 
L 166.558602 101.683565 
L 166.761511 98.218565 
L 166.96442 98.218565 
L 167.16733 97.352314 
L 167.370239 95.619815 
L 167.776057 90.422315 
L 167.978966 91.288565 
L 168.587693 83.492315 
L 168.993511 83.492315 
L 169.602239 75.696065 
L 169.805148 74.829816 
L 170.008057 71.364814 
L 170.210966 71.364814 
L 170.413875 69.632316 
L 170.616784 69.632316 
L 172.240057 54.906064 
L 172.442966 55.772315 
L 172.645875 54.039814 
L 172.848784 54.039814 
L 173.051693 50.574813 
L 173.254602 50.574813 
L 173.457511 47.976065 
L 173.66042 47.109816 
L 174.066239 44.511063 
L 174.269148 44.511063 
L 174.472057 43.644814 
L 174.674966 41.046066 
L 174.877875 40.179812 
L 175.080784 38.447314 
L 175.283693 38.447314 
L 175.486602 35.848569 
L 175.689511 35.848569 
L 175.89242 34.982314 
L 176.09533 33.249816 
L 176.298239 33.249816 
L 176.501148 32.383567 
L 176.704057 32.383567 
L 176.906966 31.517318 
L 177.109875 29.78482 
L 177.312784 30.651069 
L 177.515693 32.383567 
L 178.12442 29.78482 
L 178.32733 29.78482 
L 178.530239 30.651069 
L 178.733148 28.918565 
L 179.138966 28.918565 
L 179.341875 31.517318 
L 179.747693 28.918565 
L 180.153511 28.918565 
L 180.35642 28.052316 
L 180.55933 28.918565 
L 180.762239 28.918565 
L 180.965148 29.78482 
L 181.168057 29.78482 
L 181.370966 30.651069 
L 181.573875 30.651069 
L 181.979693 32.383567 
L 182.182602 34.982314 
L 182.385511 34.116065 
L 182.79133 35.848569 
L 182.994239 32.383567 
L 183.197148 38.447314 
L 183.400057 38.447314 
L 183.805875 40.179812 
L 184.008784 41.912316 
L 184.211693 41.046066 
L 184.82042 47.109816 
L 185.02333 46.243567 
L 185.226239 50.574813 
L 185.429148 49.708563 
L 185.632057 50.574813 
L 185.834966 53.173565 
L 186.037875 54.039814 
L 186.240784 56.638564 
L 186.443693 56.638564 
L 186.646602 57.504814 
L 186.849511 60.969816 
L 187.05242 61.836065 
L 187.25533 61.836065 
L 188.066966 68.766063 
L 188.269875 68.766063 
L 188.472784 72.231066 
L 188.675693 73.097315 
L 189.690239 82.626065 
L 189.893148 81.759814 
L 190.298966 86.957315 
L 190.501875 89.556065 
L 190.704784 90.422315 
L 190.907693 93.021065 
L 191.313511 94.753566 
L 191.71933 99.951064 
L 191.922239 98.218565 
L 192.125148 101.683565 
L 192.328057 102.549815 
L 192.530966 105.148565 
L 192.733875 106.014814 
L 192.936784 109.479816 
L 193.139693 110.346065 
L 193.342602 107.747315 
L 194.357148 116.409814 
L 194.560057 116.409814 
L 194.965875 120.741065 
L 195.168784 119.874814 
L 195.371693 119.874814 
L 195.574602 121.607314 
L 195.777511 120.741065 
L 195.98042 123.339818 
L 196.18333 123.339818 
L 196.386239 125.938566 
L 196.589148 126.804815 
L 196.792057 125.938566 
L 196.994966 125.938566 
L 197.197875 129.403567 
L 198.009511 129.403567 
L 198.21242 130.269817 
L 198.821148 130.269817 
L 199.226966 132.002315 
L 199.429875 132.002315 
L 199.632784 130.269817 
L 199.835693 132.002315 
L 200.038602 132.002315 
L 200.241511 130.269817 
L 200.44442 131.136066 
L 200.64733 131.136066 
L 200.850239 130.269817 
L 201.053148 130.269817 
L 201.458966 128.537318 
L 201.661875 132.002315 
L 201.864784 127.671064 
L 202.270602 127.671064 
L 202.67642 125.938566 
L 202.87933 124.206067 
L 203.082239 125.072316 
L 203.285148 124.206067 
L 203.488057 125.072316 
L 203.690966 120.741065 
L 203.893875 119.874814 
L 204.096784 119.874814 
L 204.299693 118.142315 
L 204.502602 118.142315 
L 204.705511 114.677316 
L 204.90842 114.677316 
L 205.11133 116.409814 
L 205.517148 111.212314 
L 205.922966 109.479816 
L 206.531693 105.148565 
L 206.734602 104.282316 
L 207.749148 96.486065 
L 207.952057 95.619815 
L 208.560784 90.422315 
L 208.763693 90.422315 
L 208.966602 86.091066 
L 209.169511 85.224815 
L 209.57533 80.027315 
L 210.386966 76.562316 
L 210.589875 72.231066 
L 210.792784 72.231066 
L 210.995693 68.766063 
L 211.198602 68.766063 
L 211.401511 67.899814 
L 211.60442 65.301064 
L 212.010239 63.568566 
L 212.416057 58.371065 
L 212.618966 58.371065 
L 212.821875 55.772315 
L 213.024784 54.906064 
L 213.633511 50.574813 
L 214.242239 47.976065 
L 214.445148 45.377312 
L 215.256784 41.912316 
L 215.459693 41.912316 
L 215.662602 39.313563 
L 216.06842 37.581065 
L 216.27133 35.848569 
L 216.474239 35.848569 
L 216.880057 34.116065 
L 217.082966 34.116065 
L 217.285875 34.982314 
L 217.894602 30.651069 
L 218.30042 30.651069 
L 218.50333 28.918565 
L 218.706239 30.651069 
L 218.909148 28.918565 
L 219.112057 28.918565 
L 219.314966 28.052316 
L 219.517875 29.78482 
L 219.720784 28.918565 
L 219.923693 28.918565 
L 220.126602 28.052316 
L 220.329511 28.918565 
L 220.53242 28.918565 
L 220.73533 29.78482 
L 220.938239 29.78482 
L 221.141148 31.517318 
L 221.546966 29.78482 
L 221.749875 34.982314 
L 222.155693 31.517318 
L 222.358602 32.383567 
L 222.561511 31.517318 
L 222.76442 32.383567 
L 222.96733 34.116065 
L 223.170239 33.249816 
L 223.373148 35.848569 
L 223.576057 35.848569 
L 223.778966 36.714815 
L 223.981875 39.313563 
L 224.184784 37.581065 
L 224.99642 43.644814 
L 225.19933 44.511063 
L 225.402239 46.243567 
L 225.605148 49.708563 
L 225.808057 48.842314 
L 226.213875 50.574813 
L 226.619693 56.638564 
L 226.822602 55.772315 
L 227.22842 57.504814 
L 227.43133 60.103564 
L 227.634239 60.103564 
L 227.837148 62.702314 
L 228.040057 63.568566 
L 228.242966 66.167313 
L 228.445875 66.167313 
L 228.648784 68.766063 
L 229.054602 70.498565 
L 229.257511 73.963564 
L 229.46042 74.829816 
L 232.706966 103.416064 
L 232.909875 101.683565 
L 233.112784 102.549815 
L 234.330239 112.944815 
L 234.533148 112.944815 
L 234.938966 114.677316 
L 235.547693 119.008564 
L 235.750602 119.008564 
L 235.953511 122.473564 
L 236.765148 122.473564 
L 237.373875 126.804815 
L 237.576784 126.804815 
L 237.779693 128.537318 
L 237.982602 126.804815 
L 238.185511 128.537318 
L 238.38842 128.537318 
L 238.794239 130.269817 
L 238.997148 128.537318 
L 239.402966 130.269817 
L 239.605875 132.868564 
L 239.808784 131.136066 
L 240.82333 131.136066 
L 241.026239 132.002315 
L 241.229148 131.136066 
L 241.432057 129.403567 
L 241.634966 132.868564 
L 241.837875 129.403567 
L 242.040784 128.537318 
L 242.243693 129.403567 
L 242.446602 128.537318 
L 242.85242 128.537318 
L 243.05533 127.671064 
L 243.258239 124.206067 
L 243.461148 125.072316 
L 243.664057 121.607314 
L 244.069875 123.339818 
L 244.272784 120.741065 
L 244.475693 122.473564 
L 244.678602 122.473564 
L 244.881511 118.142315 
L 245.08442 117.276066 
L 245.490239 113.811064 
L 245.693148 113.811064 
L 246.301875 111.212314 
L 246.707693 107.747315 
L 246.910602 104.282316 
L 247.113511 105.148565 
L 247.31642 104.282316 
L 247.722239 101.683565 
L 247.925148 101.683565 
L 248.330966 96.486065 
L 249.54842 86.957315 
L 249.75133 86.091066 
L 250.157148 80.893565 
L 250.360057 78.294815 
L 250.562966 77.428565 
L 250.765875 75.696065 
L 250.968784 75.696065 
L 251.374602 72.231066 
L 251.577511 72.231066 
L 252.186239 63.568566 
L 252.389148 63.568566 
L 252.592057 62.702314 
L 253.403693 54.906064 
L 253.606602 55.772315 
L 254.418239 49.708563 
L 254.621148 48.842314 
L 254.824057 46.243567 
L 255.026966 46.243567 
L 255.229875 43.644814 
L 255.432784 44.511063 
L 255.838602 40.179812 
L 256.041511 41.046066 
L 256.24442 37.581065 
L 256.44733 37.581065 
L 256.650239 39.313563 
L 256.853148 34.982314 
L 257.056057 35.848569 
L 257.258966 34.982314 
L 257.461875 32.383567 
L 257.867693 32.383567 
L 258.070602 31.517318 
L 258.273511 32.383567 
L 258.47642 31.517318 
L 258.47642 31.517318 
" style="fill:none;stroke:#1f77b4;stroke-linecap:square;stroke-width:1.5;"/>
   </g>
   <g id="line2d_24">
    <path clip-path="url(#p186e0111e7)" d="M 55.56733 120.3911 
L 55.770239 119.524851 
L 56.176057 113.461102 
L 56.378966 114.327351 
L 56.581875 111.728601 
L 56.784784 110.862351 
L 56.987693 110.862351 
L 57.190602 106.5311 
L 57.393511 110.862351 
L 57.59642 104.798599 
L 57.79933 103.93235 
L 58.002239 102.199849 
L 58.205148 102.199849 
L 59.016784 94.4036 
L 59.219693 98.73485 
L 59.422602 90.9386 
L 59.625511 91.80485 
L 59.82842 90.07235 
L 60.234239 84.87485 
L 60.437148 84.87485 
L 60.640057 85.741099 
L 61.248784 77.0786 
L 61.451693 74.47985 
L 61.654602 74.47985 
L 61.857511 73.613599 
L 63.683693 58.887349 
L 63.886602 58.0211 
L 64.49533 51.957351 
L 64.698239 49.358601 
L 64.901148 50.22485 
L 65.104057 49.358601 
L 65.712784 44.161101 
L 65.915693 45.893599 
L 66.118602 44.161101 
L 66.321511 39.829849 
L 66.72733 39.829849 
L 67.133148 37.231102 
L 67.336057 37.231102 
L 67.538966 35.498598 
L 67.741875 37.231102 
L 67.944784 32.899851 
L 68.147693 33.7661 
L 68.350602 32.033602 
L 68.75642 32.033602 
L 68.95933 31.167347 
L 69.162239 31.167347 
L 69.365148 32.033602 
L 69.770966 29.434849 
L 70.176784 27.702351 
L 70.379693 29.434849 
L 70.582602 28.5686 
L 70.98842 30.301098 
L 71.394239 28.5686 
L 71.597148 26.836102 
L 71.800057 27.702351 
L 72.002966 19.039849 
L 72.205875 29.434849 
L 72.408784 29.434849 
L 72.611693 27.702351 
L 73.017511 32.033602 
L 73.22042 30.301098 
L 73.42333 30.301098 
L 73.626239 31.167347 
L 74.032057 31.167347 
L 74.234966 33.7661 
L 74.437875 34.632349 
L 74.640784 34.632349 
L 74.843693 36.364848 
L 75.046602 36.364848 
L 75.249511 38.9636 
L 75.65533 38.9636 
L 75.858239 40.696099 
L 76.061148 39.829849 
L 76.264057 43.294851 
L 76.466966 44.161101 
L 76.669875 45.893599 
L 76.872784 45.893599 
L 77.075693 48.492352 
L 77.278602 49.358601 
L 77.481511 51.091099 
L 77.68442 51.091099 
L 77.88733 54.556101 
L 78.090239 55.42235 
L 78.698966 59.753601 
L 78.901875 60.61985 
L 79.104784 63.2186 
L 79.510602 64.951099 
L 79.713511 66.6836 
L 79.91642 70.148599 
L 80.11933 69.28235 
L 80.322239 72.74735 
L 80.525148 72.74735 
L 80.930966 77.0786 
L 81.133875 77.944849 
L 81.539693 83.14235 
L 81.742602 83.14235 
L 81.945511 84.87485 
L 82.14842 88.33985 
L 82.35133 87.4736 
L 82.757148 91.80485 
L 83.568784 97.8686 
L 83.771693 98.73485 
L 83.974602 102.199849 
L 84.177511 102.199849 
L 84.38042 114.327351 
L 84.786239 103.066101 
L 84.989148 117.79235 
L 85.192057 109.129851 
L 85.394966 110.862351 
L 85.597875 110.862351 
L 86.81533 120.3911 
L 87.018239 119.524851 
L 87.424057 121.257349 
L 88.032784 125.5886 
L 88.235693 124.722351 
L 88.438602 126.454849 
L 88.641511 126.454849 
L 88.84442 128.187353 
L 89.250239 128.187353 
L 89.453148 129.053602 
L 89.656057 130.786101 
L 89.858966 129.919851 
L 90.264784 131.65235 
L 90.467693 130.786101 
L 90.670602 133.384853 
L 90.873511 131.65235 
L 91.27933 131.65235 
L 91.482239 132.518599 
L 91.685148 131.65235 
L 91.888057 132.518599 
L 92.090966 132.518599 
L 92.496784 130.786101 
L 92.699693 132.518599 
L 93.105511 129.919851 
L 93.30842 129.919851 
L 93.51133 129.053602 
L 93.714239 129.053602 
L 93.917148 128.187353 
L 94.120057 128.187353 
L 94.322966 124.722351 
L 94.525875 126.454849 
L 94.728784 125.5886 
L 94.931693 125.5886 
L 95.337511 123.856102 
L 95.946239 119.524851 
L 96.149148 119.524851 
L 96.352057 117.79235 
L 96.554966 114.327351 
L 96.757875 117.79235 
L 96.960784 116.926101 
L 97.163693 112.59485 
L 97.366602 113.461102 
L 97.569511 109.9961 
L 97.97533 108.263601 
L 98.178239 104.798599 
L 98.584057 106.5311 
L 98.786966 103.93235 
L 98.989875 99.601101 
L 99.192784 98.73485 
L 99.395693 98.73485 
L 99.801511 94.4036 
L 100.00442 93.53735 
L 100.816057 85.741099 
L 101.018966 86.60735 
L 101.221875 82.276101 
L 101.627693 79.67735 
L 101.830602 71.8811 
L 102.033511 77.0786 
L 103.048057 67.549849 
L 103.250966 64.084849 
L 103.453875 64.951099 
L 103.656784 64.951099 
L 104.062602 60.61985 
L 104.265511 58.0211 
L 104.67133 56.288599 
L 105.077148 53.689849 
L 105.280057 49.358601 
L 105.482966 51.091099 
L 105.685875 48.492352 
L 105.888784 47.626102 
L 106.091693 47.626102 
L 106.294602 43.294851 
L 106.497511 42.428602 
L 106.70042 42.428602 
L 106.90333 41.562348 
L 107.106239 42.428602 
L 107.309148 38.9636 
L 107.512057 38.097351 
L 107.714966 36.364848 
L 107.917875 38.097351 
L 108.120784 34.632349 
L 108.323693 34.632349 
L 108.526602 32.033602 
L 108.729511 34.632349 
L 108.93242 33.7661 
L 109.13533 33.7661 
L 109.338239 31.167347 
L 109.541148 34.632349 
L 109.744057 28.5686 
L 109.946966 29.434849 
L 110.149875 29.434849 
L 110.352784 49.358601 
L 110.555693 31.167347 
L 110.758602 27.702351 
L 111.16442 29.434849 
L 111.570239 27.702351 
L 111.773148 28.5686 
L 111.976057 28.5686 
L 112.178966 27.702351 
L 112.381875 29.434849 
L 112.787693 27.702351 
L 113.193511 29.434849 
L 113.39642 29.434849 
L 113.59933 30.301098 
L 113.802239 30.301098 
L 114.005148 32.033602 
L 114.208057 32.033602 
L 114.410966 31.167347 
L 114.816784 34.632349 
L 115.019693 33.7661 
L 115.222602 35.498598 
L 115.62842 35.498598 
L 115.83133 39.829849 
L 116.034239 38.097351 
L 116.440057 40.696099 
L 116.642966 41.562348 
L 117.048784 44.161101 
L 117.251693 44.161101 
L 117.657511 49.358601 
L 118.06333 49.358601 
L 118.469148 54.556101 
L 118.672057 54.556101 
L 118.874966 57.154851 
L 119.077875 57.154851 
L 120.29533 66.6836 
L 120.498239 67.549849 
L 120.904057 72.74735 
L 121.106966 73.613599 
L 122.933148 90.07235 
L 123.136057 89.2061 
L 125.165148 105.664851 
L 125.368057 104.798599 
L 125.773875 109.9961 
L 125.976784 114.327351 
L 126.382602 112.59485 
L 126.99133 116.926101 
L 127.194239 117.79235 
L 127.802966 122.123601 
L 128.005875 122.123601 
L 128.208784 123.856102 
L 128.411693 123.856102 
L 128.817511 125.5886 
L 129.02042 125.5886 
L 129.426239 127.321099 
L 129.629148 129.053602 
L 129.832057 128.187353 
L 130.034966 130.786101 
L 130.237875 129.053602 
L 130.440784 130.786101 
L 130.643693 130.786101 
L 130.846602 131.65235 
L 131.049511 130.786101 
L 131.25242 131.65235 
L 131.45533 130.786101 
L 131.658239 131.65235 
L 131.861148 131.65235 
L 132.064057 132.518599 
L 132.266966 131.65235 
L 132.469875 133.384853 
L 132.672784 131.65235 
L 132.875693 132.518599 
L 133.281511 129.919851 
L 133.48442 130.786101 
L 133.68733 129.919851 
L 134.093148 129.919851 
L 134.296057 128.187353 
L 134.498966 128.187353 
L 134.701875 129.919851 
L 134.904784 125.5886 
L 135.107693 126.454849 
L 135.310602 126.454849 
L 135.71642 123.856102 
L 135.91933 123.856102 
L 136.122239 122.98985 
L 136.528057 119.524851 
L 136.730966 119.524851 
L 136.933875 118.658599 
L 137.136784 115.1936 
L 137.339693 115.1936 
L 137.94842 110.862351 
L 138.15133 113.461102 
L 138.354239 109.129851 
L 138.962966 106.5311 
L 139.165875 102.199849 
L 139.774602 99.601101 
L 140.992057 88.33985 
L 141.194966 90.07235 
L 141.600784 84.87485 
L 141.803693 84.0086 
L 142.006602 80.543599 
L 142.209511 90.07235 
L 142.41242 77.944849 
L 142.61533 94.4036 
L 142.818239 73.613599 
L 143.224057 71.8811 
L 144.64442 59.753601 
L 144.84733 59.753601 
L 145.050239 57.154851 
L 145.253148 56.288599 
L 145.658966 51.957351 
L 146.064784 50.22485 
L 146.470602 46.759848 
L 146.673511 46.759848 
L 146.87642 47.626102 
L 147.07933 43.294851 
L 147.282239 43.294851 
L 147.485148 40.696099 
L 147.688057 39.829849 
L 147.890966 39.829849 
L 148.093875 38.9636 
L 148.296784 39.829849 
L 149.10842 32.899851 
L 149.31133 32.899851 
L 149.514239 32.033602 
L 149.717148 33.7661 
L 150.122966 31.167347 
L 150.325875 30.301098 
L 150.731693 30.301098 
L 150.934602 29.434849 
L 151.34042 29.434849 
L 151.54333 28.5686 
L 151.949148 30.301098 
L 152.354966 27.702351 
L 152.557875 27.702351 
L 152.760784 28.5686 
L 153.369511 28.5686 
L 153.57242 30.301098 
L 153.77533 28.5686 
L 153.978239 28.5686 
L 154.181148 30.301098 
L 154.384057 30.301098 
L 154.586966 33.7661 
L 154.789875 32.033602 
L 154.992784 32.033602 
L 155.398602 33.7661 
L 155.601511 35.498598 
L 156.00733 35.498598 
L 156.210239 34.632349 
L 156.413148 38.097351 
L 156.616057 38.9636 
L 156.818966 38.9636 
L 157.021875 42.428602 
L 157.224784 41.562348 
L 157.427693 42.428602 
L 157.833511 45.02735 
L 158.03642 43.294851 
L 158.23933 53.689849 
L 158.442239 46.759848 
L 158.645148 51.957351 
L 158.848057 51.957351 
L 159.456784 56.288599 
L 159.659693 57.154851 
L 161.485875 71.8811 
L 161.688784 72.74735 
L 161.891693 74.47985 
L 162.094602 77.944849 
L 162.297511 78.8111 
L 162.50042 81.40985 
L 162.70333 81.40985 
L 162.906239 82.276101 
L 163.109148 84.87485 
L 163.312057 85.741099 
L 163.514966 89.2061 
L 163.717875 90.07235 
L 163.920784 90.07235 
L 164.123693 94.4036 
L 164.326602 94.4036 
L 164.529511 97.002351 
L 164.73242 97.8686 
L 164.93533 100.46735 
L 165.138239 101.3336 
L 165.341148 103.066101 
L 165.544057 107.397349 
L 165.746966 109.129851 
L 165.949875 108.263601 
L 166.152784 109.129851 
L 166.355693 109.129851 
L 166.558602 112.59485 
L 166.761511 109.9961 
L 167.370239 118.658599 
L 167.573148 116.059849 
L 167.978966 121.257349 
L 168.181875 118.658599 
L 168.384784 122.123601 
L 168.587693 122.123601 
L 168.790602 122.98985 
L 168.993511 126.454849 
L 169.19642 124.722351 
L 169.39933 125.5886 
L 169.602239 125.5886 
L 169.805148 127.321099 
L 170.008057 126.454849 
L 170.210966 129.053602 
L 170.413875 129.053602 
L 170.616784 130.786101 
L 170.819693 129.919851 
L 171.022602 131.65235 
L 171.225511 129.919851 
L 171.42842 131.65235 
L 171.63133 130.786101 
L 171.834239 132.518599 
L 172.037148 131.65235 
L 172.240057 132.518599 
L 172.442966 132.518599 
L 172.645875 131.65235 
L 172.848784 132.518599 
L 173.051693 131.65235 
L 173.254602 132.518599 
L 173.457511 131.65235 
L 173.66042 132.518599 
L 174.066239 129.919851 
L 174.269148 130.786101 
L 174.472057 130.786101 
L 174.877875 128.187353 
L 175.080784 127.321099 
L 175.283693 128.187353 
L 175.486602 126.454849 
L 175.689511 126.454849 
L 176.09533 124.722351 
L 176.298239 122.98985 
L 176.501148 123.856102 
L 176.704057 120.3911 
L 176.906966 122.123601 
L 177.109875 118.658599 
L 177.312784 117.79235 
L 177.515693 120.3911 
L 177.718602 118.658599 
L 177.921511 114.327351 
L 178.12442 114.327351 
L 178.32733 113.461102 
L 178.733148 107.397349 
L 178.936057 108.263601 
L 179.138966 106.5311 
L 179.341875 110.862351 
L 179.544784 104.798599 
L 179.747693 103.93235 
L 179.950602 101.3336 
L 180.153511 101.3336 
L 180.35642 97.8686 
L 180.762239 96.1361 
L 180.965148 96.1361 
L 181.573875 88.33985 
L 181.776784 88.33985 
L 181.979693 86.60735 
L 182.182602 86.60735 
L 182.385511 82.276101 
L 182.58842 80.543599 
L 182.79133 81.40985 
L 182.994239 71.014851 
L 183.197148 76.21235 
L 183.400057 75.346101 
L 183.805875 71.014851 
L 184.008784 69.28235 
L 184.211693 69.28235 
L 184.617511 64.951099 
L 184.82042 64.084849 
L 186.443693 50.22485 
L 186.646602 50.22485 
L 186.849511 48.492352 
L 187.05242 48.492352 
L 187.25533 45.893599 
L 188.066966 42.428602 
L 188.269875 39.829849 
L 188.675693 38.097351 
L 188.878602 38.097351 
L 189.28442 33.7661 
L 189.48733 35.498598 
L 189.690239 35.498598 
L 189.893148 32.033602 
L 190.096057 33.7661 
L 190.298966 31.167347 
L 190.501875 32.033602 
L 191.110602 29.434849 
L 191.313511 32.033602 
L 191.51642 30.301098 
L 191.71933 30.301098 
L 191.922239 27.702351 
L 192.125148 28.5686 
L 192.328057 28.5686 
L 192.530966 29.434849 
L 192.733875 27.702351 
L 192.936784 28.5686 
L 193.139693 28.5686 
L 193.342602 27.702351 
L 193.545511 27.702351 
L 193.74842 26.836102 
L 194.154239 29.434849 
L 194.560057 29.434849 
L 194.762966 31.167347 
L 195.371693 31.167347 
L 195.777511 32.899851 
L 195.98042 32.899851 
L 196.589148 38.097351 
L 196.792057 35.498598 
L 197.197875 38.9636 
L 197.400784 38.9636 
L 197.603693 39.829849 
L 198.41533 45.893599 
L 198.618239 45.893599 
L 198.821148 46.759848 
L 199.429875 51.957351 
L 199.632784 51.957351 
L 199.835693 56.288599 
L 200.038602 58.0211 
L 200.241511 56.288599 
L 200.44442 57.154851 
L 200.850239 62.352349 
L 201.053148 64.951099 
L 201.256057 65.817351 
L 201.458966 67.549849 
L 201.661875 71.8811 
L 201.864784 70.148599 
L 203.285148 81.40985 
L 203.488057 85.741099 
L 203.690966 84.87485 
L 204.90842 95.269849 
L 205.11133 98.73485 
L 205.314239 98.73485 
L 205.517148 100.46735 
L 205.720057 100.46735 
L 205.922966 101.3336 
L 206.125875 106.5311 
L 206.328784 103.93235 
L 206.531693 105.664851 
L 206.937511 112.59485 
L 207.34333 112.59485 
L 207.546239 113.461102 
L 207.749148 113.461102 
L 207.952057 115.1936 
L 208.154966 118.658599 
L 208.357875 118.658599 
L 208.763693 123.856102 
L 208.966602 121.257349 
L 209.37242 123.856102 
L 209.57533 121.257349 
L 209.778239 125.5886 
L 210.184057 127.321099 
L 210.589875 127.321099 
L 210.792784 129.919851 
L 210.995693 128.187353 
L 211.198602 129.919851 
L 211.401511 129.919851 
L 211.60442 130.786101 
L 211.80733 130.786101 
L 212.010239 129.919851 
L 212.213148 131.65235 
L 212.416057 130.786101 
L 212.618966 133.384853 
L 212.821875 131.65235 
L 213.024784 132.518599 
L 213.227693 130.786101 
L 213.430602 133.384853 
L 213.83642 130.786101 
L 214.445148 130.786101 
L 214.648057 131.65235 
L 214.850966 129.919851 
L 215.053875 130.786101 
L 215.256784 129.919851 
L 215.459693 130.786101 
L 215.662602 128.187353 
L 216.27133 125.5886 
L 216.474239 125.5886 
L 216.677148 122.98985 
L 216.880057 123.856102 
L 217.082966 123.856102 
L 217.285875 124.722351 
L 217.488784 121.257349 
L 217.691693 120.3911 
L 218.097511 116.926101 
L 218.30042 116.926101 
L 218.50333 114.327351 
L 218.706239 116.059849 
L 218.909148 115.1936 
L 219.112057 109.9961 
L 219.517875 108.263601 
L 219.720784 105.664851 
L 219.923693 108.263601 
L 220.126602 103.93235 
L 220.329511 104.798599 
L 220.53242 104.798599 
L 220.73533 100.46735 
L 220.938239 98.73485 
L 221.141148 98.73485 
L 221.546966 92.671099 
L 221.749875 99.601101 
L 222.358602 88.33985 
L 222.76442 83.14235 
L 223.170239 81.40985 
L 223.373148 78.8111 
L 223.576057 77.944849 
L 223.778966 75.346101 
L 223.981875 75.346101 
L 224.184784 71.014851 
L 224.387693 69.28235 
L 224.590602 69.28235 
L 224.793511 67.549849 
L 224.99642 67.549849 
L 226.416784 55.42235 
L 226.619693 55.42235 
L 226.822602 53.689849 
L 227.22842 48.492352 
L 227.43133 50.22485 
L 227.634239 45.893599 
L 227.837148 45.893599 
L 228.242966 43.294851 
L 228.648784 41.562348 
L 229.054602 37.231102 
L 229.257511 38.9636 
L 229.66333 35.498598 
L 229.866239 36.364848 
L 230.069148 33.7661 
L 230.272057 35.498598 
L 230.474966 32.033602 
L 230.677875 32.899851 
L 230.880784 32.899851 
L 231.286602 31.167347 
L 231.489511 32.033602 
L 231.89533 29.434849 
L 232.098239 32.033602 
L 232.301148 28.5686 
L 232.706966 31.167347 
L 232.909875 28.5686 
L 233.315693 28.5686 
L 233.518602 27.702351 
L 233.721511 28.5686 
L 233.92442 27.702351 
L 234.330239 29.434849 
L 234.736057 29.434849 
L 234.938966 28.5686 
L 235.141875 30.301098 
L 235.344784 29.434849 
L 235.953511 32.033602 
L 236.15642 31.167347 
L 236.35933 31.167347 
L 236.765148 33.7661 
L 236.968057 34.632349 
L 237.170966 33.7661 
L 237.373875 37.231102 
L 237.576784 38.097351 
L 237.779693 39.829849 
L 237.982602 38.9636 
L 238.185511 39.829849 
L 238.794239 44.161101 
L 238.997148 45.02735 
L 239.200057 44.161101 
L 239.402966 48.492352 
L 239.605875 50.22485 
L 239.808784 50.22485 
L 240.011693 51.091099 
L 241.432057 62.352349 
L 241.634966 67.549849 
L 241.837875 64.951099 
L 243.05533 76.21235 
L 243.258239 75.346101 
L 243.461148 78.8111 
L 243.664057 78.8111 
L 244.069875 84.0086 
L 244.272784 84.87485 
L 244.678602 90.07235 
L 244.881511 90.07235 
L 245.08442 92.671099 
L 245.490239 94.4036 
L 245.693148 97.002351 
L 245.896057 97.002351 
L 246.301875 102.199849 
L 246.504784 101.3336 
L 246.910602 106.5311 
L 247.31642 108.263601 
L 247.925148 114.327351 
L 248.128057 116.926101 
L 248.330966 116.059849 
L 248.533875 116.059849 
L 248.939693 119.524851 
L 249.142602 118.658599 
L 249.345511 121.257349 
L 249.54842 120.3911 
L 249.75133 123.856102 
L 249.954239 122.98985 
L 250.157148 124.722351 
L 250.360057 124.722351 
L 250.765875 126.454849 
L 250.968784 128.187353 
L 251.171693 127.321099 
L 251.577511 130.786101 
L 251.98333 129.053602 
L 252.186239 126.454849 
L 252.389148 130.786101 
L 252.592057 131.65235 
L 252.997875 131.65235 
L 253.200784 132.518599 
L 254.21533 132.518599 
L 254.418239 131.65235 
L 254.824057 131.65235 
L 255.026966 129.919851 
L 255.229875 130.786101 
L 255.432784 130.786101 
L 255.635693 129.919851 
L 255.838602 128.187353 
L 256.041511 129.053602 
L 256.24442 126.454849 
L 256.650239 128.187353 
L 256.853148 125.5886 
L 257.056057 125.5886 
L 257.461875 122.123601 
L 257.664784 123.856102 
L 257.867693 121.257349 
L 258.070602 121.257349 
L 258.273511 122.98985 
L 258.47642 120.3911 
L 258.47642 120.3911 
" style="fill:none;stroke:#ff7f0e;stroke-linecap:square;stroke-width:1.5;"/>
   </g>
   <g id="line2d_25">
    <path clip-path="url(#p186e0111e7)" d="M 55.56733 90.997505 
L 55.770239 93.596255 
L 55.973148 93.596255 
L 56.176057 94.462505 
L 56.378966 97.061255 
L 56.581875 97.927506 
L 56.987693 103.125006 
L 57.190602 101.392505 
L 57.393511 110.055005 
L 57.59642 103.991255 
L 58.408057 113.520007 
L 58.610966 111.787506 
L 58.813875 115.252505 
L 59.016784 116.118757 
L 59.219693 120.450005 
L 59.422602 116.985006 
L 59.625511 117.851255 
L 59.82842 120.450005 
L 60.03133 119.583756 
L 60.437148 121.316257 
L 60.640057 127.380006 
L 61.045875 124.781253 
L 61.248784 125.647503 
L 61.451693 125.647503 
L 62.06042 130.845003 
L 62.26333 128.246255 
L 62.466239 129.978754 
L 62.669148 129.112504 
L 63.277875 131.711252 
L 64.089511 131.711252 
L 64.29242 132.577506 
L 64.49533 131.711252 
L 64.698239 129.112504 
L 64.901148 131.711252 
L 65.104057 131.711252 
L 65.306966 132.577506 
L 65.509875 132.577506 
L 65.712784 131.711252 
L 65.915693 131.711252 
L 66.118602 129.978754 
L 66.321511 129.978754 
L 66.52442 128.246255 
L 66.930239 128.246255 
L 67.133148 126.513752 
L 67.336057 127.380006 
L 67.538966 125.647503 
L 67.741875 127.380006 
L 67.944784 123.048755 
L 68.147693 123.048755 
L 68.553511 120.450005 
L 68.75642 119.583756 
L 69.162239 119.583756 
L 69.365148 122.182506 
L 69.568057 121.316257 
L 69.973875 110.921254 
L 70.176784 111.787506 
L 70.379693 111.787506 
L 70.582602 110.921254 
L 70.785511 110.921254 
L 70.98842 111.787506 
L 71.19133 104.857504 
L 71.597148 102.258754 
L 71.800057 102.258754 
L 72.002966 89.265005 
L 72.205875 97.061255 
L 72.408784 95.328754 
L 72.611693 95.328754 
L 72.814602 92.730004 
L 73.017511 92.730004 
L 73.42333 89.265005 
L 73.626239 84.933755 
L 73.829148 83.201255 
L 74.032057 83.201255 
L 75.046602 75.405005 
L 75.249511 74.538754 
L 75.65533 70.207504 
L 76.466966 63.277505 
L 76.669875 63.277505 
L 77.278602 56.347507 
L 77.481511 56.347507 
L 77.68442 53.748757 
L 78.090239 53.748757 
L 78.496057 48.551257 
L 78.698966 47.685005 
L 78.901875 45.952506 
L 79.104784 45.952506 
L 79.307693 42.487504 
L 79.510602 42.487504 
L 79.713511 41.621255 
L 79.91642 43.353754 
L 80.11933 39.888757 
L 80.322239 39.022508 
L 80.728057 36.423755 
L 80.930966 37.290004 
L 81.133875 33.825008 
L 81.336784 35.557506 
L 81.539693 34.691257 
L 81.742602 32.092504 
L 81.945511 32.092504 
L 82.14842 32.958753 
L 82.35133 30.360006 
L 82.554239 31.226255 
L 82.757148 31.226255 
L 82.960057 30.360006 
L 83.162966 30.360006 
L 83.365875 29.493757 
L 83.568784 29.493757 
L 83.771693 27.761253 
L 83.974602 28.627507 
L 84.177511 28.627507 
L 84.38042 39.022508 
L 84.58333 32.958753 
L 84.786239 19.965005 
L 84.989148 40.755006 
L 85.192057 27.761253 
L 85.394966 28.627507 
L 85.800784 28.627507 
L 86.003693 29.493757 
L 86.206602 29.493757 
L 86.409511 32.958753 
L 86.81533 31.226255 
L 87.221148 32.958753 
L 87.424057 31.226255 
L 87.626966 32.958753 
L 87.829875 32.958753 
L 88.438602 37.290004 
L 88.641511 36.423755 
L 88.84442 39.888757 
L 89.250239 39.888757 
L 89.656057 44.220008 
L 89.858966 43.353754 
L 90.670602 49.417506 
L 91.07642 51.150007 
L 91.27933 53.748757 
L 91.482239 54.615006 
L 92.293875 60.678755 
L 92.496784 61.545004 
L 92.699693 65.010006 
L 92.902602 65.010006 
L 93.105511 65.876256 
L 93.51133 71.073755 
L 93.714239 71.073755 
L 93.917148 74.538754 
L 94.120057 74.538754 
L 94.322966 77.137504 
L 94.525875 77.137504 
L 95.134602 82.335005 
L 95.337511 85.800005 
L 95.54042 86.666255 
L 96.960784 97.927506 
L 97.163693 98.793755 
L 97.366602 102.258754 
L 97.569511 101.392505 
L 97.77242 102.258754 
L 97.97533 103.991255 
L 98.178239 103.991255 
L 98.381148 107.456254 
L 98.584057 113.520007 
L 98.786966 114.386256 
L 98.989875 111.787506 
L 99.192784 112.653755 
L 99.395693 114.386256 
L 99.598602 114.386256 
L 100.00442 117.851255 
L 100.20733 122.182506 
L 100.410239 122.182506 
L 100.613148 120.450005 
L 101.018966 124.781253 
L 101.221875 123.048755 
L 101.424784 123.915004 
L 101.627693 125.647503 
L 101.830602 118.717507 
L 102.033511 127.380006 
L 102.23642 127.380006 
L 102.43933 129.112504 
L 103.048057 129.112504 
L 103.250966 126.513752 
L 103.656784 131.711252 
L 103.859693 132.577506 
L 104.062602 130.845003 
L 104.265511 131.711252 
L 104.46842 131.711252 
L 104.67133 132.577506 
L 104.874239 131.711252 
L 105.077148 131.711252 
L 105.280057 129.978754 
L 105.482966 131.711252 
L 105.685875 130.845003 
L 105.888784 131.711252 
L 106.091693 130.845003 
L 106.294602 129.112504 
L 106.70042 129.112504 
L 106.90333 129.978754 
L 107.106239 129.978754 
L 107.309148 124.781253 
L 107.512057 128.246255 
L 107.714966 127.380006 
L 107.917875 128.246255 
L 108.120784 124.781253 
L 108.323693 124.781253 
L 108.526602 122.182506 
L 108.93242 125.647503 
L 109.338239 120.450005 
L 109.541148 121.316257 
L 109.744057 116.118757 
L 109.946966 117.851255 
L 110.149875 116.118757 
L 110.352784 147.303758 
L 110.555693 116.985006 
L 111.16442 110.055005 
L 111.36733 109.188756 
L 111.570239 104.857504 
L 111.773148 106.590005 
L 112.178966 100.526255 
L 112.381875 102.258754 
L 112.584784 101.392505 
L 112.787693 97.061255 
L 112.990602 96.195005 
L 113.193511 96.195005 
L 113.59933 91.863755 
L 114.208057 85.800005 
L 114.410966 83.201255 
L 114.613875 84.067505 
L 114.816784 81.468755 
L 115.019693 80.602505 
L 115.425511 76.271255 
L 116.642966 65.876256 
L 116.845875 65.876256 
L 117.251693 60.678755 
L 117.454602 61.545004 
L 117.86042 56.347507 
L 118.06333 55.481255 
L 118.266239 55.481255 
L 118.469148 54.615006 
L 118.672057 51.150007 
L 118.874966 50.283755 
L 119.077875 50.283755 
L 119.280784 49.417506 
L 119.889511 42.487504 
L 120.09242 42.487504 
L 120.498239 40.755006 
L 120.701148 39.022508 
L 120.904057 39.888757 
L 121.106966 37.290004 
L 121.309875 36.423755 
L 121.512784 34.691257 
L 121.715693 34.691257 
L 121.918602 33.825008 
L 122.121511 36.423755 
L 122.32442 32.092504 
L 122.52733 33.825008 
L 122.730239 32.092504 
L 122.933148 32.958753 
L 123.338966 29.493757 
L 123.541875 29.493757 
L 123.744784 27.761253 
L 124.150602 29.493757 
L 124.55642 27.761253 
L 124.75933 29.493757 
L 124.962239 29.493757 
L 125.165148 28.627507 
L 125.368057 24.296256 
L 125.570966 28.627507 
L 125.976784 28.627507 
L 126.179693 29.493757 
L 126.382602 27.761253 
L 126.585511 30.360006 
L 126.78842 28.627507 
L 126.99133 30.360006 
L 127.194239 29.493757 
L 127.397148 29.493757 
L 127.600057 32.958753 
L 127.802966 32.092504 
L 128.411693 34.691257 
L 128.614602 33.825008 
L 128.817511 34.691257 
L 129.22333 37.290004 
L 129.426239 38.156253 
L 129.832057 41.621255 
L 130.237875 41.621255 
L 130.440784 45.086257 
L 130.643693 45.086257 
L 130.846602 46.818756 
L 131.049511 46.818756 
L 131.25242 50.283755 
L 131.45533 50.283755 
L 131.658239 52.882505 
L 131.861148 52.016256 
L 132.064057 56.347507 
L 132.266966 56.347507 
L 133.078602 63.277505 
L 133.281511 63.277505 
L 133.890239 68.475006 
L 134.093148 68.475006 
L 134.296057 71.940006 
L 134.498966 72.806255 
L 134.701875 75.405005 
L 134.904784 76.271255 
L 136.122239 86.666255 
L 136.325148 86.666255 
L 136.528057 85.800005 
L 136.730966 91.863755 
L 137.136784 94.462505 
L 137.339693 95.328754 
L 137.542602 97.927506 
L 137.745511 97.927506 
L 137.94842 99.660006 
L 138.15133 104.857504 
L 138.354239 103.125006 
L 138.962966 109.188756 
L 139.165875 108.322504 
L 139.368784 109.188756 
L 139.571693 110.921254 
L 139.774602 116.118757 
L 139.977511 117.851255 
L 140.18042 114.386256 
L 140.38333 117.851255 
L 140.586239 117.851255 
L 140.789148 120.450005 
L 140.992057 119.583756 
L 141.194966 123.048755 
L 141.397875 123.048755 
L 141.803693 124.781253 
L 142.006602 123.915004 
L 142.209511 136.908757 
L 142.41242 125.647503 
L 142.61533 160.297506 
L 142.818239 127.380006 
L 143.021148 128.246255 
L 143.224057 129.978754 
L 143.629875 129.978754 
L 143.832784 130.845003 
L 144.035693 129.978754 
L 144.238602 131.711252 
L 144.441511 130.845003 
L 144.84733 132.577506 
L 145.050239 131.711252 
L 145.253148 132.577506 
L 145.456057 132.577506 
L 145.658966 131.711252 
L 145.861875 131.711252 
L 146.064784 133.443756 
L 146.470602 130.845003 
L 146.673511 130.845003 
L 146.87642 132.577506 
L 147.282239 129.978754 
L 147.485148 129.978754 
L 147.688057 129.112504 
L 147.890966 129.112504 
L 148.093875 128.246255 
L 148.296784 128.246255 
L 148.499693 127.380006 
L 148.905511 123.915004 
L 149.10842 123.915004 
L 149.514239 122.182506 
L 149.717148 122.182506 
L 149.920057 121.316257 
L 150.122966 121.316257 
L 150.325875 115.252505 
L 150.528784 118.717507 
L 150.731693 116.118757 
L 150.934602 116.118757 
L 151.137511 111.787506 
L 151.34042 112.653755 
L 151.54333 109.188756 
L 151.746239 113.520007 
L 151.949148 110.921254 
L 152.152057 104.857504 
L 152.557875 101.392505 
L 152.760784 102.258754 
L 154.181148 90.997505 
L 154.384057 90.131255 
L 154.586966 90.131255 
L 154.992784 84.067505 
L 155.195693 84.933755 
L 155.398602 81.468755 
L 155.601511 80.602505 
L 156.00733 76.271255 
L 156.210239 73.672505 
L 156.818966 71.073755 
L 157.021875 71.073755 
L 157.224784 65.876256 
L 157.427693 65.876256 
L 157.833511 61.545004 
L 158.03642 54.615006 
L 158.23933 65.876256 
L 158.442239 55.481255 
L 158.645148 58.080005 
L 158.848057 53.748757 
L 159.253875 52.016256 
L 160.065511 45.086257 
L 160.47133 45.086257 
L 161.080057 40.755006 
L 161.282966 40.755006 
L 161.891693 36.423755 
L 162.094602 39.022508 
L 162.50042 33.825008 
L 162.70333 34.691257 
L 162.906239 32.958753 
L 163.109148 32.958753 
L 163.312057 30.360006 
L 163.717875 30.360006 
L 163.920784 29.493757 
L 164.123693 30.360006 
L 164.326602 28.627507 
L 164.529511 29.493757 
L 164.73242 29.493757 
L 164.93533 27.761253 
L 165.138239 29.493757 
L 165.341148 27.761253 
L 165.544057 30.360006 
L 165.949875 27.761253 
L 166.355693 27.761253 
L 166.558602 30.360006 
L 166.761511 27.761253 
L 166.96442 28.627507 
L 167.16733 30.360006 
L 167.370239 29.493757 
L 167.573148 29.493757 
L 167.776057 32.092504 
L 168.587693 32.092504 
L 168.993511 35.557506 
L 169.19642 35.557506 
L 169.39933 36.423755 
L 169.602239 35.557506 
L 169.805148 36.423755 
L 170.008057 35.557506 
L 170.210966 39.888757 
L 170.413875 40.755006 
L 170.616784 40.755006 
L 171.022602 45.086257 
L 171.42842 46.818756 
L 171.834239 50.283755 
L 172.037148 49.417506 
L 172.442966 53.748757 
L 172.645875 54.615006 
L 173.66042 62.411256 
L 173.86333 62.411256 
L 174.066239 65.876256 
L 174.269148 65.876256 
L 174.472057 68.475006 
L 174.674966 69.341255 
L 174.877875 71.940006 
L 175.080784 71.940006 
L 175.486602 77.137504 
L 175.689511 77.137504 
L 175.89242 79.736255 
L 176.09533 80.602505 
L 176.501148 84.933755 
L 176.704057 84.933755 
L 177.109875 90.997505 
L 177.312784 91.863755 
L 177.515693 94.462505 
L 177.718602 93.596255 
L 177.921511 97.061255 
L 178.12442 97.061255 
L 178.32733 99.660006 
L 178.530239 100.526255 
L 178.733148 103.991255 
L 178.936057 102.258754 
L 179.138966 103.125006 
L 179.341875 111.787506 
L 179.544784 109.188756 
L 179.747693 110.055005 
L 179.950602 108.322504 
L 180.153511 112.653755 
L 180.35642 113.520007 
L 180.55933 113.520007 
L 180.762239 114.386256 
L 180.965148 120.450005 
L 181.168057 121.316257 
L 181.370966 117.851255 
L 181.573875 118.717507 
L 181.776784 121.316257 
L 181.979693 120.450005 
L 182.182602 124.781253 
L 182.385511 123.048755 
L 182.58842 123.048755 
L 182.79133 125.647503 
L 182.994239 118.717507 
L 183.197148 127.380006 
L 183.400057 127.380006 
L 183.602966 128.246255 
L 183.805875 128.246255 
L 184.617511 131.711252 
L 184.82042 131.711252 
L 185.02333 130.845003 
L 185.226239 133.443756 
L 185.429148 131.711252 
L 185.632057 132.577506 
L 185.834966 130.845003 
L 186.037875 132.577506 
L 186.240784 131.711252 
L 186.646602 131.711252 
L 187.05242 133.443756 
L 187.25533 130.845003 
L 187.458239 131.711252 
L 187.661148 129.978754 
L 188.066966 129.978754 
L 188.472784 127.380006 
L 188.675693 128.246255 
L 189.081511 125.647503 
L 189.28442 124.781253 
L 189.48733 125.647503 
L 189.690239 124.781253 
L 189.893148 121.316257 
L 190.096057 121.316257 
L 190.298966 120.450005 
L 190.501875 120.450005 
L 191.110602 117.851255 
L 191.313511 120.450005 
L 191.51642 118.717507 
L 191.922239 110.921254 
L 192.125148 110.921254 
L 192.530966 109.188756 
L 192.936784 106.590005 
L 193.139693 107.456254 
L 193.342602 99.660006 
L 193.545511 100.526255 
L 193.95133 97.927506 
L 194.357148 96.195005 
L 194.762966 90.997505 
L 195.168784 89.265005 
L 195.371693 84.933755 
L 195.574602 84.933755 
L 195.98042 79.736255 
L 196.386239 79.736255 
L 196.994966 71.940006 
L 197.197875 72.806255 
L 197.603693 67.608756 
L 197.806602 66.742505 
L 198.009511 65.010006 
L 198.21242 65.010006 
L 198.821148 57.213756 
L 199.226966 55.481255 
L 199.429875 55.481255 
L 199.632784 52.882505 
L 199.835693 52.882505 
L 200.038602 52.016256 
L 200.241511 47.685005 
L 200.44442 46.818756 
L 200.64733 46.818756 
L 201.053148 43.353754 
L 201.256057 43.353754 
L 201.458966 40.755006 
L 201.661875 45.952506 
L 201.864784 39.022508 
L 202.067693 38.156253 
L 202.270602 38.156253 
L 202.473511 37.290004 
L 202.87933 33.825008 
L 203.082239 34.691257 
L 203.285148 34.691257 
L 203.488057 33.825008 
L 203.893875 31.226255 
L 204.096784 30.360006 
L 204.502602 30.360006 
L 204.705511 27.761253 
L 204.90842 29.493757 
L 205.11133 28.627507 
L 205.314239 29.493757 
L 205.517148 28.627507 
L 205.720057 28.627507 
L 205.922966 29.493757 
L 206.125875 33.825008 
L 206.328784 26.895004 
L 206.734602 29.493757 
L 206.937511 29.493757 
L 207.14042 28.627507 
L 207.34333 29.493757 
L 207.546239 28.627507 
L 207.952057 30.360006 
L 208.357875 30.360006 
L 208.560784 31.226255 
L 208.763693 36.423755 
L 208.966602 32.092504 
L 209.169511 33.825008 
L 209.37242 33.825008 
L 209.57533 31.226255 
L 209.778239 36.423755 
L 209.981148 35.557506 
L 210.184057 36.423755 
L 210.386966 39.888757 
L 210.589875 38.156253 
L 210.792784 39.888757 
L 210.995693 39.022508 
L 211.198602 41.621255 
L 211.401511 42.487504 
L 212.010239 47.685005 
L 212.213148 46.818756 
L 212.416057 46.818756 
L 212.618966 51.150007 
L 212.821875 51.150007 
L 213.83642 59.812506 
L 214.03933 59.812506 
L 214.242239 63.277505 
L 214.445148 63.277505 
L 214.648057 65.876256 
L 214.850966 66.742505 
L 215.256784 71.073755 
L 215.459693 73.672505 
L 215.662602 72.806255 
L 217.082966 84.067505 
L 217.285875 88.398755 
L 218.097511 91.863755 
L 218.30042 96.195005 
L 218.50333 96.195005 
L 218.706239 100.526255 
L 219.112057 98.793755 
L 219.314966 103.125006 
L 219.517875 103.125006 
L 219.720784 103.991255 
L 219.923693 106.590005 
L 220.126602 107.456254 
L 220.329511 109.188756 
L 220.53242 114.386256 
L 220.938239 111.787506 
L 221.141148 116.118757 
L 221.344057 116.985006 
L 221.546966 116.118757 
L 221.749875 130.845003 
L 221.952784 123.048755 
L 222.358602 123.048755 
L 222.561511 122.182506 
L 222.76442 122.182506 
L 222.96733 124.781253 
L 223.373148 124.781253 
L 223.576057 125.647503 
L 223.778966 124.781253 
L 223.981875 129.978754 
L 224.184784 125.647503 
L 224.387693 128.246255 
L 224.793511 129.978754 
L 225.19933 129.978754 
L 225.402239 130.845003 
L 225.605148 133.443756 
L 225.808057 133.443756 
L 226.010966 132.577506 
L 226.213875 130.845003 
L 226.416784 133.443756 
L 226.619693 132.577506 
L 226.822602 133.443756 
L 227.025511 130.845003 
L 227.22842 132.577506 
L 227.634239 130.845003 
L 228.040057 130.845003 
L 228.242966 129.978754 
L 228.648784 129.978754 
L 228.851693 129.112504 
L 229.054602 126.513752 
L 229.257511 128.246255 
L 229.46042 127.380006 
L 229.66333 125.647503 
L 229.866239 126.513752 
L 230.069148 123.915004 
L 230.272057 123.915004 
L 230.474966 122.182506 
L 230.677875 122.182506 
L 230.880784 124.781253 
L 231.083693 120.450005 
L 231.69242 117.851255 
L 231.89533 114.386256 
L 232.098239 116.118757 
L 232.301148 114.386256 
L 232.504057 116.118757 
L 232.706966 114.386256 
L 232.909875 107.456254 
L 233.112784 107.456254 
L 233.315693 104.857504 
L 233.518602 105.723756 
L 233.721511 104.857504 
L 233.92442 101.392505 
L 234.330239 101.392505 
L 234.938966 92.730004 
L 235.141875 93.596255 
L 235.344784 90.997505 
L 235.547693 90.997505 
L 236.35933 80.602505 
L 236.562239 80.602505 
L 237.170966 75.405005 
L 237.576784 75.405005 
L 237.982602 71.073755 
L 238.38842 65.876256 
L 238.59133 65.010006 
L 238.997148 61.545004 
L 239.200057 57.213756 
L 239.402966 58.946254 
L 239.605875 58.946254 
L 239.808784 54.615006 
L 240.214602 52.882505 
L 240.82333 46.818756 
L 241.026239 47.685005 
L 241.229148 47.685005 
L 241.432057 45.952506 
L 241.634966 47.685005 
L 241.837875 42.487504 
L 242.040784 40.755006 
L 242.243693 40.755006 
L 242.649511 39.022508 
L 242.85242 39.888757 
L 243.258239 35.557506 
L 244.272784 31.226255 
L 244.475693 31.226255 
L 244.678602 32.958753 
L 244.881511 29.493757 
L 245.08442 29.493757 
L 245.28733 30.360006 
L 245.490239 27.761253 
L 245.896057 29.493757 
L 246.098966 28.627507 
L 246.301875 29.493757 
L 246.504784 28.627507 
L 246.707693 28.627507 
L 246.910602 27.761253 
L 247.31642 27.761253 
L 247.51933 30.360006 
L 247.722239 29.493757 
L 247.925148 30.360006 
L 248.128057 29.493757 
L 248.533875 29.493757 
L 248.736784 28.627507 
L 248.939693 31.226255 
L 249.142602 30.360006 
L 249.345511 30.360006 
L 249.54842 32.958753 
L 249.75133 33.825008 
L 250.360057 33.825008 
L 250.968784 38.156253 
L 251.171693 39.022508 
L 251.374602 40.755006 
L 251.577511 40.755006 
L 251.78042 42.487504 
L 251.98333 41.621255 
L 252.186239 39.888757 
L 252.592057 47.685005 
L 252.794966 47.685005 
L 252.997875 46.818756 
L 253.200784 51.150007 
L 253.606602 55.481255 
L 253.809511 53.748757 
L 254.01242 56.347507 
L 254.418239 58.080005 
L 254.621148 61.545004 
L 254.824057 62.411256 
L 255.026966 64.143754 
L 255.229875 64.143754 
L 255.432784 66.742505 
L 255.635693 67.608756 
L 256.44733 74.538754 
L 256.650239 78.870005 
L 256.853148 77.137504 
L 257.258966 81.468755 
L 257.461875 80.602505 
L 257.664784 85.800005 
L 257.867693 85.800005 
L 258.070602 89.265005 
L 258.273511 89.265005 
L 258.47642 92.730004 
L 258.47642 92.730004 
" style="fill:none;stroke:#2ca02c;stroke-linecap:square;stroke-width:1.5;"/>
   </g>
   <g id="patch_3">
    <path d="M 45.421875 149.271875 
L 45.421875 10.671875 
" style="fill:none;stroke:#000000;stroke-linecap:square;stroke-linejoin:miter;stroke-width:0.8;"/>
   </g>
   <g id="patch_4">
    <path d="M 268.621875 149.271875 
L 268.621875 10.671875 
" style="fill:none;stroke:#000000;stroke-linecap:square;stroke-linejoin:miter;stroke-width:0.8;"/>
   </g>
   <g id="patch_5">
    <path d="M 45.421875 149.271875 
L 268.621875 149.271875 
" style="fill:none;stroke:#000000;stroke-linecap:square;stroke-linejoin:miter;stroke-width:0.8;"/>
   </g>
   <g id="patch_6">
    <path d="M 45.421875 10.671875 
L 268.621875 10.671875 
" style="fill:none;stroke:#000000;stroke-linecap:square;stroke-linejoin:miter;stroke-width:0.8;"/>
   </g>
   <g id="legend_1">
    <g id="patch_7">
     <path d="M 222.321875 102.680469 
L 261.621875 102.680469 
Q 263.621875 102.680469 263.621875 100.680469 
L 263.621875 59.263281 
Q 263.621875 57.263281 261.621875 57.263281 
L 222.321875 57.263281 
Q 220.321875 57.263281 220.321875 59.263281 
L 220.321875 100.680469 
Q 220.321875 102.680469 222.321875 102.680469 
z
" style="fill:#ffffff;opacity:0.8;stroke:#cccccc;stroke-linejoin:miter;"/>
    </g>
    <g id="line2d_26">
     <path d="M 224.321875 64.763281 
L 244.321875 64.763281 
" style="fill:none;stroke:#1f77b4;stroke-linecap:square;stroke-width:1.5;"/>
    </g>
    <g id="line2d_27"/>
    <g id="text_14">
     <!-- $I_{a}$ -->
     <g transform="translate(252.321875 68.263281)scale(0.1 -0.1)">
      <defs>
       <path d="M 2458 4179 
L 2458 4077 
Q 2189 4045 2102 3961 
Q 2016 3878 1933 3584 
L 1165 838 
Q 1069 499 1069 352 
Q 1069 224 1149 179 
Q 1229 134 1510 102 
L 1510 0 
L -51 0 
L -51 102 
Q 218 154 317 237 
Q 416 320 486 582 
L 1254 3405 
Q 1338 3699 1338 3802 
Q 1338 3930 1235 3997 
Q 1133 4064 877 4077 
L 877 4179 
L 2458 4179 
z
" id="STIXGeneral-Italic-49" transform="scale(0.015625)"/>
       <path d="M 2963 710 
L 3046 640 
Q 2688 205 2518 70 
Q 2349 -64 2157 -64 
Q 1901 -64 1901 198 
Q 1901 358 2048 934 
Q 1690 397 1389 163 
Q 1088 -70 749 -70 
Q 467 -70 288 125 
Q 109 320 109 672 
Q 109 1158 387 1664 
Q 666 2170 1094 2496 
Q 1523 2822 1939 2822 
Q 2368 2822 2451 2451 
L 2522 2758 
L 2541 2778 
L 2931 2822 
L 2976 2803 
Q 2970 2778 2938 2669 
Q 2368 595 2368 346 
Q 2368 262 2458 262 
Q 2554 262 2790 525 
L 2963 710 
z
M 2336 2310 
Q 2336 2477 2240 2579 
Q 2144 2682 1978 2682 
Q 1542 2682 1139 2093 
Q 928 1779 787 1395 
Q 646 1011 646 717 
Q 646 243 1030 243 
Q 1408 243 1843 870 
Q 2336 1581 2336 2310 
z
" id="STIXGeneral-Italic-61" transform="scale(0.015625)"/>
      </defs>
      <use transform="translate(0 0.703125)" xlink:href="#STIXGeneral-Italic-49"/>
      <use transform="translate(33.299988 -12.525)scale(0.7)" xlink:href="#STIXGeneral-Italic-61"/>
     </g>
    </g>
    <g id="line2d_28">
     <path d="M 224.321875 78.902344 
L 244.321875 78.902344 
" style="fill:none;stroke:#ff7f0e;stroke-linecap:square;stroke-width:1.5;"/>
    </g>
    <g id="line2d_29"/>
    <g id="text_15">
     <!-- $I_{b}$ -->
     <g transform="translate(252.321875 82.402344)scale(0.1 -0.1)">
      <defs>
       <path d="M 1043 1856 
L 1050 1856 
Q 1370 2387 1654 2604 
Q 1939 2822 2285 2822 
Q 2618 2822 2822 2617 
Q 3027 2413 3027 2054 
Q 3027 1562 2726 1062 
Q 2426 563 1942 246 
Q 1459 -70 979 -70 
Q 685 -70 416 32 
Q 147 134 147 269 
L 147 307 
L 1056 3654 
Q 1114 3885 1114 3955 
Q 1114 4058 1053 4080 
Q 992 4102 704 4115 
L 704 4224 
Q 1184 4282 1683 4371 
L 1715 4339 
L 1581 3814 
L 1043 1856 
z
M 2483 1958 
Q 2483 2509 2035 2509 
Q 1594 2509 1158 1773 
Q 954 1427 826 1008 
Q 698 589 698 294 
Q 698 77 992 77 
Q 1414 77 1779 454 
Q 2074 762 2278 1187 
Q 2483 1613 2483 1958 
z
" id="STIXGeneral-Italic-62" transform="scale(0.015625)"/>
      </defs>
      <use transform="translate(0 0.703125)" xlink:href="#STIXGeneral-Italic-49"/>
      <use transform="translate(33.299988 -12.525)scale(0.7)" xlink:href="#STIXGeneral-Italic-62"/>
     </g>
    </g>
    <g id="line2d_30">
     <path d="M 224.321875 93.041406 
L 244.321875 93.041406 
" style="fill:none;stroke:#2ca02c;stroke-linecap:square;stroke-width:1.5;"/>
    </g>
    <g id="line2d_31"/>
    <g id="text_16">
     <!-- $I_{c}$ -->
     <g transform="translate(252.321875 96.541406)scale(0.1 -0.1)">
      <defs>
       <path d="M 2240 685 
L 2342 621 
Q 2048 250 1769 90 
Q 1491 -70 1133 -70 
Q 678 -70 435 179 
Q 192 429 192 915 
Q 192 1344 409 1744 
Q 627 2144 979 2432 
Q 1472 2822 2048 2822 
Q 2342 2822 2531 2675 
Q 2720 2528 2720 2304 
Q 2720 2176 2630 2086 
Q 2541 1997 2413 1997 
Q 2285 1997 2224 2070 
Q 2163 2144 2163 2253 
Q 2163 2310 2211 2403 
Q 2259 2496 2259 2560 
Q 2259 2688 2022 2688 
Q 1619 2688 1325 2381 
Q 742 1766 742 890 
Q 742 544 889 352 
Q 1037 160 1312 160 
Q 1562 160 1766 281 
Q 1971 403 2240 685 
z
" id="STIXGeneral-Italic-63" transform="scale(0.015625)"/>
      </defs>
      <use transform="translate(0 0.703125)" xlink:href="#STIXGeneral-Italic-49"/>
      <use transform="translate(33.299988 -12.525)scale(0.7)" xlink:href="#STIXGeneral-Italic-63"/>
     </g>
    </g>
   </g>
  </g>
 </g>
 <defs>
  <clipPath id="p186e0111e7">
   <rect height="138.6" width="223.2" x="45.421875" y="10.671875"/>
  </clipPath>
 </defs>
</svg>
