<?xml version="1.0" encoding="utf-8" standalone="no"?>
<!DOCTYPE svg PUBLIC "-//W3C//DTD SVG 1.1//EN"
  "http://www.w3.org/Graphics/SVG/1.1/DTD/svg11.dtd">
<svg xmlns:xlink="http://www.w3.org/1999/xlink" width="262.739062pt" height="182.9375pt" viewBox="0 0 262.739062 182.9375" xmlns="http://www.w3.org/2000/svg" version="1.1">
 <metadata>
  <rdf:RDF xmlns:dc="http://purl.org/dc/elements/1.1/" xmlns:cc="http://creativecommons.org/ns#" xmlns:rdf="http://www.w3.org/1999/02/22-rdf-syntax-ns#">
   <cc:Work>
    <dc:type rdf:resource="http://purl.org/dc/dcmitype/StillImage"/>
    <dc:date>2022-03-23T21:16:17.877482</dc:date>
    <dc:format>image/svg+xml</dc:format>
    <dc:creator>
     <cc:Agent>
      <dc:title>Matplotlib v3.5.1, https://matplotlib.org/</dc:title>
     </cc:Agent>
    </dc:creator>
   </cc:Work>
  </rdf:RDF>
 </metadata>
 <defs>
  <style type="text/css">*{stroke-linejoin: round; stroke-linecap: butt}</style>
 </defs>
 <g id="figure_1">
  <g id="patch_1">
   <path d="M 0 182.9375 
L 262.739062 182.9375 
L 262.739062 0 
L 0 0 
L 0 182.9375 
z
" style="fill: none"/>
  </g>
  <g id="axes_1">
   <g id="patch_2">
    <path d="M 32.339063 146.571875 
L 255.539062 146.571875 
L 255.539062 10.671875 
L 32.339063 10.671875 
z
" style="fill: #ffffff"/>
   </g>
   <g id="matplotlib.axis_1">
    <g id="xtick_1">
     <g id="line2d_1">
      <path d="M 42.484517 146.571875 
L 42.484517 10.671875 
" clip-path="url(#p1f08153461)" style="fill: none; stroke-dasharray: 3.2,0.8,0.5,0.8; stroke-dashoffset: 0; stroke: #a9a9a9; stroke-width: 0.5"/>
     </g>
     <g id="line2d_2">
      <defs>
       <path id="mce3462adb2" d="M 0 0 
L 0 3.5 
" style="stroke: #000000; stroke-width: 0.8"/>
      </defs>
      <g>
       <use xlink:href="#mce3462adb2" x="42.484517" y="146.571875" style="stroke: #000000; stroke-width: 0.8"/>
      </g>
     </g>
     <g id="text_1">
      <!-- 0.0 -->
      <g transform="translate(36.234517 160.515625)scale(0.1 -0.1)">
       <defs>
        <path id="TimesNewRomanPSMT-30" d="M 231 2094 
Q 231 2819 450 3342 
Q 669 3866 1031 4122 
Q 1313 4325 1613 4325 
Q 2100 4325 2488 3828 
Q 2972 3213 2972 2159 
Q 2972 1422 2759 906 
Q 2547 391 2217 158 
Q 1888 -75 1581 -75 
Q 975 -75 572 641 
Q 231 1244 231 2094 
z
M 844 2016 
Q 844 1141 1059 588 
Q 1238 122 1591 122 
Q 1759 122 1940 273 
Q 2122 425 2216 781 
Q 2359 1319 2359 2297 
Q 2359 3022 2209 3506 
Q 2097 3866 1919 4016 
Q 1791 4119 1609 4119 
Q 1397 4119 1231 3928 
Q 1006 3669 925 3112 
Q 844 2556 844 2016 
z
" transform="scale(0.015625)"/>
        <path id="TimesNewRomanPSMT-2e" d="M 800 606 
Q 947 606 1047 504 
Q 1147 403 1147 259 
Q 1147 116 1045 14 
Q 944 -88 800 -88 
Q 656 -88 554 14 
Q 453 116 453 259 
Q 453 406 554 506 
Q 656 606 800 606 
z
" transform="scale(0.015625)"/>
       </defs>
       <use xlink:href="#TimesNewRomanPSMT-30"/>
       <use xlink:href="#TimesNewRomanPSMT-2e" x="50"/>
       <use xlink:href="#TimesNewRomanPSMT-30" x="75"/>
      </g>
     </g>
    </g>
    <g id="xtick_2">
     <g id="line2d_3">
      <path d="M 83.066335 146.571875 
L 83.066335 10.671875 
" clip-path="url(#p1f08153461)" style="fill: none; stroke-dasharray: 3.2,0.8,0.5,0.8; stroke-dashoffset: 0; stroke: #a9a9a9; stroke-width: 0.5"/>
     </g>
     <g id="line2d_4">
      <g>
       <use xlink:href="#mce3462adb2" x="83.066335" y="146.571875" style="stroke: #000000; stroke-width: 0.8"/>
      </g>
     </g>
     <g id="text_2">
      <!-- 0.2 -->
      <g transform="translate(76.816335 160.515625)scale(0.1 -0.1)">
       <defs>
        <path id="TimesNewRomanPSMT-32" d="M 2934 816 
L 2638 0 
L 138 0 
L 138 116 
Q 1241 1122 1691 1759 
Q 2141 2397 2141 2925 
Q 2141 3328 1894 3587 
Q 1647 3847 1303 3847 
Q 991 3847 742 3664 
Q 494 3481 375 3128 
L 259 3128 
Q 338 3706 661 4015 
Q 984 4325 1469 4325 
Q 1984 4325 2329 3994 
Q 2675 3663 2675 3213 
Q 2675 2891 2525 2569 
Q 2294 2063 1775 1497 
Q 997 647 803 472 
L 1909 472 
Q 2247 472 2383 497 
Q 2519 522 2628 598 
Q 2738 675 2819 816 
L 2934 816 
z
" transform="scale(0.015625)"/>
       </defs>
       <use xlink:href="#TimesNewRomanPSMT-30"/>
       <use xlink:href="#TimesNewRomanPSMT-2e" x="50"/>
       <use xlink:href="#TimesNewRomanPSMT-32" x="75"/>
      </g>
     </g>
    </g>
    <g id="xtick_3">
     <g id="line2d_5">
      <path d="M 123.648153 146.571875 
L 123.648153 10.671875 
" clip-path="url(#p1f08153461)" style="fill: none; stroke-dasharray: 3.2,0.8,0.5,0.8; stroke-dashoffset: 0; stroke: #a9a9a9; stroke-width: 0.5"/>
     </g>
     <g id="line2d_6">
      <g>
       <use xlink:href="#mce3462adb2" x="123.648153" y="146.571875" style="stroke: #000000; stroke-width: 0.8"/>
      </g>
     </g>
     <g id="text_3">
      <!-- 0.4 -->
      <g transform="translate(117.398153 160.515625)scale(0.1 -0.1)">
       <defs>
        <path id="TimesNewRomanPSMT-34" d="M 2978 1563 
L 2978 1119 
L 2409 1119 
L 2409 0 
L 1894 0 
L 1894 1119 
L 100 1119 
L 100 1519 
L 2066 4325 
L 2409 4325 
L 2409 1563 
L 2978 1563 
z
M 1894 1563 
L 1894 3666 
L 406 1563 
L 1894 1563 
z
" transform="scale(0.015625)"/>
       </defs>
       <use xlink:href="#TimesNewRomanPSMT-30"/>
       <use xlink:href="#TimesNewRomanPSMT-2e" x="50"/>
       <use xlink:href="#TimesNewRomanPSMT-34" x="75"/>
      </g>
     </g>
    </g>
    <g id="xtick_4">
     <g id="line2d_7">
      <path d="M 164.229972 146.571875 
L 164.229972 10.671875 
" clip-path="url(#p1f08153461)" style="fill: none; stroke-dasharray: 3.2,0.8,0.5,0.8; stroke-dashoffset: 0; stroke: #a9a9a9; stroke-width: 0.5"/>
     </g>
     <g id="line2d_8">
      <g>
       <use xlink:href="#mce3462adb2" x="164.229972" y="146.571875" style="stroke: #000000; stroke-width: 0.8"/>
      </g>
     </g>
     <g id="text_4">
      <!-- 0.6 -->
      <g transform="translate(157.979972 160.515625)scale(0.1 -0.1)">
       <defs>
        <path id="TimesNewRomanPSMT-36" d="M 2869 4325 
L 2869 4209 
Q 2456 4169 2195 4045 
Q 1934 3922 1679 3669 
Q 1425 3416 1258 3105 
Q 1091 2794 978 2366 
Q 1428 2675 1881 2675 
Q 2316 2675 2634 2325 
Q 2953 1975 2953 1425 
Q 2953 894 2631 456 
Q 2244 -75 1606 -75 
Q 1172 -75 869 213 
Q 275 772 275 1663 
Q 275 2231 503 2743 
Q 731 3256 1154 3653 
Q 1578 4050 1965 4187 
Q 2353 4325 2688 4325 
L 2869 4325 
z
M 925 2138 
Q 869 1716 869 1456 
Q 869 1156 980 804 
Q 1091 453 1309 247 
Q 1469 100 1697 100 
Q 1969 100 2183 356 
Q 2397 613 2397 1088 
Q 2397 1622 2184 2012 
Q 1972 2403 1581 2403 
Q 1463 2403 1327 2353 
Q 1191 2303 925 2138 
z
" transform="scale(0.015625)"/>
       </defs>
       <use xlink:href="#TimesNewRomanPSMT-30"/>
       <use xlink:href="#TimesNewRomanPSMT-2e" x="50"/>
       <use xlink:href="#TimesNewRomanPSMT-36" x="75"/>
      </g>
     </g>
    </g>
    <g id="xtick_5">
     <g id="line2d_9">
      <path d="M 204.81179 146.571875 
L 204.81179 10.671875 
" clip-path="url(#p1f08153461)" style="fill: none; stroke-dasharray: 3.2,0.8,0.5,0.8; stroke-dashoffset: 0; stroke: #a9a9a9; stroke-width: 0.5"/>
     </g>
     <g id="line2d_10">
      <g>
       <use xlink:href="#mce3462adb2" x="204.81179" y="146.571875" style="stroke: #000000; stroke-width: 0.8"/>
      </g>
     </g>
     <g id="text_5">
      <!-- 0.8 -->
      <g transform="translate(198.56179 160.515625)scale(0.1 -0.1)">
       <defs>
        <path id="TimesNewRomanPSMT-38" d="M 1228 2134 
Q 725 2547 579 2797 
Q 434 3047 434 3316 
Q 434 3728 753 4026 
Q 1072 4325 1600 4325 
Q 2113 4325 2425 4047 
Q 2738 3769 2738 3413 
Q 2738 3175 2569 2928 
Q 2400 2681 1866 2347 
Q 2416 1922 2594 1678 
Q 2831 1359 2831 1006 
Q 2831 559 2490 242 
Q 2150 -75 1597 -75 
Q 994 -75 656 303 
Q 388 606 388 966 
Q 388 1247 577 1523 
Q 766 1800 1228 2134 
z
M 1719 2469 
Q 2094 2806 2194 3001 
Q 2294 3197 2294 3444 
Q 2294 3772 2109 3958 
Q 1925 4144 1606 4144 
Q 1288 4144 1088 3959 
Q 888 3775 888 3528 
Q 888 3366 970 3203 
Q 1053 3041 1206 2894 
L 1719 2469 
z
M 1375 2016 
Q 1116 1797 991 1539 
Q 866 1281 866 981 
Q 866 578 1086 336 
Q 1306 94 1647 94 
Q 1984 94 2187 284 
Q 2391 475 2391 747 
Q 2391 972 2272 1150 
Q 2050 1481 1375 2016 
z
" transform="scale(0.015625)"/>
       </defs>
       <use xlink:href="#TimesNewRomanPSMT-30"/>
       <use xlink:href="#TimesNewRomanPSMT-2e" x="50"/>
       <use xlink:href="#TimesNewRomanPSMT-38" x="75"/>
      </g>
     </g>
    </g>
    <g id="xtick_6">
     <g id="line2d_11">
      <path d="M 245.393608 146.571875 
L 245.393608 10.671875 
" clip-path="url(#p1f08153461)" style="fill: none; stroke-dasharray: 3.2,0.8,0.5,0.8; stroke-dashoffset: 0; stroke: #a9a9a9; stroke-width: 0.5"/>
     </g>
     <g id="line2d_12">
      <g>
       <use xlink:href="#mce3462adb2" x="245.393608" y="146.571875" style="stroke: #000000; stroke-width: 0.8"/>
      </g>
     </g>
     <g id="text_6">
      <!-- 1.0 -->
      <g transform="translate(239.143608 160.515625)scale(0.1 -0.1)">
       <defs>
        <path id="TimesNewRomanPSMT-31" d="M 750 3822 
L 1781 4325 
L 1884 4325 
L 1884 747 
Q 1884 391 1914 303 
Q 1944 216 2037 169 
Q 2131 122 2419 116 
L 2419 0 
L 825 0 
L 825 116 
Q 1125 122 1212 167 
Q 1300 213 1334 289 
Q 1369 366 1369 747 
L 1369 3034 
Q 1369 3497 1338 3628 
Q 1316 3728 1258 3775 
Q 1200 3822 1119 3822 
Q 1003 3822 797 3725 
L 750 3822 
z
" transform="scale(0.015625)"/>
       </defs>
       <use xlink:href="#TimesNewRomanPSMT-31"/>
       <use xlink:href="#TimesNewRomanPSMT-2e" x="50"/>
       <use xlink:href="#TimesNewRomanPSMT-30" x="75"/>
      </g>
     </g>
    </g>
    <g id="text_7">
     <!-- time [s] -->
     <g transform="translate(128.526563 173.598438)scale(0.1 -0.1)">
      <defs>
       <path id="TimesNewRomanPSMT-74" d="M 1031 3803 
L 1031 2863 
L 1700 2863 
L 1700 2644 
L 1031 2644 
L 1031 788 
Q 1031 509 1111 412 
Q 1191 316 1316 316 
Q 1419 316 1516 380 
Q 1613 444 1666 569 
L 1788 569 
Q 1678 263 1478 108 
Q 1278 -47 1066 -47 
Q 922 -47 784 33 
Q 647 113 581 261 
Q 516 409 516 719 
L 516 2644 
L 63 2644 
L 63 2747 
Q 234 2816 414 2980 
Q 594 3144 734 3369 
Q 806 3488 934 3803 
L 1031 3803 
z
" transform="scale(0.015625)"/>
       <path id="TimesNewRomanPSMT-69" d="M 928 4444 
Q 1059 4444 1151 4351 
Q 1244 4259 1244 4128 
Q 1244 3997 1151 3903 
Q 1059 3809 928 3809 
Q 797 3809 703 3903 
Q 609 3997 609 4128 
Q 609 4259 701 4351 
Q 794 4444 928 4444 
z
M 1188 2947 
L 1188 647 
Q 1188 378 1227 289 
Q 1266 200 1342 156 
Q 1419 113 1622 113 
L 1622 0 
L 231 0 
L 231 113 
Q 441 113 512 153 
Q 584 194 626 287 
Q 669 381 669 647 
L 669 1750 
Q 669 2216 641 2353 
Q 619 2453 572 2492 
Q 525 2531 444 2531 
Q 356 2531 231 2484 
L 188 2597 
L 1050 2947 
L 1188 2947 
z
" transform="scale(0.015625)"/>
       <path id="TimesNewRomanPSMT-6d" d="M 1050 2338 
Q 1363 2650 1419 2697 
Q 1559 2816 1721 2881 
Q 1884 2947 2044 2947 
Q 2313 2947 2506 2790 
Q 2700 2634 2766 2338 
Q 3088 2713 3309 2830 
Q 3531 2947 3766 2947 
Q 3994 2947 4170 2830 
Q 4347 2713 4450 2447 
Q 4519 2266 4519 1878 
L 4519 647 
Q 4519 378 4559 278 
Q 4591 209 4675 161 
Q 4759 113 4950 113 
L 4950 0 
L 3538 0 
L 3538 113 
L 3597 113 
Q 3781 113 3884 184 
Q 3956 234 3988 344 
Q 4000 397 4000 647 
L 4000 1878 
Q 4000 2228 3916 2372 
Q 3794 2572 3525 2572 
Q 3359 2572 3192 2489 
Q 3025 2406 2788 2181 
L 2781 2147 
L 2788 2013 
L 2788 647 
Q 2788 353 2820 281 
Q 2853 209 2943 161 
Q 3034 113 3253 113 
L 3253 0 
L 1806 0 
L 1806 113 
Q 2044 113 2133 169 
Q 2222 225 2256 338 
Q 2272 391 2272 647 
L 2272 1878 
Q 2272 2228 2169 2381 
Q 2031 2581 1784 2581 
Q 1616 2581 1450 2491 
Q 1191 2353 1050 2181 
L 1050 647 
Q 1050 366 1089 281 
Q 1128 197 1204 155 
Q 1281 113 1516 113 
L 1516 0 
L 100 0 
L 100 113 
Q 297 113 375 155 
Q 453 197 493 289 
Q 534 381 534 647 
L 534 1741 
Q 534 2213 506 2350 
Q 484 2453 437 2492 
Q 391 2531 309 2531 
Q 222 2531 100 2484 
L 53 2597 
L 916 2947 
L 1050 2947 
L 1050 2338 
z
" transform="scale(0.015625)"/>
       <path id="TimesNewRomanPSMT-65" d="M 681 1784 
Q 678 1147 991 784 
Q 1303 422 1725 422 
Q 2006 422 2214 576 
Q 2422 731 2563 1106 
L 2659 1044 
Q 2594 616 2278 264 
Q 1963 -88 1488 -88 
Q 972 -88 605 314 
Q 238 716 238 1394 
Q 238 2128 614 2539 
Q 991 2950 1559 2950 
Q 2041 2950 2350 2633 
Q 2659 2316 2659 1784 
L 681 1784 
z
M 681 1966 
L 2006 1966 
Q 1991 2241 1941 2353 
Q 1863 2528 1708 2628 
Q 1553 2728 1384 2728 
Q 1125 2728 920 2526 
Q 716 2325 681 1966 
z
" transform="scale(0.015625)"/>
       <path id="TimesNewRomanPSMT-20" transform="scale(0.015625)"/>
       <path id="TimesNewRomanPSMT-5b" d="M 1900 -1269 
L 525 -1269 
L 525 4334 
L 1900 4334 
L 1900 4088 
L 994 4088 
L 994 -1025 
L 1900 -1025 
L 1900 -1269 
z
" transform="scale(0.015625)"/>
       <path id="TimesNewRomanPSMT-73" d="M 2050 2947 
L 2050 1972 
L 1947 1972 
Q 1828 2431 1642 2597 
Q 1456 2763 1169 2763 
Q 950 2763 815 2647 
Q 681 2531 681 2391 
Q 681 2216 781 2091 
Q 878 1963 1175 1819 
L 1631 1597 
Q 2266 1288 2266 781 
Q 2266 391 1970 151 
Q 1675 -88 1309 -88 
Q 1047 -88 709 6 
Q 606 38 541 38 
Q 469 38 428 -44 
L 325 -44 
L 325 978 
L 428 978 
Q 516 541 762 319 
Q 1009 97 1316 97 
Q 1531 97 1667 223 
Q 1803 350 1803 528 
Q 1803 744 1651 891 
Q 1500 1038 1047 1263 
Q 594 1488 453 1669 
Q 313 1847 313 2119 
Q 313 2472 555 2709 
Q 797 2947 1181 2947 
Q 1350 2947 1591 2875 
Q 1750 2828 1803 2828 
Q 1853 2828 1881 2850 
Q 1909 2872 1947 2947 
L 2050 2947 
z
" transform="scale(0.015625)"/>
       <path id="TimesNewRomanPSMT-5d" d="M 234 4334 
L 1609 4334 
L 1609 -1272 
L 234 -1272 
L 234 -1025 
L 1141 -1025 
L 1141 4088 
L 234 4088 
L 234 4334 
z
" transform="scale(0.015625)"/>
      </defs>
      <use xlink:href="#TimesNewRomanPSMT-74"/>
      <use xlink:href="#TimesNewRomanPSMT-69" x="27.783203"/>
      <use xlink:href="#TimesNewRomanPSMT-6d" x="55.566406"/>
      <use xlink:href="#TimesNewRomanPSMT-65" x="133.349609"/>
      <use xlink:href="#TimesNewRomanPSMT-20" x="177.734375"/>
      <use xlink:href="#TimesNewRomanPSMT-5b" x="202.734375"/>
      <use xlink:href="#TimesNewRomanPSMT-73" x="236.035156"/>
      <use xlink:href="#TimesNewRomanPSMT-5d" x="274.951172"/>
     </g>
    </g>
   </g>
   <g id="matplotlib.axis_2">
    <g id="ytick_1">
     <g id="line2d_13">
      <path d="M 32.339063 146.571875 
L 255.539062 146.571875 
" clip-path="url(#p1f08153461)" style="fill: none; stroke-dasharray: 3.2,0.8,0.5,0.8; stroke-dashoffset: 0; stroke: #a9a9a9; stroke-width: 0.5"/>
     </g>
     <g id="line2d_14">
      <defs>
       <path id="m660badc5c9" d="M 0 0 
L -3.5 0 
" style="stroke: #000000; stroke-width: 0.8"/>
      </defs>
      <g>
       <use xlink:href="#m660badc5c9" x="32.339063" y="146.571875" style="stroke: #000000; stroke-width: 0.8"/>
      </g>
     </g>
     <g id="text_8">
      <!-- −0.4 -->
      <g transform="translate(7.2 150.04375)scale(0.1 -0.1)">
       <defs>
        <path id="TimesNewRomanPSMT-2212" d="M 3484 2000 
L 116 2000 
L 116 2256 
L 3484 2256 
L 3484 2000 
z
" transform="scale(0.015625)"/>
       </defs>
       <use xlink:href="#TimesNewRomanPSMT-2212"/>
       <use xlink:href="#TimesNewRomanPSMT-30" x="56.396484"/>
       <use xlink:href="#TimesNewRomanPSMT-2e" x="106.396484"/>
       <use xlink:href="#TimesNewRomanPSMT-34" x="131.396484"/>
      </g>
     </g>
    </g>
    <g id="ytick_2">
     <g id="line2d_15">
      <path d="M 32.339063 112.596875 
L 255.539062 112.596875 
" clip-path="url(#p1f08153461)" style="fill: none; stroke-dasharray: 3.2,0.8,0.5,0.8; stroke-dashoffset: 0; stroke: #a9a9a9; stroke-width: 0.5"/>
     </g>
     <g id="line2d_16">
      <g>
       <use xlink:href="#m660badc5c9" x="32.339063" y="112.596875" style="stroke: #000000; stroke-width: 0.8"/>
      </g>
     </g>
     <g id="text_9">
      <!-- −0.2 -->
      <g transform="translate(7.2 116.06875)scale(0.1 -0.1)">
       <use xlink:href="#TimesNewRomanPSMT-2212"/>
       <use xlink:href="#TimesNewRomanPSMT-30" x="56.396484"/>
       <use xlink:href="#TimesNewRomanPSMT-2e" x="106.396484"/>
       <use xlink:href="#TimesNewRomanPSMT-32" x="131.396484"/>
      </g>
     </g>
    </g>
    <g id="ytick_3">
     <g id="line2d_17">
      <path d="M 32.339063 78.621875 
L 255.539062 78.621875 
" clip-path="url(#p1f08153461)" style="fill: none; stroke-dasharray: 3.2,0.8,0.5,0.8; stroke-dashoffset: 0; stroke: #a9a9a9; stroke-width: 0.5"/>
     </g>
     <g id="line2d_18">
      <g>
       <use xlink:href="#m660badc5c9" x="32.339063" y="78.621875" style="stroke: #000000; stroke-width: 0.8"/>
      </g>
     </g>
     <g id="text_10">
      <!-- 0.0 -->
      <g transform="translate(12.839063 82.09375)scale(0.1 -0.1)">
       <use xlink:href="#TimesNewRomanPSMT-30"/>
       <use xlink:href="#TimesNewRomanPSMT-2e" x="50"/>
       <use xlink:href="#TimesNewRomanPSMT-30" x="75"/>
      </g>
     </g>
    </g>
    <g id="ytick_4">
     <g id="line2d_19">
      <path d="M 32.339063 44.646875 
L 255.539062 44.646875 
" clip-path="url(#p1f08153461)" style="fill: none; stroke-dasharray: 3.2,0.8,0.5,0.8; stroke-dashoffset: 0; stroke: #a9a9a9; stroke-width: 0.5"/>
     </g>
     <g id="line2d_20">
      <g>
       <use xlink:href="#m660badc5c9" x="32.339063" y="44.646875" style="stroke: #000000; stroke-width: 0.8"/>
      </g>
     </g>
     <g id="text_11">
      <!-- 0.2 -->
      <g transform="translate(12.839063 48.11875)scale(0.1 -0.1)">
       <use xlink:href="#TimesNewRomanPSMT-30"/>
       <use xlink:href="#TimesNewRomanPSMT-2e" x="50"/>
       <use xlink:href="#TimesNewRomanPSMT-32" x="75"/>
      </g>
     </g>
    </g>
    <g id="ytick_5">
     <g id="line2d_21">
      <path d="M 32.339063 10.671875 
L 255.539062 10.671875 
" clip-path="url(#p1f08153461)" style="fill: none; stroke-dasharray: 3.2,0.8,0.5,0.8; stroke-dashoffset: 0; stroke: #a9a9a9; stroke-width: 0.5"/>
     </g>
     <g id="line2d_22">
      <g>
       <use xlink:href="#m660badc5c9" x="32.339063" y="10.671875" style="stroke: #000000; stroke-width: 0.8"/>
      </g>
     </g>
     <g id="text_12">
      <!-- 0.4 -->
      <g transform="translate(12.839063 14.14375)scale(0.1 -0.1)">
       <use xlink:href="#TimesNewRomanPSMT-30"/>
       <use xlink:href="#TimesNewRomanPSMT-2e" x="50"/>
       <use xlink:href="#TimesNewRomanPSMT-34" x="75"/>
      </g>
     </g>
    </g>
   </g>
   <g id="line2d_23">
    <path d="M 42.484517 95.38654 
L 44.10779 106.772378 
L 45.325244 114.232066 
L 46.542699 120.383036 
L 47.354335 123.654828 
L 48.977608 127.84272 
L 49.383426 128.366209 
L 49.789244 128.627953 
L 50.600881 128.627953 
L 51.006699 128.497081 
L 51.818335 127.580979 
L 52.224153 126.795747 
L 53.441608 123.262212 
L 54.659063 117.896473 
L 55.876517 111.091143 
L 57.49979 100.490536 
L 59.528881 85.309419 
L 63.181244 56.648517 
L 65.210335 43.430475 
L 66.833608 35.316431 
L 68.051063 30.997663 
L 68.862699 28.641972 
L 69.268517 27.856743 
L 70.080153 26.80977 
L 70.485972 26.940642 
L 70.89179 26.940642 
L 71.297608 27.071514 
L 71.703426 27.46413 
L 72.920881 29.95069 
L 73.732517 32.437252 
L 74.949972 37.410377 
L 75.761608 41.467398 
L 76.573244 46.309651 
L 76.979062 49.581446 
L 77.384881 51.675392 
L 78.602335 60.443796 
L 82.660517 92.376491 
L 84.28379 104.154943 
L 85.907062 114.101194 
L 86.718699 118.419958 
L 87.530335 122.084366 
L 88.74779 126.010518 
L 89.153608 127.057491 
L 89.559426 127.580979 
L 89.965244 128.366209 
L 90.371062 128.627953 
L 90.776881 128.627953 
L 91.182699 128.758825 
L 91.994335 128.235337 
L 92.400153 127.711848 
L 92.805972 126.534003 
L 93.21179 125.748774 
L 94.023426 123.131339 
L 94.835062 119.859548 
L 96.052517 113.708577 
L 97.67579 103.369713 
L 100.110699 85.440291 
L 104.980517 48.272729 
L 107.415426 35.4473 
L 108.227063 32.175508 
L 109.038699 29.688946 
L 109.850335 27.856743 
L 110.661972 26.940642 
L 111.06779 27.071514 
L 111.473608 26.80977 
L 111.879426 27.071514 
L 112.691062 28.249356 
L 113.502699 29.95069 
L 113.908517 31.128535 
L 115.937608 39.24258 
L 117.966699 51.675392 
L 119.184153 60.443796 
L 125.271426 106.772378 
L 126.894699 116.587756 
L 128.517972 123.654828 
L 129.735426 126.926619 
L 130.141244 127.711848 
L 130.952881 128.758825 
L 131.358699 128.758825 
L 131.764517 128.627953 
L 132.576153 128.104465 
L 133.38779 126.795747 
L 134.199426 124.570929 
L 135.011062 121.69175 
L 136.228517 115.802524 
L 137.040153 111.222015 
L 138.257608 103.500585 
L 141.504153 78.896706 
L 143.533244 62.668614 
L 145.156517 51.021032 
L 147.185608 39.111708 
L 147.997244 35.4473 
L 149.214699 30.735919 
L 150.837972 27.333258 
L 151.649608 26.678898 
L 152.461244 26.940642 
L 152.867063 27.725871 
L 153.272881 28.118487 
L 154.490335 31.128535 
L 155.70779 35.709044 
L 156.925244 41.59827 
L 158.548517 51.54452 
L 161.389244 73.400094 
L 164.229972 95.648283 
L 166.259062 109.389813 
L 167.476517 116.456884 
L 168.693972 121.822622 
L 169.505608 124.963545 
L 170.317244 126.926619 
L 170.723062 127.711848 
L 171.128881 128.235337 
L 171.940517 128.627953 
L 172.346335 128.627953 
L 173.157972 128.104465 
L 173.56379 127.580979 
L 173.969608 126.795747 
L 174.781244 124.570929 
L 176.404517 117.896473 
L 177.216153 113.577705 
L 179.245244 100.621408 
L 181.274335 85.440291 
L 184.926699 56.648517 
L 186.95579 43.561348 
L 188.579062 35.4473 
L 189.390699 32.30638 
L 190.202335 29.819818 
L 191.013972 27.725871 
L 191.825608 26.940642 
L 192.231426 26.80977 
L 193.854699 27.987615 
L 195.88379 34.007713 
L 197.101244 39.24258 
L 198.318699 46.178779 
L 199.536153 54.292825 
L 206.029244 104.024071 
L 207.246699 112.007247 
L 208.464153 118.289086 
L 209.27579 121.953494 
L 210.087426 124.963545 
L 210.493244 125.879646 
L 210.899062 127.188363 
L 211.710699 128.235337 
L 212.522335 128.758825 
L 212.928153 128.758825 
L 213.333972 128.627953 
L 214.145608 127.450107 
L 214.957244 125.748774 
L 216.174699 121.69175 
L 217.392153 115.802524 
L 218.609608 108.866324 
L 222.261972 82.168498 
L 224.696881 62.668614 
L 226.320153 51.021032 
L 227.943426 41.336529 
L 229.566699 33.876841 
L 230.378335 30.866791 
L 231.189972 28.641972 
L 232.001608 27.333258 
L 232.407426 26.940642 
L 232.813244 26.940642 
L 233.219062 26.80977 
L 234.030699 27.46413 
L 235.248153 29.95069 
L 236.05979 32.568124 
L 236.871426 35.578172 
L 238.088881 41.467398 
L 238.900517 46.309651 
L 240.117972 54.423697 
L 245.393608 95.517412 
L 245.393608 95.517412 
" clip-path="url(#p1f08153461)" style="fill: none; stroke: #1f77b4; stroke-width: 1.5; stroke-linecap: square"/>
   </g>
   <g id="line2d_24">
    <path d="M 42.484517 27.122394 
L 43.296153 26.473131 
L 43.701972 26.343279 
L 44.10779 26.602982 
L 44.919426 27.771657 
L 45.325244 28.420917 
L 46.136881 30.628409 
L 47.760153 37.250885 
L 49.383426 46.340556 
L 51.006699 57.11831 
L 53.03579 72.830456 
L 55.876517 94.905372 
L 58.311426 111.396635 
L 59.123063 116.071321 
L 60.340517 121.525126 
L 61.152153 124.252026 
L 61.557972 125.550549 
L 62.369608 127.108781 
L 63.587063 128.537156 
L 63.992881 128.407304 
L 64.398699 128.407304 
L 64.804517 128.147599 
L 65.210335 127.368484 
L 65.616153 126.849075 
L 66.42779 124.901289 
L 68.051063 118.408665 
L 69.674335 109.059288 
L 71.297608 98.281536 
L 76.573244 56.858604 
L 78.196517 45.821147 
L 79.81979 37.121033 
L 80.631426 33.615015 
L 81.443062 30.888115 
L 82.254699 28.550771 
L 83.066335 27.122394 
L 83.877972 26.343279 
L 84.689608 26.602982 
L 85.501244 27.641806 
L 86.312881 29.589589 
L 87.124517 31.926935 
L 88.341972 37.121033 
L 89.965244 46.210704 
L 92.400153 63.091523 
L 98.081608 106.202536 
L 98.893244 111.396635 
L 100.516517 119.966894 
L 101.733972 124.381878 
L 102.13979 125.550549 
L 102.951426 127.238633 
L 103.357244 127.62819 
L 103.763062 128.277453 
L 104.168881 128.537156 
L 104.574699 128.537156 
L 105.386335 128.017747 
L 105.792153 127.498338 
L 106.60379 125.940107 
L 107.009608 124.901289 
L 108.632881 118.278813 
L 110.256153 109.059288 
L 112.691062 92.048618 
L 114.314335 79.582783 
L 117.155062 56.728753 
L 118.778335 45.821147 
L 120.401608 37.121033 
L 121.619062 32.056786 
L 122.836517 28.420917 
L 123.242335 27.641806 
L 124.053972 26.602982 
L 124.45979 26.602982 
L 124.865608 26.343279 
L 125.677244 26.992542 
L 126.083062 27.641806 
L 127.300517 30.628409 
L 128.112153 33.744867 
L 129.735426 41.406163 
L 130.952881 48.937605 
L 132.170335 56.988457 
L 138.663426 106.202536 
L 139.880881 113.733978 
L 140.692517 118.019107 
L 142.31579 124.381878 
L 143.127426 126.329664 
L 143.939062 127.758041 
L 144.750699 128.407304 
L 145.156517 128.407304 
L 145.562335 128.537156 
L 146.373972 127.62819 
L 146.77979 126.978927 
L 148.403062 122.044534 
L 149.620517 116.201173 
L 151.649608 103.865191 
L 152.867063 95.165078 
L 154.896153 79.452931 
L 157.736881 56.728753 
L 159.360153 45.821147 
L 160.577608 39.06882 
L 162.200881 32.186638 
L 163.012517 29.459737 
L 164.229972 27.122394 
L 164.63579 26.602982 
L 165.041608 26.473131 
L 165.447426 26.473131 
L 166.664881 27.641806 
L 167.882335 30.628409 
L 168.288153 32.316492 
L 168.693972 33.35531 
L 169.505608 37.250885 
L 170.723062 43.873361 
L 172.346335 54.261555 
L 173.969608 66.337833 
L 176.404517 85.685848 
L 177.621972 94.77552 
L 179.651063 108.929437 
L 180.868517 116.071321 
L 182.085972 121.525126 
L 182.897608 124.381878 
L 183.709244 126.459518 
L 184.520881 127.887896 
L 185.332517 128.407304 
L 186.144153 128.407304 
L 186.549972 128.147599 
L 187.767426 126.069961 
L 188.173244 124.901289 
L 190.202335 116.201173 
L 191.41979 109.189143 
L 193.043062 98.151684 
L 195.477972 79.452931 
L 198.318699 56.728753 
L 199.536153 48.418196 
L 201.159426 39.06882 
L 202.376881 33.485164 
L 203.594335 29.589589 
L 204.405972 27.641806 
L 204.81179 26.992542 
L 206.029244 26.343279 
L 207.246699 27.641806 
L 208.058335 29.589589 
L 208.869972 32.056786 
L 209.681608 35.562802 
L 210.493244 39.198671 
L 212.116517 48.807753 
L 214.957244 69.584144 
L 219.827062 106.332387 
L 221.856153 118.148962 
L 222.66779 121.525126 
L 223.479426 124.511732 
L 224.291063 126.329664 
L 225.102699 127.758041 
L 225.508517 128.277453 
L 226.320153 128.537156 
L 226.725972 128.407304 
L 227.537608 127.62819 
L 228.755063 124.771435 
L 229.566699 121.914683 
L 229.972517 120.356454 
L 231.59579 111.526486 
L 232.813244 103.995044 
L 236.05979 79.452931 
L 238.494699 59.975063 
L 239.712153 50.885391 
L 241.741244 39.06882 
L 242.958699 33.744867 
L 244.176153 29.459737 
L 245.393608 27.252245 
L 245.393608 27.252245 
" clip-path="url(#p1f08153461)" style="fill: none; stroke: #ff7f0e; stroke-width: 1.5; stroke-linecap: square"/>
   </g>
   <g id="line2d_25">
    <path d="M 42.484517 109.675772 
L 43.296153 104.636601 
L 45.325244 90.148981 
L 48.165972 68.228583 
L 49.789244 55.504673 
L 50.600881 50.4655 
L 51.006699 47.567978 
L 51.412517 45.678289 
L 52.629972 38.749428 
L 53.441608 34.592109 
L 54.253244 32.072524 
L 54.659063 30.434792 
L 55.470699 28.671082 
L 55.876517 28.167165 
L 56.282335 27.03335 
L 56.688153 27.411288 
L 57.093972 27.411288 
L 57.49979 26.781393 
L 57.905608 27.411288 
L 58.311426 28.419125 
L 58.717244 27.915208 
L 59.123063 29.804897 
L 59.528881 30.812731 
L 60.746335 34.71809 
L 61.557972 38.749428 
L 61.96379 40.513135 
L 63.181244 47.441999 
L 63.587063 50.843439 
L 63.992881 52.985088 
L 65.616153 65.331058 
L 66.021972 68.984459 
L 66.42779 71.504044 
L 69.268517 93.550422 
L 70.485972 102.494952 
L 70.89179 104.132684 
L 71.297608 107.912062 
L 72.109244 112.573295 
L 72.920881 117.10855 
L 73.326699 118.368344 
L 74.138335 122.52566 
L 74.544153 123.407515 
L 74.949972 124.667309 
L 75.35579 125.297204 
L 75.761608 126.431019 
L 76.167426 127.186896 
L 76.573244 127.438853 
L 76.979062 127.438853 
L 77.384881 127.690813 
L 77.790699 127.312875 
L 78.196517 127.564832 
L 78.602335 126.808958 
L 79.008153 126.305041 
L 79.81979 124.793287 
L 80.631426 121.895765 
L 81.037244 120.509992 
L 83.066335 110.053711 
L 83.877972 104.762579 
L 84.689608 99.219491 
L 86.312881 87.503415 
L 87.124517 80.952492 
L 88.74779 68.228583 
L 90.776881 53.111066 
L 91.588517 48.197873 
L 92.400153 42.906744 
L 93.617608 36.607779 
L 94.429244 33.458296 
L 95.240881 30.686752 
L 96.052517 28.419125 
L 96.458335 27.915208 
L 96.864153 27.915208 
L 97.269972 27.411288 
L 97.67579 26.277479 
L 98.487426 27.789226 
L 98.893244 28.041186 
L 100.110699 30.938709 
L 100.922335 33.332318 
L 102.545608 40.513135 
L 103.763062 47.693956 
L 104.168881 51.221377 
L 104.574699 53.363026 
L 105.792153 62.055597 
L 106.60379 68.354562 
L 107.415426 74.779506 
L 112.285244 110.431649 
L 112.691062 112.069378 
L 113.502699 116.856593 
L 113.908517 118.87226 
L 114.314335 120.258033 
L 114.720153 122.273703 
L 115.53179 124.667309 
L 115.937608 125.171226 
L 116.749244 127.312875 
L 117.560881 127.690813 
L 117.966699 127.690813 
L 119.184153 127.060915 
L 119.99579 125.927103 
L 120.807426 123.659475 
L 121.619062 120.258033 
L 122.024881 118.87226 
L 122.430699 116.982571 
L 125.677244 96.825883 
L 126.488881 90.27496 
L 128.92379 71.378065 
L 130.547062 58.654156 
L 133.38779 40.639117 
L 134.199426 36.607779 
L 135.416881 32.072524 
L 136.228517 29.426958 
L 136.634335 28.797063 
L 137.445972 27.03335 
L 138.257608 27.411288 
L 138.663426 27.03335 
L 139.069244 27.159331 
L 139.475062 28.167165 
L 139.880881 28.167165 
L 140.692517 30.812731 
L 141.098335 31.568607 
L 141.909972 34.970047 
L 142.721608 38.37149 
L 143.127426 41.017055 
L 143.939062 45.30035 
L 144.344881 47.316018 
L 145.156517 53.614984 
L 145.562335 55.126735 
L 146.373972 62.307556 
L 147.185608 68.228583 
L 147.997244 75.157444 
L 148.403062 77.80301 
L 148.808881 81.456409 
L 149.214699 83.598057 
L 150.026335 90.652898 
L 152.055426 105.140518 
L 153.272881 112.699277 
L 154.490335 118.87226 
L 155.70779 123.407515 
L 156.113608 124.28937 
L 156.519426 125.549164 
L 157.331062 126.934936 
L 157.736881 127.186896 
L 158.142699 128.446687 
L 158.548517 127.816792 
L 158.954335 127.816792 
L 159.360153 126.808958 
L 159.765972 127.060915 
L 160.17179 126.556998 
L 160.577608 125.801124 
L 160.983426 124.793287 
L 161.389244 123.281537 
L 161.795062 122.399681 
L 162.606699 118.746282 
L 165.041608 104.762579 
L 168.288153 80.952492 
L 169.09979 74.401569 
L 169.911426 67.850645 
L 170.723062 61.929617 
L 171.940517 53.363026 
L 172.346335 49.583645 
L 173.157972 45.30035 
L 174.375426 38.37149 
L 175.998699 31.694586 
L 176.404517 31.064691 
L 176.810335 29.678918 
L 178.02779 27.285313 
L 178.433608 27.411288 
L 179.245244 27.159331 
L 179.651063 27.159331 
L 180.462699 28.545103 
L 180.868517 29.552937 
L 181.274335 31.064691 
L 181.680153 31.820564 
L 183.303426 38.875406 
L 183.709244 40.387157 
L 186.144153 55.882612 
L 189.390699 81.078471 
L 189.796517 85.109809 
L 190.202335 87.377436 
L 190.608153 90.904856 
L 191.013972 93.172484 
L 191.825608 99.597429 
L 192.637244 104.888558 
L 194.260517 114.840923 
L 195.072153 118.746282 
L 195.88379 122.273703 
L 197.507062 126.556998 
L 198.724517 127.564832 
L 199.536153 127.564832 
L 199.941972 127.816792 
L 201.159426 125.801124 
L 201.971063 123.533497 
L 202.376881 122.399681 
L 202.782699 120.887931 
L 204.81179 110.431649 
L 205.217608 106.652268 
L 205.623426 104.888558 
L 206.029244 102.494952 
L 206.435063 98.337635 
L 207.246699 93.802381 
L 208.058335 87.251457 
L 209.681608 75.031465 
L 210.087426 70.622189 
L 210.899062 65.457038 
L 211.304881 61.55168 
L 212.116517 56.260549 
L 212.928153 50.339522 
L 213.73979 45.174372 
L 214.145608 42.654784 
L 214.551426 41.017055 
L 214.957244 38.623446 
L 216.986335 30.308814 
L 217.392153 29.930875 
L 218.20379 27.915208 
L 219.015426 27.285313 
L 219.827062 27.03335 
L 221.044517 28.545103 
L 222.261972 32.198503 
L 223.479426 36.481801 
L 223.885244 39.001385 
L 224.291063 40.639117 
L 224.696881 43.032723 
L 225.102699 44.418495 
L 225.508517 47.945916 
L 226.320153 53.111066 
L 229.566699 77.299092 
L 229.972517 81.456409 
L 230.784153 87.251457 
L 232.001608 96.573925 
L 233.219062 105.392478 
L 234.030699 110.305668 
L 235.653972 119.12422 
L 236.465608 121.769786 
L 236.871426 123.407515 
L 237.277244 124.415352 
L 237.683062 125.045247 
L 238.088881 126.808958 
L 239.712153 127.816792 
L 240.117972 127.690813 
L 240.52379 128.068751 
L 242.552881 123.911432 
L 242.958699 121.391848 
L 243.364517 120.384014 
L 243.770335 118.87226 
L 245.393608 110.053711 
L 245.393608 110.053711 
" clip-path="url(#p1f08153461)" style="fill: none; stroke: #2ca02c; stroke-width: 1.5; stroke-linecap: square"/>
   </g>
   <g id="patch_3">
    <path d="M 32.339063 146.571875 
L 32.339063 10.671875 
" style="fill: none; stroke: #000000; stroke-width: 0.8; stroke-linejoin: miter; stroke-linecap: square"/>
   </g>
   <g id="patch_4">
    <path d="M 255.539062 146.571875 
L 255.539062 10.671875 
" style="fill: none; stroke: #000000; stroke-width: 0.8; stroke-linejoin: miter; stroke-linecap: square"/>
   </g>
   <g id="patch_5">
    <path d="M 32.339063 146.571875 
L 255.539062 146.571875 
" style="fill: none; stroke: #000000; stroke-width: 0.8; stroke-linejoin: miter; stroke-linecap: square"/>
   </g>
   <g id="patch_6">
    <path d="M 32.339063 10.671875 
L 255.539062 10.671875 
" style="fill: none; stroke: #000000; stroke-width: 0.8; stroke-linejoin: miter; stroke-linecap: square"/>
   </g>
   <g id="legend_1">
    <g id="patch_7">
     <path d="M 39.339063 101.330469 
L 78.639062 101.330469 
Q 80.639062 101.330469 80.639062 99.330469 
L 80.639062 57.913281 
Q 80.639062 55.913281 78.639062 55.913281 
L 39.339063 55.913281 
Q 37.339063 55.913281 37.339063 57.913281 
L 37.339063 99.330469 
Q 37.339063 101.330469 39.339063 101.330469 
z
" style="fill: #ffffff; opacity: 0.8; stroke: #cccccc; stroke-linejoin: miter"/>
    </g>
    <g id="line2d_26">
     <path d="M 41.339063 63.413281 
L 51.339063 63.413281 
L 61.339063 63.413281 
" style="fill: none; stroke: #1f77b4; stroke-width: 1.5; stroke-linecap: square"/>
    </g>
    <g id="text_13">
     <!-- $I_{a}$ -->
     <g transform="translate(69.339063 66.913281)scale(0.1 -0.1)">
      <defs>
       <path id="STIXGeneral-Italic-49" d="M 2458 4179 
L 2458 4077 
Q 2189 4045 2102 3961 
Q 2016 3878 1933 3584 
L 1165 838 
Q 1069 499 1069 352 
Q 1069 224 1149 179 
Q 1229 134 1510 102 
L 1510 0 
L -51 0 
L -51 102 
Q 218 154 317 237 
Q 416 320 486 582 
L 1254 3405 
Q 1338 3699 1338 3802 
Q 1338 3930 1235 3997 
Q 1133 4064 877 4077 
L 877 4179 
L 2458 4179 
z
" transform="scale(0.015625)"/>
       <path id="STIXGeneral-Italic-61" d="M 2963 710 
L 3046 640 
Q 2688 205 2518 70 
Q 2349 -64 2157 -64 
Q 1901 -64 1901 198 
Q 1901 358 2048 934 
Q 1690 397 1389 163 
Q 1088 -70 749 -70 
Q 467 -70 288 125 
Q 109 320 109 672 
Q 109 1158 387 1664 
Q 666 2170 1094 2496 
Q 1523 2822 1939 2822 
Q 2368 2822 2451 2451 
L 2522 2758 
L 2541 2778 
L 2931 2822 
L 2976 2803 
Q 2970 2778 2938 2669 
Q 2368 595 2368 346 
Q 2368 262 2458 262 
Q 2554 262 2790 525 
L 2963 710 
z
M 2336 2310 
Q 2336 2477 2240 2579 
Q 2144 2682 1978 2682 
Q 1542 2682 1139 2093 
Q 928 1779 787 1395 
Q 646 1011 646 717 
Q 646 243 1030 243 
Q 1408 243 1843 870 
Q 2336 1581 2336 2310 
z
" transform="scale(0.015625)"/>
      </defs>
      <use xlink:href="#STIXGeneral-Italic-49" transform="translate(0 0.703125)"/>
      <use xlink:href="#STIXGeneral-Italic-61" transform="translate(33.299988 -12.525)scale(0.7)"/>
     </g>
    </g>
    <g id="line2d_27">
     <path d="M 41.339063 77.552344 
L 51.339063 77.552344 
L 61.339063 77.552344 
" style="fill: none; stroke: #ff7f0e; stroke-width: 1.5; stroke-linecap: square"/>
    </g>
    <g id="text_14">
     <!-- $I_{b}$ -->
     <g transform="translate(69.339063 81.052344)scale(0.1 -0.1)">
      <defs>
       <path id="STIXGeneral-Italic-62" d="M 1043 1856 
L 1050 1856 
Q 1370 2387 1654 2604 
Q 1939 2822 2285 2822 
Q 2618 2822 2822 2617 
Q 3027 2413 3027 2054 
Q 3027 1562 2726 1062 
Q 2426 563 1942 246 
Q 1459 -70 979 -70 
Q 685 -70 416 32 
Q 147 134 147 269 
L 147 307 
L 1056 3654 
Q 1114 3885 1114 3955 
Q 1114 4058 1053 4080 
Q 992 4102 704 4115 
L 704 4224 
Q 1184 4282 1683 4371 
L 1715 4339 
L 1581 3814 
L 1043 1856 
z
M 2483 1958 
Q 2483 2509 2035 2509 
Q 1594 2509 1158 1773 
Q 954 1427 826 1008 
Q 698 589 698 294 
Q 698 77 992 77 
Q 1414 77 1779 454 
Q 2074 762 2278 1187 
Q 2483 1613 2483 1958 
z
" transform="scale(0.015625)"/>
      </defs>
      <use xlink:href="#STIXGeneral-Italic-49" transform="translate(0 0.703125)"/>
      <use xlink:href="#STIXGeneral-Italic-62" transform="translate(33.299988 -12.525)scale(0.7)"/>
     </g>
    </g>
    <g id="line2d_28">
     <path d="M 41.339063 91.691406 
L 51.339063 91.691406 
L 61.339063 91.691406 
" style="fill: none; stroke: #2ca02c; stroke-width: 1.5; stroke-linecap: square"/>
    </g>
    <g id="text_15">
     <!-- $I_{c}$ -->
     <g transform="translate(69.339063 95.191406)scale(0.1 -0.1)">
      <defs>
       <path id="STIXGeneral-Italic-63" d="M 2240 685 
L 2342 621 
Q 2048 250 1769 90 
Q 1491 -70 1133 -70 
Q 678 -70 435 179 
Q 192 429 192 915 
Q 192 1344 409 1744 
Q 627 2144 979 2432 
Q 1472 2822 2048 2822 
Q 2342 2822 2531 2675 
Q 2720 2528 2720 2304 
Q 2720 2176 2630 2086 
Q 2541 1997 2413 1997 
Q 2285 1997 2224 2070 
Q 2163 2144 2163 2253 
Q 2163 2310 2211 2403 
Q 2259 2496 2259 2560 
Q 2259 2688 2022 2688 
Q 1619 2688 1325 2381 
Q 742 1766 742 890 
Q 742 544 889 352 
Q 1037 160 1312 160 
Q 1562 160 1766 281 
Q 1971 403 2240 685 
z
" transform="scale(0.015625)"/>
      </defs>
      <use xlink:href="#STIXGeneral-Italic-49" transform="translate(0 0.703125)"/>
      <use xlink:href="#STIXGeneral-Italic-63" transform="translate(33.299988 -12.525)scale(0.7)"/>
     </g>
    </g>
   </g>
  </g>
 </g>
 <defs>
  <clipPath id="p1f08153461">
   <rect x="32.339063" y="10.671875" width="223.2" height="135.9"/>
  </clipPath>
 </defs>
</svg>
