<?xml version="1.0" encoding="utf-8" standalone="no"?>
<!DOCTYPE svg PUBLIC "-//W3C//DTD SVG 1.1//EN"
  "http://www.w3.org/Graphics/SVG/1.1/DTD/svg11.dtd">
<svg height="185.6375pt" version="1.1" viewBox="0 0 270.182813 185.6375" width="270.182813pt" xmlns="http://www.w3.org/2000/svg" xmlns:xlink="http://www.w3.org/1999/xlink">
 <metadata>
  <rdf:RDF xmlns:cc="http://creativecommons.org/ns#" xmlns:dc="http://purl.org/dc/elements/1.1/" xmlns:rdf="http://www.w3.org/1999/02/22-rdf-syntax-ns#">
   <cc:Work>
    <dc:type rdf:resource="http://purl.org/dc/dcmitype/StillImage"/>
    <dc:date>2022-02-27T13:21:10.086880</dc:date>
    <dc:format>image/svg+xml</dc:format>
    <dc:creator>
     <cc:Agent>
      <dc:title>Matplotlib v3.4.3, https://matplotlib.org/</dc:title>
     </cc:Agent>
    </dc:creator>
   </cc:Work>
  </rdf:RDF>
 </metadata>
 <defs>
  <style type="text/css">*{stroke-linecap:butt;stroke-linejoin:round;}</style>
 </defs>
 <g id="figure_1">
  <g id="patch_1">
   <path d="M 0 185.6375 
L 270.182813 185.6375 
L 270.182813 0 
L 0 0 
z
" style="fill:#ffffff;"/>
  </g>
  <g id="axes_1">
   <g id="patch_2">
    <path d="M 39.782813 149.271875 
L 262.982812 149.271875 
L 262.982812 10.671875 
L 39.782813 10.671875 
z
" style="fill:#ffffff;"/>
   </g>
   <g id="matplotlib.axis_1">
    <g id="xtick_1">
     <g id="line2d_1">
      <path clip-path="url(#pe468e9ebbe)" d="M 49.928267 149.271875 
L 49.928267 10.671875 
" style="fill:none;stroke:#a9a9a9;stroke-dasharray:3.2,0.8,0.5,0.8;stroke-dashoffset:0;stroke-width:0.5;"/>
     </g>
     <g id="line2d_2">
      <defs>
       <path d="M 0 0 
L 0 3.5 
" id="meef0b030f9" style="stroke:#000000;stroke-width:0.8;"/>
      </defs>
      <g>
       <use style="stroke:#000000;stroke-width:0.8;" x="49.928267" xlink:href="#meef0b030f9" y="149.271875"/>
      </g>
     </g>
     <g id="text_1">
      <!-- 0.0 -->
      <g transform="translate(43.678267 163.215625)scale(0.1 -0.1)">
       <defs>
        <path d="M 231 2094 
Q 231 2819 450 3342 
Q 669 3866 1031 4122 
Q 1313 4325 1613 4325 
Q 2100 4325 2488 3828 
Q 2972 3213 2972 2159 
Q 2972 1422 2759 906 
Q 2547 391 2217 158 
Q 1888 -75 1581 -75 
Q 975 -75 572 641 
Q 231 1244 231 2094 
z
M 844 2016 
Q 844 1141 1059 588 
Q 1238 122 1591 122 
Q 1759 122 1940 273 
Q 2122 425 2216 781 
Q 2359 1319 2359 2297 
Q 2359 3022 2209 3506 
Q 2097 3866 1919 4016 
Q 1791 4119 1609 4119 
Q 1397 4119 1231 3928 
Q 1006 3669 925 3112 
Q 844 2556 844 2016 
z
" id="TimesNewRomanPSMT-30" transform="scale(0.015625)"/>
        <path d="M 800 606 
Q 947 606 1047 504 
Q 1147 403 1147 259 
Q 1147 116 1045 14 
Q 944 -88 800 -88 
Q 656 -88 554 14 
Q 453 116 453 259 
Q 453 406 554 506 
Q 656 606 800 606 
z
" id="TimesNewRomanPSMT-2e" transform="scale(0.015625)"/>
       </defs>
       <use xlink:href="#TimesNewRomanPSMT-30"/>
       <use x="50" xlink:href="#TimesNewRomanPSMT-2e"/>
       <use x="75" xlink:href="#TimesNewRomanPSMT-30"/>
      </g>
     </g>
    </g>
    <g id="xtick_2">
     <g id="line2d_3">
      <path clip-path="url(#pe468e9ebbe)" d="M 90.510085 149.271875 
L 90.510085 10.671875 
" style="fill:none;stroke:#a9a9a9;stroke-dasharray:3.2,0.8,0.5,0.8;stroke-dashoffset:0;stroke-width:0.5;"/>
     </g>
     <g id="line2d_4">
      <g>
       <use style="stroke:#000000;stroke-width:0.8;" x="90.510085" xlink:href="#meef0b030f9" y="149.271875"/>
      </g>
     </g>
     <g id="text_2">
      <!-- 0.2 -->
      <g transform="translate(84.260085 163.215625)scale(0.1 -0.1)">
       <defs>
        <path d="M 2934 816 
L 2638 0 
L 138 0 
L 138 116 
Q 1241 1122 1691 1759 
Q 2141 2397 2141 2925 
Q 2141 3328 1894 3587 
Q 1647 3847 1303 3847 
Q 991 3847 742 3664 
Q 494 3481 375 3128 
L 259 3128 
Q 338 3706 661 4015 
Q 984 4325 1469 4325 
Q 1984 4325 2329 3994 
Q 2675 3663 2675 3213 
Q 2675 2891 2525 2569 
Q 2294 2063 1775 1497 
Q 997 647 803 472 
L 1909 472 
Q 2247 472 2383 497 
Q 2519 522 2628 598 
Q 2738 675 2819 816 
L 2934 816 
z
" id="TimesNewRomanPSMT-32" transform="scale(0.015625)"/>
       </defs>
       <use xlink:href="#TimesNewRomanPSMT-30"/>
       <use x="50" xlink:href="#TimesNewRomanPSMT-2e"/>
       <use x="75" xlink:href="#TimesNewRomanPSMT-32"/>
      </g>
     </g>
    </g>
    <g id="xtick_3">
     <g id="line2d_5">
      <path clip-path="url(#pe468e9ebbe)" d="M 131.091903 149.271875 
L 131.091903 10.671875 
" style="fill:none;stroke:#a9a9a9;stroke-dasharray:3.2,0.8,0.5,0.8;stroke-dashoffset:0;stroke-width:0.5;"/>
     </g>
     <g id="line2d_6">
      <g>
       <use style="stroke:#000000;stroke-width:0.8;" x="131.091903" xlink:href="#meef0b030f9" y="149.271875"/>
      </g>
     </g>
     <g id="text_3">
      <!-- 0.4 -->
      <g transform="translate(124.841903 163.215625)scale(0.1 -0.1)">
       <defs>
        <path d="M 2978 1563 
L 2978 1119 
L 2409 1119 
L 2409 0 
L 1894 0 
L 1894 1119 
L 100 1119 
L 100 1519 
L 2066 4325 
L 2409 4325 
L 2409 1563 
L 2978 1563 
z
M 1894 1563 
L 1894 3666 
L 406 1563 
L 1894 1563 
z
" id="TimesNewRomanPSMT-34" transform="scale(0.015625)"/>
       </defs>
       <use xlink:href="#TimesNewRomanPSMT-30"/>
       <use x="50" xlink:href="#TimesNewRomanPSMT-2e"/>
       <use x="75" xlink:href="#TimesNewRomanPSMT-34"/>
      </g>
     </g>
    </g>
    <g id="xtick_4">
     <g id="line2d_7">
      <path clip-path="url(#pe468e9ebbe)" d="M 171.673722 149.271875 
L 171.673722 10.671875 
" style="fill:none;stroke:#a9a9a9;stroke-dasharray:3.2,0.8,0.5,0.8;stroke-dashoffset:0;stroke-width:0.5;"/>
     </g>
     <g id="line2d_8">
      <g>
       <use style="stroke:#000000;stroke-width:0.8;" x="171.673722" xlink:href="#meef0b030f9" y="149.271875"/>
      </g>
     </g>
     <g id="text_4">
      <!-- 0.6 -->
      <g transform="translate(165.423722 163.215625)scale(0.1 -0.1)">
       <defs>
        <path d="M 2869 4325 
L 2869 4209 
Q 2456 4169 2195 4045 
Q 1934 3922 1679 3669 
Q 1425 3416 1258 3105 
Q 1091 2794 978 2366 
Q 1428 2675 1881 2675 
Q 2316 2675 2634 2325 
Q 2953 1975 2953 1425 
Q 2953 894 2631 456 
Q 2244 -75 1606 -75 
Q 1172 -75 869 213 
Q 275 772 275 1663 
Q 275 2231 503 2743 
Q 731 3256 1154 3653 
Q 1578 4050 1965 4187 
Q 2353 4325 2688 4325 
L 2869 4325 
z
M 925 2138 
Q 869 1716 869 1456 
Q 869 1156 980 804 
Q 1091 453 1309 247 
Q 1469 100 1697 100 
Q 1969 100 2183 356 
Q 2397 613 2397 1088 
Q 2397 1622 2184 2012 
Q 1972 2403 1581 2403 
Q 1463 2403 1327 2353 
Q 1191 2303 925 2138 
z
" id="TimesNewRomanPSMT-36" transform="scale(0.015625)"/>
       </defs>
       <use xlink:href="#TimesNewRomanPSMT-30"/>
       <use x="50" xlink:href="#TimesNewRomanPSMT-2e"/>
       <use x="75" xlink:href="#TimesNewRomanPSMT-36"/>
      </g>
     </g>
    </g>
    <g id="xtick_5">
     <g id="line2d_9">
      <path clip-path="url(#pe468e9ebbe)" d="M 212.25554 149.271875 
L 212.25554 10.671875 
" style="fill:none;stroke:#a9a9a9;stroke-dasharray:3.2,0.8,0.5,0.8;stroke-dashoffset:0;stroke-width:0.5;"/>
     </g>
     <g id="line2d_10">
      <g>
       <use style="stroke:#000000;stroke-width:0.8;" x="212.25554" xlink:href="#meef0b030f9" y="149.271875"/>
      </g>
     </g>
     <g id="text_5">
      <!-- 0.8 -->
      <g transform="translate(206.00554 163.215625)scale(0.1 -0.1)">
       <defs>
        <path d="M 1228 2134 
Q 725 2547 579 2797 
Q 434 3047 434 3316 
Q 434 3728 753 4026 
Q 1072 4325 1600 4325 
Q 2113 4325 2425 4047 
Q 2738 3769 2738 3413 
Q 2738 3175 2569 2928 
Q 2400 2681 1866 2347 
Q 2416 1922 2594 1678 
Q 2831 1359 2831 1006 
Q 2831 559 2490 242 
Q 2150 -75 1597 -75 
Q 994 -75 656 303 
Q 388 606 388 966 
Q 388 1247 577 1523 
Q 766 1800 1228 2134 
z
M 1719 2469 
Q 2094 2806 2194 3001 
Q 2294 3197 2294 3444 
Q 2294 3772 2109 3958 
Q 1925 4144 1606 4144 
Q 1288 4144 1088 3959 
Q 888 3775 888 3528 
Q 888 3366 970 3203 
Q 1053 3041 1206 2894 
L 1719 2469 
z
M 1375 2016 
Q 1116 1797 991 1539 
Q 866 1281 866 981 
Q 866 578 1086 336 
Q 1306 94 1647 94 
Q 1984 94 2187 284 
Q 2391 475 2391 747 
Q 2391 972 2272 1150 
Q 2050 1481 1375 2016 
z
" id="TimesNewRomanPSMT-38" transform="scale(0.015625)"/>
       </defs>
       <use xlink:href="#TimesNewRomanPSMT-30"/>
       <use x="50" xlink:href="#TimesNewRomanPSMT-2e"/>
       <use x="75" xlink:href="#TimesNewRomanPSMT-38"/>
      </g>
     </g>
    </g>
    <g id="xtick_6">
     <g id="line2d_11">
      <path clip-path="url(#pe468e9ebbe)" d="M 252.837358 149.271875 
L 252.837358 10.671875 
" style="fill:none;stroke:#a9a9a9;stroke-dasharray:3.2,0.8,0.5,0.8;stroke-dashoffset:0;stroke-width:0.5;"/>
     </g>
     <g id="line2d_12">
      <g>
       <use style="stroke:#000000;stroke-width:0.8;" x="252.837358" xlink:href="#meef0b030f9" y="149.271875"/>
      </g>
     </g>
     <g id="text_6">
      <!-- 1.0 -->
      <g transform="translate(246.587358 163.215625)scale(0.1 -0.1)">
       <defs>
        <path d="M 750 3822 
L 1781 4325 
L 1884 4325 
L 1884 747 
Q 1884 391 1914 303 
Q 1944 216 2037 169 
Q 2131 122 2419 116 
L 2419 0 
L 825 0 
L 825 116 
Q 1125 122 1212 167 
Q 1300 213 1334 289 
Q 1369 366 1369 747 
L 1369 3034 
Q 1369 3497 1338 3628 
Q 1316 3728 1258 3775 
Q 1200 3822 1119 3822 
Q 1003 3822 797 3725 
L 750 3822 
z
" id="TimesNewRomanPSMT-31" transform="scale(0.015625)"/>
       </defs>
       <use xlink:href="#TimesNewRomanPSMT-31"/>
       <use x="50" xlink:href="#TimesNewRomanPSMT-2e"/>
       <use x="75" xlink:href="#TimesNewRomanPSMT-30"/>
      </g>
     </g>
    </g>
    <g id="text_7">
     <!-- time [s] -->
     <g transform="translate(135.970313 176.298438)scale(0.1 -0.1)">
      <defs>
       <path d="M 1031 3803 
L 1031 2863 
L 1700 2863 
L 1700 2644 
L 1031 2644 
L 1031 788 
Q 1031 509 1111 412 
Q 1191 316 1316 316 
Q 1419 316 1516 380 
Q 1613 444 1666 569 
L 1788 569 
Q 1678 263 1478 108 
Q 1278 -47 1066 -47 
Q 922 -47 784 33 
Q 647 113 581 261 
Q 516 409 516 719 
L 516 2644 
L 63 2644 
L 63 2747 
Q 234 2816 414 2980 
Q 594 3144 734 3369 
Q 806 3488 934 3803 
L 1031 3803 
z
" id="TimesNewRomanPSMT-74" transform="scale(0.015625)"/>
       <path d="M 928 4444 
Q 1059 4444 1151 4351 
Q 1244 4259 1244 4128 
Q 1244 3997 1151 3903 
Q 1059 3809 928 3809 
Q 797 3809 703 3903 
Q 609 3997 609 4128 
Q 609 4259 701 4351 
Q 794 4444 928 4444 
z
M 1188 2947 
L 1188 647 
Q 1188 378 1227 289 
Q 1266 200 1342 156 
Q 1419 113 1622 113 
L 1622 0 
L 231 0 
L 231 113 
Q 441 113 512 153 
Q 584 194 626 287 
Q 669 381 669 647 
L 669 1750 
Q 669 2216 641 2353 
Q 619 2453 572 2492 
Q 525 2531 444 2531 
Q 356 2531 231 2484 
L 188 2597 
L 1050 2947 
L 1188 2947 
z
" id="TimesNewRomanPSMT-69" transform="scale(0.015625)"/>
       <path d="M 1050 2338 
Q 1363 2650 1419 2697 
Q 1559 2816 1721 2881 
Q 1884 2947 2044 2947 
Q 2313 2947 2506 2790 
Q 2700 2634 2766 2338 
Q 3088 2713 3309 2830 
Q 3531 2947 3766 2947 
Q 3994 2947 4170 2830 
Q 4347 2713 4450 2447 
Q 4519 2266 4519 1878 
L 4519 647 
Q 4519 378 4559 278 
Q 4591 209 4675 161 
Q 4759 113 4950 113 
L 4950 0 
L 3538 0 
L 3538 113 
L 3597 113 
Q 3781 113 3884 184 
Q 3956 234 3988 344 
Q 4000 397 4000 647 
L 4000 1878 
Q 4000 2228 3916 2372 
Q 3794 2572 3525 2572 
Q 3359 2572 3192 2489 
Q 3025 2406 2788 2181 
L 2781 2147 
L 2788 2013 
L 2788 647 
Q 2788 353 2820 281 
Q 2853 209 2943 161 
Q 3034 113 3253 113 
L 3253 0 
L 1806 0 
L 1806 113 
Q 2044 113 2133 169 
Q 2222 225 2256 338 
Q 2272 391 2272 647 
L 2272 1878 
Q 2272 2228 2169 2381 
Q 2031 2581 1784 2581 
Q 1616 2581 1450 2491 
Q 1191 2353 1050 2181 
L 1050 647 
Q 1050 366 1089 281 
Q 1128 197 1204 155 
Q 1281 113 1516 113 
L 1516 0 
L 100 0 
L 100 113 
Q 297 113 375 155 
Q 453 197 493 289 
Q 534 381 534 647 
L 534 1741 
Q 534 2213 506 2350 
Q 484 2453 437 2492 
Q 391 2531 309 2531 
Q 222 2531 100 2484 
L 53 2597 
L 916 2947 
L 1050 2947 
L 1050 2338 
z
" id="TimesNewRomanPSMT-6d" transform="scale(0.015625)"/>
       <path d="M 681 1784 
Q 678 1147 991 784 
Q 1303 422 1725 422 
Q 2006 422 2214 576 
Q 2422 731 2563 1106 
L 2659 1044 
Q 2594 616 2278 264 
Q 1963 -88 1488 -88 
Q 972 -88 605 314 
Q 238 716 238 1394 
Q 238 2128 614 2539 
Q 991 2950 1559 2950 
Q 2041 2950 2350 2633 
Q 2659 2316 2659 1784 
L 681 1784 
z
M 681 1966 
L 2006 1966 
Q 1991 2241 1941 2353 
Q 1863 2528 1708 2628 
Q 1553 2728 1384 2728 
Q 1125 2728 920 2526 
Q 716 2325 681 1966 
z
" id="TimesNewRomanPSMT-65" transform="scale(0.015625)"/>
       <path id="TimesNewRomanPSMT-20" transform="scale(0.015625)"/>
       <path d="M 1900 -1269 
L 525 -1269 
L 525 4334 
L 1900 4334 
L 1900 4088 
L 994 4088 
L 994 -1025 
L 1900 -1025 
L 1900 -1269 
z
" id="TimesNewRomanPSMT-5b" transform="scale(0.015625)"/>
       <path d="M 2050 2947 
L 2050 1972 
L 1947 1972 
Q 1828 2431 1642 2597 
Q 1456 2763 1169 2763 
Q 950 2763 815 2647 
Q 681 2531 681 2391 
Q 681 2216 781 2091 
Q 878 1963 1175 1819 
L 1631 1597 
Q 2266 1288 2266 781 
Q 2266 391 1970 151 
Q 1675 -88 1309 -88 
Q 1047 -88 709 6 
Q 606 38 541 38 
Q 469 38 428 -44 
L 325 -44 
L 325 978 
L 428 978 
Q 516 541 762 319 
Q 1009 97 1316 97 
Q 1531 97 1667 223 
Q 1803 350 1803 528 
Q 1803 744 1651 891 
Q 1500 1038 1047 1263 
Q 594 1488 453 1669 
Q 313 1847 313 2119 
Q 313 2472 555 2709 
Q 797 2947 1181 2947 
Q 1350 2947 1591 2875 
Q 1750 2828 1803 2828 
Q 1853 2828 1881 2850 
Q 1909 2872 1947 2947 
L 2050 2947 
z
" id="TimesNewRomanPSMT-73" transform="scale(0.015625)"/>
       <path d="M 234 4334 
L 1609 4334 
L 1609 -1272 
L 234 -1272 
L 234 -1025 
L 1141 -1025 
L 1141 4088 
L 234 4088 
L 234 4334 
z
" id="TimesNewRomanPSMT-5d" transform="scale(0.015625)"/>
      </defs>
      <use xlink:href="#TimesNewRomanPSMT-74"/>
      <use x="27.783203" xlink:href="#TimesNewRomanPSMT-69"/>
      <use x="55.566406" xlink:href="#TimesNewRomanPSMT-6d"/>
      <use x="133.349609" xlink:href="#TimesNewRomanPSMT-65"/>
      <use x="177.734375" xlink:href="#TimesNewRomanPSMT-20"/>
      <use x="202.734375" xlink:href="#TimesNewRomanPSMT-5b"/>
      <use x="236.035156" xlink:href="#TimesNewRomanPSMT-73"/>
      <use x="274.951172" xlink:href="#TimesNewRomanPSMT-5d"/>
     </g>
    </g>
   </g>
   <g id="matplotlib.axis_2">
    <g id="ytick_1">
     <g id="line2d_13">
      <path clip-path="url(#pe468e9ebbe)" d="M 39.782813 133.871875 
L 262.982812 133.871875 
" style="fill:none;stroke:#a9a9a9;stroke-dasharray:3.2,0.8,0.5,0.8;stroke-dashoffset:0;stroke-width:0.5;"/>
     </g>
     <g id="line2d_14">
      <defs>
       <path d="M 0 0 
L -3.5 0 
" id="m97e74a0bef" style="stroke:#000000;stroke-width:0.8;"/>
      </defs>
      <g>
       <use style="stroke:#000000;stroke-width:0.8;" x="39.782813" xlink:href="#m97e74a0bef" y="133.871875"/>
      </g>
     </g>
     <g id="text_8">
      <!-- 0.0 -->
      <g transform="translate(20.282813 137.34375)scale(0.1 -0.1)">
       <use xlink:href="#TimesNewRomanPSMT-30"/>
       <use x="50" xlink:href="#TimesNewRomanPSMT-2e"/>
       <use x="75" xlink:href="#TimesNewRomanPSMT-30"/>
      </g>
     </g>
    </g>
    <g id="ytick_2">
     <g id="line2d_15">
      <path clip-path="url(#pe468e9ebbe)" d="M 39.782813 103.071875 
L 262.982812 103.071875 
" style="fill:none;stroke:#a9a9a9;stroke-dasharray:3.2,0.8,0.5,0.8;stroke-dashoffset:0;stroke-width:0.5;"/>
     </g>
     <g id="line2d_16">
      <g>
       <use style="stroke:#000000;stroke-width:0.8;" x="39.782813" xlink:href="#m97e74a0bef" y="103.071875"/>
      </g>
     </g>
     <g id="text_9">
      <!-- 0.1 -->
      <g transform="translate(20.282813 106.54375)scale(0.1 -0.1)">
       <use xlink:href="#TimesNewRomanPSMT-30"/>
       <use x="50" xlink:href="#TimesNewRomanPSMT-2e"/>
       <use x="75" xlink:href="#TimesNewRomanPSMT-31"/>
      </g>
     </g>
    </g>
    <g id="ytick_3">
     <g id="line2d_17">
      <path clip-path="url(#pe468e9ebbe)" d="M 39.782813 72.271875 
L 262.982812 72.271875 
" style="fill:none;stroke:#a9a9a9;stroke-dasharray:3.2,0.8,0.5,0.8;stroke-dashoffset:0;stroke-width:0.5;"/>
     </g>
     <g id="line2d_18">
      <g>
       <use style="stroke:#000000;stroke-width:0.8;" x="39.782813" xlink:href="#m97e74a0bef" y="72.271875"/>
      </g>
     </g>
     <g id="text_10">
      <!-- 0.2 -->
      <g transform="translate(20.282813 75.74375)scale(0.1 -0.1)">
       <use xlink:href="#TimesNewRomanPSMT-30"/>
       <use x="50" xlink:href="#TimesNewRomanPSMT-2e"/>
       <use x="75" xlink:href="#TimesNewRomanPSMT-32"/>
      </g>
     </g>
    </g>
    <g id="ytick_4">
     <g id="line2d_19">
      <path clip-path="url(#pe468e9ebbe)" d="M 39.782813 41.471875 
L 262.982812 41.471875 
" style="fill:none;stroke:#a9a9a9;stroke-dasharray:3.2,0.8,0.5,0.8;stroke-dashoffset:0;stroke-width:0.5;"/>
     </g>
     <g id="line2d_20">
      <g>
       <use style="stroke:#000000;stroke-width:0.8;" x="39.782813" xlink:href="#m97e74a0bef" y="41.471875"/>
      </g>
     </g>
     <g id="text_11">
      <!-- 0.3 -->
      <g transform="translate(20.282813 44.94375)scale(0.1 -0.1)">
       <defs>
        <path d="M 325 3431 
Q 506 3859 782 4092 
Q 1059 4325 1472 4325 
Q 1981 4325 2253 3994 
Q 2459 3747 2459 3466 
Q 2459 3003 1878 2509 
Q 2269 2356 2469 2072 
Q 2669 1788 2669 1403 
Q 2669 853 2319 450 
Q 1863 -75 997 -75 
Q 569 -75 414 31 
Q 259 138 259 259 
Q 259 350 332 419 
Q 406 488 509 488 
Q 588 488 669 463 
Q 722 447 909 348 
Q 1097 250 1169 231 
Q 1284 197 1416 197 
Q 1734 197 1970 444 
Q 2206 691 2206 1028 
Q 2206 1275 2097 1509 
Q 2016 1684 1919 1775 
Q 1784 1900 1550 2001 
Q 1316 2103 1072 2103 
L 972 2103 
L 972 2197 
Q 1219 2228 1467 2375 
Q 1716 2522 1828 2728 
Q 1941 2934 1941 3181 
Q 1941 3503 1739 3701 
Q 1538 3900 1238 3900 
Q 753 3900 428 3381 
L 325 3431 
z
" id="TimesNewRomanPSMT-33" transform="scale(0.015625)"/>
       </defs>
       <use xlink:href="#TimesNewRomanPSMT-30"/>
       <use x="50" xlink:href="#TimesNewRomanPSMT-2e"/>
       <use x="75" xlink:href="#TimesNewRomanPSMT-33"/>
      </g>
     </g>
    </g>
    <g id="ytick_5">
     <g id="line2d_21">
      <path clip-path="url(#pe468e9ebbe)" d="M 39.782813 10.671875 
L 262.982812 10.671875 
" style="fill:none;stroke:#a9a9a9;stroke-dasharray:3.2,0.8,0.5,0.8;stroke-dashoffset:0;stroke-width:0.5;"/>
     </g>
     <g id="line2d_22">
      <g>
       <use style="stroke:#000000;stroke-width:0.8;" x="39.782813" xlink:href="#m97e74a0bef" y="10.671875"/>
      </g>
     </g>
     <g id="text_12">
      <!-- 0.4 -->
      <g transform="translate(20.282813 14.14375)scale(0.1 -0.1)">
       <use xlink:href="#TimesNewRomanPSMT-30"/>
       <use x="50" xlink:href="#TimesNewRomanPSMT-2e"/>
       <use x="75" xlink:href="#TimesNewRomanPSMT-34"/>
      </g>
     </g>
    </g>
    <g id="text_13">
     <!-- Current [A] -->
     <g transform="translate(14.14375 103.435938)rotate(-90)scale(0.1 -0.1)">
      <defs>
       <path d="M 3853 4334 
L 3950 2894 
L 3853 2894 
Q 3659 3541 3300 3825 
Q 2941 4109 2438 4109 
Q 2016 4109 1675 3895 
Q 1334 3681 1139 3212 
Q 944 2744 944 2047 
Q 944 1472 1128 1050 
Q 1313 628 1683 403 
Q 2053 178 2528 178 
Q 2941 178 3256 354 
Q 3572 531 3950 1056 
L 4047 994 
Q 3728 428 3303 165 
Q 2878 -97 2294 -97 
Q 1241 -97 663 684 
Q 231 1266 231 2053 
Q 231 2688 515 3219 
Q 800 3750 1298 4042 
Q 1797 4334 2388 4334 
Q 2847 4334 3294 4109 
Q 3425 4041 3481 4041 
Q 3566 4041 3628 4100 
Q 3709 4184 3744 4334 
L 3853 4334 
z
" id="TimesNewRomanPSMT-43" transform="scale(0.015625)"/>
       <path d="M 2709 2863 
L 2709 1128 
Q 2709 631 2732 520 
Q 2756 409 2807 365 
Q 2859 322 2928 322 
Q 3025 322 3147 375 
L 3191 266 
L 2334 -88 
L 2194 -88 
L 2194 519 
Q 1825 119 1631 15 
Q 1438 -88 1222 -88 
Q 981 -88 804 51 
Q 628 191 559 409 
Q 491 628 491 1028 
L 491 2306 
Q 491 2509 447 2587 
Q 403 2666 317 2708 
Q 231 2750 6 2747 
L 6 2863 
L 1009 2863 
L 1009 947 
Q 1009 547 1148 422 
Q 1288 297 1484 297 
Q 1619 297 1789 381 
Q 1959 466 2194 703 
L 2194 2325 
Q 2194 2569 2105 2655 
Q 2016 2741 1734 2747 
L 1734 2863 
L 2709 2863 
z
" id="TimesNewRomanPSMT-75" transform="scale(0.015625)"/>
       <path d="M 1038 2947 
L 1038 2303 
Q 1397 2947 1775 2947 
Q 1947 2947 2059 2842 
Q 2172 2738 2172 2600 
Q 2172 2478 2090 2393 
Q 2009 2309 1897 2309 
Q 1788 2309 1652 2417 
Q 1516 2525 1450 2525 
Q 1394 2525 1328 2463 
Q 1188 2334 1038 2041 
L 1038 669 
Q 1038 431 1097 309 
Q 1138 225 1241 169 
Q 1344 113 1538 113 
L 1538 0 
L 72 0 
L 72 113 
Q 291 113 397 181 
Q 475 231 506 341 
Q 522 394 522 644 
L 522 1753 
Q 522 2253 501 2348 
Q 481 2444 426 2487 
Q 372 2531 291 2531 
Q 194 2531 72 2484 
L 41 2597 
L 906 2947 
L 1038 2947 
z
" id="TimesNewRomanPSMT-72" transform="scale(0.015625)"/>
       <path d="M 1034 2341 
Q 1538 2947 1994 2947 
Q 2228 2947 2397 2830 
Q 2566 2713 2666 2444 
Q 2734 2256 2734 1869 
L 2734 647 
Q 2734 375 2778 278 
Q 2813 200 2889 156 
Q 2966 113 3172 113 
L 3172 0 
L 1756 0 
L 1756 113 
L 1816 113 
Q 2016 113 2095 173 
Q 2175 234 2206 353 
Q 2219 400 2219 647 
L 2219 1819 
Q 2219 2209 2117 2386 
Q 2016 2563 1775 2563 
Q 1403 2563 1034 2156 
L 1034 647 
Q 1034 356 1069 288 
Q 1113 197 1189 155 
Q 1266 113 1500 113 
L 1500 0 
L 84 0 
L 84 113 
L 147 113 
Q 366 113 442 223 
Q 519 334 519 647 
L 519 1709 
Q 519 2225 495 2337 
Q 472 2450 423 2490 
Q 375 2531 294 2531 
Q 206 2531 84 2484 
L 38 2597 
L 900 2947 
L 1034 2947 
L 1034 2341 
z
" id="TimesNewRomanPSMT-6e" transform="scale(0.015625)"/>
       <path d="M 2928 1419 
L 1288 1419 
L 1000 750 
Q 894 503 894 381 
Q 894 284 986 211 
Q 1078 138 1384 116 
L 1384 0 
L 50 0 
L 50 116 
Q 316 163 394 238 
Q 553 388 747 847 
L 2238 4334 
L 2347 4334 
L 3822 809 
Q 4000 384 4145 257 
Q 4291 131 4550 116 
L 4550 0 
L 2878 0 
L 2878 116 
Q 3131 128 3220 200 
Q 3309 272 3309 375 
Q 3309 513 3184 809 
L 2928 1419 
z
M 2841 1650 
L 2122 3363 
L 1384 1650 
L 2841 1650 
z
" id="TimesNewRomanPSMT-41" transform="scale(0.015625)"/>
      </defs>
      <use xlink:href="#TimesNewRomanPSMT-43"/>
      <use x="66.699219" xlink:href="#TimesNewRomanPSMT-75"/>
      <use x="116.699219" xlink:href="#TimesNewRomanPSMT-72"/>
      <use x="150" xlink:href="#TimesNewRomanPSMT-72"/>
      <use x="183.300781" xlink:href="#TimesNewRomanPSMT-65"/>
      <use x="227.685547" xlink:href="#TimesNewRomanPSMT-6e"/>
      <use x="277.685547" xlink:href="#TimesNewRomanPSMT-74"/>
      <use x="305.46875" xlink:href="#TimesNewRomanPSMT-20"/>
      <use x="330.46875" xlink:href="#TimesNewRomanPSMT-5b"/>
      <use x="363.769531" xlink:href="#TimesNewRomanPSMT-41"/>
      <use x="435.986328" xlink:href="#TimesNewRomanPSMT-5d"/>
     </g>
    </g>
   </g>
   <g id="line2d_23">
    <path clip-path="url(#pe468e9ebbe)" d="M 49.928267 40.511653 
L 50.131176 41.779408 
L 50.334085 41.716366 
L 50.739903 41.169208 
L 50.942813 40.48977 
L 51.145722 41.024408 
L 51.55154 44.776261 
L 51.754449 42.926862 
L 52.160267 41.783961 
L 52.363176 41.694346 
L 52.566085 42.606373 
L 52.768994 39.371268 
L 52.971903 38.444213 
L 53.174813 42.149648 
L 53.377722 40.709867 
L 53.580631 38.260558 
L 53.78354 43.472441 
L 53.986449 42.212984 
L 54.189358 43.610651 
L 54.392267 40.776939 
L 54.595176 41.161232 
L 54.798085 41.271849 
L 55.000994 38.881736 
L 55.203903 41.68457 
L 55.406813 40.810158 
L 55.609722 41.64364 
L 55.812631 41.480637 
L 56.01554 42.153522 
L 56.421358 41.346411 
L 56.827176 42.107011 
L 57.030085 41.112353 
L 57.232994 41.847967 
L 57.435903 41.646651 
L 57.841722 42.227276 
L 58.044631 40.202721 
L 58.24754 41.940162 
L 58.450449 42.582627 
L 58.653358 40.069312 
L 58.856267 39.56838 
L 59.059176 40.413097 
L 59.262085 41.74529 
L 59.464994 39.93358 
L 59.667903 41.365164 
L 60.073722 39.802034 
L 60.276631 40.380594 
L 60.682449 42.645742 
L 60.885358 42.306381 
L 61.088267 40.293502 
L 61.291176 42.469338 
L 61.494085 42.592843 
L 61.696994 41.032596 
L 61.899903 41.303967 
L 62.102812 41.342648 
L 62.305722 40.375775 
L 62.508631 41.115355 
L 62.71154 42.811361 
L 62.914449 43.192047 
L 63.117358 38.577871 
L 63.320267 41.579184 
L 63.726085 40.739791 
L 63.928994 42.162499 
L 64.131903 42.261853 
L 64.334812 40.260329 
L 64.537722 42.480665 
L 64.740631 38.60863 
L 64.94354 39.662236 
L 65.146449 41.558476 
L 65.349358 42.283856 
L 65.552267 42.257787 
L 65.755176 40.673242 
L 65.958085 42.983818 
L 66.160994 39.939969 
L 66.363903 41.077913 
L 66.566812 39.512929 
L 66.769722 40.817657 
L 66.972631 39.43867 
L 67.17554 40.575017 
L 67.378449 40.379263 
L 67.581358 40.993291 
L 67.784267 42.343024 
L 67.987176 41.731906 
L 68.190085 40.709582 
L 68.392994 39.079546 
L 68.798812 41.040095 
L 69.001722 42.796748 
L 69.40754 40.756681 
L 69.610449 40.346007 
L 69.813358 41.024509 
L 70.016267 43.441104 
L 70.219176 39.964697 
L 70.422085 41.260495 
L 70.624994 40.231736 
L 70.827903 42.052313 
L 71.030812 42.75412 
L 71.233722 42.76228 
L 71.436631 41.273997 
L 71.63954 42.537025 
L 71.842449 42.417164 
L 72.045358 40.054515 
L 72.248267 40.579156 
L 72.451176 41.56884 
L 72.654085 40.832959 
L 72.856994 43.311357 
L 73.059903 42.707132 
L 73.262812 43.70604 
L 73.465722 43.110839 
L 73.668631 39.994649 
L 74.074449 43.021884 
L 74.277358 42.5042 
L 74.480267 39.983799 
L 74.683176 42.678099 
L 74.886085 42.159534 
L 75.088994 39.879432 
L 75.494812 42.854623 
L 75.697722 38.449528 
L 76.10354 43.468329 
L 76.306449 40.671976 
L 76.509358 41.946698 
L 76.712267 39.875706 
L 76.915176 40.870832 
L 77.118085 40.419064 
L 77.320994 42.378199 
L 77.523903 41.23035 
L 77.726812 42.59333 
L 77.929722 41.925301 
L 78.132631 39.435227 
L 78.33554 41.291639 
L 78.538449 41.035202 
L 78.741358 41.726638 
L 78.944267 44.919272 
L 79.147176 38.208999 
L 79.755903 43.005582 
L 79.958812 41.954445 
L 80.161722 39.397951 
L 80.364631 40.63525 
L 80.56754 40.994511 
L 80.770449 43.34509 
L 80.973358 39.658014 
L 81.176267 41.698504 
L 81.379176 39.971297 
L 81.582085 40.729556 
L 81.784994 40.131702 
L 81.987903 40.510497 
L 82.190812 42.30562 
L 82.393722 40.57431 
L 82.596631 43.201988 
L 82.79954 42.994218 
L 83.002449 43.002819 
L 83.205358 43.278716 
L 83.408267 41.210441 
L 83.611176 40.678732 
L 84.016994 41.045446 
L 84.219903 41.493295 
L 84.422812 41.607126 
L 84.625722 41.95729 
L 84.828631 41.596074 
L 85.03154 42.49112 
L 85.234449 41.853989 
L 85.437358 43.595652 
L 85.640267 40.664385 
L 85.843176 41.721653 
L 86.046085 40.082842 
L 86.248994 42.615828 
L 86.451903 40.299166 
L 86.654812 41.306225 
L 86.857722 41.335194 
L 87.060631 43.423562 
L 87.466449 40.471926 
L 87.669358 40.224604 
L 87.872267 38.926732 
L 88.075176 42.214581 
L 88.683903 40.548728 
L 88.886812 41.796234 
L 89.292631 41.763675 
L 89.49554 40.713043 
L 89.698449 42.253519 
L 89.901358 41.798317 
L 90.104267 42.580259 
L 90.307176 42.084008 
L 90.510085 40.174091 
L 90.712994 40.793663 
L 90.915903 42.267434 
L 91.118812 40.427591 
L 91.321722 41.169208 
L 91.524631 37.918076 
L 91.72754 44.924954 
L 91.930449 42.877938 
L 92.133358 42.839706 
L 92.336267 39.193229 
L 92.539176 41.851786 
L 92.944994 41.805009 
L 93.147903 42.012117 
L 93.350812 43.269344 
L 93.553722 40.103981 
L 93.756631 40.808836 
L 93.95954 39.707801 
L 94.162449 39.531764 
L 94.568267 43.403598 
L 94.771176 43.191615 
L 94.974085 41.581167 
L 95.176994 41.747961 
L 95.379903 42.287537 
L 95.785722 40.806698 
L 95.988631 41.694153 
L 96.19154 44.28751 
L 96.394449 40.631184 
L 96.597358 41.322582 
L 97.003176 43.270565 
L 97.408994 40.375527 
L 97.611903 44.086955 
L 97.814812 40.848554 
L 98.017722 41.646651 
L 98.626449 42.661742 
L 98.829358 41.362612 
L 99.032267 42.032018 
L 99.235176 42.102899 
L 99.438085 41.053698 
L 99.640994 41.438386 
L 99.843903 40.722176 
L 100.046812 43.401634 
L 100.452631 40.832014 
L 100.65554 41.492928 
L 100.858449 40.803797 
L 101.061358 41.916581 
L 101.264267 39.930689 
L 101.467176 41.336626 
L 101.670085 41.252188 
L 101.872994 41.393418 
L 102.075903 39.986057 
L 102.278812 42.08253 
L 102.481722 41.303967 
L 102.684631 42.232627 
L 102.88754 39.56625 
L 103.090449 42.034698 
L 103.293358 40.94488 
L 103.496267 40.73768 
L 103.699176 42.72908 
L 103.902085 42.548554 
L 104.307903 40.770146 
L 104.510812 41.451484 
L 104.713722 29.733848 
L 104.916631 41.586546 
L 105.322449 41.058986 
L 105.525358 41.858073 
L 105.728267 43.79707 
L 105.931176 38.101658 
L 106.134085 42.275402 
L 106.336994 43.127518 
L 106.742812 41.797289 
L 106.945722 40.208779 
L 107.35154 42.174688 
L 107.554449 41.140725 
L 107.757358 42.099411 
L 107.960267 41.554281 
L 108.163176 41.763024 
L 108.366085 41.724123 
L 108.568994 44.584252 
L 108.771903 40.4938 
L 108.974812 40.928697 
L 109.177722 40.872301 
L 109.380631 41.040086 
L 109.786449 42.724857 
L 109.989358 40.756681 
L 110.192267 41.288005 
L 110.395176 42.634406 
L 110.598085 41.32831 
L 111.003903 40.519079 
L 111.206812 42.220272 
L 111.612631 40.063199 
L 112.018449 42.516363 
L 112.221358 42.110169 
L 112.424267 43.554429 
L 112.627176 42.049944 
L 113.032994 42.109352 
L 113.235903 42.53596 
L 113.641722 39.25282 
L 114.04754 43.449025 
L 114.250449 40.381585 
L 114.453358 40.261614 
L 114.656267 41.29521 
L 114.859176 41.741627 
L 115.062085 40.585215 
L 115.264994 42.979201 
L 115.467903 41.454229 
L 115.670812 40.808634 
L 115.873722 41.865261 
L 116.27954 40.207329 
L 116.482449 40.199527 
L 116.685358 41.84402 
L 116.888267 40.671976 
L 117.091176 41.135117 
L 117.699903 39.670259 
L 117.902812 40.925457 
L 118.105722 40.52712 
L 118.308631 41.913956 
L 118.714449 41.082025 
L 119.120267 42.059068 
L 119.323176 41.802099 
L 119.526085 41.316349 
L 119.728994 39.730566 
L 119.931903 39.524779 
L 120.134812 40.945348 
L 120.337722 40.762335 
L 120.540631 37.891493 
L 120.946449 44.118908 
L 121.149358 41.855467 
L 121.352267 41.111215 
L 121.555176 39.576246 
L 121.960994 42.847343 
L 122.163903 41.417724 
L 122.366812 41.901959 
L 122.569722 40.38041 
L 122.772631 42.30562 
L 122.97554 41.464299 
L 123.381358 41.34721 
L 123.584267 41.040297 
L 123.787176 41.514371 
L 123.990085 40.252178 
L 124.192994 41.648101 
L 124.395903 42.007941 
L 124.598812 43.02283 
L 124.801722 42.62945 
L 125.004631 42.66523 
L 125.20754 40.946954 
L 125.410449 41.218665 
L 125.816267 42.003792 
L 126.019176 42.198912 
L 126.222085 40.626144 
L 126.424994 41.704029 
L 126.627903 41.108636 
L 127.033722 42.156486 
L 127.236631 41.306225 
L 127.43954 41.693602 
L 127.642449 41.410509 
L 127.845358 42.04597 
L 128.251176 41.442627 
L 128.454085 42.61614 
L 128.656994 41.252105 
L 128.859903 41.735156 
L 129.062813 40.349063 
L 129.265722 42.397888 
L 129.468631 41.665523 
L 129.67154 41.755423 
L 129.874449 40.84335 
L 130.077358 40.819347 
L 130.280267 42.16819 
L 130.483176 41.208596 
L 130.686085 42.43085 
L 130.888994 42.084008 
L 131.091903 40.724544 
L 131.294812 41.038002 
L 131.497722 40.722094 
L 131.700631 41.122937 
L 131.90354 38.481178 
L 132.106449 41.782878 
L 132.512267 41.429023 
L 132.715176 43.639006 
L 132.918085 40.817722 
L 133.120994 44.931792 
L 133.323903 42.269619 
L 133.526812 38.052651 
L 133.729722 42.606383 
L 133.932631 42.250692 
L 134.13554 42.777876 
L 134.541358 40.402302 
L 134.744267 44.11586 
L 134.947176 42.240925 
L 135.150085 37.423514 
L 135.555903 42.234849 
L 135.758812 42.103688 
L 135.961722 40.602104 
L 136.164631 41.57252 
L 136.36754 40.806698 
L 136.570449 41.704323 
L 136.773358 41.686057 
L 136.976267 41.40602 
L 137.179176 41.322591 
L 137.382085 40.03847 
L 137.584994 40.554988 
L 137.787903 41.563451 
L 137.990813 40.141652 
L 138.193722 40.120816 
L 138.802449 44.341162 
L 139.005358 41.83989 
L 139.208267 41.453889 
L 139.411176 41.362612 
L 139.614085 41.556879 
L 139.816994 42.645632 
L 140.019903 42.575265 
L 140.222812 40.971784 
L 140.425722 42.478545 
L 140.628631 39.93358 
L 140.83154 41.48486 
L 141.237358 41.543854 
L 141.643176 41.183463 
L 141.846085 42.421221 
L 142.048994 41.52958 
L 142.251903 42.049687 
L 142.454813 40.57599 
L 142.657722 41.853511 
L 142.860631 42.147573 
L 143.06354 40.398897 
L 143.469358 42.184832 
L 143.875176 40.011639 
L 144.078085 41.427701 
L 144.280994 41.132611 
L 144.483903 42.164931 
L 144.686812 38.786062 
L 145.092631 42.448373 
L 145.29554 42.632543 
L 145.498449 39.944439 
L 145.701358 39.289849 
L 145.904267 42.284159 
L 146.107176 42.007867 
L 146.310085 40.533252 
L 146.512994 42.777949 
L 146.715903 42.76228 
L 146.918813 41.699036 
L 147.121722 40.041196 
L 147.324631 40.358077 
L 147.52754 39.968433 
L 147.730449 40.820879 
L 147.933358 42.830711 
L 148.136267 41.735312 
L 148.339176 43.017956 
L 148.542085 41.319278 
L 148.744994 42.329265 
L 148.947903 41.724123 
L 149.150812 40.389975 
L 149.556631 42.626319 
L 149.75954 40.959438 
L 149.962449 41.93482 
L 150.368267 40.087661 
L 150.571176 42.528773 
L 150.774085 43.054571 
L 150.976994 40.219555 
L 151.382812 41.491395 
L 151.585722 40.771817 
L 151.788631 41.226009 
L 151.99154 40.661612 
L 152.194449 43.425408 
L 152.397358 41.748356 
L 152.600267 42.516363 
L 152.803176 40.661254 
L 153.006085 41.392564 
L 153.208994 41.565296 
L 153.411903 42.118659 
L 153.614812 40.002139 
L 153.817722 42.425306 
L 154.020631 42.289198 
L 154.22354 42.530627 
L 154.426449 40.663696 
L 154.629358 42.102256 
L 154.832267 42.385726 
L 155.035176 40.979522 
L 155.238085 42.035818 
L 155.440994 41.527598 
L 155.643903 42.936592 
L 155.846812 42.527543 
L 156.049722 40.511772 
L 156.252631 41.651351 
L 156.45554 41.919574 
L 156.658449 41.076802 
L 156.861358 41.985479 
L 157.064267 40.114693 
L 157.267176 40.845332 
L 157.470085 40.565232 
L 157.672994 41.273878 
L 157.875903 42.591283 
L 158.078812 41.84369 
L 158.281722 39.436384 
L 158.484631 42.378199 
L 158.68754 39.120678 
L 158.890449 41.587042 
L 159.093358 41.210652 
L 159.296267 39.435237 
L 159.702085 41.166427 
L 159.904994 42.752376 
L 160.107903 42.362576 
L 160.513722 40.083457 
L 160.716631 43.724839 
L 160.91954 39.947285 
L 161.528267 42.05928 
L 161.934085 40.855329 
L 162.136994 41.842249 
L 162.339903 39.951957 
L 162.542812 42.049843 
L 162.745722 39.782886 
L 162.948631 42.738488 
L 163.354449 41.40054 
L 163.557358 40.575467 
L 163.760267 40.520071 
L 163.963176 42.994218 
L 164.166085 40.299147 
L 164.368994 41.386267 
L 164.571903 41.210441 
L 164.774812 40.870548 
L 164.977722 42.987453 
L 165.180631 41.300213 
L 165.38354 40.782272 
L 165.586449 41.661117 
L 165.789358 43.314854 
L 165.992267 40.580506 
L 166.195176 43.103707 
L 166.398085 40.830976 
L 166.600994 40.148454 
L 166.803903 40.132051 
L 167.006812 40.677419 
L 167.209722 40.082842 
L 167.412631 40.886042 
L 167.61554 41.135383 
L 168.021358 42.410427 
L 168.224267 41.082493 
L 168.427176 43.532436 
L 168.630085 42.914874 
L 168.832994 42.938648 
L 169.035903 39.899957 
L 169.441722 42.406122 
L 169.644631 40.456955 
L 169.84754 41.397539 
L 170.253358 39.977291 
L 170.456267 43.520622 
L 170.659176 41.680696 
L 170.862085 43.182225 
L 171.064994 40.031742 
L 171.267903 41.625897 
L 171.673722 39.535418 
L 171.876631 42.765145 
L 172.07954 41.991905 
L 172.282449 43.821917 
L 172.485358 40.157936 
L 172.688267 43.075977 
L 172.891176 38.763546 
L 173.094085 39.216572 
L 173.499903 43.839294 
L 173.702812 41.851786 
L 173.905722 44.376832 
L 174.108631 41.583691 
L 174.31154 41.845764 
L 174.514449 41.630431 
L 174.717358 36.507255 
L 175.123176 41.48374 
L 175.326085 41.520879 
L 175.528994 40.75971 
L 175.731903 41.664431 
L 175.934812 41.076912 
L 176.137722 42.686498 
L 176.340631 39.394895 
L 176.54354 42.287537 
L 176.746449 40.657491 
L 176.949358 43.46239 
L 177.152267 40.810167 
L 177.355176 41.643631 
L 177.558085 41.40603 
L 177.963903 42.611972 
L 178.166812 42.929276 
L 178.369722 40.590584 
L 178.572631 40.609402 
L 178.77554 41.642676 
L 178.978449 40.848554 
L 179.181358 43.005417 
L 179.587176 41.83989 
L 179.790085 43.078795 
L 179.992994 41.808928 
L 180.195903 42.032018 
L 180.398812 41.095913 
L 180.601722 41.621289 
L 180.804631 41.438395 
L 181.00754 41.74529 
L 181.210449 41.156899 
L 181.413358 41.743637 
L 181.616267 43.201419 
L 181.819176 40.488577 
L 182.022085 42.374931 
L 182.224994 40.927577 
L 182.427903 41.890402 
L 182.630812 40.36688 
L 182.833722 40.929835 
L 183.036631 40.705241 
L 183.23954 41.756314 
L 183.442449 41.227725 
L 183.645358 39.526642 
L 183.848267 43.122038 
L 184.051176 42.216509 
L 184.254085 42.954042 
L 184.456994 41.78208 
L 184.659903 41.427701 
L 184.862812 42.41095 
L 185.065722 40.024068 
L 185.268631 41.7246 
L 185.47154 40.005857 
L 185.674449 41.737359 
L 185.877358 41.945147 
L 186.080267 41.270665 
L 186.283176 42.219905 
L 186.486085 41.671572 
L 186.891903 38.854309 
L 187.094812 41.751522 
L 187.500631 40.123615 
L 187.70354 41.830628 
L 187.906449 41.612404 
L 188.109358 42.391371 
L 188.312267 40.462472 
L 188.515176 40.467153 
L 188.718085 40.735633 
L 188.920994 41.300571 
L 189.326813 43.709473 
L 189.732631 41.871815 
L 189.93554 41.324051 
L 190.138449 41.777508 
L 190.341358 39.139238 
L 190.544267 41.040095 
L 190.747176 41.039801 
L 190.950085 41.810361 
L 191.152994 40.586013 
L 191.558812 41.680054 
L 191.761722 41.931607 
L 191.964631 41.917178 
L 192.16754 40.519079 
L 192.370449 41.226009 
L 192.573358 42.358776 
L 192.776267 40.400283 
L 192.979176 42.027511 
L 193.182085 42.689811 
L 193.384994 40.661254 
L 193.587903 42.417164 
L 193.790812 43.076087 
L 193.993722 39.55149 
L 194.196631 41.513976 
L 194.39954 40.832959 
L 194.602449 42.717101 
L 194.805358 41.290106 
L 195.008267 41.769082 
L 195.211176 40.755478 
L 195.414085 41.38366 
L 195.616994 40.261614 
L 195.819903 41.540669 
L 196.022812 41.741627 
L 196.225722 41.18663 
L 196.428631 42.174964 
L 196.834449 40.722149 
L 197.037358 41.004544 
L 197.240267 40.198921 
L 197.443176 41.975309 
L 197.848994 41.769412 
L 198.051903 40.671976 
L 198.457722 42.420634 
L 198.660631 39.532205 
L 198.86354 39.904143 
L 199.066449 42.378199 
L 199.269358 42.229754 
L 199.472267 41.587033 
L 199.675176 41.567977 
L 199.878085 40.839706 
L 200.080994 42.312623 
L 200.283903 40.011337 
L 200.486812 47.783266 
L 200.689722 40.793232 
L 200.892631 42.882408 
L 201.09554 42.226092 
L 201.298449 42.553924 
L 201.501358 40.965726 
L 201.704267 42.711401 
L 201.907176 40.025775 
L 202.110085 40.686185 
L 202.312994 39.861129 
L 202.515903 43.089213 
L 202.718812 41.086918 
L 202.921722 41.698504 
L 203.124631 41.091158 
L 203.32754 39.912138 
L 203.530449 41.80477 
L 203.733358 42.155082 
L 203.936267 41.40054 
L 204.139176 41.464868 
L 204.342085 40.520071 
L 204.544994 40.427866 
L 204.747903 42.069579 
L 205.356631 40.678732 
L 205.55954 41.25182 
L 205.762449 43.022839 
L 205.965358 41.207421 
L 206.168267 41.607126 
L 206.371176 41.294182 
L 206.574085 42.234243 
L 206.776994 41.676703 
L 206.979903 41.853989 
L 207.182812 40.054386 
L 207.385722 42.184914 
L 207.588631 42.730649 
L 207.79154 40.082842 
L 207.994449 41.462637 
L 208.197358 41.32026 
L 208.400267 40.917774 
L 208.603176 42.705985 
L 208.806085 41.761013 
L 209.008994 43.342933 
L 209.211903 42.721874 
L 209.414812 41.207623 
L 209.820631 42.042794 
L 210.02354 40.113417 
L 210.226449 42.225348 
L 210.429358 42.397888 
L 210.835176 40.872025 
L 211.038085 40.822431 
L 211.240994 41.62754 
L 211.443903 43.182225 
L 211.646813 42.857743 
L 211.849722 41.625897 
L 212.052631 42.868547 
L 212.25554 40.085871 
L 212.458449 42.268068 
L 212.661358 40.278898 
L 213.067176 42.17758 
L 213.270085 42.517648 
L 213.472994 43.28527 
L 213.675903 44.663542 
L 213.878812 42.271079 
L 214.081722 44.380788 
L 214.284631 36.719458 
L 214.48754 40.272115 
L 214.690449 41.237336 
L 214.893358 43.628541 
L 215.096267 39.991528 
L 215.299176 41.763749 
L 215.502085 41.479251 
L 215.704994 40.789239 
L 215.907903 38.095949 
L 216.516631 41.860699 
L 216.71954 40.776939 
L 216.922449 42.103688 
L 217.125358 42.287537 
L 217.328267 41.626824 
L 217.734085 38.148022 
L 217.936994 43.377942 
L 218.139903 43.25418 
L 218.545722 39.899709 
L 218.95154 40.99531 
L 219.154449 40.890448 
L 219.560267 41.958823 
L 219.763176 41.646651 
L 219.966085 39.935067 
L 220.168994 41.452513 
L 220.371903 40.619774 
L 220.574812 41.362612 
L 220.777722 42.582627 
L 220.980631 42.626007 
L 221.18354 41.089937 
L 221.386449 40.505173 
L 221.589358 39.113601 
L 221.792267 40.953508 
L 221.995176 41.106377 
L 222.198085 39.507559 
L 222.400994 40.806386 
L 222.603903 41.090782 
L 222.806812 39.682697 
L 223.009722 41.890412 
L 223.212631 40.559825 
L 223.618449 41.522659 
L 223.821358 41.016973 
L 224.227176 41.238318 
L 224.430085 40.454394 
L 224.632994 42.248177 
L 224.835903 41.115355 
L 225.038812 41.878121 
L 225.241722 40.73768 
L 225.444631 42.72908 
L 225.64754 41.387368 
L 225.850449 43.460242 
L 226.053358 41.473716 
L 226.256267 38.03566 
L 226.459176 40.570335 
L 226.662085 40.260329 
L 226.864994 44.134402 
L 227.067903 40.244569 
L 227.270812 42.007867 
L 227.473722 42.58371 
L 227.676631 43.804385 
L 227.87954 40.222171 
L 228.285358 42.983818 
L 228.691176 41.226018 
L 228.894085 40.758039 
L 229.096994 42.174688 
L 229.299903 41.140725 
L 229.502812 41.759848 
L 229.705722 41.554281 
L 230.11154 42.343024 
L 230.314449 42.011723 
L 230.517358 42.370085 
L 230.720267 40.777168 
L 231.126085 42.806891 
L 231.328994 40.161332 
L 231.531903 41.757204 
L 231.734812 39.913304 
L 231.937722 39.286581 
L 232.140631 37.356479 
L 232.34354 39.759241 
L 232.546449 40.728042 
L 232.749358 40.771817 
L 232.952267 40.95047 
L 233.155176 42.747667 
L 233.358085 41.745749 
L 233.560994 39.632257 
L 233.763903 41.273997 
L 233.966813 41.256456 
L 234.169722 40.711271 
L 234.372631 41.080657 
L 234.778449 43.621189 
L 235.184267 41.26703 
L 235.387176 41.910367 
L 235.590085 41.400623 
L 235.792994 42.102256 
L 235.995903 40.68915 
L 236.198812 45.399 
L 236.401722 40.804302 
L 236.604631 41.741627 
L 237.010449 40.768531 
L 237.213358 41.335653 
L 237.416267 42.667038 
L 237.619176 39.980889 
L 237.822085 41.97675 
L 238.024994 41.091315 
L 238.227903 39.289959 
L 238.633722 43.164767 
L 238.836631 41.946698 
L 239.03954 43.212066 
L 239.242449 43.587043 
L 239.445358 43.133227 
L 239.648267 41.121504 
L 239.851176 41.526533 
L 240.054085 40.55519 
L 240.256994 42.580176 
L 240.459903 41.469411 
L 240.662812 42.916545 
L 240.865722 43.214168 
L 241.27154 40.793232 
L 241.474449 41.288362 
L 241.677358 40.175514 
L 241.880267 41.53081 
L 242.083176 40.558944 
L 242.286085 44.623181 
L 242.488994 42.743491 
L 242.691903 43.114557 
L 242.894812 41.991685 
L 243.097722 42.100209 
L 243.300631 40.331577 
L 243.50354 39.951957 
L 243.706449 40.929982 
L 243.909358 43.311063 
L 244.112267 40.871043 
L 244.315176 41.235224 
L 244.518085 40.528286 
L 244.720994 41.463142 
L 244.923903 41.456276 
L 245.126812 42.202657 
L 245.329722 41.232388 
L 245.532631 42.46059 
L 245.73554 42.646872 
L 245.938449 40.678732 
L 246.141358 41.028428 
L 246.344267 40.311521 
L 246.547176 42.490193 
L 246.750085 40.973711 
L 246.952994 41.32552 
L 247.155903 41.218665 
L 247.358812 39.838934 
L 247.561722 40.394363 
L 247.764631 41.545203 
L 247.96754 41.729061 
L 248.170449 40.695034 
L 248.373358 40.559008 
L 248.576267 42.039233 
L 248.779176 41.923254 
L 248.982085 42.323473 
L 249.184994 40.744059 
L 249.387903 40.731989 
L 249.793722 41.923034 
L 249.996631 41.955638 
L 250.19954 40.873182 
L 250.402449 42.214581 
L 250.605358 40.784374 
L 250.808267 41.287206 
L 251.011176 43.246699 
L 251.214085 41.62195 
L 251.416994 41.744096 
L 251.619903 42.621216 
L 251.822812 39.851684 
L 252.025722 41.49548 
L 252.228631 41.208596 
L 252.43154 40.522136 
L 252.634449 40.333698 
L 252.837358 38.559173 
L 252.837358 38.559173 
" style="fill:none;stroke:#1f77b4;stroke-linecap:square;stroke-width:1.5;"/>
   </g>
   <g id="line2d_24">
    <path clip-path="url(#pe468e9ebbe)" d="M 49.928267 133.337133 
L 50.131176 133.852379 
L 50.334085 133.044954 
L 50.536994 134.960175 
L 50.739903 134.177273 
L 50.942813 135.171618 
L 51.145722 134.575998 
L 51.348631 131.441966 
L 51.55154 133.501007 
L 51.754449 130.90211 
L 51.957358 132.870819 
L 52.160267 133.09534 
L 52.566085 135.242197 
L 52.768994 132.253298 
L 52.971903 132.667697 
L 53.174813 135.867874 
L 53.377722 131.805429 
L 53.580631 133.519642 
L 54.189358 135.068083 
L 54.392267 133.318873 
L 54.595176 133.183939 
L 54.798085 135.073374 
L 55.203903 133.700402 
L 55.609722 134.360277 
L 55.812631 134.185141 
L 56.01554 134.441869 
L 56.421358 134.125476 
L 56.827176 134.531243 
L 57.030085 133.44599 
L 57.232994 135.611835 
L 57.435903 134.812108 
L 57.638813 133.239688 
L 57.841722 134.365391 
L 58.044631 132.553068 
L 58.450449 133.194431 
L 58.653358 133.366715 
L 58.856267 135.434899 
L 59.059176 133.015556 
L 59.262085 133.165462 
L 59.464994 133.585866 
L 59.667903 135.432914 
L 59.870812 135.802999 
L 60.073722 132.54044 
L 60.47954 134.197155 
L 60.682449 134.079932 
L 60.885358 134.257283 
L 61.088267 133.165713 
L 61.291176 133.273797 
L 61.494085 135.123058 
L 61.696994 135.827723 
L 61.899903 133.612199 
L 62.102812 134.466622 
L 62.305722 132.78237 
L 62.508631 133.10267 
L 62.71154 134.828087 
L 62.914449 132.99306 
L 63.117358 135.013613 
L 63.320267 134.316087 
L 63.523176 135.210717 
L 63.726085 132.430518 
L 63.928994 133.875355 
L 64.131903 134.040256 
L 64.334812 133.83684 
L 64.537722 132.605551 
L 64.740631 137.711336 
L 65.146449 134.915259 
L 65.349358 131.603021 
L 65.552267 134.480989 
L 65.755176 134.756898 
L 65.958085 133.063523 
L 66.363903 139.049552 
L 66.566812 131.440708 
L 66.972631 134.656187 
L 67.17554 133.655882 
L 67.378449 137.585923 
L 67.581358 133.8036 
L 67.784267 134.339309 
L 67.987176 135.567273 
L 68.190085 132.147857 
L 68.392994 132.89604 
L 68.595903 134.373139 
L 68.798812 133.736626 
L 69.001722 133.53701 
L 69.204631 132.855434 
L 69.40754 134.288556 
L 69.610449 133.133452 
L 70.016267 135.347992 
L 70.219176 134.221287 
L 70.422085 134.753275 
L 70.624994 133.705825 
L 70.827903 133.401352 
L 71.030812 135.5089 
L 71.233722 135.655298 
L 71.436631 134.729559 
L 71.63954 135.964644 
L 72.045358 132.710356 
L 72.248267 132.990734 
L 72.451176 134.112502 
L 72.654085 132.606651 
L 72.856994 134.404372 
L 73.059903 131.95566 
L 73.262812 134.660124 
L 73.465722 133.998056 
L 73.668631 132.088764 
L 73.87154 133.794947 
L 74.074449 133.427558 
L 74.277358 134.589929 
L 74.480267 131.776042 
L 74.683176 134.609531 
L 74.886085 134.82145 
L 75.088994 133.896484 
L 75.291903 135.917679 
L 75.494812 134.21027 
L 75.697722 135.57315 
L 75.900631 134.869136 
L 76.10354 132.982086 
L 76.306449 134.567837 
L 76.509358 133.185647 
L 76.712267 134.344223 
L 76.915176 132.919876 
L 77.118085 133.842245 
L 77.320994 133.609176 
L 77.523903 132.551132 
L 77.929722 134.864409 
L 78.132631 133.80901 
L 78.538449 134.494458 
L 78.741358 134.767051 
L 78.944267 134.138685 
L 79.147176 132.623951 
L 79.350085 132.885897 
L 79.552994 133.989586 
L 79.755903 135.745312 
L 79.958812 134.275 
L 80.161722 131.307764 
L 80.364631 130.371571 
L 80.56754 135.029077 
L 80.770449 132.69898 
L 80.973358 135.767113 
L 81.176267 133.346551 
L 81.379176 135.962879 
L 81.582085 133.818843 
L 81.784994 134.105228 
L 81.987903 131.926542 
L 82.190812 133.890755 
L 82.393722 134.71259 
L 82.596631 133.968817 
L 82.79954 132.718071 
L 83.002449 135.573177 
L 83.205358 132.713124 
L 83.408267 133.808252 
L 83.611176 133.69308 
L 83.814085 132.919733 
L 84.016994 133.136485 
L 84.219903 134.325928 
L 84.422812 134.511614 
L 84.625722 132.943325 
L 84.828631 134.876107 
L 85.03154 135.183842 
L 85.234449 134.423216 
L 85.437358 134.731134 
L 85.640267 133.944462 
L 85.843176 135.083818 
L 86.046085 133.599554 
L 86.248994 135.472366 
L 86.451903 135.014275 
L 86.654812 133.339952 
L 86.857722 136.247774 
L 87.060631 133.316104 
L 87.26354 132.928335 
L 87.872267 134.190135 
L 88.075176 134.075914 
L 88.278085 134.290954 
L 88.480994 133.517959 
L 88.683903 134.824872 
L 88.886812 131.126164 
L 89.089722 134.019685 
L 89.292631 134.860153 
L 89.49554 133.185081 
L 89.698449 132.894465 
L 89.901358 131.693035 
L 90.104267 133.94895 
L 90.307176 133.784824 
L 90.510085 136.032379 
L 90.712994 133.565391 
L 90.915903 135.022958 
L 91.118812 134.735653 
L 91.321722 134.177273 
L 91.524631 128.46084 
L 91.930449 134.982471 
L 92.133358 131.596256 
L 92.336267 135.230544 
L 92.539176 133.75965 
L 92.944994 135.988274 
L 93.147903 134.404997 
L 93.350812 134.451452 
L 93.553722 133.305894 
L 93.756631 134.312755 
L 93.95954 132.028824 
L 94.162449 132.276188 
L 94.365358 135.66541 
L 94.568267 133.236432 
L 94.771176 132.384296 
L 95.176994 135.836121 
L 95.379903 133.613747 
L 95.582812 133.880499 
L 95.785722 133.168067 
L 96.19154 133.737184 
L 96.394449 134.761735 
L 96.597358 135.044861 
L 96.800267 133.641999 
L 97.003176 134.842291 
L 97.206085 132.327027 
L 97.408994 134.936331 
L 97.611903 134.244826 
L 97.814812 135.376833 
L 98.017722 134.812108 
L 98.220631 133.239688 
L 98.42354 132.603742 
L 98.626449 133.706989 
L 98.829358 133.798312 
L 99.032267 134.060966 
L 99.235176 135.167501 
L 99.438085 132.73671 
L 99.843903 133.250793 
L 100.046812 132.291581 
L 100.452631 134.837225 
L 100.65554 133.090897 
L 100.858449 135.251567 
L 101.061358 134.197155 
L 101.264267 133.99751 
L 101.467176 134.594373 
L 101.670085 132.798325 
L 101.872994 134.689612 
L 102.075903 134.359516 
L 102.278812 133.322536 
L 102.481722 133.612197 
L 102.684631 132.927123 
L 102.88754 135.375242 
L 103.090449 133.559679 
L 103.293358 133.972275 
L 103.496267 134.853843 
L 103.699176 132.799466 
L 103.902085 134.65427 
L 104.104994 133.514149 
L 104.307903 136.132095 
L 104.510812 134.615973 
L 104.713722 138.642716 
L 104.916631 132.269257 
L 105.11954 129.741203 
L 105.322449 134.41581 
L 105.525358 134.71623 
L 105.728267 131.472378 
L 105.931176 135.070362 
L 106.134085 136.25914 
L 106.336994 131.98578 
L 106.539903 132.214063 
L 106.945722 136.47605 
L 107.148631 133.814992 
L 107.35154 134.771565 
L 107.554449 135.171112 
L 107.757358 131.407652 
L 107.960267 132.588878 
L 108.163176 134.48298 
L 108.366085 132.67225 
L 108.568994 134.405126 
L 108.771903 134.189823 
L 108.974812 132.003405 
L 109.177722 135.949484 
L 109.380631 133.736626 
L 109.58354 133.041904 
L 109.786449 134.347335 
L 109.989358 134.288555 
L 110.395176 133.144022 
L 110.598085 133.64082 
L 111.003903 135.463457 
L 111.206812 134.217586 
L 111.409722 134.156684 
L 111.612631 133.18351 
L 111.81554 134.53544 
L 112.018449 133.094715 
L 112.221358 135.030923 
L 112.424267 132.653699 
L 112.627176 134.553335 
L 112.830085 133.880715 
L 113.032994 134.985362 
L 113.235903 135.17301 
L 113.438812 133.75926 
L 113.641722 133.286186 
L 113.844631 133.223692 
L 114.04754 133.028685 
L 114.250449 133.824394 
L 114.453358 134.049709 
L 114.656267 133.002418 
L 114.859176 133.902521 
L 115.062085 133.449497 
L 115.264994 132.578395 
L 115.670812 133.459873 
L 116.076631 134.172029 
L 116.27954 133.502297 
L 116.482449 135.418765 
L 116.685358 135.159226 
L 117.294085 133.690245 
L 117.496994 134.604916 
L 117.699903 134.544614 
L 117.902812 135.060285 
L 118.105722 133.299145 
L 118.308631 134.691992 
L 118.714449 133.138045 
L 118.917358 135.222756 
L 119.120267 134.570224 
L 119.323176 132.990414 
L 119.526085 134.988101 
L 119.728994 131.703631 
L 119.931903 131.110044 
L 120.337722 134.213601 
L 120.540631 134.87263 
L 120.74354 134.445911 
L 120.946449 136.904139 
L 121.149358 132.071856 
L 121.352267 134.244316 
L 121.555176 132.066318 
L 121.758085 135.363297 
L 121.960994 134.860724 
L 122.163903 135.458524 
L 122.366812 134.273573 
L 122.569722 133.975753 
L 122.772631 133.890755 
L 122.97554 133.17309 
L 123.178449 135.04985 
L 123.381358 134.878084 
L 123.787176 132.935002 
L 124.395903 134.229366 
L 124.598812 133.689781 
L 124.801722 131.858648 
L 125.004631 132.00987 
L 125.410449 133.921323 
L 126.019176 131.986047 
L 126.222085 135.722288 
L 126.424994 133.305669 
L 126.627903 133.557137 
L 126.830812 135.54698 
L 127.033722 133.032189 
L 127.236631 133.339955 
L 127.43954 135.285701 
L 127.642449 133.720823 
L 128.048267 135.825845 
L 128.251176 132.31794 
L 128.454085 133.888753 
L 128.656994 134.433239 
L 128.859903 134.290953 
L 129.062813 133.935014 
L 129.265722 133.932238 
L 129.468631 134.203389 
L 129.67154 134.019685 
L 129.874449 133.338591 
L 130.077358 135.23566 
L 130.280267 131.871351 
L 130.483176 134.344552 
L 130.686085 132.933214 
L 131.091903 134.341484 
L 131.294812 134.562559 
L 131.497722 132.78907 
L 131.90354 134.568188 
L 132.106449 133.576607 
L 132.512267 133.951555 
L 132.715176 135.210632 
L 132.918085 132.613788 
L 133.120994 133.761381 
L 133.323903 132.190808 
L 133.729722 135.242195 
L 134.541358 132.784941 
L 134.744267 135.69107 
L 134.947176 135.379533 
L 135.150085 131.436942 
L 135.352994 131.405303 
L 135.555903 135.610771 
L 135.758812 132.776731 
L 135.961722 132.440933 
L 136.164631 133.880499 
L 136.36754 133.168067 
L 136.773358 135.386067 
L 136.976267 133.161191 
L 137.179176 135.04486 
L 137.382085 134.511136 
L 137.584994 134.779453 
L 137.787903 133.333552 
L 137.990813 133.936659 
L 138.193722 133.179711 
L 138.396631 131.914779 
L 138.59954 132.502909 
L 138.802449 134.545738 
L 139.005358 133.414613 
L 139.208267 135.367493 
L 139.411176 133.798317 
L 140.019903 131.81639 
L 140.425722 135.780922 
L 140.628631 133.585866 
L 140.83154 132.719245 
L 141.034449 132.905676 
L 141.237358 135.806724 
L 141.440267 133.28009 
L 141.643176 133.478422 
L 141.846085 135.081752 
L 142.048994 133.586003 
L 142.251903 133.444875 
L 142.454813 134.068431 
L 142.657722 133.505803 
L 142.860631 132.297932 
L 143.06354 134.096841 
L 143.266449 134.466622 
L 143.672267 133.102669 
L 143.875176 133.544366 
L 144.078085 133.214941 
L 144.280994 134.090773 
L 144.483903 132.637089 
L 144.686812 132.591451 
L 144.889722 132.430519 
L 145.092631 134.861428 
L 145.29554 132.301085 
L 145.498449 135.586797 
L 145.701358 136.626717 
L 145.904267 132.768048 
L 146.107176 132.944312 
L 146.310085 134.86095 
L 146.512994 132.502974 
L 146.918813 134.714484 
L 147.324631 135.301337 
L 147.52754 134.714128 
L 147.730449 133.023564 
L 147.933358 132.825849 
L 148.136267 133.20575 
L 148.339176 134.843462 
L 148.542085 133.588287 
L 148.744994 136.168656 
L 148.947903 132.672247 
L 149.150812 132.273679 
L 149.353722 134.793749 
L 149.556631 133.158504 
L 149.75954 133.897993 
L 149.962449 133.233135 
L 150.165358 135.626157 
L 150.571176 134.140753 
L 150.774085 133.33833 
L 150.976994 135.055798 
L 151.179903 135.31359 
L 151.382812 132.848199 
L 151.585722 132.758939 
L 151.99154 134.912018 
L 152.194449 134.732097 
L 152.397358 135.49412 
L 152.600267 133.094715 
L 152.803176 134.00001 
L 153.006085 134.298284 
L 153.208994 133.648258 
L 153.411903 133.880715 
L 153.614812 133.271311 
L 153.817722 133.398216 
L 154.020631 134.500415 
L 154.22354 134.666222 
L 154.426449 135.140228 
L 154.832267 133.377605 
L 155.035176 134.783637 
L 155.238085 133.713434 
L 155.643903 135.438827 
L 155.846812 135.6251 
L 156.049722 133.596276 
L 156.252631 134.046279 
L 156.45554 132.841993 
L 156.658449 134.172029 
L 156.861358 133.484677 
L 157.064267 133.367183 
L 157.267176 133.687917 
L 157.470085 133.546735 
L 157.672994 134.831686 
L 157.875903 134.407061 
L 158.078812 133.247888 
L 158.281722 133.544942 
L 158.484631 133.609176 
L 158.68754 134.795169 
L 159.093358 132.939454 
L 159.296267 133.80901 
L 159.499176 134.176724 
L 159.702085 132.721067 
L 159.904994 134.81062 
L 160.107903 133.221299 
L 160.310812 135.238446 
L 160.513722 131.971392 
L 160.716631 135.505671 
L 160.91954 131.622463 
L 161.122449 132.6651 
L 161.325358 132.695599 
L 161.528267 134.614094 
L 161.731176 134.043337 
L 161.934085 135.238586 
L 162.339903 133.012358 
L 162.542812 134.214173 
L 162.745722 134.21616 
L 162.948631 134.86877 
L 163.15154 134.088405 
L 163.354449 134.375409 
L 163.557358 132.659259 
L 163.760267 133.538011 
L 163.963176 132.718073 
L 164.166085 135.311621 
L 164.368994 131.916361 
L 164.774812 134.701669 
L 164.977722 134.536932 
L 165.180631 134.131039 
L 165.38354 135.066534 
L 165.586449 131.795846 
L 165.789358 134.091868 
L 165.992267 134.725558 
L 166.195176 134.359961 
L 166.398085 134.336731 
L 166.600994 131.877428 
L 166.803903 134.822336 
L 167.006812 133.315842 
L 167.209722 133.599554 
L 167.412631 132.923981 
L 167.61554 133.138931 
L 167.818449 132.389614 
L 168.224267 134.693681 
L 168.427176 129.746415 
L 168.630085 134.569152 
L 168.832994 133.724385 
L 169.035903 133.86322 
L 169.238812 133.42105 
L 169.441722 135.937752 
L 169.644631 132.914033 
L 169.84754 135.402421 
L 170.253358 134.00006 
L 170.456267 133.797458 
L 170.659176 134.676983 
L 171.064994 131.896426 
L 171.470812 135.109281 
L 171.673722 133.019327 
L 171.876631 134.139361 
L 172.07954 134.033954 
L 172.282449 133.674029 
L 172.485358 131.268025 
L 172.688267 131.981594 
L 172.891176 136.081592 
L 173.094085 135.527422 
L 173.296994 132.45107 
L 173.499903 134.489594 
L 173.702812 133.75965 
L 173.905722 133.904858 
L 174.108631 132.438689 
L 174.31154 132.634556 
L 174.514449 133.761435 
L 174.717358 130.272998 
L 175.123176 135.276691 
L 175.326085 131.766662 
L 175.528994 133.9575 
L 175.731903 132.865736 
L 175.934812 134.08909 
L 176.137722 132.564064 
L 176.54354 133.613748 
L 176.746449 134.346085 
L 176.949358 133.738644 
L 177.355176 134.36028 
L 177.558085 133.16119 
L 177.760994 134.441869 
L 178.166812 132.81752 
L 178.369722 133.005539 
L 178.572631 135.936003 
L 178.77554 135.429654 
L 178.978449 135.376833 
L 179.181358 133.27264 
L 179.384267 134.202165 
L 179.587176 133.414613 
L 179.790085 134.645132 
L 179.992994 134.722895 
L 180.398812 133.378044 
L 180.601722 135.393055 
L 180.804631 132.962401 
L 181.00754 133.165459 
L 181.210449 135.235004 
L 181.819176 133.303787 
L 182.022085 133.035757 
L 182.224994 134.472692 
L 182.427903 133.384582 
L 182.630812 134.931467 
L 182.833722 134.826198 
L 183.036631 133.049933 
L 183.23954 134.527861 
L 183.442449 132.753907 
L 183.645358 133.555343 
L 183.848267 132.414288 
L 184.051176 134.779868 
L 184.456994 133.378016 
L 184.659903 133.214937 
L 184.862812 136.487469 
L 185.065722 135.656903 
L 185.268631 133.514149 
L 185.47154 133.148427 
L 185.674449 135.602036 
L 185.877358 133.06366 
L 186.080267 134.019215 
L 186.283176 134.364566 
L 186.486085 133.591928 
L 186.688994 138.173583 
L 186.891903 137.443111 
L 187.094812 132.480895 
L 187.297722 135.385325 
L 187.500631 133.889739 
L 187.70354 131.364601 
L 188.109358 133.486262 
L 188.312267 133.985639 
L 188.515176 131.48722 
L 188.920994 134.382253 
L 189.123903 134.994732 
L 189.326813 133.829145 
L 189.529722 133.327116 
L 189.732631 134.550183 
L 189.93554 134.793749 
L 190.138449 132.580955 
L 190.341358 134.848278 
L 190.544267 133.736626 
L 190.747176 134.599704 
L 190.950085 133.880715 
L 191.152994 132.242329 
L 191.355903 133.54172 
L 191.761722 131.968048 
L 191.964631 134.856902 
L 192.16754 135.46346 
L 192.370449 133.961705 
L 192.573358 134.381208 
L 192.776267 134.153258 
L 192.979176 133.737935 
L 193.182085 135.805476 
L 193.384994 134.000008 
L 193.790812 134.58616 
L 193.993722 134.768393 
L 194.196631 132.335108 
L 194.39954 132.606654 
L 194.602449 133.567174 
L 195.008267 132.265424 
L 195.211176 135.351047 
L 195.414085 133.601002 
L 195.616994 134.049709 
L 195.819903 132.005526 
L 196.225722 135.122944 
L 196.428631 131.940229 
L 196.63154 134.208863 
L 196.834449 134.482889 
L 197.037358 133.307575 
L 197.240267 133.639694 
L 197.443176 132.458062 
L 197.646085 132.267927 
L 197.848994 134.135274 
L 198.051903 134.567837 
L 198.254812 132.168401 
L 198.86354 135.544286 
L 199.066449 133.609176 
L 199.269358 132.786135 
L 199.472267 133.718766 
L 199.675176 133.901936 
L 199.878085 134.899695 
L 200.080994 134.392506 
L 200.283903 134.418691 
L 200.486812 125.23518 
L 200.689722 135.871502 
L 200.892631 135.1966 
L 201.09554 133.640938 
L 201.298449 133.818919 
L 201.501358 135.980169 
L 201.704267 132.366285 
L 201.907176 134.808388 
L 202.110085 133.087397 
L 202.312994 132.560524 
L 202.515903 133.693246 
L 202.921722 133.346549 
L 203.124631 134.581557 
L 203.32754 133.197661 
L 203.530449 135.295627 
L 203.733358 134.088406 
L 203.936267 134.375411 
L 204.139176 132.146425 
L 204.544994 134.421072 
L 204.747903 135.145272 
L 204.950812 132.935004 
L 205.153722 133.808254 
L 205.356631 133.69308 
L 205.55954 134.923869 
L 205.762449 133.689777 
L 205.965358 133.339866 
L 206.168267 134.511614 
L 206.371176 133.727115 
L 206.574085 134.071873 
L 206.776994 133.298929 
L 206.979903 134.423216 
L 207.182812 133.653178 
L 207.385722 134.866493 
L 207.588631 133.295495 
L 207.994449 133.773441 
L 208.197358 134.907534 
L 208.400267 134.290296 
L 208.603176 135.115054 
L 208.806085 135.46418 
L 209.211903 131.859709 
L 209.617722 134.215683 
L 209.820631 135.088107 
L 210.02354 133.031538 
L 210.226449 133.100903 
L 210.632267 135.229131 
L 211.038085 132.312137 
L 211.240994 133.651692 
L 211.646813 133.121232 
L 211.849722 133.570472 
L 212.052631 133.122594 
L 212.25554 131.328429 
L 212.458449 135.846714 
L 212.661358 134.511194 
L 212.864267 132.245121 
L 213.270085 135.493972 
L 213.472994 133.070403 
L 213.675903 132.472882 
L 213.878812 132.451069 
L 214.081722 133.617342 
L 214.284631 131.978524 
L 214.690449 135.132823 
L 214.893358 135.146153 
L 215.096267 133.071417 
L 215.502085 135.090314 
L 215.704994 134.520572 
L 215.907903 130.808327 
L 216.110812 132.535465 
L 216.313722 133.182444 
L 216.516631 134.7522 
L 216.71954 133.318873 
L 216.922449 132.776733 
L 217.125358 133.613745 
L 217.328267 132.855274 
L 217.531176 135.715021 
L 217.936994 133.261022 
L 218.139903 134.055904 
L 218.342812 134.023757 
L 218.545722 133.493891 
L 218.748631 133.767068 
L 218.95154 135.018592 
L 219.154449 133.234279 
L 219.357358 134.437822 
L 219.560267 132.897791 
L 219.763176 134.812107 
L 219.966085 132.896117 
L 220.168994 132.463835 
L 220.371903 133.491206 
L 220.574812 133.798312 
L 220.777722 133.194431 
L 220.980631 134.284101 
L 221.386449 134.79141 
L 221.589358 132.492754 
L 221.792267 133.468435 
L 221.995176 133.673605 
L 222.198085 133.268153 
L 222.400994 132.327549 
L 222.806812 135.742494 
L 223.009722 133.384584 
L 223.212631 133.923092 
L 223.618449 133.671114 
L 223.821358 132.910606 
L 224.227176 135.664482 
L 224.430085 132.926122 
L 224.632994 135.806047 
L 224.835903 133.102669 
L 225.038812 134.400181 
L 225.241722 134.853845 
L 225.444631 132.799466 
L 225.64754 133.307496 
L 225.850449 133.127215 
L 226.053358 131.712611 
L 226.256267 135.606278 
L 226.662085 133.836839 
L 226.864994 131.951868 
L 227.270812 132.944312 
L 227.473722 134.969567 
L 227.676631 132.525051 
L 227.87954 136.279489 
L 228.285358 133.063523 
L 228.488267 134.256923 
L 228.691176 136.337288 
L 228.894085 135.739141 
L 229.096994 134.771565 
L 229.299903 135.171112 
L 229.502812 136.100159 
L 229.705722 132.588879 
L 230.11154 134.339309 
L 230.314449 133.533094 
L 230.517358 133.355711 
L 230.923176 134.448603 
L 231.328994 135.13105 
L 231.531903 132.855432 
L 231.734812 134.874016 
L 231.937722 131.705253 
L 232.34354 134.965276 
L 232.749358 132.758939 
L 232.952267 132.972704 
L 233.155176 132.646015 
L 233.358085 135.315955 
L 233.560994 132.456897 
L 233.763903 134.729559 
L 233.966813 133.163479 
L 234.169722 136.927761 
L 234.372631 132.743181 
L 234.57554 133.880715 
L 234.778449 134.04916 
L 234.981358 133.398217 
L 235.184267 134.596458 
L 235.590085 133.223692 
L 235.792994 134.189867 
L 235.995903 132.844881 
L 236.198812 135.48721 
L 236.401722 134.996203 
L 236.604631 133.902521 
L 236.80754 134.112607 
L 237.010449 135.36434 
L 237.416267 132.586649 
L 237.619176 135.823613 
L 237.822085 133.677934 
L 238.024994 132.980177 
L 238.227903 134.942603 
L 238.430813 134.711872 
L 238.633722 132.758861 
L 238.836631 133.185647 
L 239.03954 132.7407 
L 239.242449 132.897387 
L 239.445358 133.734437 
L 239.648267 132.351064 
L 239.851176 133.534147 
L 240.054085 136.231457 
L 240.256994 134.073718 
L 240.459903 134.088824 
L 240.865722 132.872602 
L 241.27154 135.871502 
L 241.474449 132.561181 
L 241.677358 133.747246 
L 241.880267 133.904252 
L 242.083176 132.447032 
L 242.286085 134.781136 
L 242.488994 132.51436 
L 242.691903 137.11703 
L 242.894812 134.784744 
L 243.300631 132.761668 
L 243.50354 133.01236 
L 243.706449 135.595494 
L 243.909358 134.663891 
L 244.112267 135.722485 
L 244.518085 133.833914 
L 244.720994 135.226423 
L 244.923903 135.04985 
L 245.126812 134.310417 
L 245.329722 135.739529 
L 245.73554 131.502827 
L 245.938449 133.69308 
L 246.141358 133.9218 
L 246.344267 133.854381 
L 246.547176 134.571381 
L 246.750085 132.558423 
L 246.952994 136.443239 
L 247.155903 133.921325 
L 247.358812 135.770574 
L 247.561722 133.407527 
L 247.764631 134.622517 
L 247.96754 132.188712 
L 248.170449 135.093995 
L 248.373358 132.689984 
L 248.779176 135.738463 
L 248.982085 133.201192 
L 249.184994 132.740769 
L 249.387903 132.950329 
L 249.793722 134.834312 
L 250.19954 133.536303 
L 250.605358 134.678335 
L 250.808267 133.517959 
L 251.214085 135.229129 
L 251.416994 135.046288 
L 251.619903 133.30235 
L 251.822812 133.74376 
L 252.025722 134.503037 
L 252.228631 134.344554 
L 252.43154 132.176257 
L 252.634449 134.098737 
L 252.837358 132.701518 
L 252.837358 132.701518 
" style="fill:none;stroke:#ff7f0e;stroke-linecap:square;stroke-width:1.5;"/>
   </g>
   <g id="patch_3">
    <path d="M 39.782813 149.271875 
L 39.782813 10.671875 
" style="fill:none;stroke:#000000;stroke-linecap:square;stroke-linejoin:miter;stroke-width:0.8;"/>
   </g>
   <g id="patch_4">
    <path d="M 262.982812 149.271875 
L 262.982812 10.671875 
" style="fill:none;stroke:#000000;stroke-linecap:square;stroke-linejoin:miter;stroke-width:0.8;"/>
   </g>
   <g id="patch_5">
    <path d="M 39.782813 149.271875 
L 262.982812 149.271875 
" style="fill:none;stroke:#000000;stroke-linecap:square;stroke-linejoin:miter;stroke-width:0.8;"/>
   </g>
   <g id="patch_6">
    <path d="M 39.782813 10.671875 
L 262.982812 10.671875 
" style="fill:none;stroke:#000000;stroke-linecap:square;stroke-linejoin:miter;stroke-width:0.8;"/>
   </g>
   <g id="legend_1">
    <g id="patch_7">
     <path d="M 216.682812 95.941406 
L 255.982812 95.941406 
Q 257.982812 95.941406 257.982812 93.941406 
L 257.982812 66.002344 
Q 257.982812 64.002344 255.982812 64.002344 
L 216.682812 64.002344 
Q 214.682812 64.002344 214.682812 66.002344 
L 214.682812 93.941406 
Q 214.682812 95.941406 216.682812 95.941406 
z
" style="fill:#ffffff;opacity:0.8;stroke:#cccccc;stroke-linejoin:miter;"/>
    </g>
    <g id="line2d_25">
     <path d="M 218.682812 71.502344 
L 238.682812 71.502344 
" style="fill:none;stroke:#1f77b4;stroke-linecap:square;stroke-width:1.5;"/>
    </g>
    <g id="line2d_26"/>
    <g id="text_14">
     <!-- $I_{d}$ -->
     <g transform="translate(246.682812 75.002344)scale(0.1 -0.1)">
      <defs>
       <path d="M 2458 4179 
L 2458 4077 
Q 2189 4045 2102 3961 
Q 2016 3878 1933 3584 
L 1165 838 
Q 1069 499 1069 352 
Q 1069 224 1149 179 
Q 1229 134 1510 102 
L 1510 0 
L -51 0 
L -51 102 
Q 218 154 317 237 
Q 416 320 486 582 
L 1254 3405 
Q 1338 3699 1338 3802 
Q 1338 3930 1235 3997 
Q 1133 4064 877 4077 
L 877 4179 
L 2458 4179 
z
" id="STIXGeneral-Italic-49" transform="scale(0.015625)"/>
       <path d="M 3334 4371 
L 3373 4333 
L 3123 3360 
L 2739 1958 
Q 2323 429 2323 384 
Q 2323 256 2438 256 
Q 2522 256 2614 336 
Q 2707 416 2963 710 
L 3040 646 
Q 2547 -83 2099 -83 
Q 1978 -83 1907 -6 
Q 1837 70 1837 205 
Q 1837 397 1920 774 
Q 1645 307 1379 118 
Q 1114 -70 781 -70 
Q 461 -70 278 125 
Q 96 320 96 678 
Q 96 1440 713 2131 
Q 1331 2822 1965 2822 
Q 2163 2822 2256 2732 
Q 2349 2643 2381 2451 
L 2387 2451 
L 2675 3494 
Q 2765 3808 2765 3949 
Q 2765 4051 2694 4076 
Q 2624 4102 2355 4115 
L 2355 4224 
Q 2848 4269 3334 4371 
z
M 2278 2310 
Q 2278 2477 2185 2576 
Q 2093 2675 1978 2675 
Q 1677 2675 1395 2381 
Q 1075 2042 864 1571 
Q 653 1101 653 704 
Q 653 486 752 361 
Q 851 237 1024 237 
Q 1312 237 1606 550 
Q 1901 864 2089 1350 
Q 2278 1837 2278 2310 
z
" id="STIXGeneral-Italic-64" transform="scale(0.015625)"/>
      </defs>
      <use transform="translate(0 0.703125)" xlink:href="#STIXGeneral-Italic-49"/>
      <use transform="translate(33.299988 -12.525)scale(0.7)" xlink:href="#STIXGeneral-Italic-64"/>
     </g>
    </g>
    <g id="line2d_27">
     <path d="M 218.682812 85.641406 
L 238.682812 85.641406 
" style="fill:none;stroke:#ff7f0e;stroke-linecap:square;stroke-width:1.5;"/>
    </g>
    <g id="line2d_28"/>
    <g id="text_15">
     <!-- $I_{q}$ -->
     <g transform="translate(246.682812 89.141406)scale(0.1 -0.1)">
      <defs>
       <path d="M 3098 2739 
L 2042 -966 
Q 2029 -1018 2029 -1037 
Q 2029 -1235 2394 -1235 
L 2490 -1235 
L 2490 -1338 
L 973 -1338 
L 973 -1235 
Q 1267 -1216 1382 -1139 
Q 1498 -1062 1555 -877 
L 2131 979 
Q 1754 378 1466 154 
Q 1178 -70 800 -70 
Q 499 -70 329 128 
Q 160 326 160 672 
Q 160 1165 445 1670 
Q 730 2176 1168 2499 
Q 1606 2822 2035 2822 
Q 2438 2822 2528 2426 
L 2630 2739 
L 3098 2739 
z
M 2432 2298 
Q 2432 2458 2323 2570 
Q 2214 2682 2054 2682 
Q 1792 2682 1459 2368 
Q 1133 2054 921 1606 
Q 710 1158 710 762 
Q 710 269 1050 269 
Q 1312 269 1574 499 
Q 1901 781 2166 1341 
Q 2432 1901 2432 2298 
z
" id="STIXGeneral-Italic-71" transform="scale(0.015625)"/>
      </defs>
      <use transform="translate(0 0.703125)" xlink:href="#STIXGeneral-Italic-49"/>
      <use transform="translate(33.299988 -12.525)scale(0.7)" xlink:href="#STIXGeneral-Italic-71"/>
     </g>
    </g>
   </g>
  </g>
 </g>
 <defs>
  <clipPath id="pe468e9ebbe">
   <rect height="138.6" width="223.2" x="39.782813" y="10.671875"/>
  </clipPath>
 </defs>
</svg>
