<?xml version="1.0" encoding="utf-8" standalone="no"?>
<!DOCTYPE svg PUBLIC "-//W3C//DTD SVG 1.1//EN"
  "http://www.w3.org/Graphics/SVG/1.1/DTD/svg11.dtd">
<svg xmlns:xlink="http://www.w3.org/1999/xlink" width="270.182813pt" height="182.9375pt" viewBox="0 0 270.182813 182.9375" xmlns="http://www.w3.org/2000/svg" version="1.1">
 <metadata>
  <rdf:RDF xmlns:dc="http://purl.org/dc/elements/1.1/" xmlns:cc="http://creativecommons.org/ns#" xmlns:rdf="http://www.w3.org/1999/02/22-rdf-syntax-ns#">
   <cc:Work>
    <dc:type rdf:resource="http://purl.org/dc/dcmitype/StillImage"/>
    <dc:date>2022-03-23T21:01:43.673367</dc:date>
    <dc:format>image/svg+xml</dc:format>
    <dc:creator>
     <cc:Agent>
      <dc:title>Matplotlib v3.5.1, https://matplotlib.org/</dc:title>
     </cc:Agent>
    </dc:creator>
   </cc:Work>
  </rdf:RDF>
 </metadata>
 <defs>
  <style type="text/css">*{stroke-linejoin: round; stroke-linecap: butt}</style>
 </defs>
 <g id="figure_1">
  <g id="patch_1">
   <path d="M 0 182.9375 
L 270.182813 182.9375 
L 270.182813 0 
L 0 0 
L 0 182.9375 
z
" style="fill: none"/>
  </g>
  <g id="axes_1">
   <g id="patch_2">
    <path d="M 39.782813 146.571875 
L 262.982812 146.571875 
L 262.982812 10.671875 
L 39.782813 10.671875 
z
" style="fill: #ffffff"/>
   </g>
   <g id="matplotlib.axis_1">
    <g id="xtick_1">
     <g id="line2d_1">
      <path d="M 49.928267 146.571875 
L 49.928267 10.671875 
" clip-path="url(#p08a0a5518a)" style="fill: none; stroke-dasharray: 3.2,0.8,0.5,0.8; stroke-dashoffset: 0; stroke: #a9a9a9; stroke-width: 0.5"/>
     </g>
     <g id="line2d_2">
      <defs>
       <path id="m55daa2316b" d="M 0 0 
L 0 3.5 
" style="stroke: #000000; stroke-width: 0.8"/>
      </defs>
      <g>
       <use xlink:href="#m55daa2316b" x="49.928267" y="146.571875" style="stroke: #000000; stroke-width: 0.8"/>
      </g>
     </g>
     <g id="text_1">
      <!-- 0.0 -->
      <g transform="translate(43.678267 160.515625)scale(0.1 -0.1)">
       <defs>
        <path id="TimesNewRomanPSMT-30" d="M 231 2094 
Q 231 2819 450 3342 
Q 669 3866 1031 4122 
Q 1313 4325 1613 4325 
Q 2100 4325 2488 3828 
Q 2972 3213 2972 2159 
Q 2972 1422 2759 906 
Q 2547 391 2217 158 
Q 1888 -75 1581 -75 
Q 975 -75 572 641 
Q 231 1244 231 2094 
z
M 844 2016 
Q 844 1141 1059 588 
Q 1238 122 1591 122 
Q 1759 122 1940 273 
Q 2122 425 2216 781 
Q 2359 1319 2359 2297 
Q 2359 3022 2209 3506 
Q 2097 3866 1919 4016 
Q 1791 4119 1609 4119 
Q 1397 4119 1231 3928 
Q 1006 3669 925 3112 
Q 844 2556 844 2016 
z
" transform="scale(0.015625)"/>
        <path id="TimesNewRomanPSMT-2e" d="M 800 606 
Q 947 606 1047 504 
Q 1147 403 1147 259 
Q 1147 116 1045 14 
Q 944 -88 800 -88 
Q 656 -88 554 14 
Q 453 116 453 259 
Q 453 406 554 506 
Q 656 606 800 606 
z
" transform="scale(0.015625)"/>
       </defs>
       <use xlink:href="#TimesNewRomanPSMT-30"/>
       <use xlink:href="#TimesNewRomanPSMT-2e" x="50"/>
       <use xlink:href="#TimesNewRomanPSMT-30" x="75"/>
      </g>
     </g>
    </g>
    <g id="xtick_2">
     <g id="line2d_3">
      <path d="M 90.510085 146.571875 
L 90.510085 10.671875 
" clip-path="url(#p08a0a5518a)" style="fill: none; stroke-dasharray: 3.2,0.8,0.5,0.8; stroke-dashoffset: 0; stroke: #a9a9a9; stroke-width: 0.5"/>
     </g>
     <g id="line2d_4">
      <g>
       <use xlink:href="#m55daa2316b" x="90.510085" y="146.571875" style="stroke: #000000; stroke-width: 0.8"/>
      </g>
     </g>
     <g id="text_2">
      <!-- 0.2 -->
      <g transform="translate(84.260085 160.515625)scale(0.1 -0.1)">
       <defs>
        <path id="TimesNewRomanPSMT-32" d="M 2934 816 
L 2638 0 
L 138 0 
L 138 116 
Q 1241 1122 1691 1759 
Q 2141 2397 2141 2925 
Q 2141 3328 1894 3587 
Q 1647 3847 1303 3847 
Q 991 3847 742 3664 
Q 494 3481 375 3128 
L 259 3128 
Q 338 3706 661 4015 
Q 984 4325 1469 4325 
Q 1984 4325 2329 3994 
Q 2675 3663 2675 3213 
Q 2675 2891 2525 2569 
Q 2294 2063 1775 1497 
Q 997 647 803 472 
L 1909 472 
Q 2247 472 2383 497 
Q 2519 522 2628 598 
Q 2738 675 2819 816 
L 2934 816 
z
" transform="scale(0.015625)"/>
       </defs>
       <use xlink:href="#TimesNewRomanPSMT-30"/>
       <use xlink:href="#TimesNewRomanPSMT-2e" x="50"/>
       <use xlink:href="#TimesNewRomanPSMT-32" x="75"/>
      </g>
     </g>
    </g>
    <g id="xtick_3">
     <g id="line2d_5">
      <path d="M 131.091903 146.571875 
L 131.091903 10.671875 
" clip-path="url(#p08a0a5518a)" style="fill: none; stroke-dasharray: 3.2,0.8,0.5,0.8; stroke-dashoffset: 0; stroke: #a9a9a9; stroke-width: 0.5"/>
     </g>
     <g id="line2d_6">
      <g>
       <use xlink:href="#m55daa2316b" x="131.091903" y="146.571875" style="stroke: #000000; stroke-width: 0.8"/>
      </g>
     </g>
     <g id="text_3">
      <!-- 0.4 -->
      <g transform="translate(124.841903 160.515625)scale(0.1 -0.1)">
       <defs>
        <path id="TimesNewRomanPSMT-34" d="M 2978 1563 
L 2978 1119 
L 2409 1119 
L 2409 0 
L 1894 0 
L 1894 1119 
L 100 1119 
L 100 1519 
L 2066 4325 
L 2409 4325 
L 2409 1563 
L 2978 1563 
z
M 1894 1563 
L 1894 3666 
L 406 1563 
L 1894 1563 
z
" transform="scale(0.015625)"/>
       </defs>
       <use xlink:href="#TimesNewRomanPSMT-30"/>
       <use xlink:href="#TimesNewRomanPSMT-2e" x="50"/>
       <use xlink:href="#TimesNewRomanPSMT-34" x="75"/>
      </g>
     </g>
    </g>
    <g id="xtick_4">
     <g id="line2d_7">
      <path d="M 171.673722 146.571875 
L 171.673722 10.671875 
" clip-path="url(#p08a0a5518a)" style="fill: none; stroke-dasharray: 3.2,0.8,0.5,0.8; stroke-dashoffset: 0; stroke: #a9a9a9; stroke-width: 0.5"/>
     </g>
     <g id="line2d_8">
      <g>
       <use xlink:href="#m55daa2316b" x="171.673722" y="146.571875" style="stroke: #000000; stroke-width: 0.8"/>
      </g>
     </g>
     <g id="text_4">
      <!-- 0.6 -->
      <g transform="translate(165.423722 160.515625)scale(0.1 -0.1)">
       <defs>
        <path id="TimesNewRomanPSMT-36" d="M 2869 4325 
L 2869 4209 
Q 2456 4169 2195 4045 
Q 1934 3922 1679 3669 
Q 1425 3416 1258 3105 
Q 1091 2794 978 2366 
Q 1428 2675 1881 2675 
Q 2316 2675 2634 2325 
Q 2953 1975 2953 1425 
Q 2953 894 2631 456 
Q 2244 -75 1606 -75 
Q 1172 -75 869 213 
Q 275 772 275 1663 
Q 275 2231 503 2743 
Q 731 3256 1154 3653 
Q 1578 4050 1965 4187 
Q 2353 4325 2688 4325 
L 2869 4325 
z
M 925 2138 
Q 869 1716 869 1456 
Q 869 1156 980 804 
Q 1091 453 1309 247 
Q 1469 100 1697 100 
Q 1969 100 2183 356 
Q 2397 613 2397 1088 
Q 2397 1622 2184 2012 
Q 1972 2403 1581 2403 
Q 1463 2403 1327 2353 
Q 1191 2303 925 2138 
z
" transform="scale(0.015625)"/>
       </defs>
       <use xlink:href="#TimesNewRomanPSMT-30"/>
       <use xlink:href="#TimesNewRomanPSMT-2e" x="50"/>
       <use xlink:href="#TimesNewRomanPSMT-36" x="75"/>
      </g>
     </g>
    </g>
    <g id="xtick_5">
     <g id="line2d_9">
      <path d="M 212.25554 146.571875 
L 212.25554 10.671875 
" clip-path="url(#p08a0a5518a)" style="fill: none; stroke-dasharray: 3.2,0.8,0.5,0.8; stroke-dashoffset: 0; stroke: #a9a9a9; stroke-width: 0.5"/>
     </g>
     <g id="line2d_10">
      <g>
       <use xlink:href="#m55daa2316b" x="212.25554" y="146.571875" style="stroke: #000000; stroke-width: 0.8"/>
      </g>
     </g>
     <g id="text_5">
      <!-- 0.8 -->
      <g transform="translate(206.00554 160.515625)scale(0.1 -0.1)">
       <defs>
        <path id="TimesNewRomanPSMT-38" d="M 1228 2134 
Q 725 2547 579 2797 
Q 434 3047 434 3316 
Q 434 3728 753 4026 
Q 1072 4325 1600 4325 
Q 2113 4325 2425 4047 
Q 2738 3769 2738 3413 
Q 2738 3175 2569 2928 
Q 2400 2681 1866 2347 
Q 2416 1922 2594 1678 
Q 2831 1359 2831 1006 
Q 2831 559 2490 242 
Q 2150 -75 1597 -75 
Q 994 -75 656 303 
Q 388 606 388 966 
Q 388 1247 577 1523 
Q 766 1800 1228 2134 
z
M 1719 2469 
Q 2094 2806 2194 3001 
Q 2294 3197 2294 3444 
Q 2294 3772 2109 3958 
Q 1925 4144 1606 4144 
Q 1288 4144 1088 3959 
Q 888 3775 888 3528 
Q 888 3366 970 3203 
Q 1053 3041 1206 2894 
L 1719 2469 
z
M 1375 2016 
Q 1116 1797 991 1539 
Q 866 1281 866 981 
Q 866 578 1086 336 
Q 1306 94 1647 94 
Q 1984 94 2187 284 
Q 2391 475 2391 747 
Q 2391 972 2272 1150 
Q 2050 1481 1375 2016 
z
" transform="scale(0.015625)"/>
       </defs>
       <use xlink:href="#TimesNewRomanPSMT-30"/>
       <use xlink:href="#TimesNewRomanPSMT-2e" x="50"/>
       <use xlink:href="#TimesNewRomanPSMT-38" x="75"/>
      </g>
     </g>
    </g>
    <g id="xtick_6">
     <g id="line2d_11">
      <path d="M 252.837358 146.571875 
L 252.837358 10.671875 
" clip-path="url(#p08a0a5518a)" style="fill: none; stroke-dasharray: 3.2,0.8,0.5,0.8; stroke-dashoffset: 0; stroke: #a9a9a9; stroke-width: 0.5"/>
     </g>
     <g id="line2d_12">
      <g>
       <use xlink:href="#m55daa2316b" x="252.837358" y="146.571875" style="stroke: #000000; stroke-width: 0.8"/>
      </g>
     </g>
     <g id="text_6">
      <!-- 1.0 -->
      <g transform="translate(246.587358 160.515625)scale(0.1 -0.1)">
       <defs>
        <path id="TimesNewRomanPSMT-31" d="M 750 3822 
L 1781 4325 
L 1884 4325 
L 1884 747 
Q 1884 391 1914 303 
Q 1944 216 2037 169 
Q 2131 122 2419 116 
L 2419 0 
L 825 0 
L 825 116 
Q 1125 122 1212 167 
Q 1300 213 1334 289 
Q 1369 366 1369 747 
L 1369 3034 
Q 1369 3497 1338 3628 
Q 1316 3728 1258 3775 
Q 1200 3822 1119 3822 
Q 1003 3822 797 3725 
L 750 3822 
z
" transform="scale(0.015625)"/>
       </defs>
       <use xlink:href="#TimesNewRomanPSMT-31"/>
       <use xlink:href="#TimesNewRomanPSMT-2e" x="50"/>
       <use xlink:href="#TimesNewRomanPSMT-30" x="75"/>
      </g>
     </g>
    </g>
    <g id="text_7">
     <!-- time [s] -->
     <g transform="translate(135.970313 173.598438)scale(0.1 -0.1)">
      <defs>
       <path id="TimesNewRomanPSMT-74" d="M 1031 3803 
L 1031 2863 
L 1700 2863 
L 1700 2644 
L 1031 2644 
L 1031 788 
Q 1031 509 1111 412 
Q 1191 316 1316 316 
Q 1419 316 1516 380 
Q 1613 444 1666 569 
L 1788 569 
Q 1678 263 1478 108 
Q 1278 -47 1066 -47 
Q 922 -47 784 33 
Q 647 113 581 261 
Q 516 409 516 719 
L 516 2644 
L 63 2644 
L 63 2747 
Q 234 2816 414 2980 
Q 594 3144 734 3369 
Q 806 3488 934 3803 
L 1031 3803 
z
" transform="scale(0.015625)"/>
       <path id="TimesNewRomanPSMT-69" d="M 928 4444 
Q 1059 4444 1151 4351 
Q 1244 4259 1244 4128 
Q 1244 3997 1151 3903 
Q 1059 3809 928 3809 
Q 797 3809 703 3903 
Q 609 3997 609 4128 
Q 609 4259 701 4351 
Q 794 4444 928 4444 
z
M 1188 2947 
L 1188 647 
Q 1188 378 1227 289 
Q 1266 200 1342 156 
Q 1419 113 1622 113 
L 1622 0 
L 231 0 
L 231 113 
Q 441 113 512 153 
Q 584 194 626 287 
Q 669 381 669 647 
L 669 1750 
Q 669 2216 641 2353 
Q 619 2453 572 2492 
Q 525 2531 444 2531 
Q 356 2531 231 2484 
L 188 2597 
L 1050 2947 
L 1188 2947 
z
" transform="scale(0.015625)"/>
       <path id="TimesNewRomanPSMT-6d" d="M 1050 2338 
Q 1363 2650 1419 2697 
Q 1559 2816 1721 2881 
Q 1884 2947 2044 2947 
Q 2313 2947 2506 2790 
Q 2700 2634 2766 2338 
Q 3088 2713 3309 2830 
Q 3531 2947 3766 2947 
Q 3994 2947 4170 2830 
Q 4347 2713 4450 2447 
Q 4519 2266 4519 1878 
L 4519 647 
Q 4519 378 4559 278 
Q 4591 209 4675 161 
Q 4759 113 4950 113 
L 4950 0 
L 3538 0 
L 3538 113 
L 3597 113 
Q 3781 113 3884 184 
Q 3956 234 3988 344 
Q 4000 397 4000 647 
L 4000 1878 
Q 4000 2228 3916 2372 
Q 3794 2572 3525 2572 
Q 3359 2572 3192 2489 
Q 3025 2406 2788 2181 
L 2781 2147 
L 2788 2013 
L 2788 647 
Q 2788 353 2820 281 
Q 2853 209 2943 161 
Q 3034 113 3253 113 
L 3253 0 
L 1806 0 
L 1806 113 
Q 2044 113 2133 169 
Q 2222 225 2256 338 
Q 2272 391 2272 647 
L 2272 1878 
Q 2272 2228 2169 2381 
Q 2031 2581 1784 2581 
Q 1616 2581 1450 2491 
Q 1191 2353 1050 2181 
L 1050 647 
Q 1050 366 1089 281 
Q 1128 197 1204 155 
Q 1281 113 1516 113 
L 1516 0 
L 100 0 
L 100 113 
Q 297 113 375 155 
Q 453 197 493 289 
Q 534 381 534 647 
L 534 1741 
Q 534 2213 506 2350 
Q 484 2453 437 2492 
Q 391 2531 309 2531 
Q 222 2531 100 2484 
L 53 2597 
L 916 2947 
L 1050 2947 
L 1050 2338 
z
" transform="scale(0.015625)"/>
       <path id="TimesNewRomanPSMT-65" d="M 681 1784 
Q 678 1147 991 784 
Q 1303 422 1725 422 
Q 2006 422 2214 576 
Q 2422 731 2563 1106 
L 2659 1044 
Q 2594 616 2278 264 
Q 1963 -88 1488 -88 
Q 972 -88 605 314 
Q 238 716 238 1394 
Q 238 2128 614 2539 
Q 991 2950 1559 2950 
Q 2041 2950 2350 2633 
Q 2659 2316 2659 1784 
L 681 1784 
z
M 681 1966 
L 2006 1966 
Q 1991 2241 1941 2353 
Q 1863 2528 1708 2628 
Q 1553 2728 1384 2728 
Q 1125 2728 920 2526 
Q 716 2325 681 1966 
z
" transform="scale(0.015625)"/>
       <path id="TimesNewRomanPSMT-20" transform="scale(0.015625)"/>
       <path id="TimesNewRomanPSMT-5b" d="M 1900 -1269 
L 525 -1269 
L 525 4334 
L 1900 4334 
L 1900 4088 
L 994 4088 
L 994 -1025 
L 1900 -1025 
L 1900 -1269 
z
" transform="scale(0.015625)"/>
       <path id="TimesNewRomanPSMT-73" d="M 2050 2947 
L 2050 1972 
L 1947 1972 
Q 1828 2431 1642 2597 
Q 1456 2763 1169 2763 
Q 950 2763 815 2647 
Q 681 2531 681 2391 
Q 681 2216 781 2091 
Q 878 1963 1175 1819 
L 1631 1597 
Q 2266 1288 2266 781 
Q 2266 391 1970 151 
Q 1675 -88 1309 -88 
Q 1047 -88 709 6 
Q 606 38 541 38 
Q 469 38 428 -44 
L 325 -44 
L 325 978 
L 428 978 
Q 516 541 762 319 
Q 1009 97 1316 97 
Q 1531 97 1667 223 
Q 1803 350 1803 528 
Q 1803 744 1651 891 
Q 1500 1038 1047 1263 
Q 594 1488 453 1669 
Q 313 1847 313 2119 
Q 313 2472 555 2709 
Q 797 2947 1181 2947 
Q 1350 2947 1591 2875 
Q 1750 2828 1803 2828 
Q 1853 2828 1881 2850 
Q 1909 2872 1947 2947 
L 2050 2947 
z
" transform="scale(0.015625)"/>
       <path id="TimesNewRomanPSMT-5d" d="M 234 4334 
L 1609 4334 
L 1609 -1272 
L 234 -1272 
L 234 -1025 
L 1141 -1025 
L 1141 4088 
L 234 4088 
L 234 4334 
z
" transform="scale(0.015625)"/>
      </defs>
      <use xlink:href="#TimesNewRomanPSMT-74"/>
      <use xlink:href="#TimesNewRomanPSMT-69" x="27.783203"/>
      <use xlink:href="#TimesNewRomanPSMT-6d" x="55.566406"/>
      <use xlink:href="#TimesNewRomanPSMT-65" x="133.349609"/>
      <use xlink:href="#TimesNewRomanPSMT-20" x="177.734375"/>
      <use xlink:href="#TimesNewRomanPSMT-5b" x="202.734375"/>
      <use xlink:href="#TimesNewRomanPSMT-73" x="236.035156"/>
      <use xlink:href="#TimesNewRomanPSMT-5d" x="274.951172"/>
     </g>
    </g>
   </g>
   <g id="matplotlib.axis_2">
    <g id="ytick_1">
     <g id="line2d_13">
      <path d="M 39.782813 134.21733 
L 262.982812 134.21733 
" clip-path="url(#p08a0a5518a)" style="fill: none; stroke-dasharray: 3.2,0.8,0.5,0.8; stroke-dashoffset: 0; stroke: #a9a9a9; stroke-width: 0.5"/>
     </g>
     <g id="line2d_14">
      <defs>
       <path id="mfda56eb839" d="M 0 0 
L -3.5 0 
" style="stroke: #000000; stroke-width: 0.8"/>
      </defs>
      <g>
       <use xlink:href="#mfda56eb839" x="39.782813" y="134.21733" style="stroke: #000000; stroke-width: 0.8"/>
      </g>
     </g>
     <g id="text_8">
      <!-- 0.0 -->
      <g transform="translate(20.282813 137.689205)scale(0.1 -0.1)">
       <use xlink:href="#TimesNewRomanPSMT-30"/>
       <use xlink:href="#TimesNewRomanPSMT-2e" x="50"/>
       <use xlink:href="#TimesNewRomanPSMT-30" x="75"/>
      </g>
     </g>
    </g>
    <g id="ytick_2">
     <g id="line2d_15">
      <path d="M 39.782813 103.330966 
L 262.982812 103.330966 
" clip-path="url(#p08a0a5518a)" style="fill: none; stroke-dasharray: 3.2,0.8,0.5,0.8; stroke-dashoffset: 0; stroke: #a9a9a9; stroke-width: 0.5"/>
     </g>
     <g id="line2d_16">
      <g>
       <use xlink:href="#mfda56eb839" x="39.782813" y="103.330966" style="stroke: #000000; stroke-width: 0.8"/>
      </g>
     </g>
     <g id="text_9">
      <!-- 0.1 -->
      <g transform="translate(20.282813 106.802841)scale(0.1 -0.1)">
       <use xlink:href="#TimesNewRomanPSMT-30"/>
       <use xlink:href="#TimesNewRomanPSMT-2e" x="50"/>
       <use xlink:href="#TimesNewRomanPSMT-31" x="75"/>
      </g>
     </g>
    </g>
    <g id="ytick_3">
     <g id="line2d_17">
      <path d="M 39.782813 72.444602 
L 262.982812 72.444602 
" clip-path="url(#p08a0a5518a)" style="fill: none; stroke-dasharray: 3.2,0.8,0.5,0.8; stroke-dashoffset: 0; stroke: #a9a9a9; stroke-width: 0.5"/>
     </g>
     <g id="line2d_18">
      <g>
       <use xlink:href="#mfda56eb839" x="39.782813" y="72.444602" style="stroke: #000000; stroke-width: 0.8"/>
      </g>
     </g>
     <g id="text_10">
      <!-- 0.2 -->
      <g transform="translate(20.282813 75.916477)scale(0.1 -0.1)">
       <use xlink:href="#TimesNewRomanPSMT-30"/>
       <use xlink:href="#TimesNewRomanPSMT-2e" x="50"/>
       <use xlink:href="#TimesNewRomanPSMT-32" x="75"/>
      </g>
     </g>
    </g>
    <g id="ytick_4">
     <g id="line2d_19">
      <path d="M 39.782813 41.558239 
L 262.982812 41.558239 
" clip-path="url(#p08a0a5518a)" style="fill: none; stroke-dasharray: 3.2,0.8,0.5,0.8; stroke-dashoffset: 0; stroke: #a9a9a9; stroke-width: 0.5"/>
     </g>
     <g id="line2d_20">
      <g>
       <use xlink:href="#mfda56eb839" x="39.782813" y="41.558239" style="stroke: #000000; stroke-width: 0.8"/>
      </g>
     </g>
     <g id="text_11">
      <!-- 0.3 -->
      <g transform="translate(20.282813 45.030114)scale(0.1 -0.1)">
       <defs>
        <path id="TimesNewRomanPSMT-33" d="M 325 3431 
Q 506 3859 782 4092 
Q 1059 4325 1472 4325 
Q 1981 4325 2253 3994 
Q 2459 3747 2459 3466 
Q 2459 3003 1878 2509 
Q 2269 2356 2469 2072 
Q 2669 1788 2669 1403 
Q 2669 853 2319 450 
Q 1863 -75 997 -75 
Q 569 -75 414 31 
Q 259 138 259 259 
Q 259 350 332 419 
Q 406 488 509 488 
Q 588 488 669 463 
Q 722 447 909 348 
Q 1097 250 1169 231 
Q 1284 197 1416 197 
Q 1734 197 1970 444 
Q 2206 691 2206 1028 
Q 2206 1275 2097 1509 
Q 2016 1684 1919 1775 
Q 1784 1900 1550 2001 
Q 1316 2103 1072 2103 
L 972 2103 
L 972 2197 
Q 1219 2228 1467 2375 
Q 1716 2522 1828 2728 
Q 1941 2934 1941 3181 
Q 1941 3503 1739 3701 
Q 1538 3900 1238 3900 
Q 753 3900 428 3381 
L 325 3431 
z
" transform="scale(0.015625)"/>
       </defs>
       <use xlink:href="#TimesNewRomanPSMT-30"/>
       <use xlink:href="#TimesNewRomanPSMT-2e" x="50"/>
       <use xlink:href="#TimesNewRomanPSMT-33" x="75"/>
      </g>
     </g>
    </g>
    <g id="ytick_5">
     <g id="line2d_21">
      <path d="M 39.782813 10.671875 
L 262.982812 10.671875 
" clip-path="url(#p08a0a5518a)" style="fill: none; stroke-dasharray: 3.2,0.8,0.5,0.8; stroke-dashoffset: 0; stroke: #a9a9a9; stroke-width: 0.5"/>
     </g>
     <g id="line2d_22">
      <g>
       <use xlink:href="#mfda56eb839" x="39.782813" y="10.671875" style="stroke: #000000; stroke-width: 0.8"/>
      </g>
     </g>
     <g id="text_12">
      <!-- 0.4 -->
      <g transform="translate(20.282813 14.14375)scale(0.1 -0.1)">
       <use xlink:href="#TimesNewRomanPSMT-30"/>
       <use xlink:href="#TimesNewRomanPSMT-2e" x="50"/>
       <use xlink:href="#TimesNewRomanPSMT-34" x="75"/>
      </g>
     </g>
    </g>
    <g id="text_13">
     <!-- Current [A] -->
     <g transform="translate(14.14375 102.085938)rotate(-90)scale(0.1 -0.1)">
      <defs>
       <path id="TimesNewRomanPSMT-43" d="M 3853 4334 
L 3950 2894 
L 3853 2894 
Q 3659 3541 3300 3825 
Q 2941 4109 2438 4109 
Q 2016 4109 1675 3895 
Q 1334 3681 1139 3212 
Q 944 2744 944 2047 
Q 944 1472 1128 1050 
Q 1313 628 1683 403 
Q 2053 178 2528 178 
Q 2941 178 3256 354 
Q 3572 531 3950 1056 
L 4047 994 
Q 3728 428 3303 165 
Q 2878 -97 2294 -97 
Q 1241 -97 663 684 
Q 231 1266 231 2053 
Q 231 2688 515 3219 
Q 800 3750 1298 4042 
Q 1797 4334 2388 4334 
Q 2847 4334 3294 4109 
Q 3425 4041 3481 4041 
Q 3566 4041 3628 4100 
Q 3709 4184 3744 4334 
L 3853 4334 
z
" transform="scale(0.015625)"/>
       <path id="TimesNewRomanPSMT-75" d="M 2709 2863 
L 2709 1128 
Q 2709 631 2732 520 
Q 2756 409 2807 365 
Q 2859 322 2928 322 
Q 3025 322 3147 375 
L 3191 266 
L 2334 -88 
L 2194 -88 
L 2194 519 
Q 1825 119 1631 15 
Q 1438 -88 1222 -88 
Q 981 -88 804 51 
Q 628 191 559 409 
Q 491 628 491 1028 
L 491 2306 
Q 491 2509 447 2587 
Q 403 2666 317 2708 
Q 231 2750 6 2747 
L 6 2863 
L 1009 2863 
L 1009 947 
Q 1009 547 1148 422 
Q 1288 297 1484 297 
Q 1619 297 1789 381 
Q 1959 466 2194 703 
L 2194 2325 
Q 2194 2569 2105 2655 
Q 2016 2741 1734 2747 
L 1734 2863 
L 2709 2863 
z
" transform="scale(0.015625)"/>
       <path id="TimesNewRomanPSMT-72" d="M 1038 2947 
L 1038 2303 
Q 1397 2947 1775 2947 
Q 1947 2947 2059 2842 
Q 2172 2738 2172 2600 
Q 2172 2478 2090 2393 
Q 2009 2309 1897 2309 
Q 1788 2309 1652 2417 
Q 1516 2525 1450 2525 
Q 1394 2525 1328 2463 
Q 1188 2334 1038 2041 
L 1038 669 
Q 1038 431 1097 309 
Q 1138 225 1241 169 
Q 1344 113 1538 113 
L 1538 0 
L 72 0 
L 72 113 
Q 291 113 397 181 
Q 475 231 506 341 
Q 522 394 522 644 
L 522 1753 
Q 522 2253 501 2348 
Q 481 2444 426 2487 
Q 372 2531 291 2531 
Q 194 2531 72 2484 
L 41 2597 
L 906 2947 
L 1038 2947 
z
" transform="scale(0.015625)"/>
       <path id="TimesNewRomanPSMT-6e" d="M 1034 2341 
Q 1538 2947 1994 2947 
Q 2228 2947 2397 2830 
Q 2566 2713 2666 2444 
Q 2734 2256 2734 1869 
L 2734 647 
Q 2734 375 2778 278 
Q 2813 200 2889 156 
Q 2966 113 3172 113 
L 3172 0 
L 1756 0 
L 1756 113 
L 1816 113 
Q 2016 113 2095 173 
Q 2175 234 2206 353 
Q 2219 400 2219 647 
L 2219 1819 
Q 2219 2209 2117 2386 
Q 2016 2563 1775 2563 
Q 1403 2563 1034 2156 
L 1034 647 
Q 1034 356 1069 288 
Q 1113 197 1189 155 
Q 1266 113 1500 113 
L 1500 0 
L 84 0 
L 84 113 
L 147 113 
Q 366 113 442 223 
Q 519 334 519 647 
L 519 1709 
Q 519 2225 495 2337 
Q 472 2450 423 2490 
Q 375 2531 294 2531 
Q 206 2531 84 2484 
L 38 2597 
L 900 2947 
L 1034 2947 
L 1034 2341 
z
" transform="scale(0.015625)"/>
       <path id="TimesNewRomanPSMT-41" d="M 2928 1419 
L 1288 1419 
L 1000 750 
Q 894 503 894 381 
Q 894 284 986 211 
Q 1078 138 1384 116 
L 1384 0 
L 50 0 
L 50 116 
Q 316 163 394 238 
Q 553 388 747 847 
L 2238 4334 
L 2347 4334 
L 3822 809 
Q 4000 384 4145 257 
Q 4291 131 4550 116 
L 4550 0 
L 2878 0 
L 2878 116 
Q 3131 128 3220 200 
Q 3309 272 3309 375 
Q 3309 513 3184 809 
L 2928 1419 
z
M 2841 1650 
L 2122 3363 
L 1384 1650 
L 2841 1650 
z
" transform="scale(0.015625)"/>
      </defs>
      <use xlink:href="#TimesNewRomanPSMT-43"/>
      <use xlink:href="#TimesNewRomanPSMT-75" x="66.699219"/>
      <use xlink:href="#TimesNewRomanPSMT-72" x="116.699219"/>
      <use xlink:href="#TimesNewRomanPSMT-72" x="150"/>
      <use xlink:href="#TimesNewRomanPSMT-65" x="183.300781"/>
      <use xlink:href="#TimesNewRomanPSMT-6e" x="227.685547"/>
      <use xlink:href="#TimesNewRomanPSMT-74" x="277.685547"/>
      <use xlink:href="#TimesNewRomanPSMT-20" x="305.46875"/>
      <use xlink:href="#TimesNewRomanPSMT-5b" x="330.46875"/>
      <use xlink:href="#TimesNewRomanPSMT-41" x="363.769531"/>
      <use xlink:href="#TimesNewRomanPSMT-5d" x="435.986328"/>
     </g>
    </g>
   </g>
   <g id="line2d_23">
    <path d="M 49.928267 41.059199 
L 50.334085 41.266518 
L 51.957358 41.286666 
L 52.363176 41.113854 
L 53.580631 41.43912 
L 54.392267 41.349793 
L 55.203903 41.361236 
L 55.609722 41.672127 
L 56.01554 41.513602 
L 56.421358 41.617461 
L 56.827176 41.54241 
L 57.232994 41.341818 
L 57.638813 41.29653 
L 58.044631 41.540168 
L 58.450449 41.171348 
L 58.856267 41.436867 
L 59.667903 41.505429 
L 60.073722 42.000453 
L 60.47954 41.319428 
L 60.885358 41.429323 
L 61.291176 41.845949 
L 61.696994 41.665113 
L 62.102812 41.721419 
L 62.508631 41.594977 
L 63.320267 41.877695 
L 63.726085 41.442898 
L 64.131903 41.409175 
L 64.537722 42.007213 
L 64.94354 41.70216 
L 65.349358 41.564695 
L 65.755176 41.858591 
L 66.160994 40.622889 
L 66.566812 41.691225 
L 66.972631 41.780972 
L 67.378449 41.183288 
L 67.784267 41.88366 
L 68.190085 41.795884 
L 68.595903 41.512951 
L 69.001722 41.72856 
L 69.40754 41.408954 
L 69.813358 42.124641 
L 70.624994 41.593613 
L 71.030812 41.75539 
L 71.436631 41.524019 
L 71.842449 41.468535 
L 72.248267 41.776002 
L 73.059903 41.728731 
L 73.465722 41.798132 
L 73.87154 41.720209 
L 74.277358 41.510233 
L 75.088994 41.893811 
L 75.494812 41.649797 
L 76.306449 41.8017 
L 76.712267 41.679323 
L 77.118085 41.722556 
L 77.523903 41.507693 
L 77.929722 41.613031 
L 78.33554 42.099837 
L 78.741358 41.901692 
L 79.147176 41.539472 
L 79.958812 41.705341 
L 80.364631 41.562386 
L 81.582085 41.538246 
L 81.987903 41.301081 
L 82.393722 41.327922 
L 82.79954 41.762498 
L 83.205358 41.489246 
L 83.611176 41.744814 
L 84.016994 42.297127 
L 84.422812 41.500513 
L 84.828631 41.364815 
L 85.234449 41.741417 
L 85.640267 41.589421 
L 86.046085 41.766 
L 86.451903 41.391093 
L 86.857722 41.694561 
L 87.26354 41.043879 
L 87.669358 41.417217 
L 89.292631 41.292454 
L 89.698449 40.688402 
L 90.104267 41.313253 
L 90.510085 41.159484 
L 90.915903 41.897489 
L 91.321722 41.27213 
L 91.72754 41.136885 
L 92.133358 41.200531 
L 92.539176 41.115732 
L 93.350812 41.330275 
L 94.162449 41.604013 
L 94.568267 41.273455 
L 94.974085 41.622172 
L 95.379903 41.326155 
L 95.785722 41.451282 
L 96.597358 41.438325 
L 97.003176 41.748116 
L 97.408994 41.55287 
L 97.814812 41.732575 
L 98.220631 41.774124 
L 98.626449 41.389724 
L 99.032267 41.532822 
L 99.843903 41.065308 
L 100.249722 42.175971 
L 100.65554 41.707512 
L 101.467176 41.827481 
L 101.872994 41.31206 
L 102.684631 42.266121 
L 103.902085 40.978244 
L 104.307903 41.29146 
L 104.713722 41.791372 
L 105.11954 41.543791 
L 105.525358 41.463035 
L 105.931176 41.80588 
L 106.336994 41.558421 
L 106.742812 41.663925 
L 107.148631 41.250369 
L 107.554449 41.776421 
L 108.366085 41.481879 
L 108.771903 41.78581 
L 109.177722 41.496857 
L 109.58354 41.72856 
L 109.989358 41.523754 
L 110.395176 42.121769 
L 110.800994 41.705452 
L 111.206812 41.726301 
L 111.612631 41.417349 
L 112.018449 41.745951 
L 112.424267 41.756312 
L 112.830085 41.549391 
L 113.641722 41.500436 
L 114.04754 41.620289 
L 114.453358 41.61376 
L 114.859176 41.884969 
L 115.264994 41.664268 
L 116.076631 41.629418 
L 116.888267 41.952011 
L 118.105722 41.791687 
L 118.51154 41.926722 
L 118.917358 41.782215 
L 119.323176 41.833247 
L 119.728994 41.539472 
L 120.134812 41.919713 
L 120.540631 41.934774 
L 120.946449 41.679748 
L 121.758085 41.791372 
L 122.163903 41.671834 
L 122.569722 41.850782 
L 122.97554 41.333257 
L 123.381358 41.440092 
L 123.787176 41.784822 
L 124.192994 41.490881 
L 124.598812 41.44904 
L 125.004631 41.717061 
L 125.816267 41.741417 
L 126.222085 41.405011 
L 126.627903 41.213266 
L 127.033722 41.391093 
L 127.43954 41.985309 
L 127.845358 41.597943 
L 128.251176 40.974577 
L 128.656994 41.665063 
L 129.062813 41.312016 
L 129.468631 41.357735 
L 129.874449 41.056537 
L 130.686085 41.41525 
L 131.091903 41.21689 
L 131.497722 42.013691 
L 131.90354 41.187949 
L 132.309358 40.979515 
L 132.715176 41.267281 
L 133.526812 41.220281 
L 134.338449 41.531099 
L 134.744267 41.234629 
L 135.961722 41.600776 
L 136.36754 41.469949 
L 136.773358 41.700271 
L 137.584994 41.55852 
L 137.990813 41.343176 
L 138.396631 41.60018 
L 138.802449 41.695654 
L 139.208267 41.303964 
L 139.614085 42.04415 
L 140.019903 41.335698 
L 140.425722 41.010531 
L 140.83154 41.580004 
L 141.237358 41.38694 
L 141.643176 41.331446 
L 142.048994 41.577204 
L 142.454813 41.306891 
L 143.266449 41.721419 
L 143.672267 41.304814 
L 144.078085 41.793426 
L 144.483903 42.078906 
L 144.889722 41.55318 
L 145.29554 41.398439 
L 145.701358 41.696494 
L 146.512994 41.204794 
L 146.918813 42.313872 
L 147.324631 41.286578 
L 148.136267 41.785529 
L 148.542085 41.731724 
L 148.947903 41.477726 
L 150.165358 41.699167 
L 150.571176 41.973457 
L 150.976994 41.761763 
L 151.382812 41.903426 
L 151.788631 40.964912 
L 152.194449 41.67121 
L 152.600267 41.819931 
L 153.006085 41.36233 
L 153.411903 41.379429 
L 154.22354 41.729035 
L 154.629358 41.529564 
L 155.035176 41.614517 
L 155.440994 41.470712 
L 155.846812 41.800242 
L 156.252631 41.478698 
L 156.658449 41.755086 
L 158.281722 41.761995 
L 158.68754 41.982244 
L 159.093358 41.381296 
L 159.904994 41.922624 
L 160.310812 41.594795 
L 160.716631 41.811122 
L 161.122449 41.449802 
L 161.934085 41.848666 
L 162.339903 41.932178 
L 162.745722 41.265911 
L 163.15154 42.108768 
L 163.557358 41.928312 
L 163.963176 41.440092 
L 164.368994 41.896164 
L 164.774812 41.3937 
L 165.180631 41.685973 
L 165.586449 42.179544 
L 165.992267 41.444555 
L 166.398085 41.197438 
L 166.803903 42.801871 
L 167.209722 41.563281 
L 167.61554 41.133306 
L 168.021358 41.689833 
L 168.832994 41.809161 
L 169.238812 41.534833 
L 169.644631 41.043569 
L 170.050449 41.094016 
L 170.862085 41.660556 
L 171.267903 41.313253 
L 171.673722 41.116616 
L 173.296994 41.175843 
L 173.702812 41.287649 
L 174.108631 41.209776 
L 174.514449 41.330275 
L 174.920267 41.211322 
L 175.326085 41.45834 
L 176.137722 41.213719 
L 177.355176 41.487457 
L 177.760994 41.398715 
L 178.166812 41.51178 
L 178.572631 41.500027 
L 178.978449 41.274019 
L 179.384267 41.592613 
L 179.790085 41.381649 
L 180.601722 41.30245 
L 181.00754 41.528017 
L 181.413358 41.391579 
L 182.224994 41.348379 
L 182.630812 42.072703 
L 183.036631 41.710003 
L 183.442449 41.527145 
L 183.848267 41.761106 
L 184.254085 41.455269 
L 184.659903 41.941214 
L 185.065722 42.027603 
L 185.47154 41.437497 
L 185.877358 41.550805 
L 186.283176 41.849197 
L 186.688994 41.788859 
L 187.094812 41.110021 
L 187.500631 41.460969 
L 187.906449 41.65415 
L 188.312267 41.719955 
L 188.718085 41.496669 
L 189.123903 41.053643 
L 189.529722 41.61143 
L 189.93554 41.143821 
L 190.341358 41.600892 
L 191.558812 41.597391 
L 191.964631 41.693484 
L 192.370449 41.505749 
L 193.182085 42.123625 
L 193.587903 41.557355 
L 193.993722 41.662699 
L 194.805358 41.500436 
L 196.022812 41.611916 
L 196.428631 41.801296 
L 196.834449 41.779288 
L 197.240267 41.590365 
L 197.646085 41.821041 
L 198.051903 41.536489 
L 198.457722 41.83439 
L 198.86354 41.653382 
L 199.269358 42.011095 
L 199.675176 41.466735 
L 200.080994 41.85557 
L 200.486812 41.654503 
L 200.892631 41.889906 
L 201.298449 41.144451 
L 201.704267 41.782773 
L 202.110085 41.797105 
L 202.515903 42.078254 
L 203.32754 41.135139 
L 203.733358 41.569588 
L 204.544994 41.757119 
L 204.950812 41.336052 
L 205.356631 41.434161 
L 205.762449 41.848219 
L 206.168267 41.869433 
L 206.574085 42.286335 
L 206.979903 41.131704 
L 207.385722 41.286313 
L 207.79154 41.718392 
L 208.197358 41.682256 
L 208.603176 42.101953 
L 209.008994 41.31364 
L 209.414812 41.122359 
L 210.226449 41.301942 
L 210.632267 41.373829 
L 211.038085 40.964548 
L 211.443903 41.47302 
L 211.849722 41.418122 
L 212.25554 41.174021 
L 213.067176 41.582689 
L 213.472994 40.987291 
L 213.878812 41.790842 
L 214.284631 41.230995 
L 214.690449 41.480763 
L 215.907903 41.545182 
L 216.313722 41.292863 
L 216.71954 41.485402 
L 217.531176 41.469949 
L 219.154449 41.651018 
L 219.560267 41.467784 
L 219.966085 41.537064 
L 220.371903 41.385394 
L 220.777722 41.780006 
L 221.18354 41.589161 
L 221.589358 41.686022 
L 221.995176 41.464415 
L 222.400994 41.621653 
L 222.806812 41.348379 
L 223.212631 41.429323 
L 223.618449 41.715172 
L 224.024267 41.514464 
L 224.430085 41.454993 
L 224.835903 41.890519 
L 225.241722 41.350069 
L 225.64754 41.583302 
L 226.053358 40.952828 
L 226.459176 42.16566 
L 226.864994 41.538478 
L 227.270812 41.310602 
L 227.676631 41.726533 
L 228.082449 41.465995 
L 228.488267 41.735524 
L 228.894085 42.151344 
L 229.299903 41.757318 
L 229.705722 42.012824 
L 230.11154 40.668995 
L 230.517358 41.789732 
L 230.923176 41.8683 
L 231.328994 42.079016 
L 231.734812 41.711279 
L 232.140631 41.863772 
L 232.546449 41.064413 
L 232.952267 41.726301 
L 233.358085 41.739026 
L 233.763903 41.524019 
L 234.169722 41.779685 
L 234.57554 41.591868 
L 235.387176 41.88076 
L 235.792994 41.681858 
L 236.604631 41.591078 
L 237.010449 41.801296 
L 237.416267 41.487822 
L 238.227903 41.701575 
L 239.445358 41.709158 
L 240.256994 42.06422 
L 241.068631 41.411296 
L 241.474449 41.695963 
L 241.880267 41.611562 
L 242.691903 42.090045 
L 243.097722 41.580292 
L 243.50354 41.534015 
L 243.909358 41.803064 
L 244.315176 40.887183 
L 245.126812 41.9022 
L 245.532631 41.483845 
L 245.938449 41.84342 
L 246.344267 41.333357 
L 247.155903 41.366273 
L 247.561722 41.58899 
L 247.96754 41.954458 
L 248.373358 41.723412 
L 248.779176 40.985281 
L 249.184994 42.426159 
L 249.590812 41.309089 
L 249.996631 41.126711 
L 250.402449 41.531022 
L 250.808267 41.289637 
L 251.214085 41.621459 
L 251.619903 41.030569 
L 252.025722 41.214007 
L 252.43154 41.627877 
L 252.837358 41.357459 
L 252.837358 41.357459 
" clip-path="url(#p08a0a5518a)" style="fill: none; stroke: #1f77b4; stroke-width: 1.5; stroke-linecap: square"/>
   </g>
   <g id="line2d_24">
    <path d="M 49.928267 134.334731 
L 50.334085 134.347179 
L 50.739903 134.094684 
L 51.55154 134.183848 
L 51.957358 134.058623 
L 52.363176 134.332612 
L 52.768994 134.878286 
L 53.174813 134.38925 
L 53.580631 134.150517 
L 53.986449 134.231412 
L 54.392267 134.031323 
L 54.798085 134.231092 
L 55.203903 134.627787 
L 55.609722 134.392073 
L 56.01554 134.40556 
L 56.421358 134.174788 
L 57.232994 133.989974 
L 57.638813 134.312063 
L 58.044631 134.095271 
L 58.450449 134.035503 
L 58.856267 134.405879 
L 59.262085 134.206848 
L 59.667903 134.303222 
L 60.073722 134.693051 
L 60.47954 134.413796 
L 61.291176 134.214604 
L 61.696994 134.697601 
L 62.102812 134.263268 
L 62.914449 134.380403 
L 63.726085 134.235004 
L 64.94354 134.293137 
L 65.349358 134.212732 
L 65.755176 134.299469 
L 66.160994 134.667353 
L 66.972631 134.189505 
L 67.378449 134.463124 
L 67.784267 134.09688 
L 68.595903 134.621449 
L 69.001722 134.222217 
L 69.40754 134.498486 
L 69.813358 133.785872 
L 70.219176 134.283129 
L 70.624994 134.194551 
L 71.030812 133.664465 
L 71.436631 134.486656 
L 72.248267 133.675792 
L 72.654085 133.882182 
L 73.059903 134.305589 
L 73.465722 134.18086 
L 73.87154 134.420618 
L 74.277358 133.708202 
L 74.683176 135.496307 
L 75.088994 134.133632 
L 75.900631 134.61696 
L 76.306449 134.262059 
L 76.712267 134.237306 
L 77.118085 134.473334 
L 77.523903 133.924 
L 78.33554 134.651021 
L 79.147176 134.035413 
L 79.958812 134.43595 
L 80.364631 133.919122 
L 81.176267 134.212345 
L 81.582085 133.997532 
L 81.987903 134.028313 
L 82.393722 133.771982 
L 82.79954 134.083794 
L 83.205358 133.980742 
L 83.611176 134.109223 
L 84.016994 134.033856 
L 84.422812 133.708923 
L 84.828631 134.059102 
L 86.046085 133.861412 
L 86.451903 134.010869 
L 86.857722 133.898515 
L 87.26354 133.996716 
L 87.669358 133.855222 
L 88.075176 133.848209 
L 88.480994 134.177593 
L 89.292631 133.823431 
L 89.698449 134.745129 
L 90.104267 134.19286 
L 90.510085 134.212607 
L 90.915903 133.484357 
L 91.72754 134.543135 
L 92.133358 134.590323 
L 92.944994 134.294983 
L 93.350812 134.588124 
L 93.756631 133.795037 
L 94.162449 133.938535 
L 94.568267 134.605701 
L 94.974085 134.801611 
L 95.785722 134.235042 
L 96.597358 134.663358 
L 97.003176 135.023029 
L 97.408994 134.528763 
L 97.814812 134.824553 
L 98.220631 134.046781 
L 98.626449 134.369866 
L 99.032267 134.534448 
L 99.843903 134.022471 
L 100.249722 134.935348 
L 100.65554 134.805297 
L 101.061358 134.371244 
L 101.467176 134.44831 
L 101.872994 134.231796 
L 102.278812 134.764356 
L 102.684631 134.334099 
L 105.525358 134.170885 
L 106.336994 134.355767 
L 107.148631 134.513754 
L 107.554449 134.192442 
L 107.960267 134.420957 
L 108.366085 134.471434 
L 108.771903 134.23692 
L 109.177722 134.463635 
L 109.58354 134.222217 
L 109.989358 134.389892 
L 110.395176 133.790468 
L 110.800994 134.2564 
L 111.206812 134.474945 
L 111.612631 134.448657 
L 112.424267 133.821981 
L 112.830085 134.243009 
L 113.235903 134.059512 
L 113.641722 134.63761 
L 114.453358 134.17288 
L 114.859176 134.272155 
L 115.264994 134.738116 
L 115.670812 134.759075 
L 116.076631 134.223554 
L 116.482449 133.92419 
L 116.888267 134.300305 
L 117.294085 134.416141 
L 118.51154 134.238942 
L 118.917358 134.402731 
L 119.323176 134.415105 
L 119.728994 134.035413 
L 120.134812 134.277223 
L 120.946449 134.016822 
L 121.352267 133.984628 
L 121.758085 134.376786 
L 122.163903 134.071511 
L 122.569722 134.135827 
L 122.97554 133.772959 
L 123.381358 133.834463 
L 124.192994 134.199908 
L 125.004631 133.860899 
L 125.816267 133.981068 
L 126.222085 133.644061 
L 127.033722 134.01087 
L 127.43954 133.80504 
L 127.845358 133.924607 
L 128.251176 134.365059 
L 128.656994 134.015598 
L 129.062813 134.324893 
L 129.468631 134.009367 
L 129.874449 134.017374 
L 130.280267 134.219788 
L 130.686085 134.086465 
L 131.091903 134.356693 
L 131.497722 133.09272 
L 131.90354 134.233467 
L 132.309358 134.545944 
L 132.715176 134.447097 
L 133.120994 134.205758 
L 133.526812 134.445446 
L 133.932631 134.440338 
L 134.338449 133.189985 
L 134.744267 134.65997 
L 135.150085 134.840895 
L 135.555903 134.263766 
L 135.961722 134.520229 
L 136.36754 134.386599 
L 136.773358 134.542158 
L 137.179176 134.987873 
L 137.584994 134.436805 
L 137.990813 134.367506 
L 138.396631 134.543453 
L 138.802449 134.185311 
L 139.208267 133.976164 
L 139.614085 135.009937 
L 140.019903 134.284496 
L 140.425722 134.166701 
L 140.83154 134.561224 
L 141.643176 134.255041 
L 142.048994 134.126631 
L 142.454813 134.230158 
L 142.860631 134.787732 
L 143.266449 134.263268 
L 143.672267 134.262301 
L 144.889722 134.526335 
L 145.29554 134.287383 
L 145.701358 134.230848 
L 146.107176 134.444123 
L 146.512994 134.394407 
L 146.918813 134.212991 
L 147.324631 134.218998 
L 147.730449 134.417634 
L 148.136267 134.186569 
L 148.947903 134.474918 
L 149.75954 134.216448 
L 150.571176 133.968739 
L 151.382812 134.016918 
L 151.788631 135.052453 
L 152.194449 133.798195 
L 152.600267 133.952314 
L 153.006085 134.655042 
L 153.411903 134.668422 
L 153.817722 134.322808 
L 154.22354 134.300179 
L 154.629358 134.128138 
L 155.440994 134.323056 
L 155.846812 134.501822 
L 156.252631 134.078383 
L 156.658449 134.12878 
L 157.470085 133.813108 
L 157.875903 134.532784 
L 158.281722 134.20358 
L 158.68754 134.620889 
L 159.093358 134.097613 
L 159.499176 133.875921 
L 159.904994 134.538921 
L 160.310812 133.888059 
L 160.716631 134.162431 
L 161.122449 133.817941 
L 161.528267 133.864288 
L 162.339903 134.303728 
L 162.745722 133.847937 
L 163.15154 134.108522 
L 163.557358 134.156326 
L 163.963176 133.834463 
L 164.368994 133.944614 
L 165.586449 133.890361 
L 166.398085 133.877049 
L 166.803903 133.747746 
L 167.209722 134.039208 
L 168.021358 133.90116 
L 168.427176 134.025692 
L 169.238812 133.930162 
L 169.644631 134.332963 
L 170.050449 134.0303 
L 170.862085 133.648489 
L 171.267903 134.19286 
L 171.673722 134.478818 
L 172.485358 134.228414 
L 172.891176 133.87566 
L 173.296994 134.321816 
L 173.702812 134.053293 
L 174.108631 134.037068 
L 174.514449 134.588124 
L 174.920267 134.849813 
L 175.326085 133.993674 
L 175.731903 134.300961 
L 176.137722 133.956899 
L 176.54354 134.225853 
L 176.949358 134.324674 
L 177.355176 134.892174 
L 177.760994 133.956609 
L 178.166812 134.291431 
L 178.572631 134.391166 
L 178.978449 133.847243 
L 179.384267 134.852379 
L 179.790085 134.101424 
L 180.195903 134.283135 
L 180.601722 134.02603 
L 181.00754 134.318486 
L 181.413358 134.75973 
L 181.819176 134.204553 
L 182.224994 134.098558 
L 182.630812 134.76803 
L 183.036631 134.29636 
L 183.442449 134.632157 
L 183.848267 134.573849 
L 184.254085 134.310579 
L 184.659903 134.418837 
L 185.47154 134.235383 
L 185.877358 134.297443 
L 186.283176 134.231321 
L 186.688994 134.424505 
L 187.094812 134.268742 
L 187.500631 134.23427 
L 187.906449 134.407073 
L 188.312267 134.218477 
L 188.718085 134.301053 
L 189.123903 134.521281 
L 189.529722 134.246666 
L 189.93554 134.640295 
L 190.341358 134.220425 
L 191.152994 134.080788 
L 191.558812 134.345424 
L 191.964631 133.841336 
L 192.370449 134.312892 
L 192.776267 134.074757 
L 193.182085 133.6875 
L 193.587903 134.246399 
L 193.993722 133.959401 
L 194.39954 134.46789 
L 195.211176 134.837214 
L 196.022812 134.253509 
L 196.428631 134.507138 
L 196.834449 134.519949 
L 197.240267 133.915299 
L 197.646085 134.219337 
L 198.051903 133.774863 
L 198.457722 134.270768 
L 198.86354 133.92383 
L 199.269358 134.357913 
L 199.675176 133.967385 
L 200.080994 134.263472 
L 200.486812 134.167474 
L 200.892631 134.245362 
L 201.298449 133.646294 
L 201.704267 134.132569 
L 202.110085 134.114522 
L 202.515903 134.411526 
L 203.32754 133.93133 
L 204.544994 134.083154 
L 204.950812 133.942008 
L 205.356631 134.051146 
L 206.168267 133.870959 
L 206.574085 134.060885 
L 208.603176 133.910721 
L 209.414812 134.145652 
L 209.820631 133.924844 
L 210.226449 134.170118 
L 211.038085 134.270838 
L 211.443903 134.011415 
L 211.849722 134.081869 
L 212.25554 134.622904 
L 212.661358 134.22392 
L 213.067176 134.123998 
L 213.472994 134.815472 
L 213.878812 133.34336 
L 214.284631 134.195098 
L 214.690449 134.526032 
L 215.096267 134.39848 
L 215.502085 134.038132 
L 215.907903 134.39285 
L 216.71954 134.258451 
L 217.125358 134.449256 
L 217.936994 134.344465 
L 218.342812 134.806493 
L 218.748631 134.470267 
L 220.371903 134.105348 
L 220.777722 134.642171 
L 221.18354 134.376485 
L 221.589358 134.689147 
L 221.995176 134.453478 
L 222.400994 134.555064 
L 222.806812 134.098559 
L 223.212631 134.356928 
L 223.618449 134.297998 
L 224.024267 134.475272 
L 224.430085 134.304765 
L 224.835903 134.45349 
L 225.241722 134.265105 
L 225.64754 134.252885 
L 226.053358 134.447526 
L 227.270812 134.180002 
L 228.488267 134.104104 
L 228.894085 134.080909 
L 229.299903 134.346364 
L 229.705722 134.223973 
L 230.11154 134.762202 
L 230.517358 134.233183 
L 230.923176 134.195516 
L 231.328994 133.935504 
L 231.734812 134.026967 
L 232.140631 133.865044 
L 232.546449 134.81169 
L 233.358085 134.198381 
L 233.763903 134.486657 
L 234.169722 134.095747 
L 234.57554 134.504107 
L 234.981358 134.441023 
L 235.387176 134.258322 
L 235.792994 134.785912 
L 236.198812 134.183692 
L 236.604631 134.552878 
L 237.010449 134.507138 
L 237.416267 134.230813 
L 237.822085 134.369969 
L 238.633722 134.366949 
L 239.03954 134.38741 
L 239.445358 134.065982 
L 239.851176 134.34415 
L 240.256994 134.775444 
L 240.662812 134.001181 
L 241.068631 134.063433 
L 241.880267 133.945463 
L 242.286085 134.240316 
L 242.691903 134.002277 
L 243.097722 134.048702 
L 243.909358 134.301224 
L 244.315176 133.831979 
L 245.126812 134.130791 
L 245.532631 133.980441 
L 245.938449 133.9895 
L 246.344267 133.770547 
L 246.750085 133.972636 
L 247.155903 133.785416 
L 247.561722 133.990185 
L 247.96754 133.713718 
L 248.373358 134.006998 
L 248.779176 133.973109 
L 249.184994 133.662182 
L 249.590812 134.039092 
L 249.996631 134.142436 
L 250.402449 134.088748 
L 250.808267 133.853092 
L 251.214085 133.988435 
L 251.619903 133.860883 
L 252.025722 134.065236 
L 252.43154 133.859887 
L 252.837358 133.973125 
L 252.837358 133.973125 
" clip-path="url(#p08a0a5518a)" style="fill: none; stroke: #ff7f0e; stroke-width: 1.5; stroke-linecap: square"/>
   </g>
   <g id="patch_3">
    <path d="M 39.782813 146.571875 
L 39.782813 10.671875 
" style="fill: none; stroke: #000000; stroke-width: 0.8; stroke-linejoin: miter; stroke-linecap: square"/>
   </g>
   <g id="patch_4">
    <path d="M 262.982812 146.571875 
L 262.982812 10.671875 
" style="fill: none; stroke: #000000; stroke-width: 0.8; stroke-linejoin: miter; stroke-linecap: square"/>
   </g>
   <g id="patch_5">
    <path d="M 39.782813 146.571875 
L 262.982812 146.571875 
" style="fill: none; stroke: #000000; stroke-width: 0.8; stroke-linejoin: miter; stroke-linecap: square"/>
   </g>
   <g id="patch_6">
    <path d="M 39.782813 10.671875 
L 262.982812 10.671875 
" style="fill: none; stroke: #000000; stroke-width: 0.8; stroke-linejoin: miter; stroke-linecap: square"/>
   </g>
   <g id="legend_1">
    <g id="patch_7">
     <path d="M 216.682812 94.591406 
L 255.982812 94.591406 
Q 257.982812 94.591406 257.982812 92.591406 
L 257.982812 64.652344 
Q 257.982812 62.652344 255.982812 62.652344 
L 216.682812 62.652344 
Q 214.682812 62.652344 214.682812 64.652344 
L 214.682812 92.591406 
Q 214.682812 94.591406 216.682812 94.591406 
z
" style="fill: #ffffff; opacity: 0.8; stroke: #cccccc; stroke-linejoin: miter"/>
    </g>
    <g id="line2d_25">
     <path d="M 218.682812 70.152344 
L 228.682812 70.152344 
L 238.682812 70.152344 
" style="fill: none; stroke: #1f77b4; stroke-width: 1.5; stroke-linecap: square"/>
    </g>
    <g id="text_14">
     <!-- $I_{d}$ -->
     <g transform="translate(246.682812 73.652344)scale(0.1 -0.1)">
      <defs>
       <path id="STIXGeneral-Italic-49" d="M 2458 4179 
L 2458 4077 
Q 2189 4045 2102 3961 
Q 2016 3878 1933 3584 
L 1165 838 
Q 1069 499 1069 352 
Q 1069 224 1149 179 
Q 1229 134 1510 102 
L 1510 0 
L -51 0 
L -51 102 
Q 218 154 317 237 
Q 416 320 486 582 
L 1254 3405 
Q 1338 3699 1338 3802 
Q 1338 3930 1235 3997 
Q 1133 4064 877 4077 
L 877 4179 
L 2458 4179 
z
" transform="scale(0.015625)"/>
       <path id="STIXGeneral-Italic-64" d="M 3334 4371 
L 3373 4333 
L 3123 3360 
L 2739 1958 
Q 2323 429 2323 384 
Q 2323 256 2438 256 
Q 2522 256 2614 336 
Q 2707 416 2963 710 
L 3040 646 
Q 2547 -83 2099 -83 
Q 1978 -83 1907 -6 
Q 1837 70 1837 205 
Q 1837 397 1920 774 
Q 1645 307 1379 118 
Q 1114 -70 781 -70 
Q 461 -70 278 125 
Q 96 320 96 678 
Q 96 1440 713 2131 
Q 1331 2822 1965 2822 
Q 2163 2822 2256 2732 
Q 2349 2643 2381 2451 
L 2387 2451 
L 2675 3494 
Q 2765 3808 2765 3949 
Q 2765 4051 2694 4076 
Q 2624 4102 2355 4115 
L 2355 4224 
Q 2848 4269 3334 4371 
z
M 2278 2310 
Q 2278 2477 2185 2576 
Q 2093 2675 1978 2675 
Q 1677 2675 1395 2381 
Q 1075 2042 864 1571 
Q 653 1101 653 704 
Q 653 486 752 361 
Q 851 237 1024 237 
Q 1312 237 1606 550 
Q 1901 864 2089 1350 
Q 2278 1837 2278 2310 
z
" transform="scale(0.015625)"/>
      </defs>
      <use xlink:href="#STIXGeneral-Italic-49" transform="translate(0 0.703125)"/>
      <use xlink:href="#STIXGeneral-Italic-64" transform="translate(33.299988 -12.525)scale(0.7)"/>
     </g>
    </g>
    <g id="line2d_26">
     <path d="M 218.682812 84.291406 
L 228.682812 84.291406 
L 238.682812 84.291406 
" style="fill: none; stroke: #ff7f0e; stroke-width: 1.5; stroke-linecap: square"/>
    </g>
    <g id="text_15">
     <!-- $I_{q}$ -->
     <g transform="translate(246.682812 87.791406)scale(0.1 -0.1)">
      <defs>
       <path id="STIXGeneral-Italic-71" d="M 3098 2739 
L 2042 -966 
Q 2029 -1018 2029 -1037 
Q 2029 -1235 2394 -1235 
L 2490 -1235 
L 2490 -1338 
L 973 -1338 
L 973 -1235 
Q 1267 -1216 1382 -1139 
Q 1498 -1062 1555 -877 
L 2131 979 
Q 1754 378 1466 154 
Q 1178 -70 800 -70 
Q 499 -70 329 128 
Q 160 326 160 672 
Q 160 1165 445 1670 
Q 730 2176 1168 2499 
Q 1606 2822 2035 2822 
Q 2438 2822 2528 2426 
L 2630 2739 
L 3098 2739 
z
M 2432 2298 
Q 2432 2458 2323 2570 
Q 2214 2682 2054 2682 
Q 1792 2682 1459 2368 
Q 1133 2054 921 1606 
Q 710 1158 710 762 
Q 710 269 1050 269 
Q 1312 269 1574 499 
Q 1901 781 2166 1341 
Q 2432 1901 2432 2298 
z
" transform="scale(0.015625)"/>
      </defs>
      <use xlink:href="#STIXGeneral-Italic-49" transform="translate(0 0.703125)"/>
      <use xlink:href="#STIXGeneral-Italic-71" transform="translate(33.299988 -12.525)scale(0.7)"/>
     </g>
    </g>
   </g>
  </g>
 </g>
 <defs>
  <clipPath id="p08a0a5518a">
   <rect x="39.782813" y="10.671875" width="223.2" height="135.9"/>
  </clipPath>
 </defs>
</svg>
