<?xml version="1.0" encoding="utf-8" standalone="no"?>
<!DOCTYPE svg PUBLIC "-//W3C//DTD SVG 1.1//EN"
  "http://www.w3.org/Graphics/SVG/1.1/DTD/svg11.dtd">
<svg xmlns:xlink="http://www.w3.org/1999/xlink" width="360pt" height="216pt" viewBox="0 0 360 216" xmlns="http://www.w3.org/2000/svg" version="1.1">
 <metadata>
  <rdf:RDF xmlns:dc="http://purl.org/dc/elements/1.1/" xmlns:cc="http://creativecommons.org/ns#" xmlns:rdf="http://www.w3.org/1999/02/22-rdf-syntax-ns#">
   <cc:Work>
    <dc:type rdf:resource="http://purl.org/dc/dcmitype/StillImage"/>
    <dc:date>2024-10-04T02:27:17.509306</dc:date>
    <dc:format>image/svg+xml</dc:format>
    <dc:creator>
     <cc:Agent>
      <dc:title>Matplotlib v3.7.5, https://matplotlib.org/</dc:title>
     </cc:Agent>
    </dc:creator>
   </cc:Work>
  </rdf:RDF>
 </metadata>
 <defs>
  <style type="text/css">*{stroke-linejoin: round; stroke-linecap: butt}</style>
 </defs>
 <g id="figure_1">
  <g id="patch_1">
   <path d="M 0 216 
L 360 216 
L 360 0 
L 0 0 
z
" style="fill: #ffffff"/>
  </g>
  <g id="axes_1">
   <g id="patch_2">
    <path d="M 47.72 174.04 
L 349.2 174.04 
L 349.2 14.76 
L 47.72 14.76 
z
" style="fill: #ffffff"/>
   </g>
   <g id="matplotlib.axis_1">
    <g id="xtick_1">
     <g id="line2d_1">
      <defs>
       <path id="m074b1f56dc" d="M 0 0 
L 0 3.5 
" style="stroke: #000000; stroke-width: 0.8"/>
      </defs>
      <g>
       <use xlink:href="#m074b1f56dc" x="61.423636" y="174.04" style="stroke: #000000; stroke-width: 0.8"/>
      </g>
     </g>
     <g id="text_1">
      <!-- 0.0 -->
      <g transform="translate(53.472074 188.638438) scale(0.1 -0.1)">
       <defs>
        <path id="DejaVuSans-30" d="M 2034 4250 
Q 1547 4250 1301 3770 
Q 1056 3291 1056 2328 
Q 1056 1369 1301 889 
Q 1547 409 2034 409 
Q 2525 409 2770 889 
Q 3016 1369 3016 2328 
Q 3016 3291 2770 3770 
Q 2525 4250 2034 4250 
z
M 2034 4750 
Q 2819 4750 3233 4129 
Q 3647 3509 3647 2328 
Q 3647 1150 3233 529 
Q 2819 -91 2034 -91 
Q 1250 -91 836 529 
Q 422 1150 422 2328 
Q 422 3509 836 4129 
Q 1250 4750 2034 4750 
z
" transform="scale(0.015625)"/>
        <path id="DejaVuSans-2e" d="M 684 794 
L 1344 794 
L 1344 0 
L 684 0 
L 684 794 
z
" transform="scale(0.015625)"/>
       </defs>
       <use xlink:href="#DejaVuSans-30"/>
       <use xlink:href="#DejaVuSans-2e" x="63.623047"/>
       <use xlink:href="#DejaVuSans-30" x="95.410156"/>
      </g>
     </g>
    </g>
    <g id="xtick_2">
     <g id="line2d_2">
      <g>
       <use xlink:href="#m074b1f56dc" x="116.238182" y="174.04" style="stroke: #000000; stroke-width: 0.8"/>
      </g>
     </g>
     <g id="text_2">
      <!-- 0.2 -->
      <g transform="translate(108.286619 188.638438) scale(0.1 -0.1)">
       <defs>
        <path id="DejaVuSans-32" d="M 1228 531 
L 3431 531 
L 3431 0 
L 469 0 
L 469 531 
Q 828 903 1448 1529 
Q 2069 2156 2228 2338 
Q 2531 2678 2651 2914 
Q 2772 3150 2772 3378 
Q 2772 3750 2511 3984 
Q 2250 4219 1831 4219 
Q 1534 4219 1204 4116 
Q 875 4013 500 3803 
L 500 4441 
Q 881 4594 1212 4672 
Q 1544 4750 1819 4750 
Q 2544 4750 2975 4387 
Q 3406 4025 3406 3419 
Q 3406 3131 3298 2873 
Q 3191 2616 2906 2266 
Q 2828 2175 2409 1742 
Q 1991 1309 1228 531 
z
" transform="scale(0.015625)"/>
       </defs>
       <use xlink:href="#DejaVuSans-30"/>
       <use xlink:href="#DejaVuSans-2e" x="63.623047"/>
       <use xlink:href="#DejaVuSans-32" x="95.410156"/>
      </g>
     </g>
    </g>
    <g id="xtick_3">
     <g id="line2d_3">
      <g>
       <use xlink:href="#m074b1f56dc" x="171.052727" y="174.04" style="stroke: #000000; stroke-width: 0.8"/>
      </g>
     </g>
     <g id="text_3">
      <!-- 0.4 -->
      <g transform="translate(163.101165 188.638438) scale(0.1 -0.1)">
       <defs>
        <path id="DejaVuSans-34" d="M 2419 4116 
L 825 1625 
L 2419 1625 
L 2419 4116 
z
M 2253 4666 
L 3047 4666 
L 3047 1625 
L 3713 1625 
L 3713 1100 
L 3047 1100 
L 3047 0 
L 2419 0 
L 2419 1100 
L 313 1100 
L 313 1709 
L 2253 4666 
z
" transform="scale(0.015625)"/>
       </defs>
       <use xlink:href="#DejaVuSans-30"/>
       <use xlink:href="#DejaVuSans-2e" x="63.623047"/>
       <use xlink:href="#DejaVuSans-34" x="95.410156"/>
      </g>
     </g>
    </g>
    <g id="xtick_4">
     <g id="line2d_4">
      <g>
       <use xlink:href="#m074b1f56dc" x="225.867273" y="174.04" style="stroke: #000000; stroke-width: 0.8"/>
      </g>
     </g>
     <g id="text_4">
      <!-- 0.6 -->
      <g transform="translate(217.91571 188.638438) scale(0.1 -0.1)">
       <defs>
        <path id="DejaVuSans-36" d="M 2113 2584 
Q 1688 2584 1439 2293 
Q 1191 2003 1191 1497 
Q 1191 994 1439 701 
Q 1688 409 2113 409 
Q 2538 409 2786 701 
Q 3034 994 3034 1497 
Q 3034 2003 2786 2293 
Q 2538 2584 2113 2584 
z
M 3366 4563 
L 3366 3988 
Q 3128 4100 2886 4159 
Q 2644 4219 2406 4219 
Q 1781 4219 1451 3797 
Q 1122 3375 1075 2522 
Q 1259 2794 1537 2939 
Q 1816 3084 2150 3084 
Q 2853 3084 3261 2657 
Q 3669 2231 3669 1497 
Q 3669 778 3244 343 
Q 2819 -91 2113 -91 
Q 1303 -91 875 529 
Q 447 1150 447 2328 
Q 447 3434 972 4092 
Q 1497 4750 2381 4750 
Q 2619 4750 2861 4703 
Q 3103 4656 3366 4563 
z
" transform="scale(0.015625)"/>
       </defs>
       <use xlink:href="#DejaVuSans-30"/>
       <use xlink:href="#DejaVuSans-2e" x="63.623047"/>
       <use xlink:href="#DejaVuSans-36" x="95.410156"/>
      </g>
     </g>
    </g>
    <g id="xtick_5">
     <g id="line2d_5">
      <g>
       <use xlink:href="#m074b1f56dc" x="280.681818" y="174.04" style="stroke: #000000; stroke-width: 0.8"/>
      </g>
     </g>
     <g id="text_5">
      <!-- 0.8 -->
      <g transform="translate(272.730256 188.638438) scale(0.1 -0.1)">
       <defs>
        <path id="DejaVuSans-38" d="M 2034 2216 
Q 1584 2216 1326 1975 
Q 1069 1734 1069 1313 
Q 1069 891 1326 650 
Q 1584 409 2034 409 
Q 2484 409 2743 651 
Q 3003 894 3003 1313 
Q 3003 1734 2745 1975 
Q 2488 2216 2034 2216 
z
M 1403 2484 
Q 997 2584 770 2862 
Q 544 3141 544 3541 
Q 544 4100 942 4425 
Q 1341 4750 2034 4750 
Q 2731 4750 3128 4425 
Q 3525 4100 3525 3541 
Q 3525 3141 3298 2862 
Q 3072 2584 2669 2484 
Q 3125 2378 3379 2068 
Q 3634 1759 3634 1313 
Q 3634 634 3220 271 
Q 2806 -91 2034 -91 
Q 1263 -91 848 271 
Q 434 634 434 1313 
Q 434 1759 690 2068 
Q 947 2378 1403 2484 
z
M 1172 3481 
Q 1172 3119 1398 2916 
Q 1625 2713 2034 2713 
Q 2441 2713 2670 2916 
Q 2900 3119 2900 3481 
Q 2900 3844 2670 4047 
Q 2441 4250 2034 4250 
Q 1625 4250 1398 4047 
Q 1172 3844 1172 3481 
z
" transform="scale(0.015625)"/>
       </defs>
       <use xlink:href="#DejaVuSans-30"/>
       <use xlink:href="#DejaVuSans-2e" x="63.623047"/>
       <use xlink:href="#DejaVuSans-38" x="95.410156"/>
      </g>
     </g>
    </g>
    <g id="xtick_6">
     <g id="line2d_6">
      <g>
       <use xlink:href="#m074b1f56dc" x="335.496364" y="174.04" style="stroke: #000000; stroke-width: 0.8"/>
      </g>
     </g>
     <g id="text_6">
      <!-- 1.0 -->
      <g transform="translate(327.544801 188.638438) scale(0.1 -0.1)">
       <defs>
        <path id="DejaVuSans-31" d="M 794 531 
L 1825 531 
L 1825 4091 
L 703 3866 
L 703 4441 
L 1819 4666 
L 2450 4666 
L 2450 531 
L 3481 531 
L 3481 0 
L 794 0 
L 794 531 
z
" transform="scale(0.015625)"/>
       </defs>
       <use xlink:href="#DejaVuSans-31"/>
       <use xlink:href="#DejaVuSans-2e" x="63.623047"/>
       <use xlink:href="#DejaVuSans-30" x="95.410156"/>
      </g>
     </g>
    </g>
    <g id="text_7">
     <!-- Time (sec) -->
     <g transform="translate(172.305312 202.316563) scale(0.1 -0.1)">
      <defs>
       <path id="DejaVuSans-54" d="M -19 4666 
L 3928 4666 
L 3928 4134 
L 2272 4134 
L 2272 0 
L 1638 0 
L 1638 4134 
L -19 4134 
L -19 4666 
z
" transform="scale(0.015625)"/>
       <path id="DejaVuSans-69" d="M 603 3500 
L 1178 3500 
L 1178 0 
L 603 0 
L 603 3500 
z
M 603 4863 
L 1178 4863 
L 1178 4134 
L 603 4134 
L 603 4863 
z
" transform="scale(0.015625)"/>
       <path id="DejaVuSans-6d" d="M 3328 2828 
Q 3544 3216 3844 3400 
Q 4144 3584 4550 3584 
Q 5097 3584 5394 3201 
Q 5691 2819 5691 2113 
L 5691 0 
L 5113 0 
L 5113 2094 
Q 5113 2597 4934 2840 
Q 4756 3084 4391 3084 
Q 3944 3084 3684 2787 
Q 3425 2491 3425 1978 
L 3425 0 
L 2847 0 
L 2847 2094 
Q 2847 2600 2669 2842 
Q 2491 3084 2119 3084 
Q 1678 3084 1418 2786 
Q 1159 2488 1159 1978 
L 1159 0 
L 581 0 
L 581 3500 
L 1159 3500 
L 1159 2956 
Q 1356 3278 1631 3431 
Q 1906 3584 2284 3584 
Q 2666 3584 2933 3390 
Q 3200 3197 3328 2828 
z
" transform="scale(0.015625)"/>
       <path id="DejaVuSans-65" d="M 3597 1894 
L 3597 1613 
L 953 1613 
Q 991 1019 1311 708 
Q 1631 397 2203 397 
Q 2534 397 2845 478 
Q 3156 559 3463 722 
L 3463 178 
Q 3153 47 2828 -22 
Q 2503 -91 2169 -91 
Q 1331 -91 842 396 
Q 353 884 353 1716 
Q 353 2575 817 3079 
Q 1281 3584 2069 3584 
Q 2775 3584 3186 3129 
Q 3597 2675 3597 1894 
z
M 3022 2063 
Q 3016 2534 2758 2815 
Q 2500 3097 2075 3097 
Q 1594 3097 1305 2825 
Q 1016 2553 972 2059 
L 3022 2063 
z
" transform="scale(0.015625)"/>
       <path id="DejaVuSans-20" transform="scale(0.015625)"/>
       <path id="DejaVuSans-28" d="M 1984 4856 
Q 1566 4138 1362 3434 
Q 1159 2731 1159 2009 
Q 1159 1288 1364 580 
Q 1569 -128 1984 -844 
L 1484 -844 
Q 1016 -109 783 600 
Q 550 1309 550 2009 
Q 550 2706 781 3412 
Q 1013 4119 1484 4856 
L 1984 4856 
z
" transform="scale(0.015625)"/>
       <path id="DejaVuSans-73" d="M 2834 3397 
L 2834 2853 
Q 2591 2978 2328 3040 
Q 2066 3103 1784 3103 
Q 1356 3103 1142 2972 
Q 928 2841 928 2578 
Q 928 2378 1081 2264 
Q 1234 2150 1697 2047 
L 1894 2003 
Q 2506 1872 2764 1633 
Q 3022 1394 3022 966 
Q 3022 478 2636 193 
Q 2250 -91 1575 -91 
Q 1294 -91 989 -36 
Q 684 19 347 128 
L 347 722 
Q 666 556 975 473 
Q 1284 391 1588 391 
Q 1994 391 2212 530 
Q 2431 669 2431 922 
Q 2431 1156 2273 1281 
Q 2116 1406 1581 1522 
L 1381 1569 
Q 847 1681 609 1914 
Q 372 2147 372 2553 
Q 372 3047 722 3315 
Q 1072 3584 1716 3584 
Q 2034 3584 2315 3537 
Q 2597 3491 2834 3397 
z
" transform="scale(0.015625)"/>
       <path id="DejaVuSans-63" d="M 3122 3366 
L 3122 2828 
Q 2878 2963 2633 3030 
Q 2388 3097 2138 3097 
Q 1578 3097 1268 2742 
Q 959 2388 959 1747 
Q 959 1106 1268 751 
Q 1578 397 2138 397 
Q 2388 397 2633 464 
Q 2878 531 3122 666 
L 3122 134 
Q 2881 22 2623 -34 
Q 2366 -91 2075 -91 
Q 1284 -91 818 406 
Q 353 903 353 1747 
Q 353 2603 823 3093 
Q 1294 3584 2113 3584 
Q 2378 3584 2631 3529 
Q 2884 3475 3122 3366 
z
" transform="scale(0.015625)"/>
       <path id="DejaVuSans-29" d="M 513 4856 
L 1013 4856 
Q 1481 4119 1714 3412 
Q 1947 2706 1947 2009 
Q 1947 1309 1714 600 
Q 1481 -109 1013 -844 
L 513 -844 
Q 928 -128 1133 580 
Q 1338 1288 1338 2009 
Q 1338 2731 1133 3434 
Q 928 4138 513 4856 
z
" transform="scale(0.015625)"/>
      </defs>
      <use xlink:href="#DejaVuSans-54"/>
      <use xlink:href="#DejaVuSans-69" x="57.958984"/>
      <use xlink:href="#DejaVuSans-6d" x="85.742188"/>
      <use xlink:href="#DejaVuSans-65" x="183.154297"/>
      <use xlink:href="#DejaVuSans-20" x="244.677734"/>
      <use xlink:href="#DejaVuSans-28" x="276.464844"/>
      <use xlink:href="#DejaVuSans-73" x="315.478516"/>
      <use xlink:href="#DejaVuSans-65" x="367.578125"/>
      <use xlink:href="#DejaVuSans-63" x="429.101562"/>
      <use xlink:href="#DejaVuSans-29" x="484.082031"/>
     </g>
    </g>
   </g>
   <g id="matplotlib.axis_2">
    <g id="ytick_1">
     <g id="line2d_7">
      <defs>
       <path id="m6512056b70" d="M 0 0 
L -3.5 0 
" style="stroke: #000000; stroke-width: 0.8"/>
      </defs>
      <g>
       <use xlink:href="#m6512056b70" x="47.72" y="159.56" style="stroke: #000000; stroke-width: 0.8"/>
      </g>
     </g>
     <g id="text_8">
      <!-- 0.0 -->
      <g transform="translate(24.816875 163.359219) scale(0.1 -0.1)">
       <use xlink:href="#DejaVuSans-30"/>
       <use xlink:href="#DejaVuSans-2e" x="63.623047"/>
       <use xlink:href="#DejaVuSans-30" x="95.410156"/>
      </g>
     </g>
    </g>
    <g id="ytick_2">
     <g id="line2d_8">
      <g>
       <use xlink:href="#m6512056b70" x="47.72" y="130.6" style="stroke: #000000; stroke-width: 0.8"/>
      </g>
     </g>
     <g id="text_9">
      <!-- 0.2 -->
      <g transform="translate(24.816875 134.399219) scale(0.1 -0.1)">
       <use xlink:href="#DejaVuSans-30"/>
       <use xlink:href="#DejaVuSans-2e" x="63.623047"/>
       <use xlink:href="#DejaVuSans-32" x="95.410156"/>
      </g>
     </g>
    </g>
    <g id="ytick_3">
     <g id="line2d_9">
      <g>
       <use xlink:href="#m6512056b70" x="47.72" y="101.64" style="stroke: #000000; stroke-width: 0.8"/>
      </g>
     </g>
     <g id="text_10">
      <!-- 0.4 -->
      <g transform="translate(24.816875 105.439219) scale(0.1 -0.1)">
       <use xlink:href="#DejaVuSans-30"/>
       <use xlink:href="#DejaVuSans-2e" x="63.623047"/>
       <use xlink:href="#DejaVuSans-34" x="95.410156"/>
      </g>
     </g>
    </g>
    <g id="ytick_4">
     <g id="line2d_10">
      <g>
       <use xlink:href="#m6512056b70" x="47.72" y="72.68" style="stroke: #000000; stroke-width: 0.8"/>
      </g>
     </g>
     <g id="text_11">
      <!-- 0.6 -->
      <g transform="translate(24.816875 76.479219) scale(0.1 -0.1)">
       <use xlink:href="#DejaVuSans-30"/>
       <use xlink:href="#DejaVuSans-2e" x="63.623047"/>
       <use xlink:href="#DejaVuSans-36" x="95.410156"/>
      </g>
     </g>
    </g>
    <g id="ytick_5">
     <g id="line2d_11">
      <g>
       <use xlink:href="#m6512056b70" x="47.72" y="43.72" style="stroke: #000000; stroke-width: 0.8"/>
      </g>
     </g>
     <g id="text_12">
      <!-- 0.8 -->
      <g transform="translate(24.816875 47.519219) scale(0.1 -0.1)">
       <use xlink:href="#DejaVuSans-30"/>
       <use xlink:href="#DejaVuSans-2e" x="63.623047"/>
       <use xlink:href="#DejaVuSans-38" x="95.410156"/>
      </g>
     </g>
    </g>
    <g id="ytick_6">
     <g id="line2d_12">
      <g>
       <use xlink:href="#m6512056b70" x="47.72" y="14.76" style="stroke: #000000; stroke-width: 0.8"/>
      </g>
     </g>
     <g id="text_13">
      <!-- 1.0 -->
      <g transform="translate(24.816875 18.559219) scale(0.1 -0.1)">
       <use xlink:href="#DejaVuSans-31"/>
       <use xlink:href="#DejaVuSans-2e" x="63.623047"/>
       <use xlink:href="#DejaVuSans-30" x="95.410156"/>
      </g>
     </g>
    </g>
    <g id="text_14">
     <!-- Injected Signal -->
     <g transform="translate(18.737188 131.417969) rotate(-90) scale(0.1 -0.1)">
      <defs>
       <path id="DejaVuSans-49" d="M 628 4666 
L 1259 4666 
L 1259 0 
L 628 0 
L 628 4666 
z
" transform="scale(0.015625)"/>
       <path id="DejaVuSans-6e" d="M 3513 2113 
L 3513 0 
L 2938 0 
L 2938 2094 
Q 2938 2591 2744 2837 
Q 2550 3084 2163 3084 
Q 1697 3084 1428 2787 
Q 1159 2491 1159 1978 
L 1159 0 
L 581 0 
L 581 3500 
L 1159 3500 
L 1159 2956 
Q 1366 3272 1645 3428 
Q 1925 3584 2291 3584 
Q 2894 3584 3203 3211 
Q 3513 2838 3513 2113 
z
" transform="scale(0.015625)"/>
       <path id="DejaVuSans-6a" d="M 603 3500 
L 1178 3500 
L 1178 -63 
Q 1178 -731 923 -1031 
Q 669 -1331 103 -1331 
L -116 -1331 
L -116 -844 
L 38 -844 
Q 366 -844 484 -692 
Q 603 -541 603 -63 
L 603 3500 
z
M 603 4863 
L 1178 4863 
L 1178 4134 
L 603 4134 
L 603 4863 
z
" transform="scale(0.015625)"/>
       <path id="DejaVuSans-74" d="M 1172 4494 
L 1172 3500 
L 2356 3500 
L 2356 3053 
L 1172 3053 
L 1172 1153 
Q 1172 725 1289 603 
Q 1406 481 1766 481 
L 2356 481 
L 2356 0 
L 1766 0 
Q 1100 0 847 248 
Q 594 497 594 1153 
L 594 3053 
L 172 3053 
L 172 3500 
L 594 3500 
L 594 4494 
L 1172 4494 
z
" transform="scale(0.015625)"/>
       <path id="DejaVuSans-64" d="M 2906 2969 
L 2906 4863 
L 3481 4863 
L 3481 0 
L 2906 0 
L 2906 525 
Q 2725 213 2448 61 
Q 2172 -91 1784 -91 
Q 1150 -91 751 415 
Q 353 922 353 1747 
Q 353 2572 751 3078 
Q 1150 3584 1784 3584 
Q 2172 3584 2448 3432 
Q 2725 3281 2906 2969 
z
M 947 1747 
Q 947 1113 1208 752 
Q 1469 391 1925 391 
Q 2381 391 2643 752 
Q 2906 1113 2906 1747 
Q 2906 2381 2643 2742 
Q 2381 3103 1925 3103 
Q 1469 3103 1208 2742 
Q 947 2381 947 1747 
z
" transform="scale(0.015625)"/>
       <path id="DejaVuSans-53" d="M 3425 4513 
L 3425 3897 
Q 3066 4069 2747 4153 
Q 2428 4238 2131 4238 
Q 1616 4238 1336 4038 
Q 1056 3838 1056 3469 
Q 1056 3159 1242 3001 
Q 1428 2844 1947 2747 
L 2328 2669 
Q 3034 2534 3370 2195 
Q 3706 1856 3706 1288 
Q 3706 609 3251 259 
Q 2797 -91 1919 -91 
Q 1588 -91 1214 -16 
Q 841 59 441 206 
L 441 856 
Q 825 641 1194 531 
Q 1563 422 1919 422 
Q 2459 422 2753 634 
Q 3047 847 3047 1241 
Q 3047 1584 2836 1778 
Q 2625 1972 2144 2069 
L 1759 2144 
Q 1053 2284 737 2584 
Q 422 2884 422 3419 
Q 422 4038 858 4394 
Q 1294 4750 2059 4750 
Q 2388 4750 2728 4690 
Q 3069 4631 3425 4513 
z
" transform="scale(0.015625)"/>
       <path id="DejaVuSans-67" d="M 2906 1791 
Q 2906 2416 2648 2759 
Q 2391 3103 1925 3103 
Q 1463 3103 1205 2759 
Q 947 2416 947 1791 
Q 947 1169 1205 825 
Q 1463 481 1925 481 
Q 2391 481 2648 825 
Q 2906 1169 2906 1791 
z
M 3481 434 
Q 3481 -459 3084 -895 
Q 2688 -1331 1869 -1331 
Q 1566 -1331 1297 -1286 
Q 1028 -1241 775 -1147 
L 775 -588 
Q 1028 -725 1275 -790 
Q 1522 -856 1778 -856 
Q 2344 -856 2625 -561 
Q 2906 -266 2906 331 
L 2906 616 
Q 2728 306 2450 153 
Q 2172 0 1784 0 
Q 1141 0 747 490 
Q 353 981 353 1791 
Q 353 2603 747 3093 
Q 1141 3584 1784 3584 
Q 2172 3584 2450 3431 
Q 2728 3278 2906 2969 
L 2906 3500 
L 3481 3500 
L 3481 434 
z
" transform="scale(0.015625)"/>
       <path id="DejaVuSans-61" d="M 2194 1759 
Q 1497 1759 1228 1600 
Q 959 1441 959 1056 
Q 959 750 1161 570 
Q 1363 391 1709 391 
Q 2188 391 2477 730 
Q 2766 1069 2766 1631 
L 2766 1759 
L 2194 1759 
z
M 3341 1997 
L 3341 0 
L 2766 0 
L 2766 531 
Q 2569 213 2275 61 
Q 1981 -91 1556 -91 
Q 1019 -91 701 211 
Q 384 513 384 1019 
Q 384 1609 779 1909 
Q 1175 2209 1959 2209 
L 2766 2209 
L 2766 2266 
Q 2766 2663 2505 2880 
Q 2244 3097 1772 3097 
Q 1472 3097 1187 3025 
Q 903 2953 641 2809 
L 641 3341 
Q 956 3463 1253 3523 
Q 1550 3584 1831 3584 
Q 2591 3584 2966 3190 
Q 3341 2797 3341 1997 
z
" transform="scale(0.015625)"/>
       <path id="DejaVuSans-6c" d="M 603 4863 
L 1178 4863 
L 1178 0 
L 603 0 
L 603 4863 
z
" transform="scale(0.015625)"/>
      </defs>
      <use xlink:href="#DejaVuSans-49"/>
      <use xlink:href="#DejaVuSans-6e" x="29.492188"/>
      <use xlink:href="#DejaVuSans-6a" x="92.871094"/>
      <use xlink:href="#DejaVuSans-65" x="120.654297"/>
      <use xlink:href="#DejaVuSans-63" x="182.177734"/>
      <use xlink:href="#DejaVuSans-74" x="237.158203"/>
      <use xlink:href="#DejaVuSans-65" x="276.367188"/>
      <use xlink:href="#DejaVuSans-64" x="337.890625"/>
      <use xlink:href="#DejaVuSans-20" x="401.367188"/>
      <use xlink:href="#DejaVuSans-53" x="433.154297"/>
      <use xlink:href="#DejaVuSans-69" x="496.630859"/>
      <use xlink:href="#DejaVuSans-67" x="524.414062"/>
      <use xlink:href="#DejaVuSans-6e" x="587.890625"/>
      <use xlink:href="#DejaVuSans-61" x="651.269531"/>
      <use xlink:href="#DejaVuSans-6c" x="712.548828"/>
     </g>
    </g>
   </g>
   <g id="line2d_13">
    <path d="M 61.423636 88.148429 
L 61.697709 112.954587 
L 61.971782 109.629562 
L 62.245855 110.406099 
L 62.519927 66.241529 
L 62.794 117.513607 
L 63.068073 116.566492 
L 63.342145 89.558919 
L 63.616218 91.635487 
L 63.890291 51.132732 
L 64.164364 96.600542 
L 64.438436 107.574763 
L 64.712509 87.082747 
L 64.986582 87.313138 
L 65.260655 111.316705 
L 65.534727 79.829252 
L 65.8088 130.116053 
L 66.082873 106.431977 
L 66.356945 103.543509 
L 66.631018 57.057387 
L 67.179164 101.010226 
L 67.453236 93.382154 
L 67.727309 106.832805 
L 68.001382 44.629234 
L 68.275455 87.148787 
L 68.549527 73.323353 
L 68.8236 109.181116 
L 69.371745 116.960921 
L 69.645818 111.854284 
L 69.919891 129.179149 
L 70.193964 115.224774 
L 70.468036 109.413606 
L 70.742109 85.906714 
L 71.016182 120.699845 
L 71.290255 54.213602 
L 71.564327 97.162068 
L 71.8384 71.296227 
L 72.112473 121.570839 
L 72.386545 58.693724 
L 72.660618 60.425872 
L 72.934691 48.80205 
L 73.208764 112.349604 
L 73.482836 57.972174 
L 73.756909 103.730036 
L 74.030982 124.002957 
L 74.305055 106.742038 
L 74.579127 129.169143 
L 74.8532 128.050228 
L 75.127273 45.263445 
L 75.401345 62.048365 
L 75.675418 126.015441 
L 75.949491 53.707961 
L 76.223564 68.728897 
L 76.497636 56.504559 
L 76.771709 129.219212 
L 77.045782 114.725416 
L 77.319855 121.28287 
L 77.593927 121.547229 
L 77.868 92.524866 
L 78.142073 118.400412 
L 78.416145 117.071465 
L 78.690218 83.8418 
L 78.964291 112.187653 
L 79.238364 81.983082 
L 79.786509 61.782958 
L 80.060582 102.430608 
L 80.334655 93.913031 
L 80.608727 102.082408 
L 80.8828 71.780544 
L 81.430945 121.592705 
L 81.705018 100.945856 
L 81.979091 50.805209 
L 82.527236 128.9032 
L 82.801309 43.782011 
L 83.075382 122.489738 
L 83.349455 62.013442 
L 83.8976 117.095338 
L 84.171673 95.03501 
L 84.445745 124.508445 
L 84.719818 59.702647 
L 84.993891 119.094094 
L 85.267964 107.461314 
L 85.542036 104.267259 
L 85.816109 107.939587 
L 86.090182 99.674993 
L 86.364255 126.255056 
L 86.638327 115.862333 
L 86.9124 45.33254 
L 87.186473 47.8474 
L 87.460545 61.890992 
L 87.734618 126.463797 
L 88.008691 73.649245 
L 88.282764 62.001731 
L 88.556836 121.428618 
L 88.830909 97.301025 
L 89.104982 107.210867 
L 89.379055 108.064371 
L 89.653127 116.674551 
L 89.9272 47.746084 
L 90.201273 116.867376 
L 90.475345 54.586522 
L 90.749418 64.752081 
L 91.023491 55.438539 
L 91.297564 111.056154 
L 91.571636 95.691581 
L 91.845709 113.021566 
L 92.119782 96.625668 
L 92.393855 45.984071 
L 92.667927 130.379396 
L 92.942 94.138115 
L 93.216073 76.816406 
L 93.490145 88.166153 
L 93.764218 108.627826 
L 94.038291 56.086364 
L 94.312364 108.888487 
L 94.586436 123.116698 
L 94.860509 104.321483 
L 95.134582 119.1814 
L 95.408655 120.135143 
L 95.682727 83.143738 
L 95.9568 78.727305 
L 96.230873 104.374803 
L 96.504945 62.952224 
L 96.779018 111.079145 
L 97.053091 101.040851 
L 97.327164 119.845271 
L 97.601236 47.457979 
L 97.875309 118.958466 
L 98.149382 85.401518 
L 98.423455 99.740146 
L 98.697527 88.692061 
L 98.9716 45.781312 
L 99.245673 73.697733 
L 99.519745 66.840149 
L 99.793818 101.550575 
L 100.067891 106.211037 
L 100.341964 84.526947 
L 100.616036 50.338129 
L 100.890109 92.002553 
L 101.164182 89.11595 
L 101.438255 51.417538 
L 101.9864 117.957668 
L 102.260473 127.477136 
L 102.534545 66.022249 
L 102.808618 128.765694 
L 103.082691 62.991001 
L 103.356764 111.912219 
L 103.630836 75.276031 
L 103.904909 56.944965 
L 104.178982 55.820069 
L 104.453055 74.697466 
L 104.727127 121.822436 
L 105.0012 99.541787 
L 105.275273 112.215157 
L 105.549345 66.4681 
L 105.823418 93.454167 
L 106.097491 76.626723 
L 106.371564 47.896128 
L 106.919709 86.381442 
L 107.193782 126.353551 
L 107.467855 46.243442 
L 107.741927 74.342353 
L 108.016 73.812465 
L 108.290073 85.178125 
L 108.838218 121.065745 
L 109.112291 84.761826 
L 109.386364 99.439456 
L 109.660436 69.960124 
L 109.934509 65.163842 
L 110.208582 97.204194 
L 110.482655 68.602517 
L 110.756727 123.318602 
L 111.0308 53.535656 
L 111.304873 47.973085 
L 111.578945 95.571366 
L 111.853018 56.923026 
L 112.127091 112.600762 
L 112.401164 63.556754 
L 112.675236 46.525043 
L 112.949309 89.357921 
L 113.223382 45.069095 
L 113.497455 58.261068 
L 113.771527 105.942452 
L 114.0456 52.284659 
L 114.319673 122.80749 
L 114.593745 59.261392 
L 114.867818 71.918194 
L 115.141891 127.586455 
L 115.415964 127.034947 
L 115.690036 77.617487 
L 115.964109 68.464733 
L 116.238182 128.873794 
L 116.512255 73.517643 
L 116.786327 117.64571 
L 117.0604 102.167534 
L 117.334473 116.91776 
L 117.608545 88.994474 
L 117.882618 114.708899 
L 118.156691 96.220567 
L 118.430764 67.057089 
L 118.704836 65.964241 
L 118.978909 124.119995 
L 119.252982 77.456652 
L 119.527055 87.833165 
L 119.801127 59.685873 
L 120.0752 53.160093 
L 120.349273 71.55636 
L 120.623345 60.089629 
L 120.897418 107.093394 
L 121.445564 49.928101 
L 121.719636 92.198116 
L 121.993709 58.103961 
L 122.267782 86.048855 
L 122.541855 61.871435 
L 122.815927 106.969882 
L 123.09 74.01403 
L 123.364073 93.261246 
L 123.638145 125.470339 
L 123.912218 108.831633 
L 124.186291 81.806706 
L 124.460364 77.721603 
L 124.734436 92.006958 
L 125.008509 63.283852 
L 125.282582 110.459086 
L 125.556655 64.92474 
L 125.830727 101.144249 
L 126.1048 88.409384 
L 126.378873 67.850639 
L 126.652945 76.593723 
L 126.927018 64.711531 
L 127.201091 61.376619 
L 127.475164 76.65009 
L 127.749236 61.46049 
L 128.023309 64.833727 
L 128.297382 114.182984 
L 128.571455 76.147525 
L 128.845527 65.740255 
L 129.1196 125.852643 
L 129.393673 111.985953 
L 129.667745 122.190113 
L 129.941818 110.034486 
L 130.215891 122.747676 
L 130.489964 48.393377 
L 130.764036 122.392695 
L 131.038109 92.28178 
L 131.312182 45.17544 
L 131.586255 93.10593 
L 131.860327 79.656923 
L 132.1344 77.509757 
L 132.408473 72.465529 
L 132.682545 127.041599 
L 132.956618 45.278604 
L 133.230691 83.638077 
L 133.504764 60.138224 
L 133.778836 111.540181 
L 134.052909 73.271471 
L 134.326982 76.134008 
L 134.601055 105.629715 
L 134.875127 109.343328 
L 135.1492 76.942585 
L 135.423273 67.849146 
L 135.697345 47.183061 
L 135.971418 121.42195 
L 136.245491 103.189042 
L 136.519564 93.626009 
L 136.793636 101.08294 
L 137.067709 64.170649 
L 137.615855 115.665825 
L 137.889927 63.004871 
L 138.164 125.898225 
L 138.438073 75.087422 
L 138.712145 56.003342 
L 138.986218 93.336085 
L 139.260291 103.342242 
L 139.534364 71.600742 
L 139.808436 120.81662 
L 140.082509 87.818054 
L 140.356582 119.36331 
L 140.630655 95.802208 
L 140.904727 89.502791 
L 141.1788 102.644014 
L 141.452873 69.105501 
L 141.726945 113.101855 
L 142.001018 97.315252 
L 142.549164 122.158666 
L 142.823236 66.826485 
L 143.097309 64.457625 
L 143.371382 84.514926 
L 143.645455 128.490618 
L 144.1936 43.755932 
L 144.467673 56.239796 
L 144.741745 112.773524 
L 145.015818 117.561564 
L 145.289891 112.907976 
L 145.563964 44.169503 
L 145.838036 92.34889 
L 146.112109 47.532931 
L 146.386182 66.02237 
L 146.660255 71.531731 
L 146.934327 86.857785 
L 147.2084 76.755154 
L 147.482473 74.527709 
L 147.756545 110.121084 
L 148.304691 61.91143 
L 148.578764 75.081179 
L 148.852836 106.199017 
L 149.126909 70.220168 
L 149.400982 108.362415 
L 149.675055 113.432475 
L 150.2232 52.576258 
L 150.497273 111.718195 
L 150.771345 94.684737 
L 151.045418 121.48749 
L 151.319491 126.52681 
L 151.593564 47.121252 
L 151.867636 83.953738 
L 152.141709 91.870551 
L 152.415782 118.893265 
L 152.963927 84.106504 
L 153.238 129.183283 
L 153.512073 107.261802 
L 153.786145 105.968841 
L 154.060218 55.834942 
L 154.334291 71.285029 
L 154.608364 72.852283 
L 154.882436 65.389605 
L 155.156509 76.10108 
L 155.430582 62.897956 
L 155.704655 72.441635 
L 155.978727 66.23184 
L 156.2528 65.645621 
L 156.526873 45.539511 
L 156.800945 99.410839 
L 157.075018 122.690242 
L 157.349091 54.75779 
L 157.623164 72.885097 
L 158.171309 118.545041 
L 158.445382 101.046898 
L 158.719455 113.704641 
L 158.993527 118.595069 
L 159.2676 120.155236 
L 159.541673 45.118751 
L 159.815745 114.856734 
L 160.089818 67.606598 
L 160.363891 112.668194 
L 160.637964 102.286599 
L 160.912036 83.459993 
L 161.186109 51.009351 
L 161.460182 129.030435 
L 161.734255 60.127542 
L 162.008327 45.01157 
L 162.2824 92.394584 
L 162.556473 91.400295 
L 162.830545 82.42716 
L 163.104618 78.412985 
L 163.378691 119.613936 
L 163.652764 121.076825 
L 163.926836 81.759984 
L 164.200909 122.417334 
L 164.749055 47.85637 
L 165.023127 93.892772 
L 165.571273 50.000249 
L 165.845345 44.758022 
L 166.119418 48.686922 
L 166.393491 49.219365 
L 166.667564 112.622317 
L 167.215709 78.464412 
L 167.489782 90.216079 
L 167.763855 112.662268 
L 168.037927 123.626248 
L 168.312 88.421663 
L 168.586073 109.985707 
L 168.860145 112.454194 
L 169.134218 95.892658 
L 169.408291 50.259236 
L 169.682364 93.740215 
L 169.956436 73.800978 
L 170.230509 89.536839 
L 170.504582 129.387027 
L 170.778655 125.274745 
L 171.052727 117.054304 
L 171.3268 119.002037 
L 171.600873 118.297938 
L 171.874945 67.449908 
L 172.423091 110.394282 
L 172.697164 52.024153 
L 172.971236 102.232593 
L 173.245309 64.632037 
L 173.519382 101.405411 
L 173.793455 95.335395 
L 174.067527 55.94038 
L 174.3416 92.126066 
L 174.615673 101.551739 
L 174.889745 52.146652 
L 175.437891 129.185182 
L 175.986036 65.857598 
L 176.260109 78.34719 
L 176.534182 84.024408 
L 176.808255 100.366234 
L 177.082327 47.559873 
L 177.630473 117.924845 
L 177.904545 57.152609 
L 178.178618 93.738776 
L 178.452691 109.498561 
L 178.726764 81.600924 
L 179.000836 94.637766 
L 179.274909 69.720647 
L 179.823055 88.45773 
L 180.097127 90.319691 
L 180.3712 84.670618 
L 180.645273 55.935257 
L 180.919345 60.985496 
L 181.193418 93.866905 
L 181.467491 86.20245 
L 181.741564 63.499153 
L 182.015636 56.193115 
L 182.289709 54.758613 
L 182.563782 108.351027 
L 182.837855 110.483093 
L 183.111927 46.529328 
L 183.386 93.545241 
L 183.660073 88.705164 
L 183.934145 120.651033 
L 184.208218 103.496447 
L 184.482291 115.262325 
L 184.756364 74.574635 
L 185.030436 97.865061 
L 185.304509 104.363805 
L 185.578582 85.452639 
L 185.852655 111.956332 
L 186.126727 53.648117 
L 186.4008 76.004491 
L 186.674873 61.318847 
L 186.948945 127.559084 
L 187.223018 58.387814 
L 187.497091 91.789593 
L 187.771164 64.98753 
L 188.045236 105.45096 
L 188.319309 107.564485 
L 188.593382 107.743139 
L 188.867455 69.63413 
L 189.141527 125.818628 
L 189.4156 77.617263 
L 189.689673 130.250715 
L 189.963745 63.213315 
L 190.237818 116.292659 
L 190.511891 67.290909 
L 190.785964 123.888368 
L 191.060036 59.556935 
L 191.334109 64.295213 
L 191.608182 62.41499 
L 191.882255 116.199193 
L 192.156327 54.995478 
L 192.4304 66.929473 
L 192.704473 110.535361 
L 192.978545 128.219791 
L 193.252618 82.056762 
L 193.526691 111.272124 
L 193.800764 128.146667 
L 194.074836 56.061168 
L 194.348909 129.811741 
L 194.622982 76.656633 
L 194.897055 97.781305 
L 195.171127 58.725199 
L 195.4452 108.235978 
L 195.719273 72.928699 
L 195.993345 52.454666 
L 196.267418 77.818158 
L 196.541491 46.502585 
L 196.815564 95.244485 
L 197.089636 91.449162 
L 197.363709 92.628761 
L 197.637782 84.196055 
L 197.911855 86.712544 
L 198.185927 46.231532 
L 198.46 75.16828 
L 198.734073 91.737538 
L 199.008145 72.016106 
L 199.282218 105.564204 
L 199.556291 76.199627 
L 199.830364 123.253405 
L 200.104436 107.944938 
L 200.378509 71.379285 
L 200.652582 85.182268 
L 200.926655 80.374283 
L 201.200727 128.468125 
L 201.4748 43.861226 
L 202.297018 119.589362 
L 202.571091 100.244475 
L 202.845164 106.47073 
L 203.119236 60.300228 
L 203.393309 57.409932 
L 203.667382 56.630982 
L 203.941455 130.498732 
L 204.215527 93.966711 
L 204.763673 126.40051 
L 205.037745 63.551276 
L 205.311818 102.893943 
L 205.585891 61.248436 
L 205.859964 108.100993 
L 206.134036 87.024613 
L 206.408109 110.19755 
L 206.682182 103.512722 
L 206.956255 81.218341 
L 207.5044 118.919088 
L 207.778473 113.739417 
L 208.052545 101.119044 
L 208.326618 103.578303 
L 208.600691 92.623721 
L 208.874764 51.82667 
L 209.148836 100.467567 
L 209.422909 74.03001 
L 209.696982 72.411834 
L 209.971055 45.745323 
L 210.245127 53.427993 
L 210.5192 117.966329 
L 211.067345 59.431071 
L 211.615491 102.268522 
L 211.889564 91.10788 
L 212.163636 69.899721 
L 212.437709 125.095616 
L 212.711782 59.031958 
L 212.985855 60.76799 
L 213.259927 71.098428 
L 213.534 112.565677 
L 213.808073 122.602125 
L 214.082145 50.584807 
L 214.356218 92.674791 
L 214.630291 54.48448 
L 214.904364 59.728664 
L 215.178436 107.175655 
L 215.452509 101.402713 
L 215.726582 45.299592 
L 216.000655 51.48285 
L 216.274727 103.184276 
L 216.5488 108.323728 
L 216.822873 103.406184 
L 217.096945 117.856544 
L 217.371018 106.27654 
L 217.645091 55.382147 
L 217.919164 66.871319 
L 218.193236 46.222355 
L 218.467309 81.952565 
L 218.741382 52.515457 
L 219.289527 85.379574 
L 219.5636 72.165111 
L 219.837673 95.348307 
L 220.385818 70.60891 
L 220.659891 96.145595 
L 220.933964 59.792313 
L 221.208036 121.729949 
L 221.482109 107.589648 
L 222.030255 62.027932 
L 222.5784 127.518029 
L 223.400618 49.095922 
L 223.674691 45.769146 
L 223.948764 120.13011 
L 224.222836 65.012722 
L 224.496909 94.184954 
L 224.770982 72.770589 
L 225.045055 94.474834 
L 225.319127 50.532514 
L 225.5932 88.784407 
L 225.867273 91.243236 
L 226.141345 90.559736 
L 226.415418 54.170373 
L 226.689491 84.992915 
L 227.237636 52.934896 
L 227.511709 125.835443 
L 227.785782 113.787367 
L 228.059855 48.353005 
L 228.333927 128.803566 
L 228.882073 80.970853 
L 229.156145 121.450024 
L 229.430218 105.105012 
L 229.704291 49.132165 
L 229.978364 57.185905 
L 230.252436 69.943993 
L 230.526509 118.802175 
L 230.800582 70.231769 
L 231.074655 122.977477 
L 231.348727 88.787297 
L 231.6228 79.454136 
L 231.896873 124.566092 
L 232.170945 111.428662 
L 232.445018 92.825255 
L 232.719091 84.365129 
L 232.993164 46.832525 
L 233.541309 121.839997 
L 233.815382 98.456193 
L 234.089455 86.948151 
L 234.363527 80.168742 
L 234.6376 54.225279 
L 234.911673 60.88823 
L 235.185745 107.907109 
L 235.459818 52.740751 
L 235.733891 44.602281 
L 236.007964 72.818406 
L 236.282036 125.60179 
L 236.556109 88.378015 
L 237.104255 127.849222 
L 237.378327 112.658796 
L 237.6524 61.133379 
L 237.926473 47.31907 
L 238.200545 115.382458 
L 238.474618 69.883086 
L 238.748691 103.122288 
L 239.022764 82.542213 
L 239.296836 45.876959 
L 239.570909 128.91322 
L 239.844982 93.530781 
L 240.393127 52.928824 
L 240.6672 95.707335 
L 240.941273 112.873267 
L 241.215345 50.152039 
L 241.763491 89.619568 
L 242.037564 53.509317 
L 242.311636 110.214611 
L 242.585709 44.540834 
L 242.859782 127.890403 
L 243.133855 46.570136 
L 243.407927 109.646181 
L 243.682 128.177319 
L 243.956073 94.796872 
L 244.230145 84.232939 
L 244.504218 62.60343 
L 244.778291 62.530806 
L 245.052364 119.714126 
L 245.326436 88.468824 
L 245.600509 91.068783 
L 245.874582 55.198578 
L 246.148655 86.691848 
L 246.422727 98.330927 
L 246.6968 75.596067 
L 246.970873 117.308867 
L 247.244945 72.552303 
L 247.519018 65.190923 
L 247.793091 84.664935 
L 248.067164 114.45797 
L 248.341236 103.902729 
L 248.615309 110.172801 
L 248.889382 44.530419 
L 249.163455 73.855666 
L 249.437527 128.166299 
L 249.7116 65.011662 
L 249.985673 69.219097 
L 250.259745 83.247866 
L 250.533818 112.091562 
L 251.081964 53.192639 
L 251.356036 68.561366 
L 251.630109 55.251958 
L 251.904182 68.69841 
L 252.178255 122.431363 
L 252.452327 109.543074 
L 252.7264 57.50332 
L 253.000473 120.031626 
L 253.274545 69.868124 
L 253.822691 119.939125 
L 254.370836 56.209383 
L 254.918982 117.672324 
L 255.193055 118.203989 
L 255.467127 106.115914 
L 255.7412 57.292718 
L 256.289345 95.035658 
L 256.563418 105.522023 
L 256.837491 61.767407 
L 257.111564 49.117151 
L 257.385636 95.872004 
L 257.659709 97.105968 
L 257.933782 58.717593 
L 258.207855 66.463913 
L 258.481927 119.986007 
L 258.756 51.687367 
L 259.030073 91.200196 
L 259.304145 66.576484 
L 259.578218 74.552115 
L 259.852291 89.765678 
L 260.126364 61.825401 
L 260.400436 116.469432 
L 260.674509 129.185816 
L 261.222655 86.432029 
L 261.496727 79.585182 
L 261.7708 129.494547 
L 262.044873 121.88346 
L 262.318945 128.146054 
L 262.593018 68.931194 
L 262.867091 101.239944 
L 263.141164 106.922293 
L 263.415236 69.595954 
L 263.689309 83.540943 
L 263.963382 54.889021 
L 264.237455 78.410343 
L 264.511527 59.884044 
L 264.7856 106.013632 
L 265.059673 50.740258 
L 265.333745 49.111563 
L 265.607818 115.678732 
L 265.881891 96.974959 
L 266.155964 44.453769 
L 266.430036 83.393991 
L 266.704109 80.759467 
L 266.978182 51.247256 
L 267.252255 55.375633 
L 267.526327 112.24468 
L 267.8004 74.422744 
L 268.074473 126.783901 
L 268.348545 55.16832 
L 268.622618 65.730713 
L 268.896691 84.403548 
L 269.170764 94.6821 
L 269.444836 100.006211 
L 269.718909 130.357086 
L 269.992982 75.633881 
L 270.267055 107.35032 
L 270.541127 116.43274 
L 270.8152 120.144883 
L 271.089273 84.853981 
L 271.363345 119.830346 
L 271.637418 130.251443 
L 271.911491 100.250829 
L 272.185564 129.950441 
L 272.459636 55.605216 
L 273.281855 125.028572 
L 273.555927 83.37809 
L 273.83 127.652437 
L 274.104073 62.05509 
L 274.378145 87.813833 
L 274.652218 94.057786 
L 274.926291 63.216267 
L 275.200364 93.573022 
L 275.474436 77.282029 
L 275.748509 71.985385 
L 276.022582 49.364849 
L 276.296655 127.215426 
L 276.8448 86.901237 
L 277.118873 125.041079 
L 277.392945 89.654001 
L 277.667018 113.882759 
L 278.215164 47.410271 
L 278.489236 104.968088 
L 278.763309 60.805902 
L 279.037382 123.028813 
L 279.311455 78.524699 
L 279.585527 53.261882 
L 279.8596 44.900319 
L 280.133673 100.336091 
L 280.407745 115.297567 
L 280.681818 76.43615 
L 280.955891 93.482986 
L 281.229964 45.984389 
L 281.778109 121.275976 
L 282.052182 72.672152 
L 282.326255 109.533435 
L 282.600327 117.729944 
L 282.8744 61.139361 
L 283.148473 51.78475 
L 283.422545 50.946523 
L 283.696618 126.426972 
L 284.244764 51.998856 
L 284.518836 130.308943 
L 284.792909 67.809382 
L 285.066982 65.13685 
L 285.341055 124.941046 
L 285.615127 109.755016 
L 285.8892 127.426476 
L 286.163273 55.48463 
L 286.437345 57.086112 
L 286.711418 77.635167 
L 286.985491 86.753883 
L 287.259564 106.339833 
L 287.533636 102.301752 
L 288.081782 69.112507 
L 288.355855 75.345735 
L 288.629927 111.47956 
L 289.178073 97.526291 
L 289.452145 55.489977 
L 289.726218 77.69776 
L 290.000291 126.665962 
L 290.548436 45.342734 
L 290.822509 95.306876 
L 291.096582 51.370241 
L 291.370655 72.656353 
L 291.644727 61.974519 
L 291.9188 70.59376 
L 292.192873 115.059488 
L 292.466945 44.702663 
L 292.741018 83.681462 
L 293.015091 55.396382 
L 293.289164 127.244864 
L 293.563236 113.06535 
L 293.837309 55.531921 
L 294.111382 51.392644 
L 294.385455 56.192317 
L 294.659527 54.123433 
L 294.9336 97.972218 
L 295.207673 44.0934 
L 295.481745 62.605128 
L 295.755818 94.224243 
L 296.029891 99.756835 
L 296.303964 117.110066 
L 296.852109 46.580514 
L 297.400255 121.725653 
L 297.674327 129.737645 
L 297.9484 57.298372 
L 298.222473 51.382836 
L 298.496545 54.22302 
L 298.770618 70.700822 
L 299.044691 104.443727 
L 299.318764 49.124451 
L 299.866909 88.610307 
L 300.140982 44.51799 
L 300.415055 86.502726 
L 300.689127 106.347925 
L 300.9632 70.573337 
L 301.237273 95.031554 
L 301.511345 46.79548 
L 301.785418 45.969189 
L 302.059491 86.369008 
L 302.333564 47.254439 
L 302.607636 57.299048 
L 302.881709 96.890182 
L 303.155782 62.562972 
L 303.429855 44.810117 
L 303.703927 102.231604 
L 303.978 120.155208 
L 304.252073 47.950929 
L 304.526145 123.525745 
L 304.800218 92.674366 
L 305.074291 76.286734 
L 305.348364 119.239194 
L 305.622436 64.515712 
L 305.896509 53.542834 
L 306.170582 64.721784 
L 306.444655 55.417494 
L 306.718727 95.969383 
L 306.9928 108.734227 
L 307.266873 52.711023 
L 307.540945 109.842334 
L 308.089091 91.436474 
L 308.363164 94.115155 
L 308.637236 48.579642 
L 308.911309 73.816269 
L 309.185382 128.566826 
L 309.459455 129.467733 
L 309.733527 129.28247 
L 310.0076 60.209464 
L 310.281673 86.030295 
L 310.555745 68.50414 
L 310.829818 58.583232 
L 311.103891 70.798895 
L 311.377964 60.837048 
L 311.652036 123.21904 
L 311.926109 64.633471 
L 312.200182 106.580067 
L 312.474255 96.310607 
L 312.748327 90.729248 
L 313.0224 91.594864 
L 313.296473 90.225572 
L 313.570545 67.251035 
L 313.844618 63.626133 
L 314.118691 53.004321 
L 314.392764 67.521808 
L 314.666836 95.738937 
L 314.940909 79.278543 
L 315.214982 104.713765 
L 315.489055 87.971633 
L 315.763127 88.164563 
L 316.0372 113.661532 
L 316.311273 48.001502 
L 316.585345 44.296918 
L 316.859418 63.5305 
L 317.133491 104.857065 
L 317.407564 102.025786 
L 317.681636 119.617109 
L 317.955709 88.470789 
L 318.229782 121.622221 
L 318.777927 61.359122 
L 319.052 87.463146 
L 319.326073 45.769042 
L 319.600145 95.609896 
L 319.874218 58.053497 
L 320.148291 47.409047 
L 320.696436 72.774328 
L 320.970509 64.159173 
L 321.244582 92.291581 
L 321.518655 71.355398 
L 321.792727 89.38201 
L 322.0668 90.722105 
L 322.340873 79.547818 
L 322.614945 97.007529 
L 322.889018 94.902675 
L 323.163091 79.646437 
L 323.711236 71.329439 
L 323.985309 79.251539 
L 324.259382 111.50238 
L 324.533455 58.618283 
L 324.807527 61.054069 
L 325.0816 54.900005 
L 325.629745 99.393104 
L 325.903818 43.779743 
L 326.177891 129.104765 
L 326.451964 118.550927 
L 326.726036 53.032062 
L 327.000109 126.817718 
L 327.274182 105.951815 
L 327.548255 119.456067 
L 327.822327 95.515216 
L 328.0964 122.30659 
L 328.370473 57.120925 
L 328.644545 82.496445 
L 328.918618 121.824684 
L 329.192691 48.627674 
L 329.466764 121.495202 
L 329.740836 95.559172 
L 330.014909 118.066923 
L 330.288982 112.284405 
L 330.563055 85.782796 
L 330.837127 85.289669 
L 331.1112 73.024526 
L 331.385273 90.99933 
L 331.659345 77.77407 
L 331.933418 114.294508 
L 332.481564 120.638177 
L 332.755636 126.479844 
L 333.029709 123.201981 
L 333.303782 59.139772 
L 333.577855 45.220071 
L 333.851927 121.827699 
L 334.126 45.771475 
L 334.400073 69.045328 
L 334.674145 120.971841 
L 334.948218 127.256998 
L 335.222291 64.932745 
L 335.222291 64.932745 
" clip-path="url(#p6621b717ba)" style="fill: none; stroke: #1f77b4; stroke-width: 1.5; stroke-linecap: square"/>
   </g>
   <g id="line2d_14">
    <path d="M 61.423636 87.16 
L 335.496364 87.16 
" clip-path="url(#p6621b717ba)" style="fill: none; stroke-dasharray: 7.4,3.2; stroke-dashoffset: 0; stroke: #ff0000; stroke-width: 2"/>
   </g>
   <g id="line2d_15">
    <path d="M 192.978545 87.16 
L 203.941455 87.16 
" clip-path="url(#p6621b717ba)" style="fill: none; stroke: #000000; stroke-width: 2; stroke-linecap: square"/>
   </g>
   <g id="line2d_16">
    <path d="M 192.978545 43.72 
L 203.941455 43.72 
" clip-path="url(#p6621b717ba)" style="fill: none; stroke: #000000; stroke-width: 2; stroke-linecap: square"/>
   </g>
   <g id="line2d_17">
    <path d="M 198.46 87.16 
L 198.46 43.72 
" clip-path="url(#p6621b717ba)" style="fill: none; stroke: #000000; stroke-width: 2; stroke-linecap: square"/>
   </g>
   <g id="line2d_18">
    <path d="M 192.978545 159.56 
L 203.941455 159.56 
" clip-path="url(#p6621b717ba)" style="fill: none; stroke: #000000; stroke-width: 2; stroke-linecap: square"/>
   </g>
   <g id="line2d_19">
    <path d="M 198.46 159.56 
L 198.46 87.16 
" clip-path="url(#p6621b717ba)" style="fill: none; stroke: #000000; stroke-width: 2; stroke-linecap: square"/>
   </g>
   <g id="patch_3">
    <path d="M 47.72 174.04 
L 47.72 14.76 
" style="fill: none; stroke: #000000; stroke-width: 0.8; stroke-linejoin: miter; stroke-linecap: square"/>
   </g>
   <g id="patch_4">
    <path d="M 349.2 174.04 
L 349.2 14.76 
" style="fill: none; stroke: #000000; stroke-width: 0.8; stroke-linejoin: miter; stroke-linecap: square"/>
   </g>
   <g id="patch_5">
    <path d="M 47.72 174.04 
L 349.2 174.04 
" style="fill: none; stroke: #000000; stroke-width: 0.8; stroke-linejoin: miter; stroke-linecap: square"/>
   </g>
   <g id="patch_6">
    <path d="M 47.72 14.76 
L 349.2 14.76 
" style="fill: none; stroke: #000000; stroke-width: 0.8; stroke-linejoin: miter; stroke-linecap: square"/>
   </g>
   <g id="text_15">
    <g id="patch_7">
     <path d="M 205.422909 71.519688 
L 235.015097 71.519688 
L 235.015097 53.841563 
L 205.422909 53.841563 
z
" style="fill: #ffffff; opacity: 0.8; stroke: #000000; stroke-linejoin: miter"/>
    </g>
    <!-- gain -->
    <g transform="translate(209.422909 65.44) scale(0.1 -0.1)">
     <use xlink:href="#DejaVuSans-67"/>
     <use xlink:href="#DejaVuSans-61" x="63.476562"/>
     <use xlink:href="#DejaVuSans-69" x="124.755859"/>
     <use xlink:href="#DejaVuSans-6e" x="152.539062"/>
    </g>
   </g>
   <g id="text_16">
    <g id="patch_8">
     <path d="M 205.422909 129.439688 
L 241.865097 129.439688 
L 241.865097 111.761563 
L 205.422909 111.761563 
z
" style="fill: #ffffff; opacity: 0.8; stroke: #000000; stroke-linejoin: miter"/>
    </g>
    <!-- offset -->
    <g transform="translate(209.422909 123.36) scale(0.1 -0.1)">
     <defs>
      <path id="DejaVuSans-6f" d="M 1959 3097 
Q 1497 3097 1228 2736 
Q 959 2375 959 1747 
Q 959 1119 1226 758 
Q 1494 397 1959 397 
Q 2419 397 2687 759 
Q 2956 1122 2956 1747 
Q 2956 2369 2687 2733 
Q 2419 3097 1959 3097 
z
M 1959 3584 
Q 2709 3584 3137 3096 
Q 3566 2609 3566 1747 
Q 3566 888 3137 398 
Q 2709 -91 1959 -91 
Q 1206 -91 779 398 
Q 353 888 353 1747 
Q 353 2609 779 3096 
Q 1206 3584 1959 3584 
z
" transform="scale(0.015625)"/>
      <path id="DejaVuSans-66" d="M 2375 4863 
L 2375 4384 
L 1825 4384 
Q 1516 4384 1395 4259 
Q 1275 4134 1275 3809 
L 1275 3500 
L 2222 3500 
L 2222 3053 
L 1275 3053 
L 1275 0 
L 697 0 
L 697 3053 
L 147 3053 
L 147 3500 
L 697 3500 
L 697 3744 
Q 697 4328 969 4595 
Q 1241 4863 1831 4863 
L 2375 4863 
z
" transform="scale(0.015625)"/>
     </defs>
     <use xlink:href="#DejaVuSans-6f"/>
     <use xlink:href="#DejaVuSans-66" x="61.181641"/>
     <use xlink:href="#DejaVuSans-66" x="96.386719"/>
     <use xlink:href="#DejaVuSans-73" x="131.591797"/>
     <use xlink:href="#DejaVuSans-65" x="183.691406"/>
     <use xlink:href="#DejaVuSans-74" x="245.214844"/>
    </g>
   </g>
  </g>
 </g>
 <defs>
  <clipPath id="p6621b717ba">
   <rect x="47.72" y="14.76" width="301.48" height="159.28"/>
  </clipPath>
 </defs>
</svg>
