<?xml version="1.0" encoding="utf-8" standalone="no"?>
<!DOCTYPE svg PUBLIC "-//W3C//DTD SVG 1.1//EN"
  "http://www.w3.org/Graphics/SVG/1.1/DTD/svg11.dtd">
<svg xmlns:xlink="http://www.w3.org/1999/xlink" width="360pt" height="216pt" viewBox="0 0 360 216" xmlns="http://www.w3.org/2000/svg" version="1.1">
 <metadata>
  <rdf:RDF xmlns:dc="http://purl.org/dc/elements/1.1/" xmlns:cc="http://creativecommons.org/ns#" xmlns:rdf="http://www.w3.org/1999/02/22-rdf-syntax-ns#">
   <cc:Work>
    <dc:type rdf:resource="http://purl.org/dc/dcmitype/StillImage"/>
    <dc:date>2025-01-02T23:00:43.357512</dc:date>
    <dc:format>image/svg+xml</dc:format>
    <dc:creator>
     <cc:Agent>
      <dc:title>Matplotlib v3.7.5, https://matplotlib.org/</dc:title>
     </cc:Agent>
    </dc:creator>
   </cc:Work>
  </rdf:RDF>
 </metadata>
 <defs>
  <style type="text/css">*{stroke-linejoin: round; stroke-linecap: butt}</style>
 </defs>
 <g id="figure_1">
  <g id="patch_1">
   <path d="M 0 216 
L 360 216 
L 360 0 
L 0 0 
z
" style="fill: #ffffff"/>
  </g>
  <g id="axes_1">
   <g id="patch_2">
    <path d="M 47.72 174.04 
L 349.2 174.04 
L 349.2 14.76 
L 47.72 14.76 
z
" style="fill: #ffffff"/>
   </g>
   <g id="matplotlib.axis_1">
    <g id="xtick_1">
     <g id="line2d_1">
      <defs>
       <path id="m2424fe8125" d="M 0 0 
L 0 3.5 
" style="stroke: #000000; stroke-width: 0.8"/>
      </defs>
      <g>
       <use xlink:href="#m2424fe8125" x="61.423636" y="174.04" style="stroke: #000000; stroke-width: 0.8"/>
      </g>
     </g>
     <g id="text_1">
      <!-- 0.0 -->
      <g transform="translate(53.472074 188.638438) scale(0.1 -0.1)">
       <defs>
        <path id="DejaVuSans-30" d="M 2034 4250 
Q 1547 4250 1301 3770 
Q 1056 3291 1056 2328 
Q 1056 1369 1301 889 
Q 1547 409 2034 409 
Q 2525 409 2770 889 
Q 3016 1369 3016 2328 
Q 3016 3291 2770 3770 
Q 2525 4250 2034 4250 
z
M 2034 4750 
Q 2819 4750 3233 4129 
Q 3647 3509 3647 2328 
Q 3647 1150 3233 529 
Q 2819 -91 2034 -91 
Q 1250 -91 836 529 
Q 422 1150 422 2328 
Q 422 3509 836 4129 
Q 1250 4750 2034 4750 
z
" transform="scale(0.015625)"/>
        <path id="DejaVuSans-2e" d="M 684 794 
L 1344 794 
L 1344 0 
L 684 0 
L 684 794 
z
" transform="scale(0.015625)"/>
       </defs>
       <use xlink:href="#DejaVuSans-30"/>
       <use xlink:href="#DejaVuSans-2e" x="63.623047"/>
       <use xlink:href="#DejaVuSans-30" x="95.410156"/>
      </g>
     </g>
    </g>
    <g id="xtick_2">
     <g id="line2d_2">
      <g>
       <use xlink:href="#m2424fe8125" x="116.238182" y="174.04" style="stroke: #000000; stroke-width: 0.8"/>
      </g>
     </g>
     <g id="text_2">
      <!-- 0.2 -->
      <g transform="translate(108.286619 188.638438) scale(0.1 -0.1)">
       <defs>
        <path id="DejaVuSans-32" d="M 1228 531 
L 3431 531 
L 3431 0 
L 469 0 
L 469 531 
Q 828 903 1448 1529 
Q 2069 2156 2228 2338 
Q 2531 2678 2651 2914 
Q 2772 3150 2772 3378 
Q 2772 3750 2511 3984 
Q 2250 4219 1831 4219 
Q 1534 4219 1204 4116 
Q 875 4013 500 3803 
L 500 4441 
Q 881 4594 1212 4672 
Q 1544 4750 1819 4750 
Q 2544 4750 2975 4387 
Q 3406 4025 3406 3419 
Q 3406 3131 3298 2873 
Q 3191 2616 2906 2266 
Q 2828 2175 2409 1742 
Q 1991 1309 1228 531 
z
" transform="scale(0.015625)"/>
       </defs>
       <use xlink:href="#DejaVuSans-30"/>
       <use xlink:href="#DejaVuSans-2e" x="63.623047"/>
       <use xlink:href="#DejaVuSans-32" x="95.410156"/>
      </g>
     </g>
    </g>
    <g id="xtick_3">
     <g id="line2d_3">
      <g>
       <use xlink:href="#m2424fe8125" x="171.052727" y="174.04" style="stroke: #000000; stroke-width: 0.8"/>
      </g>
     </g>
     <g id="text_3">
      <!-- 0.4 -->
      <g transform="translate(163.101165 188.638438) scale(0.1 -0.1)">
       <defs>
        <path id="DejaVuSans-34" d="M 2419 4116 
L 825 1625 
L 2419 1625 
L 2419 4116 
z
M 2253 4666 
L 3047 4666 
L 3047 1625 
L 3713 1625 
L 3713 1100 
L 3047 1100 
L 3047 0 
L 2419 0 
L 2419 1100 
L 313 1100 
L 313 1709 
L 2253 4666 
z
" transform="scale(0.015625)"/>
       </defs>
       <use xlink:href="#DejaVuSans-30"/>
       <use xlink:href="#DejaVuSans-2e" x="63.623047"/>
       <use xlink:href="#DejaVuSans-34" x="95.410156"/>
      </g>
     </g>
    </g>
    <g id="xtick_4">
     <g id="line2d_4">
      <g>
       <use xlink:href="#m2424fe8125" x="225.867273" y="174.04" style="stroke: #000000; stroke-width: 0.8"/>
      </g>
     </g>
     <g id="text_4">
      <!-- 0.6 -->
      <g transform="translate(217.91571 188.638438) scale(0.1 -0.1)">
       <defs>
        <path id="DejaVuSans-36" d="M 2113 2584 
Q 1688 2584 1439 2293 
Q 1191 2003 1191 1497 
Q 1191 994 1439 701 
Q 1688 409 2113 409 
Q 2538 409 2786 701 
Q 3034 994 3034 1497 
Q 3034 2003 2786 2293 
Q 2538 2584 2113 2584 
z
M 3366 4563 
L 3366 3988 
Q 3128 4100 2886 4159 
Q 2644 4219 2406 4219 
Q 1781 4219 1451 3797 
Q 1122 3375 1075 2522 
Q 1259 2794 1537 2939 
Q 1816 3084 2150 3084 
Q 2853 3084 3261 2657 
Q 3669 2231 3669 1497 
Q 3669 778 3244 343 
Q 2819 -91 2113 -91 
Q 1303 -91 875 529 
Q 447 1150 447 2328 
Q 447 3434 972 4092 
Q 1497 4750 2381 4750 
Q 2619 4750 2861 4703 
Q 3103 4656 3366 4563 
z
" transform="scale(0.015625)"/>
       </defs>
       <use xlink:href="#DejaVuSans-30"/>
       <use xlink:href="#DejaVuSans-2e" x="63.623047"/>
       <use xlink:href="#DejaVuSans-36" x="95.410156"/>
      </g>
     </g>
    </g>
    <g id="xtick_5">
     <g id="line2d_5">
      <g>
       <use xlink:href="#m2424fe8125" x="280.681818" y="174.04" style="stroke: #000000; stroke-width: 0.8"/>
      </g>
     </g>
     <g id="text_5">
      <!-- 0.8 -->
      <g transform="translate(272.730256 188.638438) scale(0.1 -0.1)">
       <defs>
        <path id="DejaVuSans-38" d="M 2034 2216 
Q 1584 2216 1326 1975 
Q 1069 1734 1069 1313 
Q 1069 891 1326 650 
Q 1584 409 2034 409 
Q 2484 409 2743 651 
Q 3003 894 3003 1313 
Q 3003 1734 2745 1975 
Q 2488 2216 2034 2216 
z
M 1403 2484 
Q 997 2584 770 2862 
Q 544 3141 544 3541 
Q 544 4100 942 4425 
Q 1341 4750 2034 4750 
Q 2731 4750 3128 4425 
Q 3525 4100 3525 3541 
Q 3525 3141 3298 2862 
Q 3072 2584 2669 2484 
Q 3125 2378 3379 2068 
Q 3634 1759 3634 1313 
Q 3634 634 3220 271 
Q 2806 -91 2034 -91 
Q 1263 -91 848 271 
Q 434 634 434 1313 
Q 434 1759 690 2068 
Q 947 2378 1403 2484 
z
M 1172 3481 
Q 1172 3119 1398 2916 
Q 1625 2713 2034 2713 
Q 2441 2713 2670 2916 
Q 2900 3119 2900 3481 
Q 2900 3844 2670 4047 
Q 2441 4250 2034 4250 
Q 1625 4250 1398 4047 
Q 1172 3844 1172 3481 
z
" transform="scale(0.015625)"/>
       </defs>
       <use xlink:href="#DejaVuSans-30"/>
       <use xlink:href="#DejaVuSans-2e" x="63.623047"/>
       <use xlink:href="#DejaVuSans-38" x="95.410156"/>
      </g>
     </g>
    </g>
    <g id="xtick_6">
     <g id="line2d_6">
      <g>
       <use xlink:href="#m2424fe8125" x="335.496364" y="174.04" style="stroke: #000000; stroke-width: 0.8"/>
      </g>
     </g>
     <g id="text_6">
      <!-- 1.0 -->
      <g transform="translate(327.544801 188.638438) scale(0.1 -0.1)">
       <defs>
        <path id="DejaVuSans-31" d="M 794 531 
L 1825 531 
L 1825 4091 
L 703 3866 
L 703 4441 
L 1819 4666 
L 2450 4666 
L 2450 531 
L 3481 531 
L 3481 0 
L 794 0 
L 794 531 
z
" transform="scale(0.015625)"/>
       </defs>
       <use xlink:href="#DejaVuSans-31"/>
       <use xlink:href="#DejaVuSans-2e" x="63.623047"/>
       <use xlink:href="#DejaVuSans-30" x="95.410156"/>
      </g>
     </g>
    </g>
    <g id="text_7">
     <!-- Time (sec) -->
     <g transform="translate(172.305312 202.316563) scale(0.1 -0.1)">
      <defs>
       <path id="DejaVuSans-54" d="M -19 4666 
L 3928 4666 
L 3928 4134 
L 2272 4134 
L 2272 0 
L 1638 0 
L 1638 4134 
L -19 4134 
L -19 4666 
z
" transform="scale(0.015625)"/>
       <path id="DejaVuSans-69" d="M 603 3500 
L 1178 3500 
L 1178 0 
L 603 0 
L 603 3500 
z
M 603 4863 
L 1178 4863 
L 1178 4134 
L 603 4134 
L 603 4863 
z
" transform="scale(0.015625)"/>
       <path id="DejaVuSans-6d" d="M 3328 2828 
Q 3544 3216 3844 3400 
Q 4144 3584 4550 3584 
Q 5097 3584 5394 3201 
Q 5691 2819 5691 2113 
L 5691 0 
L 5113 0 
L 5113 2094 
Q 5113 2597 4934 2840 
Q 4756 3084 4391 3084 
Q 3944 3084 3684 2787 
Q 3425 2491 3425 1978 
L 3425 0 
L 2847 0 
L 2847 2094 
Q 2847 2600 2669 2842 
Q 2491 3084 2119 3084 
Q 1678 3084 1418 2786 
Q 1159 2488 1159 1978 
L 1159 0 
L 581 0 
L 581 3500 
L 1159 3500 
L 1159 2956 
Q 1356 3278 1631 3431 
Q 1906 3584 2284 3584 
Q 2666 3584 2933 3390 
Q 3200 3197 3328 2828 
z
" transform="scale(0.015625)"/>
       <path id="DejaVuSans-65" d="M 3597 1894 
L 3597 1613 
L 953 1613 
Q 991 1019 1311 708 
Q 1631 397 2203 397 
Q 2534 397 2845 478 
Q 3156 559 3463 722 
L 3463 178 
Q 3153 47 2828 -22 
Q 2503 -91 2169 -91 
Q 1331 -91 842 396 
Q 353 884 353 1716 
Q 353 2575 817 3079 
Q 1281 3584 2069 3584 
Q 2775 3584 3186 3129 
Q 3597 2675 3597 1894 
z
M 3022 2063 
Q 3016 2534 2758 2815 
Q 2500 3097 2075 3097 
Q 1594 3097 1305 2825 
Q 1016 2553 972 2059 
L 3022 2063 
z
" transform="scale(0.015625)"/>
       <path id="DejaVuSans-20" transform="scale(0.015625)"/>
       <path id="DejaVuSans-28" d="M 1984 4856 
Q 1566 4138 1362 3434 
Q 1159 2731 1159 2009 
Q 1159 1288 1364 580 
Q 1569 -128 1984 -844 
L 1484 -844 
Q 1016 -109 783 600 
Q 550 1309 550 2009 
Q 550 2706 781 3412 
Q 1013 4119 1484 4856 
L 1984 4856 
z
" transform="scale(0.015625)"/>
       <path id="DejaVuSans-73" d="M 2834 3397 
L 2834 2853 
Q 2591 2978 2328 3040 
Q 2066 3103 1784 3103 
Q 1356 3103 1142 2972 
Q 928 2841 928 2578 
Q 928 2378 1081 2264 
Q 1234 2150 1697 2047 
L 1894 2003 
Q 2506 1872 2764 1633 
Q 3022 1394 3022 966 
Q 3022 478 2636 193 
Q 2250 -91 1575 -91 
Q 1294 -91 989 -36 
Q 684 19 347 128 
L 347 722 
Q 666 556 975 473 
Q 1284 391 1588 391 
Q 1994 391 2212 530 
Q 2431 669 2431 922 
Q 2431 1156 2273 1281 
Q 2116 1406 1581 1522 
L 1381 1569 
Q 847 1681 609 1914 
Q 372 2147 372 2553 
Q 372 3047 722 3315 
Q 1072 3584 1716 3584 
Q 2034 3584 2315 3537 
Q 2597 3491 2834 3397 
z
" transform="scale(0.015625)"/>
       <path id="DejaVuSans-63" d="M 3122 3366 
L 3122 2828 
Q 2878 2963 2633 3030 
Q 2388 3097 2138 3097 
Q 1578 3097 1268 2742 
Q 959 2388 959 1747 
Q 959 1106 1268 751 
Q 1578 397 2138 397 
Q 2388 397 2633 464 
Q 2878 531 3122 666 
L 3122 134 
Q 2881 22 2623 -34 
Q 2366 -91 2075 -91 
Q 1284 -91 818 406 
Q 353 903 353 1747 
Q 353 2603 823 3093 
Q 1294 3584 2113 3584 
Q 2378 3584 2631 3529 
Q 2884 3475 3122 3366 
z
" transform="scale(0.015625)"/>
       <path id="DejaVuSans-29" d="M 513 4856 
L 1013 4856 
Q 1481 4119 1714 3412 
Q 1947 2706 1947 2009 
Q 1947 1309 1714 600 
Q 1481 -109 1013 -844 
L 513 -844 
Q 928 -128 1133 580 
Q 1338 1288 1338 2009 
Q 1338 2731 1133 3434 
Q 928 4138 513 4856 
z
" transform="scale(0.015625)"/>
      </defs>
      <use xlink:href="#DejaVuSans-54"/>
      <use xlink:href="#DejaVuSans-69" x="57.958984"/>
      <use xlink:href="#DejaVuSans-6d" x="85.742188"/>
      <use xlink:href="#DejaVuSans-65" x="183.154297"/>
      <use xlink:href="#DejaVuSans-20" x="244.677734"/>
      <use xlink:href="#DejaVuSans-28" x="276.464844"/>
      <use xlink:href="#DejaVuSans-73" x="315.478516"/>
      <use xlink:href="#DejaVuSans-65" x="367.578125"/>
      <use xlink:href="#DejaVuSans-63" x="429.101562"/>
      <use xlink:href="#DejaVuSans-29" x="484.082031"/>
     </g>
    </g>
   </g>
   <g id="matplotlib.axis_2">
    <g id="ytick_1">
     <g id="line2d_7">
      <defs>
       <path id="mec81cf1d6c" d="M 0 0 
L -3.5 0 
" style="stroke: #000000; stroke-width: 0.8"/>
      </defs>
      <g>
       <use xlink:href="#mec81cf1d6c" x="47.72" y="159.56" style="stroke: #000000; stroke-width: 0.8"/>
      </g>
     </g>
     <g id="text_8">
      <!-- 0.0 -->
      <g transform="translate(24.816875 163.359219) scale(0.1 -0.1)">
       <use xlink:href="#DejaVuSans-30"/>
       <use xlink:href="#DejaVuSans-2e" x="63.623047"/>
       <use xlink:href="#DejaVuSans-30" x="95.410156"/>
      </g>
     </g>
    </g>
    <g id="ytick_2">
     <g id="line2d_8">
      <g>
       <use xlink:href="#mec81cf1d6c" x="47.72" y="130.6" style="stroke: #000000; stroke-width: 0.8"/>
      </g>
     </g>
     <g id="text_9">
      <!-- 0.2 -->
      <g transform="translate(24.816875 134.399219) scale(0.1 -0.1)">
       <use xlink:href="#DejaVuSans-30"/>
       <use xlink:href="#DejaVuSans-2e" x="63.623047"/>
       <use xlink:href="#DejaVuSans-32" x="95.410156"/>
      </g>
     </g>
    </g>
    <g id="ytick_3">
     <g id="line2d_9">
      <g>
       <use xlink:href="#mec81cf1d6c" x="47.72" y="101.64" style="stroke: #000000; stroke-width: 0.8"/>
      </g>
     </g>
     <g id="text_10">
      <!-- 0.4 -->
      <g transform="translate(24.816875 105.439219) scale(0.1 -0.1)">
       <use xlink:href="#DejaVuSans-30"/>
       <use xlink:href="#DejaVuSans-2e" x="63.623047"/>
       <use xlink:href="#DejaVuSans-34" x="95.410156"/>
      </g>
     </g>
    </g>
    <g id="ytick_4">
     <g id="line2d_10">
      <g>
       <use xlink:href="#mec81cf1d6c" x="47.72" y="72.68" style="stroke: #000000; stroke-width: 0.8"/>
      </g>
     </g>
     <g id="text_11">
      <!-- 0.6 -->
      <g transform="translate(24.816875 76.479219) scale(0.1 -0.1)">
       <use xlink:href="#DejaVuSans-30"/>
       <use xlink:href="#DejaVuSans-2e" x="63.623047"/>
       <use xlink:href="#DejaVuSans-36" x="95.410156"/>
      </g>
     </g>
    </g>
    <g id="ytick_5">
     <g id="line2d_11">
      <g>
       <use xlink:href="#mec81cf1d6c" x="47.72" y="43.72" style="stroke: #000000; stroke-width: 0.8"/>
      </g>
     </g>
     <g id="text_12">
      <!-- 0.8 -->
      <g transform="translate(24.816875 47.519219) scale(0.1 -0.1)">
       <use xlink:href="#DejaVuSans-30"/>
       <use xlink:href="#DejaVuSans-2e" x="63.623047"/>
       <use xlink:href="#DejaVuSans-38" x="95.410156"/>
      </g>
     </g>
    </g>
    <g id="ytick_6">
     <g id="line2d_12">
      <g>
       <use xlink:href="#mec81cf1d6c" x="47.72" y="14.76" style="stroke: #000000; stroke-width: 0.8"/>
      </g>
     </g>
     <g id="text_13">
      <!-- 1.0 -->
      <g transform="translate(24.816875 18.559219) scale(0.1 -0.1)">
       <use xlink:href="#DejaVuSans-31"/>
       <use xlink:href="#DejaVuSans-2e" x="63.623047"/>
       <use xlink:href="#DejaVuSans-30" x="95.410156"/>
      </g>
     </g>
    </g>
    <g id="text_14">
     <!-- Injected Signal -->
     <g transform="translate(18.737188 131.417969) rotate(-90) scale(0.1 -0.1)">
      <defs>
       <path id="DejaVuSans-49" d="M 628 4666 
L 1259 4666 
L 1259 0 
L 628 0 
L 628 4666 
z
" transform="scale(0.015625)"/>
       <path id="DejaVuSans-6e" d="M 3513 2113 
L 3513 0 
L 2938 0 
L 2938 2094 
Q 2938 2591 2744 2837 
Q 2550 3084 2163 3084 
Q 1697 3084 1428 2787 
Q 1159 2491 1159 1978 
L 1159 0 
L 581 0 
L 581 3500 
L 1159 3500 
L 1159 2956 
Q 1366 3272 1645 3428 
Q 1925 3584 2291 3584 
Q 2894 3584 3203 3211 
Q 3513 2838 3513 2113 
z
" transform="scale(0.015625)"/>
       <path id="DejaVuSans-6a" d="M 603 3500 
L 1178 3500 
L 1178 -63 
Q 1178 -731 923 -1031 
Q 669 -1331 103 -1331 
L -116 -1331 
L -116 -844 
L 38 -844 
Q 366 -844 484 -692 
Q 603 -541 603 -63 
L 603 3500 
z
M 603 4863 
L 1178 4863 
L 1178 4134 
L 603 4134 
L 603 4863 
z
" transform="scale(0.015625)"/>
       <path id="DejaVuSans-74" d="M 1172 4494 
L 1172 3500 
L 2356 3500 
L 2356 3053 
L 1172 3053 
L 1172 1153 
Q 1172 725 1289 603 
Q 1406 481 1766 481 
L 2356 481 
L 2356 0 
L 1766 0 
Q 1100 0 847 248 
Q 594 497 594 1153 
L 594 3053 
L 172 3053 
L 172 3500 
L 594 3500 
L 594 4494 
L 1172 4494 
z
" transform="scale(0.015625)"/>
       <path id="DejaVuSans-64" d="M 2906 2969 
L 2906 4863 
L 3481 4863 
L 3481 0 
L 2906 0 
L 2906 525 
Q 2725 213 2448 61 
Q 2172 -91 1784 -91 
Q 1150 -91 751 415 
Q 353 922 353 1747 
Q 353 2572 751 3078 
Q 1150 3584 1784 3584 
Q 2172 3584 2448 3432 
Q 2725 3281 2906 2969 
z
M 947 1747 
Q 947 1113 1208 752 
Q 1469 391 1925 391 
Q 2381 391 2643 752 
Q 2906 1113 2906 1747 
Q 2906 2381 2643 2742 
Q 2381 3103 1925 3103 
Q 1469 3103 1208 2742 
Q 947 2381 947 1747 
z
" transform="scale(0.015625)"/>
       <path id="DejaVuSans-53" d="M 3425 4513 
L 3425 3897 
Q 3066 4069 2747 4153 
Q 2428 4238 2131 4238 
Q 1616 4238 1336 4038 
Q 1056 3838 1056 3469 
Q 1056 3159 1242 3001 
Q 1428 2844 1947 2747 
L 2328 2669 
Q 3034 2534 3370 2195 
Q 3706 1856 3706 1288 
Q 3706 609 3251 259 
Q 2797 -91 1919 -91 
Q 1588 -91 1214 -16 
Q 841 59 441 206 
L 441 856 
Q 825 641 1194 531 
Q 1563 422 1919 422 
Q 2459 422 2753 634 
Q 3047 847 3047 1241 
Q 3047 1584 2836 1778 
Q 2625 1972 2144 2069 
L 1759 2144 
Q 1053 2284 737 2584 
Q 422 2884 422 3419 
Q 422 4038 858 4394 
Q 1294 4750 2059 4750 
Q 2388 4750 2728 4690 
Q 3069 4631 3425 4513 
z
" transform="scale(0.015625)"/>
       <path id="DejaVuSans-67" d="M 2906 1791 
Q 2906 2416 2648 2759 
Q 2391 3103 1925 3103 
Q 1463 3103 1205 2759 
Q 947 2416 947 1791 
Q 947 1169 1205 825 
Q 1463 481 1925 481 
Q 2391 481 2648 825 
Q 2906 1169 2906 1791 
z
M 3481 434 
Q 3481 -459 3084 -895 
Q 2688 -1331 1869 -1331 
Q 1566 -1331 1297 -1286 
Q 1028 -1241 775 -1147 
L 775 -588 
Q 1028 -725 1275 -790 
Q 1522 -856 1778 -856 
Q 2344 -856 2625 -561 
Q 2906 -266 2906 331 
L 2906 616 
Q 2728 306 2450 153 
Q 2172 0 1784 0 
Q 1141 0 747 490 
Q 353 981 353 1791 
Q 353 2603 747 3093 
Q 1141 3584 1784 3584 
Q 2172 3584 2450 3431 
Q 2728 3278 2906 2969 
L 2906 3500 
L 3481 3500 
L 3481 434 
z
" transform="scale(0.015625)"/>
       <path id="DejaVuSans-61" d="M 2194 1759 
Q 1497 1759 1228 1600 
Q 959 1441 959 1056 
Q 959 750 1161 570 
Q 1363 391 1709 391 
Q 2188 391 2477 730 
Q 2766 1069 2766 1631 
L 2766 1759 
L 2194 1759 
z
M 3341 1997 
L 3341 0 
L 2766 0 
L 2766 531 
Q 2569 213 2275 61 
Q 1981 -91 1556 -91 
Q 1019 -91 701 211 
Q 384 513 384 1019 
Q 384 1609 779 1909 
Q 1175 2209 1959 2209 
L 2766 2209 
L 2766 2266 
Q 2766 2663 2505 2880 
Q 2244 3097 1772 3097 
Q 1472 3097 1187 3025 
Q 903 2953 641 2809 
L 641 3341 
Q 956 3463 1253 3523 
Q 1550 3584 1831 3584 
Q 2591 3584 2966 3190 
Q 3341 2797 3341 1997 
z
" transform="scale(0.015625)"/>
       <path id="DejaVuSans-6c" d="M 603 4863 
L 1178 4863 
L 1178 0 
L 603 0 
L 603 4863 
z
" transform="scale(0.015625)"/>
      </defs>
      <use xlink:href="#DejaVuSans-49"/>
      <use xlink:href="#DejaVuSans-6e" x="29.492188"/>
      <use xlink:href="#DejaVuSans-6a" x="92.871094"/>
      <use xlink:href="#DejaVuSans-65" x="120.654297"/>
      <use xlink:href="#DejaVuSans-63" x="182.177734"/>
      <use xlink:href="#DejaVuSans-74" x="237.158203"/>
      <use xlink:href="#DejaVuSans-65" x="276.367188"/>
      <use xlink:href="#DejaVuSans-64" x="337.890625"/>
      <use xlink:href="#DejaVuSans-20" x="401.367188"/>
      <use xlink:href="#DejaVuSans-53" x="433.154297"/>
      <use xlink:href="#DejaVuSans-69" x="496.630859"/>
      <use xlink:href="#DejaVuSans-67" x="524.414062"/>
      <use xlink:href="#DejaVuSans-6e" x="587.890625"/>
      <use xlink:href="#DejaVuSans-61" x="651.269531"/>
      <use xlink:href="#DejaVuSans-6c" x="712.548828"/>
     </g>
    </g>
   </g>
   <g id="line2d_13">
    <path d="M 61.423636 88.140364 
L 61.697709 115.507666 
L 61.971782 115.044367 
L 62.245855 81.014405 
L 62.519927 80.150658 
L 62.794 79.787773 
L 63.068073 129.848081 
L 63.342145 90.977765 
L 63.616218 115.690272 
L 63.890291 102.221157 
L 64.164364 107.398124 
L 64.438436 98.071083 
L 64.712509 116.577389 
L 64.986582 47.591364 
L 65.260655 64.385918 
L 65.534727 45.385698 
L 65.8088 100.810188 
L 66.082873 89.029527 
L 66.356945 97.954361 
L 66.631018 77.334777 
L 66.905091 119.631612 
L 67.179164 106.873883 
L 67.453236 83.839338 
L 67.727309 115.945086 
L 68.001382 74.673475 
L 68.275455 105.719438 
L 68.549527 79.164601 
L 68.8236 108.140301 
L 69.097673 70.67587 
L 69.371745 112.312656 
L 69.645818 121.830836 
L 69.919891 103.113234 
L 70.193964 113.619657 
L 70.468036 91.657399 
L 70.742109 105.360265 
L 71.290255 45.834077 
L 71.564327 64.348091 
L 71.8384 105.60702 
L 72.112473 101.422339 
L 72.386545 74.025578 
L 72.660618 92.774856 
L 72.934691 97.44331 
L 73.208764 45.483819 
L 73.482836 119.578439 
L 73.756909 50.192701 
L 74.030982 66.287842 
L 74.305055 105.462337 
L 74.579127 65.128818 
L 74.8532 56.816474 
L 75.401345 112.454078 
L 75.675418 68.037107 
L 75.949491 122.677625 
L 76.223564 114.554117 
L 76.497636 64.29754 
L 76.771709 123.741925 
L 77.045782 73.937994 
L 77.319855 126.229662 
L 77.593927 63.405999 
L 77.868 98.759792 
L 78.142073 100.097816 
L 78.416145 67.916773 
L 79.238364 113.507098 
L 79.512436 62.819965 
L 80.060582 115.470961 
L 80.334655 91.383938 
L 80.608727 106.482171 
L 80.8828 99.592762 
L 81.156873 126.206608 
L 81.430945 112.774308 
L 81.705018 117.658827 
L 81.979091 76.882781 
L 82.253164 106.551536 
L 82.527236 77.952299 
L 82.801309 77.985751 
L 83.075382 48.939638 
L 83.349455 93.980371 
L 83.623527 65.455767 
L 83.8976 55.95546 
L 84.171673 123.427243 
L 84.445745 116.157051 
L 84.719818 83.844001 
L 84.993891 126.224872 
L 85.267964 52.275122 
L 85.542036 118.393293 
L 85.816109 117.371832 
L 86.090182 91.946102 
L 86.364255 127.070706 
L 86.638327 124.410868 
L 86.9124 117.19563 
L 87.186473 91.157192 
L 87.460545 99.143747 
L 87.734618 61.015863 
L 88.008691 129.864228 
L 88.282764 52.954336 
L 88.830909 126.477015 
L 89.104982 75.684544 
L 89.379055 104.500138 
L 89.653127 91.34255 
L 89.9272 108.400851 
L 90.201273 60.900265 
L 90.475345 120.639775 
L 90.749418 61.64902 
L 91.023491 52.864755 
L 91.571636 89.259924 
L 91.845709 68.337458 
L 92.119782 64.191368 
L 92.667927 119.21825 
L 92.942 111.062414 
L 93.764218 46.060286 
L 94.038291 44.635329 
L 94.312364 65.127528 
L 94.586436 66.320885 
L 94.860509 124.568483 
L 95.134582 116.560394 
L 95.408655 91.233706 
L 95.682727 125.706383 
L 95.9568 90.722742 
L 96.230873 84.850047 
L 96.504945 52.401394 
L 96.779018 94.009882 
L 97.053091 47.063461 
L 97.327164 61.628805 
L 97.601236 97.00861 
L 97.875309 68.283214 
L 98.149382 58.964658 
L 98.423455 66.868625 
L 98.697527 69.334306 
L 98.9716 86.822202 
L 99.245673 83.241559 
L 99.519745 66.146643 
L 99.793818 90.568678 
L 100.067891 64.429699 
L 100.341964 75.880994 
L 100.616036 109.35764 
L 100.890109 112.30361 
L 101.164182 117.225074 
L 101.438255 54.364149 
L 101.712327 120.831508 
L 101.9864 120.058449 
L 102.260473 65.386494 
L 102.534545 130.360754 
L 102.808618 58.829705 
L 103.082691 114.92097 
L 103.356764 109.921073 
L 103.630836 108.582412 
L 103.904909 113.251523 
L 104.178982 48.826715 
L 104.453055 124.83588 
L 104.727127 46.785882 
L 105.0012 124.970996 
L 105.275273 49.403169 
L 105.549345 45.794577 
L 105.823418 48.559155 
L 106.097491 56.768273 
L 106.371564 47.567549 
L 106.645636 55.936216 
L 106.919709 127.084164 
L 107.193782 48.876902 
L 107.741927 118.65021 
L 108.016 69.228386 
L 108.290073 107.878074 
L 108.564145 103.580177 
L 108.838218 114.306147 
L 109.112291 117.824992 
L 109.386364 127.656663 
L 109.660436 123.455662 
L 109.934509 83.799877 
L 110.208582 98.186972 
L 110.482655 98.332208 
L 110.756727 112.847598 
L 111.304873 46.741815 
L 111.578945 90.438238 
L 111.853018 44.408387 
L 112.127091 120.380659 
L 112.401164 103.155751 
L 112.675236 97.026807 
L 112.949309 72.975853 
L 113.223382 111.167589 
L 113.497455 117.774524 
L 113.771527 79.027931 
L 114.0456 128.600169 
L 114.319673 68.112902 
L 114.593745 129.41613 
L 115.141891 60.138979 
L 115.415964 93.656781 
L 115.964109 48.251071 
L 116.238182 101.216956 
L 116.512255 45.803788 
L 117.0604 77.032055 
L 117.334473 70.578849 
L 117.608545 69.602972 
L 117.882618 111.274719 
L 118.156691 77.676978 
L 118.430764 83.629154 
L 118.704836 59.842559 
L 118.978909 117.534991 
L 119.252982 64.011072 
L 119.527055 121.773859 
L 120.0752 84.666149 
L 120.349273 83.159254 
L 120.623345 59.965513 
L 120.897418 68.783133 
L 121.171491 103.307612 
L 121.445564 76.654248 
L 121.719636 68.49188 
L 121.993709 125.682186 
L 122.267782 107.352232 
L 122.541855 119.565907 
L 122.815927 54.228544 
L 123.09 86.989842 
L 123.638145 68.697311 
L 123.912218 68.636881 
L 124.460364 119.040608 
L 124.734436 61.395855 
L 125.008509 108.889748 
L 125.282582 97.869122 
L 125.556655 104.701021 
L 125.830727 65.032247 
L 126.1048 67.054825 
L 126.378873 63.623642 
L 126.652945 68.797995 
L 127.201091 110.583386 
L 127.475164 53.660845 
L 127.749236 66.126613 
L 128.023309 109.96898 
L 128.297382 55.261678 
L 128.571455 93.429256 
L 128.845527 104.641509 
L 129.1196 53.69811 
L 129.393673 126.660249 
L 129.667745 69.25483 
L 129.941818 79.826463 
L 130.489964 122.169238 
L 130.764036 125.986349 
L 131.038109 72.417018 
L 131.312182 122.399935 
L 131.860327 80.527496 
L 132.1344 101.815546 
L 132.408473 110.147786 
L 132.682545 109.298642 
L 132.956618 111.013817 
L 133.230691 82.373926 
L 133.504764 87.390632 
L 133.778836 47.485474 
L 134.052909 126.6451 
L 134.326982 79.558969 
L 134.601055 87.08155 
L 134.875127 107.616515 
L 135.1492 62.809085 
L 135.423273 105.058908 
L 135.697345 46.150933 
L 135.971418 105.198552 
L 136.245491 99.697702 
L 136.519564 63.535245 
L 136.793636 69.837283 
L 137.067709 70.263759 
L 137.341782 70.31295 
L 137.615855 104.119745 
L 137.889927 62.698412 
L 138.164 90.622787 
L 138.438073 98.762197 
L 138.712145 62.157308 
L 138.986218 66.663189 
L 139.260291 49.776691 
L 139.534364 60.50937 
L 139.808436 101.558018 
L 140.082509 76.467164 
L 140.356582 103.24171 
L 140.630655 45.113075 
L 140.904727 61.020319 
L 141.1788 56.643352 
L 141.452873 121.725167 
L 141.726945 96.916795 
L 142.001018 118.001408 
L 142.275091 106.470867 
L 142.549164 125.507145 
L 142.823236 55.196711 
L 143.097309 128.190811 
L 143.371382 117.202853 
L 143.645455 46.983546 
L 143.919527 72.743646 
L 144.1936 50.021287 
L 144.467673 74.117724 
L 144.741745 73.057736 
L 145.015818 79.94516 
L 145.289891 126.049871 
L 145.563964 80.723979 
L 145.838036 62.378976 
L 146.112109 52.550278 
L 146.386182 126.922973 
L 146.934327 72.448005 
L 147.2084 116.235904 
L 147.482473 96.265599 
L 147.756545 118.823132 
L 148.030618 78.291441 
L 148.304691 104.500534 
L 148.578764 54.278066 
L 148.852836 117.931913 
L 149.126909 89.343465 
L 149.400982 117.950801 
L 149.675055 90.655504 
L 149.949127 44.600021 
L 150.497273 120.969439 
L 150.771345 65.414435 
L 151.045418 98.118716 
L 151.319491 73.285849 
L 151.593564 79.467586 
L 151.867636 62.307857 
L 152.141709 89.255126 
L 152.415782 68.321146 
L 152.689855 89.683688 
L 152.963927 53.194755 
L 153.238 45.498604 
L 153.512073 114.906241 
L 153.786145 109.719593 
L 154.060218 63.255962 
L 154.334291 79.715201 
L 154.608364 67.459376 
L 154.882436 47.56946 
L 155.156509 111.53909 
L 155.430582 124.430241 
L 155.704655 87.070353 
L 155.978727 84.572208 
L 156.2528 93.734483 
L 156.526873 84.785507 
L 156.800945 127.854454 
L 157.075018 47.323021 
L 157.349091 117.039779 
L 157.623164 107.962361 
L 157.897236 109.955119 
L 158.171309 80.843244 
L 158.445382 90.083918 
L 158.719455 115.013651 
L 158.993527 108.505164 
L 159.2676 107.186478 
L 159.541673 93.998547 
L 159.815745 124.038078 
L 160.089818 50.298515 
L 160.363891 110.754117 
L 160.912036 55.73265 
L 161.186109 102.376688 
L 161.460182 117.317966 
L 162.008327 99.138771 
L 162.2824 80.084358 
L 162.556473 101.09858 
L 162.830545 82.804494 
L 163.104618 74.617609 
L 163.378691 71.519638 
L 163.652764 65.819891 
L 163.926836 81.077093 
L 164.200909 115.755285 
L 164.474982 129.859168 
L 164.749055 81.754844 
L 165.023127 89.530323 
L 165.2972 57.046848 
L 165.571273 95.117317 
L 165.845345 45.638739 
L 166.119418 96.323774 
L 166.393491 52.200622 
L 166.667564 119.604139 
L 166.941636 50.659509 
L 167.215709 88.225823 
L 167.489782 53.298927 
L 167.763855 105.175299 
L 168.037927 119.633411 
L 168.312 118.030018 
L 168.586073 51.197232 
L 168.860145 101.468954 
L 169.408291 86.566256 
L 169.682364 55.954872 
L 169.956436 74.835512 
L 170.230509 120.723512 
L 170.504582 81.1821 
L 170.778655 77.85518 
L 171.052727 127.58777 
L 171.3268 113.108001 
L 171.600873 117.35246 
L 171.874945 125.565313 
L 172.149018 93.838044 
L 172.423091 130.591907 
L 172.697164 83.17534 
L 172.971236 98.719935 
L 173.245309 126.556501 
L 173.519382 49.381059 
L 173.793455 104.216224 
L 174.067527 94.317065 
L 174.3416 114.600303 
L 174.615673 50.019207 
L 174.889745 73.429045 
L 175.163818 84.63546 
L 175.437891 89.082967 
L 175.711964 64.997643 
L 175.986036 103.790146 
L 176.260109 95.011684 
L 176.534182 68.750344 
L 177.082327 129.354049 
L 177.3564 107.072517 
L 177.630473 60.016019 
L 178.178618 117.746823 
L 178.452691 100.634084 
L 178.726764 74.437801 
L 179.000836 71.313116 
L 179.274909 71.753232 
L 179.548982 53.684507 
L 179.823055 108.547079 
L 180.097127 121.977995 
L 180.3712 58.391158 
L 180.645273 121.616817 
L 180.919345 68.248269 
L 181.193418 58.119622 
L 181.467491 66.819541 
L 181.741564 111.268376 
L 182.015636 101.635527 
L 182.289709 79.638837 
L 182.563782 89.193159 
L 182.837855 61.033529 
L 183.111927 61.226029 
L 183.386 105.74719 
L 183.660073 52.171868 
L 183.934145 126.313282 
L 184.208218 113.026797 
L 184.482291 74.909043 
L 184.756364 117.591117 
L 185.304509 55.69078 
L 185.578582 52.739676 
L 185.852655 64.639957 
L 186.126727 114.812635 
L 186.4008 113.877638 
L 186.674873 88.912404 
L 186.948945 128.783218 
L 187.223018 55.363251 
L 187.497091 103.727697 
L 187.771164 130.074615 
L 188.045236 121.08104 
L 188.319309 51.477899 
L 188.593382 82.500378 
L 188.867455 66.656565 
L 189.141527 71.802388 
L 189.4156 116.626671 
L 189.689673 119.5525 
L 189.963745 106.063877 
L 190.237818 99.153673 
L 190.511891 124.51535 
L 190.785964 76.342814 
L 191.060036 126.303165 
L 191.334109 92.456408 
L 191.608182 92.610071 
L 191.882255 88.990362 
L 192.156327 64.454696 
L 192.4304 128.11451 
L 192.704473 82.273713 
L 192.978545 104.949119 
L 193.252618 61.050174 
L 193.526691 128.072743 
L 194.074836 72.952708 
L 194.348909 73.320799 
L 194.622982 53.620656 
L 194.897055 125.307367 
L 195.171127 64.757707 
L 195.4452 105.160078 
L 195.719273 47.376874 
L 195.993345 118.907663 
L 196.267418 115.418578 
L 196.541491 85.73869 
L 196.815564 95.657913 
L 197.089636 128.469992 
L 197.363709 59.919907 
L 197.637782 123.345624 
L 197.911855 45.542873 
L 198.185927 47.527712 
L 198.46 117.23958 
L 198.734073 100.149712 
L 199.008145 106.570856 
L 199.282218 98.041173 
L 199.556291 107.041807 
L 199.830364 86.716832 
L 200.104436 113.494839 
L 200.378509 65.995437 
L 200.652582 118.51878 
L 200.926655 110.53811 
L 201.200727 88.004102 
L 201.4748 98.167382 
L 201.748873 57.146191 
L 202.022945 122.617972 
L 202.297018 60.673086 
L 202.571091 111.770562 
L 202.845164 73.203464 
L 203.119236 122.587689 
L 203.393309 107.035931 
L 203.667382 111.869791 
L 203.941455 52.440957 
L 204.215527 65.216205 
L 204.4896 111.992863 
L 204.763673 52.818811 
L 205.037745 49.799796 
L 205.311818 109.553369 
L 205.585891 129.522064 
L 205.859964 118.937441 
L 206.134036 78.121891 
L 206.408109 77.543735 
L 206.682182 47.123457 
L 206.956255 82.051836 
L 207.230327 58.858684 
L 207.5044 68.747636 
L 207.778473 119.853632 
L 208.052545 68.436934 
L 208.326618 94.802299 
L 208.600691 56.225847 
L 208.874764 54.465717 
L 209.148836 90.257885 
L 209.422909 108.250064 
L 209.696982 101.585377 
L 209.971055 58.64139 
L 210.5192 112.143356 
L 210.793273 73.621557 
L 211.067345 97.363633 
L 211.341418 57.438771 
L 211.615491 120.170687 
L 211.889564 122.490753 
L 212.163636 59.344761 
L 212.711782 84.173374 
L 212.985855 92.192664 
L 213.259927 86.707612 
L 213.534 127.434573 
L 213.808073 93.445452 
L 214.082145 79.566134 
L 214.356218 46.958751 
L 214.630291 95.982845 
L 214.904364 122.690931 
L 215.178436 86.44388 
L 215.452509 108.927892 
L 215.726582 89.516984 
L 216.000655 49.354566 
L 216.274727 130.523881 
L 216.5488 122.18258 
L 216.822873 85.209483 
L 217.371018 50.54632 
L 217.645091 121.267768 
L 217.919164 48.505688 
L 218.193236 50.704951 
L 218.467309 55.754487 
L 218.741382 69.34517 
L 219.289527 103.143196 
L 219.5636 85.85121 
L 219.837673 46.45647 
L 220.111745 101.295322 
L 220.385818 55.487852 
L 220.659891 91.89204 
L 220.933964 94.811781 
L 221.208036 59.374032 
L 221.482109 111.590818 
L 221.756182 84.043101 
L 222.030255 119.810991 
L 222.304327 98.540278 
L 222.5784 121.78192 
L 222.852473 56.410145 
L 223.126545 114.209178 
L 223.400618 109.157851 
L 223.674691 106.854781 
L 223.948764 89.837884 
L 224.222836 63.826562 
L 224.496909 96.493154 
L 224.770982 113.329545 
L 225.045055 63.253952 
L 225.319127 84.356032 
L 225.5932 95.163248 
L 225.867273 125.887098 
L 226.141345 60.692246 
L 226.415418 61.015971 
L 226.689491 46.028809 
L 226.963564 84.068315 
L 227.237636 76.491223 
L 227.511709 76.610269 
L 227.785782 47.062489 
L 228.059855 125.545936 
L 228.333927 100.284294 
L 228.608 124.139485 
L 228.882073 126.583302 
L 229.430218 49.603467 
L 229.704291 55.743929 
L 229.978364 91.502666 
L 230.252436 86.638241 
L 230.526509 61.864894 
L 230.800582 71.185618 
L 231.074655 102.502458 
L 231.348727 58.884712 
L 231.6228 110.150252 
L 231.896873 107.344874 
L 232.170945 69.548313 
L 232.445018 84.296845 
L 232.719091 106.131002 
L 232.993164 90.946185 
L 233.267236 62.046126 
L 233.541309 96.182678 
L 233.815382 52.37262 
L 234.089455 123.523447 
L 234.363527 109.765692 
L 234.6376 47.36724 
L 235.185745 95.629969 
L 235.459818 72.283812 
L 235.733891 122.517114 
L 236.007964 59.538405 
L 236.282036 70.401796 
L 236.556109 116.375926 
L 236.830182 64.653003 
L 237.104255 70.06814 
L 237.378327 94.267029 
L 237.6524 45.107046 
L 237.926473 122.958619 
L 238.200545 45.385482 
L 238.474618 128.186729 
L 238.748691 103.267819 
L 239.022764 60.751055 
L 239.296836 53.257004 
L 239.570909 83.255599 
L 239.844982 47.552926 
L 240.119055 122.679141 
L 240.393127 130.052949 
L 240.6672 101.26215 
L 240.941273 98.833317 
L 241.215345 86.492609 
L 241.489418 48.519548 
L 242.037564 105.279238 
L 242.311636 115.399813 
L 242.585709 108.020447 
L 242.859782 87.161099 
L 243.133855 51.657435 
L 243.407927 78.006046 
L 243.682 121.697043 
L 243.956073 72.265396 
L 244.230145 60.197386 
L 244.504218 119.107878 
L 244.778291 67.528685 
L 245.052364 123.834606 
L 245.326436 123.054587 
L 245.600509 115.252154 
L 245.874582 125.075879 
L 246.148655 65.660687 
L 246.422727 98.981682 
L 246.6968 106.558711 
L 246.970873 117.479605 
L 247.244945 115.114596 
L 247.519018 52.154858 
L 248.067164 103.644905 
L 248.341236 70.040836 
L 248.615309 66.340612 
L 248.889382 48.921923 
L 249.163455 68.9415 
L 249.437527 50.25492 
L 249.7116 59.342898 
L 249.985673 93.89087 
L 250.259745 63.804392 
L 250.533818 54.390177 
L 250.807891 114.157521 
L 251.081964 101.232718 
L 251.356036 126.991862 
L 251.630109 118.851338 
L 251.904182 76.660188 
L 252.178255 88.868991 
L 252.452327 50.976382 
L 252.7264 88.44614 
L 253.000473 55.092755 
L 253.274545 103.298097 
L 253.822691 118.638818 
L 254.096764 113.972866 
L 254.370836 52.760921 
L 254.644909 67.073276 
L 254.918982 69.349462 
L 255.193055 94.029205 
L 255.467127 71.545635 
L 255.7412 114.278528 
L 256.015273 85.402147 
L 256.289345 130.224625 
L 256.563418 78.049858 
L 256.837491 101.613969 
L 257.111564 87.645339 
L 257.385636 128.376658 
L 257.659709 103.820793 
L 257.933782 98.887546 
L 258.207855 103.72934 
L 258.481927 90.494035 
L 258.756 106.396845 
L 259.030073 74.849475 
L 259.304145 87.273299 
L 259.578218 46.939782 
L 259.852291 101.335338 
L 260.126364 81.264532 
L 260.400436 76.890159 
L 260.674509 93.988975 
L 260.948582 55.012381 
L 261.222655 74.549776 
L 261.496727 49.419428 
L 261.7708 127.613963 
L 262.044873 79.149699 
L 262.318945 98.144182 
L 262.593018 55.11148 
L 262.867091 61.233672 
L 263.141164 86.616593 
L 263.415236 94.219044 
L 263.689309 123.10534 
L 263.963382 121.382361 
L 264.237455 85.210715 
L 264.511527 98.95644 
L 264.7856 46.509888 
L 265.059673 67.912803 
L 265.333745 49.045302 
L 265.607818 103.554852 
L 265.881891 74.03396 
L 266.155964 128.368225 
L 266.430036 83.905324 
L 266.704109 86.929137 
L 266.978182 74.622647 
L 267.252255 129.347378 
L 267.526327 85.588947 
L 267.8004 75.160231 
L 268.074473 111.774182 
L 268.622618 50.241566 
L 268.896691 121.929786 
L 269.170764 119.736272 
L 269.444836 127.797739 
L 269.718909 54.008289 
L 270.267055 88.371624 
L 270.541127 120.188918 
L 270.8152 113.547925 
L 271.089273 119.381375 
L 271.363345 74.721811 
L 271.637418 95.345814 
L 271.911491 102.170052 
L 272.185564 79.283299 
L 272.459636 111.158335 
L 272.733709 126.400389 
L 273.007782 112.270053 
L 273.281855 90.247033 
L 273.555927 128.698799 
L 273.83 64.306565 
L 274.104073 51.558644 
L 274.652218 104.84433 
L 274.926291 73.418825 
L 275.200364 119.733204 
L 275.748509 94.296483 
L 276.022582 102.22511 
L 276.296655 52.42829 
L 276.570727 98.404536 
L 276.8448 92.937161 
L 277.118873 106.336776 
L 277.392945 79.621444 
L 277.667018 117.22536 
L 277.941091 62.51894 
L 278.215164 89.685265 
L 278.489236 50.185544 
L 278.763309 58.759165 
L 279.037382 112.576204 
L 279.311455 122.722843 
L 279.585527 102.636175 
L 279.8596 115.234061 
L 280.133673 56.3796 
L 280.407745 121.288756 
L 280.681818 126.297756 
L 280.955891 60.177733 
L 281.229964 72.650298 
L 281.504036 94.187785 
L 281.778109 70.687361 
L 282.052182 107.698019 
L 282.600327 69.489851 
L 282.8744 107.844145 
L 283.148473 104.82322 
L 283.422545 113.029033 
L 283.696618 76.028772 
L 283.970691 125.077732 
L 284.244764 84.561102 
L 284.518836 103.500681 
L 284.792909 59.578937 
L 285.066982 122.553867 
L 285.341055 45.478314 
L 285.615127 106.656764 
L 285.8892 100.46285 
L 286.163273 83.797611 
L 286.437345 88.582491 
L 286.985491 66.048524 
L 287.259564 118.379448 
L 287.533636 51.507277 
L 288.081782 123.040312 
L 288.629927 86.691348 
L 288.904 97.703033 
L 289.178073 104.053165 
L 289.452145 76.705239 
L 289.726218 82.863828 
L 290.000291 61.37464 
L 290.274364 112.99645 
L 290.548436 121.400614 
L 290.822509 121.109644 
L 291.370655 67.703307 
L 291.644727 83.816773 
L 291.9188 85.316231 
L 292.192873 89.177609 
L 292.466945 122.275543 
L 292.741018 74.110777 
L 293.015091 55.174288 
L 293.289164 106.432742 
L 293.563236 120.634997 
L 293.837309 109.213069 
L 294.111382 103.460983 
L 294.385455 50.928389 
L 294.659527 57.67415 
L 295.207673 118.167356 
L 295.481745 64.213155 
L 295.755818 53.909033 
L 296.029891 122.064885 
L 296.303964 110.688073 
L 296.578036 76.68114 
L 296.852109 97.772279 
L 297.126182 93.318605 
L 297.400255 73.269014 
L 297.674327 84.753044 
L 297.9484 73.878522 
L 298.222473 116.880429 
L 298.496545 109.412531 
L 298.770618 61.720313 
L 299.044691 53.656231 
L 299.318764 70.572414 
L 299.592836 63.161468 
L 299.866909 52.183507 
L 300.140982 70.882917 
L 300.415055 65.592946 
L 300.689127 94.067671 
L 300.9632 82.878059 
L 301.237273 79.386548 
L 301.511345 53.420731 
L 301.785418 114.081633 
L 302.059491 44.263075 
L 302.333564 101.469322 
L 302.607636 72.222056 
L 302.881709 86.491809 
L 303.155782 79.403569 
L 303.429855 96.949044 
L 303.703927 129.824638 
L 303.978 80.385789 
L 304.252073 69.909725 
L 304.526145 111.342646 
L 304.800218 57.188495 
L 305.074291 70.849866 
L 305.348364 109.015682 
L 305.622436 108.06144 
L 305.896509 45.435532 
L 306.170582 71.746754 
L 306.444655 71.999525 
L 306.718727 46.988858 
L 306.9928 98.995997 
L 307.266873 87.024031 
L 307.540945 124.817434 
L 307.815018 118.090728 
L 308.089091 129.035829 
L 308.363164 73.392207 
L 308.637236 113.482021 
L 308.911309 86.257146 
L 309.185382 77.547629 
L 309.459455 46.564918 
L 309.733527 123.51968 
L 310.0076 93.918378 
L 310.281673 100.866674 
L 310.555745 59.163966 
L 310.829818 72.063631 
L 311.103891 70.018577 
L 311.377964 43.913637 
L 311.652036 81.634244 
L 311.926109 103.651514 
L 312.200182 112.029147 
L 312.748327 77.146795 
L 313.0224 82.960021 
L 313.296473 60.478191 
L 313.570545 79.922519 
L 313.844618 68.58824 
L 314.118691 63.616287 
L 314.392764 113.636422 
L 314.666836 94.911598 
L 314.940909 115.52246 
L 315.214982 81.235963 
L 315.489055 104.311856 
L 315.763127 72.745973 
L 316.311273 129.218095 
L 316.585345 50.028652 
L 316.859418 89.586188 
L 317.133491 64.390372 
L 317.407564 107.073187 
L 317.955709 70.724086 
L 318.229782 76.972559 
L 318.503855 106.788023 
L 318.777927 103.80721 
L 319.052 118.454289 
L 319.326073 57.518483 
L 319.874218 125.391403 
L 320.148291 53.483621 
L 320.422364 99.267441 
L 320.696436 97.399486 
L 320.970509 81.355609 
L 321.244582 124.346449 
L 321.518655 97.605349 
L 321.792727 91.001234 
L 322.0668 50.56796 
L 322.340873 58.784797 
L 322.614945 100.512194 
L 322.889018 116.44261 
L 323.437164 58.243908 
L 323.711236 115.370507 
L 323.985309 68.271828 
L 324.259382 93.579613 
L 324.533455 100.480953 
L 324.807527 113.124178 
L 325.0816 50.321094 
L 325.355673 99.689059 
L 325.629745 99.455733 
L 325.903818 83.476811 
L 326.177891 78.37576 
L 326.451964 86.788392 
L 326.726036 56.284203 
L 327.000109 48.191346 
L 327.274182 79.716716 
L 327.548255 66.13213 
L 327.822327 105.3899 
L 328.0964 66.667386 
L 328.370473 122.270466 
L 328.644545 102.527705 
L 328.918618 95.057455 
L 329.192691 104.301457 
L 329.466764 51.060171 
L 329.740836 119.876742 
L 330.014909 49.468472 
L 330.288982 128.805275 
L 330.563055 58.763308 
L 330.837127 58.802304 
L 331.1112 96.568732 
L 331.385273 58.006707 
L 331.659345 46.616552 
L 331.933418 98.79054 
L 332.207491 89.077738 
L 332.481564 115.827243 
L 332.755636 60.673586 
L 333.029709 125.091007 
L 333.303782 89.767329 
L 333.577855 88.833281 
L 333.851927 49.032982 
L 334.126 71.111506 
L 334.400073 106.612815 
L 334.674145 90.317988 
L 334.948218 123.571768 
L 335.222291 118.589123 
L 335.222291 118.589123 
" clip-path="url(#pbc357afdd0)" style="fill: none; stroke: #1f77b4; stroke-width: 1.5; stroke-linecap: square"/>
   </g>
   <g id="line2d_14">
    <path d="M 61.423636 87.16 
L 335.496364 87.16 
" clip-path="url(#pbc357afdd0)" style="fill: none; stroke-dasharray: 7.4,3.2; stroke-dashoffset: 0; stroke: #ff0000; stroke-width: 2"/>
   </g>
   <g id="line2d_15">
    <path d="M 192.978545 87.16 
L 203.941455 87.16 
" clip-path="url(#pbc357afdd0)" style="fill: none; stroke: #000000; stroke-width: 2; stroke-linecap: square"/>
   </g>
   <g id="line2d_16">
    <path d="M 192.978545 43.72 
L 203.941455 43.72 
" clip-path="url(#pbc357afdd0)" style="fill: none; stroke: #000000; stroke-width: 2; stroke-linecap: square"/>
   </g>
   <g id="line2d_17">
    <path d="M 198.46 87.16 
L 198.46 43.72 
" clip-path="url(#pbc357afdd0)" style="fill: none; stroke: #000000; stroke-width: 2; stroke-linecap: square"/>
   </g>
   <g id="line2d_18">
    <path d="M 192.978545 159.56 
L 203.941455 159.56 
" clip-path="url(#pbc357afdd0)" style="fill: none; stroke: #000000; stroke-width: 2; stroke-linecap: square"/>
   </g>
   <g id="line2d_19">
    <path d="M 198.46 159.56 
L 198.46 87.16 
" clip-path="url(#pbc357afdd0)" style="fill: none; stroke: #000000; stroke-width: 2; stroke-linecap: square"/>
   </g>
   <g id="patch_3">
    <path d="M 47.72 174.04 
L 47.72 14.76 
" style="fill: none; stroke: #000000; stroke-width: 0.8; stroke-linejoin: miter; stroke-linecap: square"/>
   </g>
   <g id="patch_4">
    <path d="M 349.2 174.04 
L 349.2 14.76 
" style="fill: none; stroke: #000000; stroke-width: 0.8; stroke-linejoin: miter; stroke-linecap: square"/>
   </g>
   <g id="patch_5">
    <path d="M 47.72 174.04 
L 349.2 174.04 
" style="fill: none; stroke: #000000; stroke-width: 0.8; stroke-linejoin: miter; stroke-linecap: square"/>
   </g>
   <g id="patch_6">
    <path d="M 47.72 14.76 
L 349.2 14.76 
" style="fill: none; stroke: #000000; stroke-width: 0.8; stroke-linejoin: miter; stroke-linecap: square"/>
   </g>
   <g id="text_15">
    <g id="patch_7">
     <path d="M 205.422909 71.519688 
L 235.015097 71.519688 
L 235.015097 53.841563 
L 205.422909 53.841563 
z
" style="fill: #ffffff; opacity: 0.8; stroke: #000000; stroke-linejoin: miter"/>
    </g>
    <!-- gain -->
    <g transform="translate(209.422909 65.44) scale(0.1 -0.1)">
     <use xlink:href="#DejaVuSans-67"/>
     <use xlink:href="#DejaVuSans-61" x="63.476562"/>
     <use xlink:href="#DejaVuSans-69" x="124.755859"/>
     <use xlink:href="#DejaVuSans-6e" x="152.539062"/>
    </g>
   </g>
   <g id="text_16">
    <g id="patch_8">
     <path d="M 205.422909 129.439688 
L 241.865097 129.439688 
L 241.865097 111.761563 
L 205.422909 111.761563 
z
" style="fill: #ffffff; opacity: 0.8; stroke: #000000; stroke-linejoin: miter"/>
    </g>
    <!-- offset -->
    <g transform="translate(209.422909 123.36) scale(0.1 -0.1)">
     <defs>
      <path id="DejaVuSans-6f" d="M 1959 3097 
Q 1497 3097 1228 2736 
Q 959 2375 959 1747 
Q 959 1119 1226 758 
Q 1494 397 1959 397 
Q 2419 397 2687 759 
Q 2956 1122 2956 1747 
Q 2956 2369 2687 2733 
Q 2419 3097 1959 3097 
z
M 1959 3584 
Q 2709 3584 3137 3096 
Q 3566 2609 3566 1747 
Q 3566 888 3137 398 
Q 2709 -91 1959 -91 
Q 1206 -91 779 398 
Q 353 888 353 1747 
Q 353 2609 779 3096 
Q 1206 3584 1959 3584 
z
" transform="scale(0.015625)"/>
      <path id="DejaVuSans-66" d="M 2375 4863 
L 2375 4384 
L 1825 4384 
Q 1516 4384 1395 4259 
Q 1275 4134 1275 3809 
L 1275 3500 
L 2222 3500 
L 2222 3053 
L 1275 3053 
L 1275 0 
L 697 0 
L 697 3053 
L 147 3053 
L 147 3500 
L 697 3500 
L 697 3744 
Q 697 4328 969 4595 
Q 1241 4863 1831 4863 
L 2375 4863 
z
" transform="scale(0.015625)"/>
     </defs>
     <use xlink:href="#DejaVuSans-6f"/>
     <use xlink:href="#DejaVuSans-66" x="61.181641"/>
     <use xlink:href="#DejaVuSans-66" x="96.386719"/>
     <use xlink:href="#DejaVuSans-73" x="131.591797"/>
     <use xlink:href="#DejaVuSans-65" x="183.691406"/>
     <use xlink:href="#DejaVuSans-74" x="245.214844"/>
    </g>
   </g>
  </g>
 </g>
 <defs>
  <clipPath id="pbc357afdd0">
   <rect x="47.72" y="14.76" width="301.48" height="159.28"/>
  </clipPath>
 </defs>
</svg>
