<?xml version="1.0" encoding="utf-8" standalone="no"?>
<!DOCTYPE svg PUBLIC "-//W3C//DTD SVG 1.1//EN"
  "http://www.w3.org/Graphics/SVG/1.1/DTD/svg11.dtd">
<svg xmlns:xlink="http://www.w3.org/1999/xlink" width="360pt" height="216pt" viewBox="0 0 360 216" xmlns="http://www.w3.org/2000/svg" version="1.1">
 <metadata>
  <rdf:RDF xmlns:dc="http://purl.org/dc/elements/1.1/" xmlns:cc="http://creativecommons.org/ns#" xmlns:rdf="http://www.w3.org/1999/02/22-rdf-syntax-ns#">
   <cc:Work>
    <dc:type rdf:resource="http://purl.org/dc/dcmitype/StillImage"/>
    <dc:date>2024-03-27T20:36:34.255735</dc:date>
    <dc:format>image/svg+xml</dc:format>
    <dc:creator>
     <cc:Agent>
      <dc:title>Matplotlib v3.7.5, https://matplotlib.org/</dc:title>
     </cc:Agent>
    </dc:creator>
   </cc:Work>
  </rdf:RDF>
 </metadata>
 <defs>
  <style type="text/css">*{stroke-linejoin: round; stroke-linecap: butt}</style>
 </defs>
 <g id="figure_1">
  <g id="patch_1">
   <path d="M 0 216 
L 360 216 
L 360 0 
L 0 0 
z
" style="fill: #ffffff"/>
  </g>
  <g id="axes_1">
   <g id="patch_2">
    <path d="M 47.72 174.04 
L 349.2 174.04 
L 349.2 14.76 
L 47.72 14.76 
z
" style="fill: #ffffff"/>
   </g>
   <g id="matplotlib.axis_1">
    <g id="xtick_1">
     <g id="line2d_1">
      <defs>
       <path id="me67fcb4f8e" d="M 0 0 
L 0 3.5 
" style="stroke: #000000; stroke-width: 0.8"/>
      </defs>
      <g>
       <use xlink:href="#me67fcb4f8e" x="61.423636" y="174.04" style="stroke: #000000; stroke-width: 0.8"/>
      </g>
     </g>
     <g id="text_1">
      <!-- 0.0 -->
      <g transform="translate(53.472074 188.638438) scale(0.1 -0.1)">
       <defs>
        <path id="DejaVuSans-30" d="M 2034 4250 
Q 1547 4250 1301 3770 
Q 1056 3291 1056 2328 
Q 1056 1369 1301 889 
Q 1547 409 2034 409 
Q 2525 409 2770 889 
Q 3016 1369 3016 2328 
Q 3016 3291 2770 3770 
Q 2525 4250 2034 4250 
z
M 2034 4750 
Q 2819 4750 3233 4129 
Q 3647 3509 3647 2328 
Q 3647 1150 3233 529 
Q 2819 -91 2034 -91 
Q 1250 -91 836 529 
Q 422 1150 422 2328 
Q 422 3509 836 4129 
Q 1250 4750 2034 4750 
z
" transform="scale(0.015625)"/>
        <path id="DejaVuSans-2e" d="M 684 794 
L 1344 794 
L 1344 0 
L 684 0 
L 684 794 
z
" transform="scale(0.015625)"/>
       </defs>
       <use xlink:href="#DejaVuSans-30"/>
       <use xlink:href="#DejaVuSans-2e" x="63.623047"/>
       <use xlink:href="#DejaVuSans-30" x="95.410156"/>
      </g>
     </g>
    </g>
    <g id="xtick_2">
     <g id="line2d_2">
      <g>
       <use xlink:href="#me67fcb4f8e" x="116.238182" y="174.04" style="stroke: #000000; stroke-width: 0.8"/>
      </g>
     </g>
     <g id="text_2">
      <!-- 0.2 -->
      <g transform="translate(108.286619 188.638438) scale(0.1 -0.1)">
       <defs>
        <path id="DejaVuSans-32" d="M 1228 531 
L 3431 531 
L 3431 0 
L 469 0 
L 469 531 
Q 828 903 1448 1529 
Q 2069 2156 2228 2338 
Q 2531 2678 2651 2914 
Q 2772 3150 2772 3378 
Q 2772 3750 2511 3984 
Q 2250 4219 1831 4219 
Q 1534 4219 1204 4116 
Q 875 4013 500 3803 
L 500 4441 
Q 881 4594 1212 4672 
Q 1544 4750 1819 4750 
Q 2544 4750 2975 4387 
Q 3406 4025 3406 3419 
Q 3406 3131 3298 2873 
Q 3191 2616 2906 2266 
Q 2828 2175 2409 1742 
Q 1991 1309 1228 531 
z
" transform="scale(0.015625)"/>
       </defs>
       <use xlink:href="#DejaVuSans-30"/>
       <use xlink:href="#DejaVuSans-2e" x="63.623047"/>
       <use xlink:href="#DejaVuSans-32" x="95.410156"/>
      </g>
     </g>
    </g>
    <g id="xtick_3">
     <g id="line2d_3">
      <g>
       <use xlink:href="#me67fcb4f8e" x="171.052727" y="174.04" style="stroke: #000000; stroke-width: 0.8"/>
      </g>
     </g>
     <g id="text_3">
      <!-- 0.4 -->
      <g transform="translate(163.101165 188.638438) scale(0.1 -0.1)">
       <defs>
        <path id="DejaVuSans-34" d="M 2419 4116 
L 825 1625 
L 2419 1625 
L 2419 4116 
z
M 2253 4666 
L 3047 4666 
L 3047 1625 
L 3713 1625 
L 3713 1100 
L 3047 1100 
L 3047 0 
L 2419 0 
L 2419 1100 
L 313 1100 
L 313 1709 
L 2253 4666 
z
" transform="scale(0.015625)"/>
       </defs>
       <use xlink:href="#DejaVuSans-30"/>
       <use xlink:href="#DejaVuSans-2e" x="63.623047"/>
       <use xlink:href="#DejaVuSans-34" x="95.410156"/>
      </g>
     </g>
    </g>
    <g id="xtick_4">
     <g id="line2d_4">
      <g>
       <use xlink:href="#me67fcb4f8e" x="225.867273" y="174.04" style="stroke: #000000; stroke-width: 0.8"/>
      </g>
     </g>
     <g id="text_4">
      <!-- 0.6 -->
      <g transform="translate(217.91571 188.638438) scale(0.1 -0.1)">
       <defs>
        <path id="DejaVuSans-36" d="M 2113 2584 
Q 1688 2584 1439 2293 
Q 1191 2003 1191 1497 
Q 1191 994 1439 701 
Q 1688 409 2113 409 
Q 2538 409 2786 701 
Q 3034 994 3034 1497 
Q 3034 2003 2786 2293 
Q 2538 2584 2113 2584 
z
M 3366 4563 
L 3366 3988 
Q 3128 4100 2886 4159 
Q 2644 4219 2406 4219 
Q 1781 4219 1451 3797 
Q 1122 3375 1075 2522 
Q 1259 2794 1537 2939 
Q 1816 3084 2150 3084 
Q 2853 3084 3261 2657 
Q 3669 2231 3669 1497 
Q 3669 778 3244 343 
Q 2819 -91 2113 -91 
Q 1303 -91 875 529 
Q 447 1150 447 2328 
Q 447 3434 972 4092 
Q 1497 4750 2381 4750 
Q 2619 4750 2861 4703 
Q 3103 4656 3366 4563 
z
" transform="scale(0.015625)"/>
       </defs>
       <use xlink:href="#DejaVuSans-30"/>
       <use xlink:href="#DejaVuSans-2e" x="63.623047"/>
       <use xlink:href="#DejaVuSans-36" x="95.410156"/>
      </g>
     </g>
    </g>
    <g id="xtick_5">
     <g id="line2d_5">
      <g>
       <use xlink:href="#me67fcb4f8e" x="280.681818" y="174.04" style="stroke: #000000; stroke-width: 0.8"/>
      </g>
     </g>
     <g id="text_5">
      <!-- 0.8 -->
      <g transform="translate(272.730256 188.638438) scale(0.1 -0.1)">
       <defs>
        <path id="DejaVuSans-38" d="M 2034 2216 
Q 1584 2216 1326 1975 
Q 1069 1734 1069 1313 
Q 1069 891 1326 650 
Q 1584 409 2034 409 
Q 2484 409 2743 651 
Q 3003 894 3003 1313 
Q 3003 1734 2745 1975 
Q 2488 2216 2034 2216 
z
M 1403 2484 
Q 997 2584 770 2862 
Q 544 3141 544 3541 
Q 544 4100 942 4425 
Q 1341 4750 2034 4750 
Q 2731 4750 3128 4425 
Q 3525 4100 3525 3541 
Q 3525 3141 3298 2862 
Q 3072 2584 2669 2484 
Q 3125 2378 3379 2068 
Q 3634 1759 3634 1313 
Q 3634 634 3220 271 
Q 2806 -91 2034 -91 
Q 1263 -91 848 271 
Q 434 634 434 1313 
Q 434 1759 690 2068 
Q 947 2378 1403 2484 
z
M 1172 3481 
Q 1172 3119 1398 2916 
Q 1625 2713 2034 2713 
Q 2441 2713 2670 2916 
Q 2900 3119 2900 3481 
Q 2900 3844 2670 4047 
Q 2441 4250 2034 4250 
Q 1625 4250 1398 4047 
Q 1172 3844 1172 3481 
z
" transform="scale(0.015625)"/>
       </defs>
       <use xlink:href="#DejaVuSans-30"/>
       <use xlink:href="#DejaVuSans-2e" x="63.623047"/>
       <use xlink:href="#DejaVuSans-38" x="95.410156"/>
      </g>
     </g>
    </g>
    <g id="xtick_6">
     <g id="line2d_6">
      <g>
       <use xlink:href="#me67fcb4f8e" x="335.496364" y="174.04" style="stroke: #000000; stroke-width: 0.8"/>
      </g>
     </g>
     <g id="text_6">
      <!-- 1.0 -->
      <g transform="translate(327.544801 188.638438) scale(0.1 -0.1)">
       <defs>
        <path id="DejaVuSans-31" d="M 794 531 
L 1825 531 
L 1825 4091 
L 703 3866 
L 703 4441 
L 1819 4666 
L 2450 4666 
L 2450 531 
L 3481 531 
L 3481 0 
L 794 0 
L 794 531 
z
" transform="scale(0.015625)"/>
       </defs>
       <use xlink:href="#DejaVuSans-31"/>
       <use xlink:href="#DejaVuSans-2e" x="63.623047"/>
       <use xlink:href="#DejaVuSans-30" x="95.410156"/>
      </g>
     </g>
    </g>
    <g id="text_7">
     <!-- Time (sec) -->
     <g transform="translate(172.305312 202.316563) scale(0.1 -0.1)">
      <defs>
       <path id="DejaVuSans-54" d="M -19 4666 
L 3928 4666 
L 3928 4134 
L 2272 4134 
L 2272 0 
L 1638 0 
L 1638 4134 
L -19 4134 
L -19 4666 
z
" transform="scale(0.015625)"/>
       <path id="DejaVuSans-69" d="M 603 3500 
L 1178 3500 
L 1178 0 
L 603 0 
L 603 3500 
z
M 603 4863 
L 1178 4863 
L 1178 4134 
L 603 4134 
L 603 4863 
z
" transform="scale(0.015625)"/>
       <path id="DejaVuSans-6d" d="M 3328 2828 
Q 3544 3216 3844 3400 
Q 4144 3584 4550 3584 
Q 5097 3584 5394 3201 
Q 5691 2819 5691 2113 
L 5691 0 
L 5113 0 
L 5113 2094 
Q 5113 2597 4934 2840 
Q 4756 3084 4391 3084 
Q 3944 3084 3684 2787 
Q 3425 2491 3425 1978 
L 3425 0 
L 2847 0 
L 2847 2094 
Q 2847 2600 2669 2842 
Q 2491 3084 2119 3084 
Q 1678 3084 1418 2786 
Q 1159 2488 1159 1978 
L 1159 0 
L 581 0 
L 581 3500 
L 1159 3500 
L 1159 2956 
Q 1356 3278 1631 3431 
Q 1906 3584 2284 3584 
Q 2666 3584 2933 3390 
Q 3200 3197 3328 2828 
z
" transform="scale(0.015625)"/>
       <path id="DejaVuSans-65" d="M 3597 1894 
L 3597 1613 
L 953 1613 
Q 991 1019 1311 708 
Q 1631 397 2203 397 
Q 2534 397 2845 478 
Q 3156 559 3463 722 
L 3463 178 
Q 3153 47 2828 -22 
Q 2503 -91 2169 -91 
Q 1331 -91 842 396 
Q 353 884 353 1716 
Q 353 2575 817 3079 
Q 1281 3584 2069 3584 
Q 2775 3584 3186 3129 
Q 3597 2675 3597 1894 
z
M 3022 2063 
Q 3016 2534 2758 2815 
Q 2500 3097 2075 3097 
Q 1594 3097 1305 2825 
Q 1016 2553 972 2059 
L 3022 2063 
z
" transform="scale(0.015625)"/>
       <path id="DejaVuSans-20" transform="scale(0.015625)"/>
       <path id="DejaVuSans-28" d="M 1984 4856 
Q 1566 4138 1362 3434 
Q 1159 2731 1159 2009 
Q 1159 1288 1364 580 
Q 1569 -128 1984 -844 
L 1484 -844 
Q 1016 -109 783 600 
Q 550 1309 550 2009 
Q 550 2706 781 3412 
Q 1013 4119 1484 4856 
L 1984 4856 
z
" transform="scale(0.015625)"/>
       <path id="DejaVuSans-73" d="M 2834 3397 
L 2834 2853 
Q 2591 2978 2328 3040 
Q 2066 3103 1784 3103 
Q 1356 3103 1142 2972 
Q 928 2841 928 2578 
Q 928 2378 1081 2264 
Q 1234 2150 1697 2047 
L 1894 2003 
Q 2506 1872 2764 1633 
Q 3022 1394 3022 966 
Q 3022 478 2636 193 
Q 2250 -91 1575 -91 
Q 1294 -91 989 -36 
Q 684 19 347 128 
L 347 722 
Q 666 556 975 473 
Q 1284 391 1588 391 
Q 1994 391 2212 530 
Q 2431 669 2431 922 
Q 2431 1156 2273 1281 
Q 2116 1406 1581 1522 
L 1381 1569 
Q 847 1681 609 1914 
Q 372 2147 372 2553 
Q 372 3047 722 3315 
Q 1072 3584 1716 3584 
Q 2034 3584 2315 3537 
Q 2597 3491 2834 3397 
z
" transform="scale(0.015625)"/>
       <path id="DejaVuSans-63" d="M 3122 3366 
L 3122 2828 
Q 2878 2963 2633 3030 
Q 2388 3097 2138 3097 
Q 1578 3097 1268 2742 
Q 959 2388 959 1747 
Q 959 1106 1268 751 
Q 1578 397 2138 397 
Q 2388 397 2633 464 
Q 2878 531 3122 666 
L 3122 134 
Q 2881 22 2623 -34 
Q 2366 -91 2075 -91 
Q 1284 -91 818 406 
Q 353 903 353 1747 
Q 353 2603 823 3093 
Q 1294 3584 2113 3584 
Q 2378 3584 2631 3529 
Q 2884 3475 3122 3366 
z
" transform="scale(0.015625)"/>
       <path id="DejaVuSans-29" d="M 513 4856 
L 1013 4856 
Q 1481 4119 1714 3412 
Q 1947 2706 1947 2009 
Q 1947 1309 1714 600 
Q 1481 -109 1013 -844 
L 513 -844 
Q 928 -128 1133 580 
Q 1338 1288 1338 2009 
Q 1338 2731 1133 3434 
Q 928 4138 513 4856 
z
" transform="scale(0.015625)"/>
      </defs>
      <use xlink:href="#DejaVuSans-54"/>
      <use xlink:href="#DejaVuSans-69" x="57.958984"/>
      <use xlink:href="#DejaVuSans-6d" x="85.742188"/>
      <use xlink:href="#DejaVuSans-65" x="183.154297"/>
      <use xlink:href="#DejaVuSans-20" x="244.677734"/>
      <use xlink:href="#DejaVuSans-28" x="276.464844"/>
      <use xlink:href="#DejaVuSans-73" x="315.478516"/>
      <use xlink:href="#DejaVuSans-65" x="367.578125"/>
      <use xlink:href="#DejaVuSans-63" x="429.101562"/>
      <use xlink:href="#DejaVuSans-29" x="484.082031"/>
     </g>
    </g>
   </g>
   <g id="matplotlib.axis_2">
    <g id="ytick_1">
     <g id="line2d_7">
      <defs>
       <path id="m6bd8fd5ce4" d="M 0 0 
L -3.5 0 
" style="stroke: #000000; stroke-width: 0.8"/>
      </defs>
      <g>
       <use xlink:href="#m6bd8fd5ce4" x="47.72" y="159.56" style="stroke: #000000; stroke-width: 0.8"/>
      </g>
     </g>
     <g id="text_8">
      <!-- 0.0 -->
      <g transform="translate(24.816875 163.359219) scale(0.1 -0.1)">
       <use xlink:href="#DejaVuSans-30"/>
       <use xlink:href="#DejaVuSans-2e" x="63.623047"/>
       <use xlink:href="#DejaVuSans-30" x="95.410156"/>
      </g>
     </g>
    </g>
    <g id="ytick_2">
     <g id="line2d_8">
      <g>
       <use xlink:href="#m6bd8fd5ce4" x="47.72" y="130.6" style="stroke: #000000; stroke-width: 0.8"/>
      </g>
     </g>
     <g id="text_9">
      <!-- 0.2 -->
      <g transform="translate(24.816875 134.399219) scale(0.1 -0.1)">
       <use xlink:href="#DejaVuSans-30"/>
       <use xlink:href="#DejaVuSans-2e" x="63.623047"/>
       <use xlink:href="#DejaVuSans-32" x="95.410156"/>
      </g>
     </g>
    </g>
    <g id="ytick_3">
     <g id="line2d_9">
      <g>
       <use xlink:href="#m6bd8fd5ce4" x="47.72" y="101.64" style="stroke: #000000; stroke-width: 0.8"/>
      </g>
     </g>
     <g id="text_10">
      <!-- 0.4 -->
      <g transform="translate(24.816875 105.439219) scale(0.1 -0.1)">
       <use xlink:href="#DejaVuSans-30"/>
       <use xlink:href="#DejaVuSans-2e" x="63.623047"/>
       <use xlink:href="#DejaVuSans-34" x="95.410156"/>
      </g>
     </g>
    </g>
    <g id="ytick_4">
     <g id="line2d_10">
      <g>
       <use xlink:href="#m6bd8fd5ce4" x="47.72" y="72.68" style="stroke: #000000; stroke-width: 0.8"/>
      </g>
     </g>
     <g id="text_11">
      <!-- 0.6 -->
      <g transform="translate(24.816875 76.479219) scale(0.1 -0.1)">
       <use xlink:href="#DejaVuSans-30"/>
       <use xlink:href="#DejaVuSans-2e" x="63.623047"/>
       <use xlink:href="#DejaVuSans-36" x="95.410156"/>
      </g>
     </g>
    </g>
    <g id="ytick_5">
     <g id="line2d_11">
      <g>
       <use xlink:href="#m6bd8fd5ce4" x="47.72" y="43.72" style="stroke: #000000; stroke-width: 0.8"/>
      </g>
     </g>
     <g id="text_12">
      <!-- 0.8 -->
      <g transform="translate(24.816875 47.519219) scale(0.1 -0.1)">
       <use xlink:href="#DejaVuSans-30"/>
       <use xlink:href="#DejaVuSans-2e" x="63.623047"/>
       <use xlink:href="#DejaVuSans-38" x="95.410156"/>
      </g>
     </g>
    </g>
    <g id="ytick_6">
     <g id="line2d_12">
      <g>
       <use xlink:href="#m6bd8fd5ce4" x="47.72" y="14.76" style="stroke: #000000; stroke-width: 0.8"/>
      </g>
     </g>
     <g id="text_13">
      <!-- 1.0 -->
      <g transform="translate(24.816875 18.559219) scale(0.1 -0.1)">
       <use xlink:href="#DejaVuSans-31"/>
       <use xlink:href="#DejaVuSans-2e" x="63.623047"/>
       <use xlink:href="#DejaVuSans-30" x="95.410156"/>
      </g>
     </g>
    </g>
    <g id="text_14">
     <!-- Injected Signal -->
     <g transform="translate(18.737188 131.417969) rotate(-90) scale(0.1 -0.1)">
      <defs>
       <path id="DejaVuSans-49" d="M 628 4666 
L 1259 4666 
L 1259 0 
L 628 0 
L 628 4666 
z
" transform="scale(0.015625)"/>
       <path id="DejaVuSans-6e" d="M 3513 2113 
L 3513 0 
L 2938 0 
L 2938 2094 
Q 2938 2591 2744 2837 
Q 2550 3084 2163 3084 
Q 1697 3084 1428 2787 
Q 1159 2491 1159 1978 
L 1159 0 
L 581 0 
L 581 3500 
L 1159 3500 
L 1159 2956 
Q 1366 3272 1645 3428 
Q 1925 3584 2291 3584 
Q 2894 3584 3203 3211 
Q 3513 2838 3513 2113 
z
" transform="scale(0.015625)"/>
       <path id="DejaVuSans-6a" d="M 603 3500 
L 1178 3500 
L 1178 -63 
Q 1178 -731 923 -1031 
Q 669 -1331 103 -1331 
L -116 -1331 
L -116 -844 
L 38 -844 
Q 366 -844 484 -692 
Q 603 -541 603 -63 
L 603 3500 
z
M 603 4863 
L 1178 4863 
L 1178 4134 
L 603 4134 
L 603 4863 
z
" transform="scale(0.015625)"/>
       <path id="DejaVuSans-74" d="M 1172 4494 
L 1172 3500 
L 2356 3500 
L 2356 3053 
L 1172 3053 
L 1172 1153 
Q 1172 725 1289 603 
Q 1406 481 1766 481 
L 2356 481 
L 2356 0 
L 1766 0 
Q 1100 0 847 248 
Q 594 497 594 1153 
L 594 3053 
L 172 3053 
L 172 3500 
L 594 3500 
L 594 4494 
L 1172 4494 
z
" transform="scale(0.015625)"/>
       <path id="DejaVuSans-64" d="M 2906 2969 
L 2906 4863 
L 3481 4863 
L 3481 0 
L 2906 0 
L 2906 525 
Q 2725 213 2448 61 
Q 2172 -91 1784 -91 
Q 1150 -91 751 415 
Q 353 922 353 1747 
Q 353 2572 751 3078 
Q 1150 3584 1784 3584 
Q 2172 3584 2448 3432 
Q 2725 3281 2906 2969 
z
M 947 1747 
Q 947 1113 1208 752 
Q 1469 391 1925 391 
Q 2381 391 2643 752 
Q 2906 1113 2906 1747 
Q 2906 2381 2643 2742 
Q 2381 3103 1925 3103 
Q 1469 3103 1208 2742 
Q 947 2381 947 1747 
z
" transform="scale(0.015625)"/>
       <path id="DejaVuSans-53" d="M 3425 4513 
L 3425 3897 
Q 3066 4069 2747 4153 
Q 2428 4238 2131 4238 
Q 1616 4238 1336 4038 
Q 1056 3838 1056 3469 
Q 1056 3159 1242 3001 
Q 1428 2844 1947 2747 
L 2328 2669 
Q 3034 2534 3370 2195 
Q 3706 1856 3706 1288 
Q 3706 609 3251 259 
Q 2797 -91 1919 -91 
Q 1588 -91 1214 -16 
Q 841 59 441 206 
L 441 856 
Q 825 641 1194 531 
Q 1563 422 1919 422 
Q 2459 422 2753 634 
Q 3047 847 3047 1241 
Q 3047 1584 2836 1778 
Q 2625 1972 2144 2069 
L 1759 2144 
Q 1053 2284 737 2584 
Q 422 2884 422 3419 
Q 422 4038 858 4394 
Q 1294 4750 2059 4750 
Q 2388 4750 2728 4690 
Q 3069 4631 3425 4513 
z
" transform="scale(0.015625)"/>
       <path id="DejaVuSans-67" d="M 2906 1791 
Q 2906 2416 2648 2759 
Q 2391 3103 1925 3103 
Q 1463 3103 1205 2759 
Q 947 2416 947 1791 
Q 947 1169 1205 825 
Q 1463 481 1925 481 
Q 2391 481 2648 825 
Q 2906 1169 2906 1791 
z
M 3481 434 
Q 3481 -459 3084 -895 
Q 2688 -1331 1869 -1331 
Q 1566 -1331 1297 -1286 
Q 1028 -1241 775 -1147 
L 775 -588 
Q 1028 -725 1275 -790 
Q 1522 -856 1778 -856 
Q 2344 -856 2625 -561 
Q 2906 -266 2906 331 
L 2906 616 
Q 2728 306 2450 153 
Q 2172 0 1784 0 
Q 1141 0 747 490 
Q 353 981 353 1791 
Q 353 2603 747 3093 
Q 1141 3584 1784 3584 
Q 2172 3584 2450 3431 
Q 2728 3278 2906 2969 
L 2906 3500 
L 3481 3500 
L 3481 434 
z
" transform="scale(0.015625)"/>
       <path id="DejaVuSans-61" d="M 2194 1759 
Q 1497 1759 1228 1600 
Q 959 1441 959 1056 
Q 959 750 1161 570 
Q 1363 391 1709 391 
Q 2188 391 2477 730 
Q 2766 1069 2766 1631 
L 2766 1759 
L 2194 1759 
z
M 3341 1997 
L 3341 0 
L 2766 0 
L 2766 531 
Q 2569 213 2275 61 
Q 1981 -91 1556 -91 
Q 1019 -91 701 211 
Q 384 513 384 1019 
Q 384 1609 779 1909 
Q 1175 2209 1959 2209 
L 2766 2209 
L 2766 2266 
Q 2766 2663 2505 2880 
Q 2244 3097 1772 3097 
Q 1472 3097 1187 3025 
Q 903 2953 641 2809 
L 641 3341 
Q 956 3463 1253 3523 
Q 1550 3584 1831 3584 
Q 2591 3584 2966 3190 
Q 3341 2797 3341 1997 
z
" transform="scale(0.015625)"/>
       <path id="DejaVuSans-6c" d="M 603 4863 
L 1178 4863 
L 1178 0 
L 603 0 
L 603 4863 
z
" transform="scale(0.015625)"/>
      </defs>
      <use xlink:href="#DejaVuSans-49"/>
      <use xlink:href="#DejaVuSans-6e" x="29.492188"/>
      <use xlink:href="#DejaVuSans-6a" x="92.871094"/>
      <use xlink:href="#DejaVuSans-65" x="120.654297"/>
      <use xlink:href="#DejaVuSans-63" x="182.177734"/>
      <use xlink:href="#DejaVuSans-74" x="237.158203"/>
      <use xlink:href="#DejaVuSans-65" x="276.367188"/>
      <use xlink:href="#DejaVuSans-64" x="337.890625"/>
      <use xlink:href="#DejaVuSans-20" x="401.367188"/>
      <use xlink:href="#DejaVuSans-53" x="433.154297"/>
      <use xlink:href="#DejaVuSans-69" x="496.630859"/>
      <use xlink:href="#DejaVuSans-67" x="524.414062"/>
      <use xlink:href="#DejaVuSans-6e" x="587.890625"/>
      <use xlink:href="#DejaVuSans-61" x="651.269531"/>
      <use xlink:href="#DejaVuSans-6c" x="712.548828"/>
     </g>
    </g>
   </g>
   <g id="line2d_13">
    <path d="M 61.423636 107.535258 
L 61.697709 121.72883 
L 61.971782 46.664425 
L 62.245855 102.116872 
L 62.519927 107.770084 
L 62.794 49.510025 
L 63.068073 90.75794 
L 63.342145 83.093235 
L 63.616218 105.372168 
L 63.890291 112.489949 
L 64.164364 114.332757 
L 64.438436 128.509006 
L 64.712509 111.380477 
L 64.986582 62.917723 
L 65.260655 73.922139 
L 65.534727 115.691302 
L 66.082873 77.974148 
L 66.356945 126.448297 
L 66.631018 52.174589 
L 66.905091 59.055405 
L 67.179164 113.906679 
L 67.727309 70.6289 
L 68.001382 111.55484 
L 68.275455 86.55756 
L 68.549527 98.682914 
L 68.8236 98.945352 
L 69.097673 72.774123 
L 69.371745 71.790397 
L 69.645818 110.574656 
L 69.919891 47.509199 
L 70.193964 99.929603 
L 70.468036 96.621756 
L 70.742109 102.670999 
L 71.016182 75.827459 
L 71.290255 117.161474 
L 71.564327 80.346871 
L 71.8384 101.663535 
L 72.112473 55.392952 
L 72.386545 117.146294 
L 72.660618 130.586792 
L 72.934691 100.207475 
L 73.208764 91.813766 
L 73.482836 60.893192 
L 73.756909 120.907898 
L 74.030982 104.013641 
L 74.305055 123.859538 
L 74.579127 60.566834 
L 74.8532 70.762642 
L 75.127273 100.402435 
L 75.401345 49.098023 
L 75.675418 59.907426 
L 75.949491 113.469411 
L 76.223564 80.494331 
L 76.497636 96.342382 
L 76.771709 89.071679 
L 77.045782 45.360859 
L 77.319855 96.221882 
L 77.593927 101.407089 
L 77.868 44.451896 
L 78.142073 117.416124 
L 78.416145 57.972755 
L 78.964291 121.050448 
L 79.238364 81.92365 
L 79.512436 64.18335 
L 79.786509 113.198543 
L 80.060582 99.799347 
L 80.334655 61.196054 
L 80.608727 82.436371 
L 80.8828 49.621186 
L 81.156873 88.885726 
L 81.430945 101.151034 
L 81.705018 58.792063 
L 81.979091 52.998976 
L 82.253164 114.032008 
L 82.527236 120.572841 
L 82.801309 130.556625 
L 83.075382 114.479158 
L 83.349455 80.867909 
L 83.623527 126.349441 
L 83.8976 70.285534 
L 84.171673 119.418012 
L 84.445745 104.284565 
L 84.719818 102.677083 
L 84.993891 51.787102 
L 85.267964 64.092024 
L 85.542036 60.640727 
L 85.816109 84.850794 
L 86.090182 69.761994 
L 86.364255 107.8604 
L 86.638327 110.640196 
L 86.9124 62.612398 
L 87.186473 97.952056 
L 87.460545 102.591539 
L 87.734618 57.292946 
L 88.008691 53.236116 
L 88.282764 74.44098 
L 88.556836 108.465702 
L 88.830909 75.777378 
L 89.104982 59.051795 
L 89.379055 73.965377 
L 89.653127 51.985555 
L 89.9272 96.616165 
L 90.475345 97.933359 
L 90.749418 68.235132 
L 91.023491 126.69082 
L 91.297564 111.659772 
L 91.571636 73.908497 
L 91.845709 128.421674 
L 92.119782 46.526463 
L 92.393855 46.116147 
L 92.667927 116.194364 
L 92.942 68.391427 
L 93.216073 95.831715 
L 93.490145 89.841725 
L 93.764218 92.742004 
L 94.038291 123.492948 
L 94.312364 71.844775 
L 94.586436 129.077068 
L 95.134582 78.713258 
L 95.408655 60.52159 
L 95.9568 75.135837 
L 96.230873 95.938517 
L 96.504945 69.35345 
L 96.779018 68.021315 
L 97.053091 99.965416 
L 97.327164 92.436584 
L 97.601236 100.159862 
L 97.875309 111.541541 
L 98.149382 46.005045 
L 98.423455 130.58508 
L 98.697527 124.100948 
L 98.9716 52.337633 
L 99.245673 71.135452 
L 99.519745 115.643594 
L 99.793818 53.402421 
L 100.067891 109.273277 
L 100.341964 52.730249 
L 100.616036 107.73859 
L 100.890109 46.6996 
L 101.164182 47.539914 
L 101.438255 54.237065 
L 101.712327 71.236053 
L 101.9864 113.522257 
L 102.260473 77.268148 
L 102.534545 85.560163 
L 102.808618 110.154277 
L 103.082691 117.216682 
L 103.356764 84.552136 
L 103.630836 71.604574 
L 103.904909 93.411711 
L 104.178982 85.899957 
L 104.453055 60.395689 
L 104.727127 56.494294 
L 105.0012 49.752905 
L 105.275273 97.532309 
L 105.549345 84.972252 
L 105.823418 92.960101 
L 106.097491 47.445823 
L 106.371564 68.175491 
L 106.645636 58.988639 
L 106.919709 45.94122 
L 107.193782 74.377781 
L 107.467855 63.506869 
L 107.741927 60.300679 
L 108.016 107.614378 
L 108.290073 47.322179 
L 108.564145 58.574975 
L 108.838218 46.731809 
L 109.112291 113.12526 
L 109.386364 44.629398 
L 109.660436 66.717055 
L 109.934509 53.764587 
L 110.208582 91.234493 
L 110.482655 70.953552 
L 110.756727 123.112338 
L 111.0308 112.058574 
L 111.578945 44.293288 
L 111.853018 106.924127 
L 112.127091 70.804527 
L 112.401164 110.4927 
L 112.675236 104.140361 
L 112.949309 106.67215 
L 113.223382 61.601897 
L 113.497455 108.880235 
L 113.771527 62.573499 
L 114.0456 86.70643 
L 114.319673 73.019559 
L 114.867818 96.059385 
L 115.141891 76.875483 
L 115.415964 130.577287 
L 115.690036 75.133724 
L 115.964109 77.049452 
L 116.238182 108.567513 
L 116.512255 51.101914 
L 116.786327 80.090031 
L 117.0604 45.961773 
L 117.334473 65.135466 
L 117.608545 121.946449 
L 117.882618 129.719647 
L 118.156691 57.62595 
L 118.430764 48.253628 
L 118.704836 106.763797 
L 118.978909 67.097561 
L 119.252982 126.759271 
L 119.527055 126.601245 
L 119.801127 44.133091 
L 120.0752 66.321594 
L 120.349273 130.4482 
L 120.623345 117.362871 
L 120.897418 66.547623 
L 121.445564 123.829874 
L 121.719636 116.205084 
L 121.993709 125.852927 
L 122.267782 122.790433 
L 122.541855 82.118055 
L 122.815927 66.960447 
L 123.09 103.169049 
L 123.364073 106.425904 
L 123.638145 100.664947 
L 123.912218 68.590257 
L 124.186291 123.457109 
L 124.460364 74.749092 
L 124.734436 76.542138 
L 125.008509 49.677219 
L 125.282582 50.636554 
L 125.556655 106.531933 
L 125.830727 99.742685 
L 126.1048 78.769324 
L 126.378873 115.95759 
L 127.475164 53.189388 
L 127.749236 86.964882 
L 128.023309 101.8133 
L 128.297382 110.112328 
L 128.571455 50.420845 
L 128.845527 76.612272 
L 129.1196 48.667618 
L 129.393673 57.768815 
L 129.941818 108.409258 
L 130.215891 78.387078 
L 130.489964 74.472483 
L 130.764036 55.420523 
L 131.038109 104.779937 
L 131.312182 63.529527 
L 131.586255 127.465051 
L 131.860327 98.717971 
L 132.1344 106.457985 
L 132.408473 64.056363 
L 132.682545 46.352935 
L 132.956618 51.492727 
L 133.230691 107.292001 
L 133.504764 115.755763 
L 133.778836 79.845224 
L 134.052909 72.757788 
L 134.326982 122.425938 
L 134.875127 47.86361 
L 135.1492 67.805303 
L 135.423273 107.26854 
L 135.697345 127.984742 
L 135.971418 68.210504 
L 136.245491 87.901359 
L 136.519564 94.793977 
L 136.793636 68.527483 
L 137.067709 108.746743 
L 137.341782 90.813781 
L 137.615855 103.872022 
L 137.889927 69.512016 
L 138.438073 112.410002 
L 138.712145 128.30512 
L 138.986218 72.627682 
L 139.260291 105.289628 
L 139.534364 113.553727 
L 139.808436 84.154987 
L 140.082509 68.269315 
L 140.356582 98.583532 
L 140.630655 47.954428 
L 141.1788 119.662169 
L 141.452873 43.76734 
L 142.001018 95.180129 
L 142.275091 53.690881 
L 142.549164 47.940784 
L 142.823236 104.413259 
L 143.097309 125.758205 
L 143.371382 49.530396 
L 143.645455 97.523547 
L 143.919527 115.294892 
L 144.1936 81.029706 
L 144.467673 93.65736 
L 144.741745 59.780779 
L 145.015818 105.957386 
L 145.289891 115.066991 
L 145.563964 95.396915 
L 145.838036 123.451812 
L 146.112109 70.6484 
L 146.386182 74.870851 
L 146.660255 102.78028 
L 146.934327 64.356996 
L 147.2084 103.384066 
L 147.482473 99.677775 
L 147.756545 104.16086 
L 148.030618 121.711294 
L 148.304691 125.428564 
L 148.578764 83.498043 
L 148.852836 97.216226 
L 149.126909 74.175548 
L 149.400982 92.373435 
L 149.949127 54.76415 
L 150.2232 46.775702 
L 150.497273 62.41929 
L 151.045418 108.378328 
L 151.319491 70.724073 
L 151.593564 76.294351 
L 151.867636 94.465933 
L 152.141709 125.420215 
L 152.415782 113.918396 
L 152.689855 85.552714 
L 152.963927 93.514972 
L 153.238 124.130427 
L 153.512073 79.217524 
L 153.786145 86.416838 
L 154.060218 62.707692 
L 154.334291 74.043763 
L 154.608364 92.806339 
L 154.882436 81.952073 
L 155.156509 86.039035 
L 155.430582 94.511776 
L 155.704655 73.931636 
L 155.978727 74.340268 
L 156.2528 71.293954 
L 156.526873 54.201245 
L 156.800945 46.056651 
L 157.075018 57.397986 
L 157.349091 78.589839 
L 157.623164 64.854924 
L 157.897236 126.682545 
L 158.171309 64.193158 
L 158.445382 62.106932 
L 158.719455 66.44003 
L 158.993527 128.661958 
L 159.2676 68.424317 
L 159.541673 115.481807 
L 159.815745 127.329863 
L 160.089818 73.488788 
L 160.363891 80.709476 
L 160.637964 82.656142 
L 160.912036 61.49909 
L 161.186109 68.109967 
L 161.460182 58.218654 
L 161.734255 66.172247 
L 162.008327 113.9089 
L 162.2824 60.247758 
L 162.556473 102.104525 
L 162.830545 49.372648 
L 163.104618 55.883896 
L 163.378691 116.077292 
L 163.652764 61.149611 
L 164.200909 92.815301 
L 164.474982 74.297532 
L 164.749055 65.724935 
L 165.023127 118.481055 
L 165.2972 57.432927 
L 165.571273 50.592312 
L 165.845345 76.914752 
L 166.119418 125.399168 
L 166.393491 107.454036 
L 166.941636 55.977236 
L 167.215709 51.806808 
L 167.489782 74.889539 
L 167.763855 127.883724 
L 168.037927 48.839697 
L 168.312 52.593663 
L 168.586073 48.604199 
L 168.860145 49.547641 
L 169.134218 95.475952 
L 169.408291 117.130155 
L 169.682364 94.30781 
L 169.956436 97.196032 
L 170.230509 58.153112 
L 170.504582 60.768443 
L 171.3268 99.638404 
L 171.874945 77.596914 
L 172.149018 129.86475 
L 172.423091 76.688214 
L 172.697164 128.611153 
L 172.971236 124.124628 
L 173.245309 85.744128 
L 173.519382 84.449499 
L 173.793455 61.499901 
L 174.067527 80.33456 
L 174.3416 114.676609 
L 174.889745 47.238307 
L 175.437891 76.215411 
L 175.711964 47.024176 
L 175.986036 61.698762 
L 176.534182 125.791271 
L 176.808255 112.825693 
L 177.082327 50.677673 
L 177.3564 65.513501 
L 177.904545 111.4328 
L 178.178618 69.231449 
L 178.452691 84.287115 
L 178.726764 106.074781 
L 179.274909 83.228843 
L 179.548982 79.521846 
L 179.823055 114.344127 
L 180.097127 117.331111 
L 180.3712 108.512235 
L 180.645273 118.606297 
L 180.919345 54.268848 
L 181.193418 54.11593 
L 181.467491 48.815317 
L 181.741564 128.186954 
L 182.015636 92.202132 
L 182.289709 105.534732 
L 182.563782 48.216224 
L 183.111927 103.169934 
L 183.386 103.776995 
L 183.660073 78.712911 
L 183.934145 96.217959 
L 184.208218 85.779327 
L 184.482291 111.991084 
L 185.030436 89.371133 
L 185.304509 52.804937 
L 185.578582 112.200208 
L 185.852655 123.164675 
L 186.126727 79.69075 
L 186.4008 99.725937 
L 186.674873 79.542042 
L 187.223018 91.113918 
L 187.497091 53.350992 
L 187.771164 126.261463 
L 188.045236 110.321799 
L 188.319309 104.266106 
L 188.593382 87.554107 
L 188.867455 52.103055 
L 189.141527 110.021502 
L 189.4156 65.942277 
L 189.689673 51.404217 
L 189.963745 67.174835 
L 190.237818 119.389547 
L 191.060036 44.351029 
L 191.334109 57.238758 
L 191.608182 102.008082 
L 191.882255 50.578317 
L 192.4304 79.146419 
L 192.704473 119.027513 
L 192.978545 122.332161 
L 193.252618 128.931071 
L 193.526691 87.857043 
L 193.800764 79.846901 
L 194.074836 123.813434 
L 194.348909 48.930746 
L 194.622982 114.931023 
L 194.897055 107.817288 
L 195.171127 109.325804 
L 195.4452 85.266598 
L 195.719273 114.219316 
L 195.993345 79.487655 
L 196.267418 118.633763 
L 196.541491 97.365728 
L 196.815564 44.907858 
L 197.089636 127.884662 
L 197.363709 107.235883 
L 197.637782 70.952441 
L 197.911855 114.338097 
L 198.185927 58.407393 
L 198.46 70.145985 
L 198.734073 47.233022 
L 199.008145 108.880884 
L 199.282218 102.401049 
L 199.556291 107.102808 
L 200.104436 46.538015 
L 200.652582 60.787933 
L 200.926655 60.964653 
L 201.200727 108.198505 
L 201.4748 95.586377 
L 201.748873 122.528663 
L 202.022945 91.578426 
L 202.297018 127.22739 
L 202.571091 58.472828 
L 202.845164 111.226282 
L 203.119236 80.351498 
L 203.393309 90.021787 
L 203.667382 71.285274 
L 203.941455 83.793666 
L 204.215527 83.596721 
L 204.4896 77.257035 
L 204.763673 47.022359 
L 205.037745 65.045321 
L 205.311818 64.766761 
L 205.585891 109.974858 
L 205.859964 121.255974 
L 206.134036 117.646896 
L 206.408109 86.166136 
L 206.682182 122.590889 
L 206.956255 120.582387 
L 207.230327 123.964004 
L 207.5044 102.134515 
L 207.778473 121.934796 
L 208.052545 117.378133 
L 208.326618 44.163447 
L 208.600691 125.290153 
L 208.874764 122.312063 
L 209.148836 102.967344 
L 209.422909 50.038934 
L 209.696982 63.15543 
L 209.971055 61.410875 
L 210.245127 74.736668 
L 210.5192 62.456477 
L 211.341418 126.274619 
L 211.615491 81.386747 
L 211.889564 104.7042 
L 212.163636 43.773422 
L 212.437709 51.811521 
L 212.711782 76.769096 
L 212.985855 68.696184 
L 213.259927 81.406357 
L 213.534 50.532863 
L 213.808073 63.74314 
L 214.082145 111.980146 
L 214.356218 53.288273 
L 214.630291 64.544793 
L 214.904364 102.856359 
L 215.178436 72.710933 
L 215.452509 114.594456 
L 215.726582 129.508478 
L 216.000655 57.795048 
L 216.5488 112.222633 
L 216.822873 44.70622 
L 217.096945 87.801804 
L 217.645091 58.416295 
L 217.919164 81.223189 
L 218.193236 55.164074 
L 218.467309 81.993363 
L 218.741382 70.452237 
L 219.015455 72.668046 
L 219.289527 113.092774 
L 219.5636 55.808268 
L 219.837673 101.362589 
L 220.111745 111.788003 
L 220.385818 52.977212 
L 220.659891 96.692941 
L 220.933964 104.519293 
L 221.208036 57.501301 
L 221.482109 106.322401 
L 221.756182 76.747484 
L 222.030255 79.379093 
L 222.304327 91.91624 
L 222.5784 48.589081 
L 223.126545 92.403553 
L 223.400618 63.247462 
L 223.674691 48.363245 
L 224.222836 104.928799 
L 224.496909 83.136828 
L 224.770982 113.75454 
L 225.319127 79.21698 
L 225.5932 94.520849 
L 225.867273 84.410906 
L 226.141345 64.453595 
L 226.415418 113.701433 
L 226.689491 116.066558 
L 226.963564 73.528257 
L 227.237636 108.290498 
L 227.511709 47.391569 
L 227.785782 79.18245 
L 228.059855 84.245639 
L 228.333927 101.638567 
L 228.608 130.183978 
L 228.882073 77.053262 
L 229.156145 94.431833 
L 229.430218 69.686944 
L 229.704291 124.157596 
L 229.978364 111.652163 
L 230.252436 111.311628 
L 230.526509 78.951502 
L 230.800582 115.490524 
L 231.348727 62.057935 
L 231.6228 104.940108 
L 231.896873 63.724388 
L 232.170945 110.511511 
L 232.445018 119.363907 
L 232.719091 69.764268 
L 232.993164 52.196605 
L 233.267236 73.29619 
L 233.541309 74.058257 
L 233.815382 67.659417 
L 234.089455 70.320833 
L 234.6376 118.731941 
L 234.911673 83.646009 
L 235.185745 69.818826 
L 235.459818 116.128395 
L 235.733891 58.585635 
L 236.007964 124.242068 
L 236.282036 79.092076 
L 236.556109 111.483214 
L 237.104255 95.327419 
L 237.378327 92.455169 
L 237.6524 119.33376 
L 237.926473 89.617156 
L 238.200545 117.0507 
L 238.474618 113.455079 
L 238.748691 51.373851 
L 239.022764 92.628544 
L 239.296836 113.909069 
L 239.570909 47.505498 
L 239.844982 85.509193 
L 240.119055 67.080709 
L 240.393127 71.179604 
L 240.6672 73.243643 
L 240.941273 126.017273 
L 241.215345 68.466103 
L 241.489418 108.984115 
L 241.763491 64.480609 
L 242.037564 81.865683 
L 242.311636 55.127333 
L 242.585709 70.709346 
L 242.859782 122.268367 
L 243.133855 56.265869 
L 243.407927 74.239326 
L 243.682 115.611901 
L 243.956073 54.890997 
L 244.230145 95.376639 
L 244.504218 57.361238 
L 244.778291 108.072323 
L 245.052364 48.61823 
L 245.326436 116.80631 
L 245.600509 130.451593 
L 245.874582 94.659999 
L 246.148655 80.801828 
L 246.422727 53.106212 
L 246.6968 120.559649 
L 246.970873 119.433236 
L 247.244945 56.262293 
L 247.519018 105.361772 
L 247.793091 105.156216 
L 248.067164 86.318747 
L 248.341236 76.283278 
L 248.615309 81.187957 
L 248.889382 54.590885 
L 249.163455 109.080069 
L 249.437527 48.460335 
L 249.7116 114.433694 
L 249.985673 56.776005 
L 250.259745 104.115759 
L 250.533818 101.975649 
L 250.807891 81.728491 
L 251.081964 73.212628 
L 251.356036 126.391711 
L 251.630109 65.123964 
L 251.904182 72.903483 
L 252.178255 122.00995 
L 252.7264 55.306949 
L 253.000473 94.334389 
L 253.274545 90.648963 
L 253.548618 73.062659 
L 253.822691 104.220696 
L 254.096764 87.128702 
L 254.370836 82.026102 
L 254.644909 71.475879 
L 254.918982 75.684954 
L 255.193055 108.200064 
L 255.467127 116.237276 
L 255.7412 128.403984 
L 256.289345 121.502455 
L 256.563418 108.18177 
L 256.837491 121.75438 
L 257.111564 73.20876 
L 257.385636 121.828087 
L 257.659709 71.708804 
L 257.933782 129.295322 
L 258.481927 51.325509 
L 259.030073 126.310059 
L 259.304145 60.090418 
L 259.578218 106.798814 
L 259.852291 123.316028 
L 260.126364 67.689419 
L 260.400436 128.427145 
L 260.674509 126.014808 
L 260.948582 86.910074 
L 261.222655 128.625028 
L 261.496727 100.889216 
L 261.7708 48.271982 
L 262.044873 113.746997 
L 262.318945 73.301773 
L 262.593018 73.292019 
L 262.867091 129.635841 
L 263.141164 93.711998 
L 263.415236 74.909892 
L 263.689309 81.805898 
L 263.963382 44.976118 
L 264.237455 90.068481 
L 264.511527 73.014996 
L 264.7856 119.610248 
L 265.059673 44.761026 
L 265.333745 118.365231 
L 265.607818 106.173743 
L 265.881891 70.113561 
L 266.155964 81.526476 
L 266.430036 74.575976 
L 266.704109 53.770523 
L 266.978182 86.993982 
L 267.252255 87.319506 
L 267.526327 58.643242 
L 267.8004 69.744023 
L 268.074473 56.492324 
L 268.348545 58.185693 
L 268.622618 67.797844 
L 268.896691 55.862493 
L 269.170764 72.971969 
L 269.444836 121.496957 
L 269.718909 126.218195 
L 269.992982 84.072637 
L 270.267055 119.750893 
L 270.541127 46.339381 
L 270.8152 126.37455 
L 271.363345 73.952498 
L 271.637418 116.575124 
L 271.911491 80.541332 
L 272.185564 88.963905 
L 272.459636 65.222592 
L 272.733709 84.421311 
L 273.007782 50.93895 
L 273.281855 55.486157 
L 273.555927 123.643525 
L 274.104073 80.258022 
L 274.378145 91.748884 
L 274.652218 54.196213 
L 274.926291 52.663481 
L 275.200364 107.980632 
L 275.474436 95.442574 
L 275.748509 70.643812 
L 276.022582 92.367376 
L 276.296655 49.191292 
L 276.570727 128.913472 
L 277.118873 52.192344 
L 277.667018 91.731365 
L 277.941091 68.046572 
L 278.215164 115.080999 
L 279.037382 54.610573 
L 279.311455 49.54551 
L 279.585527 119.603426 
L 279.8596 66.392751 
L 280.133673 48.174214 
L 280.407745 45.12906 
L 280.681818 87.77978 
L 280.955891 83.145256 
L 281.229964 89.014669 
L 281.504036 45.612739 
L 281.778109 129.751123 
L 282.052182 77.562858 
L 282.326255 81.933297 
L 282.600327 83.455042 
L 282.8744 57.274212 
L 283.148473 65.143374 
L 283.422545 115.124498 
L 283.696618 126.571514 
L 283.970691 80.972387 
L 284.244764 121.002915 
L 284.518836 105.26867 
L 284.792909 129.910795 
L 285.066982 80.438174 
L 285.341055 128.417983 
L 285.615127 100.314524 
L 285.8892 90.392356 
L 286.163273 68.537158 
L 286.437345 64.758579 
L 286.711418 44.5735 
L 286.985491 112.557696 
L 287.259564 93.702181 
L 287.533636 50.146681 
L 287.807709 104.867212 
L 288.081782 91.043031 
L 288.355855 70.485884 
L 288.629927 77.830872 
L 288.904 81.719063 
L 289.178073 47.912713 
L 289.726218 129.390331 
L 290.000291 86.182112 
L 290.274364 94.560194 
L 290.548436 66.308943 
L 290.822509 73.384141 
L 291.096582 55.071662 
L 291.370655 109.21212 
L 291.644727 81.346245 
L 291.9188 116.866103 
L 292.192873 117.67714 
L 292.466945 122.630587 
L 292.741018 70.761815 
L 293.015091 125.407479 
L 293.289164 48.678943 
L 293.563236 97.099553 
L 293.837309 71.990214 
L 294.111382 121.74772 
L 294.9336 61.796946 
L 295.207673 61.570732 
L 295.481745 113.962091 
L 295.755818 46.885311 
L 296.029891 118.086424 
L 296.303964 109.205262 
L 296.578036 56.919082 
L 296.852109 81.2291 
L 297.126182 52.420855 
L 297.400255 94.112041 
L 297.674327 91.079136 
L 297.9484 64.973541 
L 298.222473 61.342713 
L 298.496545 124.104222 
L 298.770618 125.19056 
L 299.044691 100.041683 
L 299.318764 129.558006 
L 299.866909 44.589318 
L 300.140982 87.266313 
L 300.415055 47.087594 
L 300.689127 47.309913 
L 300.9632 46.884989 
L 301.237273 105.928895 
L 301.511345 100.841229 
L 301.785418 57.307487 
L 302.059491 48.139299 
L 302.333564 46.613773 
L 302.607636 75.520438 
L 302.881709 69.047058 
L 303.155782 103.828723 
L 303.429855 94.120444 
L 303.703927 119.239064 
L 303.978 50.322403 
L 304.252073 62.896117 
L 304.526145 54.335249 
L 304.800218 109.356085 
L 305.074291 90.346421 
L 305.348364 88.515368 
L 305.622436 91.214871 
L 305.896509 64.669886 
L 306.170582 109.230991 
L 306.444655 68.914023 
L 306.718727 128.705404 
L 306.9928 53.147515 
L 307.266873 46.638981 
L 307.540945 105.876791 
L 307.815018 65.706554 
L 308.089091 68.394501 
L 308.363164 92.051512 
L 308.637236 87.504615 
L 308.911309 59.977168 
L 309.185382 99.326159 
L 309.459455 73.895674 
L 309.733527 70.678037 
L 310.0076 112.136232 
L 310.281673 108.710145 
L 310.555745 92.945809 
L 310.829818 105.629143 
L 311.103891 45.340993 
L 311.377964 50.944831 
L 311.652036 51.499183 
L 311.926109 115.516015 
L 312.474255 81.780227 
L 312.748327 88.155921 
L 313.0224 108.950347 
L 313.296473 99.962304 
L 313.570545 63.999564 
L 313.844618 128.761887 
L 314.118691 112.601007 
L 314.392764 89.506274 
L 314.666836 82.224083 
L 314.940909 91.901533 
L 315.214982 81.533542 
L 315.489055 110.605674 
L 315.763127 117.887204 
L 316.0372 95.169424 
L 316.311273 111.052065 
L 316.859418 65.16342 
L 317.133491 120.286731 
L 317.407564 51.744988 
L 317.681636 68.565709 
L 317.955709 77.826037 
L 318.229782 107.46996 
L 318.503855 85.343378 
L 318.777927 125.305512 
L 319.052 76.99773 
L 319.326073 113.372165 
L 319.600145 80.550376 
L 319.874218 78.256763 
L 320.148291 45.813434 
L 320.422364 119.390575 
L 320.696436 67.95321 
L 320.970509 54.444607 
L 321.518655 120.24488 
L 321.792727 61.592749 
L 322.0668 122.832814 
L 322.340873 106.64721 
L 322.614945 125.847857 
L 322.889018 59.345769 
L 323.163091 103.807296 
L 323.437164 85.645566 
L 323.711236 118.893611 
L 323.985309 44.354603 
L 324.259382 127.505345 
L 324.533455 104.233814 
L 324.807527 118.296488 
L 325.0816 87.840492 
L 325.355673 110.489338 
L 325.629745 112.122432 
L 325.903818 49.031216 
L 326.177891 56.888496 
L 326.451964 70.337624 
L 326.726036 48.724503 
L 327.000109 129.973977 
L 327.274182 65.000191 
L 327.548255 56.934474 
L 327.822327 103.32852 
L 328.0964 127.537612 
L 328.370473 110.389336 
L 328.644545 52.347612 
L 328.918618 60.479771 
L 329.192691 114.845543 
L 329.466764 81.912288 
L 329.740836 79.092136 
L 330.014909 111.053959 
L 330.288982 100.124706 
L 330.563055 97.255543 
L 330.837127 65.87314 
L 331.1112 90.793875 
L 331.385273 86.966599 
L 331.659345 81.497706 
L 331.933418 60.878519 
L 332.207491 60.017327 
L 332.481564 76.370172 
L 332.755636 117.09596 
L 333.029709 58.216349 
L 333.303782 57.75529 
L 333.577855 109.964795 
L 333.851927 87.584542 
L 334.126 74.873845 
L 334.400073 79.358077 
L 334.674145 108.794584 
L 334.948218 46.832315 
L 335.222291 91.659345 
L 335.222291 91.659345 
" clip-path="url(#p6375c21cb9)" style="fill: none; stroke: #1f77b4; stroke-width: 1.5; stroke-linecap: square"/>
   </g>
   <g id="line2d_14">
    <path d="M 61.423636 87.16 
L 335.496364 87.16 
" clip-path="url(#p6375c21cb9)" style="fill: none; stroke-dasharray: 7.4,3.2; stroke-dashoffset: 0; stroke: #ff0000; stroke-width: 2"/>
   </g>
   <g id="line2d_15">
    <path d="M 192.978545 87.16 
L 203.941455 87.16 
" clip-path="url(#p6375c21cb9)" style="fill: none; stroke: #000000; stroke-width: 2; stroke-linecap: square"/>
   </g>
   <g id="line2d_16">
    <path d="M 192.978545 43.72 
L 203.941455 43.72 
" clip-path="url(#p6375c21cb9)" style="fill: none; stroke: #000000; stroke-width: 2; stroke-linecap: square"/>
   </g>
   <g id="line2d_17">
    <path d="M 198.46 87.16 
L 198.46 43.72 
" clip-path="url(#p6375c21cb9)" style="fill: none; stroke: #000000; stroke-width: 2; stroke-linecap: square"/>
   </g>
   <g id="line2d_18">
    <path d="M 192.978545 159.56 
L 203.941455 159.56 
" clip-path="url(#p6375c21cb9)" style="fill: none; stroke: #000000; stroke-width: 2; stroke-linecap: square"/>
   </g>
   <g id="line2d_19">
    <path d="M 198.46 159.56 
L 198.46 87.16 
" clip-path="url(#p6375c21cb9)" style="fill: none; stroke: #000000; stroke-width: 2; stroke-linecap: square"/>
   </g>
   <g id="patch_3">
    <path d="M 47.72 174.04 
L 47.72 14.76 
" style="fill: none; stroke: #000000; stroke-width: 0.8; stroke-linejoin: miter; stroke-linecap: square"/>
   </g>
   <g id="patch_4">
    <path d="M 349.2 174.04 
L 349.2 14.76 
" style="fill: none; stroke: #000000; stroke-width: 0.8; stroke-linejoin: miter; stroke-linecap: square"/>
   </g>
   <g id="patch_5">
    <path d="M 47.72 174.04 
L 349.2 174.04 
" style="fill: none; stroke: #000000; stroke-width: 0.8; stroke-linejoin: miter; stroke-linecap: square"/>
   </g>
   <g id="patch_6">
    <path d="M 47.72 14.76 
L 349.2 14.76 
" style="fill: none; stroke: #000000; stroke-width: 0.8; stroke-linejoin: miter; stroke-linecap: square"/>
   </g>
   <g id="text_15">
    <g id="patch_7">
     <path d="M 205.422909 71.519688 
L 235.015097 71.519688 
L 235.015097 53.841563 
L 205.422909 53.841563 
z
" style="fill: #ffffff; opacity: 0.8; stroke: #000000; stroke-linejoin: miter"/>
    </g>
    <!-- gain -->
    <g transform="translate(209.422909 65.44) scale(0.1 -0.1)">
     <use xlink:href="#DejaVuSans-67"/>
     <use xlink:href="#DejaVuSans-61" x="63.476562"/>
     <use xlink:href="#DejaVuSans-69" x="124.755859"/>
     <use xlink:href="#DejaVuSans-6e" x="152.539062"/>
    </g>
   </g>
   <g id="text_16">
    <g id="patch_8">
     <path d="M 205.422909 129.439688 
L 241.865097 129.439688 
L 241.865097 111.761563 
L 205.422909 111.761563 
z
" style="fill: #ffffff; opacity: 0.8; stroke: #000000; stroke-linejoin: miter"/>
    </g>
    <!-- offset -->
    <g transform="translate(209.422909 123.36) scale(0.1 -0.1)">
     <defs>
      <path id="DejaVuSans-6f" d="M 1959 3097 
Q 1497 3097 1228 2736 
Q 959 2375 959 1747 
Q 959 1119 1226 758 
Q 1494 397 1959 397 
Q 2419 397 2687 759 
Q 2956 1122 2956 1747 
Q 2956 2369 2687 2733 
Q 2419 3097 1959 3097 
z
M 1959 3584 
Q 2709 3584 3137 3096 
Q 3566 2609 3566 1747 
Q 3566 888 3137 398 
Q 2709 -91 1959 -91 
Q 1206 -91 779 398 
Q 353 888 353 1747 
Q 353 2609 779 3096 
Q 1206 3584 1959 3584 
z
" transform="scale(0.015625)"/>
      <path id="DejaVuSans-66" d="M 2375 4863 
L 2375 4384 
L 1825 4384 
Q 1516 4384 1395 4259 
Q 1275 4134 1275 3809 
L 1275 3500 
L 2222 3500 
L 2222 3053 
L 1275 3053 
L 1275 0 
L 697 0 
L 697 3053 
L 147 3053 
L 147 3500 
L 697 3500 
L 697 3744 
Q 697 4328 969 4595 
Q 1241 4863 1831 4863 
L 2375 4863 
z
" transform="scale(0.015625)"/>
     </defs>
     <use xlink:href="#DejaVuSans-6f"/>
     <use xlink:href="#DejaVuSans-66" x="61.181641"/>
     <use xlink:href="#DejaVuSans-66" x="96.386719"/>
     <use xlink:href="#DejaVuSans-73" x="131.591797"/>
     <use xlink:href="#DejaVuSans-65" x="183.691406"/>
     <use xlink:href="#DejaVuSans-74" x="245.214844"/>
    </g>
   </g>
  </g>
 </g>
 <defs>
  <clipPath id="p6375c21cb9">
   <rect x="47.72" y="14.76" width="301.48" height="159.28"/>
  </clipPath>
 </defs>
</svg>
