<?xml version="1.0" encoding="utf-8" standalone="no"?>
<!DOCTYPE svg PUBLIC "-//W3C//DTD SVG 1.1//EN"
  "http://www.w3.org/Graphics/SVG/1.1/DTD/svg11.dtd">
<svg xmlns:xlink="http://www.w3.org/1999/xlink" width="360pt" height="216pt" viewBox="0 0 360 216" xmlns="http://www.w3.org/2000/svg" version="1.1">
 <metadata>
  <rdf:RDF xmlns:dc="http://purl.org/dc/elements/1.1/" xmlns:cc="http://creativecommons.org/ns#" xmlns:rdf="http://www.w3.org/1999/02/22-rdf-syntax-ns#">
   <cc:Work>
    <dc:type rdf:resource="http://purl.org/dc/dcmitype/StillImage"/>
    <dc:date>2025-04-30T01:59:20.695968</dc:date>
    <dc:format>image/svg+xml</dc:format>
    <dc:creator>
     <cc:Agent>
      <dc:title>Matplotlib v3.10.1, https://matplotlib.org/</dc:title>
     </cc:Agent>
    </dc:creator>
   </cc:Work>
  </rdf:RDF>
 </metadata>
 <defs>
  <style type="text/css">*{stroke-linejoin: round; stroke-linecap: butt}</style>
 </defs>
 <g id="figure_1">
  <g id="patch_1">
   <path d="M 0 216 
L 360 216 
L 360 0 
L 0 0 
z
" style="fill: #ffffff"/>
  </g>
  <g id="axes_1">
   <g id="patch_2">
    <path d="M 47.72 174.04 
L 349.2 174.04 
L 349.2 14.76 
L 47.72 14.76 
z
" style="fill: #ffffff"/>
   </g>
   <g id="matplotlib.axis_1">
    <g id="xtick_1">
     <g id="line2d_1">
      <defs>
       <path id="m8d9ecc8650" d="M 0 0 
L 0 3.5 
" style="stroke: #000000; stroke-width: 0.8"/>
      </defs>
      <g>
       <use xlink:href="#m8d9ecc8650" x="61.423636" y="174.04" style="stroke: #000000; stroke-width: 0.8"/>
      </g>
     </g>
     <g id="text_1">
      <!-- 0.0 -->
      <g transform="translate(53.472074 188.638438) scale(0.1 -0.1)">
       <defs>
        <path id="DejaVuSans-30" d="M 2034 4250 
Q 1547 4250 1301 3770 
Q 1056 3291 1056 2328 
Q 1056 1369 1301 889 
Q 1547 409 2034 409 
Q 2525 409 2770 889 
Q 3016 1369 3016 2328 
Q 3016 3291 2770 3770 
Q 2525 4250 2034 4250 
z
M 2034 4750 
Q 2819 4750 3233 4129 
Q 3647 3509 3647 2328 
Q 3647 1150 3233 529 
Q 2819 -91 2034 -91 
Q 1250 -91 836 529 
Q 422 1150 422 2328 
Q 422 3509 836 4129 
Q 1250 4750 2034 4750 
z
" transform="scale(0.015625)"/>
        <path id="DejaVuSans-2e" d="M 684 794 
L 1344 794 
L 1344 0 
L 684 0 
L 684 794 
z
" transform="scale(0.015625)"/>
       </defs>
       <use xlink:href="#DejaVuSans-30"/>
       <use xlink:href="#DejaVuSans-2e" transform="translate(63.623047 0)"/>
       <use xlink:href="#DejaVuSans-30" transform="translate(95.410156 0)"/>
      </g>
     </g>
    </g>
    <g id="xtick_2">
     <g id="line2d_2">
      <g>
       <use xlink:href="#m8d9ecc8650" x="116.238182" y="174.04" style="stroke: #000000; stroke-width: 0.8"/>
      </g>
     </g>
     <g id="text_2">
      <!-- 0.2 -->
      <g transform="translate(108.286619 188.638438) scale(0.1 -0.1)">
       <defs>
        <path id="DejaVuSans-32" d="M 1228 531 
L 3431 531 
L 3431 0 
L 469 0 
L 469 531 
Q 828 903 1448 1529 
Q 2069 2156 2228 2338 
Q 2531 2678 2651 2914 
Q 2772 3150 2772 3378 
Q 2772 3750 2511 3984 
Q 2250 4219 1831 4219 
Q 1534 4219 1204 4116 
Q 875 4013 500 3803 
L 500 4441 
Q 881 4594 1212 4672 
Q 1544 4750 1819 4750 
Q 2544 4750 2975 4387 
Q 3406 4025 3406 3419 
Q 3406 3131 3298 2873 
Q 3191 2616 2906 2266 
Q 2828 2175 2409 1742 
Q 1991 1309 1228 531 
z
" transform="scale(0.015625)"/>
       </defs>
       <use xlink:href="#DejaVuSans-30"/>
       <use xlink:href="#DejaVuSans-2e" transform="translate(63.623047 0)"/>
       <use xlink:href="#DejaVuSans-32" transform="translate(95.410156 0)"/>
      </g>
     </g>
    </g>
    <g id="xtick_3">
     <g id="line2d_3">
      <g>
       <use xlink:href="#m8d9ecc8650" x="171.052727" y="174.04" style="stroke: #000000; stroke-width: 0.8"/>
      </g>
     </g>
     <g id="text_3">
      <!-- 0.4 -->
      <g transform="translate(163.101165 188.638438) scale(0.1 -0.1)">
       <defs>
        <path id="DejaVuSans-34" d="M 2419 4116 
L 825 1625 
L 2419 1625 
L 2419 4116 
z
M 2253 4666 
L 3047 4666 
L 3047 1625 
L 3713 1625 
L 3713 1100 
L 3047 1100 
L 3047 0 
L 2419 0 
L 2419 1100 
L 313 1100 
L 313 1709 
L 2253 4666 
z
" transform="scale(0.015625)"/>
       </defs>
       <use xlink:href="#DejaVuSans-30"/>
       <use xlink:href="#DejaVuSans-2e" transform="translate(63.623047 0)"/>
       <use xlink:href="#DejaVuSans-34" transform="translate(95.410156 0)"/>
      </g>
     </g>
    </g>
    <g id="xtick_4">
     <g id="line2d_4">
      <g>
       <use xlink:href="#m8d9ecc8650" x="225.867273" y="174.04" style="stroke: #000000; stroke-width: 0.8"/>
      </g>
     </g>
     <g id="text_4">
      <!-- 0.6 -->
      <g transform="translate(217.91571 188.638438) scale(0.1 -0.1)">
       <defs>
        <path id="DejaVuSans-36" d="M 2113 2584 
Q 1688 2584 1439 2293 
Q 1191 2003 1191 1497 
Q 1191 994 1439 701 
Q 1688 409 2113 409 
Q 2538 409 2786 701 
Q 3034 994 3034 1497 
Q 3034 2003 2786 2293 
Q 2538 2584 2113 2584 
z
M 3366 4563 
L 3366 3988 
Q 3128 4100 2886 4159 
Q 2644 4219 2406 4219 
Q 1781 4219 1451 3797 
Q 1122 3375 1075 2522 
Q 1259 2794 1537 2939 
Q 1816 3084 2150 3084 
Q 2853 3084 3261 2657 
Q 3669 2231 3669 1497 
Q 3669 778 3244 343 
Q 2819 -91 2113 -91 
Q 1303 -91 875 529 
Q 447 1150 447 2328 
Q 447 3434 972 4092 
Q 1497 4750 2381 4750 
Q 2619 4750 2861 4703 
Q 3103 4656 3366 4563 
z
" transform="scale(0.015625)"/>
       </defs>
       <use xlink:href="#DejaVuSans-30"/>
       <use xlink:href="#DejaVuSans-2e" transform="translate(63.623047 0)"/>
       <use xlink:href="#DejaVuSans-36" transform="translate(95.410156 0)"/>
      </g>
     </g>
    </g>
    <g id="xtick_5">
     <g id="line2d_5">
      <g>
       <use xlink:href="#m8d9ecc8650" x="280.681818" y="174.04" style="stroke: #000000; stroke-width: 0.8"/>
      </g>
     </g>
     <g id="text_5">
      <!-- 0.8 -->
      <g transform="translate(272.730256 188.638438) scale(0.1 -0.1)">
       <defs>
        <path id="DejaVuSans-38" d="M 2034 2216 
Q 1584 2216 1326 1975 
Q 1069 1734 1069 1313 
Q 1069 891 1326 650 
Q 1584 409 2034 409 
Q 2484 409 2743 651 
Q 3003 894 3003 1313 
Q 3003 1734 2745 1975 
Q 2488 2216 2034 2216 
z
M 1403 2484 
Q 997 2584 770 2862 
Q 544 3141 544 3541 
Q 544 4100 942 4425 
Q 1341 4750 2034 4750 
Q 2731 4750 3128 4425 
Q 3525 4100 3525 3541 
Q 3525 3141 3298 2862 
Q 3072 2584 2669 2484 
Q 3125 2378 3379 2068 
Q 3634 1759 3634 1313 
Q 3634 634 3220 271 
Q 2806 -91 2034 -91 
Q 1263 -91 848 271 
Q 434 634 434 1313 
Q 434 1759 690 2068 
Q 947 2378 1403 2484 
z
M 1172 3481 
Q 1172 3119 1398 2916 
Q 1625 2713 2034 2713 
Q 2441 2713 2670 2916 
Q 2900 3119 2900 3481 
Q 2900 3844 2670 4047 
Q 2441 4250 2034 4250 
Q 1625 4250 1398 4047 
Q 1172 3844 1172 3481 
z
" transform="scale(0.015625)"/>
       </defs>
       <use xlink:href="#DejaVuSans-30"/>
       <use xlink:href="#DejaVuSans-2e" transform="translate(63.623047 0)"/>
       <use xlink:href="#DejaVuSans-38" transform="translate(95.410156 0)"/>
      </g>
     </g>
    </g>
    <g id="xtick_6">
     <g id="line2d_6">
      <g>
       <use xlink:href="#m8d9ecc8650" x="335.496364" y="174.04" style="stroke: #000000; stroke-width: 0.8"/>
      </g>
     </g>
     <g id="text_6">
      <!-- 1.0 -->
      <g transform="translate(327.544801 188.638438) scale(0.1 -0.1)">
       <defs>
        <path id="DejaVuSans-31" d="M 794 531 
L 1825 531 
L 1825 4091 
L 703 3866 
L 703 4441 
L 1819 4666 
L 2450 4666 
L 2450 531 
L 3481 531 
L 3481 0 
L 794 0 
L 794 531 
z
" transform="scale(0.015625)"/>
       </defs>
       <use xlink:href="#DejaVuSans-31"/>
       <use xlink:href="#DejaVuSans-2e" transform="translate(63.623047 0)"/>
       <use xlink:href="#DejaVuSans-30" transform="translate(95.410156 0)"/>
      </g>
     </g>
    </g>
    <g id="text_7">
     <!-- Time (sec) -->
     <g transform="translate(172.305312 202.316563) scale(0.1 -0.1)">
      <defs>
       <path id="DejaVuSans-54" d="M -19 4666 
L 3928 4666 
L 3928 4134 
L 2272 4134 
L 2272 0 
L 1638 0 
L 1638 4134 
L -19 4134 
L -19 4666 
z
" transform="scale(0.015625)"/>
       <path id="DejaVuSans-69" d="M 603 3500 
L 1178 3500 
L 1178 0 
L 603 0 
L 603 3500 
z
M 603 4863 
L 1178 4863 
L 1178 4134 
L 603 4134 
L 603 4863 
z
" transform="scale(0.015625)"/>
       <path id="DejaVuSans-6d" d="M 3328 2828 
Q 3544 3216 3844 3400 
Q 4144 3584 4550 3584 
Q 5097 3584 5394 3201 
Q 5691 2819 5691 2113 
L 5691 0 
L 5113 0 
L 5113 2094 
Q 5113 2597 4934 2840 
Q 4756 3084 4391 3084 
Q 3944 3084 3684 2787 
Q 3425 2491 3425 1978 
L 3425 0 
L 2847 0 
L 2847 2094 
Q 2847 2600 2669 2842 
Q 2491 3084 2119 3084 
Q 1678 3084 1418 2786 
Q 1159 2488 1159 1978 
L 1159 0 
L 581 0 
L 581 3500 
L 1159 3500 
L 1159 2956 
Q 1356 3278 1631 3431 
Q 1906 3584 2284 3584 
Q 2666 3584 2933 3390 
Q 3200 3197 3328 2828 
z
" transform="scale(0.015625)"/>
       <path id="DejaVuSans-65" d="M 3597 1894 
L 3597 1613 
L 953 1613 
Q 991 1019 1311 708 
Q 1631 397 2203 397 
Q 2534 397 2845 478 
Q 3156 559 3463 722 
L 3463 178 
Q 3153 47 2828 -22 
Q 2503 -91 2169 -91 
Q 1331 -91 842 396 
Q 353 884 353 1716 
Q 353 2575 817 3079 
Q 1281 3584 2069 3584 
Q 2775 3584 3186 3129 
Q 3597 2675 3597 1894 
z
M 3022 2063 
Q 3016 2534 2758 2815 
Q 2500 3097 2075 3097 
Q 1594 3097 1305 2825 
Q 1016 2553 972 2059 
L 3022 2063 
z
" transform="scale(0.015625)"/>
       <path id="DejaVuSans-20" transform="scale(0.015625)"/>
       <path id="DejaVuSans-28" d="M 1984 4856 
Q 1566 4138 1362 3434 
Q 1159 2731 1159 2009 
Q 1159 1288 1364 580 
Q 1569 -128 1984 -844 
L 1484 -844 
Q 1016 -109 783 600 
Q 550 1309 550 2009 
Q 550 2706 781 3412 
Q 1013 4119 1484 4856 
L 1984 4856 
z
" transform="scale(0.015625)"/>
       <path id="DejaVuSans-73" d="M 2834 3397 
L 2834 2853 
Q 2591 2978 2328 3040 
Q 2066 3103 1784 3103 
Q 1356 3103 1142 2972 
Q 928 2841 928 2578 
Q 928 2378 1081 2264 
Q 1234 2150 1697 2047 
L 1894 2003 
Q 2506 1872 2764 1633 
Q 3022 1394 3022 966 
Q 3022 478 2636 193 
Q 2250 -91 1575 -91 
Q 1294 -91 989 -36 
Q 684 19 347 128 
L 347 722 
Q 666 556 975 473 
Q 1284 391 1588 391 
Q 1994 391 2212 530 
Q 2431 669 2431 922 
Q 2431 1156 2273 1281 
Q 2116 1406 1581 1522 
L 1381 1569 
Q 847 1681 609 1914 
Q 372 2147 372 2553 
Q 372 3047 722 3315 
Q 1072 3584 1716 3584 
Q 2034 3584 2315 3537 
Q 2597 3491 2834 3397 
z
" transform="scale(0.015625)"/>
       <path id="DejaVuSans-63" d="M 3122 3366 
L 3122 2828 
Q 2878 2963 2633 3030 
Q 2388 3097 2138 3097 
Q 1578 3097 1268 2742 
Q 959 2388 959 1747 
Q 959 1106 1268 751 
Q 1578 397 2138 397 
Q 2388 397 2633 464 
Q 2878 531 3122 666 
L 3122 134 
Q 2881 22 2623 -34 
Q 2366 -91 2075 -91 
Q 1284 -91 818 406 
Q 353 903 353 1747 
Q 353 2603 823 3093 
Q 1294 3584 2113 3584 
Q 2378 3584 2631 3529 
Q 2884 3475 3122 3366 
z
" transform="scale(0.015625)"/>
       <path id="DejaVuSans-29" d="M 513 4856 
L 1013 4856 
Q 1481 4119 1714 3412 
Q 1947 2706 1947 2009 
Q 1947 1309 1714 600 
Q 1481 -109 1013 -844 
L 513 -844 
Q 928 -128 1133 580 
Q 1338 1288 1338 2009 
Q 1338 2731 1133 3434 
Q 928 4138 513 4856 
z
" transform="scale(0.015625)"/>
      </defs>
      <use xlink:href="#DejaVuSans-54"/>
      <use xlink:href="#DejaVuSans-69" transform="translate(57.958984 0)"/>
      <use xlink:href="#DejaVuSans-6d" transform="translate(85.742188 0)"/>
      <use xlink:href="#DejaVuSans-65" transform="translate(183.154297 0)"/>
      <use xlink:href="#DejaVuSans-20" transform="translate(244.677734 0)"/>
      <use xlink:href="#DejaVuSans-28" transform="translate(276.464844 0)"/>
      <use xlink:href="#DejaVuSans-73" transform="translate(315.478516 0)"/>
      <use xlink:href="#DejaVuSans-65" transform="translate(367.578125 0)"/>
      <use xlink:href="#DejaVuSans-63" transform="translate(429.101562 0)"/>
      <use xlink:href="#DejaVuSans-29" transform="translate(484.082031 0)"/>
     </g>
    </g>
   </g>
   <g id="matplotlib.axis_2">
    <g id="ytick_1">
     <g id="line2d_7">
      <defs>
       <path id="m5347bf9ef3" d="M 0 0 
L -3.5 0 
" style="stroke: #000000; stroke-width: 0.8"/>
      </defs>
      <g>
       <use xlink:href="#m5347bf9ef3" x="47.72" y="159.56" style="stroke: #000000; stroke-width: 0.8"/>
      </g>
     </g>
     <g id="text_8">
      <!-- 0.0 -->
      <g transform="translate(24.816875 163.359219) scale(0.1 -0.1)">
       <use xlink:href="#DejaVuSans-30"/>
       <use xlink:href="#DejaVuSans-2e" transform="translate(63.623047 0)"/>
       <use xlink:href="#DejaVuSans-30" transform="translate(95.410156 0)"/>
      </g>
     </g>
    </g>
    <g id="ytick_2">
     <g id="line2d_8">
      <g>
       <use xlink:href="#m5347bf9ef3" x="47.72" y="130.6" style="stroke: #000000; stroke-width: 0.8"/>
      </g>
     </g>
     <g id="text_9">
      <!-- 0.2 -->
      <g transform="translate(24.816875 134.399219) scale(0.1 -0.1)">
       <use xlink:href="#DejaVuSans-30"/>
       <use xlink:href="#DejaVuSans-2e" transform="translate(63.623047 0)"/>
       <use xlink:href="#DejaVuSans-32" transform="translate(95.410156 0)"/>
      </g>
     </g>
    </g>
    <g id="ytick_3">
     <g id="line2d_9">
      <g>
       <use xlink:href="#m5347bf9ef3" x="47.72" y="101.64" style="stroke: #000000; stroke-width: 0.8"/>
      </g>
     </g>
     <g id="text_10">
      <!-- 0.4 -->
      <g transform="translate(24.816875 105.439219) scale(0.1 -0.1)">
       <use xlink:href="#DejaVuSans-30"/>
       <use xlink:href="#DejaVuSans-2e" transform="translate(63.623047 0)"/>
       <use xlink:href="#DejaVuSans-34" transform="translate(95.410156 0)"/>
      </g>
     </g>
    </g>
    <g id="ytick_4">
     <g id="line2d_10">
      <g>
       <use xlink:href="#m5347bf9ef3" x="47.72" y="72.68" style="stroke: #000000; stroke-width: 0.8"/>
      </g>
     </g>
     <g id="text_11">
      <!-- 0.6 -->
      <g transform="translate(24.816875 76.479219) scale(0.1 -0.1)">
       <use xlink:href="#DejaVuSans-30"/>
       <use xlink:href="#DejaVuSans-2e" transform="translate(63.623047 0)"/>
       <use xlink:href="#DejaVuSans-36" transform="translate(95.410156 0)"/>
      </g>
     </g>
    </g>
    <g id="ytick_5">
     <g id="line2d_11">
      <g>
       <use xlink:href="#m5347bf9ef3" x="47.72" y="43.72" style="stroke: #000000; stroke-width: 0.8"/>
      </g>
     </g>
     <g id="text_12">
      <!-- 0.8 -->
      <g transform="translate(24.816875 47.519219) scale(0.1 -0.1)">
       <use xlink:href="#DejaVuSans-30"/>
       <use xlink:href="#DejaVuSans-2e" transform="translate(63.623047 0)"/>
       <use xlink:href="#DejaVuSans-38" transform="translate(95.410156 0)"/>
      </g>
     </g>
    </g>
    <g id="ytick_6">
     <g id="line2d_12">
      <g>
       <use xlink:href="#m5347bf9ef3" x="47.72" y="14.76" style="stroke: #000000; stroke-width: 0.8"/>
      </g>
     </g>
     <g id="text_13">
      <!-- 1.0 -->
      <g transform="translate(24.816875 18.559219) scale(0.1 -0.1)">
       <use xlink:href="#DejaVuSans-31"/>
       <use xlink:href="#DejaVuSans-2e" transform="translate(63.623047 0)"/>
       <use xlink:href="#DejaVuSans-30" transform="translate(95.410156 0)"/>
      </g>
     </g>
    </g>
    <g id="text_14">
     <!-- Injected Signal -->
     <g transform="translate(18.737188 131.417969) rotate(-90) scale(0.1 -0.1)">
      <defs>
       <path id="DejaVuSans-49" d="M 628 4666 
L 1259 4666 
L 1259 0 
L 628 0 
L 628 4666 
z
" transform="scale(0.015625)"/>
       <path id="DejaVuSans-6e" d="M 3513 2113 
L 3513 0 
L 2938 0 
L 2938 2094 
Q 2938 2591 2744 2837 
Q 2550 3084 2163 3084 
Q 1697 3084 1428 2787 
Q 1159 2491 1159 1978 
L 1159 0 
L 581 0 
L 581 3500 
L 1159 3500 
L 1159 2956 
Q 1366 3272 1645 3428 
Q 1925 3584 2291 3584 
Q 2894 3584 3203 3211 
Q 3513 2838 3513 2113 
z
" transform="scale(0.015625)"/>
       <path id="DejaVuSans-6a" d="M 603 3500 
L 1178 3500 
L 1178 -63 
Q 1178 -731 923 -1031 
Q 669 -1331 103 -1331 
L -116 -1331 
L -116 -844 
L 38 -844 
Q 366 -844 484 -692 
Q 603 -541 603 -63 
L 603 3500 
z
M 603 4863 
L 1178 4863 
L 1178 4134 
L 603 4134 
L 603 4863 
z
" transform="scale(0.015625)"/>
       <path id="DejaVuSans-74" d="M 1172 4494 
L 1172 3500 
L 2356 3500 
L 2356 3053 
L 1172 3053 
L 1172 1153 
Q 1172 725 1289 603 
Q 1406 481 1766 481 
L 2356 481 
L 2356 0 
L 1766 0 
Q 1100 0 847 248 
Q 594 497 594 1153 
L 594 3053 
L 172 3053 
L 172 3500 
L 594 3500 
L 594 4494 
L 1172 4494 
z
" transform="scale(0.015625)"/>
       <path id="DejaVuSans-64" d="M 2906 2969 
L 2906 4863 
L 3481 4863 
L 3481 0 
L 2906 0 
L 2906 525 
Q 2725 213 2448 61 
Q 2172 -91 1784 -91 
Q 1150 -91 751 415 
Q 353 922 353 1747 
Q 353 2572 751 3078 
Q 1150 3584 1784 3584 
Q 2172 3584 2448 3432 
Q 2725 3281 2906 2969 
z
M 947 1747 
Q 947 1113 1208 752 
Q 1469 391 1925 391 
Q 2381 391 2643 752 
Q 2906 1113 2906 1747 
Q 2906 2381 2643 2742 
Q 2381 3103 1925 3103 
Q 1469 3103 1208 2742 
Q 947 2381 947 1747 
z
" transform="scale(0.015625)"/>
       <path id="DejaVuSans-53" d="M 3425 4513 
L 3425 3897 
Q 3066 4069 2747 4153 
Q 2428 4238 2131 4238 
Q 1616 4238 1336 4038 
Q 1056 3838 1056 3469 
Q 1056 3159 1242 3001 
Q 1428 2844 1947 2747 
L 2328 2669 
Q 3034 2534 3370 2195 
Q 3706 1856 3706 1288 
Q 3706 609 3251 259 
Q 2797 -91 1919 -91 
Q 1588 -91 1214 -16 
Q 841 59 441 206 
L 441 856 
Q 825 641 1194 531 
Q 1563 422 1919 422 
Q 2459 422 2753 634 
Q 3047 847 3047 1241 
Q 3047 1584 2836 1778 
Q 2625 1972 2144 2069 
L 1759 2144 
Q 1053 2284 737 2584 
Q 422 2884 422 3419 
Q 422 4038 858 4394 
Q 1294 4750 2059 4750 
Q 2388 4750 2728 4690 
Q 3069 4631 3425 4513 
z
" transform="scale(0.015625)"/>
       <path id="DejaVuSans-67" d="M 2906 1791 
Q 2906 2416 2648 2759 
Q 2391 3103 1925 3103 
Q 1463 3103 1205 2759 
Q 947 2416 947 1791 
Q 947 1169 1205 825 
Q 1463 481 1925 481 
Q 2391 481 2648 825 
Q 2906 1169 2906 1791 
z
M 3481 434 
Q 3481 -459 3084 -895 
Q 2688 -1331 1869 -1331 
Q 1566 -1331 1297 -1286 
Q 1028 -1241 775 -1147 
L 775 -588 
Q 1028 -725 1275 -790 
Q 1522 -856 1778 -856 
Q 2344 -856 2625 -561 
Q 2906 -266 2906 331 
L 2906 616 
Q 2728 306 2450 153 
Q 2172 0 1784 0 
Q 1141 0 747 490 
Q 353 981 353 1791 
Q 353 2603 747 3093 
Q 1141 3584 1784 3584 
Q 2172 3584 2450 3431 
Q 2728 3278 2906 2969 
L 2906 3500 
L 3481 3500 
L 3481 434 
z
" transform="scale(0.015625)"/>
       <path id="DejaVuSans-61" d="M 2194 1759 
Q 1497 1759 1228 1600 
Q 959 1441 959 1056 
Q 959 750 1161 570 
Q 1363 391 1709 391 
Q 2188 391 2477 730 
Q 2766 1069 2766 1631 
L 2766 1759 
L 2194 1759 
z
M 3341 1997 
L 3341 0 
L 2766 0 
L 2766 531 
Q 2569 213 2275 61 
Q 1981 -91 1556 -91 
Q 1019 -91 701 211 
Q 384 513 384 1019 
Q 384 1609 779 1909 
Q 1175 2209 1959 2209 
L 2766 2209 
L 2766 2266 
Q 2766 2663 2505 2880 
Q 2244 3097 1772 3097 
Q 1472 3097 1187 3025 
Q 903 2953 641 2809 
L 641 3341 
Q 956 3463 1253 3523 
Q 1550 3584 1831 3584 
Q 2591 3584 2966 3190 
Q 3341 2797 3341 1997 
z
" transform="scale(0.015625)"/>
       <path id="DejaVuSans-6c" d="M 603 4863 
L 1178 4863 
L 1178 0 
L 603 0 
L 603 4863 
z
" transform="scale(0.015625)"/>
      </defs>
      <use xlink:href="#DejaVuSans-49"/>
      <use xlink:href="#DejaVuSans-6e" transform="translate(29.492188 0)"/>
      <use xlink:href="#DejaVuSans-6a" transform="translate(92.871094 0)"/>
      <use xlink:href="#DejaVuSans-65" transform="translate(120.654297 0)"/>
      <use xlink:href="#DejaVuSans-63" transform="translate(182.177734 0)"/>
      <use xlink:href="#DejaVuSans-74" transform="translate(237.158203 0)"/>
      <use xlink:href="#DejaVuSans-65" transform="translate(276.367188 0)"/>
      <use xlink:href="#DejaVuSans-64" transform="translate(337.890625 0)"/>
      <use xlink:href="#DejaVuSans-20" transform="translate(401.367188 0)"/>
      <use xlink:href="#DejaVuSans-53" transform="translate(433.154297 0)"/>
      <use xlink:href="#DejaVuSans-69" transform="translate(496.630859 0)"/>
      <use xlink:href="#DejaVuSans-67" transform="translate(524.414062 0)"/>
      <use xlink:href="#DejaVuSans-6e" transform="translate(587.890625 0)"/>
      <use xlink:href="#DejaVuSans-61" transform="translate(651.269531 0)"/>
      <use xlink:href="#DejaVuSans-6c" transform="translate(712.548828 0)"/>
     </g>
    </g>
   </g>
   <g id="line2d_13">
    <path d="M 61.423636 65.19172 
L 61.697709 54.883075 
L 61.971782 66.168992 
L 62.245855 129.883317 
L 62.519927 90.247191 
L 62.794 116.1085 
L 63.068073 69.93502 
L 63.342145 68.36227 
L 63.616218 93.862201 
L 63.890291 80.381603 
L 64.164364 59.851516 
L 64.438436 124.910657 
L 64.712509 45.115213 
L 64.986582 125.487146 
L 65.260655 100.835558 
L 65.534727 57.78317 
L 65.8088 112.978757 
L 66.082873 116.174225 
L 66.356945 91.602783 
L 66.631018 99.477038 
L 66.905091 79.101402 
L 67.179164 67.583537 
L 67.453236 48.953241 
L 67.727309 96.639132 
L 68.001382 56.985835 
L 68.275455 110.226048 
L 68.549527 51.884994 
L 68.8236 127.825675 
L 69.097673 46.522342 
L 69.371745 82.002268 
L 69.645818 46.43011 
L 69.919891 97.243626 
L 70.193964 117.719821 
L 70.468036 78.286286 
L 70.742109 55.080752 
L 71.016182 52.511021 
L 71.290255 118.887075 
L 71.564327 104.542183 
L 71.8384 56.259709 
L 72.386545 116.651886 
L 72.660618 112.771809 
L 72.934691 124.495222 
L 73.208764 60.598814 
L 73.482836 117.107492 
L 74.030982 94.893893 
L 74.305055 110.261753 
L 74.579127 70.173096 
L 74.8532 95.2643 
L 75.127273 52.46773 
L 75.401345 119.979589 
L 75.675418 105.873943 
L 75.949491 118.19174 
L 76.223564 119.899677 
L 76.771709 58.174933 
L 77.045782 113.668666 
L 77.319855 103.968457 
L 77.593927 110.404803 
L 77.868 78.454716 
L 78.142073 80.077537 
L 78.416145 119.685796 
L 78.690218 111.928293 
L 78.964291 67.336881 
L 79.238364 85.853693 
L 79.512436 114.15435 
L 79.786509 48.144228 
L 80.060582 86.185602 
L 80.334655 95.195056 
L 80.608727 99.524942 
L 80.8828 54.38265 
L 81.156873 118.359568 
L 81.430945 68.514843 
L 81.705018 102.620611 
L 81.979091 116.946976 
L 82.527236 51.625871 
L 82.801309 66.45285 
L 83.075382 115.442169 
L 83.349455 76.283561 
L 83.623527 105.110222 
L 84.171673 64.415145 
L 84.445745 80.792316 
L 84.719818 123.315621 
L 84.993891 61.434015 
L 85.267964 99.231469 
L 85.542036 108.527976 
L 85.816109 127.889729 
L 86.090182 50.010597 
L 86.364255 126.659807 
L 86.638327 127.160295 
L 86.9124 122.874796 
L 87.186473 129.433287 
L 87.460545 70.709827 
L 87.734618 100.121318 
L 88.008691 83.469291 
L 88.282764 114.878 
L 88.556836 50.473075 
L 88.830909 104.454467 
L 89.104982 112.43966 
L 89.379055 86.168256 
L 89.653127 114.527388 
L 89.9272 77.379314 
L 90.201273 70.839386 
L 90.475345 92.355493 
L 90.749418 94.454307 
L 91.023491 120.377764 
L 91.297564 67.123443 
L 91.571636 122.216364 
L 91.845709 73.92694 
L 92.393855 104.664856 
L 92.667927 59.343365 
L 92.942 76.430694 
L 93.216073 73.519429 
L 93.490145 83.675757 
L 93.764218 63.941564 
L 94.038291 127.846998 
L 94.312364 50.656941 
L 94.586436 107.027892 
L 94.860509 73.519202 
L 95.134582 61.03877 
L 95.408655 116.102796 
L 95.682727 102.525016 
L 95.9568 51.46656 
L 96.230873 50.800974 
L 96.504945 90.837524 
L 96.779018 90.145432 
L 97.053091 115.273648 
L 97.327164 108.611898 
L 97.601236 62.625572 
L 97.875309 82.864145 
L 98.149382 90.08246 
L 98.423455 87.271607 
L 98.697527 100.812255 
L 98.9716 47.311799 
L 99.519745 97.92171 
L 99.793818 63.766848 
L 100.067891 117.546759 
L 100.341964 127.889105 
L 100.616036 47.035859 
L 100.890109 128.691259 
L 101.164182 65.047343 
L 101.438255 124.349519 
L 101.712327 124.319297 
L 102.260473 63.764561 
L 102.534545 54.241392 
L 102.808618 103.216843 
L 103.082691 87.360804 
L 103.356764 87.629306 
L 103.630836 81.672238 
L 103.904909 123.264555 
L 104.178982 116.864984 
L 104.453055 92.893313 
L 104.727127 124.858958 
L 105.0012 107.289809 
L 105.275273 121.959345 
L 105.549345 107.224806 
L 105.823418 85.35814 
L 106.097491 113.726167 
L 106.371564 128.163609 
L 106.645636 61.659163 
L 107.193782 80.417518 
L 107.741927 99.681949 
L 108.016 72.697078 
L 108.290073 115.542293 
L 108.564145 120.752027 
L 108.838218 58.810672 
L 109.112291 128.965462 
L 109.386364 101.863658 
L 109.660436 95.377742 
L 109.934509 91.563673 
L 110.208582 77.478022 
L 110.482655 72.362396 
L 110.756727 64.825016 
L 111.0308 61.325139 
L 111.578945 108.651157 
L 111.853018 58.014319 
L 112.127091 86.807829 
L 112.675236 44.943835 
L 112.949309 127.759073 
L 113.223382 58.210579 
L 113.497455 110.15333 
L 114.0456 95.518586 
L 114.319673 63.867305 
L 114.593745 75.738202 
L 114.867818 77.728619 
L 115.141891 115.526315 
L 115.415964 68.689251 
L 115.690036 64.318078 
L 115.964109 88.728627 
L 116.238182 89.822923 
L 116.512255 55.066557 
L 117.0604 78.036869 
L 117.334473 65.869391 
L 117.608545 80.619929 
L 117.882618 54.31412 
L 118.156691 55.115028 
L 118.430764 88.642748 
L 118.704836 72.311144 
L 118.978909 70.590623 
L 119.252982 113.558925 
L 119.527055 58.738985 
L 119.801127 118.483081 
L 120.0752 93.659038 
L 120.349273 114.755391 
L 120.623345 57.395147 
L 120.897418 94.424232 
L 121.171491 106.570051 
L 121.719636 94.668884 
L 121.993709 44.030177 
L 122.267782 113.05798 
L 122.541855 112.203541 
L 122.815927 59.009441 
L 123.364073 127.727285 
L 123.638145 126.03534 
L 123.912218 118.73987 
L 124.186291 66.451534 
L 124.460364 67.79958 
L 124.734436 119.775694 
L 125.008509 49.022203 
L 125.282582 91.251401 
L 125.830727 75.481425 
L 126.1048 116.935501 
L 126.378873 53.340754 
L 126.652945 71.091769 
L 126.927018 128.664216 
L 127.201091 62.482976 
L 127.475164 123.180781 
L 127.749236 54.014823 
L 128.023309 117.727638 
L 128.571455 60.551579 
L 128.845527 54.394233 
L 129.1196 55.403832 
L 129.393673 80.153653 
L 129.667745 72.315491 
L 130.215891 51.555265 
L 130.489964 47.933373 
L 130.764036 109.911855 
L 131.038109 110.869343 
L 131.312182 126.871807 
L 131.586255 80.160651 
L 131.860327 56.699388 
L 132.1344 119.566897 
L 132.408473 68.079647 
L 132.956618 125.569146 
L 133.504764 59.170786 
L 133.778836 88.954928 
L 134.052909 96.915777 
L 134.326982 70.345295 
L 134.601055 105.840328 
L 134.875127 77.599938 
L 135.1492 124.114756 
L 135.423273 50.40492 
L 135.697345 68.401107 
L 135.971418 65.239352 
L 136.245491 130.342944 
L 136.519564 89.493891 
L 136.793636 123.649883 
L 137.067709 56.970613 
L 137.341782 80.378897 
L 137.889927 69.351829 
L 138.164 70.978745 
L 138.438073 87.041378 
L 138.712145 46.926178 
L 138.986218 101.719428 
L 139.260291 59.39927 
L 139.534364 92.321521 
L 139.808436 97.416725 
L 140.082509 108.804517 
L 140.356582 51.630659 
L 140.630655 116.329631 
L 140.904727 72.666134 
L 142.001018 107.668971 
L 142.275091 80.527723 
L 142.549164 115.004747 
L 142.823236 94.965276 
L 143.097309 105.121025 
L 143.371382 129.990118 
L 143.645455 102.599496 
L 143.919527 44.635309 
L 144.1936 56.227078 
L 144.467673 58.128921 
L 144.741745 105.214367 
L 145.015818 97.601366 
L 145.289891 101.222497 
L 145.563964 67.066134 
L 145.838036 129.304871 
L 146.112109 44.187043 
L 146.386182 51.643179 
L 146.934327 96.084259 
L 147.2084 85.753464 
L 147.482473 67.607811 
L 147.756545 103.006235 
L 148.030618 88.831439 
L 148.304691 61.222476 
L 148.578764 49.605623 
L 149.126909 129.530831 
L 149.400982 105.485047 
L 149.675055 129.344189 
L 149.949127 116.623179 
L 150.2232 81.55308 
L 150.497273 124.736649 
L 150.771345 86.874032 
L 151.045418 67.470067 
L 151.319491 91.192471 
L 151.593564 46.502364 
L 151.867636 91.986143 
L 152.141709 46.534687 
L 152.415782 120.557089 
L 152.689855 81.151987 
L 152.963927 123.510292 
L 153.238 78.473259 
L 153.512073 68.78594 
L 153.786145 117.82497 
L 154.060218 124.763823 
L 154.334291 62.531578 
L 154.608364 117.766572 
L 154.882436 44.329336 
L 155.156509 83.921032 
L 155.430582 69.668685 
L 155.704655 112.886245 
L 155.978727 105.438788 
L 156.2528 118.668485 
L 156.526873 116.475605 
L 156.800945 64.269722 
L 157.349091 102.057448 
L 157.623164 92.406834 
L 157.897236 107.184202 
L 158.171309 83.307917 
L 158.445382 110.634585 
L 158.719455 97.542692 
L 158.993527 127.751045 
L 159.541673 59.69483 
L 159.815745 55.258392 
L 160.089818 70.755532 
L 160.363891 104.219286 
L 160.637964 62.467637 
L 160.912036 51.518662 
L 161.186109 54.853304 
L 161.460182 92.635884 
L 161.734255 90.583324 
L 162.008327 109.109536 
L 162.556473 48.061174 
L 162.830545 51.998214 
L 163.104618 130.472087 
L 163.378691 82.238062 
L 163.652764 123.843334 
L 163.926836 53.717366 
L 164.200909 111.550789 
L 164.474982 86.3748 
L 164.749055 104.558581 
L 165.023127 70.351084 
L 165.2972 77.57143 
L 165.571273 102.909692 
L 165.845345 68.114356 
L 166.119418 55.950048 
L 166.393491 102.317262 
L 166.667564 72.194835 
L 166.941636 101.834789 
L 167.215709 107.41613 
L 167.489782 63.131068 
L 167.763855 99.03653 
L 168.037927 82.209077 
L 168.312 47.178815 
L 168.586073 123.399583 
L 168.860145 74.515415 
L 169.134218 127.000456 
L 169.408291 55.284668 
L 169.682364 83.746561 
L 169.956436 68.22038 
L 170.230509 45.571434 
L 170.504582 71.390354 
L 170.778655 121.833367 
L 171.052727 70.608511 
L 171.3268 110.768881 
L 171.600873 75.909909 
L 171.874945 89.759317 
L 172.149018 61.511573 
L 172.423091 63.882347 
L 172.697164 97.091431 
L 172.971236 94.693147 
L 173.245309 72.919932 
L 173.519382 108.654981 
L 173.793455 99.152335 
L 174.067527 108.941093 
L 174.3416 72.117181 
L 174.889745 43.938823 
L 175.437891 125.316173 
L 175.986036 82.723017 
L 176.260109 107.827679 
L 176.534182 104.178509 
L 176.808255 60.050237 
L 177.082327 68.938664 
L 177.3564 120.930038 
L 177.630473 53.533789 
L 177.904545 66.225924 
L 178.178618 101.796855 
L 178.452691 94.53619 
L 178.726764 53.367786 
L 179.000836 46.543127 
L 179.823055 129.50608 
L 180.097127 58.688181 
L 180.3712 111.266546 
L 180.645273 45.320673 
L 180.919345 104.440633 
L 181.193418 104.635866 
L 181.467491 110.462047 
L 181.741564 44.290417 
L 182.289709 88.565032 
L 182.563782 64.958675 
L 182.837855 60.382253 
L 183.111927 75.094032 
L 183.386 107.074694 
L 183.660073 113.956321 
L 183.934145 59.70871 
L 184.482291 128.088352 
L 184.756364 81.22284 
L 185.030436 60.33737 
L 185.304509 120.291715 
L 185.578582 125.963982 
L 185.852655 71.972708 
L 186.126727 64.966962 
L 186.4008 101.192887 
L 186.674873 63.225677 
L 186.948945 95.761285 
L 187.223018 75.333023 
L 187.497091 117.002802 
L 187.771164 126.223112 
L 188.045236 70.519971 
L 188.319309 124.622221 
L 188.593382 90.309157 
L 188.867455 122.152285 
L 189.141527 113.272308 
L 189.4156 87.068454 
L 189.689673 88.450339 
L 189.963745 83.336031 
L 190.237818 127.682573 
L 190.511891 115.341659 
L 190.785964 76.290679 
L 191.334109 125.737803 
L 191.608182 94.892832 
L 191.882255 80.774428 
L 192.156327 54.769444 
L 192.4304 58.883591 
L 192.704473 57.764771 
L 192.978545 99.148271 
L 193.252618 99.314776 
L 193.800764 50.442481 
L 194.074836 49.037503 
L 194.348909 97.560427 
L 194.622982 99.013429 
L 194.897055 55.439695 
L 195.171127 125.913989 
L 195.4452 100.250988 
L 195.719273 60.438562 
L 195.993345 98.319476 
L 196.267418 48.531881 
L 196.541491 100.615424 
L 196.815564 87.158976 
L 197.089636 90.384723 
L 197.363709 88.903184 
L 197.637782 97.055793 
L 197.911855 49.504046 
L 198.185927 105.778249 
L 198.46 83.334429 
L 198.734073 79.332041 
L 199.008145 80.099823 
L 199.282218 123.993058 
L 199.556291 105.454966 
L 200.104436 127.500769 
L 200.378509 72.426628 
L 200.652582 104.997804 
L 200.926655 99.367014 
L 201.200727 119.063864 
L 201.4748 108.323398 
L 201.748873 128.729503 
L 202.022945 96.037226 
L 202.297018 108.400872 
L 202.571091 57.815641 
L 202.845164 94.247811 
L 203.119236 115.401557 
L 203.393309 71.442669 
L 203.667382 56.990321 
L 203.941455 111.216955 
L 204.4896 76.75411 
L 204.763673 118.446948 
L 205.037745 126.886581 
L 205.311818 46.953442 
L 205.585891 94.620458 
L 205.859964 119.510084 
L 206.134036 59.792423 
L 206.408109 120.767983 
L 206.682182 102.050795 
L 206.956255 111.640969 
L 207.230327 70.17071 
L 207.5044 60.476366 
L 207.778473 118.584616 
L 208.052545 122.201875 
L 208.326618 54.771692 
L 208.600691 96.868454 
L 208.874764 115.902862 
L 209.148836 76.353785 
L 209.422909 109.389601 
L 209.696982 72.945668 
L 210.245127 98.532452 
L 210.5192 84.049313 
L 211.067345 123.468724 
L 211.341418 125.763692 
L 211.615491 113.807548 
L 211.889564 113.754888 
L 212.163636 129.731722 
L 212.437709 84.49772 
L 212.711782 92.096212 
L 212.985855 80.263572 
L 213.259927 115.830702 
L 213.534 65.211114 
L 213.808073 122.166132 
L 214.082145 118.812675 
L 214.356218 119.104667 
L 214.630291 49.90216 
L 214.904364 44.165418 
L 215.178436 102.866765 
L 215.452509 59.942109 
L 216.000655 115.762758 
L 216.274727 105.785626 
L 216.5488 65.416248 
L 216.822873 111.284632 
L 217.096945 120.173201 
L 217.371018 74.661941 
L 217.645091 69.718555 
L 217.919164 76.113792 
L 218.193236 73.628995 
L 218.467309 43.902 
L 218.741382 102.861813 
L 219.015455 95.854022 
L 219.289527 110.715344 
L 219.5636 56.862632 
L 219.837673 76.416636 
L 220.111745 48.4621 
L 220.385818 75.642597 
L 220.659891 79.567165 
L 220.933964 71.148563 
L 221.208036 109.99632 
L 221.482109 65.588226 
L 221.756182 111.363601 
L 222.030255 96.168314 
L 222.304327 71.198403 
L 222.5784 66.040267 
L 222.852473 69.675715 
L 223.126545 107.145265 
L 223.400618 119.960532 
L 223.674691 49.313603 
L 223.948764 122.596021 
L 224.222836 102.034049 
L 224.496909 111.94131 
L 224.770982 47.831124 
L 225.045055 81.915603 
L 225.319127 99.233913 
L 225.5932 128.013831 
L 225.867273 43.914483 
L 226.141345 74.298415 
L 226.415418 63.839907 
L 226.689491 112.289724 
L 226.963564 93.317357 
L 227.237636 124.044103 
L 227.511709 75.770066 
L 227.785782 67.316998 
L 228.059855 105.242402 
L 228.333927 47.988507 
L 228.608 124.461954 
L 229.156145 61.342633 
L 229.430218 43.805955 
L 229.704291 118.752727 
L 229.978364 116.658203 
L 230.252436 67.356169 
L 230.526509 76.976997 
L 230.800582 53.963751 
L 231.074655 118.821356 
L 231.6228 92.992618 
L 231.896873 89.100591 
L 232.170945 118.794437 
L 232.445018 81.880167 
L 232.719091 79.45495 
L 232.993164 59.154409 
L 233.267236 109.329056 
L 233.541309 119.5919 
L 233.815382 74.155915 
L 234.089455 128.068675 
L 234.363527 73.448644 
L 234.6376 51.437925 
L 234.911673 90.443306 
L 235.185745 103.60392 
L 235.459818 73.774099 
L 235.733891 108.274424 
L 236.007964 124.197251 
L 236.282036 54.452129 
L 236.556109 80.587093 
L 236.830182 90.458189 
L 237.104255 112.203261 
L 237.378327 85.472956 
L 237.6524 108.24159 
L 237.926473 84.346364 
L 238.200545 119.49077 
L 238.474618 112.806499 
L 238.748691 53.601278 
L 239.022764 60.231387 
L 239.296836 48.838189 
L 239.570909 50.899531 
L 239.844982 112.125897 
L 240.119055 51.875851 
L 240.393127 87.601896 
L 240.6672 67.188629 
L 240.941273 128.560894 
L 241.215345 87.178369 
L 241.489418 113.596167 
L 241.763491 47.563476 
L 242.037564 109.183406 
L 242.311636 77.711168 
L 242.859782 99.953293 
L 243.133855 102.056505 
L 243.407927 57.670093 
L 243.682 105.759868 
L 243.956073 64.323707 
L 244.230145 45.473695 
L 244.504218 89.284088 
L 244.778291 77.128067 
L 245.326436 115.920432 
L 245.600509 129.697675 
L 245.874582 79.821723 
L 246.148655 71.895723 
L 246.422727 112.208852 
L 246.6968 72.436248 
L 246.970873 130.310194 
L 247.244945 56.589548 
L 247.519018 59.86858 
L 247.793091 121.488685 
L 248.067164 67.178262 
L 248.341236 118.682748 
L 248.889382 81.132397 
L 249.437527 118.466409 
L 249.7116 48.227562 
L 249.985673 76.186086 
L 250.259745 53.445853 
L 250.533818 125.785008 
L 250.807891 110.232391 
L 251.081964 58.303119 
L 251.356036 70.189813 
L 251.630109 111.039083 
L 251.904182 53.778932 
L 252.452327 79.552724 
L 252.7264 76.231035 
L 253.000473 98.656913 
L 253.274545 109.346154 
L 253.548618 105.691659 
L 253.822691 107.710598 
L 254.096764 108.653338 
L 254.370836 62.136739 
L 254.644909 104.663474 
L 254.918982 73.541286 
L 255.193055 122.471312 
L 255.467127 44.691235 
L 255.7412 111.164894 
L 256.015273 45.309681 
L 256.289345 111.45841 
L 256.563418 61.604666 
L 256.837491 49.766796 
L 257.111564 65.437957 
L 257.385636 105.641812 
L 257.659709 78.711213 
L 257.933782 97.161607 
L 258.207855 86.574005 
L 258.481927 99.11986 
L 259.030073 56.518292 
L 259.304145 72.907202 
L 259.578218 75.983598 
L 259.852291 114.660022 
L 260.126364 128.136211 
L 260.400436 86.080213 
L 260.674509 126.18159 
L 260.948582 43.936624 
L 261.222655 65.326913 
L 261.496727 56.663208 
L 261.7708 125.297706 
L 262.044873 51.608321 
L 262.318945 48.567103 
L 262.593018 71.733651 
L 262.867091 82.739713 
L 263.141164 128.956384 
L 263.415236 119.973716 
L 263.963382 49.853467 
L 264.237455 104.887394 
L 264.511527 82.205861 
L 264.7856 88.46803 
L 265.059673 114.435702 
L 265.333745 123.776704 
L 265.607818 79.527497 
L 265.881891 90.866214 
L 266.155964 94.067013 
L 266.430036 85.786211 
L 266.704109 82.503529 
L 266.978182 64.689798 
L 267.252255 86.578442 
L 267.526327 120.219409 
L 268.074473 109.145568 
L 268.348545 126.659532 
L 268.896691 72.872925 
L 269.170764 113.575685 
L 269.444836 88.012859 
L 269.718909 47.363482 
L 269.992982 70.605422 
L 270.267055 121.676889 
L 270.541127 104.073691 
L 271.089273 48.44379 
L 271.363345 118.98643 
L 271.637418 74.375343 
L 271.911491 59.052458 
L 272.185564 55.289734 
L 272.459636 111.087872 
L 272.733709 44.528786 
L 273.007782 68.622389 
L 273.281855 81.057622 
L 273.555927 55.245657 
L 273.83 63.81692 
L 274.104073 98.697329 
L 274.378145 113.115822 
L 274.652218 90.349766 
L 274.926291 87.222831 
L 275.200364 58.722115 
L 275.474436 115.943841 
L 275.748509 85.617146 
L 276.022582 82.752791 
L 276.296655 44.21206 
L 276.570727 53.196886 
L 276.8448 76.128523 
L 277.118873 80.748748 
L 277.392945 46.171001 
L 277.667018 59.268988 
L 278.215164 46.127141 
L 278.489236 97.282278 
L 278.763309 70.139205 
L 279.037382 75.950479 
L 279.311455 66.858512 
L 279.585527 130.577557 
L 279.8596 73.543319 
L 280.133673 71.127503 
L 280.407745 93.566846 
L 280.681818 95.219451 
L 280.955891 88.767435 
L 281.229964 74.605925 
L 281.504036 100.353252 
L 281.778109 50.449497 
L 282.052182 60.335635 
L 282.326255 123.124813 
L 282.600327 120.047472 
L 282.8744 92.381991 
L 283.148473 118.317861 
L 283.422545 111.899179 
L 283.696618 87.249817 
L 283.970691 112.71343 
L 284.244764 76.044579 
L 284.518836 73.320987 
L 284.792909 62.494937 
L 285.066982 45.390768 
L 285.341055 114.093689 
L 285.615127 127.771792 
L 285.8892 97.96208 
L 286.163273 100.067238 
L 286.437345 57.131349 
L 286.711418 52.963527 
L 286.985491 110.814929 
L 287.259564 88.618025 
L 287.533636 79.427571 
L 287.807709 91.333933 
L 288.081782 79.804675 
L 288.355855 83.489828 
L 288.629927 113.314771 
L 288.904 83.118611 
L 289.178073 88.387079 
L 289.452145 87.598904 
L 289.726218 54.949379 
L 290.000291 86.780086 
L 290.274364 89.087143 
L 290.548436 46.737281 
L 290.822509 93.920107 
L 291.096582 118.28599 
L 291.370655 99.385877 
L 291.644727 58.358927 
L 291.9188 68.118109 
L 292.192873 118.661818 
L 292.466945 87.498311 
L 292.741018 128.587704 
L 293.015091 106.753056 
L 293.289164 52.319476 
L 293.563236 50.336912 
L 293.837309 62.506093 
L 294.111382 106.355555 
L 294.385455 109.813789 
L 294.659527 77.540179 
L 294.9336 72.406695 
L 295.207673 64.426008 
L 295.481745 115.44246 
L 295.755818 75.596659 
L 296.029891 64.402397 
L 296.303964 127.403737 
L 296.578036 92.637468 
L 296.852109 91.779835 
L 297.126182 117.491441 
L 297.400255 93.14603 
L 297.674327 125.237384 
L 297.9484 75.533323 
L 298.222473 101.626623 
L 298.496545 100.840326 
L 298.770618 90.582655 
L 299.044691 105.371877 
L 299.318764 57.118553 
L 299.592836 129.394966 
L 299.866909 53.670112 
L 300.140982 120.745127 
L 300.415055 130.301494 
L 300.689127 58.760487 
L 301.511345 93.377946 
L 301.785418 84.437222 
L 302.059491 100.896623 
L 302.333564 57.475035 
L 302.607636 74.897283 
L 302.881709 81.89026 
L 303.155782 68.978604 
L 303.429855 88.448251 
L 303.703927 89.148041 
L 303.978 112.831359 
L 304.252073 63.482581 
L 304.526145 105.015736 
L 304.800218 57.513853 
L 305.074291 56.194795 
L 305.348364 119.584204 
L 305.622436 129.869019 
L 305.896509 94.47521 
L 306.170582 126.442449 
L 306.444655 50.667396 
L 306.718727 101.35683 
L 306.9928 68.674039 
L 307.266873 72.165371 
L 307.540945 105.81421 
L 307.815018 96.982624 
L 308.089091 125.449998 
L 308.363164 71.330865 
L 308.637236 79.045745 
L 308.911309 100.567829 
L 309.185382 64.72659 
L 309.459455 116.508497 
L 309.733527 118.96408 
L 310.0076 47.658747 
L 310.281673 108.941172 
L 310.555745 57.883731 
L 310.829818 121.016939 
L 311.103891 88.459048 
L 311.377964 104.523432 
L 311.652036 50.369575 
L 311.926109 104.000397 
L 312.200182 125.725981 
L 312.474255 122.884147 
L 312.748327 67.280005 
L 313.0224 76.146437 
L 313.296473 48.355661 
L 313.570545 66.444065 
L 313.844618 106.640766 
L 314.118691 47.496418 
L 314.392764 108.935417 
L 314.666836 127.581533 
L 314.940909 114.197498 
L 315.489055 48.566471 
L 315.763127 82.70899 
L 316.0372 62.940222 
L 316.311273 62.293123 
L 316.585345 123.1133 
L 317.133491 50.179069 
L 317.681636 126.994524 
L 317.955709 90.222533 
L 318.229782 117.971522 
L 318.503855 123.185848 
L 318.777927 89.342169 
L 319.326073 49.261872 
L 319.874218 125.132354 
L 320.148291 94.674984 
L 320.696436 109.054288 
L 320.970509 62.839569 
L 321.244582 108.808168 
L 321.518655 70.571734 
L 321.792727 90.69572 
L 322.0668 86.456262 
L 322.340873 104.89058 
L 322.614945 50.539446 
L 322.889018 71.907772 
L 323.163091 122.692252 
L 323.437164 45.737272 
L 323.711236 94.638476 
L 323.985309 107.971432 
L 324.259382 100.10809 
L 324.533455 123.172602 
L 324.807527 71.128681 
L 325.0816 79.615549 
L 325.629745 117.903666 
L 326.177891 49.888722 
L 326.451964 130.033854 
L 326.726036 103.052211 
L 327.000109 89.806379 
L 327.274182 129.240958 
L 327.548255 124.707408 
L 328.0964 53.918279 
L 328.370473 58.345331 
L 328.644545 67.774705 
L 328.918618 66.01085 
L 329.192691 57.086285 
L 329.466764 93.100021 
L 329.740836 79.475406 
L 330.288982 98.506744 
L 330.563055 71.381217 
L 331.1112 121.919202 
L 331.385273 127.138403 
L 331.659345 48.95479 
L 331.933418 128.804892 
L 332.207491 96.928365 
L 332.481564 82.810499 
L 332.755636 50.684413 
L 333.029709 130.123091 
L 333.303782 91.976466 
L 333.577855 81.33899 
L 333.851927 118.533333 
L 334.126 53.321691 
L 334.400073 65.80787 
L 334.674145 49.117844 
L 334.948218 83.681229 
L 335.222291 82.09693 
L 335.222291 82.09693 
" clip-path="url(#p1fb29d0d39)" style="fill: none; stroke: #1f77b4; stroke-width: 1.5; stroke-linecap: square"/>
   </g>
   <g id="line2d_14">
    <path d="M 61.423636 87.16 
L 335.496364 87.16 
" clip-path="url(#p1fb29d0d39)" style="fill: none; stroke-dasharray: 7.4,3.2; stroke-dashoffset: 0; stroke: #ff0000; stroke-width: 2"/>
   </g>
   <g id="line2d_15">
    <path d="M 192.978545 87.16 
L 203.941455 87.16 
" clip-path="url(#p1fb29d0d39)" style="fill: none; stroke: #000000; stroke-width: 2; stroke-linecap: square"/>
   </g>
   <g id="line2d_16">
    <path d="M 192.978545 43.72 
L 203.941455 43.72 
" clip-path="url(#p1fb29d0d39)" style="fill: none; stroke: #000000; stroke-width: 2; stroke-linecap: square"/>
   </g>
   <g id="line2d_17">
    <path d="M 198.46 87.16 
L 198.46 43.72 
" clip-path="url(#p1fb29d0d39)" style="fill: none; stroke: #000000; stroke-width: 2; stroke-linecap: square"/>
   </g>
   <g id="line2d_18">
    <path d="M 192.978545 159.56 
L 203.941455 159.56 
" clip-path="url(#p1fb29d0d39)" style="fill: none; stroke: #000000; stroke-width: 2; stroke-linecap: square"/>
   </g>
   <g id="line2d_19">
    <path d="M 198.46 159.56 
L 198.46 87.16 
" clip-path="url(#p1fb29d0d39)" style="fill: none; stroke: #000000; stroke-width: 2; stroke-linecap: square"/>
   </g>
   <g id="patch_3">
    <path d="M 47.72 174.04 
L 47.72 14.76 
" style="fill: none; stroke: #000000; stroke-width: 0.8; stroke-linejoin: miter; stroke-linecap: square"/>
   </g>
   <g id="patch_4">
    <path d="M 349.2 174.04 
L 349.2 14.76 
" style="fill: none; stroke: #000000; stroke-width: 0.8; stroke-linejoin: miter; stroke-linecap: square"/>
   </g>
   <g id="patch_5">
    <path d="M 47.72 174.04 
L 349.2 174.04 
" style="fill: none; stroke: #000000; stroke-width: 0.8; stroke-linejoin: miter; stroke-linecap: square"/>
   </g>
   <g id="patch_6">
    <path d="M 47.72 14.76 
L 349.2 14.76 
" style="fill: none; stroke: #000000; stroke-width: 0.8; stroke-linejoin: miter; stroke-linecap: square"/>
   </g>
   <g id="text_15">
    <g id="patch_7">
     <path d="M 205.422909 71.519688 
L 235.015097 71.519688 
L 235.015097 53.841563 
L 205.422909 53.841563 
z
" style="fill: #ffffff; opacity: 0.8; stroke: #000000; stroke-linejoin: miter"/>
    </g>
    <!-- gain -->
    <g transform="translate(209.422909 65.44) scale(0.1 -0.1)">
     <use xlink:href="#DejaVuSans-67"/>
     <use xlink:href="#DejaVuSans-61" transform="translate(63.476562 0)"/>
     <use xlink:href="#DejaVuSans-69" transform="translate(124.755859 0)"/>
     <use xlink:href="#DejaVuSans-6e" transform="translate(152.539062 0)"/>
    </g>
   </g>
   <g id="text_16">
    <g id="patch_8">
     <path d="M 205.422909 129.439688 
L 241.865097 129.439688 
L 241.865097 111.761563 
L 205.422909 111.761563 
z
" style="fill: #ffffff; opacity: 0.8; stroke: #000000; stroke-linejoin: miter"/>
    </g>
    <!-- offset -->
    <g transform="translate(209.422909 123.36) scale(0.1 -0.1)">
     <defs>
      <path id="DejaVuSans-6f" d="M 1959 3097 
Q 1497 3097 1228 2736 
Q 959 2375 959 1747 
Q 959 1119 1226 758 
Q 1494 397 1959 397 
Q 2419 397 2687 759 
Q 2956 1122 2956 1747 
Q 2956 2369 2687 2733 
Q 2419 3097 1959 3097 
z
M 1959 3584 
Q 2709 3584 3137 3096 
Q 3566 2609 3566 1747 
Q 3566 888 3137 398 
Q 2709 -91 1959 -91 
Q 1206 -91 779 398 
Q 353 888 353 1747 
Q 353 2609 779 3096 
Q 1206 3584 1959 3584 
z
" transform="scale(0.015625)"/>
      <path id="DejaVuSans-66" d="M 2375 4863 
L 2375 4384 
L 1825 4384 
Q 1516 4384 1395 4259 
Q 1275 4134 1275 3809 
L 1275 3500 
L 2222 3500 
L 2222 3053 
L 1275 3053 
L 1275 0 
L 697 0 
L 697 3053 
L 147 3053 
L 147 3500 
L 697 3500 
L 697 3744 
Q 697 4328 969 4595 
Q 1241 4863 1831 4863 
L 2375 4863 
z
" transform="scale(0.015625)"/>
     </defs>
     <use xlink:href="#DejaVuSans-6f"/>
     <use xlink:href="#DejaVuSans-66" transform="translate(61.181641 0)"/>
     <use xlink:href="#DejaVuSans-66" transform="translate(96.386719 0)"/>
     <use xlink:href="#DejaVuSans-73" transform="translate(131.591797 0)"/>
     <use xlink:href="#DejaVuSans-65" transform="translate(183.691406 0)"/>
     <use xlink:href="#DejaVuSans-74" transform="translate(245.214844 0)"/>
    </g>
   </g>
  </g>
 </g>
 <defs>
  <clipPath id="p1fb29d0d39">
   <rect x="47.72" y="14.76" width="301.48" height="159.28"/>
  </clipPath>
 </defs>
</svg>
