<?xml version="1.0" encoding="utf-8" standalone="no"?>
<!DOCTYPE svg PUBLIC "-//W3C//DTD SVG 1.1//EN"
  "http://www.w3.org/Graphics/SVG/1.1/DTD/svg11.dtd">
<svg xmlns:xlink="http://www.w3.org/1999/xlink" width="360pt" height="216pt" viewBox="0 0 360 216" xmlns="http://www.w3.org/2000/svg" version="1.1">
 <metadata>
  <rdf:RDF xmlns:dc="http://purl.org/dc/elements/1.1/" xmlns:cc="http://creativecommons.org/ns#" xmlns:rdf="http://www.w3.org/1999/02/22-rdf-syntax-ns#">
   <cc:Work>
    <dc:type rdf:resource="http://purl.org/dc/dcmitype/StillImage"/>
    <dc:date>2024-07-17T19:16:58.633358</dc:date>
    <dc:format>image/svg+xml</dc:format>
    <dc:creator>
     <cc:Agent>
      <dc:title>Matplotlib v3.7.5, https://matplotlib.org/</dc:title>
     </cc:Agent>
    </dc:creator>
   </cc:Work>
  </rdf:RDF>
 </metadata>
 <defs>
  <style type="text/css">*{stroke-linejoin: round; stroke-linecap: butt}</style>
 </defs>
 <g id="figure_1">
  <g id="patch_1">
   <path d="M 0 216 
L 360 216 
L 360 0 
L 0 0 
z
" style="fill: #ffffff"/>
  </g>
  <g id="axes_1">
   <g id="patch_2">
    <path d="M 47.72 174.04 
L 349.2 174.04 
L 349.2 14.76 
L 47.72 14.76 
z
" style="fill: #ffffff"/>
   </g>
   <g id="matplotlib.axis_1">
    <g id="xtick_1">
     <g id="line2d_1">
      <defs>
       <path id="mefc322c395" d="M 0 0 
L 0 3.5 
" style="stroke: #000000; stroke-width: 0.8"/>
      </defs>
      <g>
       <use xlink:href="#mefc322c395" x="61.423636" y="174.04" style="stroke: #000000; stroke-width: 0.8"/>
      </g>
     </g>
     <g id="text_1">
      <!-- 0.0 -->
      <g transform="translate(53.472074 188.638438) scale(0.1 -0.1)">
       <defs>
        <path id="DejaVuSans-30" d="M 2034 4250 
Q 1547 4250 1301 3770 
Q 1056 3291 1056 2328 
Q 1056 1369 1301 889 
Q 1547 409 2034 409 
Q 2525 409 2770 889 
Q 3016 1369 3016 2328 
Q 3016 3291 2770 3770 
Q 2525 4250 2034 4250 
z
M 2034 4750 
Q 2819 4750 3233 4129 
Q 3647 3509 3647 2328 
Q 3647 1150 3233 529 
Q 2819 -91 2034 -91 
Q 1250 -91 836 529 
Q 422 1150 422 2328 
Q 422 3509 836 4129 
Q 1250 4750 2034 4750 
z
" transform="scale(0.015625)"/>
        <path id="DejaVuSans-2e" d="M 684 794 
L 1344 794 
L 1344 0 
L 684 0 
L 684 794 
z
" transform="scale(0.015625)"/>
       </defs>
       <use xlink:href="#DejaVuSans-30"/>
       <use xlink:href="#DejaVuSans-2e" x="63.623047"/>
       <use xlink:href="#DejaVuSans-30" x="95.410156"/>
      </g>
     </g>
    </g>
    <g id="xtick_2">
     <g id="line2d_2">
      <g>
       <use xlink:href="#mefc322c395" x="116.238182" y="174.04" style="stroke: #000000; stroke-width: 0.8"/>
      </g>
     </g>
     <g id="text_2">
      <!-- 0.2 -->
      <g transform="translate(108.286619 188.638438) scale(0.1 -0.1)">
       <defs>
        <path id="DejaVuSans-32" d="M 1228 531 
L 3431 531 
L 3431 0 
L 469 0 
L 469 531 
Q 828 903 1448 1529 
Q 2069 2156 2228 2338 
Q 2531 2678 2651 2914 
Q 2772 3150 2772 3378 
Q 2772 3750 2511 3984 
Q 2250 4219 1831 4219 
Q 1534 4219 1204 4116 
Q 875 4013 500 3803 
L 500 4441 
Q 881 4594 1212 4672 
Q 1544 4750 1819 4750 
Q 2544 4750 2975 4387 
Q 3406 4025 3406 3419 
Q 3406 3131 3298 2873 
Q 3191 2616 2906 2266 
Q 2828 2175 2409 1742 
Q 1991 1309 1228 531 
z
" transform="scale(0.015625)"/>
       </defs>
       <use xlink:href="#DejaVuSans-30"/>
       <use xlink:href="#DejaVuSans-2e" x="63.623047"/>
       <use xlink:href="#DejaVuSans-32" x="95.410156"/>
      </g>
     </g>
    </g>
    <g id="xtick_3">
     <g id="line2d_3">
      <g>
       <use xlink:href="#mefc322c395" x="171.052727" y="174.04" style="stroke: #000000; stroke-width: 0.8"/>
      </g>
     </g>
     <g id="text_3">
      <!-- 0.4 -->
      <g transform="translate(163.101165 188.638438) scale(0.1 -0.1)">
       <defs>
        <path id="DejaVuSans-34" d="M 2419 4116 
L 825 1625 
L 2419 1625 
L 2419 4116 
z
M 2253 4666 
L 3047 4666 
L 3047 1625 
L 3713 1625 
L 3713 1100 
L 3047 1100 
L 3047 0 
L 2419 0 
L 2419 1100 
L 313 1100 
L 313 1709 
L 2253 4666 
z
" transform="scale(0.015625)"/>
       </defs>
       <use xlink:href="#DejaVuSans-30"/>
       <use xlink:href="#DejaVuSans-2e" x="63.623047"/>
       <use xlink:href="#DejaVuSans-34" x="95.410156"/>
      </g>
     </g>
    </g>
    <g id="xtick_4">
     <g id="line2d_4">
      <g>
       <use xlink:href="#mefc322c395" x="225.867273" y="174.04" style="stroke: #000000; stroke-width: 0.8"/>
      </g>
     </g>
     <g id="text_4">
      <!-- 0.6 -->
      <g transform="translate(217.91571 188.638438) scale(0.1 -0.1)">
       <defs>
        <path id="DejaVuSans-36" d="M 2113 2584 
Q 1688 2584 1439 2293 
Q 1191 2003 1191 1497 
Q 1191 994 1439 701 
Q 1688 409 2113 409 
Q 2538 409 2786 701 
Q 3034 994 3034 1497 
Q 3034 2003 2786 2293 
Q 2538 2584 2113 2584 
z
M 3366 4563 
L 3366 3988 
Q 3128 4100 2886 4159 
Q 2644 4219 2406 4219 
Q 1781 4219 1451 3797 
Q 1122 3375 1075 2522 
Q 1259 2794 1537 2939 
Q 1816 3084 2150 3084 
Q 2853 3084 3261 2657 
Q 3669 2231 3669 1497 
Q 3669 778 3244 343 
Q 2819 -91 2113 -91 
Q 1303 -91 875 529 
Q 447 1150 447 2328 
Q 447 3434 972 4092 
Q 1497 4750 2381 4750 
Q 2619 4750 2861 4703 
Q 3103 4656 3366 4563 
z
" transform="scale(0.015625)"/>
       </defs>
       <use xlink:href="#DejaVuSans-30"/>
       <use xlink:href="#DejaVuSans-2e" x="63.623047"/>
       <use xlink:href="#DejaVuSans-36" x="95.410156"/>
      </g>
     </g>
    </g>
    <g id="xtick_5">
     <g id="line2d_5">
      <g>
       <use xlink:href="#mefc322c395" x="280.681818" y="174.04" style="stroke: #000000; stroke-width: 0.8"/>
      </g>
     </g>
     <g id="text_5">
      <!-- 0.8 -->
      <g transform="translate(272.730256 188.638438) scale(0.1 -0.1)">
       <defs>
        <path id="DejaVuSans-38" d="M 2034 2216 
Q 1584 2216 1326 1975 
Q 1069 1734 1069 1313 
Q 1069 891 1326 650 
Q 1584 409 2034 409 
Q 2484 409 2743 651 
Q 3003 894 3003 1313 
Q 3003 1734 2745 1975 
Q 2488 2216 2034 2216 
z
M 1403 2484 
Q 997 2584 770 2862 
Q 544 3141 544 3541 
Q 544 4100 942 4425 
Q 1341 4750 2034 4750 
Q 2731 4750 3128 4425 
Q 3525 4100 3525 3541 
Q 3525 3141 3298 2862 
Q 3072 2584 2669 2484 
Q 3125 2378 3379 2068 
Q 3634 1759 3634 1313 
Q 3634 634 3220 271 
Q 2806 -91 2034 -91 
Q 1263 -91 848 271 
Q 434 634 434 1313 
Q 434 1759 690 2068 
Q 947 2378 1403 2484 
z
M 1172 3481 
Q 1172 3119 1398 2916 
Q 1625 2713 2034 2713 
Q 2441 2713 2670 2916 
Q 2900 3119 2900 3481 
Q 2900 3844 2670 4047 
Q 2441 4250 2034 4250 
Q 1625 4250 1398 4047 
Q 1172 3844 1172 3481 
z
" transform="scale(0.015625)"/>
       </defs>
       <use xlink:href="#DejaVuSans-30"/>
       <use xlink:href="#DejaVuSans-2e" x="63.623047"/>
       <use xlink:href="#DejaVuSans-38" x="95.410156"/>
      </g>
     </g>
    </g>
    <g id="xtick_6">
     <g id="line2d_6">
      <g>
       <use xlink:href="#mefc322c395" x="335.496364" y="174.04" style="stroke: #000000; stroke-width: 0.8"/>
      </g>
     </g>
     <g id="text_6">
      <!-- 1.0 -->
      <g transform="translate(327.544801 188.638438) scale(0.1 -0.1)">
       <defs>
        <path id="DejaVuSans-31" d="M 794 531 
L 1825 531 
L 1825 4091 
L 703 3866 
L 703 4441 
L 1819 4666 
L 2450 4666 
L 2450 531 
L 3481 531 
L 3481 0 
L 794 0 
L 794 531 
z
" transform="scale(0.015625)"/>
       </defs>
       <use xlink:href="#DejaVuSans-31"/>
       <use xlink:href="#DejaVuSans-2e" x="63.623047"/>
       <use xlink:href="#DejaVuSans-30" x="95.410156"/>
      </g>
     </g>
    </g>
    <g id="text_7">
     <!-- Time (sec) -->
     <g transform="translate(172.305312 202.316563) scale(0.1 -0.1)">
      <defs>
       <path id="DejaVuSans-54" d="M -19 4666 
L 3928 4666 
L 3928 4134 
L 2272 4134 
L 2272 0 
L 1638 0 
L 1638 4134 
L -19 4134 
L -19 4666 
z
" transform="scale(0.015625)"/>
       <path id="DejaVuSans-69" d="M 603 3500 
L 1178 3500 
L 1178 0 
L 603 0 
L 603 3500 
z
M 603 4863 
L 1178 4863 
L 1178 4134 
L 603 4134 
L 603 4863 
z
" transform="scale(0.015625)"/>
       <path id="DejaVuSans-6d" d="M 3328 2828 
Q 3544 3216 3844 3400 
Q 4144 3584 4550 3584 
Q 5097 3584 5394 3201 
Q 5691 2819 5691 2113 
L 5691 0 
L 5113 0 
L 5113 2094 
Q 5113 2597 4934 2840 
Q 4756 3084 4391 3084 
Q 3944 3084 3684 2787 
Q 3425 2491 3425 1978 
L 3425 0 
L 2847 0 
L 2847 2094 
Q 2847 2600 2669 2842 
Q 2491 3084 2119 3084 
Q 1678 3084 1418 2786 
Q 1159 2488 1159 1978 
L 1159 0 
L 581 0 
L 581 3500 
L 1159 3500 
L 1159 2956 
Q 1356 3278 1631 3431 
Q 1906 3584 2284 3584 
Q 2666 3584 2933 3390 
Q 3200 3197 3328 2828 
z
" transform="scale(0.015625)"/>
       <path id="DejaVuSans-65" d="M 3597 1894 
L 3597 1613 
L 953 1613 
Q 991 1019 1311 708 
Q 1631 397 2203 397 
Q 2534 397 2845 478 
Q 3156 559 3463 722 
L 3463 178 
Q 3153 47 2828 -22 
Q 2503 -91 2169 -91 
Q 1331 -91 842 396 
Q 353 884 353 1716 
Q 353 2575 817 3079 
Q 1281 3584 2069 3584 
Q 2775 3584 3186 3129 
Q 3597 2675 3597 1894 
z
M 3022 2063 
Q 3016 2534 2758 2815 
Q 2500 3097 2075 3097 
Q 1594 3097 1305 2825 
Q 1016 2553 972 2059 
L 3022 2063 
z
" transform="scale(0.015625)"/>
       <path id="DejaVuSans-20" transform="scale(0.015625)"/>
       <path id="DejaVuSans-28" d="M 1984 4856 
Q 1566 4138 1362 3434 
Q 1159 2731 1159 2009 
Q 1159 1288 1364 580 
Q 1569 -128 1984 -844 
L 1484 -844 
Q 1016 -109 783 600 
Q 550 1309 550 2009 
Q 550 2706 781 3412 
Q 1013 4119 1484 4856 
L 1984 4856 
z
" transform="scale(0.015625)"/>
       <path id="DejaVuSans-73" d="M 2834 3397 
L 2834 2853 
Q 2591 2978 2328 3040 
Q 2066 3103 1784 3103 
Q 1356 3103 1142 2972 
Q 928 2841 928 2578 
Q 928 2378 1081 2264 
Q 1234 2150 1697 2047 
L 1894 2003 
Q 2506 1872 2764 1633 
Q 3022 1394 3022 966 
Q 3022 478 2636 193 
Q 2250 -91 1575 -91 
Q 1294 -91 989 -36 
Q 684 19 347 128 
L 347 722 
Q 666 556 975 473 
Q 1284 391 1588 391 
Q 1994 391 2212 530 
Q 2431 669 2431 922 
Q 2431 1156 2273 1281 
Q 2116 1406 1581 1522 
L 1381 1569 
Q 847 1681 609 1914 
Q 372 2147 372 2553 
Q 372 3047 722 3315 
Q 1072 3584 1716 3584 
Q 2034 3584 2315 3537 
Q 2597 3491 2834 3397 
z
" transform="scale(0.015625)"/>
       <path id="DejaVuSans-63" d="M 3122 3366 
L 3122 2828 
Q 2878 2963 2633 3030 
Q 2388 3097 2138 3097 
Q 1578 3097 1268 2742 
Q 959 2388 959 1747 
Q 959 1106 1268 751 
Q 1578 397 2138 397 
Q 2388 397 2633 464 
Q 2878 531 3122 666 
L 3122 134 
Q 2881 22 2623 -34 
Q 2366 -91 2075 -91 
Q 1284 -91 818 406 
Q 353 903 353 1747 
Q 353 2603 823 3093 
Q 1294 3584 2113 3584 
Q 2378 3584 2631 3529 
Q 2884 3475 3122 3366 
z
" transform="scale(0.015625)"/>
       <path id="DejaVuSans-29" d="M 513 4856 
L 1013 4856 
Q 1481 4119 1714 3412 
Q 1947 2706 1947 2009 
Q 1947 1309 1714 600 
Q 1481 -109 1013 -844 
L 513 -844 
Q 928 -128 1133 580 
Q 1338 1288 1338 2009 
Q 1338 2731 1133 3434 
Q 928 4138 513 4856 
z
" transform="scale(0.015625)"/>
      </defs>
      <use xlink:href="#DejaVuSans-54"/>
      <use xlink:href="#DejaVuSans-69" x="57.958984"/>
      <use xlink:href="#DejaVuSans-6d" x="85.742188"/>
      <use xlink:href="#DejaVuSans-65" x="183.154297"/>
      <use xlink:href="#DejaVuSans-20" x="244.677734"/>
      <use xlink:href="#DejaVuSans-28" x="276.464844"/>
      <use xlink:href="#DejaVuSans-73" x="315.478516"/>
      <use xlink:href="#DejaVuSans-65" x="367.578125"/>
      <use xlink:href="#DejaVuSans-63" x="429.101562"/>
      <use xlink:href="#DejaVuSans-29" x="484.082031"/>
     </g>
    </g>
   </g>
   <g id="matplotlib.axis_2">
    <g id="ytick_1">
     <g id="line2d_7">
      <defs>
       <path id="me33dca0635" d="M 0 0 
L -3.5 0 
" style="stroke: #000000; stroke-width: 0.8"/>
      </defs>
      <g>
       <use xlink:href="#me33dca0635" x="47.72" y="159.56" style="stroke: #000000; stroke-width: 0.8"/>
      </g>
     </g>
     <g id="text_8">
      <!-- 0.0 -->
      <g transform="translate(24.816875 163.359219) scale(0.1 -0.1)">
       <use xlink:href="#DejaVuSans-30"/>
       <use xlink:href="#DejaVuSans-2e" x="63.623047"/>
       <use xlink:href="#DejaVuSans-30" x="95.410156"/>
      </g>
     </g>
    </g>
    <g id="ytick_2">
     <g id="line2d_8">
      <g>
       <use xlink:href="#me33dca0635" x="47.72" y="130.6" style="stroke: #000000; stroke-width: 0.8"/>
      </g>
     </g>
     <g id="text_9">
      <!-- 0.2 -->
      <g transform="translate(24.816875 134.399219) scale(0.1 -0.1)">
       <use xlink:href="#DejaVuSans-30"/>
       <use xlink:href="#DejaVuSans-2e" x="63.623047"/>
       <use xlink:href="#DejaVuSans-32" x="95.410156"/>
      </g>
     </g>
    </g>
    <g id="ytick_3">
     <g id="line2d_9">
      <g>
       <use xlink:href="#me33dca0635" x="47.72" y="101.64" style="stroke: #000000; stroke-width: 0.8"/>
      </g>
     </g>
     <g id="text_10">
      <!-- 0.4 -->
      <g transform="translate(24.816875 105.439219) scale(0.1 -0.1)">
       <use xlink:href="#DejaVuSans-30"/>
       <use xlink:href="#DejaVuSans-2e" x="63.623047"/>
       <use xlink:href="#DejaVuSans-34" x="95.410156"/>
      </g>
     </g>
    </g>
    <g id="ytick_4">
     <g id="line2d_10">
      <g>
       <use xlink:href="#me33dca0635" x="47.72" y="72.68" style="stroke: #000000; stroke-width: 0.8"/>
      </g>
     </g>
     <g id="text_11">
      <!-- 0.6 -->
      <g transform="translate(24.816875 76.479219) scale(0.1 -0.1)">
       <use xlink:href="#DejaVuSans-30"/>
       <use xlink:href="#DejaVuSans-2e" x="63.623047"/>
       <use xlink:href="#DejaVuSans-36" x="95.410156"/>
      </g>
     </g>
    </g>
    <g id="ytick_5">
     <g id="line2d_11">
      <g>
       <use xlink:href="#me33dca0635" x="47.72" y="43.72" style="stroke: #000000; stroke-width: 0.8"/>
      </g>
     </g>
     <g id="text_12">
      <!-- 0.8 -->
      <g transform="translate(24.816875 47.519219) scale(0.1 -0.1)">
       <use xlink:href="#DejaVuSans-30"/>
       <use xlink:href="#DejaVuSans-2e" x="63.623047"/>
       <use xlink:href="#DejaVuSans-38" x="95.410156"/>
      </g>
     </g>
    </g>
    <g id="ytick_6">
     <g id="line2d_12">
      <g>
       <use xlink:href="#me33dca0635" x="47.72" y="14.76" style="stroke: #000000; stroke-width: 0.8"/>
      </g>
     </g>
     <g id="text_13">
      <!-- 1.0 -->
      <g transform="translate(24.816875 18.559219) scale(0.1 -0.1)">
       <use xlink:href="#DejaVuSans-31"/>
       <use xlink:href="#DejaVuSans-2e" x="63.623047"/>
       <use xlink:href="#DejaVuSans-30" x="95.410156"/>
      </g>
     </g>
    </g>
    <g id="text_14">
     <!-- Injected Signal -->
     <g transform="translate(18.737188 131.417969) rotate(-90) scale(0.1 -0.1)">
      <defs>
       <path id="DejaVuSans-49" d="M 628 4666 
L 1259 4666 
L 1259 0 
L 628 0 
L 628 4666 
z
" transform="scale(0.015625)"/>
       <path id="DejaVuSans-6e" d="M 3513 2113 
L 3513 0 
L 2938 0 
L 2938 2094 
Q 2938 2591 2744 2837 
Q 2550 3084 2163 3084 
Q 1697 3084 1428 2787 
Q 1159 2491 1159 1978 
L 1159 0 
L 581 0 
L 581 3500 
L 1159 3500 
L 1159 2956 
Q 1366 3272 1645 3428 
Q 1925 3584 2291 3584 
Q 2894 3584 3203 3211 
Q 3513 2838 3513 2113 
z
" transform="scale(0.015625)"/>
       <path id="DejaVuSans-6a" d="M 603 3500 
L 1178 3500 
L 1178 -63 
Q 1178 -731 923 -1031 
Q 669 -1331 103 -1331 
L -116 -1331 
L -116 -844 
L 38 -844 
Q 366 -844 484 -692 
Q 603 -541 603 -63 
L 603 3500 
z
M 603 4863 
L 1178 4863 
L 1178 4134 
L 603 4134 
L 603 4863 
z
" transform="scale(0.015625)"/>
       <path id="DejaVuSans-74" d="M 1172 4494 
L 1172 3500 
L 2356 3500 
L 2356 3053 
L 1172 3053 
L 1172 1153 
Q 1172 725 1289 603 
Q 1406 481 1766 481 
L 2356 481 
L 2356 0 
L 1766 0 
Q 1100 0 847 248 
Q 594 497 594 1153 
L 594 3053 
L 172 3053 
L 172 3500 
L 594 3500 
L 594 4494 
L 1172 4494 
z
" transform="scale(0.015625)"/>
       <path id="DejaVuSans-64" d="M 2906 2969 
L 2906 4863 
L 3481 4863 
L 3481 0 
L 2906 0 
L 2906 525 
Q 2725 213 2448 61 
Q 2172 -91 1784 -91 
Q 1150 -91 751 415 
Q 353 922 353 1747 
Q 353 2572 751 3078 
Q 1150 3584 1784 3584 
Q 2172 3584 2448 3432 
Q 2725 3281 2906 2969 
z
M 947 1747 
Q 947 1113 1208 752 
Q 1469 391 1925 391 
Q 2381 391 2643 752 
Q 2906 1113 2906 1747 
Q 2906 2381 2643 2742 
Q 2381 3103 1925 3103 
Q 1469 3103 1208 2742 
Q 947 2381 947 1747 
z
" transform="scale(0.015625)"/>
       <path id="DejaVuSans-53" d="M 3425 4513 
L 3425 3897 
Q 3066 4069 2747 4153 
Q 2428 4238 2131 4238 
Q 1616 4238 1336 4038 
Q 1056 3838 1056 3469 
Q 1056 3159 1242 3001 
Q 1428 2844 1947 2747 
L 2328 2669 
Q 3034 2534 3370 2195 
Q 3706 1856 3706 1288 
Q 3706 609 3251 259 
Q 2797 -91 1919 -91 
Q 1588 -91 1214 -16 
Q 841 59 441 206 
L 441 856 
Q 825 641 1194 531 
Q 1563 422 1919 422 
Q 2459 422 2753 634 
Q 3047 847 3047 1241 
Q 3047 1584 2836 1778 
Q 2625 1972 2144 2069 
L 1759 2144 
Q 1053 2284 737 2584 
Q 422 2884 422 3419 
Q 422 4038 858 4394 
Q 1294 4750 2059 4750 
Q 2388 4750 2728 4690 
Q 3069 4631 3425 4513 
z
" transform="scale(0.015625)"/>
       <path id="DejaVuSans-67" d="M 2906 1791 
Q 2906 2416 2648 2759 
Q 2391 3103 1925 3103 
Q 1463 3103 1205 2759 
Q 947 2416 947 1791 
Q 947 1169 1205 825 
Q 1463 481 1925 481 
Q 2391 481 2648 825 
Q 2906 1169 2906 1791 
z
M 3481 434 
Q 3481 -459 3084 -895 
Q 2688 -1331 1869 -1331 
Q 1566 -1331 1297 -1286 
Q 1028 -1241 775 -1147 
L 775 -588 
Q 1028 -725 1275 -790 
Q 1522 -856 1778 -856 
Q 2344 -856 2625 -561 
Q 2906 -266 2906 331 
L 2906 616 
Q 2728 306 2450 153 
Q 2172 0 1784 0 
Q 1141 0 747 490 
Q 353 981 353 1791 
Q 353 2603 747 3093 
Q 1141 3584 1784 3584 
Q 2172 3584 2450 3431 
Q 2728 3278 2906 2969 
L 2906 3500 
L 3481 3500 
L 3481 434 
z
" transform="scale(0.015625)"/>
       <path id="DejaVuSans-61" d="M 2194 1759 
Q 1497 1759 1228 1600 
Q 959 1441 959 1056 
Q 959 750 1161 570 
Q 1363 391 1709 391 
Q 2188 391 2477 730 
Q 2766 1069 2766 1631 
L 2766 1759 
L 2194 1759 
z
M 3341 1997 
L 3341 0 
L 2766 0 
L 2766 531 
Q 2569 213 2275 61 
Q 1981 -91 1556 -91 
Q 1019 -91 701 211 
Q 384 513 384 1019 
Q 384 1609 779 1909 
Q 1175 2209 1959 2209 
L 2766 2209 
L 2766 2266 
Q 2766 2663 2505 2880 
Q 2244 3097 1772 3097 
Q 1472 3097 1187 3025 
Q 903 2953 641 2809 
L 641 3341 
Q 956 3463 1253 3523 
Q 1550 3584 1831 3584 
Q 2591 3584 2966 3190 
Q 3341 2797 3341 1997 
z
" transform="scale(0.015625)"/>
       <path id="DejaVuSans-6c" d="M 603 4863 
L 1178 4863 
L 1178 0 
L 603 0 
L 603 4863 
z
" transform="scale(0.015625)"/>
      </defs>
      <use xlink:href="#DejaVuSans-49"/>
      <use xlink:href="#DejaVuSans-6e" x="29.492188"/>
      <use xlink:href="#DejaVuSans-6a" x="92.871094"/>
      <use xlink:href="#DejaVuSans-65" x="120.654297"/>
      <use xlink:href="#DejaVuSans-63" x="182.177734"/>
      <use xlink:href="#DejaVuSans-74" x="237.158203"/>
      <use xlink:href="#DejaVuSans-65" x="276.367188"/>
      <use xlink:href="#DejaVuSans-64" x="337.890625"/>
      <use xlink:href="#DejaVuSans-20" x="401.367188"/>
      <use xlink:href="#DejaVuSans-53" x="433.154297"/>
      <use xlink:href="#DejaVuSans-69" x="496.630859"/>
      <use xlink:href="#DejaVuSans-67" x="524.414062"/>
      <use xlink:href="#DejaVuSans-6e" x="587.890625"/>
      <use xlink:href="#DejaVuSans-61" x="651.269531"/>
      <use xlink:href="#DejaVuSans-6c" x="712.548828"/>
     </g>
    </g>
   </g>
   <g id="line2d_13">
    <path d="M 61.423636 119.499808 
L 61.697709 95.889448 
L 61.971782 54.299367 
L 62.245855 61.951683 
L 62.519927 65.988643 
L 62.794 112.983825 
L 63.068073 90.11446 
L 63.342145 92.816257 
L 63.616218 60.571514 
L 63.890291 91.297058 
L 64.164364 100.520908 
L 64.438436 46.100044 
L 64.712509 82.786186 
L 64.986582 57.032314 
L 65.260655 85.522643 
L 65.534727 88.642919 
L 65.8088 64.744788 
L 66.356945 112.406455 
L 66.631018 57.897553 
L 66.905091 45.295929 
L 67.179164 110.679888 
L 67.453236 115.214061 
L 67.727309 49.08767 
L 68.275455 109.204613 
L 68.549527 79.993521 
L 68.8236 82.218899 
L 69.097673 89.90345 
L 69.371745 66.677192 
L 69.645818 97.163154 
L 69.919891 100.405159 
L 70.193964 82.065144 
L 70.468036 110.021803 
L 70.742109 126.420928 
L 71.016182 71.112399 
L 71.290255 120.902491 
L 71.564327 68.819011 
L 71.8384 54.837737 
L 72.386545 112.417749 
L 72.660618 53.813827 
L 73.208764 120.614532 
L 73.482836 105.506761 
L 73.756909 129.669078 
L 74.030982 78.344165 
L 74.305055 62.299515 
L 74.579127 99.822903 
L 74.8532 44.554612 
L 75.127273 77.681221 
L 75.401345 97.092284 
L 75.675418 129.518311 
L 76.223564 45.04286 
L 76.497636 76.619114 
L 76.771709 127.26081 
L 77.045782 73.89194 
L 77.319855 76.770974 
L 77.593927 115.670034 
L 77.868 98.602768 
L 78.142073 51.906215 
L 78.416145 116.101077 
L 78.690218 60.103767 
L 78.964291 52.553277 
L 79.238364 126.950238 
L 79.512436 53.768363 
L 79.786509 98.388267 
L 80.060582 51.482446 
L 80.334655 73.072154 
L 80.608727 57.496415 
L 81.156873 124.126359 
L 81.430945 72.360286 
L 81.705018 103.877145 
L 81.979091 46.176453 
L 82.253164 101.400049 
L 82.527236 56.233951 
L 82.801309 50.087022 
L 83.075382 80.106221 
L 83.349455 78.387519 
L 83.623527 87.772245 
L 83.8976 69.498745 
L 84.171673 58.959213 
L 84.445745 80.758769 
L 84.719818 129.966017 
L 84.993891 106.154443 
L 85.267964 109.47689 
L 85.542036 48.973131 
L 86.090182 127.612852 
L 86.364255 56.25389 
L 86.638327 91.02345 
L 86.9124 97.07237 
L 87.186473 113.024835 
L 87.460545 80.764401 
L 87.734618 111.765323 
L 88.008691 56.845264 
L 88.282764 48.52201 
L 88.830909 91.025606 
L 89.104982 122.18522 
L 89.379055 102.322703 
L 89.653127 96.70253 
L 89.9272 120.053322 
L 90.201273 63.728933 
L 90.475345 64.625651 
L 90.749418 56.803568 
L 91.023491 113.954762 
L 91.297564 60.55872 
L 91.571636 118.170007 
L 91.845709 85.629304 
L 92.393855 49.558872 
L 92.667927 90.955818 
L 92.942 94.579486 
L 93.490145 51.320158 
L 93.764218 63.741528 
L 94.038291 62.412706 
L 94.312364 108.115716 
L 94.586436 98.05125 
L 94.860509 61.544275 
L 95.134582 107.844767 
L 95.408655 63.431761 
L 95.682727 114.207761 
L 95.9568 48.377096 
L 96.230873 123.147387 
L 96.504945 87.280154 
L 96.779018 71.982059 
L 97.053091 102.992629 
L 97.327164 75.863628 
L 97.601236 96.445877 
L 97.875309 53.659075 
L 98.149382 112.637876 
L 98.423455 44.194846 
L 98.697527 122.957698 
L 98.9716 103.967941 
L 99.245673 67.684328 
L 99.519745 54.3678 
L 99.793818 99.809049 
L 100.067891 69.979277 
L 100.341964 121.690362 
L 100.616036 112.772841 
L 100.890109 114.471107 
L 101.164182 59.572889 
L 101.438255 113.31277 
L 101.712327 126.490207 
L 101.9864 47.270342 
L 102.534545 56.200188 
L 102.808618 100.72048 
L 103.356764 71.508941 
L 103.630836 126.595745 
L 103.904909 54.803299 
L 104.178982 96.27144 
L 104.453055 61.94931 
L 104.727127 68.916886 
L 105.0012 60.502066 
L 105.275273 47.784862 
L 105.549345 54.111042 
L 105.823418 101.862228 
L 106.097491 110.159578 
L 106.371564 65.490153 
L 106.645636 125.989863 
L 106.919709 80.825962 
L 107.193782 121.636096 
L 107.467855 115.436793 
L 107.741927 80.375227 
L 108.016 118.116691 
L 108.290073 68.485753 
L 108.564145 115.46185 
L 108.838218 51.798941 
L 109.112291 74.836892 
L 109.386364 107.602267 
L 109.660436 86.244924 
L 110.208582 64.814558 
L 110.482655 62.356796 
L 110.756727 112.569447 
L 111.304873 56.538036 
L 111.578945 103.080146 
L 111.853018 72.3495 
L 112.127091 84.915579 
L 112.401164 78.564702 
L 112.675236 127.845241 
L 113.223382 55.327506 
L 113.497455 75.23402 
L 113.771527 52.642504 
L 114.0456 94.064948 
L 114.593745 85.08435 
L 114.867818 66.331077 
L 115.141891 103.878372 
L 115.415964 44.960495 
L 115.690036 91.446742 
L 115.964109 49.493081 
L 116.238182 112.413509 
L 116.512255 106.542902 
L 116.786327 60.237926 
L 117.0604 58.641018 
L 117.334473 53.163607 
L 117.608545 113.312936 
L 118.430764 68.05172 
L 118.704836 116.123311 
L 118.978909 45.885994 
L 119.252982 120.764136 
L 119.801127 87.334348 
L 120.0752 98.420624 
L 120.349273 122.231961 
L 120.623345 85.88499 
L 120.897418 70.48019 
L 121.171491 72.623338 
L 121.719636 89.315226 
L 121.993709 52.251626 
L 122.267782 109.789628 
L 122.541855 46.619369 
L 123.09 110.696357 
L 123.364073 53.382359 
L 123.638145 68.909568 
L 123.912218 126.696769 
L 124.186291 112.274273 
L 124.460364 88.660988 
L 124.734436 123.125643 
L 125.282582 67.287128 
L 125.556655 44.212314 
L 125.830727 45.043639 
L 126.1048 97.938411 
L 126.378873 96.318848 
L 126.652945 128.891623 
L 126.927018 66.559267 
L 127.201091 125.036136 
L 127.475164 115.106507 
L 127.749236 122.318825 
L 128.023309 44.253466 
L 128.297382 98.662461 
L 128.571455 66.900239 
L 128.845527 105.74128 
L 129.1196 114.917374 
L 129.393673 84.612589 
L 129.667745 95.302477 
L 129.941818 56.751021 
L 130.215891 80.04189 
L 130.489964 44.852202 
L 130.764036 117.811618 
L 131.038109 50.214386 
L 131.312182 99.240188 
L 131.586255 74.985811 
L 131.860327 84.236782 
L 132.1344 112.012145 
L 132.408473 102.654896 
L 132.682545 51.669005 
L 132.956618 84.84787 
L 133.230691 103.839376 
L 133.504764 54.05189 
L 133.778836 66.434509 
L 134.052909 57.982146 
L 134.326982 75.861487 
L 134.601055 58.114559 
L 134.875127 63.726954 
L 135.1492 116.575381 
L 135.423273 117.268203 
L 135.697345 64.397616 
L 135.971418 100.355143 
L 136.245491 94.683525 
L 136.519564 106.353794 
L 136.793636 91.644114 
L 137.067709 66.146875 
L 137.341782 118.046447 
L 137.615855 126.729467 
L 137.889927 118.729058 
L 138.164 83.039001 
L 138.438073 82.153641 
L 138.712145 108.882417 
L 138.986218 90.283278 
L 139.260291 111.046435 
L 139.534364 68.516545 
L 139.808436 113.223699 
L 140.082509 69.541928 
L 140.356582 50.286489 
L 140.630655 83.791913 
L 140.904727 50.72812 
L 141.1788 82.921952 
L 141.726945 121.598292 
L 142.001018 103.017189 
L 142.275091 129.646886 
L 142.549164 65.877281 
L 142.823236 110.701091 
L 143.097309 46.469561 
L 143.371382 94.169119 
L 143.645455 99.809291 
L 143.919527 66.713676 
L 144.1936 130.283042 
L 144.467673 57.288613 
L 144.741745 45.204655 
L 145.015818 51.863911 
L 145.289891 106.140759 
L 145.563964 123.994627 
L 145.838036 78.441237 
L 146.112109 74.299001 
L 146.386182 73.886269 
L 146.660255 122.43113 
L 146.934327 57.607594 
L 147.2084 67.674687 
L 147.482473 115.318838 
L 147.756545 60.430446 
L 148.030618 70.582739 
L 148.304691 117.037617 
L 148.578764 116.341413 
L 148.852836 50.784993 
L 149.126909 47.652171 
L 149.400982 95.017147 
L 149.675055 120.026702 
L 150.2232 76.031602 
L 150.497273 79.376465 
L 150.771345 95.285084 
L 151.045418 126.032468 
L 151.319491 96.576556 
L 151.593564 119.498183 
L 151.867636 108.754044 
L 152.141709 121.885884 
L 152.415782 117.532695 
L 152.689855 121.374491 
L 152.963927 100.005809 
L 153.238 66.31917 
L 153.512073 112.194802 
L 153.786145 107.003198 
L 154.060218 56.384534 
L 154.334291 68.366969 
L 154.608364 97.899134 
L 155.156509 101.430326 
L 155.704655 49.319354 
L 155.978727 50.842614 
L 156.2528 45.971671 
L 156.526873 91.796622 
L 156.800945 52.318179 
L 157.075018 101.715396 
L 157.349091 69.787222 
L 157.623164 95.326761 
L 157.897236 90.252777 
L 158.171309 120.5258 
L 158.445382 45.755725 
L 158.719455 105.663601 
L 158.993527 74.807855 
L 159.2676 117.762059 
L 159.541673 48.270901 
L 159.815745 110.354661 
L 160.089818 75.979353 
L 160.363891 108.72106 
L 160.637964 69.927006 
L 160.912036 122.889992 
L 161.186109 54.553336 
L 161.734255 94.847489 
L 162.008327 80.952114 
L 162.2824 76.512959 
L 162.556473 125.898756 
L 162.830545 71.051866 
L 163.104618 70.543099 
L 163.378691 125.83455 
L 163.652764 129.360107 
L 163.926836 65.687336 
L 164.200909 59.357703 
L 164.474982 112.20768 
L 164.749055 56.792266 
L 165.023127 125.000445 
L 165.2972 79.423905 
L 165.845345 121.469629 
L 166.119418 92.604541 
L 166.393491 96.604745 
L 166.667564 67.626216 
L 166.941636 110.103109 
L 167.489782 88.213569 
L 167.763855 95.832899 
L 168.037927 52.094791 
L 168.312 101.780858 
L 168.586073 64.270704 
L 168.860145 119.055351 
L 169.134218 95.210229 
L 169.408291 100.75777 
L 169.682364 66.012678 
L 169.956436 71.99932 
L 170.230509 123.765286 
L 170.504582 112.221325 
L 170.778655 75.195597 
L 171.052727 56.875069 
L 171.3268 47.562984 
L 171.600873 63.277984 
L 171.874945 86.022107 
L 172.149018 128.248457 
L 172.423091 127.091956 
L 172.697164 102.552277 
L 172.971236 107.642595 
L 173.519382 53.625259 
L 173.793455 104.738417 
L 174.067527 107.183073 
L 174.3416 87.234001 
L 174.615673 48.974073 
L 174.889745 114.112737 
L 175.163818 120.162293 
L 175.437891 104.867018 
L 175.711964 60.768581 
L 175.986036 128.662588 
L 176.260109 63.659742 
L 176.534182 59.292 
L 176.808255 127.302556 
L 177.082327 88.901025 
L 177.3564 110.256746 
L 177.904545 60.052947 
L 178.178618 58.778545 
L 178.452691 130.564827 
L 178.726764 50.137216 
L 179.000836 107.059648 
L 179.274909 68.214985 
L 179.548982 116.438113 
L 179.823055 102.83569 
L 180.3712 122.518743 
L 180.645273 61.404157 
L 180.919345 113.902761 
L 181.193418 85.027842 
L 181.467491 115.687242 
L 181.741564 102.143053 
L 182.015636 46.417044 
L 182.289709 97.419115 
L 182.563782 95.459952 
L 182.837855 92.299776 
L 183.111927 61.008562 
L 183.386 115.510043 
L 184.208218 67.318466 
L 184.482291 116.187064 
L 184.756364 91.45955 
L 185.030436 122.666229 
L 185.304509 83.199113 
L 185.578582 114.468986 
L 185.852655 54.003021 
L 186.126727 81.528934 
L 186.4008 128.436531 
L 186.674873 128.291074 
L 186.948945 60.177994 
L 187.223018 102.182892 
L 187.497091 120.986961 
L 187.771164 67.358504 
L 188.045236 101.483761 
L 188.319309 97.154525 
L 188.593382 120.612269 
L 188.867455 49.303366 
L 189.141527 116.579037 
L 189.4156 120.5947 
L 189.689673 73.212081 
L 189.963745 84.375095 
L 190.237818 79.406632 
L 190.511891 100.404596 
L 190.785964 90.12926 
L 191.060036 52.183869 
L 191.334109 81.136877 
L 191.608182 82.333403 
L 191.882255 97.307216 
L 192.156327 104.012188 
L 192.4304 103.104908 
L 192.978545 53.866901 
L 193.252618 105.02977 
L 193.526691 60.133752 
L 193.800764 70.115649 
L 194.074836 129.123298 
L 194.348909 126.46313 
L 194.622982 81.35726 
L 194.897055 113.17931 
L 195.171127 110.526122 
L 195.719273 59.750445 
L 195.993345 105.986705 
L 196.267418 97.287568 
L 196.541491 76.931766 
L 196.815564 79.173219 
L 197.089636 61.410706 
L 197.363709 117.500705 
L 197.637782 71.274987 
L 197.911855 89.08109 
L 198.185927 95.785481 
L 198.46 96.356338 
L 198.734073 48.589616 
L 199.008145 118.166053 
L 199.282218 85.732729 
L 199.556291 70.223217 
L 200.104436 116.665118 
L 200.378509 66.325942 
L 200.652582 102.087417 
L 201.200727 66.617449 
L 201.4748 60.259778 
L 201.748873 72.476259 
L 202.022945 126.624103 
L 202.297018 94.081569 
L 202.571091 109.11195 
L 202.845164 69.20573 
L 203.119236 50.840247 
L 203.393309 99.494531 
L 203.667382 66.369013 
L 203.941455 66.449131 
L 204.215527 68.657219 
L 204.4896 113.80323 
L 204.763673 118.048096 
L 205.037745 50.979936 
L 205.311818 105.573526 
L 205.585891 75.665049 
L 205.859964 96.919699 
L 206.134036 89.029457 
L 206.682182 115.358594 
L 206.956255 68.292905 
L 207.230327 108.750557 
L 207.5044 103.944376 
L 207.778473 61.66782 
L 208.052545 70.709609 
L 208.326618 74.305812 
L 208.600691 114.713403 
L 208.874764 77.935887 
L 209.148836 62.472204 
L 209.422909 103.799109 
L 209.696982 53.856612 
L 210.245127 117.570254 
L 210.5192 120.863907 
L 210.793273 51.010762 
L 211.067345 49.921402 
L 211.341418 122.17357 
L 211.615491 55.862368 
L 211.889564 61.451275 
L 212.437709 112.221715 
L 212.711782 110.706952 
L 212.985855 49.678031 
L 213.259927 92.381701 
L 213.534 93.205997 
L 213.808073 102.527794 
L 214.082145 69.905383 
L 214.356218 119.393528 
L 214.904364 57.517903 
L 215.178436 125.19126 
L 215.452509 110.095653 
L 215.726582 101.524403 
L 216.000655 111.867636 
L 216.274727 47.957317 
L 216.5488 97.963505 
L 216.822873 101.777136 
L 217.096945 73.997261 
L 217.371018 115.402629 
L 217.645091 58.285366 
L 217.919164 58.940808 
L 218.193236 48.765716 
L 218.467309 89.235236 
L 218.741382 53.451558 
L 219.289527 104.091168 
L 219.837673 49.171959 
L 220.111745 106.132437 
L 220.385818 50.988314 
L 220.659891 61.348753 
L 220.933964 127.95641 
L 221.208036 109.532271 
L 221.482109 48.333478 
L 221.756182 49.711712 
L 222.030255 127.184046 
L 222.304327 122.739276 
L 222.5784 75.76745 
L 222.852473 67.131109 
L 223.126545 119.409379 
L 223.400618 46.026665 
L 223.674691 66.345965 
L 223.948764 62.985747 
L 224.222836 91.40724 
L 224.496909 89.621579 
L 224.770982 120.70355 
L 225.319127 76.617854 
L 225.867273 117.511651 
L 226.141345 54.951418 
L 226.415418 97.293197 
L 226.689491 102.463484 
L 226.963564 119.888246 
L 227.237636 129.808431 
L 227.511709 112.735885 
L 227.785782 56.264024 
L 228.059855 89.84023 
L 228.333927 81.616416 
L 228.608 121.685097 
L 228.882073 99.884978 
L 229.156145 87.479431 
L 229.430218 87.581853 
L 229.704291 92.448572 
L 230.252436 58.32315 
L 230.526509 63.411949 
L 230.800582 99.675772 
L 231.074655 119.651282 
L 231.348727 119.945019 
L 231.6228 103.32451 
L 231.896873 60.256273 
L 232.170945 56.617222 
L 232.445018 113.900551 
L 232.719091 112.062774 
L 232.993164 80.494394 
L 233.267236 81.976493 
L 233.541309 119.329227 
L 233.815382 48.595787 
L 234.089455 61.32563 
L 234.363527 61.339994 
L 234.6376 72.986764 
L 234.911673 106.741351 
L 235.185745 65.105747 
L 235.459818 81.972312 
L 235.733891 77.86863 
L 236.007964 80.028233 
L 236.282036 94.409477 
L 236.556109 68.980421 
L 236.830182 55.453856 
L 237.104255 100.972381 
L 237.378327 83.127551 
L 237.6524 47.368645 
L 237.926473 111.834305 
L 238.200545 111.00289 
L 238.474618 129.538998 
L 238.748691 97.072632 
L 239.022764 84.342943 
L 239.296836 106.883173 
L 239.570909 115.292826 
L 239.844982 54.569372 
L 240.119055 125.329028 
L 240.393127 125.492687 
L 240.6672 123.738618 
L 240.941273 45.860941 
L 241.489418 116.920049 
L 241.763491 74.860634 
L 242.037564 80.608781 
L 242.311636 67.419269 
L 242.585709 106.910571 
L 242.859782 94.251489 
L 243.133855 47.015507 
L 243.407927 81.182325 
L 243.682 71.84521 
L 243.956073 56.018503 
L 244.230145 58.571319 
L 244.504218 117.828313 
L 244.778291 98.701618 
L 245.052364 105.647625 
L 245.326436 125.796741 
L 245.600509 92.298584 
L 245.874582 120.826849 
L 246.148655 99.085896 
L 246.422727 50.78163 
L 246.6968 55.009677 
L 246.970873 61.623312 
L 247.244945 80.956299 
L 247.793091 49.922959 
L 248.067164 71.924459 
L 248.341236 78.220401 
L 248.615309 68.385284 
L 248.889382 128.656142 
L 249.437527 46.261404 
L 249.7116 63.536673 
L 249.985673 113.997197 
L 250.259745 86.160664 
L 250.533818 77.453436 
L 250.807891 102.299308 
L 251.081964 116.651681 
L 251.356036 66.179022 
L 251.630109 70.19847 
L 251.904182 48.11619 
L 252.178255 84.426292 
L 252.452327 62.250232 
L 252.7264 106.267524 
L 253.000473 84.810879 
L 253.274545 48.851077 
L 253.548618 129.013397 
L 254.096764 67.602436 
L 254.370836 98.904967 
L 254.644909 79.23574 
L 254.918982 70.641048 
L 255.193055 107.101084 
L 255.467127 110.544295 
L 256.015273 123.678543 
L 256.289345 109.141501 
L 256.563418 87.424134 
L 256.837491 50.874729 
L 257.111564 129.684288 
L 257.659709 107.034115 
L 257.933782 67.552713 
L 258.207855 100.831216 
L 258.481927 100.67961 
L 258.756 88.679477 
L 259.030073 85.987989 
L 259.304145 52.008066 
L 259.578218 113.909022 
L 259.852291 50.378039 
L 260.126364 72.32635 
L 260.400436 75.317947 
L 260.674509 73.822303 
L 260.948582 46.940405 
L 261.222655 45.135523 
L 261.496727 98.952016 
L 261.7708 109.627485 
L 262.044873 129.605148 
L 262.318945 44.656765 
L 262.593018 80.263966 
L 262.867091 99.401798 
L 263.141164 91.986775 
L 263.415236 125.657126 
L 263.689309 83.300772 
L 263.963382 119.743894 
L 264.237455 110.237067 
L 264.511527 123.3259 
L 264.7856 45.682849 
L 265.059673 108.440547 
L 265.333745 127.82356 
L 265.607818 81.48789 
L 265.881891 127.501329 
L 266.155964 77.271224 
L 266.704109 114.904758 
L 266.978182 106.156214 
L 267.252255 84.30587 
L 267.526327 113.167093 
L 267.8004 54.992993 
L 268.074473 83.348164 
L 268.348545 95.989901 
L 268.622618 99.936356 
L 268.896691 73.433656 
L 269.170764 64.57221 
L 269.444836 90.96769 
L 269.718909 48.35364 
L 269.992982 97.74154 
L 270.267055 87.756801 
L 270.541127 91.468807 
L 270.8152 48.627449 
L 271.089273 105.087498 
L 271.363345 116.514681 
L 271.637418 97.935502 
L 271.911491 57.709125 
L 272.185564 46.173547 
L 272.459636 71.46774 
L 272.733709 56.94674 
L 273.007782 106.361289 
L 273.281855 68.770786 
L 273.555927 127.997731 
L 273.83 85.812985 
L 274.104073 90.920767 
L 274.378145 120.415912 
L 274.652218 57.457282 
L 274.926291 104.875286 
L 275.200364 77.912112 
L 275.474436 122.647326 
L 275.748509 52.895641 
L 276.022582 86.502608 
L 276.296655 78.648618 
L 276.570727 124.601085 
L 277.118873 81.591309 
L 277.392945 118.781159 
L 277.667018 53.477475 
L 277.941091 116.304188 
L 278.215164 91.34181 
L 278.489236 128.889218 
L 278.763309 104.55235 
L 279.037382 118.26178 
L 279.311455 56.946197 
L 279.585527 48.084359 
L 279.8596 125.867115 
L 280.133673 63.052228 
L 280.407745 79.725662 
L 280.681818 70.016558 
L 280.955891 52.812818 
L 281.229964 129.434373 
L 281.504036 47.459922 
L 281.778109 101.016664 
L 282.052182 108.209562 
L 282.326255 104.769517 
L 282.600327 67.424031 
L 283.422545 127.849044 
L 283.696618 55.24602 
L 283.970691 118.80617 
L 284.244764 96.12705 
L 284.518836 119.631738 
L 284.792909 56.331327 
L 285.066982 46.927737 
L 285.341055 79.95726 
L 285.615127 89.6188 
L 285.8892 60.94697 
L 286.163273 80.110919 
L 286.437345 122.60748 
L 286.711418 128.819043 
L 286.985491 113.320551 
L 287.259564 84.58502 
L 287.533636 118.628583 
L 287.807709 70.615363 
L 288.081782 117.47051 
L 288.355855 82.592195 
L 288.629927 98.21697 
L 288.904 56.47848 
L 289.178073 126.255061 
L 289.452145 110.331191 
L 290.000291 46.033098 
L 290.548436 89.088077 
L 290.822509 119.988332 
L 291.096582 99.71198 
L 291.370655 91.743657 
L 291.644727 118.882863 
L 292.192873 110.087549 
L 292.466945 62.303524 
L 292.741018 59.364374 
L 293.015091 87.913069 
L 293.289164 57.346058 
L 293.563236 75.850539 
L 293.837309 53.711138 
L 294.111382 95.151137 
L 294.385455 62.903689 
L 294.659527 118.77684 
L 294.9336 47.140048 
L 295.207673 73.070459 
L 295.481745 82.011311 
L 295.755818 61.071705 
L 296.029891 56.173607 
L 296.303964 92.013241 
L 296.578036 84.792915 
L 296.852109 108.707263 
L 297.126182 101.134481 
L 297.400255 126.807311 
L 297.674327 85.412389 
L 297.9484 64.555364 
L 298.222473 97.990122 
L 298.496545 98.73137 
L 298.770618 65.381672 
L 299.044691 111.641164 
L 299.318764 113.256715 
L 299.592836 94.700988 
L 299.866909 110.72116 
L 300.140982 45.464754 
L 300.415055 117.668581 
L 300.689127 59.654473 
L 301.237273 115.97341 
L 301.785418 101.51588 
L 302.059491 52.86232 
L 302.333564 116.026002 
L 302.881709 52.700798 
L 303.155782 71.549522 
L 303.429855 114.277546 
L 303.703927 64.14299 
L 303.978 101.802912 
L 304.526145 46.981402 
L 304.800218 106.190866 
L 305.074291 119.572528 
L 305.348364 107.715563 
L 305.622436 118.565966 
L 305.896509 108.494613 
L 306.170582 45.842404 
L 306.444655 122.285161 
L 306.718727 81.592991 
L 306.9928 103.5717 
L 307.266873 97.525678 
L 307.540945 115.214973 
L 307.815018 47.527547 
L 308.089091 84.153849 
L 308.363164 53.854926 
L 308.637236 57.516005 
L 308.911309 97.462365 
L 309.185382 92.934018 
L 309.459455 103.742142 
L 309.733527 85.665703 
L 310.0076 78.292724 
L 310.281673 84.247435 
L 310.555745 51.421368 
L 310.829818 50.994696 
L 311.103891 74.758472 
L 311.377964 112.186668 
L 311.652036 66.564131 
L 311.926109 121.384948 
L 312.200182 111.529244 
L 312.474255 58.741496 
L 312.748327 102.846 
L 313.0224 113.836321 
L 313.296473 60.373622 
L 313.570545 88.421846 
L 313.844618 56.037982 
L 314.118691 109.587908 
L 314.666836 86.899881 
L 314.940909 60.458632 
L 315.214982 48.506721 
L 315.489055 100.386908 
L 315.763127 71.284479 
L 316.0372 63.993708 
L 316.311273 104.416721 
L 316.585345 89.229588 
L 316.859418 109.318768 
L 317.407564 90.908424 
L 317.681636 126.35976 
L 317.955709 77.199802 
L 318.229782 119.864507 
L 318.503855 124.939915 
L 318.777927 111.324289 
L 319.052 63.009486 
L 319.326073 70.999376 
L 319.600145 85.719784 
L 319.874218 84.610539 
L 320.148291 47.788791 
L 320.696436 77.184223 
L 320.970509 125.994163 
L 321.244582 129.582943 
L 321.792727 56.290453 
L 322.0668 99.099498 
L 322.340873 118.389994 
L 322.614945 102.412009 
L 322.889018 67.574749 
L 323.163091 102.954662 
L 323.437164 106.33256 
L 323.711236 70.80169 
L 323.985309 125.076832 
L 324.259382 124.966393 
L 324.533455 79.427435 
L 324.807527 124.958153 
L 325.0816 101.100702 
L 325.355673 53.526461 
L 325.629745 117.788096 
L 325.903818 119.694642 
L 326.177891 70.029804 
L 326.451964 114.395422 
L 326.726036 114.803146 
L 327.000109 93.556281 
L 327.274182 95.782302 
L 327.548255 108.891769 
L 327.822327 58.204229 
L 328.0964 49.670742 
L 328.370473 68.69772 
L 328.644545 98.576073 
L 329.192691 125.5211 
L 329.466764 105.308248 
L 329.740836 65.177972 
L 330.014909 78.484203 
L 330.288982 98.22353 
L 330.563055 69.715556 
L 330.837127 71.884254 
L 331.1112 66.178703 
L 331.385273 129.79606 
L 331.659345 62.275192 
L 331.933418 97.278205 
L 332.207491 86.083605 
L 332.481564 99.546839 
L 332.755636 128.591185 
L 333.029709 122.374414 
L 333.303782 74.822585 
L 333.577855 119.967612 
L 334.126 56.62825 
L 334.400073 49.555142 
L 334.674145 99.835557 
L 334.948218 93.731021 
L 335.222291 101.214152 
L 335.222291 101.214152 
" clip-path="url(#p024bbff743)" style="fill: none; stroke: #1f77b4; stroke-width: 1.5; stroke-linecap: square"/>
   </g>
   <g id="line2d_14">
    <path d="M 61.423636 87.16 
L 335.496364 87.16 
" clip-path="url(#p024bbff743)" style="fill: none; stroke-dasharray: 7.4,3.2; stroke-dashoffset: 0; stroke: #ff0000; stroke-width: 2"/>
   </g>
   <g id="line2d_15">
    <path d="M 192.978545 87.16 
L 203.941455 87.16 
" clip-path="url(#p024bbff743)" style="fill: none; stroke: #000000; stroke-width: 2; stroke-linecap: square"/>
   </g>
   <g id="line2d_16">
    <path d="M 192.978545 43.72 
L 203.941455 43.72 
" clip-path="url(#p024bbff743)" style="fill: none; stroke: #000000; stroke-width: 2; stroke-linecap: square"/>
   </g>
   <g id="line2d_17">
    <path d="M 198.46 87.16 
L 198.46 43.72 
" clip-path="url(#p024bbff743)" style="fill: none; stroke: #000000; stroke-width: 2; stroke-linecap: square"/>
   </g>
   <g id="line2d_18">
    <path d="M 192.978545 159.56 
L 203.941455 159.56 
" clip-path="url(#p024bbff743)" style="fill: none; stroke: #000000; stroke-width: 2; stroke-linecap: square"/>
   </g>
   <g id="line2d_19">
    <path d="M 198.46 159.56 
L 198.46 87.16 
" clip-path="url(#p024bbff743)" style="fill: none; stroke: #000000; stroke-width: 2; stroke-linecap: square"/>
   </g>
   <g id="patch_3">
    <path d="M 47.72 174.04 
L 47.72 14.76 
" style="fill: none; stroke: #000000; stroke-width: 0.8; stroke-linejoin: miter; stroke-linecap: square"/>
   </g>
   <g id="patch_4">
    <path d="M 349.2 174.04 
L 349.2 14.76 
" style="fill: none; stroke: #000000; stroke-width: 0.8; stroke-linejoin: miter; stroke-linecap: square"/>
   </g>
   <g id="patch_5">
    <path d="M 47.72 174.04 
L 349.2 174.04 
" style="fill: none; stroke: #000000; stroke-width: 0.8; stroke-linejoin: miter; stroke-linecap: square"/>
   </g>
   <g id="patch_6">
    <path d="M 47.72 14.76 
L 349.2 14.76 
" style="fill: none; stroke: #000000; stroke-width: 0.8; stroke-linejoin: miter; stroke-linecap: square"/>
   </g>
   <g id="text_15">
    <g id="patch_7">
     <path d="M 205.422909 71.519688 
L 235.015097 71.519688 
L 235.015097 53.841563 
L 205.422909 53.841563 
z
" style="fill: #ffffff; opacity: 0.8; stroke: #000000; stroke-linejoin: miter"/>
    </g>
    <!-- gain -->
    <g transform="translate(209.422909 65.44) scale(0.1 -0.1)">
     <use xlink:href="#DejaVuSans-67"/>
     <use xlink:href="#DejaVuSans-61" x="63.476562"/>
     <use xlink:href="#DejaVuSans-69" x="124.755859"/>
     <use xlink:href="#DejaVuSans-6e" x="152.539062"/>
    </g>
   </g>
   <g id="text_16">
    <g id="patch_8">
     <path d="M 205.422909 129.439688 
L 241.865097 129.439688 
L 241.865097 111.761563 
L 205.422909 111.761563 
z
" style="fill: #ffffff; opacity: 0.8; stroke: #000000; stroke-linejoin: miter"/>
    </g>
    <!-- offset -->
    <g transform="translate(209.422909 123.36) scale(0.1 -0.1)">
     <defs>
      <path id="DejaVuSans-6f" d="M 1959 3097 
Q 1497 3097 1228 2736 
Q 959 2375 959 1747 
Q 959 1119 1226 758 
Q 1494 397 1959 397 
Q 2419 397 2687 759 
Q 2956 1122 2956 1747 
Q 2956 2369 2687 2733 
Q 2419 3097 1959 3097 
z
M 1959 3584 
Q 2709 3584 3137 3096 
Q 3566 2609 3566 1747 
Q 3566 888 3137 398 
Q 2709 -91 1959 -91 
Q 1206 -91 779 398 
Q 353 888 353 1747 
Q 353 2609 779 3096 
Q 1206 3584 1959 3584 
z
" transform="scale(0.015625)"/>
      <path id="DejaVuSans-66" d="M 2375 4863 
L 2375 4384 
L 1825 4384 
Q 1516 4384 1395 4259 
Q 1275 4134 1275 3809 
L 1275 3500 
L 2222 3500 
L 2222 3053 
L 1275 3053 
L 1275 0 
L 697 0 
L 697 3053 
L 147 3053 
L 147 3500 
L 697 3500 
L 697 3744 
Q 697 4328 969 4595 
Q 1241 4863 1831 4863 
L 2375 4863 
z
" transform="scale(0.015625)"/>
     </defs>
     <use xlink:href="#DejaVuSans-6f"/>
     <use xlink:href="#DejaVuSans-66" x="61.181641"/>
     <use xlink:href="#DejaVuSans-66" x="96.386719"/>
     <use xlink:href="#DejaVuSans-73" x="131.591797"/>
     <use xlink:href="#DejaVuSans-65" x="183.691406"/>
     <use xlink:href="#DejaVuSans-74" x="245.214844"/>
    </g>
   </g>
  </g>
 </g>
 <defs>
  <clipPath id="p024bbff743">
   <rect x="47.72" y="14.76" width="301.48" height="159.28"/>
  </clipPath>
 </defs>
</svg>
