<?xml version="1.0" encoding="utf-8" standalone="no"?>
<!DOCTYPE svg PUBLIC "-//W3C//DTD SVG 1.1//EN"
  "http://www.w3.org/Graphics/SVG/1.1/DTD/svg11.dtd">
<svg xmlns:xlink="http://www.w3.org/1999/xlink" width="360pt" height="216pt" viewBox="0 0 360 216" xmlns="http://www.w3.org/2000/svg" version="1.1">
 <metadata>
  <rdf:RDF xmlns:dc="http://purl.org/dc/elements/1.1/" xmlns:cc="http://creativecommons.org/ns#" xmlns:rdf="http://www.w3.org/1999/02/22-rdf-syntax-ns#">
   <cc:Work>
    <dc:type rdf:resource="http://purl.org/dc/dcmitype/StillImage"/>
    <dc:date>2024-12-08T22:20:58.966679</dc:date>
    <dc:format>image/svg+xml</dc:format>
    <dc:creator>
     <cc:Agent>
      <dc:title>Matplotlib v3.7.5, https://matplotlib.org/</dc:title>
     </cc:Agent>
    </dc:creator>
   </cc:Work>
  </rdf:RDF>
 </metadata>
 <defs>
  <style type="text/css">*{stroke-linejoin: round; stroke-linecap: butt}</style>
 </defs>
 <g id="figure_1">
  <g id="patch_1">
   <path d="M 0 216 
L 360 216 
L 360 0 
L 0 0 
z
" style="fill: #ffffff"/>
  </g>
  <g id="axes_1">
   <g id="patch_2">
    <path d="M 47.72 174.04 
L 349.2 174.04 
L 349.2 14.76 
L 47.72 14.76 
z
" style="fill: #ffffff"/>
   </g>
   <g id="matplotlib.axis_1">
    <g id="xtick_1">
     <g id="line2d_1">
      <defs>
       <path id="ma4f9aa39ac" d="M 0 0 
L 0 3.5 
" style="stroke: #000000; stroke-width: 0.8"/>
      </defs>
      <g>
       <use xlink:href="#ma4f9aa39ac" x="61.423636" y="174.04" style="stroke: #000000; stroke-width: 0.8"/>
      </g>
     </g>
     <g id="text_1">
      <!-- 0.0 -->
      <g transform="translate(53.472074 188.638438) scale(0.1 -0.1)">
       <defs>
        <path id="DejaVuSans-30" d="M 2034 4250 
Q 1547 4250 1301 3770 
Q 1056 3291 1056 2328 
Q 1056 1369 1301 889 
Q 1547 409 2034 409 
Q 2525 409 2770 889 
Q 3016 1369 3016 2328 
Q 3016 3291 2770 3770 
Q 2525 4250 2034 4250 
z
M 2034 4750 
Q 2819 4750 3233 4129 
Q 3647 3509 3647 2328 
Q 3647 1150 3233 529 
Q 2819 -91 2034 -91 
Q 1250 -91 836 529 
Q 422 1150 422 2328 
Q 422 3509 836 4129 
Q 1250 4750 2034 4750 
z
" transform="scale(0.015625)"/>
        <path id="DejaVuSans-2e" d="M 684 794 
L 1344 794 
L 1344 0 
L 684 0 
L 684 794 
z
" transform="scale(0.015625)"/>
       </defs>
       <use xlink:href="#DejaVuSans-30"/>
       <use xlink:href="#DejaVuSans-2e" x="63.623047"/>
       <use xlink:href="#DejaVuSans-30" x="95.410156"/>
      </g>
     </g>
    </g>
    <g id="xtick_2">
     <g id="line2d_2">
      <g>
       <use xlink:href="#ma4f9aa39ac" x="116.238182" y="174.04" style="stroke: #000000; stroke-width: 0.8"/>
      </g>
     </g>
     <g id="text_2">
      <!-- 0.2 -->
      <g transform="translate(108.286619 188.638438) scale(0.1 -0.1)">
       <defs>
        <path id="DejaVuSans-32" d="M 1228 531 
L 3431 531 
L 3431 0 
L 469 0 
L 469 531 
Q 828 903 1448 1529 
Q 2069 2156 2228 2338 
Q 2531 2678 2651 2914 
Q 2772 3150 2772 3378 
Q 2772 3750 2511 3984 
Q 2250 4219 1831 4219 
Q 1534 4219 1204 4116 
Q 875 4013 500 3803 
L 500 4441 
Q 881 4594 1212 4672 
Q 1544 4750 1819 4750 
Q 2544 4750 2975 4387 
Q 3406 4025 3406 3419 
Q 3406 3131 3298 2873 
Q 3191 2616 2906 2266 
Q 2828 2175 2409 1742 
Q 1991 1309 1228 531 
z
" transform="scale(0.015625)"/>
       </defs>
       <use xlink:href="#DejaVuSans-30"/>
       <use xlink:href="#DejaVuSans-2e" x="63.623047"/>
       <use xlink:href="#DejaVuSans-32" x="95.410156"/>
      </g>
     </g>
    </g>
    <g id="xtick_3">
     <g id="line2d_3">
      <g>
       <use xlink:href="#ma4f9aa39ac" x="171.052727" y="174.04" style="stroke: #000000; stroke-width: 0.8"/>
      </g>
     </g>
     <g id="text_3">
      <!-- 0.4 -->
      <g transform="translate(163.101165 188.638438) scale(0.1 -0.1)">
       <defs>
        <path id="DejaVuSans-34" d="M 2419 4116 
L 825 1625 
L 2419 1625 
L 2419 4116 
z
M 2253 4666 
L 3047 4666 
L 3047 1625 
L 3713 1625 
L 3713 1100 
L 3047 1100 
L 3047 0 
L 2419 0 
L 2419 1100 
L 313 1100 
L 313 1709 
L 2253 4666 
z
" transform="scale(0.015625)"/>
       </defs>
       <use xlink:href="#DejaVuSans-30"/>
       <use xlink:href="#DejaVuSans-2e" x="63.623047"/>
       <use xlink:href="#DejaVuSans-34" x="95.410156"/>
      </g>
     </g>
    </g>
    <g id="xtick_4">
     <g id="line2d_4">
      <g>
       <use xlink:href="#ma4f9aa39ac" x="225.867273" y="174.04" style="stroke: #000000; stroke-width: 0.8"/>
      </g>
     </g>
     <g id="text_4">
      <!-- 0.6 -->
      <g transform="translate(217.91571 188.638438) scale(0.1 -0.1)">
       <defs>
        <path id="DejaVuSans-36" d="M 2113 2584 
Q 1688 2584 1439 2293 
Q 1191 2003 1191 1497 
Q 1191 994 1439 701 
Q 1688 409 2113 409 
Q 2538 409 2786 701 
Q 3034 994 3034 1497 
Q 3034 2003 2786 2293 
Q 2538 2584 2113 2584 
z
M 3366 4563 
L 3366 3988 
Q 3128 4100 2886 4159 
Q 2644 4219 2406 4219 
Q 1781 4219 1451 3797 
Q 1122 3375 1075 2522 
Q 1259 2794 1537 2939 
Q 1816 3084 2150 3084 
Q 2853 3084 3261 2657 
Q 3669 2231 3669 1497 
Q 3669 778 3244 343 
Q 2819 -91 2113 -91 
Q 1303 -91 875 529 
Q 447 1150 447 2328 
Q 447 3434 972 4092 
Q 1497 4750 2381 4750 
Q 2619 4750 2861 4703 
Q 3103 4656 3366 4563 
z
" transform="scale(0.015625)"/>
       </defs>
       <use xlink:href="#DejaVuSans-30"/>
       <use xlink:href="#DejaVuSans-2e" x="63.623047"/>
       <use xlink:href="#DejaVuSans-36" x="95.410156"/>
      </g>
     </g>
    </g>
    <g id="xtick_5">
     <g id="line2d_5">
      <g>
       <use xlink:href="#ma4f9aa39ac" x="280.681818" y="174.04" style="stroke: #000000; stroke-width: 0.8"/>
      </g>
     </g>
     <g id="text_5">
      <!-- 0.8 -->
      <g transform="translate(272.730256 188.638438) scale(0.1 -0.1)">
       <defs>
        <path id="DejaVuSans-38" d="M 2034 2216 
Q 1584 2216 1326 1975 
Q 1069 1734 1069 1313 
Q 1069 891 1326 650 
Q 1584 409 2034 409 
Q 2484 409 2743 651 
Q 3003 894 3003 1313 
Q 3003 1734 2745 1975 
Q 2488 2216 2034 2216 
z
M 1403 2484 
Q 997 2584 770 2862 
Q 544 3141 544 3541 
Q 544 4100 942 4425 
Q 1341 4750 2034 4750 
Q 2731 4750 3128 4425 
Q 3525 4100 3525 3541 
Q 3525 3141 3298 2862 
Q 3072 2584 2669 2484 
Q 3125 2378 3379 2068 
Q 3634 1759 3634 1313 
Q 3634 634 3220 271 
Q 2806 -91 2034 -91 
Q 1263 -91 848 271 
Q 434 634 434 1313 
Q 434 1759 690 2068 
Q 947 2378 1403 2484 
z
M 1172 3481 
Q 1172 3119 1398 2916 
Q 1625 2713 2034 2713 
Q 2441 2713 2670 2916 
Q 2900 3119 2900 3481 
Q 2900 3844 2670 4047 
Q 2441 4250 2034 4250 
Q 1625 4250 1398 4047 
Q 1172 3844 1172 3481 
z
" transform="scale(0.015625)"/>
       </defs>
       <use xlink:href="#DejaVuSans-30"/>
       <use xlink:href="#DejaVuSans-2e" x="63.623047"/>
       <use xlink:href="#DejaVuSans-38" x="95.410156"/>
      </g>
     </g>
    </g>
    <g id="xtick_6">
     <g id="line2d_6">
      <g>
       <use xlink:href="#ma4f9aa39ac" x="335.496364" y="174.04" style="stroke: #000000; stroke-width: 0.8"/>
      </g>
     </g>
     <g id="text_6">
      <!-- 1.0 -->
      <g transform="translate(327.544801 188.638438) scale(0.1 -0.1)">
       <defs>
        <path id="DejaVuSans-31" d="M 794 531 
L 1825 531 
L 1825 4091 
L 703 3866 
L 703 4441 
L 1819 4666 
L 2450 4666 
L 2450 531 
L 3481 531 
L 3481 0 
L 794 0 
L 794 531 
z
" transform="scale(0.015625)"/>
       </defs>
       <use xlink:href="#DejaVuSans-31"/>
       <use xlink:href="#DejaVuSans-2e" x="63.623047"/>
       <use xlink:href="#DejaVuSans-30" x="95.410156"/>
      </g>
     </g>
    </g>
    <g id="text_7">
     <!-- Time (sec) -->
     <g transform="translate(172.305312 202.316563) scale(0.1 -0.1)">
      <defs>
       <path id="DejaVuSans-54" d="M -19 4666 
L 3928 4666 
L 3928 4134 
L 2272 4134 
L 2272 0 
L 1638 0 
L 1638 4134 
L -19 4134 
L -19 4666 
z
" transform="scale(0.015625)"/>
       <path id="DejaVuSans-69" d="M 603 3500 
L 1178 3500 
L 1178 0 
L 603 0 
L 603 3500 
z
M 603 4863 
L 1178 4863 
L 1178 4134 
L 603 4134 
L 603 4863 
z
" transform="scale(0.015625)"/>
       <path id="DejaVuSans-6d" d="M 3328 2828 
Q 3544 3216 3844 3400 
Q 4144 3584 4550 3584 
Q 5097 3584 5394 3201 
Q 5691 2819 5691 2113 
L 5691 0 
L 5113 0 
L 5113 2094 
Q 5113 2597 4934 2840 
Q 4756 3084 4391 3084 
Q 3944 3084 3684 2787 
Q 3425 2491 3425 1978 
L 3425 0 
L 2847 0 
L 2847 2094 
Q 2847 2600 2669 2842 
Q 2491 3084 2119 3084 
Q 1678 3084 1418 2786 
Q 1159 2488 1159 1978 
L 1159 0 
L 581 0 
L 581 3500 
L 1159 3500 
L 1159 2956 
Q 1356 3278 1631 3431 
Q 1906 3584 2284 3584 
Q 2666 3584 2933 3390 
Q 3200 3197 3328 2828 
z
" transform="scale(0.015625)"/>
       <path id="DejaVuSans-65" d="M 3597 1894 
L 3597 1613 
L 953 1613 
Q 991 1019 1311 708 
Q 1631 397 2203 397 
Q 2534 397 2845 478 
Q 3156 559 3463 722 
L 3463 178 
Q 3153 47 2828 -22 
Q 2503 -91 2169 -91 
Q 1331 -91 842 396 
Q 353 884 353 1716 
Q 353 2575 817 3079 
Q 1281 3584 2069 3584 
Q 2775 3584 3186 3129 
Q 3597 2675 3597 1894 
z
M 3022 2063 
Q 3016 2534 2758 2815 
Q 2500 3097 2075 3097 
Q 1594 3097 1305 2825 
Q 1016 2553 972 2059 
L 3022 2063 
z
" transform="scale(0.015625)"/>
       <path id="DejaVuSans-20" transform="scale(0.015625)"/>
       <path id="DejaVuSans-28" d="M 1984 4856 
Q 1566 4138 1362 3434 
Q 1159 2731 1159 2009 
Q 1159 1288 1364 580 
Q 1569 -128 1984 -844 
L 1484 -844 
Q 1016 -109 783 600 
Q 550 1309 550 2009 
Q 550 2706 781 3412 
Q 1013 4119 1484 4856 
L 1984 4856 
z
" transform="scale(0.015625)"/>
       <path id="DejaVuSans-73" d="M 2834 3397 
L 2834 2853 
Q 2591 2978 2328 3040 
Q 2066 3103 1784 3103 
Q 1356 3103 1142 2972 
Q 928 2841 928 2578 
Q 928 2378 1081 2264 
Q 1234 2150 1697 2047 
L 1894 2003 
Q 2506 1872 2764 1633 
Q 3022 1394 3022 966 
Q 3022 478 2636 193 
Q 2250 -91 1575 -91 
Q 1294 -91 989 -36 
Q 684 19 347 128 
L 347 722 
Q 666 556 975 473 
Q 1284 391 1588 391 
Q 1994 391 2212 530 
Q 2431 669 2431 922 
Q 2431 1156 2273 1281 
Q 2116 1406 1581 1522 
L 1381 1569 
Q 847 1681 609 1914 
Q 372 2147 372 2553 
Q 372 3047 722 3315 
Q 1072 3584 1716 3584 
Q 2034 3584 2315 3537 
Q 2597 3491 2834 3397 
z
" transform="scale(0.015625)"/>
       <path id="DejaVuSans-63" d="M 3122 3366 
L 3122 2828 
Q 2878 2963 2633 3030 
Q 2388 3097 2138 3097 
Q 1578 3097 1268 2742 
Q 959 2388 959 1747 
Q 959 1106 1268 751 
Q 1578 397 2138 397 
Q 2388 397 2633 464 
Q 2878 531 3122 666 
L 3122 134 
Q 2881 22 2623 -34 
Q 2366 -91 2075 -91 
Q 1284 -91 818 406 
Q 353 903 353 1747 
Q 353 2603 823 3093 
Q 1294 3584 2113 3584 
Q 2378 3584 2631 3529 
Q 2884 3475 3122 3366 
z
" transform="scale(0.015625)"/>
       <path id="DejaVuSans-29" d="M 513 4856 
L 1013 4856 
Q 1481 4119 1714 3412 
Q 1947 2706 1947 2009 
Q 1947 1309 1714 600 
Q 1481 -109 1013 -844 
L 513 -844 
Q 928 -128 1133 580 
Q 1338 1288 1338 2009 
Q 1338 2731 1133 3434 
Q 928 4138 513 4856 
z
" transform="scale(0.015625)"/>
      </defs>
      <use xlink:href="#DejaVuSans-54"/>
      <use xlink:href="#DejaVuSans-69" x="57.958984"/>
      <use xlink:href="#DejaVuSans-6d" x="85.742188"/>
      <use xlink:href="#DejaVuSans-65" x="183.154297"/>
      <use xlink:href="#DejaVuSans-20" x="244.677734"/>
      <use xlink:href="#DejaVuSans-28" x="276.464844"/>
      <use xlink:href="#DejaVuSans-73" x="315.478516"/>
      <use xlink:href="#DejaVuSans-65" x="367.578125"/>
      <use xlink:href="#DejaVuSans-63" x="429.101562"/>
      <use xlink:href="#DejaVuSans-29" x="484.082031"/>
     </g>
    </g>
   </g>
   <g id="matplotlib.axis_2">
    <g id="ytick_1">
     <g id="line2d_7">
      <defs>
       <path id="m61dd8741f7" d="M 0 0 
L -3.5 0 
" style="stroke: #000000; stroke-width: 0.8"/>
      </defs>
      <g>
       <use xlink:href="#m61dd8741f7" x="47.72" y="159.56" style="stroke: #000000; stroke-width: 0.8"/>
      </g>
     </g>
     <g id="text_8">
      <!-- 0.0 -->
      <g transform="translate(24.816875 163.359219) scale(0.1 -0.1)">
       <use xlink:href="#DejaVuSans-30"/>
       <use xlink:href="#DejaVuSans-2e" x="63.623047"/>
       <use xlink:href="#DejaVuSans-30" x="95.410156"/>
      </g>
     </g>
    </g>
    <g id="ytick_2">
     <g id="line2d_8">
      <g>
       <use xlink:href="#m61dd8741f7" x="47.72" y="130.6" style="stroke: #000000; stroke-width: 0.8"/>
      </g>
     </g>
     <g id="text_9">
      <!-- 0.2 -->
      <g transform="translate(24.816875 134.399219) scale(0.1 -0.1)">
       <use xlink:href="#DejaVuSans-30"/>
       <use xlink:href="#DejaVuSans-2e" x="63.623047"/>
       <use xlink:href="#DejaVuSans-32" x="95.410156"/>
      </g>
     </g>
    </g>
    <g id="ytick_3">
     <g id="line2d_9">
      <g>
       <use xlink:href="#m61dd8741f7" x="47.72" y="101.64" style="stroke: #000000; stroke-width: 0.8"/>
      </g>
     </g>
     <g id="text_10">
      <!-- 0.4 -->
      <g transform="translate(24.816875 105.439219) scale(0.1 -0.1)">
       <use xlink:href="#DejaVuSans-30"/>
       <use xlink:href="#DejaVuSans-2e" x="63.623047"/>
       <use xlink:href="#DejaVuSans-34" x="95.410156"/>
      </g>
     </g>
    </g>
    <g id="ytick_4">
     <g id="line2d_10">
      <g>
       <use xlink:href="#m61dd8741f7" x="47.72" y="72.68" style="stroke: #000000; stroke-width: 0.8"/>
      </g>
     </g>
     <g id="text_11">
      <!-- 0.6 -->
      <g transform="translate(24.816875 76.479219) scale(0.1 -0.1)">
       <use xlink:href="#DejaVuSans-30"/>
       <use xlink:href="#DejaVuSans-2e" x="63.623047"/>
       <use xlink:href="#DejaVuSans-36" x="95.410156"/>
      </g>
     </g>
    </g>
    <g id="ytick_5">
     <g id="line2d_11">
      <g>
       <use xlink:href="#m61dd8741f7" x="47.72" y="43.72" style="stroke: #000000; stroke-width: 0.8"/>
      </g>
     </g>
     <g id="text_12">
      <!-- 0.8 -->
      <g transform="translate(24.816875 47.519219) scale(0.1 -0.1)">
       <use xlink:href="#DejaVuSans-30"/>
       <use xlink:href="#DejaVuSans-2e" x="63.623047"/>
       <use xlink:href="#DejaVuSans-38" x="95.410156"/>
      </g>
     </g>
    </g>
    <g id="ytick_6">
     <g id="line2d_12">
      <g>
       <use xlink:href="#m61dd8741f7" x="47.72" y="14.76" style="stroke: #000000; stroke-width: 0.8"/>
      </g>
     </g>
     <g id="text_13">
      <!-- 1.0 -->
      <g transform="translate(24.816875 18.559219) scale(0.1 -0.1)">
       <use xlink:href="#DejaVuSans-31"/>
       <use xlink:href="#DejaVuSans-2e" x="63.623047"/>
       <use xlink:href="#DejaVuSans-30" x="95.410156"/>
      </g>
     </g>
    </g>
    <g id="text_14">
     <!-- Injected Signal -->
     <g transform="translate(18.737188 131.417969) rotate(-90) scale(0.1 -0.1)">
      <defs>
       <path id="DejaVuSans-49" d="M 628 4666 
L 1259 4666 
L 1259 0 
L 628 0 
L 628 4666 
z
" transform="scale(0.015625)"/>
       <path id="DejaVuSans-6e" d="M 3513 2113 
L 3513 0 
L 2938 0 
L 2938 2094 
Q 2938 2591 2744 2837 
Q 2550 3084 2163 3084 
Q 1697 3084 1428 2787 
Q 1159 2491 1159 1978 
L 1159 0 
L 581 0 
L 581 3500 
L 1159 3500 
L 1159 2956 
Q 1366 3272 1645 3428 
Q 1925 3584 2291 3584 
Q 2894 3584 3203 3211 
Q 3513 2838 3513 2113 
z
" transform="scale(0.015625)"/>
       <path id="DejaVuSans-6a" d="M 603 3500 
L 1178 3500 
L 1178 -63 
Q 1178 -731 923 -1031 
Q 669 -1331 103 -1331 
L -116 -1331 
L -116 -844 
L 38 -844 
Q 366 -844 484 -692 
Q 603 -541 603 -63 
L 603 3500 
z
M 603 4863 
L 1178 4863 
L 1178 4134 
L 603 4134 
L 603 4863 
z
" transform="scale(0.015625)"/>
       <path id="DejaVuSans-74" d="M 1172 4494 
L 1172 3500 
L 2356 3500 
L 2356 3053 
L 1172 3053 
L 1172 1153 
Q 1172 725 1289 603 
Q 1406 481 1766 481 
L 2356 481 
L 2356 0 
L 1766 0 
Q 1100 0 847 248 
Q 594 497 594 1153 
L 594 3053 
L 172 3053 
L 172 3500 
L 594 3500 
L 594 4494 
L 1172 4494 
z
" transform="scale(0.015625)"/>
       <path id="DejaVuSans-64" d="M 2906 2969 
L 2906 4863 
L 3481 4863 
L 3481 0 
L 2906 0 
L 2906 525 
Q 2725 213 2448 61 
Q 2172 -91 1784 -91 
Q 1150 -91 751 415 
Q 353 922 353 1747 
Q 353 2572 751 3078 
Q 1150 3584 1784 3584 
Q 2172 3584 2448 3432 
Q 2725 3281 2906 2969 
z
M 947 1747 
Q 947 1113 1208 752 
Q 1469 391 1925 391 
Q 2381 391 2643 752 
Q 2906 1113 2906 1747 
Q 2906 2381 2643 2742 
Q 2381 3103 1925 3103 
Q 1469 3103 1208 2742 
Q 947 2381 947 1747 
z
" transform="scale(0.015625)"/>
       <path id="DejaVuSans-53" d="M 3425 4513 
L 3425 3897 
Q 3066 4069 2747 4153 
Q 2428 4238 2131 4238 
Q 1616 4238 1336 4038 
Q 1056 3838 1056 3469 
Q 1056 3159 1242 3001 
Q 1428 2844 1947 2747 
L 2328 2669 
Q 3034 2534 3370 2195 
Q 3706 1856 3706 1288 
Q 3706 609 3251 259 
Q 2797 -91 1919 -91 
Q 1588 -91 1214 -16 
Q 841 59 441 206 
L 441 856 
Q 825 641 1194 531 
Q 1563 422 1919 422 
Q 2459 422 2753 634 
Q 3047 847 3047 1241 
Q 3047 1584 2836 1778 
Q 2625 1972 2144 2069 
L 1759 2144 
Q 1053 2284 737 2584 
Q 422 2884 422 3419 
Q 422 4038 858 4394 
Q 1294 4750 2059 4750 
Q 2388 4750 2728 4690 
Q 3069 4631 3425 4513 
z
" transform="scale(0.015625)"/>
       <path id="DejaVuSans-67" d="M 2906 1791 
Q 2906 2416 2648 2759 
Q 2391 3103 1925 3103 
Q 1463 3103 1205 2759 
Q 947 2416 947 1791 
Q 947 1169 1205 825 
Q 1463 481 1925 481 
Q 2391 481 2648 825 
Q 2906 1169 2906 1791 
z
M 3481 434 
Q 3481 -459 3084 -895 
Q 2688 -1331 1869 -1331 
Q 1566 -1331 1297 -1286 
Q 1028 -1241 775 -1147 
L 775 -588 
Q 1028 -725 1275 -790 
Q 1522 -856 1778 -856 
Q 2344 -856 2625 -561 
Q 2906 -266 2906 331 
L 2906 616 
Q 2728 306 2450 153 
Q 2172 0 1784 0 
Q 1141 0 747 490 
Q 353 981 353 1791 
Q 353 2603 747 3093 
Q 1141 3584 1784 3584 
Q 2172 3584 2450 3431 
Q 2728 3278 2906 2969 
L 2906 3500 
L 3481 3500 
L 3481 434 
z
" transform="scale(0.015625)"/>
       <path id="DejaVuSans-61" d="M 2194 1759 
Q 1497 1759 1228 1600 
Q 959 1441 959 1056 
Q 959 750 1161 570 
Q 1363 391 1709 391 
Q 2188 391 2477 730 
Q 2766 1069 2766 1631 
L 2766 1759 
L 2194 1759 
z
M 3341 1997 
L 3341 0 
L 2766 0 
L 2766 531 
Q 2569 213 2275 61 
Q 1981 -91 1556 -91 
Q 1019 -91 701 211 
Q 384 513 384 1019 
Q 384 1609 779 1909 
Q 1175 2209 1959 2209 
L 2766 2209 
L 2766 2266 
Q 2766 2663 2505 2880 
Q 2244 3097 1772 3097 
Q 1472 3097 1187 3025 
Q 903 2953 641 2809 
L 641 3341 
Q 956 3463 1253 3523 
Q 1550 3584 1831 3584 
Q 2591 3584 2966 3190 
Q 3341 2797 3341 1997 
z
" transform="scale(0.015625)"/>
       <path id="DejaVuSans-6c" d="M 603 4863 
L 1178 4863 
L 1178 0 
L 603 0 
L 603 4863 
z
" transform="scale(0.015625)"/>
      </defs>
      <use xlink:href="#DejaVuSans-49"/>
      <use xlink:href="#DejaVuSans-6e" x="29.492188"/>
      <use xlink:href="#DejaVuSans-6a" x="92.871094"/>
      <use xlink:href="#DejaVuSans-65" x="120.654297"/>
      <use xlink:href="#DejaVuSans-63" x="182.177734"/>
      <use xlink:href="#DejaVuSans-74" x="237.158203"/>
      <use xlink:href="#DejaVuSans-65" x="276.367188"/>
      <use xlink:href="#DejaVuSans-64" x="337.890625"/>
      <use xlink:href="#DejaVuSans-20" x="401.367188"/>
      <use xlink:href="#DejaVuSans-53" x="433.154297"/>
      <use xlink:href="#DejaVuSans-69" x="496.630859"/>
      <use xlink:href="#DejaVuSans-67" x="524.414062"/>
      <use xlink:href="#DejaVuSans-6e" x="587.890625"/>
      <use xlink:href="#DejaVuSans-61" x="651.269531"/>
      <use xlink:href="#DejaVuSans-6c" x="712.548828"/>
     </g>
    </g>
   </g>
   <g id="line2d_13">
    <path d="M 61.423636 108.5196 
L 61.697709 124.59442 
L 61.971782 96.34381 
L 62.245855 43.826173 
L 62.794 111.905503 
L 63.068073 100.994517 
L 63.342145 58.207908 
L 63.616218 77.452586 
L 63.890291 80.581706 
L 64.164364 92.869429 
L 64.438436 48.499273 
L 64.712509 114.832204 
L 64.986582 89.576663 
L 65.260655 104.242018 
L 65.534727 46.380885 
L 65.8088 119.97591 
L 66.082873 116.878589 
L 66.905091 95.491096 
L 67.453236 124.215329 
L 67.727309 102.790168 
L 68.001382 50.684205 
L 68.275455 45.342001 
L 68.549527 69.74561 
L 68.8236 74.46232 
L 69.097673 124.064642 
L 69.371745 65.716209 
L 69.645818 49.629936 
L 69.919891 97.053591 
L 70.193964 66.511402 
L 70.468036 59.239328 
L 70.742109 80.175509 
L 71.290255 91.781094 
L 71.564327 79.34985 
L 71.8384 55.102243 
L 72.112473 79.790183 
L 72.660618 43.893123 
L 72.934691 130.243685 
L 73.208764 82.399589 
L 73.482836 126.855922 
L 73.756909 116.559924 
L 74.030982 85.954876 
L 74.305055 95.055768 
L 74.579127 53.044289 
L 74.8532 129.698103 
L 75.127273 109.023628 
L 75.401345 59.948118 
L 75.675418 51.700684 
L 75.949491 61.150603 
L 76.497636 117.975979 
L 76.771709 53.53609 
L 77.045782 119.776259 
L 77.319855 66.172893 
L 77.593927 52.603895 
L 77.868 63.711128 
L 78.142073 89.508009 
L 78.416145 72.08 
L 78.690218 76.055736 
L 78.964291 118.221356 
L 79.238364 129.574919 
L 79.512436 87.238566 
L 80.060582 128.292896 
L 80.334655 70.69478 
L 80.608727 77.465442 
L 80.8828 128.769522 
L 81.156873 106.051326 
L 81.430945 96.071521 
L 81.705018 72.676972 
L 82.253164 53.829537 
L 82.527236 75.568132 
L 82.801309 126.003081 
L 83.075382 43.932542 
L 83.623527 98.213942 
L 83.8976 112.261006 
L 84.171673 115.513191 
L 84.445745 130.11059 
L 84.719818 67.645954 
L 84.993891 116.590849 
L 85.267964 44.345105 
L 85.542036 92.811777 
L 85.816109 52.092144 
L 86.364255 125.302796 
L 86.638327 84.007434 
L 86.9124 84.231693 
L 87.186473 75.986829 
L 87.460545 104.269001 
L 87.734618 78.583547 
L 88.282764 129.612354 
L 88.556836 66.830643 
L 88.830909 126.205769 
L 89.104982 56.063133 
L 89.379055 112.908142 
L 89.653127 48.183211 
L 89.9272 65.127354 
L 90.201273 102.580759 
L 90.475345 50.216423 
L 90.749418 107.018187 
L 91.023491 52.198507 
L 91.297564 68.69149 
L 91.571636 112.619004 
L 91.845709 51.463902 
L 92.119782 95.171478 
L 92.393855 97.668193 
L 92.667927 107.282051 
L 92.942 49.427702 
L 93.216073 107.713188 
L 93.490145 119.51164 
L 94.038291 59.388387 
L 94.312364 116.849959 
L 94.586436 50.187558 
L 94.860509 95.734836 
L 95.134582 121.525658 
L 95.682727 69.768336 
L 95.9568 116.566874 
L 96.230873 110.779064 
L 96.504945 110.753073 
L 96.779018 116.872083 
L 97.053091 62.71773 
L 97.327164 85.296954 
L 97.601236 53.933876 
L 97.875309 112.674572 
L 98.149382 102.106165 
L 98.423455 84.695764 
L 98.697527 90.842927 
L 98.9716 73.013943 
L 99.245673 127.898714 
L 99.519745 115.467486 
L 99.793818 51.476096 
L 100.067891 59.26564 
L 100.341964 123.588243 
L 100.616036 54.327829 
L 100.890109 61.96879 
L 101.164182 72.845845 
L 101.438255 91.447522 
L 101.712327 92.034233 
L 101.9864 74.244448 
L 102.260473 125.253396 
L 102.534545 66.119285 
L 102.808618 93.352228 
L 103.356764 107.256336 
L 103.630836 90.65792 
L 103.904909 46.660522 
L 104.178982 100.41214 
L 104.453055 109.945281 
L 104.727127 123.95401 
L 105.0012 73.790515 
L 105.275273 50.856072 
L 105.823418 125.462868 
L 106.097491 109.02787 
L 106.371564 56.566727 
L 106.645636 74.287883 
L 106.919709 121.320193 
L 107.193782 72.330595 
L 107.467855 119.12512 
L 108.016 54.52015 
L 108.290073 114.967723 
L 108.838218 62.898316 
L 109.112291 84.174006 
L 109.386364 86.522623 
L 109.660436 79.817298 
L 109.934509 115.968737 
L 110.208582 60.184906 
L 110.482655 58.259404 
L 110.756727 85.378188 
L 111.0308 83.28179 
L 111.304873 53.555211 
L 111.578945 103.605394 
L 111.853018 80.238949 
L 112.127091 118.813204 
L 112.401164 116.740604 
L 112.675236 69.418961 
L 112.949309 56.106726 
L 113.223382 50.82343 
L 113.497455 101.409643 
L 113.771527 116.417133 
L 114.0456 76.983387 
L 114.319673 54.86048 
L 114.593745 93.387066 
L 114.867818 59.4394 
L 115.141891 116.687199 
L 115.415964 111.044053 
L 115.690036 102.528606 
L 115.964109 98.903077 
L 116.238182 90.763632 
L 116.512255 114.728271 
L 116.786327 54.487435 
L 117.0604 58.382372 
L 117.334473 48.693973 
L 117.608545 85.192462 
L 117.882618 86.459433 
L 118.156691 78.174557 
L 118.430764 63.32082 
L 118.978909 51.578656 
L 119.252982 124.532129 
L 119.527055 118.027411 
L 120.0752 54.789116 
L 120.623345 123.541695 
L 121.171491 73.216384 
L 121.445564 125.690476 
L 121.719636 73.223317 
L 121.993709 94.618963 
L 122.267782 49.598768 
L 122.541855 108.354457 
L 122.815927 97.374724 
L 123.364073 47.134997 
L 123.638145 128.572181 
L 123.912218 71.391031 
L 124.186291 53.03508 
L 124.460364 111.723793 
L 124.734436 78.695884 
L 125.008509 80.58535 
L 125.282582 79.977703 
L 125.830727 120.747694 
L 126.1048 128.047785 
L 126.652945 50.820262 
L 126.927018 95.100466 
L 127.201091 63.623804 
L 127.475164 70.105892 
L 127.749236 61.939639 
L 128.023309 78.798326 
L 128.297382 112.562013 
L 128.571455 85.41939 
L 128.845527 111.464534 
L 129.1196 61.44165 
L 129.393673 55.066417 
L 129.667745 112.46582 
L 129.941818 78.527948 
L 130.215891 71.541875 
L 130.489964 86.107892 
L 131.038109 122.800381 
L 131.312182 62.600327 
L 131.586255 77.587163 
L 131.860327 117.684263 
L 132.1344 44.974177 
L 132.408473 97.078211 
L 132.682545 57.195085 
L 132.956618 112.350031 
L 133.230691 57.575585 
L 133.504764 129.946828 
L 133.778836 65.667357 
L 134.052909 63.119477 
L 134.326982 56.210495 
L 134.875127 74.379439 
L 135.1492 127.300754 
L 135.423273 119.195067 
L 135.697345 97.936768 
L 135.971418 120.159515 
L 136.245491 48.349757 
L 136.519564 129.333806 
L 136.793636 114.108597 
L 137.067709 52.450347 
L 137.341782 46.546084 
L 137.615855 90.897937 
L 137.889927 65.664359 
L 138.164 105.25468 
L 138.438073 123.975236 
L 138.712145 71.139125 
L 138.986218 54.363956 
L 139.260291 124.75653 
L 139.534364 52.616769 
L 139.808436 80.491605 
L 140.082509 90.920205 
L 140.356582 93.564677 
L 140.630655 81.515663 
L 140.904727 109.783845 
L 141.1788 103.145362 
L 141.452873 93.347239 
L 141.726945 89.516526 
L 142.275091 49.968442 
L 142.549164 61.781473 
L 142.823236 106.771061 
L 143.097309 75.175059 
L 143.371382 68.14395 
L 143.645455 106.556869 
L 143.919527 106.646985 
L 144.1936 49.243151 
L 144.467673 57.642673 
L 145.015818 117.631155 
L 145.289891 53.627363 
L 145.563964 88.3546 
L 145.838036 60.520769 
L 146.112109 117.12606 
L 146.386182 82.419161 
L 146.660255 121.076624 
L 146.934327 96.572754 
L 147.2084 105.31398 
L 147.482473 79.855225 
L 147.756545 116.640729 
L 148.304691 56.834331 
L 148.578764 62.074469 
L 148.852836 52.460603 
L 149.126909 72.148294 
L 149.400982 124.11921 
L 149.675055 92.979607 
L 149.949127 83.45836 
L 150.2232 99.645542 
L 150.497273 103.774314 
L 150.771345 74.973218 
L 151.045418 104.610619 
L 151.319491 64.744575 
L 151.593564 115.910136 
L 151.867636 129.987476 
L 152.141709 48.585042 
L 152.415782 94.579379 
L 152.689855 46.819585 
L 152.963927 120.241679 
L 153.238 85.600199 
L 153.512073 78.74045 
L 153.786145 68.034714 
L 154.060218 52.498947 
L 154.334291 98.718053 
L 154.608364 119.626639 
L 154.882436 128.970046 
L 155.156509 63.037859 
L 155.430582 69.601079 
L 155.704655 67.347237 
L 155.978727 61.974567 
L 156.2528 90.144487 
L 156.526873 50.265486 
L 156.800945 121.69454 
L 157.075018 120.453453 
L 157.349091 110.628011 
L 157.623164 68.790483 
L 157.897236 105.125117 
L 158.171309 119.232167 
L 158.445382 100.339113 
L 158.719455 91.774482 
L 158.993527 130.032707 
L 159.2676 59.826622 
L 159.541673 130.301214 
L 159.815745 60.701708 
L 160.363891 95.278108 
L 160.637964 57.056567 
L 160.912036 58.855829 
L 161.186109 84.870721 
L 161.460182 125.09755 
L 161.734255 129.723314 
L 162.008327 123.644793 
L 162.2824 128.682918 
L 162.556473 46.952192 
L 163.104618 117.447666 
L 163.652764 65.309073 
L 163.926836 83.516182 
L 164.200909 45.893879 
L 164.474982 93.195569 
L 165.023127 118.087318 
L 165.2972 100.183491 
L 165.571273 60.658816 
L 165.845345 66.472986 
L 166.119418 125.473012 
L 166.393491 79.753655 
L 166.941636 126.89694 
L 167.215709 48.823463 
L 167.489782 63.818074 
L 167.763855 125.984056 
L 168.037927 121.229734 
L 168.312 105.995146 
L 168.586073 118.966533 
L 168.860145 111.833061 
L 169.134218 70.427835 
L 169.408291 102.80182 
L 169.682364 114.565664 
L 169.956436 84.875767 
L 170.230509 92.750488 
L 170.504582 48.318959 
L 170.778655 85.729359 
L 171.052727 81.086645 
L 171.3268 48.806789 
L 171.600873 69.500355 
L 171.874945 51.493909 
L 172.149018 122.688828 
L 172.423091 110.459121 
L 172.697164 69.199574 
L 172.971236 45.450577 
L 173.245309 128.434282 
L 173.793455 84.353835 
L 174.067527 100.44479 
L 174.3416 58.735697 
L 174.615673 103.130721 
L 174.889745 119.579485 
L 175.163818 65.617003 
L 175.437891 93.477762 
L 175.711964 88.031127 
L 175.986036 87.407087 
L 176.260109 79.685756 
L 176.534182 121.660905 
L 176.808255 70.54753 
L 177.082327 70.949605 
L 177.3564 68.731253 
L 177.630473 127.65043 
L 177.904545 129.729628 
L 178.178618 100.358036 
L 178.452691 55.227831 
L 178.726764 104.0217 
L 179.000836 49.613149 
L 179.274909 97.570018 
L 179.548982 110.162615 
L 179.823055 78.343283 
L 180.097127 88.945546 
L 180.3712 123.236489 
L 180.919345 67.662002 
L 181.193418 118.66505 
L 181.467491 105.608738 
L 182.015636 48.046941 
L 182.289709 54.550314 
L 182.563782 57.614852 
L 182.837855 115.126168 
L 183.111927 102.400258 
L 183.386 45.831135 
L 183.660073 117.991469 
L 183.934145 45.681073 
L 184.208218 59.777569 
L 184.756364 115.02145 
L 185.030436 116.904818 
L 185.304509 49.258466 
L 185.578582 130.227739 
L 185.852655 103.06203 
L 186.126727 106.497954 
L 186.4008 122.889761 
L 186.674873 63.002247 
L 186.948945 44.26855 
L 187.223018 114.202596 
L 187.497091 88.480779 
L 187.771164 95.147794 
L 188.045236 66.486348 
L 188.319309 50.203888 
L 188.593382 78.293331 
L 188.867455 76.744407 
L 189.141527 77.370955 
L 189.4156 53.197565 
L 189.689673 90.308028 
L 189.963745 68.07615 
L 190.237818 101.76904 
L 190.511891 80.783872 
L 191.060036 96.798116 
L 191.334109 56.160079 
L 191.608182 108.742471 
L 191.882255 86.2399 
L 192.156327 47.156895 
L 192.4304 95.365571 
L 192.704473 110.351404 
L 192.978545 53.400826 
L 193.252618 116.696199 
L 193.800764 70.576874 
L 194.074836 97.035535 
L 194.348909 66.420509 
L 194.622982 94.630491 
L 194.897055 74.2901 
L 195.171127 92.468029 
L 195.4452 123.880988 
L 195.719273 118.33318 
L 195.993345 124.502662 
L 196.267418 72.188559 
L 196.541491 117.486001 
L 197.089636 57.164902 
L 197.363709 116.710495 
L 197.911855 62.089153 
L 198.185927 50.640494 
L 198.46 126.170271 
L 198.734073 64.411381 
L 199.008145 108.546814 
L 199.282218 103.36973 
L 199.556291 118.582232 
L 199.830364 99.141938 
L 200.104436 64.700076 
L 200.378509 53.956889 
L 200.652582 50.464419 
L 200.926655 118.819392 
L 201.200727 113.686207 
L 201.4748 98.111205 
L 201.748873 125.133525 
L 202.022945 73.091393 
L 202.297018 113.751817 
L 202.571091 88.946625 
L 202.845164 44.378887 
L 203.393309 49.640359 
L 203.667382 110.747509 
L 203.941455 126.510291 
L 204.215527 105.275401 
L 204.4896 54.632624 
L 204.763673 57.752159 
L 205.037745 46.402259 
L 205.311818 83.949857 
L 205.585891 66.163925 
L 205.859964 55.743869 
L 206.134036 84.01584 
L 206.408109 89.996167 
L 206.682182 83.361089 
L 206.956255 116.465995 
L 207.230327 113.550242 
L 207.5044 130.433046 
L 207.778473 68.594387 
L 208.052545 115.177099 
L 208.326618 72.014456 
L 208.600691 60.873175 
L 208.874764 104.744395 
L 209.148836 60.226342 
L 209.696982 107.079692 
L 209.971055 118.537969 
L 210.245127 81.892834 
L 210.5192 99.008955 
L 210.793273 92.163622 
L 211.067345 60.691869 
L 211.341418 119.620533 
L 211.615491 79.83491 
L 211.889564 120.882332 
L 212.163636 52.104773 
L 212.437709 58.958985 
L 212.711782 123.272264 
L 212.985855 127.411854 
L 213.259927 57.457182 
L 213.534 115.126153 
L 213.808073 75.479772 
L 214.082145 63.198954 
L 214.356218 68.093226 
L 214.630291 89.977214 
L 214.904364 51.125484 
L 215.178436 86.93674 
L 215.452509 92.997197 
L 215.726582 127.260491 
L 216.000655 123.405323 
L 216.274727 105.408887 
L 216.5488 77.424606 
L 216.822873 126.85315 
L 217.371018 82.88493 
L 217.645091 104.176434 
L 218.193236 98.498526 
L 218.467309 62.892591 
L 219.015455 87.184133 
L 219.289527 126.962552 
L 219.5636 108.592145 
L 219.837673 44.213705 
L 220.111745 49.092117 
L 220.385818 73.971428 
L 220.659891 110.10328 
L 220.933964 59.533963 
L 221.482109 122.811762 
L 221.756182 127.758063 
L 222.030255 74.938238 
L 222.304327 94.809427 
L 222.5784 71.897065 
L 222.852473 61.321339 
L 223.126545 118.06645 
L 223.400618 50.173366 
L 223.674691 124.516938 
L 223.948764 69.24363 
L 224.222836 85.166308 
L 224.496909 124.843123 
L 224.770982 127.315088 
L 225.045055 117.699676 
L 225.319127 59.917605 
L 225.5932 107.30187 
L 225.867273 91.455419 
L 226.141345 113.916308 
L 226.415418 57.220869 
L 226.689491 60.832398 
L 226.963564 121.392963 
L 227.237636 124.001288 
L 227.511709 92.948785 
L 227.785782 78.582771 
L 228.059855 55.425164 
L 228.333927 111.944832 
L 228.608 48.847854 
L 228.882073 73.396439 
L 229.156145 108.410919 
L 229.430218 90.819746 
L 229.704291 90.685533 
L 229.978364 129.131122 
L 230.800582 79.777223 
L 231.074655 116.414545 
L 231.6228 78.059743 
L 231.896873 92.995426 
L 232.170945 55.720877 
L 232.445018 112.208946 
L 232.719091 77.113776 
L 232.993164 126.111988 
L 233.267236 92.766082 
L 233.541309 74.193474 
L 233.815382 81.510735 
L 234.089455 109.282558 
L 234.363527 59.699387 
L 234.6376 116.74857 
L 234.911673 79.918643 
L 235.185745 70.732513 
L 235.459818 121.597058 
L 235.733891 59.964907 
L 236.007964 120.121439 
L 236.282036 112.632527 
L 236.556109 118.551413 
L 236.830182 118.424183 
L 237.104255 104.095541 
L 237.378327 55.344869 
L 237.6524 52.531714 
L 238.200545 116.370436 
L 238.474618 107.504144 
L 239.022764 48.239363 
L 239.296836 106.049617 
L 239.570909 51.001841 
L 239.844982 116.649745 
L 240.119055 76.986954 
L 240.393127 113.805311 
L 240.6672 49.566991 
L 240.941273 121.983884 
L 241.489418 63.501645 
L 241.763491 120.348426 
L 242.037564 45.568111 
L 242.311636 108.973428 
L 242.585709 96.924507 
L 242.859782 121.929399 
L 243.133855 60.366805 
L 243.407927 129.673343 
L 243.682 104.453318 
L 243.956073 91.927176 
L 244.230145 123.886134 
L 244.504218 73.389002 
L 244.778291 56.634497 
L 245.052364 123.057148 
L 245.600509 79.922033 
L 245.874582 105.057629 
L 246.148655 118.707421 
L 246.422727 108.162019 
L 246.6968 110.797583 
L 246.970873 98.32991 
L 247.244945 66.611696 
L 247.519018 127.224457 
L 247.793091 72.93374 
L 248.067164 89.643692 
L 248.341236 96.804381 
L 248.615309 75.537508 
L 248.889382 106.312032 
L 249.163455 106.274626 
L 249.437527 65.164301 
L 249.7116 98.651348 
L 249.985673 58.607818 
L 250.259745 100.800626 
L 250.533818 51.843911 
L 250.807891 76.371686 
L 251.081964 117.415851 
L 251.356036 81.1681 
L 251.630109 59.944832 
L 252.178255 130.303424 
L 252.452327 98.754074 
L 252.7264 106.317787 
L 253.000473 51.065297 
L 253.274545 59.235746 
L 253.548618 126.88142 
L 253.822691 96.843101 
L 254.096764 117.312821 
L 254.370836 117.54872 
L 254.644909 124.819849 
L 254.918982 123.625822 
L 255.193055 95.432777 
L 255.467127 90.783564 
L 255.7412 121.574141 
L 256.015273 99.345499 
L 256.289345 92.305339 
L 256.563418 126.863163 
L 256.837491 99.85741 
L 257.111564 118.029451 
L 257.385636 106.811472 
L 257.659709 108.829742 
L 257.933782 115.269211 
L 258.207855 96.004036 
L 258.481927 91.133152 
L 258.756 47.915166 
L 259.030073 121.19425 
L 259.304145 127.011064 
L 259.578218 78.613334 
L 259.852291 54.16858 
L 260.126364 91.582441 
L 260.400436 112.966037 
L 260.948582 47.654827 
L 261.222655 101.445261 
L 261.496727 116.387012 
L 261.7708 113.082268 
L 262.044873 71.45627 
L 262.318945 88.339616 
L 262.593018 78.093038 
L 262.867091 50.637019 
L 263.141164 61.156709 
L 263.689309 115.986582 
L 263.963382 48.8711 
L 264.237455 126.567758 
L 264.511527 64.98689 
L 264.7856 63.599548 
L 265.059673 84.825586 
L 265.333745 50.685615 
L 265.881891 94.84924 
L 266.155964 60.81919 
L 266.430036 80.846452 
L 266.704109 57.893613 
L 266.978182 96.243477 
L 267.252255 99.02914 
L 267.526327 123.741981 
L 267.8004 126.244777 
L 268.074473 50.297948 
L 268.622618 86.739984 
L 268.896691 46.974018 
L 269.170764 78.612656 
L 269.444836 123.966765 
L 269.718909 72.186172 
L 269.992982 84.539463 
L 270.267055 58.32252 
L 270.541127 130.341064 
L 270.8152 49.254103 
L 271.089273 47.428399 
L 271.363345 76.133506 
L 271.637418 64.146848 
L 271.911491 45.619664 
L 272.185564 58.271778 
L 272.459636 46.717715 
L 272.733709 58.745936 
L 273.007782 60.053704 
L 273.281855 59.338766 
L 273.555927 114.09416 
L 273.83 109.506661 
L 274.104073 70.980343 
L 274.378145 111.580316 
L 274.652218 126.706006 
L 274.926291 96.123315 
L 275.200364 126.74836 
L 275.474436 84.477845 
L 275.748509 123.362584 
L 276.022582 49.978634 
L 276.296655 89.947035 
L 276.570727 50.800429 
L 276.8448 84.735175 
L 277.118873 88.843412 
L 277.667018 58.150114 
L 277.941091 115.072797 
L 278.215164 49.584192 
L 278.489236 71.312129 
L 278.763309 125.766416 
L 279.037382 62.05219 
L 279.311455 74.042562 
L 279.585527 109.306545 
L 279.8596 89.841777 
L 280.133673 50.21902 
L 280.955891 111.790202 
L 281.229964 69.60286 
L 281.504036 112.475225 
L 281.778109 69.736826 
L 282.052182 66.126219 
L 282.600327 94.902195 
L 282.8744 69.800488 
L 283.148473 76.507206 
L 283.422545 116.69699 
L 283.696618 83.085144 
L 283.970691 122.22172 
L 284.244764 45.979325 
L 284.518836 48.401545 
L 284.792909 57.048136 
L 285.066982 93.589729 
L 285.341055 60.093589 
L 285.615127 128.005717 
L 286.163273 99.160302 
L 286.437345 124.878264 
L 286.711418 75.466065 
L 286.985491 121.832479 
L 287.259564 94.873337 
L 287.533636 95.649095 
L 287.807709 94.308018 
L 288.081782 124.603014 
L 288.355855 111.706413 
L 288.629927 88.194558 
L 288.904 121.824975 
L 289.452145 77.057317 
L 289.726218 92.056437 
L 290.000291 119.979676 
L 290.274364 125.807419 
L 290.548436 94.55736 
L 290.822509 102.202823 
L 291.096582 122.7931 
L 291.370655 54.58336 
L 291.644727 47.071118 
L 291.9188 93.01476 
L 292.192873 90.054204 
L 292.466945 51.747527 
L 292.741018 80.638466 
L 293.015091 84.431352 
L 293.289164 65.369587 
L 293.563236 76.601555 
L 294.111382 54.223498 
L 294.385455 98.142378 
L 294.659527 51.317217 
L 294.9336 67.328521 
L 295.207673 50.407167 
L 295.481745 130.413928 
L 295.755818 57.691547 
L 296.029891 90.638264 
L 296.303964 46.885532 
L 296.578036 48.039183 
L 296.852109 93.831818 
L 297.126182 74.469868 
L 297.400255 81.394362 
L 297.674327 128.288047 
L 297.9484 117.660415 
L 298.496545 50.878774 
L 298.770618 122.579484 
L 299.044691 94.069589 
L 299.318764 49.874122 
L 299.592836 118.26302 
L 299.866909 90.846878 
L 300.140982 92.155047 
L 300.415055 45.388837 
L 300.689127 115.171541 
L 300.9632 79.903854 
L 301.237273 82.640961 
L 301.511345 75.485382 
L 301.785418 71.65602 
L 302.059491 109.529809 
L 302.333564 119.507451 
L 302.881709 103.146148 
L 303.155782 55.868774 
L 303.429855 123.010693 
L 303.703927 63.089622 
L 303.978 65.619755 
L 304.252073 96.367638 
L 304.526145 98.102438 
L 304.800218 65.356172 
L 305.348364 112.122418 
L 305.622436 56.873276 
L 305.896509 79.366431 
L 306.170582 111.429661 
L 306.444655 47.159853 
L 306.718727 98.012005 
L 306.9928 66.78252 
L 307.266873 122.890047 
L 307.815018 91.22422 
L 308.089091 48.209106 
L 308.363164 117.328081 
L 308.637236 66.333015 
L 308.911309 120.985288 
L 309.185382 64.537811 
L 309.459455 119.684481 
L 309.733527 50.075213 
L 310.0076 88.556162 
L 310.281673 62.438477 
L 310.555745 74.227904 
L 310.829818 116.055047 
L 311.103891 85.993699 
L 311.377964 95.667375 
L 311.652036 90.952368 
L 311.926109 67.683594 
L 312.200182 110.949104 
L 312.474255 115.354764 
L 312.748327 129.008991 
L 313.0224 58.811773 
L 313.296473 71.121892 
L 313.570545 98.784796 
L 313.844618 95.897313 
L 314.118691 108.191022 
L 314.392764 128.442197 
L 314.666836 59.400603 
L 315.214982 72.747497 
L 315.489055 120.856754 
L 316.0372 53.373519 
L 316.311273 110.025309 
L 316.585345 94.690756 
L 316.859418 90.607413 
L 317.133491 65.832132 
L 317.407564 61.391951 
L 317.681636 91.806384 
L 317.955709 79.17677 
L 318.229782 117.908604 
L 318.777927 61.827831 
L 319.052 114.920872 
L 319.326073 125.854145 
L 320.148291 70.665636 
L 320.422364 74.595168 
L 320.696436 66.046677 
L 320.970509 111.871205 
L 321.244582 103.233225 
L 321.518655 56.859184 
L 321.792727 124.086306 
L 322.0668 126.10219 
L 322.340873 107.592262 
L 322.614945 110.870129 
L 322.889018 74.503195 
L 323.163091 82.747332 
L 323.437164 63.331283 
L 323.711236 93.220088 
L 323.985309 99.067408 
L 324.259382 68.368411 
L 324.533455 58.810298 
L 324.807527 93.810661 
L 325.0816 105.706381 
L 325.355673 62.586841 
L 325.629745 110.698592 
L 325.903818 121.590638 
L 326.451964 93.151878 
L 326.726036 100.733144 
L 327.000109 94.357688 
L 327.274182 99.276434 
L 327.548255 128.811469 
L 327.822327 120.93717 
L 328.0964 54.131045 
L 328.370473 45.915377 
L 328.644545 70.159832 
L 328.918618 123.295782 
L 329.466764 101.074351 
L 329.740836 73.678869 
L 330.014909 58.261498 
L 330.288982 127.608043 
L 330.563055 70.227403 
L 331.1112 118.912738 
L 331.385273 122.451816 
L 331.659345 112.773783 
L 331.933418 123.209065 
L 332.207491 100.72309 
L 332.481564 129.049142 
L 332.755636 77.965284 
L 333.029709 51.611534 
L 333.303782 49.749539 
L 333.577855 83.465419 
L 333.851927 73.484642 
L 334.126 95.793648 
L 334.400073 102.39525 
L 334.674145 88.697595 
L 334.948218 51.618744 
L 335.222291 68.20501 
L 335.222291 68.20501 
" clip-path="url(#pa8288c1a14)" style="fill: none; stroke: #1f77b4; stroke-width: 1.5; stroke-linecap: square"/>
   </g>
   <g id="line2d_14">
    <path d="M 61.423636 87.16 
L 335.496364 87.16 
" clip-path="url(#pa8288c1a14)" style="fill: none; stroke-dasharray: 7.4,3.2; stroke-dashoffset: 0; stroke: #ff0000; stroke-width: 2"/>
   </g>
   <g id="line2d_15">
    <path d="M 192.978545 87.16 
L 203.941455 87.16 
" clip-path="url(#pa8288c1a14)" style="fill: none; stroke: #000000; stroke-width: 2; stroke-linecap: square"/>
   </g>
   <g id="line2d_16">
    <path d="M 192.978545 43.72 
L 203.941455 43.72 
" clip-path="url(#pa8288c1a14)" style="fill: none; stroke: #000000; stroke-width: 2; stroke-linecap: square"/>
   </g>
   <g id="line2d_17">
    <path d="M 198.46 87.16 
L 198.46 43.72 
" clip-path="url(#pa8288c1a14)" style="fill: none; stroke: #000000; stroke-width: 2; stroke-linecap: square"/>
   </g>
   <g id="line2d_18">
    <path d="M 192.978545 159.56 
L 203.941455 159.56 
" clip-path="url(#pa8288c1a14)" style="fill: none; stroke: #000000; stroke-width: 2; stroke-linecap: square"/>
   </g>
   <g id="line2d_19">
    <path d="M 198.46 159.56 
L 198.46 87.16 
" clip-path="url(#pa8288c1a14)" style="fill: none; stroke: #000000; stroke-width: 2; stroke-linecap: square"/>
   </g>
   <g id="patch_3">
    <path d="M 47.72 174.04 
L 47.72 14.76 
" style="fill: none; stroke: #000000; stroke-width: 0.8; stroke-linejoin: miter; stroke-linecap: square"/>
   </g>
   <g id="patch_4">
    <path d="M 349.2 174.04 
L 349.2 14.76 
" style="fill: none; stroke: #000000; stroke-width: 0.8; stroke-linejoin: miter; stroke-linecap: square"/>
   </g>
   <g id="patch_5">
    <path d="M 47.72 174.04 
L 349.2 174.04 
" style="fill: none; stroke: #000000; stroke-width: 0.8; stroke-linejoin: miter; stroke-linecap: square"/>
   </g>
   <g id="patch_6">
    <path d="M 47.72 14.76 
L 349.2 14.76 
" style="fill: none; stroke: #000000; stroke-width: 0.8; stroke-linejoin: miter; stroke-linecap: square"/>
   </g>
   <g id="text_15">
    <g id="patch_7">
     <path d="M 205.422909 71.519688 
L 235.015097 71.519688 
L 235.015097 53.841563 
L 205.422909 53.841563 
z
" style="fill: #ffffff; opacity: 0.8; stroke: #000000; stroke-linejoin: miter"/>
    </g>
    <!-- gain -->
    <g transform="translate(209.422909 65.44) scale(0.1 -0.1)">
     <use xlink:href="#DejaVuSans-67"/>
     <use xlink:href="#DejaVuSans-61" x="63.476562"/>
     <use xlink:href="#DejaVuSans-69" x="124.755859"/>
     <use xlink:href="#DejaVuSans-6e" x="152.539062"/>
    </g>
   </g>
   <g id="text_16">
    <g id="patch_8">
     <path d="M 205.422909 129.439688 
L 241.865097 129.439688 
L 241.865097 111.761563 
L 205.422909 111.761563 
z
" style="fill: #ffffff; opacity: 0.8; stroke: #000000; stroke-linejoin: miter"/>
    </g>
    <!-- offset -->
    <g transform="translate(209.422909 123.36) scale(0.1 -0.1)">
     <defs>
      <path id="DejaVuSans-6f" d="M 1959 3097 
Q 1497 3097 1228 2736 
Q 959 2375 959 1747 
Q 959 1119 1226 758 
Q 1494 397 1959 397 
Q 2419 397 2687 759 
Q 2956 1122 2956 1747 
Q 2956 2369 2687 2733 
Q 2419 3097 1959 3097 
z
M 1959 3584 
Q 2709 3584 3137 3096 
Q 3566 2609 3566 1747 
Q 3566 888 3137 398 
Q 2709 -91 1959 -91 
Q 1206 -91 779 398 
Q 353 888 353 1747 
Q 353 2609 779 3096 
Q 1206 3584 1959 3584 
z
" transform="scale(0.015625)"/>
      <path id="DejaVuSans-66" d="M 2375 4863 
L 2375 4384 
L 1825 4384 
Q 1516 4384 1395 4259 
Q 1275 4134 1275 3809 
L 1275 3500 
L 2222 3500 
L 2222 3053 
L 1275 3053 
L 1275 0 
L 697 0 
L 697 3053 
L 147 3053 
L 147 3500 
L 697 3500 
L 697 3744 
Q 697 4328 969 4595 
Q 1241 4863 1831 4863 
L 2375 4863 
z
" transform="scale(0.015625)"/>
     </defs>
     <use xlink:href="#DejaVuSans-6f"/>
     <use xlink:href="#DejaVuSans-66" x="61.181641"/>
     <use xlink:href="#DejaVuSans-66" x="96.386719"/>
     <use xlink:href="#DejaVuSans-73" x="131.591797"/>
     <use xlink:href="#DejaVuSans-65" x="183.691406"/>
     <use xlink:href="#DejaVuSans-74" x="245.214844"/>
    </g>
   </g>
  </g>
 </g>
 <defs>
  <clipPath id="pa8288c1a14">
   <rect x="47.72" y="14.76" width="301.48" height="159.28"/>
  </clipPath>
 </defs>
</svg>
