<?xml version="1.0" encoding="utf-8" standalone="no"?>
<!DOCTYPE svg PUBLIC "-//W3C//DTD SVG 1.1//EN"
  "http://www.w3.org/Graphics/SVG/1.1/DTD/svg11.dtd">
<svg xmlns:xlink="http://www.w3.org/1999/xlink" width="360pt" height="216pt" viewBox="0 0 360 216" xmlns="http://www.w3.org/2000/svg" version="1.1">
 <metadata>
  <rdf:RDF xmlns:dc="http://purl.org/dc/elements/1.1/" xmlns:cc="http://creativecommons.org/ns#" xmlns:rdf="http://www.w3.org/1999/02/22-rdf-syntax-ns#">
   <cc:Work>
    <dc:type rdf:resource="http://purl.org/dc/dcmitype/StillImage"/>
    <dc:date>2025-11-26T15:51:53.665940</dc:date>
    <dc:format>image/svg+xml</dc:format>
    <dc:creator>
     <cc:Agent>
      <dc:title>Matplotlib v3.10.7, https://matplotlib.org/</dc:title>
     </cc:Agent>
    </dc:creator>
   </cc:Work>
  </rdf:RDF>
 </metadata>
 <defs>
  <style type="text/css">*{stroke-linejoin: round; stroke-linecap: butt}</style>
 </defs>
 <g id="figure_1">
  <g id="patch_1">
   <path d="M 0 216 
L 360 216 
L 360 0 
L 0 0 
z
" style="fill: #ffffff"/>
  </g>
  <g id="axes_1">
   <g id="patch_2">
    <path d="M 47.72 174.04 
L 349.2 174.04 
L 349.2 14.76 
L 47.72 14.76 
z
" style="fill: #ffffff"/>
   </g>
   <g id="matplotlib.axis_1">
    <g id="xtick_1">
     <g id="line2d_1">
      <defs>
       <path id="m2c3fceb4b3" d="M 0 0 
L 0 3.5 
" style="stroke: #000000; stroke-width: 0.8"/>
      </defs>
      <g>
       <use xlink:href="#m2c3fceb4b3" x="61.423636" y="174.04" style="stroke: #000000; stroke-width: 0.8"/>
      </g>
     </g>
     <g id="text_1">
      <!-- 0.0 -->
      <g transform="translate(53.472074 188.638438) scale(0.1 -0.1)">
       <defs>
        <path id="DejaVuSans-30" d="M 2034 4250 
Q 1547 4250 1301 3770 
Q 1056 3291 1056 2328 
Q 1056 1369 1301 889 
Q 1547 409 2034 409 
Q 2525 409 2770 889 
Q 3016 1369 3016 2328 
Q 3016 3291 2770 3770 
Q 2525 4250 2034 4250 
z
M 2034 4750 
Q 2819 4750 3233 4129 
Q 3647 3509 3647 2328 
Q 3647 1150 3233 529 
Q 2819 -91 2034 -91 
Q 1250 -91 836 529 
Q 422 1150 422 2328 
Q 422 3509 836 4129 
Q 1250 4750 2034 4750 
z
" transform="scale(0.015625)"/>
        <path id="DejaVuSans-2e" d="M 684 794 
L 1344 794 
L 1344 0 
L 684 0 
L 684 794 
z
" transform="scale(0.015625)"/>
       </defs>
       <use xlink:href="#DejaVuSans-30"/>
       <use xlink:href="#DejaVuSans-2e" transform="translate(63.623047 0)"/>
       <use xlink:href="#DejaVuSans-30" transform="translate(95.410156 0)"/>
      </g>
     </g>
    </g>
    <g id="xtick_2">
     <g id="line2d_2">
      <g>
       <use xlink:href="#m2c3fceb4b3" x="116.238182" y="174.04" style="stroke: #000000; stroke-width: 0.8"/>
      </g>
     </g>
     <g id="text_2">
      <!-- 0.2 -->
      <g transform="translate(108.286619 188.638438) scale(0.1 -0.1)">
       <defs>
        <path id="DejaVuSans-32" d="M 1228 531 
L 3431 531 
L 3431 0 
L 469 0 
L 469 531 
Q 828 903 1448 1529 
Q 2069 2156 2228 2338 
Q 2531 2678 2651 2914 
Q 2772 3150 2772 3378 
Q 2772 3750 2511 3984 
Q 2250 4219 1831 4219 
Q 1534 4219 1204 4116 
Q 875 4013 500 3803 
L 500 4441 
Q 881 4594 1212 4672 
Q 1544 4750 1819 4750 
Q 2544 4750 2975 4387 
Q 3406 4025 3406 3419 
Q 3406 3131 3298 2873 
Q 3191 2616 2906 2266 
Q 2828 2175 2409 1742 
Q 1991 1309 1228 531 
z
" transform="scale(0.015625)"/>
       </defs>
       <use xlink:href="#DejaVuSans-30"/>
       <use xlink:href="#DejaVuSans-2e" transform="translate(63.623047 0)"/>
       <use xlink:href="#DejaVuSans-32" transform="translate(95.410156 0)"/>
      </g>
     </g>
    </g>
    <g id="xtick_3">
     <g id="line2d_3">
      <g>
       <use xlink:href="#m2c3fceb4b3" x="171.052727" y="174.04" style="stroke: #000000; stroke-width: 0.8"/>
      </g>
     </g>
     <g id="text_3">
      <!-- 0.4 -->
      <g transform="translate(163.101165 188.638438) scale(0.1 -0.1)">
       <defs>
        <path id="DejaVuSans-34" d="M 2419 4116 
L 825 1625 
L 2419 1625 
L 2419 4116 
z
M 2253 4666 
L 3047 4666 
L 3047 1625 
L 3713 1625 
L 3713 1100 
L 3047 1100 
L 3047 0 
L 2419 0 
L 2419 1100 
L 313 1100 
L 313 1709 
L 2253 4666 
z
" transform="scale(0.015625)"/>
       </defs>
       <use xlink:href="#DejaVuSans-30"/>
       <use xlink:href="#DejaVuSans-2e" transform="translate(63.623047 0)"/>
       <use xlink:href="#DejaVuSans-34" transform="translate(95.410156 0)"/>
      </g>
     </g>
    </g>
    <g id="xtick_4">
     <g id="line2d_4">
      <g>
       <use xlink:href="#m2c3fceb4b3" x="225.867273" y="174.04" style="stroke: #000000; stroke-width: 0.8"/>
      </g>
     </g>
     <g id="text_4">
      <!-- 0.6 -->
      <g transform="translate(217.91571 188.638438) scale(0.1 -0.1)">
       <defs>
        <path id="DejaVuSans-36" d="M 2113 2584 
Q 1688 2584 1439 2293 
Q 1191 2003 1191 1497 
Q 1191 994 1439 701 
Q 1688 409 2113 409 
Q 2538 409 2786 701 
Q 3034 994 3034 1497 
Q 3034 2003 2786 2293 
Q 2538 2584 2113 2584 
z
M 3366 4563 
L 3366 3988 
Q 3128 4100 2886 4159 
Q 2644 4219 2406 4219 
Q 1781 4219 1451 3797 
Q 1122 3375 1075 2522 
Q 1259 2794 1537 2939 
Q 1816 3084 2150 3084 
Q 2853 3084 3261 2657 
Q 3669 2231 3669 1497 
Q 3669 778 3244 343 
Q 2819 -91 2113 -91 
Q 1303 -91 875 529 
Q 447 1150 447 2328 
Q 447 3434 972 4092 
Q 1497 4750 2381 4750 
Q 2619 4750 2861 4703 
Q 3103 4656 3366 4563 
z
" transform="scale(0.015625)"/>
       </defs>
       <use xlink:href="#DejaVuSans-30"/>
       <use xlink:href="#DejaVuSans-2e" transform="translate(63.623047 0)"/>
       <use xlink:href="#DejaVuSans-36" transform="translate(95.410156 0)"/>
      </g>
     </g>
    </g>
    <g id="xtick_5">
     <g id="line2d_5">
      <g>
       <use xlink:href="#m2c3fceb4b3" x="280.681818" y="174.04" style="stroke: #000000; stroke-width: 0.8"/>
      </g>
     </g>
     <g id="text_5">
      <!-- 0.8 -->
      <g transform="translate(272.730256 188.638438) scale(0.1 -0.1)">
       <defs>
        <path id="DejaVuSans-38" d="M 2034 2216 
Q 1584 2216 1326 1975 
Q 1069 1734 1069 1313 
Q 1069 891 1326 650 
Q 1584 409 2034 409 
Q 2484 409 2743 651 
Q 3003 894 3003 1313 
Q 3003 1734 2745 1975 
Q 2488 2216 2034 2216 
z
M 1403 2484 
Q 997 2584 770 2862 
Q 544 3141 544 3541 
Q 544 4100 942 4425 
Q 1341 4750 2034 4750 
Q 2731 4750 3128 4425 
Q 3525 4100 3525 3541 
Q 3525 3141 3298 2862 
Q 3072 2584 2669 2484 
Q 3125 2378 3379 2068 
Q 3634 1759 3634 1313 
Q 3634 634 3220 271 
Q 2806 -91 2034 -91 
Q 1263 -91 848 271 
Q 434 634 434 1313 
Q 434 1759 690 2068 
Q 947 2378 1403 2484 
z
M 1172 3481 
Q 1172 3119 1398 2916 
Q 1625 2713 2034 2713 
Q 2441 2713 2670 2916 
Q 2900 3119 2900 3481 
Q 2900 3844 2670 4047 
Q 2441 4250 2034 4250 
Q 1625 4250 1398 4047 
Q 1172 3844 1172 3481 
z
" transform="scale(0.015625)"/>
       </defs>
       <use xlink:href="#DejaVuSans-30"/>
       <use xlink:href="#DejaVuSans-2e" transform="translate(63.623047 0)"/>
       <use xlink:href="#DejaVuSans-38" transform="translate(95.410156 0)"/>
      </g>
     </g>
    </g>
    <g id="xtick_6">
     <g id="line2d_6">
      <g>
       <use xlink:href="#m2c3fceb4b3" x="335.496364" y="174.04" style="stroke: #000000; stroke-width: 0.8"/>
      </g>
     </g>
     <g id="text_6">
      <!-- 1.0 -->
      <g transform="translate(327.544801 188.638438) scale(0.1 -0.1)">
       <defs>
        <path id="DejaVuSans-31" d="M 794 531 
L 1825 531 
L 1825 4091 
L 703 3866 
L 703 4441 
L 1819 4666 
L 2450 4666 
L 2450 531 
L 3481 531 
L 3481 0 
L 794 0 
L 794 531 
z
" transform="scale(0.015625)"/>
       </defs>
       <use xlink:href="#DejaVuSans-31"/>
       <use xlink:href="#DejaVuSans-2e" transform="translate(63.623047 0)"/>
       <use xlink:href="#DejaVuSans-30" transform="translate(95.410156 0)"/>
      </g>
     </g>
    </g>
    <g id="text_7">
     <!-- Time (sec) -->
     <g transform="translate(172.305312 202.316563) scale(0.1 -0.1)">
      <defs>
       <path id="DejaVuSans-54" d="M -19 4666 
L 3928 4666 
L 3928 4134 
L 2272 4134 
L 2272 0 
L 1638 0 
L 1638 4134 
L -19 4134 
L -19 4666 
z
" transform="scale(0.015625)"/>
       <path id="DejaVuSans-69" d="M 603 3500 
L 1178 3500 
L 1178 0 
L 603 0 
L 603 3500 
z
M 603 4863 
L 1178 4863 
L 1178 4134 
L 603 4134 
L 603 4863 
z
" transform="scale(0.015625)"/>
       <path id="DejaVuSans-6d" d="M 3328 2828 
Q 3544 3216 3844 3400 
Q 4144 3584 4550 3584 
Q 5097 3584 5394 3201 
Q 5691 2819 5691 2113 
L 5691 0 
L 5113 0 
L 5113 2094 
Q 5113 2597 4934 2840 
Q 4756 3084 4391 3084 
Q 3944 3084 3684 2787 
Q 3425 2491 3425 1978 
L 3425 0 
L 2847 0 
L 2847 2094 
Q 2847 2600 2669 2842 
Q 2491 3084 2119 3084 
Q 1678 3084 1418 2786 
Q 1159 2488 1159 1978 
L 1159 0 
L 581 0 
L 581 3500 
L 1159 3500 
L 1159 2956 
Q 1356 3278 1631 3431 
Q 1906 3584 2284 3584 
Q 2666 3584 2933 3390 
Q 3200 3197 3328 2828 
z
" transform="scale(0.015625)"/>
       <path id="DejaVuSans-65" d="M 3597 1894 
L 3597 1613 
L 953 1613 
Q 991 1019 1311 708 
Q 1631 397 2203 397 
Q 2534 397 2845 478 
Q 3156 559 3463 722 
L 3463 178 
Q 3153 47 2828 -22 
Q 2503 -91 2169 -91 
Q 1331 -91 842 396 
Q 353 884 353 1716 
Q 353 2575 817 3079 
Q 1281 3584 2069 3584 
Q 2775 3584 3186 3129 
Q 3597 2675 3597 1894 
z
M 3022 2063 
Q 3016 2534 2758 2815 
Q 2500 3097 2075 3097 
Q 1594 3097 1305 2825 
Q 1016 2553 972 2059 
L 3022 2063 
z
" transform="scale(0.015625)"/>
       <path id="DejaVuSans-20" transform="scale(0.015625)"/>
       <path id="DejaVuSans-28" d="M 1984 4856 
Q 1566 4138 1362 3434 
Q 1159 2731 1159 2009 
Q 1159 1288 1364 580 
Q 1569 -128 1984 -844 
L 1484 -844 
Q 1016 -109 783 600 
Q 550 1309 550 2009 
Q 550 2706 781 3412 
Q 1013 4119 1484 4856 
L 1984 4856 
z
" transform="scale(0.015625)"/>
       <path id="DejaVuSans-73" d="M 2834 3397 
L 2834 2853 
Q 2591 2978 2328 3040 
Q 2066 3103 1784 3103 
Q 1356 3103 1142 2972 
Q 928 2841 928 2578 
Q 928 2378 1081 2264 
Q 1234 2150 1697 2047 
L 1894 2003 
Q 2506 1872 2764 1633 
Q 3022 1394 3022 966 
Q 3022 478 2636 193 
Q 2250 -91 1575 -91 
Q 1294 -91 989 -36 
Q 684 19 347 128 
L 347 722 
Q 666 556 975 473 
Q 1284 391 1588 391 
Q 1994 391 2212 530 
Q 2431 669 2431 922 
Q 2431 1156 2273 1281 
Q 2116 1406 1581 1522 
L 1381 1569 
Q 847 1681 609 1914 
Q 372 2147 372 2553 
Q 372 3047 722 3315 
Q 1072 3584 1716 3584 
Q 2034 3584 2315 3537 
Q 2597 3491 2834 3397 
z
" transform="scale(0.015625)"/>
       <path id="DejaVuSans-63" d="M 3122 3366 
L 3122 2828 
Q 2878 2963 2633 3030 
Q 2388 3097 2138 3097 
Q 1578 3097 1268 2742 
Q 959 2388 959 1747 
Q 959 1106 1268 751 
Q 1578 397 2138 397 
Q 2388 397 2633 464 
Q 2878 531 3122 666 
L 3122 134 
Q 2881 22 2623 -34 
Q 2366 -91 2075 -91 
Q 1284 -91 818 406 
Q 353 903 353 1747 
Q 353 2603 823 3093 
Q 1294 3584 2113 3584 
Q 2378 3584 2631 3529 
Q 2884 3475 3122 3366 
z
" transform="scale(0.015625)"/>
       <path id="DejaVuSans-29" d="M 513 4856 
L 1013 4856 
Q 1481 4119 1714 3412 
Q 1947 2706 1947 2009 
Q 1947 1309 1714 600 
Q 1481 -109 1013 -844 
L 513 -844 
Q 928 -128 1133 580 
Q 1338 1288 1338 2009 
Q 1338 2731 1133 3434 
Q 928 4138 513 4856 
z
" transform="scale(0.015625)"/>
      </defs>
      <use xlink:href="#DejaVuSans-54"/>
      <use xlink:href="#DejaVuSans-69" transform="translate(57.958984 0)"/>
      <use xlink:href="#DejaVuSans-6d" transform="translate(85.742188 0)"/>
      <use xlink:href="#DejaVuSans-65" transform="translate(183.154297 0)"/>
      <use xlink:href="#DejaVuSans-20" transform="translate(244.677734 0)"/>
      <use xlink:href="#DejaVuSans-28" transform="translate(276.464844 0)"/>
      <use xlink:href="#DejaVuSans-73" transform="translate(315.478516 0)"/>
      <use xlink:href="#DejaVuSans-65" transform="translate(367.578125 0)"/>
      <use xlink:href="#DejaVuSans-63" transform="translate(429.101562 0)"/>
      <use xlink:href="#DejaVuSans-29" transform="translate(484.082031 0)"/>
     </g>
    </g>
   </g>
   <g id="matplotlib.axis_2">
    <g id="ytick_1">
     <g id="line2d_7">
      <defs>
       <path id="m430763cbee" d="M 0 0 
L -3.5 0 
" style="stroke: #000000; stroke-width: 0.8"/>
      </defs>
      <g>
       <use xlink:href="#m430763cbee" x="47.72" y="159.56" style="stroke: #000000; stroke-width: 0.8"/>
      </g>
     </g>
     <g id="text_8">
      <!-- 0.0 -->
      <g transform="translate(24.816875 163.359219) scale(0.1 -0.1)">
       <use xlink:href="#DejaVuSans-30"/>
       <use xlink:href="#DejaVuSans-2e" transform="translate(63.623047 0)"/>
       <use xlink:href="#DejaVuSans-30" transform="translate(95.410156 0)"/>
      </g>
     </g>
    </g>
    <g id="ytick_2">
     <g id="line2d_8">
      <g>
       <use xlink:href="#m430763cbee" x="47.72" y="130.6" style="stroke: #000000; stroke-width: 0.8"/>
      </g>
     </g>
     <g id="text_9">
      <!-- 0.2 -->
      <g transform="translate(24.816875 134.399219) scale(0.1 -0.1)">
       <use xlink:href="#DejaVuSans-30"/>
       <use xlink:href="#DejaVuSans-2e" transform="translate(63.623047 0)"/>
       <use xlink:href="#DejaVuSans-32" transform="translate(95.410156 0)"/>
      </g>
     </g>
    </g>
    <g id="ytick_3">
     <g id="line2d_9">
      <g>
       <use xlink:href="#m430763cbee" x="47.72" y="101.64" style="stroke: #000000; stroke-width: 0.8"/>
      </g>
     </g>
     <g id="text_10">
      <!-- 0.4 -->
      <g transform="translate(24.816875 105.439219) scale(0.1 -0.1)">
       <use xlink:href="#DejaVuSans-30"/>
       <use xlink:href="#DejaVuSans-2e" transform="translate(63.623047 0)"/>
       <use xlink:href="#DejaVuSans-34" transform="translate(95.410156 0)"/>
      </g>
     </g>
    </g>
    <g id="ytick_4">
     <g id="line2d_10">
      <g>
       <use xlink:href="#m430763cbee" x="47.72" y="72.68" style="stroke: #000000; stroke-width: 0.8"/>
      </g>
     </g>
     <g id="text_11">
      <!-- 0.6 -->
      <g transform="translate(24.816875 76.479219) scale(0.1 -0.1)">
       <use xlink:href="#DejaVuSans-30"/>
       <use xlink:href="#DejaVuSans-2e" transform="translate(63.623047 0)"/>
       <use xlink:href="#DejaVuSans-36" transform="translate(95.410156 0)"/>
      </g>
     </g>
    </g>
    <g id="ytick_5">
     <g id="line2d_11">
      <g>
       <use xlink:href="#m430763cbee" x="47.72" y="43.72" style="stroke: #000000; stroke-width: 0.8"/>
      </g>
     </g>
     <g id="text_12">
      <!-- 0.8 -->
      <g transform="translate(24.816875 47.519219) scale(0.1 -0.1)">
       <use xlink:href="#DejaVuSans-30"/>
       <use xlink:href="#DejaVuSans-2e" transform="translate(63.623047 0)"/>
       <use xlink:href="#DejaVuSans-38" transform="translate(95.410156 0)"/>
      </g>
     </g>
    </g>
    <g id="ytick_6">
     <g id="line2d_12">
      <g>
       <use xlink:href="#m430763cbee" x="47.72" y="14.76" style="stroke: #000000; stroke-width: 0.8"/>
      </g>
     </g>
     <g id="text_13">
      <!-- 1.0 -->
      <g transform="translate(24.816875 18.559219) scale(0.1 -0.1)">
       <use xlink:href="#DejaVuSans-31"/>
       <use xlink:href="#DejaVuSans-2e" transform="translate(63.623047 0)"/>
       <use xlink:href="#DejaVuSans-30" transform="translate(95.410156 0)"/>
      </g>
     </g>
    </g>
    <g id="text_14">
     <!-- Injected Signal -->
     <g transform="translate(18.737188 131.417969) rotate(-90) scale(0.1 -0.1)">
      <defs>
       <path id="DejaVuSans-49" d="M 628 4666 
L 1259 4666 
L 1259 0 
L 628 0 
L 628 4666 
z
" transform="scale(0.015625)"/>
       <path id="DejaVuSans-6e" d="M 3513 2113 
L 3513 0 
L 2938 0 
L 2938 2094 
Q 2938 2591 2744 2837 
Q 2550 3084 2163 3084 
Q 1697 3084 1428 2787 
Q 1159 2491 1159 1978 
L 1159 0 
L 581 0 
L 581 3500 
L 1159 3500 
L 1159 2956 
Q 1366 3272 1645 3428 
Q 1925 3584 2291 3584 
Q 2894 3584 3203 3211 
Q 3513 2838 3513 2113 
z
" transform="scale(0.015625)"/>
       <path id="DejaVuSans-6a" d="M 603 3500 
L 1178 3500 
L 1178 -63 
Q 1178 -731 923 -1031 
Q 669 -1331 103 -1331 
L -116 -1331 
L -116 -844 
L 38 -844 
Q 366 -844 484 -692 
Q 603 -541 603 -63 
L 603 3500 
z
M 603 4863 
L 1178 4863 
L 1178 4134 
L 603 4134 
L 603 4863 
z
" transform="scale(0.015625)"/>
       <path id="DejaVuSans-74" d="M 1172 4494 
L 1172 3500 
L 2356 3500 
L 2356 3053 
L 1172 3053 
L 1172 1153 
Q 1172 725 1289 603 
Q 1406 481 1766 481 
L 2356 481 
L 2356 0 
L 1766 0 
Q 1100 0 847 248 
Q 594 497 594 1153 
L 594 3053 
L 172 3053 
L 172 3500 
L 594 3500 
L 594 4494 
L 1172 4494 
z
" transform="scale(0.015625)"/>
       <path id="DejaVuSans-64" d="M 2906 2969 
L 2906 4863 
L 3481 4863 
L 3481 0 
L 2906 0 
L 2906 525 
Q 2725 213 2448 61 
Q 2172 -91 1784 -91 
Q 1150 -91 751 415 
Q 353 922 353 1747 
Q 353 2572 751 3078 
Q 1150 3584 1784 3584 
Q 2172 3584 2448 3432 
Q 2725 3281 2906 2969 
z
M 947 1747 
Q 947 1113 1208 752 
Q 1469 391 1925 391 
Q 2381 391 2643 752 
Q 2906 1113 2906 1747 
Q 2906 2381 2643 2742 
Q 2381 3103 1925 3103 
Q 1469 3103 1208 2742 
Q 947 2381 947 1747 
z
" transform="scale(0.015625)"/>
       <path id="DejaVuSans-53" d="M 3425 4513 
L 3425 3897 
Q 3066 4069 2747 4153 
Q 2428 4238 2131 4238 
Q 1616 4238 1336 4038 
Q 1056 3838 1056 3469 
Q 1056 3159 1242 3001 
Q 1428 2844 1947 2747 
L 2328 2669 
Q 3034 2534 3370 2195 
Q 3706 1856 3706 1288 
Q 3706 609 3251 259 
Q 2797 -91 1919 -91 
Q 1588 -91 1214 -16 
Q 841 59 441 206 
L 441 856 
Q 825 641 1194 531 
Q 1563 422 1919 422 
Q 2459 422 2753 634 
Q 3047 847 3047 1241 
Q 3047 1584 2836 1778 
Q 2625 1972 2144 2069 
L 1759 2144 
Q 1053 2284 737 2584 
Q 422 2884 422 3419 
Q 422 4038 858 4394 
Q 1294 4750 2059 4750 
Q 2388 4750 2728 4690 
Q 3069 4631 3425 4513 
z
" transform="scale(0.015625)"/>
       <path id="DejaVuSans-67" d="M 2906 1791 
Q 2906 2416 2648 2759 
Q 2391 3103 1925 3103 
Q 1463 3103 1205 2759 
Q 947 2416 947 1791 
Q 947 1169 1205 825 
Q 1463 481 1925 481 
Q 2391 481 2648 825 
Q 2906 1169 2906 1791 
z
M 3481 434 
Q 3481 -459 3084 -895 
Q 2688 -1331 1869 -1331 
Q 1566 -1331 1297 -1286 
Q 1028 -1241 775 -1147 
L 775 -588 
Q 1028 -725 1275 -790 
Q 1522 -856 1778 -856 
Q 2344 -856 2625 -561 
Q 2906 -266 2906 331 
L 2906 616 
Q 2728 306 2450 153 
Q 2172 0 1784 0 
Q 1141 0 747 490 
Q 353 981 353 1791 
Q 353 2603 747 3093 
Q 1141 3584 1784 3584 
Q 2172 3584 2450 3431 
Q 2728 3278 2906 2969 
L 2906 3500 
L 3481 3500 
L 3481 434 
z
" transform="scale(0.015625)"/>
       <path id="DejaVuSans-61" d="M 2194 1759 
Q 1497 1759 1228 1600 
Q 959 1441 959 1056 
Q 959 750 1161 570 
Q 1363 391 1709 391 
Q 2188 391 2477 730 
Q 2766 1069 2766 1631 
L 2766 1759 
L 2194 1759 
z
M 3341 1997 
L 3341 0 
L 2766 0 
L 2766 531 
Q 2569 213 2275 61 
Q 1981 -91 1556 -91 
Q 1019 -91 701 211 
Q 384 513 384 1019 
Q 384 1609 779 1909 
Q 1175 2209 1959 2209 
L 2766 2209 
L 2766 2266 
Q 2766 2663 2505 2880 
Q 2244 3097 1772 3097 
Q 1472 3097 1187 3025 
Q 903 2953 641 2809 
L 641 3341 
Q 956 3463 1253 3523 
Q 1550 3584 1831 3584 
Q 2591 3584 2966 3190 
Q 3341 2797 3341 1997 
z
" transform="scale(0.015625)"/>
       <path id="DejaVuSans-6c" d="M 603 4863 
L 1178 4863 
L 1178 0 
L 603 0 
L 603 4863 
z
" transform="scale(0.015625)"/>
      </defs>
      <use xlink:href="#DejaVuSans-49"/>
      <use xlink:href="#DejaVuSans-6e" transform="translate(29.492188 0)"/>
      <use xlink:href="#DejaVuSans-6a" transform="translate(92.871094 0)"/>
      <use xlink:href="#DejaVuSans-65" transform="translate(120.654297 0)"/>
      <use xlink:href="#DejaVuSans-63" transform="translate(182.177734 0)"/>
      <use xlink:href="#DejaVuSans-74" transform="translate(237.158203 0)"/>
      <use xlink:href="#DejaVuSans-65" transform="translate(276.367188 0)"/>
      <use xlink:href="#DejaVuSans-64" transform="translate(337.890625 0)"/>
      <use xlink:href="#DejaVuSans-20" transform="translate(401.367188 0)"/>
      <use xlink:href="#DejaVuSans-53" transform="translate(433.154297 0)"/>
      <use xlink:href="#DejaVuSans-69" transform="translate(496.630859 0)"/>
      <use xlink:href="#DejaVuSans-67" transform="translate(524.414062 0)"/>
      <use xlink:href="#DejaVuSans-6e" transform="translate(587.890625 0)"/>
      <use xlink:href="#DejaVuSans-61" transform="translate(651.269531 0)"/>
      <use xlink:href="#DejaVuSans-6c" transform="translate(712.548828 0)"/>
     </g>
    </g>
   </g>
   <g id="line2d_13">
    <path d="M 61.423636 126.836176 
L 61.697709 57.559142 
L 61.971782 50.563555 
L 62.245855 72.510892 
L 62.519927 62.664409 
L 62.794 62.651349 
L 63.068073 116.070124 
L 63.342145 56.486119 
L 63.616218 128.394273 
L 63.890291 102.857802 
L 64.164364 105.03022 
L 64.438436 110.736545 
L 64.712509 57.125079 
L 64.986582 129.205252 
L 65.260655 66.008389 
L 65.534727 69.296374 
L 65.8088 75.126654 
L 66.082873 101.360851 
L 66.356945 97.315848 
L 66.631018 123.024175 
L 66.905091 84.032329 
L 67.179164 83.783585 
L 67.453236 90.444119 
L 67.727309 100.736854 
L 68.001382 122.300892 
L 68.275455 110.538741 
L 68.549527 50.718686 
L 68.8236 57.870103 
L 69.097673 98.853173 
L 69.371745 121.526663 
L 69.645818 46.291613 
L 69.919891 59.02906 
L 70.193964 115.924033 
L 70.468036 111.984553 
L 70.742109 84.745848 
L 71.016182 84.237025 
L 71.290255 74.83553 
L 71.564327 108.421281 
L 71.8384 69.565397 
L 72.386545 130.305737 
L 72.660618 123.540088 
L 72.934691 91.176435 
L 73.208764 113.796721 
L 73.482836 47.666702 
L 73.756909 45.548823 
L 74.030982 119.826567 
L 74.305055 111.210175 
L 74.8532 48.334322 
L 75.127273 91.34947 
L 75.401345 62.235374 
L 75.675418 108.09794 
L 75.949491 122.779511 
L 76.223564 86.129825 
L 76.497636 89.198643 
L 76.771709 128.35188 
L 77.045782 47.119029 
L 77.593927 92.793509 
L 77.868 76.461865 
L 78.142073 99.685626 
L 78.416145 92.386888 
L 78.690218 128.902339 
L 78.964291 49.706803 
L 79.238364 84.803499 
L 79.512436 61.227197 
L 79.786509 50.206996 
L 80.060582 125.800208 
L 80.334655 73.211618 
L 80.608727 98.619048 
L 80.8828 77.985201 
L 81.156873 118.030864 
L 81.430945 62.836554 
L 81.705018 101.150638 
L 81.979091 81.263854 
L 82.253164 89.856509 
L 82.527236 105.200291 
L 82.801309 112.751887 
L 83.075382 77.666187 
L 83.349455 102.509691 
L 83.623527 116.278803 
L 83.8976 89.801937 
L 84.171673 120.77385 
L 84.445745 74.538112 
L 84.719818 127.755557 
L 84.993891 88.25554 
L 85.267964 108.044626 
L 85.542036 112.356684 
L 85.816109 52.710474 
L 86.090182 65.227763 
L 86.364255 69.852821 
L 86.638327 120.60363 
L 86.9124 121.257149 
L 87.186473 79.973244 
L 87.460545 96.823915 
L 87.734618 58.297146 
L 88.008691 101.37123 
L 88.556836 48.91065 
L 89.104982 87.766603 
L 89.379055 97.755072 
L 89.653127 121.496153 
L 89.9272 103.198721 
L 90.201273 128.725517 
L 90.475345 70.30503 
L 90.749418 61.272682 
L 91.297564 117.168356 
L 91.845709 46.112957 
L 92.119782 123.392384 
L 92.393855 60.419668 
L 92.667927 89.646573 
L 92.942 78.785106 
L 93.216073 51.487392 
L 93.490145 69.232344 
L 93.764218 59.775759 
L 94.038291 118.606993 
L 94.312364 62.317039 
L 94.586436 117.893889 
L 94.860509 120.430199 
L 95.134582 85.326854 
L 95.408655 105.311497 
L 95.682727 100.577683 
L 95.9568 120.319074 
L 96.230873 89.615183 
L 96.504945 125.689516 
L 96.779018 57.637474 
L 97.053091 103.799928 
L 97.327164 119.786966 
L 97.601236 60.325795 
L 97.875309 90.558557 
L 98.149382 96.809438 
L 98.697527 51.924046 
L 98.9716 88.896647 
L 99.245673 72.639864 
L 99.519745 98.36813 
L 99.793818 55.243407 
L 100.067891 105.61877 
L 100.341964 70.454395 
L 100.616036 50.409566 
L 100.890109 47.788409 
L 101.438255 124.77263 
L 101.712327 82.876159 
L 101.9864 90.436362 
L 102.260473 123.857109 
L 102.534545 120.540766 
L 102.808618 127.849892 
L 103.082691 116.685475 
L 103.356764 70.440078 
L 103.630836 98.050865 
L 103.904909 77.734837 
L 104.178982 101.748833 
L 104.453055 53.724778 
L 104.727127 44.848982 
L 105.0012 118.438835 
L 105.275273 121.909301 
L 105.549345 110.812894 
L 105.823418 119.170072 
L 106.097491 99.91922 
L 106.371564 124.017959 
L 106.645636 58.30852 
L 106.919709 118.669045 
L 107.193782 127.465857 
L 107.467855 121.97096 
L 108.016 56.178463 
L 108.290073 83.317388 
L 108.564145 84.47827 
L 109.112291 57.964974 
L 109.386364 107.337038 
L 109.660436 63.715343 
L 109.934509 72.32543 
L 110.208582 53.356006 
L 110.482655 92.743972 
L 110.756727 90.257395 
L 111.0308 79.798023 
L 111.304873 88.157782 
L 111.578945 129.995853 
L 111.853018 108.875778 
L 112.127091 67.48513 
L 112.401164 80.043476 
L 112.675236 129.090747 
L 112.949309 62.219227 
L 113.223382 126.278269 
L 113.771527 57.815659 
L 114.0456 70.195225 
L 114.319673 44.171925 
L 114.593745 92.384857 
L 114.867818 85.567624 
L 115.141891 64.707955 
L 115.690036 96.473487 
L 115.964109 104.157575 
L 116.512255 125.974894 
L 116.786327 49.347063 
L 117.334473 94.3483 
L 117.608545 92.573633 
L 117.882618 119.086809 
L 118.156691 77.753979 
L 118.430764 55.080111 
L 118.704836 67.130566 
L 118.978909 50.076489 
L 119.252982 58.286172 
L 119.527055 115.463049 
L 119.801127 85.89362 
L 120.0752 78.519472 
L 120.349273 46.232387 
L 120.623345 112.735161 
L 120.897418 93.396654 
L 121.171491 91.189951 
L 121.445564 116.779447 
L 121.719636 61.154728 
L 121.993709 119.816496 
L 122.267782 53.178799 
L 122.541855 49.87465 
L 122.815927 87.079518 
L 123.09 65.281596 
L 123.364073 123.435728 
L 123.638145 76.529473 
L 123.912218 84.570001 
L 124.186291 86.365895 
L 124.460364 104.674393 
L 124.734436 86.030497 
L 125.008509 85.332058 
L 125.282582 82.2991 
L 125.556655 87.07279 
L 125.830727 125.60927 
L 126.1048 85.96489 
L 126.378873 116.809537 
L 126.652945 109.50377 
L 126.927018 122.207972 
L 127.201091 87.012033 
L 127.749236 127.799633 
L 128.297382 64.274627 
L 128.571455 65.462685 
L 128.845527 120.371037 
L 129.1196 59.484669 
L 129.393673 63.444213 
L 129.667745 46.395037 
L 129.941818 66.630683 
L 130.215891 113.914592 
L 130.489964 52.5936 
L 131.038109 67.61949 
L 131.312182 99.492279 
L 131.586255 44.85432 
L 131.860327 122.769879 
L 132.1344 101.819407 
L 132.408473 101.048042 
L 132.682545 56.039343 
L 132.956618 63.393567 
L 133.230691 54.012579 
L 133.504764 51.471964 
L 133.778836 62.871631 
L 134.052909 60.217663 
L 134.601055 104.496212 
L 134.875127 88.120011 
L 135.1492 100.771921 
L 135.423273 107.015503 
L 135.697345 88.491064 
L 135.971418 88.021499 
L 136.245491 57.202526 
L 136.519564 44.877556 
L 137.067709 96.364408 
L 137.341782 88.049842 
L 137.615855 62.618331 
L 137.889927 53.099929 
L 138.164 50.435418 
L 138.438073 104.453938 
L 138.712145 103.087961 
L 138.986218 69.280357 
L 139.260291 114.735971 
L 139.534364 119.035153 
L 140.082509 114.382014 
L 140.356582 80.359993 
L 140.630655 76.064307 
L 140.904727 90.741978 
L 141.1788 75.03973 
L 141.452873 119.930312 
L 142.001018 65.505998 
L 142.275091 59.348582 
L 142.549164 50.234223 
L 142.823236 67.900386 
L 143.097309 128.691164 
L 143.371382 90.22551 
L 143.645455 69.22984 
L 143.919527 108.693909 
L 144.1936 115.464098 
L 144.467673 86.204461 
L 144.741745 102.274518 
L 145.015818 105.898547 
L 145.289891 118.878377 
L 145.563964 95.084387 
L 145.838036 105.3602 
L 146.112109 101.968342 
L 146.386182 77.846144 
L 146.660255 114.68061 
L 146.934327 57.882372 
L 147.2084 45.688466 
L 147.482473 45.661879 
L 147.756545 48.532318 
L 148.030618 120.375361 
L 148.304691 61.30954 
L 148.578764 117.389741 
L 148.852836 98.139063 
L 149.400982 111.841858 
L 149.675055 67.835415 
L 149.949127 61.380021 
L 150.497273 116.67537 
L 150.771345 94.210003 
L 151.045418 50.591844 
L 151.319491 83.99955 
L 151.593564 63.232584 
L 151.867636 110.089797 
L 152.141709 58.340102 
L 152.415782 126.662414 
L 152.689855 119.350878 
L 152.963927 68.959458 
L 153.238 111.530341 
L 153.512073 68.778738 
L 153.786145 53.514646 
L 154.060218 111.980908 
L 154.334291 77.276688 
L 154.608364 73.483686 
L 154.882436 100.98377 
L 155.156509 106.339168 
L 155.430582 98.791505 
L 155.704655 47.272536 
L 155.978727 125.529538 
L 156.2528 84.31027 
L 156.526873 86.521216 
L 156.800945 111.345153 
L 157.075018 68.171845 
L 157.349091 99.873753 
L 157.623164 49.248079 
L 157.897236 69.020357 
L 158.171309 122.389223 
L 158.445382 60.570695 
L 158.993527 119.77602 
L 159.2676 58.032946 
L 159.541673 65.265092 
L 159.815745 87.489176 
L 160.089818 94.142036 
L 160.363891 108.999821 
L 160.637964 65.986266 
L 160.912036 44.550076 
L 161.186109 102.961517 
L 161.460182 122.787545 
L 161.734255 99.736933 
L 162.008327 60.116134 
L 162.2824 87.25912 
L 162.556473 85.170275 
L 162.830545 129.842352 
L 163.104618 76.732464 
L 163.378691 118.816631 
L 163.652764 113.761478 
L 163.926836 80.533753 
L 164.200909 93.56652 
L 164.474982 129.783625 
L 164.749055 120.569729 
L 165.023127 116.792094 
L 165.2972 48.135469 
L 165.571273 76.994986 
L 165.845345 65.346871 
L 166.119418 70.311976 
L 166.393491 128.574923 
L 166.667564 105.338344 
L 166.941636 123.263813 
L 167.215709 108.364348 
L 167.489782 74.322749 
L 167.763855 101.449365 
L 168.037927 84.679539 
L 168.312 103.006663 
L 168.586073 96.440596 
L 168.860145 49.736169 
L 169.134218 119.617937 
L 169.408291 49.082335 
L 169.682364 91.420062 
L 170.230509 49.956824 
L 170.504582 90.624445 
L 170.778655 78.848944 
L 171.052727 80.164569 
L 171.3268 126.401199 
L 171.600873 50.015317 
L 171.874945 44.042499 
L 172.149018 93.755881 
L 172.423091 111.754356 
L 172.697164 109.070273 
L 172.971236 87.424386 
L 173.245309 92.362889 
L 173.519382 73.040903 
L 173.793455 88.185493 
L 174.067527 84.23259 
L 174.3416 44.41994 
L 174.615673 82.80716 
L 174.889745 86.974226 
L 175.163818 67.209739 
L 175.437891 84.412068 
L 175.711964 89.501926 
L 175.986036 66.356464 
L 176.260109 60.775518 
L 176.534182 126.165984 
L 176.808255 103.739792 
L 177.082327 50.76091 
L 177.3564 127.411518 
L 177.630473 73.999457 
L 177.904545 81.263798 
L 178.178618 62.867566 
L 178.452691 123.210843 
L 178.726764 90.633287 
L 179.000836 116.665515 
L 179.274909 113.187271 
L 179.548982 78.898156 
L 179.823055 112.792523 
L 180.097127 79.211883 
L 180.3712 104.536735 
L 180.645273 94.006962 
L 180.919345 121.01987 
L 181.193418 75.076065 
L 181.467491 63.907944 
L 182.015636 123.847495 
L 182.289709 67.153783 
L 182.563782 53.353239 
L 183.111927 120.325019 
L 183.386 126.679802 
L 183.660073 123.683777 
L 183.934145 56.180549 
L 184.208218 81.396137 
L 184.482291 84.140355 
L 184.756364 108.062296 
L 185.030436 105.73156 
L 185.304509 63.121387 
L 185.578582 107.053909 
L 185.852655 56.724664 
L 186.126727 68.93597 
L 186.4008 55.90705 
L 186.674873 110.225109 
L 186.948945 87.750677 
L 187.771164 126.438103 
L 188.045236 111.68015 
L 188.319309 112.413438 
L 188.593382 77.596031 
L 188.867455 66.275992 
L 189.141527 49.099919 
L 189.4156 75.148307 
L 189.689673 124.567831 
L 189.963745 129.547973 
L 190.237818 49.491198 
L 190.511891 84.227277 
L 190.785964 47.462269 
L 191.060036 87.806442 
L 191.334109 86.033306 
L 191.608182 129.679776 
L 191.882255 130.452314 
L 192.156327 65.39085 
L 192.4304 111.167093 
L 192.704473 71.28659 
L 192.978545 92.359283 
L 193.252618 80.026435 
L 193.526691 128.216981 
L 193.800764 68.097041 
L 194.074836 124.240304 
L 194.348909 129.309893 
L 194.622982 49.335136 
L 194.897055 74.227459 
L 195.171127 128.59236 
L 195.719273 88.595834 
L 195.993345 117.412986 
L 196.267418 49.875573 
L 196.541491 55.109919 
L 196.815564 114.091657 
L 197.089636 92.083122 
L 197.637782 121.258184 
L 197.911855 59.487748 
L 198.46 108.703445 
L 198.734073 86.235108 
L 199.008145 96.884118 
L 199.282218 94.672309 
L 199.556291 116.035487 
L 199.830364 67.36188 
L 200.104436 102.879834 
L 200.378509 83.277442 
L 200.652582 113.73154 
L 200.926655 80.045157 
L 201.200727 69.933739 
L 201.4748 74.830198 
L 201.748873 58.055574 
L 202.022945 102.681673 
L 202.297018 112.040765 
L 202.571091 75.277644 
L 203.119236 100.789176 
L 203.393309 60.073279 
L 203.667382 125.321324 
L 203.941455 48.912929 
L 204.215527 86.031271 
L 204.4896 59.163449 
L 204.763673 121.830281 
L 205.037745 62.127673 
L 205.311818 118.130883 
L 205.585891 128.96245 
L 205.859964 74.724992 
L 206.134036 113.922753 
L 206.682182 74.410416 
L 206.956255 71.74135 
L 207.230327 92.316592 
L 207.5044 124.767135 
L 207.778473 127.855135 
L 208.052545 79.68711 
L 208.326618 55.166809 
L 208.600691 57.771568 
L 208.874764 50.238758 
L 209.148836 62.038447 
L 209.422909 111.571347 
L 209.696982 87.618396 
L 209.971055 49.880176 
L 210.245127 109.727668 
L 210.5192 92.945141 
L 210.793273 128.726901 
L 211.067345 59.451442 
L 211.341418 51.660777 
L 211.615491 98.606876 
L 211.889564 59.268646 
L 212.163636 96.575742 
L 212.437709 93.978194 
L 212.711782 104.56827 
L 212.985855 128.767118 
L 213.259927 49.639372 
L 213.534 87.061265 
L 213.808073 59.188307 
L 214.082145 104.884378 
L 214.356218 99.823075 
L 214.630291 44.276165 
L 215.178436 108.612896 
L 215.452509 76.499796 
L 215.726582 127.728346 
L 216.000655 92.151713 
L 216.274727 112.209816 
L 216.5488 67.08613 
L 216.822873 82.004071 
L 217.096945 47.054236 
L 217.371018 48.145982 
L 217.645091 53.981791 
L 217.919164 81.018413 
L 218.193236 86.582084 
L 218.467309 101.672454 
L 218.741382 61.846031 
L 219.015455 119.917472 
L 219.289527 55.310609 
L 219.5636 121.844447 
L 219.837673 85.838898 
L 220.111745 129.595925 
L 220.385818 66.367506 
L 220.659891 123.407758 
L 220.933964 114.246879 
L 221.208036 128.751064 
L 221.482109 69.038171 
L 221.756182 108.048347 
L 222.030255 90.983126 
L 222.304327 88.889895 
L 222.5784 92.740464 
L 222.852473 100.380049 
L 223.126545 129.987498 
L 223.400618 102.812435 
L 223.674691 91.170532 
L 223.948764 55.694962 
L 224.222836 103.074904 
L 224.496909 77.25271 
L 224.770982 105.22588 
L 225.045055 63.550813 
L 225.319127 98.384811 
L 225.5932 99.541521 
L 225.867273 129.051295 
L 226.141345 51.283042 
L 226.415418 61.555811 
L 226.689491 92.174809 
L 226.963564 89.342959 
L 227.237636 56.552339 
L 227.511709 50.283108 
L 227.785782 105.492319 
L 228.059855 61.034045 
L 228.608 120.32596 
L 228.882073 44.952408 
L 229.156145 70.748609 
L 229.430218 58.058109 
L 229.704291 76.976479 
L 229.978364 57.182588 
L 230.252436 78.958684 
L 230.526509 110.407502 
L 230.800582 101.029385 
L 231.074655 85.608524 
L 231.348727 99.882398 
L 231.6228 122.789233 
L 231.896873 76.01895 
L 232.170945 75.650707 
L 232.445018 80.607007 
L 232.719091 55.746935 
L 232.993164 124.085389 
L 233.267236 121.461923 
L 233.541309 88.780809 
L 233.815382 114.019172 
L 234.089455 89.355636 
L 234.363527 86.974015 
L 234.6376 56.155802 
L 234.911673 70.34645 
L 235.185745 68.059416 
L 235.459818 109.919245 
L 235.733891 50.470427 
L 236.282036 77.542266 
L 236.556109 127.757079 
L 236.830182 56.490883 
L 237.104255 99.292587 
L 237.378327 108.84306 
L 237.6524 69.637338 
L 237.926473 114.881689 
L 238.200545 94.1743 
L 238.474618 114.360635 
L 238.748691 125.650956 
L 239.022764 73.609907 
L 239.296836 54.057718 
L 239.570909 106.590336 
L 239.844982 89.249867 
L 240.119055 63.200961 
L 240.393127 77.845483 
L 240.6672 72.411342 
L 240.941273 87.03839 
L 241.215345 52.323295 
L 242.037564 109.220935 
L 242.585709 78.466408 
L 242.859782 92.676139 
L 243.133855 99.891697 
L 243.407927 118.473621 
L 243.682 63.970961 
L 243.956073 71.223129 
L 244.230145 111.814804 
L 244.504218 55.91699 
L 244.778291 116.29986 
L 245.052364 82.084356 
L 245.326436 130.234329 
L 245.600509 91.060447 
L 245.874582 97.680695 
L 246.148655 83.535708 
L 246.422727 82.98945 
L 246.6968 48.529543 
L 246.970873 64.669459 
L 247.244945 71.303123 
L 247.519018 87.733757 
L 247.793091 55.976513 
L 248.067164 82.075963 
L 248.341236 83.995402 
L 248.615309 79.945512 
L 248.889382 81.561205 
L 249.163455 99.2669 
L 249.437527 55.127412 
L 249.7116 73.962457 
L 249.985673 61.820998 
L 250.259745 101.846273 
L 250.533818 80.031623 
L 250.807891 80.333117 
L 251.081964 116.662106 
L 251.356036 60.781826 
L 251.630109 46.28628 
L 251.904182 105.093889 
L 252.178255 72.341508 
L 252.452327 80.922858 
L 252.7264 104.243567 
L 253.000473 93.287596 
L 253.274545 96.983051 
L 253.548618 49.578331 
L 253.822691 73.397967 
L 254.096764 72.65525 
L 254.370836 71.461925 
L 254.644909 104.854888 
L 254.918982 113.439747 
L 255.193055 129.460877 
L 255.467127 94.165554 
L 255.7412 98.648122 
L 256.015273 65.203497 
L 256.289345 76.783926 
L 256.563418 107.313471 
L 256.837491 118.663585 
L 257.111564 71.860113 
L 257.385636 71.721127 
L 257.659709 106.902214 
L 257.933782 69.612119 
L 258.207855 102.122193 
L 258.481927 71.093171 
L 258.756 129.136588 
L 259.030073 127.313596 
L 259.304145 70.305204 
L 259.852291 119.561923 
L 260.126364 75.514104 
L 260.400436 120.222633 
L 260.674509 127.184689 
L 260.948582 120.796383 
L 261.222655 108.578342 
L 261.496727 80.580588 
L 261.7708 113.958045 
L 262.044873 118.089788 
L 262.318945 96.018752 
L 262.867091 112.741149 
L 263.141164 114.351552 
L 263.415236 50.114238 
L 263.689309 104.709342 
L 263.963382 83.070013 
L 264.237455 112.279608 
L 264.511527 64.443463 
L 264.7856 59.502115 
L 265.059673 92.765812 
L 265.607818 105.759683 
L 265.881891 70.534461 
L 266.155964 101.429854 
L 266.430036 44.096341 
L 266.704109 130.184835 
L 266.978182 57.070662 
L 267.252255 124.120121 
L 267.526327 84.264626 
L 267.8004 127.152614 
L 268.074473 111.487227 
L 268.348545 120.601094 
L 268.622618 52.062186 
L 268.896691 62.520492 
L 269.170764 101.861584 
L 269.444836 105.99138 
L 269.718909 124.124546 
L 269.992982 59.048841 
L 270.541127 127.404943 
L 270.8152 96.760007 
L 271.089273 110.327787 
L 271.363345 110.546166 
L 271.637418 50.699869 
L 271.911491 65.556189 
L 272.185564 124.446286 
L 272.459636 87.735994 
L 272.733709 118.684465 
L 273.007782 61.848341 
L 273.555927 50.687437 
L 273.83 85.923542 
L 274.104073 84.843756 
L 274.378145 67.23309 
L 274.652218 123.137084 
L 274.926291 67.150688 
L 275.200364 109.512973 
L 275.474436 117.486088 
L 275.748509 54.741298 
L 276.022582 96.556972 
L 276.296655 55.904678 
L 276.570727 70.443844 
L 277.118873 117.022689 
L 277.667018 59.150681 
L 277.941091 70.402588 
L 278.215164 75.435753 
L 278.489236 124.998359 
L 278.763309 68.673913 
L 279.037382 51.314201 
L 279.311455 90.422922 
L 279.585527 45.472175 
L 279.8596 60.489466 
L 280.133673 91.838985 
L 280.407745 78.249052 
L 280.681818 81.632296 
L 280.955891 107.201518 
L 281.229964 103.87148 
L 281.504036 86.920342 
L 281.778109 122.226817 
L 282.052182 69.699743 
L 282.326255 79.495655 
L 282.600327 75.46003 
L 282.8744 58.463396 
L 283.148473 104.942016 
L 283.696618 69.3846 
L 283.970691 59.729306 
L 284.244764 89.333538 
L 284.518836 70.666328 
L 284.792909 73.861128 
L 285.066982 100.799669 
L 285.341055 68.59148 
L 285.615127 113.272703 
L 285.8892 79.727736 
L 286.163273 72.067198 
L 286.437345 44.278491 
L 286.711418 109.092906 
L 286.985491 115.639801 
L 287.259564 44.254001 
L 287.533636 102.415472 
L 287.807709 59.372091 
L 288.081782 74.004688 
L 288.355855 121.925346 
L 288.629927 61.450859 
L 288.904 44.608143 
L 289.178073 87.721212 
L 289.452145 100.877664 
L 289.726218 46.598328 
L 290.000291 67.999871 
L 290.274364 113.722541 
L 290.822509 55.681678 
L 291.096582 76.977158 
L 291.370655 123.285837 
L 291.644727 92.916644 
L 291.9188 121.402659 
L 292.192873 67.041047 
L 292.466945 124.120996 
L 292.741018 108.662798 
L 293.015091 99.79505 
L 293.289164 58.647475 
L 293.563236 101.939032 
L 294.111382 50.752922 
L 294.385455 61.457013 
L 294.659527 121.244155 
L 294.9336 75.287923 
L 295.207673 96.19886 
L 295.481745 56.433686 
L 295.755818 69.705765 
L 296.029891 114.97112 
L 296.303964 51.260475 
L 296.578036 66.813112 
L 296.852109 107.732147 
L 297.126182 84.95658 
L 297.400255 85.416573 
L 297.674327 86.225521 
L 297.9484 122.619136 
L 298.222473 115.637612 
L 298.496545 63.481364 
L 298.770618 100.14643 
L 299.044691 57.18817 
L 299.318764 122.784824 
L 299.592836 105.765364 
L 299.866909 115.85318 
L 300.140982 116.695203 
L 300.9632 67.680721 
L 301.237273 80.717004 
L 301.511345 78.463752 
L 301.785418 108.742696 
L 302.059491 121.966003 
L 302.333564 110.725263 
L 302.607636 130.215131 
L 302.881709 57.756619 
L 303.155782 79.962398 
L 303.429855 65.495554 
L 303.703927 111.929036 
L 303.978 126.569639 
L 304.252073 63.421988 
L 304.526145 59.238136 
L 304.800218 70.172684 
L 305.074291 53.246661 
L 305.348364 60.619632 
L 305.622436 129.577613 
L 305.896509 124.76698 
L 306.170582 61.556016 
L 306.444655 54.134635 
L 306.718727 66.857515 
L 307.266873 47.547577 
L 307.540945 67.187939 
L 307.815018 115.232392 
L 308.089091 122.663124 
L 308.363164 76.332888 
L 308.637236 76.472711 
L 308.911309 56.368215 
L 309.733527 99.513139 
L 310.0076 105.577961 
L 310.281673 54.164108 
L 310.555745 88.125587 
L 310.829818 69.786356 
L 311.103891 112.83529 
L 311.652036 66.854173 
L 311.926109 118.011283 
L 312.200182 81.143096 
L 312.474255 112.498752 
L 312.748327 72.433764 
L 313.0224 96.37726 
L 313.296473 62.811485 
L 313.570545 51.952782 
L 313.844618 87.260138 
L 314.118691 100.072073 
L 314.392764 59.45838 
L 314.666836 125.306256 
L 314.940909 115.261179 
L 315.214982 50.563745 
L 315.489055 62.610725 
L 315.763127 83.611749 
L 316.0372 82.665302 
L 316.585345 116.288548 
L 316.859418 46.763707 
L 317.133491 124.253283 
L 317.407564 123.939347 
L 317.681636 73.734454 
L 317.955709 124.21552 
L 318.229782 106.834332 
L 318.503855 99.106189 
L 318.777927 46.006966 
L 319.052 117.278432 
L 319.326073 50.407261 
L 319.600145 71.846366 
L 319.874218 83.081292 
L 320.148291 106.797272 
L 320.422364 111.536874 
L 320.696436 54.10699 
L 321.244582 105.995365 
L 321.518655 88.303264 
L 321.792727 81.539616 
L 322.0668 47.279528 
L 322.340873 52.345836 
L 322.614945 120.032344 
L 322.889018 80.149994 
L 323.163091 102.824423 
L 323.711236 51.806859 
L 323.985309 105.635637 
L 324.259382 108.537514 
L 324.533455 44.058981 
L 324.807527 50.854525 
L 325.0816 78.628074 
L 325.355673 69.677448 
L 325.629745 45.114291 
L 325.903818 126.045708 
L 326.177891 57.288536 
L 326.451964 110.123042 
L 326.726036 59.032295 
L 327.000109 79.363414 
L 327.274182 84.773458 
L 327.548255 81.651234 
L 327.822327 125.876408 
L 328.0964 84.350965 
L 328.370473 86.715258 
L 328.644545 54.228327 
L 328.918618 68.282699 
L 329.192691 60.971896 
L 329.466764 86.758809 
L 329.740836 45.608788 
L 330.014909 109.888001 
L 330.288982 58.763777 
L 330.563055 88.799399 
L 330.837127 44.042319 
L 331.1112 99.066238 
L 331.385273 55.296608 
L 331.659345 54.096912 
L 331.933418 72.48051 
L 332.207491 45.865568 
L 332.481564 126.624219 
L 332.755636 72.692653 
L 333.029709 120.470894 
L 333.303782 67.520371 
L 333.577855 100.572226 
L 334.126 129.946982 
L 334.400073 85.688509 
L 334.674145 82.136359 
L 335.222291 120.050111 
L 335.222291 120.050111 
" clip-path="url(#p89ea81a70e)" style="fill: none; stroke: #1f77b4; stroke-width: 1.5; stroke-linecap: square"/>
   </g>
   <g id="line2d_14">
    <path d="M 61.423636 87.16 
L 335.496364 87.16 
" clip-path="url(#p89ea81a70e)" style="fill: none; stroke-dasharray: 7.4,3.2; stroke-dashoffset: 0; stroke: #ff0000; stroke-width: 2"/>
   </g>
   <g id="line2d_15">
    <path d="M 192.978545 87.16 
L 203.941455 87.16 
" clip-path="url(#p89ea81a70e)" style="fill: none; stroke: #000000; stroke-width: 2; stroke-linecap: square"/>
   </g>
   <g id="line2d_16">
    <path d="M 192.978545 43.72 
L 203.941455 43.72 
" clip-path="url(#p89ea81a70e)" style="fill: none; stroke: #000000; stroke-width: 2; stroke-linecap: square"/>
   </g>
   <g id="line2d_17">
    <path d="M 198.46 87.16 
L 198.46 43.72 
" clip-path="url(#p89ea81a70e)" style="fill: none; stroke: #000000; stroke-width: 2; stroke-linecap: square"/>
   </g>
   <g id="line2d_18">
    <path d="M 192.978545 159.56 
L 203.941455 159.56 
" clip-path="url(#p89ea81a70e)" style="fill: none; stroke: #000000; stroke-width: 2; stroke-linecap: square"/>
   </g>
   <g id="line2d_19">
    <path d="M 198.46 159.56 
L 198.46 87.16 
" clip-path="url(#p89ea81a70e)" style="fill: none; stroke: #000000; stroke-width: 2; stroke-linecap: square"/>
   </g>
   <g id="patch_3">
    <path d="M 47.72 174.04 
L 47.72 14.76 
" style="fill: none; stroke: #000000; stroke-width: 0.8; stroke-linejoin: miter; stroke-linecap: square"/>
   </g>
   <g id="patch_4">
    <path d="M 349.2 174.04 
L 349.2 14.76 
" style="fill: none; stroke: #000000; stroke-width: 0.8; stroke-linejoin: miter; stroke-linecap: square"/>
   </g>
   <g id="patch_5">
    <path d="M 47.72 174.04 
L 349.2 174.04 
" style="fill: none; stroke: #000000; stroke-width: 0.8; stroke-linejoin: miter; stroke-linecap: square"/>
   </g>
   <g id="patch_6">
    <path d="M 47.72 14.76 
L 349.2 14.76 
" style="fill: none; stroke: #000000; stroke-width: 0.8; stroke-linejoin: miter; stroke-linecap: square"/>
   </g>
   <g id="text_15">
    <g id="patch_7">
     <path d="M 205.422909 71.519688 
L 235.015097 71.519688 
L 235.015097 53.841563 
L 205.422909 53.841563 
z
" style="fill: #ffffff; opacity: 0.8; stroke: #000000; stroke-linejoin: miter"/>
    </g>
    <!-- gain -->
    <g transform="translate(209.422909 65.44) scale(0.1 -0.1)">
     <use xlink:href="#DejaVuSans-67"/>
     <use xlink:href="#DejaVuSans-61" transform="translate(63.476562 0)"/>
     <use xlink:href="#DejaVuSans-69" transform="translate(124.755859 0)"/>
     <use xlink:href="#DejaVuSans-6e" transform="translate(152.539062 0)"/>
    </g>
   </g>
   <g id="text_16">
    <g id="patch_8">
     <path d="M 205.422909 129.439688 
L 241.865097 129.439688 
L 241.865097 111.761563 
L 205.422909 111.761563 
z
" style="fill: #ffffff; opacity: 0.8; stroke: #000000; stroke-linejoin: miter"/>
    </g>
    <!-- offset -->
    <g transform="translate(209.422909 123.36) scale(0.1 -0.1)">
     <defs>
      <path id="DejaVuSans-6f" d="M 1959 3097 
Q 1497 3097 1228 2736 
Q 959 2375 959 1747 
Q 959 1119 1226 758 
Q 1494 397 1959 397 
Q 2419 397 2687 759 
Q 2956 1122 2956 1747 
Q 2956 2369 2687 2733 
Q 2419 3097 1959 3097 
z
M 1959 3584 
Q 2709 3584 3137 3096 
Q 3566 2609 3566 1747 
Q 3566 888 3137 398 
Q 2709 -91 1959 -91 
Q 1206 -91 779 398 
Q 353 888 353 1747 
Q 353 2609 779 3096 
Q 1206 3584 1959 3584 
z
" transform="scale(0.015625)"/>
      <path id="DejaVuSans-66" d="M 2375 4863 
L 2375 4384 
L 1825 4384 
Q 1516 4384 1395 4259 
Q 1275 4134 1275 3809 
L 1275 3500 
L 2222 3500 
L 2222 3053 
L 1275 3053 
L 1275 0 
L 697 0 
L 697 3053 
L 147 3053 
L 147 3500 
L 697 3500 
L 697 3744 
Q 697 4328 969 4595 
Q 1241 4863 1831 4863 
L 2375 4863 
z
" transform="scale(0.015625)"/>
     </defs>
     <use xlink:href="#DejaVuSans-6f"/>
     <use xlink:href="#DejaVuSans-66" transform="translate(61.181641 0)"/>
     <use xlink:href="#DejaVuSans-66" transform="translate(96.386719 0)"/>
     <use xlink:href="#DejaVuSans-73" transform="translate(131.591797 0)"/>
     <use xlink:href="#DejaVuSans-65" transform="translate(183.691406 0)"/>
     <use xlink:href="#DejaVuSans-74" transform="translate(245.214844 0)"/>
    </g>
   </g>
  </g>
 </g>
 <defs>
  <clipPath id="p89ea81a70e">
   <rect x="47.72" y="14.76" width="301.48" height="159.28"/>
  </clipPath>
 </defs>
</svg>
