<?xml version="1.0" encoding="utf-8" standalone="no"?>
<!DOCTYPE svg PUBLIC "-//W3C//DTD SVG 1.1//EN"
  "http://www.w3.org/Graphics/SVG/1.1/DTD/svg11.dtd">
<svg xmlns:xlink="http://www.w3.org/1999/xlink" width="360pt" height="216pt" viewBox="0 0 360 216" xmlns="http://www.w3.org/2000/svg" version="1.1">
 <metadata>
  <rdf:RDF xmlns:dc="http://purl.org/dc/elements/1.1/" xmlns:cc="http://creativecommons.org/ns#" xmlns:rdf="http://www.w3.org/1999/02/22-rdf-syntax-ns#">
   <cc:Work>
    <dc:type rdf:resource="http://purl.org/dc/dcmitype/StillImage"/>
    <dc:date>2025-04-08T20:40:31.856940</dc:date>
    <dc:format>image/svg+xml</dc:format>
    <dc:creator>
     <cc:Agent>
      <dc:title>Matplotlib v3.10.1, https://matplotlib.org/</dc:title>
     </cc:Agent>
    </dc:creator>
   </cc:Work>
  </rdf:RDF>
 </metadata>
 <defs>
  <style type="text/css">*{stroke-linejoin: round; stroke-linecap: butt}</style>
 </defs>
 <g id="figure_1">
  <g id="patch_1">
   <path d="M 0 216 
L 360 216 
L 360 0 
L 0 0 
z
" style="fill: #ffffff"/>
  </g>
  <g id="axes_1">
   <g id="patch_2">
    <path d="M 47.72 174.04 
L 349.2 174.04 
L 349.2 14.76 
L 47.72 14.76 
z
" style="fill: #ffffff"/>
   </g>
   <g id="matplotlib.axis_1">
    <g id="xtick_1">
     <g id="line2d_1">
      <defs>
       <path id="m4eda53b83f" d="M 0 0 
L 0 3.5 
" style="stroke: #000000; stroke-width: 0.8"/>
      </defs>
      <g>
       <use xlink:href="#m4eda53b83f" x="61.423636" y="174.04" style="stroke: #000000; stroke-width: 0.8"/>
      </g>
     </g>
     <g id="text_1">
      <!-- 0.0 -->
      <g transform="translate(53.472074 188.638438) scale(0.1 -0.1)">
       <defs>
        <path id="DejaVuSans-30" d="M 2034 4250 
Q 1547 4250 1301 3770 
Q 1056 3291 1056 2328 
Q 1056 1369 1301 889 
Q 1547 409 2034 409 
Q 2525 409 2770 889 
Q 3016 1369 3016 2328 
Q 3016 3291 2770 3770 
Q 2525 4250 2034 4250 
z
M 2034 4750 
Q 2819 4750 3233 4129 
Q 3647 3509 3647 2328 
Q 3647 1150 3233 529 
Q 2819 -91 2034 -91 
Q 1250 -91 836 529 
Q 422 1150 422 2328 
Q 422 3509 836 4129 
Q 1250 4750 2034 4750 
z
" transform="scale(0.015625)"/>
        <path id="DejaVuSans-2e" d="M 684 794 
L 1344 794 
L 1344 0 
L 684 0 
L 684 794 
z
" transform="scale(0.015625)"/>
       </defs>
       <use xlink:href="#DejaVuSans-30"/>
       <use xlink:href="#DejaVuSans-2e" transform="translate(63.623047 0)"/>
       <use xlink:href="#DejaVuSans-30" transform="translate(95.410156 0)"/>
      </g>
     </g>
    </g>
    <g id="xtick_2">
     <g id="line2d_2">
      <g>
       <use xlink:href="#m4eda53b83f" x="116.238182" y="174.04" style="stroke: #000000; stroke-width: 0.8"/>
      </g>
     </g>
     <g id="text_2">
      <!-- 0.2 -->
      <g transform="translate(108.286619 188.638438) scale(0.1 -0.1)">
       <defs>
        <path id="DejaVuSans-32" d="M 1228 531 
L 3431 531 
L 3431 0 
L 469 0 
L 469 531 
Q 828 903 1448 1529 
Q 2069 2156 2228 2338 
Q 2531 2678 2651 2914 
Q 2772 3150 2772 3378 
Q 2772 3750 2511 3984 
Q 2250 4219 1831 4219 
Q 1534 4219 1204 4116 
Q 875 4013 500 3803 
L 500 4441 
Q 881 4594 1212 4672 
Q 1544 4750 1819 4750 
Q 2544 4750 2975 4387 
Q 3406 4025 3406 3419 
Q 3406 3131 3298 2873 
Q 3191 2616 2906 2266 
Q 2828 2175 2409 1742 
Q 1991 1309 1228 531 
z
" transform="scale(0.015625)"/>
       </defs>
       <use xlink:href="#DejaVuSans-30"/>
       <use xlink:href="#DejaVuSans-2e" transform="translate(63.623047 0)"/>
       <use xlink:href="#DejaVuSans-32" transform="translate(95.410156 0)"/>
      </g>
     </g>
    </g>
    <g id="xtick_3">
     <g id="line2d_3">
      <g>
       <use xlink:href="#m4eda53b83f" x="171.052727" y="174.04" style="stroke: #000000; stroke-width: 0.8"/>
      </g>
     </g>
     <g id="text_3">
      <!-- 0.4 -->
      <g transform="translate(163.101165 188.638438) scale(0.1 -0.1)">
       <defs>
        <path id="DejaVuSans-34" d="M 2419 4116 
L 825 1625 
L 2419 1625 
L 2419 4116 
z
M 2253 4666 
L 3047 4666 
L 3047 1625 
L 3713 1625 
L 3713 1100 
L 3047 1100 
L 3047 0 
L 2419 0 
L 2419 1100 
L 313 1100 
L 313 1709 
L 2253 4666 
z
" transform="scale(0.015625)"/>
       </defs>
       <use xlink:href="#DejaVuSans-30"/>
       <use xlink:href="#DejaVuSans-2e" transform="translate(63.623047 0)"/>
       <use xlink:href="#DejaVuSans-34" transform="translate(95.410156 0)"/>
      </g>
     </g>
    </g>
    <g id="xtick_4">
     <g id="line2d_4">
      <g>
       <use xlink:href="#m4eda53b83f" x="225.867273" y="174.04" style="stroke: #000000; stroke-width: 0.8"/>
      </g>
     </g>
     <g id="text_4">
      <!-- 0.6 -->
      <g transform="translate(217.91571 188.638438) scale(0.1 -0.1)">
       <defs>
        <path id="DejaVuSans-36" d="M 2113 2584 
Q 1688 2584 1439 2293 
Q 1191 2003 1191 1497 
Q 1191 994 1439 701 
Q 1688 409 2113 409 
Q 2538 409 2786 701 
Q 3034 994 3034 1497 
Q 3034 2003 2786 2293 
Q 2538 2584 2113 2584 
z
M 3366 4563 
L 3366 3988 
Q 3128 4100 2886 4159 
Q 2644 4219 2406 4219 
Q 1781 4219 1451 3797 
Q 1122 3375 1075 2522 
Q 1259 2794 1537 2939 
Q 1816 3084 2150 3084 
Q 2853 3084 3261 2657 
Q 3669 2231 3669 1497 
Q 3669 778 3244 343 
Q 2819 -91 2113 -91 
Q 1303 -91 875 529 
Q 447 1150 447 2328 
Q 447 3434 972 4092 
Q 1497 4750 2381 4750 
Q 2619 4750 2861 4703 
Q 3103 4656 3366 4563 
z
" transform="scale(0.015625)"/>
       </defs>
       <use xlink:href="#DejaVuSans-30"/>
       <use xlink:href="#DejaVuSans-2e" transform="translate(63.623047 0)"/>
       <use xlink:href="#DejaVuSans-36" transform="translate(95.410156 0)"/>
      </g>
     </g>
    </g>
    <g id="xtick_5">
     <g id="line2d_5">
      <g>
       <use xlink:href="#m4eda53b83f" x="280.681818" y="174.04" style="stroke: #000000; stroke-width: 0.8"/>
      </g>
     </g>
     <g id="text_5">
      <!-- 0.8 -->
      <g transform="translate(272.730256 188.638438) scale(0.1 -0.1)">
       <defs>
        <path id="DejaVuSans-38" d="M 2034 2216 
Q 1584 2216 1326 1975 
Q 1069 1734 1069 1313 
Q 1069 891 1326 650 
Q 1584 409 2034 409 
Q 2484 409 2743 651 
Q 3003 894 3003 1313 
Q 3003 1734 2745 1975 
Q 2488 2216 2034 2216 
z
M 1403 2484 
Q 997 2584 770 2862 
Q 544 3141 544 3541 
Q 544 4100 942 4425 
Q 1341 4750 2034 4750 
Q 2731 4750 3128 4425 
Q 3525 4100 3525 3541 
Q 3525 3141 3298 2862 
Q 3072 2584 2669 2484 
Q 3125 2378 3379 2068 
Q 3634 1759 3634 1313 
Q 3634 634 3220 271 
Q 2806 -91 2034 -91 
Q 1263 -91 848 271 
Q 434 634 434 1313 
Q 434 1759 690 2068 
Q 947 2378 1403 2484 
z
M 1172 3481 
Q 1172 3119 1398 2916 
Q 1625 2713 2034 2713 
Q 2441 2713 2670 2916 
Q 2900 3119 2900 3481 
Q 2900 3844 2670 4047 
Q 2441 4250 2034 4250 
Q 1625 4250 1398 4047 
Q 1172 3844 1172 3481 
z
" transform="scale(0.015625)"/>
       </defs>
       <use xlink:href="#DejaVuSans-30"/>
       <use xlink:href="#DejaVuSans-2e" transform="translate(63.623047 0)"/>
       <use xlink:href="#DejaVuSans-38" transform="translate(95.410156 0)"/>
      </g>
     </g>
    </g>
    <g id="xtick_6">
     <g id="line2d_6">
      <g>
       <use xlink:href="#m4eda53b83f" x="335.496364" y="174.04" style="stroke: #000000; stroke-width: 0.8"/>
      </g>
     </g>
     <g id="text_6">
      <!-- 1.0 -->
      <g transform="translate(327.544801 188.638438) scale(0.1 -0.1)">
       <defs>
        <path id="DejaVuSans-31" d="M 794 531 
L 1825 531 
L 1825 4091 
L 703 3866 
L 703 4441 
L 1819 4666 
L 2450 4666 
L 2450 531 
L 3481 531 
L 3481 0 
L 794 0 
L 794 531 
z
" transform="scale(0.015625)"/>
       </defs>
       <use xlink:href="#DejaVuSans-31"/>
       <use xlink:href="#DejaVuSans-2e" transform="translate(63.623047 0)"/>
       <use xlink:href="#DejaVuSans-30" transform="translate(95.410156 0)"/>
      </g>
     </g>
    </g>
    <g id="text_7">
     <!-- Time (sec) -->
     <g transform="translate(172.305312 202.316563) scale(0.1 -0.1)">
      <defs>
       <path id="DejaVuSans-54" d="M -19 4666 
L 3928 4666 
L 3928 4134 
L 2272 4134 
L 2272 0 
L 1638 0 
L 1638 4134 
L -19 4134 
L -19 4666 
z
" transform="scale(0.015625)"/>
       <path id="DejaVuSans-69" d="M 603 3500 
L 1178 3500 
L 1178 0 
L 603 0 
L 603 3500 
z
M 603 4863 
L 1178 4863 
L 1178 4134 
L 603 4134 
L 603 4863 
z
" transform="scale(0.015625)"/>
       <path id="DejaVuSans-6d" d="M 3328 2828 
Q 3544 3216 3844 3400 
Q 4144 3584 4550 3584 
Q 5097 3584 5394 3201 
Q 5691 2819 5691 2113 
L 5691 0 
L 5113 0 
L 5113 2094 
Q 5113 2597 4934 2840 
Q 4756 3084 4391 3084 
Q 3944 3084 3684 2787 
Q 3425 2491 3425 1978 
L 3425 0 
L 2847 0 
L 2847 2094 
Q 2847 2600 2669 2842 
Q 2491 3084 2119 3084 
Q 1678 3084 1418 2786 
Q 1159 2488 1159 1978 
L 1159 0 
L 581 0 
L 581 3500 
L 1159 3500 
L 1159 2956 
Q 1356 3278 1631 3431 
Q 1906 3584 2284 3584 
Q 2666 3584 2933 3390 
Q 3200 3197 3328 2828 
z
" transform="scale(0.015625)"/>
       <path id="DejaVuSans-65" d="M 3597 1894 
L 3597 1613 
L 953 1613 
Q 991 1019 1311 708 
Q 1631 397 2203 397 
Q 2534 397 2845 478 
Q 3156 559 3463 722 
L 3463 178 
Q 3153 47 2828 -22 
Q 2503 -91 2169 -91 
Q 1331 -91 842 396 
Q 353 884 353 1716 
Q 353 2575 817 3079 
Q 1281 3584 2069 3584 
Q 2775 3584 3186 3129 
Q 3597 2675 3597 1894 
z
M 3022 2063 
Q 3016 2534 2758 2815 
Q 2500 3097 2075 3097 
Q 1594 3097 1305 2825 
Q 1016 2553 972 2059 
L 3022 2063 
z
" transform="scale(0.015625)"/>
       <path id="DejaVuSans-20" transform="scale(0.015625)"/>
       <path id="DejaVuSans-28" d="M 1984 4856 
Q 1566 4138 1362 3434 
Q 1159 2731 1159 2009 
Q 1159 1288 1364 580 
Q 1569 -128 1984 -844 
L 1484 -844 
Q 1016 -109 783 600 
Q 550 1309 550 2009 
Q 550 2706 781 3412 
Q 1013 4119 1484 4856 
L 1984 4856 
z
" transform="scale(0.015625)"/>
       <path id="DejaVuSans-73" d="M 2834 3397 
L 2834 2853 
Q 2591 2978 2328 3040 
Q 2066 3103 1784 3103 
Q 1356 3103 1142 2972 
Q 928 2841 928 2578 
Q 928 2378 1081 2264 
Q 1234 2150 1697 2047 
L 1894 2003 
Q 2506 1872 2764 1633 
Q 3022 1394 3022 966 
Q 3022 478 2636 193 
Q 2250 -91 1575 -91 
Q 1294 -91 989 -36 
Q 684 19 347 128 
L 347 722 
Q 666 556 975 473 
Q 1284 391 1588 391 
Q 1994 391 2212 530 
Q 2431 669 2431 922 
Q 2431 1156 2273 1281 
Q 2116 1406 1581 1522 
L 1381 1569 
Q 847 1681 609 1914 
Q 372 2147 372 2553 
Q 372 3047 722 3315 
Q 1072 3584 1716 3584 
Q 2034 3584 2315 3537 
Q 2597 3491 2834 3397 
z
" transform="scale(0.015625)"/>
       <path id="DejaVuSans-63" d="M 3122 3366 
L 3122 2828 
Q 2878 2963 2633 3030 
Q 2388 3097 2138 3097 
Q 1578 3097 1268 2742 
Q 959 2388 959 1747 
Q 959 1106 1268 751 
Q 1578 397 2138 397 
Q 2388 397 2633 464 
Q 2878 531 3122 666 
L 3122 134 
Q 2881 22 2623 -34 
Q 2366 -91 2075 -91 
Q 1284 -91 818 406 
Q 353 903 353 1747 
Q 353 2603 823 3093 
Q 1294 3584 2113 3584 
Q 2378 3584 2631 3529 
Q 2884 3475 3122 3366 
z
" transform="scale(0.015625)"/>
       <path id="DejaVuSans-29" d="M 513 4856 
L 1013 4856 
Q 1481 4119 1714 3412 
Q 1947 2706 1947 2009 
Q 1947 1309 1714 600 
Q 1481 -109 1013 -844 
L 513 -844 
Q 928 -128 1133 580 
Q 1338 1288 1338 2009 
Q 1338 2731 1133 3434 
Q 928 4138 513 4856 
z
" transform="scale(0.015625)"/>
      </defs>
      <use xlink:href="#DejaVuSans-54"/>
      <use xlink:href="#DejaVuSans-69" transform="translate(57.958984 0)"/>
      <use xlink:href="#DejaVuSans-6d" transform="translate(85.742188 0)"/>
      <use xlink:href="#DejaVuSans-65" transform="translate(183.154297 0)"/>
      <use xlink:href="#DejaVuSans-20" transform="translate(244.677734 0)"/>
      <use xlink:href="#DejaVuSans-28" transform="translate(276.464844 0)"/>
      <use xlink:href="#DejaVuSans-73" transform="translate(315.478516 0)"/>
      <use xlink:href="#DejaVuSans-65" transform="translate(367.578125 0)"/>
      <use xlink:href="#DejaVuSans-63" transform="translate(429.101562 0)"/>
      <use xlink:href="#DejaVuSans-29" transform="translate(484.082031 0)"/>
     </g>
    </g>
   </g>
   <g id="matplotlib.axis_2">
    <g id="ytick_1">
     <g id="line2d_7">
      <defs>
       <path id="m712f5a39ed" d="M 0 0 
L -3.5 0 
" style="stroke: #000000; stroke-width: 0.8"/>
      </defs>
      <g>
       <use xlink:href="#m712f5a39ed" x="47.72" y="159.56" style="stroke: #000000; stroke-width: 0.8"/>
      </g>
     </g>
     <g id="text_8">
      <!-- 0.0 -->
      <g transform="translate(24.816875 163.359219) scale(0.1 -0.1)">
       <use xlink:href="#DejaVuSans-30"/>
       <use xlink:href="#DejaVuSans-2e" transform="translate(63.623047 0)"/>
       <use xlink:href="#DejaVuSans-30" transform="translate(95.410156 0)"/>
      </g>
     </g>
    </g>
    <g id="ytick_2">
     <g id="line2d_8">
      <g>
       <use xlink:href="#m712f5a39ed" x="47.72" y="130.6" style="stroke: #000000; stroke-width: 0.8"/>
      </g>
     </g>
     <g id="text_9">
      <!-- 0.2 -->
      <g transform="translate(24.816875 134.399219) scale(0.1 -0.1)">
       <use xlink:href="#DejaVuSans-30"/>
       <use xlink:href="#DejaVuSans-2e" transform="translate(63.623047 0)"/>
       <use xlink:href="#DejaVuSans-32" transform="translate(95.410156 0)"/>
      </g>
     </g>
    </g>
    <g id="ytick_3">
     <g id="line2d_9">
      <g>
       <use xlink:href="#m712f5a39ed" x="47.72" y="101.64" style="stroke: #000000; stroke-width: 0.8"/>
      </g>
     </g>
     <g id="text_10">
      <!-- 0.4 -->
      <g transform="translate(24.816875 105.439219) scale(0.1 -0.1)">
       <use xlink:href="#DejaVuSans-30"/>
       <use xlink:href="#DejaVuSans-2e" transform="translate(63.623047 0)"/>
       <use xlink:href="#DejaVuSans-34" transform="translate(95.410156 0)"/>
      </g>
     </g>
    </g>
    <g id="ytick_4">
     <g id="line2d_10">
      <g>
       <use xlink:href="#m712f5a39ed" x="47.72" y="72.68" style="stroke: #000000; stroke-width: 0.8"/>
      </g>
     </g>
     <g id="text_11">
      <!-- 0.6 -->
      <g transform="translate(24.816875 76.479219) scale(0.1 -0.1)">
       <use xlink:href="#DejaVuSans-30"/>
       <use xlink:href="#DejaVuSans-2e" transform="translate(63.623047 0)"/>
       <use xlink:href="#DejaVuSans-36" transform="translate(95.410156 0)"/>
      </g>
     </g>
    </g>
    <g id="ytick_5">
     <g id="line2d_11">
      <g>
       <use xlink:href="#m712f5a39ed" x="47.72" y="43.72" style="stroke: #000000; stroke-width: 0.8"/>
      </g>
     </g>
     <g id="text_12">
      <!-- 0.8 -->
      <g transform="translate(24.816875 47.519219) scale(0.1 -0.1)">
       <use xlink:href="#DejaVuSans-30"/>
       <use xlink:href="#DejaVuSans-2e" transform="translate(63.623047 0)"/>
       <use xlink:href="#DejaVuSans-38" transform="translate(95.410156 0)"/>
      </g>
     </g>
    </g>
    <g id="ytick_6">
     <g id="line2d_12">
      <g>
       <use xlink:href="#m712f5a39ed" x="47.72" y="14.76" style="stroke: #000000; stroke-width: 0.8"/>
      </g>
     </g>
     <g id="text_13">
      <!-- 1.0 -->
      <g transform="translate(24.816875 18.559219) scale(0.1 -0.1)">
       <use xlink:href="#DejaVuSans-31"/>
       <use xlink:href="#DejaVuSans-2e" transform="translate(63.623047 0)"/>
       <use xlink:href="#DejaVuSans-30" transform="translate(95.410156 0)"/>
      </g>
     </g>
    </g>
    <g id="text_14">
     <!-- Injected Signal -->
     <g transform="translate(18.737188 131.417969) rotate(-90) scale(0.1 -0.1)">
      <defs>
       <path id="DejaVuSans-49" d="M 628 4666 
L 1259 4666 
L 1259 0 
L 628 0 
L 628 4666 
z
" transform="scale(0.015625)"/>
       <path id="DejaVuSans-6e" d="M 3513 2113 
L 3513 0 
L 2938 0 
L 2938 2094 
Q 2938 2591 2744 2837 
Q 2550 3084 2163 3084 
Q 1697 3084 1428 2787 
Q 1159 2491 1159 1978 
L 1159 0 
L 581 0 
L 581 3500 
L 1159 3500 
L 1159 2956 
Q 1366 3272 1645 3428 
Q 1925 3584 2291 3584 
Q 2894 3584 3203 3211 
Q 3513 2838 3513 2113 
z
" transform="scale(0.015625)"/>
       <path id="DejaVuSans-6a" d="M 603 3500 
L 1178 3500 
L 1178 -63 
Q 1178 -731 923 -1031 
Q 669 -1331 103 -1331 
L -116 -1331 
L -116 -844 
L 38 -844 
Q 366 -844 484 -692 
Q 603 -541 603 -63 
L 603 3500 
z
M 603 4863 
L 1178 4863 
L 1178 4134 
L 603 4134 
L 603 4863 
z
" transform="scale(0.015625)"/>
       <path id="DejaVuSans-74" d="M 1172 4494 
L 1172 3500 
L 2356 3500 
L 2356 3053 
L 1172 3053 
L 1172 1153 
Q 1172 725 1289 603 
Q 1406 481 1766 481 
L 2356 481 
L 2356 0 
L 1766 0 
Q 1100 0 847 248 
Q 594 497 594 1153 
L 594 3053 
L 172 3053 
L 172 3500 
L 594 3500 
L 594 4494 
L 1172 4494 
z
" transform="scale(0.015625)"/>
       <path id="DejaVuSans-64" d="M 2906 2969 
L 2906 4863 
L 3481 4863 
L 3481 0 
L 2906 0 
L 2906 525 
Q 2725 213 2448 61 
Q 2172 -91 1784 -91 
Q 1150 -91 751 415 
Q 353 922 353 1747 
Q 353 2572 751 3078 
Q 1150 3584 1784 3584 
Q 2172 3584 2448 3432 
Q 2725 3281 2906 2969 
z
M 947 1747 
Q 947 1113 1208 752 
Q 1469 391 1925 391 
Q 2381 391 2643 752 
Q 2906 1113 2906 1747 
Q 2906 2381 2643 2742 
Q 2381 3103 1925 3103 
Q 1469 3103 1208 2742 
Q 947 2381 947 1747 
z
" transform="scale(0.015625)"/>
       <path id="DejaVuSans-53" d="M 3425 4513 
L 3425 3897 
Q 3066 4069 2747 4153 
Q 2428 4238 2131 4238 
Q 1616 4238 1336 4038 
Q 1056 3838 1056 3469 
Q 1056 3159 1242 3001 
Q 1428 2844 1947 2747 
L 2328 2669 
Q 3034 2534 3370 2195 
Q 3706 1856 3706 1288 
Q 3706 609 3251 259 
Q 2797 -91 1919 -91 
Q 1588 -91 1214 -16 
Q 841 59 441 206 
L 441 856 
Q 825 641 1194 531 
Q 1563 422 1919 422 
Q 2459 422 2753 634 
Q 3047 847 3047 1241 
Q 3047 1584 2836 1778 
Q 2625 1972 2144 2069 
L 1759 2144 
Q 1053 2284 737 2584 
Q 422 2884 422 3419 
Q 422 4038 858 4394 
Q 1294 4750 2059 4750 
Q 2388 4750 2728 4690 
Q 3069 4631 3425 4513 
z
" transform="scale(0.015625)"/>
       <path id="DejaVuSans-67" d="M 2906 1791 
Q 2906 2416 2648 2759 
Q 2391 3103 1925 3103 
Q 1463 3103 1205 2759 
Q 947 2416 947 1791 
Q 947 1169 1205 825 
Q 1463 481 1925 481 
Q 2391 481 2648 825 
Q 2906 1169 2906 1791 
z
M 3481 434 
Q 3481 -459 3084 -895 
Q 2688 -1331 1869 -1331 
Q 1566 -1331 1297 -1286 
Q 1028 -1241 775 -1147 
L 775 -588 
Q 1028 -725 1275 -790 
Q 1522 -856 1778 -856 
Q 2344 -856 2625 -561 
Q 2906 -266 2906 331 
L 2906 616 
Q 2728 306 2450 153 
Q 2172 0 1784 0 
Q 1141 0 747 490 
Q 353 981 353 1791 
Q 353 2603 747 3093 
Q 1141 3584 1784 3584 
Q 2172 3584 2450 3431 
Q 2728 3278 2906 2969 
L 2906 3500 
L 3481 3500 
L 3481 434 
z
" transform="scale(0.015625)"/>
       <path id="DejaVuSans-61" d="M 2194 1759 
Q 1497 1759 1228 1600 
Q 959 1441 959 1056 
Q 959 750 1161 570 
Q 1363 391 1709 391 
Q 2188 391 2477 730 
Q 2766 1069 2766 1631 
L 2766 1759 
L 2194 1759 
z
M 3341 1997 
L 3341 0 
L 2766 0 
L 2766 531 
Q 2569 213 2275 61 
Q 1981 -91 1556 -91 
Q 1019 -91 701 211 
Q 384 513 384 1019 
Q 384 1609 779 1909 
Q 1175 2209 1959 2209 
L 2766 2209 
L 2766 2266 
Q 2766 2663 2505 2880 
Q 2244 3097 1772 3097 
Q 1472 3097 1187 3025 
Q 903 2953 641 2809 
L 641 3341 
Q 956 3463 1253 3523 
Q 1550 3584 1831 3584 
Q 2591 3584 2966 3190 
Q 3341 2797 3341 1997 
z
" transform="scale(0.015625)"/>
       <path id="DejaVuSans-6c" d="M 603 4863 
L 1178 4863 
L 1178 0 
L 603 0 
L 603 4863 
z
" transform="scale(0.015625)"/>
      </defs>
      <use xlink:href="#DejaVuSans-49"/>
      <use xlink:href="#DejaVuSans-6e" transform="translate(29.492188 0)"/>
      <use xlink:href="#DejaVuSans-6a" transform="translate(92.871094 0)"/>
      <use xlink:href="#DejaVuSans-65" transform="translate(120.654297 0)"/>
      <use xlink:href="#DejaVuSans-63" transform="translate(182.177734 0)"/>
      <use xlink:href="#DejaVuSans-74" transform="translate(237.158203 0)"/>
      <use xlink:href="#DejaVuSans-65" transform="translate(276.367188 0)"/>
      <use xlink:href="#DejaVuSans-64" transform="translate(337.890625 0)"/>
      <use xlink:href="#DejaVuSans-20" transform="translate(401.367188 0)"/>
      <use xlink:href="#DejaVuSans-53" transform="translate(433.154297 0)"/>
      <use xlink:href="#DejaVuSans-69" transform="translate(496.630859 0)"/>
      <use xlink:href="#DejaVuSans-67" transform="translate(524.414062 0)"/>
      <use xlink:href="#DejaVuSans-6e" transform="translate(587.890625 0)"/>
      <use xlink:href="#DejaVuSans-61" transform="translate(651.269531 0)"/>
      <use xlink:href="#DejaVuSans-6c" transform="translate(712.548828 0)"/>
     </g>
    </g>
   </g>
   <g id="line2d_13">
    <path d="M 61.423636 71.864223 
L 61.697709 66.155553 
L 61.971782 100.077128 
L 62.245855 59.054123 
L 62.519927 96.920481 
L 62.794 88.009335 
L 63.068073 123.577461 
L 63.342145 61.018835 
L 63.890291 112.537187 
L 64.164364 90.845962 
L 64.438436 98.778205 
L 64.712509 102.58203 
L 64.986582 68.260302 
L 65.260655 128.639497 
L 65.534727 72.045748 
L 65.8088 92.192641 
L 66.082873 44.175163 
L 66.356945 82.655584 
L 66.631018 51.49282 
L 66.905091 93.192853 
L 67.179164 71.660154 
L 67.727309 53.931593 
L 68.001382 110.998232 
L 68.275455 44.634904 
L 68.549527 71.80484 
L 68.8236 121.266956 
L 69.097673 103.820511 
L 69.371745 63.725793 
L 69.645818 67.339863 
L 69.919891 95.468164 
L 70.468036 56.532262 
L 70.742109 69.188048 
L 71.016182 68.273651 
L 71.290255 44.077815 
L 71.564327 124.3459 
L 71.8384 61.024727 
L 72.112473 67.594378 
L 72.386545 120.517928 
L 72.660618 125.996038 
L 72.934691 112.878691 
L 73.208764 76.873089 
L 73.482836 92.514527 
L 73.756909 115.276477 
L 74.030982 78.452804 
L 74.305055 99.761877 
L 74.579127 66.226137 
L 74.8532 57.276003 
L 75.401345 97.158822 
L 75.675418 54.725354 
L 75.949491 70.464113 
L 76.223564 107.572311 
L 76.497636 102.451727 
L 76.771709 54.84031 
L 77.045782 129.178255 
L 77.319855 108.284814 
L 77.593927 73.320713 
L 77.868 80.876823 
L 78.142073 45.914517 
L 78.416145 126.891248 
L 78.690218 62.790538 
L 78.964291 85.90549 
L 79.238364 74.5097 
L 79.512436 45.467434 
L 79.786509 81.660314 
L 80.060582 89.744592 
L 80.334655 88.893409 
L 80.608727 86.023774 
L 80.8828 70.541032 
L 81.156873 121.318846 
L 81.430945 73.992644 
L 81.705018 127.849188 
L 81.979091 44.175 
L 82.253164 79.978484 
L 82.527236 66.097238 
L 82.801309 96.963221 
L 83.075382 88.847682 
L 83.349455 92.569426 
L 83.623527 123.255711 
L 83.8976 96.627632 
L 84.171673 89.958091 
L 84.445745 124.22077 
L 84.719818 107.577614 
L 84.993891 119.693143 
L 85.267964 118.583046 
L 85.542036 119.456301 
L 85.816109 80.661567 
L 86.090182 91.524627 
L 86.364255 79.298471 
L 86.638327 115.467431 
L 86.9124 116.351751 
L 87.734618 65.045371 
L 88.282764 125.272065 
L 88.556836 122.346842 
L 88.830909 86.783859 
L 89.104982 122.886738 
L 89.379055 76.260321 
L 89.653127 67.677267 
L 89.9272 89.403725 
L 90.201273 86.973694 
L 90.475345 101.268651 
L 90.749418 81.434758 
L 91.023491 74.594569 
L 91.297564 87.99062 
L 91.571636 88.201715 
L 92.119782 117.095341 
L 92.393855 53.544046 
L 92.667927 114.42014 
L 92.942 57.602023 
L 93.216073 113.238 
L 93.490145 89.001269 
L 93.764218 93.801274 
L 94.038291 66.74108 
L 94.312364 77.001412 
L 94.586436 98.479454 
L 94.860509 78.33433 
L 95.408655 119.09451 
L 95.682727 65.345282 
L 95.9568 89.516624 
L 96.230873 59.063459 
L 96.504945 61.579037 
L 96.779018 117.792708 
L 97.053091 105.686342 
L 97.327164 127.120791 
L 97.601236 105.009404 
L 97.875309 67.038974 
L 98.149382 88.510629 
L 98.423455 88.333496 
L 98.697527 122.811526 
L 98.9716 78.657892 
L 99.519745 125.435429 
L 99.793818 73.320924 
L 100.067891 98.134006 
L 100.341964 81.672501 
L 100.616036 121.928631 
L 100.890109 103.224207 
L 101.438255 127.738168 
L 101.9864 54.474057 
L 102.260473 121.355094 
L 102.808618 50.893271 
L 103.082691 58.563492 
L 103.356764 51.978481 
L 103.630836 60.179944 
L 103.904909 45.171343 
L 104.178982 56.726875 
L 104.453055 99.424757 
L 104.727127 121.855261 
L 105.0012 44.896306 
L 105.275273 55.43592 
L 105.549345 52.922239 
L 105.823418 59.150026 
L 106.097491 107.633967 
L 106.371564 129.063039 
L 106.645636 79.355937 
L 106.919709 60.53798 
L 107.193782 50.333644 
L 107.467855 101.255355 
L 107.741927 86.167541 
L 108.016 116.980566 
L 108.290073 120.536629 
L 108.564145 61.974294 
L 108.838218 91.061957 
L 109.112291 85.115618 
L 109.386364 105.681484 
L 109.660436 89.905742 
L 109.934509 84.629967 
L 110.208582 84.865074 
L 110.756727 99.583777 
L 111.0308 73.745098 
L 111.304873 76.967172 
L 111.578945 102.723651 
L 111.853018 107.956934 
L 112.127091 126.792155 
L 112.401164 93.629482 
L 112.675236 46.689345 
L 112.949309 105.21603 
L 113.223382 52.423001 
L 113.497455 59.026214 
L 113.771527 61.545726 
L 114.0456 119.566235 
L 114.319673 120.244834 
L 114.593745 63.137553 
L 114.867818 51.22025 
L 115.141891 47.105943 
L 115.415964 45.541863 
L 115.690036 130.345128 
L 115.964109 51.307488 
L 116.238182 110.916269 
L 116.512255 45.105418 
L 116.786327 97.012912 
L 117.0604 92.991653 
L 117.334473 118.234397 
L 117.608545 71.271135 
L 117.882618 57.040934 
L 118.156691 74.446666 
L 118.430764 121.740677 
L 118.704836 105.497219 
L 118.978909 64.199856 
L 119.252982 66.490698 
L 119.527055 50.675631 
L 119.801127 55.84894 
L 120.0752 107.200584 
L 120.349273 122.089414 
L 120.623345 81.087616 
L 120.897418 110.932667 
L 121.171491 86.35594 
L 121.445564 117.395218 
L 121.719636 64.604657 
L 121.993709 114.619196 
L 122.267782 82.029108 
L 122.541855 62.883841 
L 122.815927 94.609297 
L 123.09 88.63801 
L 123.364073 65.50249 
L 123.638145 101.386173 
L 123.912218 98.705113 
L 124.186291 80.132451 
L 124.460364 77.947806 
L 124.734436 97.257593 
L 125.008509 53.783571 
L 125.282582 109.520084 
L 125.556655 90.244976 
L 125.830727 118.173254 
L 126.1048 87.57427 
L 126.378873 116.203534 
L 126.927018 54.626233 
L 127.201091 60.327005 
L 127.475164 73.959278 
L 127.749236 124.060808 
L 128.023309 119.924978 
L 128.297382 121.443001 
L 128.571455 56.970643 
L 128.845527 61.348664 
L 129.1196 58.052115 
L 129.393673 84.250877 
L 129.667745 47.599877 
L 129.941818 70.44562 
L 130.215891 72.594859 
L 130.489964 63.71741 
L 130.764036 58.448856 
L 131.312182 117.632476 
L 131.586255 94.821508 
L 131.860327 95.411225 
L 132.1344 82.987962 
L 132.408473 56.461058 
L 132.682545 99.983814 
L 132.956618 56.190525 
L 133.230691 64.086756 
L 133.504764 76.968426 
L 133.778836 97.522844 
L 134.052909 52.835825 
L 134.326982 103.666207 
L 134.601055 108.190935 
L 134.875127 86.791298 
L 135.1492 106.883036 
L 135.423273 98.885652 
L 135.697345 79.22386 
L 135.971418 92.377073 
L 136.245491 119.788915 
L 136.519564 84.506854 
L 136.793636 100.990293 
L 137.615855 47.121047 
L 137.889927 127.423512 
L 138.438073 54.820852 
L 138.712145 59.602513 
L 138.986218 110.491841 
L 139.260291 116.71879 
L 139.534364 44.356224 
L 139.808436 61.747507 
L 140.082509 127.585164 
L 140.356582 101.15147 
L 140.630655 124.681394 
L 140.904727 51.741327 
L 141.1788 116.327707 
L 141.452873 122.458956 
L 141.726945 54.691516 
L 142.001018 113.003742 
L 142.275091 84.58934 
L 142.549164 105.613623 
L 142.823236 99.385633 
L 143.097309 117.698023 
L 143.371382 105.805659 
L 143.645455 80.172697 
L 143.919527 71.853549 
L 144.1936 125.576763 
L 144.467673 79.202087 
L 144.741745 114.622289 
L 145.289891 51.483564 
L 145.563964 68.187819 
L 145.838036 115.99856 
L 146.112109 123.148278 
L 146.386182 80.924854 
L 146.660255 119.212284 
L 146.934327 54.959406 
L 147.2084 104.458689 
L 147.482473 50.789875 
L 147.756545 60.893934 
L 148.304691 114.591688 
L 148.578764 128.573457 
L 148.852836 103.303259 
L 149.126909 60.756945 
L 149.400982 95.520964 
L 149.675055 72.195098 
L 149.949127 70.718908 
L 150.2232 60.455623 
L 150.497273 66.094941 
L 150.771345 106.247185 
L 151.045418 59.049967 
L 151.319491 56.119913 
L 151.593564 46.989972 
L 151.867636 46.06793 
L 152.141709 61.205416 
L 152.415782 87.194736 
L 152.689855 44.335451 
L 152.963927 62.586583 
L 153.238 122.939548 
L 153.512073 110.015117 
L 153.786145 123.326803 
L 154.060218 93.431637 
L 154.334291 125.313677 
L 154.608364 74.706214 
L 154.882436 125.945737 
L 155.156509 45.152112 
L 155.430582 88.978459 
L 155.704655 72.369474 
L 155.978727 129.202229 
L 156.2528 58.984234 
L 156.800945 129.826769 
L 157.075018 81.733059 
L 157.349091 65.824998 
L 157.623164 64.48765 
L 157.897236 50.883165 
L 158.171309 89.302228 
L 158.445382 52.558508 
L 158.719455 109.828422 
L 158.993527 76.662071 
L 159.2676 91.343666 
L 159.541673 51.851886 
L 159.815745 80.901388 
L 160.089818 129.557597 
L 160.363891 75.634426 
L 160.637964 72.484745 
L 160.912036 63.287176 
L 161.186109 103.455726 
L 161.460182 71.659188 
L 161.734255 108.414483 
L 162.008327 125.229747 
L 162.2824 57.437749 
L 162.556473 70.40944 
L 162.830545 53.868844 
L 163.104618 116.567408 
L 163.378691 76.540449 
L 163.652764 100.221753 
L 163.926836 114.277627 
L 164.200909 109.314078 
L 164.474982 53.501211 
L 165.023127 113.627885 
L 165.2972 65.916125 
L 165.571273 111.9493 
L 165.845345 55.639803 
L 166.393491 126.23226 
L 166.667564 71.846787 
L 166.941636 49.509632 
L 167.215709 99.097585 
L 167.489782 122.972751 
L 167.763855 74.545095 
L 168.037927 128.166809 
L 168.312 124.183749 
L 168.860145 63.987715 
L 169.134218 109.8072 
L 169.408291 54.945935 
L 169.682364 116.838226 
L 169.956436 119.403639 
L 170.230509 53.84315 
L 170.504582 126.256254 
L 170.778655 53.993601 
L 171.052727 97.813632 
L 171.3268 76.720122 
L 171.600873 76.832167 
L 171.874945 88.320436 
L 172.149018 91.829592 
L 172.423091 53.027832 
L 172.697164 47.968994 
L 172.971236 48.232905 
L 173.245309 128.081678 
L 173.519382 75.331161 
L 173.793455 82.221377 
L 174.067527 119.073283 
L 174.3416 105.632183 
L 174.615673 109.998679 
L 174.889745 84.689393 
L 175.163818 122.562551 
L 175.437891 116.888455 
L 175.711964 71.293172 
L 176.260109 120.294572 
L 176.534182 61.708627 
L 176.808255 57.511168 
L 177.082327 103.972102 
L 177.630473 110.882647 
L 177.904545 57.822097 
L 178.178618 43.816411 
L 178.452691 69.629482 
L 178.726764 63.522728 
L 179.000836 105.737755 
L 179.274909 67.299697 
L 179.548982 98.92299 
L 179.823055 48.021817 
L 180.097127 84.773788 
L 180.3712 88.596099 
L 180.645273 50.203005 
L 180.919345 119.902562 
L 181.193418 83.580303 
L 181.467491 74.366855 
L 181.741564 50.420542 
L 182.289709 119.741747 
L 182.563782 110.057176 
L 182.837855 72.055906 
L 183.111927 125.145083 
L 183.386 126.027017 
L 183.660073 87.716048 
L 184.482291 56.218939 
L 184.756364 57.520465 
L 185.030436 59.429116 
L 185.304509 85.474574 
L 185.578582 73.596498 
L 185.852655 124.675233 
L 186.126727 47.846744 
L 186.4008 128.128717 
L 186.674873 63.100737 
L 186.948945 113.249913 
L 187.223018 97.339992 
L 187.497091 118.107122 
L 187.771164 49.554838 
L 188.045236 91.242775 
L 188.319309 84.496079 
L 188.593382 70.175575 
L 188.867455 65.359642 
L 189.141527 48.612808 
L 189.4156 106.620051 
L 189.689673 118.906414 
L 189.963745 61.946386 
L 190.237818 127.209888 
L 190.511891 83.328891 
L 190.785964 69.285941 
L 191.060036 75.833466 
L 191.334109 123.07881 
L 191.608182 105.019318 
L 191.882255 99.827546 
L 192.156327 78.307376 
L 192.4304 74.87205 
L 192.704473 78.291294 
L 192.978545 79.156922 
L 193.526691 51.408014 
L 193.800764 48.825513 
L 194.074836 128.536964 
L 194.348909 91.549906 
L 194.897055 74.812992 
L 195.171127 88.158007 
L 195.4452 50.034565 
L 195.719273 130.25023 
L 195.993345 52.76197 
L 196.267418 121.776912 
L 196.541491 96.162721 
L 196.815564 52.549549 
L 197.089636 125.377577 
L 197.363709 121.948376 
L 197.637782 78.970438 
L 197.911855 118.610568 
L 198.185927 55.113959 
L 198.46 59.549177 
L 198.734073 99.380237 
L 199.008145 64.049461 
L 199.282218 72.6604 
L 199.556291 116.208831 
L 199.830364 69.218339 
L 200.104436 53.197214 
L 200.378509 88.246174 
L 200.652582 69.043744 
L 200.926655 110.229893 
L 201.200727 110.929682 
L 201.4748 108.50285 
L 201.748873 92.46018 
L 202.022945 54.000137 
L 202.297018 82.775143 
L 202.571091 90.079448 
L 202.845164 56.435804 
L 203.393309 85.10045 
L 203.667382 69.081574 
L 203.941455 110.388784 
L 204.215527 65.814065 
L 204.4896 64.289302 
L 204.763673 66.89333 
L 205.037745 129.017063 
L 205.311818 52.276046 
L 205.585891 107.09273 
L 205.859964 83.790213 
L 206.134036 75.757556 
L 206.408109 109.037296 
L 206.956255 46.844386 
L 207.230327 82.783901 
L 207.5044 64.20891 
L 207.778473 63.425175 
L 208.052545 67.325364 
L 208.326618 61.091692 
L 208.600691 80.182097 
L 208.874764 124.311968 
L 209.148836 77.168649 
L 209.422909 98.699947 
L 209.696982 47.271925 
L 209.971055 116.42389 
L 210.245127 61.132556 
L 210.5192 81.220001 
L 210.793273 59.137095 
L 211.067345 54.197379 
L 211.341418 77.752917 
L 211.615491 61.217375 
L 211.889564 107.044579 
L 212.163636 72.537786 
L 212.711782 60.132588 
L 212.985855 118.604369 
L 213.534 45.623675 
L 213.808073 120.73685 
L 214.082145 123.944606 
L 214.356218 65.243088 
L 214.630291 83.397511 
L 214.904364 129.849737 
L 215.452509 111.773046 
L 215.726582 55.70669 
L 216.000655 61.195833 
L 216.274727 106.228671 
L 216.5488 108.546679 
L 216.822873 44.442547 
L 217.096945 119.70761 
L 217.371018 128.436124 
L 217.645091 51.406405 
L 217.919164 110.934724 
L 218.193236 75.102953 
L 218.467309 106.802854 
L 218.741382 82.628072 
L 219.015455 111.152744 
L 219.289527 118.537349 
L 219.5636 67.455381 
L 219.837673 105.437043 
L 220.111745 86.244495 
L 220.385818 119.941933 
L 220.659891 49.013977 
L 220.933964 67.457047 
L 221.208036 47.1298 
L 221.482109 113.872093 
L 222.030255 91.376477 
L 222.304327 85.084646 
L 222.5784 113.867877 
L 222.852473 122.137025 
L 223.126545 71.000738 
L 223.400618 80.816252 
L 223.674691 95.872792 
L 223.948764 77.149827 
L 224.222836 111.780754 
L 224.496909 45.059977 
L 224.770982 84.296698 
L 225.045055 85.004792 
L 225.319127 87.976671 
L 225.5932 72.094091 
L 225.867273 64.439019 
L 226.141345 46.303349 
L 226.415418 49.849048 
L 226.689491 102.966261 
L 226.963564 71.237907 
L 227.237636 101.269903 
L 227.511709 83.288847 
L 227.785782 55.273394 
L 228.059855 118.091649 
L 228.333927 129.076175 
L 228.608 70.777628 
L 228.882073 74.83896 
L 229.156145 109.298343 
L 229.430218 98.756471 
L 229.704291 64.780778 
L 229.978364 63.834342 
L 230.252436 123.072277 
L 230.526509 107.825247 
L 231.074655 58.998259 
L 231.348727 76.701145 
L 231.6228 44.154382 
L 231.896873 57.739478 
L 232.170945 65.709095 
L 232.445018 105.138045 
L 232.719091 74.476528 
L 232.993164 115.104219 
L 233.541309 73.383663 
L 233.815382 130.314996 
L 234.089455 117.95243 
L 234.363527 67.495781 
L 234.6376 56.497571 
L 234.911673 73.511894 
L 235.185745 74.874408 
L 235.459818 118.5028 
L 235.733891 45.418221 
L 236.007964 65.844093 
L 236.282036 127.305694 
L 237.104255 51.2472 
L 237.378327 94.994503 
L 237.6524 57.320174 
L 237.926473 52.613764 
L 238.200545 79.744148 
L 238.474618 84.256659 
L 238.748691 123.449838 
L 239.022764 59.064971 
L 239.296836 116.932191 
L 239.570909 103.785298 
L 240.119055 54.158825 
L 240.393127 126.603904 
L 240.6672 60.343573 
L 240.941273 46.333957 
L 241.215345 110.108509 
L 241.489418 112.095133 
L 241.763491 122.720091 
L 242.037564 121.699745 
L 242.311636 57.705822 
L 242.585709 113.440336 
L 243.133855 55.598054 
L 243.407927 78.447385 
L 243.682 54.565637 
L 243.956073 90.824736 
L 244.230145 74.273381 
L 244.504218 105.565628 
L 244.778291 89.445699 
L 245.052364 105.178671 
L 245.326436 55.358507 
L 245.600509 71.610751 
L 245.874582 126.531705 
L 246.148655 104.185574 
L 246.422727 62.370707 
L 246.6968 72.958368 
L 247.244945 82.446969 
L 247.519018 129.553261 
L 247.793091 48.735718 
L 248.067164 117.285376 
L 248.341236 106.238368 
L 248.615309 45.095425 
L 248.889382 94.865806 
L 249.163455 55.967085 
L 249.437527 57.272944 
L 249.7116 109.90885 
L 249.985673 70.870978 
L 250.259745 122.259694 
L 250.533818 109.766699 
L 250.807891 105.601714 
L 251.081964 129.193272 
L 251.356036 73.107796 
L 251.904182 121.044076 
L 252.178255 96.058644 
L 252.452327 104.002984 
L 252.7264 101.484364 
L 253.000473 121.830885 
L 253.274545 58.086179 
L 253.548618 121.302066 
L 253.822691 118.917989 
L 254.096764 76.287689 
L 254.370836 86.6326 
L 254.644909 56.57753 
L 254.918982 52.159979 
L 255.193055 76.492003 
L 255.467127 84.269872 
L 255.7412 128.609153 
L 256.015273 67.272805 
L 256.289345 124.512873 
L 256.563418 77.443349 
L 256.837491 69.654815 
L 257.111564 78.142438 
L 257.385636 104.313333 
L 257.659709 47.441456 
L 257.933782 89.292077 
L 258.207855 92.013754 
L 258.481927 76.36026 
L 258.756 111.012949 
L 259.030073 102.620453 
L 259.304145 90.045637 
L 259.578218 90.552342 
L 259.852291 116.081908 
L 260.126364 55.261435 
L 260.400436 99.601107 
L 260.674509 49.197625 
L 260.948582 81.625967 
L 261.222655 44.854818 
L 261.496727 96.986406 
L 261.7708 58.691807 
L 262.044873 99.265418 
L 262.318945 97.74667 
L 262.593018 128.830598 
L 263.141164 85.540213 
L 263.415236 86.821262 
L 263.689309 52.729938 
L 263.963382 75.505049 
L 264.237455 56.509636 
L 264.511527 120.097035 
L 264.7856 70.065208 
L 265.059673 111.448729 
L 265.333745 129.969207 
L 265.607818 45.660025 
L 265.881891 91.736183 
L 266.155964 81.554154 
L 266.430036 47.707844 
L 266.704109 62.239088 
L 266.978182 62.39535 
L 267.252255 128.594502 
L 267.526327 112.998007 
L 268.074473 44.899017 
L 268.622618 93.999671 
L 268.896691 54.98299 
L 269.170764 49.028005 
L 269.444836 114.936109 
L 269.992982 63.477742 
L 270.267055 50.848947 
L 270.541127 94.268679 
L 270.8152 98.759387 
L 271.089273 50.722761 
L 271.363345 49.616946 
L 271.911491 125.130432 
L 272.185564 69.517303 
L 272.733709 105.002523 
L 273.007782 117.214044 
L 273.281855 58.123247 
L 273.555927 108.33687 
L 273.83 53.985547 
L 274.104073 126.05242 
L 274.378145 109.261903 
L 274.652218 73.911406 
L 274.926291 122.890105 
L 275.200364 55.639751 
L 275.474436 80.750392 
L 275.748509 116.568545 
L 276.022582 119.222179 
L 276.296655 126.675579 
L 276.570727 45.493831 
L 276.8448 118.125787 
L 277.118873 90.180058 
L 277.667018 72.885805 
L 277.941091 71.776703 
L 278.215164 117.88796 
L 278.489236 74.754626 
L 278.763309 101.187301 
L 279.037382 91.865429 
L 279.311455 123.866268 
L 279.585527 54.69829 
L 279.8596 48.664905 
L 280.133673 63.948509 
L 280.407745 45.454549 
L 280.681818 63.760752 
L 280.955891 101.361154 
L 281.229964 117.859534 
L 281.504036 116.049336 
L 281.778109 107.676254 
L 282.052182 64.60343 
L 282.326255 82.600983 
L 282.8744 51.274318 
L 283.148473 85.286412 
L 283.422545 64.886294 
L 283.696618 120.349926 
L 283.970691 117.746832 
L 284.244764 87.577971 
L 284.518836 84.170876 
L 284.792909 118.565322 
L 285.066982 109.341307 
L 285.341055 78.645767 
L 285.615127 112.6818 
L 285.8892 81.901354 
L 286.163273 111.730906 
L 286.985491 46.726094 
L 287.259564 126.657226 
L 287.533636 124.715518 
L 287.807709 82.419782 
L 288.355855 47.99329 
L 288.904 80.631524 
L 289.178073 121.08363 
L 289.452145 95.267616 
L 289.726218 109.4555 
L 290.000291 84.634981 
L 290.274364 83.150425 
L 290.548436 111.533597 
L 290.822509 58.929083 
L 291.096582 127.337147 
L 291.370655 128.310441 
L 291.644727 109.495289 
L 291.9188 111.691028 
L 292.192873 110.795012 
L 292.466945 90.880785 
L 292.741018 87.643727 
L 293.015091 69.062624 
L 293.289164 100.173411 
L 293.563236 56.357003 
L 293.837309 98.980136 
L 294.111382 62.80243 
L 294.385455 93.95401 
L 294.659527 85.014281 
L 294.9336 48.18304 
L 295.207673 117.748648 
L 295.481745 94.605067 
L 295.755818 92.560821 
L 296.029891 74.085388 
L 296.303964 130.529046 
L 296.852109 45.699717 
L 297.126182 115.877052 
L 297.400255 60.311492 
L 297.674327 124.306267 
L 297.9484 130.371739 
L 298.222473 66.161486 
L 298.496545 120.22684 
L 298.770618 72.467523 
L 299.044691 63.543029 
L 299.318764 47.905958 
L 299.592836 108.725002 
L 299.866909 103.40247 
L 300.140982 95.68608 
L 300.415055 55.738687 
L 300.689127 120.729119 
L 300.9632 117.870606 
L 301.237273 104.699514 
L 301.511345 130.133742 
L 302.059491 59.036009 
L 302.333564 64.193409 
L 302.607636 99.721345 
L 302.881709 57.356783 
L 303.155782 110.557902 
L 303.429855 112.120394 
L 303.703927 62.524334 
L 303.978 129.163082 
L 304.252073 82.810216 
L 304.526145 104.458347 
L 304.800218 103.23499 
L 305.074291 48.293104 
L 305.348364 61.322227 
L 305.622436 124.797387 
L 305.896509 76.290651 
L 306.170582 56.358498 
L 306.444655 48.348035 
L 306.718727 116.40968 
L 306.9928 95.737165 
L 307.266873 103.951679 
L 307.540945 86.508933 
L 307.815018 86.248333 
L 308.089091 75.560199 
L 308.363164 115.484565 
L 308.637236 72.095896 
L 308.911309 80.069242 
L 309.185382 128.959738 
L 309.733527 117.980411 
L 310.0076 70.823293 
L 310.281673 110.465777 
L 310.555745 44.825128 
L 310.829818 68.322749 
L 311.103891 122.772617 
L 311.377964 52.124791 
L 311.652036 127.658586 
L 311.926109 64.526014 
L 312.200182 68.706108 
L 312.474255 62.840948 
L 312.748327 103.714578 
L 313.0224 103.068568 
L 313.296473 87.517199 
L 313.570545 43.803824 
L 313.844618 77.275888 
L 314.118691 94.866399 
L 314.392764 92.722254 
L 314.666836 66.068458 
L 314.940909 119.733861 
L 315.489055 52.681748 
L 315.763127 110.405399 
L 316.0372 72.338482 
L 316.311273 95.162837 
L 316.585345 76.934986 
L 316.859418 128.169908 
L 317.133491 85.66612 
L 317.407564 66.560646 
L 317.955709 109.890034 
L 318.229782 68.295138 
L 318.777927 113.115893 
L 319.052 61.256464 
L 319.326073 114.497078 
L 319.600145 94.897501 
L 319.874218 103.720362 
L 320.148291 101.678969 
L 320.422364 96.814373 
L 320.696436 85.08937 
L 320.970509 108.353715 
L 321.244582 105.284484 
L 321.518655 111.937662 
L 321.792727 72.150072 
L 322.0668 106.108454 
L 322.340873 125.968378 
L 322.614945 58.662277 
L 322.889018 76.476265 
L 323.163091 74.562295 
L 323.437164 47.943818 
L 323.711236 73.475854 
L 323.985309 88.433089 
L 324.259382 117.041033 
L 324.533455 87.628085 
L 324.807527 91.142131 
L 325.0816 61.814834 
L 325.355673 109.639084 
L 325.629745 107.483041 
L 325.903818 111.298633 
L 326.177891 105.365458 
L 326.451964 55.506249 
L 326.726036 98.082049 
L 327.000109 46.134809 
L 327.274182 63.391566 
L 327.548255 50.84565 
L 328.0964 61.279872 
L 328.370473 83.732804 
L 328.644545 60.663963 
L 328.918618 62.092254 
L 329.192691 94.359273 
L 329.466764 73.06996 
L 329.740836 80.088904 
L 330.014909 44.972098 
L 330.288982 94.813627 
L 330.563055 92.75511 
L 330.837127 63.481821 
L 331.1112 60.379514 
L 331.385273 85.40057 
L 331.659345 94.732912 
L 331.933418 54.796319 
L 332.207491 120.784084 
L 332.481564 66.508543 
L 332.755636 52.772812 
L 333.029709 52.200108 
L 333.577855 130.398888 
L 333.851927 82.304711 
L 334.126 68.060485 
L 334.400073 93.777347 
L 334.674145 87.273864 
L 334.948218 98.370638 
L 335.222291 50.510222 
L 335.222291 50.510222 
" clip-path="url(#p63f318668d)" style="fill: none; stroke: #1f77b4; stroke-width: 1.5; stroke-linecap: square"/>
   </g>
   <g id="line2d_14">
    <path d="M 61.423636 87.16 
L 335.496364 87.16 
" clip-path="url(#p63f318668d)" style="fill: none; stroke-dasharray: 7.4,3.2; stroke-dashoffset: 0; stroke: #ff0000; stroke-width: 2"/>
   </g>
   <g id="line2d_15">
    <path d="M 192.978545 87.16 
L 203.941455 87.16 
" clip-path="url(#p63f318668d)" style="fill: none; stroke: #000000; stroke-width: 2; stroke-linecap: square"/>
   </g>
   <g id="line2d_16">
    <path d="M 192.978545 43.72 
L 203.941455 43.72 
" clip-path="url(#p63f318668d)" style="fill: none; stroke: #000000; stroke-width: 2; stroke-linecap: square"/>
   </g>
   <g id="line2d_17">
    <path d="M 198.46 87.16 
L 198.46 43.72 
" clip-path="url(#p63f318668d)" style="fill: none; stroke: #000000; stroke-width: 2; stroke-linecap: square"/>
   </g>
   <g id="line2d_18">
    <path d="M 192.978545 159.56 
L 203.941455 159.56 
" clip-path="url(#p63f318668d)" style="fill: none; stroke: #000000; stroke-width: 2; stroke-linecap: square"/>
   </g>
   <g id="line2d_19">
    <path d="M 198.46 159.56 
L 198.46 87.16 
" clip-path="url(#p63f318668d)" style="fill: none; stroke: #000000; stroke-width: 2; stroke-linecap: square"/>
   </g>
   <g id="patch_3">
    <path d="M 47.72 174.04 
L 47.72 14.76 
" style="fill: none; stroke: #000000; stroke-width: 0.8; stroke-linejoin: miter; stroke-linecap: square"/>
   </g>
   <g id="patch_4">
    <path d="M 349.2 174.04 
L 349.2 14.76 
" style="fill: none; stroke: #000000; stroke-width: 0.8; stroke-linejoin: miter; stroke-linecap: square"/>
   </g>
   <g id="patch_5">
    <path d="M 47.72 174.04 
L 349.2 174.04 
" style="fill: none; stroke: #000000; stroke-width: 0.8; stroke-linejoin: miter; stroke-linecap: square"/>
   </g>
   <g id="patch_6">
    <path d="M 47.72 14.76 
L 349.2 14.76 
" style="fill: none; stroke: #000000; stroke-width: 0.8; stroke-linejoin: miter; stroke-linecap: square"/>
   </g>
   <g id="text_15">
    <g id="patch_7">
     <path d="M 205.422909 71.519688 
L 235.015097 71.519688 
L 235.015097 53.841563 
L 205.422909 53.841563 
z
" style="fill: #ffffff; opacity: 0.8; stroke: #000000; stroke-linejoin: miter"/>
    </g>
    <!-- gain -->
    <g transform="translate(209.422909 65.44) scale(0.1 -0.1)">
     <use xlink:href="#DejaVuSans-67"/>
     <use xlink:href="#DejaVuSans-61" transform="translate(63.476562 0)"/>
     <use xlink:href="#DejaVuSans-69" transform="translate(124.755859 0)"/>
     <use xlink:href="#DejaVuSans-6e" transform="translate(152.539062 0)"/>
    </g>
   </g>
   <g id="text_16">
    <g id="patch_8">
     <path d="M 205.422909 129.439688 
L 241.865097 129.439688 
L 241.865097 111.761563 
L 205.422909 111.761563 
z
" style="fill: #ffffff; opacity: 0.8; stroke: #000000; stroke-linejoin: miter"/>
    </g>
    <!-- offset -->
    <g transform="translate(209.422909 123.36) scale(0.1 -0.1)">
     <defs>
      <path id="DejaVuSans-6f" d="M 1959 3097 
Q 1497 3097 1228 2736 
Q 959 2375 959 1747 
Q 959 1119 1226 758 
Q 1494 397 1959 397 
Q 2419 397 2687 759 
Q 2956 1122 2956 1747 
Q 2956 2369 2687 2733 
Q 2419 3097 1959 3097 
z
M 1959 3584 
Q 2709 3584 3137 3096 
Q 3566 2609 3566 1747 
Q 3566 888 3137 398 
Q 2709 -91 1959 -91 
Q 1206 -91 779 398 
Q 353 888 353 1747 
Q 353 2609 779 3096 
Q 1206 3584 1959 3584 
z
" transform="scale(0.015625)"/>
      <path id="DejaVuSans-66" d="M 2375 4863 
L 2375 4384 
L 1825 4384 
Q 1516 4384 1395 4259 
Q 1275 4134 1275 3809 
L 1275 3500 
L 2222 3500 
L 2222 3053 
L 1275 3053 
L 1275 0 
L 697 0 
L 697 3053 
L 147 3053 
L 147 3500 
L 697 3500 
L 697 3744 
Q 697 4328 969 4595 
Q 1241 4863 1831 4863 
L 2375 4863 
z
" transform="scale(0.015625)"/>
     </defs>
     <use xlink:href="#DejaVuSans-6f"/>
     <use xlink:href="#DejaVuSans-66" transform="translate(61.181641 0)"/>
     <use xlink:href="#DejaVuSans-66" transform="translate(96.386719 0)"/>
     <use xlink:href="#DejaVuSans-73" transform="translate(131.591797 0)"/>
     <use xlink:href="#DejaVuSans-65" transform="translate(183.691406 0)"/>
     <use xlink:href="#DejaVuSans-74" transform="translate(245.214844 0)"/>
    </g>
   </g>
  </g>
 </g>
 <defs>
  <clipPath id="p63f318668d">
   <rect x="47.72" y="14.76" width="301.48" height="159.28"/>
  </clipPath>
 </defs>
</svg>
