<?xml version="1.0" encoding="utf-8" standalone="no"?>
<!DOCTYPE svg PUBLIC "-//W3C//DTD SVG 1.1//EN"
  "http://www.w3.org/Graphics/SVG/1.1/DTD/svg11.dtd">
<svg xmlns:xlink="http://www.w3.org/1999/xlink" width="360pt" height="216pt" viewBox="0 0 360 216" xmlns="http://www.w3.org/2000/svg" version="1.1">
 <metadata>
  <rdf:RDF xmlns:dc="http://purl.org/dc/elements/1.1/" xmlns:cc="http://creativecommons.org/ns#" xmlns:rdf="http://www.w3.org/1999/02/22-rdf-syntax-ns#">
   <cc:Work>
    <dc:type rdf:resource="http://purl.org/dc/dcmitype/StillImage"/>
    <dc:date>2025-02-05T02:45:52.881350</dc:date>
    <dc:format>image/svg+xml</dc:format>
    <dc:creator>
     <cc:Agent>
      <dc:title>Matplotlib v3.7.5, https://matplotlib.org/</dc:title>
     </cc:Agent>
    </dc:creator>
   </cc:Work>
  </rdf:RDF>
 </metadata>
 <defs>
  <style type="text/css">*{stroke-linejoin: round; stroke-linecap: butt}</style>
 </defs>
 <g id="figure_1">
  <g id="patch_1">
   <path d="M 0 216 
L 360 216 
L 360 0 
L 0 0 
z
" style="fill: #ffffff"/>
  </g>
  <g id="axes_1">
   <g id="patch_2">
    <path d="M 47.72 174.04 
L 349.2 174.04 
L 349.2 14.76 
L 47.72 14.76 
z
" style="fill: #ffffff"/>
   </g>
   <g id="matplotlib.axis_1">
    <g id="xtick_1">
     <g id="line2d_1">
      <defs>
       <path id="m9c6c838ce2" d="M 0 0 
L 0 3.5 
" style="stroke: #000000; stroke-width: 0.8"/>
      </defs>
      <g>
       <use xlink:href="#m9c6c838ce2" x="61.423636" y="174.04" style="stroke: #000000; stroke-width: 0.8"/>
      </g>
     </g>
     <g id="text_1">
      <!-- 0.0 -->
      <g transform="translate(53.472074 188.638438) scale(0.1 -0.1)">
       <defs>
        <path id="DejaVuSans-30" d="M 2034 4250 
Q 1547 4250 1301 3770 
Q 1056 3291 1056 2328 
Q 1056 1369 1301 889 
Q 1547 409 2034 409 
Q 2525 409 2770 889 
Q 3016 1369 3016 2328 
Q 3016 3291 2770 3770 
Q 2525 4250 2034 4250 
z
M 2034 4750 
Q 2819 4750 3233 4129 
Q 3647 3509 3647 2328 
Q 3647 1150 3233 529 
Q 2819 -91 2034 -91 
Q 1250 -91 836 529 
Q 422 1150 422 2328 
Q 422 3509 836 4129 
Q 1250 4750 2034 4750 
z
" transform="scale(0.015625)"/>
        <path id="DejaVuSans-2e" d="M 684 794 
L 1344 794 
L 1344 0 
L 684 0 
L 684 794 
z
" transform="scale(0.015625)"/>
       </defs>
       <use xlink:href="#DejaVuSans-30"/>
       <use xlink:href="#DejaVuSans-2e" x="63.623047"/>
       <use xlink:href="#DejaVuSans-30" x="95.410156"/>
      </g>
     </g>
    </g>
    <g id="xtick_2">
     <g id="line2d_2">
      <g>
       <use xlink:href="#m9c6c838ce2" x="116.238182" y="174.04" style="stroke: #000000; stroke-width: 0.8"/>
      </g>
     </g>
     <g id="text_2">
      <!-- 0.2 -->
      <g transform="translate(108.286619 188.638438) scale(0.1 -0.1)">
       <defs>
        <path id="DejaVuSans-32" d="M 1228 531 
L 3431 531 
L 3431 0 
L 469 0 
L 469 531 
Q 828 903 1448 1529 
Q 2069 2156 2228 2338 
Q 2531 2678 2651 2914 
Q 2772 3150 2772 3378 
Q 2772 3750 2511 3984 
Q 2250 4219 1831 4219 
Q 1534 4219 1204 4116 
Q 875 4013 500 3803 
L 500 4441 
Q 881 4594 1212 4672 
Q 1544 4750 1819 4750 
Q 2544 4750 2975 4387 
Q 3406 4025 3406 3419 
Q 3406 3131 3298 2873 
Q 3191 2616 2906 2266 
Q 2828 2175 2409 1742 
Q 1991 1309 1228 531 
z
" transform="scale(0.015625)"/>
       </defs>
       <use xlink:href="#DejaVuSans-30"/>
       <use xlink:href="#DejaVuSans-2e" x="63.623047"/>
       <use xlink:href="#DejaVuSans-32" x="95.410156"/>
      </g>
     </g>
    </g>
    <g id="xtick_3">
     <g id="line2d_3">
      <g>
       <use xlink:href="#m9c6c838ce2" x="171.052727" y="174.04" style="stroke: #000000; stroke-width: 0.8"/>
      </g>
     </g>
     <g id="text_3">
      <!-- 0.4 -->
      <g transform="translate(163.101165 188.638438) scale(0.1 -0.1)">
       <defs>
        <path id="DejaVuSans-34" d="M 2419 4116 
L 825 1625 
L 2419 1625 
L 2419 4116 
z
M 2253 4666 
L 3047 4666 
L 3047 1625 
L 3713 1625 
L 3713 1100 
L 3047 1100 
L 3047 0 
L 2419 0 
L 2419 1100 
L 313 1100 
L 313 1709 
L 2253 4666 
z
" transform="scale(0.015625)"/>
       </defs>
       <use xlink:href="#DejaVuSans-30"/>
       <use xlink:href="#DejaVuSans-2e" x="63.623047"/>
       <use xlink:href="#DejaVuSans-34" x="95.410156"/>
      </g>
     </g>
    </g>
    <g id="xtick_4">
     <g id="line2d_4">
      <g>
       <use xlink:href="#m9c6c838ce2" x="225.867273" y="174.04" style="stroke: #000000; stroke-width: 0.8"/>
      </g>
     </g>
     <g id="text_4">
      <!-- 0.6 -->
      <g transform="translate(217.91571 188.638438) scale(0.1 -0.1)">
       <defs>
        <path id="DejaVuSans-36" d="M 2113 2584 
Q 1688 2584 1439 2293 
Q 1191 2003 1191 1497 
Q 1191 994 1439 701 
Q 1688 409 2113 409 
Q 2538 409 2786 701 
Q 3034 994 3034 1497 
Q 3034 2003 2786 2293 
Q 2538 2584 2113 2584 
z
M 3366 4563 
L 3366 3988 
Q 3128 4100 2886 4159 
Q 2644 4219 2406 4219 
Q 1781 4219 1451 3797 
Q 1122 3375 1075 2522 
Q 1259 2794 1537 2939 
Q 1816 3084 2150 3084 
Q 2853 3084 3261 2657 
Q 3669 2231 3669 1497 
Q 3669 778 3244 343 
Q 2819 -91 2113 -91 
Q 1303 -91 875 529 
Q 447 1150 447 2328 
Q 447 3434 972 4092 
Q 1497 4750 2381 4750 
Q 2619 4750 2861 4703 
Q 3103 4656 3366 4563 
z
" transform="scale(0.015625)"/>
       </defs>
       <use xlink:href="#DejaVuSans-30"/>
       <use xlink:href="#DejaVuSans-2e" x="63.623047"/>
       <use xlink:href="#DejaVuSans-36" x="95.410156"/>
      </g>
     </g>
    </g>
    <g id="xtick_5">
     <g id="line2d_5">
      <g>
       <use xlink:href="#m9c6c838ce2" x="280.681818" y="174.04" style="stroke: #000000; stroke-width: 0.8"/>
      </g>
     </g>
     <g id="text_5">
      <!-- 0.8 -->
      <g transform="translate(272.730256 188.638438) scale(0.1 -0.1)">
       <defs>
        <path id="DejaVuSans-38" d="M 2034 2216 
Q 1584 2216 1326 1975 
Q 1069 1734 1069 1313 
Q 1069 891 1326 650 
Q 1584 409 2034 409 
Q 2484 409 2743 651 
Q 3003 894 3003 1313 
Q 3003 1734 2745 1975 
Q 2488 2216 2034 2216 
z
M 1403 2484 
Q 997 2584 770 2862 
Q 544 3141 544 3541 
Q 544 4100 942 4425 
Q 1341 4750 2034 4750 
Q 2731 4750 3128 4425 
Q 3525 4100 3525 3541 
Q 3525 3141 3298 2862 
Q 3072 2584 2669 2484 
Q 3125 2378 3379 2068 
Q 3634 1759 3634 1313 
Q 3634 634 3220 271 
Q 2806 -91 2034 -91 
Q 1263 -91 848 271 
Q 434 634 434 1313 
Q 434 1759 690 2068 
Q 947 2378 1403 2484 
z
M 1172 3481 
Q 1172 3119 1398 2916 
Q 1625 2713 2034 2713 
Q 2441 2713 2670 2916 
Q 2900 3119 2900 3481 
Q 2900 3844 2670 4047 
Q 2441 4250 2034 4250 
Q 1625 4250 1398 4047 
Q 1172 3844 1172 3481 
z
" transform="scale(0.015625)"/>
       </defs>
       <use xlink:href="#DejaVuSans-30"/>
       <use xlink:href="#DejaVuSans-2e" x="63.623047"/>
       <use xlink:href="#DejaVuSans-38" x="95.410156"/>
      </g>
     </g>
    </g>
    <g id="xtick_6">
     <g id="line2d_6">
      <g>
       <use xlink:href="#m9c6c838ce2" x="335.496364" y="174.04" style="stroke: #000000; stroke-width: 0.8"/>
      </g>
     </g>
     <g id="text_6">
      <!-- 1.0 -->
      <g transform="translate(327.544801 188.638438) scale(0.1 -0.1)">
       <defs>
        <path id="DejaVuSans-31" d="M 794 531 
L 1825 531 
L 1825 4091 
L 703 3866 
L 703 4441 
L 1819 4666 
L 2450 4666 
L 2450 531 
L 3481 531 
L 3481 0 
L 794 0 
L 794 531 
z
" transform="scale(0.015625)"/>
       </defs>
       <use xlink:href="#DejaVuSans-31"/>
       <use xlink:href="#DejaVuSans-2e" x="63.623047"/>
       <use xlink:href="#DejaVuSans-30" x="95.410156"/>
      </g>
     </g>
    </g>
    <g id="text_7">
     <!-- Time (sec) -->
     <g transform="translate(172.305312 202.316563) scale(0.1 -0.1)">
      <defs>
       <path id="DejaVuSans-54" d="M -19 4666 
L 3928 4666 
L 3928 4134 
L 2272 4134 
L 2272 0 
L 1638 0 
L 1638 4134 
L -19 4134 
L -19 4666 
z
" transform="scale(0.015625)"/>
       <path id="DejaVuSans-69" d="M 603 3500 
L 1178 3500 
L 1178 0 
L 603 0 
L 603 3500 
z
M 603 4863 
L 1178 4863 
L 1178 4134 
L 603 4134 
L 603 4863 
z
" transform="scale(0.015625)"/>
       <path id="DejaVuSans-6d" d="M 3328 2828 
Q 3544 3216 3844 3400 
Q 4144 3584 4550 3584 
Q 5097 3584 5394 3201 
Q 5691 2819 5691 2113 
L 5691 0 
L 5113 0 
L 5113 2094 
Q 5113 2597 4934 2840 
Q 4756 3084 4391 3084 
Q 3944 3084 3684 2787 
Q 3425 2491 3425 1978 
L 3425 0 
L 2847 0 
L 2847 2094 
Q 2847 2600 2669 2842 
Q 2491 3084 2119 3084 
Q 1678 3084 1418 2786 
Q 1159 2488 1159 1978 
L 1159 0 
L 581 0 
L 581 3500 
L 1159 3500 
L 1159 2956 
Q 1356 3278 1631 3431 
Q 1906 3584 2284 3584 
Q 2666 3584 2933 3390 
Q 3200 3197 3328 2828 
z
" transform="scale(0.015625)"/>
       <path id="DejaVuSans-65" d="M 3597 1894 
L 3597 1613 
L 953 1613 
Q 991 1019 1311 708 
Q 1631 397 2203 397 
Q 2534 397 2845 478 
Q 3156 559 3463 722 
L 3463 178 
Q 3153 47 2828 -22 
Q 2503 -91 2169 -91 
Q 1331 -91 842 396 
Q 353 884 353 1716 
Q 353 2575 817 3079 
Q 1281 3584 2069 3584 
Q 2775 3584 3186 3129 
Q 3597 2675 3597 1894 
z
M 3022 2063 
Q 3016 2534 2758 2815 
Q 2500 3097 2075 3097 
Q 1594 3097 1305 2825 
Q 1016 2553 972 2059 
L 3022 2063 
z
" transform="scale(0.015625)"/>
       <path id="DejaVuSans-20" transform="scale(0.015625)"/>
       <path id="DejaVuSans-28" d="M 1984 4856 
Q 1566 4138 1362 3434 
Q 1159 2731 1159 2009 
Q 1159 1288 1364 580 
Q 1569 -128 1984 -844 
L 1484 -844 
Q 1016 -109 783 600 
Q 550 1309 550 2009 
Q 550 2706 781 3412 
Q 1013 4119 1484 4856 
L 1984 4856 
z
" transform="scale(0.015625)"/>
       <path id="DejaVuSans-73" d="M 2834 3397 
L 2834 2853 
Q 2591 2978 2328 3040 
Q 2066 3103 1784 3103 
Q 1356 3103 1142 2972 
Q 928 2841 928 2578 
Q 928 2378 1081 2264 
Q 1234 2150 1697 2047 
L 1894 2003 
Q 2506 1872 2764 1633 
Q 3022 1394 3022 966 
Q 3022 478 2636 193 
Q 2250 -91 1575 -91 
Q 1294 -91 989 -36 
Q 684 19 347 128 
L 347 722 
Q 666 556 975 473 
Q 1284 391 1588 391 
Q 1994 391 2212 530 
Q 2431 669 2431 922 
Q 2431 1156 2273 1281 
Q 2116 1406 1581 1522 
L 1381 1569 
Q 847 1681 609 1914 
Q 372 2147 372 2553 
Q 372 3047 722 3315 
Q 1072 3584 1716 3584 
Q 2034 3584 2315 3537 
Q 2597 3491 2834 3397 
z
" transform="scale(0.015625)"/>
       <path id="DejaVuSans-63" d="M 3122 3366 
L 3122 2828 
Q 2878 2963 2633 3030 
Q 2388 3097 2138 3097 
Q 1578 3097 1268 2742 
Q 959 2388 959 1747 
Q 959 1106 1268 751 
Q 1578 397 2138 397 
Q 2388 397 2633 464 
Q 2878 531 3122 666 
L 3122 134 
Q 2881 22 2623 -34 
Q 2366 -91 2075 -91 
Q 1284 -91 818 406 
Q 353 903 353 1747 
Q 353 2603 823 3093 
Q 1294 3584 2113 3584 
Q 2378 3584 2631 3529 
Q 2884 3475 3122 3366 
z
" transform="scale(0.015625)"/>
       <path id="DejaVuSans-29" d="M 513 4856 
L 1013 4856 
Q 1481 4119 1714 3412 
Q 1947 2706 1947 2009 
Q 1947 1309 1714 600 
Q 1481 -109 1013 -844 
L 513 -844 
Q 928 -128 1133 580 
Q 1338 1288 1338 2009 
Q 1338 2731 1133 3434 
Q 928 4138 513 4856 
z
" transform="scale(0.015625)"/>
      </defs>
      <use xlink:href="#DejaVuSans-54"/>
      <use xlink:href="#DejaVuSans-69" x="57.958984"/>
      <use xlink:href="#DejaVuSans-6d" x="85.742188"/>
      <use xlink:href="#DejaVuSans-65" x="183.154297"/>
      <use xlink:href="#DejaVuSans-20" x="244.677734"/>
      <use xlink:href="#DejaVuSans-28" x="276.464844"/>
      <use xlink:href="#DejaVuSans-73" x="315.478516"/>
      <use xlink:href="#DejaVuSans-65" x="367.578125"/>
      <use xlink:href="#DejaVuSans-63" x="429.101562"/>
      <use xlink:href="#DejaVuSans-29" x="484.082031"/>
     </g>
    </g>
   </g>
   <g id="matplotlib.axis_2">
    <g id="ytick_1">
     <g id="line2d_7">
      <defs>
       <path id="m3230be0dd4" d="M 0 0 
L -3.5 0 
" style="stroke: #000000; stroke-width: 0.8"/>
      </defs>
      <g>
       <use xlink:href="#m3230be0dd4" x="47.72" y="159.56" style="stroke: #000000; stroke-width: 0.8"/>
      </g>
     </g>
     <g id="text_8">
      <!-- 0.0 -->
      <g transform="translate(24.816875 163.359219) scale(0.1 -0.1)">
       <use xlink:href="#DejaVuSans-30"/>
       <use xlink:href="#DejaVuSans-2e" x="63.623047"/>
       <use xlink:href="#DejaVuSans-30" x="95.410156"/>
      </g>
     </g>
    </g>
    <g id="ytick_2">
     <g id="line2d_8">
      <g>
       <use xlink:href="#m3230be0dd4" x="47.72" y="130.6" style="stroke: #000000; stroke-width: 0.8"/>
      </g>
     </g>
     <g id="text_9">
      <!-- 0.2 -->
      <g transform="translate(24.816875 134.399219) scale(0.1 -0.1)">
       <use xlink:href="#DejaVuSans-30"/>
       <use xlink:href="#DejaVuSans-2e" x="63.623047"/>
       <use xlink:href="#DejaVuSans-32" x="95.410156"/>
      </g>
     </g>
    </g>
    <g id="ytick_3">
     <g id="line2d_9">
      <g>
       <use xlink:href="#m3230be0dd4" x="47.72" y="101.64" style="stroke: #000000; stroke-width: 0.8"/>
      </g>
     </g>
     <g id="text_10">
      <!-- 0.4 -->
      <g transform="translate(24.816875 105.439219) scale(0.1 -0.1)">
       <use xlink:href="#DejaVuSans-30"/>
       <use xlink:href="#DejaVuSans-2e" x="63.623047"/>
       <use xlink:href="#DejaVuSans-34" x="95.410156"/>
      </g>
     </g>
    </g>
    <g id="ytick_4">
     <g id="line2d_10">
      <g>
       <use xlink:href="#m3230be0dd4" x="47.72" y="72.68" style="stroke: #000000; stroke-width: 0.8"/>
      </g>
     </g>
     <g id="text_11">
      <!-- 0.6 -->
      <g transform="translate(24.816875 76.479219) scale(0.1 -0.1)">
       <use xlink:href="#DejaVuSans-30"/>
       <use xlink:href="#DejaVuSans-2e" x="63.623047"/>
       <use xlink:href="#DejaVuSans-36" x="95.410156"/>
      </g>
     </g>
    </g>
    <g id="ytick_5">
     <g id="line2d_11">
      <g>
       <use xlink:href="#m3230be0dd4" x="47.72" y="43.72" style="stroke: #000000; stroke-width: 0.8"/>
      </g>
     </g>
     <g id="text_12">
      <!-- 0.8 -->
      <g transform="translate(24.816875 47.519219) scale(0.1 -0.1)">
       <use xlink:href="#DejaVuSans-30"/>
       <use xlink:href="#DejaVuSans-2e" x="63.623047"/>
       <use xlink:href="#DejaVuSans-38" x="95.410156"/>
      </g>
     </g>
    </g>
    <g id="ytick_6">
     <g id="line2d_12">
      <g>
       <use xlink:href="#m3230be0dd4" x="47.72" y="14.76" style="stroke: #000000; stroke-width: 0.8"/>
      </g>
     </g>
     <g id="text_13">
      <!-- 1.0 -->
      <g transform="translate(24.816875 18.559219) scale(0.1 -0.1)">
       <use xlink:href="#DejaVuSans-31"/>
       <use xlink:href="#DejaVuSans-2e" x="63.623047"/>
       <use xlink:href="#DejaVuSans-30" x="95.410156"/>
      </g>
     </g>
    </g>
    <g id="text_14">
     <!-- Injected Signal -->
     <g transform="translate(18.737188 131.417969) rotate(-90) scale(0.1 -0.1)">
      <defs>
       <path id="DejaVuSans-49" d="M 628 4666 
L 1259 4666 
L 1259 0 
L 628 0 
L 628 4666 
z
" transform="scale(0.015625)"/>
       <path id="DejaVuSans-6e" d="M 3513 2113 
L 3513 0 
L 2938 0 
L 2938 2094 
Q 2938 2591 2744 2837 
Q 2550 3084 2163 3084 
Q 1697 3084 1428 2787 
Q 1159 2491 1159 1978 
L 1159 0 
L 581 0 
L 581 3500 
L 1159 3500 
L 1159 2956 
Q 1366 3272 1645 3428 
Q 1925 3584 2291 3584 
Q 2894 3584 3203 3211 
Q 3513 2838 3513 2113 
z
" transform="scale(0.015625)"/>
       <path id="DejaVuSans-6a" d="M 603 3500 
L 1178 3500 
L 1178 -63 
Q 1178 -731 923 -1031 
Q 669 -1331 103 -1331 
L -116 -1331 
L -116 -844 
L 38 -844 
Q 366 -844 484 -692 
Q 603 -541 603 -63 
L 603 3500 
z
M 603 4863 
L 1178 4863 
L 1178 4134 
L 603 4134 
L 603 4863 
z
" transform="scale(0.015625)"/>
       <path id="DejaVuSans-74" d="M 1172 4494 
L 1172 3500 
L 2356 3500 
L 2356 3053 
L 1172 3053 
L 1172 1153 
Q 1172 725 1289 603 
Q 1406 481 1766 481 
L 2356 481 
L 2356 0 
L 1766 0 
Q 1100 0 847 248 
Q 594 497 594 1153 
L 594 3053 
L 172 3053 
L 172 3500 
L 594 3500 
L 594 4494 
L 1172 4494 
z
" transform="scale(0.015625)"/>
       <path id="DejaVuSans-64" d="M 2906 2969 
L 2906 4863 
L 3481 4863 
L 3481 0 
L 2906 0 
L 2906 525 
Q 2725 213 2448 61 
Q 2172 -91 1784 -91 
Q 1150 -91 751 415 
Q 353 922 353 1747 
Q 353 2572 751 3078 
Q 1150 3584 1784 3584 
Q 2172 3584 2448 3432 
Q 2725 3281 2906 2969 
z
M 947 1747 
Q 947 1113 1208 752 
Q 1469 391 1925 391 
Q 2381 391 2643 752 
Q 2906 1113 2906 1747 
Q 2906 2381 2643 2742 
Q 2381 3103 1925 3103 
Q 1469 3103 1208 2742 
Q 947 2381 947 1747 
z
" transform="scale(0.015625)"/>
       <path id="DejaVuSans-53" d="M 3425 4513 
L 3425 3897 
Q 3066 4069 2747 4153 
Q 2428 4238 2131 4238 
Q 1616 4238 1336 4038 
Q 1056 3838 1056 3469 
Q 1056 3159 1242 3001 
Q 1428 2844 1947 2747 
L 2328 2669 
Q 3034 2534 3370 2195 
Q 3706 1856 3706 1288 
Q 3706 609 3251 259 
Q 2797 -91 1919 -91 
Q 1588 -91 1214 -16 
Q 841 59 441 206 
L 441 856 
Q 825 641 1194 531 
Q 1563 422 1919 422 
Q 2459 422 2753 634 
Q 3047 847 3047 1241 
Q 3047 1584 2836 1778 
Q 2625 1972 2144 2069 
L 1759 2144 
Q 1053 2284 737 2584 
Q 422 2884 422 3419 
Q 422 4038 858 4394 
Q 1294 4750 2059 4750 
Q 2388 4750 2728 4690 
Q 3069 4631 3425 4513 
z
" transform="scale(0.015625)"/>
       <path id="DejaVuSans-67" d="M 2906 1791 
Q 2906 2416 2648 2759 
Q 2391 3103 1925 3103 
Q 1463 3103 1205 2759 
Q 947 2416 947 1791 
Q 947 1169 1205 825 
Q 1463 481 1925 481 
Q 2391 481 2648 825 
Q 2906 1169 2906 1791 
z
M 3481 434 
Q 3481 -459 3084 -895 
Q 2688 -1331 1869 -1331 
Q 1566 -1331 1297 -1286 
Q 1028 -1241 775 -1147 
L 775 -588 
Q 1028 -725 1275 -790 
Q 1522 -856 1778 -856 
Q 2344 -856 2625 -561 
Q 2906 -266 2906 331 
L 2906 616 
Q 2728 306 2450 153 
Q 2172 0 1784 0 
Q 1141 0 747 490 
Q 353 981 353 1791 
Q 353 2603 747 3093 
Q 1141 3584 1784 3584 
Q 2172 3584 2450 3431 
Q 2728 3278 2906 2969 
L 2906 3500 
L 3481 3500 
L 3481 434 
z
" transform="scale(0.015625)"/>
       <path id="DejaVuSans-61" d="M 2194 1759 
Q 1497 1759 1228 1600 
Q 959 1441 959 1056 
Q 959 750 1161 570 
Q 1363 391 1709 391 
Q 2188 391 2477 730 
Q 2766 1069 2766 1631 
L 2766 1759 
L 2194 1759 
z
M 3341 1997 
L 3341 0 
L 2766 0 
L 2766 531 
Q 2569 213 2275 61 
Q 1981 -91 1556 -91 
Q 1019 -91 701 211 
Q 384 513 384 1019 
Q 384 1609 779 1909 
Q 1175 2209 1959 2209 
L 2766 2209 
L 2766 2266 
Q 2766 2663 2505 2880 
Q 2244 3097 1772 3097 
Q 1472 3097 1187 3025 
Q 903 2953 641 2809 
L 641 3341 
Q 956 3463 1253 3523 
Q 1550 3584 1831 3584 
Q 2591 3584 2966 3190 
Q 3341 2797 3341 1997 
z
" transform="scale(0.015625)"/>
       <path id="DejaVuSans-6c" d="M 603 4863 
L 1178 4863 
L 1178 0 
L 603 0 
L 603 4863 
z
" transform="scale(0.015625)"/>
      </defs>
      <use xlink:href="#DejaVuSans-49"/>
      <use xlink:href="#DejaVuSans-6e" x="29.492188"/>
      <use xlink:href="#DejaVuSans-6a" x="92.871094"/>
      <use xlink:href="#DejaVuSans-65" x="120.654297"/>
      <use xlink:href="#DejaVuSans-63" x="182.177734"/>
      <use xlink:href="#DejaVuSans-74" x="237.158203"/>
      <use xlink:href="#DejaVuSans-65" x="276.367188"/>
      <use xlink:href="#DejaVuSans-64" x="337.890625"/>
      <use xlink:href="#DejaVuSans-20" x="401.367188"/>
      <use xlink:href="#DejaVuSans-53" x="433.154297"/>
      <use xlink:href="#DejaVuSans-69" x="496.630859"/>
      <use xlink:href="#DejaVuSans-67" x="524.414062"/>
      <use xlink:href="#DejaVuSans-6e" x="587.890625"/>
      <use xlink:href="#DejaVuSans-61" x="651.269531"/>
      <use xlink:href="#DejaVuSans-6c" x="712.548828"/>
     </g>
    </g>
   </g>
   <g id="line2d_13">
    <path d="M 61.423636 127.09103 
L 61.697709 125.130613 
L 61.971782 63.733457 
L 62.245855 86.614866 
L 62.519927 54.235683 
L 62.794 118.961858 
L 63.616218 101.391748 
L 63.890291 72.445442 
L 64.164364 102.943143 
L 64.712509 76.930062 
L 64.986582 53.740587 
L 65.260655 93.818787 
L 65.534727 58.534775 
L 65.8088 115.76211 
L 66.356945 64.314408 
L 66.631018 114.44688 
L 66.905091 82.607473 
L 67.453236 68.466793 
L 67.727309 96.609776 
L 68.001382 101.283143 
L 68.275455 95.10429 
L 68.549527 125.460532 
L 68.8236 89.835563 
L 69.097673 98.686322 
L 69.371745 103.23295 
L 69.645818 118.986258 
L 69.919891 104.977426 
L 70.193964 106.444298 
L 70.468036 94.524509 
L 70.742109 59.946199 
L 71.016182 80.397789 
L 71.290255 74.359933 
L 71.8384 44.628157 
L 72.112473 73.345712 
L 72.386545 126.75046 
L 72.660618 55.796962 
L 72.934691 99.704681 
L 73.208764 73.664669 
L 73.482836 73.197068 
L 73.756909 65.314075 
L 74.030982 113.691047 
L 74.305055 97.515202 
L 74.579127 69.89144 
L 74.8532 69.759311 
L 75.127273 68.618238 
L 75.401345 98.494868 
L 75.675418 76.978239 
L 75.949491 71.011357 
L 76.223564 59.656331 
L 76.497636 127.432615 
L 76.771709 54.757682 
L 77.045782 58.780098 
L 77.319855 110.226777 
L 77.593927 89.872157 
L 77.868 46.526718 
L 78.142073 71.14088 
L 78.416145 85.018617 
L 78.690218 44.82752 
L 78.964291 92.248139 
L 79.238364 58.464114 
L 79.512436 79.809011 
L 79.786509 65.956424 
L 80.060582 45.386912 
L 80.334655 104.693588 
L 80.608727 92.140399 
L 80.8828 95.848899 
L 81.156873 96.83307 
L 81.430945 45.583078 
L 81.705018 108.245526 
L 81.979091 110.702194 
L 82.253164 100.801387 
L 82.527236 110.181339 
L 82.801309 104.814644 
L 83.075382 114.480824 
L 83.349455 44.46815 
L 83.623527 92.405671 
L 84.171673 124.20941 
L 84.445745 68.964802 
L 84.719818 125.797628 
L 84.993891 54.631819 
L 85.267964 94.822507 
L 85.542036 69.30718 
L 85.816109 76.303269 
L 86.090182 105.629799 
L 86.364255 96.779365 
L 86.638327 58.173937 
L 86.9124 96.932633 
L 87.186473 59.349697 
L 87.460545 100.819893 
L 87.734618 100.219847 
L 88.008691 103.173163 
L 88.282764 60.948646 
L 88.556836 86.233556 
L 88.830909 125.088582 
L 89.104982 66.543083 
L 89.379055 68.940733 
L 89.653127 49.20617 
L 89.9272 69.4374 
L 90.201273 109.671815 
L 90.475345 109.063271 
L 90.749418 49.999202 
L 91.023491 128.725184 
L 91.297564 127.11537 
L 91.845709 69.129092 
L 92.119782 109.74357 
L 92.393855 106.138654 
L 92.667927 82.253746 
L 92.942 85.726369 
L 93.216073 106.599833 
L 93.490145 68.300405 
L 93.764218 109.490388 
L 94.038291 90.372942 
L 94.312364 105.509856 
L 94.586436 128.847849 
L 94.860509 43.92181 
L 95.134582 63.518006 
L 95.408655 112.047559 
L 95.682727 108.603423 
L 95.9568 53.767825 
L 96.230873 45.275331 
L 96.504945 60.844608 
L 96.779018 103.98029 
L 97.053091 88.309975 
L 97.327164 88.709892 
L 97.601236 77.279995 
L 97.875309 130.495594 
L 98.149382 64.504049 
L 98.423455 63.102135 
L 98.697527 72.515617 
L 98.9716 89.796435 
L 99.245673 55.830357 
L 99.519745 57.678285 
L 99.793818 49.056989 
L 100.341964 128.625951 
L 100.616036 101.911863 
L 100.890109 90.24665 
L 101.164182 116.457515 
L 101.438255 75.540051 
L 101.712327 81.604353 
L 101.9864 49.247997 
L 102.260473 57.547614 
L 102.534545 116.934677 
L 102.808618 96.019274 
L 103.082691 118.867442 
L 103.356764 100.988097 
L 103.630836 92.509247 
L 103.904909 119.366674 
L 104.178982 52.923237 
L 104.727127 107.305523 
L 105.0012 53.653388 
L 105.275273 85.635823 
L 105.549345 52.069285 
L 105.823418 114.569059 
L 106.097491 66.522275 
L 106.371564 110.661784 
L 106.645636 99.620601 
L 106.919709 58.547285 
L 107.193782 126.260483 
L 107.467855 46.152327 
L 107.741927 114.010923 
L 108.016 107.636728 
L 108.290073 82.228358 
L 108.564145 74.167412 
L 108.838218 100.367999 
L 109.112291 45.805684 
L 109.660436 126.637868 
L 109.934509 129.038652 
L 110.208582 102.855213 
L 110.482655 105.684174 
L 110.756727 67.832405 
L 111.0308 76.886102 
L 111.304873 102.95735 
L 111.578945 96.418335 
L 111.853018 102.983813 
L 112.127091 121.227558 
L 112.675236 88.114907 
L 112.949309 51.964698 
L 113.497455 87.513051 
L 113.771527 44.695599 
L 114.319673 105.746181 
L 114.593745 68.798216 
L 114.867818 71.722004 
L 115.141891 117.828677 
L 115.415964 52.638923 
L 115.690036 94.274701 
L 115.964109 55.555657 
L 116.238182 98.842062 
L 116.512255 79.060633 
L 116.786327 70.317874 
L 117.0604 86.263654 
L 117.334473 77.482621 
L 117.608545 43.896818 
L 117.882618 91.675534 
L 118.156691 50.903917 
L 118.704836 101.73535 
L 118.978909 47.892378 
L 119.252982 60.783073 
L 119.527055 83.685069 
L 119.801127 128.8446 
L 120.0752 121.73518 
L 120.349273 51.939902 
L 120.897418 75.739989 
L 121.171491 51.038087 
L 121.445564 116.617211 
L 121.719636 59.224718 
L 121.993709 85.835689 
L 122.267782 44.626577 
L 122.541855 91.868507 
L 122.815927 44.934636 
L 123.09 57.529594 
L 123.364073 52.509149 
L 123.638145 120.97518 
L 123.912218 55.288273 
L 124.186291 121.993829 
L 124.460364 64.194475 
L 124.734436 65.914312 
L 125.008509 125.828616 
L 125.282582 43.95392 
L 125.556655 115.965554 
L 126.1048 76.145357 
L 126.378873 69.307128 
L 126.652945 96.41812 
L 126.927018 74.434426 
L 127.201091 126.625774 
L 127.475164 128.364668 
L 127.749236 80.671897 
L 128.023309 52.910102 
L 128.297382 65.799198 
L 128.571455 88.047544 
L 128.845527 54.592142 
L 129.1196 120.765346 
L 129.393673 120.517964 
L 129.667745 92.103637 
L 129.941818 127.207438 
L 130.489964 96.33622 
L 130.764036 106.900809 
L 131.038109 65.285175 
L 131.312182 99.072979 
L 131.586255 60.419477 
L 131.860327 97.149255 
L 132.1344 111.09334 
L 132.408473 95.553576 
L 132.682545 49.569536 
L 132.956618 92.609912 
L 133.230691 104.89493 
L 133.504764 48.617577 
L 133.778836 50.126743 
L 134.052909 109.852614 
L 134.326982 49.487638 
L 134.601055 104.4506 
L 134.875127 113.786837 
L 135.1492 117.451362 
L 135.423273 89.447947 
L 135.697345 46.83305 
L 135.971418 64.297704 
L 136.245491 72.901011 
L 136.519564 57.564933 
L 136.793636 90.689721 
L 137.341782 107.143589 
L 137.889927 69.208235 
L 138.164 100.483684 
L 138.438073 62.646338 
L 138.712145 75.205695 
L 138.986218 128.792093 
L 139.260291 70.924547 
L 139.534364 58.938023 
L 139.808436 107.275414 
L 140.082509 50.234632 
L 140.356582 85.612203 
L 140.630655 91.231264 
L 140.904727 125.510679 
L 141.1788 59.413274 
L 141.452873 122.095491 
L 141.726945 47.032654 
L 142.001018 76.964136 
L 142.275091 70.22222 
L 142.549164 80.218437 
L 142.823236 70.272359 
L 143.097309 47.346804 
L 143.371382 93.418422 
L 143.645455 107.181117 
L 143.919527 78.380957 
L 144.1936 78.377572 
L 144.467673 49.873316 
L 144.741745 53.975278 
L 145.015818 105.268645 
L 145.289891 91.277939 
L 145.563964 90.837309 
L 145.838036 53.713248 
L 146.112109 105.250874 
L 146.386182 46.220925 
L 146.660255 106.142552 
L 146.934327 116.030606 
L 147.482473 66.988781 
L 147.756545 71.962517 
L 148.030618 114.283588 
L 148.304691 103.524323 
L 148.578764 127.560146 
L 149.126909 57.083394 
L 149.400982 46.206766 
L 149.675055 59.745759 
L 149.949127 87.791004 
L 150.2232 68.900097 
L 150.497273 71.871085 
L 150.771345 76.670799 
L 151.319491 122.818246 
L 151.593564 106.372331 
L 151.867636 120.936959 
L 152.141709 48.576768 
L 152.415782 83.612745 
L 152.689855 83.60013 
L 152.963927 56.334564 
L 153.512073 123.716379 
L 153.786145 48.868895 
L 154.060218 103.621673 
L 154.334291 60.124642 
L 154.608364 92.990284 
L 154.882436 72.662552 
L 155.156509 105.063888 
L 155.430582 69.603757 
L 155.704655 128.762165 
L 155.978727 62.220763 
L 156.2528 111.31643 
L 156.526873 96.436849 
L 156.800945 73.73119 
L 157.075018 124.861965 
L 157.623164 89.695152 
L 157.897236 122.920044 
L 158.171309 94.90779 
L 158.445382 104.697693 
L 158.719455 122.056071 
L 158.993527 71.867653 
L 159.2676 120.670641 
L 159.541673 96.432774 
L 159.815745 124.742776 
L 160.089818 56.290621 
L 160.363891 90.944296 
L 160.637964 44.717955 
L 161.186109 97.553117 
L 161.460182 46.06003 
L 161.734255 102.975537 
L 162.008327 83.480933 
L 162.2824 106.907517 
L 162.556473 92.98217 
L 162.830545 98.48515 
L 163.104618 109.166641 
L 163.378691 102.354681 
L 163.652764 109.4229 
L 163.926836 128.751396 
L 164.200909 82.218546 
L 164.474982 120.046831 
L 165.023127 69.195319 
L 165.2972 116.483795 
L 165.571273 76.671049 
L 165.845345 58.402254 
L 166.119418 111.144217 
L 166.393491 47.626906 
L 166.667564 88.989041 
L 166.941636 51.916835 
L 167.215709 117.275622 
L 167.489782 93.014467 
L 167.763855 102.495794 
L 168.037927 63.985473 
L 168.312 115.29612 
L 168.586073 61.740519 
L 168.860145 54.521781 
L 169.134218 65.089959 
L 169.408291 55.694963 
L 169.682364 64.358495 
L 169.956436 55.461 
L 170.230509 84.371663 
L 170.504582 91.586972 
L 170.778655 46.382463 
L 171.052727 62.971916 
L 171.3268 100.220559 
L 171.600873 107.014179 
L 171.874945 118.527405 
L 172.149018 62.299595 
L 172.423091 49.057622 
L 172.697164 79.219081 
L 172.971236 74.657061 
L 173.245309 81.007695 
L 173.519382 61.873952 
L 173.793455 89.918017 
L 174.067527 81.140034 
L 174.3416 45.851326 
L 174.615673 122.683439 
L 174.889745 74.998434 
L 175.163818 102.519011 
L 175.437891 67.928747 
L 175.711964 76.767139 
L 175.986036 120.40074 
L 176.260109 115.762189 
L 176.534182 55.572306 
L 176.808255 80.608703 
L 177.082327 68.603482 
L 177.3564 122.084103 
L 177.630473 103.996457 
L 177.904545 71.938633 
L 178.178618 66.230306 
L 178.452691 121.954583 
L 178.726764 127.484731 
L 179.000836 48.692636 
L 179.274909 64.80228 
L 179.548982 69.011164 
L 179.823055 118.682641 
L 180.097127 123.217263 
L 180.3712 88.723165 
L 180.645273 72.850587 
L 180.919345 92.550719 
L 181.467491 66.689882 
L 181.741564 99.585937 
L 182.015636 56.285999 
L 182.289709 123.403702 
L 182.563782 90.969928 
L 182.837855 90.162062 
L 183.111927 47.889828 
L 183.386 45.157458 
L 183.660073 85.957316 
L 184.208218 43.76214 
L 184.482291 116.890248 
L 184.756364 75.165194 
L 185.030436 88.730625 
L 185.304509 128.608294 
L 185.578582 89.450788 
L 186.126727 47.315537 
L 186.4008 85.572677 
L 186.674873 56.060654 
L 186.948945 81.503118 
L 187.223018 85.660675 
L 187.497091 73.079828 
L 187.771164 125.639973 
L 188.045236 93.583133 
L 188.319309 124.82334 
L 188.593382 76.70603 
L 188.867455 57.188328 
L 189.141527 55.168518 
L 189.4156 120.529811 
L 189.689673 45.857801 
L 189.963745 44.27584 
L 190.237818 108.788936 
L 190.785964 56.764767 
L 191.060036 49.145291 
L 191.334109 69.437701 
L 191.608182 74.676438 
L 191.882255 60.569586 
L 192.156327 55.96278 
L 192.4304 86.729676 
L 192.704473 101.19261 
L 192.978545 104.258752 
L 193.252618 101.594161 
L 193.526691 71.678735 
L 193.800764 120.510511 
L 194.074836 73.937829 
L 194.348909 123.889849 
L 194.622982 66.286693 
L 194.897055 128.615911 
L 195.171127 61.463853 
L 195.719273 97.407249 
L 195.993345 121.263197 
L 196.267418 124.506525 
L 196.541491 95.528861 
L 197.089636 116.89262 
L 197.363709 103.295662 
L 197.637782 71.624946 
L 197.911855 73.969127 
L 198.185927 49.297323 
L 198.46 81.712358 
L 198.734073 95.82565 
L 199.008145 83.460136 
L 199.282218 50.545427 
L 199.556291 106.394456 
L 199.830364 117.487081 
L 200.104436 71.55766 
L 200.378509 120.997876 
L 200.652582 80.552869 
L 200.926655 74.640493 
L 201.200727 125.432902 
L 201.4748 94.82958 
L 201.748873 81.058398 
L 202.022945 97.674917 
L 202.297018 80.402336 
L 202.571091 89.838093 
L 202.845164 54.909955 
L 203.119236 93.864423 
L 203.393309 83.630541 
L 203.667382 57.992796 
L 203.941455 84.188059 
L 204.215527 126.003997 
L 204.4896 110.438056 
L 204.763673 69.412949 
L 205.037745 121.315011 
L 205.311818 95.539317 
L 205.585891 94.86398 
L 205.859964 127.0207 
L 206.134036 102.330261 
L 206.408109 66.861765 
L 206.682182 84.534407 
L 206.956255 47.931376 
L 207.230327 94.152517 
L 207.5044 86.57778 
L 207.778473 61.008962 
L 208.052545 56.566443 
L 208.326618 71.749617 
L 208.600691 57.04239 
L 208.874764 111.18355 
L 209.422909 61.572815 
L 209.696982 89.892516 
L 210.245127 49.582448 
L 210.5192 104.682195 
L 210.793273 126.3616 
L 211.067345 129.108493 
L 211.341418 122.428523 
L 211.615491 62.600167 
L 211.889564 61.65758 
L 212.163636 106.066901 
L 212.437709 123.179137 
L 212.711782 107.963709 
L 212.985855 65.033056 
L 213.259927 83.618503 
L 213.534 65.913558 
L 213.808073 105.585435 
L 214.082145 108.663982 
L 214.356218 81.246212 
L 214.630291 112.466443 
L 214.904364 104.989981 
L 215.178436 80.886448 
L 215.452509 114.473171 
L 215.726582 44.413005 
L 216.274727 108.650348 
L 216.822873 54.131995 
L 217.096945 118.749904 
L 217.371018 45.743952 
L 217.645091 64.240943 
L 217.919164 44.862486 
L 218.193236 58.768403 
L 218.467309 86.008658 
L 218.741382 52.684451 
L 219.015455 120.48463 
L 219.289527 91.514152 
L 219.5636 76.370414 
L 219.837673 100.756518 
L 220.111745 70.676717 
L 220.385818 124.122944 
L 220.659891 74.577585 
L 220.933964 125.09507 
L 221.208036 108.627625 
L 221.482109 107.405515 
L 221.756182 97.989355 
L 222.030255 118.404198 
L 222.304327 75.874448 
L 222.5784 86.195229 
L 222.852473 110.0209 
L 223.126545 113.866394 
L 223.400618 58.004984 
L 223.674691 66.48967 
L 223.948764 125.291531 
L 224.496909 57.721094 
L 224.770982 59.357437 
L 225.045055 65.116194 
L 225.319127 64.098674 
L 225.5932 115.673231 
L 225.867273 64.94864 
L 226.141345 112.050825 
L 226.415418 128.85677 
L 226.689491 96.304179 
L 226.963564 93.163616 
L 227.511709 61.003253 
L 227.785782 125.078396 
L 228.059855 111.531409 
L 228.333927 91.813769 
L 228.608 84.324702 
L 228.882073 115.02094 
L 229.156145 74.966068 
L 229.430218 81.878906 
L 229.704291 97.314194 
L 229.978364 86.265134 
L 230.252436 115.990275 
L 230.526509 98.340333 
L 230.800582 97.468607 
L 231.074655 51.932072 
L 231.348727 94.692862 
L 231.896873 65.042562 
L 232.170945 60.512063 
L 232.445018 77.211452 
L 232.719091 120.113701 
L 232.993164 102.155398 
L 233.267236 92.265351 
L 233.815382 53.132981 
L 234.089455 50.366767 
L 234.6376 114.097962 
L 234.911673 102.131967 
L 235.185745 129.310756 
L 235.459818 46.069244 
L 235.733891 45.216193 
L 236.007964 99.813893 
L 236.282036 84.440091 
L 236.556109 52.040114 
L 237.104255 128.142867 
L 237.378327 62.690073 
L 237.6524 116.471414 
L 237.926473 123.688959 
L 238.200545 57.17897 
L 238.474618 89.563481 
L 238.748691 66.263208 
L 239.022764 73.564012 
L 239.296836 106.969056 
L 239.570909 62.082025 
L 239.844982 100.047483 
L 240.119055 111.219276 
L 240.393127 50.044838 
L 240.6672 63.856803 
L 240.941273 104.04194 
L 241.215345 68.439189 
L 241.489418 69.932334 
L 241.763491 81.194337 
L 242.037564 51.673581 
L 242.311636 115.970522 
L 242.585709 84.20601 
L 242.859782 89.843896 
L 243.133855 84.045759 
L 243.407927 51.85166 
L 243.682 72.448911 
L 243.956073 50.055661 
L 244.230145 57.528064 
L 244.504218 114.195731 
L 244.778291 52.800137 
L 245.052364 46.044412 
L 245.326436 49.931795 
L 245.600509 92.974202 
L 245.874582 64.143719 
L 246.148655 98.990221 
L 246.422727 79.581185 
L 246.6968 44.237661 
L 246.970873 86.43954 
L 247.244945 56.660943 
L 247.519018 51.088842 
L 247.793091 76.564821 
L 248.067164 66.134647 
L 248.341236 128.365716 
L 248.615309 48.871998 
L 248.889382 68.746954 
L 249.163455 98.201159 
L 249.437527 109.76966 
L 249.7116 99.631663 
L 250.259745 127.600551 
L 250.533818 70.072862 
L 250.807891 67.367418 
L 251.081964 59.485267 
L 251.356036 59.399032 
L 251.630109 60.946724 
L 252.178255 117.933106 
L 252.452327 52.269024 
L 252.7264 88.202184 
L 253.000473 99.033832 
L 253.274545 52.85756 
L 253.548618 85.177763 
L 253.822691 79.737228 
L 254.096764 102.702043 
L 254.370836 85.88636 
L 254.644909 87.04737 
L 254.918982 48.46025 
L 255.193055 103.001731 
L 255.7412 111.435089 
L 256.015273 103.86098 
L 256.289345 72.143727 
L 256.563418 116.09899 
L 256.837491 117.340411 
L 257.111564 91.103821 
L 257.385636 116.732277 
L 257.659709 54.397723 
L 257.933782 104.144368 
L 258.207855 55.294167 
L 258.481927 110.053538 
L 258.756 62.593574 
L 259.030073 67.558492 
L 259.578218 86.920005 
L 259.852291 80.198653 
L 260.126364 66.759482 
L 260.400436 115.650448 
L 260.674509 52.886905 
L 260.948582 73.96011 
L 261.222655 71.473435 
L 261.496727 47.526722 
L 261.7708 76.414583 
L 262.044873 82.853673 
L 262.318945 94.323722 
L 262.593018 49.804123 
L 262.867091 101.794618 
L 263.141164 100.447854 
L 263.415236 128.049569 
L 263.689309 99.361812 
L 263.963382 96.621686 
L 264.237455 104.588688 
L 264.7856 44.475391 
L 265.059673 108.546679 
L 265.333745 90.037001 
L 265.607818 120.433635 
L 265.881891 124.83931 
L 266.155964 59.018119 
L 266.430036 52.343654 
L 266.704109 75.363135 
L 266.978182 125.014757 
L 267.252255 96.445105 
L 267.526327 107.886065 
L 267.8004 71.983406 
L 268.348545 110.195989 
L 268.622618 75.805321 
L 268.896691 69.639973 
L 269.170764 127.316316 
L 269.444836 108.027935 
L 269.718909 99.677757 
L 269.992982 48.65883 
L 270.541127 69.546029 
L 270.8152 107.456848 
L 271.089273 102.386004 
L 271.363345 62.71053 
L 271.637418 104.257179 
L 271.911491 114.669843 
L 272.185564 57.164974 
L 272.733709 117.680865 
L 273.007782 57.623028 
L 273.281855 68.049291 
L 273.555927 70.156996 
L 273.83 88.431848 
L 274.104073 76.635765 
L 274.378145 119.956683 
L 274.926291 78.566687 
L 275.200364 93.803406 
L 275.474436 91.578335 
L 275.748509 68.459629 
L 276.022582 59.958323 
L 276.296655 61.781893 
L 276.570727 57.951101 
L 276.8448 67.797082 
L 277.118873 128.741423 
L 277.392945 96.203088 
L 277.667018 130.101643 
L 277.941091 120.941688 
L 278.215164 128.444575 
L 278.489236 56.312436 
L 278.763309 121.537822 
L 279.037382 76.467734 
L 279.311455 59.293985 
L 279.8596 112.372961 
L 280.133673 94.101378 
L 280.407745 122.900951 
L 280.681818 66.756715 
L 280.955891 55.807917 
L 281.229964 64.305831 
L 281.504036 130.143156 
L 282.326255 81.863156 
L 282.600327 78.540575 
L 282.8744 86.954933 
L 283.148473 59.009655 
L 283.422545 97.037499 
L 283.696618 106.876447 
L 283.970691 123.971177 
L 284.244764 120.063006 
L 284.518836 126.637023 
L 284.792909 98.141909 
L 285.066982 104.502588 
L 285.341055 48.616073 
L 285.615127 49.695627 
L 285.8892 73.699235 
L 286.163273 52.9972 
L 286.437345 106.418747 
L 286.711418 44.607503 
L 286.985491 44.272785 
L 287.259564 90.737579 
L 287.533636 88.277049 
L 287.807709 48.625568 
L 288.081782 85.717932 
L 288.355855 55.207418 
L 288.629927 87.092111 
L 288.904 103.788401 
L 289.178073 48.026977 
L 289.452145 78.81002 
L 289.726218 127.331178 
L 290.000291 121.651394 
L 290.548436 44.376709 
L 290.822509 89.45157 
L 291.096582 111.920542 
L 291.370655 72.280364 
L 291.644727 96.607397 
L 291.9188 102.032825 
L 292.192873 92.01592 
L 292.466945 75.378389 
L 292.741018 83.151972 
L 293.015091 113.490183 
L 293.563236 88.911587 
L 293.837309 128.597576 
L 294.111382 65.977758 
L 294.659527 66.002726 
L 294.9336 76.500435 
L 295.207673 117.240429 
L 295.481745 44.753359 
L 295.755818 114.166572 
L 296.029891 130.024163 
L 296.303964 75.320117 
L 296.578036 62.218184 
L 296.852109 81.163651 
L 297.126182 117.806051 
L 297.674327 66.873447 
L 298.222473 125.512564 
L 298.770618 47.309926 
L 299.044691 125.048044 
L 299.318764 69.452963 
L 299.592836 118.710819 
L 299.866909 58.747916 
L 300.140982 107.198093 
L 300.415055 103.41307 
L 300.689127 104.152333 
L 300.9632 83.822996 
L 301.237273 48.666336 
L 301.511345 99.732631 
L 301.785418 52.77324 
L 302.059491 100.009541 
L 302.333564 66.263505 
L 302.607636 89.305091 
L 302.881709 54.332513 
L 303.155782 74.432711 
L 303.429855 117.033411 
L 303.703927 69.567228 
L 303.978 77.103585 
L 304.252073 118.861201 
L 304.526145 71.699877 
L 304.800218 91.246797 
L 305.074291 64.341317 
L 305.348364 112.331398 
L 305.622436 46.882867 
L 305.896509 112.110303 
L 306.170582 69.003973 
L 306.718727 115.025839 
L 306.9928 115.981994 
L 307.266873 49.216394 
L 307.540945 55.169494 
L 307.815018 97.552708 
L 308.089091 117.678485 
L 308.363164 83.985147 
L 308.637236 88.578519 
L 308.911309 87.585078 
L 309.185382 58.739369 
L 309.459455 59.93069 
L 309.733527 58.196649 
L 310.0076 125.46344 
L 310.281673 130.342131 
L 310.555745 59.502512 
L 310.829818 74.886086 
L 311.103891 75.689176 
L 311.377964 70.206406 
L 311.652036 55.542423 
L 311.926109 129.125372 
L 312.200182 69.967057 
L 312.474255 49.306193 
L 312.748327 51.29258 
L 313.0224 90.743282 
L 313.296473 55.564841 
L 313.570545 108.671164 
L 313.844618 85.13186 
L 314.118691 72.281291 
L 314.392764 48.107495 
L 314.666836 124.48459 
L 314.940909 69.984988 
L 315.214982 125.070072 
L 315.489055 89.905837 
L 315.763127 97.659243 
L 316.0372 117.820885 
L 316.311273 76.564312 
L 316.585345 65.685536 
L 316.859418 68.584792 
L 317.133491 120.10695 
L 317.407564 122.352865 
L 317.681636 102.887483 
L 317.955709 108.809595 
L 318.229782 47.518845 
L 318.503855 130.310672 
L 318.777927 79.706925 
L 319.052 51.922279 
L 319.326073 60.064793 
L 319.600145 115.991688 
L 319.874218 100.147554 
L 320.148291 97.360293 
L 320.422364 64.696282 
L 320.696436 74.340761 
L 320.970509 45.438007 
L 321.244582 127.218261 
L 321.518655 119.812716 
L 321.792727 105.462366 
L 322.0668 128.714374 
L 322.340873 108.435974 
L 322.614945 105.523353 
L 322.889018 105.791379 
L 323.163091 64.407688 
L 323.437164 65.131754 
L 323.711236 48.038086 
L 323.985309 94.334817 
L 324.259382 56.634035 
L 324.533455 49.585755 
L 324.807527 46.498753 
L 325.0816 45.897802 
L 325.355673 98.992562 
L 325.903818 74.405172 
L 326.177891 101.531974 
L 326.451964 67.895973 
L 326.726036 119.202137 
L 327.000109 62.689307 
L 327.274182 124.565277 
L 327.548255 55.850654 
L 327.822327 89.626718 
L 328.370473 48.019689 
L 328.644545 112.332391 
L 328.918618 46.445804 
L 329.192691 106.891147 
L 329.466764 125.947461 
L 329.740836 115.281948 
L 330.014909 76.115669 
L 330.288982 89.576987 
L 330.563055 90.93516 
L 330.837127 47.968011 
L 331.1112 85.376467 
L 331.385273 49.926116 
L 331.659345 106.07946 
L 331.933418 66.739533 
L 332.207491 121.143118 
L 332.481564 114.029103 
L 332.755636 58.775192 
L 333.029709 124.110812 
L 333.303782 109.589437 
L 333.577855 82.144298 
L 334.126 89.504088 
L 334.400073 99.386571 
L 334.674145 74.84811 
L 334.948218 123.569555 
L 335.222291 79.054771 
L 335.222291 79.054771 
" clip-path="url(#p3eac8b97d7)" style="fill: none; stroke: #1f77b4; stroke-width: 1.5; stroke-linecap: square"/>
   </g>
   <g id="line2d_14">
    <path d="M 61.423636 87.16 
L 335.496364 87.16 
" clip-path="url(#p3eac8b97d7)" style="fill: none; stroke-dasharray: 7.4,3.2; stroke-dashoffset: 0; stroke: #ff0000; stroke-width: 2"/>
   </g>
   <g id="line2d_15">
    <path d="M 192.978545 87.16 
L 203.941455 87.16 
" clip-path="url(#p3eac8b97d7)" style="fill: none; stroke: #000000; stroke-width: 2; stroke-linecap: square"/>
   </g>
   <g id="line2d_16">
    <path d="M 192.978545 43.72 
L 203.941455 43.72 
" clip-path="url(#p3eac8b97d7)" style="fill: none; stroke: #000000; stroke-width: 2; stroke-linecap: square"/>
   </g>
   <g id="line2d_17">
    <path d="M 198.46 87.16 
L 198.46 43.72 
" clip-path="url(#p3eac8b97d7)" style="fill: none; stroke: #000000; stroke-width: 2; stroke-linecap: square"/>
   </g>
   <g id="line2d_18">
    <path d="M 192.978545 159.56 
L 203.941455 159.56 
" clip-path="url(#p3eac8b97d7)" style="fill: none; stroke: #000000; stroke-width: 2; stroke-linecap: square"/>
   </g>
   <g id="line2d_19">
    <path d="M 198.46 159.56 
L 198.46 87.16 
" clip-path="url(#p3eac8b97d7)" style="fill: none; stroke: #000000; stroke-width: 2; stroke-linecap: square"/>
   </g>
   <g id="patch_3">
    <path d="M 47.72 174.04 
L 47.72 14.76 
" style="fill: none; stroke: #000000; stroke-width: 0.8; stroke-linejoin: miter; stroke-linecap: square"/>
   </g>
   <g id="patch_4">
    <path d="M 349.2 174.04 
L 349.2 14.76 
" style="fill: none; stroke: #000000; stroke-width: 0.8; stroke-linejoin: miter; stroke-linecap: square"/>
   </g>
   <g id="patch_5">
    <path d="M 47.72 174.04 
L 349.2 174.04 
" style="fill: none; stroke: #000000; stroke-width: 0.8; stroke-linejoin: miter; stroke-linecap: square"/>
   </g>
   <g id="patch_6">
    <path d="M 47.72 14.76 
L 349.2 14.76 
" style="fill: none; stroke: #000000; stroke-width: 0.8; stroke-linejoin: miter; stroke-linecap: square"/>
   </g>
   <g id="text_15">
    <g id="patch_7">
     <path d="M 205.422909 71.519688 
L 235.015097 71.519688 
L 235.015097 53.841563 
L 205.422909 53.841563 
z
" style="fill: #ffffff; opacity: 0.8; stroke: #000000; stroke-linejoin: miter"/>
    </g>
    <!-- gain -->
    <g transform="translate(209.422909 65.44) scale(0.1 -0.1)">
     <use xlink:href="#DejaVuSans-67"/>
     <use xlink:href="#DejaVuSans-61" x="63.476562"/>
     <use xlink:href="#DejaVuSans-69" x="124.755859"/>
     <use xlink:href="#DejaVuSans-6e" x="152.539062"/>
    </g>
   </g>
   <g id="text_16">
    <g id="patch_8">
     <path d="M 205.422909 129.439688 
L 241.865097 129.439688 
L 241.865097 111.761563 
L 205.422909 111.761563 
z
" style="fill: #ffffff; opacity: 0.8; stroke: #000000; stroke-linejoin: miter"/>
    </g>
    <!-- offset -->
    <g transform="translate(209.422909 123.36) scale(0.1 -0.1)">
     <defs>
      <path id="DejaVuSans-6f" d="M 1959 3097 
Q 1497 3097 1228 2736 
Q 959 2375 959 1747 
Q 959 1119 1226 758 
Q 1494 397 1959 397 
Q 2419 397 2687 759 
Q 2956 1122 2956 1747 
Q 2956 2369 2687 2733 
Q 2419 3097 1959 3097 
z
M 1959 3584 
Q 2709 3584 3137 3096 
Q 3566 2609 3566 1747 
Q 3566 888 3137 398 
Q 2709 -91 1959 -91 
Q 1206 -91 779 398 
Q 353 888 353 1747 
Q 353 2609 779 3096 
Q 1206 3584 1959 3584 
z
" transform="scale(0.015625)"/>
      <path id="DejaVuSans-66" d="M 2375 4863 
L 2375 4384 
L 1825 4384 
Q 1516 4384 1395 4259 
Q 1275 4134 1275 3809 
L 1275 3500 
L 2222 3500 
L 2222 3053 
L 1275 3053 
L 1275 0 
L 697 0 
L 697 3053 
L 147 3053 
L 147 3500 
L 697 3500 
L 697 3744 
Q 697 4328 969 4595 
Q 1241 4863 1831 4863 
L 2375 4863 
z
" transform="scale(0.015625)"/>
     </defs>
     <use xlink:href="#DejaVuSans-6f"/>
     <use xlink:href="#DejaVuSans-66" x="61.181641"/>
     <use xlink:href="#DejaVuSans-66" x="96.386719"/>
     <use xlink:href="#DejaVuSans-73" x="131.591797"/>
     <use xlink:href="#DejaVuSans-65" x="183.691406"/>
     <use xlink:href="#DejaVuSans-74" x="245.214844"/>
    </g>
   </g>
  </g>
 </g>
 <defs>
  <clipPath id="p3eac8b97d7">
   <rect x="47.72" y="14.76" width="301.48" height="159.28"/>
  </clipPath>
 </defs>
</svg>
