<?xml version="1.0" encoding="utf-8" standalone="no"?>
<!DOCTYPE svg PUBLIC "-//W3C//DTD SVG 1.1//EN"
  "http://www.w3.org/Graphics/SVG/1.1/DTD/svg11.dtd">
<svg xmlns:xlink="http://www.w3.org/1999/xlink" width="360pt" height="216pt" viewBox="0 0 360 216" xmlns="http://www.w3.org/2000/svg" version="1.1">
 <metadata>
  <rdf:RDF xmlns:dc="http://purl.org/dc/elements/1.1/" xmlns:cc="http://creativecommons.org/ns#" xmlns:rdf="http://www.w3.org/1999/02/22-rdf-syntax-ns#">
   <cc:Work>
    <dc:type rdf:resource="http://purl.org/dc/dcmitype/StillImage"/>
    <dc:date>2024-12-12T03:41:24.417868</dc:date>
    <dc:format>image/svg+xml</dc:format>
    <dc:creator>
     <cc:Agent>
      <dc:title>Matplotlib v3.7.5, https://matplotlib.org/</dc:title>
     </cc:Agent>
    </dc:creator>
   </cc:Work>
  </rdf:RDF>
 </metadata>
 <defs>
  <style type="text/css">*{stroke-linejoin: round; stroke-linecap: butt}</style>
 </defs>
 <g id="figure_1">
  <g id="patch_1">
   <path d="M 0 216 
L 360 216 
L 360 0 
L 0 0 
z
" style="fill: #ffffff"/>
  </g>
  <g id="axes_1">
   <g id="patch_2">
    <path d="M 47.72 174.04 
L 349.2 174.04 
L 349.2 14.76 
L 47.72 14.76 
z
" style="fill: #ffffff"/>
   </g>
   <g id="matplotlib.axis_1">
    <g id="xtick_1">
     <g id="line2d_1">
      <defs>
       <path id="me57fbe4429" d="M 0 0 
L 0 3.5 
" style="stroke: #000000; stroke-width: 0.8"/>
      </defs>
      <g>
       <use xlink:href="#me57fbe4429" x="61.423636" y="174.04" style="stroke: #000000; stroke-width: 0.8"/>
      </g>
     </g>
     <g id="text_1">
      <!-- 0.0 -->
      <g transform="translate(53.472074 188.638438) scale(0.1 -0.1)">
       <defs>
        <path id="DejaVuSans-30" d="M 2034 4250 
Q 1547 4250 1301 3770 
Q 1056 3291 1056 2328 
Q 1056 1369 1301 889 
Q 1547 409 2034 409 
Q 2525 409 2770 889 
Q 3016 1369 3016 2328 
Q 3016 3291 2770 3770 
Q 2525 4250 2034 4250 
z
M 2034 4750 
Q 2819 4750 3233 4129 
Q 3647 3509 3647 2328 
Q 3647 1150 3233 529 
Q 2819 -91 2034 -91 
Q 1250 -91 836 529 
Q 422 1150 422 2328 
Q 422 3509 836 4129 
Q 1250 4750 2034 4750 
z
" transform="scale(0.015625)"/>
        <path id="DejaVuSans-2e" d="M 684 794 
L 1344 794 
L 1344 0 
L 684 0 
L 684 794 
z
" transform="scale(0.015625)"/>
       </defs>
       <use xlink:href="#DejaVuSans-30"/>
       <use xlink:href="#DejaVuSans-2e" x="63.623047"/>
       <use xlink:href="#DejaVuSans-30" x="95.410156"/>
      </g>
     </g>
    </g>
    <g id="xtick_2">
     <g id="line2d_2">
      <g>
       <use xlink:href="#me57fbe4429" x="116.238182" y="174.04" style="stroke: #000000; stroke-width: 0.8"/>
      </g>
     </g>
     <g id="text_2">
      <!-- 0.2 -->
      <g transform="translate(108.286619 188.638438) scale(0.1 -0.1)">
       <defs>
        <path id="DejaVuSans-32" d="M 1228 531 
L 3431 531 
L 3431 0 
L 469 0 
L 469 531 
Q 828 903 1448 1529 
Q 2069 2156 2228 2338 
Q 2531 2678 2651 2914 
Q 2772 3150 2772 3378 
Q 2772 3750 2511 3984 
Q 2250 4219 1831 4219 
Q 1534 4219 1204 4116 
Q 875 4013 500 3803 
L 500 4441 
Q 881 4594 1212 4672 
Q 1544 4750 1819 4750 
Q 2544 4750 2975 4387 
Q 3406 4025 3406 3419 
Q 3406 3131 3298 2873 
Q 3191 2616 2906 2266 
Q 2828 2175 2409 1742 
Q 1991 1309 1228 531 
z
" transform="scale(0.015625)"/>
       </defs>
       <use xlink:href="#DejaVuSans-30"/>
       <use xlink:href="#DejaVuSans-2e" x="63.623047"/>
       <use xlink:href="#DejaVuSans-32" x="95.410156"/>
      </g>
     </g>
    </g>
    <g id="xtick_3">
     <g id="line2d_3">
      <g>
       <use xlink:href="#me57fbe4429" x="171.052727" y="174.04" style="stroke: #000000; stroke-width: 0.8"/>
      </g>
     </g>
     <g id="text_3">
      <!-- 0.4 -->
      <g transform="translate(163.101165 188.638438) scale(0.1 -0.1)">
       <defs>
        <path id="DejaVuSans-34" d="M 2419 4116 
L 825 1625 
L 2419 1625 
L 2419 4116 
z
M 2253 4666 
L 3047 4666 
L 3047 1625 
L 3713 1625 
L 3713 1100 
L 3047 1100 
L 3047 0 
L 2419 0 
L 2419 1100 
L 313 1100 
L 313 1709 
L 2253 4666 
z
" transform="scale(0.015625)"/>
       </defs>
       <use xlink:href="#DejaVuSans-30"/>
       <use xlink:href="#DejaVuSans-2e" x="63.623047"/>
       <use xlink:href="#DejaVuSans-34" x="95.410156"/>
      </g>
     </g>
    </g>
    <g id="xtick_4">
     <g id="line2d_4">
      <g>
       <use xlink:href="#me57fbe4429" x="225.867273" y="174.04" style="stroke: #000000; stroke-width: 0.8"/>
      </g>
     </g>
     <g id="text_4">
      <!-- 0.6 -->
      <g transform="translate(217.91571 188.638438) scale(0.1 -0.1)">
       <defs>
        <path id="DejaVuSans-36" d="M 2113 2584 
Q 1688 2584 1439 2293 
Q 1191 2003 1191 1497 
Q 1191 994 1439 701 
Q 1688 409 2113 409 
Q 2538 409 2786 701 
Q 3034 994 3034 1497 
Q 3034 2003 2786 2293 
Q 2538 2584 2113 2584 
z
M 3366 4563 
L 3366 3988 
Q 3128 4100 2886 4159 
Q 2644 4219 2406 4219 
Q 1781 4219 1451 3797 
Q 1122 3375 1075 2522 
Q 1259 2794 1537 2939 
Q 1816 3084 2150 3084 
Q 2853 3084 3261 2657 
Q 3669 2231 3669 1497 
Q 3669 778 3244 343 
Q 2819 -91 2113 -91 
Q 1303 -91 875 529 
Q 447 1150 447 2328 
Q 447 3434 972 4092 
Q 1497 4750 2381 4750 
Q 2619 4750 2861 4703 
Q 3103 4656 3366 4563 
z
" transform="scale(0.015625)"/>
       </defs>
       <use xlink:href="#DejaVuSans-30"/>
       <use xlink:href="#DejaVuSans-2e" x="63.623047"/>
       <use xlink:href="#DejaVuSans-36" x="95.410156"/>
      </g>
     </g>
    </g>
    <g id="xtick_5">
     <g id="line2d_5">
      <g>
       <use xlink:href="#me57fbe4429" x="280.681818" y="174.04" style="stroke: #000000; stroke-width: 0.8"/>
      </g>
     </g>
     <g id="text_5">
      <!-- 0.8 -->
      <g transform="translate(272.730256 188.638438) scale(0.1 -0.1)">
       <defs>
        <path id="DejaVuSans-38" d="M 2034 2216 
Q 1584 2216 1326 1975 
Q 1069 1734 1069 1313 
Q 1069 891 1326 650 
Q 1584 409 2034 409 
Q 2484 409 2743 651 
Q 3003 894 3003 1313 
Q 3003 1734 2745 1975 
Q 2488 2216 2034 2216 
z
M 1403 2484 
Q 997 2584 770 2862 
Q 544 3141 544 3541 
Q 544 4100 942 4425 
Q 1341 4750 2034 4750 
Q 2731 4750 3128 4425 
Q 3525 4100 3525 3541 
Q 3525 3141 3298 2862 
Q 3072 2584 2669 2484 
Q 3125 2378 3379 2068 
Q 3634 1759 3634 1313 
Q 3634 634 3220 271 
Q 2806 -91 2034 -91 
Q 1263 -91 848 271 
Q 434 634 434 1313 
Q 434 1759 690 2068 
Q 947 2378 1403 2484 
z
M 1172 3481 
Q 1172 3119 1398 2916 
Q 1625 2713 2034 2713 
Q 2441 2713 2670 2916 
Q 2900 3119 2900 3481 
Q 2900 3844 2670 4047 
Q 2441 4250 2034 4250 
Q 1625 4250 1398 4047 
Q 1172 3844 1172 3481 
z
" transform="scale(0.015625)"/>
       </defs>
       <use xlink:href="#DejaVuSans-30"/>
       <use xlink:href="#DejaVuSans-2e" x="63.623047"/>
       <use xlink:href="#DejaVuSans-38" x="95.410156"/>
      </g>
     </g>
    </g>
    <g id="xtick_6">
     <g id="line2d_6">
      <g>
       <use xlink:href="#me57fbe4429" x="335.496364" y="174.04" style="stroke: #000000; stroke-width: 0.8"/>
      </g>
     </g>
     <g id="text_6">
      <!-- 1.0 -->
      <g transform="translate(327.544801 188.638438) scale(0.1 -0.1)">
       <defs>
        <path id="DejaVuSans-31" d="M 794 531 
L 1825 531 
L 1825 4091 
L 703 3866 
L 703 4441 
L 1819 4666 
L 2450 4666 
L 2450 531 
L 3481 531 
L 3481 0 
L 794 0 
L 794 531 
z
" transform="scale(0.015625)"/>
       </defs>
       <use xlink:href="#DejaVuSans-31"/>
       <use xlink:href="#DejaVuSans-2e" x="63.623047"/>
       <use xlink:href="#DejaVuSans-30" x="95.410156"/>
      </g>
     </g>
    </g>
    <g id="text_7">
     <!-- Time (sec) -->
     <g transform="translate(172.305312 202.316563) scale(0.1 -0.1)">
      <defs>
       <path id="DejaVuSans-54" d="M -19 4666 
L 3928 4666 
L 3928 4134 
L 2272 4134 
L 2272 0 
L 1638 0 
L 1638 4134 
L -19 4134 
L -19 4666 
z
" transform="scale(0.015625)"/>
       <path id="DejaVuSans-69" d="M 603 3500 
L 1178 3500 
L 1178 0 
L 603 0 
L 603 3500 
z
M 603 4863 
L 1178 4863 
L 1178 4134 
L 603 4134 
L 603 4863 
z
" transform="scale(0.015625)"/>
       <path id="DejaVuSans-6d" d="M 3328 2828 
Q 3544 3216 3844 3400 
Q 4144 3584 4550 3584 
Q 5097 3584 5394 3201 
Q 5691 2819 5691 2113 
L 5691 0 
L 5113 0 
L 5113 2094 
Q 5113 2597 4934 2840 
Q 4756 3084 4391 3084 
Q 3944 3084 3684 2787 
Q 3425 2491 3425 1978 
L 3425 0 
L 2847 0 
L 2847 2094 
Q 2847 2600 2669 2842 
Q 2491 3084 2119 3084 
Q 1678 3084 1418 2786 
Q 1159 2488 1159 1978 
L 1159 0 
L 581 0 
L 581 3500 
L 1159 3500 
L 1159 2956 
Q 1356 3278 1631 3431 
Q 1906 3584 2284 3584 
Q 2666 3584 2933 3390 
Q 3200 3197 3328 2828 
z
" transform="scale(0.015625)"/>
       <path id="DejaVuSans-65" d="M 3597 1894 
L 3597 1613 
L 953 1613 
Q 991 1019 1311 708 
Q 1631 397 2203 397 
Q 2534 397 2845 478 
Q 3156 559 3463 722 
L 3463 178 
Q 3153 47 2828 -22 
Q 2503 -91 2169 -91 
Q 1331 -91 842 396 
Q 353 884 353 1716 
Q 353 2575 817 3079 
Q 1281 3584 2069 3584 
Q 2775 3584 3186 3129 
Q 3597 2675 3597 1894 
z
M 3022 2063 
Q 3016 2534 2758 2815 
Q 2500 3097 2075 3097 
Q 1594 3097 1305 2825 
Q 1016 2553 972 2059 
L 3022 2063 
z
" transform="scale(0.015625)"/>
       <path id="DejaVuSans-20" transform="scale(0.015625)"/>
       <path id="DejaVuSans-28" d="M 1984 4856 
Q 1566 4138 1362 3434 
Q 1159 2731 1159 2009 
Q 1159 1288 1364 580 
Q 1569 -128 1984 -844 
L 1484 -844 
Q 1016 -109 783 600 
Q 550 1309 550 2009 
Q 550 2706 781 3412 
Q 1013 4119 1484 4856 
L 1984 4856 
z
" transform="scale(0.015625)"/>
       <path id="DejaVuSans-73" d="M 2834 3397 
L 2834 2853 
Q 2591 2978 2328 3040 
Q 2066 3103 1784 3103 
Q 1356 3103 1142 2972 
Q 928 2841 928 2578 
Q 928 2378 1081 2264 
Q 1234 2150 1697 2047 
L 1894 2003 
Q 2506 1872 2764 1633 
Q 3022 1394 3022 966 
Q 3022 478 2636 193 
Q 2250 -91 1575 -91 
Q 1294 -91 989 -36 
Q 684 19 347 128 
L 347 722 
Q 666 556 975 473 
Q 1284 391 1588 391 
Q 1994 391 2212 530 
Q 2431 669 2431 922 
Q 2431 1156 2273 1281 
Q 2116 1406 1581 1522 
L 1381 1569 
Q 847 1681 609 1914 
Q 372 2147 372 2553 
Q 372 3047 722 3315 
Q 1072 3584 1716 3584 
Q 2034 3584 2315 3537 
Q 2597 3491 2834 3397 
z
" transform="scale(0.015625)"/>
       <path id="DejaVuSans-63" d="M 3122 3366 
L 3122 2828 
Q 2878 2963 2633 3030 
Q 2388 3097 2138 3097 
Q 1578 3097 1268 2742 
Q 959 2388 959 1747 
Q 959 1106 1268 751 
Q 1578 397 2138 397 
Q 2388 397 2633 464 
Q 2878 531 3122 666 
L 3122 134 
Q 2881 22 2623 -34 
Q 2366 -91 2075 -91 
Q 1284 -91 818 406 
Q 353 903 353 1747 
Q 353 2603 823 3093 
Q 1294 3584 2113 3584 
Q 2378 3584 2631 3529 
Q 2884 3475 3122 3366 
z
" transform="scale(0.015625)"/>
       <path id="DejaVuSans-29" d="M 513 4856 
L 1013 4856 
Q 1481 4119 1714 3412 
Q 1947 2706 1947 2009 
Q 1947 1309 1714 600 
Q 1481 -109 1013 -844 
L 513 -844 
Q 928 -128 1133 580 
Q 1338 1288 1338 2009 
Q 1338 2731 1133 3434 
Q 928 4138 513 4856 
z
" transform="scale(0.015625)"/>
      </defs>
      <use xlink:href="#DejaVuSans-54"/>
      <use xlink:href="#DejaVuSans-69" x="57.958984"/>
      <use xlink:href="#DejaVuSans-6d" x="85.742188"/>
      <use xlink:href="#DejaVuSans-65" x="183.154297"/>
      <use xlink:href="#DejaVuSans-20" x="244.677734"/>
      <use xlink:href="#DejaVuSans-28" x="276.464844"/>
      <use xlink:href="#DejaVuSans-73" x="315.478516"/>
      <use xlink:href="#DejaVuSans-65" x="367.578125"/>
      <use xlink:href="#DejaVuSans-63" x="429.101562"/>
      <use xlink:href="#DejaVuSans-29" x="484.082031"/>
     </g>
    </g>
   </g>
   <g id="matplotlib.axis_2">
    <g id="ytick_1">
     <g id="line2d_7">
      <defs>
       <path id="m9b07d5b4bc" d="M 0 0 
L -3.5 0 
" style="stroke: #000000; stroke-width: 0.8"/>
      </defs>
      <g>
       <use xlink:href="#m9b07d5b4bc" x="47.72" y="159.56" style="stroke: #000000; stroke-width: 0.8"/>
      </g>
     </g>
     <g id="text_8">
      <!-- 0.0 -->
      <g transform="translate(24.816875 163.359219) scale(0.1 -0.1)">
       <use xlink:href="#DejaVuSans-30"/>
       <use xlink:href="#DejaVuSans-2e" x="63.623047"/>
       <use xlink:href="#DejaVuSans-30" x="95.410156"/>
      </g>
     </g>
    </g>
    <g id="ytick_2">
     <g id="line2d_8">
      <g>
       <use xlink:href="#m9b07d5b4bc" x="47.72" y="130.6" style="stroke: #000000; stroke-width: 0.8"/>
      </g>
     </g>
     <g id="text_9">
      <!-- 0.2 -->
      <g transform="translate(24.816875 134.399219) scale(0.1 -0.1)">
       <use xlink:href="#DejaVuSans-30"/>
       <use xlink:href="#DejaVuSans-2e" x="63.623047"/>
       <use xlink:href="#DejaVuSans-32" x="95.410156"/>
      </g>
     </g>
    </g>
    <g id="ytick_3">
     <g id="line2d_9">
      <g>
       <use xlink:href="#m9b07d5b4bc" x="47.72" y="101.64" style="stroke: #000000; stroke-width: 0.8"/>
      </g>
     </g>
     <g id="text_10">
      <!-- 0.4 -->
      <g transform="translate(24.816875 105.439219) scale(0.1 -0.1)">
       <use xlink:href="#DejaVuSans-30"/>
       <use xlink:href="#DejaVuSans-2e" x="63.623047"/>
       <use xlink:href="#DejaVuSans-34" x="95.410156"/>
      </g>
     </g>
    </g>
    <g id="ytick_4">
     <g id="line2d_10">
      <g>
       <use xlink:href="#m9b07d5b4bc" x="47.72" y="72.68" style="stroke: #000000; stroke-width: 0.8"/>
      </g>
     </g>
     <g id="text_11">
      <!-- 0.6 -->
      <g transform="translate(24.816875 76.479219) scale(0.1 -0.1)">
       <use xlink:href="#DejaVuSans-30"/>
       <use xlink:href="#DejaVuSans-2e" x="63.623047"/>
       <use xlink:href="#DejaVuSans-36" x="95.410156"/>
      </g>
     </g>
    </g>
    <g id="ytick_5">
     <g id="line2d_11">
      <g>
       <use xlink:href="#m9b07d5b4bc" x="47.72" y="43.72" style="stroke: #000000; stroke-width: 0.8"/>
      </g>
     </g>
     <g id="text_12">
      <!-- 0.8 -->
      <g transform="translate(24.816875 47.519219) scale(0.1 -0.1)">
       <use xlink:href="#DejaVuSans-30"/>
       <use xlink:href="#DejaVuSans-2e" x="63.623047"/>
       <use xlink:href="#DejaVuSans-38" x="95.410156"/>
      </g>
     </g>
    </g>
    <g id="ytick_6">
     <g id="line2d_12">
      <g>
       <use xlink:href="#m9b07d5b4bc" x="47.72" y="14.76" style="stroke: #000000; stroke-width: 0.8"/>
      </g>
     </g>
     <g id="text_13">
      <!-- 1.0 -->
      <g transform="translate(24.816875 18.559219) scale(0.1 -0.1)">
       <use xlink:href="#DejaVuSans-31"/>
       <use xlink:href="#DejaVuSans-2e" x="63.623047"/>
       <use xlink:href="#DejaVuSans-30" x="95.410156"/>
      </g>
     </g>
    </g>
    <g id="text_14">
     <!-- Injected Signal -->
     <g transform="translate(18.737188 131.417969) rotate(-90) scale(0.1 -0.1)">
      <defs>
       <path id="DejaVuSans-49" d="M 628 4666 
L 1259 4666 
L 1259 0 
L 628 0 
L 628 4666 
z
" transform="scale(0.015625)"/>
       <path id="DejaVuSans-6e" d="M 3513 2113 
L 3513 0 
L 2938 0 
L 2938 2094 
Q 2938 2591 2744 2837 
Q 2550 3084 2163 3084 
Q 1697 3084 1428 2787 
Q 1159 2491 1159 1978 
L 1159 0 
L 581 0 
L 581 3500 
L 1159 3500 
L 1159 2956 
Q 1366 3272 1645 3428 
Q 1925 3584 2291 3584 
Q 2894 3584 3203 3211 
Q 3513 2838 3513 2113 
z
" transform="scale(0.015625)"/>
       <path id="DejaVuSans-6a" d="M 603 3500 
L 1178 3500 
L 1178 -63 
Q 1178 -731 923 -1031 
Q 669 -1331 103 -1331 
L -116 -1331 
L -116 -844 
L 38 -844 
Q 366 -844 484 -692 
Q 603 -541 603 -63 
L 603 3500 
z
M 603 4863 
L 1178 4863 
L 1178 4134 
L 603 4134 
L 603 4863 
z
" transform="scale(0.015625)"/>
       <path id="DejaVuSans-74" d="M 1172 4494 
L 1172 3500 
L 2356 3500 
L 2356 3053 
L 1172 3053 
L 1172 1153 
Q 1172 725 1289 603 
Q 1406 481 1766 481 
L 2356 481 
L 2356 0 
L 1766 0 
Q 1100 0 847 248 
Q 594 497 594 1153 
L 594 3053 
L 172 3053 
L 172 3500 
L 594 3500 
L 594 4494 
L 1172 4494 
z
" transform="scale(0.015625)"/>
       <path id="DejaVuSans-64" d="M 2906 2969 
L 2906 4863 
L 3481 4863 
L 3481 0 
L 2906 0 
L 2906 525 
Q 2725 213 2448 61 
Q 2172 -91 1784 -91 
Q 1150 -91 751 415 
Q 353 922 353 1747 
Q 353 2572 751 3078 
Q 1150 3584 1784 3584 
Q 2172 3584 2448 3432 
Q 2725 3281 2906 2969 
z
M 947 1747 
Q 947 1113 1208 752 
Q 1469 391 1925 391 
Q 2381 391 2643 752 
Q 2906 1113 2906 1747 
Q 2906 2381 2643 2742 
Q 2381 3103 1925 3103 
Q 1469 3103 1208 2742 
Q 947 2381 947 1747 
z
" transform="scale(0.015625)"/>
       <path id="DejaVuSans-53" d="M 3425 4513 
L 3425 3897 
Q 3066 4069 2747 4153 
Q 2428 4238 2131 4238 
Q 1616 4238 1336 4038 
Q 1056 3838 1056 3469 
Q 1056 3159 1242 3001 
Q 1428 2844 1947 2747 
L 2328 2669 
Q 3034 2534 3370 2195 
Q 3706 1856 3706 1288 
Q 3706 609 3251 259 
Q 2797 -91 1919 -91 
Q 1588 -91 1214 -16 
Q 841 59 441 206 
L 441 856 
Q 825 641 1194 531 
Q 1563 422 1919 422 
Q 2459 422 2753 634 
Q 3047 847 3047 1241 
Q 3047 1584 2836 1778 
Q 2625 1972 2144 2069 
L 1759 2144 
Q 1053 2284 737 2584 
Q 422 2884 422 3419 
Q 422 4038 858 4394 
Q 1294 4750 2059 4750 
Q 2388 4750 2728 4690 
Q 3069 4631 3425 4513 
z
" transform="scale(0.015625)"/>
       <path id="DejaVuSans-67" d="M 2906 1791 
Q 2906 2416 2648 2759 
Q 2391 3103 1925 3103 
Q 1463 3103 1205 2759 
Q 947 2416 947 1791 
Q 947 1169 1205 825 
Q 1463 481 1925 481 
Q 2391 481 2648 825 
Q 2906 1169 2906 1791 
z
M 3481 434 
Q 3481 -459 3084 -895 
Q 2688 -1331 1869 -1331 
Q 1566 -1331 1297 -1286 
Q 1028 -1241 775 -1147 
L 775 -588 
Q 1028 -725 1275 -790 
Q 1522 -856 1778 -856 
Q 2344 -856 2625 -561 
Q 2906 -266 2906 331 
L 2906 616 
Q 2728 306 2450 153 
Q 2172 0 1784 0 
Q 1141 0 747 490 
Q 353 981 353 1791 
Q 353 2603 747 3093 
Q 1141 3584 1784 3584 
Q 2172 3584 2450 3431 
Q 2728 3278 2906 2969 
L 2906 3500 
L 3481 3500 
L 3481 434 
z
" transform="scale(0.015625)"/>
       <path id="DejaVuSans-61" d="M 2194 1759 
Q 1497 1759 1228 1600 
Q 959 1441 959 1056 
Q 959 750 1161 570 
Q 1363 391 1709 391 
Q 2188 391 2477 730 
Q 2766 1069 2766 1631 
L 2766 1759 
L 2194 1759 
z
M 3341 1997 
L 3341 0 
L 2766 0 
L 2766 531 
Q 2569 213 2275 61 
Q 1981 -91 1556 -91 
Q 1019 -91 701 211 
Q 384 513 384 1019 
Q 384 1609 779 1909 
Q 1175 2209 1959 2209 
L 2766 2209 
L 2766 2266 
Q 2766 2663 2505 2880 
Q 2244 3097 1772 3097 
Q 1472 3097 1187 3025 
Q 903 2953 641 2809 
L 641 3341 
Q 956 3463 1253 3523 
Q 1550 3584 1831 3584 
Q 2591 3584 2966 3190 
Q 3341 2797 3341 1997 
z
" transform="scale(0.015625)"/>
       <path id="DejaVuSans-6c" d="M 603 4863 
L 1178 4863 
L 1178 0 
L 603 0 
L 603 4863 
z
" transform="scale(0.015625)"/>
      </defs>
      <use xlink:href="#DejaVuSans-49"/>
      <use xlink:href="#DejaVuSans-6e" x="29.492188"/>
      <use xlink:href="#DejaVuSans-6a" x="92.871094"/>
      <use xlink:href="#DejaVuSans-65" x="120.654297"/>
      <use xlink:href="#DejaVuSans-63" x="182.177734"/>
      <use xlink:href="#DejaVuSans-74" x="237.158203"/>
      <use xlink:href="#DejaVuSans-65" x="276.367188"/>
      <use xlink:href="#DejaVuSans-64" x="337.890625"/>
      <use xlink:href="#DejaVuSans-20" x="401.367188"/>
      <use xlink:href="#DejaVuSans-53" x="433.154297"/>
      <use xlink:href="#DejaVuSans-69" x="496.630859"/>
      <use xlink:href="#DejaVuSans-67" x="524.414062"/>
      <use xlink:href="#DejaVuSans-6e" x="587.890625"/>
      <use xlink:href="#DejaVuSans-61" x="651.269531"/>
      <use xlink:href="#DejaVuSans-6c" x="712.548828"/>
     </g>
    </g>
   </g>
   <g id="line2d_13">
    <path d="M 61.423636 69.464653 
L 61.697709 62.124017 
L 61.971782 92.341574 
L 62.245855 56.114524 
L 62.519927 76.29481 
L 62.794 120.452783 
L 63.342145 66.319023 
L 63.616218 99.770683 
L 63.890291 64.090703 
L 64.164364 107.284645 
L 64.438436 121.263697 
L 64.712509 110.050715 
L 64.986582 44.841239 
L 65.260655 95.680424 
L 65.534727 118.207931 
L 65.8088 107.327755 
L 66.356945 47.722325 
L 66.631018 102.143562 
L 66.905091 101.871307 
L 67.179164 83.039772 
L 67.453236 46.088791 
L 67.727309 74.129736 
L 68.001382 55.122144 
L 68.275455 108.900846 
L 68.549527 80.530737 
L 68.8236 119.186235 
L 69.097673 64.172657 
L 69.371745 124.640175 
L 69.645818 105.910784 
L 69.919891 60.544131 
L 70.193964 93.767675 
L 70.468036 104.483243 
L 70.742109 121.75691 
L 71.016182 114.024907 
L 71.290255 50.878841 
L 71.564327 72.801194 
L 71.8384 77.352183 
L 72.112473 93.960886 
L 72.386545 56.982587 
L 72.934691 112.364259 
L 73.208764 124.181621 
L 73.482836 104.282996 
L 73.756909 116.882566 
L 74.030982 46.48353 
L 74.305055 97.836691 
L 74.579127 74.641223 
L 74.8532 123.205375 
L 75.127273 51.809001 
L 75.401345 47.482367 
L 75.675418 62.055778 
L 76.223564 113.221777 
L 76.771709 108.502633 
L 77.045782 46.882825 
L 77.319855 121.910649 
L 77.593927 72.993322 
L 77.868 51.758412 
L 78.142073 128.967678 
L 78.416145 76.765001 
L 78.690218 101.004385 
L 78.964291 106.82826 
L 79.238364 74.928955 
L 79.786509 128.197455 
L 80.060582 116.527167 
L 80.334655 112.901892 
L 80.608727 45.527399 
L 80.8828 101.257189 
L 81.156873 49.891295 
L 81.705018 120.021908 
L 81.979091 58.459975 
L 82.253164 61.719789 
L 82.527236 118.455563 
L 82.801309 114.142382 
L 83.075382 93.770704 
L 83.349455 106.032776 
L 83.623527 87.230517 
L 83.8976 113.723787 
L 84.171673 49.610128 
L 84.445745 129.011324 
L 84.719818 122.794757 
L 84.993891 91.221957 
L 85.267964 90.624646 
L 85.542036 74.488936 
L 85.816109 87.637577 
L 86.090182 85.094621 
L 86.364255 64.702085 
L 86.638327 129.698576 
L 86.9124 82.805163 
L 87.186473 113.455124 
L 87.460545 116.265088 
L 87.734618 96.464037 
L 88.008691 64.47958 
L 88.282764 49.750271 
L 88.556836 60.557343 
L 88.830909 56.939766 
L 89.104982 70.251321 
L 89.379055 93.28148 
L 89.653127 60.441031 
L 89.9272 84.383721 
L 90.201273 126.147244 
L 90.475345 63.78985 
L 90.749418 59.783403 
L 91.023491 44.592181 
L 91.297564 89.074815 
L 91.571636 70.766643 
L 92.119782 113.663221 
L 92.393855 94.418919 
L 92.667927 122.204394 
L 92.942 63.745193 
L 93.216073 99.312555 
L 93.490145 78.118779 
L 93.764218 117.312178 
L 94.312364 53.743932 
L 94.586436 110.782898 
L 94.860509 106.587555 
L 95.134582 129.890549 
L 95.408655 59.345082 
L 95.682727 122.701381 
L 95.9568 76.301099 
L 96.230873 99.854947 
L 96.504945 55.926883 
L 96.779018 80.113612 
L 97.053091 71.731828 
L 97.327164 113.481185 
L 97.601236 105.834341 
L 97.875309 55.111869 
L 98.149382 115.64677 
L 98.423455 80.455118 
L 98.697527 65.564133 
L 98.9716 101.536144 
L 99.245673 59.304148 
L 99.519745 47.531133 
L 99.793818 53.254805 
L 100.067891 99.909262 
L 100.341964 84.789783 
L 100.616036 99.969486 
L 100.890109 81.507573 
L 101.164182 129.831799 
L 101.438255 52.511785 
L 101.712327 108.768235 
L 101.9864 80.074815 
L 102.260473 125.746699 
L 102.534545 115.369379 
L 102.808618 47.486966 
L 103.082691 97.345523 
L 103.356764 68.906183 
L 103.630836 123.018846 
L 103.904909 103.870187 
L 104.178982 110.671251 
L 104.453055 111.138272 
L 104.727127 108.340722 
L 105.0012 120.958384 
L 105.275273 73.500395 
L 105.549345 79.106245 
L 105.823418 88.778184 
L 106.097491 74.184139 
L 106.371564 120.532417 
L 106.645636 98.456437 
L 106.919709 94.423249 
L 107.193782 55.674372 
L 107.467855 105.618478 
L 107.741927 96.787428 
L 108.016 78.408996 
L 108.290073 89.414505 
L 108.564145 53.053014 
L 108.838218 94.450081 
L 109.386364 68.447012 
L 109.660436 119.885476 
L 109.934509 84.085227 
L 110.208582 113.573733 
L 110.482655 61.428554 
L 110.756727 129.320093 
L 111.0308 125.101806 
L 111.304873 87.256517 
L 111.578945 74.107073 
L 111.853018 102.324953 
L 112.127091 88.194341 
L 112.401164 116.359479 
L 112.675236 49.491613 
L 112.949309 108.458029 
L 113.223382 44.23656 
L 113.497455 126.43403 
L 113.771527 98.614973 
L 114.0456 48.329323 
L 114.319673 96.2506 
L 114.593745 93.725477 
L 114.867818 73.63796 
L 115.141891 116.634402 
L 115.415964 90.932826 
L 115.690036 84.899438 
L 115.964109 53.331946 
L 116.238182 86.221486 
L 116.512255 52.336902 
L 116.786327 101.963795 
L 117.0604 43.965209 
L 117.334473 90.34487 
L 117.608545 79.438311 
L 117.882618 83.884732 
L 118.156691 125.245316 
L 118.430764 67.35732 
L 118.704836 118.655602 
L 118.978909 50.801418 
L 119.252982 62.107801 
L 119.527055 53.190612 
L 119.801127 97.956224 
L 120.0752 111.103871 
L 120.349273 116.069703 
L 120.623345 71.438848 
L 120.897418 92.507622 
L 121.171491 63.93056 
L 121.445564 126.186897 
L 121.719636 129.874838 
L 121.993709 127.379117 
L 122.267782 82.316483 
L 122.541855 102.698189 
L 122.815927 85.914549 
L 123.09 91.441882 
L 123.364073 100.717439 
L 123.638145 74.008236 
L 123.912218 94.982111 
L 124.186291 51.810476 
L 124.460364 65.607633 
L 124.734436 128.920044 
L 125.008509 126.896771 
L 125.282582 91.119057 
L 125.556655 105.41249 
L 125.830727 90.871992 
L 126.1048 55.883555 
L 126.378873 65.210356 
L 126.652945 48.27206 
L 126.927018 98.866644 
L 127.201091 73.375703 
L 127.475164 109.407061 
L 127.749236 100.911675 
L 128.023309 122.193258 
L 128.297382 119.949787 
L 128.571455 90.535601 
L 128.845527 123.484932 
L 129.1196 54.165339 
L 129.393673 125.673731 
L 129.667745 76.685538 
L 129.941818 114.549002 
L 130.215891 51.854097 
L 130.489964 123.558491 
L 130.764036 84.76999 
L 131.038109 66.882681 
L 131.312182 113.16049 
L 131.586255 96.544695 
L 131.860327 69.257382 
L 132.1344 117.216147 
L 132.408473 53.546849 
L 132.682545 87.77872 
L 132.956618 97.135147 
L 133.230691 129.002633 
L 133.504764 91.316374 
L 133.778836 129.854766 
L 134.052909 76.564703 
L 134.326982 120.368253 
L 134.601055 55.176156 
L 134.875127 56.759703 
L 135.1492 47.503729 
L 135.697345 114.893129 
L 135.971418 73.258084 
L 136.245491 128.315712 
L 136.519564 122.211696 
L 136.793636 99.228477 
L 137.067709 63.28733 
L 137.341782 87.659954 
L 137.615855 128.883056 
L 137.889927 119.208832 
L 138.164 71.222797 
L 138.438073 103.937943 
L 138.986218 46.357292 
L 139.260291 121.235198 
L 139.534364 45.150224 
L 139.808436 100.71965 
L 140.082509 51.686122 
L 140.356582 44.791833 
L 140.630655 46.417591 
L 140.904727 130.084417 
L 141.1788 116.958874 
L 141.452873 95.833063 
L 141.726945 49.875688 
L 142.001018 118.352143 
L 142.275091 101.809747 
L 142.549164 99.271922 
L 142.823236 86.600941 
L 143.097309 67.097327 
L 143.371382 113.729943 
L 143.645455 57.508656 
L 143.919527 120.820241 
L 144.1936 72.71119 
L 144.467673 98.42894 
L 144.741745 64.257747 
L 145.015818 111.671323 
L 145.289891 64.995848 
L 145.563964 123.929216 
L 145.838036 57.19271 
L 146.386182 112.484395 
L 146.660255 76.515956 
L 146.934327 56.421626 
L 147.2084 90.213097 
L 147.482473 69.329494 
L 148.030618 120.992225 
L 148.304691 121.789188 
L 148.578764 77.186155 
L 148.852836 119.557885 
L 149.126909 126.126966 
L 149.400982 70.29133 
L 149.675055 85.740518 
L 149.949127 126.067083 
L 150.2232 47.224198 
L 150.497273 97.140182 
L 150.771345 48.270868 
L 151.319491 86.461526 
L 151.593564 74.747612 
L 151.867636 82.229989 
L 152.141709 82.973502 
L 152.415782 78.855874 
L 152.689855 117.403884 
L 152.963927 67.841597 
L 153.238 88.855154 
L 153.512073 65.110226 
L 153.786145 56.840578 
L 154.060218 54.416054 
L 154.608364 124.237968 
L 154.882436 60.077165 
L 155.156509 63.59955 
L 155.430582 83.208994 
L 155.704655 52.184429 
L 155.978727 55.184543 
L 156.2528 125.216882 
L 156.526873 89.867035 
L 156.800945 128.505443 
L 157.075018 47.745848 
L 157.349091 60.166332 
L 157.623164 101.12591 
L 157.897236 62.895184 
L 158.171309 88.155052 
L 158.445382 52.881538 
L 158.719455 59.518542 
L 158.993527 103.628091 
L 159.2676 68.709201 
L 159.815745 52.016976 
L 160.089818 123.384417 
L 160.363891 122.612824 
L 160.637964 82.336091 
L 160.912036 79.622886 
L 161.186109 83.258609 
L 161.460182 49.680922 
L 161.734255 66.695014 
L 162.008327 56.859266 
L 162.556473 105.936998 
L 162.830545 67.473909 
L 163.378691 108.546861 
L 163.926836 67.995496 
L 164.200909 87.219559 
L 164.749055 61.308544 
L 165.023127 85.449571 
L 165.2972 79.756619 
L 165.571273 50.427328 
L 165.845345 51.299072 
L 166.119418 58.13135 
L 166.393491 93.957441 
L 166.667564 72.73911 
L 166.941636 76.366001 
L 167.215709 130.197369 
L 167.489782 69.737581 
L 167.763855 53.297346 
L 168.037927 70.754418 
L 168.586073 56.608606 
L 168.860145 73.913641 
L 169.134218 70.157481 
L 169.408291 126.156006 
L 169.682364 114.486601 
L 169.956436 64.488333 
L 170.230509 121.563714 
L 170.504582 83.746901 
L 170.778655 126.435549 
L 171.052727 62.518404 
L 171.3268 44.606836 
L 171.600873 74.524412 
L 171.874945 54.203768 
L 172.149018 91.113458 
L 172.697164 54.253853 
L 172.971236 50.759464 
L 173.245309 54.448032 
L 173.519382 72.734186 
L 173.793455 43.765935 
L 174.067527 49.434857 
L 174.3416 69.574318 
L 174.889745 118.413375 
L 175.163818 117.729695 
L 175.437891 112.451995 
L 175.711964 52.713222 
L 175.986036 48.018098 
L 176.260109 90.41123 
L 176.534182 83.336864 
L 176.808255 124.10596 
L 177.082327 46.224571 
L 177.3564 103.6344 
L 177.904545 45.424369 
L 178.178618 84.423833 
L 178.452691 86.146136 
L 179.000836 56.625607 
L 179.274909 124.309179 
L 179.548982 105.615237 
L 179.823055 75.070911 
L 180.097127 97.893277 
L 180.3712 78.54125 
L 180.645273 90.368984 
L 180.919345 66.416533 
L 181.193418 125.070685 
L 182.015636 45.507027 
L 182.289709 109.616226 
L 182.563782 81.930267 
L 183.111927 128.60221 
L 183.386 54.625652 
L 183.660073 123.74726 
L 183.934145 107.623608 
L 184.208218 107.669529 
L 184.482291 105.665419 
L 184.756364 59.754231 
L 185.030436 45.15551 
L 185.304509 93.000087 
L 185.578582 98.737695 
L 185.852655 93.462019 
L 186.126727 81.703898 
L 186.4008 85.100656 
L 186.674873 61.999215 
L 186.948945 66.477185 
L 187.223018 75.409755 
L 187.497091 46.98102 
L 187.771164 46.454728 
L 188.045236 104.284989 
L 188.319309 62.355491 
L 188.593382 48.831533 
L 188.867455 114.590033 
L 189.141527 127.516596 
L 189.4156 71.670947 
L 189.689673 124.869194 
L 189.963745 93.560782 
L 190.237818 112.362722 
L 190.511891 84.699224 
L 190.785964 112.315991 
L 191.060036 115.297743 
L 191.334109 55.613966 
L 191.608182 64.309672 
L 191.882255 82.143123 
L 192.156327 118.868508 
L 192.4304 57.765322 
L 193.252618 121.959509 
L 193.526691 47.942674 
L 193.800764 106.20967 
L 194.074836 45.67708 
L 194.348909 48.436594 
L 194.622982 99.780177 
L 194.897055 50.884792 
L 195.171127 78.453634 
L 195.4452 48.694054 
L 195.719273 121.371298 
L 195.993345 44.10273 
L 196.541491 98.02378 
L 196.815564 61.723996 
L 197.089636 123.212029 
L 197.363709 67.67666 
L 197.637782 80.659604 
L 197.911855 67.333076 
L 198.185927 81.82467 
L 198.46 106.601453 
L 198.734073 70.472559 
L 199.008145 127.180203 
L 199.282218 50.156905 
L 199.556291 81.099178 
L 199.830364 60.263199 
L 200.104436 85.705038 
L 200.378509 85.769652 
L 200.652582 130.011618 
L 200.926655 77.74929 
L 201.200727 53.240087 
L 201.4748 65.735385 
L 201.748873 47.726303 
L 202.297018 93.119353 
L 202.571091 100.007221 
L 202.845164 120.416417 
L 203.119236 111.531264 
L 203.393309 128.714595 
L 203.667382 118.827253 
L 203.941455 52.928171 
L 204.4896 83.517421 
L 204.763673 85.019904 
L 205.037745 101.225432 
L 205.311818 75.348626 
L 205.585891 101.53219 
L 205.859964 113.939938 
L 206.134036 87.466597 
L 206.408109 45.023367 
L 206.682182 81.514261 
L 206.956255 72.079108 
L 207.230327 89.420471 
L 207.5044 114.177975 
L 207.778473 114.887279 
L 208.052545 76.63596 
L 208.326618 79.411149 
L 208.600691 78.998249 
L 208.874764 123.755796 
L 209.148836 85.840488 
L 209.422909 76.291229 
L 209.696982 84.394353 
L 209.971055 44.059685 
L 210.5192 97.892837 
L 210.793273 84.83891 
L 211.067345 104.237816 
L 211.341418 46.482703 
L 211.889564 72.609386 
L 212.163636 127.093543 
L 212.437709 103.219715 
L 212.711782 89.421282 
L 212.985855 121.932719 
L 213.259927 58.233396 
L 213.534 99.24627 
L 213.808073 48.197114 
L 214.082145 101.360426 
L 214.356218 130.420228 
L 214.904364 50.824282 
L 215.452509 103.681454 
L 215.726582 88.813678 
L 216.000655 48.850754 
L 216.274727 66.091459 
L 216.5488 74.45002 
L 216.822873 92.817819 
L 217.096945 69.760803 
L 217.371018 94.287495 
L 217.645091 94.068036 
L 217.919164 89.109811 
L 218.193236 78.528107 
L 218.467309 124.379566 
L 218.741382 75.448648 
L 219.015455 119.74934 
L 219.289527 126.563699 
L 219.5636 124.871605 
L 219.837673 106.017068 
L 220.111745 119.780416 
L 220.385818 68.138058 
L 220.659891 75.056048 
L 220.933964 109.32156 
L 221.208036 63.777753 
L 221.482109 102.81573 
L 221.756182 100.805069 
L 222.304327 119.117564 
L 222.5784 74.684738 
L 222.852473 53.552453 
L 223.126545 60.985364 
L 223.400618 49.04848 
L 223.674691 46.013057 
L 223.948764 75.721792 
L 224.222836 67.59283 
L 224.496909 107.117297 
L 224.770982 77.469188 
L 225.045055 98.628579 
L 225.319127 52.08814 
L 225.5932 73.07767 
L 225.867273 69.861029 
L 226.141345 87.777001 
L 226.415418 50.418128 
L 226.689491 99.444439 
L 227.237636 50.260724 
L 227.511709 77.015812 
L 227.785782 121.781525 
L 228.059855 109.682059 
L 228.333927 107.88642 
L 228.608 60.082155 
L 228.882073 129.530214 
L 229.156145 79.073278 
L 229.704291 109.222314 
L 229.978364 98.793186 
L 230.252436 67.24522 
L 230.526509 69.409983 
L 230.800582 66.757946 
L 231.074655 117.68311 
L 231.348727 62.227616 
L 231.6228 81.488528 
L 231.896873 43.922166 
L 232.170945 44.558435 
L 232.445018 105.349984 
L 232.719091 102.031925 
L 232.993164 73.56844 
L 233.267236 127.120268 
L 233.541309 61.81686 
L 233.815382 59.702443 
L 234.089455 54.361339 
L 234.363527 43.803221 
L 234.6376 64.658879 
L 234.911673 58.026964 
L 235.185745 119.120669 
L 235.459818 88.344131 
L 235.733891 90.587331 
L 236.007964 119.899292 
L 236.556109 45.033874 
L 236.830182 52.15884 
L 237.104255 113.267288 
L 237.378327 101.142431 
L 237.6524 112.571846 
L 237.926473 66.08934 
L 238.200545 104.047604 
L 238.474618 108.589232 
L 238.748691 59.803991 
L 239.022764 85.140637 
L 239.296836 54.403532 
L 239.570909 118.730726 
L 239.844982 112.672045 
L 240.119055 47.518889 
L 240.393127 115.395144 
L 240.6672 68.851206 
L 240.941273 121.871633 
L 241.489418 85.238689 
L 241.763491 111.581572 
L 242.037564 116.617735 
L 242.311636 109.239445 
L 242.585709 51.928497 
L 242.859782 88.559752 
L 243.133855 60.963248 
L 243.407927 94.051643 
L 243.682 96.138245 
L 243.956073 52.426482 
L 244.230145 109.35734 
L 244.504218 47.165305 
L 244.778291 49.451967 
L 245.052364 118.849798 
L 245.326436 48.727968 
L 245.874582 127.715991 
L 246.148655 49.968712 
L 246.422727 74.878528 
L 246.6968 80.164636 
L 246.970873 59.473084 
L 247.519018 45.238623 
L 247.793091 46.26972 
L 248.889382 129.260378 
L 249.437527 65.848069 
L 249.7116 130.539 
L 249.985673 58.971275 
L 250.259745 94.878776 
L 250.533818 82.976861 
L 250.807891 49.499928 
L 251.081964 119.142614 
L 251.356036 69.905942 
L 251.630109 45.143624 
L 252.178255 53.530468 
L 252.452327 66.05902 
L 252.7264 69.326011 
L 253.000473 61.46818 
L 253.274545 72.765399 
L 253.548618 74.57527 
L 253.822691 58.635025 
L 254.096764 128.49699 
L 254.370836 74.340388 
L 254.644909 48.29832 
L 254.918982 121.099274 
L 255.193055 123.508884 
L 255.467127 51.105323 
L 255.7412 47.92428 
L 256.015273 113.195535 
L 256.289345 66.958241 
L 256.563418 48.210379 
L 257.111564 113.547827 
L 257.385636 50.95491 
L 257.659709 127.019441 
L 258.207855 71.802141 
L 258.481927 83.749796 
L 258.756 104.937229 
L 259.030073 109.628147 
L 259.304145 70.573022 
L 259.578218 100.912303 
L 259.852291 94.820526 
L 260.126364 115.463441 
L 260.400436 91.185729 
L 260.674509 125.590543 
L 260.948582 60.187426 
L 261.222655 104.951973 
L 261.496727 76.14684 
L 261.7708 99.605213 
L 262.044873 55.355272 
L 262.318945 120.061463 
L 262.593018 117.519364 
L 263.141164 48.733302 
L 263.415236 103.691844 
L 263.689309 46.788328 
L 263.963382 103.954807 
L 264.237455 120.0475 
L 264.511527 55.379029 
L 264.7856 95.310397 
L 265.059673 87.519374 
L 265.333745 47.932995 
L 265.607818 44.076522 
L 265.881891 109.163694 
L 266.430036 52.680791 
L 266.978182 113.669875 
L 267.252255 124.618426 
L 267.526327 54.401405 
L 267.8004 103.379597 
L 268.074473 122.664609 
L 268.348545 66.818629 
L 268.896691 114.986459 
L 269.170764 82.142862 
L 269.444836 111.692387 
L 269.718909 89.244751 
L 269.992982 84.340381 
L 270.267055 60.31544 
L 270.541127 70.05369 
L 270.8152 126.219984 
L 271.089273 117.858572 
L 271.363345 120.547466 
L 271.637418 128.944102 
L 271.911491 101.766563 
L 272.185564 58.119541 
L 272.459636 114.446581 
L 272.733709 62.12353 
L 273.007782 57.34872 
L 273.281855 47.192005 
L 273.555927 68.868496 
L 273.83 49.173733 
L 274.104073 56.695938 
L 274.378145 88.945174 
L 274.652218 80.314102 
L 275.200364 126.832644 
L 275.474436 92.954031 
L 275.748509 113.179712 
L 276.022582 91.322581 
L 276.296655 128.591019 
L 276.570727 112.165935 
L 276.8448 87.496938 
L 277.118873 114.79732 
L 277.667018 97.342942 
L 277.941091 76.095962 
L 278.215164 93.618682 
L 278.489236 121.260465 
L 278.763309 110.912273 
L 279.037382 92.167125 
L 279.311455 103.125604 
L 279.585527 119.247308 
L 279.8596 57.382721 
L 280.133673 66.901937 
L 280.407745 67.332643 
L 280.681818 66.315248 
L 280.955891 101.547839 
L 281.229964 115.304115 
L 281.778109 78.040405 
L 282.052182 108.660116 
L 282.326255 107.760987 
L 282.600327 66.442358 
L 282.8744 70.758319 
L 283.148473 67.474503 
L 283.422545 107.279864 
L 283.696618 130.307696 
L 283.970691 67.039623 
L 284.244764 83.917319 
L 284.518836 60.040325 
L 284.792909 124.408709 
L 285.066982 73.329952 
L 285.341055 83.050889 
L 285.615127 70.793969 
L 285.8892 89.184646 
L 286.163273 43.780415 
L 286.437345 92.435053 
L 286.711418 71.18173 
L 286.985491 120.739098 
L 287.259564 123.227987 
L 287.533636 93.427159 
L 288.081782 126.999099 
L 288.355855 74.520534 
L 288.629927 102.070081 
L 288.904 96.580491 
L 289.178073 83.602759 
L 289.452145 120.966654 
L 289.726218 69.069636 
L 290.000291 106.241649 
L 290.274364 123.340658 
L 290.548436 86.75356 
L 290.822509 120.589806 
L 291.096582 110.403813 
L 291.370655 127.645984 
L 291.644727 90.262437 
L 292.192873 114.70772 
L 292.741018 73.249659 
L 293.015091 118.531606 
L 293.289164 126.995356 
L 294.111382 63.28007 
L 294.385455 68.078446 
L 294.659527 43.868315 
L 294.9336 110.557034 
L 295.207673 57.719128 
L 295.481745 113.257949 
L 295.755818 114.060216 
L 296.303964 94.119954 
L 296.578036 104.978897 
L 296.852109 120.33771 
L 297.126182 58.743246 
L 297.400255 116.350246 
L 297.674327 123.703789 
L 297.9484 123.576178 
L 298.222473 95.844465 
L 298.770618 121.94294 
L 299.044691 99.939863 
L 299.318764 125.112474 
L 299.866909 52.916406 
L 300.140982 56.378115 
L 300.415055 116.699915 
L 300.689127 117.436457 
L 301.237273 52.215993 
L 301.511345 70.998063 
L 301.785418 70.566049 
L 302.059491 58.691294 
L 302.333564 126.312549 
L 302.607636 51.930153 
L 302.881709 130.005708 
L 303.155782 92.308504 
L 303.429855 98.558694 
L 303.703927 88.45952 
L 303.978 47.674224 
L 304.252073 86.66359 
L 304.526145 62.918229 
L 304.800218 118.655023 
L 305.074291 60.046298 
L 305.348364 105.151042 
L 305.622436 108.608508 
L 305.896509 45.663903 
L 306.170582 92.556039 
L 306.444655 94.350978 
L 306.718727 114.089257 
L 307.266873 87.407671 
L 307.540945 110.600563 
L 307.815018 119.640352 
L 308.089091 86.415065 
L 308.363164 119.525449 
L 308.637236 53.347261 
L 308.911309 82.720776 
L 309.185382 67.121646 
L 309.459455 100.961502 
L 309.733527 62.359422 
L 310.0076 71.001909 
L 310.555745 111.756082 
L 310.829818 111.729332 
L 311.103891 119.688841 
L 311.377964 89.447223 
L 311.652036 81.36738 
L 311.926109 105.984109 
L 312.200182 89.065338 
L 312.474255 81.78187 
L 312.748327 122.314821 
L 313.0224 47.873575 
L 313.296473 120.735653 
L 313.570545 120.113012 
L 313.844618 109.691829 
L 314.118691 109.647629 
L 314.392764 108.726587 
L 314.666836 77.741272 
L 314.940909 129.418042 
L 315.214982 48.001419 
L 315.489055 116.415672 
L 315.763127 66.521734 
L 316.0372 62.878513 
L 316.311273 65.151652 
L 316.585345 60.522421 
L 316.859418 78.378333 
L 317.133491 52.388215 
L 317.407564 123.423658 
L 317.681636 57.999702 
L 317.955709 60.320923 
L 318.229782 129.758637 
L 318.503855 58.391577 
L 318.777927 106.451783 
L 319.052 54.962912 
L 319.326073 73.687454 
L 319.600145 123.286878 
L 319.874218 75.083324 
L 320.148291 63.354652 
L 320.422364 122.183855 
L 320.696436 71.704649 
L 320.970509 43.931535 
L 321.244582 79.477477 
L 321.518655 95.961586 
L 321.792727 124.858143 
L 322.0668 99.324732 
L 322.340873 89.445487 
L 322.614945 125.771339 
L 322.889018 76.501715 
L 323.437164 109.765091 
L 323.711236 85.498441 
L 323.985309 79.067609 
L 324.259382 54.063573 
L 324.533455 51.767775 
L 324.807527 79.832469 
L 325.0816 75.005046 
L 325.355673 117.592734 
L 325.629745 110.829398 
L 325.903818 92.346647 
L 326.177891 105.348384 
L 326.451964 107.997377 
L 326.726036 64.355929 
L 327.000109 107.39987 
L 327.274182 110.387365 
L 327.548255 45.822244 
L 327.822327 86.750234 
L 328.0964 47.466199 
L 328.370473 108.550177 
L 328.644545 100.923313 
L 328.918618 66.399227 
L 329.192691 96.665332 
L 329.466764 44.152776 
L 329.740836 45.550942 
L 330.014909 114.834092 
L 330.563055 61.686614 
L 330.837127 87.539268 
L 331.1112 96.705515 
L 331.385273 79.659043 
L 331.659345 82.782333 
L 331.933418 47.144594 
L 332.207491 52.696475 
L 332.481564 49.001071 
L 332.755636 56.210009 
L 333.029709 58.326597 
L 333.303782 46.308788 
L 333.577855 103.818486 
L 333.851927 91.794852 
L 334.126 95.520402 
L 334.400073 59.931824 
L 334.674145 62.38287 
L 334.948218 74.124924 
L 335.222291 45.162864 
L 335.222291 45.162864 
" clip-path="url(#pdbb4145d60)" style="fill: none; stroke: #1f77b4; stroke-width: 1.5; stroke-linecap: square"/>
   </g>
   <g id="line2d_14">
    <path d="M 61.423636 87.16 
L 335.496364 87.16 
" clip-path="url(#pdbb4145d60)" style="fill: none; stroke-dasharray: 7.4,3.2; stroke-dashoffset: 0; stroke: #ff0000; stroke-width: 2"/>
   </g>
   <g id="line2d_15">
    <path d="M 192.978545 87.16 
L 203.941455 87.16 
" clip-path="url(#pdbb4145d60)" style="fill: none; stroke: #000000; stroke-width: 2; stroke-linecap: square"/>
   </g>
   <g id="line2d_16">
    <path d="M 192.978545 43.72 
L 203.941455 43.72 
" clip-path="url(#pdbb4145d60)" style="fill: none; stroke: #000000; stroke-width: 2; stroke-linecap: square"/>
   </g>
   <g id="line2d_17">
    <path d="M 198.46 87.16 
L 198.46 43.72 
" clip-path="url(#pdbb4145d60)" style="fill: none; stroke: #000000; stroke-width: 2; stroke-linecap: square"/>
   </g>
   <g id="line2d_18">
    <path d="M 192.978545 159.56 
L 203.941455 159.56 
" clip-path="url(#pdbb4145d60)" style="fill: none; stroke: #000000; stroke-width: 2; stroke-linecap: square"/>
   </g>
   <g id="line2d_19">
    <path d="M 198.46 159.56 
L 198.46 87.16 
" clip-path="url(#pdbb4145d60)" style="fill: none; stroke: #000000; stroke-width: 2; stroke-linecap: square"/>
   </g>
   <g id="patch_3">
    <path d="M 47.72 174.04 
L 47.72 14.76 
" style="fill: none; stroke: #000000; stroke-width: 0.8; stroke-linejoin: miter; stroke-linecap: square"/>
   </g>
   <g id="patch_4">
    <path d="M 349.2 174.04 
L 349.2 14.76 
" style="fill: none; stroke: #000000; stroke-width: 0.8; stroke-linejoin: miter; stroke-linecap: square"/>
   </g>
   <g id="patch_5">
    <path d="M 47.72 174.04 
L 349.2 174.04 
" style="fill: none; stroke: #000000; stroke-width: 0.8; stroke-linejoin: miter; stroke-linecap: square"/>
   </g>
   <g id="patch_6">
    <path d="M 47.72 14.76 
L 349.2 14.76 
" style="fill: none; stroke: #000000; stroke-width: 0.8; stroke-linejoin: miter; stroke-linecap: square"/>
   </g>
   <g id="text_15">
    <g id="patch_7">
     <path d="M 205.422909 71.519688 
L 235.015097 71.519688 
L 235.015097 53.841563 
L 205.422909 53.841563 
z
" style="fill: #ffffff; opacity: 0.8; stroke: #000000; stroke-linejoin: miter"/>
    </g>
    <!-- gain -->
    <g transform="translate(209.422909 65.44) scale(0.1 -0.1)">
     <use xlink:href="#DejaVuSans-67"/>
     <use xlink:href="#DejaVuSans-61" x="63.476562"/>
     <use xlink:href="#DejaVuSans-69" x="124.755859"/>
     <use xlink:href="#DejaVuSans-6e" x="152.539062"/>
    </g>
   </g>
   <g id="text_16">
    <g id="patch_8">
     <path d="M 205.422909 129.439688 
L 241.865097 129.439688 
L 241.865097 111.761563 
L 205.422909 111.761563 
z
" style="fill: #ffffff; opacity: 0.8; stroke: #000000; stroke-linejoin: miter"/>
    </g>
    <!-- offset -->
    <g transform="translate(209.422909 123.36) scale(0.1 -0.1)">
     <defs>
      <path id="DejaVuSans-6f" d="M 1959 3097 
Q 1497 3097 1228 2736 
Q 959 2375 959 1747 
Q 959 1119 1226 758 
Q 1494 397 1959 397 
Q 2419 397 2687 759 
Q 2956 1122 2956 1747 
Q 2956 2369 2687 2733 
Q 2419 3097 1959 3097 
z
M 1959 3584 
Q 2709 3584 3137 3096 
Q 3566 2609 3566 1747 
Q 3566 888 3137 398 
Q 2709 -91 1959 -91 
Q 1206 -91 779 398 
Q 353 888 353 1747 
Q 353 2609 779 3096 
Q 1206 3584 1959 3584 
z
" transform="scale(0.015625)"/>
      <path id="DejaVuSans-66" d="M 2375 4863 
L 2375 4384 
L 1825 4384 
Q 1516 4384 1395 4259 
Q 1275 4134 1275 3809 
L 1275 3500 
L 2222 3500 
L 2222 3053 
L 1275 3053 
L 1275 0 
L 697 0 
L 697 3053 
L 147 3053 
L 147 3500 
L 697 3500 
L 697 3744 
Q 697 4328 969 4595 
Q 1241 4863 1831 4863 
L 2375 4863 
z
" transform="scale(0.015625)"/>
     </defs>
     <use xlink:href="#DejaVuSans-6f"/>
     <use xlink:href="#DejaVuSans-66" x="61.181641"/>
     <use xlink:href="#DejaVuSans-66" x="96.386719"/>
     <use xlink:href="#DejaVuSans-73" x="131.591797"/>
     <use xlink:href="#DejaVuSans-65" x="183.691406"/>
     <use xlink:href="#DejaVuSans-74" x="245.214844"/>
    </g>
   </g>
  </g>
 </g>
 <defs>
  <clipPath id="pdbb4145d60">
   <rect x="47.72" y="14.76" width="301.48" height="159.28"/>
  </clipPath>
 </defs>
</svg>
