<?xml version="1.0" encoding="utf-8" standalone="no"?>
<!DOCTYPE svg PUBLIC "-//W3C//DTD SVG 1.1//EN"
  "http://www.w3.org/Graphics/SVG/1.1/DTD/svg11.dtd">
<svg xmlns:xlink="http://www.w3.org/1999/xlink" width="360pt" height="216pt" viewBox="0 0 360 216" xmlns="http://www.w3.org/2000/svg" version="1.1">
 <metadata>
  <rdf:RDF xmlns:dc="http://purl.org/dc/elements/1.1/" xmlns:cc="http://creativecommons.org/ns#" xmlns:rdf="http://www.w3.org/1999/02/22-rdf-syntax-ns#">
   <cc:Work>
    <dc:type rdf:resource="http://purl.org/dc/dcmitype/StillImage"/>
    <dc:date>2024-04-26T03:33:24.028628</dc:date>
    <dc:format>image/svg+xml</dc:format>
    <dc:creator>
     <cc:Agent>
      <dc:title>Matplotlib v3.7.5, https://matplotlib.org/</dc:title>
     </cc:Agent>
    </dc:creator>
   </cc:Work>
  </rdf:RDF>
 </metadata>
 <defs>
  <style type="text/css">*{stroke-linejoin: round; stroke-linecap: butt}</style>
 </defs>
 <g id="figure_1">
  <g id="patch_1">
   <path d="M 0 216 
L 360 216 
L 360 0 
L 0 0 
z
" style="fill: #ffffff"/>
  </g>
  <g id="axes_1">
   <g id="patch_2">
    <path d="M 47.72 174.04 
L 349.2 174.04 
L 349.2 14.76 
L 47.72 14.76 
z
" style="fill: #ffffff"/>
   </g>
   <g id="matplotlib.axis_1">
    <g id="xtick_1">
     <g id="line2d_1">
      <defs>
       <path id="mab513c857f" d="M 0 0 
L 0 3.5 
" style="stroke: #000000; stroke-width: 0.8"/>
      </defs>
      <g>
       <use xlink:href="#mab513c857f" x="61.423636" y="174.04" style="stroke: #000000; stroke-width: 0.8"/>
      </g>
     </g>
     <g id="text_1">
      <!-- 0.0 -->
      <g transform="translate(53.472074 188.638438) scale(0.1 -0.1)">
       <defs>
        <path id="DejaVuSans-30" d="M 2034 4250 
Q 1547 4250 1301 3770 
Q 1056 3291 1056 2328 
Q 1056 1369 1301 889 
Q 1547 409 2034 409 
Q 2525 409 2770 889 
Q 3016 1369 3016 2328 
Q 3016 3291 2770 3770 
Q 2525 4250 2034 4250 
z
M 2034 4750 
Q 2819 4750 3233 4129 
Q 3647 3509 3647 2328 
Q 3647 1150 3233 529 
Q 2819 -91 2034 -91 
Q 1250 -91 836 529 
Q 422 1150 422 2328 
Q 422 3509 836 4129 
Q 1250 4750 2034 4750 
z
" transform="scale(0.015625)"/>
        <path id="DejaVuSans-2e" d="M 684 794 
L 1344 794 
L 1344 0 
L 684 0 
L 684 794 
z
" transform="scale(0.015625)"/>
       </defs>
       <use xlink:href="#DejaVuSans-30"/>
       <use xlink:href="#DejaVuSans-2e" x="63.623047"/>
       <use xlink:href="#DejaVuSans-30" x="95.410156"/>
      </g>
     </g>
    </g>
    <g id="xtick_2">
     <g id="line2d_2">
      <g>
       <use xlink:href="#mab513c857f" x="116.238182" y="174.04" style="stroke: #000000; stroke-width: 0.8"/>
      </g>
     </g>
     <g id="text_2">
      <!-- 0.2 -->
      <g transform="translate(108.286619 188.638438) scale(0.1 -0.1)">
       <defs>
        <path id="DejaVuSans-32" d="M 1228 531 
L 3431 531 
L 3431 0 
L 469 0 
L 469 531 
Q 828 903 1448 1529 
Q 2069 2156 2228 2338 
Q 2531 2678 2651 2914 
Q 2772 3150 2772 3378 
Q 2772 3750 2511 3984 
Q 2250 4219 1831 4219 
Q 1534 4219 1204 4116 
Q 875 4013 500 3803 
L 500 4441 
Q 881 4594 1212 4672 
Q 1544 4750 1819 4750 
Q 2544 4750 2975 4387 
Q 3406 4025 3406 3419 
Q 3406 3131 3298 2873 
Q 3191 2616 2906 2266 
Q 2828 2175 2409 1742 
Q 1991 1309 1228 531 
z
" transform="scale(0.015625)"/>
       </defs>
       <use xlink:href="#DejaVuSans-30"/>
       <use xlink:href="#DejaVuSans-2e" x="63.623047"/>
       <use xlink:href="#DejaVuSans-32" x="95.410156"/>
      </g>
     </g>
    </g>
    <g id="xtick_3">
     <g id="line2d_3">
      <g>
       <use xlink:href="#mab513c857f" x="171.052727" y="174.04" style="stroke: #000000; stroke-width: 0.8"/>
      </g>
     </g>
     <g id="text_3">
      <!-- 0.4 -->
      <g transform="translate(163.101165 188.638438) scale(0.1 -0.1)">
       <defs>
        <path id="DejaVuSans-34" d="M 2419 4116 
L 825 1625 
L 2419 1625 
L 2419 4116 
z
M 2253 4666 
L 3047 4666 
L 3047 1625 
L 3713 1625 
L 3713 1100 
L 3047 1100 
L 3047 0 
L 2419 0 
L 2419 1100 
L 313 1100 
L 313 1709 
L 2253 4666 
z
" transform="scale(0.015625)"/>
       </defs>
       <use xlink:href="#DejaVuSans-30"/>
       <use xlink:href="#DejaVuSans-2e" x="63.623047"/>
       <use xlink:href="#DejaVuSans-34" x="95.410156"/>
      </g>
     </g>
    </g>
    <g id="xtick_4">
     <g id="line2d_4">
      <g>
       <use xlink:href="#mab513c857f" x="225.867273" y="174.04" style="stroke: #000000; stroke-width: 0.8"/>
      </g>
     </g>
     <g id="text_4">
      <!-- 0.6 -->
      <g transform="translate(217.91571 188.638438) scale(0.1 -0.1)">
       <defs>
        <path id="DejaVuSans-36" d="M 2113 2584 
Q 1688 2584 1439 2293 
Q 1191 2003 1191 1497 
Q 1191 994 1439 701 
Q 1688 409 2113 409 
Q 2538 409 2786 701 
Q 3034 994 3034 1497 
Q 3034 2003 2786 2293 
Q 2538 2584 2113 2584 
z
M 3366 4563 
L 3366 3988 
Q 3128 4100 2886 4159 
Q 2644 4219 2406 4219 
Q 1781 4219 1451 3797 
Q 1122 3375 1075 2522 
Q 1259 2794 1537 2939 
Q 1816 3084 2150 3084 
Q 2853 3084 3261 2657 
Q 3669 2231 3669 1497 
Q 3669 778 3244 343 
Q 2819 -91 2113 -91 
Q 1303 -91 875 529 
Q 447 1150 447 2328 
Q 447 3434 972 4092 
Q 1497 4750 2381 4750 
Q 2619 4750 2861 4703 
Q 3103 4656 3366 4563 
z
" transform="scale(0.015625)"/>
       </defs>
       <use xlink:href="#DejaVuSans-30"/>
       <use xlink:href="#DejaVuSans-2e" x="63.623047"/>
       <use xlink:href="#DejaVuSans-36" x="95.410156"/>
      </g>
     </g>
    </g>
    <g id="xtick_5">
     <g id="line2d_5">
      <g>
       <use xlink:href="#mab513c857f" x="280.681818" y="174.04" style="stroke: #000000; stroke-width: 0.8"/>
      </g>
     </g>
     <g id="text_5">
      <!-- 0.8 -->
      <g transform="translate(272.730256 188.638438) scale(0.1 -0.1)">
       <defs>
        <path id="DejaVuSans-38" d="M 2034 2216 
Q 1584 2216 1326 1975 
Q 1069 1734 1069 1313 
Q 1069 891 1326 650 
Q 1584 409 2034 409 
Q 2484 409 2743 651 
Q 3003 894 3003 1313 
Q 3003 1734 2745 1975 
Q 2488 2216 2034 2216 
z
M 1403 2484 
Q 997 2584 770 2862 
Q 544 3141 544 3541 
Q 544 4100 942 4425 
Q 1341 4750 2034 4750 
Q 2731 4750 3128 4425 
Q 3525 4100 3525 3541 
Q 3525 3141 3298 2862 
Q 3072 2584 2669 2484 
Q 3125 2378 3379 2068 
Q 3634 1759 3634 1313 
Q 3634 634 3220 271 
Q 2806 -91 2034 -91 
Q 1263 -91 848 271 
Q 434 634 434 1313 
Q 434 1759 690 2068 
Q 947 2378 1403 2484 
z
M 1172 3481 
Q 1172 3119 1398 2916 
Q 1625 2713 2034 2713 
Q 2441 2713 2670 2916 
Q 2900 3119 2900 3481 
Q 2900 3844 2670 4047 
Q 2441 4250 2034 4250 
Q 1625 4250 1398 4047 
Q 1172 3844 1172 3481 
z
" transform="scale(0.015625)"/>
       </defs>
       <use xlink:href="#DejaVuSans-30"/>
       <use xlink:href="#DejaVuSans-2e" x="63.623047"/>
       <use xlink:href="#DejaVuSans-38" x="95.410156"/>
      </g>
     </g>
    </g>
    <g id="xtick_6">
     <g id="line2d_6">
      <g>
       <use xlink:href="#mab513c857f" x="335.496364" y="174.04" style="stroke: #000000; stroke-width: 0.8"/>
      </g>
     </g>
     <g id="text_6">
      <!-- 1.0 -->
      <g transform="translate(327.544801 188.638438) scale(0.1 -0.1)">
       <defs>
        <path id="DejaVuSans-31" d="M 794 531 
L 1825 531 
L 1825 4091 
L 703 3866 
L 703 4441 
L 1819 4666 
L 2450 4666 
L 2450 531 
L 3481 531 
L 3481 0 
L 794 0 
L 794 531 
z
" transform="scale(0.015625)"/>
       </defs>
       <use xlink:href="#DejaVuSans-31"/>
       <use xlink:href="#DejaVuSans-2e" x="63.623047"/>
       <use xlink:href="#DejaVuSans-30" x="95.410156"/>
      </g>
     </g>
    </g>
    <g id="text_7">
     <!-- Time (sec) -->
     <g transform="translate(172.305312 202.316563) scale(0.1 -0.1)">
      <defs>
       <path id="DejaVuSans-54" d="M -19 4666 
L 3928 4666 
L 3928 4134 
L 2272 4134 
L 2272 0 
L 1638 0 
L 1638 4134 
L -19 4134 
L -19 4666 
z
" transform="scale(0.015625)"/>
       <path id="DejaVuSans-69" d="M 603 3500 
L 1178 3500 
L 1178 0 
L 603 0 
L 603 3500 
z
M 603 4863 
L 1178 4863 
L 1178 4134 
L 603 4134 
L 603 4863 
z
" transform="scale(0.015625)"/>
       <path id="DejaVuSans-6d" d="M 3328 2828 
Q 3544 3216 3844 3400 
Q 4144 3584 4550 3584 
Q 5097 3584 5394 3201 
Q 5691 2819 5691 2113 
L 5691 0 
L 5113 0 
L 5113 2094 
Q 5113 2597 4934 2840 
Q 4756 3084 4391 3084 
Q 3944 3084 3684 2787 
Q 3425 2491 3425 1978 
L 3425 0 
L 2847 0 
L 2847 2094 
Q 2847 2600 2669 2842 
Q 2491 3084 2119 3084 
Q 1678 3084 1418 2786 
Q 1159 2488 1159 1978 
L 1159 0 
L 581 0 
L 581 3500 
L 1159 3500 
L 1159 2956 
Q 1356 3278 1631 3431 
Q 1906 3584 2284 3584 
Q 2666 3584 2933 3390 
Q 3200 3197 3328 2828 
z
" transform="scale(0.015625)"/>
       <path id="DejaVuSans-65" d="M 3597 1894 
L 3597 1613 
L 953 1613 
Q 991 1019 1311 708 
Q 1631 397 2203 397 
Q 2534 397 2845 478 
Q 3156 559 3463 722 
L 3463 178 
Q 3153 47 2828 -22 
Q 2503 -91 2169 -91 
Q 1331 -91 842 396 
Q 353 884 353 1716 
Q 353 2575 817 3079 
Q 1281 3584 2069 3584 
Q 2775 3584 3186 3129 
Q 3597 2675 3597 1894 
z
M 3022 2063 
Q 3016 2534 2758 2815 
Q 2500 3097 2075 3097 
Q 1594 3097 1305 2825 
Q 1016 2553 972 2059 
L 3022 2063 
z
" transform="scale(0.015625)"/>
       <path id="DejaVuSans-20" transform="scale(0.015625)"/>
       <path id="DejaVuSans-28" d="M 1984 4856 
Q 1566 4138 1362 3434 
Q 1159 2731 1159 2009 
Q 1159 1288 1364 580 
Q 1569 -128 1984 -844 
L 1484 -844 
Q 1016 -109 783 600 
Q 550 1309 550 2009 
Q 550 2706 781 3412 
Q 1013 4119 1484 4856 
L 1984 4856 
z
" transform="scale(0.015625)"/>
       <path id="DejaVuSans-73" d="M 2834 3397 
L 2834 2853 
Q 2591 2978 2328 3040 
Q 2066 3103 1784 3103 
Q 1356 3103 1142 2972 
Q 928 2841 928 2578 
Q 928 2378 1081 2264 
Q 1234 2150 1697 2047 
L 1894 2003 
Q 2506 1872 2764 1633 
Q 3022 1394 3022 966 
Q 3022 478 2636 193 
Q 2250 -91 1575 -91 
Q 1294 -91 989 -36 
Q 684 19 347 128 
L 347 722 
Q 666 556 975 473 
Q 1284 391 1588 391 
Q 1994 391 2212 530 
Q 2431 669 2431 922 
Q 2431 1156 2273 1281 
Q 2116 1406 1581 1522 
L 1381 1569 
Q 847 1681 609 1914 
Q 372 2147 372 2553 
Q 372 3047 722 3315 
Q 1072 3584 1716 3584 
Q 2034 3584 2315 3537 
Q 2597 3491 2834 3397 
z
" transform="scale(0.015625)"/>
       <path id="DejaVuSans-63" d="M 3122 3366 
L 3122 2828 
Q 2878 2963 2633 3030 
Q 2388 3097 2138 3097 
Q 1578 3097 1268 2742 
Q 959 2388 959 1747 
Q 959 1106 1268 751 
Q 1578 397 2138 397 
Q 2388 397 2633 464 
Q 2878 531 3122 666 
L 3122 134 
Q 2881 22 2623 -34 
Q 2366 -91 2075 -91 
Q 1284 -91 818 406 
Q 353 903 353 1747 
Q 353 2603 823 3093 
Q 1294 3584 2113 3584 
Q 2378 3584 2631 3529 
Q 2884 3475 3122 3366 
z
" transform="scale(0.015625)"/>
       <path id="DejaVuSans-29" d="M 513 4856 
L 1013 4856 
Q 1481 4119 1714 3412 
Q 1947 2706 1947 2009 
Q 1947 1309 1714 600 
Q 1481 -109 1013 -844 
L 513 -844 
Q 928 -128 1133 580 
Q 1338 1288 1338 2009 
Q 1338 2731 1133 3434 
Q 928 4138 513 4856 
z
" transform="scale(0.015625)"/>
      </defs>
      <use xlink:href="#DejaVuSans-54"/>
      <use xlink:href="#DejaVuSans-69" x="57.958984"/>
      <use xlink:href="#DejaVuSans-6d" x="85.742188"/>
      <use xlink:href="#DejaVuSans-65" x="183.154297"/>
      <use xlink:href="#DejaVuSans-20" x="244.677734"/>
      <use xlink:href="#DejaVuSans-28" x="276.464844"/>
      <use xlink:href="#DejaVuSans-73" x="315.478516"/>
      <use xlink:href="#DejaVuSans-65" x="367.578125"/>
      <use xlink:href="#DejaVuSans-63" x="429.101562"/>
      <use xlink:href="#DejaVuSans-29" x="484.082031"/>
     </g>
    </g>
   </g>
   <g id="matplotlib.axis_2">
    <g id="ytick_1">
     <g id="line2d_7">
      <defs>
       <path id="ma59e12cb3d" d="M 0 0 
L -3.5 0 
" style="stroke: #000000; stroke-width: 0.8"/>
      </defs>
      <g>
       <use xlink:href="#ma59e12cb3d" x="47.72" y="159.56" style="stroke: #000000; stroke-width: 0.8"/>
      </g>
     </g>
     <g id="text_8">
      <!-- 0.0 -->
      <g transform="translate(24.816875 163.359219) scale(0.1 -0.1)">
       <use xlink:href="#DejaVuSans-30"/>
       <use xlink:href="#DejaVuSans-2e" x="63.623047"/>
       <use xlink:href="#DejaVuSans-30" x="95.410156"/>
      </g>
     </g>
    </g>
    <g id="ytick_2">
     <g id="line2d_8">
      <g>
       <use xlink:href="#ma59e12cb3d" x="47.72" y="130.6" style="stroke: #000000; stroke-width: 0.8"/>
      </g>
     </g>
     <g id="text_9">
      <!-- 0.2 -->
      <g transform="translate(24.816875 134.399219) scale(0.1 -0.1)">
       <use xlink:href="#DejaVuSans-30"/>
       <use xlink:href="#DejaVuSans-2e" x="63.623047"/>
       <use xlink:href="#DejaVuSans-32" x="95.410156"/>
      </g>
     </g>
    </g>
    <g id="ytick_3">
     <g id="line2d_9">
      <g>
       <use xlink:href="#ma59e12cb3d" x="47.72" y="101.64" style="stroke: #000000; stroke-width: 0.8"/>
      </g>
     </g>
     <g id="text_10">
      <!-- 0.4 -->
      <g transform="translate(24.816875 105.439219) scale(0.1 -0.1)">
       <use xlink:href="#DejaVuSans-30"/>
       <use xlink:href="#DejaVuSans-2e" x="63.623047"/>
       <use xlink:href="#DejaVuSans-34" x="95.410156"/>
      </g>
     </g>
    </g>
    <g id="ytick_4">
     <g id="line2d_10">
      <g>
       <use xlink:href="#ma59e12cb3d" x="47.72" y="72.68" style="stroke: #000000; stroke-width: 0.8"/>
      </g>
     </g>
     <g id="text_11">
      <!-- 0.6 -->
      <g transform="translate(24.816875 76.479219) scale(0.1 -0.1)">
       <use xlink:href="#DejaVuSans-30"/>
       <use xlink:href="#DejaVuSans-2e" x="63.623047"/>
       <use xlink:href="#DejaVuSans-36" x="95.410156"/>
      </g>
     </g>
    </g>
    <g id="ytick_5">
     <g id="line2d_11">
      <g>
       <use xlink:href="#ma59e12cb3d" x="47.72" y="43.72" style="stroke: #000000; stroke-width: 0.8"/>
      </g>
     </g>
     <g id="text_12">
      <!-- 0.8 -->
      <g transform="translate(24.816875 47.519219) scale(0.1 -0.1)">
       <use xlink:href="#DejaVuSans-30"/>
       <use xlink:href="#DejaVuSans-2e" x="63.623047"/>
       <use xlink:href="#DejaVuSans-38" x="95.410156"/>
      </g>
     </g>
    </g>
    <g id="ytick_6">
     <g id="line2d_12">
      <g>
       <use xlink:href="#ma59e12cb3d" x="47.72" y="14.76" style="stroke: #000000; stroke-width: 0.8"/>
      </g>
     </g>
     <g id="text_13">
      <!-- 1.0 -->
      <g transform="translate(24.816875 18.559219) scale(0.1 -0.1)">
       <use xlink:href="#DejaVuSans-31"/>
       <use xlink:href="#DejaVuSans-2e" x="63.623047"/>
       <use xlink:href="#DejaVuSans-30" x="95.410156"/>
      </g>
     </g>
    </g>
    <g id="text_14">
     <!-- Injected Signal -->
     <g transform="translate(18.737188 131.417969) rotate(-90) scale(0.1 -0.1)">
      <defs>
       <path id="DejaVuSans-49" d="M 628 4666 
L 1259 4666 
L 1259 0 
L 628 0 
L 628 4666 
z
" transform="scale(0.015625)"/>
       <path id="DejaVuSans-6e" d="M 3513 2113 
L 3513 0 
L 2938 0 
L 2938 2094 
Q 2938 2591 2744 2837 
Q 2550 3084 2163 3084 
Q 1697 3084 1428 2787 
Q 1159 2491 1159 1978 
L 1159 0 
L 581 0 
L 581 3500 
L 1159 3500 
L 1159 2956 
Q 1366 3272 1645 3428 
Q 1925 3584 2291 3584 
Q 2894 3584 3203 3211 
Q 3513 2838 3513 2113 
z
" transform="scale(0.015625)"/>
       <path id="DejaVuSans-6a" d="M 603 3500 
L 1178 3500 
L 1178 -63 
Q 1178 -731 923 -1031 
Q 669 -1331 103 -1331 
L -116 -1331 
L -116 -844 
L 38 -844 
Q 366 -844 484 -692 
Q 603 -541 603 -63 
L 603 3500 
z
M 603 4863 
L 1178 4863 
L 1178 4134 
L 603 4134 
L 603 4863 
z
" transform="scale(0.015625)"/>
       <path id="DejaVuSans-74" d="M 1172 4494 
L 1172 3500 
L 2356 3500 
L 2356 3053 
L 1172 3053 
L 1172 1153 
Q 1172 725 1289 603 
Q 1406 481 1766 481 
L 2356 481 
L 2356 0 
L 1766 0 
Q 1100 0 847 248 
Q 594 497 594 1153 
L 594 3053 
L 172 3053 
L 172 3500 
L 594 3500 
L 594 4494 
L 1172 4494 
z
" transform="scale(0.015625)"/>
       <path id="DejaVuSans-64" d="M 2906 2969 
L 2906 4863 
L 3481 4863 
L 3481 0 
L 2906 0 
L 2906 525 
Q 2725 213 2448 61 
Q 2172 -91 1784 -91 
Q 1150 -91 751 415 
Q 353 922 353 1747 
Q 353 2572 751 3078 
Q 1150 3584 1784 3584 
Q 2172 3584 2448 3432 
Q 2725 3281 2906 2969 
z
M 947 1747 
Q 947 1113 1208 752 
Q 1469 391 1925 391 
Q 2381 391 2643 752 
Q 2906 1113 2906 1747 
Q 2906 2381 2643 2742 
Q 2381 3103 1925 3103 
Q 1469 3103 1208 2742 
Q 947 2381 947 1747 
z
" transform="scale(0.015625)"/>
       <path id="DejaVuSans-53" d="M 3425 4513 
L 3425 3897 
Q 3066 4069 2747 4153 
Q 2428 4238 2131 4238 
Q 1616 4238 1336 4038 
Q 1056 3838 1056 3469 
Q 1056 3159 1242 3001 
Q 1428 2844 1947 2747 
L 2328 2669 
Q 3034 2534 3370 2195 
Q 3706 1856 3706 1288 
Q 3706 609 3251 259 
Q 2797 -91 1919 -91 
Q 1588 -91 1214 -16 
Q 841 59 441 206 
L 441 856 
Q 825 641 1194 531 
Q 1563 422 1919 422 
Q 2459 422 2753 634 
Q 3047 847 3047 1241 
Q 3047 1584 2836 1778 
Q 2625 1972 2144 2069 
L 1759 2144 
Q 1053 2284 737 2584 
Q 422 2884 422 3419 
Q 422 4038 858 4394 
Q 1294 4750 2059 4750 
Q 2388 4750 2728 4690 
Q 3069 4631 3425 4513 
z
" transform="scale(0.015625)"/>
       <path id="DejaVuSans-67" d="M 2906 1791 
Q 2906 2416 2648 2759 
Q 2391 3103 1925 3103 
Q 1463 3103 1205 2759 
Q 947 2416 947 1791 
Q 947 1169 1205 825 
Q 1463 481 1925 481 
Q 2391 481 2648 825 
Q 2906 1169 2906 1791 
z
M 3481 434 
Q 3481 -459 3084 -895 
Q 2688 -1331 1869 -1331 
Q 1566 -1331 1297 -1286 
Q 1028 -1241 775 -1147 
L 775 -588 
Q 1028 -725 1275 -790 
Q 1522 -856 1778 -856 
Q 2344 -856 2625 -561 
Q 2906 -266 2906 331 
L 2906 616 
Q 2728 306 2450 153 
Q 2172 0 1784 0 
Q 1141 0 747 490 
Q 353 981 353 1791 
Q 353 2603 747 3093 
Q 1141 3584 1784 3584 
Q 2172 3584 2450 3431 
Q 2728 3278 2906 2969 
L 2906 3500 
L 3481 3500 
L 3481 434 
z
" transform="scale(0.015625)"/>
       <path id="DejaVuSans-61" d="M 2194 1759 
Q 1497 1759 1228 1600 
Q 959 1441 959 1056 
Q 959 750 1161 570 
Q 1363 391 1709 391 
Q 2188 391 2477 730 
Q 2766 1069 2766 1631 
L 2766 1759 
L 2194 1759 
z
M 3341 1997 
L 3341 0 
L 2766 0 
L 2766 531 
Q 2569 213 2275 61 
Q 1981 -91 1556 -91 
Q 1019 -91 701 211 
Q 384 513 384 1019 
Q 384 1609 779 1909 
Q 1175 2209 1959 2209 
L 2766 2209 
L 2766 2266 
Q 2766 2663 2505 2880 
Q 2244 3097 1772 3097 
Q 1472 3097 1187 3025 
Q 903 2953 641 2809 
L 641 3341 
Q 956 3463 1253 3523 
Q 1550 3584 1831 3584 
Q 2591 3584 2966 3190 
Q 3341 2797 3341 1997 
z
" transform="scale(0.015625)"/>
       <path id="DejaVuSans-6c" d="M 603 4863 
L 1178 4863 
L 1178 0 
L 603 0 
L 603 4863 
z
" transform="scale(0.015625)"/>
      </defs>
      <use xlink:href="#DejaVuSans-49"/>
      <use xlink:href="#DejaVuSans-6e" x="29.492188"/>
      <use xlink:href="#DejaVuSans-6a" x="92.871094"/>
      <use xlink:href="#DejaVuSans-65" x="120.654297"/>
      <use xlink:href="#DejaVuSans-63" x="182.177734"/>
      <use xlink:href="#DejaVuSans-74" x="237.158203"/>
      <use xlink:href="#DejaVuSans-65" x="276.367188"/>
      <use xlink:href="#DejaVuSans-64" x="337.890625"/>
      <use xlink:href="#DejaVuSans-20" x="401.367188"/>
      <use xlink:href="#DejaVuSans-53" x="433.154297"/>
      <use xlink:href="#DejaVuSans-69" x="496.630859"/>
      <use xlink:href="#DejaVuSans-67" x="524.414062"/>
      <use xlink:href="#DejaVuSans-6e" x="587.890625"/>
      <use xlink:href="#DejaVuSans-61" x="651.269531"/>
      <use xlink:href="#DejaVuSans-6c" x="712.548828"/>
     </g>
    </g>
   </g>
   <g id="line2d_13">
    <path d="M 61.423636 113.792143 
L 61.697709 77.97538 
L 61.971782 101.110081 
L 62.245855 58.461996 
L 62.519927 56.559434 
L 62.794 90.260435 
L 63.068073 97.220258 
L 63.342145 63.442818 
L 63.616218 121.635036 
L 63.890291 87.449578 
L 64.164364 79.154041 
L 64.438436 89.490409 
L 64.712509 45.448948 
L 64.986582 63.276175 
L 65.260655 91.245332 
L 65.534727 44.675306 
L 66.082873 110.46996 
L 66.356945 79.603464 
L 66.631018 97.866901 
L 66.905091 78.594842 
L 67.179164 118.945361 
L 67.453236 49.87765 
L 67.727309 123.860978 
L 68.275455 74.445136 
L 68.549527 74.990309 
L 68.8236 47.675687 
L 69.097673 53.90603 
L 69.371745 98.04785 
L 69.645818 120.022585 
L 69.919891 102.488705 
L 70.193964 103.091669 
L 70.468036 95.446189 
L 70.742109 94.539832 
L 71.016182 73.744444 
L 71.564327 95.281607 
L 71.8384 84.311862 
L 72.112473 46.747871 
L 72.386545 66.217598 
L 72.660618 130.082232 
L 73.208764 75.532813 
L 73.482836 117.627801 
L 73.756909 91.041385 
L 74.030982 87.573894 
L 74.305055 126.958577 
L 74.579127 84.361424 
L 74.8532 110.723876 
L 75.127273 55.213619 
L 75.401345 45.395625 
L 75.675418 80.826327 
L 75.949491 96.198006 
L 76.223564 61.52553 
L 76.497636 47.110805 
L 76.771709 82.586657 
L 77.045782 99.777819 
L 77.319855 101.3726 
L 77.593927 49.445013 
L 77.868 103.952961 
L 78.142073 50.554249 
L 78.416145 61.544305 
L 78.964291 114.135601 
L 79.238364 82.317897 
L 79.512436 64.233776 
L 79.786509 97.296539 
L 80.060582 73.58758 
L 80.334655 61.452306 
L 80.8828 126.286316 
L 81.156873 70.758514 
L 81.430945 125.678879 
L 81.705018 56.26214 
L 81.979091 129.035854 
L 82.253164 55.42533 
L 82.527236 87.95871 
L 82.801309 85.178235 
L 83.075382 64.303209 
L 83.349455 91.324943 
L 83.623527 82.558755 
L 83.8976 80.149565 
L 84.171673 55.067786 
L 84.445745 67.508293 
L 84.719818 47.670989 
L 85.267964 86.330599 
L 85.542036 64.679939 
L 85.816109 61.08264 
L 86.090182 111.832736 
L 86.364255 100.070396 
L 86.638327 103.167065 
L 86.9124 44.823423 
L 87.186473 58.273551 
L 87.460545 54.244485 
L 87.734618 75.471318 
L 88.008691 48.109921 
L 88.282764 83.832509 
L 88.556836 70.085851 
L 88.830909 45.21 
L 89.104982 52.423789 
L 89.379055 98.413925 
L 89.653127 71.464529 
L 89.9272 99.038333 
L 90.201273 77.767303 
L 90.475345 96.10251 
L 90.749418 52.097876 
L 91.023491 101.852279 
L 91.297564 50.828141 
L 91.845709 125.501586 
L 92.119782 110.23427 
L 92.393855 81.706315 
L 92.667927 126.96239 
L 92.942 124.677345 
L 93.216073 113.88333 
L 93.764218 72.820429 
L 94.038291 81.19857 
L 94.312364 123.370352 
L 94.586436 78.971124 
L 94.860509 74.053627 
L 95.134582 98.503285 
L 95.408655 85.414779 
L 95.682727 51.842406 
L 95.9568 101.418142 
L 96.230873 106.512993 
L 96.504945 86.109411 
L 96.779018 125.660811 
L 97.601236 60.494279 
L 97.875309 89.656266 
L 98.149382 68.263173 
L 98.423455 100.541127 
L 98.697527 117.209486 
L 98.9716 120.340223 
L 99.245673 65.986462 
L 99.519745 44.15754 
L 99.793818 125.996298 
L 100.067891 123.525259 
L 100.341964 61.917146 
L 100.616036 63.225789 
L 100.890109 82.588109 
L 101.164182 80.302545 
L 101.438255 124.859467 
L 101.712327 73.35228 
L 101.9864 75.150814 
L 102.260473 71.860722 
L 102.534545 113.697897 
L 102.808618 69.897744 
L 103.082691 54.88215 
L 103.356764 113.60652 
L 103.630836 95.165501 
L 103.904909 112.451725 
L 104.178982 69.365378 
L 104.453055 118.431364 
L 104.727127 128.572984 
L 105.275273 57.671604 
L 105.549345 75.392587 
L 105.823418 48.622257 
L 106.097491 51.307835 
L 106.371564 76.600279 
L 106.645636 53.870315 
L 106.919709 102.787593 
L 107.193782 74.83154 
L 107.467855 125.276804 
L 107.741927 109.726843 
L 108.016 49.808274 
L 108.290073 80.313811 
L 108.564145 56.638833 
L 108.838218 69.700283 
L 109.112291 101.987639 
L 109.386364 98.990768 
L 109.660436 66.020408 
L 109.934509 82.837018 
L 110.208582 118.490535 
L 110.482655 114.692973 
L 110.756727 77.266372 
L 111.0308 84.067219 
L 111.304873 115.651848 
L 111.578945 124.110187 
L 111.853018 60.571667 
L 112.127091 103.513862 
L 112.401164 66.167785 
L 112.675236 127.013986 
L 112.949309 78.249595 
L 113.223382 73.106432 
L 113.497455 124.95926 
L 114.0456 50.873341 
L 114.319673 84.678806 
L 114.593745 46.249636 
L 114.867818 123.911567 
L 115.141891 51.053695 
L 115.415964 129.109621 
L 115.690036 99.664104 
L 115.964109 84.350377 
L 116.238182 98.962465 
L 116.512255 62.040849 
L 116.786327 60.002005 
L 117.0604 103.582579 
L 117.334473 85.197034 
L 117.608545 50.643423 
L 117.882618 78.179945 
L 118.156691 62.467147 
L 118.430764 64.525732 
L 118.704836 102.440947 
L 118.978909 100.446224 
L 119.252982 49.030086 
L 119.527055 67.308195 
L 119.801127 124.200062 
L 120.0752 82.015052 
L 120.349273 85.283511 
L 120.623345 54.227214 
L 120.897418 94.730652 
L 121.171491 82.291453 
L 121.445564 81.042048 
L 121.719636 75.781883 
L 121.993709 125.423853 
L 122.267782 124.160592 
L 122.541855 63.95687 
L 122.815927 126.140464 
L 123.09 106.790409 
L 123.364073 62.830545 
L 123.638145 106.189737 
L 123.912218 56.058139 
L 124.186291 45.759338 
L 124.460364 89.247111 
L 124.734436 45.00617 
L 125.008509 120.039243 
L 125.282582 58.585575 
L 125.556655 57.631144 
L 125.830727 75.021981 
L 126.1048 118.313727 
L 126.378873 121.533054 
L 126.652945 92.927242 
L 126.927018 115.902283 
L 127.201091 100.494331 
L 127.475164 129.065043 
L 127.749236 55.80914 
L 128.023309 100.592615 
L 128.571455 114.041562 
L 128.845527 79.047593 
L 129.1196 73.850289 
L 129.393673 100.277128 
L 129.667745 64.914456 
L 129.941818 58.223877 
L 130.215891 128.378167 
L 130.489964 65.048055 
L 130.764036 117.087805 
L 131.038109 116.595848 
L 131.312182 67.6767 
L 131.586255 45.798747 
L 131.860327 106.866157 
L 132.1344 51.619482 
L 132.408473 49.145466 
L 132.682545 87.221683 
L 132.956618 52.53743 
L 133.230691 69.154983 
L 133.504764 109.295288 
L 133.778836 59.95988 
L 134.326982 121.56759 
L 134.601055 90.176531 
L 134.875127 86.393744 
L 135.1492 118.476601 
L 135.423273 77.969586 
L 135.697345 129.483122 
L 135.971418 106.661615 
L 136.245491 100.38145 
L 136.793636 59.402317 
L 137.067709 109.483596 
L 137.341782 59.564588 
L 137.615855 100.113109 
L 137.889927 84.295481 
L 138.164 93.984951 
L 138.438073 128.72871 
L 138.712145 60.592258 
L 138.986218 122.121972 
L 139.260291 56.407708 
L 139.534364 111.244534 
L 139.808436 91.032982 
L 140.082509 108.423058 
L 140.356582 105.435159 
L 140.630655 127.778337 
L 140.904727 48.927046 
L 141.1788 79.369257 
L 141.452873 81.055585 
L 141.726945 126.142793 
L 142.001018 68.871906 
L 142.275091 51.307018 
L 142.549164 63.515328 
L 142.823236 105.520181 
L 143.097309 115.91786 
L 143.371382 79.980327 
L 143.919527 100.331619 
L 144.1936 58.140875 
L 144.467673 68.952798 
L 144.741745 58.286837 
L 145.015818 118.349519 
L 145.289891 94.634143 
L 145.563964 56.421988 
L 145.838036 83.503671 
L 146.112109 78.814811 
L 146.386182 80.970899 
L 146.660255 86.839412 
L 146.934327 55.657223 
L 147.2084 95.529685 
L 147.482473 85.742011 
L 147.756545 64.417634 
L 148.304691 124.121104 
L 148.578764 122.437733 
L 148.852836 48.466088 
L 149.126909 112.852615 
L 149.400982 109.956278 
L 149.675055 45.932796 
L 149.949127 113.153248 
L 150.2232 85.188692 
L 150.497273 98.606428 
L 150.771345 95.44383 
L 151.045418 127.502995 
L 151.319491 113.134658 
L 151.593564 115.61465 
L 151.867636 65.908243 
L 152.141709 122.85496 
L 152.415782 65.140372 
L 152.689855 44.513027 
L 152.963927 76.632448 
L 153.238 80.503861 
L 153.512073 111.875492 
L 153.786145 119.787605 
L 154.060218 75.846427 
L 154.334291 109.449599 
L 154.608364 97.370262 
L 154.882436 46.74463 
L 155.156509 48.019969 
L 155.430582 84.737014 
L 155.704655 46.623639 
L 155.978727 54.968651 
L 156.2528 112.503627 
L 156.526873 49.395278 
L 156.800945 88.982767 
L 157.075018 71.293515 
L 157.349091 87.42739 
L 157.623164 130.528873 
L 157.897236 108.705756 
L 158.171309 116.693077 
L 158.445382 108.391889 
L 158.719455 89.646197 
L 158.993527 48.206949 
L 159.2676 120.515748 
L 159.541673 45.900447 
L 159.815745 61.713406 
L 160.089818 85.748473 
L 160.363891 44.751225 
L 160.637964 63.787104 
L 160.912036 125.058012 
L 161.186109 107.105828 
L 161.460182 127.623057 
L 161.734255 54.972614 
L 162.008327 100.227456 
L 162.2824 68.216905 
L 162.556473 116.447283 
L 162.830545 91.117343 
L 163.104618 109.961247 
L 163.378691 110.874388 
L 163.652764 92.295775 
L 163.926836 125.517722 
L 164.474982 73.230268 
L 164.749055 78.600932 
L 165.023127 78.408542 
L 165.2972 83.423975 
L 165.571273 115.277078 
L 165.845345 92.698976 
L 166.119418 51.171212 
L 166.393491 114.256774 
L 166.667564 73.919822 
L 166.941636 105.145146 
L 167.215709 49.784412 
L 167.489782 103.299324 
L 167.763855 43.762828 
L 168.037927 78.766091 
L 168.312 58.509947 
L 168.586073 63.197716 
L 168.860145 101.37586 
L 169.134218 75.030496 
L 169.408291 61.359776 
L 169.682364 119.661901 
L 169.956436 74.659759 
L 170.230509 75.651279 
L 170.504582 126.364536 
L 170.778655 73.281866 
L 171.052727 91.802528 
L 171.3268 58.626913 
L 171.600873 74.194689 
L 171.874945 98.431558 
L 172.149018 108.96098 
L 172.423091 102.717242 
L 172.697164 105.607434 
L 172.971236 89.414028 
L 173.245309 94.73981 
L 173.519382 115.158739 
L 173.793455 44.691491 
L 174.067527 74.479395 
L 174.3416 125.817604 
L 174.615673 48.089283 
L 174.889745 99.624368 
L 175.163818 101.823208 
L 175.437891 53.798461 
L 175.711964 106.211646 
L 175.986036 61.779316 
L 176.260109 87.186488 
L 176.534182 83.450227 
L 176.808255 74.980063 
L 177.082327 90.672012 
L 177.3564 87.217738 
L 177.630473 114.994764 
L 177.904545 120.66504 
L 178.178618 46.52876 
L 178.452691 101.326 
L 178.726764 101.923977 
L 179.000836 108.728998 
L 179.274909 86.279053 
L 179.548982 88.753114 
L 179.823055 53.823728 
L 180.097127 73.978351 
L 180.3712 116.366114 
L 180.645273 83.069398 
L 180.919345 67.927195 
L 181.467491 116.52017 
L 181.741564 95.797345 
L 182.015636 99.754631 
L 182.289709 95.811216 
L 182.563782 102.337101 
L 182.837855 114.722115 
L 183.111927 108.844899 
L 183.386 105.448781 
L 183.660073 46.303627 
L 183.934145 97.318126 
L 184.208218 94.017887 
L 184.482291 83.989891 
L 184.756364 84.214328 
L 185.030436 125.096116 
L 185.304509 81.676168 
L 185.578582 76.187158 
L 185.852655 50.776964 
L 186.126727 45.52293 
L 186.4008 118.471919 
L 186.674873 67.101546 
L 186.948945 56.119945 
L 187.223018 94.722597 
L 187.497091 71.535002 
L 187.771164 79.894635 
L 188.045236 51.62123 
L 188.319309 86.553312 
L 188.593382 86.37148 
L 188.867455 61.883163 
L 189.141527 50.690773 
L 189.4156 85.581353 
L 189.689673 67.771408 
L 189.963745 83.527997 
L 190.237818 130.513854 
L 190.511891 49.720794 
L 190.785964 112.795716 
L 191.060036 103.699022 
L 191.334109 62.433413 
L 191.608182 78.118684 
L 191.882255 106.076332 
L 192.156327 89.240506 
L 192.4304 56.126478 
L 192.704473 128.814734 
L 192.978545 80.130015 
L 193.252618 59.642117 
L 193.526691 111.752067 
L 193.800764 108.246112 
L 194.348909 52.686409 
L 194.622982 61.829771 
L 194.897055 48.601655 
L 195.171127 68.276639 
L 195.4452 70.584307 
L 195.719273 60.054307 
L 195.993345 115.132181 
L 196.267418 77.732171 
L 196.541491 99.760923 
L 196.815564 74.909559 
L 197.089636 111.79143 
L 197.363709 77.021108 
L 197.637782 85.432868 
L 197.911855 105.351542 
L 198.185927 64.852976 
L 198.46 128.171802 
L 198.734073 125.458974 
L 199.008145 113.821765 
L 199.282218 47.833128 
L 199.556291 107.949052 
L 200.104436 122.080334 
L 200.378509 68.18616 
L 200.652582 106.065174 
L 200.926655 113.685306 
L 201.200727 47.857406 
L 201.4748 111.440597 
L 201.748873 120.071541 
L 202.022945 115.355555 
L 202.297018 65.924858 
L 202.571091 122.34506 
L 203.119236 49.532147 
L 203.393309 118.489958 
L 203.667382 65.061969 
L 203.941455 115.503813 
L 204.215527 129.418641 
L 204.4896 81.584171 
L 204.763673 72.109977 
L 205.037745 79.638576 
L 205.311818 56.717372 
L 205.585891 73.690982 
L 205.859964 78.346914 
L 206.134036 123.71374 
L 206.408109 65.589079 
L 206.682182 115.702995 
L 206.956255 112.589008 
L 207.230327 61.069909 
L 207.5044 61.813581 
L 207.778473 52.598654 
L 208.052545 57.71821 
L 208.326618 123.631035 
L 208.600691 127.405906 
L 208.874764 127.254951 
L 209.148836 74.507738 
L 209.422909 105.036038 
L 209.696982 69.486264 
L 209.971055 78.722296 
L 210.245127 103.121196 
L 210.5192 86.600242 
L 210.793273 100.81908 
L 211.067345 53.577325 
L 211.341418 112.076932 
L 211.615491 124.237818 
L 211.889564 58.779558 
L 212.163636 122.371704 
L 212.437709 119.053178 
L 212.711782 125.968885 
L 212.985855 99.698699 
L 213.259927 101.80373 
L 213.534 81.680141 
L 214.082145 102.679263 
L 214.356218 103.704004 
L 214.630291 65.017723 
L 214.904364 112.643968 
L 215.178436 53.99409 
L 215.452509 83.221765 
L 215.726582 88.796492 
L 216.000655 77.128478 
L 216.274727 92.708589 
L 216.822873 82.889827 
L 217.096945 85.878364 
L 217.371018 90.888407 
L 217.645091 99.532353 
L 217.919164 72.604349 
L 218.193236 116.887715 
L 218.467309 73.155105 
L 218.741382 67.026793 
L 219.289527 72.09011 
L 219.5636 44.736352 
L 219.837673 50.45798 
L 220.385818 114.090339 
L 220.659891 124.461985 
L 221.208036 47.837177 
L 221.482109 44.18446 
L 221.756182 120.4595 
L 222.030255 116.223731 
L 222.304327 79.564718 
L 222.5784 98.110523 
L 222.852473 86.722205 
L 223.126545 60.99389 
L 223.400618 58.743555 
L 223.674691 44.167521 
L 223.948764 44.338626 
L 224.222836 46.305544 
L 224.496909 123.342006 
L 224.770982 91.736492 
L 225.045055 126.586242 
L 225.319127 59.455863 
L 225.867273 119.331711 
L 226.141345 90.616305 
L 226.415418 86.157541 
L 226.689491 91.823804 
L 226.963564 64.441443 
L 227.237636 90.471683 
L 227.785782 85.880106 
L 228.059855 89.953484 
L 228.333927 112.117377 
L 228.608 116.547739 
L 228.882073 95.345195 
L 229.156145 85.220429 
L 229.430218 53.461279 
L 229.704291 130.513645 
L 229.978364 78.085054 
L 230.252436 79.045893 
L 230.800582 48.893747 
L 231.074655 91.278672 
L 231.348727 95.652231 
L 231.6228 77.329658 
L 231.896873 48.755291 
L 232.170945 126.287185 
L 232.445018 87.680348 
L 232.719091 103.674821 
L 232.993164 70.897686 
L 233.267236 119.196515 
L 233.815382 100.144516 
L 234.089455 125.786824 
L 234.363527 83.638726 
L 234.6376 99.672414 
L 234.911673 75.255195 
L 235.185745 67.295201 
L 235.459818 47.914064 
L 235.733891 92.72145 
L 236.007964 83.905159 
L 236.282036 89.248769 
L 236.556109 130.357075 
L 236.830182 114.337519 
L 237.104255 74.098421 
L 237.378327 79.755371 
L 237.6524 68.859302 
L 237.926473 111.048372 
L 238.474618 61.312564 
L 238.748691 44.204642 
L 239.022764 77.186344 
L 239.296836 52.428925 
L 239.570909 108.626896 
L 239.844982 66.444117 
L 240.119055 89.347899 
L 240.393127 49.613364 
L 240.6672 80.626016 
L 240.941273 52.598105 
L 241.215345 96.694033 
L 241.489418 78.215805 
L 241.763491 105.280167 
L 242.311636 63.821775 
L 242.585709 99.505369 
L 242.859782 119.441121 
L 243.133855 105.703816 
L 243.407927 111.648945 
L 243.682 112.266862 
L 243.956073 64.095667 
L 244.230145 68.226411 
L 244.504218 87.438416 
L 244.778291 65.764605 
L 245.052364 119.159224 
L 245.326436 60.460903 
L 245.600509 104.762706 
L 245.874582 44.507109 
L 246.148655 70.304773 
L 246.422727 52.048281 
L 246.6968 45.228563 
L 247.244945 66.767243 
L 247.519018 70.8525 
L 247.793091 123.153405 
L 248.067164 56.000179 
L 248.341236 112.345629 
L 248.615309 122.497517 
L 248.889382 64.681571 
L 249.163455 121.012678 
L 249.437527 47.206686 
L 249.7116 108.787158 
L 249.985673 80.609636 
L 250.259745 78.090309 
L 250.533818 130.010828 
L 250.807891 125.084851 
L 251.081964 55.39485 
L 251.356036 71.787782 
L 251.630109 128.255169 
L 251.904182 73.544089 
L 252.452327 103.756721 
L 252.7264 126.022134 
L 253.000473 121.079136 
L 253.274545 73.296158 
L 253.548618 87.56012 
L 253.822691 94.996049 
L 254.096764 124.940045 
L 254.644909 65.703924 
L 254.918982 58.604369 
L 255.193055 125.866774 
L 255.467127 72.532776 
L 255.7412 56.177503 
L 256.015273 60.632159 
L 256.289345 75.746349 
L 256.563418 76.535483 
L 256.837491 116.645404 
L 257.111564 95.820554 
L 257.385636 48.921385 
L 257.659709 122.218965 
L 257.933782 45.463688 
L 258.207855 122.446881 
L 258.481927 65.181545 
L 258.756 69.865766 
L 259.030073 126.175256 
L 259.304145 45.499646 
L 259.578218 62.520767 
L 259.852291 98.414447 
L 260.126364 47.159753 
L 260.400436 127.948949 
L 260.674509 111.844148 
L 260.948582 69.272661 
L 261.222655 119.652777 
L 261.496727 74.322339 
L 261.7708 49.404138 
L 262.044873 118.918305 
L 262.318945 73.246559 
L 262.593018 120.815191 
L 262.867091 70.860402 
L 263.141164 128.872141 
L 263.415236 47.474497 
L 263.689309 119.090335 
L 263.963382 85.754833 
L 264.237455 88.397903 
L 264.511527 58.798431 
L 264.7856 125.722368 
L 265.059673 87.037443 
L 265.333745 109.524554 
L 265.607818 70.373551 
L 265.881891 74.410352 
L 266.155964 65.257981 
L 266.430036 83.355869 
L 266.704109 118.721528 
L 266.978182 64.715864 
L 267.252255 60.818181 
L 267.526327 113.700661 
L 267.8004 109.939059 
L 268.074473 79.84828 
L 268.348545 128.755505 
L 268.622618 114.742048 
L 268.896691 85.061442 
L 269.170764 68.974252 
L 269.718909 123.826774 
L 269.992982 115.260803 
L 270.267055 125.140058 
L 270.541127 47.486327 
L 270.8152 68.295544 
L 271.089273 69.888691 
L 271.363345 88.916475 
L 271.637418 75.142644 
L 271.911491 108.458293 
L 272.185564 54.76823 
L 272.459636 128.849532 
L 272.733709 125.210153 
L 273.007782 75.073015 
L 273.281855 75.816894 
L 273.555927 71.888312 
L 273.83 54.000576 
L 274.104073 47.499813 
L 274.378145 47.666962 
L 274.652218 64.184457 
L 274.926291 122.652376 
L 275.200364 67.536411 
L 275.474436 104.624431 
L 275.748509 44.176017 
L 276.022582 108.185065 
L 276.296655 60.678427 
L 276.570727 126.191847 
L 276.8448 107.681303 
L 277.118873 47.407032 
L 277.392945 81.777145 
L 277.667018 49.548568 
L 277.941091 104.356573 
L 278.215164 67.544134 
L 278.489236 64.242078 
L 278.763309 63.025614 
L 279.037382 90.296336 
L 279.311455 47.517834 
L 279.585527 107.840296 
L 279.8596 107.583904 
L 280.133673 90.344036 
L 280.407745 45.083281 
L 280.681818 46.074858 
L 280.955891 75.373065 
L 281.229964 62.588203 
L 281.504036 121.048061 
L 281.778109 65.548059 
L 282.052182 123.159928 
L 282.326255 107.143282 
L 282.600327 111.703385 
L 282.8744 48.388615 
L 283.148473 95.03172 
L 283.422545 79.076908 
L 283.696618 121.55971 
L 283.970691 86.885218 
L 284.244764 94.555937 
L 284.518836 82.791116 
L 284.792909 98.102569 
L 285.066982 98.281303 
L 285.341055 95.566476 
L 285.615127 86.326667 
L 285.8892 110.848678 
L 286.163273 43.913774 
L 286.437345 87.824573 
L 286.711418 89.074777 
L 286.985491 48.294352 
L 287.259564 128.643438 
L 287.533636 66.717559 
L 287.807709 80.763406 
L 288.081782 106.176831 
L 288.355855 69.379377 
L 288.629927 125.746484 
L 288.904 110.214912 
L 289.178073 128.22471 
L 289.452145 60.118287 
L 289.726218 83.79155 
L 290.000291 60.631112 
L 290.274364 51.865609 
L 290.822509 53.28114 
L 291.096582 81.749757 
L 291.370655 75.99637 
L 291.644727 98.485953 
L 291.9188 95.72572 
L 292.192873 112.943671 
L 292.466945 51.393562 
L 292.741018 75.037701 
L 293.015091 81.168901 
L 293.563236 118.560872 
L 293.837309 75.487648 
L 294.385455 115.16855 
L 294.659527 75.154036 
L 294.9336 128.196163 
L 295.207673 118.211654 
L 295.481745 129.690507 
L 295.755818 119.098734 
L 296.029891 120.420739 
L 296.303964 63.449985 
L 296.578036 123.458789 
L 296.852109 122.093127 
L 297.126182 102.788372 
L 297.400255 114.00002 
L 297.674327 81.607477 
L 297.9484 92.982211 
L 298.222473 77.150391 
L 298.496545 51.238401 
L 298.770618 78.50389 
L 299.044691 119.208488 
L 299.318764 72.374052 
L 299.592836 125.708363 
L 299.866909 128.994336 
L 300.140982 51.272425 
L 300.415055 118.762324 
L 300.689127 97.486273 
L 300.9632 115.304655 
L 301.511345 96.492132 
L 301.785418 86.715358 
L 302.059491 71.592325 
L 302.333564 95.382705 
L 302.607636 73.713668 
L 302.881709 112.573492 
L 303.155782 77.96025 
L 303.429855 68.596108 
L 303.703927 50.887994 
L 303.978 50.080704 
L 304.252073 125.652377 
L 304.526145 73.30549 
L 304.800218 57.568187 
L 305.074291 65.396527 
L 305.348364 88.176315 
L 305.622436 57.681452 
L 305.896509 54.704589 
L 306.170582 122.313126 
L 306.444655 90.335887 
L 306.718727 76.932525 
L 306.9928 126.427439 
L 307.266873 55.28862 
L 307.540945 118.984149 
L 307.815018 74.461239 
L 308.089091 87.957021 
L 308.363164 44.866925 
L 308.637236 48.528147 
L 308.911309 130.039421 
L 309.185382 120.358572 
L 309.459455 53.970603 
L 309.733527 102.674374 
L 310.0076 122.675525 
L 310.281673 82.958608 
L 310.555745 90.227746 
L 310.829818 47.029665 
L 311.103891 90.398289 
L 311.377964 68.690901 
L 311.652036 118.959817 
L 311.926109 46.939258 
L 312.200182 114.204216 
L 312.474255 58.649844 
L 312.748327 106.445808 
L 313.296473 46.894804 
L 313.570545 96.422134 
L 313.844618 58.113109 
L 314.118691 114.457417 
L 314.392764 110.955428 
L 314.666836 56.617218 
L 314.940909 87.626924 
L 315.214982 75.013882 
L 315.489055 56.454021 
L 315.763127 118.684361 
L 316.0372 105.0639 
L 316.311273 103.714348 
L 316.585345 103.047121 
L 316.859418 101.834534 
L 317.133491 81.672141 
L 317.407564 44.907889 
L 317.681636 48.74936 
L 317.955709 109.869076 
L 318.229782 129.676162 
L 318.503855 114.583688 
L 318.777927 61.938452 
L 319.052 89.677139 
L 319.326073 54.454744 
L 319.600145 100.474263 
L 319.874218 77.907447 
L 320.148291 75.894347 
L 320.422364 55.095021 
L 320.696436 67.24545 
L 320.970509 94.439821 
L 321.244582 97.810092 
L 321.518655 54.019567 
L 321.792727 70.738969 
L 322.0668 110.021028 
L 322.340873 99.213411 
L 322.614945 113.09639 
L 322.889018 64.534324 
L 323.163091 63.322595 
L 323.437164 103.618752 
L 323.711236 100.586676 
L 323.985309 94.268912 
L 324.259382 54.690132 
L 324.533455 88.017867 
L 324.807527 85.426968 
L 325.0816 68.241508 
L 325.355673 93.996794 
L 325.629745 60.213851 
L 325.903818 120.918853 
L 326.177891 58.464228 
L 326.726036 116.411236 
L 327.000109 109.248316 
L 327.274182 50.298589 
L 327.548255 115.011244 
L 327.822327 47.062223 
L 328.370473 53.755482 
L 328.644545 122.785141 
L 328.918618 75.794352 
L 329.192691 75.524633 
L 329.466764 115.743695 
L 330.014909 75.708679 
L 330.288982 89.815594 
L 330.563055 73.430584 
L 330.837127 119.382484 
L 331.1112 61.058214 
L 331.385273 103.117138 
L 331.659345 116.139916 
L 331.933418 64.263669 
L 332.481564 121.249329 
L 332.755636 83.481448 
L 333.029709 77.804984 
L 333.303782 127.904902 
L 333.577855 83.628668 
L 333.851927 71.334157 
L 334.126 82.586648 
L 334.400073 107.966511 
L 334.674145 60.660044 
L 334.948218 123.058807 
L 335.222291 93.745901 
L 335.222291 93.745901 
" clip-path="url(#p3c4ab9ccb8)" style="fill: none; stroke: #1f77b4; stroke-width: 1.5; stroke-linecap: square"/>
   </g>
   <g id="line2d_14">
    <path d="M 61.423636 87.16 
L 335.496364 87.16 
" clip-path="url(#p3c4ab9ccb8)" style="fill: none; stroke-dasharray: 7.4,3.2; stroke-dashoffset: 0; stroke: #ff0000; stroke-width: 2"/>
   </g>
   <g id="line2d_15">
    <path d="M 192.978545 87.16 
L 203.941455 87.16 
" clip-path="url(#p3c4ab9ccb8)" style="fill: none; stroke: #000000; stroke-width: 2; stroke-linecap: square"/>
   </g>
   <g id="line2d_16">
    <path d="M 192.978545 43.72 
L 203.941455 43.72 
" clip-path="url(#p3c4ab9ccb8)" style="fill: none; stroke: #000000; stroke-width: 2; stroke-linecap: square"/>
   </g>
   <g id="line2d_17">
    <path d="M 198.46 87.16 
L 198.46 43.72 
" clip-path="url(#p3c4ab9ccb8)" style="fill: none; stroke: #000000; stroke-width: 2; stroke-linecap: square"/>
   </g>
   <g id="line2d_18">
    <path d="M 192.978545 159.56 
L 203.941455 159.56 
" clip-path="url(#p3c4ab9ccb8)" style="fill: none; stroke: #000000; stroke-width: 2; stroke-linecap: square"/>
   </g>
   <g id="line2d_19">
    <path d="M 198.46 159.56 
L 198.46 87.16 
" clip-path="url(#p3c4ab9ccb8)" style="fill: none; stroke: #000000; stroke-width: 2; stroke-linecap: square"/>
   </g>
   <g id="patch_3">
    <path d="M 47.72 174.04 
L 47.72 14.76 
" style="fill: none; stroke: #000000; stroke-width: 0.8; stroke-linejoin: miter; stroke-linecap: square"/>
   </g>
   <g id="patch_4">
    <path d="M 349.2 174.04 
L 349.2 14.76 
" style="fill: none; stroke: #000000; stroke-width: 0.8; stroke-linejoin: miter; stroke-linecap: square"/>
   </g>
   <g id="patch_5">
    <path d="M 47.72 174.04 
L 349.2 174.04 
" style="fill: none; stroke: #000000; stroke-width: 0.8; stroke-linejoin: miter; stroke-linecap: square"/>
   </g>
   <g id="patch_6">
    <path d="M 47.72 14.76 
L 349.2 14.76 
" style="fill: none; stroke: #000000; stroke-width: 0.8; stroke-linejoin: miter; stroke-linecap: square"/>
   </g>
   <g id="text_15">
    <g id="patch_7">
     <path d="M 205.422909 71.519688 
L 235.015097 71.519688 
L 235.015097 53.841563 
L 205.422909 53.841563 
z
" style="fill: #ffffff; opacity: 0.8; stroke: #000000; stroke-linejoin: miter"/>
    </g>
    <!-- gain -->
    <g transform="translate(209.422909 65.44) scale(0.1 -0.1)">
     <use xlink:href="#DejaVuSans-67"/>
     <use xlink:href="#DejaVuSans-61" x="63.476562"/>
     <use xlink:href="#DejaVuSans-69" x="124.755859"/>
     <use xlink:href="#DejaVuSans-6e" x="152.539062"/>
    </g>
   </g>
   <g id="text_16">
    <g id="patch_8">
     <path d="M 205.422909 129.439688 
L 241.865097 129.439688 
L 241.865097 111.761563 
L 205.422909 111.761563 
z
" style="fill: #ffffff; opacity: 0.8; stroke: #000000; stroke-linejoin: miter"/>
    </g>
    <!-- offset -->
    <g transform="translate(209.422909 123.36) scale(0.1 -0.1)">
     <defs>
      <path id="DejaVuSans-6f" d="M 1959 3097 
Q 1497 3097 1228 2736 
Q 959 2375 959 1747 
Q 959 1119 1226 758 
Q 1494 397 1959 397 
Q 2419 397 2687 759 
Q 2956 1122 2956 1747 
Q 2956 2369 2687 2733 
Q 2419 3097 1959 3097 
z
M 1959 3584 
Q 2709 3584 3137 3096 
Q 3566 2609 3566 1747 
Q 3566 888 3137 398 
Q 2709 -91 1959 -91 
Q 1206 -91 779 398 
Q 353 888 353 1747 
Q 353 2609 779 3096 
Q 1206 3584 1959 3584 
z
" transform="scale(0.015625)"/>
      <path id="DejaVuSans-66" d="M 2375 4863 
L 2375 4384 
L 1825 4384 
Q 1516 4384 1395 4259 
Q 1275 4134 1275 3809 
L 1275 3500 
L 2222 3500 
L 2222 3053 
L 1275 3053 
L 1275 0 
L 697 0 
L 697 3053 
L 147 3053 
L 147 3500 
L 697 3500 
L 697 3744 
Q 697 4328 969 4595 
Q 1241 4863 1831 4863 
L 2375 4863 
z
" transform="scale(0.015625)"/>
     </defs>
     <use xlink:href="#DejaVuSans-6f"/>
     <use xlink:href="#DejaVuSans-66" x="61.181641"/>
     <use xlink:href="#DejaVuSans-66" x="96.386719"/>
     <use xlink:href="#DejaVuSans-73" x="131.591797"/>
     <use xlink:href="#DejaVuSans-65" x="183.691406"/>
     <use xlink:href="#DejaVuSans-74" x="245.214844"/>
    </g>
   </g>
  </g>
 </g>
 <defs>
  <clipPath id="p3c4ab9ccb8">
   <rect x="47.72" y="14.76" width="301.48" height="159.28"/>
  </clipPath>
 </defs>
</svg>
