<?xml version="1.0" encoding="utf-8" standalone="no"?>
<!DOCTYPE svg PUBLIC "-//W3C//DTD SVG 1.1//EN"
  "http://www.w3.org/Graphics/SVG/1.1/DTD/svg11.dtd">
<svg xmlns:xlink="http://www.w3.org/1999/xlink" width="360pt" height="216pt" viewBox="0 0 360 216" xmlns="http://www.w3.org/2000/svg" version="1.1">
 <metadata>
  <rdf:RDF xmlns:dc="http://purl.org/dc/elements/1.1/" xmlns:cc="http://creativecommons.org/ns#" xmlns:rdf="http://www.w3.org/1999/02/22-rdf-syntax-ns#">
   <cc:Work>
    <dc:type rdf:resource="http://purl.org/dc/dcmitype/StillImage"/>
    <dc:date>2025-04-04T20:19:04.539494</dc:date>
    <dc:format>image/svg+xml</dc:format>
    <dc:creator>
     <cc:Agent>
      <dc:title>Matplotlib v3.7.5, https://matplotlib.org/</dc:title>
     </cc:Agent>
    </dc:creator>
   </cc:Work>
  </rdf:RDF>
 </metadata>
 <defs>
  <style type="text/css">*{stroke-linejoin: round; stroke-linecap: butt}</style>
 </defs>
 <g id="figure_1">
  <g id="patch_1">
   <path d="M 0 216 
L 360 216 
L 360 0 
L 0 0 
z
" style="fill: #ffffff"/>
  </g>
  <g id="axes_1">
   <g id="patch_2">
    <path d="M 47.72 174.04 
L 349.2 174.04 
L 349.2 14.76 
L 47.72 14.76 
z
" style="fill: #ffffff"/>
   </g>
   <g id="matplotlib.axis_1">
    <g id="xtick_1">
     <g id="line2d_1">
      <defs>
       <path id="m15da7a3ff6" d="M 0 0 
L 0 3.5 
" style="stroke: #000000; stroke-width: 0.8"/>
      </defs>
      <g>
       <use xlink:href="#m15da7a3ff6" x="61.423636" y="174.04" style="stroke: #000000; stroke-width: 0.8"/>
      </g>
     </g>
     <g id="text_1">
      <!-- 0.0 -->
      <g transform="translate(53.472074 188.638438) scale(0.1 -0.1)">
       <defs>
        <path id="DejaVuSans-30" d="M 2034 4250 
Q 1547 4250 1301 3770 
Q 1056 3291 1056 2328 
Q 1056 1369 1301 889 
Q 1547 409 2034 409 
Q 2525 409 2770 889 
Q 3016 1369 3016 2328 
Q 3016 3291 2770 3770 
Q 2525 4250 2034 4250 
z
M 2034 4750 
Q 2819 4750 3233 4129 
Q 3647 3509 3647 2328 
Q 3647 1150 3233 529 
Q 2819 -91 2034 -91 
Q 1250 -91 836 529 
Q 422 1150 422 2328 
Q 422 3509 836 4129 
Q 1250 4750 2034 4750 
z
" transform="scale(0.015625)"/>
        <path id="DejaVuSans-2e" d="M 684 794 
L 1344 794 
L 1344 0 
L 684 0 
L 684 794 
z
" transform="scale(0.015625)"/>
       </defs>
       <use xlink:href="#DejaVuSans-30"/>
       <use xlink:href="#DejaVuSans-2e" x="63.623047"/>
       <use xlink:href="#DejaVuSans-30" x="95.410156"/>
      </g>
     </g>
    </g>
    <g id="xtick_2">
     <g id="line2d_2">
      <g>
       <use xlink:href="#m15da7a3ff6" x="116.238182" y="174.04" style="stroke: #000000; stroke-width: 0.8"/>
      </g>
     </g>
     <g id="text_2">
      <!-- 0.2 -->
      <g transform="translate(108.286619 188.638438) scale(0.1 -0.1)">
       <defs>
        <path id="DejaVuSans-32" d="M 1228 531 
L 3431 531 
L 3431 0 
L 469 0 
L 469 531 
Q 828 903 1448 1529 
Q 2069 2156 2228 2338 
Q 2531 2678 2651 2914 
Q 2772 3150 2772 3378 
Q 2772 3750 2511 3984 
Q 2250 4219 1831 4219 
Q 1534 4219 1204 4116 
Q 875 4013 500 3803 
L 500 4441 
Q 881 4594 1212 4672 
Q 1544 4750 1819 4750 
Q 2544 4750 2975 4387 
Q 3406 4025 3406 3419 
Q 3406 3131 3298 2873 
Q 3191 2616 2906 2266 
Q 2828 2175 2409 1742 
Q 1991 1309 1228 531 
z
" transform="scale(0.015625)"/>
       </defs>
       <use xlink:href="#DejaVuSans-30"/>
       <use xlink:href="#DejaVuSans-2e" x="63.623047"/>
       <use xlink:href="#DejaVuSans-32" x="95.410156"/>
      </g>
     </g>
    </g>
    <g id="xtick_3">
     <g id="line2d_3">
      <g>
       <use xlink:href="#m15da7a3ff6" x="171.052727" y="174.04" style="stroke: #000000; stroke-width: 0.8"/>
      </g>
     </g>
     <g id="text_3">
      <!-- 0.4 -->
      <g transform="translate(163.101165 188.638438) scale(0.1 -0.1)">
       <defs>
        <path id="DejaVuSans-34" d="M 2419 4116 
L 825 1625 
L 2419 1625 
L 2419 4116 
z
M 2253 4666 
L 3047 4666 
L 3047 1625 
L 3713 1625 
L 3713 1100 
L 3047 1100 
L 3047 0 
L 2419 0 
L 2419 1100 
L 313 1100 
L 313 1709 
L 2253 4666 
z
" transform="scale(0.015625)"/>
       </defs>
       <use xlink:href="#DejaVuSans-30"/>
       <use xlink:href="#DejaVuSans-2e" x="63.623047"/>
       <use xlink:href="#DejaVuSans-34" x="95.410156"/>
      </g>
     </g>
    </g>
    <g id="xtick_4">
     <g id="line2d_4">
      <g>
       <use xlink:href="#m15da7a3ff6" x="225.867273" y="174.04" style="stroke: #000000; stroke-width: 0.8"/>
      </g>
     </g>
     <g id="text_4">
      <!-- 0.6 -->
      <g transform="translate(217.91571 188.638438) scale(0.1 -0.1)">
       <defs>
        <path id="DejaVuSans-36" d="M 2113 2584 
Q 1688 2584 1439 2293 
Q 1191 2003 1191 1497 
Q 1191 994 1439 701 
Q 1688 409 2113 409 
Q 2538 409 2786 701 
Q 3034 994 3034 1497 
Q 3034 2003 2786 2293 
Q 2538 2584 2113 2584 
z
M 3366 4563 
L 3366 3988 
Q 3128 4100 2886 4159 
Q 2644 4219 2406 4219 
Q 1781 4219 1451 3797 
Q 1122 3375 1075 2522 
Q 1259 2794 1537 2939 
Q 1816 3084 2150 3084 
Q 2853 3084 3261 2657 
Q 3669 2231 3669 1497 
Q 3669 778 3244 343 
Q 2819 -91 2113 -91 
Q 1303 -91 875 529 
Q 447 1150 447 2328 
Q 447 3434 972 4092 
Q 1497 4750 2381 4750 
Q 2619 4750 2861 4703 
Q 3103 4656 3366 4563 
z
" transform="scale(0.015625)"/>
       </defs>
       <use xlink:href="#DejaVuSans-30"/>
       <use xlink:href="#DejaVuSans-2e" x="63.623047"/>
       <use xlink:href="#DejaVuSans-36" x="95.410156"/>
      </g>
     </g>
    </g>
    <g id="xtick_5">
     <g id="line2d_5">
      <g>
       <use xlink:href="#m15da7a3ff6" x="280.681818" y="174.04" style="stroke: #000000; stroke-width: 0.8"/>
      </g>
     </g>
     <g id="text_5">
      <!-- 0.8 -->
      <g transform="translate(272.730256 188.638438) scale(0.1 -0.1)">
       <defs>
        <path id="DejaVuSans-38" d="M 2034 2216 
Q 1584 2216 1326 1975 
Q 1069 1734 1069 1313 
Q 1069 891 1326 650 
Q 1584 409 2034 409 
Q 2484 409 2743 651 
Q 3003 894 3003 1313 
Q 3003 1734 2745 1975 
Q 2488 2216 2034 2216 
z
M 1403 2484 
Q 997 2584 770 2862 
Q 544 3141 544 3541 
Q 544 4100 942 4425 
Q 1341 4750 2034 4750 
Q 2731 4750 3128 4425 
Q 3525 4100 3525 3541 
Q 3525 3141 3298 2862 
Q 3072 2584 2669 2484 
Q 3125 2378 3379 2068 
Q 3634 1759 3634 1313 
Q 3634 634 3220 271 
Q 2806 -91 2034 -91 
Q 1263 -91 848 271 
Q 434 634 434 1313 
Q 434 1759 690 2068 
Q 947 2378 1403 2484 
z
M 1172 3481 
Q 1172 3119 1398 2916 
Q 1625 2713 2034 2713 
Q 2441 2713 2670 2916 
Q 2900 3119 2900 3481 
Q 2900 3844 2670 4047 
Q 2441 4250 2034 4250 
Q 1625 4250 1398 4047 
Q 1172 3844 1172 3481 
z
" transform="scale(0.015625)"/>
       </defs>
       <use xlink:href="#DejaVuSans-30"/>
       <use xlink:href="#DejaVuSans-2e" x="63.623047"/>
       <use xlink:href="#DejaVuSans-38" x="95.410156"/>
      </g>
     </g>
    </g>
    <g id="xtick_6">
     <g id="line2d_6">
      <g>
       <use xlink:href="#m15da7a3ff6" x="335.496364" y="174.04" style="stroke: #000000; stroke-width: 0.8"/>
      </g>
     </g>
     <g id="text_6">
      <!-- 1.0 -->
      <g transform="translate(327.544801 188.638438) scale(0.1 -0.1)">
       <defs>
        <path id="DejaVuSans-31" d="M 794 531 
L 1825 531 
L 1825 4091 
L 703 3866 
L 703 4441 
L 1819 4666 
L 2450 4666 
L 2450 531 
L 3481 531 
L 3481 0 
L 794 0 
L 794 531 
z
" transform="scale(0.015625)"/>
       </defs>
       <use xlink:href="#DejaVuSans-31"/>
       <use xlink:href="#DejaVuSans-2e" x="63.623047"/>
       <use xlink:href="#DejaVuSans-30" x="95.410156"/>
      </g>
     </g>
    </g>
    <g id="text_7">
     <!-- Time (sec) -->
     <g transform="translate(172.305312 202.316563) scale(0.1 -0.1)">
      <defs>
       <path id="DejaVuSans-54" d="M -19 4666 
L 3928 4666 
L 3928 4134 
L 2272 4134 
L 2272 0 
L 1638 0 
L 1638 4134 
L -19 4134 
L -19 4666 
z
" transform="scale(0.015625)"/>
       <path id="DejaVuSans-69" d="M 603 3500 
L 1178 3500 
L 1178 0 
L 603 0 
L 603 3500 
z
M 603 4863 
L 1178 4863 
L 1178 4134 
L 603 4134 
L 603 4863 
z
" transform="scale(0.015625)"/>
       <path id="DejaVuSans-6d" d="M 3328 2828 
Q 3544 3216 3844 3400 
Q 4144 3584 4550 3584 
Q 5097 3584 5394 3201 
Q 5691 2819 5691 2113 
L 5691 0 
L 5113 0 
L 5113 2094 
Q 5113 2597 4934 2840 
Q 4756 3084 4391 3084 
Q 3944 3084 3684 2787 
Q 3425 2491 3425 1978 
L 3425 0 
L 2847 0 
L 2847 2094 
Q 2847 2600 2669 2842 
Q 2491 3084 2119 3084 
Q 1678 3084 1418 2786 
Q 1159 2488 1159 1978 
L 1159 0 
L 581 0 
L 581 3500 
L 1159 3500 
L 1159 2956 
Q 1356 3278 1631 3431 
Q 1906 3584 2284 3584 
Q 2666 3584 2933 3390 
Q 3200 3197 3328 2828 
z
" transform="scale(0.015625)"/>
       <path id="DejaVuSans-65" d="M 3597 1894 
L 3597 1613 
L 953 1613 
Q 991 1019 1311 708 
Q 1631 397 2203 397 
Q 2534 397 2845 478 
Q 3156 559 3463 722 
L 3463 178 
Q 3153 47 2828 -22 
Q 2503 -91 2169 -91 
Q 1331 -91 842 396 
Q 353 884 353 1716 
Q 353 2575 817 3079 
Q 1281 3584 2069 3584 
Q 2775 3584 3186 3129 
Q 3597 2675 3597 1894 
z
M 3022 2063 
Q 3016 2534 2758 2815 
Q 2500 3097 2075 3097 
Q 1594 3097 1305 2825 
Q 1016 2553 972 2059 
L 3022 2063 
z
" transform="scale(0.015625)"/>
       <path id="DejaVuSans-20" transform="scale(0.015625)"/>
       <path id="DejaVuSans-28" d="M 1984 4856 
Q 1566 4138 1362 3434 
Q 1159 2731 1159 2009 
Q 1159 1288 1364 580 
Q 1569 -128 1984 -844 
L 1484 -844 
Q 1016 -109 783 600 
Q 550 1309 550 2009 
Q 550 2706 781 3412 
Q 1013 4119 1484 4856 
L 1984 4856 
z
" transform="scale(0.015625)"/>
       <path id="DejaVuSans-73" d="M 2834 3397 
L 2834 2853 
Q 2591 2978 2328 3040 
Q 2066 3103 1784 3103 
Q 1356 3103 1142 2972 
Q 928 2841 928 2578 
Q 928 2378 1081 2264 
Q 1234 2150 1697 2047 
L 1894 2003 
Q 2506 1872 2764 1633 
Q 3022 1394 3022 966 
Q 3022 478 2636 193 
Q 2250 -91 1575 -91 
Q 1294 -91 989 -36 
Q 684 19 347 128 
L 347 722 
Q 666 556 975 473 
Q 1284 391 1588 391 
Q 1994 391 2212 530 
Q 2431 669 2431 922 
Q 2431 1156 2273 1281 
Q 2116 1406 1581 1522 
L 1381 1569 
Q 847 1681 609 1914 
Q 372 2147 372 2553 
Q 372 3047 722 3315 
Q 1072 3584 1716 3584 
Q 2034 3584 2315 3537 
Q 2597 3491 2834 3397 
z
" transform="scale(0.015625)"/>
       <path id="DejaVuSans-63" d="M 3122 3366 
L 3122 2828 
Q 2878 2963 2633 3030 
Q 2388 3097 2138 3097 
Q 1578 3097 1268 2742 
Q 959 2388 959 1747 
Q 959 1106 1268 751 
Q 1578 397 2138 397 
Q 2388 397 2633 464 
Q 2878 531 3122 666 
L 3122 134 
Q 2881 22 2623 -34 
Q 2366 -91 2075 -91 
Q 1284 -91 818 406 
Q 353 903 353 1747 
Q 353 2603 823 3093 
Q 1294 3584 2113 3584 
Q 2378 3584 2631 3529 
Q 2884 3475 3122 3366 
z
" transform="scale(0.015625)"/>
       <path id="DejaVuSans-29" d="M 513 4856 
L 1013 4856 
Q 1481 4119 1714 3412 
Q 1947 2706 1947 2009 
Q 1947 1309 1714 600 
Q 1481 -109 1013 -844 
L 513 -844 
Q 928 -128 1133 580 
Q 1338 1288 1338 2009 
Q 1338 2731 1133 3434 
Q 928 4138 513 4856 
z
" transform="scale(0.015625)"/>
      </defs>
      <use xlink:href="#DejaVuSans-54"/>
      <use xlink:href="#DejaVuSans-69" x="57.958984"/>
      <use xlink:href="#DejaVuSans-6d" x="85.742188"/>
      <use xlink:href="#DejaVuSans-65" x="183.154297"/>
      <use xlink:href="#DejaVuSans-20" x="244.677734"/>
      <use xlink:href="#DejaVuSans-28" x="276.464844"/>
      <use xlink:href="#DejaVuSans-73" x="315.478516"/>
      <use xlink:href="#DejaVuSans-65" x="367.578125"/>
      <use xlink:href="#DejaVuSans-63" x="429.101562"/>
      <use xlink:href="#DejaVuSans-29" x="484.082031"/>
     </g>
    </g>
   </g>
   <g id="matplotlib.axis_2">
    <g id="ytick_1">
     <g id="line2d_7">
      <defs>
       <path id="mb566005335" d="M 0 0 
L -3.5 0 
" style="stroke: #000000; stroke-width: 0.8"/>
      </defs>
      <g>
       <use xlink:href="#mb566005335" x="47.72" y="159.56" style="stroke: #000000; stroke-width: 0.8"/>
      </g>
     </g>
     <g id="text_8">
      <!-- 0.0 -->
      <g transform="translate(24.816875 163.359219) scale(0.1 -0.1)">
       <use xlink:href="#DejaVuSans-30"/>
       <use xlink:href="#DejaVuSans-2e" x="63.623047"/>
       <use xlink:href="#DejaVuSans-30" x="95.410156"/>
      </g>
     </g>
    </g>
    <g id="ytick_2">
     <g id="line2d_8">
      <g>
       <use xlink:href="#mb566005335" x="47.72" y="130.6" style="stroke: #000000; stroke-width: 0.8"/>
      </g>
     </g>
     <g id="text_9">
      <!-- 0.2 -->
      <g transform="translate(24.816875 134.399219) scale(0.1 -0.1)">
       <use xlink:href="#DejaVuSans-30"/>
       <use xlink:href="#DejaVuSans-2e" x="63.623047"/>
       <use xlink:href="#DejaVuSans-32" x="95.410156"/>
      </g>
     </g>
    </g>
    <g id="ytick_3">
     <g id="line2d_9">
      <g>
       <use xlink:href="#mb566005335" x="47.72" y="101.64" style="stroke: #000000; stroke-width: 0.8"/>
      </g>
     </g>
     <g id="text_10">
      <!-- 0.4 -->
      <g transform="translate(24.816875 105.439219) scale(0.1 -0.1)">
       <use xlink:href="#DejaVuSans-30"/>
       <use xlink:href="#DejaVuSans-2e" x="63.623047"/>
       <use xlink:href="#DejaVuSans-34" x="95.410156"/>
      </g>
     </g>
    </g>
    <g id="ytick_4">
     <g id="line2d_10">
      <g>
       <use xlink:href="#mb566005335" x="47.72" y="72.68" style="stroke: #000000; stroke-width: 0.8"/>
      </g>
     </g>
     <g id="text_11">
      <!-- 0.6 -->
      <g transform="translate(24.816875 76.479219) scale(0.1 -0.1)">
       <use xlink:href="#DejaVuSans-30"/>
       <use xlink:href="#DejaVuSans-2e" x="63.623047"/>
       <use xlink:href="#DejaVuSans-36" x="95.410156"/>
      </g>
     </g>
    </g>
    <g id="ytick_5">
     <g id="line2d_11">
      <g>
       <use xlink:href="#mb566005335" x="47.72" y="43.72" style="stroke: #000000; stroke-width: 0.8"/>
      </g>
     </g>
     <g id="text_12">
      <!-- 0.8 -->
      <g transform="translate(24.816875 47.519219) scale(0.1 -0.1)">
       <use xlink:href="#DejaVuSans-30"/>
       <use xlink:href="#DejaVuSans-2e" x="63.623047"/>
       <use xlink:href="#DejaVuSans-38" x="95.410156"/>
      </g>
     </g>
    </g>
    <g id="ytick_6">
     <g id="line2d_12">
      <g>
       <use xlink:href="#mb566005335" x="47.72" y="14.76" style="stroke: #000000; stroke-width: 0.8"/>
      </g>
     </g>
     <g id="text_13">
      <!-- 1.0 -->
      <g transform="translate(24.816875 18.559219) scale(0.1 -0.1)">
       <use xlink:href="#DejaVuSans-31"/>
       <use xlink:href="#DejaVuSans-2e" x="63.623047"/>
       <use xlink:href="#DejaVuSans-30" x="95.410156"/>
      </g>
     </g>
    </g>
    <g id="text_14">
     <!-- Injected Signal -->
     <g transform="translate(18.737188 131.417969) rotate(-90) scale(0.1 -0.1)">
      <defs>
       <path id="DejaVuSans-49" d="M 628 4666 
L 1259 4666 
L 1259 0 
L 628 0 
L 628 4666 
z
" transform="scale(0.015625)"/>
       <path id="DejaVuSans-6e" d="M 3513 2113 
L 3513 0 
L 2938 0 
L 2938 2094 
Q 2938 2591 2744 2837 
Q 2550 3084 2163 3084 
Q 1697 3084 1428 2787 
Q 1159 2491 1159 1978 
L 1159 0 
L 581 0 
L 581 3500 
L 1159 3500 
L 1159 2956 
Q 1366 3272 1645 3428 
Q 1925 3584 2291 3584 
Q 2894 3584 3203 3211 
Q 3513 2838 3513 2113 
z
" transform="scale(0.015625)"/>
       <path id="DejaVuSans-6a" d="M 603 3500 
L 1178 3500 
L 1178 -63 
Q 1178 -731 923 -1031 
Q 669 -1331 103 -1331 
L -116 -1331 
L -116 -844 
L 38 -844 
Q 366 -844 484 -692 
Q 603 -541 603 -63 
L 603 3500 
z
M 603 4863 
L 1178 4863 
L 1178 4134 
L 603 4134 
L 603 4863 
z
" transform="scale(0.015625)"/>
       <path id="DejaVuSans-74" d="M 1172 4494 
L 1172 3500 
L 2356 3500 
L 2356 3053 
L 1172 3053 
L 1172 1153 
Q 1172 725 1289 603 
Q 1406 481 1766 481 
L 2356 481 
L 2356 0 
L 1766 0 
Q 1100 0 847 248 
Q 594 497 594 1153 
L 594 3053 
L 172 3053 
L 172 3500 
L 594 3500 
L 594 4494 
L 1172 4494 
z
" transform="scale(0.015625)"/>
       <path id="DejaVuSans-64" d="M 2906 2969 
L 2906 4863 
L 3481 4863 
L 3481 0 
L 2906 0 
L 2906 525 
Q 2725 213 2448 61 
Q 2172 -91 1784 -91 
Q 1150 -91 751 415 
Q 353 922 353 1747 
Q 353 2572 751 3078 
Q 1150 3584 1784 3584 
Q 2172 3584 2448 3432 
Q 2725 3281 2906 2969 
z
M 947 1747 
Q 947 1113 1208 752 
Q 1469 391 1925 391 
Q 2381 391 2643 752 
Q 2906 1113 2906 1747 
Q 2906 2381 2643 2742 
Q 2381 3103 1925 3103 
Q 1469 3103 1208 2742 
Q 947 2381 947 1747 
z
" transform="scale(0.015625)"/>
       <path id="DejaVuSans-53" d="M 3425 4513 
L 3425 3897 
Q 3066 4069 2747 4153 
Q 2428 4238 2131 4238 
Q 1616 4238 1336 4038 
Q 1056 3838 1056 3469 
Q 1056 3159 1242 3001 
Q 1428 2844 1947 2747 
L 2328 2669 
Q 3034 2534 3370 2195 
Q 3706 1856 3706 1288 
Q 3706 609 3251 259 
Q 2797 -91 1919 -91 
Q 1588 -91 1214 -16 
Q 841 59 441 206 
L 441 856 
Q 825 641 1194 531 
Q 1563 422 1919 422 
Q 2459 422 2753 634 
Q 3047 847 3047 1241 
Q 3047 1584 2836 1778 
Q 2625 1972 2144 2069 
L 1759 2144 
Q 1053 2284 737 2584 
Q 422 2884 422 3419 
Q 422 4038 858 4394 
Q 1294 4750 2059 4750 
Q 2388 4750 2728 4690 
Q 3069 4631 3425 4513 
z
" transform="scale(0.015625)"/>
       <path id="DejaVuSans-67" d="M 2906 1791 
Q 2906 2416 2648 2759 
Q 2391 3103 1925 3103 
Q 1463 3103 1205 2759 
Q 947 2416 947 1791 
Q 947 1169 1205 825 
Q 1463 481 1925 481 
Q 2391 481 2648 825 
Q 2906 1169 2906 1791 
z
M 3481 434 
Q 3481 -459 3084 -895 
Q 2688 -1331 1869 -1331 
Q 1566 -1331 1297 -1286 
Q 1028 -1241 775 -1147 
L 775 -588 
Q 1028 -725 1275 -790 
Q 1522 -856 1778 -856 
Q 2344 -856 2625 -561 
Q 2906 -266 2906 331 
L 2906 616 
Q 2728 306 2450 153 
Q 2172 0 1784 0 
Q 1141 0 747 490 
Q 353 981 353 1791 
Q 353 2603 747 3093 
Q 1141 3584 1784 3584 
Q 2172 3584 2450 3431 
Q 2728 3278 2906 2969 
L 2906 3500 
L 3481 3500 
L 3481 434 
z
" transform="scale(0.015625)"/>
       <path id="DejaVuSans-61" d="M 2194 1759 
Q 1497 1759 1228 1600 
Q 959 1441 959 1056 
Q 959 750 1161 570 
Q 1363 391 1709 391 
Q 2188 391 2477 730 
Q 2766 1069 2766 1631 
L 2766 1759 
L 2194 1759 
z
M 3341 1997 
L 3341 0 
L 2766 0 
L 2766 531 
Q 2569 213 2275 61 
Q 1981 -91 1556 -91 
Q 1019 -91 701 211 
Q 384 513 384 1019 
Q 384 1609 779 1909 
Q 1175 2209 1959 2209 
L 2766 2209 
L 2766 2266 
Q 2766 2663 2505 2880 
Q 2244 3097 1772 3097 
Q 1472 3097 1187 3025 
Q 903 2953 641 2809 
L 641 3341 
Q 956 3463 1253 3523 
Q 1550 3584 1831 3584 
Q 2591 3584 2966 3190 
Q 3341 2797 3341 1997 
z
" transform="scale(0.015625)"/>
       <path id="DejaVuSans-6c" d="M 603 4863 
L 1178 4863 
L 1178 0 
L 603 0 
L 603 4863 
z
" transform="scale(0.015625)"/>
      </defs>
      <use xlink:href="#DejaVuSans-49"/>
      <use xlink:href="#DejaVuSans-6e" x="29.492188"/>
      <use xlink:href="#DejaVuSans-6a" x="92.871094"/>
      <use xlink:href="#DejaVuSans-65" x="120.654297"/>
      <use xlink:href="#DejaVuSans-63" x="182.177734"/>
      <use xlink:href="#DejaVuSans-74" x="237.158203"/>
      <use xlink:href="#DejaVuSans-65" x="276.367188"/>
      <use xlink:href="#DejaVuSans-64" x="337.890625"/>
      <use xlink:href="#DejaVuSans-20" x="401.367188"/>
      <use xlink:href="#DejaVuSans-53" x="433.154297"/>
      <use xlink:href="#DejaVuSans-69" x="496.630859"/>
      <use xlink:href="#DejaVuSans-67" x="524.414062"/>
      <use xlink:href="#DejaVuSans-6e" x="587.890625"/>
      <use xlink:href="#DejaVuSans-61" x="651.269531"/>
      <use xlink:href="#DejaVuSans-6c" x="712.548828"/>
     </g>
    </g>
   </g>
   <g id="line2d_13">
    <path d="M 61.423636 68.643108 
L 61.971782 106.409307 
L 62.245855 78.986614 
L 62.519927 122.902349 
L 62.794 85.497883 
L 63.068073 130.261368 
L 63.342145 77.681722 
L 63.616218 125.763111 
L 63.890291 81.671248 
L 64.164364 75.524973 
L 64.438436 79.852396 
L 64.712509 114.38908 
L 64.986582 125.629227 
L 65.260655 71.788799 
L 65.534727 77.73528 
L 65.8088 53.604802 
L 66.082873 48.923053 
L 66.356945 115.417147 
L 66.631018 109.342533 
L 66.905091 122.983309 
L 67.179164 76.575283 
L 67.453236 53.298286 
L 67.727309 70.646267 
L 68.001382 104.145134 
L 68.275455 76.254224 
L 68.549527 95.347833 
L 68.8236 67.913852 
L 69.097673 88.570598 
L 69.371745 86.311557 
L 69.645818 56.91168 
L 70.193964 123.14592 
L 70.742109 84.833878 
L 71.016182 97.242806 
L 71.290255 119.412214 
L 71.564327 65.250628 
L 71.8384 64.611662 
L 72.112473 57.838129 
L 72.386545 63.465026 
L 72.660618 80.716796 
L 72.934691 120.896201 
L 73.208764 91.152587 
L 73.482836 91.255099 
L 73.756909 76.400655 
L 74.030982 115.601995 
L 74.305055 82.87247 
L 74.579127 121.660252 
L 74.8532 53.989819 
L 75.401345 112.078121 
L 75.675418 75.966049 
L 75.949491 114.580277 
L 76.223564 44.639361 
L 76.497636 56.623327 
L 76.771709 73.679421 
L 77.045782 114.965383 
L 77.319855 97.826418 
L 77.593927 109.926439 
L 77.868 73.080427 
L 78.142073 63.575328 
L 78.416145 84.991145 
L 78.690218 128.831316 
L 78.964291 83.733133 
L 79.238364 60.400514 
L 79.512436 94.311681 
L 79.786509 81.3457 
L 80.060582 108.194317 
L 80.334655 55.365775 
L 80.608727 58.230263 
L 80.8828 108.796006 
L 81.156873 89.419454 
L 81.430945 98.472359 
L 81.705018 79.36225 
L 81.979091 76.21633 
L 82.253164 117.395782 
L 82.527236 83.335437 
L 82.801309 82.445329 
L 83.075382 125.165649 
L 83.349455 49.452771 
L 83.623527 88.85256 
L 83.8976 104.358111 
L 84.171673 46.622295 
L 84.445745 127.396999 
L 84.719818 115.274139 
L 84.993891 54.413876 
L 85.267964 83.884904 
L 85.542036 73.152705 
L 85.816109 82.449028 
L 86.090182 100.694366 
L 86.364255 44.368498 
L 86.638327 95.779598 
L 86.9124 89.559837 
L 87.186473 56.099001 
L 87.460545 81.37261 
L 87.734618 116.9372 
L 88.556836 68.677076 
L 88.830909 77.513181 
L 89.104982 68.154782 
L 89.379055 97.070503 
L 89.653127 55.927802 
L 90.475345 84.349766 
L 90.749418 55.398847 
L 91.023491 76.242927 
L 91.297564 70.281662 
L 91.571636 117.642854 
L 91.845709 59.37799 
L 92.393855 115.122609 
L 92.667927 69.524982 
L 92.942 47.055775 
L 93.216073 104.789753 
L 93.490145 108.689154 
L 93.764218 116.422076 
L 94.038291 129.147166 
L 94.312364 116.109443 
L 94.586436 112.593447 
L 94.860509 82.876494 
L 95.134582 86.916531 
L 95.408655 123.264775 
L 95.682727 104.696607 
L 95.9568 113.463857 
L 96.230873 73.365648 
L 96.504945 104.498755 
L 96.779018 68.873533 
L 97.053091 56.448048 
L 97.327164 108.573108 
L 97.601236 68.857097 
L 98.149382 44.893113 
L 98.423455 84.942044 
L 98.697527 59.757079 
L 98.9716 81.800228 
L 99.245673 54.832745 
L 99.793818 115.613932 
L 100.067891 71.081037 
L 100.341964 82.992036 
L 100.616036 61.228266 
L 100.890109 59.739472 
L 101.164182 53.098611 
L 101.438255 118.568233 
L 101.712327 92.841828 
L 101.9864 128.575372 
L 102.260473 82.119744 
L 102.534545 75.546341 
L 102.808618 43.728251 
L 103.082691 57.720103 
L 103.356764 124.619979 
L 103.630836 70.383505 
L 104.178982 76.79776 
L 104.453055 97.489092 
L 104.727127 79.99974 
L 105.0012 121.055634 
L 105.275273 78.716095 
L 105.549345 56.825799 
L 105.823418 124.296474 
L 106.097491 44.920812 
L 106.371564 47.795412 
L 106.645636 97.516261 
L 106.919709 44.023796 
L 107.193782 58.314605 
L 107.467855 47.276258 
L 107.741927 117.932564 
L 108.016 51.307872 
L 108.564145 116.120676 
L 108.838218 112.667098 
L 109.386364 59.501336 
L 109.934509 108.112233 
L 110.208582 67.268032 
L 110.482655 93.886523 
L 110.756727 93.428097 
L 111.0308 48.616627 
L 111.304873 92.995116 
L 111.578945 111.717842 
L 112.401164 79.893365 
L 112.675236 87.389711 
L 112.949309 65.56314 
L 113.223382 75.294889 
L 113.497455 96.085593 
L 113.771527 67.139286 
L 114.0456 86.28165 
L 114.593745 62.439713 
L 114.867818 63.56378 
L 115.141891 86.4015 
L 115.415964 74.441339 
L 115.690036 106.515456 
L 115.964109 68.977281 
L 116.238182 91.428186 
L 116.512255 101.609251 
L 116.786327 69.852091 
L 117.0604 110.43401 
L 117.334473 71.421439 
L 117.608545 86.076826 
L 117.882618 55.482985 
L 118.156691 52.55126 
L 118.430764 52.432615 
L 118.704836 122.903622 
L 118.978909 75.261955 
L 119.252982 57.308744 
L 119.527055 58.912947 
L 119.801127 67.860138 
L 120.0752 125.111666 
L 120.349273 59.060218 
L 120.623345 120.733488 
L 120.897418 116.942198 
L 121.171491 127.010825 
L 121.993709 44.999613 
L 122.267782 96.276474 
L 122.541855 122.310595 
L 122.815927 70.721703 
L 123.09 121.027213 
L 123.364073 47.516294 
L 123.912218 116.235969 
L 124.186291 71.986771 
L 124.460364 124.67206 
L 124.734436 51.060569 
L 125.008509 124.45286 
L 125.282582 111.372718 
L 125.830727 124.538402 
L 126.1048 113.84167 
L 126.378873 44.559331 
L 126.652945 54.328234 
L 126.927018 86.601083 
L 127.201091 47.331073 
L 127.475164 92.723524 
L 127.749236 96.226906 
L 128.023309 128.318702 
L 128.297382 103.722 
L 128.571455 127.247322 
L 128.845527 128.7328 
L 129.1196 66.104694 
L 129.393673 117.501613 
L 129.667745 95.915579 
L 129.941818 113.672492 
L 130.215891 60.336176 
L 130.489964 106.682104 
L 130.764036 63.429608 
L 131.038109 48.68036 
L 131.312182 96.046303 
L 131.586255 111.339904 
L 131.860327 56.648577 
L 132.1344 62.217261 
L 132.408473 124.69227 
L 132.682545 46.127475 
L 132.956618 79.406984 
L 133.504764 66.959273 
L 133.778836 56.782126 
L 134.052909 68.185767 
L 134.326982 121.820856 
L 134.601055 121.83925 
L 134.875127 116.700901 
L 135.1492 98.445028 
L 135.423273 127.645515 
L 135.697345 63.692783 
L 135.971418 59.589398 
L 136.245491 58.005079 
L 136.519564 53.079667 
L 136.793636 56.292278 
L 137.341782 69.578378 
L 137.615855 128.902937 
L 137.889927 113.397931 
L 138.164 76.13272 
L 138.438073 88.926452 
L 138.712145 79.646406 
L 138.986218 78.745049 
L 139.260291 111.623456 
L 139.534364 124.148358 
L 139.808436 78.077782 
L 140.082509 87.899864 
L 140.356582 124.149757 
L 140.904727 53.306259 
L 141.1788 88.45441 
L 141.452873 83.389993 
L 141.726945 46.968931 
L 142.001018 56.973952 
L 142.275091 91.274128 
L 142.549164 63.854242 
L 142.823236 114.319507 
L 143.371382 48.457024 
L 143.645455 77.183394 
L 143.919527 50.070032 
L 144.1936 110.55892 
L 144.467673 126.692565 
L 144.741745 103.754285 
L 145.015818 104.567927 
L 145.289891 51.762055 
L 145.563964 66.760744 
L 145.838036 118.839979 
L 146.112109 71.432641 
L 146.386182 125.811615 
L 146.660255 107.020491 
L 146.934327 64.041252 
L 147.482473 122.459537 
L 147.756545 90.593046 
L 148.030618 129.222965 
L 148.304691 121.83416 
L 148.578764 101.100689 
L 148.852836 113.119364 
L 149.126909 44.749954 
L 149.400982 103.123173 
L 149.675055 80.816289 
L 149.949127 119.341853 
L 150.2232 98.432653 
L 150.497273 87.237869 
L 150.771345 48.016636 
L 151.045418 110.716875 
L 151.319491 103.523281 
L 151.593564 81.151466 
L 151.867636 71.600199 
L 152.141709 97.668325 
L 152.415782 91.163934 
L 152.689855 101.844339 
L 152.963927 96.735146 
L 153.238 103.472334 
L 153.786145 65.516132 
L 154.060218 45.360049 
L 154.334291 66.532317 
L 154.608364 111.649114 
L 154.882436 94.073199 
L 155.156509 98.299513 
L 155.430582 91.294825 
L 155.704655 62.702078 
L 155.978727 52.719586 
L 156.2528 51.821123 
L 156.526873 111.659645 
L 156.800945 59.777547 
L 157.075018 105.898223 
L 157.349091 61.766653 
L 157.623164 45.650667 
L 157.897236 58.577377 
L 158.171309 56.072073 
L 158.445382 127.367698 
L 158.719455 61.096867 
L 158.993527 68.154204 
L 159.2676 102.352087 
L 159.541673 59.145303 
L 159.815745 108.927308 
L 160.089818 121.259476 
L 160.363891 114.777574 
L 160.637964 129.851393 
L 160.912036 98.387709 
L 161.186109 113.912462 
L 161.460182 116.501507 
L 161.734255 75.378338 
L 162.008327 64.040768 
L 162.2824 122.330299 
L 162.556473 81.907224 
L 162.830545 100.852276 
L 163.104618 129.097488 
L 163.652764 56.17441 
L 163.926836 74.711332 
L 164.200909 69.976701 
L 164.749055 49.878924 
L 165.023127 101.295239 
L 165.2972 58.017065 
L 165.571273 85.492237 
L 165.845345 130.312957 
L 166.119418 127.319196 
L 166.393491 122.08472 
L 166.667564 51.525909 
L 166.941636 128.758406 
L 167.215709 88.410616 
L 167.489782 80.821424 
L 167.763855 91.078693 
L 168.037927 62.390599 
L 168.312 63.458114 
L 168.586073 72.832576 
L 168.860145 103.741102 
L 169.408291 74.99039 
L 169.682364 76.966444 
L 169.956436 100.404799 
L 170.504582 51.678351 
L 170.778655 53.192978 
L 171.052727 82.415448 
L 171.3268 85.144156 
L 171.600873 47.575965 
L 171.874945 95.244195 
L 172.149018 78.064894 
L 172.423091 94.523282 
L 172.697164 95.560882 
L 172.971236 128.128038 
L 173.519382 71.415719 
L 173.793455 106.12277 
L 174.067527 54.98395 
L 174.3416 117.970006 
L 174.615673 78.168934 
L 174.889745 93.367701 
L 175.163818 78.547383 
L 175.437891 94.011635 
L 175.711964 80.942563 
L 175.986036 47.389491 
L 176.260109 114.477313 
L 176.534182 51.557993 
L 176.808255 85.338455 
L 177.082327 71.577769 
L 177.3564 119.918892 
L 177.630473 71.778751 
L 177.904545 79.916418 
L 178.178618 104.747338 
L 178.452691 57.369477 
L 178.726764 93.175991 
L 179.000836 88.956623 
L 179.274909 59.918667 
L 179.548982 92.824518 
L 179.823055 47.855301 
L 180.097127 127.17473 
L 180.645273 48.208023 
L 180.919345 54.992366 
L 181.193418 47.244865 
L 181.741564 115.056886 
L 182.015636 127.933001 
L 182.289709 83.989168 
L 182.563782 64.638225 
L 182.837855 90.043875 
L 183.111927 75.095169 
L 183.386 83.197318 
L 183.660073 129.916142 
L 183.934145 108.253535 
L 184.208218 53.506576 
L 184.482291 59.096745 
L 184.756364 52.800437 
L 185.030436 94.869619 
L 185.304509 66.356585 
L 185.578582 124.090766 
L 185.852655 76.963723 
L 186.126727 129.756619 
L 186.4008 65.635939 
L 186.674873 54.298944 
L 186.948945 119.599518 
L 187.497091 57.283028 
L 187.771164 117.439218 
L 188.045236 90.955676 
L 188.319309 51.148278 
L 188.867455 92.299368 
L 189.4156 115.833604 
L 189.963745 45.348179 
L 190.237818 56.610942 
L 190.511891 98.609862 
L 190.785964 75.91348 
L 191.060036 79.379545 
L 191.334109 94.297037 
L 191.608182 61.692903 
L 191.882255 129.37218 
L 192.156327 56.035783 
L 192.4304 71.288399 
L 192.704473 117.479763 
L 192.978545 61.010023 
L 193.252618 107.468841 
L 193.526691 79.213641 
L 193.800764 80.660106 
L 194.074836 51.795568 
L 194.348909 95.102739 
L 194.622982 98.736901 
L 194.897055 115.811607 
L 195.171127 106.572972 
L 195.4452 74.223929 
L 195.719273 65.657517 
L 195.993345 116.554896 
L 196.267418 47.968131 
L 196.541491 54.654145 
L 196.815564 99.479136 
L 197.089636 110.386139 
L 197.363709 108.127612 
L 197.637782 103.412426 
L 197.911855 113.833903 
L 198.185927 111.794312 
L 198.46 122.909211 
L 198.734073 71.575243 
L 199.008145 59.071676 
L 199.282218 52.616045 
L 199.556291 113.067748 
L 199.830364 118.985944 
L 200.104436 103.359739 
L 200.378509 100.645747 
L 200.652582 96.021932 
L 200.926655 116.965679 
L 201.200727 115.068247 
L 201.4748 125.183942 
L 201.748873 86.829457 
L 202.022945 98.662873 
L 202.297018 45.392651 
L 202.845164 106.386835 
L 203.119236 103.191198 
L 203.393309 112.690654 
L 203.667382 59.349267 
L 203.941455 128.667329 
L 204.215527 53.381951 
L 204.4896 110.519047 
L 204.763673 119.051348 
L 205.037745 99.501074 
L 205.311818 97.071345 
L 205.585891 56.625581 
L 205.859964 65.113744 
L 206.134036 95.40647 
L 206.408109 81.973021 
L 206.682182 111.468985 
L 206.956255 119.518698 
L 207.230327 101.399489 
L 207.5044 124.503963 
L 208.052545 68.431635 
L 208.326618 125.828679 
L 208.600691 130.159241 
L 208.874764 59.785741 
L 209.148836 94.267007 
L 209.422909 80.669449 
L 209.696982 96.992326 
L 209.971055 106.065611 
L 210.245127 44.50215 
L 210.793273 125.670057 
L 211.067345 88.521659 
L 211.341418 68.00099 
L 211.615491 106.770283 
L 212.163636 45.847216 
L 212.437709 56.416104 
L 212.711782 97.056613 
L 212.985855 77.290076 
L 213.259927 96.098085 
L 213.534 97.164068 
L 213.808073 45.154185 
L 214.082145 81.82088 
L 214.630291 112.930036 
L 215.178436 52.610057 
L 215.726582 90.177458 
L 216.000655 109.253548 
L 216.274727 110.033619 
L 216.5488 107.321558 
L 216.822873 69.685358 
L 217.096945 123.859788 
L 217.371018 126.377649 
L 217.645091 73.673031 
L 217.919164 55.818342 
L 218.193236 117.360238 
L 218.467309 70.471333 
L 218.741382 87.376207 
L 219.015455 91.777879 
L 219.289527 82.82167 
L 219.5636 111.601039 
L 219.837673 81.012407 
L 220.111745 126.092841 
L 220.385818 86.484778 
L 220.659891 118.137687 
L 220.933964 115.409514 
L 221.208036 66.868427 
L 221.482109 68.025591 
L 221.756182 89.46786 
L 222.030255 124.516074 
L 222.304327 50.897826 
L 222.5784 82.500277 
L 223.126545 75.770047 
L 223.400618 63.727281 
L 223.674691 60.180387 
L 224.222836 121.685251 
L 224.496909 52.311458 
L 224.770982 69.655955 
L 225.045055 125.787984 
L 225.319127 106.581296 
L 225.5932 104.852525 
L 225.867273 104.961301 
L 226.141345 112.109867 
L 226.415418 122.467237 
L 226.689491 116.615857 
L 226.963564 47.382358 
L 227.237636 111.301897 
L 227.511709 118.283621 
L 227.785782 70.091584 
L 228.333927 94.493295 
L 228.608 103.396775 
L 228.882073 103.074328 
L 229.156145 126.630157 
L 229.430218 46.032416 
L 229.978364 124.542201 
L 230.252436 120.723637 
L 230.526509 94.52817 
L 230.800582 87.221242 
L 231.074655 75.246171 
L 231.348727 106.149616 
L 231.6228 113.082178 
L 232.170945 100.823635 
L 232.445018 79.489252 
L 232.719091 118.892724 
L 232.993164 58.529734 
L 233.267236 63.468039 
L 233.541309 95.654544 
L 233.815382 58.555652 
L 234.089455 110.012488 
L 234.363527 113.176332 
L 234.6376 86.608833 
L 235.185745 117.136492 
L 235.459818 103.557032 
L 235.733891 122.679545 
L 236.007964 120.781773 
L 236.282036 71.57816 
L 236.556109 116.988194 
L 236.830182 56.652494 
L 237.104255 119.709192 
L 237.378327 69.215346 
L 237.6524 112.116969 
L 237.926473 78.965337 
L 238.200545 78.941242 
L 238.474618 82.329396 
L 239.022764 66.80415 
L 239.296836 114.539567 
L 239.570909 80.349588 
L 239.844982 125.660144 
L 240.119055 118.905306 
L 240.393127 121.218579 
L 240.6672 106.097045 
L 240.941273 47.931498 
L 241.489418 126.66876 
L 242.037564 85.665017 
L 242.311636 116.180305 
L 242.585709 116.067096 
L 242.859782 59.705967 
L 243.133855 108.332603 
L 243.407927 108.772326 
L 243.682 92.499642 
L 243.956073 54.35106 
L 244.504218 116.822183 
L 244.778291 84.607582 
L 245.326436 100.801191 
L 245.600509 79.303372 
L 245.874582 130.302662 
L 246.148655 81.624896 
L 246.422727 79.665806 
L 246.6968 46.772464 
L 246.970873 116.516202 
L 247.244945 98.338716 
L 247.519018 44.673842 
L 247.793091 93.520115 
L 248.067164 49.207001 
L 248.341236 69.154973 
L 248.615309 75.728857 
L 248.889382 126.645104 
L 249.163455 67.276275 
L 249.437527 120.331288 
L 249.7116 48.776979 
L 249.985673 75.912024 
L 250.259745 53.344282 
L 250.533818 124.532152 
L 250.807891 105.013013 
L 251.081964 69.486193 
L 251.356036 100.955485 
L 251.630109 56.139575 
L 251.904182 105.404688 
L 252.178255 51.202851 
L 252.452327 104.716417 
L 252.7264 67.406707 
L 253.000473 95.732544 
L 253.274545 68.942253 
L 253.822691 112.630765 
L 254.096764 46.7628 
L 254.370836 78.57917 
L 254.644909 59.047735 
L 254.918982 66.116437 
L 255.193055 62.495016 
L 255.467127 54.865086 
L 256.015273 123.893785 
L 256.289345 94.786452 
L 256.563418 113.666844 
L 256.837491 83.678839 
L 257.111564 89.264586 
L 257.385636 58.291106 
L 257.659709 49.665036 
L 257.933782 106.790702 
L 258.207855 49.44026 
L 258.481927 95.384035 
L 258.756 64.089549 
L 259.030073 102.38492 
L 259.304145 116.347369 
L 259.578218 64.396193 
L 259.852291 119.383905 
L 260.126364 69.655634 
L 260.674509 106.462734 
L 260.948582 57.654471 
L 261.222655 85.242858 
L 261.496727 50.554915 
L 261.7708 82.23717 
L 262.044873 56.198835 
L 262.318945 56.257975 
L 262.593018 86.066284 
L 262.867091 129.261296 
L 263.141164 79.638256 
L 263.415236 118.378922 
L 263.689309 48.616811 
L 263.963382 93.769656 
L 264.237455 57.332409 
L 264.511527 73.07245 
L 264.7856 74.147916 
L 265.059673 80.49554 
L 265.333745 75.757535 
L 265.607818 53.26306 
L 265.881891 92.266954 
L 266.155964 78.632228 
L 266.430036 43.821035 
L 266.704109 117.684834 
L 266.978182 123.490719 
L 267.252255 74.476802 
L 267.526327 105.048568 
L 267.8004 90.414017 
L 268.074473 98.938175 
L 268.348545 82.416933 
L 268.622618 74.534223 
L 268.896691 93.138731 
L 269.170764 128.685781 
L 269.444836 123.337627 
L 269.718909 59.080652 
L 269.992982 70.678209 
L 270.267055 61.185974 
L 270.541127 90.709864 
L 270.8152 65.202709 
L 271.089273 75.059951 
L 271.363345 125.196845 
L 271.637418 60.271001 
L 271.911491 129.797357 
L 272.185564 114.133632 
L 272.459636 114.197674 
L 272.733709 93.228798 
L 273.007782 119.767803 
L 273.281855 111.446868 
L 273.83 127.538706 
L 274.104073 85.164457 
L 274.378145 70.244242 
L 274.652218 114.926739 
L 274.926291 105.348252 
L 275.474436 74.67405 
L 275.748509 91.175119 
L 276.022582 122.773007 
L 276.296655 119.885555 
L 276.570727 70.848485 
L 276.8448 102.464154 
L 277.118873 57.580769 
L 277.667018 107.662139 
L 277.941091 55.331639 
L 278.215164 122.200908 
L 278.489236 105.423827 
L 278.763309 79.049951 
L 279.037382 65.466604 
L 279.8596 102.65 
L 280.133673 129.191618 
L 280.407745 118.546822 
L 280.955891 53.873394 
L 281.229964 96.959515 
L 281.504036 60.187466 
L 281.778109 57.229988 
L 282.052182 77.878521 
L 282.326255 113.282306 
L 282.600327 81.766983 
L 283.148473 129.854571 
L 283.422545 47.730767 
L 283.970691 124.723157 
L 284.244764 120.196983 
L 284.518836 83.033327 
L 285.066982 123.447346 
L 285.615127 75.063287 
L 285.8892 54.35238 
L 286.437345 117.210161 
L 286.711418 79.568067 
L 286.985491 130.003163 
L 287.259564 98.950404 
L 287.533636 124.372902 
L 287.807709 60.628364 
L 288.081782 120.776147 
L 288.629927 105.126102 
L 288.904 46.330127 
L 289.178073 111.476821 
L 289.452145 75.575732 
L 289.726218 115.028367 
L 290.000291 113.827564 
L 290.274364 57.449273 
L 290.548436 77.833497 
L 290.822509 129.363279 
L 291.096582 47.714146 
L 291.370655 91.602807 
L 291.644727 73.163453 
L 291.9188 113.074095 
L 292.192873 105.078819 
L 292.466945 124.71443 
L 292.741018 85.669715 
L 293.015091 110.31163 
L 293.289164 99.746386 
L 293.563236 111.928496 
L 293.837309 73.157765 
L 294.111382 130.577771 
L 294.385455 95.345482 
L 294.659527 120.305117 
L 295.481745 79.061079 
L 295.755818 91.830215 
L 296.029891 87.74821 
L 296.303964 124.520742 
L 296.578036 119.824567 
L 296.852109 88.877792 
L 297.126182 105.557966 
L 297.400255 53.530821 
L 297.674327 76.322535 
L 297.9484 45.174108 
L 298.222473 85.826296 
L 298.496545 102.931912 
L 298.770618 65.171085 
L 299.044691 105.932155 
L 299.318764 106.115393 
L 299.592836 56.27797 
L 299.866909 90.674844 
L 300.415055 45.575972 
L 300.689127 126.424029 
L 300.9632 57.33905 
L 301.237273 129.529316 
L 301.511345 45.34938 
L 301.785418 104.064508 
L 302.059491 119.180701 
L 302.333564 109.019595 
L 302.607636 124.498401 
L 302.881709 112.935509 
L 303.155782 69.142069 
L 303.429855 50.363941 
L 303.703927 44.164284 
L 303.978 67.553778 
L 304.252073 52.299036 
L 304.526145 107.52239 
L 304.800218 108.91783 
L 305.074291 50.138896 
L 305.622436 115.675571 
L 305.896509 79.900119 
L 306.170582 110.894413 
L 306.444655 67.612949 
L 306.718727 122.329761 
L 306.9928 89.080622 
L 307.266873 85.30754 
L 307.540945 69.080767 
L 307.815018 122.575369 
L 308.089091 115.783048 
L 308.363164 45.17221 
L 308.637236 50.650445 
L 308.911309 75.888513 
L 309.185382 79.22729 
L 309.459455 110.318146 
L 309.733527 103.795119 
L 310.0076 67.693724 
L 310.281673 86.460821 
L 310.555745 73.511638 
L 310.829818 43.750232 
L 311.103891 98.350117 
L 311.377964 119.381327 
L 311.652036 91.314555 
L 311.926109 99.597634 
L 312.200182 118.503178 
L 312.748327 125.395444 
L 313.0224 107.901517 
L 313.296473 119.866967 
L 313.844618 45.613359 
L 314.118691 67.427514 
L 314.392764 121.2428 
L 314.666836 97.757713 
L 314.940909 96.675817 
L 315.214982 70.791993 
L 315.489055 118.418839 
L 315.763127 92.735859 
L 316.311273 128.156927 
L 316.859418 52.245816 
L 317.133491 49.571313 
L 317.407564 112.868667 
L 317.681636 124.384038 
L 317.955709 96.344769 
L 318.229782 88.391183 
L 318.503855 97.8053 
L 318.777927 83.184067 
L 319.052 53.523917 
L 319.326073 74.773716 
L 319.600145 123.299257 
L 319.874218 44.976755 
L 320.148291 94.419788 
L 320.422364 56.940882 
L 320.696436 117.761853 
L 320.970509 61.748905 
L 321.244582 43.7497 
L 321.518655 52.897468 
L 321.792727 44.238955 
L 322.340873 124.968839 
L 322.614945 105.300403 
L 323.163091 121.484253 
L 323.437164 90.759204 
L 323.711236 106.02307 
L 323.985309 79.65605 
L 324.259382 104.134265 
L 324.533455 45.266202 
L 325.0816 111.712318 
L 325.355673 99.320182 
L 325.629745 94.101041 
L 325.903818 121.937929 
L 326.451964 44.669437 
L 327.000109 115.898479 
L 327.274182 59.137768 
L 327.548255 76.34054 
L 327.822327 130.115682 
L 328.0964 107.277178 
L 328.370473 128.053834 
L 328.644545 117.990414 
L 329.192691 49.946574 
L 329.466764 80.092052 
L 329.740836 79.081359 
L 330.014909 83.233655 
L 330.288982 89.93479 
L 330.563055 65.970788 
L 330.837127 54.653146 
L 331.1112 57.66727 
L 331.385273 120.758672 
L 331.659345 119.747825 
L 331.933418 122.743259 
L 332.755636 43.807378 
L 333.029709 44.382219 
L 333.303782 109.100899 
L 333.577855 91.421711 
L 333.851927 54.178506 
L 334.126 110.499247 
L 334.400073 82.369143 
L 334.674145 111.095615 
L 334.948218 77.980333 
L 335.222291 108.856068 
L 335.222291 108.856068 
" clip-path="url(#pc2c323da89)" style="fill: none; stroke: #1f77b4; stroke-width: 1.5; stroke-linecap: square"/>
   </g>
   <g id="line2d_14">
    <path d="M 61.423636 87.16 
L 335.496364 87.16 
" clip-path="url(#pc2c323da89)" style="fill: none; stroke-dasharray: 7.4,3.2; stroke-dashoffset: 0; stroke: #ff0000; stroke-width: 2"/>
   </g>
   <g id="line2d_15">
    <path d="M 192.978545 87.16 
L 203.941455 87.16 
" clip-path="url(#pc2c323da89)" style="fill: none; stroke: #000000; stroke-width: 2; stroke-linecap: square"/>
   </g>
   <g id="line2d_16">
    <path d="M 192.978545 43.72 
L 203.941455 43.72 
" clip-path="url(#pc2c323da89)" style="fill: none; stroke: #000000; stroke-width: 2; stroke-linecap: square"/>
   </g>
   <g id="line2d_17">
    <path d="M 198.46 87.16 
L 198.46 43.72 
" clip-path="url(#pc2c323da89)" style="fill: none; stroke: #000000; stroke-width: 2; stroke-linecap: square"/>
   </g>
   <g id="line2d_18">
    <path d="M 192.978545 159.56 
L 203.941455 159.56 
" clip-path="url(#pc2c323da89)" style="fill: none; stroke: #000000; stroke-width: 2; stroke-linecap: square"/>
   </g>
   <g id="line2d_19">
    <path d="M 198.46 159.56 
L 198.46 87.16 
" clip-path="url(#pc2c323da89)" style="fill: none; stroke: #000000; stroke-width: 2; stroke-linecap: square"/>
   </g>
   <g id="patch_3">
    <path d="M 47.72 174.04 
L 47.72 14.76 
" style="fill: none; stroke: #000000; stroke-width: 0.8; stroke-linejoin: miter; stroke-linecap: square"/>
   </g>
   <g id="patch_4">
    <path d="M 349.2 174.04 
L 349.2 14.76 
" style="fill: none; stroke: #000000; stroke-width: 0.8; stroke-linejoin: miter; stroke-linecap: square"/>
   </g>
   <g id="patch_5">
    <path d="M 47.72 174.04 
L 349.2 174.04 
" style="fill: none; stroke: #000000; stroke-width: 0.8; stroke-linejoin: miter; stroke-linecap: square"/>
   </g>
   <g id="patch_6">
    <path d="M 47.72 14.76 
L 349.2 14.76 
" style="fill: none; stroke: #000000; stroke-width: 0.8; stroke-linejoin: miter; stroke-linecap: square"/>
   </g>
   <g id="text_15">
    <g id="patch_7">
     <path d="M 205.422909 71.519688 
L 235.015097 71.519688 
L 235.015097 53.841563 
L 205.422909 53.841563 
z
" style="fill: #ffffff; opacity: 0.8; stroke: #000000; stroke-linejoin: miter"/>
    </g>
    <!-- gain -->
    <g transform="translate(209.422909 65.44) scale(0.1 -0.1)">
     <use xlink:href="#DejaVuSans-67"/>
     <use xlink:href="#DejaVuSans-61" x="63.476562"/>
     <use xlink:href="#DejaVuSans-69" x="124.755859"/>
     <use xlink:href="#DejaVuSans-6e" x="152.539062"/>
    </g>
   </g>
   <g id="text_16">
    <g id="patch_8">
     <path d="M 205.422909 129.439688 
L 241.865097 129.439688 
L 241.865097 111.761563 
L 205.422909 111.761563 
z
" style="fill: #ffffff; opacity: 0.8; stroke: #000000; stroke-linejoin: miter"/>
    </g>
    <!-- offset -->
    <g transform="translate(209.422909 123.36) scale(0.1 -0.1)">
     <defs>
      <path id="DejaVuSans-6f" d="M 1959 3097 
Q 1497 3097 1228 2736 
Q 959 2375 959 1747 
Q 959 1119 1226 758 
Q 1494 397 1959 397 
Q 2419 397 2687 759 
Q 2956 1122 2956 1747 
Q 2956 2369 2687 2733 
Q 2419 3097 1959 3097 
z
M 1959 3584 
Q 2709 3584 3137 3096 
Q 3566 2609 3566 1747 
Q 3566 888 3137 398 
Q 2709 -91 1959 -91 
Q 1206 -91 779 398 
Q 353 888 353 1747 
Q 353 2609 779 3096 
Q 1206 3584 1959 3584 
z
" transform="scale(0.015625)"/>
      <path id="DejaVuSans-66" d="M 2375 4863 
L 2375 4384 
L 1825 4384 
Q 1516 4384 1395 4259 
Q 1275 4134 1275 3809 
L 1275 3500 
L 2222 3500 
L 2222 3053 
L 1275 3053 
L 1275 0 
L 697 0 
L 697 3053 
L 147 3053 
L 147 3500 
L 697 3500 
L 697 3744 
Q 697 4328 969 4595 
Q 1241 4863 1831 4863 
L 2375 4863 
z
" transform="scale(0.015625)"/>
     </defs>
     <use xlink:href="#DejaVuSans-6f"/>
     <use xlink:href="#DejaVuSans-66" x="61.181641"/>
     <use xlink:href="#DejaVuSans-66" x="96.386719"/>
     <use xlink:href="#DejaVuSans-73" x="131.591797"/>
     <use xlink:href="#DejaVuSans-65" x="183.691406"/>
     <use xlink:href="#DejaVuSans-74" x="245.214844"/>
    </g>
   </g>
  </g>
 </g>
 <defs>
  <clipPath id="pc2c323da89">
   <rect x="47.72" y="14.76" width="301.48" height="159.28"/>
  </clipPath>
 </defs>
</svg>
