<?xml version="1.0" encoding="utf-8" standalone="no"?>
<!DOCTYPE svg PUBLIC "-//W3C//DTD SVG 1.1//EN"
  "http://www.w3.org/Graphics/SVG/1.1/DTD/svg11.dtd">
<svg xmlns:xlink="http://www.w3.org/1999/xlink" width="360pt" height="216pt" viewBox="0 0 360 216" xmlns="http://www.w3.org/2000/svg" version="1.1">
 <metadata>
  <rdf:RDF xmlns:dc="http://purl.org/dc/elements/1.1/" xmlns:cc="http://creativecommons.org/ns#" xmlns:rdf="http://www.w3.org/1999/02/22-rdf-syntax-ns#">
   <cc:Work>
    <dc:type rdf:resource="http://purl.org/dc/dcmitype/StillImage"/>
    <dc:date>2025-11-26T15:51:53.748734</dc:date>
    <dc:format>image/svg+xml</dc:format>
    <dc:creator>
     <cc:Agent>
      <dc:title>Matplotlib v3.10.7, https://matplotlib.org/</dc:title>
     </cc:Agent>
    </dc:creator>
   </cc:Work>
  </rdf:RDF>
 </metadata>
 <defs>
  <style type="text/css">*{stroke-linejoin: round; stroke-linecap: butt}</style>
 </defs>
 <g id="figure_1">
  <g id="patch_1">
   <path d="M 0 216 
L 360 216 
L 360 0 
L 0 0 
z
" style="fill: #ffffff"/>
  </g>
  <g id="axes_1">
   <g id="patch_2">
    <path d="M 62.39 174.04 
L 349.2 174.04 
L 349.2 10.8 
L 62.39 10.8 
z
" style="fill: #ffffff"/>
   </g>
   <g id="matplotlib.axis_1">
    <g id="xtick_1">
     <g id="line2d_1">
      <defs>
       <path id="md0895e2a6d" d="M 0 0 
L 0 3.5 
" style="stroke: #000000; stroke-width: 0.8"/>
      </defs>
      <g>
       <use xlink:href="#md0895e2a6d" x="75.426818" y="174.04" style="stroke: #000000; stroke-width: 0.8"/>
      </g>
     </g>
     <g id="text_1">
      <!-- 0 -->
      <g transform="translate(72.245568 188.638438) scale(0.1 -0.1)">
       <defs>
        <path id="DejaVuSans-30" d="M 2034 4250 
Q 1547 4250 1301 3770 
Q 1056 3291 1056 2328 
Q 1056 1369 1301 889 
Q 1547 409 2034 409 
Q 2525 409 2770 889 
Q 3016 1369 3016 2328 
Q 3016 3291 2770 3770 
Q 2525 4250 2034 4250 
z
M 2034 4750 
Q 2819 4750 3233 4129 
Q 3647 3509 3647 2328 
Q 3647 1150 3233 529 
Q 2819 -91 2034 -91 
Q 1250 -91 836 529 
Q 422 1150 422 2328 
Q 422 3509 836 4129 
Q 1250 4750 2034 4750 
z
" transform="scale(0.015625)"/>
       </defs>
       <use xlink:href="#DejaVuSans-30"/>
      </g>
     </g>
    </g>
    <g id="xtick_2">
     <g id="line2d_2">
      <g>
       <use xlink:href="#md0895e2a6d" x="110.196303" y="174.04" style="stroke: #000000; stroke-width: 0.8"/>
      </g>
     </g>
     <g id="text_2">
      <!-- 1 -->
      <g transform="translate(107.015053 188.638438) scale(0.1 -0.1)">
       <defs>
        <path id="DejaVuSans-31" d="M 794 531 
L 1825 531 
L 1825 4091 
L 703 3866 
L 703 4441 
L 1819 4666 
L 2450 4666 
L 2450 531 
L 3481 531 
L 3481 0 
L 794 0 
L 794 531 
z
" transform="scale(0.015625)"/>
       </defs>
       <use xlink:href="#DejaVuSans-31"/>
      </g>
     </g>
    </g>
    <g id="xtick_3">
     <g id="line2d_3">
      <g>
       <use xlink:href="#md0895e2a6d" x="144.965787" y="174.04" style="stroke: #000000; stroke-width: 0.8"/>
      </g>
     </g>
     <g id="text_3">
      <!-- 2 -->
      <g transform="translate(141.784537 188.638438) scale(0.1 -0.1)">
       <defs>
        <path id="DejaVuSans-32" d="M 1228 531 
L 3431 531 
L 3431 0 
L 469 0 
L 469 531 
Q 828 903 1448 1529 
Q 2069 2156 2228 2338 
Q 2531 2678 2651 2914 
Q 2772 3150 2772 3378 
Q 2772 3750 2511 3984 
Q 2250 4219 1831 4219 
Q 1534 4219 1204 4116 
Q 875 4013 500 3803 
L 500 4441 
Q 881 4594 1212 4672 
Q 1544 4750 1819 4750 
Q 2544 4750 2975 4387 
Q 3406 4025 3406 3419 
Q 3406 3131 3298 2873 
Q 3191 2616 2906 2266 
Q 2828 2175 2409 1742 
Q 1991 1309 1228 531 
z
" transform="scale(0.015625)"/>
       </defs>
       <use xlink:href="#DejaVuSans-32"/>
      </g>
     </g>
    </g>
    <g id="xtick_4">
     <g id="line2d_4">
      <g>
       <use xlink:href="#md0895e2a6d" x="179.735271" y="174.04" style="stroke: #000000; stroke-width: 0.8"/>
      </g>
     </g>
     <g id="text_4">
      <!-- 3 -->
      <g transform="translate(176.554021 188.638438) scale(0.1 -0.1)">
       <defs>
        <path id="DejaVuSans-33" d="M 2597 2516 
Q 3050 2419 3304 2112 
Q 3559 1806 3559 1356 
Q 3559 666 3084 287 
Q 2609 -91 1734 -91 
Q 1441 -91 1130 -33 
Q 819 25 488 141 
L 488 750 
Q 750 597 1062 519 
Q 1375 441 1716 441 
Q 2309 441 2620 675 
Q 2931 909 2931 1356 
Q 2931 1769 2642 2001 
Q 2353 2234 1838 2234 
L 1294 2234 
L 1294 2753 
L 1863 2753 
Q 2328 2753 2575 2939 
Q 2822 3125 2822 3475 
Q 2822 3834 2567 4026 
Q 2313 4219 1838 4219 
Q 1578 4219 1281 4162 
Q 984 4106 628 3988 
L 628 4550 
Q 988 4650 1302 4700 
Q 1616 4750 1894 4750 
Q 2613 4750 3031 4423 
Q 3450 4097 3450 3541 
Q 3450 3153 3228 2886 
Q 3006 2619 2597 2516 
z
" transform="scale(0.015625)"/>
       </defs>
       <use xlink:href="#DejaVuSans-33"/>
      </g>
     </g>
    </g>
    <g id="xtick_5">
     <g id="line2d_5">
      <g>
       <use xlink:href="#md0895e2a6d" x="214.504756" y="174.04" style="stroke: #000000; stroke-width: 0.8"/>
      </g>
     </g>
     <g id="text_5">
      <!-- 4 -->
      <g transform="translate(211.323506 188.638438) scale(0.1 -0.1)">
       <defs>
        <path id="DejaVuSans-34" d="M 2419 4116 
L 825 1625 
L 2419 1625 
L 2419 4116 
z
M 2253 4666 
L 3047 4666 
L 3047 1625 
L 3713 1625 
L 3713 1100 
L 3047 1100 
L 3047 0 
L 2419 0 
L 2419 1100 
L 313 1100 
L 313 1709 
L 2253 4666 
z
" transform="scale(0.015625)"/>
       </defs>
       <use xlink:href="#DejaVuSans-34"/>
      </g>
     </g>
    </g>
    <g id="xtick_6">
     <g id="line2d_6">
      <g>
       <use xlink:href="#md0895e2a6d" x="249.27424" y="174.04" style="stroke: #000000; stroke-width: 0.8"/>
      </g>
     </g>
     <g id="text_6">
      <!-- 5 -->
      <g transform="translate(246.09299 188.638438) scale(0.1 -0.1)">
       <defs>
        <path id="DejaVuSans-35" d="M 691 4666 
L 3169 4666 
L 3169 4134 
L 1269 4134 
L 1269 2991 
Q 1406 3038 1543 3061 
Q 1681 3084 1819 3084 
Q 2600 3084 3056 2656 
Q 3513 2228 3513 1497 
Q 3513 744 3044 326 
Q 2575 -91 1722 -91 
Q 1428 -91 1123 -41 
Q 819 9 494 109 
L 494 744 
Q 775 591 1075 516 
Q 1375 441 1709 441 
Q 2250 441 2565 725 
Q 2881 1009 2881 1497 
Q 2881 1984 2565 2268 
Q 2250 2553 1709 2553 
Q 1456 2553 1204 2497 
Q 953 2441 691 2322 
L 691 4666 
z
" transform="scale(0.015625)"/>
       </defs>
       <use xlink:href="#DejaVuSans-35"/>
      </g>
     </g>
    </g>
    <g id="xtick_7">
     <g id="line2d_7">
      <g>
       <use xlink:href="#md0895e2a6d" x="284.043725" y="174.04" style="stroke: #000000; stroke-width: 0.8"/>
      </g>
     </g>
     <g id="text_7">
      <!-- 6 -->
      <g transform="translate(280.862475 188.638438) scale(0.1 -0.1)">
       <defs>
        <path id="DejaVuSans-36" d="M 2113 2584 
Q 1688 2584 1439 2293 
Q 1191 2003 1191 1497 
Q 1191 994 1439 701 
Q 1688 409 2113 409 
Q 2538 409 2786 701 
Q 3034 994 3034 1497 
Q 3034 2003 2786 2293 
Q 2538 2584 2113 2584 
z
M 3366 4563 
L 3366 3988 
Q 3128 4100 2886 4159 
Q 2644 4219 2406 4219 
Q 1781 4219 1451 3797 
Q 1122 3375 1075 2522 
Q 1259 2794 1537 2939 
Q 1816 3084 2150 3084 
Q 2853 3084 3261 2657 
Q 3669 2231 3669 1497 
Q 3669 778 3244 343 
Q 2819 -91 2113 -91 
Q 1303 -91 875 529 
Q 447 1150 447 2328 
Q 447 3434 972 4092 
Q 1497 4750 2381 4750 
Q 2619 4750 2861 4703 
Q 3103 4656 3366 4563 
z
" transform="scale(0.015625)"/>
       </defs>
       <use xlink:href="#DejaVuSans-36"/>
      </g>
     </g>
    </g>
    <g id="xtick_8">
     <g id="line2d_8">
      <g>
       <use xlink:href="#md0895e2a6d" x="318.813209" y="174.04" style="stroke: #000000; stroke-width: 0.8"/>
      </g>
     </g>
     <g id="text_8">
      <!-- 7 -->
      <g transform="translate(315.631959 188.638438) scale(0.1 -0.1)">
       <defs>
        <path id="DejaVuSans-37" d="M 525 4666 
L 3525 4666 
L 3525 4397 
L 1831 0 
L 1172 0 
L 2766 4134 
L 525 4134 
L 525 4666 
z
" transform="scale(0.015625)"/>
       </defs>
       <use xlink:href="#DejaVuSans-37"/>
      </g>
     </g>
    </g>
    <g id="text_9">
     <!-- Time (sec) -->
     <g transform="translate(179.640313 202.316563) scale(0.1 -0.1)">
      <defs>
       <path id="DejaVuSans-54" d="M -19 4666 
L 3928 4666 
L 3928 4134 
L 2272 4134 
L 2272 0 
L 1638 0 
L 1638 4134 
L -19 4134 
L -19 4666 
z
" transform="scale(0.015625)"/>
       <path id="DejaVuSans-69" d="M 603 3500 
L 1178 3500 
L 1178 0 
L 603 0 
L 603 3500 
z
M 603 4863 
L 1178 4863 
L 1178 4134 
L 603 4134 
L 603 4863 
z
" transform="scale(0.015625)"/>
       <path id="DejaVuSans-6d" d="M 3328 2828 
Q 3544 3216 3844 3400 
Q 4144 3584 4550 3584 
Q 5097 3584 5394 3201 
Q 5691 2819 5691 2113 
L 5691 0 
L 5113 0 
L 5113 2094 
Q 5113 2597 4934 2840 
Q 4756 3084 4391 3084 
Q 3944 3084 3684 2787 
Q 3425 2491 3425 1978 
L 3425 0 
L 2847 0 
L 2847 2094 
Q 2847 2600 2669 2842 
Q 2491 3084 2119 3084 
Q 1678 3084 1418 2786 
Q 1159 2488 1159 1978 
L 1159 0 
L 581 0 
L 581 3500 
L 1159 3500 
L 1159 2956 
Q 1356 3278 1631 3431 
Q 1906 3584 2284 3584 
Q 2666 3584 2933 3390 
Q 3200 3197 3328 2828 
z
" transform="scale(0.015625)"/>
       <path id="DejaVuSans-65" d="M 3597 1894 
L 3597 1613 
L 953 1613 
Q 991 1019 1311 708 
Q 1631 397 2203 397 
Q 2534 397 2845 478 
Q 3156 559 3463 722 
L 3463 178 
Q 3153 47 2828 -22 
Q 2503 -91 2169 -91 
Q 1331 -91 842 396 
Q 353 884 353 1716 
Q 353 2575 817 3079 
Q 1281 3584 2069 3584 
Q 2775 3584 3186 3129 
Q 3597 2675 3597 1894 
z
M 3022 2063 
Q 3016 2534 2758 2815 
Q 2500 3097 2075 3097 
Q 1594 3097 1305 2825 
Q 1016 2553 972 2059 
L 3022 2063 
z
" transform="scale(0.015625)"/>
       <path id="DejaVuSans-20" transform="scale(0.015625)"/>
       <path id="DejaVuSans-28" d="M 1984 4856 
Q 1566 4138 1362 3434 
Q 1159 2731 1159 2009 
Q 1159 1288 1364 580 
Q 1569 -128 1984 -844 
L 1484 -844 
Q 1016 -109 783 600 
Q 550 1309 550 2009 
Q 550 2706 781 3412 
Q 1013 4119 1484 4856 
L 1984 4856 
z
" transform="scale(0.015625)"/>
       <path id="DejaVuSans-73" d="M 2834 3397 
L 2834 2853 
Q 2591 2978 2328 3040 
Q 2066 3103 1784 3103 
Q 1356 3103 1142 2972 
Q 928 2841 928 2578 
Q 928 2378 1081 2264 
Q 1234 2150 1697 2047 
L 1894 2003 
Q 2506 1872 2764 1633 
Q 3022 1394 3022 966 
Q 3022 478 2636 193 
Q 2250 -91 1575 -91 
Q 1294 -91 989 -36 
Q 684 19 347 128 
L 347 722 
Q 666 556 975 473 
Q 1284 391 1588 391 
Q 1994 391 2212 530 
Q 2431 669 2431 922 
Q 2431 1156 2273 1281 
Q 2116 1406 1581 1522 
L 1381 1569 
Q 847 1681 609 1914 
Q 372 2147 372 2553 
Q 372 3047 722 3315 
Q 1072 3584 1716 3584 
Q 2034 3584 2315 3537 
Q 2597 3491 2834 3397 
z
" transform="scale(0.015625)"/>
       <path id="DejaVuSans-63" d="M 3122 3366 
L 3122 2828 
Q 2878 2963 2633 3030 
Q 2388 3097 2138 3097 
Q 1578 3097 1268 2742 
Q 959 2388 959 1747 
Q 959 1106 1268 751 
Q 1578 397 2138 397 
Q 2388 397 2633 464 
Q 2878 531 3122 666 
L 3122 134 
Q 2881 22 2623 -34 
Q 2366 -91 2075 -91 
Q 1284 -91 818 406 
Q 353 903 353 1747 
Q 353 2603 823 3093 
Q 1294 3584 2113 3584 
Q 2378 3584 2631 3529 
Q 2884 3475 3122 3366 
z
" transform="scale(0.015625)"/>
       <path id="DejaVuSans-29" d="M 513 4856 
L 1013 4856 
Q 1481 4119 1714 3412 
Q 1947 2706 1947 2009 
Q 1947 1309 1714 600 
Q 1481 -109 1013 -844 
L 513 -844 
Q 928 -128 1133 580 
Q 1338 1288 1338 2009 
Q 1338 2731 1133 3434 
Q 928 4138 513 4856 
z
" transform="scale(0.015625)"/>
      </defs>
      <use xlink:href="#DejaVuSans-54"/>
      <use xlink:href="#DejaVuSans-69" transform="translate(57.958984 0)"/>
      <use xlink:href="#DejaVuSans-6d" transform="translate(85.742188 0)"/>
      <use xlink:href="#DejaVuSans-65" transform="translate(183.154297 0)"/>
      <use xlink:href="#DejaVuSans-20" transform="translate(244.677734 0)"/>
      <use xlink:href="#DejaVuSans-28" transform="translate(276.464844 0)"/>
      <use xlink:href="#DejaVuSans-73" transform="translate(315.478516 0)"/>
      <use xlink:href="#DejaVuSans-65" transform="translate(367.578125 0)"/>
      <use xlink:href="#DejaVuSans-63" transform="translate(429.101562 0)"/>
      <use xlink:href="#DejaVuSans-29" transform="translate(484.082031 0)"/>
     </g>
    </g>
   </g>
   <g id="matplotlib.axis_2">
    <g id="ytick_1">
     <g id="line2d_9">
      <defs>
       <path id="meb9fd9a2ef" d="M 0 0 
L -3.5 0 
" style="stroke: #000000; stroke-width: 0.8"/>
      </defs>
      <g>
       <use xlink:href="#meb9fd9a2ef" x="62.39" y="174.04" style="stroke: #000000; stroke-width: 0.8"/>
      </g>
     </g>
     <g id="text_10">
      <!-- −1.00 -->
      <g transform="translate(24.744688 177.839219) scale(0.1 -0.1)">
       <defs>
        <path id="DejaVuSans-2212" d="M 678 2272 
L 4684 2272 
L 4684 1741 
L 678 1741 
L 678 2272 
z
" transform="scale(0.015625)"/>
        <path id="DejaVuSans-2e" d="M 684 794 
L 1344 794 
L 1344 0 
L 684 0 
L 684 794 
z
" transform="scale(0.015625)"/>
       </defs>
       <use xlink:href="#DejaVuSans-2212"/>
       <use xlink:href="#DejaVuSans-31" transform="translate(83.789062 0)"/>
       <use xlink:href="#DejaVuSans-2e" transform="translate(147.412109 0)"/>
       <use xlink:href="#DejaVuSans-30" transform="translate(179.199219 0)"/>
       <use xlink:href="#DejaVuSans-30" transform="translate(242.822266 0)"/>
      </g>
     </g>
    </g>
    <g id="ytick_2">
     <g id="line2d_10">
      <g>
       <use xlink:href="#meb9fd9a2ef" x="62.39" y="152.561053" style="stroke: #000000; stroke-width: 0.8"/>
      </g>
     </g>
     <g id="text_11">
      <!-- −0.75 -->
      <g transform="translate(24.744688 156.360271) scale(0.1 -0.1)">
       <use xlink:href="#DejaVuSans-2212"/>
       <use xlink:href="#DejaVuSans-30" transform="translate(83.789062 0)"/>
       <use xlink:href="#DejaVuSans-2e" transform="translate(147.412109 0)"/>
       <use xlink:href="#DejaVuSans-37" transform="translate(179.199219 0)"/>
       <use xlink:href="#DejaVuSans-35" transform="translate(242.822266 0)"/>
      </g>
     </g>
    </g>
    <g id="ytick_3">
     <g id="line2d_11">
      <g>
       <use xlink:href="#meb9fd9a2ef" x="62.39" y="131.082105" style="stroke: #000000; stroke-width: 0.8"/>
      </g>
     </g>
     <g id="text_12">
      <!-- −0.50 -->
      <g transform="translate(24.744688 134.881324) scale(0.1 -0.1)">
       <use xlink:href="#DejaVuSans-2212"/>
       <use xlink:href="#DejaVuSans-30" transform="translate(83.789062 0)"/>
       <use xlink:href="#DejaVuSans-2e" transform="translate(147.412109 0)"/>
       <use xlink:href="#DejaVuSans-35" transform="translate(179.199219 0)"/>
       <use xlink:href="#DejaVuSans-30" transform="translate(242.822266 0)"/>
      </g>
     </g>
    </g>
    <g id="ytick_4">
     <g id="line2d_12">
      <g>
       <use xlink:href="#meb9fd9a2ef" x="62.39" y="109.603158" style="stroke: #000000; stroke-width: 0.8"/>
      </g>
     </g>
     <g id="text_13">
      <!-- −0.25 -->
      <g transform="translate(24.744688 113.402377) scale(0.1 -0.1)">
       <use xlink:href="#DejaVuSans-2212"/>
       <use xlink:href="#DejaVuSans-30" transform="translate(83.789062 0)"/>
       <use xlink:href="#DejaVuSans-2e" transform="translate(147.412109 0)"/>
       <use xlink:href="#DejaVuSans-32" transform="translate(179.199219 0)"/>
       <use xlink:href="#DejaVuSans-35" transform="translate(242.822266 0)"/>
      </g>
     </g>
    </g>
    <g id="ytick_5">
     <g id="line2d_13">
      <g>
       <use xlink:href="#meb9fd9a2ef" x="62.39" y="88.124211" style="stroke: #000000; stroke-width: 0.8"/>
      </g>
     </g>
     <g id="text_14">
      <!-- 0.00 -->
      <g transform="translate(33.124375 91.923429) scale(0.1 -0.1)">
       <use xlink:href="#DejaVuSans-30"/>
       <use xlink:href="#DejaVuSans-2e" transform="translate(63.623047 0)"/>
       <use xlink:href="#DejaVuSans-30" transform="translate(95.410156 0)"/>
       <use xlink:href="#DejaVuSans-30" transform="translate(159.033203 0)"/>
      </g>
     </g>
    </g>
    <g id="ytick_6">
     <g id="line2d_14">
      <g>
       <use xlink:href="#meb9fd9a2ef" x="62.39" y="66.645263" style="stroke: #000000; stroke-width: 0.8"/>
      </g>
     </g>
     <g id="text_15">
      <!-- 0.25 -->
      <g transform="translate(33.124375 70.444482) scale(0.1 -0.1)">
       <use xlink:href="#DejaVuSans-30"/>
       <use xlink:href="#DejaVuSans-2e" transform="translate(63.623047 0)"/>
       <use xlink:href="#DejaVuSans-32" transform="translate(95.410156 0)"/>
       <use xlink:href="#DejaVuSans-35" transform="translate(159.033203 0)"/>
      </g>
     </g>
    </g>
    <g id="ytick_7">
     <g id="line2d_15">
      <g>
       <use xlink:href="#meb9fd9a2ef" x="62.39" y="45.166316" style="stroke: #000000; stroke-width: 0.8"/>
      </g>
     </g>
     <g id="text_16">
      <!-- 0.50 -->
      <g transform="translate(33.124375 48.965535) scale(0.1 -0.1)">
       <use xlink:href="#DejaVuSans-30"/>
       <use xlink:href="#DejaVuSans-2e" transform="translate(63.623047 0)"/>
       <use xlink:href="#DejaVuSans-35" transform="translate(95.410156 0)"/>
       <use xlink:href="#DejaVuSans-30" transform="translate(159.033203 0)"/>
      </g>
     </g>
    </g>
    <g id="ytick_8">
     <g id="line2d_16">
      <g>
       <use xlink:href="#meb9fd9a2ef" x="62.39" y="23.687368" style="stroke: #000000; stroke-width: 0.8"/>
      </g>
     </g>
     <g id="text_17">
      <!-- 0.75 -->
      <g transform="translate(33.124375 27.486587) scale(0.1 -0.1)">
       <use xlink:href="#DejaVuSans-30"/>
       <use xlink:href="#DejaVuSans-2e" transform="translate(63.623047 0)"/>
       <use xlink:href="#DejaVuSans-37" transform="translate(95.410156 0)"/>
       <use xlink:href="#DejaVuSans-35" transform="translate(159.033203 0)"/>
      </g>
     </g>
    </g>
    <g id="text_18">
     <!-- Injected Signal -->
     <g transform="translate(18.665 129.437969) rotate(-90) scale(0.1 -0.1)">
      <defs>
       <path id="DejaVuSans-49" d="M 628 4666 
L 1259 4666 
L 1259 0 
L 628 0 
L 628 4666 
z
" transform="scale(0.015625)"/>
       <path id="DejaVuSans-6e" d="M 3513 2113 
L 3513 0 
L 2938 0 
L 2938 2094 
Q 2938 2591 2744 2837 
Q 2550 3084 2163 3084 
Q 1697 3084 1428 2787 
Q 1159 2491 1159 1978 
L 1159 0 
L 581 0 
L 581 3500 
L 1159 3500 
L 1159 2956 
Q 1366 3272 1645 3428 
Q 1925 3584 2291 3584 
Q 2894 3584 3203 3211 
Q 3513 2838 3513 2113 
z
" transform="scale(0.015625)"/>
       <path id="DejaVuSans-6a" d="M 603 3500 
L 1178 3500 
L 1178 -63 
Q 1178 -731 923 -1031 
Q 669 -1331 103 -1331 
L -116 -1331 
L -116 -844 
L 38 -844 
Q 366 -844 484 -692 
Q 603 -541 603 -63 
L 603 3500 
z
M 603 4863 
L 1178 4863 
L 1178 4134 
L 603 4134 
L 603 4863 
z
" transform="scale(0.015625)"/>
       <path id="DejaVuSans-74" d="M 1172 4494 
L 1172 3500 
L 2356 3500 
L 2356 3053 
L 1172 3053 
L 1172 1153 
Q 1172 725 1289 603 
Q 1406 481 1766 481 
L 2356 481 
L 2356 0 
L 1766 0 
Q 1100 0 847 248 
Q 594 497 594 1153 
L 594 3053 
L 172 3053 
L 172 3500 
L 594 3500 
L 594 4494 
L 1172 4494 
z
" transform="scale(0.015625)"/>
       <path id="DejaVuSans-64" d="M 2906 2969 
L 2906 4863 
L 3481 4863 
L 3481 0 
L 2906 0 
L 2906 525 
Q 2725 213 2448 61 
Q 2172 -91 1784 -91 
Q 1150 -91 751 415 
Q 353 922 353 1747 
Q 353 2572 751 3078 
Q 1150 3584 1784 3584 
Q 2172 3584 2448 3432 
Q 2725 3281 2906 2969 
z
M 947 1747 
Q 947 1113 1208 752 
Q 1469 391 1925 391 
Q 2381 391 2643 752 
Q 2906 1113 2906 1747 
Q 2906 2381 2643 2742 
Q 2381 3103 1925 3103 
Q 1469 3103 1208 2742 
Q 947 2381 947 1747 
z
" transform="scale(0.015625)"/>
       <path id="DejaVuSans-53" d="M 3425 4513 
L 3425 3897 
Q 3066 4069 2747 4153 
Q 2428 4238 2131 4238 
Q 1616 4238 1336 4038 
Q 1056 3838 1056 3469 
Q 1056 3159 1242 3001 
Q 1428 2844 1947 2747 
L 2328 2669 
Q 3034 2534 3370 2195 
Q 3706 1856 3706 1288 
Q 3706 609 3251 259 
Q 2797 -91 1919 -91 
Q 1588 -91 1214 -16 
Q 841 59 441 206 
L 441 856 
Q 825 641 1194 531 
Q 1563 422 1919 422 
Q 2459 422 2753 634 
Q 3047 847 3047 1241 
Q 3047 1584 2836 1778 
Q 2625 1972 2144 2069 
L 1759 2144 
Q 1053 2284 737 2584 
Q 422 2884 422 3419 
Q 422 4038 858 4394 
Q 1294 4750 2059 4750 
Q 2388 4750 2728 4690 
Q 3069 4631 3425 4513 
z
" transform="scale(0.015625)"/>
       <path id="DejaVuSans-67" d="M 2906 1791 
Q 2906 2416 2648 2759 
Q 2391 3103 1925 3103 
Q 1463 3103 1205 2759 
Q 947 2416 947 1791 
Q 947 1169 1205 825 
Q 1463 481 1925 481 
Q 2391 481 2648 825 
Q 2906 1169 2906 1791 
z
M 3481 434 
Q 3481 -459 3084 -895 
Q 2688 -1331 1869 -1331 
Q 1566 -1331 1297 -1286 
Q 1028 -1241 775 -1147 
L 775 -588 
Q 1028 -725 1275 -790 
Q 1522 -856 1778 -856 
Q 2344 -856 2625 -561 
Q 2906 -266 2906 331 
L 2906 616 
Q 2728 306 2450 153 
Q 2172 0 1784 0 
Q 1141 0 747 490 
Q 353 981 353 1791 
Q 353 2603 747 3093 
Q 1141 3584 1784 3584 
Q 2172 3584 2450 3431 
Q 2728 3278 2906 2969 
L 2906 3500 
L 3481 3500 
L 3481 434 
z
" transform="scale(0.015625)"/>
       <path id="DejaVuSans-61" d="M 2194 1759 
Q 1497 1759 1228 1600 
Q 959 1441 959 1056 
Q 959 750 1161 570 
Q 1363 391 1709 391 
Q 2188 391 2477 730 
Q 2766 1069 2766 1631 
L 2766 1759 
L 2194 1759 
z
M 3341 1997 
L 3341 0 
L 2766 0 
L 2766 531 
Q 2569 213 2275 61 
Q 1981 -91 1556 -91 
Q 1019 -91 701 211 
Q 384 513 384 1019 
Q 384 1609 779 1909 
Q 1175 2209 1959 2209 
L 2766 2209 
L 2766 2266 
Q 2766 2663 2505 2880 
Q 2244 3097 1772 3097 
Q 1472 3097 1187 3025 
Q 903 2953 641 2809 
L 641 3341 
Q 956 3463 1253 3523 
Q 1550 3584 1831 3584 
Q 2591 3584 2966 3190 
Q 3341 2797 3341 1997 
z
" transform="scale(0.015625)"/>
       <path id="DejaVuSans-6c" d="M 603 4863 
L 1178 4863 
L 1178 0 
L 603 0 
L 603 4863 
z
" transform="scale(0.015625)"/>
      </defs>
      <use xlink:href="#DejaVuSans-49"/>
      <use xlink:href="#DejaVuSans-6e" transform="translate(29.492188 0)"/>
      <use xlink:href="#DejaVuSans-6a" transform="translate(92.871094 0)"/>
      <use xlink:href="#DejaVuSans-65" transform="translate(120.654297 0)"/>
      <use xlink:href="#DejaVuSans-63" transform="translate(182.177734 0)"/>
      <use xlink:href="#DejaVuSans-74" transform="translate(237.158203 0)"/>
      <use xlink:href="#DejaVuSans-65" transform="translate(276.367188 0)"/>
      <use xlink:href="#DejaVuSans-64" transform="translate(337.890625 0)"/>
      <use xlink:href="#DejaVuSans-20" transform="translate(401.367188 0)"/>
      <use xlink:href="#DejaVuSans-53" transform="translate(433.154297 0)"/>
      <use xlink:href="#DejaVuSans-69" transform="translate(496.630859 0)"/>
      <use xlink:href="#DejaVuSans-67" transform="translate(524.414062 0)"/>
      <use xlink:href="#DejaVuSans-6e" transform="translate(587.890625 0)"/>
      <use xlink:href="#DejaVuSans-61" transform="translate(651.269531 0)"/>
      <use xlink:href="#DejaVuSans-6c" transform="translate(712.548828 0)"/>
     </g>
    </g>
   </g>
   <g id="line2d_17">
    <path d="M 75.426818 88.124211 
L 78.868997 57.064083 
L 80.120699 47.935996 
L 81.059475 42.566921 
L 81.824403 39.349562 
L 82.450254 37.592499 
L 82.937027 36.813921 
L 83.319491 36.580541 
L 83.632417 36.644455 
L 83.980111 36.989642 
L 84.397345 37.789901 
L 84.884118 39.259704 
L 85.475199 41.818317 
L 86.170589 45.891814 
L 87.005056 52.2167 
L 88.013372 61.721202 
L 89.299842 76.147049 
L 93.54172 125.608105 
L 94.445726 132.770106 
L 95.141116 136.691126 
L 95.697428 138.696125 
L 96.114661 139.491354 
L 96.427587 139.673679 
L 96.670973 139.565175 
L 96.949129 139.170105 
L 97.296824 138.267728 
L 97.748827 136.418106 
L 98.305139 133.111109 
L 98.965759 127.775215 
L 99.800227 119.05991 
L 100.878081 105.180176 
L 102.825172 76.444016 
L 104.32026 55.962994 
L 105.259036 45.955431 
L 105.954425 40.642037 
L 106.510737 37.910155 
L 106.927971 36.824252 
L 107.206127 36.578188 
L 107.414744 36.649278 
L 107.65813 37.011459 
L 107.971056 37.919899 
L 108.388289 39.900457 
L 108.909832 43.580868 
L 109.570452 50.046706 
L 110.37015 60.232419 
L 111.482774 77.558889 
L 114.333871 123.380224 
L 115.133569 132.273442 
L 115.75942 136.971523 
L 116.211423 138.953853 
L 116.524349 139.588509 
L 116.732966 139.667132 
L 116.941583 139.467069 
L 117.219738 138.765353 
L 117.567433 137.192778 
L 118.019437 134.01831 
L 118.610518 128.04419 
L 119.340677 118.143801 
L 120.348992 101.03638 
L 123.16532 51.206395 
L 123.895479 42.750584 
L 124.451791 38.599945 
L 124.869025 36.948082 
L 125.147181 36.578971 
L 125.321028 36.651559 
L 125.529645 37.048422 
L 125.807801 38.102179 
L 126.190265 40.516078 
L 126.677038 45.140489 
L 127.302889 53.41295 
L 128.137357 67.741373 
L 129.667214 98.87574 
L 130.884146 121.63 
L 131.649074 132.140804 
L 132.205386 137.118103 
L 132.62262 139.155294 
L 132.900776 139.657107 
L 133.074623 139.615144 
L 133.28324 139.201488 
L 133.561396 138.035293 
L 133.94386 135.304985 
L 134.430633 130.032581 
L 135.056484 120.609795 
L 135.925721 103.733172 
L 138.602971 48.905581 
L 139.228822 41.223501 
L 139.680825 37.884843 
L 140.02852 36.700836 
L 140.237137 36.589417 
L 140.410985 36.843675 
L 140.654371 37.729476 
L 141.002066 40.052818 
L 141.454069 44.858355 
L 142.04515 53.893825 
L 142.844848 70.020502 
L 145.626407 129.741703 
L 146.182719 136.229254 
L 146.599953 138.938235 
L 146.878109 139.639576 
L 147.017187 139.650316 
L 147.191034 139.342945 
L 147.43442 138.315406 
L 147.782115 135.659432 
L 148.234119 130.218338 
L 148.8252 120.094513 
L 149.659667 101.479753 
L 151.884914 49.835634 
L 152.475996 41.444729 
L 152.927999 37.720847 
L 153.240924 36.648972 
L 153.414772 36.604621 
L 153.588619 36.957289 
L 153.832006 38.115481 
L 154.1797 41.087359 
L 154.631704 47.138096 
L 155.222785 58.300425 
L 156.092022 79.408166 
L 157.900035 124.010614 
L 158.525886 134.031577 
L 158.977889 138.269231 
L 159.290815 139.552784 
L 159.464662 139.659333 
L 159.60374 139.429525 
L 159.812357 138.560749 
L 160.125282 136.09669 
L 160.542516 130.744917 
L 161.098828 120.350489 
L 161.898526 100.608831 
L 163.810848 51.605865 
L 164.401929 42.104283 
L 164.853932 37.893215 
L 165.166857 36.668962 
L 165.340705 36.600598 
L 165.479783 36.860299 
L 165.723169 37.97919 
L 166.036095 40.6243 
L 166.488098 46.675548 
L 167.079179 57.982047 
L 167.983186 80.220857 
L 169.652121 121.568422 
L 170.312741 132.662857 
L 170.799514 137.661078 
L 171.147209 139.393422 
L 171.355826 139.673656 
L 171.494904 139.543063 
L 171.703521 138.874829 
L 171.981676 137.119714 
L 172.364141 133.168431 
L 172.885683 125.193607 
L 173.615842 110.070095 
L 176.501709 45.535961 
L 177.058021 39.361525 
L 177.440485 37.128172 
L 177.683872 36.598105 
L 177.82295 36.608845 
L 177.996797 36.941635 
L 178.240184 37.99606 
L 178.587878 40.65693 
L 179.039882 46.012441 
L 179.665732 56.477605 
L 180.569739 75.986193 
L 182.655908 122.354596 
L 183.351298 132.671009 
L 183.87284 137.511028 
L 184.255304 139.315986 
L 184.498691 139.671944 
L 184.637769 139.59761 
L 184.846386 139.110074 
L 185.124542 137.769795 
L 185.507006 134.687606 
L 186.028548 128.355878 
L 186.723938 116.712482 
L 187.767022 94.824207 
L 189.575036 56.846347 
L 190.339964 45.345344 
L 190.896276 39.802145 
L 191.31351 37.402243 
L 191.626435 36.633277 
L 191.800283 36.591314 
L 191.97413 36.823387 
L 192.217516 37.603363 
L 192.565211 39.61524 
L 193.017214 43.725474 
L 193.608296 51.381163 
L 194.407994 65.000565 
L 195.868312 94.675552 
L 197.154783 118.997694 
L 197.954481 130.312356 
L 198.545562 135.997162 
L 198.997566 138.611388 
L 199.345261 139.554198 
L 199.553878 139.66945 
L 199.727725 139.508358 
L 199.971111 138.894317 
L 200.318806 137.24838 
L 200.77081 133.819038 
L 201.361891 127.334011 
L 202.126819 116.153255 
L 203.274212 95.590068 
L 205.325612 58.636461 
L 206.194849 47.007781 
L 206.855469 40.860872 
L 207.377012 37.874097 
L 207.759476 36.781352 
L 208.002862 36.575088 
L 208.17671 36.659912 
L 208.420096 37.100484 
L 208.733021 38.208595 
L 209.150255 40.600174 
L 209.706567 45.304255 
L 210.401957 53.318422 
L 211.340733 67.025344 
L 213.322593 100.421827 
L 214.609064 119.820598 
L 215.478301 129.845054 
L 216.173691 135.495303 
L 216.695233 138.19691 
L 217.112467 139.371197 
L 217.390623 139.662227 
L 217.59924 139.623381 
L 217.842626 139.302391 
L 218.155552 138.461008 
L 218.572786 136.612456 
L 219.094328 133.198638 
L 219.754948 127.284934 
L 220.624185 117.257274 
L 221.841117 100.318253 
L 224.726984 59.249485 
L 225.70053 48.794222 
L 226.500228 42.432382 
L 227.126079 39.02891 
L 227.647621 37.301337 
L 228.030085 36.683246 
L 228.308241 36.577202 
L 228.551628 36.719094 
L 228.864553 37.218161 
L 229.247017 38.299773 
L 229.73379 40.395547 
L 230.359641 44.192328 
L 231.124569 50.326693 
L 232.098115 60.062554 
L 233.523664 76.852617 
L 236.583378 113.442268 
L 237.730771 124.324791 
L 238.669548 131.261138 
L 239.434476 135.429398 
L 240.095096 137.899385 
L 240.616639 139.09836 
L 241.033872 139.582503 
L 241.381567 139.66788 
L 241.694493 139.502068 
L 242.076957 138.994686 
L 242.52896 137.977114 
L 243.085272 136.133585 
L 243.780662 132.979427 
L 244.615129 128.086781 
L 245.658214 120.5636 
L 247.048993 108.786578 
L 250.108708 80.30639 
L 252.577341 58.189572 
L 253.863812 48.618224 
L 254.837358 42.913665 
L 255.602286 39.594977 
L 256.228137 37.746553 
L 256.71491 36.892534 
L 257.097374 36.597694 
L 257.4103 36.610182 
L 257.723225 36.855539 
L 258.105689 37.476107 
L 258.557693 38.668428 
L 259.114004 40.819023 
L 259.774625 44.338014 
L 260.574323 49.942168 
L 261.513099 58.234838 
L 262.695261 70.844932 
L 264.538044 93.326291 
L 266.624213 118.056318 
L 267.702067 128.32662 
L 268.536535 134.312034 
L 269.197155 137.566009 
L 269.683928 139.03026 
L 270.066392 139.592045 
L 270.344548 139.66516 
L 270.587934 139.49359 
L 270.90086 138.947084 
L 271.283324 137.779759 
L 271.770097 135.505261 
L 272.361178 131.58656 
L 273.091337 125.10039 
L 273.995344 114.862835 
L 275.212276 98.226627 
L 278.411068 53.097299 
L 279.280305 44.442744 
L 279.940926 39.826328 
L 280.462468 37.55934 
L 280.844932 36.726472 
L 281.088319 36.574749 
L 281.296935 36.682575 
L 281.540322 37.087808 
L 281.888017 38.189236 
L 282.34002 40.531047 
L 282.896332 44.7802 
L 283.591721 52.05715 
L 284.460958 63.761879 
L 285.71266 84.022083 
L 287.903137 119.649691 
L 288.772375 130.243152 
L 289.432995 135.886138 
L 289.954537 138.606568 
L 290.302232 139.500756 
L 290.545618 139.673333 
L 290.719466 139.564813 
L 290.962852 139.08672 
L 291.275777 137.913913 
L 291.693011 135.387549 
L 292.214554 130.743387 
L 292.875174 122.696161 
L 293.744411 109.090363 
L 295.204729 81.979541 
L 296.665048 56.246477 
L 297.499515 45.216092 
L 298.125366 39.665237 
L 298.577369 37.354104 
L 298.890295 36.647692 
L 299.098911 36.594396 
L 299.272759 36.807729 
L 299.516145 37.500609 
L 299.86384 39.282075 
L 300.315843 42.95256 
L 300.872155 49.435481 
L 301.602314 60.779384 
L 302.645399 80.85762 
L 304.731568 121.63 
L 305.496497 132.140804 
L 306.052808 137.118103 
L 306.470042 139.155294 
L 306.748198 139.657107 
L 306.922045 139.615144 
L 307.130662 139.201488 
L 307.408818 138.035293 
L 307.791283 135.304985 
L 308.278055 130.032581 
L 308.903906 120.609795 
L 309.773143 103.733172 
L 312.450393 48.905581 
L 313.076244 41.223501 
L 313.528247 37.884843 
L 313.875942 36.700836 
L 314.084559 36.589417 
L 314.258407 36.843675 
L 314.501793 37.729476 
L 314.849488 40.052818 
L 315.301491 44.858355 
L 315.892572 53.893825 
L 316.692271 70.020502 
L 319.473829 129.741703 
L 320.030141 136.229254 
L 320.447375 138.938235 
L 320.725531 139.639576 
L 320.864609 139.650316 
L 321.038456 139.342945 
L 321.281842 138.315406 
L 321.629537 135.659432 
L 322.081541 130.218338 
L 322.672622 120.094513 
L 323.507089 101.479753 
L 325.732336 49.835634 
L 326.323418 41.444729 
L 326.775421 37.720847 
L 327.088346 36.648972 
L 327.262194 36.604621 
L 327.436041 36.957289 
L 327.679428 38.115481 
L 328.027122 41.087359 
L 328.479126 47.138096 
L 329.070207 58.300425 
L 329.939444 79.408166 
L 331.747457 124.010614 
L 332.373308 134.031577 
L 332.825311 138.269231 
L 333.138237 139.552784 
L 333.312084 139.659333 
L 333.451162 139.429525 
L 333.659779 138.560749 
L 333.972704 136.09669 
L 334.389938 130.744917 
L 334.94625 120.350489 
L 335.745948 100.608831 
L 336.163182 89.095708 
L 336.163182 89.095708 
" clip-path="url(#p31cabdd710)" style="fill: none; stroke: #1f77b4; stroke-width: 1.5; stroke-linecap: square"/>
   </g>
   <g id="line2d_18">
    <path d="M 75.426818 165.448421 
L 249.27424 165.448421 
" clip-path="url(#p31cabdd710)" style="fill: none; stroke: #000000; stroke-width: 2; stroke-linecap: square"/>
   </g>
   <g id="line2d_19">
    <path d="M 75.426818 170.603368 
L 75.426818 160.293474 
" clip-path="url(#p31cabdd710)" style="fill: none; stroke: #000000; stroke-width: 2; stroke-linecap: square"/>
   </g>
   <g id="line2d_20">
    <path d="M 249.27424 170.603368 
L 249.27424 160.293474 
" clip-path="url(#p31cabdd710)" style="fill: none; stroke: #000000; stroke-width: 2; stroke-linecap: square"/>
   </g>
   <g id="line2d_21">
    <path d="M 85.857664 88.124211 
L 99.765457 88.124211 
" clip-path="url(#p31cabdd710)" style="fill: none; stroke: #000000; stroke-width: 2; stroke-linecap: square"/>
   </g>
   <g id="line2d_22">
    <path d="M 85.857664 36.574737 
L 99.765457 36.574737 
" clip-path="url(#p31cabdd710)" style="fill: none; stroke: #000000; stroke-width: 2; stroke-linecap: square"/>
   </g>
   <g id="line2d_23">
    <path d="M 92.81156 88.124211 
L 92.81156 36.574737 
" clip-path="url(#p31cabdd710)" style="fill: none; stroke: #000000; stroke-width: 2; stroke-linecap: square"/>
   </g>
   <g id="patch_3">
    <path d="M 62.39 174.04 
L 62.39 10.8 
" style="fill: none; stroke: #000000; stroke-width: 0.8; stroke-linejoin: miter; stroke-linecap: square"/>
   </g>
   <g id="patch_4">
    <path d="M 349.2 174.04 
L 349.2 10.8 
" style="fill: none; stroke: #000000; stroke-width: 0.8; stroke-linejoin: miter; stroke-linecap: square"/>
   </g>
   <g id="patch_5">
    <path d="M 62.39 174.04 
L 349.2 174.04 
" style="fill: none; stroke: #000000; stroke-width: 0.8; stroke-linejoin: miter; stroke-linecap: square"/>
   </g>
   <g id="patch_6">
    <path d="M 62.39 10.8 
L 349.2 10.8 
" style="fill: none; stroke: #000000; stroke-width: 0.8; stroke-linejoin: miter; stroke-linecap: square"/>
   </g>
   <g id="text_19">
    <g id="patch_7">
     <path d="M 142.421623 162.93653 
L 182.279435 162.93653 
L 182.279435 145.258405 
L 142.421623 145.258405 
z
" style="fill: #ffffff; opacity: 0.8; stroke: #000000; stroke-linejoin: miter"/>
    </g>
    <!-- period -->
    <g transform="translate(146.421623 156.856842) scale(0.1 -0.1)">
     <defs>
      <path id="DejaVuSans-70" d="M 1159 525 
L 1159 -1331 
L 581 -1331 
L 581 3500 
L 1159 3500 
L 1159 2969 
Q 1341 3281 1617 3432 
Q 1894 3584 2278 3584 
Q 2916 3584 3314 3078 
Q 3713 2572 3713 1747 
Q 3713 922 3314 415 
Q 2916 -91 2278 -91 
Q 1894 -91 1617 61 
Q 1341 213 1159 525 
z
M 3116 1747 
Q 3116 2381 2855 2742 
Q 2594 3103 2138 3103 
Q 1681 3103 1420 2742 
Q 1159 2381 1159 1747 
Q 1159 1113 1420 752 
Q 1681 391 2138 391 
Q 2594 391 2855 752 
Q 3116 1113 3116 1747 
z
" transform="scale(0.015625)"/>
      <path id="DejaVuSans-72" d="M 2631 2963 
Q 2534 3019 2420 3045 
Q 2306 3072 2169 3072 
Q 1681 3072 1420 2755 
Q 1159 2438 1159 1844 
L 1159 0 
L 581 0 
L 581 3500 
L 1159 3500 
L 1159 2956 
Q 1341 3275 1631 3429 
Q 1922 3584 2338 3584 
Q 2397 3584 2469 3576 
Q 2541 3569 2628 3553 
L 2631 2963 
z
" transform="scale(0.015625)"/>
      <path id="DejaVuSans-6f" d="M 1959 3097 
Q 1497 3097 1228 2736 
Q 959 2375 959 1747 
Q 959 1119 1226 758 
Q 1494 397 1959 397 
Q 2419 397 2687 759 
Q 2956 1122 2956 1747 
Q 2956 2369 2687 2733 
Q 2419 3097 1959 3097 
z
M 1959 3584 
Q 2709 3584 3137 3096 
Q 3566 2609 3566 1747 
Q 3566 888 3137 398 
Q 2709 -91 1959 -91 
Q 1206 -91 779 398 
Q 353 888 353 1747 
Q 353 2609 779 3096 
Q 1206 3584 1959 3584 
z
" transform="scale(0.015625)"/>
     </defs>
     <use xlink:href="#DejaVuSans-70"/>
     <use xlink:href="#DejaVuSans-65" transform="translate(63.476562 0)"/>
     <use xlink:href="#DejaVuSans-72" transform="translate(125 0)"/>
     <use xlink:href="#DejaVuSans-69" transform="translate(166.113281 0)"/>
     <use xlink:href="#DejaVuSans-6f" transform="translate(193.896484 0)"/>
     <use xlink:href="#DejaVuSans-64" transform="translate(255.078125 0)"/>
    </g>
   </g>
   <g id="text_20">
    <g id="patch_8">
     <path d="M 94.026983 68.429161 
L 123.619171 68.429161 
L 123.619171 50.751036 
L 94.026983 50.751036 
z
" style="fill: #ffffff; opacity: 0.8; stroke: #000000; stroke-linejoin: miter"/>
    </g>
    <!-- gain -->
    <g transform="translate(98.026983 62.349474) scale(0.1 -0.1)">
     <use xlink:href="#DejaVuSans-67"/>
     <use xlink:href="#DejaVuSans-61" transform="translate(63.476562 0)"/>
     <use xlink:href="#DejaVuSans-69" transform="translate(124.755859 0)"/>
     <use xlink:href="#DejaVuSans-6e" transform="translate(152.539062 0)"/>
    </g>
   </g>
  </g>
 </g>
 <defs>
  <clipPath id="p31cabdd710">
   <rect x="62.39" y="10.8" width="286.81" height="163.24"/>
  </clipPath>
 </defs>
</svg>
