<svg version="1.1" viewBox="0.0 0.0 487.95800524934384 281.8530183727034" fill="none" stroke="none" stroke-linecap="square" stroke-miterlimit="10" xmlns:xlink="http://www.w3.org/1999/xlink" xmlns="http://www.w3.org/2000/svg"><clipPath id="p.0"><path d="m0 0l487.958 0l0 281.85303l-487.958 0l0 -281.85303z" clip-rule="nonzero"/></clipPath><g clip-path="url(#p.0)"><path fill="#000000" fill-opacity="0.0" d="m0 0l487.958 0l0 281.85303l-487.958 0z" fill-rule="evenodd"/><path fill="#ffffff" d="m0 0l488.0315 0l0 281.98425l-488.0315 0z" fill-rule="evenodd"/><path fill="#000000" fill-opacity="0.0" d="m31.63252 130.47769l141.44882 0l0 30.708664l-141.44882 0z" fill-rule="evenodd"/><path fill="#000000" d="m44.726273 147.03143q0 0.484375 -0.25 0.828125q-0.234375 0.328125 -0.6875 0.5q-0.453125 0.171875 -1.09375 0.171875q-0.53125 0 -0.921875 -0.078125q-0.375 -0.078125 -0.6875 -0.234375l0 -0.8125q0.34375 0.15625 0.78125 0.28125q0.4375 0.125 0.859375 0.125q0.578125 0 0.84375 -0.1875q0.265625 -0.1875 0.265625 -0.5q0 -0.1875 -0.109375 -0.328125q-0.109375 -0.15625 -0.375 -0.296875q-0.25 -0.140625 -0.734375 -0.328125q-0.484375 -0.1875 -0.828125 -0.375q-0.34375 -0.1875 -0.515625 -0.453125q-0.171875 -0.265625 -0.171875 -0.671875q0 -0.65625 0.515625 -1.0q0.515625 -0.34375 1.375 -0.34375q0.453125 0 0.859375 0.09375q0.40625 0.09375 0.78125 0.25l-0.296875 0.703125q-0.328125 -0.140625 -0.6875 -0.234375q-0.34375 -0.09375 -0.703125 -0.09375q-0.46875 0 -0.71875 0.15625q-0.234375 0.15625 -0.234375 0.40625q0 0.21875 0.109375 0.359375q0.109375 0.125 0.375 0.265625q0.28125 0.125 0.75 0.296875q0.46875 0.171875 0.796875 0.359375q0.328125 0.1875 0.515625 0.453125q0.1875 0.265625 0.1875 0.6875zm3.1517944 -3.703125q0.65625 0 1.125 0.28125q0.46875 0.28125 0.71875 0.796875q0.25 0.5 0.25 1.1875l0 0.53125l-3.40625 0q0.015625 0.796875 0.40625 1.234375q0.40625 0.421875 1.125 0.421875q0.484375 0 0.859375 -0.078125q0.375 -0.09375 0.765625 -0.28125l0 0.78125q-0.375 0.171875 -0.75 0.25q-0.375 0.078125 -0.90625 0.078125q-0.734375 0 -1.28125 -0.28125q-0.546875 -0.296875 -0.859375 -0.875q-0.296875 -0.578125 -0.296875 -1.40625q0 -0.828125 0.265625 -1.421875q0.28125 -0.59375 0.78125 -0.90625q0.515625 -0.3125 1.203125 -0.3125zm-0.015625 0.703125q-0.546875 0 -0.890625 0.375q-0.328125 0.359375 -0.390625 1.03125l2.46875 0q0 -0.421875 -0.140625 -0.734375q-0.125 -0.3125 -0.390625 -0.484375q-0.25 -0.1875 -0.65625 -0.1875zm5.8531647 -0.703125q0.859375 0 1.328125 0.4375q0.46875 0.4375 0.46875 1.40625l0 3.265625l-0.90625 0l0 -3.140625q0 -0.609375 -0.265625 -0.90625q-0.265625 -0.3125 -0.8125 -0.3125q-0.78125 0 -1.09375 0.46875q-0.3125 0.453125 -0.3125 1.328125l0 2.5625l-0.90625 0l0 -5.015625l0.71875 0l0.140625 0.703125l0.046875 0q0.15625 -0.265625 0.40625 -0.4375q0.25 -0.1875 0.546875 -0.265625q0.296875 -0.09375 0.640625 -0.09375zm6.638031 3.703125q0 0.484375 -0.25 0.828125q-0.234375 0.328125 -0.6875 0.5q-0.453125 0.171875 -1.09375 0.171875q-0.53125 0 -0.921875 -0.078125q-0.375 -0.078125 -0.6875 -0.234375l0 -0.8125q0.34375 0.15625 0.78125 0.28125q0.4375 0.125 0.859375 0.125q0.578125 0 0.84375 -0.1875q0.265625 -0.1875 0.265625 -0.5q0 -0.1875 -0.109375 -0.328125q-0.109375 -0.15625 -0.375 -0.296875q-0.25 -0.140625 -0.734375 -0.328125q-0.484375 -0.1875 -0.828125 -0.375q-0.34375 -0.1875 -0.515625 -0.453125q-0.171875 -0.265625 -0.171875 -0.671875q0 -0.65625 0.515625 -1.0q0.515625 -0.34375 1.375 -0.34375q0.453125 0 0.859375 0.09375q0.40625 0.09375 0.78125 0.25l-0.296875 0.703125q-0.328125 -0.140625 -0.6875 -0.234375q-0.34375 -0.09375 -0.703125 -0.09375q-0.46875 0 -0.71875 0.15625q-0.234375 0.15625 -0.234375 0.40625q0 0.21875 0.109375 0.359375q0.109375 0.125 0.375 0.265625q0.28125 0.125 0.75 0.296875q0.46875 0.171875 0.796875 0.359375q0.328125 0.1875 0.515625 0.453125q0.1875 0.265625 0.1875 0.6875zm5.5736694 -1.109375q0 0.609375 -0.171875 1.109375q-0.15625 0.484375 -0.46875 0.8125q-0.296875 0.328125 -0.734375 0.515625q-0.4375 0.171875 -0.984375 0.171875q-0.5 0 -0.9375 -0.171875q-0.421875 -0.1875 -0.734375 -0.515625q-0.3125 -0.328125 -0.484375 -0.8125q-0.15625 -0.5 -0.15625 -1.109375q0 -0.828125 0.28125 -1.40625q0.28125 -0.578125 0.796875 -0.875q0.53125 -0.3125 1.265625 -0.3125q0.6875 0 1.203125 0.3125q0.53125 0.296875 0.828125 0.875q0.296875 0.578125 0.296875 1.40625zm-3.734375 0q0 0.578125 0.140625 1.0q0.15625 0.40625 0.453125 0.640625q0.3125 0.21875 0.796875 0.21875q0.484375 0 0.796875 -0.21875q0.3125 -0.234375 0.453125 -0.640625q0.140625 -0.421875 0.140625 -1.0q0 -0.578125 -0.140625 -0.984375q-0.140625 -0.40625 -0.453125 -0.625q-0.3125 -0.21875 -0.796875 -0.21875q-0.71875 0 -1.0625 0.484375q-0.328125 0.46875 -0.328125 1.34375zm7.4024506 -2.59375q0.140625 0 0.296875 0.015625q0.15625 0.015625 0.28125 0.03125l-0.09375 0.859375q-0.109375 -0.03125 -0.265625 -0.046875q-0.140625 -0.015625 -0.265625 -0.015625q-0.28125 0 -0.546875 0.109375q-0.265625 0.109375 -0.46875 0.3125q-0.203125 0.203125 -0.3125 0.515625q-0.109375 0.296875 -0.109375 0.671875l0 2.65625l-0.921875 0l0 -5.015625l0.734375 0l0.109375 0.90625l0.046875 0q0.15625 -0.28125 0.375 -0.5q0.21875 -0.234375 0.5 -0.359375q0.296875 -0.140625 0.640625 -0.140625zm4.8233337 3.703125q0 0.484375 -0.25 0.828125q-0.234375 0.328125 -0.6875 0.5q-0.453125 0.171875 -1.09375 0.171875q-0.53125 0 -0.921875 -0.078125q-0.375 -0.078125 -0.6875 -0.234375l0 -0.8125q0.34375 0.15625 0.78125 0.28125q0.4375 0.125 0.859375 0.125q0.578125 0 0.84375 -0.1875q0.265625 -0.1875 0.265625 -0.5q0 -0.1875 -0.109375 -0.328125q-0.109375 -0.15625 -0.375 -0.296875q-0.25 -0.140625 -0.734375 -0.328125q-0.484375 -0.1875 -0.828125 -0.375q-0.34375 -0.1875 -0.515625 -0.453125q-0.171875 -0.265625 -0.171875 -0.671875q0 -0.65625 0.515625 -1.0q0.515625 -0.34375 1.375 -0.34375q0.453125 0 0.859375 0.09375q0.40625 0.09375 0.78125 0.25l-0.296875 0.703125q-0.328125 -0.140625 -0.6875 -0.234375q-0.34375 -0.09375 -0.703125 -0.09375q-0.46875 0 -0.71875 0.15625q-0.234375 0.15625 -0.234375 0.40625q0 0.21875 0.109375 0.359375q0.109375 0.125 0.375 0.265625q0.28125 0.125 0.75 0.296875q0.46875 0.171875 0.796875 0.359375q0.328125 0.1875 0.515625 0.453125q0.1875 0.265625 0.1875 0.6875zm6.9186707 0q0 0.484375 -0.25 0.828125q-0.234375 0.328125 -0.6875 0.5q-0.453125 0.171875 -1.09375 0.171875q-0.53125 0 -0.921875 -0.078125q-0.375 -0.078125 -0.6875 -0.234375l0 -0.8125q0.34375 0.15625 0.78125 0.28125q0.4375 0.125 0.859375 0.125q0.578125 0 0.84375 -0.1875q0.265625 -0.1875 0.265625 -0.5q0 -0.1875 -0.109375 -0.328125q-0.109375 -0.15625 -0.375 -0.296875q-0.25 -0.140625 -0.734375 -0.328125q-0.484375 -0.1875 -0.828125 -0.375q-0.34375 -0.1875 -0.515625 -0.453125q-0.171875 -0.265625 -0.171875 -0.671875q0 -0.65625 0.515625 -1.0q0.515625 -0.34375 1.375 -0.34375q0.453125 0 0.859375 0.09375q0.40625 0.09375 0.78125 0.25l-0.296875 0.703125q-0.328125 -0.140625 -0.6875 -0.234375q-0.34375 -0.09375 -0.703125 -0.09375q-0.46875 0 -0.71875 0.15625q-0.234375 0.15625 -0.234375 0.40625q0 0.21875 0.109375 0.359375q0.109375 0.125 0.375 0.265625q0.28125 0.125 0.75 0.296875q0.46875 0.171875 0.796875 0.359375q0.328125 0.1875 0.515625 0.453125q0.1875 0.265625 0.1875 0.6875zm3.1049194 -3.703125q0.921875 0 1.375 0.421875q0.46875 0.40625 0.46875 1.296875l0 3.390625l-0.65625 0l-0.171875 -0.734375l-0.03125 0q-0.21875 0.28125 -0.453125 0.46875q-0.21875 0.171875 -0.515625 0.265625q-0.296875 0.09375 -0.734375 0.09375q-0.453125 0 -0.8125 -0.15625q-0.34375 -0.171875 -0.546875 -0.5q-0.203125 -0.328125 -0.203125 -0.84375q0 -0.765625 0.578125 -1.15625q0.59375 -0.40625 1.78125 -0.4375l0.875 -0.03125l0 -0.296875q0 -0.578125 -0.265625 -0.8125q-0.265625 -0.25 -0.734375 -0.25q-0.390625 0 -0.75 0.109375q-0.34375 0.109375 -0.671875 0.265625l-0.296875 -0.65625q0.359375 -0.1875 0.8125 -0.3125q0.453125 -0.125 0.953125 -0.125zm0.9375 2.671875l-0.703125 0.03125q-0.859375 0.03125 -1.21875 0.296875q-0.359375 0.25 -0.359375 0.71875q0 0.390625 0.234375 0.578125q0.25 0.1875 0.65625 0.1875q0.609375 0 1.0 -0.34375q0.390625 -0.34375 0.390625 -1.015625l0 -0.453125zm8.000305 -2.671875q0.828125 0 1.25 0.4375q0.4375 0.4375 0.4375 1.390625l0 3.28125l-0.90625 0l0 -3.171875q0 -0.59375 -0.25 -0.890625q-0.25 -0.296875 -0.71875 -0.296875q-0.6875 0 -1.0 0.421875q-0.296875 0.40625 -0.296875 1.203125l0 2.734375l-0.90625 0l0 -3.171875q0 -0.390625 -0.109375 -0.65625q-0.109375 -0.265625 -0.328125 -0.390625q-0.21875 -0.140625 -0.546875 -0.140625q-0.46875 0 -0.75 0.203125q-0.28125 0.203125 -0.40625 0.609375q-0.125 0.390625 -0.125 0.96875l0 2.578125l-0.90625 0l0 -5.015625l0.71875 0l0.140625 0.6875l0.046875 0q0.140625 -0.265625 0.375 -0.4375q0.234375 -0.171875 0.515625 -0.25q0.28125 -0.09375 0.59375 -0.09375q0.5625 0 0.953125 0.203125q0.390625 0.203125 0.578125 0.625l0.046875 0q0.25 -0.421875 0.671875 -0.625q0.421875 -0.203125 0.921875 -0.203125zm5.6741486 0q0.90625 0 1.453125 0.65625q0.5625 0.640625 0.5625 1.9375q0 0.84375 -0.265625 1.4375q-0.25 0.578125 -0.703125 0.875q-0.453125 0.296875 -1.078125 0.296875q-0.375 0 -0.671875 -0.09375q-0.296875 -0.109375 -0.5 -0.28125q-0.203125 -0.171875 -0.34375 -0.375l-0.0625 0q0.015625 0.1875 0.03125 0.421875q0.03125 0.234375 0.03125 0.421875l0 2.046875l-0.921875 0l0 -7.25l0.75 0l0.125 0.71875l0.046875 0q0.140625 -0.21875 0.34375 -0.40625q0.203125 -0.1875 0.5 -0.296875q0.296875 -0.109375 0.703125 -0.109375zm-0.21875 0.75q-0.46875 0 -0.765625 0.203125q-0.28125 0.1875 -0.421875 0.5625q-0.140625 0.359375 -0.140625 0.921875l0 0.15625q0 0.59375 0.125 1.015625q0.125 0.40625 0.421875 0.625q0.296875 0.21875 0.796875 0.21875q0.421875 0 0.703125 -0.234375q0.296875 -0.234375 0.4375 -0.65625q0.140625 -0.421875 0.140625 -0.984375q0 -0.859375 -0.328125 -1.34375q-0.3125 -0.484375 -0.96875 -0.484375zm4.429077 4.359375l-0.921875 0l0 -7.09375l0.921875 0l0 7.09375zm2.4621582 -5.015625l0 5.015625l-0.90625 0l0 -5.015625l0.90625 0zm-0.4375 -1.90625q0.21875 0 0.375 0.140625q0.15625 0.125 0.15625 0.40625q0 0.28125 -0.15625 0.421875q-0.15625 0.125 -0.375 0.125q-0.234375 0 -0.390625 -0.125q-0.140625 -0.140625 -0.140625 -0.421875q0 -0.28125 0.140625 -0.40625q0.15625 -0.140625 0.390625 -0.140625zm4.509033 1.8125q0.859375 0 1.328125 0.4375q0.46875 0.4375 0.46875 1.40625l0 3.265625l-0.90625 0l0 -3.140625q0 -0.609375 -0.265625 -0.90625q-0.265625 -0.3125 -0.8125 -0.3125q-0.78125 0 -1.09375 0.46875q-0.3125 0.453125 -0.3125 1.328125l0 2.5625l-0.90625 0l0 -5.015625l0.71875 0l0.140625 0.703125l0.046875 0q0.15625 -0.265625 0.40625 -0.4375q0.25 -0.1875 0.546875 -0.265625q0.296875 -0.09375 0.640625 -0.09375zm4.747406 7.34375q-1.015625 0 -1.5625 -0.375q-0.53125 -0.359375 -0.53125 -1.015625q0 -0.46875 0.296875 -0.796875q0.296875 -0.328125 0.828125 -0.4375q-0.203125 -0.09375 -0.34375 -0.28125q-0.140625 -0.1875 -0.140625 -0.421875q0 -0.28125 0.15625 -0.484375q0.15625 -0.203125 0.46875 -0.390625q-0.390625 -0.171875 -0.640625 -0.546875q-0.234375 -0.375 -0.234375 -0.890625q0 -0.546875 0.234375 -0.921875q0.234375 -0.390625 0.65625 -0.578125q0.4375 -0.203125 1.0625 -0.203125q0.125 0 0.265625 0.015625q0.15625 0 0.28125 0.03125q0.140625 0.015625 0.21875 0.03125l1.734375 0l0 0.546875l-0.890625 0.140625q0.125 0.171875 0.203125 0.40625q0.09375 0.234375 0.09375 0.515625q0 0.765625 -0.53125 1.21875q-0.515625 0.4375 -1.4375 0.4375q-0.21875 0 -0.4375 -0.03125q-0.1875 0.109375 -0.296875 0.25q-0.09375 0.125 -0.09375 0.296875q0 0.140625 0.078125 0.21875q0.09375 0.078125 0.265625 0.125q0.171875 0.03125 0.40625 0.03125l0.875 0q0.828125 0 1.265625 0.359375q0.4375 0.34375 0.4375 1.0q0 0.84375 -0.703125 1.296875q-0.6875 0.453125 -1.984375 0.453125zm0.03125 -0.65625q0.578125 0 0.96875 -0.125q0.40625 -0.125 0.609375 -0.34375q0.203125 -0.21875 0.203125 -0.515625q0 -0.265625 -0.140625 -0.421875q-0.125 -0.140625 -0.390625 -0.1875q-0.25 -0.046875 -0.625 -0.046875l-0.828125 0q-0.3125 0 -0.546875 0.09375q-0.234375 0.109375 -0.375 0.296875q-0.125 0.1875 -0.125 0.46875q0 0.375 0.3125 0.578125q0.328125 0.203125 0.9375 0.203125zm0.203125 -3.96875q0.5 0 0.75 -0.265625q0.25 -0.265625 0.25 -0.765625q0 -0.53125 -0.265625 -0.796875q-0.25 -0.265625 -0.75 -0.265625q-0.484375 0 -0.75 0.28125q-0.25 0.265625 -0.25 0.796875q0 0.484375 0.25 0.75q0.265625 0.265625 0.765625 0.265625zm5.4756165 -0.171875q0 -0.765625 0.140625 -1.484375q0.15625 -0.734375 0.453125 -1.390625q0.3125 -0.671875 0.78125 -1.21875l0.828125 0q-0.65625 0.859375 -1.0 1.921875q-0.328125 1.046875 -0.328125 2.171875q0 0.71875 0.140625 1.4375q0.15625 0.703125 0.453125 1.359375q0.296875 0.65625 0.71875 1.234375l-0.8125 0q-0.46875 -0.546875 -0.78125 -1.1875q-0.296875 -0.640625 -0.453125 -1.359375q-0.140625 -0.71875 -0.140625 -1.484375zm7.37146 -0.78125q0 0.8125 -0.125 1.453125q-0.125 0.640625 -0.390625 1.078125q-0.265625 0.4375 -0.6875 0.671875q-0.421875 0.234375 -1.03125 0.234375q-0.75 0 -1.25 -0.40625q-0.484375 -0.40625 -0.734375 -1.171875q-0.234375 -0.765625 -0.234375 -1.859375q0 -1.0625 0.21875 -1.828125q0.21875 -0.765625 0.703125 -1.171875q0.5 -0.421875 1.296875 -0.421875q0.765625 0 1.25 0.40625q0.5 0.40625 0.734375 1.1875q0.25 0.765625 0.25 1.828125zm-3.53125 0q0 0.890625 0.125 1.484375q0.125 0.59375 0.40625 0.890625q0.296875 0.296875 0.765625 0.296875q0.484375 0 0.765625 -0.296875q0.296875 -0.296875 0.421875 -0.890625q0.125 -0.59375 0.125 -1.484375q0 -0.875 -0.125 -1.453125q-0.125 -0.59375 -0.421875 -0.890625q-0.28125 -0.296875 -0.765625 -0.296875q-0.484375 0 -0.765625 0.296875q-0.28125 0.296875 -0.40625 0.890625q-0.125 0.578125 -0.125 1.453125zm4.614868 2.828125q0 -0.34375 0.171875 -0.484375q0.1875 -0.15625 0.4375 -0.15625q0.25 0 0.421875 0.15625q0.1875 0.140625 0.1875 0.484375q0 0.328125 -0.1875 0.484375q-0.171875 0.15625 -0.421875 0.15625q-0.25 0 -0.4375 -0.15625q-0.171875 -0.15625 -0.171875 -0.484375zm4.5363617 -6.234375q0.5625 0 1.015625 0.1875q0.46875 0.171875 0.71875 0.53125q0.265625 0.34375 0.265625 0.875q0 0.390625 -0.171875 0.703125q-0.15625 0.296875 -0.453125 0.53125q-0.296875 0.21875 -0.640625 0.390625q0.40625 0.203125 0.734375 0.453125q0.34375 0.234375 0.546875 0.578125q0.203125 0.328125 0.203125 0.78125q0 0.546875 -0.28125 0.96875q-0.265625 0.40625 -0.765625 0.625q-0.5 0.21875 -1.171875 0.21875q-0.71875 0 -1.21875 -0.203125q-0.5 -0.21875 -0.765625 -0.609375q-0.25 -0.40625 -0.25 -0.96875q0 -0.46875 0.1875 -0.796875q0.1875 -0.34375 0.5 -0.578125q0.3125 -0.25 0.6875 -0.421875q-0.3125 -0.1875 -0.578125 -0.421875q-0.265625 -0.234375 -0.4375 -0.546875q-0.15625 -0.3125 -0.15625 -0.71875q0 -0.515625 0.265625 -0.859375q0.265625 -0.359375 0.71875 -0.53125q0.46875 -0.1875 1.046875 -0.1875zm-1.359375 5.046875q0 0.46875 0.328125 0.78125q0.34375 0.296875 1.015625 0.296875q0.65625 0 1.0 -0.296875q0.34375 -0.3125 0.34375 -0.796875q0 -0.328125 -0.171875 -0.5625q-0.15625 -0.234375 -0.453125 -0.421875q-0.296875 -0.1875 -0.671875 -0.34375l-0.15625 -0.0625q-0.390625 0.171875 -0.671875 0.375q-0.265625 0.1875 -0.421875 0.4375q-0.140625 0.25 -0.140625 0.59375zm1.34375 -4.328125q-0.5 0 -0.8125 0.234375q-0.296875 0.234375 -0.296875 0.6875q0 0.3125 0.140625 0.53125q0.15625 0.21875 0.40625 0.390625q0.265625 0.15625 0.59375 0.296875q0.3125 -0.140625 0.5625 -0.296875q0.25 -0.171875 0.390625 -0.390625q0.140625 -0.234375 0.140625 -0.53125q0 -0.453125 -0.3125 -0.6875q-0.3125 -0.234375 -0.8125 -0.234375zm7.552368 6.03125l-4.4375 0l0 -0.71875l1.75 -1.78125q0.5 -0.5 0.828125 -0.875q0.34375 -0.390625 0.5 -0.75q0.171875 -0.359375 0.171875 -0.78125q0 -0.515625 -0.3125 -0.78125q-0.296875 -0.28125 -0.796875 -0.28125q-0.453125 0 -0.828125 0.171875q-0.359375 0.15625 -0.75 0.46875l-0.5 -0.609375q0.265625 -0.234375 0.578125 -0.40625q0.3125 -0.1875 0.6875 -0.296875q0.375 -0.109375 0.828125 -0.109375q0.625 0 1.078125 0.21875q0.453125 0.21875 0.703125 0.625q0.25 0.390625 0.25 0.921875q0 0.53125 -0.21875 1.0q-0.203125 0.453125 -0.59375 0.90625q-0.390625 0.4375 -0.921875 0.9375l-1.296875 1.28125l0 0.046875l3.28125 0l0 0.8125zm5.505493 -5.015625l0 5.015625l-0.734375 0l-0.125 -0.6875l-0.0625 0q-0.15625 0.265625 -0.40625 0.4375q-0.234375 0.171875 -0.546875 0.25q-0.296875 0.09375 -0.640625 0.09375q-0.578125 0 -0.984375 -0.1875q-0.40625 -0.203125 -0.609375 -0.59375q-0.203125 -0.40625 -0.203125 -1.046875l0 -3.28125l0.921875 0l0 3.15625q0 0.609375 0.25 0.90625q0.265625 0.296875 0.8125 0.296875q0.515625 0 0.828125 -0.203125q0.3125 -0.21875 0.4375 -0.609375q0.140625 -0.40625 0.140625 -0.984375l0 -2.5625l0.921875 0zm4.872406 3.609375q0 0.484375 -0.25 0.828125q-0.234375 0.328125 -0.6875 0.5q-0.453125 0.171875 -1.09375 0.171875q-0.53125 0 -0.921875 -0.078125q-0.375 -0.078125 -0.6875 -0.234375l0 -0.8125q0.34375 0.15625 0.78125 0.28125q0.4375 0.125 0.859375 0.125q0.578125 0 0.84375 -0.1875q0.265625 -0.1875 0.265625 -0.5q0 -0.1875 -0.109375 -0.328125q-0.109375 -0.15625 -0.375 -0.296875q-0.25 -0.140625 -0.734375 -0.328125q-0.484375 -0.1875 -0.828125 -0.375q-0.34375 -0.1875 -0.515625 -0.453125q-0.171875 -0.265625 -0.171875 -0.671875q0 -0.65625 0.515625 -1.0q0.515625 -0.34375 1.375 -0.34375q0.453125 0 0.859375 0.09375q0.40625 0.09375 0.78125 0.25l-0.296875 0.703125q-0.328125 -0.140625 -0.6875 -0.234375q-0.34375 -0.09375 -0.703125 -0.09375q-0.46875 0 -0.71875 0.15625q-0.234375 0.15625 -0.234375 0.40625q0 0.21875 0.109375 0.359375q0.109375 0.125 0.375 0.265625q0.28125 0.125 0.75 0.296875q0.46875 0.171875 0.796875 0.359375q0.328125 0.1875 0.515625 0.453125q0.1875 0.265625 0.1875 0.6875zm2.8861694 -1.15625q0 0.765625 -0.15625 1.484375q-0.140625 0.71875 -0.453125 1.359375q-0.296875 0.65625 -0.765625 1.1875l-0.8125 0q0.421875 -0.578125 0.71875 -1.234375q0.296875 -0.65625 0.4375 -1.359375q0.15625 -0.71875 0.15625 -1.4375q0 -0.75 -0.15625 -1.46875q-0.15625 -0.71875 -0.453125 -1.375q-0.28125 -0.671875 -0.71875 -1.25l0.828125 0q0.46875 0.5625 0.765625 1.21875q0.3125 0.65625 0.453125 1.390625q0.15625 0.71875 0.15625 1.484375z" fill-rule="nonzero"/><path fill="#b7b7b7" d="m28.47244 128.11548l5.385828 0l0 35.433075l-5.385828 0z" fill-rule="evenodd"/><path fill="#000000" fill-opacity="0.0" d="m317.39893 129.51096l141.44882 0l0 30.708664l-141.44882 0z" fill-rule="evenodd"/><path fill="#000000" d="m330.49268 146.06471q0 0.484375 -0.25 0.828125q-0.234375 0.328125 -0.6875 0.5q-0.453125 0.171875 -1.09375 0.171875q-0.53125 0 -0.921875 -0.078125q-0.375 -0.078125 -0.6875 -0.234375l0 -0.8125q0.34375 0.15625 0.78125 0.28125q0.4375 0.125 0.859375 0.125q0.578125 0 0.84375 -0.1875q0.265625 -0.1875 0.265625 -0.5q0 -0.1875 -0.109375 -0.328125q-0.109375 -0.15625 -0.375 -0.296875q-0.25 -0.140625 -0.734375 -0.328125q-0.484375 -0.1875 -0.828125 -0.375q-0.34375 -0.1875 -0.515625 -0.453125q-0.171875 -0.265625 -0.171875 -0.671875q0 -0.65625 0.515625 -1.0q0.515625 -0.34375 1.375 -0.34375q0.453125 0 0.859375 0.09375q0.40625 0.09375 0.78125 0.25l-0.296875 0.703125q-0.328125 -0.140625 -0.6875 -0.234375q-0.34375 -0.09375 -0.703125 -0.09375q-0.46875 0 -0.71875 0.15625q-0.234375 0.15625 -0.234375 0.40625q0 0.21875 0.109375 0.359375q0.109375 0.125 0.375 0.265625q0.28125 0.125 0.75 0.296875q0.46875 0.171875 0.796875 0.359375q0.328125 0.1875 0.515625 0.453125q0.1875 0.265625 0.1875 0.6875zm3.1517944 -3.703125q0.65625 0 1.125 0.28125q0.46875 0.28125 0.71875 0.796875q0.25 0.5 0.25 1.1875l0 0.53125l-3.40625 0q0.015625 0.796875 0.40625 1.234375q0.40625 0.421875 1.125 0.421875q0.484375 0 0.859375 -0.078125q0.375 -0.09375 0.765625 -0.28125l0 0.78125q-0.375 0.171875 -0.75 0.25q-0.375 0.078125 -0.90625 0.078125q-0.734375 0 -1.28125 -0.28125q-0.546875 -0.296875 -0.859375 -0.875q-0.296875 -0.578125 -0.296875 -1.40625q0 -0.828125 0.265625 -1.421875q0.28125 -0.59375 0.78125 -0.90625q0.515625 -0.3125 1.203125 -0.3125zm-0.015625 0.703125q-0.546875 0 -0.890625 0.375q-0.328125 0.359375 -0.390625 1.03125l2.46875 0q0 -0.421875 -0.140625 -0.734375q-0.125 -0.3125 -0.390625 -0.484375q-0.25 -0.1875 -0.65625 -0.1875zm5.8531494 -0.703125q0.859375 0 1.328125 0.4375q0.46875 0.4375 0.46875 1.40625l0 3.265625l-0.90625 0l0 -3.140625q0 -0.609375 -0.265625 -0.90625q-0.265625 -0.3125 -0.8125 -0.3125q-0.78125 0 -1.09375 0.46875q-0.3125 0.453125 -0.3125 1.328125l0 2.5625l-0.90625 0l0 -5.015625l0.71875 0l0.140625 0.703125l0.046875 0q0.15625 -0.265625 0.40625 -0.4375q0.25 -0.1875 0.546875 -0.265625q0.296875 -0.09375 0.640625 -0.09375zm6.638031 3.703125q0 0.484375 -0.25 0.828125q-0.234375 0.328125 -0.6875 0.5q-0.453125 0.171875 -1.09375 0.171875q-0.53125 0 -0.921875 -0.078125q-0.375 -0.078125 -0.6875 -0.234375l0 -0.8125q0.34375 0.15625 0.78125 0.28125q0.4375 0.125 0.859375 0.125q0.578125 0 0.84375 -0.1875q0.265625 -0.1875 0.265625 -0.5q0 -0.1875 -0.109375 -0.328125q-0.109375 -0.15625 -0.375 -0.296875q-0.25 -0.140625 -0.734375 -0.328125q-0.484375 -0.1875 -0.828125 -0.375q-0.34375 -0.1875 -0.515625 -0.453125q-0.171875 -0.265625 -0.171875 -0.671875q0 -0.65625 0.515625 -1.0q0.515625 -0.34375 1.375 -0.34375q0.453125 0 0.859375 0.09375q0.40625 0.09375 0.78125 0.25l-0.296875 0.703125q-0.328125 -0.140625 -0.6875 -0.234375q-0.34375 -0.09375 -0.703125 -0.09375q-0.46875 0 -0.71875 0.15625q-0.234375 0.15625 -0.234375 0.40625q0 0.21875 0.109375 0.359375q0.109375 0.125 0.375 0.265625q0.28125 0.125 0.75 0.296875q0.46875 0.171875 0.796875 0.359375q0.328125 0.1875 0.515625 0.453125q0.1875 0.265625 0.1875 0.6875zm5.5736694 -1.109375q0 0.609375 -0.171875 1.109375q-0.15625 0.484375 -0.46875 0.8125q-0.296875 0.328125 -0.734375 0.515625q-0.4375 0.171875 -0.984375 0.171875q-0.5 0 -0.9375 -0.171875q-0.421875 -0.1875 -0.734375 -0.515625q-0.3125 -0.328125 -0.484375 -0.8125q-0.15625 -0.5 -0.15625 -1.109375q0 -0.828125 0.28125 -1.40625q0.28125 -0.578125 0.796875 -0.875q0.53125 -0.3125 1.265625 -0.3125q0.6875 0 1.203125 0.3125q0.53125 0.296875 0.828125 0.875q0.296875 0.578125 0.296875 1.40625zm-3.734375 0q0 0.578125 0.140625 1.0q0.15625 0.40625 0.453125 0.640625q0.3125 0.21875 0.796875 0.21875q0.484375 0 0.796875 -0.21875q0.3125 -0.234375 0.453125 -0.640625q0.140625 -0.421875 0.140625 -1.0q0 -0.578125 -0.140625 -0.984375q-0.140625 -0.40625 -0.453125 -0.625q-0.3125 -0.21875 -0.796875 -0.21875q-0.71875 0 -1.0625 0.484375q-0.328125 0.46875 -0.328125 1.34375zm7.402466 -2.59375q0.140625 0 0.296875 0.015625q0.15625 0.015625 0.28125 0.03125l-0.09375 0.859375q-0.109375 -0.03125 -0.265625 -0.046875q-0.140625 -0.015625 -0.265625 -0.015625q-0.28125 0 -0.546875 0.109375q-0.265625 0.109375 -0.46875 0.3125q-0.203125 0.203125 -0.3125 0.515625q-0.109375 0.296875 -0.109375 0.671875l0 2.65625l-0.921875 0l0 -5.015625l0.734375 0l0.109375 0.90625l0.046875 0q0.15625 -0.28125 0.375 -0.5q0.21875 -0.234375 0.5 -0.359375q0.296875 -0.140625 0.640625 -0.140625zm4.8233337 3.703125q0 0.484375 -0.25 0.828125q-0.234375 0.328125 -0.6875 0.5q-0.453125 0.171875 -1.09375 0.171875q-0.53125 0 -0.921875 -0.078125q-0.375 -0.078125 -0.6875 -0.234375l0 -0.8125q0.34375 0.15625 0.78125 0.28125q0.4375 0.125 0.859375 0.125q0.578125 0 0.84375 -0.1875q0.265625 -0.1875 0.265625 -0.5q0 -0.1875 -0.109375 -0.328125q-0.109375 -0.15625 -0.375 -0.296875q-0.25 -0.140625 -0.734375 -0.328125q-0.484375 -0.1875 -0.828125 -0.375q-0.34375 -0.1875 -0.515625 -0.453125q-0.171875 -0.265625 -0.171875 -0.671875q0 -0.65625 0.515625 -1.0q0.515625 -0.34375 1.375 -0.34375q0.453125 0 0.859375 0.09375q0.40625 0.09375 0.78125 0.25l-0.296875 0.703125q-0.328125 -0.140625 -0.6875 -0.234375q-0.34375 -0.09375 -0.703125 -0.09375q-0.46875 0 -0.71875 0.15625q-0.234375 0.15625 -0.234375 0.40625q0 0.21875 0.109375 0.359375q0.109375 0.125 0.375 0.265625q0.28125 0.125 0.75 0.296875q0.46875 0.171875 0.796875 0.359375q0.328125 0.1875 0.515625 0.453125q0.1875 0.265625 0.1875 0.6875zm6.9186707 0q0 0.484375 -0.25 0.828125q-0.234375 0.328125 -0.6875 0.5q-0.453125 0.171875 -1.09375 0.171875q-0.53125 0 -0.921875 -0.078125q-0.375 -0.078125 -0.6875 -0.234375l0 -0.8125q0.34375 0.15625 0.78125 0.28125q0.4375 0.125 0.859375 0.125q0.578125 0 0.84375 -0.1875q0.265625 -0.1875 0.265625 -0.5q0 -0.1875 -0.109375 -0.328125q-0.109375 -0.15625 -0.375 -0.296875q-0.25 -0.140625 -0.734375 -0.328125q-0.484375 -0.1875 -0.828125 -0.375q-0.34375 -0.1875 -0.515625 -0.453125q-0.171875 -0.265625 -0.171875 -0.671875q0 -0.65625 0.515625 -1.0q0.515625 -0.34375 1.375 -0.34375q0.453125 0 0.859375 0.09375q0.40625 0.09375 0.78125 0.25l-0.296875 0.703125q-0.328125 -0.140625 -0.6875 -0.234375q-0.34375 -0.09375 -0.703125 -0.09375q-0.46875 0 -0.71875 0.15625q-0.234375 0.15625 -0.234375 0.40625q0 0.21875 0.109375 0.359375q0.109375 0.125 0.375 0.265625q0.28125 0.125 0.75 0.296875q0.46875 0.171875 0.796875 0.359375q0.328125 0.1875 0.515625 0.453125q0.1875 0.265625 0.1875 0.6875zm3.1049194 -3.703125q0.921875 0 1.375 0.421875q0.46875 0.40625 0.46875 1.296875l0 3.390625l-0.65625 0l-0.171875 -0.734375l-0.03125 0q-0.21875 0.28125 -0.453125 0.46875q-0.21875 0.171875 -0.515625 0.265625q-0.296875 0.09375 -0.734375 0.09375q-0.453125 0 -0.8125 -0.15625q-0.34375 -0.171875 -0.546875 -0.5q-0.203125 -0.328125 -0.203125 -0.84375q0 -0.765625 0.578125 -1.15625q0.59375 -0.40625 1.78125 -0.4375l0.875 -0.03125l0 -0.296875q0 -0.578125 -0.265625 -0.8125q-0.265625 -0.25 -0.734375 -0.25q-0.390625 0 -0.75 0.109375q-0.34375 0.109375 -0.671875 0.265625l-0.296875 -0.65625q0.359375 -0.1875 0.8125 -0.3125q0.453125 -0.125 0.953125 -0.125zm0.9375 2.671875l-0.703125 0.03125q-0.859375 0.03125 -1.21875 0.296875q-0.359375 0.25 -0.359375 0.71875q0 0.390625 0.234375 0.578125q0.25 0.1875 0.65625 0.1875q0.609375 0 1.0 -0.34375q0.390625 -0.34375 0.390625 -1.015625l0 -0.453125zm8.000305 -2.671875q0.828125 0 1.25 0.4375q0.4375 0.4375 0.4375 1.390625l0 3.28125l-0.90625 0l0 -3.171875q0 -0.59375 -0.25 -0.890625q-0.25 -0.296875 -0.71875 -0.296875q-0.6875 0 -1.0 0.421875q-0.296875 0.40625 -0.296875 1.203125l0 2.734375l-0.90625 0l0 -3.171875q0 -0.390625 -0.109375 -0.65625q-0.109375 -0.265625 -0.328125 -0.390625q-0.21875 -0.140625 -0.546875 -0.140625q-0.46875 0 -0.75 0.203125q-0.28125 0.203125 -0.40625 0.609375q-0.125 0.390625 -0.125 0.96875l0 2.578125l-0.90625 0l0 -5.015625l0.71875 0l0.140625 0.6875l0.046875 0q0.140625 -0.265625 0.375 -0.4375q0.234375 -0.171875 0.515625 -0.25q0.28125 -0.09375 0.59375 -0.09375q0.5625 0 0.953125 0.203125q0.390625 0.203125 0.578125 0.625l0.046875 0q0.25 -0.421875 0.671875 -0.625q0.421875 -0.203125 0.921875 -0.203125zm5.6741333 0q0.90625 0 1.453125 0.65625q0.5625 0.640625 0.5625 1.9375q0 0.84375 -0.265625 1.4375q-0.25 0.578125 -0.703125 0.875q-0.453125 0.296875 -1.078125 0.296875q-0.375 0 -0.671875 -0.09375q-0.296875 -0.109375 -0.5 -0.28125q-0.203125 -0.171875 -0.34375 -0.375l-0.0625 0q0.015625 0.1875 0.03125 0.421875q0.03125 0.234375 0.03125 0.421875l0 2.046875l-0.921875 0l0 -7.25l0.75 0l0.125 0.71875l0.046875 0q0.140625 -0.21875 0.34375 -0.40625q0.203125 -0.1875 0.5 -0.296875q0.296875 -0.109375 0.703125 -0.109375zm-0.21875 0.75q-0.46875 0 -0.765625 0.203125q-0.28125 0.1875 -0.421875 0.5625q-0.140625 0.359375 -0.140625 0.921875l0 0.15625q0 0.59375 0.125 1.015625q0.125 0.40625 0.421875 0.625q0.296875 0.21875 0.796875 0.21875q0.421875 0 0.703125 -0.234375q0.296875 -0.234375 0.4375 -0.65625q0.140625 -0.421875 0.140625 -0.984375q0 -0.859375 -0.328125 -1.34375q-0.3125 -0.484375 -0.96875 -0.484375zm4.429077 4.359375l-0.921875 0l0 -7.09375l0.921875 0l0 7.09375zm2.4621582 -5.015625l0 5.015625l-0.90625 0l0 -5.015625l0.90625 0zm-0.4375 -1.90625q0.21875 0 0.375 0.140625q0.15625 0.125 0.15625 0.40625q0 0.28125 -0.15625 0.421875q-0.15625 0.125 -0.375 0.125q-0.234375 0 -0.390625 -0.125q-0.140625 -0.140625 -0.140625 -0.421875q0 -0.28125 0.140625 -0.40625q0.15625 -0.140625 0.390625 -0.140625zm4.509033 1.8125q0.859375 0 1.328125 0.4375q0.46875 0.4375 0.46875 1.40625l0 3.265625l-0.90625 0l0 -3.140625q0 -0.609375 -0.265625 -0.90625q-0.265625 -0.3125 -0.8125 -0.3125q-0.78125 0 -1.09375 0.46875q-0.3125 0.453125 -0.3125 1.328125l0 2.5625l-0.90625 0l0 -5.015625l0.71875 0l0.140625 0.703125l0.046875 0q0.15625 -0.265625 0.40625 -0.4375q0.25 -0.1875 0.546875 -0.265625q0.296875 -0.09375 0.640625 -0.09375zm4.747406 7.34375q-1.015625 0 -1.5625 -0.375q-0.53125 -0.359375 -0.53125 -1.015625q0 -0.46875 0.296875 -0.796875q0.296875 -0.328125 0.828125 -0.4375q-0.203125 -0.09375 -0.34375 -0.28125q-0.140625 -0.1875 -0.140625 -0.421875q0 -0.28125 0.15625 -0.484375q0.15625 -0.203125 0.46875 -0.390625q-0.390625 -0.171875 -0.640625 -0.546875q-0.234375 -0.375 -0.234375 -0.890625q0 -0.546875 0.234375 -0.921875q0.234375 -0.390625 0.65625 -0.578125q0.4375 -0.203125 1.0625 -0.203125q0.125 0 0.265625 0.015625q0.15625 0 0.28125 0.03125q0.140625 0.015625 0.21875 0.03125l1.734375 0l0 0.546875l-0.890625 0.140625q0.125 0.171875 0.203125 0.40625q0.09375 0.234375 0.09375 0.515625q0 0.765625 -0.53125 1.21875q-0.515625 0.4375 -1.4375 0.4375q-0.21875 0 -0.4375 -0.03125q-0.1875 0.109375 -0.296875 0.25q-0.09375 0.125 -0.09375 0.296875q0 0.140625 0.078125 0.21875q0.09375 0.078125 0.265625 0.125q0.171875 0.03125 0.40625 0.03125l0.875 0q0.828125 0 1.265625 0.359375q0.4375 0.34375 0.4375 1.0q0 0.84375 -0.703125 1.296875q-0.6875 0.453125 -1.984375 0.453125zm0.03125 -0.65625q0.578125 0 0.96875 -0.125q0.40625 -0.125 0.609375 -0.34375q0.203125 -0.21875 0.203125 -0.515625q0 -0.265625 -0.140625 -0.421875q-0.125 -0.140625 -0.390625 -0.1875q-0.25 -0.046875 -0.625 -0.046875l-0.828125 0q-0.3125 0 -0.546875 0.09375q-0.234375 0.109375 -0.375 0.296875q-0.125 0.1875 -0.125 0.46875q0 0.375 0.3125 0.578125q0.328125 0.203125 0.9375 0.203125zm0.203125 -3.96875q0.5 0 0.75 -0.265625q0.25 -0.265625 0.25 -0.765625q0 -0.53125 -0.265625 -0.796875q-0.25 -0.265625 -0.75 -0.265625q-0.484375 0 -0.75 0.28125q-0.25 0.265625 -0.25 0.796875q0 0.484375 0.25 0.75q0.265625 0.265625 0.765625 0.265625zm5.4756165 -0.171875q0 -0.765625 0.140625 -1.484375q0.15625 -0.734375 0.453125 -1.390625q0.3125 -0.671875 0.78125 -1.21875l0.828125 0q-0.65625 0.859375 -1.0 1.921875q-0.328125 1.046875 -0.328125 2.171875q0 0.71875 0.140625 1.4375q0.15625 0.703125 0.453125 1.359375q0.296875 0.65625 0.71875 1.234375l-0.8125 0q-0.46875 -0.546875 -0.78125 -1.1875q-0.296875 -0.640625 -0.453125 -1.359375q-0.140625 -0.71875 -0.140625 -1.484375zm7.37146 -0.78125q0 0.8125 -0.125 1.453125q-0.125 0.640625 -0.390625 1.078125q-0.265625 0.4375 -0.6875 0.671875q-0.421875 0.234375 -1.03125 0.234375q-0.75 0 -1.25 -0.40625q-0.484375 -0.40625 -0.734375 -1.171875q-0.234375 -0.765625 -0.234375 -1.859375q0 -1.0625 0.21875 -1.828125q0.21875 -0.765625 0.703125 -1.171875q0.5 -0.421875 1.296875 -0.421875q0.765625 0 1.25 0.40625q0.5 0.40625 0.734375 1.1875q0.25 0.765625 0.25 1.828125zm-3.53125 0q0 0.890625 0.125 1.484375q0.125 0.59375 0.40625 0.890625q0.296875 0.296875 0.765625 0.296875q0.484375 0 0.765625 -0.296875q0.296875 -0.296875 0.421875 -0.890625q0.125 -0.59375 0.125 -1.484375q0 -0.875 -0.125 -1.453125q-0.125 -0.59375 -0.421875 -0.890625q-0.28125 -0.296875 -0.765625 -0.296875q-0.484375 0 -0.765625 0.296875q-0.28125 0.296875 -0.40625 0.890625q-0.125 0.578125 -0.125 1.453125zm4.614868 2.828125q0 -0.34375 0.171875 -0.484375q0.1875 -0.15625 0.4375 -0.15625q0.25 0 0.421875 0.15625q0.1875 0.140625 0.1875 0.484375q0 0.328125 -0.1875 0.484375q-0.171875 0.15625 -0.421875 0.15625q-0.25 0 -0.4375 -0.15625q-0.171875 -0.15625 -0.171875 -0.484375zm4.536377 -6.234375q0.5625 0 1.015625 0.1875q0.46875 0.171875 0.71875 0.53125q0.265625 0.34375 0.265625 0.875q0 0.390625 -0.171875 0.703125q-0.15625 0.296875 -0.453125 0.53125q-0.296875 0.21875 -0.640625 0.390625q0.40625 0.203125 0.734375 0.453125q0.34375 0.234375 0.546875 0.578125q0.203125 0.328125 0.203125 0.78125q0 0.546875 -0.28125 0.96875q-0.265625 0.40625 -0.765625 0.625q-0.5 0.21875 -1.171875 0.21875q-0.71875 0 -1.21875 -0.203125q-0.5 -0.21875 -0.765625 -0.609375q-0.25 -0.40625 -0.25 -0.96875q0 -0.46875 0.1875 -0.796875q0.1875 -0.34375 0.5 -0.578125q0.3125 -0.25 0.6875 -0.421875q-0.3125 -0.1875 -0.578125 -0.421875q-0.265625 -0.234375 -0.4375 -0.546875q-0.15625 -0.3125 -0.15625 -0.71875q0 -0.515625 0.265625 -0.859375q0.265625 -0.359375 0.71875 -0.53125q0.46875 -0.1875 1.046875 -0.1875zm-1.359375 5.046875q0 0.46875 0.328125 0.78125q0.34375 0.296875 1.015625 0.296875q0.65625 0 1.0 -0.296875q0.34375 -0.3125 0.34375 -0.796875q0 -0.328125 -0.171875 -0.5625q-0.15625 -0.234375 -0.453125 -0.421875q-0.296875 -0.1875 -0.671875 -0.34375l-0.15625 -0.0625q-0.390625 0.171875 -0.671875 0.375q-0.265625 0.1875 -0.421875 0.4375q-0.140625 0.25 -0.140625 0.59375zm1.34375 -4.328125q-0.5 0 -0.8125 0.234375q-0.296875 0.234375 -0.296875 0.6875q0 0.3125 0.140625 0.53125q0.15625 0.21875 0.40625 0.390625q0.265625 0.15625 0.59375 0.296875q0.3125 -0.140625 0.5625 -0.296875q0.25 -0.171875 0.390625 -0.390625q0.140625 -0.234375 0.140625 -0.53125q0 -0.453125 -0.3125 -0.6875q-0.3125 -0.234375 -0.8125 -0.234375zm7.552368 6.03125l-4.4375 0l0 -0.71875l1.75 -1.78125q0.5 -0.5 0.828125 -0.875q0.34375 -0.390625 0.5 -0.75q0.171875 -0.359375 0.171875 -0.78125q0 -0.515625 -0.3125 -0.78125q-0.296875 -0.28125 -0.796875 -0.28125q-0.453125 0 -0.828125 0.171875q-0.359375 0.15625 -0.75 0.46875l-0.5 -0.609375q0.265625 -0.234375 0.578125 -0.40625q0.3125 -0.1875 0.6875 -0.296875q0.375 -0.109375 0.828125 -0.109375q0.625 0 1.078125 0.21875q0.453125 0.21875 0.703125 0.625q0.25 0.390625 0.25 0.921875q0 0.53125 -0.21875 1.0q-0.203125 0.453125 -0.59375 0.90625q-0.390625 0.4375 -0.921875 0.9375l-1.296875 1.28125l0 0.046875l3.28125 0l0 0.8125zm5.505493 -5.015625l0 5.015625l-0.734375 0l-0.125 -0.6875l-0.0625 0q-0.15625 0.265625 -0.40625 0.4375q-0.234375 0.171875 -0.546875 0.25q-0.296875 0.09375 -0.640625 0.09375q-0.578125 0 -0.984375 -0.1875q-0.40625 -0.203125 -0.609375 -0.59375q-0.203125 -0.40625 -0.203125 -1.046875l0 -3.28125l0.921875 0l0 3.15625q0 0.609375 0.25 0.90625q0.265625 0.296875 0.8125 0.296875q0.515625 0 0.828125 -0.203125q0.3125 -0.21875 0.4375 -0.609375q0.140625 -0.40625 0.140625 -0.984375l0 -2.5625l0.921875 0zm4.872406 3.609375q0 0.484375 -0.25 0.828125q-0.234375 0.328125 -0.6875 0.5q-0.453125 0.171875 -1.09375 0.171875q-0.53125 0 -0.921875 -0.078125q-0.375 -0.078125 -0.6875 -0.234375l0 -0.8125q0.34375 0.15625 0.78125 0.28125q0.4375 0.125 0.859375 0.125q0.578125 0 0.84375 -0.1875q0.265625 -0.1875 0.265625 -0.5q0 -0.1875 -0.109375 -0.328125q-0.109375 -0.15625 -0.375 -0.296875q-0.25 -0.140625 -0.734375 -0.328125q-0.484375 -0.1875 -0.828125 -0.375q-0.34375 -0.1875 -0.515625 -0.453125q-0.171875 -0.265625 -0.171875 -0.671875q0 -0.65625 0.515625 -1.0q0.515625 -0.34375 1.375 -0.34375q0.453125 0 0.859375 0.09375q0.40625 0.09375 0.78125 0.25l-0.296875 0.703125q-0.328125 -0.140625 -0.6875 -0.234375q-0.34375 -0.09375 -0.703125 -0.09375q-0.46875 0 -0.71875 0.15625q-0.234375 0.15625 -0.234375 0.40625q0 0.21875 0.109375 0.359375q0.109375 0.125 0.375 0.265625q0.28125 0.125 0.75 0.296875q0.46875 0.171875 0.796875 0.359375q0.328125 0.1875 0.515625 0.453125q0.1875 0.265625 0.1875 0.6875zm2.8861694 -1.15625q0 0.765625 -0.15625 1.484375q-0.140625 0.71875 -0.453125 1.359375q-0.296875 0.65625 -0.765625 1.1875l-0.8125 0q0.421875 -0.578125 0.71875 -1.234375q0.296875 -0.65625 0.4375 -1.359375q0.15625 -0.71875 0.15625 -1.4375q0 -0.75 -0.15625 -1.46875q-0.15625 -0.71875 -0.453125 -1.375q-0.28125 -0.671875 -0.71875 -1.25l0.828125 0q0.46875 0.5625 0.765625 1.21875q0.3125 0.65625 0.453125 1.390625q0.15625 0.71875 0.15625 1.484375z" fill-rule="nonzero"/><path fill="#b7b7b7" d="m306.61417 127.14875l5.3858337 0l0 35.433067l-5.3858337 0z" fill-rule="evenodd"/><path fill="#000000" fill-opacity="0.0" d="m28.416739 78.10499l0 157.5433" fill-rule="evenodd"/><path stroke="#000000" stroke-width="2.0" stroke-linejoin="round" stroke-linecap="butt" d="m28.416739 78.10499l0 157.5433" fill-rule="evenodd"/><path fill="#000000" fill-opacity="0.0" d="m29.213781 114.69277l-15.307086 -15.307083" fill-rule="evenodd"/><path stroke="#000000" stroke-width="2.0" stroke-linejoin="round" stroke-linecap="butt" d="m29.213781 114.69277l-15.307086 -15.307083" fill-rule="evenodd"/><path fill="#000000" fill-opacity="0.0" d="m0.001084777 114.72966l15.307087 -15.307091" fill-rule="evenodd"/><path stroke="#000000" stroke-width="2.0" stroke-linejoin="round" stroke-linecap="butt" d="m0.001084777 114.72966l15.307087 -15.307091" fill-rule="evenodd"/><path fill="#000000" fill-opacity="0.0" d="m56.997738 114.58614l-15.307087 -15.307083" fill-rule="evenodd"/><path stroke="#000000" stroke-width="2.0" stroke-linejoin="round" stroke-linecap="butt" d="m56.997738 114.58614l-15.307087 -15.307083" fill-rule="evenodd"/><path fill="#000000" fill-opacity="0.0" d="m27.785042 114.62303l15.307087 -15.307083" fill-rule="evenodd"/><path stroke="#000000" stroke-width="2.0" stroke-linejoin="round" stroke-linecap="butt" d="m27.785042 114.62303l15.307087 -15.307083" fill-rule="evenodd"/><path fill="#000000" fill-opacity="0.0" d="m84.83616 114.535126l-15.307091 -15.307083" fill-rule="evenodd"/><path stroke="#000000" stroke-width="2.0" stroke-linejoin="round" stroke-linecap="butt" d="m84.83616 114.535126l-15.307091 -15.307083" fill-rule="evenodd"/><path fill="#000000" fill-opacity="0.0" d="m55.62346 114.572014l15.307091 -15.307083" fill-rule="evenodd"/><path stroke="#000000" stroke-width="2.0" stroke-linejoin="round" stroke-linecap="butt" d="m55.62346 114.572014l15.307091 -15.307083" fill-rule="evenodd"/><path fill="#000000" fill-opacity="0.0" d="m112.62012 114.4285l-15.307091 -15.307083" fill-rule="evenodd"/><path stroke="#000000" stroke-width="2.0" stroke-linejoin="round" stroke-linecap="butt" d="m112.62012 114.4285l-15.307091 -15.307083" fill-rule="evenodd"/><path fill="#000000" fill-opacity="0.0" d="m83.40742 114.465385l15.307083 -15.307083" fill-rule="evenodd"/><path stroke="#000000" stroke-width="2.0" stroke-linejoin="round" stroke-linecap="butt" d="m83.40742 114.465385l15.307083 -15.307083" fill-rule="evenodd"/><path fill="#000000" fill-opacity="0.0" d="m140.46526 114.40619l-15.307083 -15.307083" fill-rule="evenodd"/><path stroke="#000000" stroke-width="2.0" stroke-linejoin="round" stroke-linecap="butt" d="m140.46526 114.40619l-15.307083 -15.307083" fill-rule="evenodd"/><path fill="#000000" fill-opacity="0.0" d="m111.25256 114.44308l15.307083 -15.307083" fill-rule="evenodd"/><path stroke="#000000" stroke-width="2.0" stroke-linejoin="round" stroke-linecap="butt" d="m111.25256 114.44308l15.307083 -15.307083" fill-rule="evenodd"/><path fill="#000000" fill-opacity="0.0" d="m168.24922 114.29956l-15.307098 -15.307083" fill-rule="evenodd"/><path stroke="#000000" stroke-width="2.0" stroke-linejoin="round" stroke-linecap="butt" d="m168.24922 114.29956l-15.307098 -15.307083" fill-rule="evenodd"/><path fill="#000000" fill-opacity="0.0" d="m139.03651 114.33645l15.307083 -15.307083" fill-rule="evenodd"/><path stroke="#000000" stroke-width="2.0" stroke-linejoin="round" stroke-linecap="butt" d="m139.03651 114.33645l15.307083 -15.307083" fill-rule="evenodd"/><path fill="#000000" fill-opacity="0.0" d="m196.08763 114.24855l-15.307083 -15.307091" fill-rule="evenodd"/><path stroke="#000000" stroke-width="2.0" stroke-linejoin="round" stroke-linecap="butt" d="m196.08763 114.24855l-15.307083 -15.307091" fill-rule="evenodd"/><path fill="#000000" fill-opacity="0.0" d="m166.87494 114.28543l15.307083 -15.307083" fill-rule="evenodd"/><path stroke="#000000" stroke-width="2.0" stroke-linejoin="round" stroke-linecap="butt" d="m166.87494 114.28543l15.307083 -15.307083" fill-rule="evenodd"/><path fill="#000000" fill-opacity="0.0" d="m223.8716 114.14192l-15.307098 -15.307091" fill-rule="evenodd"/><path stroke="#000000" stroke-width="2.0" stroke-linejoin="round" stroke-linecap="butt" d="m223.8716 114.14192l-15.307098 -15.307091" fill-rule="evenodd"/><path fill="#000000" fill-opacity="0.0" d="m194.65889 114.1788l15.307083 -15.307083" fill-rule="evenodd"/><path stroke="#000000" stroke-width="2.0" stroke-linejoin="round" stroke-linecap="butt" d="m194.65889 114.1788l15.307083 -15.307083" fill-rule="evenodd"/><path fill="#000000" fill-opacity="0.0" d="m251.65735 114.08631l-15.307083 -15.307091" fill-rule="evenodd"/><path stroke="#000000" stroke-width="2.0" stroke-linejoin="round" stroke-linecap="butt" d="m251.65735 114.08631l-15.307083 -15.307091" fill-rule="evenodd"/><path fill="#000000" fill-opacity="0.0" d="m222.44466 114.12319l15.307083 -15.307083" fill-rule="evenodd"/><path stroke="#000000" stroke-width="2.0" stroke-linejoin="round" stroke-linecap="butt" d="m222.44466 114.12319l15.307083 -15.307083" fill-rule="evenodd"/><path fill="#000000" fill-opacity="0.0" d="m279.4413 113.97968l-15.307098 -15.307091" fill-rule="evenodd"/><path stroke="#000000" stroke-width="2.0" stroke-linejoin="round" stroke-linecap="butt" d="m279.4413 113.97968l-15.307098 -15.307091" fill-rule="evenodd"/><path fill="#000000" fill-opacity="0.0" d="m250.2286 114.01657l15.307098 -15.307091" fill-rule="evenodd"/><path stroke="#000000" stroke-width="2.0" stroke-linejoin="round" stroke-linecap="butt" d="m250.2286 114.01657l15.307098 -15.307091" fill-rule="evenodd"/><path fill="#000000" fill-opacity="0.0" d="m307.27972 113.928665l-15.307098 -15.307091" fill-rule="evenodd"/><path stroke="#000000" stroke-width="2.0" stroke-linejoin="round" stroke-linecap="butt" d="m307.27972 113.928665l-15.307098 -15.307091" fill-rule="evenodd"/><path fill="#000000" fill-opacity="0.0" d="m278.06702 113.96555l15.307098 -15.307091" fill-rule="evenodd"/><path stroke="#000000" stroke-width="2.0" stroke-linejoin="round" stroke-linecap="butt" d="m278.06702 113.96555l15.307098 -15.307091" fill-rule="evenodd"/><path fill="#000000" fill-opacity="0.0" d="m335.0637 113.82204l-15.307098 -15.307083" fill-rule="evenodd"/><path stroke="#000000" stroke-width="2.0" stroke-linejoin="round" stroke-linecap="butt" d="m335.0637 113.82204l-15.307098 -15.307083" fill-rule="evenodd"/><path fill="#000000" fill-opacity="0.0" d="m305.85098 113.858925l15.307098 -15.307091" fill-rule="evenodd"/><path stroke="#000000" stroke-width="2.0" stroke-linejoin="round" stroke-linecap="butt" d="m305.85098 113.858925l15.307098 -15.307091" fill-rule="evenodd"/><path fill="#000000" fill-opacity="0.0" d="m362.9088 113.79973l-15.307068 -15.307091" fill-rule="evenodd"/><path stroke="#000000" stroke-width="2.0" stroke-linejoin="round" stroke-linecap="butt" d="m362.9088 113.79973l-15.307068 -15.307091" fill-rule="evenodd"/><path fill="#000000" fill-opacity="0.0" d="m333.69614 113.83662l15.307068 -15.307091" fill-rule="evenodd"/><path stroke="#000000" stroke-width="2.0" stroke-linejoin="round" stroke-linecap="butt" d="m333.69614 113.83662l15.307068 -15.307091" fill-rule="evenodd"/><path fill="#000000" fill-opacity="0.0" d="m390.69278 113.6931l-15.307068 -15.307083" fill-rule="evenodd"/><path stroke="#000000" stroke-width="2.0" stroke-linejoin="round" stroke-linecap="butt" d="m390.69278 113.6931l-15.307068 -15.307083" fill-rule="evenodd"/><path fill="#000000" fill-opacity="0.0" d="m361.4801 113.72999l15.307068 -15.307091" fill-rule="evenodd"/><path stroke="#000000" stroke-width="2.0" stroke-linejoin="round" stroke-linecap="butt" d="m361.4801 113.72999l15.307068 -15.307091" fill-rule="evenodd"/><path fill="#000000" fill-opacity="0.0" d="m418.5312 113.64208l-15.307068 -15.307083" fill-rule="evenodd"/><path stroke="#000000" stroke-width="2.0" stroke-linejoin="round" stroke-linecap="butt" d="m418.5312 113.64208l-15.307068 -15.307083" fill-rule="evenodd"/><path fill="#000000" fill-opacity="0.0" d="m389.3185 113.67897l15.307068 -15.307091" fill-rule="evenodd"/><path stroke="#000000" stroke-width="2.0" stroke-linejoin="round" stroke-linecap="butt" d="m389.3185 113.67897l15.307068 -15.307091" fill-rule="evenodd"/><path fill="#000000" fill-opacity="0.0" d="m446.31516 113.53545l-15.307068 -15.307083" fill-rule="evenodd"/><path stroke="#000000" stroke-width="2.0" stroke-linejoin="round" stroke-linecap="butt" d="m446.31516 113.53545l-15.307068 -15.307083" fill-rule="evenodd"/><path fill="#000000" fill-opacity="0.0" d="m417.10245 113.57234l15.307098 -15.307083" fill-rule="evenodd"/><path stroke="#000000" stroke-width="2.0" stroke-linejoin="round" stroke-linecap="butt" d="m417.10245 113.57234l15.307098 -15.307083" fill-rule="evenodd"/><path fill="#000000" fill-opacity="0.0" d="m474.15375 113.50429l-15.307098 -15.307083" fill-rule="evenodd"/><path stroke="#000000" stroke-width="2.0" stroke-linejoin="round" stroke-linecap="butt" d="m474.15375 113.50429l-15.307098 -15.307083" fill-rule="evenodd"/><path fill="#000000" fill-opacity="0.0" d="m444.94104 113.541176l15.307098 -15.307091" fill-rule="evenodd"/><path stroke="#000000" stroke-width="2.0" stroke-linejoin="round" stroke-linecap="butt" d="m444.94104 113.541176l15.307098 -15.307091" fill-rule="evenodd"/><path fill="#000000" fill-opacity="0.0" d="m472.725 113.43455l15.307068 -15.307083" fill-rule="evenodd"/><path stroke="#000000" stroke-width="2.0" stroke-linejoin="round" stroke-linecap="butt" d="m472.725 113.43455l15.307068 -15.307083" fill-rule="evenodd"/><path fill="#000000" fill-opacity="0.0" d="m153.71654 8.102363l180.59843 0l0 35.43307l-180.59843 0z" fill-rule="evenodd"/><path fill="#000000" d="m170.00534 21.70986q2.578125 0 3.765625 1.0q1.1875 1.0 1.1875 2.890625q0 0.84375 -0.28125 1.609375q-0.265625 0.75 -0.890625 1.328125q-0.609375 0.578125 -1.625 0.921875q-1.0 0.328125 -2.46875 0.328125l-1.609375 0l0 5.234377l-1.546875 0l0 -13.312502l3.46875 0zm-0.140625 1.3125l-1.78125 0l0 5.4375l1.4375 0q1.28125 0 2.125 -0.265625q0.859375 -0.28125 1.28125 -0.890625q0.4375 -0.625 0.4375 -1.640625q0 -1.328125 -0.859375 -1.984375q-0.84375 -0.65625 -2.640625 -0.65625zm16.269775 6.984375q0 1.234375 -0.328125 2.203127q-0.3125 0.96875 -0.921875 1.640625q-0.59375 0.65625 -1.453125 1.015625q-0.84375 0.34375 -1.921875 0.34375q-1.0 0 -1.828125 -0.34375q-0.828125 -0.359375 -1.4375 -1.015625q-0.609375 -0.671875 -0.953125 -1.640625q-0.328125 -0.9687519 -0.328125 -2.203127q0 -1.640625 0.5625 -2.78125q0.5625 -1.15625 1.59375 -1.765625q1.03125 -0.609375 2.453125 -0.609375q1.375 0 2.390625 0.609375q1.03125 0.609375 1.59375 1.765625q0.578125 1.15625 0.578125 2.78125zm-7.59375 0q0 1.203125 0.3125 2.093752q0.328125 0.875 0.984375 1.359375q0.671875 0.484375 1.71875 0.484375q1.03125 0 1.703125 -0.484375q0.671875 -0.484375 0.984375 -1.359375q0.328125 -0.8906269 0.328125 -2.093752q0 -1.1875 -0.328125 -2.046875q-0.3125 -0.875 -0.984375 -1.34375q-0.65625 -0.484375 -1.71875 -0.484375q-1.5625 0 -2.28125 1.03125q-0.71875 1.03125 -0.71875 2.84375zm16.6604 2.281252q0 0.953125 -0.484375 1.609375q-0.46875 0.65625 -1.359375 0.984375q-0.890625 0.328125 -2.109375 0.328125q-1.046875 0 -1.8125 -0.171875q-0.765625 -0.15625 -1.34375 -0.46875l0 -1.390625q0.609375 0.296875 1.453125 0.546875q0.859375 0.25 1.734375 0.25q1.296875 0 1.875 -0.421875q0.59375 -0.421875 0.59375 -1.140625q0 -0.40625 -0.234375 -0.7187519q-0.234375 -0.3125 -0.78125 -0.609375q-0.546875 -0.296875 -1.515625 -0.65625q-0.953125 -0.359375 -1.65625 -0.71875q-0.6875 -0.359375 -1.078125 -0.875q-0.375 -0.53125 -0.375 -1.359375q0 -1.265625 1.015625 -1.9375q1.03125 -0.6875 2.703125 -0.6875q0.90625 0 1.6875 0.1875q0.796875 0.171875 1.46875 0.46875l-0.5 1.21875q-0.625 -0.265625 -1.328125 -0.4375q-0.703125 -0.1875 -1.421875 -0.1875q-1.046875 0 -1.609375 0.34375q-0.5625 0.34375 -0.5625 0.9375q0 0.46875 0.25 0.78125q0.265625 0.296875 0.84375 0.5625q0.578125 0.25 1.515625 0.609375q0.9375 0.34375 1.609375 0.71875q0.6875 0.375 1.046875 0.90625q0.375 0.515625 0.375 1.3281269zm5.656494 1.671875q0.375 0 0.765625 -0.0625q0.390625 -0.0625 0.640625 -0.15625l0 1.1875q-0.265625 0.109375 -0.734375 0.1875q-0.46875 0.09375 -0.90625 0.09375q-0.796875 0 -1.453125 -0.28125q-0.640625 -0.28125 -1.03125 -0.9375q-0.375 -0.671875 -0.375 -1.84375l0 -5.921877l-1.421875 0l0 -0.734375l1.421875 -0.59375l0.609375 -2.171875l0.90625 0l0 2.3125l2.921875 0l0 1.1875l-2.921875 0l0 5.875002q0 0.9375 0.421875 1.40625q0.4375 0.453125 1.15625 0.453125zm2.5874329 -3.281252l0 -1.34375l4.515625 0l0 1.34375l-4.515625 0zm14.596909 0.796875q0 1.1875019 -0.59375 2.031252q-0.59375 0.828125 -1.65625 1.265625q-1.046875 0.4375 -2.46875 0.4375q-0.765625 0 -1.4375 -0.078125q-0.671875 -0.078125 -1.234375 -0.203125q-0.5625 -0.140625 -1.0 -0.34375l0 -1.484375q0.6875 0.28125 1.671875 0.53125q0.984375 0.234375 2.0625 0.234375q1.0 0 1.6875 -0.265625q0.6875 -0.265625 1.046875 -0.765625q0.359375 -0.515625 0.359375 -1.2343769q0 -0.671875 -0.296875 -1.125q-0.296875 -0.46875 -1.0 -0.84375q-0.6875 -0.390625 -1.890625 -0.8125q-0.84375 -0.296875 -1.5 -0.65625q-0.640625 -0.359375 -1.078125 -0.8125q-0.4375 -0.46875 -0.671875 -1.0625q-0.21875 -0.609375 -0.21875 -1.375q0 -1.0625 0.546875 -1.828125q0.546875 -0.765625 1.5 -1.171875q0.96875 -0.40625 2.21875 -0.40625q1.0625 0 1.96875 0.203125q0.90625 0.203125 1.65625 0.546875l-0.484375 1.328125q-0.71875 -0.296875 -1.53125 -0.5q-0.796875 -0.203125 -1.65625 -0.203125q-0.859375 0 -1.453125 0.25q-0.578125 0.25 -0.890625 0.703125q-0.296875 0.453125 -0.296875 1.078125q0 0.703125 0.28125 1.171875q0.296875 0.46875 0.953125 0.828125q0.65625 0.359375 1.734375 0.75q1.171875 0.421875 1.984375 0.90625q0.828125 0.484375 1.25 1.171875q0.4375 0.6875 0.4375 1.734375zm6.323715 -6.625q1.28125 0 2.1875 0.578125q0.90625 0.5625 1.390625 1.578125q0.484375 1.015625 0.484375 2.375l0 0.9375l-6.890625 0q0.015625 1.7500019 0.859375 2.671877q0.859375 0.921875 2.390625 0.921875q0.953125 0 1.671875 -0.171875q0.734375 -0.171875 1.53125 -0.515625l0 1.328125q-0.765625 0.34375 -1.515625 0.5q-0.734375 0.15625 -1.75 0.15625q-1.4375 0 -2.515625 -0.59375q-1.0625 -0.59375 -1.65625 -1.71875q-0.59375 -1.1406269 -0.59375 -2.796877q0 -1.609375 0.546875 -2.78125q0.546875 -1.1875 1.53125 -1.828125q0.984375 -0.640625 2.328125 -0.640625zm-0.015625 1.25q-1.21875 0 -1.9375 0.796875q-0.71875 0.78125 -0.859375 2.203125l5.296875 0q-0.015625 -0.890625 -0.28125 -1.5625q-0.265625 -0.6875 -0.8125 -1.0625q-0.546875 -0.375 -1.40625 -0.375zm11.382172 -1.25q1.765625 0 2.671875 0.875q0.921875 0.875 0.921875 2.796875l0 6.500002l-1.5 0l0 -6.406252q0 -1.25 -0.578125 -1.859375q-0.5625 -0.625 -1.734375 -0.625q-1.65625 0 -2.328125 0.9375q-0.671875 0.9375 -0.671875 2.71875l0 5.234377l-1.515625 0l0 -9.984377l1.21875 0l0.234375 1.4375l0.078125 0q0.3125 -0.53125 0.796875 -0.890625q0.5 -0.359375 1.109375 -0.546875q0.609375 -0.1875 1.296875 -0.1875zm13.160278 7.437502q0 0.953125 -0.484375 1.609375q-0.46875 0.65625 -1.359375 0.984375q-0.890625 0.328125 -2.109375 0.328125q-1.046875 0 -1.8125 -0.171875q-0.765625 -0.15625 -1.34375 -0.46875l0 -1.390625q0.609375 0.296875 1.453125 0.546875q0.859375 0.25 1.734375 0.25q1.296875 0 1.875 -0.421875q0.59375 -0.421875 0.59375 -1.140625q0 -0.40625 -0.234375 -0.7187519q-0.234375 -0.3125 -0.78125 -0.609375q-0.546875 -0.296875 -1.515625 -0.65625q-0.953125 -0.359375 -1.65625 -0.71875q-0.6875 -0.359375 -1.078125 -0.875q-0.375 -0.53125 -0.375 -1.359375q0 -1.265625 1.015625 -1.9375q1.03125 -0.6875 2.703125 -0.6875q0.90625 0 1.6875 0.1875q0.796875 0.171875 1.46875 0.46875l-0.5 1.21875q-0.625 -0.265625 -1.328125 -0.4375q-0.703125 -0.1875 -1.421875 -0.1875q-1.046875 0 -1.609375 0.34375q-0.5625 0.34375 -0.5625 0.9375q0 0.46875 0.25 0.78125q0.265625 0.296875 0.84375 0.5625q0.578125 0.25 1.515625 0.609375q0.9375 0.34375 1.609375 0.71875q0.6875 0.375 1.046875 0.90625q0.375 0.515625 0.375 1.3281269zm11.047119 -2.281252q0 1.234375 -0.328125 2.203127q-0.3125 0.96875 -0.921875 1.640625q-0.59375 0.65625 -1.453125 1.015625q-0.84375 0.34375 -1.921875 0.34375q-1.0 0 -1.828125 -0.34375q-0.828125 -0.359375 -1.4375 -1.015625q-0.609375 -0.671875 -0.953125 -1.640625q-0.328125 -0.9687519 -0.328125 -2.203127q0 -1.640625 0.5625 -2.78125q0.5625 -1.15625 1.59375 -1.765625q1.03125 -0.609375 2.453125 -0.609375q1.375 0 2.390625 0.609375q1.03125 0.609375 1.59375 1.765625q0.578125 1.15625 0.578125 2.78125zm-7.59375 0q0 1.203125 0.3125 2.093752q0.328125 0.875 0.984375 1.359375q0.671875 0.484375 1.71875 0.484375q1.03125 0 1.703125 -0.484375q0.671875 -0.484375 0.984375 -1.359375q0.328125 -0.8906269 0.328125 -2.093752q0 -1.1875 -0.328125 -2.046875q-0.3125 -0.875 -0.984375 -1.34375q-0.65625 -0.484375 -1.71875 -0.484375q-1.5625 0 -2.28125 1.03125q-0.71875 1.03125 -0.71875 2.84375zm14.738525 -5.15625q0.3125 0 0.640625 0.03125q0.328125 0.03125 0.578125 0.09375l-0.1875 1.40625q-0.25 -0.0625 -0.5625 -0.09375q-0.296875 -0.046875 -0.546875 -0.046875q-0.609375 0 -1.140625 0.25q-0.53125 0.234375 -0.9375 0.6875q-0.390625 0.453125 -0.625 1.09375q-0.234375 0.625 -0.234375 1.390625l0 5.359377l-1.515625 0l0 -9.984377l1.25 0l0.171875 1.84375l0.0625 0q0.3125 -0.5625 0.75 -1.015625q0.4375 -0.46875 1.015625 -0.734375q0.578125 -0.28125 1.28125 -0.28125zm14.017761 10.171877l-4.46875 -11.781252l-0.0625 0q0.03125 0.359375 0.046875 0.90625q0.03125 0.53125 0.046875 1.171875q0.03125 0.625 0.03125 1.28125l0 8.421877l-1.4375 0l0 -13.312502l2.296875 0l4.203125 11.078127l0.078125 0l4.28125 -11.078127l2.265625 0l0 13.312502l-1.53125 0l0 -8.531252q0 -0.59375 0.015625 -1.1875q0.03125 -0.59375 0.046875 -1.125q0.03125 -0.53125 0.0625 -0.921875l-0.078125 0l-4.515625 11.765627l-1.28125 0zm19.310944 -5.015627q0 1.234375 -0.328125 2.203127q-0.3125 0.96875 -0.921875 1.640625q-0.59375 0.65625 -1.453125 1.015625q-0.84375 0.34375 -1.921875 0.34375q-1.0 0 -1.828125 -0.34375q-0.828125 -0.359375 -1.4375 -1.015625q-0.609375 -0.671875 -0.953125 -1.640625q-0.328125 -0.9687519 -0.328125 -2.203127q0 -1.640625 0.5625 -2.78125q0.5625 -1.15625 1.59375 -1.765625q1.03125 -0.609375 2.453125 -0.609375q1.375 0 2.390625 0.609375q1.03125 0.609375 1.59375 1.765625q0.578125 1.15625 0.578125 2.78125zm-7.59375 0q0 1.203125 0.3125 2.093752q0.328125 0.875 0.984375 1.359375q0.671875 0.484375 1.71875 0.484375q1.03125 0 1.703125 -0.484375q0.671875 -0.484375 0.984375 -1.359375q0.328125 -0.8906269 0.328125 -2.093752q0 -1.1875 -0.328125 -2.046875q-0.3125 -0.875 -0.984375 -1.34375q-0.65625 -0.484375 -1.71875 -0.484375q-1.5625 0 -2.28125 1.03125q-0.71875 1.03125 -0.71875 2.84375zm13.75415 5.203127q-1.890625 0 -3.0 -1.296875q-1.109375 -1.296875 -1.109375 -3.843752q0 -2.578125 1.125 -3.890625q1.140625 -1.328125 3.015625 -1.328125q0.796875 0 1.390625 0.21875q0.59375 0.203125 1.015625 0.5625q0.421875 0.34375 0.71875 0.796875l0.109375 0q-0.03125 -0.28125 -0.078125 -0.765625q-0.03125 -0.5 -0.03125 -0.8125l0 -4.0l1.515625 0l0 14.171877l-1.21875 0l-0.234375 -1.421875l-0.0625 0q-0.28125 0.453125 -0.71875 0.8125q-0.421875 0.359375 -1.03125 0.578125q-0.59375 0.21875 -1.40625 0.21875zm0.25 -1.265625q1.59375 0 2.25 -0.90625q0.671875 -0.90625 0.671875 -2.703127l0 -0.28125q0 -1.90625 -0.640625 -2.921875q-0.625 -1.015625 -2.28125 -1.015625q-1.40625 0 -2.09375 1.078125q-0.6875 1.0625 -0.6875 2.90625q0 1.84375 0.6875 2.843752q0.6875 1.0 2.09375 1.0zm11.46109 -9.093752q1.28125 0 2.1875 0.578125q0.90625 0.5625 1.390625 1.578125q0.484375 1.015625 0.484375 2.375l0 0.9375l-6.890625 0q0.015625 1.7500019 0.859375 2.671877q0.859375 0.921875 2.390625 0.921875q0.953125 0 1.671875 -0.171875q0.734375 -0.171875 1.53125 -0.515625l0 1.328125q-0.765625 0.34375 -1.515625 0.5q-0.734375 0.15625 -1.75 0.15625q-1.4375 0 -2.515625 -0.59375q-1.0625 -0.59375 -1.65625 -1.71875q-0.59375 -1.1406269 -0.59375 -2.796877q0 -1.609375 0.546875 -2.78125q0.546875 -1.1875 1.53125 -1.828125q0.984375 -0.640625 2.328125 -0.640625zm-0.015625 1.25q-1.21875 0 -1.9375 0.796875q-0.71875 0.78125 -0.859375 2.203125l5.296875 0q-0.015625 -0.890625 -0.28125 -1.5625q-0.265625 -0.6875 -0.8125 -1.0625q-0.546875 -0.375 -1.40625 -0.375z" fill-rule="nonzero"/><path fill="#000000" fill-opacity="0.0" d="m306.5457 78.10499l0 157.5433" fill-rule="evenodd"/><path stroke="#000000" stroke-width="2.0" stroke-linejoin="round" stroke-linecap="butt" d="m306.5457 78.10499l0 157.5433" fill-rule="evenodd"/><path fill="#f6b26b" d="m191.428 163.54855l0 35.433075l-81.48031 0l0 -35.433075z" fill-rule="evenodd"/><path fill="#6fa8dc" d="m71.897675 163.54855l0 35.433075l-38.047245 0l0 -35.433075z" fill-rule="evenodd"/><path fill="#9fc5e8" d="m109.944916 163.54855l0 35.433075l-38.04724 0l0 -35.433075z" fill-rule="evenodd"/><path fill="#cfe2f3" d="m229.4751 163.54855l0 35.433075l-38.04724 0l0 -35.433075z" fill-rule="evenodd"/><path fill="#000000" fill-opacity="0.0" d="m116.782166 165.91077l74.645676 0l0 30.708649l-74.645676 0z" fill-rule="evenodd"/><path fill="#000000" d="m128.57904 183.96451q-0.6875 0 -1.21875 -0.28125q-0.515625 -0.28125 -0.796875 -0.84375q-0.28125 -0.578125 -0.28125 -1.453125q0 -0.90625 0.296875 -1.484375q0.3125 -0.59375 0.84375 -0.859375q0.546875 -0.28125 1.25 -0.28125q0.40625 0 0.765625 0.078125q0.359375 0.078125 0.59375 0.203125l-0.28125 0.75q-0.25 -0.109375 -0.546875 -0.1875q-0.28125 -0.078125 -0.546875 -0.078125q-0.484375 0 -0.8125 0.21875q-0.3125 0.21875 -0.46875 0.625q-0.15625 0.40625 -0.15625 1.015625q0 0.578125 0.15625 0.984375q0.15625 0.390625 0.453125 0.609375q0.3125 0.203125 0.78125 0.203125q0.40625 0 0.71875 -0.078125q0.328125 -0.09375 0.609375 -0.234375l0 0.796875q-0.265625 0.15625 -0.59375 0.21875q-0.3125 0.078125 -0.765625 0.078125zm6.9252014 -2.609375q0 0.609375 -0.171875 1.109375q-0.15625 0.484375 -0.46875 0.8125q-0.296875 0.328125 -0.734375 0.515625q-0.4375 0.171875 -0.984375 0.171875q-0.5 0 -0.9375 -0.171875q-0.421875 -0.1875 -0.734375 -0.515625q-0.3125 -0.328125 -0.484375 -0.8125q-0.15625 -0.5 -0.15625 -1.109375q0 -0.828125 0.28125 -1.40625q0.28125 -0.578125 0.796875 -0.875q0.53125 -0.3125 1.265625 -0.3125q0.6875 0 1.203125 0.3125q0.53125 0.296875 0.828125 0.875q0.296875 0.578125 0.296875 1.40625zm-3.734375 0q0 0.578125 0.140625 1.0q0.15625 0.40625 0.453125 0.640625q0.3125 0.21875 0.796875 0.21875q0.484375 0 0.796875 -0.21875q0.3125 -0.234375 0.453125 -0.640625q0.140625 -0.421875 0.140625 -1.0q0 -0.578125 -0.140625 -0.984375q-0.140625 -0.40625 -0.453125 -0.625q-0.3125 -0.21875 -0.796875 -0.21875q-0.71875 0 -1.0625 0.484375q-0.328125 0.46875 -0.328125 1.34375zm7.4962006 -2.59375q0.859375 0 1.328125 0.4375q0.46875 0.4375 0.46875 1.40625l0 3.265625l-0.90625 0l0 -3.140625q0 -0.609375 -0.265625 -0.90625q-0.265625 -0.3125 -0.8125 -0.3125q-0.78125 0 -1.09375 0.46875q-0.3125 0.453125 -0.3125 1.328125l0 2.5625l-0.90625 0l0 -5.015625l0.71875 0l0.140625 0.703125l0.046875 0q0.15625 -0.265625 0.40625 -0.4375q0.25 -0.1875 0.546875 -0.265625q0.296875 -0.09375 0.640625 -0.09375zm5.075531 4.453125q0.1875 0 0.390625 -0.03125q0.203125 -0.03125 0.34375 -0.09375l0 0.703125q-0.15625 0.078125 -0.421875 0.125q-0.25 0.046875 -0.515625 0.046875q-0.40625 0 -0.75 -0.140625q-0.328125 -0.140625 -0.53125 -0.484375q-0.1875 -0.34375 -0.1875 -0.953125l0 -2.828125l-0.703125 0l0 -0.421875l0.734375 -0.34375l0.328125 -1.078125l0.5625 0l0 1.140625l1.453125 0l0 0.703125l-1.453125 0l0 2.8125q0 0.421875 0.203125 0.640625q0.203125 0.203125 0.546875 0.203125zm4.1634064 -4.453125q0.140625 0 0.296875 0.015625q0.15625 0.015625 0.28125 0.03125l-0.09375 0.859375q-0.109375 -0.03125 -0.265625 -0.046875q-0.140625 -0.015625 -0.265625 -0.015625q-0.28125 0 -0.546875 0.109375q-0.265625 0.109375 -0.46875 0.3125q-0.203125 0.203125 -0.3125 0.515625q-0.109375 0.296875 -0.109375 0.671875l0 2.65625l-0.921875 0l0 -5.015625l0.734375 0l0.109375 0.90625l0.046875 0q0.15625 -0.28125 0.375 -0.5q0.21875 -0.234375 0.5 -0.359375q0.296875 -0.140625 0.640625 -0.140625zm5.9014587 2.59375q0 0.609375 -0.171875 1.109375q-0.15625 0.484375 -0.46875 0.8125q-0.296875 0.328125 -0.734375 0.515625q-0.4375 0.171875 -0.984375 0.171875q-0.5 0 -0.9375 -0.171875q-0.421875 -0.1875 -0.734375 -0.515625q-0.3125 -0.328125 -0.484375 -0.8125q-0.15625 -0.5 -0.15625 -1.109375q0 -0.828125 0.28125 -1.40625q0.28125 -0.578125 0.796875 -0.875q0.53125 -0.3125 1.265625 -0.3125q0.6875 0 1.203125 0.3125q0.53125 0.296875 0.828125 0.875q0.296875 0.578125 0.296875 1.40625zm-3.734375 0q0 0.578125 0.140625 1.0q0.15625 0.40625 0.453125 0.640625q0.3125 0.21875 0.796875 0.21875q0.484375 0 0.796875 -0.21875q0.3125 -0.234375 0.453125 -0.640625q0.140625 -0.421875 0.140625 -1.0q0 -0.578125 -0.140625 -0.984375q-0.140625 -0.40625 -0.453125 -0.625q-0.3125 -0.21875 -0.796875 -0.21875q-0.71875 0 -1.0625 0.484375q-0.328125 0.46875 -0.328125 1.34375zm5.9180756 2.515625l-0.921875 0l0 -7.09375l0.921875 0l0 7.09375zm5.7290344 -0.65625q0.1875 0 0.390625 -0.03125q0.203125 -0.03125 0.34375 -0.09375l0 0.703125q-0.15625 0.078125 -0.421875 0.125q-0.25 0.046875 -0.515625 0.046875q-0.40625 0 -0.75 -0.140625q-0.328125 -0.140625 -0.53125 -0.484375q-0.1875 -0.34375 -0.1875 -0.953125l0 -2.828125l-0.703125 0l0 -0.421875l0.734375 -0.34375l0.328125 -1.078125l0.5625 0l0 1.140625l1.453125 0l0 0.703125l-1.453125 0l0 2.8125q0 0.421875 0.203125 0.640625q0.203125 0.203125 0.546875 0.203125zm3.6790314 -4.453125q0.921875 0 1.375 0.421875q0.46875 0.40625 0.46875 1.296875l0 3.390625l-0.65625 0l-0.171875 -0.734375l-0.03125 0q-0.21875 0.28125 -0.453125 0.46875q-0.21875 0.171875 -0.515625 0.265625q-0.296875 0.09375 -0.734375 0.09375q-0.453125 0 -0.8125 -0.15625q-0.34375 -0.171875 -0.546875 -0.5q-0.203125 -0.328125 -0.203125 -0.84375q0 -0.765625 0.578125 -1.15625q0.59375 -0.40625 1.78125 -0.4375l0.875 -0.03125l0 -0.296875q0 -0.578125 -0.265625 -0.8125q-0.265625 -0.25 -0.734375 -0.25q-0.390625 0 -0.75 0.109375q-0.34375 0.109375 -0.671875 0.265625l-0.296875 -0.65625q0.359375 -0.1875 0.8125 -0.3125q0.453125 -0.125 0.953125 -0.125zm0.9375 2.671875l-0.703125 0.03125q-0.859375 0.03125 -1.21875 0.296875q-0.359375 0.25 -0.359375 0.71875q0 0.390625 0.234375 0.578125q0.25 0.1875 0.65625 0.1875q0.609375 0 1.0 -0.34375q0.390625 -0.34375 0.390625 -1.015625l0 -0.453125zm5.750305 1.03125q0 0.484375 -0.25 0.828125q-0.234375 0.328125 -0.6875 0.5q-0.453125 0.171875 -1.09375 0.171875q-0.53125 0 -0.921875 -0.078125q-0.375 -0.078125 -0.6875 -0.234375l0 -0.8125q0.34375 0.15625 0.78125 0.28125q0.4375 0.125 0.859375 0.125q0.578125 0 0.84375 -0.1875q0.265625 -0.1875 0.265625 -0.5q0 -0.1875 -0.109375 -0.328125q-0.109375 -0.15625 -0.375 -0.296875q-0.25 -0.140625 -0.734375 -0.328125q-0.484375 -0.1875 -0.828125 -0.375q-0.34375 -0.1875 -0.515625 -0.453125q-0.171875 -0.265625 -0.171875 -0.671875q0 -0.65625 0.515625 -1.0q0.515625 -0.34375 1.375 -0.34375q0.453125 0 0.859375 0.09375q0.40625 0.09375 0.78125 0.25l-0.296875 0.703125q-0.328125 -0.140625 -0.6875 -0.234375q-0.34375 -0.09375 -0.703125 -0.09375q-0.46875 0 -0.71875 0.15625q-0.234375 0.15625 -0.234375 0.40625q0 0.21875 0.109375 0.359375q0.109375 0.125 0.375 0.265625q0.28125 0.125 0.75 0.296875q0.46875 0.171875 0.796875 0.359375q0.328125 0.1875 0.515625 0.453125q0.1875 0.265625 0.1875 0.6875zm2.0892944 -5.6875l0 3.5625q0 0.203125 -0.015625 0.46875q-0.015625 0.265625 -0.03125 0.5l0.03125 0q0.109375 -0.140625 0.28125 -0.359375q0.171875 -0.234375 0.3125 -0.390625l1.609375 -1.703125l1.046875 0l-2.0 2.15625l2.140625 2.859375l-1.078125 0l-1.6875 -2.296875l-0.609375 0.546875l0 1.75l-0.90625 0l0 -7.09375l0.90625 0z" fill-rule="nonzero"/><path fill="#000000" fill-opacity="0.0" d="m30.832323 165.91077l48.062996 0l0 30.708649l-48.062996 0z" fill-rule="evenodd"/><path fill="#000000" d="m42.363575 183.21451q0.1875 0 0.390625 -0.03125q0.203125 -0.03125 0.34375 -0.09375l0 0.703125q-0.15625 0.078125 -0.421875 0.125q-0.25 0.046875 -0.515625 0.046875q-0.40625 0 -0.75 -0.140625q-0.328125 -0.140625 -0.53125 -0.484375q-0.1875 -0.34375 -0.1875 -0.953125l0 -2.828125l-0.703125 0l0 -0.421875l0.734375 -0.34375l0.328125 -1.078125l0.5625 0l0 1.140625l1.453125 0l0 0.703125l-1.453125 0l0 2.8125q0 0.421875 0.203125 0.640625q0.203125 0.203125 0.546875 0.203125zm3.6790314 -4.453125q0.921875 0 1.375 0.421875q0.46875 0.40625 0.46875 1.296875l0 3.390625l-0.65625 0l-0.171875 -0.734375l-0.03125 0q-0.21875 0.28125 -0.453125 0.46875q-0.21875 0.171875 -0.515625 0.265625q-0.296875 0.09375 -0.734375 0.09375q-0.453125 0 -0.8125 -0.15625q-0.34375 -0.171875 -0.546875 -0.5q-0.203125 -0.328125 -0.203125 -0.84375q0 -0.765625 0.578125 -1.15625q0.59375 -0.40625 1.78125 -0.4375l0.875 -0.03125l0 -0.296875q0 -0.578125 -0.265625 -0.8125q-0.265625 -0.25 -0.734375 -0.25q-0.390625 0 -0.75 0.109375q-0.34375 0.109375 -0.671875 0.265625l-0.296875 -0.65625q0.359375 -0.1875 0.8125 -0.3125q0.453125 -0.125 0.953125 -0.125zm0.9375 2.671875l-0.703125 0.03125q-0.859375 0.03125 -1.21875 0.296875q-0.359375 0.25 -0.359375 0.71875q0 0.390625 0.234375 0.578125q0.25 0.1875 0.65625 0.1875q0.609375 0 1.0 -0.34375q0.390625 -0.34375 0.390625 -1.015625l0 -0.453125zm5.750305 1.03125q0 0.484375 -0.25 0.828125q-0.234375 0.328125 -0.6875 0.5q-0.453125 0.171875 -1.09375 0.171875q-0.53125 0 -0.921875 -0.078125q-0.375 -0.078125 -0.6875 -0.234375l0 -0.8125q0.34375 0.15625 0.78125 0.28125q0.4375 0.125 0.859375 0.125q0.578125 0 0.84375 -0.1875q0.265625 -0.1875 0.265625 -0.5q0 -0.1875 -0.109375 -0.328125q-0.109375 -0.15625 -0.375 -0.296875q-0.25 -0.140625 -0.734375 -0.328125q-0.484375 -0.1875 -0.828125 -0.375q-0.34375 -0.1875 -0.515625 -0.453125q-0.171875 -0.265625 -0.171875 -0.671875q0 -0.65625 0.515625 -1.0q0.515625 -0.34375 1.375 -0.34375q0.453125 0 0.859375 0.09375q0.40625 0.09375 0.78125 0.25l-0.296875 0.703125q-0.328125 -0.140625 -0.6875 -0.234375q-0.34375 -0.09375 -0.703125 -0.09375q-0.46875 0 -0.71875 0.15625q-0.234375 0.15625 -0.234375 0.40625q0 0.21875 0.109375 0.359375q0.109375 0.125 0.375 0.265625q0.28125 0.125 0.75 0.296875q0.46875 0.171875 0.796875 0.359375q0.328125 0.1875 0.515625 0.453125q0.1875 0.265625 0.1875 0.6875zm2.0892944 -5.6875l0 3.5625q0 0.203125 -0.015625 0.46875q-0.015625 0.265625 -0.03125 0.5l0.03125 0q0.109375 -0.140625 0.28125 -0.359375q0.171875 -0.234375 0.3125 -0.390625l1.609375 -1.703125l1.046875 0l-2.0 2.15625l2.140625 2.859375l-1.078125 0l-1.6875 -2.296875l-0.609375 0.546875l0 1.75l-0.90625 0l0 -7.09375l0.90625 0zm9.281597 7.09375l-0.9062462 0l0 -4.5q0 -0.25 0 -0.453125q0 -0.203125 0 -0.375q0.015625 -0.1875 0.03125 -0.359375q-0.125 0.109375 -0.25 0.234375q-0.125 0.109375 -0.296875 0.25l-0.765625 0.609375l-0.46875 -0.59375l1.890625 -1.46875l0.7656212 0l0 6.65625z" fill-rule="nonzero"/><path fill="#000000" fill-opacity="0.0" d="m68.96699 165.91077l48.062996 0l0 30.708649l-48.062996 0z" fill-rule="evenodd"/><path fill="#000000" d="m80.49824 183.21451q0.1875 0 0.390625 -0.03125q0.203125 -0.03125 0.34375 -0.09375l0 0.703125q-0.15625 0.078125 -0.421875 0.125q-0.25 0.046875 -0.515625 0.046875q-0.40625 0 -0.75 -0.140625q-0.328125 -0.140625 -0.53125 -0.484375q-0.1875 -0.34375 -0.1875 -0.953125l0 -2.828125l-0.703125 0l0 -0.421875l0.734375 -0.34375l0.328125 -1.078125l0.5625 0l0 1.140625l1.453125 0l0 0.703125l-1.453125 0l0 2.8125q0 0.421875 0.203125 0.640625q0.203125 0.203125 0.546875 0.203125zm3.6790314 -4.453125q0.921875 0 1.375 0.421875q0.46875 0.40625 0.46875 1.296875l0 3.390625l-0.65625 0l-0.171875 -0.734375l-0.03125 0q-0.21875 0.28125 -0.453125 0.46875q-0.21875 0.171875 -0.515625 0.265625q-0.296875 0.09375 -0.734375 0.09375q-0.453125 0 -0.8125 -0.15625q-0.34375 -0.171875 -0.546875 -0.5q-0.203125 -0.328125 -0.203125 -0.84375q0 -0.765625 0.578125 -1.15625q0.59375 -0.40625 1.78125 -0.4375l0.875 -0.03125l0 -0.296875q0 -0.578125 -0.265625 -0.8125q-0.265625 -0.25 -0.734375 -0.25q-0.390625 0 -0.75 0.109375q-0.34375 0.109375 -0.671875 0.265625l-0.296875 -0.65625q0.359375 -0.1875 0.8125 -0.3125q0.453125 -0.125 0.953125 -0.125zm0.9375 2.671875l-0.703125 0.03125q-0.859375 0.03125 -1.21875 0.296875q-0.359375 0.25 -0.359375 0.71875q0 0.390625 0.234375 0.578125q0.25 0.1875 0.65625 0.1875q0.609375 0 1.0 -0.34375q0.390625 -0.34375 0.390625 -1.015625l0 -0.453125zm5.750305 1.03125q0 0.484375 -0.25 0.828125q-0.234375 0.328125 -0.6875 0.5q-0.453125 0.171875 -1.09375 0.171875q-0.53125 0 -0.921875 -0.078125q-0.375 -0.078125 -0.6875 -0.234375l0 -0.8125q0.34375 0.15625 0.78125 0.28125q0.4375 0.125 0.859375 0.125q0.578125 0 0.84375 -0.1875q0.265625 -0.1875 0.265625 -0.5q0 -0.1875 -0.109375 -0.328125q-0.109375 -0.15625 -0.375 -0.296875q-0.25 -0.140625 -0.734375 -0.328125q-0.484375 -0.1875 -0.828125 -0.375q-0.34375 -0.1875 -0.515625 -0.453125q-0.171875 -0.265625 -0.171875 -0.671875q0 -0.65625 0.515625 -1.0q0.515625 -0.34375 1.375 -0.34375q0.453125 0 0.859375 0.09375q0.40625 0.09375 0.78125 0.25l-0.296875 0.703125q-0.328125 -0.140625 -0.6875 -0.234375q-0.34375 -0.09375 -0.703125 -0.09375q-0.46875 0 -0.71875 0.15625q-0.234375 0.15625 -0.234375 0.40625q0 0.21875 0.109375 0.359375q0.109375 0.125 0.375 0.265625q0.28125 0.125 0.75 0.296875q0.46875 0.171875 0.796875 0.359375q0.328125 0.1875 0.515625 0.453125q0.1875 0.265625 0.1875 0.6875zm2.0892944 -5.6875l0 3.5625q0 0.203125 -0.015625 0.46875q-0.015625 0.265625 -0.03125 0.5l0.03125 0q0.109375 -0.140625 0.28125 -0.359375q0.171875 -0.234375 0.3125 -0.390625l1.609375 -1.703125l1.046875 0l-2.0 2.15625l2.140625 2.859375l-1.078125 0l-1.6875 -2.296875l-0.609375 0.546875l0 1.75l-0.90625 0l0 -7.09375l0.90625 0zm10.734726 7.09375l-4.4375 0l0 -0.71875l1.75 -1.78125q0.5 -0.5 0.828125 -0.875q0.34375 -0.390625 0.5 -0.75q0.171875 -0.359375 0.171875 -0.78125q0 -0.515625 -0.3125 -0.78125q-0.296875 -0.28125 -0.796875 -0.28125q-0.453125 0 -0.828125 0.171875q-0.359375 0.15625 -0.75 0.46875l-0.5 -0.609375q0.265625 -0.234375 0.578125 -0.40625q0.3125 -0.1875 0.6875 -0.296875q0.375 -0.109375 0.828125 -0.109375q0.625 0 1.078125 0.21875q0.453125 0.21875 0.703125 0.625q0.25 0.390625 0.25 0.921875q0 0.53125 -0.21875 1.0q-0.203125 0.453125 -0.59375 0.90625q-0.390625 0.4375 -0.921875 0.9375l-1.296875 1.28125l0 0.046875l3.28125 0l0 0.8125z" fill-rule="nonzero"/><path fill="#000000" fill-opacity="0.0" d="m187.64445 165.91077l48.06299 0l0 30.708649l-48.06299 0z" fill-rule="evenodd"/><path fill="#000000" d="m199.1757 183.21451q0.1875 0 0.390625 -0.03125q0.203125 -0.03125 0.34375 -0.09375l0 0.703125q-0.15625 0.078125 -0.421875 0.125q-0.25 0.046875 -0.515625 0.046875q-0.40625 0 -0.75 -0.140625q-0.328125 -0.140625 -0.53125 -0.484375q-0.1875 -0.34375 -0.1875 -0.953125l0 -2.828125l-0.703125 0l0 -0.421875l0.734375 -0.34375l0.328125 -1.078125l0.5625 0l0 1.140625l1.453125 0l0 0.703125l-1.453125 0l0 2.8125q0 0.421875 0.203125 0.640625q0.203125 0.203125 0.546875 0.203125zm3.6790314 -4.453125q0.921875 0 1.375 0.421875q0.46875 0.40625 0.46875 1.296875l0 3.390625l-0.65625 0l-0.171875 -0.734375l-0.03125 0q-0.21875 0.28125 -0.453125 0.46875q-0.21875 0.171875 -0.515625 0.265625q-0.296875 0.09375 -0.734375 0.09375q-0.453125 0 -0.8125 -0.15625q-0.34375 -0.171875 -0.546875 -0.5q-0.203125 -0.328125 -0.203125 -0.84375q0 -0.765625 0.578125 -1.15625q0.59375 -0.40625 1.78125 -0.4375l0.875 -0.03125l0 -0.296875q0 -0.578125 -0.265625 -0.8125q-0.265625 -0.25 -0.734375 -0.25q-0.390625 0 -0.75 0.109375q-0.34375 0.109375 -0.671875 0.265625l-0.296875 -0.65625q0.359375 -0.1875 0.8125 -0.3125q0.453125 -0.125 0.953125 -0.125zm0.9375 2.671875l-0.703125 0.03125q-0.859375 0.03125 -1.21875 0.296875q-0.359375 0.25 -0.359375 0.71875q0 0.390625 0.234375 0.578125q0.25 0.1875 0.65625 0.1875q0.609375 0 1.0 -0.34375q0.390625 -0.34375 0.390625 -1.015625l0 -0.453125zm5.750305 1.03125q0 0.484375 -0.25 0.828125q-0.234375 0.328125 -0.6875 0.5q-0.453125 0.171875 -1.09375 0.171875q-0.53125 0 -0.921875 -0.078125q-0.375 -0.078125 -0.6875 -0.234375l0 -0.8125q0.34375 0.15625 0.78125 0.28125q0.4375 0.125 0.859375 0.125q0.578125 0 0.84375 -0.1875q0.265625 -0.1875 0.265625 -0.5q0 -0.1875 -0.109375 -0.328125q-0.109375 -0.15625 -0.375 -0.296875q-0.25 -0.140625 -0.734375 -0.328125q-0.484375 -0.1875 -0.828125 -0.375q-0.34375 -0.1875 -0.515625 -0.453125q-0.171875 -0.265625 -0.171875 -0.671875q0 -0.65625 0.515625 -1.0q0.515625 -0.34375 1.375 -0.34375q0.453125 0 0.859375 0.09375q0.40625 0.09375 0.78125 0.25l-0.296875 0.703125q-0.328125 -0.140625 -0.6875 -0.234375q-0.34375 -0.09375 -0.703125 -0.09375q-0.46875 0 -0.71875 0.15625q-0.234375 0.15625 -0.234375 0.40625q0 0.21875 0.109375 0.359375q0.109375 0.125 0.375 0.265625q0.28125 0.125 0.75 0.296875q0.46875 0.171875 0.796875 0.359375q0.328125 0.1875 0.515625 0.453125q0.1875 0.265625 0.1875 0.6875zm2.0892944 -5.6875l0 3.5625q0 0.203125 -0.015625 0.46875q-0.015625 0.265625 -0.03125 0.5l0.03125 0q0.109375 -0.140625 0.28125 -0.359375q0.171875 -0.234375 0.3125 -0.390625l1.609375 -1.703125l1.046875 0l-2.0 2.15625l2.140625 2.859375l-1.078125 0l-1.6875 -2.296875l-0.609375 0.546875l0 1.75l-0.90625 0l0 -7.09375l0.90625 0zm10.484726 1.96875q0 0.453125 -0.1875 0.78125q-0.171875 0.328125 -0.484375 0.546875q-0.3125 0.203125 -0.71875 0.296875l0 0.03125q0.78125 0.09375 1.1875 0.5q0.40625 0.40625 0.40625 1.0625q0 0.578125 -0.28125 1.03125q-0.265625 0.453125 -0.84375 0.71875q-0.5625 0.25 -1.4375 0.25q-0.546875 0 -1.0 -0.09375q-0.453125 -0.078125 -0.859375 -0.265625l0 -0.84375q0.40625 0.21875 0.890625 0.328125q0.484375 0.109375 0.9375 0.109375q0.875 0 1.25 -0.328125q0.375 -0.34375 0.375 -0.9375q0 -0.390625 -0.203125 -0.625q-0.203125 -0.25 -0.609375 -0.375q-0.40625 -0.125 -1.0 -0.125l-0.625 0l0 -0.75l0.625 0q0.5625 0 0.921875 -0.140625q0.375 -0.15625 0.546875 -0.421875q0.171875 -0.265625 0.171875 -0.625q0 -0.46875 -0.3125 -0.71875q-0.296875 -0.265625 -0.859375 -0.265625q-0.34375 0 -0.625 0.078125q-0.28125 0.0625 -0.53125 0.1875q-0.25 0.125 -0.46875 0.28125l-0.453125 -0.640625q0.375 -0.28125 0.890625 -0.46875q0.53125 -0.203125 1.203125 -0.203125q1.03125 0 1.5625 0.453125q0.53125 0.4375 0.53125 1.171875z" fill-rule="nonzero"/><path fill="#f6b26b" d="m469.6437 162.58267l0 35.433075l-81.480316 0l0 -35.433075z" fill-rule="evenodd"/><path fill="#6fa8dc" d="m350.11337 162.58267l0 35.433075l-38.04724 0l0 -35.433075z" fill-rule="evenodd"/><path fill="#9fc5e8" d="m388.1606 162.58267l0 35.433075l-38.04724 0l0 -35.433075z" fill-rule="evenodd"/><path fill="#cfe2f3" d="m487.916 162.58267l0 35.433075l-18.2677 0l0 -35.433075z" fill-rule="evenodd"/><path fill="#000000" fill-opacity="0.0" d="m394.99786 164.94489l74.64566 0l0 30.708664l-74.64566 0z" fill-rule="evenodd"/><path fill="#000000" d="m406.79474 182.99863q-0.6875 0 -1.21875 -0.28125q-0.515625 -0.28125 -0.796875 -0.84375q-0.28125 -0.578125 -0.28125 -1.453125q0 -0.90625 0.296875 -1.484375q0.3125 -0.59375 0.84375 -0.859375q0.546875 -0.28125 1.25 -0.28125q0.40625 0 0.765625 0.078125q0.359375 0.078125 0.59375 0.203125l-0.28125 0.75q-0.25 -0.109375 -0.546875 -0.1875q-0.28125 -0.078125 -0.546875 -0.078125q-0.484375 0 -0.8125 0.21875q-0.3125 0.21875 -0.46875 0.625q-0.15625 0.40625 -0.15625 1.015625q0 0.578125 0.15625 0.984375q0.15625 0.390625 0.453125 0.609375q0.3125 0.203125 0.78125 0.203125q0.40625 0 0.71875 -0.078125q0.328125 -0.09375 0.609375 -0.234375l0 0.796875q-0.265625 0.15625 -0.59375 0.21875q-0.3125 0.078125 -0.765625 0.078125zm6.9252014 -2.609375q0 0.609375 -0.171875 1.109375q-0.15625 0.484375 -0.46875 0.8125q-0.296875 0.328125 -0.734375 0.515625q-0.4375 0.171875 -0.984375 0.171875q-0.5 0 -0.9375 -0.171875q-0.421875 -0.1875 -0.734375 -0.515625q-0.3125 -0.328125 -0.484375 -0.8125q-0.15625 -0.5 -0.15625 -1.109375q0 -0.828125 0.28125 -1.40625q0.28125 -0.578125 0.796875 -0.875q0.53125 -0.3125 1.265625 -0.3125q0.6875 0 1.203125 0.3125q0.53125 0.296875 0.828125 0.875q0.296875 0.578125 0.296875 1.40625zm-3.734375 0q0 0.578125 0.140625 1.0q0.15625 0.40625 0.453125 0.640625q0.3125 0.21875 0.796875 0.21875q0.484375 0 0.796875 -0.21875q0.3125 -0.234375 0.453125 -0.640625q0.140625 -0.421875 0.140625 -1.0q0 -0.578125 -0.140625 -0.984375q-0.140625 -0.40625 -0.453125 -0.625q-0.3125 -0.21875 -0.796875 -0.21875q-0.71875 0 -1.0625 0.484375q-0.328125 0.46875 -0.328125 1.34375zm7.4961853 -2.59375q0.859375 0 1.328125 0.4375q0.46875 0.4375 0.46875 1.40625l0 3.265625l-0.90625 0l0 -3.140625q0 -0.609375 -0.265625 -0.90625q-0.265625 -0.3125 -0.8125 -0.3125q-0.78125 0 -1.09375 0.46875q-0.3125 0.453125 -0.3125 1.328125l0 2.5625l-0.90625 0l0 -5.015625l0.71875 0l0.140625 0.703125l0.046875 0q0.15625 -0.265625 0.40625 -0.4375q0.25 -0.1875 0.546875 -0.265625q0.296875 -0.09375 0.640625 -0.09375zm5.075531 4.453125q0.1875 0 0.390625 -0.03125q0.203125 -0.03125 0.34375 -0.09375l0 0.703125q-0.15625 0.078125 -0.421875 0.125q-0.25 0.046875 -0.515625 0.046875q-0.40625 0 -0.75 -0.140625q-0.328125 -0.140625 -0.53125 -0.484375q-0.1875 -0.34375 -0.1875 -0.953125l0 -2.828125l-0.703125 0l0 -0.421875l0.734375 -0.34375l0.328125 -1.078125l0.5625 0l0 1.140625l1.453125 0l0 0.703125l-1.453125 0l0 2.8125q0 0.421875 0.203125 0.640625q0.203125 0.203125 0.546875 0.203125zm4.1634216 -4.453125q0.140625 0 0.296875 0.015625q0.15625 0.015625 0.28125 0.03125l-0.09375 0.859375q-0.109375 -0.03125 -0.265625 -0.046875q-0.140625 -0.015625 -0.265625 -0.015625q-0.28125 0 -0.546875 0.109375q-0.265625 0.109375 -0.46875 0.3125q-0.203125 0.203125 -0.3125 0.515625q-0.109375 0.296875 -0.109375 0.671875l0 2.65625l-0.921875 0l0 -5.015625l0.734375 0l0.109375 0.90625l0.046875 0q0.15625 -0.28125 0.375 -0.5q0.21875 -0.234375 0.5 -0.359375q0.296875 -0.140625 0.640625 -0.140625zm5.9014587 2.59375q0 0.609375 -0.171875 1.109375q-0.15625 0.484375 -0.46875 0.8125q-0.296875 0.328125 -0.734375 0.515625q-0.4375 0.171875 -0.984375 0.171875q-0.5 0 -0.9375 -0.171875q-0.421875 -0.1875 -0.734375 -0.515625q-0.3125 -0.328125 -0.484375 -0.8125q-0.15625 -0.5 -0.15625 -1.109375q0 -0.828125 0.28125 -1.40625q0.28125 -0.578125 0.796875 -0.875q0.53125 -0.3125 1.265625 -0.3125q0.6875 0 1.203125 0.3125q0.53125 0.296875 0.828125 0.875q0.296875 0.578125 0.296875 1.40625zm-3.734375 0q0 0.578125 0.140625 1.0q0.15625 0.40625 0.453125 0.640625q0.3125 0.21875 0.796875 0.21875q0.484375 0 0.796875 -0.21875q0.3125 -0.234375 0.453125 -0.640625q0.140625 -0.421875 0.140625 -1.0q0 -0.578125 -0.140625 -0.984375q-0.140625 -0.40625 -0.453125 -0.625q-0.3125 -0.21875 -0.796875 -0.21875q-0.71875 0 -1.0625 0.484375q-0.328125 0.46875 -0.328125 1.34375zm5.9180603 2.515625l-0.921875 0l0 -7.09375l0.921875 0l0 7.09375zm5.7290344 -0.65625q0.1875 0 0.390625 -0.03125q0.203125 -0.03125 0.34375 -0.09375l0 0.703125q-0.15625 0.078125 -0.421875 0.125q-0.25 0.046875 -0.515625 0.046875q-0.40625 0 -0.75 -0.140625q-0.328125 -0.140625 -0.53125 -0.484375q-0.1875 -0.34375 -0.1875 -0.953125l0 -2.828125l-0.703125 0l0 -0.421875l0.734375 -0.34375l0.328125 -1.078125l0.5625 0l0 1.140625l1.453125 0l0 0.703125l-1.453125 0l0 2.8125q0 0.421875 0.203125 0.640625q0.203125 0.203125 0.546875 0.203125zm3.6790466 -4.453125q0.921875 0 1.375 0.421875q0.46875 0.40625 0.46875 1.296875l0 3.390625l-0.65625 0l-0.171875 -0.734375l-0.03125 0q-0.21875 0.28125 -0.453125 0.46875q-0.21875 0.171875 -0.515625 0.265625q-0.296875 0.09375 -0.734375 0.09375q-0.453125 0 -0.8125 -0.15625q-0.34375 -0.171875 -0.546875 -0.5q-0.203125 -0.328125 -0.203125 -0.84375q0 -0.765625 0.578125 -1.15625q0.59375 -0.40625 1.78125 -0.4375l0.875 -0.03125l0 -0.296875q0 -0.578125 -0.265625 -0.8125q-0.265625 -0.25 -0.734375 -0.25q-0.390625 0 -0.75 0.109375q-0.34375 0.109375 -0.671875 0.265625l-0.296875 -0.65625q0.359375 -0.1875 0.8125 -0.3125q0.453125 -0.125 0.953125 -0.125zm0.9375 2.671875l-0.703125 0.03125q-0.859375 0.03125 -1.21875 0.296875q-0.359375 0.25 -0.359375 0.71875q0 0.390625 0.234375 0.578125q0.25 0.1875 0.65625 0.1875q0.609375 0 1.0 -0.34375q0.390625 -0.34375 0.390625 -1.015625l0 -0.453125zm5.750305 1.03125q0 0.484375 -0.25 0.828125q-0.234375 0.328125 -0.6875 0.5q-0.453125 0.171875 -1.09375 0.171875q-0.53125 0 -0.921875 -0.078125q-0.375 -0.078125 -0.6875 -0.234375l0 -0.8125q0.34375 0.15625 0.78125 0.28125q0.4375 0.125 0.859375 0.125q0.578125 0 0.84375 -0.1875q0.265625 -0.1875 0.265625 -0.5q0 -0.1875 -0.109375 -0.328125q-0.109375 -0.15625 -0.375 -0.296875q-0.25 -0.140625 -0.734375 -0.328125q-0.484375 -0.1875 -0.828125 -0.375q-0.34375 -0.1875 -0.515625 -0.453125q-0.171875 -0.265625 -0.171875 -0.671875q0 -0.65625 0.515625 -1.0q0.515625 -0.34375 1.375 -0.34375q0.453125 0 0.859375 0.09375q0.40625 0.09375 0.78125 0.25l-0.296875 0.703125q-0.328125 -0.140625 -0.6875 -0.234375q-0.34375 -0.09375 -0.703125 -0.09375q-0.46875 0 -0.71875 0.15625q-0.234375 0.15625 -0.234375 0.40625q0 0.21875 0.109375 0.359375q0.109375 0.125 0.375 0.265625q0.28125 0.125 0.75 0.296875q0.46875 0.171875 0.796875 0.359375q0.328125 0.1875 0.515625 0.453125q0.1875 0.265625 0.1875 0.6875zm2.0892944 -5.6875l0 3.5625q0 0.203125 -0.015625 0.46875q-0.015625 0.265625 -0.03125 0.5l0.03125 0q0.109375 -0.140625 0.28125 -0.359375q0.171875 -0.234375 0.3125 -0.390625l1.609375 -1.703125l1.046875 0l-2.0 2.15625l2.140625 2.859375l-1.078125 0l-1.6875 -2.296875l-0.609375 0.546875l0 1.75l-0.90625 0l0 -7.09375l0.90625 0z" fill-rule="nonzero"/><path fill="#000000" fill-opacity="0.0" d="m309.048 164.94489l48.06302 0l0 30.708664l-48.06302 0z" fill-rule="evenodd"/><path fill="#000000" d="m320.57925 182.24863q0.1875 0 0.390625 -0.03125q0.203125 -0.03125 0.34375 -0.09375l0 0.703125q-0.15625 0.078125 -0.421875 0.125q-0.25 0.046875 -0.515625 0.046875q-0.40625 0 -0.75 -0.140625q-0.328125 -0.140625 -0.53125 -0.484375q-0.1875 -0.34375 -0.1875 -0.953125l0 -2.828125l-0.703125 0l0 -0.421875l0.734375 -0.34375l0.328125 -1.078125l0.5625 0l0 1.140625l1.453125 0l0 0.703125l-1.453125 0l0 2.8125q0 0.421875 0.203125 0.640625q0.203125 0.203125 0.546875 0.203125zm3.6790466 -4.453125q0.921875 0 1.375 0.421875q0.46875 0.40625 0.46875 1.296875l0 3.390625l-0.65625 0l-0.171875 -0.734375l-0.03125 0q-0.21875 0.28125 -0.453125 0.46875q-0.21875 0.171875 -0.515625 0.265625q-0.296875 0.09375 -0.734375 0.09375q-0.453125 0 -0.8125 -0.15625q-0.34375 -0.171875 -0.546875 -0.5q-0.203125 -0.328125 -0.203125 -0.84375q0 -0.765625 0.578125 -1.15625q0.59375 -0.40625 1.78125 -0.4375l0.875 -0.03125l0 -0.296875q0 -0.578125 -0.265625 -0.8125q-0.265625 -0.25 -0.734375 -0.25q-0.390625 0 -0.75 0.109375q-0.34375 0.109375 -0.671875 0.265625l-0.296875 -0.65625q0.359375 -0.1875 0.8125 -0.3125q0.453125 -0.125 0.953125 -0.125zm0.9375 2.671875l-0.703125 0.03125q-0.859375 0.03125 -1.21875 0.296875q-0.359375 0.25 -0.359375 0.71875q0 0.390625 0.234375 0.578125q0.25 0.1875 0.65625 0.1875q0.609375 0 1.0 -0.34375q0.390625 -0.34375 0.390625 -1.015625l0 -0.453125zm5.750305 1.03125q0 0.484375 -0.25 0.828125q-0.234375 0.328125 -0.6875 0.5q-0.453125 0.171875 -1.09375 0.171875q-0.53125 0 -0.921875 -0.078125q-0.375 -0.078125 -0.6875 -0.234375l0 -0.8125q0.34375 0.15625 0.78125 0.28125q0.4375 0.125 0.859375 0.125q0.578125 0 0.84375 -0.1875q0.265625 -0.1875 0.265625 -0.5q0 -0.1875 -0.109375 -0.328125q-0.109375 -0.15625 -0.375 -0.296875q-0.25 -0.140625 -0.734375 -0.328125q-0.484375 -0.1875 -0.828125 -0.375q-0.34375 -0.1875 -0.515625 -0.453125q-0.171875 -0.265625 -0.171875 -0.671875q0 -0.65625 0.515625 -1.0q0.515625 -0.34375 1.375 -0.34375q0.453125 0 0.859375 0.09375q0.40625 0.09375 0.78125 0.25l-0.296875 0.703125q-0.328125 -0.140625 -0.6875 -0.234375q-0.34375 -0.09375 -0.703125 -0.09375q-0.46875 0 -0.71875 0.15625q-0.234375 0.15625 -0.234375 0.40625q0 0.21875 0.109375 0.359375q0.109375 0.125 0.375 0.265625q0.28125 0.125 0.75 0.296875q0.46875 0.171875 0.796875 0.359375q0.328125 0.1875 0.515625 0.453125q0.1875 0.265625 0.1875 0.6875zm2.0892944 -5.6875l0 3.5625q0 0.203125 -0.015625 0.46875q-0.015625 0.265625 -0.03125 0.5l0.03125 0q0.109375 -0.140625 0.28125 -0.359375q0.171875 -0.234375 0.3125 -0.390625l1.609375 -1.703125l1.046875 0l-2.0 2.15625l2.140625 2.859375l-1.078125 0l-1.6875 -2.296875l-0.609375 0.546875l0 1.75l-0.90625 0l0 -7.09375l0.90625 0zm9.281586 7.09375l-0.90625 0l0 -4.5q0 -0.25 0 -0.453125q0 -0.203125 0 -0.375q0.015625 -0.1875 0.03125 -0.359375q-0.125 0.109375 -0.25 0.234375q-0.125 0.109375 -0.296875 0.25l-0.765625 0.609375l-0.46875 -0.59375l1.890625 -1.46875l0.765625 0l0 6.65625z" fill-rule="nonzero"/><path fill="#000000" fill-opacity="0.0" d="m347.18268 164.94489l48.06299 0l0 30.708664l-48.06299 0z" fill-rule="evenodd"/><path fill="#000000" d="m358.71393 182.24863q0.1875 0 0.390625 -0.03125q0.203125 -0.03125 0.34375 -0.09375l0 0.703125q-0.15625 0.078125 -0.421875 0.125q-0.25 0.046875 -0.515625 0.046875q-0.40625 0 -0.75 -0.140625q-0.328125 -0.140625 -0.53125 -0.484375q-0.1875 -0.34375 -0.1875 -0.953125l0 -2.828125l-0.703125 0l0 -0.421875l0.734375 -0.34375l0.328125 -1.078125l0.5625 0l0 1.140625l1.453125 0l0 0.703125l-1.453125 0l0 2.8125q0 0.421875 0.203125 0.640625q0.203125 0.203125 0.546875 0.203125zm3.6790466 -4.453125q0.921875 0 1.375 0.421875q0.46875 0.40625 0.46875 1.296875l0 3.390625l-0.65625 0l-0.171875 -0.734375l-0.03125 0q-0.21875 0.28125 -0.453125 0.46875q-0.21875 0.171875 -0.515625 0.265625q-0.296875 0.09375 -0.734375 0.09375q-0.453125 0 -0.8125 -0.15625q-0.34375 -0.171875 -0.546875 -0.5q-0.203125 -0.328125 -0.203125 -0.84375q0 -0.765625 0.578125 -1.15625q0.59375 -0.40625 1.78125 -0.4375l0.875 -0.03125l0 -0.296875q0 -0.578125 -0.265625 -0.8125q-0.265625 -0.25 -0.734375 -0.25q-0.390625 0 -0.75 0.109375q-0.34375 0.109375 -0.671875 0.265625l-0.296875 -0.65625q0.359375 -0.1875 0.8125 -0.3125q0.453125 -0.125 0.953125 -0.125zm0.9375 2.671875l-0.703125 0.03125q-0.859375 0.03125 -1.21875 0.296875q-0.359375 0.25 -0.359375 0.71875q0 0.390625 0.234375 0.578125q0.25 0.1875 0.65625 0.1875q0.609375 0 1.0 -0.34375q0.390625 -0.34375 0.390625 -1.015625l0 -0.453125zm5.750305 1.03125q0 0.484375 -0.25 0.828125q-0.234375 0.328125 -0.6875 0.5q-0.453125 0.171875 -1.09375 0.171875q-0.53125 0 -0.921875 -0.078125q-0.375 -0.078125 -0.6875 -0.234375l0 -0.8125q0.34375 0.15625 0.78125 0.28125q0.4375 0.125 0.859375 0.125q0.578125 0 0.84375 -0.1875q0.265625 -0.1875 0.265625 -0.5q0 -0.1875 -0.109375 -0.328125q-0.109375 -0.15625 -0.375 -0.296875q-0.25 -0.140625 -0.734375 -0.328125q-0.484375 -0.1875 -0.828125 -0.375q-0.34375 -0.1875 -0.515625 -0.453125q-0.171875 -0.265625 -0.171875 -0.671875q0 -0.65625 0.515625 -1.0q0.515625 -0.34375 1.375 -0.34375q0.453125 0 0.859375 0.09375q0.40625 0.09375 0.78125 0.25l-0.296875 0.703125q-0.328125 -0.140625 -0.6875 -0.234375q-0.34375 -0.09375 -0.703125 -0.09375q-0.46875 0 -0.71875 0.15625q-0.234375 0.15625 -0.234375 0.40625q0 0.21875 0.109375 0.359375q0.109375 0.125 0.375 0.265625q0.28125 0.125 0.75 0.296875q0.46875 0.171875 0.796875 0.359375q0.328125 0.1875 0.515625 0.453125q0.1875 0.265625 0.1875 0.6875zm2.0892944 -5.6875l0 3.5625q0 0.203125 -0.015625 0.46875q-0.015625 0.265625 -0.03125 0.5l0.03125 0q0.109375 -0.140625 0.28125 -0.359375q0.171875 -0.234375 0.3125 -0.390625l1.609375 -1.703125l1.046875 0l-2.0 2.15625l2.140625 2.859375l-1.078125 0l-1.6875 -2.296875l-0.609375 0.546875l0 1.75l-0.90625 0l0 -7.09375l0.90625 0zm10.734711 7.09375l-4.4375 0l0 -0.71875l1.75 -1.78125q0.5 -0.5 0.828125 -0.875q0.34375 -0.390625 0.5 -0.75q0.171875 -0.359375 0.171875 -0.78125q0 -0.515625 -0.3125 -0.78125q-0.296875 -0.28125 -0.796875 -0.28125q-0.453125 0 -0.828125 0.171875q-0.359375 0.15625 -0.75 0.46875l-0.5 -0.609375q0.265625 -0.234375 0.578125 -0.40625q0.3125 -0.1875 0.6875 -0.296875q0.375 -0.109375 0.828125 -0.109375q0.625 0 1.078125 0.21875q0.453125 0.21875 0.703125 0.625q0.25 0.390625 0.25 0.921875q0 0.53125 -0.21875 1.0q-0.203125 0.453125 -0.59375 0.90625q-0.390625 0.4375 -0.921875 0.9375l-1.296875 1.28125l0 0.046875l3.28125 0l0 0.8125z" fill-rule="nonzero"/><path fill="#000000" fill-opacity="0.0" d="m465.19348 165.02821l48.06299 0l0 30.708664l-48.06299 0z" fill-rule="evenodd"/><path fill="#000000" d="m476.72473 182.33197q0.1875 0 0.390625 -0.03125q0.203125 -0.03125 0.34375 -0.09375l0 0.703125q-0.15625 0.078125 -0.421875 0.125q-0.25 0.046875 -0.515625 0.046875q-0.40625 0 -0.75 -0.140625q-0.328125 -0.140625 -0.53125 -0.484375q-0.1875 -0.34375 -0.1875 -0.953125l0 -2.828125l-0.703125 0l0 -0.421875l0.734375 -0.34375l0.328125 -1.078125l0.5625 0l0 1.140625l1.453125 0l0 0.703125l-1.453125 0l0 2.8125q0 0.421875 0.203125 0.640625q0.203125 0.203125 0.546875 0.203125zm3.6790466 -4.453125q0.921875 0 1.375 0.421875q0.46875 0.40625 0.46875 1.296875l0 3.390625l-0.65625 0l-0.171875 -0.734375l-0.03125 0q-0.21875 0.28125 -0.453125 0.46875q-0.21875 0.171875 -0.515625 0.265625q-0.296875 0.09375 -0.734375 0.09375q-0.453125 0 -0.8125 -0.15625q-0.34375 -0.171875 -0.546875 -0.5q-0.203125 -0.328125 -0.203125 -0.84375q0 -0.765625 0.578125 -1.15625q0.59375 -0.40625 1.78125 -0.4375l0.875 -0.03125l0 -0.296875q0 -0.578125 -0.265625 -0.8125q-0.265625 -0.25 -0.734375 -0.25q-0.390625 0 -0.75 0.109375q-0.34375 0.109375 -0.671875 0.265625l-0.296875 -0.65625q0.359375 -0.1875 0.8125 -0.3125q0.453125 -0.125 0.953125 -0.125zm0.9375 2.671875l-0.703125 0.03125q-0.859375 0.03125 -1.21875 0.296875q-0.359375 0.25 -0.359375 0.71875q0 0.390625 0.234375 0.578125q0.25 0.1875 0.65625 0.1875q0.609375 0 1.0 -0.34375q0.390625 -0.34375 0.390625 -1.015625l0 -0.453125zm5.750305 1.03125q0 0.484375 -0.25 0.828125q-0.234375 0.328125 -0.6875 0.5q-0.453125 0.171875 -1.09375 0.171875q-0.53125 0 -0.921875 -0.078125q-0.375 -0.078125 -0.6875 -0.234375l0 -0.8125q0.34375 0.15625 0.78125 0.28125q0.4375 0.125 0.859375 0.125q0.578125 0 0.84375 -0.1875q0.265625 -0.1875 0.265625 -0.5q0 -0.1875 -0.109375 -0.328125q-0.109375 -0.15625 -0.375 -0.296875q-0.25 -0.140625 -0.734375 -0.328125q-0.484375 -0.1875 -0.828125 -0.375q-0.34375 -0.1875 -0.515625 -0.453125q-0.171875 -0.265625 -0.171875 -0.671875q0 -0.65625 0.515625 -1.0q0.515625 -0.34375 1.375 -0.34375q0.453125 0 0.859375 0.09375q0.40625 0.09375 0.78125 0.25l-0.296875 0.703125q-0.328125 -0.140625 -0.6875 -0.234375q-0.34375 -0.09375 -0.703125 -0.09375q-0.46875 0 -0.71875 0.15625q-0.234375 0.15625 -0.234375 0.40625q0 0.21875 0.109375 0.359375q0.109375 0.125 0.375 0.265625q0.28125 0.125 0.75 0.296875q0.46875 0.171875 0.796875 0.359375q0.328125 0.1875 0.515625 0.453125q0.1875 0.265625 0.1875 0.6875z" fill-rule="nonzero"/><path fill="#000000" fill-opacity="0.0" d="m50.29134 78.8294l141.6693 0l0 16.53543l-141.6693 0z" fill-rule="evenodd"/><path fill="#000000" fill-opacity="0.0" d="m116.332016 71.65223l102.29921 0l0 30.708664l-102.29921 0z" fill-rule="evenodd"/><path fill="#000000" d="m128.92033 82.95598q1.28125 0 1.875 0.515625q0.59375 0.515625 0.59375 1.453125q0 0.4375 -0.140625 0.828125q-0.125 0.375 -0.4375 0.671875q-0.3125 0.296875 -0.8125 0.46875q-0.5 0.15625 -1.21875 0.15625l-0.765625 0l0 2.5625l-0.9374924 0l0 -6.65625l1.8437424 0zm-0.078125 0.78125l-0.828125 0l0 2.53125l0.65625 0q0.578125 0 0.96875 -0.125q0.390625 -0.140625 0.59375 -0.421875q0.203125 -0.28125 0.203125 -0.75q0 -0.625 -0.390625 -0.921875q-0.390625 -0.3125 -1.203125 -0.3125zm11.628342 -0.78125l-1.75 6.65625l-1.0 0l-1.203125 -4.234375q-0.0625 -0.171875 -0.109375 -0.359375q-0.046875 -0.203125 -0.09375 -0.390625q-0.046875 -0.203125 -0.078125 -0.359375q-0.03125 -0.15625 -0.046875 -0.234375q-0.015625 0.078125 -0.046875 0.234375q-0.015625 0.15625 -0.0625 0.34375q-0.046875 0.1875 -0.09375 0.390625q-0.046875 0.203125 -0.09375 0.375l-1.1875 4.234375l-0.984375 0l-1.75 -6.65625l0.953125 0l1.015625 4.03125q0.046875 0.203125 0.09375 0.421875q0.046875 0.203125 0.078125 0.40625q0.046875 0.203125 0.078125 0.40625q0.03125 0.1875 0.0625 0.359375q0.015625 -0.171875 0.046875 -0.375q0.046875 -0.203125 0.09375 -0.40625q0.046875 -0.21875 0.09375 -0.421875q0.046875 -0.203125 0.109375 -0.390625l1.125 -4.03125l0.9375 0l1.1875 4.046875q0.046875 0.203125 0.09375 0.40625q0.0625 0.203125 0.09375 0.421875q0.046875 0.203125 0.078125 0.40625q0.046875 0.1875 0.078125 0.34375q0.03125 -0.21875 0.078125 -0.484375q0.046875 -0.265625 0.109375 -0.546875q0.0625 -0.28125 0.125 -0.5625l1.015625 -4.03125l0.953125 0zm3.9007416 6.65625l-2.078125 -5.71875l-0.03125 0q0 0.1875 0.015625 0.484375q0.015625 0.28125 0.03125 0.625q0.015625 0.34375 0.015625 0.671875l0 3.9375l-0.859375 0l0 -6.65625l1.34375 0l1.96875 5.421875l0.03125 0l2.03125 -5.421875l1.328125 0l0 6.65625l-0.890625 0l0 -3.984375q0 -0.296875 0 -0.625q0.015625 -0.328125 0.03125 -0.625q0.015625 -0.296875 0.03125 -0.484375l-0.046875 0l-2.125 5.71875l-0.796875 0zm10.8506775 -5.953125q-0.515625 0 -0.921875 0.1875q-0.40625 0.171875 -0.6875 0.515625q-0.28125 0.34375 -0.4375 0.828125q-0.140625 0.484375 -0.140625 1.09375q0 0.8125 0.234375 1.40625q0.234375 0.578125 0.71875 0.90625q0.484375 0.3125 1.21875 0.3125q0.4375 0 0.828125 -0.078125q0.40625 -0.09375 0.796875 -0.21875l0 0.796875q-0.375 0.15625 -0.78125 0.21875q-0.40625 0.078125 -0.953125 0.078125q-1.03125 0 -1.703125 -0.421875q-0.671875 -0.421875 -1.015625 -1.1875q-0.328125 -0.78125 -0.328125 -1.8125q0 -0.765625 0.203125 -1.390625q0.21875 -0.625 0.625 -1.078125q0.40625 -0.46875 0.984375 -0.703125q0.59375 -0.25 1.375 -0.25q0.5 0 0.96875 0.109375q0.484375 0.09375 0.875 0.296875l-0.34375 0.765625q-0.328125 -0.140625 -0.71875 -0.25q-0.375 -0.125 -0.796875 -0.125zm4.8625946 0.84375q0.921875 0 1.375 0.421875q0.46875 0.40625 0.46875 1.296875l0 3.390625l-0.65625 0l-0.171875 -0.734375l-0.03125 0q-0.21875 0.28125 -0.453125 0.46875q-0.21875 0.171875 -0.515625 0.265625q-0.296875 0.09375 -0.734375 0.09375q-0.453125 0 -0.8125 -0.15625q-0.34375 -0.171875 -0.546875 -0.5q-0.203125 -0.328125 -0.203125 -0.84375q0 -0.765625 0.578125 -1.15625q0.59375 -0.40625 1.78125 -0.4375l0.875 -0.03125l0 -0.296875q0 -0.578125 -0.265625 -0.8125q-0.265625 -0.25 -0.734375 -0.25q-0.390625 0 -0.75 0.109375q-0.34375 0.109375 -0.671875 0.265625l-0.296875 -0.65625q0.359375 -0.1875 0.8125 -0.3125q0.453125 -0.125 0.953125 -0.125zm0.9375 2.671875l-0.703125 0.03125q-0.859375 0.03125 -1.21875 0.296875q-0.359375 0.25 -0.359375 0.71875q0 0.390625 0.234375 0.578125q0.25 0.1875 0.65625 0.1875q0.609375 0 1.0 -0.34375q0.390625 -0.34375 0.390625 -1.015625l0 -0.453125zm4.844055 -2.671875q0.140625 0 0.296875 0.015625q0.15625 0.015625 0.28125 0.03125l-0.09375 0.859375q-0.109375 -0.03125 -0.265625 -0.046875q-0.140625 -0.015625 -0.265625 -0.015625q-0.28125 0 -0.546875 0.109375q-0.265625 0.109375 -0.46875 0.3125q-0.203125 0.203125 -0.3125 0.515625q-0.109375 0.296875 -0.109375 0.671875l0 2.65625l-0.921875 0l0 -5.015625l0.734375 0l0.109375 0.90625l0.046875 0q0.15625 -0.28125 0.375 -0.5q0.21875 -0.234375 0.5 -0.359375q0.296875 -0.140625 0.640625 -0.140625zm3.9170837 0q0.140625 0 0.296875 0.015625q0.15625 0.015625 0.28125 0.03125l-0.09375 0.859375q-0.109375 -0.03125 -0.265625 -0.046875q-0.140625 -0.015625 -0.265625 -0.015625q-0.28125 0 -0.546875 0.109375q-0.265625 0.109375 -0.46875 0.3125q-0.203125 0.203125 -0.3125 0.515625q-0.109375 0.296875 -0.109375 0.671875l0 2.65625l-0.921875 0l0 -5.015625l0.734375 0l0.109375 0.90625l0.046875 0q0.15625 -0.28125 0.375 -0.5q0.21875 -0.234375 0.5 -0.359375q0.296875 -0.140625 0.640625 -0.140625zm2.4170837 0.09375l0 5.015625l-0.90625 0l0 -5.015625l0.90625 0zm-0.4375 -1.90625q0.21875 0 0.375 0.140625q0.15625 0.125 0.15625 0.40625q0 0.28125 -0.15625 0.421875q-0.15625 0.125 -0.375 0.125q-0.234375 0 -0.390625 -0.125q-0.140625 -0.140625 -0.140625 -0.421875q0 -0.28125 0.140625 -0.40625q0.15625 -0.140625 0.390625 -0.140625zm3.9777832 1.8125q0.65625 0 1.125 0.28125q0.46875 0.28125 0.71875 0.796875q0.25 0.5 0.25 1.1875l0 0.53125l-3.40625 0q0.015625 0.796875 0.40625 1.234375q0.40625 0.421875 1.125 0.421875q0.484375 0 0.859375 -0.078125q0.375 -0.09375 0.765625 -0.28125l0 0.78125q-0.375 0.171875 -0.75 0.25q-0.375 0.078125 -0.90625 0.078125q-0.734375 0 -1.28125 -0.28125q-0.546875 -0.296875 -0.859375 -0.875q-0.296875 -0.578125 -0.296875 -1.40625q0 -0.828125 0.265625 -1.421875q0.28125 -0.59375 0.78125 -0.90625q0.515625 -0.3125 1.203125 -0.3125zm-0.015625 0.703125q-0.546875 0 -0.890625 0.375q-0.328125 0.359375 -0.390625 1.03125l2.46875 0q0 -0.421875 -0.140625 -0.734375q-0.125 -0.3125 -0.390625 -0.484375q-0.25 -0.1875 -0.65625 -0.1875zm5.7594147 -0.703125q0.140625 0 0.296875 0.015625q0.15625 0.015625 0.28125 0.03125l-0.09375 0.859375q-0.109375 -0.03125 -0.265625 -0.046875q-0.140625 -0.015625 -0.265625 -0.015625q-0.28125 0 -0.546875 0.109375q-0.265625 0.109375 -0.46875 0.3125q-0.203125 0.203125 -0.3125 0.515625q-0.109375 0.296875 -0.109375 0.671875l0 2.65625l-0.921875 0l0 -5.015625l0.734375 0l0.109375 0.90625l0.046875 0q0.15625 -0.28125 0.375 -0.5q0.21875 -0.234375 0.5 -0.359375q0.296875 -0.140625 0.640625 -0.140625zm11.762085 -1.546875l-1.75 6.65625l-1.0 0l-1.203125 -4.234375q-0.0625 -0.171875 -0.109375 -0.359375q-0.046875 -0.203125 -0.09375 -0.390625q-0.046875 -0.203125 -0.078125 -0.359375q-0.03125 -0.15625 -0.046875 -0.234375q-0.015625 0.078125 -0.046875 0.234375q-0.015625 0.15625 -0.0625 0.34375q-0.046875 0.1875 -0.09375 0.390625q-0.046875 0.203125 -0.09375 0.375l-1.1875 4.234375l-0.984375 0l-1.75 -6.65625l0.953125 0l1.015625 4.03125q0.046875 0.203125 0.09375 0.421875q0.046875 0.203125 0.078125 0.40625q0.046875 0.203125 0.078125 0.40625q0.03125 0.1875 0.0625 0.359375q0.015625 -0.171875 0.046875 -0.375q0.046875 -0.203125 0.09375 -0.40625q0.046875 -0.21875 0.09375 -0.421875q0.046875 -0.203125 0.109375 -0.390625l1.125 -4.03125l0.9375 0l1.1875 4.046875q0.046875 0.203125 0.09375 0.40625q0.0625 0.203125 0.09375 0.421875q0.046875 0.203125 0.078125 0.40625q0.046875 0.1875 0.078125 0.34375q0.03125 -0.21875 0.078125 -0.484375q0.046875 -0.265625 0.109375 -0.546875q0.0625 -0.28125 0.125 -0.5625l1.015625 -4.03125l0.953125 0zm2.8069916 1.546875q0.921875 0 1.375 0.421875q0.46875 0.40625 0.46875 1.296875l0 3.390625l-0.65625 0l-0.171875 -0.734375l-0.03125 0q-0.21875 0.28125 -0.453125 0.46875q-0.21875 0.171875 -0.515625 0.265625q-0.296875 0.09375 -0.734375 0.09375q-0.453125 0 -0.8125 -0.15625q-0.34375 -0.171875 -0.546875 -0.5q-0.203125 -0.328125 -0.203125 -0.84375q0 -0.765625 0.578125 -1.15625q0.59375 -0.40625 1.78125 -0.4375l0.875 -0.03125l0 -0.296875q0 -0.578125 -0.265625 -0.8125q-0.265625 -0.25 -0.734375 -0.25q-0.390625 0 -0.75 0.109375q-0.34375 0.109375 -0.671875 0.265625l-0.296875 -0.65625q0.359375 -0.1875 0.8125 -0.3125q0.453125 -0.125 0.953125 -0.125zm0.9375 2.671875l-0.703125 0.03125q-0.859375 0.03125 -1.21875 0.296875q-0.359375 0.25 -0.359375 0.71875q0 0.390625 0.234375 0.578125q0.25 0.1875 0.65625 0.1875q0.609375 0 1.0 -0.34375q0.390625 -0.34375 0.390625 -1.015625l0 -0.453125zm3.5628052 2.4375l-1.90625 -5.015625l0.96875 0l1.078125 2.984375q0.09375 0.296875 0.1875 0.65625q0.109375 0.34375 0.15625 0.578125l0.03125 0q0.046875 -0.234375 0.15625 -0.578125q0.109375 -0.359375 0.203125 -0.65625l1.0625 -2.984375l0.984375 0l-1.921875 5.015625l-1.0 0zm5.6672363 -5.109375q0.65625 0 1.125 0.28125q0.46875 0.28125 0.71875 0.796875q0.25 0.5 0.25 1.1875l0 0.53125l-3.40625 0q0.015625 0.796875 0.40625 1.234375q0.40625 0.421875 1.125 0.421875q0.484375 0 0.859375 -0.078125q0.375 -0.09375 0.765625 -0.28125l0 0.78125q-0.375 0.171875 -0.75 0.25q-0.375 0.078125 -0.90625 0.078125q-0.734375 0 -1.28125 -0.28125q-0.546875 -0.296875 -0.859375 -0.875q-0.296875 -0.578125 -0.296875 -1.40625q0 -0.828125 0.265625 -1.421875q0.28125 -0.59375 0.78125 -0.90625q0.515625 -0.3125 1.203125 -0.3125zm-0.015625 0.703125q-0.546875 0 -0.890625 0.375q-0.328125 0.359375 -0.390625 1.03125l2.46875 0q0 -0.421875 -0.140625 -0.734375q-0.125 -0.3125 -0.390625 -0.484375q-0.25 -0.1875 -0.65625 -0.1875z" fill-rule="nonzero"/></g></svg>