<?xml version="1.0" encoding="utf-8" standalone="no"?>
<!DOCTYPE svg PUBLIC "-//W3C//DTD SVG 1.1//EN"
  "http://www.w3.org/Graphics/SVG/1.1/DTD/svg11.dtd">
<svg xmlns:xlink="http://www.w3.org/1999/xlink" width="268.340625pt" height="179.465625pt" viewBox="0 0 268.340625 179.465625" xmlns="http://www.w3.org/2000/svg" version="1.1">
 <metadata>
  <rdf:RDF xmlns:dc="http://purl.org/dc/elements/1.1/" xmlns:cc="http://creativecommons.org/ns#" xmlns:rdf="http://www.w3.org/1999/02/22-rdf-syntax-ns#">
   <cc:Work>
    <dc:type rdf:resource="http://purl.org/dc/dcmitype/StillImage"/>
    <dc:date>2022-03-23T21:22:07.149661</dc:date>
    <dc:format>image/svg+xml</dc:format>
    <dc:creator>
     <cc:Agent>
      <dc:title>Matplotlib v3.5.1, https://matplotlib.org/</dc:title>
     </cc:Agent>
    </dc:creator>
   </cc:Work>
  </rdf:RDF>
 </metadata>
 <defs>
  <style type="text/css">*{stroke-linejoin: round; stroke-linecap: butt}</style>
 </defs>
 <g id="figure_1">
  <g id="patch_1">
   <path d="M 0 179.465625 
L 268.340625 179.465625 
L 268.340625 0 
L 0 0 
L 0 179.465625 
z
" style="fill: none"/>
  </g>
  <g id="axes_1">
   <g id="patch_2">
    <path d="M 37.940625 143.1 
L 261.140625 143.1 
L 261.140625 7.2 
L 37.940625 7.2 
z
" style="fill: #ffffff"/>
   </g>
   <g id="matplotlib.axis_1">
    <g id="xtick_1">
     <g id="line2d_1">
      <path d="M 48.08608 143.1 
L 48.08608 7.2 
" clip-path="url(#p17b08d9c4c)" style="fill: none; stroke-dasharray: 3.2,0.8,0.5,0.8; stroke-dashoffset: 0; stroke: #a9a9a9; stroke-width: 0.5"/>
     </g>
     <g id="line2d_2">
      <defs>
       <path id="mc09b6abbe0" d="M 0 0 
L 0 3.5 
" style="stroke: #000000; stroke-width: 0.8"/>
      </defs>
      <g>
       <use xlink:href="#mc09b6abbe0" x="48.08608" y="143.1" style="stroke: #000000; stroke-width: 0.8"/>
      </g>
     </g>
     <g id="text_1">
      <!-- 0.0 -->
      <g transform="translate(41.83608 157.04375)scale(0.1 -0.1)">
       <defs>
        <path id="TimesNewRomanPSMT-30" d="M 231 2094 
Q 231 2819 450 3342 
Q 669 3866 1031 4122 
Q 1313 4325 1613 4325 
Q 2100 4325 2488 3828 
Q 2972 3213 2972 2159 
Q 2972 1422 2759 906 
Q 2547 391 2217 158 
Q 1888 -75 1581 -75 
Q 975 -75 572 641 
Q 231 1244 231 2094 
z
M 844 2016 
Q 844 1141 1059 588 
Q 1238 122 1591 122 
Q 1759 122 1940 273 
Q 2122 425 2216 781 
Q 2359 1319 2359 2297 
Q 2359 3022 2209 3506 
Q 2097 3866 1919 4016 
Q 1791 4119 1609 4119 
Q 1397 4119 1231 3928 
Q 1006 3669 925 3112 
Q 844 2556 844 2016 
z
" transform="scale(0.015625)"/>
        <path id="TimesNewRomanPSMT-2e" d="M 800 606 
Q 947 606 1047 504 
Q 1147 403 1147 259 
Q 1147 116 1045 14 
Q 944 -88 800 -88 
Q 656 -88 554 14 
Q 453 116 453 259 
Q 453 406 554 506 
Q 656 606 800 606 
z
" transform="scale(0.015625)"/>
       </defs>
       <use xlink:href="#TimesNewRomanPSMT-30"/>
       <use xlink:href="#TimesNewRomanPSMT-2e" x="50"/>
       <use xlink:href="#TimesNewRomanPSMT-30" x="75"/>
      </g>
     </g>
    </g>
    <g id="xtick_2">
     <g id="line2d_3">
      <path d="M 88.667898 143.1 
L 88.667898 7.2 
" clip-path="url(#p17b08d9c4c)" style="fill: none; stroke-dasharray: 3.2,0.8,0.5,0.8; stroke-dashoffset: 0; stroke: #a9a9a9; stroke-width: 0.5"/>
     </g>
     <g id="line2d_4">
      <g>
       <use xlink:href="#mc09b6abbe0" x="88.667898" y="143.1" style="stroke: #000000; stroke-width: 0.8"/>
      </g>
     </g>
     <g id="text_2">
      <!-- 0.2 -->
      <g transform="translate(82.417898 157.04375)scale(0.1 -0.1)">
       <defs>
        <path id="TimesNewRomanPSMT-32" d="M 2934 816 
L 2638 0 
L 138 0 
L 138 116 
Q 1241 1122 1691 1759 
Q 2141 2397 2141 2925 
Q 2141 3328 1894 3587 
Q 1647 3847 1303 3847 
Q 991 3847 742 3664 
Q 494 3481 375 3128 
L 259 3128 
Q 338 3706 661 4015 
Q 984 4325 1469 4325 
Q 1984 4325 2329 3994 
Q 2675 3663 2675 3213 
Q 2675 2891 2525 2569 
Q 2294 2063 1775 1497 
Q 997 647 803 472 
L 1909 472 
Q 2247 472 2383 497 
Q 2519 522 2628 598 
Q 2738 675 2819 816 
L 2934 816 
z
" transform="scale(0.015625)"/>
       </defs>
       <use xlink:href="#TimesNewRomanPSMT-30"/>
       <use xlink:href="#TimesNewRomanPSMT-2e" x="50"/>
       <use xlink:href="#TimesNewRomanPSMT-32" x="75"/>
      </g>
     </g>
    </g>
    <g id="xtick_3">
     <g id="line2d_5">
      <path d="M 129.249716 143.1 
L 129.249716 7.2 
" clip-path="url(#p17b08d9c4c)" style="fill: none; stroke-dasharray: 3.2,0.8,0.5,0.8; stroke-dashoffset: 0; stroke: #a9a9a9; stroke-width: 0.5"/>
     </g>
     <g id="line2d_6">
      <g>
       <use xlink:href="#mc09b6abbe0" x="129.249716" y="143.1" style="stroke: #000000; stroke-width: 0.8"/>
      </g>
     </g>
     <g id="text_3">
      <!-- 0.4 -->
      <g transform="translate(122.999716 157.04375)scale(0.1 -0.1)">
       <defs>
        <path id="TimesNewRomanPSMT-34" d="M 2978 1563 
L 2978 1119 
L 2409 1119 
L 2409 0 
L 1894 0 
L 1894 1119 
L 100 1119 
L 100 1519 
L 2066 4325 
L 2409 4325 
L 2409 1563 
L 2978 1563 
z
M 1894 1563 
L 1894 3666 
L 406 1563 
L 1894 1563 
z
" transform="scale(0.015625)"/>
       </defs>
       <use xlink:href="#TimesNewRomanPSMT-30"/>
       <use xlink:href="#TimesNewRomanPSMT-2e" x="50"/>
       <use xlink:href="#TimesNewRomanPSMT-34" x="75"/>
      </g>
     </g>
    </g>
    <g id="xtick_4">
     <g id="line2d_7">
      <path d="M 169.831534 143.1 
L 169.831534 7.2 
" clip-path="url(#p17b08d9c4c)" style="fill: none; stroke-dasharray: 3.2,0.8,0.5,0.8; stroke-dashoffset: 0; stroke: #a9a9a9; stroke-width: 0.5"/>
     </g>
     <g id="line2d_8">
      <g>
       <use xlink:href="#mc09b6abbe0" x="169.831534" y="143.1" style="stroke: #000000; stroke-width: 0.8"/>
      </g>
     </g>
     <g id="text_4">
      <!-- 0.6 -->
      <g transform="translate(163.581534 157.04375)scale(0.1 -0.1)">
       <defs>
        <path id="TimesNewRomanPSMT-36" d="M 2869 4325 
L 2869 4209 
Q 2456 4169 2195 4045 
Q 1934 3922 1679 3669 
Q 1425 3416 1258 3105 
Q 1091 2794 978 2366 
Q 1428 2675 1881 2675 
Q 2316 2675 2634 2325 
Q 2953 1975 2953 1425 
Q 2953 894 2631 456 
Q 2244 -75 1606 -75 
Q 1172 -75 869 213 
Q 275 772 275 1663 
Q 275 2231 503 2743 
Q 731 3256 1154 3653 
Q 1578 4050 1965 4187 
Q 2353 4325 2688 4325 
L 2869 4325 
z
M 925 2138 
Q 869 1716 869 1456 
Q 869 1156 980 804 
Q 1091 453 1309 247 
Q 1469 100 1697 100 
Q 1969 100 2183 356 
Q 2397 613 2397 1088 
Q 2397 1622 2184 2012 
Q 1972 2403 1581 2403 
Q 1463 2403 1327 2353 
Q 1191 2303 925 2138 
z
" transform="scale(0.015625)"/>
       </defs>
       <use xlink:href="#TimesNewRomanPSMT-30"/>
       <use xlink:href="#TimesNewRomanPSMT-2e" x="50"/>
       <use xlink:href="#TimesNewRomanPSMT-36" x="75"/>
      </g>
     </g>
    </g>
    <g id="xtick_5">
     <g id="line2d_9">
      <path d="M 210.413352 143.1 
L 210.413352 7.2 
" clip-path="url(#p17b08d9c4c)" style="fill: none; stroke-dasharray: 3.2,0.8,0.5,0.8; stroke-dashoffset: 0; stroke: #a9a9a9; stroke-width: 0.5"/>
     </g>
     <g id="line2d_10">
      <g>
       <use xlink:href="#mc09b6abbe0" x="210.413352" y="143.1" style="stroke: #000000; stroke-width: 0.8"/>
      </g>
     </g>
     <g id="text_5">
      <!-- 0.8 -->
      <g transform="translate(204.163352 157.04375)scale(0.1 -0.1)">
       <defs>
        <path id="TimesNewRomanPSMT-38" d="M 1228 2134 
Q 725 2547 579 2797 
Q 434 3047 434 3316 
Q 434 3728 753 4026 
Q 1072 4325 1600 4325 
Q 2113 4325 2425 4047 
Q 2738 3769 2738 3413 
Q 2738 3175 2569 2928 
Q 2400 2681 1866 2347 
Q 2416 1922 2594 1678 
Q 2831 1359 2831 1006 
Q 2831 559 2490 242 
Q 2150 -75 1597 -75 
Q 994 -75 656 303 
Q 388 606 388 966 
Q 388 1247 577 1523 
Q 766 1800 1228 2134 
z
M 1719 2469 
Q 2094 2806 2194 3001 
Q 2294 3197 2294 3444 
Q 2294 3772 2109 3958 
Q 1925 4144 1606 4144 
Q 1288 4144 1088 3959 
Q 888 3775 888 3528 
Q 888 3366 970 3203 
Q 1053 3041 1206 2894 
L 1719 2469 
z
M 1375 2016 
Q 1116 1797 991 1539 
Q 866 1281 866 981 
Q 866 578 1086 336 
Q 1306 94 1647 94 
Q 1984 94 2187 284 
Q 2391 475 2391 747 
Q 2391 972 2272 1150 
Q 2050 1481 1375 2016 
z
" transform="scale(0.015625)"/>
       </defs>
       <use xlink:href="#TimesNewRomanPSMT-30"/>
       <use xlink:href="#TimesNewRomanPSMT-2e" x="50"/>
       <use xlink:href="#TimesNewRomanPSMT-38" x="75"/>
      </g>
     </g>
    </g>
    <g id="xtick_6">
     <g id="line2d_11">
      <path d="M 250.99517 143.1 
L 250.99517 7.2 
" clip-path="url(#p17b08d9c4c)" style="fill: none; stroke-dasharray: 3.2,0.8,0.5,0.8; stroke-dashoffset: 0; stroke: #a9a9a9; stroke-width: 0.5"/>
     </g>
     <g id="line2d_12">
      <g>
       <use xlink:href="#mc09b6abbe0" x="250.99517" y="143.1" style="stroke: #000000; stroke-width: 0.8"/>
      </g>
     </g>
     <g id="text_6">
      <!-- 1.0 -->
      <g transform="translate(244.74517 157.04375)scale(0.1 -0.1)">
       <defs>
        <path id="TimesNewRomanPSMT-31" d="M 750 3822 
L 1781 4325 
L 1884 4325 
L 1884 747 
Q 1884 391 1914 303 
Q 1944 216 2037 169 
Q 2131 122 2419 116 
L 2419 0 
L 825 0 
L 825 116 
Q 1125 122 1212 167 
Q 1300 213 1334 289 
Q 1369 366 1369 747 
L 1369 3034 
Q 1369 3497 1338 3628 
Q 1316 3728 1258 3775 
Q 1200 3822 1119 3822 
Q 1003 3822 797 3725 
L 750 3822 
z
" transform="scale(0.015625)"/>
       </defs>
       <use xlink:href="#TimesNewRomanPSMT-31"/>
       <use xlink:href="#TimesNewRomanPSMT-2e" x="50"/>
       <use xlink:href="#TimesNewRomanPSMT-30" x="75"/>
      </g>
     </g>
    </g>
    <g id="text_7">
     <!-- time [s] -->
     <g transform="translate(134.128125 170.126563)scale(0.1 -0.1)">
      <defs>
       <path id="TimesNewRomanPSMT-74" d="M 1031 3803 
L 1031 2863 
L 1700 2863 
L 1700 2644 
L 1031 2644 
L 1031 788 
Q 1031 509 1111 412 
Q 1191 316 1316 316 
Q 1419 316 1516 380 
Q 1613 444 1666 569 
L 1788 569 
Q 1678 263 1478 108 
Q 1278 -47 1066 -47 
Q 922 -47 784 33 
Q 647 113 581 261 
Q 516 409 516 719 
L 516 2644 
L 63 2644 
L 63 2747 
Q 234 2816 414 2980 
Q 594 3144 734 3369 
Q 806 3488 934 3803 
L 1031 3803 
z
" transform="scale(0.015625)"/>
       <path id="TimesNewRomanPSMT-69" d="M 928 4444 
Q 1059 4444 1151 4351 
Q 1244 4259 1244 4128 
Q 1244 3997 1151 3903 
Q 1059 3809 928 3809 
Q 797 3809 703 3903 
Q 609 3997 609 4128 
Q 609 4259 701 4351 
Q 794 4444 928 4444 
z
M 1188 2947 
L 1188 647 
Q 1188 378 1227 289 
Q 1266 200 1342 156 
Q 1419 113 1622 113 
L 1622 0 
L 231 0 
L 231 113 
Q 441 113 512 153 
Q 584 194 626 287 
Q 669 381 669 647 
L 669 1750 
Q 669 2216 641 2353 
Q 619 2453 572 2492 
Q 525 2531 444 2531 
Q 356 2531 231 2484 
L 188 2597 
L 1050 2947 
L 1188 2947 
z
" transform="scale(0.015625)"/>
       <path id="TimesNewRomanPSMT-6d" d="M 1050 2338 
Q 1363 2650 1419 2697 
Q 1559 2816 1721 2881 
Q 1884 2947 2044 2947 
Q 2313 2947 2506 2790 
Q 2700 2634 2766 2338 
Q 3088 2713 3309 2830 
Q 3531 2947 3766 2947 
Q 3994 2947 4170 2830 
Q 4347 2713 4450 2447 
Q 4519 2266 4519 1878 
L 4519 647 
Q 4519 378 4559 278 
Q 4591 209 4675 161 
Q 4759 113 4950 113 
L 4950 0 
L 3538 0 
L 3538 113 
L 3597 113 
Q 3781 113 3884 184 
Q 3956 234 3988 344 
Q 4000 397 4000 647 
L 4000 1878 
Q 4000 2228 3916 2372 
Q 3794 2572 3525 2572 
Q 3359 2572 3192 2489 
Q 3025 2406 2788 2181 
L 2781 2147 
L 2788 2013 
L 2788 647 
Q 2788 353 2820 281 
Q 2853 209 2943 161 
Q 3034 113 3253 113 
L 3253 0 
L 1806 0 
L 1806 113 
Q 2044 113 2133 169 
Q 2222 225 2256 338 
Q 2272 391 2272 647 
L 2272 1878 
Q 2272 2228 2169 2381 
Q 2031 2581 1784 2581 
Q 1616 2581 1450 2491 
Q 1191 2353 1050 2181 
L 1050 647 
Q 1050 366 1089 281 
Q 1128 197 1204 155 
Q 1281 113 1516 113 
L 1516 0 
L 100 0 
L 100 113 
Q 297 113 375 155 
Q 453 197 493 289 
Q 534 381 534 647 
L 534 1741 
Q 534 2213 506 2350 
Q 484 2453 437 2492 
Q 391 2531 309 2531 
Q 222 2531 100 2484 
L 53 2597 
L 916 2947 
L 1050 2947 
L 1050 2338 
z
" transform="scale(0.015625)"/>
       <path id="TimesNewRomanPSMT-65" d="M 681 1784 
Q 678 1147 991 784 
Q 1303 422 1725 422 
Q 2006 422 2214 576 
Q 2422 731 2563 1106 
L 2659 1044 
Q 2594 616 2278 264 
Q 1963 -88 1488 -88 
Q 972 -88 605 314 
Q 238 716 238 1394 
Q 238 2128 614 2539 
Q 991 2950 1559 2950 
Q 2041 2950 2350 2633 
Q 2659 2316 2659 1784 
L 681 1784 
z
M 681 1966 
L 2006 1966 
Q 1991 2241 1941 2353 
Q 1863 2528 1708 2628 
Q 1553 2728 1384 2728 
Q 1125 2728 920 2526 
Q 716 2325 681 1966 
z
" transform="scale(0.015625)"/>
       <path id="TimesNewRomanPSMT-20" transform="scale(0.015625)"/>
       <path id="TimesNewRomanPSMT-5b" d="M 1900 -1269 
L 525 -1269 
L 525 4334 
L 1900 4334 
L 1900 4088 
L 994 4088 
L 994 -1025 
L 1900 -1025 
L 1900 -1269 
z
" transform="scale(0.015625)"/>
       <path id="TimesNewRomanPSMT-73" d="M 2050 2947 
L 2050 1972 
L 1947 1972 
Q 1828 2431 1642 2597 
Q 1456 2763 1169 2763 
Q 950 2763 815 2647 
Q 681 2531 681 2391 
Q 681 2216 781 2091 
Q 878 1963 1175 1819 
L 1631 1597 
Q 2266 1288 2266 781 
Q 2266 391 1970 151 
Q 1675 -88 1309 -88 
Q 1047 -88 709 6 
Q 606 38 541 38 
Q 469 38 428 -44 
L 325 -44 
L 325 978 
L 428 978 
Q 516 541 762 319 
Q 1009 97 1316 97 
Q 1531 97 1667 223 
Q 1803 350 1803 528 
Q 1803 744 1651 891 
Q 1500 1038 1047 1263 
Q 594 1488 453 1669 
Q 313 1847 313 2119 
Q 313 2472 555 2709 
Q 797 2947 1181 2947 
Q 1350 2947 1591 2875 
Q 1750 2828 1803 2828 
Q 1853 2828 1881 2850 
Q 1909 2872 1947 2947 
L 2050 2947 
z
" transform="scale(0.015625)"/>
       <path id="TimesNewRomanPSMT-5d" d="M 234 4334 
L 1609 4334 
L 1609 -1272 
L 234 -1272 
L 234 -1025 
L 1141 -1025 
L 1141 4088 
L 234 4088 
L 234 4334 
z
" transform="scale(0.015625)"/>
      </defs>
      <use xlink:href="#TimesNewRomanPSMT-74"/>
      <use xlink:href="#TimesNewRomanPSMT-69" x="27.783203"/>
      <use xlink:href="#TimesNewRomanPSMT-6d" x="55.566406"/>
      <use xlink:href="#TimesNewRomanPSMT-65" x="133.349609"/>
      <use xlink:href="#TimesNewRomanPSMT-20" x="177.734375"/>
      <use xlink:href="#TimesNewRomanPSMT-5b" x="202.734375"/>
      <use xlink:href="#TimesNewRomanPSMT-73" x="236.035156"/>
      <use xlink:href="#TimesNewRomanPSMT-5d" x="274.951172"/>
     </g>
    </g>
   </g>
   <g id="matplotlib.axis_2">
    <g id="ytick_1">
     <g id="line2d_13">
      <path d="M 37.940625 143.1 
L 261.140625 143.1 
" clip-path="url(#p17b08d9c4c)" style="fill: none; stroke-dasharray: 3.2,0.8,0.5,0.8; stroke-dashoffset: 0; stroke: #a9a9a9; stroke-width: 0.5"/>
     </g>
     <g id="line2d_14">
      <defs>
       <path id="md60c03ac76" d="M 0 0 
L -3.5 0 
" style="stroke: #000000; stroke-width: 0.8"/>
      </defs>
      <g>
       <use xlink:href="#md60c03ac76" x="37.940625" y="143.1" style="stroke: #000000; stroke-width: 0.8"/>
      </g>
     </g>
     <g id="text_8">
      <!-- −5 -->
      <g transform="translate(20.301563 146.571875)scale(0.1 -0.1)">
       <defs>
        <path id="TimesNewRomanPSMT-2212" d="M 3484 2000 
L 116 2000 
L 116 2256 
L 3484 2256 
L 3484 2000 
z
" transform="scale(0.015625)"/>
        <path id="TimesNewRomanPSMT-35" d="M 2778 4238 
L 2534 3706 
L 1259 3706 
L 981 3138 
Q 1809 3016 2294 2522 
Q 2709 2097 2709 1522 
Q 2709 1188 2573 903 
Q 2438 619 2231 419 
Q 2025 219 1772 97 
Q 1413 -75 1034 -75 
Q 653 -75 479 54 
Q 306 184 306 341 
Q 306 428 378 495 
Q 450 563 559 563 
Q 641 563 702 538 
Q 763 513 909 409 
Q 1144 247 1384 247 
Q 1750 247 2026 523 
Q 2303 800 2303 1197 
Q 2303 1581 2056 1914 
Q 1809 2247 1375 2428 
Q 1034 2569 447 2591 
L 1259 4238 
L 2778 4238 
z
" transform="scale(0.015625)"/>
       </defs>
       <use xlink:href="#TimesNewRomanPSMT-2212"/>
       <use xlink:href="#TimesNewRomanPSMT-35" x="56.396484"/>
      </g>
     </g>
    </g>
    <g id="ytick_2">
     <g id="line2d_15">
      <path d="M 37.940625 110.742857 
L 261.140625 110.742857 
" clip-path="url(#p17b08d9c4c)" style="fill: none; stroke-dasharray: 3.2,0.8,0.5,0.8; stroke-dashoffset: 0; stroke: #a9a9a9; stroke-width: 0.5"/>
     </g>
     <g id="line2d_16">
      <g>
       <use xlink:href="#md60c03ac76" x="37.940625" y="110.742857" style="stroke: #000000; stroke-width: 0.8"/>
      </g>
     </g>
     <g id="text_9">
      <!-- 0 -->
      <g transform="translate(25.940625 114.214732)scale(0.1 -0.1)">
       <use xlink:href="#TimesNewRomanPSMT-30"/>
      </g>
     </g>
    </g>
    <g id="ytick_3">
     <g id="line2d_17">
      <path d="M 37.940625 78.385714 
L 261.140625 78.385714 
" clip-path="url(#p17b08d9c4c)" style="fill: none; stroke-dasharray: 3.2,0.8,0.5,0.8; stroke-dashoffset: 0; stroke: #a9a9a9; stroke-width: 0.5"/>
     </g>
     <g id="line2d_18">
      <g>
       <use xlink:href="#md60c03ac76" x="37.940625" y="78.385714" style="stroke: #000000; stroke-width: 0.8"/>
      </g>
     </g>
     <g id="text_10">
      <!-- 5 -->
      <g transform="translate(25.940625 81.857589)scale(0.1 -0.1)">
       <use xlink:href="#TimesNewRomanPSMT-35"/>
      </g>
     </g>
    </g>
    <g id="ytick_4">
     <g id="line2d_19">
      <path d="M 37.940625 46.028571 
L 261.140625 46.028571 
" clip-path="url(#p17b08d9c4c)" style="fill: none; stroke-dasharray: 3.2,0.8,0.5,0.8; stroke-dashoffset: 0; stroke: #a9a9a9; stroke-width: 0.5"/>
     </g>
     <g id="line2d_20">
      <g>
       <use xlink:href="#md60c03ac76" x="37.940625" y="46.028571" style="stroke: #000000; stroke-width: 0.8"/>
      </g>
     </g>
     <g id="text_11">
      <!-- 10 -->
      <g transform="translate(20.940625 49.500446)scale(0.1 -0.1)">
       <use xlink:href="#TimesNewRomanPSMT-31"/>
       <use xlink:href="#TimesNewRomanPSMT-30" x="50"/>
      </g>
     </g>
    </g>
    <g id="ytick_5">
     <g id="line2d_21">
      <path d="M 37.940625 13.671429 
L 261.140625 13.671429 
" clip-path="url(#p17b08d9c4c)" style="fill: none; stroke-dasharray: 3.2,0.8,0.5,0.8; stroke-dashoffset: 0; stroke: #a9a9a9; stroke-width: 0.5"/>
     </g>
     <g id="line2d_22">
      <g>
       <use xlink:href="#md60c03ac76" x="37.940625" y="13.671429" style="stroke: #000000; stroke-width: 0.8"/>
      </g>
     </g>
     <g id="text_12">
      <!-- 15 -->
      <g transform="translate(20.940625 17.143304)scale(0.1 -0.1)">
       <use xlink:href="#TimesNewRomanPSMT-31"/>
       <use xlink:href="#TimesNewRomanPSMT-35" x="50"/>
      </g>
     </g>
    </g>
    <g id="text_13">
     <!-- Voltage [V] -->
     <g transform="translate(14.14375 98.525)rotate(-90)scale(0.1 -0.1)">
      <defs>
       <path id="TimesNewRomanPSMT-56" d="M 4544 4238 
L 4544 4122 
Q 4319 4081 4203 3978 
Q 4038 3825 3909 3509 
L 2431 -97 
L 2316 -97 
L 728 3556 
Q 606 3838 556 3900 
Q 478 3997 364 4051 
Q 250 4106 56 4122 
L 56 4238 
L 1788 4238 
L 1788 4122 
Q 1494 4094 1406 4022 
Q 1319 3950 1319 3838 
Q 1319 3681 1463 3350 
L 2541 866 
L 3541 3319 
Q 3688 3681 3688 3822 
Q 3688 3913 3597 3995 
Q 3506 4078 3291 4113 
Q 3275 4116 3238 4122 
L 3238 4238 
L 4544 4238 
z
" transform="scale(0.015625)"/>
       <path id="TimesNewRomanPSMT-6f" d="M 1600 2947 
Q 2250 2947 2644 2453 
Q 2978 2031 2978 1484 
Q 2978 1100 2793 706 
Q 2609 313 2286 112 
Q 1963 -88 1566 -88 
Q 919 -88 538 428 
Q 216 863 216 1403 
Q 216 1797 411 2186 
Q 606 2575 925 2761 
Q 1244 2947 1600 2947 
z
M 1503 2744 
Q 1338 2744 1170 2645 
Q 1003 2547 900 2300 
Q 797 2053 797 1666 
Q 797 1041 1045 587 
Q 1294 134 1700 134 
Q 2003 134 2200 384 
Q 2397 634 2397 1244 
Q 2397 2006 2069 2444 
Q 1847 2744 1503 2744 
z
" transform="scale(0.015625)"/>
       <path id="TimesNewRomanPSMT-6c" d="M 1184 4444 
L 1184 647 
Q 1184 378 1223 290 
Q 1263 203 1344 158 
Q 1425 113 1647 113 
L 1647 0 
L 244 0 
L 244 113 
Q 441 113 512 153 
Q 584 194 625 287 
Q 666 381 666 647 
L 666 3247 
Q 666 3731 644 3842 
Q 622 3953 573 3993 
Q 525 4034 450 4034 
Q 369 4034 244 3984 
L 191 4094 
L 1044 4444 
L 1184 4444 
z
" transform="scale(0.015625)"/>
       <path id="TimesNewRomanPSMT-61" d="M 1822 413 
Q 1381 72 1269 19 
Q 1100 -59 909 -59 
Q 613 -59 420 144 
Q 228 347 228 678 
Q 228 888 322 1041 
Q 450 1253 767 1440 
Q 1084 1628 1822 1897 
L 1822 2009 
Q 1822 2438 1686 2597 
Q 1550 2756 1291 2756 
Q 1094 2756 978 2650 
Q 859 2544 859 2406 
L 866 2225 
Q 866 2081 792 2003 
Q 719 1925 600 1925 
Q 484 1925 411 2006 
Q 338 2088 338 2228 
Q 338 2497 613 2722 
Q 888 2947 1384 2947 
Q 1766 2947 2009 2819 
Q 2194 2722 2281 2516 
Q 2338 2381 2338 1966 
L 2338 994 
Q 2338 584 2353 492 
Q 2369 400 2405 369 
Q 2441 338 2488 338 
Q 2538 338 2575 359 
Q 2641 400 2828 588 
L 2828 413 
Q 2478 -56 2159 -56 
Q 2006 -56 1915 50 
Q 1825 156 1822 413 
z
M 1822 616 
L 1822 1706 
Q 1350 1519 1213 1441 
Q 966 1303 859 1153 
Q 753 1003 753 825 
Q 753 600 887 451 
Q 1022 303 1197 303 
Q 1434 303 1822 616 
z
" transform="scale(0.015625)"/>
       <path id="TimesNewRomanPSMT-67" d="M 966 1044 
Q 703 1172 562 1401 
Q 422 1631 422 1909 
Q 422 2334 742 2640 
Q 1063 2947 1563 2947 
Q 1972 2947 2272 2747 
L 2878 2747 
Q 3013 2747 3034 2739 
Q 3056 2731 3066 2713 
Q 3084 2684 3084 2613 
Q 3084 2531 3069 2500 
Q 3059 2484 3036 2475 
Q 3013 2466 2878 2466 
L 2506 2466 
Q 2681 2241 2681 1891 
Q 2681 1491 2375 1206 
Q 2069 922 1553 922 
Q 1341 922 1119 984 
Q 981 866 932 777 
Q 884 688 884 625 
Q 884 572 936 522 
Q 988 472 1138 450 
Q 1225 438 1575 428 
Q 2219 413 2409 384 
Q 2700 344 2873 169 
Q 3047 -6 3047 -263 
Q 3047 -616 2716 -925 
Q 2228 -1381 1444 -1381 
Q 841 -1381 425 -1109 
Q 191 -953 191 -784 
Q 191 -709 225 -634 
Q 278 -519 444 -313 
Q 466 -284 763 25 
Q 600 122 533 198 
Q 466 275 466 372 
Q 466 481 555 628 
Q 644 775 966 1044 
z
M 1509 2797 
Q 1278 2797 1122 2612 
Q 966 2428 966 2047 
Q 966 1553 1178 1281 
Q 1341 1075 1591 1075 
Q 1828 1075 1981 1253 
Q 2134 1431 2134 1813 
Q 2134 2309 1919 2591 
Q 1759 2797 1509 2797 
z
M 934 0 
Q 788 -159 713 -296 
Q 638 -434 638 -550 
Q 638 -700 819 -813 
Q 1131 -1006 1722 -1006 
Q 2284 -1006 2551 -807 
Q 2819 -609 2819 -384 
Q 2819 -222 2659 -153 
Q 2497 -84 2016 -72 
Q 1313 -53 934 0 
z
" transform="scale(0.015625)"/>
      </defs>
      <use xlink:href="#TimesNewRomanPSMT-56"/>
      <use xlink:href="#TimesNewRomanPSMT-6f" x="59.341797"/>
      <use xlink:href="#TimesNewRomanPSMT-6c" x="109.341797"/>
      <use xlink:href="#TimesNewRomanPSMT-74" x="137.125"/>
      <use xlink:href="#TimesNewRomanPSMT-61" x="164.908203"/>
      <use xlink:href="#TimesNewRomanPSMT-67" x="209.292969"/>
      <use xlink:href="#TimesNewRomanPSMT-65" x="259.292969"/>
      <use xlink:href="#TimesNewRomanPSMT-20" x="303.677734"/>
      <use xlink:href="#TimesNewRomanPSMT-5b" x="328.677734"/>
      <use xlink:href="#TimesNewRomanPSMT-56" x="361.978516"/>
      <use xlink:href="#TimesNewRomanPSMT-5d" x="434.195312"/>
     </g>
    </g>
   </g>
   <g id="line2d_23">
    <path d="M 48.08608 31.978005 
L 48.491898 32.147616 
L 49.709352 33.143562 
L 50.11517 33.553579 
L 50.520989 34.184544 
L 52.144261 34.842083 
L 52.955898 35.531111 
L 53.361716 35.610629 
L 53.767534 35.377808 
L 54.173352 35.563194 
L 54.57917 35.486024 
L 54.984989 35.611651 
L 55.796625 36.122751 
L 56.202443 35.842132 
L 56.608261 36.414391 
L 57.01408 36.312862 
L 57.825716 36.371903 
L 58.231534 35.972151 
L 58.637352 36.874545 
L 59.04317 36.734684 
L 59.448989 36.265531 
L 59.854807 36.440926 
L 60.260625 36.260043 
L 60.666443 36.33828 
L 61.072261 35.999827 
L 61.47808 35.931152 
L 61.883898 36.556607 
L 62.289716 36.503944 
L 62.695534 35.586345 
L 63.101352 35.995147 
L 63.50717 36.156893 
L 63.912989 35.827913 
L 64.318807 37.538023 
L 64.724625 35.941846 
L 65.130443 35.720037 
L 65.536261 36.580662 
L 65.94208 35.468753 
L 66.347898 35.437026 
L 66.753716 35.806672 
L 67.159534 35.178284 
L 67.565352 35.42531 
L 67.97117 34.242 
L 68.376989 34.391267 
L 68.782807 34.683632 
L 69.188625 34.57963 
L 70.000261 34.625206 
L 70.40608 34.324043 
L 70.811898 34.404583 
L 72.029352 34.281718 
L 72.43517 34.476561 
L 72.840989 34.172332 
L 73.246807 33.544595 
L 73.652625 33.624831 
L 74.464261 32.949393 
L 74.87008 32.834482 
L 75.275898 32.395138 
L 75.681716 32.500428 
L 76.087534 32.056174 
L 76.493352 31.116721 
L 76.89917 31.117965 
L 77.304989 31.23041 
L 78.116625 30.487473 
L 78.522443 30.390529 
L 78.928261 30.136608 
L 79.33408 30.027822 
L 79.739898 29.631492 
L 80.145716 29.970463 
L 80.551534 29.756505 
L 80.957352 29.025329 
L 81.36317 29.194785 
L 81.768989 28.869211 
L 82.174807 28.027072 
L 82.580625 29.137048 
L 82.986443 29.023766 
L 83.392261 28.693468 
L 83.79808 28.920386 
L 84.203898 28.688365 
L 84.609716 29.289833 
L 85.015534 28.891177 
L 85.421352 29.921065 
L 85.82717 29.686792 
L 86.232989 29.894811 
L 86.638807 29.934307 
L 87.450443 30.786578 
L 87.856261 31.817747 
L 88.26208 31.369642 
L 88.667898 31.916365 
L 89.073716 31.186892 
L 89.479534 32.379622 
L 90.696989 33.780297 
L 91.102807 33.839626 
L 91.508625 34.224803 
L 92.320261 34.387905 
L 92.72608 35.092478 
L 93.131898 34.869322 
L 93.537716 35.476152 
L 93.943534 35.451327 
L 94.349352 35.693035 
L 94.75517 35.613406 
L 95.160989 35.341667 
L 95.566807 35.595025 
L 95.972625 35.399722 
L 96.378443 35.505287 
L 96.784261 36.034531 
L 97.19008 36.008455 
L 98.001716 36.851661 
L 98.407534 35.724125 
L 98.813352 36.286453 
L 99.624989 36.372873 
L 100.030807 36.891986 
L 100.842443 35.67512 
L 101.248261 35.953044 
L 102.059898 37.117224 
L 102.465716 36.639362 
L 102.871534 35.919806 
L 103.68317 36.373769 
L 104.088989 35.917162 
L 104.494807 36.12524 
L 104.900625 36.202099 
L 105.306443 36.634207 
L 105.712261 35.790823 
L 106.523898 36.002619 
L 106.929716 35.454141 
L 107.335534 35.718282 
L 107.741352 35.126161 
L 108.14717 35.33809 
L 108.552989 34.325532 
L 108.958807 34.613246 
L 109.364625 34.462312 
L 109.770443 34.906492 
L 110.176261 34.35597 
L 110.58208 34.354215 
L 110.987898 34.584289 
L 111.799534 34.699548 
L 112.205352 34.529403 
L 112.61117 34.493062 
L 113.016989 34.027545 
L 113.422807 34.152921 
L 114.234443 33.718065 
L 115.04608 32.793905 
L 115.451898 32.585916 
L 115.857716 32.251877 
L 116.263534 32.135315 
L 116.669352 31.584881 
L 117.07517 31.542697 
L 117.480989 31.180419 
L 117.886807 31.252998 
L 118.292625 30.459168 
L 118.698443 30.22525 
L 119.104261 30.293585 
L 120.321716 29.400619 
L 120.727534 29.283871 
L 121.133352 29.78878 
L 121.53917 29.546442 
L 121.944989 28.962311 
L 122.350807 29.007762 
L 122.756625 29.239998 
L 123.162443 28.888481 
L 123.568261 28.697696 
L 123.97408 28.764528 
L 124.785716 29.44695 
L 125.191534 29.38 
L 125.597352 28.55031 
L 126.00317 29.220735 
L 126.408989 30.181562 
L 126.814807 29.652044 
L 127.220625 30.256503 
L 127.626443 30.296022 
L 128.032261 31.002773 
L 128.843898 31.259471 
L 129.249716 31.891481 
L 129.655534 31.044335 
L 130.061352 32.566327 
L 130.46717 33.147517 
L 130.872989 33.210127 
L 131.278807 33.498908 
L 131.684625 34.016673 
L 132.496261 34.204888 
L 132.90208 34.895872 
L 133.307898 34.929784 
L 133.713716 35.104631 
L 134.119534 35.119503 
L 134.525352 35.438707 
L 134.93117 35.253306 
L 135.742807 35.521306 
L 136.148625 35.847175 
L 136.554443 35.557558 
L 136.960261 35.536095 
L 137.36608 36.096127 
L 137.771898 35.283322 
L 138.177716 36.261472 
L 138.583534 36.908279 
L 138.989352 36.288534 
L 139.800989 36.873183 
L 140.206807 36.551186 
L 140.612625 36.885477 
L 141.424261 36.288312 
L 141.83008 36.835812 
L 142.235898 36.136749 
L 142.641716 35.712239 
L 143.047534 36.278928 
L 143.453352 36.434083 
L 143.85917 35.926271 
L 144.670807 36.628882 
L 145.076625 35.222483 
L 145.482443 36.430039 
L 145.888261 36.138333 
L 146.29408 35.67746 
L 146.699898 35.75329 
L 147.105716 35.997531 
L 147.511534 35.880813 
L 148.32317 35.206397 
L 148.728989 34.831825 
L 149.134807 34.788264 
L 149.540625 34.4708 
L 149.946443 35.578035 
L 150.352261 34.517939 
L 150.75808 34.277208 
L 151.163898 34.783931 
L 151.569716 34.829544 
L 152.381352 34.365405 
L 152.78717 34.615779 
L 153.192989 34.426934 
L 153.598807 34.543852 
L 154.004625 33.955374 
L 154.410443 34.086771 
L 154.816261 33.490169 
L 155.627898 33.087566 
L 156.845352 31.86456 
L 157.25117 32.350895 
L 157.656989 31.7553 
L 158.062807 30.948635 
L 158.468625 31.259049 
L 158.874443 30.613004 
L 159.280261 30.772699 
L 160.497716 29.339319 
L 160.903534 30.11325 
L 161.309352 28.988469 
L 161.71517 28.986729 
L 162.120989 29.505909 
L 162.526807 28.853177 
L 162.932625 29.332128 
L 163.338443 28.945848 
L 163.744261 27.976156 
L 164.15008 29.075697 
L 164.555898 29.538177 
L 164.961716 27.275411 
L 165.367534 28.932717 
L 165.773352 29.493008 
L 166.17917 29.038341 
L 166.584989 29.280035 
L 166.990807 29.132123 
L 167.396625 29.658642 
L 167.802443 30.555564 
L 168.208261 30.782904 
L 169.019898 30.409059 
L 169.425716 31.367575 
L 169.831534 31.946285 
L 173.07808 34.667894 
L 173.483898 34.611994 
L 174.295534 35.379459 
L 175.10717 35.700078 
L 175.512989 35.589737 
L 175.918807 35.688199 
L 176.324625 35.592144 
L 176.730443 35.665952 
L 177.136261 36.001434 
L 177.54208 35.740411 
L 177.947898 36.121922 
L 178.759534 36.47035 
L 179.165352 36.217599 
L 179.57117 36.562266 
L 180.382807 36.864888 
L 180.788625 35.993354 
L 181.194443 36.418301 
L 181.600261 36.520015 
L 182.00608 36.423315 
L 182.411898 36.556082 
L 182.817716 35.817263 
L 183.223534 35.716942 
L 183.629352 36.407311 
L 184.03517 36.299495 
L 184.440989 35.793245 
L 184.846807 35.954118 
L 185.252625 36.77041 
L 185.658443 36.209971 
L 186.47008 35.816552 
L 187.281716 36.615285 
L 187.687534 35.874133 
L 188.093352 36.356202 
L 188.49917 35.486083 
L 189.310807 35.348939 
L 190.122443 34.594116 
L 190.528261 34.782465 
L 190.93408 34.222678 
L 191.339898 33.908635 
L 191.745716 34.516598 
L 192.151534 34.445849 
L 192.96317 34.73026 
L 194.180625 34.388179 
L 194.586443 33.914782 
L 194.992261 33.72947 
L 195.39808 33.764508 
L 195.803898 33.161714 
L 196.209716 33.314322 
L 196.615534 32.645334 
L 197.021352 32.541932 
L 197.42717 31.724935 
L 197.832989 32.220905 
L 198.238807 31.500579 
L 198.644625 31.412115 
L 199.050443 30.833198 
L 199.456261 31.341699 
L 199.86208 30.439979 
L 200.267898 30.1967 
L 200.673716 29.459844 
L 201.079534 29.970715 
L 201.485352 30.237959 
L 201.89117 29.601653 
L 202.702807 28.901923 
L 203.108625 29.466176 
L 203.514443 29.254292 
L 203.920261 28.638597 
L 204.32608 28.637375 
L 204.731898 27.906717 
L 205.137716 29.609296 
L 205.543534 29.316191 
L 205.949352 28.839321 
L 206.35517 28.811008 
L 206.760989 28.299241 
L 207.166807 29.649807 
L 207.572625 29.960569 
L 207.978443 29.985223 
L 208.79008 30.444578 
L 209.195898 31.138516 
L 209.601716 30.870235 
L 210.007534 31.266684 
L 210.413352 31.836173 
L 210.81917 32.046754 
L 211.224989 31.997793 
L 211.630807 33.106932 
L 212.036625 32.468731 
L 212.442443 33.562777 
L 212.848261 33.56822 
L 214.065716 34.546089 
L 214.471534 35.089434 
L 214.877352 35.136262 
L 215.28317 35.36207 
L 216.500625 35.657605 
L 216.906443 35.433634 
L 217.312261 35.547997 
L 217.71808 35.80291 
L 218.123898 35.733575 
L 218.529716 36.008781 
L 218.935534 35.658938 
L 219.341352 35.993991 
L 219.74717 36.090832 
L 220.152989 36.633148 
L 220.558807 36.403622 
L 220.964625 36.90722 
L 221.370443 36.941525 
L 221.776261 36.410258 
L 222.18208 36.783867 
L 222.587898 36.765485 
L 222.993716 36.103659 
L 223.399534 36.585476 
L 223.805352 36.310455 
L 224.21117 37.108122 
L 224.616989 35.588744 
L 225.022807 36.110835 
L 225.428625 36.399127 
L 225.834443 36.079508 
L 226.240261 36.22665 
L 226.64608 35.871186 
L 227.051898 35.219054 
L 227.457716 35.685629 
L 227.863534 35.37686 
L 228.269352 37.337203 
L 228.67517 35.560594 
L 229.486807 34.783679 
L 229.892625 35.07857 
L 230.298443 34.628828 
L 230.704261 35.547034 
L 231.11008 34.463038 
L 231.515898 34.404731 
L 231.921716 34.611261 
L 232.327534 34.26361 
L 232.733352 34.57529 
L 233.544989 34.215442 
L 233.950807 34.389378 
L 234.762443 34.364968 
L 235.168261 33.960003 
L 235.57408 34.154402 
L 236.385716 33.309271 
L 236.791534 33.096334 
L 237.197352 32.742315 
L 237.60317 32.542354 
L 238.414807 31.400295 
L 239.226443 31.703577 
L 239.632261 30.989612 
L 240.03808 30.817016 
L 240.849716 29.667433 
L 241.255534 30.001857 
L 241.661352 30.00262 
L 242.06717 29.487772 
L 242.472989 30.439001 
L 242.878807 29.50371 
L 243.284625 28.880305 
L 243.690443 29.223475 
L 244.096261 28.755707 
L 244.50208 29.370817 
L 245.313716 29.168686 
L 245.719534 28.988462 
L 246.125352 28.417255 
L 246.53117 28.785302 
L 246.936989 29.797993 
L 247.342807 27.91125 
L 247.748625 29.578532 
L 248.154443 30.100949 
L 248.560261 29.801318 
L 248.96608 30.318291 
L 249.371898 29.944187 
L 249.777716 31.17939 
L 250.183534 31.210525 
L 250.589352 30.998936 
L 250.99517 31.667206 
L 250.99517 31.667206 
" clip-path="url(#p17b08d9c4c)" style="fill: none; stroke: #1f77b4; stroke-width: 1.5; stroke-linecap: square"/>
   </g>
   <g id="line2d_24">
    <path d="M 48.08608 109.589354 
L 48.491898 109.712824 
L 48.897716 110.081945 
L 49.303534 110.004893 
L 50.11517 110.1583 
L 50.926807 108.961563 
L 51.332625 109.446876 
L 51.738443 109.646862 
L 52.55008 109.621779 
L 53.361716 108.570713 
L 53.767534 108.530237 
L 54.173352 108.337804 
L 54.57917 108.440012 
L 54.984989 108.16939 
L 55.390807 108.271614 
L 55.796625 107.756172 
L 56.202443 107.88873 
L 56.608261 107.847278 
L 57.01408 107.293789 
L 57.419898 107.351804 
L 57.825716 106.933666 
L 58.231534 106.339307 
L 58.637352 106.373465 
L 59.04317 106.238583 
L 59.448989 106.259516 
L 59.854807 105.393739 
L 60.260625 105.972358 
L 60.666443 105.621782 
L 62.289716 105.18902 
L 62.695534 105.16428 
L 63.101352 104.926282 
L 63.50717 104.903216 
L 63.912989 104.665937 
L 64.318807 104.003519 
L 64.724625 104.291243 
L 65.130443 104.369109 
L 65.536261 103.973711 
L 65.94208 104.324041 
L 66.753716 103.340688 
L 67.159534 103.900911 
L 67.565352 103.494565 
L 67.97117 104.425073 
L 68.376989 103.792927 
L 68.782807 103.795924 
L 69.188625 104.305975 
L 69.594443 103.366988 
L 70.000261 103.844184 
L 70.40608 104.133523 
L 70.811898 103.741446 
L 71.217716 103.080062 
L 71.623534 103.029778 
L 72.029352 102.443132 
L 72.43517 103.230485 
L 72.840989 100.635839 
L 73.246807 102.377168 
L 73.652625 102.02972 
L 74.058443 101.312679 
L 74.464261 101.973736 
L 74.87008 101.86876 
L 75.275898 101.352152 
L 75.681716 102.177044 
L 76.087534 101.850762 
L 76.493352 101.243271 
L 76.89917 101.784243 
L 77.304989 102.106072 
L 77.710807 102.096048 
L 78.116625 101.910225 
L 78.522443 102.685935 
L 79.33408 102.70348 
L 79.739898 103.056926 
L 80.145716 103.261631 
L 80.551534 103.769931 
L 80.957352 103.622076 
L 81.36317 103.992313 
L 81.768989 104.201206 
L 82.174807 104.608447 
L 82.580625 105.383196 
L 82.986443 105.383197 
L 84.203898 107.051219 
L 84.609716 107.279617 
L 85.015534 107.908889 
L 85.421352 108.21676 
L 85.82717 108.789943 
L 86.232989 109.129295 
L 86.638807 109.060417 
L 87.450443 109.608947 
L 87.856261 108.856335 
L 88.26208 109.741575 
L 88.667898 109.779389 
L 89.073716 110.934875 
L 89.479534 110.114959 
L 89.885352 109.590147 
L 90.29117 109.42844 
L 90.696989 109.583151 
L 91.102807 109.874524 
L 91.508625 109.300971 
L 91.914443 110.260805 
L 92.320261 109.932698 
L 92.72608 108.976633 
L 93.131898 108.708274 
L 93.537716 108.69849 
L 93.943534 108.860416 
L 94.349352 108.671245 
L 95.160989 107.297223 
L 95.566807 107.681452 
L 95.972625 107.19618 
L 96.378443 108.155309 
L 96.784261 107.518907 
L 97.19008 107.291764 
L 97.595898 107.277535 
L 98.001716 107.582927 
L 98.407534 106.334834 
L 98.813352 106.046533 
L 99.21917 106.387825 
L 99.624989 106.191326 
L 100.030807 106.23757 
L 100.436625 105.343012 
L 100.842443 105.853779 
L 101.248261 105.646175 
L 102.465716 105.46557 
L 103.68317 105.129363 
L 104.494807 104.612229 
L 105.306443 104.087601 
L 105.712261 104.393324 
L 106.523898 103.842473 
L 106.929716 104.026174 
L 107.335534 103.685445 
L 107.741352 103.962466 
L 108.14717 103.603391 
L 108.552989 104.423462 
L 108.958807 103.794807 
L 109.364625 103.474712 
L 109.770443 103.312864 
L 110.176261 103.897895 
L 110.58208 104.055382 
L 110.987898 103.540926 
L 111.393716 103.608882 
L 111.799534 102.599407 
L 112.61117 102.688472 
L 113.016989 102.562515 
L 113.422807 101.720612 
L 113.828625 101.204165 
L 114.234443 102.14747 
L 114.640261 102.409791 
L 115.451898 101.608593 
L 115.857716 101.592478 
L 116.263534 101.760555 
L 117.480989 101.664815 
L 117.886807 102.193917 
L 118.292625 101.989858 
L 119.51008 102.84505 
L 119.915898 102.530076 
L 120.321716 102.94508 
L 120.727534 103.117378 
L 121.133352 103.829988 
L 121.53917 104.030207 
L 121.944989 103.951193 
L 122.350807 104.037688 
L 123.568261 105.668417 
L 123.97408 105.918143 
L 124.379898 106.898507 
L 125.191534 107.31665 
L 125.597352 108.077735 
L 126.00317 108.247014 
L 126.408989 108.163262 
L 126.814807 108.846746 
L 127.220625 108.6889 
L 127.626443 109.383381 
L 128.43808 109.556609 
L 128.843898 109.866871 
L 129.249716 109.478287 
L 129.655534 111.315194 
L 130.061352 109.874011 
L 130.46717 109.633879 
L 130.872989 109.65224 
L 131.278807 110.093336 
L 131.684625 109.519432 
L 132.090443 109.43567 
L 132.496261 111.042188 
L 132.90208 109.057515 
L 133.307898 108.664043 
L 133.713716 109.392308 
L 134.119534 108.808505 
L 134.525352 108.714039 
L 134.93117 108.27473 
L 135.336989 107.568541 
L 135.742807 108.003616 
L 136.148625 107.868343 
L 136.554443 107.532308 
L 137.36608 108.015512 
L 137.771898 106.740957 
L 138.177716 107.370664 
L 138.583534 107.416822 
L 138.989352 106.730604 
L 140.612625 106.265955 
L 141.018443 105.280312 
L 141.424261 105.940324 
L 142.235898 105.57585 
L 143.047534 105.015641 
L 143.453352 105.205901 
L 143.85917 105.106485 
L 144.264989 104.763785 
L 145.482443 104.606421 
L 145.888261 104.217233 
L 146.29408 104.494756 
L 147.105716 103.867653 
L 147.511534 103.821037 
L 148.32317 104.115737 
L 148.728989 104.050763 
L 149.134807 104.19032 
L 149.540625 104.134531 
L 149.946443 102.604271 
L 150.352261 104.336062 
L 150.75808 103.988034 
L 151.163898 103.120114 
L 151.569716 102.894577 
L 151.975534 103.172096 
L 152.381352 103.035015 
L 152.78717 103.035176 
L 154.004625 102.088581 
L 154.410443 102.299647 
L 154.816261 102.159248 
L 155.627898 102.382749 
L 156.033716 101.497703 
L 156.439534 101.769724 
L 156.845352 101.091401 
L 157.25117 101.997581 
L 157.656989 102.186678 
L 158.062807 101.296869 
L 158.468625 102.313164 
L 158.874443 102.017367 
L 159.280261 102.663947 
L 159.68608 102.839618 
L 160.091898 102.61379 
L 160.497716 102.583864 
L 160.903534 103.297329 
L 161.309352 103.205658 
L 161.71517 103.322861 
L 162.120989 103.990213 
L 162.526807 104.119304 
L 163.744261 105.161741 
L 164.961716 106.733499 
L 165.367534 106.846242 
L 166.17917 107.886006 
L 166.584989 108.079853 
L 167.396625 108.946737 
L 167.802443 108.754895 
L 168.208261 109.268018 
L 168.61408 109.559876 
L 169.019898 110.370078 
L 169.425716 109.706317 
L 169.831534 109.406839 
L 170.237352 109.734632 
L 170.64317 109.876793 
L 171.048989 110.496341 
L 171.454807 109.853038 
L 171.860625 110.161564 
L 172.266443 110.174682 
L 172.672261 109.261333 
L 173.07808 108.899007 
L 173.483898 109.975138 
L 173.889716 109.312353 
L 174.295534 109.888708 
L 175.512989 107.812326 
L 175.918807 108.828339 
L 176.324625 108.199995 
L 176.730443 107.912459 
L 177.136261 108.360264 
L 177.54208 106.990001 
L 177.947898 107.894737 
L 178.353716 107.525829 
L 178.759534 107.779 
L 179.57117 106.406545 
L 179.976989 106.899562 
L 180.382807 106.837924 
L 180.788625 105.760967 
L 181.194443 106.167275 
L 181.600261 105.441722 
L 182.00608 105.606183 
L 182.411898 105.648259 
L 182.817716 105.426796 
L 183.629352 105.417519 
L 184.03517 105.176379 
L 184.440989 105.145968 
L 184.846807 104.72745 
L 185.252625 104.795582 
L 185.658443 104.683332 
L 186.064261 104.350453 
L 186.47008 104.463493 
L 186.875898 104.308621 
L 187.281716 103.994924 
L 187.687534 104.15409 
L 188.093352 103.431588 
L 188.49917 103.935809 
L 189.310807 103.981519 
L 189.716625 103.704026 
L 190.122443 104.380055 
L 190.528261 103.719612 
L 190.93408 104.087171 
L 191.339898 104.259339 
L 191.745716 103.70666 
L 192.151534 103.808574 
L 192.96317 102.547577 
L 193.368989 102.067462 
L 193.774807 102.375462 
L 194.180625 102.395692 
L 194.586443 102.049865 
L 194.992261 101.889386 
L 195.39808 102.373511 
L 195.803898 102.079628 
L 196.209716 102.533192 
L 196.615534 101.909468 
L 197.021352 102.157822 
L 197.42717 101.577759 
L 197.832989 102.14824 
L 198.238807 101.832863 
L 198.644625 101.946027 
L 199.050443 101.941497 
L 199.456261 102.670546 
L 199.86208 102.299557 
L 200.267898 102.51964 
L 200.673716 102.256183 
L 201.485352 103.180101 
L 202.702807 103.587689 
L 203.108625 104.064209 
L 203.514443 104.188018 
L 204.32608 105.223264 
L 204.731898 105.39504 
L 206.760989 107.941325 
L 207.572625 108.364798 
L 207.978443 109.037981 
L 208.384261 108.900802 
L 208.79008 109.123721 
L 209.195898 109.083882 
L 209.601716 109.775193 
L 210.007534 109.863373 
L 210.413352 109.293857 
L 210.81917 109.79299 
L 211.224989 110.077223 
L 211.630807 109.228766 
L 212.036625 111.156566 
L 212.442443 109.990715 
L 212.848261 109.584051 
L 213.25408 109.532903 
L 213.659898 109.84731 
L 214.065716 109.476894 
L 215.28317 108.940935 
L 215.688989 108.643923 
L 216.094807 108.57724 
L 216.500625 107.829773 
L 216.906443 107.988736 
L 218.123898 107.821225 
L 218.529716 107.86475 
L 218.935534 107.151818 
L 219.341352 107.207753 
L 219.74717 106.720196 
L 220.152989 107.02931 
L 220.558807 106.429782 
L 220.964625 106.836152 
L 221.370443 106.399576 
L 221.776261 106.181086 
L 222.18208 105.782069 
L 222.587898 105.870364 
L 222.993716 105.496991 
L 223.399534 105.647449 
L 223.805352 105.47127 
L 224.21117 105.107948 
L 225.428625 105.072353 
L 226.240261 104.744415 
L 226.64608 104.748917 
L 227.051898 104.633471 
L 227.457716 104.259528 
L 227.863534 104.266872 
L 228.269352 103.341466 
L 228.67517 104.014129 
L 229.080989 104.014886 
L 229.486807 104.287536 
L 229.892625 104.033566 
L 230.298443 104.313922 
L 230.704261 103.046878 
L 231.515898 103.837975 
L 231.921716 103.441886 
L 232.327534 103.877549 
L 232.733352 103.173511 
L 233.544989 102.937406 
L 233.950807 102.102838 
L 234.356625 102.771802 
L 234.762443 102.01174 
L 235.168261 101.845131 
L 235.57408 102.058987 
L 235.979898 101.899881 
L 236.385716 101.861116 
L 237.197352 101.557519 
L 237.60317 101.99702 
L 238.414807 101.152043 
L 238.820625 102.019295 
L 239.226443 101.973765 
L 240.03808 102.410578 
L 240.443898 102.087893 
L 240.849716 102.561531 
L 242.06717 102.805431 
L 242.472989 103.423664 
L 243.284625 103.559974 
L 244.50208 104.955592 
L 244.907898 105.092097 
L 245.313716 105.827235 
L 245.719534 106.01307 
L 246.125352 106.836331 
L 246.53117 106.909473 
L 246.936989 107.41372 
L 247.342807 108.234804 
L 247.748625 108.141684 
L 248.154443 108.388369 
L 248.560261 108.782695 
L 248.96608 109.409923 
L 250.183534 109.708461 
L 250.589352 110.132314 
L 250.99517 110.051759 
L 250.99517 110.051759 
" clip-path="url(#p17b08d9c4c)" style="fill: none; stroke: #ff7f0e; stroke-width: 1.5; stroke-linecap: square"/>
   </g>
   <g id="patch_3">
    <path d="M 37.940625 143.1 
L 37.940625 7.2 
" style="fill: none; stroke: #000000; stroke-width: 0.8; stroke-linejoin: miter; stroke-linecap: square"/>
   </g>
   <g id="patch_4">
    <path d="M 261.140625 143.1 
L 261.140625 7.2 
" style="fill: none; stroke: #000000; stroke-width: 0.8; stroke-linejoin: miter; stroke-linecap: square"/>
   </g>
   <g id="patch_5">
    <path d="M 37.940625 143.1 
L 261.140625 143.1 
" style="fill: none; stroke: #000000; stroke-width: 0.8; stroke-linejoin: miter; stroke-linecap: square"/>
   </g>
   <g id="patch_6">
    <path d="M 37.940625 7.2 
L 261.140625 7.2 
" style="fill: none; stroke: #000000; stroke-width: 0.8; stroke-linejoin: miter; stroke-linecap: square"/>
   </g>
   <g id="legend_1">
    <g id="patch_7">
     <path d="M 212.040625 91.119531 
L 254.140625 91.119531 
Q 256.140625 91.119531 256.140625 89.119531 
L 256.140625 61.180469 
Q 256.140625 59.180469 254.140625 59.180469 
L 212.040625 59.180469 
Q 210.040625 59.180469 210.040625 61.180469 
L 210.040625 89.119531 
Q 210.040625 91.119531 212.040625 91.119531 
z
" style="fill: #ffffff; opacity: 0.8; stroke: #cccccc; stroke-linejoin: miter"/>
    </g>
    <g id="line2d_25">
     <path d="M 214.040625 66.680469 
L 224.040625 66.680469 
L 234.040625 66.680469 
" style="fill: none; stroke: #1f77b4; stroke-width: 1.5; stroke-linecap: square"/>
    </g>
    <g id="text_14">
     <!-- $V_{d}$ -->
     <g transform="translate(242.040625 70.180469)scale(0.1 -0.1)">
      <defs>
       <path id="STIXGeneral-Italic-56" d="M 4403 4179 
L 4403 4077 
Q 4198 4070 4045 3821 
L 1658 -115 
L 1536 -115 
L 1011 3104 
Q 902 3776 828 3910 
Q 755 4045 486 4077 
L 486 4179 
L 2022 4179 
L 2022 4077 
Q 1722 4045 1629 3981 
Q 1536 3917 1536 3750 
Q 1536 3686 1542 3654 
L 1958 819 
L 3302 3123 
Q 3616 3661 3616 3859 
Q 3616 4032 3219 4077 
L 3219 4179 
L 4403 4179 
z
" transform="scale(0.015625)"/>
       <path id="STIXGeneral-Italic-64" d="M 3334 4371 
L 3373 4333 
L 3123 3360 
L 2739 1958 
Q 2323 429 2323 384 
Q 2323 256 2438 256 
Q 2522 256 2614 336 
Q 2707 416 2963 710 
L 3040 646 
Q 2547 -83 2099 -83 
Q 1978 -83 1907 -6 
Q 1837 70 1837 205 
Q 1837 397 1920 774 
Q 1645 307 1379 118 
Q 1114 -70 781 -70 
Q 461 -70 278 125 
Q 96 320 96 678 
Q 96 1440 713 2131 
Q 1331 2822 1965 2822 
Q 2163 2822 2256 2732 
Q 2349 2643 2381 2451 
L 2387 2451 
L 2675 3494 
Q 2765 3808 2765 3949 
Q 2765 4051 2694 4076 
Q 2624 4102 2355 4115 
L 2355 4224 
Q 2848 4269 3334 4371 
z
M 2278 2310 
Q 2278 2477 2185 2576 
Q 2093 2675 1978 2675 
Q 1677 2675 1395 2381 
Q 1075 2042 864 1571 
Q 653 1101 653 704 
Q 653 486 752 361 
Q 851 237 1024 237 
Q 1312 237 1606 550 
Q 1901 864 2089 1350 
Q 2278 1837 2278 2310 
z
" transform="scale(0.015625)"/>
      </defs>
      <use xlink:href="#STIXGeneral-Italic-56" transform="translate(0 0.703125)"/>
      <use xlink:href="#STIXGeneral-Italic-64" transform="translate(61.099991 -12.525)scale(0.7)"/>
     </g>
    </g>
    <g id="line2d_26">
     <path d="M 214.040625 80.819531 
L 224.040625 80.819531 
L 234.040625 80.819531 
" style="fill: none; stroke: #ff7f0e; stroke-width: 1.5; stroke-linecap: square"/>
    </g>
    <g id="text_15">
     <!-- $V_{q}$ -->
     <g transform="translate(242.040625 84.319531)scale(0.1 -0.1)">
      <defs>
       <path id="STIXGeneral-Italic-71" d="M 3098 2739 
L 2042 -966 
Q 2029 -1018 2029 -1037 
Q 2029 -1235 2394 -1235 
L 2490 -1235 
L 2490 -1338 
L 973 -1338 
L 973 -1235 
Q 1267 -1216 1382 -1139 
Q 1498 -1062 1555 -877 
L 2131 979 
Q 1754 378 1466 154 
Q 1178 -70 800 -70 
Q 499 -70 329 128 
Q 160 326 160 672 
Q 160 1165 445 1670 
Q 730 2176 1168 2499 
Q 1606 2822 2035 2822 
Q 2438 2822 2528 2426 
L 2630 2739 
L 3098 2739 
z
M 2432 2298 
Q 2432 2458 2323 2570 
Q 2214 2682 2054 2682 
Q 1792 2682 1459 2368 
Q 1133 2054 921 1606 
Q 710 1158 710 762 
Q 710 269 1050 269 
Q 1312 269 1574 499 
Q 1901 781 2166 1341 
Q 2432 1901 2432 2298 
z
" transform="scale(0.015625)"/>
      </defs>
      <use xlink:href="#STIXGeneral-Italic-56" transform="translate(0 0.703125)"/>
      <use xlink:href="#STIXGeneral-Italic-71" transform="translate(61.099991 -12.525)scale(0.7)"/>
     </g>
    </g>
   </g>
  </g>
 </g>
 <defs>
  <clipPath id="p17b08d9c4c">
   <rect x="37.940625" y="7.2" width="223.2" height="135.9"/>
  </clipPath>
 </defs>
</svg>
