<?xml version="1.0" encoding="utf-8" standalone="no"?>
<!DOCTYPE svg PUBLIC "-//W3C//DTD SVG 1.1//EN"
  "http://www.w3.org/Graphics/SVG/1.1/DTD/svg11.dtd">
<!-- Created with matplotlib (https://matplotlib.org/) -->
<svg height="216pt" version="1.1" viewBox="0 0 360 216" width="360pt" xmlns="http://www.w3.org/2000/svg" xmlns:xlink="http://www.w3.org/1999/xlink">
 <metadata>
  <rdf:RDF xmlns:cc="http://creativecommons.org/ns#" xmlns:dc="http://purl.org/dc/elements/1.1/" xmlns:rdf="http://www.w3.org/1999/02/22-rdf-syntax-ns#">
   <cc:Work>
    <dc:type rdf:resource="http://purl.org/dc/dcmitype/StillImage"/>
    <dc:date>2022-07-31T18:36:23.104415</dc:date>
    <dc:format>image/svg+xml</dc:format>
    <dc:creator>
     <cc:Agent>
      <dc:title>Matplotlib v3.3.4, https://matplotlib.org/</dc:title>
     </cc:Agent>
    </dc:creator>
   </cc:Work>
  </rdf:RDF>
 </metadata>
 <defs>
  <style type="text/css">*{stroke-linecap:butt;stroke-linejoin:round;}</style>
 </defs>
 <g id="figure_1">
  <g id="patch_1">
   <path d="M 0 216 
L 360 216 
L 360 0 
L 0 0 
z
" style="fill:#ffffff;"/>
  </g>
  <g id="axes_1">
   <g id="patch_2">
    <path d="M 47.72 174.04 
L 349.2 174.04 
L 349.2 14.76 
L 47.72 14.76 
z
" style="fill:#ffffff;"/>
   </g>
   <g id="matplotlib.axis_1">
    <g id="xtick_1">
     <g id="line2d_1">
      <defs>
       <path d="M 0 0 
L 0 3.5 
" id="m5a86d0506e" style="stroke:#000000;stroke-width:0.8;"/>
      </defs>
      <g>
       <use style="stroke:#000000;stroke-width:0.8;" x="61.423636" xlink:href="#m5a86d0506e" y="174.04"/>
      </g>
     </g>
     <g id="text_1">
      <!-- 0.0 -->
      <g transform="translate(53.472074 188.638438)scale(0.1 -0.1)">
       <defs>
        <path d="M 31.78125 66.40625 
Q 24.171875 66.40625 20.328125 58.90625 
Q 16.5 51.421875 16.5 36.375 
Q 16.5 21.390625 20.328125 13.890625 
Q 24.171875 6.390625 31.78125 6.390625 
Q 39.453125 6.390625 43.28125 13.890625 
Q 47.125 21.390625 47.125 36.375 
Q 47.125 51.421875 43.28125 58.90625 
Q 39.453125 66.40625 31.78125 66.40625 
z
M 31.78125 74.21875 
Q 44.046875 74.21875 50.515625 64.515625 
Q 56.984375 54.828125 56.984375 36.375 
Q 56.984375 17.96875 50.515625 8.265625 
Q 44.046875 -1.421875 31.78125 -1.421875 
Q 19.53125 -1.421875 13.0625 8.265625 
Q 6.59375 17.96875 6.59375 36.375 
Q 6.59375 54.828125 13.0625 64.515625 
Q 19.53125 74.21875 31.78125 74.21875 
z
" id="DejaVuSans-48"/>
        <path d="M 10.6875 12.40625 
L 21 12.40625 
L 21 0 
L 10.6875 0 
z
" id="DejaVuSans-46"/>
       </defs>
       <use xlink:href="#DejaVuSans-48"/>
       <use x="63.623047" xlink:href="#DejaVuSans-46"/>
       <use x="95.410156" xlink:href="#DejaVuSans-48"/>
      </g>
     </g>
    </g>
    <g id="xtick_2">
     <g id="line2d_2">
      <g>
       <use style="stroke:#000000;stroke-width:0.8;" x="116.238182" xlink:href="#m5a86d0506e" y="174.04"/>
      </g>
     </g>
     <g id="text_2">
      <!-- 0.2 -->
      <g transform="translate(108.286619 188.638438)scale(0.1 -0.1)">
       <defs>
        <path d="M 19.1875 8.296875 
L 53.609375 8.296875 
L 53.609375 0 
L 7.328125 0 
L 7.328125 8.296875 
Q 12.9375 14.109375 22.625 23.890625 
Q 32.328125 33.6875 34.8125 36.53125 
Q 39.546875 41.84375 41.421875 45.53125 
Q 43.3125 49.21875 43.3125 52.78125 
Q 43.3125 58.59375 39.234375 62.25 
Q 35.15625 65.921875 28.609375 65.921875 
Q 23.96875 65.921875 18.8125 64.3125 
Q 13.671875 62.703125 7.8125 59.421875 
L 7.8125 69.390625 
Q 13.765625 71.78125 18.9375 73 
Q 24.125 74.21875 28.421875 74.21875 
Q 39.75 74.21875 46.484375 68.546875 
Q 53.21875 62.890625 53.21875 53.421875 
Q 53.21875 48.921875 51.53125 44.890625 
Q 49.859375 40.875 45.40625 35.40625 
Q 44.1875 33.984375 37.640625 27.21875 
Q 31.109375 20.453125 19.1875 8.296875 
z
" id="DejaVuSans-50"/>
       </defs>
       <use xlink:href="#DejaVuSans-48"/>
       <use x="63.623047" xlink:href="#DejaVuSans-46"/>
       <use x="95.410156" xlink:href="#DejaVuSans-50"/>
      </g>
     </g>
    </g>
    <g id="xtick_3">
     <g id="line2d_3">
      <g>
       <use style="stroke:#000000;stroke-width:0.8;" x="171.052727" xlink:href="#m5a86d0506e" y="174.04"/>
      </g>
     </g>
     <g id="text_3">
      <!-- 0.4 -->
      <g transform="translate(163.101165 188.638438)scale(0.1 -0.1)">
       <defs>
        <path d="M 37.796875 64.3125 
L 12.890625 25.390625 
L 37.796875 25.390625 
z
M 35.203125 72.90625 
L 47.609375 72.90625 
L 47.609375 25.390625 
L 58.015625 25.390625 
L 58.015625 17.1875 
L 47.609375 17.1875 
L 47.609375 0 
L 37.796875 0 
L 37.796875 17.1875 
L 4.890625 17.1875 
L 4.890625 26.703125 
z
" id="DejaVuSans-52"/>
       </defs>
       <use xlink:href="#DejaVuSans-48"/>
       <use x="63.623047" xlink:href="#DejaVuSans-46"/>
       <use x="95.410156" xlink:href="#DejaVuSans-52"/>
      </g>
     </g>
    </g>
    <g id="xtick_4">
     <g id="line2d_4">
      <g>
       <use style="stroke:#000000;stroke-width:0.8;" x="225.867273" xlink:href="#m5a86d0506e" y="174.04"/>
      </g>
     </g>
     <g id="text_4">
      <!-- 0.6 -->
      <g transform="translate(217.91571 188.638438)scale(0.1 -0.1)">
       <defs>
        <path d="M 33.015625 40.375 
Q 26.375 40.375 22.484375 35.828125 
Q 18.609375 31.296875 18.609375 23.390625 
Q 18.609375 15.53125 22.484375 10.953125 
Q 26.375 6.390625 33.015625 6.390625 
Q 39.65625 6.390625 43.53125 10.953125 
Q 47.40625 15.53125 47.40625 23.390625 
Q 47.40625 31.296875 43.53125 35.828125 
Q 39.65625 40.375 33.015625 40.375 
z
M 52.59375 71.296875 
L 52.59375 62.3125 
Q 48.875 64.0625 45.09375 64.984375 
Q 41.3125 65.921875 37.59375 65.921875 
Q 27.828125 65.921875 22.671875 59.328125 
Q 17.53125 52.734375 16.796875 39.40625 
Q 19.671875 43.65625 24.015625 45.921875 
Q 28.375 48.1875 33.59375 48.1875 
Q 44.578125 48.1875 50.953125 41.515625 
Q 57.328125 34.859375 57.328125 23.390625 
Q 57.328125 12.15625 50.6875 5.359375 
Q 44.046875 -1.421875 33.015625 -1.421875 
Q 20.359375 -1.421875 13.671875 8.265625 
Q 6.984375 17.96875 6.984375 36.375 
Q 6.984375 53.65625 15.1875 63.9375 
Q 23.390625 74.21875 37.203125 74.21875 
Q 40.921875 74.21875 44.703125 73.484375 
Q 48.484375 72.75 52.59375 71.296875 
z
" id="DejaVuSans-54"/>
       </defs>
       <use xlink:href="#DejaVuSans-48"/>
       <use x="63.623047" xlink:href="#DejaVuSans-46"/>
       <use x="95.410156" xlink:href="#DejaVuSans-54"/>
      </g>
     </g>
    </g>
    <g id="xtick_5">
     <g id="line2d_5">
      <g>
       <use style="stroke:#000000;stroke-width:0.8;" x="280.681818" xlink:href="#m5a86d0506e" y="174.04"/>
      </g>
     </g>
     <g id="text_5">
      <!-- 0.8 -->
      <g transform="translate(272.730256 188.638438)scale(0.1 -0.1)">
       <defs>
        <path d="M 31.78125 34.625 
Q 24.75 34.625 20.71875 30.859375 
Q 16.703125 27.09375 16.703125 20.515625 
Q 16.703125 13.921875 20.71875 10.15625 
Q 24.75 6.390625 31.78125 6.390625 
Q 38.8125 6.390625 42.859375 10.171875 
Q 46.921875 13.96875 46.921875 20.515625 
Q 46.921875 27.09375 42.890625 30.859375 
Q 38.875 34.625 31.78125 34.625 
z
M 21.921875 38.8125 
Q 15.578125 40.375 12.03125 44.71875 
Q 8.5 49.078125 8.5 55.328125 
Q 8.5 64.0625 14.71875 69.140625 
Q 20.953125 74.21875 31.78125 74.21875 
Q 42.671875 74.21875 48.875 69.140625 
Q 55.078125 64.0625 55.078125 55.328125 
Q 55.078125 49.078125 51.53125 44.71875 
Q 48 40.375 41.703125 38.8125 
Q 48.828125 37.15625 52.796875 32.3125 
Q 56.78125 27.484375 56.78125 20.515625 
Q 56.78125 9.90625 50.3125 4.234375 
Q 43.84375 -1.421875 31.78125 -1.421875 
Q 19.734375 -1.421875 13.25 4.234375 
Q 6.78125 9.90625 6.78125 20.515625 
Q 6.78125 27.484375 10.78125 32.3125 
Q 14.796875 37.15625 21.921875 38.8125 
z
M 18.3125 54.390625 
Q 18.3125 48.734375 21.84375 45.5625 
Q 25.390625 42.390625 31.78125 42.390625 
Q 38.140625 42.390625 41.71875 45.5625 
Q 45.3125 48.734375 45.3125 54.390625 
Q 45.3125 60.0625 41.71875 63.234375 
Q 38.140625 66.40625 31.78125 66.40625 
Q 25.390625 66.40625 21.84375 63.234375 
Q 18.3125 60.0625 18.3125 54.390625 
z
" id="DejaVuSans-56"/>
       </defs>
       <use xlink:href="#DejaVuSans-48"/>
       <use x="63.623047" xlink:href="#DejaVuSans-46"/>
       <use x="95.410156" xlink:href="#DejaVuSans-56"/>
      </g>
     </g>
    </g>
    <g id="xtick_6">
     <g id="line2d_6">
      <g>
       <use style="stroke:#000000;stroke-width:0.8;" x="335.496364" xlink:href="#m5a86d0506e" y="174.04"/>
      </g>
     </g>
     <g id="text_6">
      <!-- 1.0 -->
      <g transform="translate(327.544801 188.638438)scale(0.1 -0.1)">
       <defs>
        <path d="M 12.40625 8.296875 
L 28.515625 8.296875 
L 28.515625 63.921875 
L 10.984375 60.40625 
L 10.984375 69.390625 
L 28.421875 72.90625 
L 38.28125 72.90625 
L 38.28125 8.296875 
L 54.390625 8.296875 
L 54.390625 0 
L 12.40625 0 
z
" id="DejaVuSans-49"/>
       </defs>
       <use xlink:href="#DejaVuSans-49"/>
       <use x="63.623047" xlink:href="#DejaVuSans-46"/>
       <use x="95.410156" xlink:href="#DejaVuSans-48"/>
      </g>
     </g>
    </g>
    <g id="text_7">
     <!-- Time (sec) -->
     <g transform="translate(172.305312 202.316563)scale(0.1 -0.1)">
      <defs>
       <path d="M -0.296875 72.90625 
L 61.375 72.90625 
L 61.375 64.59375 
L 35.5 64.59375 
L 35.5 0 
L 25.59375 0 
L 25.59375 64.59375 
L -0.296875 64.59375 
z
" id="DejaVuSans-84"/>
       <path d="M 9.421875 54.6875 
L 18.40625 54.6875 
L 18.40625 0 
L 9.421875 0 
z
M 9.421875 75.984375 
L 18.40625 75.984375 
L 18.40625 64.59375 
L 9.421875 64.59375 
z
" id="DejaVuSans-105"/>
       <path d="M 52 44.1875 
Q 55.375 50.25 60.0625 53.125 
Q 64.75 56 71.09375 56 
Q 79.640625 56 84.28125 50.015625 
Q 88.921875 44.046875 88.921875 33.015625 
L 88.921875 0 
L 79.890625 0 
L 79.890625 32.71875 
Q 79.890625 40.578125 77.09375 44.375 
Q 74.3125 48.1875 68.609375 48.1875 
Q 61.625 48.1875 57.5625 43.546875 
Q 53.515625 38.921875 53.515625 30.90625 
L 53.515625 0 
L 44.484375 0 
L 44.484375 32.71875 
Q 44.484375 40.625 41.703125 44.40625 
Q 38.921875 48.1875 33.109375 48.1875 
Q 26.21875 48.1875 22.15625 43.53125 
Q 18.109375 38.875 18.109375 30.90625 
L 18.109375 0 
L 9.078125 0 
L 9.078125 54.6875 
L 18.109375 54.6875 
L 18.109375 46.1875 
Q 21.1875 51.21875 25.484375 53.609375 
Q 29.78125 56 35.6875 56 
Q 41.65625 56 45.828125 52.96875 
Q 50 49.953125 52 44.1875 
z
" id="DejaVuSans-109"/>
       <path d="M 56.203125 29.59375 
L 56.203125 25.203125 
L 14.890625 25.203125 
Q 15.484375 15.921875 20.484375 11.0625 
Q 25.484375 6.203125 34.421875 6.203125 
Q 39.59375 6.203125 44.453125 7.46875 
Q 49.3125 8.734375 54.109375 11.28125 
L 54.109375 2.78125 
Q 49.265625 0.734375 44.1875 -0.34375 
Q 39.109375 -1.421875 33.890625 -1.421875 
Q 20.796875 -1.421875 13.15625 6.1875 
Q 5.515625 13.8125 5.515625 26.8125 
Q 5.515625 40.234375 12.765625 48.109375 
Q 20.015625 56 32.328125 56 
Q 43.359375 56 49.78125 48.890625 
Q 56.203125 41.796875 56.203125 29.59375 
z
M 47.21875 32.234375 
Q 47.125 39.59375 43.09375 43.984375 
Q 39.0625 48.390625 32.421875 48.390625 
Q 24.90625 48.390625 20.390625 44.140625 
Q 15.875 39.890625 15.1875 32.171875 
z
" id="DejaVuSans-101"/>
       <path id="DejaVuSans-32"/>
       <path d="M 31 75.875 
Q 24.46875 64.65625 21.28125 53.65625 
Q 18.109375 42.671875 18.109375 31.390625 
Q 18.109375 20.125 21.3125 9.0625 
Q 24.515625 -2 31 -13.1875 
L 23.1875 -13.1875 
Q 15.875 -1.703125 12.234375 9.375 
Q 8.59375 20.453125 8.59375 31.390625 
Q 8.59375 42.28125 12.203125 53.3125 
Q 15.828125 64.359375 23.1875 75.875 
z
" id="DejaVuSans-40"/>
       <path d="M 44.28125 53.078125 
L 44.28125 44.578125 
Q 40.484375 46.53125 36.375 47.5 
Q 32.28125 48.484375 27.875 48.484375 
Q 21.1875 48.484375 17.84375 46.4375 
Q 14.5 44.390625 14.5 40.28125 
Q 14.5 37.15625 16.890625 35.375 
Q 19.28125 33.59375 26.515625 31.984375 
L 29.59375 31.296875 
Q 39.15625 29.25 43.1875 25.515625 
Q 47.21875 21.78125 47.21875 15.09375 
Q 47.21875 7.46875 41.1875 3.015625 
Q 35.15625 -1.421875 24.609375 -1.421875 
Q 20.21875 -1.421875 15.453125 -0.5625 
Q 10.6875 0.296875 5.421875 2 
L 5.421875 11.28125 
Q 10.40625 8.6875 15.234375 7.390625 
Q 20.0625 6.109375 24.8125 6.109375 
Q 31.15625 6.109375 34.5625 8.28125 
Q 37.984375 10.453125 37.984375 14.40625 
Q 37.984375 18.0625 35.515625 20.015625 
Q 33.0625 21.96875 24.703125 23.78125 
L 21.578125 24.515625 
Q 13.234375 26.265625 9.515625 29.90625 
Q 5.8125 33.546875 5.8125 39.890625 
Q 5.8125 47.609375 11.28125 51.796875 
Q 16.75 56 26.8125 56 
Q 31.78125 56 36.171875 55.265625 
Q 40.578125 54.546875 44.28125 53.078125 
z
" id="DejaVuSans-115"/>
       <path d="M 48.78125 52.59375 
L 48.78125 44.1875 
Q 44.96875 46.296875 41.140625 47.34375 
Q 37.3125 48.390625 33.40625 48.390625 
Q 24.65625 48.390625 19.8125 42.84375 
Q 14.984375 37.3125 14.984375 27.296875 
Q 14.984375 17.28125 19.8125 11.734375 
Q 24.65625 6.203125 33.40625 6.203125 
Q 37.3125 6.203125 41.140625 7.25 
Q 44.96875 8.296875 48.78125 10.40625 
L 48.78125 2.09375 
Q 45.015625 0.34375 40.984375 -0.53125 
Q 36.96875 -1.421875 32.421875 -1.421875 
Q 20.0625 -1.421875 12.78125 6.34375 
Q 5.515625 14.109375 5.515625 27.296875 
Q 5.515625 40.671875 12.859375 48.328125 
Q 20.21875 56 33.015625 56 
Q 37.15625 56 41.109375 55.140625 
Q 45.0625 54.296875 48.78125 52.59375 
z
" id="DejaVuSans-99"/>
       <path d="M 8.015625 75.875 
L 15.828125 75.875 
Q 23.140625 64.359375 26.78125 53.3125 
Q 30.421875 42.28125 30.421875 31.390625 
Q 30.421875 20.453125 26.78125 9.375 
Q 23.140625 -1.703125 15.828125 -13.1875 
L 8.015625 -13.1875 
Q 14.5 -2 17.703125 9.0625 
Q 20.90625 20.125 20.90625 31.390625 
Q 20.90625 42.671875 17.703125 53.65625 
Q 14.5 64.65625 8.015625 75.875 
z
" id="DejaVuSans-41"/>
      </defs>
      <use xlink:href="#DejaVuSans-84"/>
      <use x="57.958984" xlink:href="#DejaVuSans-105"/>
      <use x="85.742188" xlink:href="#DejaVuSans-109"/>
      <use x="183.154297" xlink:href="#DejaVuSans-101"/>
      <use x="244.677734" xlink:href="#DejaVuSans-32"/>
      <use x="276.464844" xlink:href="#DejaVuSans-40"/>
      <use x="315.478516" xlink:href="#DejaVuSans-115"/>
      <use x="367.578125" xlink:href="#DejaVuSans-101"/>
      <use x="429.101562" xlink:href="#DejaVuSans-99"/>
      <use x="484.082031" xlink:href="#DejaVuSans-41"/>
     </g>
    </g>
   </g>
   <g id="matplotlib.axis_2">
    <g id="ytick_1">
     <g id="line2d_7">
      <defs>
       <path d="M 0 0 
L -3.5 0 
" id="me552507737" style="stroke:#000000;stroke-width:0.8;"/>
      </defs>
      <g>
       <use style="stroke:#000000;stroke-width:0.8;" x="47.72" xlink:href="#me552507737" y="159.56"/>
      </g>
     </g>
     <g id="text_8">
      <!-- 0.0 -->
      <g transform="translate(24.816875 163.359219)scale(0.1 -0.1)">
       <use xlink:href="#DejaVuSans-48"/>
       <use x="63.623047" xlink:href="#DejaVuSans-46"/>
       <use x="95.410156" xlink:href="#DejaVuSans-48"/>
      </g>
     </g>
    </g>
    <g id="ytick_2">
     <g id="line2d_8">
      <g>
       <use style="stroke:#000000;stroke-width:0.8;" x="47.72" xlink:href="#me552507737" y="130.6"/>
      </g>
     </g>
     <g id="text_9">
      <!-- 0.2 -->
      <g transform="translate(24.816875 134.399219)scale(0.1 -0.1)">
       <use xlink:href="#DejaVuSans-48"/>
       <use x="63.623047" xlink:href="#DejaVuSans-46"/>
       <use x="95.410156" xlink:href="#DejaVuSans-50"/>
      </g>
     </g>
    </g>
    <g id="ytick_3">
     <g id="line2d_9">
      <g>
       <use style="stroke:#000000;stroke-width:0.8;" x="47.72" xlink:href="#me552507737" y="101.64"/>
      </g>
     </g>
     <g id="text_10">
      <!-- 0.4 -->
      <g transform="translate(24.816875 105.439219)scale(0.1 -0.1)">
       <use xlink:href="#DejaVuSans-48"/>
       <use x="63.623047" xlink:href="#DejaVuSans-46"/>
       <use x="95.410156" xlink:href="#DejaVuSans-52"/>
      </g>
     </g>
    </g>
    <g id="ytick_4">
     <g id="line2d_10">
      <g>
       <use style="stroke:#000000;stroke-width:0.8;" x="47.72" xlink:href="#me552507737" y="72.68"/>
      </g>
     </g>
     <g id="text_11">
      <!-- 0.6 -->
      <g transform="translate(24.816875 76.479219)scale(0.1 -0.1)">
       <use xlink:href="#DejaVuSans-48"/>
       <use x="63.623047" xlink:href="#DejaVuSans-46"/>
       <use x="95.410156" xlink:href="#DejaVuSans-54"/>
      </g>
     </g>
    </g>
    <g id="ytick_5">
     <g id="line2d_11">
      <g>
       <use style="stroke:#000000;stroke-width:0.8;" x="47.72" xlink:href="#me552507737" y="43.72"/>
      </g>
     </g>
     <g id="text_12">
      <!-- 0.8 -->
      <g transform="translate(24.816875 47.519219)scale(0.1 -0.1)">
       <use xlink:href="#DejaVuSans-48"/>
       <use x="63.623047" xlink:href="#DejaVuSans-46"/>
       <use x="95.410156" xlink:href="#DejaVuSans-56"/>
      </g>
     </g>
    </g>
    <g id="ytick_6">
     <g id="line2d_12">
      <g>
       <use style="stroke:#000000;stroke-width:0.8;" x="47.72" xlink:href="#me552507737" y="14.76"/>
      </g>
     </g>
     <g id="text_13">
      <!-- 1.0 -->
      <g transform="translate(24.816875 18.559219)scale(0.1 -0.1)">
       <use xlink:href="#DejaVuSans-49"/>
       <use x="63.623047" xlink:href="#DejaVuSans-46"/>
       <use x="95.410156" xlink:href="#DejaVuSans-48"/>
      </g>
     </g>
    </g>
    <g id="text_14">
     <!-- Injected Signal -->
     <g transform="translate(18.737188 131.417969)rotate(-90)scale(0.1 -0.1)">
      <defs>
       <path d="M 9.8125 72.90625 
L 19.671875 72.90625 
L 19.671875 0 
L 9.8125 0 
z
" id="DejaVuSans-73"/>
       <path d="M 54.890625 33.015625 
L 54.890625 0 
L 45.90625 0 
L 45.90625 32.71875 
Q 45.90625 40.484375 42.875 44.328125 
Q 39.84375 48.1875 33.796875 48.1875 
Q 26.515625 48.1875 22.3125 43.546875 
Q 18.109375 38.921875 18.109375 30.90625 
L 18.109375 0 
L 9.078125 0 
L 9.078125 54.6875 
L 18.109375 54.6875 
L 18.109375 46.1875 
Q 21.34375 51.125 25.703125 53.5625 
Q 30.078125 56 35.796875 56 
Q 45.21875 56 50.046875 50.171875 
Q 54.890625 44.34375 54.890625 33.015625 
z
" id="DejaVuSans-110"/>
       <path d="M 9.421875 54.6875 
L 18.40625 54.6875 
L 18.40625 -0.984375 
Q 18.40625 -11.421875 14.421875 -16.109375 
Q 10.453125 -20.796875 1.609375 -20.796875 
L -1.8125 -20.796875 
L -1.8125 -13.1875 
L 0.59375 -13.1875 
Q 5.71875 -13.1875 7.5625 -10.8125 
Q 9.421875 -8.453125 9.421875 -0.984375 
z
M 9.421875 75.984375 
L 18.40625 75.984375 
L 18.40625 64.59375 
L 9.421875 64.59375 
z
" id="DejaVuSans-106"/>
       <path d="M 18.3125 70.21875 
L 18.3125 54.6875 
L 36.8125 54.6875 
L 36.8125 47.703125 
L 18.3125 47.703125 
L 18.3125 18.015625 
Q 18.3125 11.328125 20.140625 9.421875 
Q 21.96875 7.515625 27.59375 7.515625 
L 36.8125 7.515625 
L 36.8125 0 
L 27.59375 0 
Q 17.1875 0 13.234375 3.875 
Q 9.28125 7.765625 9.28125 18.015625 
L 9.28125 47.703125 
L 2.6875 47.703125 
L 2.6875 54.6875 
L 9.28125 54.6875 
L 9.28125 70.21875 
z
" id="DejaVuSans-116"/>
       <path d="M 45.40625 46.390625 
L 45.40625 75.984375 
L 54.390625 75.984375 
L 54.390625 0 
L 45.40625 0 
L 45.40625 8.203125 
Q 42.578125 3.328125 38.25 0.953125 
Q 33.9375 -1.421875 27.875 -1.421875 
Q 17.96875 -1.421875 11.734375 6.484375 
Q 5.515625 14.40625 5.515625 27.296875 
Q 5.515625 40.1875 11.734375 48.09375 
Q 17.96875 56 27.875 56 
Q 33.9375 56 38.25 53.625 
Q 42.578125 51.265625 45.40625 46.390625 
z
M 14.796875 27.296875 
Q 14.796875 17.390625 18.875 11.75 
Q 22.953125 6.109375 30.078125 6.109375 
Q 37.203125 6.109375 41.296875 11.75 
Q 45.40625 17.390625 45.40625 27.296875 
Q 45.40625 37.203125 41.296875 42.84375 
Q 37.203125 48.484375 30.078125 48.484375 
Q 22.953125 48.484375 18.875 42.84375 
Q 14.796875 37.203125 14.796875 27.296875 
z
" id="DejaVuSans-100"/>
       <path d="M 53.515625 70.515625 
L 53.515625 60.890625 
Q 47.90625 63.578125 42.921875 64.890625 
Q 37.9375 66.21875 33.296875 66.21875 
Q 25.25 66.21875 20.875 63.09375 
Q 16.5 59.96875 16.5 54.203125 
Q 16.5 49.359375 19.40625 46.890625 
Q 22.3125 44.4375 30.421875 42.921875 
L 36.375 41.703125 
Q 47.40625 39.59375 52.65625 34.296875 
Q 57.90625 29 57.90625 20.125 
Q 57.90625 9.515625 50.796875 4.046875 
Q 43.703125 -1.421875 29.984375 -1.421875 
Q 24.8125 -1.421875 18.96875 -0.25 
Q 13.140625 0.921875 6.890625 3.21875 
L 6.890625 13.375 
Q 12.890625 10.015625 18.65625 8.296875 
Q 24.421875 6.59375 29.984375 6.59375 
Q 38.421875 6.59375 43.015625 9.90625 
Q 47.609375 13.234375 47.609375 19.390625 
Q 47.609375 24.75 44.3125 27.78125 
Q 41.015625 30.8125 33.5 32.328125 
L 27.484375 33.5 
Q 16.453125 35.6875 11.515625 40.375 
Q 6.59375 45.0625 6.59375 53.421875 
Q 6.59375 63.09375 13.40625 68.65625 
Q 20.21875 74.21875 32.171875 74.21875 
Q 37.3125 74.21875 42.625 73.28125 
Q 47.953125 72.359375 53.515625 70.515625 
z
" id="DejaVuSans-83"/>
       <path d="M 45.40625 27.984375 
Q 45.40625 37.75 41.375 43.109375 
Q 37.359375 48.484375 30.078125 48.484375 
Q 22.859375 48.484375 18.828125 43.109375 
Q 14.796875 37.75 14.796875 27.984375 
Q 14.796875 18.265625 18.828125 12.890625 
Q 22.859375 7.515625 30.078125 7.515625 
Q 37.359375 7.515625 41.375 12.890625 
Q 45.40625 18.265625 45.40625 27.984375 
z
M 54.390625 6.78125 
Q 54.390625 -7.171875 48.1875 -13.984375 
Q 42 -20.796875 29.203125 -20.796875 
Q 24.46875 -20.796875 20.265625 -20.09375 
Q 16.0625 -19.390625 12.109375 -17.921875 
L 12.109375 -9.1875 
Q 16.0625 -11.328125 19.921875 -12.34375 
Q 23.78125 -13.375 27.78125 -13.375 
Q 36.625 -13.375 41.015625 -8.765625 
Q 45.40625 -4.15625 45.40625 5.171875 
L 45.40625 9.625 
Q 42.625 4.78125 38.28125 2.390625 
Q 33.9375 0 27.875 0 
Q 17.828125 0 11.671875 7.65625 
Q 5.515625 15.328125 5.515625 27.984375 
Q 5.515625 40.671875 11.671875 48.328125 
Q 17.828125 56 27.875 56 
Q 33.9375 56 38.28125 53.609375 
Q 42.625 51.21875 45.40625 46.390625 
L 45.40625 54.6875 
L 54.390625 54.6875 
z
" id="DejaVuSans-103"/>
       <path d="M 34.28125 27.484375 
Q 23.390625 27.484375 19.1875 25 
Q 14.984375 22.515625 14.984375 16.5 
Q 14.984375 11.71875 18.140625 8.90625 
Q 21.296875 6.109375 26.703125 6.109375 
Q 34.1875 6.109375 38.703125 11.40625 
Q 43.21875 16.703125 43.21875 25.484375 
L 43.21875 27.484375 
z
M 52.203125 31.203125 
L 52.203125 0 
L 43.21875 0 
L 43.21875 8.296875 
Q 40.140625 3.328125 35.546875 0.953125 
Q 30.953125 -1.421875 24.3125 -1.421875 
Q 15.921875 -1.421875 10.953125 3.296875 
Q 6 8.015625 6 15.921875 
Q 6 25.140625 12.171875 29.828125 
Q 18.359375 34.515625 30.609375 34.515625 
L 43.21875 34.515625 
L 43.21875 35.40625 
Q 43.21875 41.609375 39.140625 45 
Q 35.0625 48.390625 27.6875 48.390625 
Q 23 48.390625 18.546875 47.265625 
Q 14.109375 46.140625 10.015625 43.890625 
L 10.015625 52.203125 
Q 14.9375 54.109375 19.578125 55.046875 
Q 24.21875 56 28.609375 56 
Q 40.484375 56 46.34375 49.84375 
Q 52.203125 43.703125 52.203125 31.203125 
z
" id="DejaVuSans-97"/>
       <path d="M 9.421875 75.984375 
L 18.40625 75.984375 
L 18.40625 0 
L 9.421875 0 
z
" id="DejaVuSans-108"/>
      </defs>
      <use xlink:href="#DejaVuSans-73"/>
      <use x="29.492188" xlink:href="#DejaVuSans-110"/>
      <use x="92.871094" xlink:href="#DejaVuSans-106"/>
      <use x="120.654297" xlink:href="#DejaVuSans-101"/>
      <use x="182.177734" xlink:href="#DejaVuSans-99"/>
      <use x="237.158203" xlink:href="#DejaVuSans-116"/>
      <use x="276.367188" xlink:href="#DejaVuSans-101"/>
      <use x="337.890625" xlink:href="#DejaVuSans-100"/>
      <use x="401.367188" xlink:href="#DejaVuSans-32"/>
      <use x="433.154297" xlink:href="#DejaVuSans-83"/>
      <use x="496.630859" xlink:href="#DejaVuSans-105"/>
      <use x="524.414062" xlink:href="#DejaVuSans-103"/>
      <use x="587.890625" xlink:href="#DejaVuSans-110"/>
      <use x="651.269531" xlink:href="#DejaVuSans-97"/>
      <use x="712.548828" xlink:href="#DejaVuSans-108"/>
     </g>
    </g>
   </g>
   <g id="line2d_13">
    <path clip-path="url(#pf277d89eb1)" d="M 61.423636 95.534975 
L 61.697709 66.812894 
L 61.971782 101.348004 
L 62.245855 91.622215 
L 62.519927 65.628192 
L 62.794 101.850161 
L 63.068073 69.228956 
L 63.616218 104.21834 
L 63.890291 70.033508 
L 64.438436 46.454423 
L 64.712509 100.054916 
L 65.260655 47.703185 
L 65.534727 96.897617 
L 65.8088 48.92387 
L 66.082873 44.208918 
L 66.356945 66.90986 
L 66.631018 78.339194 
L 66.905091 71.421062 
L 67.179164 129.26346 
L 67.727309 77.114941 
L 68.001382 117.619204 
L 68.275455 127.500724 
L 68.549527 49.216797 
L 68.8236 130.582609 
L 69.371745 45.360555 
L 69.645818 67.677502 
L 69.919891 56.907508 
L 70.193964 52.131024 
L 70.468036 50.974342 
L 71.016182 99.31863 
L 71.290255 52.078819 
L 71.564327 128.863688 
L 71.8384 66.871534 
L 72.112473 109.587904 
L 72.386545 48.98169 
L 72.660618 47.141528 
L 72.934691 93.08306 
L 73.482836 100.128746 
L 73.756909 100.954024 
L 74.030982 112.081702 
L 74.305055 100.598497 
L 74.579127 46.433727 
L 74.8532 58.191036 
L 75.127273 82.854962 
L 75.401345 80.056192 
L 75.675418 53.505295 
L 75.949491 95.997309 
L 76.223564 119.840473 
L 76.497636 91.508098 
L 76.771709 95.84279 
L 77.045782 55.513781 
L 77.319855 52.600264 
L 77.593927 85.527293 
L 77.868 88.304482 
L 78.142073 62.038238 
L 78.416145 128.657817 
L 78.690218 97.396108 
L 78.964291 81.671054 
L 79.238364 88.529258 
L 79.512436 126.97385 
L 79.786509 126.252407 
L 80.060582 120.528198 
L 80.334655 74.754517 
L 80.608727 130.194174 
L 81.156873 52.60505 
L 81.430945 121.37819 
L 81.705018 94.69502 
L 81.979091 52.243577 
L 82.253164 111.390966 
L 82.527236 95.157234 
L 82.801309 104.240657 
L 83.075382 72.276335 
L 83.349455 125.409013 
L 83.623527 61.287981 
L 83.8976 112.280801 
L 84.171673 126.699012 
L 84.445745 74.810504 
L 84.719818 51.461797 
L 84.993891 130.403714 
L 85.267964 44.337679 
L 85.542036 48.139818 
L 85.816109 118.826917 
L 86.090182 74.975098 
L 86.364255 101.76081 
L 86.638327 86.973296 
L 86.9124 59.451109 
L 87.186473 129.811439 
L 87.460545 63.129315 
L 87.734618 92.382362 
L 88.008691 52.566306 
L 88.282764 118.973904 
L 88.556836 111.893053 
L 88.830909 123.1373 
L 89.104982 108.789473 
L 89.379055 127.798643 
L 89.653127 113.645704 
L 89.9272 122.344502 
L 90.201273 62.175466 
L 90.475345 119.456375 
L 90.749418 88.077889 
L 91.023491 93.959523 
L 91.297564 82.910066 
L 91.571636 130.422482 
L 91.845709 78.969683 
L 92.119782 128.439582 
L 92.393855 46.579528 
L 92.667927 80.079906 
L 92.942 68.760573 
L 93.216073 70.466408 
L 93.490145 99.95682 
L 93.764218 115.693335 
L 94.038291 44.216347 
L 94.312364 44.3107 
L 94.586436 111.636254 
L 94.860509 84.195018 
L 95.134582 72.395703 
L 95.408655 106.72768 
L 95.682727 124.504347 
L 95.9568 112.337664 
L 96.230873 94.87234 
L 96.504945 62.212434 
L 96.779018 86.972002 
L 97.053091 88.371221 
L 97.327164 83.77274 
L 97.601236 83.897602 
L 97.875309 100.287226 
L 98.149382 58.93593 
L 98.423455 76.168253 
L 98.9716 124.761462 
L 99.245673 47.047222 
L 99.519745 129.93074 
L 99.793818 107.771539 
L 100.067891 59.51115 
L 100.341964 83.365288 
L 100.616036 83.812183 
L 100.890109 117.02675 
L 101.438255 76.69316 
L 101.712327 52.974359 
L 101.9864 45.62 
L 102.260473 128.737513 
L 102.534545 104.05519 
L 102.808618 94.026599 
L 103.082691 117.138134 
L 103.630836 102.492787 
L 103.904909 63.758594 
L 104.178982 49.832803 
L 104.453055 100.29808 
L 104.727127 104.935102 
L 105.275273 77.82152 
L 105.549345 115.269186 
L 105.823418 91.590176 
L 106.097491 48.215625 
L 106.371564 46.761702 
L 106.645636 101.213769 
L 106.919709 120.989139 
L 107.193782 44.178179 
L 107.467855 126.285149 
L 107.741927 102.192015 
L 108.016 122.686238 
L 108.290073 45.323697 
L 108.564145 88.957647 
L 108.838218 83.146555 
L 109.112291 126.217382 
L 109.386364 53.548928 
L 109.934509 130.200566 
L 110.482655 93.588518 
L 110.756727 114.856593 
L 111.0308 116.25148 
L 111.578945 65.483547 
L 111.853018 77.999902 
L 112.127091 84.529441 
L 112.401164 67.175595 
L 112.675236 59.626951 
L 112.949309 74.475523 
L 113.223382 53.7259 
L 113.497455 89.61404 
L 113.771527 94.088761 
L 114.0456 109.956709 
L 114.319673 87.511323 
L 114.593745 124.066871 
L 114.867818 95.033318 
L 115.141891 98.172646 
L 115.415964 98.103136 
L 115.690036 69.628901 
L 115.964109 87.442255 
L 116.238182 46.807029 
L 116.512255 93.900486 
L 116.786327 85.261164 
L 117.0604 110.193646 
L 117.334473 75.374093 
L 117.608545 81.446505 
L 117.882618 101.205321 
L 118.156691 53.212383 
L 118.430764 107.269786 
L 118.704836 107.366986 
L 118.978909 56.340017 
L 119.252982 105.476728 
L 119.527055 96.647233 
L 119.801127 102.549603 
L 120.0752 62.582342 
L 120.349273 129.604266 
L 120.623345 108.16084 
L 120.897418 112.764227 
L 121.171491 109.988704 
L 121.719636 76.35393 
L 121.993709 92.389694 
L 122.267782 128.054479 
L 122.541855 90.579255 
L 122.815927 78.300207 
L 123.09 119.147768 
L 123.364073 49.259295 
L 123.638145 84.980005 
L 123.912218 61.634207 
L 124.186291 49.115198 
L 124.460364 128.113055 
L 124.734436 46.692419 
L 125.008509 114.94815 
L 125.282582 121.741178 
L 125.556655 61.940431 
L 125.830727 123.628088 
L 126.378873 93.0751 
L 126.652945 61.334524 
L 126.927018 65.242984 
L 127.201091 109.664739 
L 127.475164 74.156447 
L 127.749236 54.324647 
L 128.297382 80.786463 
L 128.571455 107.504383 
L 128.845527 46.402395 
L 129.393673 117.463016 
L 129.667745 117.631923 
L 129.941818 52.791358 
L 130.215891 121.953464 
L 130.489964 118.990882 
L 130.764036 80.167502 
L 131.038109 76.746403 
L 131.312182 48.52892 
L 131.586255 89.391 
L 131.860327 107.267034 
L 132.1344 116.884831 
L 132.408473 119.935745 
L 132.682545 97.417936 
L 132.956618 56.040789 
L 133.230691 107.642739 
L 133.504764 96.004305 
L 133.778836 59.068773 
L 134.052909 104.181638 
L 134.326982 119.688436 
L 134.601055 119.749651 
L 134.875127 84.307212 
L 135.1492 108.149331 
L 135.697345 116.266134 
L 135.971418 105.049062 
L 136.245491 114.29794 
L 136.519564 49.636032 
L 136.793636 88.719353 
L 137.341782 82.433661 
L 137.615855 55.739998 
L 137.889927 124.277517 
L 138.164 49.53187 
L 138.438073 117.820783 
L 138.712145 73.247789 
L 138.986218 127.144248 
L 139.260291 102.505664 
L 139.534364 50.836577 
L 139.808436 112.871274 
L 140.082509 68.743595 
L 140.356582 58.733088 
L 140.904727 127.069998 
L 141.1788 51.061119 
L 141.452873 75.368437 
L 141.726945 72.349824 
L 142.001018 86.892952 
L 142.275091 85.036027 
L 142.549164 120.531956 
L 142.823236 78.585705 
L 143.371382 64.832352 
L 143.645455 111.619444 
L 143.919527 57.386461 
L 144.1936 121.356193 
L 144.467673 101.949573 
L 144.741745 115.347961 
L 145.015818 87.741775 
L 145.289891 127.781215 
L 145.563964 69.777171 
L 145.838036 79.416914 
L 146.112109 53.125547 
L 146.386182 106.961476 
L 146.660255 104.264997 
L 146.934327 56.882678 
L 147.2084 96.1909 
L 147.482473 100.900103 
L 147.756545 96.454956 
L 148.030618 80.604737 
L 148.304691 45.85974 
L 148.578764 123.897837 
L 148.852836 48.917629 
L 149.126909 70.712237 
L 149.400982 124.203648 
L 149.675055 77.462708 
L 149.949127 92.283122 
L 150.2232 76.759774 
L 150.497273 107.532013 
L 150.771345 48.854521 
L 151.045418 98.851422 
L 151.593564 47.901097 
L 151.867636 53.334435 
L 152.141709 68.75722 
L 152.415782 67.767627 
L 152.689855 127.919658 
L 152.963927 97.001127 
L 153.238 99.352492 
L 153.512073 115.64993 
L 153.786145 75.37792 
L 154.060218 63.225765 
L 154.334291 124.989673 
L 154.608364 60.166434 
L 154.882436 72.338105 
L 155.156509 98.476591 
L 155.430582 69.387554 
L 155.704655 107.312453 
L 155.978727 108.042611 
L 156.2528 63.016094 
L 156.526873 98.516206 
L 156.800945 84.120441 
L 157.075018 45.698385 
L 157.897236 125.178235 
L 158.171309 127.885024 
L 158.445382 51.436293 
L 158.719455 106.545869 
L 158.993527 88.338549 
L 159.2676 83.046828 
L 159.541673 72.427226 
L 159.815745 69.476745 
L 160.089818 104.024196 
L 160.363891 84.050376 
L 160.637964 72.679799 
L 160.912036 88.064401 
L 161.186109 112.779502 
L 162.2824 50.316632 
L 162.556473 56.545224 
L 162.830545 76.643642 
L 163.104618 127.345658 
L 163.378691 103.590587 
L 163.652764 64.443964 
L 163.926836 66.320304 
L 164.200909 69.785326 
L 164.474982 118.054486 
L 164.749055 104.835795 
L 165.023127 48.251162 
L 165.2972 100.064841 
L 165.571273 81.319128 
L 165.845345 127.412492 
L 166.119418 126.966958 
L 166.393491 111.059558 
L 166.667564 62.960306 
L 166.941636 99.036395 
L 167.215709 89.033129 
L 167.489782 63.025524 
L 167.763855 82.500868 
L 168.037927 77.797612 
L 168.312 53.14403 
L 168.586073 122.289198 
L 168.860145 59.323651 
L 169.134218 83.288935 
L 169.408291 60.430327 
L 169.682364 110.602639 
L 169.956436 52.927504 
L 170.230509 73.972317 
L 170.504582 121.856396 
L 171.052727 64.254814 
L 171.3268 124.606545 
L 171.600873 77.173452 
L 171.874945 87.211152 
L 172.149018 88.168734 
L 172.423091 71.509818 
L 172.697164 81.061596 
L 173.245309 51.057724 
L 173.519382 100.321661 
L 173.793455 98.637711 
L 174.067527 114.223097 
L 174.3416 52.427071 
L 174.615673 114.089045 
L 175.163818 55.85413 
L 175.437891 101.796379 
L 175.711964 46.35621 
L 175.986036 109.882099 
L 176.260109 88.029509 
L 176.534182 91.111484 
L 177.082327 52.648543 
L 177.630473 118.628392 
L 177.904545 69.759219 
L 178.178618 89.838439 
L 178.452691 120.451574 
L 178.726764 93.388374 
L 179.000836 122.222971 
L 179.548982 54.548816 
L 179.823055 86.42785 
L 180.097127 72.675291 
L 180.3712 70.827606 
L 180.645273 120.816119 
L 180.919345 47.799772 
L 181.193418 64.270674 
L 181.467491 51.459628 
L 181.741564 115.778844 
L 182.015636 112.391172 
L 182.289709 84.097903 
L 182.563782 127.218773 
L 182.837855 56.764824 
L 183.111927 55.98163 
L 183.386 66.629766 
L 183.660073 101.553885 
L 183.934145 47.449771 
L 184.208218 69.125927 
L 184.482291 103.084997 
L 184.756364 115.537356 
L 185.030436 78.302009 
L 185.304509 98.068242 
L 185.578582 126.987609 
L 185.852655 95.516181 
L 186.126727 79.927937 
L 186.4008 56.492865 
L 186.674873 102.312719 
L 186.948945 122.7146 
L 187.223018 96.930255 
L 187.497091 124.622665 
L 187.771164 104.227185 
L 188.045236 51.339734 
L 188.319309 105.147044 
L 188.593382 84.182826 
L 188.867455 84.962818 
L 189.141527 126.508952 
L 189.4156 64.83142 
L 189.689673 48.974967 
L 189.963745 44.240485 
L 190.237818 67.5354 
L 190.511891 116.258748 
L 190.785964 117.081881 
L 191.060036 116.601215 
L 191.334109 94.16254 
L 191.608182 112.695833 
L 191.882255 91.89427 
L 192.156327 129.298722 
L 192.4304 121.232278 
L 192.704473 45.736154 
L 192.978545 125.913708 
L 193.252618 53.083186 
L 193.526691 94.33725 
L 193.800764 111.799582 
L 194.074836 50.217138 
L 194.348909 100.68572 
L 194.622982 58.503755 
L 194.897055 123.284206 
L 195.171127 104.214116 
L 195.4452 49.185982 
L 195.993345 71.302192 
L 196.267418 99.432516 
L 196.541491 81.851148 
L 196.815564 80.831069 
L 197.089636 66.362017 
L 197.363709 60.750992 
L 197.637782 52.429355 
L 198.185927 114.890548 
L 198.46 69.955946 
L 198.734073 125.067807 
L 199.008145 74.981604 
L 199.282218 118.501272 
L 199.556291 44.858941 
L 199.830364 69.90295 
L 200.104436 129.527475 
L 200.378509 124.691307 
L 200.652582 101.700472 
L 200.926655 46.931122 
L 201.200727 69.527168 
L 201.4748 45.187626 
L 201.748873 68.941727 
L 202.022945 106.527412 
L 202.297018 69.806083 
L 202.571091 127.189127 
L 202.845164 45.68745 
L 203.119236 122.748979 
L 203.667382 54.797208 
L 203.941455 75.683978 
L 204.215527 117.941873 
L 204.4896 99.891534 
L 204.763673 124.213996 
L 205.037745 129.683071 
L 205.311818 118.608207 
L 205.585891 126.089329 
L 205.859964 67.867856 
L 206.134036 116.530286 
L 206.408109 87.155999 
L 206.682182 115.407478 
L 206.956255 53.100346 
L 207.230327 118.88708 
L 207.5044 65.738128 
L 207.778473 126.330703 
L 208.052545 60.956659 
L 208.326618 78.545294 
L 208.600691 77.336203 
L 208.874764 100.354454 
L 209.148836 44.656409 
L 209.422909 113.312925 
L 209.696982 92.526075 
L 209.971055 91.368476 
L 210.245127 119.461211 
L 210.5192 68.554154 
L 210.793273 127.49525 
L 211.067345 51.12205 
L 211.341418 65.949094 
L 211.615491 67.338297 
L 211.889564 102.116871 
L 212.163636 93.827131 
L 212.437709 105.249562 
L 212.711782 122.614482 
L 212.985855 104.961477 
L 213.259927 106.30628 
L 213.534 120.857208 
L 214.082145 47.844902 
L 214.356218 113.316405 
L 214.904364 44.362681 
L 215.178436 94.644685 
L 215.452509 76.535625 
L 215.726582 127.921573 
L 216.274727 70.254456 
L 216.5488 53.43081 
L 216.822873 81.087578 
L 217.096945 79.598274 
L 217.371018 81.180256 
L 217.645091 113.084438 
L 217.919164 66.135413 
L 218.193236 48.876071 
L 218.467309 59.319199 
L 218.741382 88.383086 
L 219.015455 68.575112 
L 219.289527 78.961923 
L 219.5636 48.613757 
L 219.837673 107.495566 
L 220.111745 64.336036 
L 220.385818 93.744428 
L 220.659891 55.988572 
L 220.933964 46.450331 
L 221.208036 60.739934 
L 221.756182 112.966505 
L 222.304327 50.140424 
L 222.5784 106.211646 
L 222.852473 54.630931 
L 223.126545 128.09184 
L 223.400618 47.972304 
L 223.674691 95.818947 
L 223.948764 53.405565 
L 224.222836 125.591402 
L 224.496909 75.738882 
L 225.045055 103.033327 
L 225.5932 77.161072 
L 225.867273 119.872141 
L 226.141345 117.383679 
L 226.415418 109.631672 
L 226.689491 62.774882 
L 226.963564 66.587582 
L 227.237636 51.646616 
L 227.511709 92.881362 
L 227.785782 46.135635 
L 228.059855 86.136644 
L 228.333927 89.923252 
L 228.608 83.694366 
L 228.882073 128.291282 
L 229.156145 66.122338 
L 229.430218 102.764478 
L 229.704291 106.797609 
L 229.978364 105.276501 
L 230.252436 96.025951 
L 230.526509 103.006318 
L 230.800582 116.096384 
L 231.074655 118.310558 
L 231.6228 56.261279 
L 231.896873 121.013808 
L 232.445018 116.272345 
L 232.719091 121.882766 
L 232.993164 48.777246 
L 233.267236 46.805066 
L 233.815382 74.968645 
L 234.089455 53.668624 
L 234.363527 85.900418 
L 234.6376 56.345175 
L 234.911673 85.384505 
L 235.459818 46.611116 
L 235.733891 54.818208 
L 236.007964 44.710704 
L 236.282036 48.228619 
L 236.556109 64.742849 
L 236.830182 44.634016 
L 237.104255 80.96057 
L 237.378327 80.412238 
L 237.6524 50.27235 
L 237.926473 123.291093 
L 238.200545 97.016877 
L 238.474618 117.565416 
L 239.022764 48.032056 
L 239.296836 119.051744 
L 239.570909 111.936333 
L 239.844982 82.061232 
L 240.119055 100.557582 
L 240.393127 46.454002 
L 240.6672 47.936867 
L 240.941273 67.960616 
L 241.215345 129.817284 
L 241.763491 57.285246 
L 242.037564 45.24391 
L 242.311636 123.646278 
L 242.585709 56.165678 
L 242.859782 64.946222 
L 243.133855 115.89148 
L 243.407927 126.570028 
L 243.682 120.228272 
L 243.956073 123.344325 
L 244.504218 68.175332 
L 244.778291 107.741687 
L 245.052364 79.839514 
L 245.326436 122.729568 
L 245.874582 75.59057 
L 246.148655 72.700169 
L 246.422727 123.352741 
L 246.6968 61.372313 
L 246.970873 55.451285 
L 247.244945 114.505622 
L 247.519018 70.065735 
L 248.067164 53.35989 
L 248.615309 74.47656 
L 248.889382 121.041176 
L 249.437527 49.803464 
L 249.7116 64.526348 
L 249.985673 59.770977 
L 250.259745 62.200073 
L 250.533818 46.097571 
L 250.807891 56.692436 
L 251.081964 102.41741 
L 251.356036 103.480491 
L 251.630109 56.880341 
L 251.904182 109.384263 
L 252.178255 51.114814 
L 252.452327 128.105651 
L 252.7264 72.571565 
L 253.000473 129.730489 
L 253.274545 122.893954 
L 253.548618 112.889004 
L 253.822691 61.494496 
L 254.096764 67.875842 
L 254.370836 90.940573 
L 254.644909 124.158576 
L 254.918982 73.395309 
L 255.193055 106.409329 
L 255.7412 44.839034 
L 256.015273 74.314326 
L 256.289345 84.88801 
L 256.563418 75.015435 
L 256.837491 130.081256 
L 257.385636 46.626538 
L 257.659709 97.85193 
L 257.933782 80.661476 
L 258.207855 55.563483 
L 258.481927 62.299224 
L 259.030073 97.657264 
L 259.304145 91.695136 
L 259.578218 81.296165 
L 259.852291 117.162921 
L 260.126364 56.561936 
L 260.400436 92.326851 
L 260.674509 97.443559 
L 260.948582 48.597057 
L 261.496727 125.20071 
L 261.7708 65.829226 
L 262.044873 55.577086 
L 262.318945 128.16678 
L 262.593018 129.570516 
L 262.867091 125.02351 
L 263.141164 85.002816 
L 263.415236 80.518594 
L 263.689309 66.138464 
L 264.511527 112.068567 
L 264.7856 107.893872 
L 265.059673 98.297997 
L 265.333745 119.702727 
L 265.607818 90.140445 
L 265.881891 97.470806 
L 266.155964 47.298959 
L 266.430036 50.479848 
L 266.704109 51.551863 
L 266.978182 87.976031 
L 267.252255 52.431876 
L 267.526327 85.636156 
L 267.8004 83.940605 
L 268.074473 47.955128 
L 268.348545 110.666247 
L 268.622618 65.292683 
L 268.896691 53.901468 
L 269.170764 72.629263 
L 269.444836 81.626944 
L 269.718909 119.171693 
L 269.992982 89.094628 
L 270.267055 72.911133 
L 270.541127 129.175684 
L 270.8152 87.05651 
L 271.089273 88.581033 
L 271.363345 96.450228 
L 271.637418 100.942822 
L 271.911491 51.566444 
L 272.185564 94.149488 
L 272.459636 45.339994 
L 272.733709 93.203887 
L 273.281855 127.009606 
L 273.555927 98.394476 
L 273.83 84.777498 
L 274.104073 100.163436 
L 274.378145 74.672826 
L 274.652218 119.002431 
L 274.926291 88.003687 
L 275.474436 71.589926 
L 275.748509 70.205851 
L 276.022582 130.143875 
L 276.296655 103.304717 
L 276.570727 52.592328 
L 276.8448 66.864924 
L 277.118873 65.363103 
L 277.392945 75.701379 
L 277.667018 53.237827 
L 277.941091 51.514318 
L 278.215164 125.354567 
L 278.489236 78.631947 
L 278.763309 54.474772 
L 279.037382 53.025888 
L 279.311455 73.769046 
L 279.585527 76.176773 
L 279.8596 116.418336 
L 280.133673 73.812999 
L 280.407745 74.92138 
L 280.681818 71.427639 
L 280.955891 81.227281 
L 281.229964 124.215455 
L 281.504036 45.505044 
L 281.778109 127.690882 
L 282.052182 78.649617 
L 282.326255 77.383621 
L 282.600327 64.741465 
L 282.8744 63.053446 
L 283.148473 80.01615 
L 283.422545 61.626638 
L 283.696618 72.525451 
L 283.970691 123.498734 
L 284.244764 99.909184 
L 284.518836 98.852145 
L 284.792909 65.134981 
L 285.066982 120.199988 
L 285.341055 91.054628 
L 285.8892 78.249986 
L 286.163273 79.52941 
L 286.437345 129.90648 
L 286.711418 78.664979 
L 286.985491 128.949478 
L 287.259564 69.834357 
L 287.533636 85.033955 
L 287.807709 49.081801 
L 288.081782 116.040014 
L 288.355855 107.581161 
L 288.629927 113.262106 
L 288.904 75.321148 
L 289.178073 93.015533 
L 289.452145 69.30542 
L 289.726218 56.862718 
L 290.000291 68.965186 
L 290.274364 67.469813 
L 290.548436 110.220524 
L 290.822509 120.178825 
L 291.096582 122.996058 
L 291.370655 127.43472 
L 291.644727 125.374742 
L 291.9188 77.777095 
L 292.192873 90.02002 
L 292.466945 117.091071 
L 292.741018 126.183256 
L 293.015091 63.051347 
L 293.289164 61.216314 
L 293.563236 109.878613 
L 293.837309 99.04933 
L 294.111382 63.928781 
L 294.385455 101.52601 
L 294.659527 71.040156 
L 294.9336 112.683732 
L 295.207673 119.107722 
L 295.481745 85.519608 
L 295.755818 123.314964 
L 296.029891 44.91762 
L 296.303964 73.179294 
L 296.578036 113.471456 
L 296.852109 121.660163 
L 297.674327 83.417102 
L 297.9484 110.808985 
L 298.222473 110.135773 
L 298.496545 58.427239 
L 298.770618 72.888351 
L 299.044691 112.633301 
L 299.318764 107.715855 
L 299.592836 45.19587 
L 299.866909 73.630096 
L 300.140982 128.650071 
L 300.415055 83.308511 
L 300.689127 124.374806 
L 301.237273 64.593095 
L 301.511345 121.825603 
L 301.785418 120.668187 
L 302.059491 100.369769 
L 302.333564 60.524439 
L 302.607636 110.397684 
L 302.881709 110.114848 
L 303.155782 94.300457 
L 303.429855 115.495505 
L 303.703927 59.586049 
L 303.978 129.854352 
L 304.252073 86.557821 
L 304.526145 99.837058 
L 304.800218 124.85765 
L 305.074291 60.865926 
L 305.348364 108.934833 
L 305.622436 57.888616 
L 305.896509 128.92312 
L 306.170582 52.515869 
L 306.444655 84.263352 
L 306.718727 60.035448 
L 306.9928 85.104824 
L 307.266873 71.055493 
L 307.540945 91.943344 
L 307.815018 83.694411 
L 308.089091 95.687091 
L 308.363164 63.655508 
L 308.637236 100.293818 
L 308.911309 108.431247 
L 309.185382 77.069231 
L 309.459455 65.874097 
L 309.733527 66.572964 
L 310.0076 45.031452 
L 310.555745 126.84863 
L 310.829818 63.854554 
L 311.103891 67.004495 
L 311.377964 99.810378 
L 311.652036 70.007015 
L 312.200182 58.807388 
L 312.474255 103.542248 
L 312.748327 58.65106 
L 313.0224 46.537283 
L 313.296473 94.221139 
L 313.570545 91.974485 
L 313.844618 54.738191 
L 314.118691 92.174269 
L 314.392764 112.539048 
L 314.940909 79.685349 
L 315.214982 119.435657 
L 315.489055 49.092932 
L 315.763127 62.712933 
L 316.0372 128.153319 
L 316.311273 53.445195 
L 316.585345 68.750592 
L 316.859418 62.144566 
L 317.133491 110.151155 
L 317.407564 50.645948 
L 317.681636 77.305071 
L 317.955709 126.85776 
L 318.229782 46.621121 
L 318.503855 93.794636 
L 318.777927 85.156818 
L 319.052 68.724245 
L 319.326073 105.674931 
L 319.600145 68.761771 
L 319.874218 68.686633 
L 320.148291 72.701256 
L 320.422364 71.304027 
L 320.696436 128.596398 
L 320.970509 52.78011 
L 321.244582 63.336985 
L 321.518655 92.258652 
L 321.792727 92.375419 
L 322.0668 123.462488 
L 322.340873 58.64191 
L 322.614945 54.875554 
L 322.889018 112.815997 
L 323.163091 111.856575 
L 323.437164 107.066243 
L 323.985309 65.917796 
L 324.259382 125.180096 
L 324.533455 103.952935 
L 324.807527 65.912429 
L 325.0816 79.052867 
L 325.355673 128.027188 
L 325.903818 74.544751 
L 326.177891 128.253003 
L 326.451964 82.674361 
L 326.726036 95.911621 
L 327.000109 76.444644 
L 327.274182 95.4049 
L 327.548255 74.706519 
L 327.822327 113.654562 
L 328.0964 48.003756 
L 328.370473 95.848276 
L 328.644545 87.176901 
L 328.918618 58.103955 
L 329.192691 85.040761 
L 329.466764 94.664712 
L 330.014909 126.502349 
L 330.563055 66.73704 
L 330.837127 127.518508 
L 331.1112 77.313622 
L 331.385273 52.133356 
L 331.933418 84.662982 
L 332.207491 55.185727 
L 332.481564 52.49873 
L 332.755636 103.5229 
L 333.029709 101.968412 
L 333.303782 125.190881 
L 333.577855 60.448006 
L 333.851927 45.984057 
L 334.400073 114.426442 
L 334.674145 120.879835 
L 334.948218 77.350526 
L 335.222291 103.110236 
L 335.222291 103.110236 
" style="fill:none;stroke:#1f77b4;stroke-linecap:square;stroke-width:1.5;"/>
   </g>
   <g id="line2d_14">
    <path clip-path="url(#pf277d89eb1)" d="M 61.423636 87.16 
L 335.496364 87.16 
" style="fill:none;stroke:#ff0000;stroke-dasharray:7.4,3.2;stroke-dashoffset:0;stroke-width:2;"/>
   </g>
   <g id="line2d_15">
    <path clip-path="url(#pf277d89eb1)" d="M 192.978545 87.16 
L 203.941455 87.16 
" style="fill:none;stroke:#000000;stroke-linecap:square;stroke-width:2;"/>
   </g>
   <g id="line2d_16">
    <path clip-path="url(#pf277d89eb1)" d="M 192.978545 43.72 
L 203.941455 43.72 
" style="fill:none;stroke:#000000;stroke-linecap:square;stroke-width:2;"/>
   </g>
   <g id="line2d_17">
    <path clip-path="url(#pf277d89eb1)" d="M 198.46 87.16 
L 198.46 43.72 
" style="fill:none;stroke:#000000;stroke-linecap:square;stroke-width:2;"/>
   </g>
   <g id="line2d_18">
    <path clip-path="url(#pf277d89eb1)" d="M 192.978545 159.56 
L 203.941455 159.56 
" style="fill:none;stroke:#000000;stroke-linecap:square;stroke-width:2;"/>
   </g>
   <g id="line2d_19">
    <path clip-path="url(#pf277d89eb1)" d="M 198.46 159.56 
L 198.46 87.16 
" style="fill:none;stroke:#000000;stroke-linecap:square;stroke-width:2;"/>
   </g>
   <g id="patch_3">
    <path d="M 47.72 174.04 
L 47.72 14.76 
" style="fill:none;stroke:#000000;stroke-linecap:square;stroke-linejoin:miter;stroke-width:0.8;"/>
   </g>
   <g id="patch_4">
    <path d="M 349.2 174.04 
L 349.2 14.76 
" style="fill:none;stroke:#000000;stroke-linecap:square;stroke-linejoin:miter;stroke-width:0.8;"/>
   </g>
   <g id="patch_5">
    <path d="M 47.72 174.04 
L 349.2 174.04 
" style="fill:none;stroke:#000000;stroke-linecap:square;stroke-linejoin:miter;stroke-width:0.8;"/>
   </g>
   <g id="patch_6">
    <path d="M 47.72 14.76 
L 349.2 14.76 
" style="fill:none;stroke:#000000;stroke-linecap:square;stroke-linejoin:miter;stroke-width:0.8;"/>
   </g>
   <g id="text_15">
    <g id="patch_7">
     <path d="M 205.422909 71.519688 
L 235.015097 71.519688 
L 235.015097 53.841563 
L 205.422909 53.841563 
z
" style="fill:#ffffff;opacity:0.8;stroke:#000000;stroke-linejoin:miter;"/>
    </g>
    <!-- gain -->
    <g transform="translate(209.422909 65.44)scale(0.1 -0.1)">
     <use xlink:href="#DejaVuSans-103"/>
     <use x="63.476562" xlink:href="#DejaVuSans-97"/>
     <use x="124.755859" xlink:href="#DejaVuSans-105"/>
     <use x="152.539062" xlink:href="#DejaVuSans-110"/>
    </g>
   </g>
   <g id="text_16">
    <g id="patch_8">
     <path d="M 205.422909 129.439688 
L 241.865097 129.439688 
L 241.865097 111.761563 
L 205.422909 111.761563 
z
" style="fill:#ffffff;opacity:0.8;stroke:#000000;stroke-linejoin:miter;"/>
    </g>
    <!-- offset -->
    <g transform="translate(209.422909 123.36)scale(0.1 -0.1)">
     <defs>
      <path d="M 30.609375 48.390625 
Q 23.390625 48.390625 19.1875 42.75 
Q 14.984375 37.109375 14.984375 27.296875 
Q 14.984375 17.484375 19.15625 11.84375 
Q 23.34375 6.203125 30.609375 6.203125 
Q 37.796875 6.203125 41.984375 11.859375 
Q 46.1875 17.53125 46.1875 27.296875 
Q 46.1875 37.015625 41.984375 42.703125 
Q 37.796875 48.390625 30.609375 48.390625 
z
M 30.609375 56 
Q 42.328125 56 49.015625 48.375 
Q 55.71875 40.765625 55.71875 27.296875 
Q 55.71875 13.875 49.015625 6.21875 
Q 42.328125 -1.421875 30.609375 -1.421875 
Q 18.84375 -1.421875 12.171875 6.21875 
Q 5.515625 13.875 5.515625 27.296875 
Q 5.515625 40.765625 12.171875 48.375 
Q 18.84375 56 30.609375 56 
z
" id="DejaVuSans-111"/>
      <path d="M 37.109375 75.984375 
L 37.109375 68.5 
L 28.515625 68.5 
Q 23.6875 68.5 21.796875 66.546875 
Q 19.921875 64.59375 19.921875 59.515625 
L 19.921875 54.6875 
L 34.71875 54.6875 
L 34.71875 47.703125 
L 19.921875 47.703125 
L 19.921875 0 
L 10.890625 0 
L 10.890625 47.703125 
L 2.296875 47.703125 
L 2.296875 54.6875 
L 10.890625 54.6875 
L 10.890625 58.5 
Q 10.890625 67.625 15.140625 71.796875 
Q 19.390625 75.984375 28.609375 75.984375 
z
" id="DejaVuSans-102"/>
     </defs>
     <use xlink:href="#DejaVuSans-111"/>
     <use x="61.181641" xlink:href="#DejaVuSans-102"/>
     <use x="96.386719" xlink:href="#DejaVuSans-102"/>
     <use x="131.591797" xlink:href="#DejaVuSans-115"/>
     <use x="183.691406" xlink:href="#DejaVuSans-101"/>
     <use x="245.214844" xlink:href="#DejaVuSans-116"/>
    </g>
   </g>
  </g>
 </g>
 <defs>
  <clipPath id="pf277d89eb1">
   <rect height="159.28" width="301.48" x="47.72" y="14.76"/>
  </clipPath>
 </defs>
</svg>
