<?xml version="1.0" encoding="utf-8" standalone="no"?>
<!DOCTYPE svg PUBLIC "-//W3C//DTD SVG 1.1//EN"
  "http://www.w3.org/Graphics/SVG/1.1/DTD/svg11.dtd">
<svg xmlns:xlink="http://www.w3.org/1999/xlink" width="360pt" height="216pt" viewBox="0 0 360 216" xmlns="http://www.w3.org/2000/svg" version="1.1">
 <metadata>
  <rdf:RDF xmlns:dc="http://purl.org/dc/elements/1.1/" xmlns:cc="http://creativecommons.org/ns#" xmlns:rdf="http://www.w3.org/1999/02/22-rdf-syntax-ns#">
   <cc:Work>
    <dc:type rdf:resource="http://purl.org/dc/dcmitype/StillImage"/>
    <dc:date>2026-06-15T16:49:01.909563</dc:date>
    <dc:format>image/svg+xml</dc:format>
    <dc:creator>
     <cc:Agent>
      <dc:title>Matplotlib v3.11.0, https://matplotlib.org/</dc:title>
     </cc:Agent>
    </dc:creator>
   </cc:Work>
  </rdf:RDF>
 </metadata>
 <defs>
  <style type="text/css">*{stroke-linejoin: round; stroke-linecap: butt}</style>
 </defs>
 <g id="figure_1">
  <g id="patch_1">
   <path d="M 0 216 
L 360 216 
L 360 0 
L 0 0 
z
" style="fill: #ffffff"/>
  </g>
  <g id="axes_1">
   <g id="patch_2">
    <path d="M 47.962344 173.877656 
L 349.2 173.877656 
L 349.2 14.598828 
L 47.962344 14.598828 
z
" style="fill: #ffffff"/>
   </g>
   <g id="matplotlib.axis_1">
    <g id="xtick_1">
     <g id="line2d_1">
      <defs>
       <path id="mc38f9f0e4f" d="M 0 0 
L 0 3.5 
" style="stroke: #000000; stroke-width: 0.8"/>
      </defs>
      <g>
       <use xlink:href="#mc38f9f0e4f" x="61.654964" y="173.877656" style="stroke: #000000; stroke-width: 0.8"/>
      </g>
     </g>
     <g id="text_1">
      <!-- 0.0 -->
      <g transform="translate(53.703402 188.475313) scale(0.1 -0.1)">
       <defs>
        <path id="DejaVuSans-13" d="M 2034 4250 
Q 1547 4250 1301 3770 
Q 1056 3291 1056 2328 
Q 1056 1369 1301 889 
Q 1547 409 2034 409 
Q 2525 409 2770 889 
Q 3016 1369 3016 2328 
Q 3016 3291 2770 3770 
Q 2525 4250 2034 4250 
z
M 2034 4750 
Q 2819 4750 3233 4129 
Q 3647 3509 3647 2328 
Q 3647 1150 3233 529 
Q 2819 -91 2034 -91 
Q 1250 -91 836 529 
Q 422 1150 422 2328 
Q 422 3509 836 4129 
Q 1250 4750 2034 4750 
z
" transform="scale(0.015625)"/>
        <path id="DejaVuSans-11" d="M 684 794 
L 1344 794 
L 1344 0 
L 684 0 
L 684 794 
z
" transform="scale(0.015625)"/>
       </defs>
       <use xlink:href="#DejaVuSans-13"/>
       <use xlink:href="#DejaVuSans-11" transform="translate(63.625 0)"/>
       <use xlink:href="#DejaVuSans-13" transform="translate(95.40625 0)"/>
      </g>
     </g>
    </g>
    <g id="xtick_2">
     <g id="line2d_2">
      <g>
       <use xlink:href="#mc38f9f0e4f" x="116.425447" y="173.877656" style="stroke: #000000; stroke-width: 0.8"/>
      </g>
     </g>
     <g id="text_2">
      <!-- 0.2 -->
      <g transform="translate(108.473885 188.475313) scale(0.1 -0.1)">
       <defs>
        <path id="DejaVuSans-15" d="M 1228 531 
L 3431 531 
L 3431 0 
L 469 0 
L 469 531 
Q 828 903 1448 1529 
Q 2069 2156 2228 2338 
Q 2531 2678 2651 2914 
Q 2772 3150 2772 3378 
Q 2772 3750 2511 3984 
Q 2250 4219 1831 4219 
Q 1534 4219 1204 4116 
Q 875 4013 500 3803 
L 500 4441 
Q 881 4594 1212 4672 
Q 1544 4750 1819 4750 
Q 2544 4750 2975 4387 
Q 3406 4025 3406 3419 
Q 3406 3131 3298 2873 
Q 3191 2616 2906 2266 
Q 2828 2175 2409 1742 
Q 1991 1309 1228 531 
z
" transform="scale(0.015625)"/>
       </defs>
       <use xlink:href="#DejaVuSans-13"/>
       <use xlink:href="#DejaVuSans-11" transform="translate(63.625 0)"/>
       <use xlink:href="#DejaVuSans-15" transform="translate(95.40625 0)"/>
      </g>
     </g>
    </g>
    <g id="xtick_3">
     <g id="line2d_3">
      <g>
       <use xlink:href="#mc38f9f0e4f" x="171.19593" y="173.877656" style="stroke: #000000; stroke-width: 0.8"/>
      </g>
     </g>
     <g id="text_3">
      <!-- 0.4 -->
      <g transform="translate(163.244368 188.475313) scale(0.1 -0.1)">
       <defs>
        <path id="DejaVuSans-17" d="M 2419 4116 
L 825 1625 
L 2419 1625 
L 2419 4116 
z
M 2253 4666 
L 3047 4666 
L 3047 1625 
L 3713 1625 
L 3713 1100 
L 3047 1100 
L 3047 0 
L 2419 0 
L 2419 1100 
L 313 1100 
L 313 1709 
L 2253 4666 
z
" transform="scale(0.015625)"/>
       </defs>
       <use xlink:href="#DejaVuSans-13"/>
       <use xlink:href="#DejaVuSans-11" transform="translate(63.625 0)"/>
       <use xlink:href="#DejaVuSans-17" transform="translate(95.40625 0)"/>
      </g>
     </g>
    </g>
    <g id="xtick_4">
     <g id="line2d_4">
      <g>
       <use xlink:href="#mc38f9f0e4f" x="225.966413" y="173.877656" style="stroke: #000000; stroke-width: 0.8"/>
      </g>
     </g>
     <g id="text_4">
      <!-- 0.6 -->
      <g transform="translate(218.014851 188.475313) scale(0.1 -0.1)">
       <defs>
        <path id="DejaVuSans-19" d="M 2113 2584 
Q 1688 2584 1439 2293 
Q 1191 2003 1191 1497 
Q 1191 994 1439 701 
Q 1688 409 2113 409 
Q 2538 409 2786 701 
Q 3034 994 3034 1497 
Q 3034 2003 2786 2293 
Q 2538 2584 2113 2584 
z
M 3366 4563 
L 3366 3988 
Q 3128 4100 2886 4159 
Q 2644 4219 2406 4219 
Q 1781 4219 1451 3797 
Q 1122 3375 1075 2522 
Q 1259 2794 1537 2939 
Q 1816 3084 2150 3084 
Q 2853 3084 3261 2657 
Q 3669 2231 3669 1497 
Q 3669 778 3244 343 
Q 2819 -91 2113 -91 
Q 1303 -91 875 529 
Q 447 1150 447 2328 
Q 447 3434 972 4092 
Q 1497 4750 2381 4750 
Q 2619 4750 2861 4703 
Q 3103 4656 3366 4563 
z
" transform="scale(0.015625)"/>
       </defs>
       <use xlink:href="#DejaVuSans-13"/>
       <use xlink:href="#DejaVuSans-11" transform="translate(63.625 0)"/>
       <use xlink:href="#DejaVuSans-19" transform="translate(95.40625 0)"/>
      </g>
     </g>
    </g>
    <g id="xtick_5">
     <g id="line2d_5">
      <g>
       <use xlink:href="#mc38f9f0e4f" x="280.736896" y="173.877656" style="stroke: #000000; stroke-width: 0.8"/>
      </g>
     </g>
     <g id="text_5">
      <!-- 0.8 -->
      <g transform="translate(272.785334 188.475313) scale(0.1 -0.1)">
       <defs>
        <path id="DejaVuSans-1b" d="M 2034 2216 
Q 1584 2216 1326 1975 
Q 1069 1734 1069 1313 
Q 1069 891 1326 650 
Q 1584 409 2034 409 
Q 2484 409 2743 651 
Q 3003 894 3003 1313 
Q 3003 1734 2745 1975 
Q 2488 2216 2034 2216 
z
M 1403 2484 
Q 997 2584 770 2862 
Q 544 3141 544 3541 
Q 544 4100 942 4425 
Q 1341 4750 2034 4750 
Q 2731 4750 3128 4425 
Q 3525 4100 3525 3541 
Q 3525 3141 3298 2862 
Q 3072 2584 2669 2484 
Q 3125 2378 3379 2068 
Q 3634 1759 3634 1313 
Q 3634 634 3220 271 
Q 2806 -91 2034 -91 
Q 1263 -91 848 271 
Q 434 634 434 1313 
Q 434 1759 690 2068 
Q 947 2378 1403 2484 
z
M 1172 3481 
Q 1172 3119 1398 2916 
Q 1625 2713 2034 2713 
Q 2441 2713 2670 2916 
Q 2900 3119 2900 3481 
Q 2900 3844 2670 4047 
Q 2441 4250 2034 4250 
Q 1625 4250 1398 4047 
Q 1172 3844 1172 3481 
z
" transform="scale(0.015625)"/>
       </defs>
       <use xlink:href="#DejaVuSans-13"/>
       <use xlink:href="#DejaVuSans-11" transform="translate(63.625 0)"/>
       <use xlink:href="#DejaVuSans-1b" transform="translate(95.40625 0)"/>
      </g>
     </g>
    </g>
    <g id="xtick_6">
     <g id="line2d_6">
      <g>
       <use xlink:href="#mc38f9f0e4f" x="335.507379" y="173.877656" style="stroke: #000000; stroke-width: 0.8"/>
      </g>
     </g>
     <g id="text_6">
      <!-- 1.0 -->
      <g transform="translate(327.555817 188.475313) scale(0.1 -0.1)">
       <defs>
        <path id="DejaVuSans-14" d="M 794 531 
L 1825 531 
L 1825 4091 
L 703 3866 
L 703 4441 
L 1819 4666 
L 2450 4666 
L 2450 531 
L 3481 531 
L 3481 0 
L 794 0 
L 794 531 
z
" transform="scale(0.015625)"/>
       </defs>
       <use xlink:href="#DejaVuSans-14"/>
       <use xlink:href="#DejaVuSans-11" transform="translate(63.625 0)"/>
       <use xlink:href="#DejaVuSans-13" transform="translate(95.40625 0)"/>
      </g>
     </g>
    </g>
    <g id="text_7">
     <!-- Time (sec) -->
     <g transform="translate(172.424141 202.476094) scale(0.1 -0.1)">
      <defs>
       <path id="DejaVuSans-37" d="M -19 4666 
L 3928 4666 
L 3928 4134 
L 2272 4134 
L 2272 0 
L 1638 0 
L 1638 4134 
L -19 4134 
L -19 4666 
z
" transform="scale(0.015625)"/>
       <path id="DejaVuSans-4c" d="M 603 3500 
L 1178 3500 
L 1178 0 
L 603 0 
L 603 3500 
z
M 603 4863 
L 1178 4863 
L 1178 4134 
L 603 4134 
L 603 4863 
z
" transform="scale(0.015625)"/>
       <path id="DejaVuSans-50" d="M 3328 2828 
Q 3544 3216 3844 3400 
Q 4144 3584 4550 3584 
Q 5097 3584 5394 3201 
Q 5691 2819 5691 2113 
L 5691 0 
L 5113 0 
L 5113 2094 
Q 5113 2597 4934 2840 
Q 4756 3084 4391 3084 
Q 3944 3084 3684 2787 
Q 3425 2491 3425 1978 
L 3425 0 
L 2847 0 
L 2847 2094 
Q 2847 2600 2669 2842 
Q 2491 3084 2119 3084 
Q 1678 3084 1418 2786 
Q 1159 2488 1159 1978 
L 1159 0 
L 581 0 
L 581 3500 
L 1159 3500 
L 1159 2956 
Q 1356 3278 1631 3431 
Q 1906 3584 2284 3584 
Q 2666 3584 2933 3390 
Q 3200 3197 3328 2828 
z
" transform="scale(0.015625)"/>
       <path id="DejaVuSans-48" d="M 3597 1894 
L 3597 1613 
L 953 1613 
Q 991 1019 1311 708 
Q 1631 397 2203 397 
Q 2534 397 2845 478 
Q 3156 559 3463 722 
L 3463 178 
Q 3153 47 2828 -22 
Q 2503 -91 2169 -91 
Q 1331 -91 842 396 
Q 353 884 353 1716 
Q 353 2575 817 3079 
Q 1281 3584 2069 3584 
Q 2775 3584 3186 3129 
Q 3597 2675 3597 1894 
z
M 3022 2063 
Q 3016 2534 2758 2815 
Q 2500 3097 2075 3097 
Q 1594 3097 1305 2825 
Q 1016 2553 972 2059 
L 3022 2063 
z
" transform="scale(0.015625)"/>
       <path id="DejaVuSans-3" transform="scale(0.015625)"/>
       <path id="DejaVuSans-b" d="M 1984 4856 
Q 1566 4138 1362 3434 
Q 1159 2731 1159 2009 
Q 1159 1288 1364 580 
Q 1569 -128 1984 -844 
L 1484 -844 
Q 1016 -109 783 600 
Q 550 1309 550 2009 
Q 550 2706 781 3412 
Q 1013 4119 1484 4856 
L 1984 4856 
z
" transform="scale(0.015625)"/>
       <path id="DejaVuSans-56" d="M 2834 3397 
L 2834 2853 
Q 2591 2978 2328 3040 
Q 2066 3103 1784 3103 
Q 1356 3103 1142 2972 
Q 928 2841 928 2578 
Q 928 2378 1081 2264 
Q 1234 2150 1697 2047 
L 1894 2003 
Q 2506 1872 2764 1633 
Q 3022 1394 3022 966 
Q 3022 478 2636 193 
Q 2250 -91 1575 -91 
Q 1294 -91 989 -36 
Q 684 19 347 128 
L 347 722 
Q 666 556 975 473 
Q 1284 391 1588 391 
Q 1994 391 2212 530 
Q 2431 669 2431 922 
Q 2431 1156 2273 1281 
Q 2116 1406 1581 1522 
L 1381 1569 
Q 847 1681 609 1914 
Q 372 2147 372 2553 
Q 372 3047 722 3315 
Q 1072 3584 1716 3584 
Q 2034 3584 2315 3537 
Q 2597 3491 2834 3397 
z
" transform="scale(0.015625)"/>
       <path id="DejaVuSans-46" d="M 3122 3366 
L 3122 2828 
Q 2878 2963 2633 3030 
Q 2388 3097 2138 3097 
Q 1578 3097 1268 2742 
Q 959 2388 959 1747 
Q 959 1106 1268 751 
Q 1578 397 2138 397 
Q 2388 397 2633 464 
Q 2878 531 3122 666 
L 3122 134 
Q 2881 22 2623 -34 
Q 2366 -91 2075 -91 
Q 1284 -91 818 406 
Q 353 903 353 1747 
Q 353 2603 823 3093 
Q 1294 3584 2113 3584 
Q 2378 3584 2631 3529 
Q 2884 3475 3122 3366 
z
" transform="scale(0.015625)"/>
       <path id="DejaVuSans-c" d="M 513 4856 
L 1013 4856 
Q 1481 4119 1714 3412 
Q 1947 2706 1947 2009 
Q 1947 1309 1714 600 
Q 1481 -109 1013 -844 
L 513 -844 
Q 928 -128 1133 580 
Q 1338 1288 1338 2009 
Q 1338 2731 1133 3434 
Q 928 4138 513 4856 
z
" transform="scale(0.015625)"/>
      </defs>
      <use xlink:href="#DejaVuSans-37"/>
      <use xlink:href="#DejaVuSans-4c" transform="translate(58 0)"/>
      <use xlink:href="#DejaVuSans-50" transform="translate(85.78125 0)"/>
      <use xlink:href="#DejaVuSans-48" transform="translate(183.1875 0)"/>
      <use xlink:href="#DejaVuSans-3" transform="translate(244.71875 0)"/>
      <use xlink:href="#DejaVuSans-b" transform="translate(276.5 0)"/>
      <use xlink:href="#DejaVuSans-56" transform="translate(315.515625 0)"/>
      <use xlink:href="#DejaVuSans-48" transform="translate(367.609375 0)"/>
      <use xlink:href="#DejaVuSans-46" transform="translate(429.140625 0)"/>
      <use xlink:href="#DejaVuSans-c" transform="translate(484.125 0)"/>
     </g>
    </g>
   </g>
   <g id="matplotlib.axis_2">
    <g id="ytick_1">
     <g id="line2d_7">
      <defs>
       <path id="md77d2ced2b" d="M 0 0 
L -3.5 0 
" style="stroke: #000000; stroke-width: 0.8"/>
      </defs>
      <g>
       <use xlink:href="#md77d2ced2b" x="47.962344" y="159.397763" style="stroke: #000000; stroke-width: 0.8"/>
      </g>
     </g>
     <g id="text_8">
      <!-- 0.0 -->
      <g transform="translate(25.059219 163.196591) scale(0.1 -0.1)">
       <use xlink:href="#DejaVuSans-13"/>
       <use xlink:href="#DejaVuSans-11" transform="translate(63.625 0)"/>
       <use xlink:href="#DejaVuSans-13" transform="translate(95.40625 0)"/>
      </g>
     </g>
    </g>
    <g id="ytick_2">
     <g id="line2d_8">
      <g>
       <use xlink:href="#md77d2ced2b" x="47.962344" y="130.437976" style="stroke: #000000; stroke-width: 0.8"/>
      </g>
     </g>
     <g id="text_9">
      <!-- 0.2 -->
      <g transform="translate(25.059219 134.236804) scale(0.1 -0.1)">
       <use xlink:href="#DejaVuSans-13"/>
       <use xlink:href="#DejaVuSans-11" transform="translate(63.625 0)"/>
       <use xlink:href="#DejaVuSans-15" transform="translate(95.40625 0)"/>
      </g>
     </g>
    </g>
    <g id="ytick_3">
     <g id="line2d_9">
      <g>
       <use xlink:href="#md77d2ced2b" x="47.962344" y="101.478189" style="stroke: #000000; stroke-width: 0.8"/>
      </g>
     </g>
     <g id="text_10">
      <!-- 0.4 -->
      <g transform="translate(25.059219 105.277017) scale(0.1 -0.1)">
       <use xlink:href="#DejaVuSans-13"/>
       <use xlink:href="#DejaVuSans-11" transform="translate(63.625 0)"/>
       <use xlink:href="#DejaVuSans-17" transform="translate(95.40625 0)"/>
      </g>
     </g>
    </g>
    <g id="ytick_4">
     <g id="line2d_10">
      <g>
       <use xlink:href="#md77d2ced2b" x="47.962344" y="72.518402" style="stroke: #000000; stroke-width: 0.8"/>
      </g>
     </g>
     <g id="text_11">
      <!-- 0.6 -->
      <g transform="translate(25.059219 76.31723) scale(0.1 -0.1)">
       <use xlink:href="#DejaVuSans-13"/>
       <use xlink:href="#DejaVuSans-11" transform="translate(63.625 0)"/>
       <use xlink:href="#DejaVuSans-19" transform="translate(95.40625 0)"/>
      </g>
     </g>
    </g>
    <g id="ytick_5">
     <g id="line2d_11">
      <g>
       <use xlink:href="#md77d2ced2b" x="47.962344" y="43.558615" style="stroke: #000000; stroke-width: 0.8"/>
      </g>
     </g>
     <g id="text_12">
      <!-- 0.8 -->
      <g transform="translate(25.059219 47.357443) scale(0.1 -0.1)">
       <use xlink:href="#DejaVuSans-13"/>
       <use xlink:href="#DejaVuSans-11" transform="translate(63.625 0)"/>
       <use xlink:href="#DejaVuSans-1b" transform="translate(95.40625 0)"/>
      </g>
     </g>
    </g>
    <g id="ytick_6">
     <g id="line2d_12">
      <g>
       <use xlink:href="#md77d2ced2b" x="47.962344" y="14.598828" style="stroke: #000000; stroke-width: 0.8"/>
      </g>
     </g>
     <g id="text_13">
      <!-- 1.0 -->
      <g transform="translate(25.059219 18.397656) scale(0.1 -0.1)">
       <use xlink:href="#DejaVuSans-14"/>
       <use xlink:href="#DejaVuSans-11" transform="translate(63.625 0)"/>
       <use xlink:href="#DejaVuSans-13" transform="translate(95.40625 0)"/>
      </g>
     </g>
    </g>
    <g id="text_14">
     <!-- Injected Signal -->
     <g transform="translate(18.656875 131.256211) rotate(-90) scale(0.1 -0.1)">
      <defs>
       <path id="DejaVuSans-2c" d="M 628 4666 
L 1259 4666 
L 1259 0 
L 628 0 
L 628 4666 
z
" transform="scale(0.015625)"/>
       <path id="DejaVuSans-51" d="M 3513 2113 
L 3513 0 
L 2938 0 
L 2938 2094 
Q 2938 2591 2744 2837 
Q 2550 3084 2163 3084 
Q 1697 3084 1428 2787 
Q 1159 2491 1159 1978 
L 1159 0 
L 581 0 
L 581 3500 
L 1159 3500 
L 1159 2956 
Q 1366 3272 1645 3428 
Q 1925 3584 2291 3584 
Q 2894 3584 3203 3211 
Q 3513 2838 3513 2113 
z
" transform="scale(0.015625)"/>
       <path id="DejaVuSans-4d" d="M 603 3500 
L 1178 3500 
L 1178 -63 
Q 1178 -731 923 -1031 
Q 669 -1331 103 -1331 
L -116 -1331 
L -116 -844 
L 38 -844 
Q 366 -844 484 -692 
Q 603 -541 603 -63 
L 603 3500 
z
M 603 4863 
L 1178 4863 
L 1178 4134 
L 603 4134 
L 603 4863 
z
" transform="scale(0.015625)"/>
       <path id="DejaVuSans-57" d="M 1172 4494 
L 1172 3500 
L 2356 3500 
L 2356 3053 
L 1172 3053 
L 1172 1153 
Q 1172 725 1289 603 
Q 1406 481 1766 481 
L 2356 481 
L 2356 0 
L 1766 0 
Q 1100 0 847 248 
Q 594 497 594 1153 
L 594 3053 
L 172 3053 
L 172 3500 
L 594 3500 
L 594 4494 
L 1172 4494 
z
" transform="scale(0.015625)"/>
       <path id="DejaVuSans-47" d="M 2906 2969 
L 2906 4863 
L 3481 4863 
L 3481 0 
L 2906 0 
L 2906 525 
Q 2725 213 2448 61 
Q 2172 -91 1784 -91 
Q 1150 -91 751 415 
Q 353 922 353 1747 
Q 353 2572 751 3078 
Q 1150 3584 1784 3584 
Q 2172 3584 2448 3432 
Q 2725 3281 2906 2969 
z
M 947 1747 
Q 947 1113 1208 752 
Q 1469 391 1925 391 
Q 2381 391 2643 752 
Q 2906 1113 2906 1747 
Q 2906 2381 2643 2742 
Q 2381 3103 1925 3103 
Q 1469 3103 1208 2742 
Q 947 2381 947 1747 
z
" transform="scale(0.015625)"/>
       <path id="DejaVuSans-36" d="M 3425 4513 
L 3425 3897 
Q 3066 4069 2747 4153 
Q 2428 4238 2131 4238 
Q 1616 4238 1336 4038 
Q 1056 3838 1056 3469 
Q 1056 3159 1242 3001 
Q 1428 2844 1947 2747 
L 2328 2669 
Q 3034 2534 3370 2195 
Q 3706 1856 3706 1288 
Q 3706 609 3251 259 
Q 2797 -91 1919 -91 
Q 1588 -91 1214 -16 
Q 841 59 441 206 
L 441 856 
Q 825 641 1194 531 
Q 1563 422 1919 422 
Q 2459 422 2753 634 
Q 3047 847 3047 1241 
Q 3047 1584 2836 1778 
Q 2625 1972 2144 2069 
L 1759 2144 
Q 1053 2284 737 2584 
Q 422 2884 422 3419 
Q 422 4038 858 4394 
Q 1294 4750 2059 4750 
Q 2388 4750 2728 4690 
Q 3069 4631 3425 4513 
z
" transform="scale(0.015625)"/>
       <path id="DejaVuSans-4a" d="M 2906 1791 
Q 2906 2416 2648 2759 
Q 2391 3103 1925 3103 
Q 1463 3103 1205 2759 
Q 947 2416 947 1791 
Q 947 1169 1205 825 
Q 1463 481 1925 481 
Q 2391 481 2648 825 
Q 2906 1169 2906 1791 
z
M 3481 434 
Q 3481 -459 3084 -895 
Q 2688 -1331 1869 -1331 
Q 1566 -1331 1297 -1286 
Q 1028 -1241 775 -1147 
L 775 -588 
Q 1028 -725 1275 -790 
Q 1522 -856 1778 -856 
Q 2344 -856 2625 -561 
Q 2906 -266 2906 331 
L 2906 616 
Q 2728 306 2450 153 
Q 2172 0 1784 0 
Q 1141 0 747 490 
Q 353 981 353 1791 
Q 353 2603 747 3093 
Q 1141 3584 1784 3584 
Q 2172 3584 2450 3431 
Q 2728 3278 2906 2969 
L 2906 3500 
L 3481 3500 
L 3481 434 
z
" transform="scale(0.015625)"/>
       <path id="DejaVuSans-44" d="M 2194 1759 
Q 1497 1759 1228 1600 
Q 959 1441 959 1056 
Q 959 750 1161 570 
Q 1363 391 1709 391 
Q 2188 391 2477 730 
Q 2766 1069 2766 1631 
L 2766 1759 
L 2194 1759 
z
M 3341 1997 
L 3341 0 
L 2766 0 
L 2766 531 
Q 2569 213 2275 61 
Q 1981 -91 1556 -91 
Q 1019 -91 701 211 
Q 384 513 384 1019 
Q 384 1609 779 1909 
Q 1175 2209 1959 2209 
L 2766 2209 
L 2766 2266 
Q 2766 2663 2505 2880 
Q 2244 3097 1772 3097 
Q 1472 3097 1187 3025 
Q 903 2953 641 2809 
L 641 3341 
Q 956 3463 1253 3523 
Q 1550 3584 1831 3584 
Q 2591 3584 2966 3190 
Q 3341 2797 3341 1997 
z
" transform="scale(0.015625)"/>
       <path id="DejaVuSans-4f" d="M 603 4863 
L 1178 4863 
L 1178 0 
L 603 0 
L 603 4863 
z
" transform="scale(0.015625)"/>
      </defs>
      <use xlink:href="#DejaVuSans-2c"/>
      <use xlink:href="#DejaVuSans-51" transform="translate(29.5 0)"/>
      <use xlink:href="#DejaVuSans-4d" transform="translate(92.875 0)"/>
      <use xlink:href="#DejaVuSans-48" transform="translate(120.65625 0)"/>
      <use xlink:href="#DejaVuSans-46" transform="translate(182.1875 0)"/>
      <use xlink:href="#DejaVuSans-57" transform="translate(237.171875 0)"/>
      <use xlink:href="#DejaVuSans-48" transform="translate(276.375 0)"/>
      <use xlink:href="#DejaVuSans-47" transform="translate(337.90625 0)"/>
      <use xlink:href="#DejaVuSans-3" transform="translate(401.390625 0)"/>
      <use xlink:href="#DejaVuSans-36" transform="translate(433.171875 0)"/>
      <use xlink:href="#DejaVuSans-4c" transform="translate(496.65625 0)"/>
      <use xlink:href="#DejaVuSans-4a" transform="translate(524.4375 0)"/>
      <use xlink:href="#DejaVuSans-51" transform="translate(587.921875 0)"/>
      <use xlink:href="#DejaVuSans-44" transform="translate(651.296875 0)"/>
      <use xlink:href="#DejaVuSans-4f" transform="translate(712.578125 0)"/>
     </g>
    </g>
   </g>
   <g id="line2d_13">
    <path d="M 61.654964 121.903318 
L 61.928817 121.76254 
L 62.202669 109.496151 
L 62.476522 46.682366 
L 62.750374 121.256966 
L 63.024227 54.274701 
L 63.298079 117.900162 
L 63.571931 104.434594 
L 63.845784 74.630171 
L 64.119636 72.681181 
L 64.393489 52.415732 
L 64.667341 47.885623 
L 64.941193 111.166326 
L 65.215046 96.478788 
L 65.488898 113.528507 
L 65.762751 67.668202 
L 66.036603 77.284352 
L 66.310456 55.343909 
L 66.584308 94.948992 
L 66.85816 98.297905 
L 67.132013 84.454062 
L 67.405865 114.270723 
L 67.679718 75.029435 
L 67.95357 105.667076 
L 68.227422 72.662711 
L 68.501275 108.399198 
L 68.775127 129.136624 
L 69.04898 61.057229 
L 69.596685 116.761463 
L 69.870537 83.69015 
L 70.144389 101.76757 
L 70.418242 48.312707 
L 70.692094 113.012121 
L 70.965947 109.835493 
L 71.239799 94.765509 
L 71.513651 125.137255 
L 71.787504 126.510517 
L 72.061356 71.859179 
L 72.335209 88.901997 
L 72.609061 116.399756 
L 72.882913 63.269678 
L 73.156766 99.701584 
L 73.430618 102.204179 
L 73.704471 50.761986 
L 73.978323 99.602319 
L 74.252176 63.427434 
L 74.526028 66.713922 
L 74.79988 56.699233 
L 75.073733 76.712804 
L 75.347585 121.703765 
L 75.621438 113.499221 
L 75.89529 114.25371 
L 76.169142 126.174931 
L 76.442995 78.938246 
L 76.716847 93.265943 
L 76.9907 90.125462 
L 77.264552 52.701634 
L 77.538405 122.935914 
L 77.812257 86.919513 
L 78.086109 75.183186 
L 78.359962 92.918583 
L 78.633814 82.459205 
L 78.907667 109.356097 
L 79.181519 65.459024 
L 79.455371 75.243124 
L 79.729224 90.357429 
L 80.003076 124.741008 
L 80.276929 117.225857 
L 80.550781 66.341093 
L 80.824634 123.081368 
L 81.098486 48.109321 
L 81.372338 129.160721 
L 81.646191 74.49928 
L 81.920043 109.989962 
L 82.193896 66.49115 
L 82.467748 126.687758 
L 82.7416 99.015704 
L 83.015453 99.824983 
L 83.289305 68.614501 
L 83.563158 90.639479 
L 83.83701 64.262563 
L 84.384715 73.771838 
L 84.658567 61.108882 
L 84.93242 113.306365 
L 85.206272 52.651762 
L 85.480125 74.57249 
L 85.753977 122.8178 
L 86.027829 47.909741 
L 86.575534 92.624908 
L 86.849387 61.894585 
L 87.123239 44.93581 
L 87.397091 103.947438 
L 87.670944 99.843596 
L 87.944796 109.06213 
L 88.218649 99.653115 
L 88.492501 125.991793 
L 88.766354 63.335033 
L 89.040206 43.82854 
L 89.314058 119.169357 
L 89.587911 63.55846 
L 89.861763 84.968524 
L 90.135616 53.141226 
L 90.409468 75.950519 
L 90.68332 66.957419 
L 90.957173 117.261396 
L 91.231025 97.067018 
L 91.504878 108.875485 
L 91.77873 59.696882 
L 92.052583 57.967226 
L 92.326435 63.092073 
L 92.600287 91.277854 
L 92.87414 44.28646 
L 93.421845 54.917737 
L 93.695697 99.510302 
L 93.969549 93.101878 
L 94.243402 100.032212 
L 94.517254 86.997529 
L 94.791107 45.061521 
L 95.064959 106.12831 
L 95.338812 70.767167 
L 95.612664 106.589724 
L 95.886516 127.669259 
L 96.160369 60.266209 
L 96.434221 102.464704 
L 96.981926 72.242861 
L 97.255778 100.705349 
L 97.529631 81.656059 
L 97.803483 46.848456 
L 98.351188 91.520119 
L 98.62504 62.512137 
L 98.898893 70.811201 
L 99.172745 107.041863 
L 99.446598 72.19231 
L 99.72045 89.421835 
L 99.994303 65.837644 
L 100.268155 124.176976 
L 100.542007 114.263356 
L 100.81586 69.849469 
L 101.089712 93.276118 
L 101.363565 64.399108 
L 101.637417 130.359165 
L 102.185122 77.447708 
L 102.458974 49.790597 
L 102.732827 108.869332 
L 103.006679 90.303966 
L 103.280532 123.102498 
L 103.554384 119.979661 
L 103.828236 118.809926 
L 104.102089 110.05793 
L 104.375941 120.236065 
L 104.649794 51.378104 
L 104.923646 76.991799 
L 105.197498 89.931763 
L 105.471351 74.747663 
L 105.745203 51.044575 
L 106.019056 46.731817 
L 106.292908 91.285549 
L 106.566761 56.104167 
L 106.840613 96.922256 
L 107.114465 116.289646 
L 107.388318 123.39304 
L 107.66217 116.782863 
L 107.936023 74.453032 
L 108.209875 80.393515 
L 108.483727 53.430126 
L 108.75758 45.59832 
L 109.031432 55.589053 
L 109.305285 78.532175 
L 109.579137 51.288977 
L 109.852989 99.279463 
L 110.126842 77.205004 
L 110.400694 100.333884 
L 110.674547 83.327811 
L 110.948399 95.34305 
L 111.222252 92.245606 
L 111.496104 51.551607 
L 111.769956 118.048174 
L 112.043809 107.455023 
L 112.317661 89.726487 
L 112.591514 99.380361 
L 112.865366 51.363318 
L 113.139218 59.513522 
L 113.413071 59.037214 
L 113.686923 92.275542 
L 113.960776 110.39689 
L 114.234628 64.799069 
L 114.508481 102.465311 
L 114.782333 115.676057 
L 115.056185 56.885164 
L 115.330038 94.427139 
L 115.60389 113.362774 
L 115.877743 87.845914 
L 116.425447 62.124177 
L 116.6993 49.235323 
L 116.973152 46.452323 
L 117.247005 117.020751 
L 117.79471 74.108916 
L 118.068562 78.851338 
L 118.342414 119.246319 
L 118.616267 107.154909 
L 118.890119 112.916127 
L 119.163972 62.346978 
L 119.437824 111.376067 
L 119.711676 52.524347 
L 119.985529 73.929682 
L 120.259381 124.987806 
L 120.533234 72.666848 
L 121.080938 123.241104 
L 121.354791 105.495488 
L 121.628643 106.329305 
L 121.902496 105.680474 
L 122.176348 126.610734 
L 122.450201 114.480891 
L 122.724053 114.304521 
L 122.997905 62.130818 
L 123.271758 45.778807 
L 123.54561 113.019324 
L 123.819463 59.925562 
L 124.093315 67.319148 
L 124.367167 83.324851 
L 124.64102 52.670364 
L 124.914872 55.57979 
L 125.188725 72.811903 
L 125.462577 58.011592 
L 125.73643 128.139967 
L 126.010282 53.932629 
L 126.284134 61.161619 
L 126.557987 115.887179 
L 127.379544 91.771377 
L 127.653396 88.395539 
L 127.927249 123.436257 
L 128.474954 68.330464 
L 128.748806 66.622899 
L 129.022659 60.483142 
L 129.296511 102.856448 
L 129.570363 98.275776 
L 129.844216 68.762685 
L 130.118068 64.794404 
L 130.391921 118.034806 
L 130.665773 50.937551 
L 130.939625 107.242873 
L 131.213478 107.734838 
L 131.48733 120.049793 
L 131.761183 95.511876 
L 132.035035 124.104994 
L 132.308887 53.45911 
L 132.58274 48.763508 
L 132.856592 120.106657 
L 133.130445 72.241276 
L 133.404297 108.412258 
L 133.67815 109.121758 
L 133.952002 105.432785 
L 134.225854 84.049741 
L 134.499707 126.358697 
L 134.773559 61.262602 
L 135.321264 106.318471 
L 135.595116 75.029951 
L 135.868969 128.162338 
L 136.142821 51.315862 
L 136.416674 98.732799 
L 136.690526 101.327896 
L 136.964379 84.287923 
L 137.238231 82.354198 
L 137.512083 86.103648 
L 137.785936 58.345219 
L 138.059788 112.421037 
L 138.607493 52.579102 
L 139.155198 94.071051 
L 139.42905 54.710571 
L 139.702903 65.661153 
L 140.250608 56.65647 
L 140.52446 98.652762 
L 140.798312 110.22896 
L 141.072165 78.671013 
L 141.346017 98.552987 
L 141.61987 96.302427 
L 141.893722 89.57078 
L 142.167574 50.367881 
L 142.441427 106.936739 
L 142.715279 73.697572 
L 142.989132 69.717376 
L 143.536837 54.202143 
L 143.810689 67.610463 
L 144.084541 53.41414 
L 144.358394 102.018498 
L 144.632246 106.821473 
L 144.906099 97.415075 
L 145.179951 101.69924 
L 145.453803 75.969847 
L 145.727656 125.889819 
L 146.001508 53.077491 
L 146.275361 58.783501 
L 146.549213 105.428156 
L 147.096918 51.584154 
L 147.37077 112.04869 
L 147.644623 76.844618 
L 147.918475 93.180748 
L 148.192328 59.951335 
L 148.46618 99.627662 
L 148.740032 108.77414 
L 149.013885 108.948913 
L 149.287737 101.287541 
L 149.56159 117.630974 
L 150.109294 43.67941 
L 150.383147 50.447006 
L 150.930852 129.298427 
L 151.204704 75.802478 
L 151.478557 109.104282 
L 151.752409 76.122792 
L 152.026261 83.754344 
L 152.300114 63.705075 
L 152.573966 52.260934 
L 152.847819 110.270093 
L 153.121671 86.781928 
L 153.395523 47.620668 
L 153.669376 102.457754 
L 154.217081 79.034128 
L 154.490933 77.221982 
L 154.764786 59.567976 
L 155.038638 49.207574 
L 155.31249 47.393557 
L 155.586343 117.744768 
L 155.860195 110.558693 
L 156.134048 107.602991 
L 156.4079 123.092604 
L 156.681752 78.258603 
L 156.955605 57.753613 
L 157.50331 99.192056 
L 157.777162 122.62215 
L 158.051014 74.620335 
L 158.598719 111.391613 
L 158.872572 69.001486 
L 159.146424 122.107471 
L 159.420277 110.051073 
L 159.694129 105.206566 
L 159.967981 93.072596 
L 160.241834 49.253951 
L 160.515686 62.871496 
L 160.789539 107.23895 
L 161.063391 125.35036 
L 161.337243 98.510278 
L 161.611096 129.242618 
L 161.884948 90.335308 
L 162.158801 103.511713 
L 162.432653 94.257408 
L 162.706506 108.31244 
L 162.980358 64.098151 
L 163.25421 86.192852 
L 163.528063 74.914867 
L 163.801915 129.668384 
L 164.075768 120.523289 
L 164.34962 80.353437 
L 164.897325 64.405722 
L 165.171177 101.844844 
L 165.44503 81.520456 
L 165.718882 118.858227 
L 165.992735 50.709123 
L 166.266587 89.320144 
L 166.540439 76.543749 
L 166.814292 49.529121 
L 167.088144 129.91243 
L 167.361997 85.066675 
L 167.635849 87.224236 
L 168.183554 44.994394 
L 168.457406 85.538428 
L 168.731259 60.975953 
L 169.005111 111.793401 
L 169.278963 100.456908 
L 169.552816 107.812095 
L 169.826668 90.243808 
L 170.100521 125.710122 
L 170.374373 73.2916 
L 170.648226 107.262387 
L 170.922078 110.703315 
L 171.19593 101.906619 
L 171.469783 66.690052 
L 171.743635 53.427629 
L 172.017488 63.70214 
L 172.29134 123.777682 
L 172.565192 65.4647 
L 172.839045 126.026243 
L 173.112897 126.996764 
L 173.660602 65.285265 
L 173.934455 121.137008 
L 174.208307 91.812479 
L 174.482159 126.308123 
L 174.756012 97.31408 
L 175.029864 125.230057 
L 175.303717 125.163772 
L 175.577569 49.880642 
L 175.851421 98.582077 
L 176.125274 121.047061 
L 176.399126 51.691259 
L 176.672979 94.708234 
L 176.946831 46.763637 
L 177.220684 67.947402 
L 177.494536 76.128256 
L 177.768388 116.240581 
L 178.042241 103.675767 
L 178.316093 58.76792 
L 178.589946 62.077466 
L 178.863798 122.088566 
L 179.13765 121.130336 
L 179.411503 52.814299 
L 179.685355 50.175791 
L 179.959208 91.277225 
L 180.23306 47.833589 
L 180.506912 97.505871 
L 180.780765 95.06209 
L 181.054617 120.850861 
L 181.32847 85.70534 
L 181.602322 95.131702 
L 181.876175 123.481447 
L 182.150027 60.854142 
L 182.423879 51.067723 
L 182.697732 128.1533 
L 182.971584 53.206004 
L 183.245437 47.641536 
L 183.519289 110.799757 
L 183.793141 124.428437 
L 184.066994 93.792182 
L 184.340846 113.49464 
L 184.614699 93.988513 
L 184.888551 129.093345 
L 185.162404 114.191594 
L 185.436256 74.978957 
L 185.710108 58.692908 
L 185.983961 58.444469 
L 186.531666 120.58236 
L 186.805518 130.287445 
L 187.07937 90.879331 
L 187.353223 126.171218 
L 187.900928 67.131554 
L 188.17478 96.300472 
L 188.448633 83.093962 
L 188.722485 88.647993 
L 188.996337 128.380255 
L 189.27019 122.128927 
L 189.544042 97.024945 
L 189.817895 52.511303 
L 190.091747 71.75127 
L 190.365599 51.930418 
L 190.639452 104.750457 
L 191.187157 126.706207 
L 191.461009 117.159842 
L 192.282566 74.286888 
L 192.556419 81.532456 
L 192.830271 80.680622 
L 193.104124 50.437161 
L 193.377976 48.386583 
L 193.651828 117.879853 
L 194.199533 58.638367 
L 194.473386 71.48249 
L 194.747238 46.940311 
L 195.02109 113.110112 
L 195.294943 74.922191 
L 195.568795 119.604036 
L 195.842648 103.026274 
L 196.1165 98.538171 
L 196.390353 45.380515 
L 196.938057 126.488809 
L 197.21191 75.39042 
L 197.485762 96.596671 
L 197.759615 49.749257 
L 198.033467 63.863914 
L 198.307319 50.660436 
L 198.855024 98.721703 
L 199.128877 58.228944 
L 199.402729 70.166253 
L 199.676582 53.02775 
L 199.950434 45.63446 
L 200.224286 90.045652 
L 200.498139 77.696624 
L 200.771991 117.633945 
L 201.045844 95.931605 
L 201.319696 113.043637 
L 201.593548 67.974385 
L 201.867401 111.65546 
L 202.141253 61.09616 
L 202.415106 116.763118 
L 202.688958 87.620573 
L 202.962811 46.00262 
L 203.510515 84.386612 
L 203.784368 95.8199 
L 204.05822 48.847831 
L 204.332073 129.784843 
L 204.605925 122.625514 
L 204.879777 126.522412 
L 205.427482 47.882419 
L 205.701335 81.578123 
L 205.975187 93.685406 
L 206.249039 55.916458 
L 206.522892 81.233458 
L 206.796744 52.695705 
L 207.070597 112.239217 
L 207.344449 109.904642 
L 207.618302 48.731353 
L 207.892154 90.548552 
L 208.166006 114.749315 
L 208.439859 118.048947 
L 208.713711 106.849408 
L 208.987564 105.14681 
L 209.261416 63.299999 
L 209.535268 70.188872 
L 209.809121 125.727214 
L 210.082973 129.172051 
L 210.356826 60.944915 
L 210.630678 100.05786 
L 210.904531 58.834594 
L 211.178383 116.502732 
L 211.452235 66.257097 
L 211.726088 119.499133 
L 211.99994 72.597498 
L 212.273793 97.339282 
L 212.547645 94.32344 
L 212.821497 55.245621 
L 213.09535 107.103074 
L 213.369202 70.506396 
L 213.643055 72.299405 
L 213.916907 75.563526 
L 214.19076 94.365035 
L 214.464612 61.047971 
L 214.738464 127.483445 
L 215.286169 103.292016 
L 215.560022 44.144144 
L 215.833874 124.536209 
L 216.107726 107.275257 
L 216.381579 121.531039 
L 216.655431 48.125312 
L 217.203136 77.95682 
L 217.476988 73.402306 
L 217.750841 43.686726 
L 218.024693 76.771795 
L 218.298546 84.665537 
L 218.572398 112.278391 
L 219.120103 43.588726 
L 219.393955 70.811229 
L 219.667808 130.132177 
L 219.94166 72.827433 
L 220.215513 94.87588 
L 220.489365 67.539819 
L 220.763217 61.061782 
L 221.310922 117.302073 
L 221.858627 46.403316 
L 222.13248 103.579247 
L 222.406332 121.858191 
L 222.680184 63.862963 
L 222.954037 62.756178 
L 223.227889 83.93299 
L 223.501742 117.620379 
L 223.775594 126.491283 
L 224.597151 70.46176 
L 224.871004 86.056044 
L 225.144856 50.820952 
L 225.418709 59.903802 
L 225.692561 96.905426 
L 225.966413 91.949877 
L 226.240266 122.876746 
L 226.514118 105.495318 
L 226.787971 108.142799 
L 227.061823 95.52721 
L 227.335675 43.88188 
L 227.609528 48.6251 
L 227.88338 90.553905 
L 228.157233 94.206089 
L 228.431085 90.010777 
L 228.704937 71.754283 
L 228.97879 100.425295 
L 229.252642 74.03252 
L 229.526495 61.634636 
L 229.800347 100.821498 
L 230.0742 60.685249 
L 230.621904 120.038503 
L 230.895757 76.211501 
L 231.169609 53.596532 
L 231.443462 59.550159 
L 231.717314 48.105686 
L 231.991166 44.103794 
L 232.265019 98.449754 
L 232.538871 63.50673 
L 232.812724 92.18658 
L 233.086576 101.166779 
L 233.360429 52.34791 
L 233.634281 50.240146 
L 233.908133 51.752926 
L 234.455838 101.398796 
L 235.003543 58.711161 
L 235.277395 116.282173 
L 235.551248 59.407096 
L 236.098953 73.047683 
L 236.372805 56.459136 
L 236.646658 57.662441 
L 236.92051 88.261918 
L 237.194362 94.532826 
L 237.468215 72.234428 
L 237.742067 101.533437 
L 238.01592 50.803922 
L 238.289772 126.847941 
L 238.563624 114.655129 
L 238.837477 58.608697 
L 239.111329 57.976043 
L 239.385182 101.342229 
L 239.932887 51.833243 
L 240.206739 56.863502 
L 240.480591 119.629115 
L 240.754444 69.563323 
L 241.028296 60.387825 
L 241.302149 104.877101 
L 241.576001 83.580713 
L 241.849853 77.92391 
L 242.123706 110.053433 
L 242.397558 80.752241 
L 242.945263 60.901818 
L 243.219115 91.166625 
L 243.492968 73.542556 
L 243.76682 107.035548 
L 244.040673 106.569965 
L 244.314525 74.59565 
L 244.588378 122.184591 
L 244.86223 46.272502 
L 245.136082 56.760786 
L 245.409935 54.827581 
L 245.683787 97.207104 
L 245.95764 46.926963 
L 246.231492 55.639019 
L 246.505344 118.652186 
L 246.779197 107.151313 
L 247.053049 68.767218 
L 247.326902 128.158191 
L 247.600754 112.165883 
L 247.874607 45.971353 
L 248.148459 101.625211 
L 248.422311 68.606184 
L 248.696164 94.133701 
L 248.970016 106.171083 
L 249.243869 47.478081 
L 249.517721 94.191468 
L 249.791573 109.37888 
L 250.065426 54.373494 
L 250.339278 65.583056 
L 250.613131 61.79196 
L 250.886983 61.632926 
L 251.160836 104.65768 
L 251.434688 65.708802 
L 251.70854 43.866302 
L 251.982393 113.445714 
L 252.256245 46.109854 
L 252.530098 85.368074 
L 252.80395 80.470269 
L 253.077802 127.065405 
L 253.351655 93.845667 
L 253.625507 125.827652 
L 253.89936 101.126704 
L 254.173212 53.943504 
L 254.720917 129.838522 
L 254.994769 48.388865 
L 255.268622 117.47858 
L 255.542474 116.002962 
L 255.816327 121.097659 
L 256.090179 49.670002 
L 256.364031 47.310196 
L 256.911736 62.653964 
L 257.185589 96.304167 
L 257.459441 69.660321 
L 257.733293 98.116464 
L 258.007146 72.111631 
L 258.554851 119.355067 
L 258.828703 60.326167 
L 259.102556 96.461563 
L 259.376408 104.343209 
L 259.924113 63.53288 
L 260.197965 51.665085 
L 260.471818 109.531588 
L 260.74567 48.386929 
L 261.293375 95.7982 
L 261.567227 99.953214 
L 261.84108 70.024191 
L 262.114932 110.161602 
L 262.388785 112.138638 
L 262.662637 63.965949 
L 263.210342 127.74326 
L 263.484194 89.766958 
L 263.758047 100.167047 
L 264.031899 67.683003 
L 264.305751 126.543982 
L 264.579604 49.515997 
L 265.127309 111.530931 
L 265.401161 114.177298 
L 265.675013 86.447509 
L 265.948866 45.030984 
L 266.222718 110.563217 
L 266.496571 77.252417 
L 266.770423 71.658696 
L 267.044276 88.440055 
L 267.318128 43.879486 
L 267.865833 125.054569 
L 268.139685 114.98213 
L 268.413538 67.719991 
L 268.68739 67.404784 
L 268.961242 66.270571 
L 269.235095 102.74817 
L 269.508947 94.992468 
L 269.7828 51.667643 
L 270.056652 46.671683 
L 270.330505 64.432787 
L 270.604357 127.208306 
L 270.878209 44.506266 
L 271.152062 124.281913 
L 271.425914 57.428706 
L 271.699767 111.788952 
L 271.973619 111.117613 
L 272.247471 59.876881 
L 272.521324 110.742134 
L 272.795176 95.142614 
L 273.069029 115.356475 
L 273.342881 51.507587 
L 273.890586 91.375185 
L 274.164438 92.74947 
L 274.438291 106.824772 
L 274.712143 77.671173 
L 274.985996 71.902665 
L 275.259848 51.756928 
L 275.5337 83.434242 
L 275.807553 45.26799 
L 276.081405 53.549258 
L 276.355258 109.244948 
L 276.62911 111.878407 
L 276.902963 47.774017 
L 277.176815 46.24418 
L 277.450667 103.820733 
L 277.72452 121.245653 
L 277.998372 49.560791 
L 278.546077 79.279718 
L 278.819929 77.425654 
L 279.367634 55.371685 
L 279.641487 110.359963 
L 279.915339 114.503444 
L 280.189191 53.013184 
L 280.463044 127.418817 
L 280.736896 111.235051 
L 281.284601 127.67095 
L 281.558454 75.259464 
L 281.832306 116.804701 
L 282.106158 54.856388 
L 282.653863 123.552096 
L 282.927716 121.457255 
L 283.201568 83.262527 
L 283.47542 119.011675 
L 283.749273 44.741759 
L 284.023125 61.37024 
L 284.296978 44.369878 
L 284.57083 64.460717 
L 284.844683 62.2799 
L 285.118535 115.722125 
L 285.66624 58.725249 
L 285.940092 82.335039 
L 286.213945 120.977634 
L 286.487797 113.378785 
L 286.761649 51.444391 
L 287.035502 104.692167 
L 287.309354 78.72215 
L 287.583207 77.918407 
L 287.857059 83.636637 
L 288.130912 58.378711 
L 288.404764 120.752795 
L 288.678616 74.936493 
L 288.952469 63.222622 
L 289.226321 113.05966 
L 289.500174 62.720239 
L 289.774026 68.727296 
L 290.047878 90.064072 
L 290.321731 60.108079 
L 290.595583 84.788398 
L 290.869436 77.81632 
L 291.143288 82.762093 
L 291.41714 69.56723 
L 291.690993 117.525052 
L 291.964845 83.483404 
L 292.238698 87.324628 
L 292.51255 122.545624 
L 292.786403 111.370174 
L 293.060255 109.45606 
L 293.334107 68.081161 
L 293.60796 70.194347 
L 293.881812 86.221811 
L 294.155665 48.546975 
L 294.429517 108.179974 
L 294.703369 50.567631 
L 294.977222 87.275605 
L 295.251074 47.221937 
L 295.524927 65.522157 
L 295.798779 126.15595 
L 296.072632 70.076412 
L 296.346484 65.793694 
L 296.620336 66.733407 
L 296.894189 55.054234 
L 297.168041 74.77375 
L 297.441894 62.157285 
L 297.715746 57.92505 
L 298.263451 111.999126 
L 298.537303 121.925207 
L 298.811156 46.101877 
L 299.085008 101.924399 
L 299.358861 80.664292 
L 299.632713 100.014407 
L 299.906565 61.297556 
L 300.45427 107.707036 
L 300.728123 96.432431 
L 301.001975 67.68566 
L 301.275827 105.773845 
L 301.54968 107.160324 
L 301.823532 109.874514 
L 302.097385 106.955182 
L 302.371237 70.963138 
L 302.645089 96.315951 
L 302.918942 90.643159 
L 303.192794 97.473556 
L 303.466647 88.670023 
L 303.740499 47.760516 
L 304.014352 86.399759 
L 304.288204 90.662316 
L 304.562056 49.677863 
L 304.835909 114.436767 
L 305.109761 51.432125 
L 305.383614 63.794629 
L 305.657466 120.496515 
L 305.931318 58.930709 
L 306.479023 125.991493 
L 306.752876 84.065663 
L 307.026728 123.458738 
L 307.300581 115.946779 
L 307.574433 123.990701 
L 307.848285 70.84354 
L 308.122138 60.593385 
L 308.39599 61.032711 
L 308.943695 67.226929 
L 309.217547 66.21739 
L 309.4914 116.44551 
L 309.765252 53.855192 
L 310.039105 73.369007 
L 310.312957 83.669041 
L 310.58681 65.602348 
L 310.860662 120.392375 
L 311.134514 62.766592 
L 311.408367 52.586208 
L 311.956072 84.341951 
L 312.229924 128.670232 
L 312.503776 110.818651 
L 312.777629 74.641626 
L 313.051481 84.6651 
L 313.325334 86.836533 
L 313.599186 108.140271 
L 313.873038 98.46462 
L 314.146891 70.892094 
L 314.420743 111.615896 
L 314.694596 119.546736 
L 314.968448 118.066344 
L 315.242301 65.887818 
L 315.516153 48.117611 
L 315.790005 105.326966 
L 316.063858 71.01326 
L 316.611563 117.021624 
L 316.885415 63.013144 
L 317.159267 76.994013 
L 317.706972 91.859405 
L 317.980825 116.330115 
L 318.254677 96.316393 
L 318.52853 101.875169 
L 318.802382 102.875761 
L 319.076234 112.628455 
L 319.350087 112.905693 
L 319.623939 58.615089 
L 319.897792 49.886228 
L 320.171644 102.034066 
L 320.445496 69.609151 
L 320.719349 57.237044 
L 320.993201 50.919059 
L 321.267054 62.446388 
L 321.540906 56.875791 
L 321.814759 90.572669 
L 322.088611 87.106743 
L 322.362463 119.661469 
L 322.636316 110.631828 
L 322.910168 59.633094 
L 323.184021 47.241567 
L 323.457873 107.145343 
L 323.731725 108.403018 
L 324.005578 82.492197 
L 324.553283 111.573708 
L 324.827135 47.562828 
L 325.100987 65.172018 
L 325.37484 101.69333 
L 325.648692 121.330065 
L 325.922545 69.238967 
L 326.196397 58.397488 
L 326.47025 97.68994 
L 327.017954 55.254607 
L 327.291807 111.007135 
L 327.565659 69.576921 
L 328.113364 129.18242 
L 328.387216 56.253408 
L 328.661069 93.553613 
L 328.934921 108.257832 
L 329.208774 43.746369 
L 329.482626 90.287313 
L 329.756479 60.97776 
L 330.030331 115.317526 
L 330.304183 120.152429 
L 330.578036 115.593002 
L 330.851888 100.432586 
L 331.125741 116.944127 
L 331.399593 55.350012 
L 331.947298 112.99546 
L 332.22115 78.946342 
L 332.495003 91.867638 
L 332.768855 56.319744 
L 333.042708 120.25302 
L 333.31656 129.159448 
L 333.590412 55.537636 
L 333.864265 46.330438 
L 334.138117 105.342153 
L 334.685822 49.742899 
L 335.233527 116.131954 
L 335.233527 116.131954 
" clip-path="url(#pf1a8b87334)" style="fill: none; stroke: #1f77b4; stroke-width: 1.5; stroke-linecap: square"/>
   </g>
   <g id="line2d_14">
    <path d="M 61.654964 86.998295 
L 335.507379 86.998295 
" clip-path="url(#pf1a8b87334)" style="fill: none; stroke-dasharray: 7.4,3.2; stroke-dashoffset: 0; stroke: #ff0000; stroke-width: 2"/>
   </g>
   <g id="line2d_15">
    <path d="M 193.104124 86.998295 
L 204.05822 86.998295 
" clip-path="url(#pf1a8b87334)" style="fill: none; stroke: #000000; stroke-width: 2; stroke-linecap: square"/>
   </g>
   <g id="line2d_16">
    <path d="M 193.104124 43.558615 
L 204.05822 43.558615 
" clip-path="url(#pf1a8b87334)" style="fill: none; stroke: #000000; stroke-width: 2; stroke-linecap: square"/>
   </g>
   <g id="line2d_17">
    <path d="M 198.581172 86.998295 
L 198.581172 43.558615 
" clip-path="url(#pf1a8b87334)" style="fill: none; stroke: #000000; stroke-width: 2; stroke-linecap: square"/>
   </g>
   <g id="line2d_18">
    <path d="M 193.104124 159.397763 
L 204.05822 159.397763 
" clip-path="url(#pf1a8b87334)" style="fill: none; stroke: #000000; stroke-width: 2; stroke-linecap: square"/>
   </g>
   <g id="line2d_19">
    <path d="M 198.581172 159.397763 
L 198.581172 86.998295 
" clip-path="url(#pf1a8b87334)" style="fill: none; stroke: #000000; stroke-width: 2; stroke-linecap: square"/>
   </g>
   <g id="patch_3">
    <path d="M 47.962344 173.877656 
L 47.962344 14.598828 
" style="fill: none; stroke: #000000; stroke-width: 0.8; stroke-linejoin: miter; stroke-linecap: square"/>
   </g>
   <g id="patch_4">
    <path d="M 349.2 173.877656 
L 349.2 14.598828 
" style="fill: none; stroke: #000000; stroke-width: 0.8; stroke-linejoin: miter; stroke-linecap: square"/>
   </g>
   <g id="patch_5">
    <path d="M 47.962344 173.877656 
L 349.2 173.877656 
" style="fill: none; stroke: #000000; stroke-width: 0.8; stroke-linejoin: miter; stroke-linecap: square"/>
   </g>
   <g id="patch_6">
    <path d="M 47.962344 14.598828 
L 349.2 14.598828 
" style="fill: none; stroke: #000000; stroke-width: 0.8; stroke-linejoin: miter; stroke-linecap: square"/>
   </g>
   <g id="text_15">
    <g id="patch_7">
     <path d="M 205.535268 71.680799 
L 235.127456 71.680799 
L 235.127456 53.680018 
L 205.535268 53.680018 
z
" style="fill: #ffffff; opacity: 0.8; stroke: #000000; stroke-linejoin: miter"/>
    </g>
    <!-- gain -->
    <g transform="translate(209.535268 65.278455) scale(0.1 -0.1)">
     <use xlink:href="#DejaVuSans-4a"/>
     <use xlink:href="#DejaVuSans-44" transform="translate(63.484375 0)"/>
     <use xlink:href="#DejaVuSans-4c" transform="translate(124.765625 0)"/>
     <use xlink:href="#DejaVuSans-51" transform="translate(152.546875 0)"/>
    </g>
   </g>
   <g id="text_16">
    <g id="patch_8">
     <path d="M 205.535268 129.600373 
L 241.825893 129.600373 
L 241.825893 111.599592 
L 205.535268 111.599592 
z
" style="fill: #ffffff; opacity: 0.8; stroke: #000000; stroke-linejoin: miter"/>
    </g>
    <!-- offset -->
    <g transform="translate(209.535268 123.198029) scale(0.1 -0.1)">
     <defs>
      <path id="DejaVuSans-52" d="M 1959 3097 
Q 1497 3097 1228 2736 
Q 959 2375 959 1747 
Q 959 1119 1226 758 
Q 1494 397 1959 397 
Q 2419 397 2687 759 
Q 2956 1122 2956 1747 
Q 2956 2369 2687 2733 
Q 2419 3097 1959 3097 
z
M 1959 3584 
Q 2709 3584 3137 3096 
Q 3566 2609 3566 1747 
Q 3566 888 3137 398 
Q 2709 -91 1959 -91 
Q 1206 -91 779 398 
Q 353 888 353 1747 
Q 353 2609 779 3096 
Q 1206 3584 1959 3584 
z
" transform="scale(0.015625)"/>
      <path id="DejaVuSans-13ae" d="M 4531 4863 
L 4531 4384 
L 3981 4384 
Q 3672 4384 3551 4259 
Q 3431 4134 3431 3809 
L 3431 3500 
L 4378 3500 
L 4378 3053 
L 3431 3053 
L 3431 0 
L 2853 0 
L 2853 3053 
L 1275 3053 
L 1275 0 
L 697 0 
L 697 3053 
L 147 3053 
L 147 3500 
L 697 3500 
L 697 3744 
Q 697 4328 969 4595 
Q 1241 4863 1831 4863 
L 2375 4863 
L 2375 4384 
L 1825 4384 
Q 1516 4384 1394 4259 
Q 1275 4134 1275 3809 
L 1275 3500 
L 2853 3500 
L 2853 3744 
Q 2853 4328 3125 4595 
Q 3397 4863 3988 4863 
L 4531 4863 
z
" transform="scale(0.015625)"/>
     </defs>
     <use xlink:href="#DejaVuSans-52"/>
     <use xlink:href="#DejaVuSans-13ae" transform="translate(61.1875 0)"/>
     <use xlink:href="#DejaVuSans-56" transform="translate(130.078125 0)"/>
     <use xlink:href="#DejaVuSans-48" transform="translate(182.171875 0)"/>
     <use xlink:href="#DejaVuSans-57" transform="translate(243.703125 0)"/>
    </g>
   </g>
  </g>
 </g>
 <defs>
  <clipPath id="pf1a8b87334">
   <rect x="47.962344" y="14.598828" width="301.237656" height="159.278828"/>
  </clipPath>
 </defs>
</svg>
