<?xml version="1.0" encoding="utf-8" standalone="no"?>
<!DOCTYPE svg PUBLIC "-//W3C//DTD SVG 1.1//EN"
  "http://www.w3.org/Graphics/SVG/1.1/DTD/svg11.dtd">
<svg xmlns:xlink="http://www.w3.org/1999/xlink" width="360pt" height="216pt" viewBox="0 0 360 216" xmlns="http://www.w3.org/2000/svg" version="1.1">
 <metadata>
  <rdf:RDF xmlns:dc="http://purl.org/dc/elements/1.1/" xmlns:cc="http://creativecommons.org/ns#" xmlns:rdf="http://www.w3.org/1999/02/22-rdf-syntax-ns#">
   <cc:Work>
    <dc:type rdf:resource="http://purl.org/dc/dcmitype/StillImage"/>
    <dc:date>2026-05-29T21:46:31.574379</dc:date>
    <dc:format>image/svg+xml</dc:format>
    <dc:creator>
     <cc:Agent>
      <dc:title>Matplotlib v3.10.9, https://matplotlib.org/</dc:title>
     </cc:Agent>
    </dc:creator>
   </cc:Work>
  </rdf:RDF>
 </metadata>
 <defs>
  <style type="text/css">*{stroke-linejoin: round; stroke-linecap: butt}</style>
 </defs>
 <g id="figure_1">
  <g id="patch_1">
   <path d="M 0 216 
L 360 216 
L 360 0 
L 0 0 
z
" style="fill: #ffffff"/>
  </g>
  <g id="axes_1">
   <g id="patch_2">
    <path d="M 47.72 174.04 
L 349.2 174.04 
L 349.2 14.76 
L 47.72 14.76 
z
" style="fill: #ffffff"/>
   </g>
   <g id="matplotlib.axis_1">
    <g id="xtick_1">
     <g id="line2d_1">
      <defs>
       <path id="m986ab1901d" d="M 0 0 
L 0 3.5 
" style="stroke: #000000; stroke-width: 0.8"/>
      </defs>
      <g>
       <use xlink:href="#m986ab1901d" x="61.423636" y="174.04" style="stroke: #000000; stroke-width: 0.8"/>
      </g>
     </g>
     <g id="text_1">
      <!-- 0.0 -->
      <g transform="translate(53.472074 188.638438) scale(0.1 -0.1)">
       <defs>
        <path id="DejaVuSans-30" d="M 2034 4250 
Q 1547 4250 1301 3770 
Q 1056 3291 1056 2328 
Q 1056 1369 1301 889 
Q 1547 409 2034 409 
Q 2525 409 2770 889 
Q 3016 1369 3016 2328 
Q 3016 3291 2770 3770 
Q 2525 4250 2034 4250 
z
M 2034 4750 
Q 2819 4750 3233 4129 
Q 3647 3509 3647 2328 
Q 3647 1150 3233 529 
Q 2819 -91 2034 -91 
Q 1250 -91 836 529 
Q 422 1150 422 2328 
Q 422 3509 836 4129 
Q 1250 4750 2034 4750 
z
" transform="scale(0.015625)"/>
        <path id="DejaVuSans-2e" d="M 684 794 
L 1344 794 
L 1344 0 
L 684 0 
L 684 794 
z
" transform="scale(0.015625)"/>
       </defs>
       <use xlink:href="#DejaVuSans-30"/>
       <use xlink:href="#DejaVuSans-2e" transform="translate(63.623047 0)"/>
       <use xlink:href="#DejaVuSans-30" transform="translate(95.410156 0)"/>
      </g>
     </g>
    </g>
    <g id="xtick_2">
     <g id="line2d_2">
      <g>
       <use xlink:href="#m986ab1901d" x="116.238182" y="174.04" style="stroke: #000000; stroke-width: 0.8"/>
      </g>
     </g>
     <g id="text_2">
      <!-- 0.2 -->
      <g transform="translate(108.286619 188.638438) scale(0.1 -0.1)">
       <defs>
        <path id="DejaVuSans-32" d="M 1228 531 
L 3431 531 
L 3431 0 
L 469 0 
L 469 531 
Q 828 903 1448 1529 
Q 2069 2156 2228 2338 
Q 2531 2678 2651 2914 
Q 2772 3150 2772 3378 
Q 2772 3750 2511 3984 
Q 2250 4219 1831 4219 
Q 1534 4219 1204 4116 
Q 875 4013 500 3803 
L 500 4441 
Q 881 4594 1212 4672 
Q 1544 4750 1819 4750 
Q 2544 4750 2975 4387 
Q 3406 4025 3406 3419 
Q 3406 3131 3298 2873 
Q 3191 2616 2906 2266 
Q 2828 2175 2409 1742 
Q 1991 1309 1228 531 
z
" transform="scale(0.015625)"/>
       </defs>
       <use xlink:href="#DejaVuSans-30"/>
       <use xlink:href="#DejaVuSans-2e" transform="translate(63.623047 0)"/>
       <use xlink:href="#DejaVuSans-32" transform="translate(95.410156 0)"/>
      </g>
     </g>
    </g>
    <g id="xtick_3">
     <g id="line2d_3">
      <g>
       <use xlink:href="#m986ab1901d" x="171.052727" y="174.04" style="stroke: #000000; stroke-width: 0.8"/>
      </g>
     </g>
     <g id="text_3">
      <!-- 0.4 -->
      <g transform="translate(163.101165 188.638438) scale(0.1 -0.1)">
       <defs>
        <path id="DejaVuSans-34" d="M 2419 4116 
L 825 1625 
L 2419 1625 
L 2419 4116 
z
M 2253 4666 
L 3047 4666 
L 3047 1625 
L 3713 1625 
L 3713 1100 
L 3047 1100 
L 3047 0 
L 2419 0 
L 2419 1100 
L 313 1100 
L 313 1709 
L 2253 4666 
z
" transform="scale(0.015625)"/>
       </defs>
       <use xlink:href="#DejaVuSans-30"/>
       <use xlink:href="#DejaVuSans-2e" transform="translate(63.623047 0)"/>
       <use xlink:href="#DejaVuSans-34" transform="translate(95.410156 0)"/>
      </g>
     </g>
    </g>
    <g id="xtick_4">
     <g id="line2d_4">
      <g>
       <use xlink:href="#m986ab1901d" x="225.867273" y="174.04" style="stroke: #000000; stroke-width: 0.8"/>
      </g>
     </g>
     <g id="text_4">
      <!-- 0.6 -->
      <g transform="translate(217.91571 188.638438) scale(0.1 -0.1)">
       <defs>
        <path id="DejaVuSans-36" d="M 2113 2584 
Q 1688 2584 1439 2293 
Q 1191 2003 1191 1497 
Q 1191 994 1439 701 
Q 1688 409 2113 409 
Q 2538 409 2786 701 
Q 3034 994 3034 1497 
Q 3034 2003 2786 2293 
Q 2538 2584 2113 2584 
z
M 3366 4563 
L 3366 3988 
Q 3128 4100 2886 4159 
Q 2644 4219 2406 4219 
Q 1781 4219 1451 3797 
Q 1122 3375 1075 2522 
Q 1259 2794 1537 2939 
Q 1816 3084 2150 3084 
Q 2853 3084 3261 2657 
Q 3669 2231 3669 1497 
Q 3669 778 3244 343 
Q 2819 -91 2113 -91 
Q 1303 -91 875 529 
Q 447 1150 447 2328 
Q 447 3434 972 4092 
Q 1497 4750 2381 4750 
Q 2619 4750 2861 4703 
Q 3103 4656 3366 4563 
z
" transform="scale(0.015625)"/>
       </defs>
       <use xlink:href="#DejaVuSans-30"/>
       <use xlink:href="#DejaVuSans-2e" transform="translate(63.623047 0)"/>
       <use xlink:href="#DejaVuSans-36" transform="translate(95.410156 0)"/>
      </g>
     </g>
    </g>
    <g id="xtick_5">
     <g id="line2d_5">
      <g>
       <use xlink:href="#m986ab1901d" x="280.681818" y="174.04" style="stroke: #000000; stroke-width: 0.8"/>
      </g>
     </g>
     <g id="text_5">
      <!-- 0.8 -->
      <g transform="translate(272.730256 188.638438) scale(0.1 -0.1)">
       <defs>
        <path id="DejaVuSans-38" d="M 2034 2216 
Q 1584 2216 1326 1975 
Q 1069 1734 1069 1313 
Q 1069 891 1326 650 
Q 1584 409 2034 409 
Q 2484 409 2743 651 
Q 3003 894 3003 1313 
Q 3003 1734 2745 1975 
Q 2488 2216 2034 2216 
z
M 1403 2484 
Q 997 2584 770 2862 
Q 544 3141 544 3541 
Q 544 4100 942 4425 
Q 1341 4750 2034 4750 
Q 2731 4750 3128 4425 
Q 3525 4100 3525 3541 
Q 3525 3141 3298 2862 
Q 3072 2584 2669 2484 
Q 3125 2378 3379 2068 
Q 3634 1759 3634 1313 
Q 3634 634 3220 271 
Q 2806 -91 2034 -91 
Q 1263 -91 848 271 
Q 434 634 434 1313 
Q 434 1759 690 2068 
Q 947 2378 1403 2484 
z
M 1172 3481 
Q 1172 3119 1398 2916 
Q 1625 2713 2034 2713 
Q 2441 2713 2670 2916 
Q 2900 3119 2900 3481 
Q 2900 3844 2670 4047 
Q 2441 4250 2034 4250 
Q 1625 4250 1398 4047 
Q 1172 3844 1172 3481 
z
" transform="scale(0.015625)"/>
       </defs>
       <use xlink:href="#DejaVuSans-30"/>
       <use xlink:href="#DejaVuSans-2e" transform="translate(63.623047 0)"/>
       <use xlink:href="#DejaVuSans-38" transform="translate(95.410156 0)"/>
      </g>
     </g>
    </g>
    <g id="xtick_6">
     <g id="line2d_6">
      <g>
       <use xlink:href="#m986ab1901d" x="335.496364" y="174.04" style="stroke: #000000; stroke-width: 0.8"/>
      </g>
     </g>
     <g id="text_6">
      <!-- 1.0 -->
      <g transform="translate(327.544801 188.638438) scale(0.1 -0.1)">
       <defs>
        <path id="DejaVuSans-31" d="M 794 531 
L 1825 531 
L 1825 4091 
L 703 3866 
L 703 4441 
L 1819 4666 
L 2450 4666 
L 2450 531 
L 3481 531 
L 3481 0 
L 794 0 
L 794 531 
z
" transform="scale(0.015625)"/>
       </defs>
       <use xlink:href="#DejaVuSans-31"/>
       <use xlink:href="#DejaVuSans-2e" transform="translate(63.623047 0)"/>
       <use xlink:href="#DejaVuSans-30" transform="translate(95.410156 0)"/>
      </g>
     </g>
    </g>
    <g id="text_7">
     <!-- Time (sec) -->
     <g transform="translate(172.305312 202.316563) scale(0.1 -0.1)">
      <defs>
       <path id="DejaVuSans-54" d="M -19 4666 
L 3928 4666 
L 3928 4134 
L 2272 4134 
L 2272 0 
L 1638 0 
L 1638 4134 
L -19 4134 
L -19 4666 
z
" transform="scale(0.015625)"/>
       <path id="DejaVuSans-69" d="M 603 3500 
L 1178 3500 
L 1178 0 
L 603 0 
L 603 3500 
z
M 603 4863 
L 1178 4863 
L 1178 4134 
L 603 4134 
L 603 4863 
z
" transform="scale(0.015625)"/>
       <path id="DejaVuSans-6d" d="M 3328 2828 
Q 3544 3216 3844 3400 
Q 4144 3584 4550 3584 
Q 5097 3584 5394 3201 
Q 5691 2819 5691 2113 
L 5691 0 
L 5113 0 
L 5113 2094 
Q 5113 2597 4934 2840 
Q 4756 3084 4391 3084 
Q 3944 3084 3684 2787 
Q 3425 2491 3425 1978 
L 3425 0 
L 2847 0 
L 2847 2094 
Q 2847 2600 2669 2842 
Q 2491 3084 2119 3084 
Q 1678 3084 1418 2786 
Q 1159 2488 1159 1978 
L 1159 0 
L 581 0 
L 581 3500 
L 1159 3500 
L 1159 2956 
Q 1356 3278 1631 3431 
Q 1906 3584 2284 3584 
Q 2666 3584 2933 3390 
Q 3200 3197 3328 2828 
z
" transform="scale(0.015625)"/>
       <path id="DejaVuSans-65" d="M 3597 1894 
L 3597 1613 
L 953 1613 
Q 991 1019 1311 708 
Q 1631 397 2203 397 
Q 2534 397 2845 478 
Q 3156 559 3463 722 
L 3463 178 
Q 3153 47 2828 -22 
Q 2503 -91 2169 -91 
Q 1331 -91 842 396 
Q 353 884 353 1716 
Q 353 2575 817 3079 
Q 1281 3584 2069 3584 
Q 2775 3584 3186 3129 
Q 3597 2675 3597 1894 
z
M 3022 2063 
Q 3016 2534 2758 2815 
Q 2500 3097 2075 3097 
Q 1594 3097 1305 2825 
Q 1016 2553 972 2059 
L 3022 2063 
z
" transform="scale(0.015625)"/>
       <path id="DejaVuSans-20" transform="scale(0.015625)"/>
       <path id="DejaVuSans-28" d="M 1984 4856 
Q 1566 4138 1362 3434 
Q 1159 2731 1159 2009 
Q 1159 1288 1364 580 
Q 1569 -128 1984 -844 
L 1484 -844 
Q 1016 -109 783 600 
Q 550 1309 550 2009 
Q 550 2706 781 3412 
Q 1013 4119 1484 4856 
L 1984 4856 
z
" transform="scale(0.015625)"/>
       <path id="DejaVuSans-73" d="M 2834 3397 
L 2834 2853 
Q 2591 2978 2328 3040 
Q 2066 3103 1784 3103 
Q 1356 3103 1142 2972 
Q 928 2841 928 2578 
Q 928 2378 1081 2264 
Q 1234 2150 1697 2047 
L 1894 2003 
Q 2506 1872 2764 1633 
Q 3022 1394 3022 966 
Q 3022 478 2636 193 
Q 2250 -91 1575 -91 
Q 1294 -91 989 -36 
Q 684 19 347 128 
L 347 722 
Q 666 556 975 473 
Q 1284 391 1588 391 
Q 1994 391 2212 530 
Q 2431 669 2431 922 
Q 2431 1156 2273 1281 
Q 2116 1406 1581 1522 
L 1381 1569 
Q 847 1681 609 1914 
Q 372 2147 372 2553 
Q 372 3047 722 3315 
Q 1072 3584 1716 3584 
Q 2034 3584 2315 3537 
Q 2597 3491 2834 3397 
z
" transform="scale(0.015625)"/>
       <path id="DejaVuSans-63" d="M 3122 3366 
L 3122 2828 
Q 2878 2963 2633 3030 
Q 2388 3097 2138 3097 
Q 1578 3097 1268 2742 
Q 959 2388 959 1747 
Q 959 1106 1268 751 
Q 1578 397 2138 397 
Q 2388 397 2633 464 
Q 2878 531 3122 666 
L 3122 134 
Q 2881 22 2623 -34 
Q 2366 -91 2075 -91 
Q 1284 -91 818 406 
Q 353 903 353 1747 
Q 353 2603 823 3093 
Q 1294 3584 2113 3584 
Q 2378 3584 2631 3529 
Q 2884 3475 3122 3366 
z
" transform="scale(0.015625)"/>
       <path id="DejaVuSans-29" d="M 513 4856 
L 1013 4856 
Q 1481 4119 1714 3412 
Q 1947 2706 1947 2009 
Q 1947 1309 1714 600 
Q 1481 -109 1013 -844 
L 513 -844 
Q 928 -128 1133 580 
Q 1338 1288 1338 2009 
Q 1338 2731 1133 3434 
Q 928 4138 513 4856 
z
" transform="scale(0.015625)"/>
      </defs>
      <use xlink:href="#DejaVuSans-54"/>
      <use xlink:href="#DejaVuSans-69" transform="translate(57.958984 0)"/>
      <use xlink:href="#DejaVuSans-6d" transform="translate(85.742188 0)"/>
      <use xlink:href="#DejaVuSans-65" transform="translate(183.154297 0)"/>
      <use xlink:href="#DejaVuSans-20" transform="translate(244.677734 0)"/>
      <use xlink:href="#DejaVuSans-28" transform="translate(276.464844 0)"/>
      <use xlink:href="#DejaVuSans-73" transform="translate(315.478516 0)"/>
      <use xlink:href="#DejaVuSans-65" transform="translate(367.578125 0)"/>
      <use xlink:href="#DejaVuSans-63" transform="translate(429.101562 0)"/>
      <use xlink:href="#DejaVuSans-29" transform="translate(484.082031 0)"/>
     </g>
    </g>
   </g>
   <g id="matplotlib.axis_2">
    <g id="ytick_1">
     <g id="line2d_7">
      <defs>
       <path id="m4ad0e18bec" d="M 0 0 
L -3.5 0 
" style="stroke: #000000; stroke-width: 0.8"/>
      </defs>
      <g>
       <use xlink:href="#m4ad0e18bec" x="47.72" y="159.56" style="stroke: #000000; stroke-width: 0.8"/>
      </g>
     </g>
     <g id="text_8">
      <!-- 0.0 -->
      <g transform="translate(24.816875 163.359219) scale(0.1 -0.1)">
       <use xlink:href="#DejaVuSans-30"/>
       <use xlink:href="#DejaVuSans-2e" transform="translate(63.623047 0)"/>
       <use xlink:href="#DejaVuSans-30" transform="translate(95.410156 0)"/>
      </g>
     </g>
    </g>
    <g id="ytick_2">
     <g id="line2d_8">
      <g>
       <use xlink:href="#m4ad0e18bec" x="47.72" y="130.6" style="stroke: #000000; stroke-width: 0.8"/>
      </g>
     </g>
     <g id="text_9">
      <!-- 0.2 -->
      <g transform="translate(24.816875 134.399219) scale(0.1 -0.1)">
       <use xlink:href="#DejaVuSans-30"/>
       <use xlink:href="#DejaVuSans-2e" transform="translate(63.623047 0)"/>
       <use xlink:href="#DejaVuSans-32" transform="translate(95.410156 0)"/>
      </g>
     </g>
    </g>
    <g id="ytick_3">
     <g id="line2d_9">
      <g>
       <use xlink:href="#m4ad0e18bec" x="47.72" y="101.64" style="stroke: #000000; stroke-width: 0.8"/>
      </g>
     </g>
     <g id="text_10">
      <!-- 0.4 -->
      <g transform="translate(24.816875 105.439219) scale(0.1 -0.1)">
       <use xlink:href="#DejaVuSans-30"/>
       <use xlink:href="#DejaVuSans-2e" transform="translate(63.623047 0)"/>
       <use xlink:href="#DejaVuSans-34" transform="translate(95.410156 0)"/>
      </g>
     </g>
    </g>
    <g id="ytick_4">
     <g id="line2d_10">
      <g>
       <use xlink:href="#m4ad0e18bec" x="47.72" y="72.68" style="stroke: #000000; stroke-width: 0.8"/>
      </g>
     </g>
     <g id="text_11">
      <!-- 0.6 -->
      <g transform="translate(24.816875 76.479219) scale(0.1 -0.1)">
       <use xlink:href="#DejaVuSans-30"/>
       <use xlink:href="#DejaVuSans-2e" transform="translate(63.623047 0)"/>
       <use xlink:href="#DejaVuSans-36" transform="translate(95.410156 0)"/>
      </g>
     </g>
    </g>
    <g id="ytick_5">
     <g id="line2d_11">
      <g>
       <use xlink:href="#m4ad0e18bec" x="47.72" y="43.72" style="stroke: #000000; stroke-width: 0.8"/>
      </g>
     </g>
     <g id="text_12">
      <!-- 0.8 -->
      <g transform="translate(24.816875 47.519219) scale(0.1 -0.1)">
       <use xlink:href="#DejaVuSans-30"/>
       <use xlink:href="#DejaVuSans-2e" transform="translate(63.623047 0)"/>
       <use xlink:href="#DejaVuSans-38" transform="translate(95.410156 0)"/>
      </g>
     </g>
    </g>
    <g id="ytick_6">
     <g id="line2d_12">
      <g>
       <use xlink:href="#m4ad0e18bec" x="47.72" y="14.76" style="stroke: #000000; stroke-width: 0.8"/>
      </g>
     </g>
     <g id="text_13">
      <!-- 1.0 -->
      <g transform="translate(24.816875 18.559219) scale(0.1 -0.1)">
       <use xlink:href="#DejaVuSans-31"/>
       <use xlink:href="#DejaVuSans-2e" transform="translate(63.623047 0)"/>
       <use xlink:href="#DejaVuSans-30" transform="translate(95.410156 0)"/>
      </g>
     </g>
    </g>
    <g id="text_14">
     <!-- Injected Signal -->
     <g transform="translate(18.737188 131.417969) rotate(-90) scale(0.1 -0.1)">
      <defs>
       <path id="DejaVuSans-49" d="M 628 4666 
L 1259 4666 
L 1259 0 
L 628 0 
L 628 4666 
z
" transform="scale(0.015625)"/>
       <path id="DejaVuSans-6e" d="M 3513 2113 
L 3513 0 
L 2938 0 
L 2938 2094 
Q 2938 2591 2744 2837 
Q 2550 3084 2163 3084 
Q 1697 3084 1428 2787 
Q 1159 2491 1159 1978 
L 1159 0 
L 581 0 
L 581 3500 
L 1159 3500 
L 1159 2956 
Q 1366 3272 1645 3428 
Q 1925 3584 2291 3584 
Q 2894 3584 3203 3211 
Q 3513 2838 3513 2113 
z
" transform="scale(0.015625)"/>
       <path id="DejaVuSans-6a" d="M 603 3500 
L 1178 3500 
L 1178 -63 
Q 1178 -731 923 -1031 
Q 669 -1331 103 -1331 
L -116 -1331 
L -116 -844 
L 38 -844 
Q 366 -844 484 -692 
Q 603 -541 603 -63 
L 603 3500 
z
M 603 4863 
L 1178 4863 
L 1178 4134 
L 603 4134 
L 603 4863 
z
" transform="scale(0.015625)"/>
       <path id="DejaVuSans-74" d="M 1172 4494 
L 1172 3500 
L 2356 3500 
L 2356 3053 
L 1172 3053 
L 1172 1153 
Q 1172 725 1289 603 
Q 1406 481 1766 481 
L 2356 481 
L 2356 0 
L 1766 0 
Q 1100 0 847 248 
Q 594 497 594 1153 
L 594 3053 
L 172 3053 
L 172 3500 
L 594 3500 
L 594 4494 
L 1172 4494 
z
" transform="scale(0.015625)"/>
       <path id="DejaVuSans-64" d="M 2906 2969 
L 2906 4863 
L 3481 4863 
L 3481 0 
L 2906 0 
L 2906 525 
Q 2725 213 2448 61 
Q 2172 -91 1784 -91 
Q 1150 -91 751 415 
Q 353 922 353 1747 
Q 353 2572 751 3078 
Q 1150 3584 1784 3584 
Q 2172 3584 2448 3432 
Q 2725 3281 2906 2969 
z
M 947 1747 
Q 947 1113 1208 752 
Q 1469 391 1925 391 
Q 2381 391 2643 752 
Q 2906 1113 2906 1747 
Q 2906 2381 2643 2742 
Q 2381 3103 1925 3103 
Q 1469 3103 1208 2742 
Q 947 2381 947 1747 
z
" transform="scale(0.015625)"/>
       <path id="DejaVuSans-53" d="M 3425 4513 
L 3425 3897 
Q 3066 4069 2747 4153 
Q 2428 4238 2131 4238 
Q 1616 4238 1336 4038 
Q 1056 3838 1056 3469 
Q 1056 3159 1242 3001 
Q 1428 2844 1947 2747 
L 2328 2669 
Q 3034 2534 3370 2195 
Q 3706 1856 3706 1288 
Q 3706 609 3251 259 
Q 2797 -91 1919 -91 
Q 1588 -91 1214 -16 
Q 841 59 441 206 
L 441 856 
Q 825 641 1194 531 
Q 1563 422 1919 422 
Q 2459 422 2753 634 
Q 3047 847 3047 1241 
Q 3047 1584 2836 1778 
Q 2625 1972 2144 2069 
L 1759 2144 
Q 1053 2284 737 2584 
Q 422 2884 422 3419 
Q 422 4038 858 4394 
Q 1294 4750 2059 4750 
Q 2388 4750 2728 4690 
Q 3069 4631 3425 4513 
z
" transform="scale(0.015625)"/>
       <path id="DejaVuSans-67" d="M 2906 1791 
Q 2906 2416 2648 2759 
Q 2391 3103 1925 3103 
Q 1463 3103 1205 2759 
Q 947 2416 947 1791 
Q 947 1169 1205 825 
Q 1463 481 1925 481 
Q 2391 481 2648 825 
Q 2906 1169 2906 1791 
z
M 3481 434 
Q 3481 -459 3084 -895 
Q 2688 -1331 1869 -1331 
Q 1566 -1331 1297 -1286 
Q 1028 -1241 775 -1147 
L 775 -588 
Q 1028 -725 1275 -790 
Q 1522 -856 1778 -856 
Q 2344 -856 2625 -561 
Q 2906 -266 2906 331 
L 2906 616 
Q 2728 306 2450 153 
Q 2172 0 1784 0 
Q 1141 0 747 490 
Q 353 981 353 1791 
Q 353 2603 747 3093 
Q 1141 3584 1784 3584 
Q 2172 3584 2450 3431 
Q 2728 3278 2906 2969 
L 2906 3500 
L 3481 3500 
L 3481 434 
z
" transform="scale(0.015625)"/>
       <path id="DejaVuSans-61" d="M 2194 1759 
Q 1497 1759 1228 1600 
Q 959 1441 959 1056 
Q 959 750 1161 570 
Q 1363 391 1709 391 
Q 2188 391 2477 730 
Q 2766 1069 2766 1631 
L 2766 1759 
L 2194 1759 
z
M 3341 1997 
L 3341 0 
L 2766 0 
L 2766 531 
Q 2569 213 2275 61 
Q 1981 -91 1556 -91 
Q 1019 -91 701 211 
Q 384 513 384 1019 
Q 384 1609 779 1909 
Q 1175 2209 1959 2209 
L 2766 2209 
L 2766 2266 
Q 2766 2663 2505 2880 
Q 2244 3097 1772 3097 
Q 1472 3097 1187 3025 
Q 903 2953 641 2809 
L 641 3341 
Q 956 3463 1253 3523 
Q 1550 3584 1831 3584 
Q 2591 3584 2966 3190 
Q 3341 2797 3341 1997 
z
" transform="scale(0.015625)"/>
       <path id="DejaVuSans-6c" d="M 603 4863 
L 1178 4863 
L 1178 0 
L 603 0 
L 603 4863 
z
" transform="scale(0.015625)"/>
      </defs>
      <use xlink:href="#DejaVuSans-49"/>
      <use xlink:href="#DejaVuSans-6e" transform="translate(29.492188 0)"/>
      <use xlink:href="#DejaVuSans-6a" transform="translate(92.871094 0)"/>
      <use xlink:href="#DejaVuSans-65" transform="translate(120.654297 0)"/>
      <use xlink:href="#DejaVuSans-63" transform="translate(182.177734 0)"/>
      <use xlink:href="#DejaVuSans-74" transform="translate(237.158203 0)"/>
      <use xlink:href="#DejaVuSans-65" transform="translate(276.367188 0)"/>
      <use xlink:href="#DejaVuSans-64" transform="translate(337.890625 0)"/>
      <use xlink:href="#DejaVuSans-20" transform="translate(401.367188 0)"/>
      <use xlink:href="#DejaVuSans-53" transform="translate(433.154297 0)"/>
      <use xlink:href="#DejaVuSans-69" transform="translate(496.630859 0)"/>
      <use xlink:href="#DejaVuSans-67" transform="translate(524.414062 0)"/>
      <use xlink:href="#DejaVuSans-6e" transform="translate(587.890625 0)"/>
      <use xlink:href="#DejaVuSans-61" transform="translate(651.269531 0)"/>
      <use xlink:href="#DejaVuSans-6c" transform="translate(712.548828 0)"/>
     </g>
    </g>
   </g>
   <g id="line2d_13">
    <path d="M 61.423636 49.4345 
L 61.697709 79.124039 
L 61.971782 48.837337 
L 62.245855 60.097441 
L 62.519927 47.954648 
L 62.794 119.528947 
L 63.068073 55.172292 
L 63.342145 81.574501 
L 63.616218 52.719407 
L 63.890291 100.485881 
L 64.164364 110.333376 
L 64.438436 48.731682 
L 64.712509 110.16608 
L 64.986582 129.229368 
L 65.260655 64.549794 
L 65.534727 100.169244 
L 65.8088 92.076763 
L 66.082873 59.882554 
L 66.356945 121.782344 
L 66.631018 119.980584 
L 66.905091 108.043436 
L 67.179164 44.63842 
L 67.453236 76.704025 
L 67.727309 123.607185 
L 68.001382 53.046596 
L 68.275455 94.929029 
L 68.549527 90.467328 
L 68.8236 107.492644 
L 69.097673 88.498789 
L 69.371745 60.684093 
L 69.645818 57.342732 
L 69.919891 115.454001 
L 70.193964 48.462782 
L 70.468036 47.280983 
L 70.742109 99.226544 
L 71.016182 125.135029 
L 71.290255 127.414982 
L 71.564327 101.851699 
L 71.8384 112.758136 
L 72.112473 82.929925 
L 72.386545 82.432506 
L 72.660618 73.312166 
L 73.482836 124.130126 
L 73.756909 51.415625 
L 74.030982 76.519601 
L 74.305055 125.699387 
L 74.579127 80.633215 
L 74.8532 84.610805 
L 75.127273 77.016712 
L 75.401345 79.554187 
L 75.675418 46.450373 
L 75.949491 116.935618 
L 76.223564 63.200442 
L 76.497636 47.0778 
L 76.771709 92.038732 
L 77.045782 88.207958 
L 77.319855 65.415012 
L 77.593927 68.46559 
L 77.868 53.014406 
L 78.142073 119.764226 
L 78.690218 88.349907 
L 79.238364 75.360373 
L 79.512436 55.992533 
L 79.786509 123.286824 
L 80.060582 129.393591 
L 80.334655 118.269095 
L 80.608727 97.130106 
L 80.8828 51.986844 
L 81.156873 94.532962 
L 81.430945 52.741241 
L 81.705018 127.805045 
L 81.979091 57.040452 
L 82.253164 109.258921 
L 82.527236 107.141462 
L 82.801309 117.167701 
L 83.075382 103.433736 
L 83.349455 74.251592 
L 83.623527 64.690679 
L 83.8976 80.685754 
L 84.171673 108.016604 
L 84.993891 75.70392 
L 85.267964 48.198292 
L 85.542036 62.820894 
L 86.090182 62.466559 
L 86.364255 50.71013 
L 86.638327 68.696814 
L 86.9124 47.833485 
L 87.186473 101.20718 
L 87.460545 94.577094 
L 87.734618 57.470244 
L 88.008691 109.777217 
L 88.282764 128.553499 
L 88.556836 51.898312 
L 88.830909 96.099495 
L 89.104982 48.900138 
L 89.379055 106.712429 
L 89.653127 70.002014 
L 89.9272 123.970593 
L 90.201273 63.326069 
L 90.475345 57.959147 
L 90.749418 105.648646 
L 91.023491 63.881309 
L 91.297564 95.464138 
L 91.571636 84.424883 
L 91.845709 81.617501 
L 92.119782 90.591473 
L 92.393855 64.377561 
L 92.667927 56.745333 
L 92.942 45.868977 
L 93.216073 99.802021 
L 93.490145 108.158864 
L 93.764218 88.99591 
L 94.038291 93.216098 
L 94.312364 107.249828 
L 94.586436 75.712526 
L 94.860509 88.667146 
L 95.134582 126.91511 
L 95.408655 116.337574 
L 95.682727 55.351077 
L 95.9568 86.559014 
L 96.230873 70.496488 
L 96.504945 63.811814 
L 96.779018 62.206957 
L 97.053091 112.290741 
L 97.327164 128.277843 
L 97.601236 69.647682 
L 97.875309 92.511607 
L 98.423455 49.637651 
L 98.697527 129.846229 
L 98.9716 124.260001 
L 99.245673 45.478373 
L 99.519745 74.595706 
L 99.793818 86.415696 
L 100.067891 111.993693 
L 100.616036 52.378354 
L 101.438255 115.457659 
L 101.712327 58.050099 
L 101.9864 128.627771 
L 102.534545 75.646566 
L 102.808618 97.362219 
L 103.082691 90.605332 
L 103.356764 122.929006 
L 103.630836 123.15498 
L 103.904909 89.443717 
L 104.178982 117.696044 
L 104.453055 57.288903 
L 104.727127 91.281957 
L 105.0012 50.993773 
L 105.275273 113.748736 
L 105.549345 113.534706 
L 105.823418 127.024249 
L 106.097491 112.408432 
L 106.371564 69.94939 
L 106.645636 46.509171 
L 106.919709 104.785244 
L 107.193782 52.451483 
L 107.467855 61.731892 
L 107.741927 127.620358 
L 108.016 48.344725 
L 108.290073 59.355811 
L 108.564145 56.495201 
L 108.838218 73.158658 
L 109.112291 100.336582 
L 109.386364 64.120526 
L 109.660436 128.52894 
L 109.934509 76.830232 
L 110.208582 46.676847 
L 110.482655 92.935297 
L 110.756727 103.375831 
L 111.0308 105.129378 
L 111.304873 73.090707 
L 111.578945 60.007631 
L 111.853018 60.868551 
L 112.127091 103.758142 
L 112.401164 73.748927 
L 112.675236 82.800074 
L 112.949309 65.881664 
L 113.223382 128.4091 
L 113.497455 92.115182 
L 113.771527 123.09038 
L 114.0456 111.594708 
L 114.319673 123.774167 
L 114.593745 76.869159 
L 114.867818 87.357977 
L 115.141891 119.404511 
L 115.415964 50.494134 
L 115.690036 107.42655 
L 115.964109 60.958611 
L 116.238182 85.322413 
L 116.512255 58.22267 
L 116.786327 48.489428 
L 117.0604 84.769424 
L 117.334473 55.425705 
L 117.608545 65.402236 
L 117.882618 112.865917 
L 118.156691 65.012943 
L 118.430764 74.375928 
L 118.704836 44.695824 
L 119.252982 93.455218 
L 119.527055 81.840854 
L 119.801127 46.974992 
L 120.0752 72.406572 
L 120.349273 44.211579 
L 120.623345 123.001141 
L 120.897418 47.667974 
L 121.171491 116.467596 
L 121.445564 85.761248 
L 121.719636 97.971783 
L 121.993709 118.314066 
L 122.267782 78.834435 
L 122.541855 121.963882 
L 122.815927 116.151855 
L 123.09 88.623158 
L 123.364073 121.945264 
L 123.638145 49.321637 
L 123.912218 44.712685 
L 124.186291 93.587896 
L 124.460364 116.217933 
L 124.734436 114.642676 
L 125.282582 77.655256 
L 125.556655 65.771359 
L 125.830727 78.882861 
L 126.1048 55.226873 
L 126.378873 114.10398 
L 126.652945 62.534293 
L 126.927018 117.138805 
L 127.201091 80.820417 
L 127.749236 130.037286 
L 128.023309 94.568153 
L 128.297382 75.664761 
L 128.845527 121.633714 
L 129.1196 88.372459 
L 129.393673 84.699278 
L 129.667745 58.451052 
L 129.941818 77.003749 
L 130.215891 74.969 
L 130.489964 60.978189 
L 131.038109 118.390616 
L 131.312182 103.874622 
L 131.586255 111.093833 
L 131.860327 129.306727 
L 132.1344 44.317432 
L 132.408473 55.3438 
L 132.682545 72.745411 
L 132.956618 106.199944 
L 133.230691 97.226581 
L 133.504764 130.444025 
L 133.778836 67.668692 
L 134.052909 91.285978 
L 134.326982 101.801792 
L 134.601055 76.33201 
L 134.875127 110.081786 
L 135.1492 44.952793 
L 135.423273 98.643757 
L 135.697345 63.965639 
L 135.971418 129.769182 
L 136.245491 113.178237 
L 136.519564 123.162408 
L 136.793636 113.225336 
L 137.067709 64.170222 
L 137.341782 46.39314 
L 137.615855 76.024222 
L 137.889927 69.544979 
L 138.164 104.037102 
L 138.438073 70.716124 
L 138.712145 99.38814 
L 138.986218 96.076008 
L 139.260291 81.387861 
L 139.534364 55.586119 
L 139.808436 57.982416 
L 140.082509 48.463892 
L 140.356582 109.429551 
L 140.630655 93.290114 
L 140.904727 54.194765 
L 141.1788 113.712637 
L 141.726945 65.66397 
L 142.001018 98.158813 
L 142.275091 86.791532 
L 142.549164 128.833757 
L 142.823236 51.532391 
L 143.097309 116.094779 
L 143.371382 59.825452 
L 143.645455 96.688965 
L 143.919527 112.53658 
L 144.1936 75.458742 
L 144.467673 112.445656 
L 144.741745 77.729277 
L 145.015818 80.02699 
L 145.289891 97.014689 
L 145.563964 130.338655 
L 145.838036 98.643625 
L 146.386182 108.4117 
L 146.660255 68.935596 
L 146.934327 83.805518 
L 147.2084 88.610464 
L 148.030618 128.917099 
L 148.578764 71.857191 
L 148.852836 55.0256 
L 149.400982 90.286453 
L 149.675055 60.891514 
L 149.949127 81.562249 
L 150.2232 84.143926 
L 150.497273 57.201298 
L 150.771345 80.663869 
L 151.045418 82.313667 
L 151.319491 79.070423 
L 151.593564 116.907437 
L 151.867636 107.070011 
L 152.141709 80.764973 
L 152.415782 120.564738 
L 152.689855 70.435346 
L 152.963927 107.152423 
L 153.512073 79.505296 
L 153.786145 73.596349 
L 154.060218 89.228334 
L 154.334291 98.356289 
L 154.608364 96.198654 
L 154.882436 95.774936 
L 155.430582 57.500974 
L 155.704655 110.100133 
L 155.978727 86.414157 
L 156.2528 74.5377 
L 156.526873 95.272792 
L 156.800945 71.763599 
L 157.075018 126.407728 
L 157.349091 93.621048 
L 157.623164 102.063687 
L 157.897236 116.937616 
L 158.171309 48.367505 
L 158.445382 90.162276 
L 158.719455 66.55648 
L 158.993527 53.330515 
L 159.2676 124.584753 
L 159.815745 88.771173 
L 160.089818 80.475814 
L 160.363891 115.298096 
L 160.637964 51.286046 
L 160.912036 84.210811 
L 161.186109 97.760258 
L 161.460182 78.613558 
L 161.734255 73.045089 
L 162.008327 62.571385 
L 162.2824 121.085914 
L 162.556473 58.938796 
L 162.830545 128.554273 
L 163.104618 60.093176 
L 163.378691 95.387859 
L 163.652764 68.953411 
L 163.926836 111.719056 
L 164.200909 113.21507 
L 164.474982 93.402695 
L 165.023127 127.441021 
L 165.2972 117.827984 
L 165.571273 95.399667 
L 165.845345 123.426473 
L 166.119418 76.171499 
L 166.393491 111.104045 
L 166.667564 89.76339 
L 166.941636 45.467361 
L 167.215709 80.759133 
L 167.489782 45.634337 
L 167.763855 64.210925 
L 168.037927 91.227535 
L 168.312 95.264386 
L 168.586073 69.66455 
L 168.860145 117.180831 
L 169.134218 93.974627 
L 169.408291 112.32006 
L 169.682364 57.728696 
L 169.956436 49.404246 
L 170.504582 122.263746 
L 170.778655 114.345828 
L 171.052727 118.034577 
L 171.3268 49.625334 
L 171.600873 91.969871 
L 171.874945 77.140854 
L 172.149018 114.231654 
L 172.423091 115.434328 
L 172.697164 61.168842 
L 172.971236 116.368956 
L 173.245309 105.363735 
L 173.519382 49.658195 
L 173.793455 115.585608 
L 174.067527 63.995033 
L 174.3416 82.323551 
L 174.615673 67.575328 
L 174.889745 89.124994 
L 175.163818 48.441208 
L 175.437891 100.202094 
L 175.711964 117.360201 
L 175.986036 51.820239 
L 176.260109 63.198552 
L 176.534182 95.056476 
L 176.808255 77.570675 
L 177.082327 44.74237 
L 177.3564 87.060107 
L 177.630473 71.148703 
L 177.904545 72.086574 
L 178.178618 123.736903 
L 178.452691 44.847245 
L 178.726764 87.036594 
L 179.000836 62.577653 
L 179.274909 108.587806 
L 179.548982 127.975481 
L 179.823055 48.790248 
L 180.097127 125.403517 
L 180.3712 127.619323 
L 180.645273 55.368425 
L 180.919345 69.105155 
L 181.193418 54.561244 
L 181.467491 72.971341 
L 181.741564 81.545972 
L 182.015636 127.567388 
L 182.289709 74.353552 
L 182.563782 82.233006 
L 182.837855 62.141818 
L 183.111927 81.266711 
L 183.386 128.915943 
L 183.660073 80.912547 
L 183.934145 100.666163 
L 184.208218 81.197289 
L 184.482291 129.63735 
L 184.756364 57.409122 
L 185.030436 118.226752 
L 185.304509 53.970742 
L 185.852655 109.253007 
L 186.4008 86.205259 
L 186.674873 85.59824 
L 186.948945 100.669536 
L 187.223018 101.647832 
L 187.497091 116.555709 
L 187.771164 76.763548 
L 188.045236 103.043037 
L 188.319309 110.963749 
L 188.593382 48.306337 
L 188.867455 82.481661 
L 189.141527 62.216613 
L 189.4156 108.189642 
L 189.689673 52.934056 
L 189.963745 110.816842 
L 190.237818 77.349535 
L 190.511891 78.311061 
L 190.785964 84.737322 
L 191.060036 57.787374 
L 191.334109 112.564339 
L 191.608182 118.962357 
L 191.882255 120.544139 
L 192.156327 74.495741 
L 192.4304 80.213914 
L 192.704473 79.95541 
L 192.978545 55.113884 
L 193.526691 117.851657 
L 193.800764 125.059478 
L 194.348909 76.8796 
L 194.622982 99.486336 
L 194.897055 87.33316 
L 195.171127 103.633813 
L 195.4452 79.745963 
L 195.719273 79.981362 
L 195.993345 130.315942 
L 196.267418 65.843849 
L 196.541491 100.445639 
L 197.089636 78.030095 
L 197.363709 44.818782 
L 197.637782 105.841465 
L 197.911855 63.633224 
L 198.185927 67.991737 
L 198.734073 105.530021 
L 199.008145 79.425484 
L 199.282218 79.764621 
L 199.556291 86.042679 
L 199.830364 62.961777 
L 200.104436 120.999906 
L 200.378509 61.970929 
L 200.926655 126.496884 
L 201.4748 45.385033 
L 201.748873 44.360502 
L 202.022945 49.808994 
L 202.297018 65.414505 
L 202.571091 112.910108 
L 202.845164 81.501554 
L 203.119236 85.482713 
L 203.393309 86.614397 
L 203.667382 70.956417 
L 203.941455 105.373859 
L 204.215527 48.867696 
L 204.4896 102.598561 
L 204.763673 55.270054 
L 205.037745 80.455618 
L 205.311818 94.757788 
L 205.585891 77.808846 
L 205.859964 119.85415 
L 206.134036 123.661067 
L 206.408109 66.066957 
L 206.682182 72.607217 
L 206.956255 119.906607 
L 207.230327 71.126095 
L 207.5044 123.188685 
L 208.052545 84.574853 
L 208.326618 111.18147 
L 208.600691 54.217786 
L 208.874764 85.68371 
L 209.148836 78.73177 
L 209.422909 68.006526 
L 209.696982 115.709351 
L 209.971055 86.676405 
L 210.245127 73.894637 
L 210.5192 80.759928 
L 211.067345 126.083592 
L 211.341418 84.899148 
L 211.889564 47.62059 
L 212.163636 44.491995 
L 212.711782 94.305258 
L 212.985855 66.026734 
L 213.259927 61.349536 
L 213.534 121.636044 
L 213.808073 121.51797 
L 214.082145 81.316455 
L 214.356218 109.146804 
L 214.630291 86.031084 
L 214.904364 91.866417 
L 215.178436 49.681392 
L 215.452509 56.709235 
L 215.726582 53.411399 
L 216.000655 71.969551 
L 216.274727 130.167191 
L 216.5488 73.889934 
L 216.822873 125.186308 
L 217.096945 87.161782 
L 217.371018 91.42665 
L 217.645091 55.920462 
L 217.919164 45.698435 
L 218.193236 60.238269 
L 218.467309 65.457456 
L 218.741382 122.274415 
L 219.015455 112.458043 
L 219.289527 83.519904 
L 219.5636 124.734373 
L 219.837673 92.813407 
L 220.111745 113.421096 
L 220.659891 44.199861 
L 220.933964 114.463684 
L 221.208036 108.647631 
L 221.482109 113.390968 
L 221.756182 71.340413 
L 222.030255 98.897565 
L 222.304327 100.725614 
L 222.5784 66.679966 
L 222.852473 106.612738 
L 223.126545 59.981279 
L 223.400618 119.050609 
L 223.674691 76.93534 
L 223.948764 77.549963 
L 224.222836 80.950087 
L 224.770982 46.664791 
L 225.045055 103.357105 
L 225.319127 85.520987 
L 225.5932 107.427952 
L 225.867273 82.383398 
L 226.141345 82.757355 
L 226.415418 98.971499 
L 226.689491 75.396493 
L 226.963564 83.91672 
L 227.237636 105.267562 
L 227.511709 74.314291 
L 227.785782 118.668075 
L 228.059855 103.162208 
L 228.333927 76.588622 
L 228.608 79.359433 
L 228.882073 109.610036 
L 229.156145 84.25404 
L 229.430218 121.237982 
L 229.704291 71.019505 
L 229.978364 68.461038 
L 230.252436 120.001922 
L 230.526509 59.188827 
L 230.800582 53.90777 
L 231.074655 127.143499 
L 231.6228 62.231241 
L 231.896873 106.911407 
L 232.170945 120.133682 
L 232.445018 127.952055 
L 232.719091 105.394582 
L 232.993164 60.798321 
L 233.267236 124.16042 
L 233.541309 68.750249 
L 233.815382 114.47433 
L 234.089455 83.963849 
L 234.363527 75.187191 
L 234.6376 47.126799 
L 234.911673 60.603577 
L 235.185745 60.607137 
L 235.459818 56.56061 
L 235.733891 60.730496 
L 236.007964 71.438657 
L 236.282036 90.621748 
L 236.556109 89.46706 
L 236.830182 47.02578 
L 237.378327 128.837934 
L 237.6524 129.056269 
L 237.926473 128.202983 
L 238.474618 62.328635 
L 238.748691 121.517707 
L 239.022764 108.859566 
L 239.296836 128.326874 
L 239.570909 85.995521 
L 239.844982 93.057344 
L 240.119055 78.374855 
L 240.393127 87.370501 
L 240.6672 112.188574 
L 241.215345 85.413627 
L 241.763491 123.224252 
L 242.037564 61.718592 
L 242.311636 44.168581 
L 242.585709 55.698633 
L 242.859782 43.971563 
L 243.133855 90.399346 
L 243.407927 46.287728 
L 243.682 87.643307 
L 243.956073 93.311763 
L 244.230145 128.905103 
L 244.504218 56.679316 
L 244.778291 81.495649 
L 245.052364 87.923692 
L 245.326436 89.731742 
L 245.600509 64.850992 
L 245.874582 50.126075 
L 246.148655 117.996839 
L 246.422727 74.848372 
L 246.6968 118.247992 
L 246.970873 105.790387 
L 247.244945 106.329769 
L 247.519018 110.528444 
L 247.793091 65.851732 
L 248.067164 49.855657 
L 248.341236 113.168894 
L 248.615309 45.673638 
L 248.889382 72.505014 
L 249.163455 48.294637 
L 249.437527 116.584641 
L 249.7116 105.051151 
L 249.985673 106.316119 
L 250.259745 78.867177 
L 250.533818 124.346344 
L 251.081964 74.80728 
L 251.356036 122.645871 
L 251.630109 119.079649 
L 251.904182 60.750928 
L 252.178255 116.868609 
L 252.452327 111.369701 
L 252.7264 74.329032 
L 253.000473 78.752593 
L 253.274545 63.739036 
L 253.822691 85.208002 
L 254.096764 71.004468 
L 254.370836 89.60736 
L 254.644909 49.817338 
L 254.918982 94.396405 
L 255.467127 72.025826 
L 255.7412 106.656686 
L 256.015273 49.975127 
L 256.289345 123.208504 
L 256.563418 70.114674 
L 256.837491 91.334488 
L 257.111564 90.347345 
L 257.385636 120.882279 
L 257.659709 48.469587 
L 257.933782 87.290897 
L 258.207855 95.23304 
L 258.756 123.098206 
L 259.030073 82.150713 
L 259.304145 77.247506 
L 259.852291 55.29857 
L 260.126364 83.154792 
L 260.400436 81.3196 
L 260.674509 71.519237 
L 260.948582 87.38831 
L 261.222655 119.912113 
L 261.496727 110.961893 
L 261.7708 97.236169 
L 262.044873 51.864331 
L 262.318945 113.221509 
L 262.593018 101.623152 
L 262.867091 84.938392 
L 263.141164 54.893623 
L 263.415236 63.222177 
L 263.689309 112.581945 
L 263.963382 63.993778 
L 264.237455 103.202537 
L 264.511527 60.435645 
L 264.7856 118.117887 
L 265.607818 74.15954 
L 265.881891 54.222811 
L 266.155964 113.253477 
L 266.430036 90.054272 
L 266.704109 88.776551 
L 266.978182 53.44283 
L 267.252255 102.380205 
L 267.526327 66.038811 
L 267.8004 123.240485 
L 268.348545 116.400019 
L 268.622618 44.071292 
L 268.896691 89.725522 
L 269.170764 73.88046 
L 269.444836 97.622478 
L 269.718909 91.745389 
L 269.992982 127.374538 
L 270.267055 129.312413 
L 270.541127 67.443312 
L 270.8152 108.574696 
L 271.089273 92.927646 
L 271.363345 111.978205 
L 271.637418 69.627099 
L 271.911491 52.045488 
L 272.185564 69.696436 
L 272.459636 64.849496 
L 272.733709 121.139476 
L 273.007782 104.863106 
L 273.281855 97.161758 
L 273.555927 57.692862 
L 273.83 97.591629 
L 274.104073 66.339229 
L 274.652218 104.474653 
L 274.926291 94.030952 
L 275.200364 126.264401 
L 275.474436 48.918476 
L 275.748509 115.120645 
L 276.022582 81.346356 
L 276.296655 78.851788 
L 276.570727 55.783653 
L 276.8448 72.660547 
L 277.118873 58.401038 
L 277.392945 64.459351 
L 277.667018 126.750426 
L 277.941091 56.716116 
L 278.215164 63.714276 
L 278.489236 49.804993 
L 278.763309 47.86951 
L 279.037382 116.958183 
L 279.311455 87.506362 
L 279.585527 88.454359 
L 279.8596 53.275647 
L 280.407745 71.174194 
L 280.681818 48.043604 
L 280.955891 48.750093 
L 281.229964 102.850106 
L 281.504036 76.483104 
L 281.778109 107.855751 
L 282.326255 52.518825 
L 282.600327 81.585799 
L 282.8744 62.142731 
L 283.148473 82.377066 
L 283.422545 46.32563 
L 283.696618 113.446662 
L 283.970691 57.752669 
L 284.244764 55.401696 
L 284.518836 99.667883 
L 284.792909 104.764308 
L 285.066982 76.489224 
L 285.341055 78.999746 
L 285.615127 46.665942 
L 285.8892 111.146818 
L 286.163273 55.338536 
L 286.437345 104.743273 
L 286.711418 126.477341 
L 286.985491 95.432814 
L 287.533636 119.597641 
L 287.807709 51.840504 
L 288.081782 56.167126 
L 288.355855 46.544004 
L 288.629927 114.469614 
L 288.904 128.675186 
L 289.178073 60.071422 
L 289.726218 123.468549 
L 290.000291 76.173466 
L 290.274364 92.041484 
L 290.548436 58.894247 
L 290.822509 71.976132 
L 291.370655 121.489278 
L 291.644727 45.534162 
L 291.9188 75.830058 
L 292.192873 128.960752 
L 292.466945 83.976592 
L 292.741018 93.758053 
L 293.015091 115.322211 
L 293.289164 90.910673 
L 293.563236 124.999119 
L 294.111382 85.826163 
L 294.385455 109.423592 
L 294.659527 64.302755 
L 294.9336 107.256104 
L 295.207673 66.29477 
L 295.481745 75.44962 
L 295.755818 108.441088 
L 296.029891 44.891562 
L 296.303964 100.112257 
L 296.578036 68.40307 
L 296.852109 97.470376 
L 297.126182 58.182568 
L 297.400255 69.933239 
L 297.674327 101.784449 
L 297.9484 83.076857 
L 298.222473 112.016828 
L 298.496545 85.409311 
L 298.770618 70.587671 
L 299.044691 84.495334 
L 299.318764 56.345717 
L 299.592836 66.952088 
L 299.866909 112.537687 
L 300.140982 108.426987 
L 300.415055 98.229716 
L 300.689127 97.259975 
L 300.9632 125.425466 
L 301.237273 57.17085 
L 301.511345 100.099329 
L 301.785418 96.376494 
L 302.059491 77.245581 
L 302.333564 48.416627 
L 302.607636 104.829368 
L 302.881709 64.100857 
L 303.155782 88.955247 
L 303.429855 86.407186 
L 303.703927 123.614673 
L 303.978 119.930599 
L 304.252073 70.445291 
L 304.526145 49.198452 
L 304.800218 105.824043 
L 305.074291 55.705866 
L 305.896509 107.527882 
L 306.170582 66.845589 
L 306.444655 53.784604 
L 306.718727 113.161654 
L 306.9928 81.627269 
L 307.266873 100.933604 
L 307.540945 71.132235 
L 307.815018 130.31559 
L 308.089091 101.668423 
L 308.363164 108.544653 
L 308.637236 45.16228 
L 308.911309 98.532715 
L 309.185382 64.396719 
L 309.459455 55.448007 
L 309.733527 77.785166 
L 310.0076 62.730327 
L 310.281673 64.31394 
L 310.555745 106.860928 
L 310.829818 122.727607 
L 311.377964 48.954315 
L 311.652036 110.004173 
L 311.926109 97.702723 
L 312.200182 119.503515 
L 312.474255 46.314269 
L 312.748327 124.897825 
L 313.0224 80.80994 
L 313.296473 109.66037 
L 313.570545 49.97424 
L 313.844618 72.356059 
L 314.118691 49.757126 
L 314.392764 91.209032 
L 314.666836 88.195351 
L 314.940909 96.760112 
L 315.214982 122.740538 
L 315.489055 71.846716 
L 315.763127 60.465351 
L 316.0372 94.655961 
L 316.311273 90.836814 
L 316.585345 124.158698 
L 316.859418 67.680759 
L 317.133491 93.768361 
L 317.407564 101.118 
L 317.681636 86.081385 
L 317.955709 94.192443 
L 318.503855 70.193183 
L 318.777927 69.910449 
L 319.052 68.909515 
L 319.326073 100.894763 
L 319.600145 44.992545 
L 319.874218 105.466067 
L 320.148291 127.927501 
L 320.696436 67.54615 
L 320.970509 81.93423 
L 321.244582 124.199349 
L 321.518655 90.590561 
L 321.792727 127.038421 
L 322.0668 112.541502 
L 322.614945 58.033045 
L 322.889018 124.308565 
L 323.163091 51.988478 
L 323.437164 99.501744 
L 323.711236 80.618465 
L 323.985309 43.966291 
L 324.259382 120.320771 
L 324.533455 100.657448 
L 325.0816 112.400731 
L 325.355673 71.572167 
L 325.629745 53.441504 
L 325.903818 97.301295 
L 326.177891 73.742276 
L 326.451964 76.872498 
L 326.726036 60.580302 
L 327.000109 120.328212 
L 327.274182 122.896745 
L 327.548255 114.098635 
L 327.822327 91.179523 
L 328.0964 124.679823 
L 328.370473 52.469192 
L 328.644545 68.356501 
L 328.918618 45.353653 
L 329.466764 117.127376 
L 329.740836 72.934171 
L 330.014909 74.290585 
L 330.288982 93.33311 
L 330.563055 88.552239 
L 330.837127 125.230665 
L 331.1112 56.978033 
L 331.385273 123.908005 
L 331.659345 120.892389 
L 331.933418 46.187971 
L 332.207491 77.134707 
L 332.481564 123.234786 
L 332.755636 46.544056 
L 333.303782 82.179776 
L 333.577855 70.989274 
L 333.851927 117.942426 
L 334.126 48.586501 
L 334.400073 47.189137 
L 334.674145 68.086143 
L 335.222291 95.790872 
L 335.222291 95.790872 
" clip-path="url(#p3384cc5982)" style="fill: none; stroke: #1f77b4; stroke-width: 1.5; stroke-linecap: square"/>
   </g>
   <g id="line2d_14">
    <path d="M 61.423636 87.16 
L 335.496364 87.16 
" clip-path="url(#p3384cc5982)" style="fill: none; stroke-dasharray: 7.4,3.2; stroke-dashoffset: 0; stroke: #ff0000; stroke-width: 2"/>
   </g>
   <g id="line2d_15">
    <path d="M 192.978545 87.16 
L 203.941455 87.16 
" clip-path="url(#p3384cc5982)" style="fill: none; stroke: #000000; stroke-width: 2; stroke-linecap: square"/>
   </g>
   <g id="line2d_16">
    <path d="M 192.978545 43.72 
L 203.941455 43.72 
" clip-path="url(#p3384cc5982)" style="fill: none; stroke: #000000; stroke-width: 2; stroke-linecap: square"/>
   </g>
   <g id="line2d_17">
    <path d="M 198.46 87.16 
L 198.46 43.72 
" clip-path="url(#p3384cc5982)" style="fill: none; stroke: #000000; stroke-width: 2; stroke-linecap: square"/>
   </g>
   <g id="line2d_18">
    <path d="M 192.978545 159.56 
L 203.941455 159.56 
" clip-path="url(#p3384cc5982)" style="fill: none; stroke: #000000; stroke-width: 2; stroke-linecap: square"/>
   </g>
   <g id="line2d_19">
    <path d="M 198.46 159.56 
L 198.46 87.16 
" clip-path="url(#p3384cc5982)" style="fill: none; stroke: #000000; stroke-width: 2; stroke-linecap: square"/>
   </g>
   <g id="patch_3">
    <path d="M 47.72 174.04 
L 47.72 14.76 
" style="fill: none; stroke: #000000; stroke-width: 0.8; stroke-linejoin: miter; stroke-linecap: square"/>
   </g>
   <g id="patch_4">
    <path d="M 349.2 174.04 
L 349.2 14.76 
" style="fill: none; stroke: #000000; stroke-width: 0.8; stroke-linejoin: miter; stroke-linecap: square"/>
   </g>
   <g id="patch_5">
    <path d="M 47.72 174.04 
L 349.2 174.04 
" style="fill: none; stroke: #000000; stroke-width: 0.8; stroke-linejoin: miter; stroke-linecap: square"/>
   </g>
   <g id="patch_6">
    <path d="M 47.72 14.76 
L 349.2 14.76 
" style="fill: none; stroke: #000000; stroke-width: 0.8; stroke-linejoin: miter; stroke-linecap: square"/>
   </g>
   <g id="text_15">
    <g id="patch_7">
     <path d="M 205.422909 71.519688 
L 235.015097 71.519688 
L 235.015097 53.841563 
L 205.422909 53.841563 
z
" style="fill: #ffffff; opacity: 0.8; stroke: #000000; stroke-linejoin: miter"/>
    </g>
    <!-- gain -->
    <g transform="translate(209.422909 65.44) scale(0.1 -0.1)">
     <use xlink:href="#DejaVuSans-67"/>
     <use xlink:href="#DejaVuSans-61" transform="translate(63.476562 0)"/>
     <use xlink:href="#DejaVuSans-69" transform="translate(124.755859 0)"/>
     <use xlink:href="#DejaVuSans-6e" transform="translate(152.539062 0)"/>
    </g>
   </g>
   <g id="text_16">
    <g id="patch_8">
     <path d="M 205.422909 129.439688 
L 241.865097 129.439688 
L 241.865097 111.761563 
L 205.422909 111.761563 
z
" style="fill: #ffffff; opacity: 0.8; stroke: #000000; stroke-linejoin: miter"/>
    </g>
    <!-- offset -->
    <g transform="translate(209.422909 123.36) scale(0.1 -0.1)">
     <defs>
      <path id="DejaVuSans-6f" d="M 1959 3097 
Q 1497 3097 1228 2736 
Q 959 2375 959 1747 
Q 959 1119 1226 758 
Q 1494 397 1959 397 
Q 2419 397 2687 759 
Q 2956 1122 2956 1747 
Q 2956 2369 2687 2733 
Q 2419 3097 1959 3097 
z
M 1959 3584 
Q 2709 3584 3137 3096 
Q 3566 2609 3566 1747 
Q 3566 888 3137 398 
Q 2709 -91 1959 -91 
Q 1206 -91 779 398 
Q 353 888 353 1747 
Q 353 2609 779 3096 
Q 1206 3584 1959 3584 
z
" transform="scale(0.015625)"/>
      <path id="DejaVuSans-66" d="M 2375 4863 
L 2375 4384 
L 1825 4384 
Q 1516 4384 1395 4259 
Q 1275 4134 1275 3809 
L 1275 3500 
L 2222 3500 
L 2222 3053 
L 1275 3053 
L 1275 0 
L 697 0 
L 697 3053 
L 147 3053 
L 147 3500 
L 697 3500 
L 697 3744 
Q 697 4328 969 4595 
Q 1241 4863 1831 4863 
L 2375 4863 
z
" transform="scale(0.015625)"/>
     </defs>
     <use xlink:href="#DejaVuSans-6f"/>
     <use xlink:href="#DejaVuSans-66" transform="translate(61.181641 0)"/>
     <use xlink:href="#DejaVuSans-66" transform="translate(96.386719 0)"/>
     <use xlink:href="#DejaVuSans-73" transform="translate(131.591797 0)"/>
     <use xlink:href="#DejaVuSans-65" transform="translate(183.691406 0)"/>
     <use xlink:href="#DejaVuSans-74" transform="translate(245.214844 0)"/>
    </g>
   </g>
  </g>
 </g>
 <defs>
  <clipPath id="p3384cc5982">
   <rect x="47.72" y="14.76" width="301.48" height="159.28"/>
  </clipPath>
 </defs>
</svg>
