<?xml version="1.0" encoding="utf-8" standalone="no"?>
<!DOCTYPE svg PUBLIC "-//W3C//DTD SVG 1.1//EN"
  "http://www.w3.org/Graphics/SVG/1.1/DTD/svg11.dtd">
<svg xmlns:xlink="http://www.w3.org/1999/xlink" width="360pt" height="216pt" viewBox="0 0 360 216" xmlns="http://www.w3.org/2000/svg" version="1.1">
 <metadata>
  <rdf:RDF xmlns:dc="http://purl.org/dc/elements/1.1/" xmlns:cc="http://creativecommons.org/ns#" xmlns:rdf="http://www.w3.org/1999/02/22-rdf-syntax-ns#">
   <cc:Work>
    <dc:type rdf:resource="http://purl.org/dc/dcmitype/StillImage"/>
    <dc:date>2026-05-29T21:46:23.093624</dc:date>
    <dc:format>image/svg+xml</dc:format>
    <dc:creator>
     <cc:Agent>
      <dc:title>Matplotlib v3.10.9, https://matplotlib.org/</dc:title>
     </cc:Agent>
    </dc:creator>
   </cc:Work>
  </rdf:RDF>
 </metadata>
 <defs>
  <style type="text/css">*{stroke-linejoin: round; stroke-linecap: butt}</style>
 </defs>
 <g id="figure_1">
  <g id="patch_1">
   <path d="M 0 216 
L 360 216 
L 360 0 
L 0 0 
z
" style="fill: #ffffff"/>
  </g>
  <g id="axes_1">
   <g id="patch_2">
    <path d="M 47.72 174.04 
L 349.2 174.04 
L 349.2 14.76 
L 47.72 14.76 
z
" style="fill: #ffffff"/>
   </g>
   <g id="matplotlib.axis_1">
    <g id="xtick_1">
     <g id="line2d_1">
      <defs>
       <path id="m31a59a9d39" d="M 0 0 
L 0 3.5 
" style="stroke: #000000; stroke-width: 0.8"/>
      </defs>
      <g>
       <use xlink:href="#m31a59a9d39" x="61.423636" y="174.04" style="stroke: #000000; stroke-width: 0.8"/>
      </g>
     </g>
     <g id="text_1">
      <!-- 0.0 -->
      <g transform="translate(53.472074 188.638438) scale(0.1 -0.1)">
       <defs>
        <path id="DejaVuSans-30" d="M 2034 4250 
Q 1547 4250 1301 3770 
Q 1056 3291 1056 2328 
Q 1056 1369 1301 889 
Q 1547 409 2034 409 
Q 2525 409 2770 889 
Q 3016 1369 3016 2328 
Q 3016 3291 2770 3770 
Q 2525 4250 2034 4250 
z
M 2034 4750 
Q 2819 4750 3233 4129 
Q 3647 3509 3647 2328 
Q 3647 1150 3233 529 
Q 2819 -91 2034 -91 
Q 1250 -91 836 529 
Q 422 1150 422 2328 
Q 422 3509 836 4129 
Q 1250 4750 2034 4750 
z
" transform="scale(0.015625)"/>
        <path id="DejaVuSans-2e" d="M 684 794 
L 1344 794 
L 1344 0 
L 684 0 
L 684 794 
z
" transform="scale(0.015625)"/>
       </defs>
       <use xlink:href="#DejaVuSans-30"/>
       <use xlink:href="#DejaVuSans-2e" transform="translate(63.623047 0)"/>
       <use xlink:href="#DejaVuSans-30" transform="translate(95.410156 0)"/>
      </g>
     </g>
    </g>
    <g id="xtick_2">
     <g id="line2d_2">
      <g>
       <use xlink:href="#m31a59a9d39" x="116.238182" y="174.04" style="stroke: #000000; stroke-width: 0.8"/>
      </g>
     </g>
     <g id="text_2">
      <!-- 0.2 -->
      <g transform="translate(108.286619 188.638438) scale(0.1 -0.1)">
       <defs>
        <path id="DejaVuSans-32" d="M 1228 531 
L 3431 531 
L 3431 0 
L 469 0 
L 469 531 
Q 828 903 1448 1529 
Q 2069 2156 2228 2338 
Q 2531 2678 2651 2914 
Q 2772 3150 2772 3378 
Q 2772 3750 2511 3984 
Q 2250 4219 1831 4219 
Q 1534 4219 1204 4116 
Q 875 4013 500 3803 
L 500 4441 
Q 881 4594 1212 4672 
Q 1544 4750 1819 4750 
Q 2544 4750 2975 4387 
Q 3406 4025 3406 3419 
Q 3406 3131 3298 2873 
Q 3191 2616 2906 2266 
Q 2828 2175 2409 1742 
Q 1991 1309 1228 531 
z
" transform="scale(0.015625)"/>
       </defs>
       <use xlink:href="#DejaVuSans-30"/>
       <use xlink:href="#DejaVuSans-2e" transform="translate(63.623047 0)"/>
       <use xlink:href="#DejaVuSans-32" transform="translate(95.410156 0)"/>
      </g>
     </g>
    </g>
    <g id="xtick_3">
     <g id="line2d_3">
      <g>
       <use xlink:href="#m31a59a9d39" x="171.052727" y="174.04" style="stroke: #000000; stroke-width: 0.8"/>
      </g>
     </g>
     <g id="text_3">
      <!-- 0.4 -->
      <g transform="translate(163.101165 188.638438) scale(0.1 -0.1)">
       <defs>
        <path id="DejaVuSans-34" d="M 2419 4116 
L 825 1625 
L 2419 1625 
L 2419 4116 
z
M 2253 4666 
L 3047 4666 
L 3047 1625 
L 3713 1625 
L 3713 1100 
L 3047 1100 
L 3047 0 
L 2419 0 
L 2419 1100 
L 313 1100 
L 313 1709 
L 2253 4666 
z
" transform="scale(0.015625)"/>
       </defs>
       <use xlink:href="#DejaVuSans-30"/>
       <use xlink:href="#DejaVuSans-2e" transform="translate(63.623047 0)"/>
       <use xlink:href="#DejaVuSans-34" transform="translate(95.410156 0)"/>
      </g>
     </g>
    </g>
    <g id="xtick_4">
     <g id="line2d_4">
      <g>
       <use xlink:href="#m31a59a9d39" x="225.867273" y="174.04" style="stroke: #000000; stroke-width: 0.8"/>
      </g>
     </g>
     <g id="text_4">
      <!-- 0.6 -->
      <g transform="translate(217.91571 188.638438) scale(0.1 -0.1)">
       <defs>
        <path id="DejaVuSans-36" d="M 2113 2584 
Q 1688 2584 1439 2293 
Q 1191 2003 1191 1497 
Q 1191 994 1439 701 
Q 1688 409 2113 409 
Q 2538 409 2786 701 
Q 3034 994 3034 1497 
Q 3034 2003 2786 2293 
Q 2538 2584 2113 2584 
z
M 3366 4563 
L 3366 3988 
Q 3128 4100 2886 4159 
Q 2644 4219 2406 4219 
Q 1781 4219 1451 3797 
Q 1122 3375 1075 2522 
Q 1259 2794 1537 2939 
Q 1816 3084 2150 3084 
Q 2853 3084 3261 2657 
Q 3669 2231 3669 1497 
Q 3669 778 3244 343 
Q 2819 -91 2113 -91 
Q 1303 -91 875 529 
Q 447 1150 447 2328 
Q 447 3434 972 4092 
Q 1497 4750 2381 4750 
Q 2619 4750 2861 4703 
Q 3103 4656 3366 4563 
z
" transform="scale(0.015625)"/>
       </defs>
       <use xlink:href="#DejaVuSans-30"/>
       <use xlink:href="#DejaVuSans-2e" transform="translate(63.623047 0)"/>
       <use xlink:href="#DejaVuSans-36" transform="translate(95.410156 0)"/>
      </g>
     </g>
    </g>
    <g id="xtick_5">
     <g id="line2d_5">
      <g>
       <use xlink:href="#m31a59a9d39" x="280.681818" y="174.04" style="stroke: #000000; stroke-width: 0.8"/>
      </g>
     </g>
     <g id="text_5">
      <!-- 0.8 -->
      <g transform="translate(272.730256 188.638438) scale(0.1 -0.1)">
       <defs>
        <path id="DejaVuSans-38" d="M 2034 2216 
Q 1584 2216 1326 1975 
Q 1069 1734 1069 1313 
Q 1069 891 1326 650 
Q 1584 409 2034 409 
Q 2484 409 2743 651 
Q 3003 894 3003 1313 
Q 3003 1734 2745 1975 
Q 2488 2216 2034 2216 
z
M 1403 2484 
Q 997 2584 770 2862 
Q 544 3141 544 3541 
Q 544 4100 942 4425 
Q 1341 4750 2034 4750 
Q 2731 4750 3128 4425 
Q 3525 4100 3525 3541 
Q 3525 3141 3298 2862 
Q 3072 2584 2669 2484 
Q 3125 2378 3379 2068 
Q 3634 1759 3634 1313 
Q 3634 634 3220 271 
Q 2806 -91 2034 -91 
Q 1263 -91 848 271 
Q 434 634 434 1313 
Q 434 1759 690 2068 
Q 947 2378 1403 2484 
z
M 1172 3481 
Q 1172 3119 1398 2916 
Q 1625 2713 2034 2713 
Q 2441 2713 2670 2916 
Q 2900 3119 2900 3481 
Q 2900 3844 2670 4047 
Q 2441 4250 2034 4250 
Q 1625 4250 1398 4047 
Q 1172 3844 1172 3481 
z
" transform="scale(0.015625)"/>
       </defs>
       <use xlink:href="#DejaVuSans-30"/>
       <use xlink:href="#DejaVuSans-2e" transform="translate(63.623047 0)"/>
       <use xlink:href="#DejaVuSans-38" transform="translate(95.410156 0)"/>
      </g>
     </g>
    </g>
    <g id="xtick_6">
     <g id="line2d_6">
      <g>
       <use xlink:href="#m31a59a9d39" x="335.496364" y="174.04" style="stroke: #000000; stroke-width: 0.8"/>
      </g>
     </g>
     <g id="text_6">
      <!-- 1.0 -->
      <g transform="translate(327.544801 188.638438) scale(0.1 -0.1)">
       <defs>
        <path id="DejaVuSans-31" d="M 794 531 
L 1825 531 
L 1825 4091 
L 703 3866 
L 703 4441 
L 1819 4666 
L 2450 4666 
L 2450 531 
L 3481 531 
L 3481 0 
L 794 0 
L 794 531 
z
" transform="scale(0.015625)"/>
       </defs>
       <use xlink:href="#DejaVuSans-31"/>
       <use xlink:href="#DejaVuSans-2e" transform="translate(63.623047 0)"/>
       <use xlink:href="#DejaVuSans-30" transform="translate(95.410156 0)"/>
      </g>
     </g>
    </g>
    <g id="text_7">
     <!-- Time (sec) -->
     <g transform="translate(172.305312 202.316563) scale(0.1 -0.1)">
      <defs>
       <path id="DejaVuSans-54" d="M -19 4666 
L 3928 4666 
L 3928 4134 
L 2272 4134 
L 2272 0 
L 1638 0 
L 1638 4134 
L -19 4134 
L -19 4666 
z
" transform="scale(0.015625)"/>
       <path id="DejaVuSans-69" d="M 603 3500 
L 1178 3500 
L 1178 0 
L 603 0 
L 603 3500 
z
M 603 4863 
L 1178 4863 
L 1178 4134 
L 603 4134 
L 603 4863 
z
" transform="scale(0.015625)"/>
       <path id="DejaVuSans-6d" d="M 3328 2828 
Q 3544 3216 3844 3400 
Q 4144 3584 4550 3584 
Q 5097 3584 5394 3201 
Q 5691 2819 5691 2113 
L 5691 0 
L 5113 0 
L 5113 2094 
Q 5113 2597 4934 2840 
Q 4756 3084 4391 3084 
Q 3944 3084 3684 2787 
Q 3425 2491 3425 1978 
L 3425 0 
L 2847 0 
L 2847 2094 
Q 2847 2600 2669 2842 
Q 2491 3084 2119 3084 
Q 1678 3084 1418 2786 
Q 1159 2488 1159 1978 
L 1159 0 
L 581 0 
L 581 3500 
L 1159 3500 
L 1159 2956 
Q 1356 3278 1631 3431 
Q 1906 3584 2284 3584 
Q 2666 3584 2933 3390 
Q 3200 3197 3328 2828 
z
" transform="scale(0.015625)"/>
       <path id="DejaVuSans-65" d="M 3597 1894 
L 3597 1613 
L 953 1613 
Q 991 1019 1311 708 
Q 1631 397 2203 397 
Q 2534 397 2845 478 
Q 3156 559 3463 722 
L 3463 178 
Q 3153 47 2828 -22 
Q 2503 -91 2169 -91 
Q 1331 -91 842 396 
Q 353 884 353 1716 
Q 353 2575 817 3079 
Q 1281 3584 2069 3584 
Q 2775 3584 3186 3129 
Q 3597 2675 3597 1894 
z
M 3022 2063 
Q 3016 2534 2758 2815 
Q 2500 3097 2075 3097 
Q 1594 3097 1305 2825 
Q 1016 2553 972 2059 
L 3022 2063 
z
" transform="scale(0.015625)"/>
       <path id="DejaVuSans-20" transform="scale(0.015625)"/>
       <path id="DejaVuSans-28" d="M 1984 4856 
Q 1566 4138 1362 3434 
Q 1159 2731 1159 2009 
Q 1159 1288 1364 580 
Q 1569 -128 1984 -844 
L 1484 -844 
Q 1016 -109 783 600 
Q 550 1309 550 2009 
Q 550 2706 781 3412 
Q 1013 4119 1484 4856 
L 1984 4856 
z
" transform="scale(0.015625)"/>
       <path id="DejaVuSans-73" d="M 2834 3397 
L 2834 2853 
Q 2591 2978 2328 3040 
Q 2066 3103 1784 3103 
Q 1356 3103 1142 2972 
Q 928 2841 928 2578 
Q 928 2378 1081 2264 
Q 1234 2150 1697 2047 
L 1894 2003 
Q 2506 1872 2764 1633 
Q 3022 1394 3022 966 
Q 3022 478 2636 193 
Q 2250 -91 1575 -91 
Q 1294 -91 989 -36 
Q 684 19 347 128 
L 347 722 
Q 666 556 975 473 
Q 1284 391 1588 391 
Q 1994 391 2212 530 
Q 2431 669 2431 922 
Q 2431 1156 2273 1281 
Q 2116 1406 1581 1522 
L 1381 1569 
Q 847 1681 609 1914 
Q 372 2147 372 2553 
Q 372 3047 722 3315 
Q 1072 3584 1716 3584 
Q 2034 3584 2315 3537 
Q 2597 3491 2834 3397 
z
" transform="scale(0.015625)"/>
       <path id="DejaVuSans-63" d="M 3122 3366 
L 3122 2828 
Q 2878 2963 2633 3030 
Q 2388 3097 2138 3097 
Q 1578 3097 1268 2742 
Q 959 2388 959 1747 
Q 959 1106 1268 751 
Q 1578 397 2138 397 
Q 2388 397 2633 464 
Q 2878 531 3122 666 
L 3122 134 
Q 2881 22 2623 -34 
Q 2366 -91 2075 -91 
Q 1284 -91 818 406 
Q 353 903 353 1747 
Q 353 2603 823 3093 
Q 1294 3584 2113 3584 
Q 2378 3584 2631 3529 
Q 2884 3475 3122 3366 
z
" transform="scale(0.015625)"/>
       <path id="DejaVuSans-29" d="M 513 4856 
L 1013 4856 
Q 1481 4119 1714 3412 
Q 1947 2706 1947 2009 
Q 1947 1309 1714 600 
Q 1481 -109 1013 -844 
L 513 -844 
Q 928 -128 1133 580 
Q 1338 1288 1338 2009 
Q 1338 2731 1133 3434 
Q 928 4138 513 4856 
z
" transform="scale(0.015625)"/>
      </defs>
      <use xlink:href="#DejaVuSans-54"/>
      <use xlink:href="#DejaVuSans-69" transform="translate(57.958984 0)"/>
      <use xlink:href="#DejaVuSans-6d" transform="translate(85.742188 0)"/>
      <use xlink:href="#DejaVuSans-65" transform="translate(183.154297 0)"/>
      <use xlink:href="#DejaVuSans-20" transform="translate(244.677734 0)"/>
      <use xlink:href="#DejaVuSans-28" transform="translate(276.464844 0)"/>
      <use xlink:href="#DejaVuSans-73" transform="translate(315.478516 0)"/>
      <use xlink:href="#DejaVuSans-65" transform="translate(367.578125 0)"/>
      <use xlink:href="#DejaVuSans-63" transform="translate(429.101562 0)"/>
      <use xlink:href="#DejaVuSans-29" transform="translate(484.082031 0)"/>
     </g>
    </g>
   </g>
   <g id="matplotlib.axis_2">
    <g id="ytick_1">
     <g id="line2d_7">
      <defs>
       <path id="m03ee38ffb9" d="M 0 0 
L -3.5 0 
" style="stroke: #000000; stroke-width: 0.8"/>
      </defs>
      <g>
       <use xlink:href="#m03ee38ffb9" x="47.72" y="159.56" style="stroke: #000000; stroke-width: 0.8"/>
      </g>
     </g>
     <g id="text_8">
      <!-- 0.0 -->
      <g transform="translate(24.816875 163.359219) scale(0.1 -0.1)">
       <use xlink:href="#DejaVuSans-30"/>
       <use xlink:href="#DejaVuSans-2e" transform="translate(63.623047 0)"/>
       <use xlink:href="#DejaVuSans-30" transform="translate(95.410156 0)"/>
      </g>
     </g>
    </g>
    <g id="ytick_2">
     <g id="line2d_8">
      <g>
       <use xlink:href="#m03ee38ffb9" x="47.72" y="130.6" style="stroke: #000000; stroke-width: 0.8"/>
      </g>
     </g>
     <g id="text_9">
      <!-- 0.2 -->
      <g transform="translate(24.816875 134.399219) scale(0.1 -0.1)">
       <use xlink:href="#DejaVuSans-30"/>
       <use xlink:href="#DejaVuSans-2e" transform="translate(63.623047 0)"/>
       <use xlink:href="#DejaVuSans-32" transform="translate(95.410156 0)"/>
      </g>
     </g>
    </g>
    <g id="ytick_3">
     <g id="line2d_9">
      <g>
       <use xlink:href="#m03ee38ffb9" x="47.72" y="101.64" style="stroke: #000000; stroke-width: 0.8"/>
      </g>
     </g>
     <g id="text_10">
      <!-- 0.4 -->
      <g transform="translate(24.816875 105.439219) scale(0.1 -0.1)">
       <use xlink:href="#DejaVuSans-30"/>
       <use xlink:href="#DejaVuSans-2e" transform="translate(63.623047 0)"/>
       <use xlink:href="#DejaVuSans-34" transform="translate(95.410156 0)"/>
      </g>
     </g>
    </g>
    <g id="ytick_4">
     <g id="line2d_10">
      <g>
       <use xlink:href="#m03ee38ffb9" x="47.72" y="72.68" style="stroke: #000000; stroke-width: 0.8"/>
      </g>
     </g>
     <g id="text_11">
      <!-- 0.6 -->
      <g transform="translate(24.816875 76.479219) scale(0.1 -0.1)">
       <use xlink:href="#DejaVuSans-30"/>
       <use xlink:href="#DejaVuSans-2e" transform="translate(63.623047 0)"/>
       <use xlink:href="#DejaVuSans-36" transform="translate(95.410156 0)"/>
      </g>
     </g>
    </g>
    <g id="ytick_5">
     <g id="line2d_11">
      <g>
       <use xlink:href="#m03ee38ffb9" x="47.72" y="43.72" style="stroke: #000000; stroke-width: 0.8"/>
      </g>
     </g>
     <g id="text_12">
      <!-- 0.8 -->
      <g transform="translate(24.816875 47.519219) scale(0.1 -0.1)">
       <use xlink:href="#DejaVuSans-30"/>
       <use xlink:href="#DejaVuSans-2e" transform="translate(63.623047 0)"/>
       <use xlink:href="#DejaVuSans-38" transform="translate(95.410156 0)"/>
      </g>
     </g>
    </g>
    <g id="ytick_6">
     <g id="line2d_12">
      <g>
       <use xlink:href="#m03ee38ffb9" x="47.72" y="14.76" style="stroke: #000000; stroke-width: 0.8"/>
      </g>
     </g>
     <g id="text_13">
      <!-- 1.0 -->
      <g transform="translate(24.816875 18.559219) scale(0.1 -0.1)">
       <use xlink:href="#DejaVuSans-31"/>
       <use xlink:href="#DejaVuSans-2e" transform="translate(63.623047 0)"/>
       <use xlink:href="#DejaVuSans-30" transform="translate(95.410156 0)"/>
      </g>
     </g>
    </g>
    <g id="text_14">
     <!-- Injected Signal -->
     <g transform="translate(18.737188 131.417969) rotate(-90) scale(0.1 -0.1)">
      <defs>
       <path id="DejaVuSans-49" d="M 628 4666 
L 1259 4666 
L 1259 0 
L 628 0 
L 628 4666 
z
" transform="scale(0.015625)"/>
       <path id="DejaVuSans-6e" d="M 3513 2113 
L 3513 0 
L 2938 0 
L 2938 2094 
Q 2938 2591 2744 2837 
Q 2550 3084 2163 3084 
Q 1697 3084 1428 2787 
Q 1159 2491 1159 1978 
L 1159 0 
L 581 0 
L 581 3500 
L 1159 3500 
L 1159 2956 
Q 1366 3272 1645 3428 
Q 1925 3584 2291 3584 
Q 2894 3584 3203 3211 
Q 3513 2838 3513 2113 
z
" transform="scale(0.015625)"/>
       <path id="DejaVuSans-6a" d="M 603 3500 
L 1178 3500 
L 1178 -63 
Q 1178 -731 923 -1031 
Q 669 -1331 103 -1331 
L -116 -1331 
L -116 -844 
L 38 -844 
Q 366 -844 484 -692 
Q 603 -541 603 -63 
L 603 3500 
z
M 603 4863 
L 1178 4863 
L 1178 4134 
L 603 4134 
L 603 4863 
z
" transform="scale(0.015625)"/>
       <path id="DejaVuSans-74" d="M 1172 4494 
L 1172 3500 
L 2356 3500 
L 2356 3053 
L 1172 3053 
L 1172 1153 
Q 1172 725 1289 603 
Q 1406 481 1766 481 
L 2356 481 
L 2356 0 
L 1766 0 
Q 1100 0 847 248 
Q 594 497 594 1153 
L 594 3053 
L 172 3053 
L 172 3500 
L 594 3500 
L 594 4494 
L 1172 4494 
z
" transform="scale(0.015625)"/>
       <path id="DejaVuSans-64" d="M 2906 2969 
L 2906 4863 
L 3481 4863 
L 3481 0 
L 2906 0 
L 2906 525 
Q 2725 213 2448 61 
Q 2172 -91 1784 -91 
Q 1150 -91 751 415 
Q 353 922 353 1747 
Q 353 2572 751 3078 
Q 1150 3584 1784 3584 
Q 2172 3584 2448 3432 
Q 2725 3281 2906 2969 
z
M 947 1747 
Q 947 1113 1208 752 
Q 1469 391 1925 391 
Q 2381 391 2643 752 
Q 2906 1113 2906 1747 
Q 2906 2381 2643 2742 
Q 2381 3103 1925 3103 
Q 1469 3103 1208 2742 
Q 947 2381 947 1747 
z
" transform="scale(0.015625)"/>
       <path id="DejaVuSans-53" d="M 3425 4513 
L 3425 3897 
Q 3066 4069 2747 4153 
Q 2428 4238 2131 4238 
Q 1616 4238 1336 4038 
Q 1056 3838 1056 3469 
Q 1056 3159 1242 3001 
Q 1428 2844 1947 2747 
L 2328 2669 
Q 3034 2534 3370 2195 
Q 3706 1856 3706 1288 
Q 3706 609 3251 259 
Q 2797 -91 1919 -91 
Q 1588 -91 1214 -16 
Q 841 59 441 206 
L 441 856 
Q 825 641 1194 531 
Q 1563 422 1919 422 
Q 2459 422 2753 634 
Q 3047 847 3047 1241 
Q 3047 1584 2836 1778 
Q 2625 1972 2144 2069 
L 1759 2144 
Q 1053 2284 737 2584 
Q 422 2884 422 3419 
Q 422 4038 858 4394 
Q 1294 4750 2059 4750 
Q 2388 4750 2728 4690 
Q 3069 4631 3425 4513 
z
" transform="scale(0.015625)"/>
       <path id="DejaVuSans-67" d="M 2906 1791 
Q 2906 2416 2648 2759 
Q 2391 3103 1925 3103 
Q 1463 3103 1205 2759 
Q 947 2416 947 1791 
Q 947 1169 1205 825 
Q 1463 481 1925 481 
Q 2391 481 2648 825 
Q 2906 1169 2906 1791 
z
M 3481 434 
Q 3481 -459 3084 -895 
Q 2688 -1331 1869 -1331 
Q 1566 -1331 1297 -1286 
Q 1028 -1241 775 -1147 
L 775 -588 
Q 1028 -725 1275 -790 
Q 1522 -856 1778 -856 
Q 2344 -856 2625 -561 
Q 2906 -266 2906 331 
L 2906 616 
Q 2728 306 2450 153 
Q 2172 0 1784 0 
Q 1141 0 747 490 
Q 353 981 353 1791 
Q 353 2603 747 3093 
Q 1141 3584 1784 3584 
Q 2172 3584 2450 3431 
Q 2728 3278 2906 2969 
L 2906 3500 
L 3481 3500 
L 3481 434 
z
" transform="scale(0.015625)"/>
       <path id="DejaVuSans-61" d="M 2194 1759 
Q 1497 1759 1228 1600 
Q 959 1441 959 1056 
Q 959 750 1161 570 
Q 1363 391 1709 391 
Q 2188 391 2477 730 
Q 2766 1069 2766 1631 
L 2766 1759 
L 2194 1759 
z
M 3341 1997 
L 3341 0 
L 2766 0 
L 2766 531 
Q 2569 213 2275 61 
Q 1981 -91 1556 -91 
Q 1019 -91 701 211 
Q 384 513 384 1019 
Q 384 1609 779 1909 
Q 1175 2209 1959 2209 
L 2766 2209 
L 2766 2266 
Q 2766 2663 2505 2880 
Q 2244 3097 1772 3097 
Q 1472 3097 1187 3025 
Q 903 2953 641 2809 
L 641 3341 
Q 956 3463 1253 3523 
Q 1550 3584 1831 3584 
Q 2591 3584 2966 3190 
Q 3341 2797 3341 1997 
z
" transform="scale(0.015625)"/>
       <path id="DejaVuSans-6c" d="M 603 4863 
L 1178 4863 
L 1178 0 
L 603 0 
L 603 4863 
z
" transform="scale(0.015625)"/>
      </defs>
      <use xlink:href="#DejaVuSans-49"/>
      <use xlink:href="#DejaVuSans-6e" transform="translate(29.492188 0)"/>
      <use xlink:href="#DejaVuSans-6a" transform="translate(92.871094 0)"/>
      <use xlink:href="#DejaVuSans-65" transform="translate(120.654297 0)"/>
      <use xlink:href="#DejaVuSans-63" transform="translate(182.177734 0)"/>
      <use xlink:href="#DejaVuSans-74" transform="translate(237.158203 0)"/>
      <use xlink:href="#DejaVuSans-65" transform="translate(276.367188 0)"/>
      <use xlink:href="#DejaVuSans-64" transform="translate(337.890625 0)"/>
      <use xlink:href="#DejaVuSans-20" transform="translate(401.367188 0)"/>
      <use xlink:href="#DejaVuSans-53" transform="translate(433.154297 0)"/>
      <use xlink:href="#DejaVuSans-69" transform="translate(496.630859 0)"/>
      <use xlink:href="#DejaVuSans-67" transform="translate(524.414062 0)"/>
      <use xlink:href="#DejaVuSans-6e" transform="translate(587.890625 0)"/>
      <use xlink:href="#DejaVuSans-61" transform="translate(651.269531 0)"/>
      <use xlink:href="#DejaVuSans-6c" transform="translate(712.548828 0)"/>
     </g>
    </g>
   </g>
   <g id="line2d_13">
    <path d="M 61.423636 58.370325 
L 61.697709 91.653574 
L 61.971782 57.471332 
L 62.245855 108.915116 
L 62.519927 66.155817 
L 62.794 48.985313 
L 63.068073 44.063614 
L 63.342145 73.072517 
L 63.616218 56.824846 
L 63.890291 91.543614 
L 64.164364 104.124592 
L 64.438436 121.916934 
L 64.712509 60.841586 
L 64.986582 51.618608 
L 65.260655 69.850973 
L 65.534727 111.369125 
L 65.8088 70.444513 
L 66.082873 113.346244 
L 66.356945 57.197587 
L 66.631018 106.115537 
L 66.905091 97.222709 
L 67.179164 53.160182 
L 67.453236 122.393774 
L 67.727309 102.540464 
L 68.001382 52.266635 
L 68.275455 82.913801 
L 68.549527 86.687858 
L 68.8236 71.425324 
L 69.097673 47.346406 
L 69.371745 121.329029 
L 69.645818 109.4669 
L 69.919891 53.025735 
L 70.193964 73.277474 
L 70.468036 112.535255 
L 70.742109 70.228446 
L 71.016182 95.814882 
L 71.290255 58.869311 
L 71.564327 46.826131 
L 71.8384 49.252982 
L 72.112473 54.413963 
L 72.386545 67.588949 
L 72.660618 67.619454 
L 72.934691 129.603612 
L 73.208764 124.079748 
L 73.482836 72.275425 
L 73.756909 44.652703 
L 74.030982 59.24807 
L 74.305055 128.032906 
L 74.579127 71.948874 
L 74.8532 84.290052 
L 75.127273 77.275474 
L 75.401345 120.498843 
L 75.949491 72.816445 
L 76.223564 76.638015 
L 76.497636 74.134958 
L 76.771709 51.228758 
L 77.045782 61.572542 
L 77.319855 106.917258 
L 77.593927 76.06496 
L 77.868 106.919189 
L 78.142073 64.831819 
L 78.416145 119.510058 
L 78.690218 51.586457 
L 78.964291 117.863945 
L 79.238364 106.373339 
L 79.512436 72.752607 
L 79.786509 125.913113 
L 80.334655 44.929389 
L 80.608727 115.186974 
L 80.8828 95.533022 
L 81.156873 124.079046 
L 81.430945 81.966448 
L 81.705018 73.319101 
L 81.979091 112.17039 
L 82.253164 58.286577 
L 82.527236 56.143448 
L 82.801309 67.71811 
L 83.075382 98.32674 
L 83.349455 96.834377 
L 83.623527 101.26476 
L 83.8976 79.060471 
L 84.171673 86.405234 
L 84.445745 64.403623 
L 84.719818 71.986011 
L 85.267964 128.471765 
L 85.542036 71.175345 
L 85.816109 66.031402 
L 86.364255 126.802192 
L 86.638327 99.334538 
L 86.9124 98.108814 
L 87.186473 59.976122 
L 87.460545 124.135886 
L 87.734618 79.870117 
L 88.008691 88.582694 
L 88.282764 103.133586 
L 88.556836 66.270382 
L 88.830909 79.729021 
L 89.104982 112.631909 
L 89.653127 64.370061 
L 89.9272 61.322206 
L 90.201273 114.748899 
L 90.749418 50.435558 
L 91.297564 123.455267 
L 91.571636 77.973773 
L 91.845709 58.179563 
L 92.119782 100.382568 
L 92.393855 81.27675 
L 92.667927 52.322311 
L 92.942 52.854258 
L 93.216073 103.408346 
L 93.490145 61.699743 
L 93.764218 65.967104 
L 94.038291 58.809793 
L 94.312364 60.917326 
L 94.586436 88.210997 
L 94.860509 70.62771 
L 95.134582 123.175141 
L 95.408655 72.971896 
L 95.682727 124.818203 
L 95.9568 104.040238 
L 96.230873 106.35707 
L 96.504945 63.206073 
L 96.779018 67.21011 
L 97.053091 84.929359 
L 97.327164 88.547574 
L 97.601236 124.912751 
L 97.875309 126.015776 
L 98.149382 57.804207 
L 98.423455 85.73503 
L 98.697527 73.018018 
L 98.9716 125.572588 
L 99.245673 120.659116 
L 99.519745 74.494732 
L 99.793818 114.63546 
L 100.067891 83.922108 
L 100.341964 84.791808 
L 100.616036 103.805301 
L 100.890109 104.609895 
L 101.164182 60.555503 
L 101.438255 59.923601 
L 101.712327 120.517273 
L 101.9864 89.558945 
L 102.260473 101.329401 
L 102.534545 46.243797 
L 102.808618 51.209175 
L 103.082691 66.194835 
L 103.356764 66.596401 
L 103.630836 117.936982 
L 103.904909 98.049745 
L 104.178982 65.031837 
L 104.453055 85.761498 
L 105.0012 59.487009 
L 105.275273 52.264 
L 105.549345 127.09004 
L 105.823418 122.15025 
L 106.097491 127.96515 
L 106.371564 78.41101 
L 106.645636 83.034485 
L 106.919709 119.11669 
L 107.193782 105.3418 
L 107.467855 56.471809 
L 107.741927 59.797926 
L 108.016 96.297351 
L 108.290073 93.88138 
L 108.564145 115.349654 
L 108.838218 123.706571 
L 109.386364 46.576543 
L 109.660436 91.716543 
L 109.934509 78.921884 
L 110.208582 122.947843 
L 110.482655 100.423987 
L 110.756727 47.613178 
L 111.0308 87.923899 
L 111.304873 82.679587 
L 111.578945 95.42525 
L 111.853018 129.702317 
L 112.127091 105.619653 
L 112.401164 124.802625 
L 112.675236 128.322212 
L 112.949309 120.906841 
L 113.223382 76.874082 
L 113.497455 127.689668 
L 113.771527 93.559744 
L 114.0456 119.798766 
L 114.319673 61.394025 
L 114.593745 50.79421 
L 114.867818 126.36882 
L 115.141891 96.253169 
L 115.415964 128.820467 
L 115.690036 126.685562 
L 115.964109 67.370214 
L 116.238182 51.088675 
L 116.512255 98.711012 
L 116.786327 88.294038 
L 117.0604 98.238735 
L 117.334473 84.376655 
L 117.608545 53.32868 
L 118.156691 103.595406 
L 118.430764 71.453939 
L 118.704836 69.58474 
L 118.978909 116.102852 
L 119.252982 60.723511 
L 119.527055 85.874921 
L 119.801127 62.547977 
L 120.0752 105.611214 
L 120.349273 100.105331 
L 120.623345 105.182537 
L 120.897418 80.216308 
L 121.171491 89.491269 
L 121.445564 75.117589 
L 121.719636 118.434672 
L 121.993709 52.033753 
L 122.267782 127.243208 
L 122.541855 90.204561 
L 122.815927 87.175341 
L 123.09 100.166746 
L 123.364073 121.262793 
L 123.912218 74.627314 
L 124.186291 75.601584 
L 124.460364 45.642799 
L 124.734436 56.221915 
L 125.008509 95.554908 
L 125.282582 62.556617 
L 125.556655 124.907484 
L 125.830727 68.219087 
L 126.1048 46.679744 
L 126.378873 103.678099 
L 126.652945 52.799864 
L 127.475164 127.172168 
L 127.749236 74.699157 
L 128.023309 59.453511 
L 128.297382 71.861712 
L 128.571455 119.51437 
L 128.845527 84.080727 
L 129.1196 101.699718 
L 129.393673 105.064616 
L 129.667745 120.74516 
L 129.941818 46.267255 
L 130.215891 60.200353 
L 130.489964 59.160481 
L 130.764036 71.136966 
L 131.038109 122.661778 
L 131.312182 83.881727 
L 131.586255 129.587741 
L 131.860327 106.238767 
L 132.1344 103.062466 
L 132.408473 61.311147 
L 132.682545 61.236625 
L 132.956618 83.279894 
L 133.230691 63.993789 
L 133.778836 91.041484 
L 134.052909 88.403994 
L 134.326982 62.844498 
L 134.601055 113.57165 
L 134.875127 92.780681 
L 135.1492 118.593978 
L 135.423273 60.371336 
L 135.697345 129.153056 
L 135.971418 122.070893 
L 136.245491 102.157554 
L 136.519564 55.007696 
L 136.793636 115.921973 
L 137.067709 66.826563 
L 137.341782 50.279207 
L 137.615855 113.154432 
L 137.889927 64.960661 
L 138.164 85.242102 
L 138.438073 88.390327 
L 138.712145 86.380609 
L 138.986218 48.127653 
L 139.260291 44.86229 
L 139.534364 74.779514 
L 139.808436 83.839961 
L 140.082509 81.576331 
L 140.356582 74.163818 
L 140.630655 45.875907 
L 140.904727 80.813037 
L 141.1788 56.29047 
L 141.452873 53.985254 
L 141.726945 63.710301 
L 142.001018 91.23656 
L 142.275091 88.496122 
L 142.549164 74.38803 
L 143.097309 100.599419 
L 143.371382 114.812228 
L 143.645455 96.750844 
L 143.919527 111.831688 
L 144.1936 114.799251 
L 144.467673 67.196761 
L 144.741745 107.542027 
L 145.015818 73.077902 
L 145.289891 74.166537 
L 145.563964 115.132661 
L 145.838036 118.774788 
L 146.112109 90.985367 
L 146.386182 103.316698 
L 146.660255 107.923409 
L 146.934327 53.231016 
L 147.2084 88.989645 
L 147.482473 77.484078 
L 147.756545 48.705962 
L 148.030618 129.213349 
L 148.304691 44.223321 
L 148.578764 121.017603 
L 148.852836 111.94308 
L 149.126909 66.482249 
L 149.400982 102.472251 
L 149.675055 100.86963 
L 149.949127 101.765192 
L 150.2232 120.068648 
L 150.497273 93.709456 
L 150.771345 49.267559 
L 151.045418 45.472146 
L 151.319491 59.057276 
L 151.593564 122.502324 
L 151.867636 53.697693 
L 152.141709 111.596911 
L 152.415782 88.108698 
L 152.963927 93.409901 
L 153.238 57.135868 
L 153.512073 80.286834 
L 154.060218 45.537118 
L 154.334291 49.640905 
L 154.608364 90.277999 
L 154.882436 50.005003 
L 155.156509 65.149771 
L 155.430582 92.278506 
L 155.704655 46.773071 
L 156.2528 112.070934 
L 156.526873 69.323926 
L 156.800945 89.577918 
L 157.075018 68.130616 
L 157.349091 80.915486 
L 157.623164 78.990006 
L 157.897236 98.348929 
L 158.171309 81.615071 
L 158.719455 128.135897 
L 158.993527 126.017069 
L 159.2676 85.045725 
L 159.541673 105.470743 
L 159.815745 48.690123 
L 160.089818 129.672307 
L 160.363891 84.712231 
L 160.637964 88.729126 
L 160.912036 50.322828 
L 161.186109 83.501165 
L 161.460182 55.916685 
L 161.734255 48.018267 
L 162.008327 96.465053 
L 162.2824 79.643636 
L 162.556473 79.421356 
L 162.830545 91.626053 
L 163.104618 98.847969 
L 163.378691 57.519454 
L 163.652764 99.402096 
L 163.926836 111.776814 
L 164.200909 72.986241 
L 164.474982 113.211798 
L 164.749055 50.850563 
L 165.023127 108.556064 
L 165.845345 47.71032 
L 166.119418 44.51533 
L 166.393491 123.650728 
L 166.667564 53.360606 
L 166.941636 54.752775 
L 167.215709 117.984037 
L 167.489782 83.397109 
L 167.763855 71.098741 
L 168.037927 78.312728 
L 168.312 98.113043 
L 168.586073 48.730563 
L 168.860145 83.184161 
L 169.134218 75.177228 
L 169.408291 63.350434 
L 169.956436 95.644754 
L 170.230509 48.542735 
L 170.504582 46.928302 
L 170.778655 105.644461 
L 171.052727 47.736459 
L 171.3268 72.351229 
L 171.600873 113.947644 
L 171.874945 92.29397 
L 172.149018 118.623854 
L 172.423091 57.46086 
L 172.697164 120.416027 
L 172.971236 60.201207 
L 173.245309 128.471279 
L 173.519382 55.243679 
L 173.793455 53.606797 
L 174.067527 56.341389 
L 174.3416 56.830431 
L 174.615673 119.861151 
L 174.889745 123.61007 
L 175.163818 112.801963 
L 175.437891 84.400496 
L 175.711964 84.165847 
L 176.260109 53.660051 
L 176.534182 120.690454 
L 176.808255 55.860138 
L 177.082327 79.347541 
L 177.3564 53.251348 
L 177.630473 66.587473 
L 177.904545 61.958772 
L 178.178618 48.654914 
L 178.452691 99.825966 
L 178.726764 108.16687 
L 179.000836 124.239985 
L 179.274909 45.57591 
L 179.548982 97.621599 
L 179.823055 108.117428 
L 180.097127 98.431601 
L 180.3712 122.605323 
L 180.645273 72.248515 
L 180.919345 72.219387 
L 181.193418 116.62821 
L 181.467491 79.079609 
L 181.741564 83.326226 
L 182.015636 84.929761 
L 182.289709 56.354008 
L 182.837855 130.325906 
L 183.111927 84.910737 
L 183.386 69.793307 
L 183.660073 72.278325 
L 183.934145 55.083643 
L 184.482291 100.019649 
L 184.756364 76.907623 
L 185.030436 114.234724 
L 185.304509 60.79338 
L 185.578582 80.515512 
L 185.852655 128.714963 
L 186.126727 43.890543 
L 186.4008 108.877203 
L 186.674873 87.023174 
L 186.948945 114.757827 
L 187.223018 108.43396 
L 187.497091 129.511097 
L 187.771164 101.143786 
L 188.045236 112.434404 
L 188.319309 46.837359 
L 188.593382 52.619754 
L 188.867455 62.949329 
L 189.141527 121.532013 
L 189.4156 59.655356 
L 189.689673 50.726802 
L 189.963745 71.55198 
L 190.237818 44.563448 
L 190.511891 113.823592 
L 190.785964 118.176041 
L 191.060036 74.048168 
L 191.334109 66.467092 
L 191.608182 67.199381 
L 191.882255 121.013156 
L 192.156327 91.136609 
L 192.4304 88.447668 
L 192.704473 121.156211 
L 192.978545 50.011144 
L 193.252618 53.726126 
L 193.526691 109.147399 
L 193.800764 59.670301 
L 194.074836 60.22241 
L 194.348909 106.569497 
L 194.622982 64.648312 
L 194.897055 125.311893 
L 195.171127 62.701915 
L 195.4452 104.333249 
L 195.719273 72.021871 
L 195.993345 55.130197 
L 196.267418 82.801022 
L 196.541491 93.80318 
L 196.815564 92.387703 
L 197.089636 103.829852 
L 197.363709 76.329539 
L 197.637782 94.041409 
L 197.911855 68.021784 
L 198.185927 125.445571 
L 198.46 59.805971 
L 198.734073 119.953464 
L 199.008145 60.748059 
L 199.282218 50.479104 
L 199.556291 111.083561 
L 199.830364 118.622126 
L 200.104436 103.343818 
L 200.378509 110.629119 
L 200.652582 71.860865 
L 200.926655 71.224676 
L 201.200727 48.880442 
L 201.4748 102.254235 
L 201.748873 63.529483 
L 202.022945 48.885394 
L 202.297018 121.713648 
L 202.571091 75.600133 
L 202.845164 57.81444 
L 203.119236 91.689307 
L 203.393309 53.604994 
L 203.667382 64.36166 
L 203.941455 49.419169 
L 204.4896 115.932304 
L 204.763673 124.126496 
L 205.037745 58.573961 
L 205.311818 123.644352 
L 205.585891 58.044104 
L 205.859964 98.249542 
L 206.134036 48.523498 
L 206.682182 118.429114 
L 206.956255 85.066449 
L 207.230327 116.345213 
L 207.5044 105.138869 
L 207.778473 47.207799 
L 208.052545 120.975124 
L 208.326618 92.158197 
L 208.600691 98.708506 
L 208.874764 46.966866 
L 209.148836 125.953424 
L 209.422909 116.702536 
L 209.696982 65.42553 
L 209.971055 49.116788 
L 210.245127 123.970686 
L 210.5192 124.101663 
L 210.793273 54.137307 
L 211.067345 77.855931 
L 211.341418 53.885967 
L 211.615491 117.352939 
L 211.889564 127.759723 
L 212.163636 69.986295 
L 212.437709 117.637885 
L 212.711782 61.495187 
L 212.985855 115.949182 
L 213.259927 80.596969 
L 213.534 83.504679 
L 213.808073 116.284773 
L 214.082145 66.364153 
L 214.356218 129.952784 
L 214.630291 109.08442 
L 214.904364 65.872624 
L 215.178436 109.842316 
L 215.452509 127.663601 
L 215.726582 129.818463 
L 216.000655 71.372329 
L 216.274727 83.870727 
L 216.5488 109.468712 
L 216.822873 111.565847 
L 217.096945 64.728185 
L 217.371018 64.531208 
L 217.645091 123.040165 
L 217.919164 55.562646 
L 218.193236 84.972445 
L 218.467309 87.291804 
L 218.741382 49.538675 
L 219.015455 113.212687 
L 219.289527 64.564451 
L 219.5636 52.78345 
L 219.837673 99.471775 
L 220.111745 99.765619 
L 220.385818 50.890556 
L 220.659891 128.038129 
L 220.933964 94.715613 
L 221.208036 122.899276 
L 221.482109 56.575346 
L 221.756182 112.703907 
L 222.030255 65.166491 
L 222.304327 123.834778 
L 222.5784 120.455438 
L 222.852473 122.746405 
L 223.126545 75.987501 
L 223.400618 51.768388 
L 223.674691 49.887718 
L 223.948764 57.128486 
L 224.222836 105.047343 
L 224.496909 64.785266 
L 224.770982 65.80488 
L 225.045055 119.038915 
L 225.319127 63.759396 
L 225.5932 91.103064 
L 225.867273 48.886346 
L 226.141345 52.066781 
L 226.415418 74.223592 
L 226.689491 119.013795 
L 226.963564 62.61279 
L 227.237636 99.795766 
L 227.511709 94.928251 
L 227.785782 118.918305 
L 228.059855 125.939442 
L 228.608 74.503525 
L 228.882073 83.475564 
L 229.156145 111.890322 
L 229.430218 95.021869 
L 229.704291 85.221149 
L 229.978364 103.132578 
L 230.252436 97.157354 
L 230.526509 122.179921 
L 230.800582 81.468012 
L 231.074655 80.685336 
L 231.6228 67.574064 
L 231.896873 68.409413 
L 232.170945 93.338234 
L 232.445018 68.467827 
L 232.719091 61.284824 
L 232.993164 129.017395 
L 233.267236 79.451693 
L 233.541309 74.0922 
L 234.089455 113.079182 
L 235.185745 53.455245 
L 235.459818 52.795498 
L 236.007964 116.653016 
L 236.282036 89.072079 
L 236.556109 119.824196 
L 236.830182 89.627574 
L 237.104255 87.661134 
L 237.378327 54.116837 
L 237.6524 86.377741 
L 237.926473 98.688152 
L 238.200545 119.916491 
L 238.748691 113.559263 
L 239.022764 101.322677 
L 239.296836 98.495137 
L 239.570909 46.608051 
L 239.844982 103.940638 
L 240.119055 113.59701 
L 240.6672 46.844945 
L 240.941273 106.536774 
L 241.215345 122.785547 
L 241.489418 81.868239 
L 241.763491 94.827977 
L 242.037564 125.799469 
L 242.311636 51.74469 
L 242.585709 124.377441 
L 242.859782 124.333674 
L 243.133855 61.962796 
L 243.407927 86.947128 
L 243.682 79.439018 
L 243.956073 45.104145 
L 244.230145 117.995283 
L 244.504218 56.167091 
L 244.778291 87.176229 
L 245.052364 105.251842 
L 245.326436 59.436735 
L 245.600509 79.548175 
L 245.874582 120.558455 
L 246.148655 68.841449 
L 246.422727 49.828992 
L 246.6968 119.233076 
L 246.970873 51.234412 
L 247.244945 108.234269 
L 247.519018 79.318387 
L 248.067164 107.467813 
L 248.341236 56.35043 
L 248.615309 85.959749 
L 248.889382 80.160274 
L 249.163455 102.084681 
L 249.437527 61.087751 
L 249.7116 99.342493 
L 249.985673 120.763657 
L 250.259745 61.991794 
L 250.533818 80.166841 
L 250.807891 82.209325 
L 251.081964 120.089594 
L 251.356036 64.27106 
L 251.630109 99.66635 
L 251.904182 46.687033 
L 252.178255 113.824133 
L 252.452327 125.643502 
L 252.7264 89.143834 
L 253.000473 102.823775 
L 253.274545 52.444002 
L 253.548618 129.766294 
L 253.822691 85.116215 
L 254.096764 61.014967 
L 254.370836 74.968492 
L 254.644909 45.088554 
L 254.918982 99.593007 
L 255.193055 113.025139 
L 255.467127 75.680554 
L 255.7412 96.342601 
L 256.015273 90.847989 
L 256.289345 76.875133 
L 256.563418 71.107108 
L 257.111564 121.702861 
L 257.385636 114.008907 
L 257.933782 59.443958 
L 258.207855 103.026987 
L 258.481927 118.717406 
L 258.756 116.700275 
L 259.030073 69.859066 
L 259.304145 87.944397 
L 259.578218 87.478347 
L 259.852291 114.717844 
L 260.126364 117.233142 
L 260.674509 44.299072 
L 260.948582 53.989189 
L 261.222655 113.472019 
L 261.496727 61.272177 
L 261.7708 61.659043 
L 262.044873 54.680727 
L 262.318945 113.261685 
L 262.593018 106.908718 
L 262.867091 119.877466 
L 263.415236 44.65016 
L 263.689309 46.783134 
L 263.963382 69.032015 
L 264.237455 65.047522 
L 264.511527 67.017757 
L 264.7856 102.377139 
L 265.059673 92.225594 
L 265.333745 76.406599 
L 265.607818 73.555125 
L 265.881891 115.837879 
L 266.155964 127.234619 
L 266.430036 84.699193 
L 266.704109 89.200255 
L 266.978182 101.635507 
L 267.252255 87.237188 
L 267.526327 64.114842 
L 267.8004 99.097482 
L 268.074473 52.417877 
L 268.348545 129.165392 
L 268.622618 81.189334 
L 268.896691 103.117719 
L 269.170764 49.202868 
L 269.444836 68.478964 
L 269.718909 52.903833 
L 269.992982 94.279123 
L 270.267055 95.747235 
L 270.541127 47.841513 
L 270.8152 106.616176 
L 271.089273 73.740415 
L 271.363345 121.532364 
L 271.637418 113.024159 
L 271.911491 100.4146 
L 272.185564 51.221303 
L 272.459636 93.142143 
L 272.733709 110.147083 
L 273.007782 95.141381 
L 273.281855 97.365266 
L 273.555927 106.312465 
L 273.83 65.989831 
L 274.104073 127.878567 
L 274.378145 61.805235 
L 274.652218 109.547318 
L 274.926291 106.797726 
L 275.200364 47.598158 
L 275.748509 62.989581 
L 276.022582 61.031214 
L 276.296655 64.382753 
L 276.570727 51.825052 
L 277.118873 87.117491 
L 277.392945 127.98147 
L 277.667018 108.242897 
L 277.941091 50.097775 
L 278.489236 103.847786 
L 278.763309 44.20081 
L 279.037382 107.02103 
L 279.311455 95.558664 
L 279.585527 46.471564 
L 280.133673 84.837994 
L 280.407745 54.401599 
L 280.681818 128.853355 
L 281.229964 117.668856 
L 281.504036 119.13006 
L 281.778109 96.925106 
L 282.052182 105.206849 
L 282.326255 55.678655 
L 282.600327 82.386517 
L 282.8744 70.871173 
L 283.148473 53.728325 
L 283.422545 103.286931 
L 283.970691 47.083906 
L 284.244764 61.889113 
L 284.518836 51.0076 
L 284.792909 71.32006 
L 285.066982 118.495038 
L 285.341055 120.626909 
L 285.615127 43.746154 
L 285.8892 117.073701 
L 286.163273 82.722493 
L 286.437345 92.656984 
L 286.711418 85.561509 
L 286.985491 113.657992 
L 287.259564 112.802165 
L 287.533636 68.857519 
L 287.807709 98.920862 
L 288.081782 110.451645 
L 288.355855 60.503538 
L 288.904 127.428481 
L 289.178073 114.197119 
L 289.452145 115.89609 
L 289.726218 126.172148 
L 290.000291 98.881108 
L 290.274364 60.392836 
L 290.822509 129.114665 
L 291.096582 113.23742 
L 291.370655 67.351573 
L 291.644727 108.785321 
L 291.9188 78.424334 
L 292.466945 55.839797 
L 292.741018 123.387784 
L 293.015091 120.135742 
L 293.289164 85.065927 
L 293.563236 118.714995 
L 293.837309 105.10856 
L 294.111382 97.545498 
L 294.385455 94.230751 
L 294.659527 60.493572 
L 295.207673 112.202956 
L 295.481745 84.748851 
L 295.755818 129.768733 
L 296.303964 62.147199 
L 296.578036 110.014194 
L 296.852109 45.600185 
L 297.126182 79.194192 
L 297.400255 96.688488 
L 297.674327 43.886862 
L 297.9484 129.377967 
L 298.222473 84.287211 
L 298.496545 113.847579 
L 298.770618 127.119045 
L 299.044691 62.813936 
L 299.318764 60.005595 
L 299.592836 60.297856 
L 299.866909 104.515646 
L 300.140982 47.683759 
L 300.415055 45.302196 
L 300.689127 47.612142 
L 300.9632 88.033806 
L 301.237273 100.669227 
L 301.511345 46.6974 
L 301.785418 122.550054 
L 302.333564 74.483731 
L 302.607636 129.735605 
L 302.881709 119.640674 
L 303.155782 123.168638 
L 303.429855 86.520458 
L 303.978 46.009766 
L 304.252073 49.591948 
L 304.800218 103.546492 
L 305.074291 75.628173 
L 305.622436 50.154515 
L 305.896509 45.063342 
L 306.170582 64.134941 
L 306.444655 120.420377 
L 306.718727 122.945483 
L 306.9928 115.206294 
L 307.266873 46.924282 
L 307.540945 69.041909 
L 307.815018 59.460117 
L 308.089091 112.191777 
L 308.363164 52.228099 
L 308.637236 65.268069 
L 308.911309 44.352685 
L 309.185382 111.029964 
L 309.459455 83.560433 
L 310.0076 121.403871 
L 310.281673 130.575263 
L 310.555745 121.967813 
L 310.829818 92.196043 
L 311.103891 82.222049 
L 311.377964 98.179926 
L 311.652036 82.298467 
L 311.926109 107.422012 
L 312.474255 59.478852 
L 312.748327 112.507409 
L 313.0224 108.118968 
L 313.296473 121.55741 
L 313.844618 66.357446 
L 314.118691 123.02469 
L 314.392764 93.944475 
L 314.666836 112.501693 
L 314.940909 102.083552 
L 315.489055 115.976598 
L 315.763127 76.027341 
L 316.0372 93.735031 
L 316.311273 55.397338 
L 316.585345 57.273791 
L 316.859418 91.205541 
L 317.133491 60.407424 
L 317.407564 71.470014 
L 317.681636 103.960931 
L 317.955709 43.863095 
L 318.229782 126.40788 
L 318.503855 94.169241 
L 318.777927 106.340363 
L 319.052 90.573652 
L 319.326073 107.690715 
L 319.600145 115.691362 
L 319.874218 83.141642 
L 320.148291 124.941038 
L 320.422364 48.17509 
L 320.696436 105.332238 
L 320.970509 100.37388 
L 321.244582 65.378171 
L 321.518655 115.99294 
L 321.792727 106.967897 
L 322.0668 126.126631 
L 322.340873 70.357232 
L 322.614945 80.085855 
L 322.889018 83.997185 
L 323.163091 52.753366 
L 323.437164 74.55564 
L 323.711236 83.897775 
L 323.985309 79.953908 
L 324.259382 119.354416 
L 324.533455 106.162301 
L 324.807527 46.087869 
L 325.0816 98.722614 
L 325.355673 91.87389 
L 325.903818 118.554912 
L 326.177891 62.854774 
L 326.451964 72.043242 
L 326.726036 112.524647 
L 327.000109 58.158275 
L 327.274182 46.548906 
L 327.548255 126.661197 
L 327.822327 116.922283 
L 328.0964 98.497294 
L 328.370473 47.506804 
L 328.644545 50.061094 
L 328.918618 108.310141 
L 329.192691 121.29098 
L 329.466764 118.736256 
L 329.740836 85.407679 
L 330.014909 67.788892 
L 330.288982 62.451197 
L 330.563055 87.344139 
L 330.837127 93.936823 
L 331.1112 80.557742 
L 331.385273 108.853163 
L 331.659345 114.065104 
L 331.933418 74.066407 
L 332.207491 77.993832 
L 332.481564 53.939444 
L 332.755636 72.617254 
L 333.029709 45.298561 
L 333.303782 127.650083 
L 333.851927 46.885324 
L 334.126 114.304682 
L 334.400073 60.045631 
L 334.948218 114.451791 
L 335.222291 97.987015 
L 335.222291 97.987015 
" clip-path="url(#p398f477c80)" style="fill: none; stroke: #1f77b4; stroke-width: 1.5; stroke-linecap: square"/>
   </g>
   <g id="line2d_14">
    <path d="M 61.423636 87.16 
L 335.496364 87.16 
" clip-path="url(#p398f477c80)" style="fill: none; stroke-dasharray: 7.4,3.2; stroke-dashoffset: 0; stroke: #ff0000; stroke-width: 2"/>
   </g>
   <g id="line2d_15">
    <path d="M 192.978545 87.16 
L 203.941455 87.16 
" clip-path="url(#p398f477c80)" style="fill: none; stroke: #000000; stroke-width: 2; stroke-linecap: square"/>
   </g>
   <g id="line2d_16">
    <path d="M 192.978545 43.72 
L 203.941455 43.72 
" clip-path="url(#p398f477c80)" style="fill: none; stroke: #000000; stroke-width: 2; stroke-linecap: square"/>
   </g>
   <g id="line2d_17">
    <path d="M 198.46 87.16 
L 198.46 43.72 
" clip-path="url(#p398f477c80)" style="fill: none; stroke: #000000; stroke-width: 2; stroke-linecap: square"/>
   </g>
   <g id="line2d_18">
    <path d="M 192.978545 159.56 
L 203.941455 159.56 
" clip-path="url(#p398f477c80)" style="fill: none; stroke: #000000; stroke-width: 2; stroke-linecap: square"/>
   </g>
   <g id="line2d_19">
    <path d="M 198.46 159.56 
L 198.46 87.16 
" clip-path="url(#p398f477c80)" style="fill: none; stroke: #000000; stroke-width: 2; stroke-linecap: square"/>
   </g>
   <g id="patch_3">
    <path d="M 47.72 174.04 
L 47.72 14.76 
" style="fill: none; stroke: #000000; stroke-width: 0.8; stroke-linejoin: miter; stroke-linecap: square"/>
   </g>
   <g id="patch_4">
    <path d="M 349.2 174.04 
L 349.2 14.76 
" style="fill: none; stroke: #000000; stroke-width: 0.8; stroke-linejoin: miter; stroke-linecap: square"/>
   </g>
   <g id="patch_5">
    <path d="M 47.72 174.04 
L 349.2 174.04 
" style="fill: none; stroke: #000000; stroke-width: 0.8; stroke-linejoin: miter; stroke-linecap: square"/>
   </g>
   <g id="patch_6">
    <path d="M 47.72 14.76 
L 349.2 14.76 
" style="fill: none; stroke: #000000; stroke-width: 0.8; stroke-linejoin: miter; stroke-linecap: square"/>
   </g>
   <g id="text_15">
    <g id="patch_7">
     <path d="M 205.422909 71.519688 
L 235.015097 71.519688 
L 235.015097 53.841563 
L 205.422909 53.841563 
z
" style="fill: #ffffff; opacity: 0.8; stroke: #000000; stroke-linejoin: miter"/>
    </g>
    <!-- gain -->
    <g transform="translate(209.422909 65.44) scale(0.1 -0.1)">
     <use xlink:href="#DejaVuSans-67"/>
     <use xlink:href="#DejaVuSans-61" transform="translate(63.476562 0)"/>
     <use xlink:href="#DejaVuSans-69" transform="translate(124.755859 0)"/>
     <use xlink:href="#DejaVuSans-6e" transform="translate(152.539062 0)"/>
    </g>
   </g>
   <g id="text_16">
    <g id="patch_8">
     <path d="M 205.422909 129.439688 
L 241.865097 129.439688 
L 241.865097 111.761563 
L 205.422909 111.761563 
z
" style="fill: #ffffff; opacity: 0.8; stroke: #000000; stroke-linejoin: miter"/>
    </g>
    <!-- offset -->
    <g transform="translate(209.422909 123.36) scale(0.1 -0.1)">
     <defs>
      <path id="DejaVuSans-6f" d="M 1959 3097 
Q 1497 3097 1228 2736 
Q 959 2375 959 1747 
Q 959 1119 1226 758 
Q 1494 397 1959 397 
Q 2419 397 2687 759 
Q 2956 1122 2956 1747 
Q 2956 2369 2687 2733 
Q 2419 3097 1959 3097 
z
M 1959 3584 
Q 2709 3584 3137 3096 
Q 3566 2609 3566 1747 
Q 3566 888 3137 398 
Q 2709 -91 1959 -91 
Q 1206 -91 779 398 
Q 353 888 353 1747 
Q 353 2609 779 3096 
Q 1206 3584 1959 3584 
z
" transform="scale(0.015625)"/>
      <path id="DejaVuSans-66" d="M 2375 4863 
L 2375 4384 
L 1825 4384 
Q 1516 4384 1395 4259 
Q 1275 4134 1275 3809 
L 1275 3500 
L 2222 3500 
L 2222 3053 
L 1275 3053 
L 1275 0 
L 697 0 
L 697 3053 
L 147 3053 
L 147 3500 
L 697 3500 
L 697 3744 
Q 697 4328 969 4595 
Q 1241 4863 1831 4863 
L 2375 4863 
z
" transform="scale(0.015625)"/>
     </defs>
     <use xlink:href="#DejaVuSans-6f"/>
     <use xlink:href="#DejaVuSans-66" transform="translate(61.181641 0)"/>
     <use xlink:href="#DejaVuSans-66" transform="translate(96.386719 0)"/>
     <use xlink:href="#DejaVuSans-73" transform="translate(131.591797 0)"/>
     <use xlink:href="#DejaVuSans-65" transform="translate(183.691406 0)"/>
     <use xlink:href="#DejaVuSans-74" transform="translate(245.214844 0)"/>
    </g>
   </g>
  </g>
 </g>
 <defs>
  <clipPath id="p398f477c80">
   <rect x="47.72" y="14.76" width="301.48" height="159.28"/>
  </clipPath>
 </defs>
</svg>
