<?xml version="1.0" encoding="utf-8" standalone="no"?>
<!DOCTYPE svg PUBLIC "-//W3C//DTD SVG 1.1//EN"
  "http://www.w3.org/Graphics/SVG/1.1/DTD/svg11.dtd">
<svg xmlns:xlink="http://www.w3.org/1999/xlink" width="360pt" height="216pt" viewBox="0 0 360 216" xmlns="http://www.w3.org/2000/svg" version="1.1">
 <metadata>
  <rdf:RDF xmlns:dc="http://purl.org/dc/elements/1.1/" xmlns:cc="http://creativecommons.org/ns#" xmlns:rdf="http://www.w3.org/1999/02/22-rdf-syntax-ns#">
   <cc:Work>
    <dc:type rdf:resource="http://purl.org/dc/dcmitype/StillImage"/>
    <dc:date>2026-06-15T16:48:54.086752</dc:date>
    <dc:format>image/svg+xml</dc:format>
    <dc:creator>
     <cc:Agent>
      <dc:title>Matplotlib v3.11.0, https://matplotlib.org/</dc:title>
     </cc:Agent>
    </dc:creator>
   </cc:Work>
  </rdf:RDF>
 </metadata>
 <defs>
  <style type="text/css">*{stroke-linejoin: round; stroke-linecap: butt}</style>
 </defs>
 <g id="figure_1">
  <g id="patch_1">
   <path d="M 0 216 
L 360 216 
L 360 0 
L 0 0 
z
" style="fill: #ffffff"/>
  </g>
  <g id="axes_1">
   <g id="patch_2">
    <path d="M 47.962344 173.877656 
L 349.2 173.877656 
L 349.2 14.598828 
L 47.962344 14.598828 
z
" style="fill: #ffffff"/>
   </g>
   <g id="matplotlib.axis_1">
    <g id="xtick_1">
     <g id="line2d_1">
      <defs>
       <path id="m40051a555f" d="M 0 0 
L 0 3.5 
" style="stroke: #000000; stroke-width: 0.8"/>
      </defs>
      <g>
       <use xlink:href="#m40051a555f" x="61.654964" y="173.877656" style="stroke: #000000; stroke-width: 0.8"/>
      </g>
     </g>
     <g id="text_1">
      <!-- 0.0 -->
      <g transform="translate(53.703402 188.475313) scale(0.1 -0.1)">
       <defs>
        <path id="DejaVuSans-13" d="M 2034 4250 
Q 1547 4250 1301 3770 
Q 1056 3291 1056 2328 
Q 1056 1369 1301 889 
Q 1547 409 2034 409 
Q 2525 409 2770 889 
Q 3016 1369 3016 2328 
Q 3016 3291 2770 3770 
Q 2525 4250 2034 4250 
z
M 2034 4750 
Q 2819 4750 3233 4129 
Q 3647 3509 3647 2328 
Q 3647 1150 3233 529 
Q 2819 -91 2034 -91 
Q 1250 -91 836 529 
Q 422 1150 422 2328 
Q 422 3509 836 4129 
Q 1250 4750 2034 4750 
z
" transform="scale(0.015625)"/>
        <path id="DejaVuSans-11" d="M 684 794 
L 1344 794 
L 1344 0 
L 684 0 
L 684 794 
z
" transform="scale(0.015625)"/>
       </defs>
       <use xlink:href="#DejaVuSans-13"/>
       <use xlink:href="#DejaVuSans-11" transform="translate(63.625 0)"/>
       <use xlink:href="#DejaVuSans-13" transform="translate(95.40625 0)"/>
      </g>
     </g>
    </g>
    <g id="xtick_2">
     <g id="line2d_2">
      <g>
       <use xlink:href="#m40051a555f" x="116.425447" y="173.877656" style="stroke: #000000; stroke-width: 0.8"/>
      </g>
     </g>
     <g id="text_2">
      <!-- 0.2 -->
      <g transform="translate(108.473885 188.475313) scale(0.1 -0.1)">
       <defs>
        <path id="DejaVuSans-15" d="M 1228 531 
L 3431 531 
L 3431 0 
L 469 0 
L 469 531 
Q 828 903 1448 1529 
Q 2069 2156 2228 2338 
Q 2531 2678 2651 2914 
Q 2772 3150 2772 3378 
Q 2772 3750 2511 3984 
Q 2250 4219 1831 4219 
Q 1534 4219 1204 4116 
Q 875 4013 500 3803 
L 500 4441 
Q 881 4594 1212 4672 
Q 1544 4750 1819 4750 
Q 2544 4750 2975 4387 
Q 3406 4025 3406 3419 
Q 3406 3131 3298 2873 
Q 3191 2616 2906 2266 
Q 2828 2175 2409 1742 
Q 1991 1309 1228 531 
z
" transform="scale(0.015625)"/>
       </defs>
       <use xlink:href="#DejaVuSans-13"/>
       <use xlink:href="#DejaVuSans-11" transform="translate(63.625 0)"/>
       <use xlink:href="#DejaVuSans-15" transform="translate(95.40625 0)"/>
      </g>
     </g>
    </g>
    <g id="xtick_3">
     <g id="line2d_3">
      <g>
       <use xlink:href="#m40051a555f" x="171.19593" y="173.877656" style="stroke: #000000; stroke-width: 0.8"/>
      </g>
     </g>
     <g id="text_3">
      <!-- 0.4 -->
      <g transform="translate(163.244368 188.475313) scale(0.1 -0.1)">
       <defs>
        <path id="DejaVuSans-17" d="M 2419 4116 
L 825 1625 
L 2419 1625 
L 2419 4116 
z
M 2253 4666 
L 3047 4666 
L 3047 1625 
L 3713 1625 
L 3713 1100 
L 3047 1100 
L 3047 0 
L 2419 0 
L 2419 1100 
L 313 1100 
L 313 1709 
L 2253 4666 
z
" transform="scale(0.015625)"/>
       </defs>
       <use xlink:href="#DejaVuSans-13"/>
       <use xlink:href="#DejaVuSans-11" transform="translate(63.625 0)"/>
       <use xlink:href="#DejaVuSans-17" transform="translate(95.40625 0)"/>
      </g>
     </g>
    </g>
    <g id="xtick_4">
     <g id="line2d_4">
      <g>
       <use xlink:href="#m40051a555f" x="225.966413" y="173.877656" style="stroke: #000000; stroke-width: 0.8"/>
      </g>
     </g>
     <g id="text_4">
      <!-- 0.6 -->
      <g transform="translate(218.014851 188.475313) scale(0.1 -0.1)">
       <defs>
        <path id="DejaVuSans-19" d="M 2113 2584 
Q 1688 2584 1439 2293 
Q 1191 2003 1191 1497 
Q 1191 994 1439 701 
Q 1688 409 2113 409 
Q 2538 409 2786 701 
Q 3034 994 3034 1497 
Q 3034 2003 2786 2293 
Q 2538 2584 2113 2584 
z
M 3366 4563 
L 3366 3988 
Q 3128 4100 2886 4159 
Q 2644 4219 2406 4219 
Q 1781 4219 1451 3797 
Q 1122 3375 1075 2522 
Q 1259 2794 1537 2939 
Q 1816 3084 2150 3084 
Q 2853 3084 3261 2657 
Q 3669 2231 3669 1497 
Q 3669 778 3244 343 
Q 2819 -91 2113 -91 
Q 1303 -91 875 529 
Q 447 1150 447 2328 
Q 447 3434 972 4092 
Q 1497 4750 2381 4750 
Q 2619 4750 2861 4703 
Q 3103 4656 3366 4563 
z
" transform="scale(0.015625)"/>
       </defs>
       <use xlink:href="#DejaVuSans-13"/>
       <use xlink:href="#DejaVuSans-11" transform="translate(63.625 0)"/>
       <use xlink:href="#DejaVuSans-19" transform="translate(95.40625 0)"/>
      </g>
     </g>
    </g>
    <g id="xtick_5">
     <g id="line2d_5">
      <g>
       <use xlink:href="#m40051a555f" x="280.736896" y="173.877656" style="stroke: #000000; stroke-width: 0.8"/>
      </g>
     </g>
     <g id="text_5">
      <!-- 0.8 -->
      <g transform="translate(272.785334 188.475313) scale(0.1 -0.1)">
       <defs>
        <path id="DejaVuSans-1b" d="M 2034 2216 
Q 1584 2216 1326 1975 
Q 1069 1734 1069 1313 
Q 1069 891 1326 650 
Q 1584 409 2034 409 
Q 2484 409 2743 651 
Q 3003 894 3003 1313 
Q 3003 1734 2745 1975 
Q 2488 2216 2034 2216 
z
M 1403 2484 
Q 997 2584 770 2862 
Q 544 3141 544 3541 
Q 544 4100 942 4425 
Q 1341 4750 2034 4750 
Q 2731 4750 3128 4425 
Q 3525 4100 3525 3541 
Q 3525 3141 3298 2862 
Q 3072 2584 2669 2484 
Q 3125 2378 3379 2068 
Q 3634 1759 3634 1313 
Q 3634 634 3220 271 
Q 2806 -91 2034 -91 
Q 1263 -91 848 271 
Q 434 634 434 1313 
Q 434 1759 690 2068 
Q 947 2378 1403 2484 
z
M 1172 3481 
Q 1172 3119 1398 2916 
Q 1625 2713 2034 2713 
Q 2441 2713 2670 2916 
Q 2900 3119 2900 3481 
Q 2900 3844 2670 4047 
Q 2441 4250 2034 4250 
Q 1625 4250 1398 4047 
Q 1172 3844 1172 3481 
z
" transform="scale(0.015625)"/>
       </defs>
       <use xlink:href="#DejaVuSans-13"/>
       <use xlink:href="#DejaVuSans-11" transform="translate(63.625 0)"/>
       <use xlink:href="#DejaVuSans-1b" transform="translate(95.40625 0)"/>
      </g>
     </g>
    </g>
    <g id="xtick_6">
     <g id="line2d_6">
      <g>
       <use xlink:href="#m40051a555f" x="335.507379" y="173.877656" style="stroke: #000000; stroke-width: 0.8"/>
      </g>
     </g>
     <g id="text_6">
      <!-- 1.0 -->
      <g transform="translate(327.555817 188.475313) scale(0.1 -0.1)">
       <defs>
        <path id="DejaVuSans-14" d="M 794 531 
L 1825 531 
L 1825 4091 
L 703 3866 
L 703 4441 
L 1819 4666 
L 2450 4666 
L 2450 531 
L 3481 531 
L 3481 0 
L 794 0 
L 794 531 
z
" transform="scale(0.015625)"/>
       </defs>
       <use xlink:href="#DejaVuSans-14"/>
       <use xlink:href="#DejaVuSans-11" transform="translate(63.625 0)"/>
       <use xlink:href="#DejaVuSans-13" transform="translate(95.40625 0)"/>
      </g>
     </g>
    </g>
    <g id="text_7">
     <!-- Time (sec) -->
     <g transform="translate(172.424141 202.476094) scale(0.1 -0.1)">
      <defs>
       <path id="DejaVuSans-37" d="M -19 4666 
L 3928 4666 
L 3928 4134 
L 2272 4134 
L 2272 0 
L 1638 0 
L 1638 4134 
L -19 4134 
L -19 4666 
z
" transform="scale(0.015625)"/>
       <path id="DejaVuSans-4c" d="M 603 3500 
L 1178 3500 
L 1178 0 
L 603 0 
L 603 3500 
z
M 603 4863 
L 1178 4863 
L 1178 4134 
L 603 4134 
L 603 4863 
z
" transform="scale(0.015625)"/>
       <path id="DejaVuSans-50" d="M 3328 2828 
Q 3544 3216 3844 3400 
Q 4144 3584 4550 3584 
Q 5097 3584 5394 3201 
Q 5691 2819 5691 2113 
L 5691 0 
L 5113 0 
L 5113 2094 
Q 5113 2597 4934 2840 
Q 4756 3084 4391 3084 
Q 3944 3084 3684 2787 
Q 3425 2491 3425 1978 
L 3425 0 
L 2847 0 
L 2847 2094 
Q 2847 2600 2669 2842 
Q 2491 3084 2119 3084 
Q 1678 3084 1418 2786 
Q 1159 2488 1159 1978 
L 1159 0 
L 581 0 
L 581 3500 
L 1159 3500 
L 1159 2956 
Q 1356 3278 1631 3431 
Q 1906 3584 2284 3584 
Q 2666 3584 2933 3390 
Q 3200 3197 3328 2828 
z
" transform="scale(0.015625)"/>
       <path id="DejaVuSans-48" d="M 3597 1894 
L 3597 1613 
L 953 1613 
Q 991 1019 1311 708 
Q 1631 397 2203 397 
Q 2534 397 2845 478 
Q 3156 559 3463 722 
L 3463 178 
Q 3153 47 2828 -22 
Q 2503 -91 2169 -91 
Q 1331 -91 842 396 
Q 353 884 353 1716 
Q 353 2575 817 3079 
Q 1281 3584 2069 3584 
Q 2775 3584 3186 3129 
Q 3597 2675 3597 1894 
z
M 3022 2063 
Q 3016 2534 2758 2815 
Q 2500 3097 2075 3097 
Q 1594 3097 1305 2825 
Q 1016 2553 972 2059 
L 3022 2063 
z
" transform="scale(0.015625)"/>
       <path id="DejaVuSans-3" transform="scale(0.015625)"/>
       <path id="DejaVuSans-b" d="M 1984 4856 
Q 1566 4138 1362 3434 
Q 1159 2731 1159 2009 
Q 1159 1288 1364 580 
Q 1569 -128 1984 -844 
L 1484 -844 
Q 1016 -109 783 600 
Q 550 1309 550 2009 
Q 550 2706 781 3412 
Q 1013 4119 1484 4856 
L 1984 4856 
z
" transform="scale(0.015625)"/>
       <path id="DejaVuSans-56" d="M 2834 3397 
L 2834 2853 
Q 2591 2978 2328 3040 
Q 2066 3103 1784 3103 
Q 1356 3103 1142 2972 
Q 928 2841 928 2578 
Q 928 2378 1081 2264 
Q 1234 2150 1697 2047 
L 1894 2003 
Q 2506 1872 2764 1633 
Q 3022 1394 3022 966 
Q 3022 478 2636 193 
Q 2250 -91 1575 -91 
Q 1294 -91 989 -36 
Q 684 19 347 128 
L 347 722 
Q 666 556 975 473 
Q 1284 391 1588 391 
Q 1994 391 2212 530 
Q 2431 669 2431 922 
Q 2431 1156 2273 1281 
Q 2116 1406 1581 1522 
L 1381 1569 
Q 847 1681 609 1914 
Q 372 2147 372 2553 
Q 372 3047 722 3315 
Q 1072 3584 1716 3584 
Q 2034 3584 2315 3537 
Q 2597 3491 2834 3397 
z
" transform="scale(0.015625)"/>
       <path id="DejaVuSans-46" d="M 3122 3366 
L 3122 2828 
Q 2878 2963 2633 3030 
Q 2388 3097 2138 3097 
Q 1578 3097 1268 2742 
Q 959 2388 959 1747 
Q 959 1106 1268 751 
Q 1578 397 2138 397 
Q 2388 397 2633 464 
Q 2878 531 3122 666 
L 3122 134 
Q 2881 22 2623 -34 
Q 2366 -91 2075 -91 
Q 1284 -91 818 406 
Q 353 903 353 1747 
Q 353 2603 823 3093 
Q 1294 3584 2113 3584 
Q 2378 3584 2631 3529 
Q 2884 3475 3122 3366 
z
" transform="scale(0.015625)"/>
       <path id="DejaVuSans-c" d="M 513 4856 
L 1013 4856 
Q 1481 4119 1714 3412 
Q 1947 2706 1947 2009 
Q 1947 1309 1714 600 
Q 1481 -109 1013 -844 
L 513 -844 
Q 928 -128 1133 580 
Q 1338 1288 1338 2009 
Q 1338 2731 1133 3434 
Q 928 4138 513 4856 
z
" transform="scale(0.015625)"/>
      </defs>
      <use xlink:href="#DejaVuSans-37"/>
      <use xlink:href="#DejaVuSans-4c" transform="translate(58 0)"/>
      <use xlink:href="#DejaVuSans-50" transform="translate(85.78125 0)"/>
      <use xlink:href="#DejaVuSans-48" transform="translate(183.1875 0)"/>
      <use xlink:href="#DejaVuSans-3" transform="translate(244.71875 0)"/>
      <use xlink:href="#DejaVuSans-b" transform="translate(276.5 0)"/>
      <use xlink:href="#DejaVuSans-56" transform="translate(315.515625 0)"/>
      <use xlink:href="#DejaVuSans-48" transform="translate(367.609375 0)"/>
      <use xlink:href="#DejaVuSans-46" transform="translate(429.140625 0)"/>
      <use xlink:href="#DejaVuSans-c" transform="translate(484.125 0)"/>
     </g>
    </g>
   </g>
   <g id="matplotlib.axis_2">
    <g id="ytick_1">
     <g id="line2d_7">
      <defs>
       <path id="m899945b26c" d="M 0 0 
L -3.5 0 
" style="stroke: #000000; stroke-width: 0.8"/>
      </defs>
      <g>
       <use xlink:href="#m899945b26c" x="47.962344" y="159.397763" style="stroke: #000000; stroke-width: 0.8"/>
      </g>
     </g>
     <g id="text_8">
      <!-- 0.0 -->
      <g transform="translate(25.059219 163.196591) scale(0.1 -0.1)">
       <use xlink:href="#DejaVuSans-13"/>
       <use xlink:href="#DejaVuSans-11" transform="translate(63.625 0)"/>
       <use xlink:href="#DejaVuSans-13" transform="translate(95.40625 0)"/>
      </g>
     </g>
    </g>
    <g id="ytick_2">
     <g id="line2d_8">
      <g>
       <use xlink:href="#m899945b26c" x="47.962344" y="130.437976" style="stroke: #000000; stroke-width: 0.8"/>
      </g>
     </g>
     <g id="text_9">
      <!-- 0.2 -->
      <g transform="translate(25.059219 134.236804) scale(0.1 -0.1)">
       <use xlink:href="#DejaVuSans-13"/>
       <use xlink:href="#DejaVuSans-11" transform="translate(63.625 0)"/>
       <use xlink:href="#DejaVuSans-15" transform="translate(95.40625 0)"/>
      </g>
     </g>
    </g>
    <g id="ytick_3">
     <g id="line2d_9">
      <g>
       <use xlink:href="#m899945b26c" x="47.962344" y="101.478189" style="stroke: #000000; stroke-width: 0.8"/>
      </g>
     </g>
     <g id="text_10">
      <!-- 0.4 -->
      <g transform="translate(25.059219 105.277017) scale(0.1 -0.1)">
       <use xlink:href="#DejaVuSans-13"/>
       <use xlink:href="#DejaVuSans-11" transform="translate(63.625 0)"/>
       <use xlink:href="#DejaVuSans-17" transform="translate(95.40625 0)"/>
      </g>
     </g>
    </g>
    <g id="ytick_4">
     <g id="line2d_10">
      <g>
       <use xlink:href="#m899945b26c" x="47.962344" y="72.518402" style="stroke: #000000; stroke-width: 0.8"/>
      </g>
     </g>
     <g id="text_11">
      <!-- 0.6 -->
      <g transform="translate(25.059219 76.31723) scale(0.1 -0.1)">
       <use xlink:href="#DejaVuSans-13"/>
       <use xlink:href="#DejaVuSans-11" transform="translate(63.625 0)"/>
       <use xlink:href="#DejaVuSans-19" transform="translate(95.40625 0)"/>
      </g>
     </g>
    </g>
    <g id="ytick_5">
     <g id="line2d_11">
      <g>
       <use xlink:href="#m899945b26c" x="47.962344" y="43.558615" style="stroke: #000000; stroke-width: 0.8"/>
      </g>
     </g>
     <g id="text_12">
      <!-- 0.8 -->
      <g transform="translate(25.059219 47.357443) scale(0.1 -0.1)">
       <use xlink:href="#DejaVuSans-13"/>
       <use xlink:href="#DejaVuSans-11" transform="translate(63.625 0)"/>
       <use xlink:href="#DejaVuSans-1b" transform="translate(95.40625 0)"/>
      </g>
     </g>
    </g>
    <g id="ytick_6">
     <g id="line2d_12">
      <g>
       <use xlink:href="#m899945b26c" x="47.962344" y="14.598828" style="stroke: #000000; stroke-width: 0.8"/>
      </g>
     </g>
     <g id="text_13">
      <!-- 1.0 -->
      <g transform="translate(25.059219 18.397656) scale(0.1 -0.1)">
       <use xlink:href="#DejaVuSans-14"/>
       <use xlink:href="#DejaVuSans-11" transform="translate(63.625 0)"/>
       <use xlink:href="#DejaVuSans-13" transform="translate(95.40625 0)"/>
      </g>
     </g>
    </g>
    <g id="text_14">
     <!-- Injected Signal -->
     <g transform="translate(18.656875 131.256211) rotate(-90) scale(0.1 -0.1)">
      <defs>
       <path id="DejaVuSans-2c" d="M 628 4666 
L 1259 4666 
L 1259 0 
L 628 0 
L 628 4666 
z
" transform="scale(0.015625)"/>
       <path id="DejaVuSans-51" d="M 3513 2113 
L 3513 0 
L 2938 0 
L 2938 2094 
Q 2938 2591 2744 2837 
Q 2550 3084 2163 3084 
Q 1697 3084 1428 2787 
Q 1159 2491 1159 1978 
L 1159 0 
L 581 0 
L 581 3500 
L 1159 3500 
L 1159 2956 
Q 1366 3272 1645 3428 
Q 1925 3584 2291 3584 
Q 2894 3584 3203 3211 
Q 3513 2838 3513 2113 
z
" transform="scale(0.015625)"/>
       <path id="DejaVuSans-4d" d="M 603 3500 
L 1178 3500 
L 1178 -63 
Q 1178 -731 923 -1031 
Q 669 -1331 103 -1331 
L -116 -1331 
L -116 -844 
L 38 -844 
Q 366 -844 484 -692 
Q 603 -541 603 -63 
L 603 3500 
z
M 603 4863 
L 1178 4863 
L 1178 4134 
L 603 4134 
L 603 4863 
z
" transform="scale(0.015625)"/>
       <path id="DejaVuSans-57" d="M 1172 4494 
L 1172 3500 
L 2356 3500 
L 2356 3053 
L 1172 3053 
L 1172 1153 
Q 1172 725 1289 603 
Q 1406 481 1766 481 
L 2356 481 
L 2356 0 
L 1766 0 
Q 1100 0 847 248 
Q 594 497 594 1153 
L 594 3053 
L 172 3053 
L 172 3500 
L 594 3500 
L 594 4494 
L 1172 4494 
z
" transform="scale(0.015625)"/>
       <path id="DejaVuSans-47" d="M 2906 2969 
L 2906 4863 
L 3481 4863 
L 3481 0 
L 2906 0 
L 2906 525 
Q 2725 213 2448 61 
Q 2172 -91 1784 -91 
Q 1150 -91 751 415 
Q 353 922 353 1747 
Q 353 2572 751 3078 
Q 1150 3584 1784 3584 
Q 2172 3584 2448 3432 
Q 2725 3281 2906 2969 
z
M 947 1747 
Q 947 1113 1208 752 
Q 1469 391 1925 391 
Q 2381 391 2643 752 
Q 2906 1113 2906 1747 
Q 2906 2381 2643 2742 
Q 2381 3103 1925 3103 
Q 1469 3103 1208 2742 
Q 947 2381 947 1747 
z
" transform="scale(0.015625)"/>
       <path id="DejaVuSans-36" d="M 3425 4513 
L 3425 3897 
Q 3066 4069 2747 4153 
Q 2428 4238 2131 4238 
Q 1616 4238 1336 4038 
Q 1056 3838 1056 3469 
Q 1056 3159 1242 3001 
Q 1428 2844 1947 2747 
L 2328 2669 
Q 3034 2534 3370 2195 
Q 3706 1856 3706 1288 
Q 3706 609 3251 259 
Q 2797 -91 1919 -91 
Q 1588 -91 1214 -16 
Q 841 59 441 206 
L 441 856 
Q 825 641 1194 531 
Q 1563 422 1919 422 
Q 2459 422 2753 634 
Q 3047 847 3047 1241 
Q 3047 1584 2836 1778 
Q 2625 1972 2144 2069 
L 1759 2144 
Q 1053 2284 737 2584 
Q 422 2884 422 3419 
Q 422 4038 858 4394 
Q 1294 4750 2059 4750 
Q 2388 4750 2728 4690 
Q 3069 4631 3425 4513 
z
" transform="scale(0.015625)"/>
       <path id="DejaVuSans-4a" d="M 2906 1791 
Q 2906 2416 2648 2759 
Q 2391 3103 1925 3103 
Q 1463 3103 1205 2759 
Q 947 2416 947 1791 
Q 947 1169 1205 825 
Q 1463 481 1925 481 
Q 2391 481 2648 825 
Q 2906 1169 2906 1791 
z
M 3481 434 
Q 3481 -459 3084 -895 
Q 2688 -1331 1869 -1331 
Q 1566 -1331 1297 -1286 
Q 1028 -1241 775 -1147 
L 775 -588 
Q 1028 -725 1275 -790 
Q 1522 -856 1778 -856 
Q 2344 -856 2625 -561 
Q 2906 -266 2906 331 
L 2906 616 
Q 2728 306 2450 153 
Q 2172 0 1784 0 
Q 1141 0 747 490 
Q 353 981 353 1791 
Q 353 2603 747 3093 
Q 1141 3584 1784 3584 
Q 2172 3584 2450 3431 
Q 2728 3278 2906 2969 
L 2906 3500 
L 3481 3500 
L 3481 434 
z
" transform="scale(0.015625)"/>
       <path id="DejaVuSans-44" d="M 2194 1759 
Q 1497 1759 1228 1600 
Q 959 1441 959 1056 
Q 959 750 1161 570 
Q 1363 391 1709 391 
Q 2188 391 2477 730 
Q 2766 1069 2766 1631 
L 2766 1759 
L 2194 1759 
z
M 3341 1997 
L 3341 0 
L 2766 0 
L 2766 531 
Q 2569 213 2275 61 
Q 1981 -91 1556 -91 
Q 1019 -91 701 211 
Q 384 513 384 1019 
Q 384 1609 779 1909 
Q 1175 2209 1959 2209 
L 2766 2209 
L 2766 2266 
Q 2766 2663 2505 2880 
Q 2244 3097 1772 3097 
Q 1472 3097 1187 3025 
Q 903 2953 641 2809 
L 641 3341 
Q 956 3463 1253 3523 
Q 1550 3584 1831 3584 
Q 2591 3584 2966 3190 
Q 3341 2797 3341 1997 
z
" transform="scale(0.015625)"/>
       <path id="DejaVuSans-4f" d="M 603 4863 
L 1178 4863 
L 1178 0 
L 603 0 
L 603 4863 
z
" transform="scale(0.015625)"/>
      </defs>
      <use xlink:href="#DejaVuSans-2c"/>
      <use xlink:href="#DejaVuSans-51" transform="translate(29.5 0)"/>
      <use xlink:href="#DejaVuSans-4d" transform="translate(92.875 0)"/>
      <use xlink:href="#DejaVuSans-48" transform="translate(120.65625 0)"/>
      <use xlink:href="#DejaVuSans-46" transform="translate(182.1875 0)"/>
      <use xlink:href="#DejaVuSans-57" transform="translate(237.171875 0)"/>
      <use xlink:href="#DejaVuSans-48" transform="translate(276.375 0)"/>
      <use xlink:href="#DejaVuSans-47" transform="translate(337.90625 0)"/>
      <use xlink:href="#DejaVuSans-3" transform="translate(401.390625 0)"/>
      <use xlink:href="#DejaVuSans-36" transform="translate(433.171875 0)"/>
      <use xlink:href="#DejaVuSans-4c" transform="translate(496.65625 0)"/>
      <use xlink:href="#DejaVuSans-4a" transform="translate(524.4375 0)"/>
      <use xlink:href="#DejaVuSans-51" transform="translate(587.921875 0)"/>
      <use xlink:href="#DejaVuSans-44" transform="translate(651.296875 0)"/>
      <use xlink:href="#DejaVuSans-4f" transform="translate(712.578125 0)"/>
     </g>
    </g>
   </g>
   <g id="line2d_13">
    <path d="M 61.654964 69.218861 
L 61.928817 110.505052 
L 62.202669 117.159881 
L 62.476522 57.669002 
L 62.750374 125.873438 
L 63.024227 112.579199 
L 63.298079 74.170887 
L 63.571931 81.916939 
L 63.845784 112.446347 
L 64.119636 66.526987 
L 64.393489 111.11249 
L 64.667341 107.663826 
L 64.941193 110.434594 
L 65.215046 72.397923 
L 65.488898 75.444852 
L 65.762751 61.816087 
L 66.036603 108.222931 
L 66.310456 60.584079 
L 67.132013 121.919028 
L 67.405865 53.006969 
L 67.679718 59.542673 
L 67.95357 109.291017 
L 68.227422 62.653003 
L 68.501275 114.751893 
L 68.775127 66.919937 
L 69.04898 91.476945 
L 69.322832 99.377388 
L 69.596685 80.680547 
L 69.870537 115.725969 
L 70.144389 45.107814 
L 70.418242 108.036547 
L 70.692094 85.363917 
L 70.965947 121.455436 
L 71.239799 58.208766 
L 71.513651 74.999482 
L 71.787504 101.140895 
L 72.061356 110.421416 
L 72.335209 82.342392 
L 72.609061 94.721873 
L 72.882913 99.159171 
L 73.430618 56.456148 
L 73.704471 80.188644 
L 73.978323 71.45 
L 74.252176 58.622584 
L 74.526028 58.793975 
L 74.79988 45.555973 
L 75.073733 49.301161 
L 75.347585 51.254321 
L 75.621438 75.798856 
L 76.169142 105.873498 
L 76.442995 124.066894 
L 76.716847 49.294319 
L 77.264552 76.544229 
L 77.538405 43.992235 
L 77.812257 49.990314 
L 78.086109 92.524724 
L 78.359962 49.204604 
L 78.633814 49.625034 
L 78.907667 119.678089 
L 79.181519 68.807122 
L 79.455371 112.604841 
L 79.729224 58.777496 
L 80.003076 47.2681 
L 80.276929 51.157501 
L 80.550781 88.562138 
L 80.824634 84.172926 
L 81.098486 125.337683 
L 81.372338 92.244634 
L 81.646191 116.382582 
L 81.920043 85.792699 
L 82.193896 126.70657 
L 82.467748 107.609357 
L 82.7416 117.336731 
L 83.015453 48.861664 
L 83.289305 122.37698 
L 83.563158 65.638863 
L 83.83701 47.966007 
L 84.110862 61.130147 
L 84.384715 108.901654 
L 84.658567 48.97443 
L 84.93242 81.665968 
L 85.206272 54.281663 
L 85.480125 49.276013 
L 85.753977 125.115082 
L 86.301682 127.52766 
L 86.575534 87.778304 
L 86.849387 115.292544 
L 87.123239 121.53261 
L 87.397091 71.746616 
L 87.670944 48.196789 
L 87.944796 104.300246 
L 88.218649 105.742994 
L 88.492501 104.541613 
L 88.766354 127.445149 
L 89.587911 49.359011 
L 89.861763 109.868194 
L 90.135616 48.215102 
L 90.409468 71.804949 
L 90.68332 73.892977 
L 90.957173 61.525034 
L 91.231025 56.298035 
L 91.504878 56.140936 
L 92.052583 117.483312 
L 92.326435 96.128142 
L 92.600287 101.885792 
L 92.87414 122.406645 
L 93.147992 66.394882 
L 93.421845 74.569039 
L 93.695697 103.812804 
L 93.969549 98.921774 
L 94.243402 90.725323 
L 94.517254 68.053532 
L 94.791107 89.085164 
L 95.064959 55.24059 
L 95.338812 82.3827 
L 95.612664 72.375511 
L 95.886516 122.366351 
L 96.160369 86.473175 
L 96.434221 77.404741 
L 96.708074 129.917812 
L 96.981926 85.747307 
L 97.255778 73.058331 
L 97.529631 67.309677 
L 97.803483 124.660863 
L 98.077336 88.388049 
L 98.351188 87.636879 
L 98.62504 84.101292 
L 98.898893 65.151631 
L 99.172745 95.997164 
L 99.446598 84.115996 
L 99.72045 122.74493 
L 99.994303 64.227917 
L 100.268155 114.059712 
L 100.542007 91.452358 
L 100.81586 107.282234 
L 101.089712 46.827036 
L 101.363565 121.263924 
L 101.637417 68.673154 
L 101.911269 88.487985 
L 102.185122 62.693694 
L 102.458974 71.343929 
L 102.732827 117.269602 
L 103.006679 114.97713 
L 103.280532 55.452199 
L 103.554384 71.246388 
L 103.828236 59.969068 
L 104.102089 104.814582 
L 104.375941 66.963277 
L 104.649794 88.648934 
L 104.923646 44.689213 
L 105.197498 123.558563 
L 105.471351 112.58386 
L 105.745203 72.658969 
L 106.019056 127.19901 
L 106.292908 94.803985 
L 106.566761 107.115019 
L 106.840613 106.370033 
L 107.114465 83.729158 
L 107.388318 121.133435 
L 107.66217 122.964797 
L 107.936023 71.211743 
L 108.209875 112.280638 
L 108.483727 114.959987 
L 108.75758 64.815881 
L 109.031432 64.97156 
L 109.305285 102.949408 
L 109.579137 107.337199 
L 109.852989 49.679908 
L 110.126842 45.686623 
L 110.400694 46.976941 
L 110.674547 107.67886 
L 110.948399 70.963914 
L 111.222252 61.016924 
L 111.496104 58.944795 
L 111.769956 104.26618 
L 112.043809 94.045205 
L 112.317661 104.84116 
L 112.591514 128.048334 
L 112.865366 73.43385 
L 113.139218 94.949565 
L 113.413071 85.758404 
L 113.686923 108.196217 
L 114.234628 59.31089 
L 114.508481 118.954771 
L 114.782333 92.549206 
L 115.056185 52.273572 
L 115.330038 68.631715 
L 115.60389 115.802603 
L 115.877743 59.988664 
L 116.151595 97.883981 
L 116.6993 126.77082 
L 116.973152 58.155989 
L 117.247005 99.369494 
L 117.520857 56.27281 
L 117.79471 68.881428 
L 118.068562 100.616116 
L 118.616267 59.870095 
L 118.890119 78.207333 
L 119.163972 61.351703 
L 119.437824 56.734085 
L 119.711676 102.789886 
L 119.985529 84.265432 
L 120.259381 51.405525 
L 120.533234 119.534221 
L 120.807086 73.822045 
L 121.080938 126.221575 
L 121.354791 82.785835 
L 121.628643 119.39606 
L 121.902496 106.955611 
L 122.176348 71.060872 
L 122.450201 90.187293 
L 122.724053 80.590187 
L 122.997905 107.79716 
L 123.271758 109.703596 
L 123.54561 128.459376 
L 123.819463 62.276398 
L 124.093315 99.750504 
L 124.367167 61.760383 
L 124.64102 113.315581 
L 124.914872 103.855139 
L 125.188725 113.772508 
L 125.462577 98.162863 
L 125.73643 97.059799 
L 126.010282 45.857695 
L 126.284134 114.3268 
L 126.557987 65.902721 
L 126.831839 64.107869 
L 127.379544 68.145309 
L 127.653396 51.569185 
L 127.927249 52.816047 
L 128.201101 125.672783 
L 128.474954 102.665136 
L 128.748806 52.500982 
L 129.022659 125.745604 
L 129.296511 119.958413 
L 129.844216 61.722721 
L 130.118068 108.949769 
L 130.391921 89.852774 
L 130.939625 123.944558 
L 131.213478 100.291805 
L 131.48733 98.934226 
L 131.761183 93.943289 
L 132.035035 99.884119 
L 132.308887 109.224755 
L 132.58274 82.516016 
L 132.856592 71.325304 
L 133.130445 45.200654 
L 133.404297 63.977938 
L 133.67815 66.651698 
L 133.952002 82.802941 
L 134.225854 119.674935 
L 134.499707 67.744006 
L 134.773559 112.850737 
L 135.047412 114.746621 
L 135.321264 86.245312 
L 135.595116 103.809424 
L 135.868969 87.916245 
L 136.416674 125.063442 
L 136.690526 76.807746 
L 136.964379 112.734665 
L 137.238231 106.961086 
L 137.512083 50.548922 
L 138.059788 72.769761 
L 138.333641 74.543831 
L 138.607493 63.613778 
L 138.881345 110.426358 
L 139.155198 70.415302 
L 139.42905 115.324528 
L 139.702903 121.229879 
L 140.52446 64.690216 
L 140.798312 128.138877 
L 141.072165 67.721492 
L 141.346017 61.612186 
L 141.61987 117.446598 
L 141.893722 70.649531 
L 142.167574 127.004662 
L 142.441427 66.898536 
L 142.715279 73.640214 
L 142.989132 111.281481 
L 143.536837 127.124138 
L 143.810689 84.170289 
L 144.084541 81.497835 
L 144.358394 87.589306 
L 144.632246 81.335651 
L 144.906099 93.351244 
L 145.179951 126.671471 
L 145.453803 83.623393 
L 145.727656 109.565378 
L 146.001508 113.879653 
L 146.275361 101.386212 
L 146.549213 74.44051 
L 146.823065 115.149005 
L 147.096918 44.929351 
L 147.37077 85.179297 
L 147.644623 102.393847 
L 147.918475 55.005845 
L 148.192328 96.790768 
L 148.46618 101.19331 
L 148.740032 82.074676 
L 149.013885 106.90082 
L 149.287737 112.58682 
L 149.56159 111.555035 
L 149.835442 119.6819 
L 150.109294 56.289081 
L 150.383147 123.022392 
L 150.656999 72.297369 
L 150.930852 64.602177 
L 151.204704 49.35484 
L 151.478557 63.158967 
L 151.752409 121.42301 
L 152.026261 50.145195 
L 152.300114 92.832863 
L 152.573966 83.083631 
L 152.847819 109.638838 
L 153.121671 77.731546 
L 153.395523 83.692216 
L 153.669376 110.831966 
L 153.943228 68.342979 
L 154.217081 109.653764 
L 154.490933 85.84242 
L 155.038638 123.141651 
L 155.31249 125.139587 
L 155.586343 96.960767 
L 155.860195 123.899436 
L 156.134048 125.859496 
L 156.4079 110.521977 
L 156.681752 106.244317 
L 156.955605 46.262889 
L 157.229457 98.335753 
L 157.50331 73.164532 
L 157.777162 125.868663 
L 158.051014 64.083084 
L 158.324867 107.790914 
L 158.598719 48.892733 
L 158.872572 56.505068 
L 159.146424 107.221005 
L 159.420277 114.20418 
L 159.694129 72.59173 
L 160.241834 55.391799 
L 160.515686 111.085039 
L 160.789539 96.599914 
L 161.337243 49.019949 
L 161.611096 77.064076 
L 161.884948 57.347731 
L 162.158801 61.50388 
L 162.432653 116.487913 
L 162.706506 124.396283 
L 162.980358 73.556586 
L 163.528063 106.40145 
L 163.801915 106.764998 
L 164.075768 124.743077 
L 164.34962 124.546364 
L 164.623472 52.925841 
L 164.897325 129.393289 
L 165.44503 48.916676 
L 165.718882 107.060422 
L 165.992735 69.928295 
L 166.266587 58.570665 
L 166.540439 108.028144 
L 166.814292 116.403125 
L 167.088144 107.174089 
L 167.361997 67.157074 
L 167.635849 68.953841 
L 167.909701 126.419159 
L 168.183554 117.231345 
L 168.457406 63.841729 
L 168.731259 63.654671 
L 169.005111 75.832223 
L 169.278963 122.791396 
L 169.552816 121.254802 
L 169.826668 54.505983 
L 170.100521 114.224817 
L 170.374373 65.305533 
L 170.922078 120.789509 
L 171.19593 63.269107 
L 171.469783 109.03521 
L 171.743635 69.795195 
L 172.29134 114.470221 
L 172.565192 58.439679 
L 172.839045 102.813314 
L 173.112897 121.915389 
L 173.38675 45.908202 
L 173.660602 102.980791 
L 173.934455 48.767106 
L 174.208307 83.089411 
L 174.482159 69.665486 
L 174.756012 116.638369 
L 175.029864 56.219837 
L 175.303717 46.793744 
L 175.851421 125.278819 
L 176.125274 50.286163 
L 176.399126 109.98561 
L 176.672979 100.972585 
L 176.946831 129.722898 
L 177.220684 116.43105 
L 177.768388 56.090273 
L 178.042241 49.28448 
L 178.316093 47.496381 
L 178.589946 44.109728 
L 178.863798 127.525393 
L 179.13765 88.864508 
L 179.411503 98.229549 
L 179.685355 102.985771 
L 179.959208 130.04377 
L 180.23306 114.814719 
L 180.506912 72.544167 
L 180.780765 53.231879 
L 181.054617 60.235354 
L 181.32847 104.597277 
L 181.602322 46.725632 
L 181.876175 56.603053 
L 182.150027 99.899037 
L 182.423879 58.170019 
L 182.971584 79.37929 
L 183.245437 103.134991 
L 183.519289 62.358706 
L 183.793141 126.00104 
L 184.066994 81.653154 
L 184.340846 126.817835 
L 184.614699 91.315052 
L 184.888551 112.288486 
L 185.162404 111.410471 
L 185.436256 121.26052 
L 185.710108 108.572084 
L 185.983961 45.364588 
L 186.257813 99.959218 
L 186.531666 52.370056 
L 186.805518 108.657213 
L 187.07937 119.614168 
L 187.353223 98.781245 
L 187.627075 114.265165 
L 187.900928 88.763541 
L 188.17478 95.174162 
L 188.448633 129.60715 
L 188.722485 69.464002 
L 188.996337 63.713153 
L 189.27019 96.083557 
L 189.544042 67.27249 
L 189.817895 120.05941 
L 190.091747 95.390673 
L 190.365599 93.438347 
L 190.639452 127.988245 
L 190.913304 74.186057 
L 191.187157 81.314802 
L 191.461009 77.451906 
L 191.734862 69.540875 
L 192.008714 123.163034 
L 192.282566 62.410982 
L 192.556419 55.095705 
L 192.830271 77.226186 
L 193.104124 63.030661 
L 193.377976 109.178335 
L 193.651828 56.308391 
L 194.199533 115.320169 
L 194.473386 92.379121 
L 194.747238 107.336447 
L 195.02109 110.767189 
L 195.294943 88.339663 
L 195.568795 126.148578 
L 195.842648 127.799284 
L 196.390353 53.047773 
L 196.664205 129.823873 
L 196.938057 49.941622 
L 197.21191 45.685438 
L 197.485762 45.116293 
L 197.759615 66.63065 
L 198.033467 73.904391 
L 198.307319 96.627392 
L 198.581172 99.667706 
L 198.855024 79.972631 
L 199.128877 51.370781 
L 199.402729 107.907873 
L 199.676582 58.57612 
L 199.950434 76.026229 
L 200.224286 74.074109 
L 200.498139 115.359373 
L 200.771991 90.834107 
L 201.045844 122.797662 
L 201.319696 121.095437 
L 201.593548 75.635745 
L 201.867401 73.104192 
L 202.141253 109.498635 
L 202.415106 68.317267 
L 202.688958 45.865095 
L 202.962811 89.887839 
L 203.236663 87.692488 
L 203.510515 123.140125 
L 203.784368 108.917075 
L 204.05822 63.089074 
L 204.332073 107.377866 
L 204.605925 124.782393 
L 204.879777 104.558419 
L 205.15363 104.513604 
L 205.427482 108.469827 
L 205.701335 106.505246 
L 205.975187 109.262871 
L 206.249039 78.957355 
L 206.522892 110.509376 
L 206.796744 117.230142 
L 207.070597 61.650149 
L 207.344449 47.856343 
L 207.618302 56.926378 
L 208.166006 104.839001 
L 208.439859 48.944056 
L 208.713711 81.477743 
L 208.987564 83.902695 
L 209.261416 116.470646 
L 209.535268 117.616126 
L 209.809121 113.242068 
L 210.082973 126.817424 
L 210.356826 44.706808 
L 210.630678 72.798311 
L 210.904531 53.907971 
L 211.178383 109.132359 
L 211.452235 93.422615 
L 211.726088 116.401456 
L 211.99994 44.027966 
L 212.547645 130.050882 
L 212.821497 81.403027 
L 213.09535 102.808251 
L 213.369202 95.995216 
L 213.643055 123.963273 
L 213.916907 80.535586 
L 214.19076 84.340357 
L 214.464612 122.566845 
L 214.738464 55.044582 
L 215.012317 126.475237 
L 215.286169 72.408189 
L 215.560022 114.420404 
L 216.107726 50.152495 
L 216.381579 89.739389 
L 216.655431 107.232276 
L 216.929284 101.841603 
L 217.203136 100.211484 
L 217.476988 92.123979 
L 217.750841 127.967368 
L 218.024693 125.302046 
L 218.298546 83.646371 
L 218.572398 108.795204 
L 218.846251 77.602378 
L 219.120103 127.804424 
L 219.393955 78.671258 
L 219.667808 64.494692 
L 220.215513 102.773207 
L 220.763217 46.476098 
L 221.03707 79.859475 
L 221.310922 78.993864 
L 221.584775 122.488912 
L 222.13248 48.209452 
L 222.406332 121.866981 
L 222.680184 91.815748 
L 222.954037 129.5963 
L 223.227889 51.070323 
L 223.501742 84.718442 
L 223.775594 75.753684 
L 224.049446 78.294546 
L 224.323299 78.222104 
L 224.597151 46.173931 
L 224.871004 107.199884 
L 225.144856 96.562192 
L 225.418709 101.292595 
L 225.692561 127.491921 
L 225.966413 63.356532 
L 226.240266 111.408099 
L 226.514118 124.857402 
L 227.061823 70.41115 
L 227.335675 94.259573 
L 227.609528 84.277741 
L 227.88338 93.285974 
L 228.157233 91.728103 
L 228.431085 122.878749 
L 228.704937 85.213619 
L 228.97879 102.044417 
L 229.252642 96.632152 
L 229.800347 50.022915 
L 230.0742 65.138691 
L 230.348052 106.349531 
L 230.621904 96.747856 
L 230.895757 100.833236 
L 231.169609 126.96273 
L 231.443462 122.958699 
L 231.717314 56.190091 
L 231.991166 82.916126 
L 232.538871 46.809475 
L 232.812724 116.097245 
L 233.086576 123.493471 
L 233.360429 112.73558 
L 233.634281 89.353319 
L 233.908133 94.719022 
L 234.455838 119.799123 
L 234.729691 113.347888 
L 235.003543 60.549452 
L 235.277395 102.425034 
L 235.551248 85.821235 
L 235.8251 99.033917 
L 236.098953 51.484758 
L 236.372805 108.869867 
L 236.646658 123.113126 
L 236.92051 91.46141 
L 237.194362 103.472488 
L 237.468215 86.58721 
L 237.742067 77.204887 
L 238.289772 120.957563 
L 238.563624 111.138333 
L 239.111329 51.244669 
L 239.385182 90.347555 
L 239.659034 80.518134 
L 239.932887 123.687251 
L 240.206739 99.707458 
L 240.480591 123.152957 
L 240.754444 70.43949 
L 241.028296 54.471267 
L 241.576001 70.175845 
L 241.849853 123.886321 
L 242.123706 62.696198 
L 242.397558 99.424701 
L 242.671411 64.657381 
L 242.945263 121.950198 
L 243.219115 58.536283 
L 243.492968 114.220775 
L 243.76682 106.799746 
L 244.040673 67.368972 
L 244.314525 115.903734 
L 244.588378 49.043801 
L 244.86223 119.136233 
L 245.136082 60.144678 
L 245.409935 72.492788 
L 245.683787 97.968217 
L 245.95764 73.690301 
L 246.231492 95.256694 
L 246.505344 56.583895 
L 246.779197 67.953127 
L 247.053049 117.593543 
L 247.326902 53.630192 
L 247.600754 76.676259 
L 247.874607 70.766132 
L 248.148459 78.618618 
L 248.422311 45.441295 
L 248.696164 87.79851 
L 249.243869 104.567551 
L 249.517721 82.537445 
L 249.791573 90.585928 
L 250.065426 65.799393 
L 250.339278 111.591437 
L 250.613131 76.137473 
L 250.886983 90.394493 
L 251.160836 124.435393 
L 251.434688 100.171548 
L 251.70854 108.315923 
L 251.982393 126.487763 
L 252.256245 44.277293 
L 252.530098 79.498382 
L 252.80395 93.387997 
L 253.077802 90.219246 
L 253.351655 92.478673 
L 253.625507 100.410903 
L 253.89936 65.640331 
L 254.173212 119.864791 
L 254.447064 94.971975 
L 254.720917 81.531643 
L 254.994769 111.199498 
L 255.268622 122.457587 
L 255.542474 72.998945 
L 255.816327 66.783549 
L 256.090179 66.40474 
L 256.364031 103.313967 
L 256.637884 74.054642 
L 256.911736 107.16934 
L 257.185589 76.769683 
L 257.459441 99.986236 
L 257.733293 97.734893 
L 258.280998 70.13108 
L 258.554851 61.47282 
L 259.102556 128.688241 
L 259.376408 97.134076 
L 259.65026 43.631549 
L 259.924113 65.649673 
L 260.197965 117.061316 
L 260.471818 67.007789 
L 260.74567 81.213072 
L 261.019522 104.278215 
L 261.293375 112.37817 
L 261.567227 79.947569 
L 261.84108 127.67634 
L 262.114932 114.905936 
L 262.388785 112.613998 
L 262.662637 103.23579 
L 262.936489 49.550804 
L 263.210342 122.884622 
L 263.484194 89.397782 
L 263.758047 97.808291 
L 264.031899 46.185548 
L 264.305751 94.603494 
L 264.579604 103.677364 
L 264.853456 87.532982 
L 265.127309 99.48921 
L 265.401161 51.693848 
L 265.675013 65.232252 
L 265.948866 51.713962 
L 266.222718 56.473972 
L 266.496571 104.508495 
L 266.770423 64.328571 
L 267.044276 51.561624 
L 267.318128 59.312083 
L 267.59198 115.613998 
L 267.865833 54.663504 
L 268.139685 60.793985 
L 268.413538 44.441285 
L 268.68739 64.397503 
L 268.961242 46.795252 
L 269.235095 67.910305 
L 269.508947 49.661713 
L 270.330505 111.8763 
L 270.604357 75.408838 
L 270.878209 55.169911 
L 271.152062 111.787845 
L 271.425914 72.25857 
L 271.699767 114.571487 
L 272.247471 71.15186 
L 272.521324 79.592131 
L 272.795176 54.47269 
L 273.069029 44.358497 
L 273.342881 91.007449 
L 273.616734 70.626377 
L 273.890586 114.963466 
L 274.164438 106.777541 
L 274.438291 123.865025 
L 274.712143 69.601874 
L 274.985996 75.445171 
L 275.259848 91.248756 
L 275.5337 125.748272 
L 275.807553 98.780851 
L 276.081405 56.030003 
L 276.355258 45.316397 
L 276.62911 57.220669 
L 276.902963 92.613423 
L 277.176815 71.124249 
L 277.450667 102.263223 
L 277.72452 114.009214 
L 277.998372 63.575225 
L 278.272225 128.180517 
L 278.546077 55.729991 
L 278.819929 110.414386 
L 279.093782 62.119483 
L 279.367634 74.941249 
L 279.641487 105.595636 
L 279.915339 79.131752 
L 280.189191 65.161881 
L 280.463044 78.357845 
L 280.736896 130.33725 
L 281.010749 52.531251 
L 281.284601 114.841522 
L 281.558454 120.087563 
L 281.832306 81.713809 
L 282.380011 125.189791 
L 282.653863 53.393453 
L 282.927716 58.306677 
L 283.201568 99.91156 
L 283.47542 111.879607 
L 283.749273 85.74076 
L 284.296978 57.241448 
L 284.57083 70.539966 
L 284.844683 59.903467 
L 285.118535 115.725714 
L 285.392387 107.080955 
L 285.940092 84.293134 
L 286.213945 44.342911 
L 286.487797 45.221011 
L 287.309354 68.007959 
L 287.583207 127.657748 
L 287.857059 49.575777 
L 288.130912 112.187545 
L 288.404764 58.713507 
L 288.678616 80.94583 
L 288.952469 68.207516 
L 289.226321 107.174103 
L 289.774026 46.742308 
L 290.047878 121.884515 
L 290.595583 96.115299 
L 290.869436 91.541545 
L 291.143288 80.566328 
L 291.41714 78.315163 
L 291.690993 89.203157 
L 291.964845 84.049027 
L 292.238698 57.434205 
L 292.51255 94.66201 
L 292.786403 54.880568 
L 293.060255 116.622026 
L 293.334107 95.025184 
L 293.60796 53.25356 
L 293.881812 59.161985 
L 294.155665 101.184847 
L 294.429517 104.736301 
L 294.703369 87.437363 
L 294.977222 96.714449 
L 295.251074 114.703493 
L 295.524927 49.717038 
L 295.798779 49.036687 
L 296.072632 67.913877 
L 296.346484 66.587415 
L 296.620336 47.646129 
L 296.894189 86.054085 
L 297.168041 62.36662 
L 297.441894 103.059103 
L 297.715746 64.248989 
L 297.989598 66.780293 
L 298.263451 119.346488 
L 298.537303 99.726116 
L 298.811156 112.542 
L 299.085008 99.511426 
L 299.358861 126.865659 
L 299.632713 126.556638 
L 299.906565 123.438301 
L 300.45427 75.469202 
L 300.728123 46.223893 
L 301.001975 94.125391 
L 301.275827 58.020467 
L 301.54968 56.545064 
L 301.823532 70.208119 
L 302.097385 70.770143 
L 302.371237 92.207444 
L 302.645089 80.146771 
L 302.918942 94.701372 
L 303.192794 91.013932 
L 303.466647 72.877563 
L 303.740499 71.319381 
L 304.014352 114.79641 
L 304.288204 77.880807 
L 304.562056 82.451527 
L 304.835909 107.208331 
L 305.109761 72.581613 
L 305.383614 107.993985 
L 305.657466 76.664029 
L 305.931318 59.669896 
L 306.205171 60.545279 
L 306.479023 114.988792 
L 306.752876 123.632205 
L 307.026728 57.215132 
L 307.300581 104.719946 
L 307.574433 128.627366 
L 307.848285 47.646737 
L 308.122138 83.914398 
L 308.39599 53.130093 
L 308.669843 74.038068 
L 308.943695 82.73678 
L 309.217547 43.70891 
L 309.4914 52.659391 
L 309.765252 54.900995 
L 310.039105 71.59088 
L 310.312957 112.818404 
L 310.58681 97.046201 
L 310.860662 100.23872 
L 311.134514 118.100522 
L 311.682219 72.835581 
L 311.956072 115.769368 
L 312.229924 69.777811 
L 312.503776 127.035517 
L 312.777629 73.394754 
L 313.051481 94.423583 
L 313.325334 60.2693 
L 313.599186 107.981794 
L 313.873038 70.805831 
L 314.146891 112.46583 
L 314.420743 123.141661 
L 314.694596 47.082009 
L 315.790005 109.078481 
L 316.063858 78.629681 
L 316.33771 118.890253 
L 316.611563 82.974523 
L 317.159267 116.464344 
L 317.43312 102.022503 
L 317.706972 52.843038 
L 317.980825 117.322077 
L 318.254677 112.121616 
L 318.52853 125.895002 
L 318.802382 80.76388 
L 319.076234 61.18943 
L 319.350087 52.314639 
L 319.623939 94.296274 
L 319.897792 51.04521 
L 320.171644 114.759223 
L 320.445496 86.664562 
L 320.719349 102.639964 
L 320.993201 91.103858 
L 321.267054 105.854719 
L 321.540906 103.759466 
L 321.814759 62.637257 
L 322.088611 80.608085 
L 322.362463 45.009191 
L 322.636316 71.109178 
L 322.910168 80.470911 
L 323.184021 77.073999 
L 323.457873 78.095142 
L 324.005578 121.315267 
L 324.27943 73.592486 
L 324.553283 76.942271 
L 324.827135 66.54194 
L 325.100987 97.37483 
L 325.37484 97.686986 
L 325.648692 98.314573 
L 325.922545 120.47471 
L 326.196397 70.067973 
L 326.47025 129.704672 
L 326.744102 123.682552 
L 327.017954 75.405939 
L 327.291807 126.975006 
L 327.565659 94.437808 
L 327.839512 45.943326 
L 328.113364 44.378034 
L 328.387216 52.237872 
L 328.661069 76.50376 
L 328.934921 84.903912 
L 329.208774 85.001766 
L 329.482626 82.781815 
L 329.756479 45.000121 
L 330.030331 99.659309 
L 330.578036 51.314386 
L 330.851888 116.471611 
L 331.125741 65.763951 
L 331.399593 67.602741 
L 331.673445 79.555539 
L 331.947298 110.21235 
L 332.22115 98.318235 
L 332.495003 95.538095 
L 332.768855 117.449731 
L 333.042708 49.50517 
L 333.31656 74.406361 
L 333.590412 55.906839 
L 333.864265 123.856296 
L 334.138117 62.272247 
L 334.41197 44.494297 
L 334.685822 95.671587 
L 334.959674 99.277656 
L 335.233527 109.916178 
L 335.233527 109.916178 
" clip-path="url(#p6a3f4dc5c0)" style="fill: none; stroke: #1f77b4; stroke-width: 1.5; stroke-linecap: square"/>
   </g>
   <g id="line2d_14">
    <path d="M 61.654964 86.998295 
L 335.507379 86.998295 
" clip-path="url(#p6a3f4dc5c0)" style="fill: none; stroke-dasharray: 7.4,3.2; stroke-dashoffset: 0; stroke: #ff0000; stroke-width: 2"/>
   </g>
   <g id="line2d_15">
    <path d="M 193.104124 86.998295 
L 204.05822 86.998295 
" clip-path="url(#p6a3f4dc5c0)" style="fill: none; stroke: #000000; stroke-width: 2; stroke-linecap: square"/>
   </g>
   <g id="line2d_16">
    <path d="M 193.104124 43.558615 
L 204.05822 43.558615 
" clip-path="url(#p6a3f4dc5c0)" style="fill: none; stroke: #000000; stroke-width: 2; stroke-linecap: square"/>
   </g>
   <g id="line2d_17">
    <path d="M 198.581172 86.998295 
L 198.581172 43.558615 
" clip-path="url(#p6a3f4dc5c0)" style="fill: none; stroke: #000000; stroke-width: 2; stroke-linecap: square"/>
   </g>
   <g id="line2d_18">
    <path d="M 193.104124 159.397763 
L 204.05822 159.397763 
" clip-path="url(#p6a3f4dc5c0)" style="fill: none; stroke: #000000; stroke-width: 2; stroke-linecap: square"/>
   </g>
   <g id="line2d_19">
    <path d="M 198.581172 159.397763 
L 198.581172 86.998295 
" clip-path="url(#p6a3f4dc5c0)" style="fill: none; stroke: #000000; stroke-width: 2; stroke-linecap: square"/>
   </g>
   <g id="patch_3">
    <path d="M 47.962344 173.877656 
L 47.962344 14.598828 
" style="fill: none; stroke: #000000; stroke-width: 0.8; stroke-linejoin: miter; stroke-linecap: square"/>
   </g>
   <g id="patch_4">
    <path d="M 349.2 173.877656 
L 349.2 14.598828 
" style="fill: none; stroke: #000000; stroke-width: 0.8; stroke-linejoin: miter; stroke-linecap: square"/>
   </g>
   <g id="patch_5">
    <path d="M 47.962344 173.877656 
L 349.2 173.877656 
" style="fill: none; stroke: #000000; stroke-width: 0.8; stroke-linejoin: miter; stroke-linecap: square"/>
   </g>
   <g id="patch_6">
    <path d="M 47.962344 14.598828 
L 349.2 14.598828 
" style="fill: none; stroke: #000000; stroke-width: 0.8; stroke-linejoin: miter; stroke-linecap: square"/>
   </g>
   <g id="text_15">
    <g id="patch_7">
     <path d="M 205.535268 71.680799 
L 235.127456 71.680799 
L 235.127456 53.680018 
L 205.535268 53.680018 
z
" style="fill: #ffffff; opacity: 0.8; stroke: #000000; stroke-linejoin: miter"/>
    </g>
    <!-- gain -->
    <g transform="translate(209.535268 65.278455) scale(0.1 -0.1)">
     <use xlink:href="#DejaVuSans-4a"/>
     <use xlink:href="#DejaVuSans-44" transform="translate(63.484375 0)"/>
     <use xlink:href="#DejaVuSans-4c" transform="translate(124.765625 0)"/>
     <use xlink:href="#DejaVuSans-51" transform="translate(152.546875 0)"/>
    </g>
   </g>
   <g id="text_16">
    <g id="patch_8">
     <path d="M 205.535268 129.600373 
L 241.825893 129.600373 
L 241.825893 111.599592 
L 205.535268 111.599592 
z
" style="fill: #ffffff; opacity: 0.8; stroke: #000000; stroke-linejoin: miter"/>
    </g>
    <!-- offset -->
    <g transform="translate(209.535268 123.198029) scale(0.1 -0.1)">
     <defs>
      <path id="DejaVuSans-52" d="M 1959 3097 
Q 1497 3097 1228 2736 
Q 959 2375 959 1747 
Q 959 1119 1226 758 
Q 1494 397 1959 397 
Q 2419 397 2687 759 
Q 2956 1122 2956 1747 
Q 2956 2369 2687 2733 
Q 2419 3097 1959 3097 
z
M 1959 3584 
Q 2709 3584 3137 3096 
Q 3566 2609 3566 1747 
Q 3566 888 3137 398 
Q 2709 -91 1959 -91 
Q 1206 -91 779 398 
Q 353 888 353 1747 
Q 353 2609 779 3096 
Q 1206 3584 1959 3584 
z
" transform="scale(0.015625)"/>
      <path id="DejaVuSans-13ae" d="M 4531 4863 
L 4531 4384 
L 3981 4384 
Q 3672 4384 3551 4259 
Q 3431 4134 3431 3809 
L 3431 3500 
L 4378 3500 
L 4378 3053 
L 3431 3053 
L 3431 0 
L 2853 0 
L 2853 3053 
L 1275 3053 
L 1275 0 
L 697 0 
L 697 3053 
L 147 3053 
L 147 3500 
L 697 3500 
L 697 3744 
Q 697 4328 969 4595 
Q 1241 4863 1831 4863 
L 2375 4863 
L 2375 4384 
L 1825 4384 
Q 1516 4384 1394 4259 
Q 1275 4134 1275 3809 
L 1275 3500 
L 2853 3500 
L 2853 3744 
Q 2853 4328 3125 4595 
Q 3397 4863 3988 4863 
L 4531 4863 
z
" transform="scale(0.015625)"/>
     </defs>
     <use xlink:href="#DejaVuSans-52"/>
     <use xlink:href="#DejaVuSans-13ae" transform="translate(61.1875 0)"/>
     <use xlink:href="#DejaVuSans-56" transform="translate(130.078125 0)"/>
     <use xlink:href="#DejaVuSans-48" transform="translate(182.171875 0)"/>
     <use xlink:href="#DejaVuSans-57" transform="translate(243.703125 0)"/>
    </g>
   </g>
  </g>
 </g>
 <defs>
  <clipPath id="p6a3f4dc5c0">
   <rect x="47.962344" y="14.598828" width="301.237656" height="159.278828"/>
  </clipPath>
 </defs>
</svg>
