<?xml version="1.0" encoding="utf-8" standalone="no"?>
<!DOCTYPE svg PUBLIC "-//W3C//DTD SVG 1.1//EN"
  "http://www.w3.org/Graphics/SVG/1.1/DTD/svg11.dtd">
<svg height="182.165625pt" version="1.1" viewBox="0 0 268.340625 182.165625" width="268.340625pt" xmlns="http://www.w3.org/2000/svg" xmlns:xlink="http://www.w3.org/1999/xlink">
 <metadata>
  <rdf:RDF xmlns:cc="http://creativecommons.org/ns#" xmlns:dc="http://purl.org/dc/elements/1.1/" xmlns:rdf="http://www.w3.org/1999/02/22-rdf-syntax-ns#">
   <cc:Work>
    <dc:type rdf:resource="http://purl.org/dc/dcmitype/StillImage"/>
    <dc:date>2022-02-27T13:31:18.212932</dc:date>
    <dc:format>image/svg+xml</dc:format>
    <dc:creator>
     <cc:Agent>
      <dc:title>Matplotlib v3.4.3, https://matplotlib.org/</dc:title>
     </cc:Agent>
    </dc:creator>
   </cc:Work>
  </rdf:RDF>
 </metadata>
 <defs>
  <style type="text/css">*{stroke-linecap:butt;stroke-linejoin:round;}</style>
 </defs>
 <g id="figure_1">
  <g id="patch_1">
   <path d="M 0 182.165625 
L 268.340625 182.165625 
L 268.340625 0 
L 0 0 
z
" style="fill:#ffffff;"/>
  </g>
  <g id="axes_1">
   <g id="patch_2">
    <path d="M 37.940625 145.8 
L 261.140625 145.8 
L 261.140625 7.2 
L 37.940625 7.2 
z
" style="fill:#ffffff;"/>
   </g>
   <g id="matplotlib.axis_1">
    <g id="xtick_1">
     <g id="line2d_1">
      <path clip-path="url(#p69ddc9aa78)" d="M 48.08608 145.8 
L 48.08608 7.2 
" style="fill:none;stroke:#a9a9a9;stroke-dasharray:3.2,0.8,0.5,0.8;stroke-dashoffset:0;stroke-width:0.5;"/>
     </g>
     <g id="line2d_2">
      <defs>
       <path d="M 0 0 
L 0 3.5 
" id="m0365ac72fd" style="stroke:#000000;stroke-width:0.8;"/>
      </defs>
      <g>
       <use style="stroke:#000000;stroke-width:0.8;" x="48.08608" xlink:href="#m0365ac72fd" y="145.8"/>
      </g>
     </g>
     <g id="text_1">
      <!-- 0.0 -->
      <g transform="translate(41.83608 159.74375)scale(0.1 -0.1)">
       <defs>
        <path d="M 231 2094 
Q 231 2819 450 3342 
Q 669 3866 1031 4122 
Q 1313 4325 1613 4325 
Q 2100 4325 2488 3828 
Q 2972 3213 2972 2159 
Q 2972 1422 2759 906 
Q 2547 391 2217 158 
Q 1888 -75 1581 -75 
Q 975 -75 572 641 
Q 231 1244 231 2094 
z
M 844 2016 
Q 844 1141 1059 588 
Q 1238 122 1591 122 
Q 1759 122 1940 273 
Q 2122 425 2216 781 
Q 2359 1319 2359 2297 
Q 2359 3022 2209 3506 
Q 2097 3866 1919 4016 
Q 1791 4119 1609 4119 
Q 1397 4119 1231 3928 
Q 1006 3669 925 3112 
Q 844 2556 844 2016 
z
" id="TimesNewRomanPSMT-30" transform="scale(0.015625)"/>
        <path d="M 800 606 
Q 947 606 1047 504 
Q 1147 403 1147 259 
Q 1147 116 1045 14 
Q 944 -88 800 -88 
Q 656 -88 554 14 
Q 453 116 453 259 
Q 453 406 554 506 
Q 656 606 800 606 
z
" id="TimesNewRomanPSMT-2e" transform="scale(0.015625)"/>
       </defs>
       <use xlink:href="#TimesNewRomanPSMT-30"/>
       <use x="50" xlink:href="#TimesNewRomanPSMT-2e"/>
       <use x="75" xlink:href="#TimesNewRomanPSMT-30"/>
      </g>
     </g>
    </g>
    <g id="xtick_2">
     <g id="line2d_3">
      <path clip-path="url(#p69ddc9aa78)" d="M 88.667898 145.8 
L 88.667898 7.2 
" style="fill:none;stroke:#a9a9a9;stroke-dasharray:3.2,0.8,0.5,0.8;stroke-dashoffset:0;stroke-width:0.5;"/>
     </g>
     <g id="line2d_4">
      <g>
       <use style="stroke:#000000;stroke-width:0.8;" x="88.667898" xlink:href="#m0365ac72fd" y="145.8"/>
      </g>
     </g>
     <g id="text_2">
      <!-- 0.2 -->
      <g transform="translate(82.417898 159.74375)scale(0.1 -0.1)">
       <defs>
        <path d="M 2934 816 
L 2638 0 
L 138 0 
L 138 116 
Q 1241 1122 1691 1759 
Q 2141 2397 2141 2925 
Q 2141 3328 1894 3587 
Q 1647 3847 1303 3847 
Q 991 3847 742 3664 
Q 494 3481 375 3128 
L 259 3128 
Q 338 3706 661 4015 
Q 984 4325 1469 4325 
Q 1984 4325 2329 3994 
Q 2675 3663 2675 3213 
Q 2675 2891 2525 2569 
Q 2294 2063 1775 1497 
Q 997 647 803 472 
L 1909 472 
Q 2247 472 2383 497 
Q 2519 522 2628 598 
Q 2738 675 2819 816 
L 2934 816 
z
" id="TimesNewRomanPSMT-32" transform="scale(0.015625)"/>
       </defs>
       <use xlink:href="#TimesNewRomanPSMT-30"/>
       <use x="50" xlink:href="#TimesNewRomanPSMT-2e"/>
       <use x="75" xlink:href="#TimesNewRomanPSMT-32"/>
      </g>
     </g>
    </g>
    <g id="xtick_3">
     <g id="line2d_5">
      <path clip-path="url(#p69ddc9aa78)" d="M 129.249716 145.8 
L 129.249716 7.2 
" style="fill:none;stroke:#a9a9a9;stroke-dasharray:3.2,0.8,0.5,0.8;stroke-dashoffset:0;stroke-width:0.5;"/>
     </g>
     <g id="line2d_6">
      <g>
       <use style="stroke:#000000;stroke-width:0.8;" x="129.249716" xlink:href="#m0365ac72fd" y="145.8"/>
      </g>
     </g>
     <g id="text_3">
      <!-- 0.4 -->
      <g transform="translate(122.999716 159.74375)scale(0.1 -0.1)">
       <defs>
        <path d="M 2978 1563 
L 2978 1119 
L 2409 1119 
L 2409 0 
L 1894 0 
L 1894 1119 
L 100 1119 
L 100 1519 
L 2066 4325 
L 2409 4325 
L 2409 1563 
L 2978 1563 
z
M 1894 1563 
L 1894 3666 
L 406 1563 
L 1894 1563 
z
" id="TimesNewRomanPSMT-34" transform="scale(0.015625)"/>
       </defs>
       <use xlink:href="#TimesNewRomanPSMT-30"/>
       <use x="50" xlink:href="#TimesNewRomanPSMT-2e"/>
       <use x="75" xlink:href="#TimesNewRomanPSMT-34"/>
      </g>
     </g>
    </g>
    <g id="xtick_4">
     <g id="line2d_7">
      <path clip-path="url(#p69ddc9aa78)" d="M 169.831534 145.8 
L 169.831534 7.2 
" style="fill:none;stroke:#a9a9a9;stroke-dasharray:3.2,0.8,0.5,0.8;stroke-dashoffset:0;stroke-width:0.5;"/>
     </g>
     <g id="line2d_8">
      <g>
       <use style="stroke:#000000;stroke-width:0.8;" x="169.831534" xlink:href="#m0365ac72fd" y="145.8"/>
      </g>
     </g>
     <g id="text_4">
      <!-- 0.6 -->
      <g transform="translate(163.581534 159.74375)scale(0.1 -0.1)">
       <defs>
        <path d="M 2869 4325 
L 2869 4209 
Q 2456 4169 2195 4045 
Q 1934 3922 1679 3669 
Q 1425 3416 1258 3105 
Q 1091 2794 978 2366 
Q 1428 2675 1881 2675 
Q 2316 2675 2634 2325 
Q 2953 1975 2953 1425 
Q 2953 894 2631 456 
Q 2244 -75 1606 -75 
Q 1172 -75 869 213 
Q 275 772 275 1663 
Q 275 2231 503 2743 
Q 731 3256 1154 3653 
Q 1578 4050 1965 4187 
Q 2353 4325 2688 4325 
L 2869 4325 
z
M 925 2138 
Q 869 1716 869 1456 
Q 869 1156 980 804 
Q 1091 453 1309 247 
Q 1469 100 1697 100 
Q 1969 100 2183 356 
Q 2397 613 2397 1088 
Q 2397 1622 2184 2012 
Q 1972 2403 1581 2403 
Q 1463 2403 1327 2353 
Q 1191 2303 925 2138 
z
" id="TimesNewRomanPSMT-36" transform="scale(0.015625)"/>
       </defs>
       <use xlink:href="#TimesNewRomanPSMT-30"/>
       <use x="50" xlink:href="#TimesNewRomanPSMT-2e"/>
       <use x="75" xlink:href="#TimesNewRomanPSMT-36"/>
      </g>
     </g>
    </g>
    <g id="xtick_5">
     <g id="line2d_9">
      <path clip-path="url(#p69ddc9aa78)" d="M 210.413352 145.8 
L 210.413352 7.2 
" style="fill:none;stroke:#a9a9a9;stroke-dasharray:3.2,0.8,0.5,0.8;stroke-dashoffset:0;stroke-width:0.5;"/>
     </g>
     <g id="line2d_10">
      <g>
       <use style="stroke:#000000;stroke-width:0.8;" x="210.413352" xlink:href="#m0365ac72fd" y="145.8"/>
      </g>
     </g>
     <g id="text_5">
      <!-- 0.8 -->
      <g transform="translate(204.163352 159.74375)scale(0.1 -0.1)">
       <defs>
        <path d="M 1228 2134 
Q 725 2547 579 2797 
Q 434 3047 434 3316 
Q 434 3728 753 4026 
Q 1072 4325 1600 4325 
Q 2113 4325 2425 4047 
Q 2738 3769 2738 3413 
Q 2738 3175 2569 2928 
Q 2400 2681 1866 2347 
Q 2416 1922 2594 1678 
Q 2831 1359 2831 1006 
Q 2831 559 2490 242 
Q 2150 -75 1597 -75 
Q 994 -75 656 303 
Q 388 606 388 966 
Q 388 1247 577 1523 
Q 766 1800 1228 2134 
z
M 1719 2469 
Q 2094 2806 2194 3001 
Q 2294 3197 2294 3444 
Q 2294 3772 2109 3958 
Q 1925 4144 1606 4144 
Q 1288 4144 1088 3959 
Q 888 3775 888 3528 
Q 888 3366 970 3203 
Q 1053 3041 1206 2894 
L 1719 2469 
z
M 1375 2016 
Q 1116 1797 991 1539 
Q 866 1281 866 981 
Q 866 578 1086 336 
Q 1306 94 1647 94 
Q 1984 94 2187 284 
Q 2391 475 2391 747 
Q 2391 972 2272 1150 
Q 2050 1481 1375 2016 
z
" id="TimesNewRomanPSMT-38" transform="scale(0.015625)"/>
       </defs>
       <use xlink:href="#TimesNewRomanPSMT-30"/>
       <use x="50" xlink:href="#TimesNewRomanPSMT-2e"/>
       <use x="75" xlink:href="#TimesNewRomanPSMT-38"/>
      </g>
     </g>
    </g>
    <g id="xtick_6">
     <g id="line2d_11">
      <path clip-path="url(#p69ddc9aa78)" d="M 250.99517 145.8 
L 250.99517 7.2 
" style="fill:none;stroke:#a9a9a9;stroke-dasharray:3.2,0.8,0.5,0.8;stroke-dashoffset:0;stroke-width:0.5;"/>
     </g>
     <g id="line2d_12">
      <g>
       <use style="stroke:#000000;stroke-width:0.8;" x="250.99517" xlink:href="#m0365ac72fd" y="145.8"/>
      </g>
     </g>
     <g id="text_6">
      <!-- 1.0 -->
      <g transform="translate(244.74517 159.74375)scale(0.1 -0.1)">
       <defs>
        <path d="M 750 3822 
L 1781 4325 
L 1884 4325 
L 1884 747 
Q 1884 391 1914 303 
Q 1944 216 2037 169 
Q 2131 122 2419 116 
L 2419 0 
L 825 0 
L 825 116 
Q 1125 122 1212 167 
Q 1300 213 1334 289 
Q 1369 366 1369 747 
L 1369 3034 
Q 1369 3497 1338 3628 
Q 1316 3728 1258 3775 
Q 1200 3822 1119 3822 
Q 1003 3822 797 3725 
L 750 3822 
z
" id="TimesNewRomanPSMT-31" transform="scale(0.015625)"/>
       </defs>
       <use xlink:href="#TimesNewRomanPSMT-31"/>
       <use x="50" xlink:href="#TimesNewRomanPSMT-2e"/>
       <use x="75" xlink:href="#TimesNewRomanPSMT-30"/>
      </g>
     </g>
    </g>
    <g id="text_7">
     <!-- time [s] -->
     <g transform="translate(134.128125 172.826563)scale(0.1 -0.1)">
      <defs>
       <path d="M 1031 3803 
L 1031 2863 
L 1700 2863 
L 1700 2644 
L 1031 2644 
L 1031 788 
Q 1031 509 1111 412 
Q 1191 316 1316 316 
Q 1419 316 1516 380 
Q 1613 444 1666 569 
L 1788 569 
Q 1678 263 1478 108 
Q 1278 -47 1066 -47 
Q 922 -47 784 33 
Q 647 113 581 261 
Q 516 409 516 719 
L 516 2644 
L 63 2644 
L 63 2747 
Q 234 2816 414 2980 
Q 594 3144 734 3369 
Q 806 3488 934 3803 
L 1031 3803 
z
" id="TimesNewRomanPSMT-74" transform="scale(0.015625)"/>
       <path d="M 928 4444 
Q 1059 4444 1151 4351 
Q 1244 4259 1244 4128 
Q 1244 3997 1151 3903 
Q 1059 3809 928 3809 
Q 797 3809 703 3903 
Q 609 3997 609 4128 
Q 609 4259 701 4351 
Q 794 4444 928 4444 
z
M 1188 2947 
L 1188 647 
Q 1188 378 1227 289 
Q 1266 200 1342 156 
Q 1419 113 1622 113 
L 1622 0 
L 231 0 
L 231 113 
Q 441 113 512 153 
Q 584 194 626 287 
Q 669 381 669 647 
L 669 1750 
Q 669 2216 641 2353 
Q 619 2453 572 2492 
Q 525 2531 444 2531 
Q 356 2531 231 2484 
L 188 2597 
L 1050 2947 
L 1188 2947 
z
" id="TimesNewRomanPSMT-69" transform="scale(0.015625)"/>
       <path d="M 1050 2338 
Q 1363 2650 1419 2697 
Q 1559 2816 1721 2881 
Q 1884 2947 2044 2947 
Q 2313 2947 2506 2790 
Q 2700 2634 2766 2338 
Q 3088 2713 3309 2830 
Q 3531 2947 3766 2947 
Q 3994 2947 4170 2830 
Q 4347 2713 4450 2447 
Q 4519 2266 4519 1878 
L 4519 647 
Q 4519 378 4559 278 
Q 4591 209 4675 161 
Q 4759 113 4950 113 
L 4950 0 
L 3538 0 
L 3538 113 
L 3597 113 
Q 3781 113 3884 184 
Q 3956 234 3988 344 
Q 4000 397 4000 647 
L 4000 1878 
Q 4000 2228 3916 2372 
Q 3794 2572 3525 2572 
Q 3359 2572 3192 2489 
Q 3025 2406 2788 2181 
L 2781 2147 
L 2788 2013 
L 2788 647 
Q 2788 353 2820 281 
Q 2853 209 2943 161 
Q 3034 113 3253 113 
L 3253 0 
L 1806 0 
L 1806 113 
Q 2044 113 2133 169 
Q 2222 225 2256 338 
Q 2272 391 2272 647 
L 2272 1878 
Q 2272 2228 2169 2381 
Q 2031 2581 1784 2581 
Q 1616 2581 1450 2491 
Q 1191 2353 1050 2181 
L 1050 647 
Q 1050 366 1089 281 
Q 1128 197 1204 155 
Q 1281 113 1516 113 
L 1516 0 
L 100 0 
L 100 113 
Q 297 113 375 155 
Q 453 197 493 289 
Q 534 381 534 647 
L 534 1741 
Q 534 2213 506 2350 
Q 484 2453 437 2492 
Q 391 2531 309 2531 
Q 222 2531 100 2484 
L 53 2597 
L 916 2947 
L 1050 2947 
L 1050 2338 
z
" id="TimesNewRomanPSMT-6d" transform="scale(0.015625)"/>
       <path d="M 681 1784 
Q 678 1147 991 784 
Q 1303 422 1725 422 
Q 2006 422 2214 576 
Q 2422 731 2563 1106 
L 2659 1044 
Q 2594 616 2278 264 
Q 1963 -88 1488 -88 
Q 972 -88 605 314 
Q 238 716 238 1394 
Q 238 2128 614 2539 
Q 991 2950 1559 2950 
Q 2041 2950 2350 2633 
Q 2659 2316 2659 1784 
L 681 1784 
z
M 681 1966 
L 2006 1966 
Q 1991 2241 1941 2353 
Q 1863 2528 1708 2628 
Q 1553 2728 1384 2728 
Q 1125 2728 920 2526 
Q 716 2325 681 1966 
z
" id="TimesNewRomanPSMT-65" transform="scale(0.015625)"/>
       <path id="TimesNewRomanPSMT-20" transform="scale(0.015625)"/>
       <path d="M 1900 -1269 
L 525 -1269 
L 525 4334 
L 1900 4334 
L 1900 4088 
L 994 4088 
L 994 -1025 
L 1900 -1025 
L 1900 -1269 
z
" id="TimesNewRomanPSMT-5b" transform="scale(0.015625)"/>
       <path d="M 2050 2947 
L 2050 1972 
L 1947 1972 
Q 1828 2431 1642 2597 
Q 1456 2763 1169 2763 
Q 950 2763 815 2647 
Q 681 2531 681 2391 
Q 681 2216 781 2091 
Q 878 1963 1175 1819 
L 1631 1597 
Q 2266 1288 2266 781 
Q 2266 391 1970 151 
Q 1675 -88 1309 -88 
Q 1047 -88 709 6 
Q 606 38 541 38 
Q 469 38 428 -44 
L 325 -44 
L 325 978 
L 428 978 
Q 516 541 762 319 
Q 1009 97 1316 97 
Q 1531 97 1667 223 
Q 1803 350 1803 528 
Q 1803 744 1651 891 
Q 1500 1038 1047 1263 
Q 594 1488 453 1669 
Q 313 1847 313 2119 
Q 313 2472 555 2709 
Q 797 2947 1181 2947 
Q 1350 2947 1591 2875 
Q 1750 2828 1803 2828 
Q 1853 2828 1881 2850 
Q 1909 2872 1947 2947 
L 2050 2947 
z
" id="TimesNewRomanPSMT-73" transform="scale(0.015625)"/>
       <path d="M 234 4334 
L 1609 4334 
L 1609 -1272 
L 234 -1272 
L 234 -1025 
L 1141 -1025 
L 1141 4088 
L 234 4088 
L 234 4334 
z
" id="TimesNewRomanPSMT-5d" transform="scale(0.015625)"/>
      </defs>
      <use xlink:href="#TimesNewRomanPSMT-74"/>
      <use x="27.783203" xlink:href="#TimesNewRomanPSMT-69"/>
      <use x="55.566406" xlink:href="#TimesNewRomanPSMT-6d"/>
      <use x="133.349609" xlink:href="#TimesNewRomanPSMT-65"/>
      <use x="177.734375" xlink:href="#TimesNewRomanPSMT-20"/>
      <use x="202.734375" xlink:href="#TimesNewRomanPSMT-5b"/>
      <use x="236.035156" xlink:href="#TimesNewRomanPSMT-73"/>
      <use x="274.951172" xlink:href="#TimesNewRomanPSMT-5d"/>
     </g>
    </g>
   </g>
   <g id="matplotlib.axis_2">
    <g id="ytick_1">
     <g id="line2d_13">
      <path clip-path="url(#p69ddc9aa78)" d="M 37.940625 145.8 
L 261.140625 145.8 
" style="fill:none;stroke:#a9a9a9;stroke-dasharray:3.2,0.8,0.5,0.8;stroke-dashoffset:0;stroke-width:0.5;"/>
     </g>
     <g id="line2d_14">
      <defs>
       <path d="M 0 0 
L -3.5 0 
" id="mb4533d5a98" style="stroke:#000000;stroke-width:0.8;"/>
      </defs>
      <g>
       <use style="stroke:#000000;stroke-width:0.8;" x="37.940625" xlink:href="#mb4533d5a98" y="145.8"/>
      </g>
     </g>
     <g id="text_8">
      <!-- −5 -->
      <g transform="translate(20.301563 149.271875)scale(0.1 -0.1)">
       <defs>
        <path d="M 3484 2000 
L 116 2000 
L 116 2256 
L 3484 2256 
L 3484 2000 
z
" id="TimesNewRomanPSMT-2212" transform="scale(0.015625)"/>
        <path d="M 2778 4238 
L 2534 3706 
L 1259 3706 
L 981 3138 
Q 1809 3016 2294 2522 
Q 2709 2097 2709 1522 
Q 2709 1188 2573 903 
Q 2438 619 2231 419 
Q 2025 219 1772 97 
Q 1413 -75 1034 -75 
Q 653 -75 479 54 
Q 306 184 306 341 
Q 306 428 378 495 
Q 450 563 559 563 
Q 641 563 702 538 
Q 763 513 909 409 
Q 1144 247 1384 247 
Q 1750 247 2026 523 
Q 2303 800 2303 1197 
Q 2303 1581 2056 1914 
Q 1809 2247 1375 2428 
Q 1034 2569 447 2591 
L 1259 4238 
L 2778 4238 
z
" id="TimesNewRomanPSMT-35" transform="scale(0.015625)"/>
       </defs>
       <use xlink:href="#TimesNewRomanPSMT-2212"/>
       <use x="56.396484" xlink:href="#TimesNewRomanPSMT-35"/>
      </g>
     </g>
    </g>
    <g id="ytick_2">
     <g id="line2d_15">
      <path clip-path="url(#p69ddc9aa78)" d="M 37.940625 112.8 
L 261.140625 112.8 
" style="fill:none;stroke:#a9a9a9;stroke-dasharray:3.2,0.8,0.5,0.8;stroke-dashoffset:0;stroke-width:0.5;"/>
     </g>
     <g id="line2d_16">
      <g>
       <use style="stroke:#000000;stroke-width:0.8;" x="37.940625" xlink:href="#mb4533d5a98" y="112.8"/>
      </g>
     </g>
     <g id="text_9">
      <!-- 0 -->
      <g transform="translate(25.940625 116.271875)scale(0.1 -0.1)">
       <use xlink:href="#TimesNewRomanPSMT-30"/>
      </g>
     </g>
    </g>
    <g id="ytick_3">
     <g id="line2d_17">
      <path clip-path="url(#p69ddc9aa78)" d="M 37.940625 79.8 
L 261.140625 79.8 
" style="fill:none;stroke:#a9a9a9;stroke-dasharray:3.2,0.8,0.5,0.8;stroke-dashoffset:0;stroke-width:0.5;"/>
     </g>
     <g id="line2d_18">
      <g>
       <use style="stroke:#000000;stroke-width:0.8;" x="37.940625" xlink:href="#mb4533d5a98" y="79.8"/>
      </g>
     </g>
     <g id="text_10">
      <!-- 5 -->
      <g transform="translate(25.940625 83.271875)scale(0.1 -0.1)">
       <use xlink:href="#TimesNewRomanPSMT-35"/>
      </g>
     </g>
    </g>
    <g id="ytick_4">
     <g id="line2d_19">
      <path clip-path="url(#p69ddc9aa78)" d="M 37.940625 46.8 
L 261.140625 46.8 
" style="fill:none;stroke:#a9a9a9;stroke-dasharray:3.2,0.8,0.5,0.8;stroke-dashoffset:0;stroke-width:0.5;"/>
     </g>
     <g id="line2d_20">
      <g>
       <use style="stroke:#000000;stroke-width:0.8;" x="37.940625" xlink:href="#mb4533d5a98" y="46.8"/>
      </g>
     </g>
     <g id="text_11">
      <!-- 10 -->
      <g transform="translate(20.940625 50.271875)scale(0.1 -0.1)">
       <use xlink:href="#TimesNewRomanPSMT-31"/>
       <use x="50" xlink:href="#TimesNewRomanPSMT-30"/>
      </g>
     </g>
    </g>
    <g id="ytick_5">
     <g id="line2d_21">
      <path clip-path="url(#p69ddc9aa78)" d="M 37.940625 13.8 
L 261.140625 13.8 
" style="fill:none;stroke:#a9a9a9;stroke-dasharray:3.2,0.8,0.5,0.8;stroke-dashoffset:0;stroke-width:0.5;"/>
     </g>
     <g id="line2d_22">
      <g>
       <use style="stroke:#000000;stroke-width:0.8;" x="37.940625" xlink:href="#mb4533d5a98" y="13.8"/>
      </g>
     </g>
     <g id="text_12">
      <!-- 15 -->
      <g transform="translate(20.940625 17.271875)scale(0.1 -0.1)">
       <use xlink:href="#TimesNewRomanPSMT-31"/>
       <use x="50" xlink:href="#TimesNewRomanPSMT-35"/>
      </g>
     </g>
    </g>
    <g id="text_13">
     <!-- Voltage [V] -->
     <g transform="translate(14.14375 99.875)rotate(-90)scale(0.1 -0.1)">
      <defs>
       <path d="M 4544 4238 
L 4544 4122 
Q 4319 4081 4203 3978 
Q 4038 3825 3909 3509 
L 2431 -97 
L 2316 -97 
L 728 3556 
Q 606 3838 556 3900 
Q 478 3997 364 4051 
Q 250 4106 56 4122 
L 56 4238 
L 1788 4238 
L 1788 4122 
Q 1494 4094 1406 4022 
Q 1319 3950 1319 3838 
Q 1319 3681 1463 3350 
L 2541 866 
L 3541 3319 
Q 3688 3681 3688 3822 
Q 3688 3913 3597 3995 
Q 3506 4078 3291 4113 
Q 3275 4116 3238 4122 
L 3238 4238 
L 4544 4238 
z
" id="TimesNewRomanPSMT-56" transform="scale(0.015625)"/>
       <path d="M 1600 2947 
Q 2250 2947 2644 2453 
Q 2978 2031 2978 1484 
Q 2978 1100 2793 706 
Q 2609 313 2286 112 
Q 1963 -88 1566 -88 
Q 919 -88 538 428 
Q 216 863 216 1403 
Q 216 1797 411 2186 
Q 606 2575 925 2761 
Q 1244 2947 1600 2947 
z
M 1503 2744 
Q 1338 2744 1170 2645 
Q 1003 2547 900 2300 
Q 797 2053 797 1666 
Q 797 1041 1045 587 
Q 1294 134 1700 134 
Q 2003 134 2200 384 
Q 2397 634 2397 1244 
Q 2397 2006 2069 2444 
Q 1847 2744 1503 2744 
z
" id="TimesNewRomanPSMT-6f" transform="scale(0.015625)"/>
       <path d="M 1184 4444 
L 1184 647 
Q 1184 378 1223 290 
Q 1263 203 1344 158 
Q 1425 113 1647 113 
L 1647 0 
L 244 0 
L 244 113 
Q 441 113 512 153 
Q 584 194 625 287 
Q 666 381 666 647 
L 666 3247 
Q 666 3731 644 3842 
Q 622 3953 573 3993 
Q 525 4034 450 4034 
Q 369 4034 244 3984 
L 191 4094 
L 1044 4444 
L 1184 4444 
z
" id="TimesNewRomanPSMT-6c" transform="scale(0.015625)"/>
       <path d="M 1822 413 
Q 1381 72 1269 19 
Q 1100 -59 909 -59 
Q 613 -59 420 144 
Q 228 347 228 678 
Q 228 888 322 1041 
Q 450 1253 767 1440 
Q 1084 1628 1822 1897 
L 1822 2009 
Q 1822 2438 1686 2597 
Q 1550 2756 1291 2756 
Q 1094 2756 978 2650 
Q 859 2544 859 2406 
L 866 2225 
Q 866 2081 792 2003 
Q 719 1925 600 1925 
Q 484 1925 411 2006 
Q 338 2088 338 2228 
Q 338 2497 613 2722 
Q 888 2947 1384 2947 
Q 1766 2947 2009 2819 
Q 2194 2722 2281 2516 
Q 2338 2381 2338 1966 
L 2338 994 
Q 2338 584 2353 492 
Q 2369 400 2405 369 
Q 2441 338 2488 338 
Q 2538 338 2575 359 
Q 2641 400 2828 588 
L 2828 413 
Q 2478 -56 2159 -56 
Q 2006 -56 1915 50 
Q 1825 156 1822 413 
z
M 1822 616 
L 1822 1706 
Q 1350 1519 1213 1441 
Q 966 1303 859 1153 
Q 753 1003 753 825 
Q 753 600 887 451 
Q 1022 303 1197 303 
Q 1434 303 1822 616 
z
" id="TimesNewRomanPSMT-61" transform="scale(0.015625)"/>
       <path d="M 966 1044 
Q 703 1172 562 1401 
Q 422 1631 422 1909 
Q 422 2334 742 2640 
Q 1063 2947 1563 2947 
Q 1972 2947 2272 2747 
L 2878 2747 
Q 3013 2747 3034 2739 
Q 3056 2731 3066 2713 
Q 3084 2684 3084 2613 
Q 3084 2531 3069 2500 
Q 3059 2484 3036 2475 
Q 3013 2466 2878 2466 
L 2506 2466 
Q 2681 2241 2681 1891 
Q 2681 1491 2375 1206 
Q 2069 922 1553 922 
Q 1341 922 1119 984 
Q 981 866 932 777 
Q 884 688 884 625 
Q 884 572 936 522 
Q 988 472 1138 450 
Q 1225 438 1575 428 
Q 2219 413 2409 384 
Q 2700 344 2873 169 
Q 3047 -6 3047 -263 
Q 3047 -616 2716 -925 
Q 2228 -1381 1444 -1381 
Q 841 -1381 425 -1109 
Q 191 -953 191 -784 
Q 191 -709 225 -634 
Q 278 -519 444 -313 
Q 466 -284 763 25 
Q 600 122 533 198 
Q 466 275 466 372 
Q 466 481 555 628 
Q 644 775 966 1044 
z
M 1509 2797 
Q 1278 2797 1122 2612 
Q 966 2428 966 2047 
Q 966 1553 1178 1281 
Q 1341 1075 1591 1075 
Q 1828 1075 1981 1253 
Q 2134 1431 2134 1813 
Q 2134 2309 1919 2591 
Q 1759 2797 1509 2797 
z
M 934 0 
Q 788 -159 713 -296 
Q 638 -434 638 -550 
Q 638 -700 819 -813 
Q 1131 -1006 1722 -1006 
Q 2284 -1006 2551 -807 
Q 2819 -609 2819 -384 
Q 2819 -222 2659 -153 
Q 2497 -84 2016 -72 
Q 1313 -53 934 0 
z
" id="TimesNewRomanPSMT-67" transform="scale(0.015625)"/>
      </defs>
      <use xlink:href="#TimesNewRomanPSMT-56"/>
      <use x="59.341797" xlink:href="#TimesNewRomanPSMT-6f"/>
      <use x="109.341797" xlink:href="#TimesNewRomanPSMT-6c"/>
      <use x="137.125" xlink:href="#TimesNewRomanPSMT-74"/>
      <use x="164.908203" xlink:href="#TimesNewRomanPSMT-61"/>
      <use x="209.292969" xlink:href="#TimesNewRomanPSMT-67"/>
      <use x="259.292969" xlink:href="#TimesNewRomanPSMT-65"/>
      <use x="303.677734" xlink:href="#TimesNewRomanPSMT-20"/>
      <use x="328.677734" xlink:href="#TimesNewRomanPSMT-5b"/>
      <use x="361.978516" xlink:href="#TimesNewRomanPSMT-56"/>
      <use x="434.195312" xlink:href="#TimesNewRomanPSMT-5d"/>
     </g>
    </g>
   </g>
   <g id="line2d_23">
    <path clip-path="url(#p69ddc9aa78)" d="M 48.08608 29.921753 
L 48.288989 27.651751 
L 48.694807 28.274088 
L 48.897716 27.037986 
L 49.100625 27.889592 
L 49.303534 26.564702 
L 49.709352 20.558156 
L 50.11517 22.959607 
L 50.31808 23.535726 
L 50.723898 22.030708 
L 50.926807 26.727717 
L 51.129716 28.055936 
L 51.332625 22.277676 
L 51.535534 24.755023 
L 51.738443 29.978358 
L 51.941352 25.134579 
L 52.144261 26.282304 
L 52.34717 24.934712 
L 52.55008 29.05883 
L 52.752989 28.281289 
L 52.955898 28.219373 
L 53.158807 31.403798 
L 53.361716 27.369196 
L 53.564625 28.852272 
L 53.767534 27.898668 
L 53.970443 27.869204 
L 54.173352 27.390432 
L 54.57917 28.703438 
L 54.984989 27.93311 
L 55.187898 28.782072 
L 55.390807 28.453405 
L 55.593716 28.413393 
L 55.999534 27.416503 
L 56.202443 30.015815 
L 56.405352 27.560025 
L 56.608261 26.664384 
L 56.81117 29.86948 
L 57.01408 30.715962 
L 57.216989 30.15476 
L 57.419898 28.511067 
L 57.622807 30.636031 
L 57.825716 29.38148 
L 58.028625 31.362293 
L 58.231534 32.195394 
L 58.434443 32.195237 
L 58.840261 28.746522 
L 59.04317 29.538163 
L 59.24608 32.31 
L 59.448989 29.032999 
L 59.651898 29.066673 
L 59.854807 30.524189 
L 60.057716 30.94348 
L 60.260625 30.848424 
L 60.463534 32.164174 
L 60.666443 31.175832 
L 60.869352 28.586384 
L 61.072261 28.590595 
L 61.27517 35.149166 
L 61.47808 30.839971 
L 61.883898 32.014611 
L 62.086807 30.571137 
L 62.289716 30.856034 
L 62.492625 33.201964 
L 62.695534 30.211717 
L 62.898443 35.522314 
L 63.50717 30.066993 
L 63.71008 30.656544 
L 63.912989 32.077012 
L 64.115898 28.868669 
L 64.318807 31.727624 
L 64.521716 30.481016 
L 64.724625 33.214697 
L 64.927534 32.380388 
L 65.130443 34.39018 
L 65.333352 33.163242 
L 65.536261 33.313202 
L 65.94208 30.456614 
L 66.347898 32.888145 
L 66.550807 34.39694 
L 66.753716 33.780752 
L 66.956625 32.683028 
L 67.159534 30.572868 
L 67.362443 32.525181 
L 67.565352 33.199598 
L 67.768261 34.500109 
L 67.97117 34.012922 
L 68.17408 30.590146 
L 68.376989 35.400338 
L 68.579898 34.38274 
L 68.782807 35.066642 
L 69.188625 31.956112 
L 69.391534 31.77339 
L 69.594443 33.944805 
L 69.797352 32.145537 
L 70.000261 32.050079 
L 70.20317 35.26554 
L 70.40608 34.486533 
L 70.608989 32.740048 
L 70.811898 33.558351 
L 71.014807 30.725963 
L 71.217716 31.797786 
L 71.420625 29.921772 
L 71.623534 30.96641 
L 71.826443 34.664396 
L 72.029352 33.232743 
L 72.232261 31.009293 
L 72.43517 32.051828 
L 72.63808 35.260587 
L 72.840989 31.907898 
L 73.043898 32.395941 
L 73.246807 35.462217 
L 73.652625 31.490872 
L 73.855534 37.280349 
L 74.261352 30.122603 
L 74.464261 33.593416 
L 74.66717 31.922028 
L 74.87008 34.70364 
L 75.072989 33.466172 
L 75.275898 33.848201 
L 75.478807 30.951713 
L 75.681716 32.043426 
L 75.884625 30.715956 
L 76.087534 31.359203 
L 76.290443 34.316355 
L 76.493352 31.879775 
L 76.696261 32.563274 
L 76.89917 31.305293 
L 77.10208 26.843191 
L 77.304989 32.593789 
L 77.507898 32.916595 
L 77.710807 32.253704 
L 77.913716 29.042031 
L 78.116625 31.147307 
L 78.319534 34.479301 
L 78.725352 32.739104 
L 78.928261 29.306169 
L 79.13117 34.54313 
L 79.33408 31.608984 
L 79.536989 34.094653 
L 79.739898 32.573552 
L 79.942807 33.806816 
L 80.145716 33.05945 
L 80.348625 30.397095 
L 80.551534 32.921769 
L 80.754443 29.34272 
L 80.957352 30.049583 
L 81.160261 29.682471 
L 81.36317 28.847098 
L 81.56608 31.633053 
L 81.768989 32.687264 
L 81.971898 32.678843 
L 82.377716 31.061013 
L 82.580625 31.327587 
L 82.783534 30.834967 
L 82.986443 30.753671 
L 83.189352 29.107888 
L 83.392261 30.403717 
L 83.59517 27.253885 
L 83.79808 31.543952 
L 84.000989 29.747421 
L 84.203898 32.07068 
L 84.406807 28.572707 
L 84.609716 31.258344 
L 84.812625 30.083874 
L 85.015534 30.419635 
L 85.218443 27.291424 
L 85.421352 29.801577 
L 85.82717 30.97796 
L 86.03008 32.934119 
L 86.232989 28.370642 
L 86.841716 30.522313 
L 87.044625 28.190872 
L 87.247534 28.010586 
L 87.450443 28.260348 
L 87.653352 30.207726 
L 87.856261 27.739071 
L 88.05917 28.733065 
L 88.26208 27.072655 
L 88.464989 27.630967 
L 88.667898 29.904236 
L 88.870807 29.736872 
L 89.073716 27.081995 
L 89.276625 28.929219 
L 89.479534 27.781815 
L 89.682443 32.71849 
L 89.885352 21.692002 
L 90.088261 23.494071 
L 90.29117 22.749021 
L 90.49408 27.666416 
L 90.696989 23.462109 
L 90.899898 22.145641 
L 91.305716 22.446412 
L 91.508625 20.968956 
L 91.711534 25.738267 
L 91.914443 25.404294 
L 92.320261 28.466894 
L 92.52317 27.289485 
L 92.72608 25.237289 
L 92.928989 25.376719 
L 93.131898 27.802253 
L 93.334807 27.456799 
L 93.537716 26.557407 
L 93.943534 28.380915 
L 94.146443 27.196557 
L 94.349352 23.866162 
L 94.552261 29.231331 
L 94.95808 26.976529 
L 95.160989 25.931557 
L 95.566807 30.393495 
L 95.769716 25.01818 
L 95.972625 29.569005 
L 96.378443 28.214822 
L 96.581352 27.855968 
L 96.784261 27.071358 
L 96.98717 29.044813 
L 97.19008 27.204626 
L 97.392989 27.321114 
L 97.595898 29.14982 
L 97.798807 28.400924 
L 98.001716 29.998348 
L 98.204625 26.878187 
L 98.407534 28.428272 
L 98.610443 31.12736 
L 98.813352 30.354747 
L 99.016261 31.303706 
L 99.21917 29.393005 
L 99.42208 32.472675 
L 99.624989 31.116817 
L 99.827898 31.421119 
L 100.030807 30.299912 
L 100.233716 32.693345 
L 100.436625 29.31325 
L 100.639534 30.442011 
L 100.842443 29.599632 
L 101.045352 33.491751 
L 101.248261 29.754905 
L 101.65408 31.704266 
L 101.856989 29.224281 
L 102.059898 29.774241 
L 102.262807 30.689601 
L 102.465716 32.379557 
L 102.668625 31.104569 
L 102.871534 49.479123 
L 103.074443 32.031586 
L 103.277352 32.14217 
L 103.480261 31.969732 
L 103.68317 31.176839 
L 103.88608 27.837677 
L 104.088989 35.944527 
L 104.291898 29.882792 
L 104.494807 29.04441 
L 104.900625 30.931005 
L 105.103534 32.891991 
L 105.509352 30.606417 
L 105.712261 32.134503 
L 105.91517 30.901604 
L 106.11808 31.49818 
L 106.523898 31.542435 
L 106.726807 27.522133 
L 106.929716 33.17055 
L 107.132625 32.828589 
L 107.335534 33.469438 
L 107.538443 33.380633 
L 107.944261 30.906413 
L 108.14717 33.974942 
L 108.35008 33.944541 
L 108.552989 31.673084 
L 108.755898 34.276481 
L 109.161716 34.635209 
L 109.364625 32.826871 
L 109.770443 35.234831 
L 110.176261 31.886076 
L 110.37917 32.414308 
L 110.58208 30.787741 
L 110.784989 32.809499 
L 110.987898 32.547979 
L 111.190807 31.924603 
L 111.393716 32.04719 
L 111.799534 36.149455 
L 112.205352 30.234068 
L 112.408261 34.637859 
L 112.61117 35.262507 
L 112.81408 33.572406 
L 113.016989 33.074682 
L 113.219898 34.199125 
L 113.422807 30.914149 
L 113.625716 33.226644 
L 113.828625 33.880711 
L 114.031534 32.360536 
L 114.437352 34.757538 
L 114.640261 34.309545 
L 114.84317 31.899042 
L 115.04608 33.88603 
L 115.248989 32.899097 
L 115.451898 33.739972 
L 115.654807 33.800333 
L 115.857716 34.794019 
L 116.060625 32.941653 
L 116.263534 33.664793 
L 116.466443 31.514834 
L 116.669352 32.128096 
L 116.872261 32.372936 
L 117.27808 31.182957 
L 117.683898 31.843703 
L 117.886807 33.830854 
L 118.089716 34.656628 
L 118.495534 32.111359 
L 118.698443 36.777357 
L 118.901352 31.056412 
L 119.104261 29.089295 
L 119.712989 34.576572 
L 120.118807 29.938616 
L 120.321716 31.635476 
L 120.524625 30.799493 
L 120.727534 32.927176 
L 120.930443 30.803458 
L 121.133352 31.373352 
L 121.336261 31.564232 
L 121.53917 32.155602 
L 121.74208 32.049059 
L 121.944989 31.355218 
L 122.147898 33.676173 
L 122.553716 30.475477 
L 122.756625 29.421083 
L 122.959534 29.74598 
L 123.162443 29.187025 
L 123.365352 31.601361 
L 123.568261 31.073224 
L 123.97408 29.687072 
L 124.176989 29.38588 
L 124.379898 31.063851 
L 124.582807 29.8582 
L 124.785716 30.617665 
L 125.191534 29.125096 
L 125.394443 30.330408 
L 125.597352 29.837605 
L 125.800261 30.22051 
L 126.00317 29.147227 
L 126.20608 29.451982 
L 126.408989 30.057136 
L 126.611898 28.224257 
L 126.814807 29.893165 
L 127.017716 29.056741 
L 127.220625 30.756012 
L 127.423534 28.095244 
L 127.626443 28.643328 
L 127.829352 28.176672 
L 128.032261 29.576073 
L 128.23517 29.950883 
L 128.43808 27.862079 
L 128.640989 29.365807 
L 128.843898 27.468569 
L 129.046807 27.679225 
L 129.249716 29.905747 
L 129.452625 29.337275 
L 129.655534 30.04001 
L 129.858443 28.811536 
L 130.061352 31.774485 
L 130.264261 25.839353 
L 130.46717 25.593487 
L 130.67008 25.818305 
L 130.872989 22.742833 
L 131.075898 25.670094 
L 131.278807 20.113561 
L 131.481716 23.017464 
L 131.684625 28.305069 
L 131.887534 22.161081 
L 132.090443 23.034125 
L 132.293352 22.011441 
L 132.69917 26.814099 
L 132.90208 21.706957 
L 133.104989 25.505701 
L 133.307898 33.005439 
L 133.713716 27.344459 
L 133.916625 26.878187 
L 134.119534 28.611624 
L 134.322443 27.590042 
L 134.525352 28.832621 
L 134.728261 28.59169 
L 134.93117 25.735347 
L 135.13408 27.745932 
L 135.336989 28.445638 
L 135.539898 30.199594 
L 135.945716 28.707234 
L 136.148625 30.214146 
L 136.351534 30.762401 
L 136.757352 25.663705 
L 136.960261 24.552185 
L 137.16317 28.026787 
L 137.36608 28.388512 
L 137.568989 28.254727 
L 137.771898 27.676374 
L 137.974807 26.042965 
L 138.177716 26.38361 
L 138.380625 28.805682 
L 138.583534 27.100519 
L 138.786443 31.394407 
L 138.989352 29.045241 
L 139.192261 29.351765 
L 139.800989 31.266916 
L 140.003898 29.142418 
L 140.206807 30.603377 
L 140.409716 30.054896 
L 140.612625 31.966189 
L 141.018443 29.494953 
L 141.221352 32.213181 
L 141.62717 29.036574 
L 141.83008 31.585676 
L 142.032989 32.667777 
L 142.235898 30.835194 
L 142.438807 31.49441 
L 142.641716 29.80108 
L 142.844625 34.512754 
L 143.250443 29.899339 
L 143.453352 29.817917 
L 143.656261 33.794624 
L 143.85917 35.086488 
L 144.06208 30.986306 
L 144.264989 31.026961 
L 144.467898 32.075325 
L 144.670807 29.676064 
L 144.873716 29.523686 
L 145.279534 33.256573 
L 145.482443 32.792529 
L 145.685352 33.619405 
L 145.888261 32.125912 
L 146.09117 29.749045 
L 146.29408 31.160185 
L 146.496989 29.630386 
L 146.699898 32.142573 
L 146.902807 30.611597 
L 147.105716 31.408581 
L 147.308625 33.19173 
L 147.511534 32.123595 
L 147.714443 30.027585 
L 147.917352 32.536656 
L 148.120261 31.695517 
L 148.52608 34.523486 
L 148.728989 31.594576 
L 148.931898 31.183927 
L 149.134807 34.911552 
L 149.540625 33.77318 
L 149.743534 34.057718 
L 149.946443 33.486452 
L 150.149352 35.167445 
L 150.352261 30.029568 
L 150.55517 32.490972 
L 150.75808 31.555105 
L 150.960989 34.376811 
L 151.163898 33.650039 
L 151.366807 33.477023 
L 151.569716 32.672693 
L 151.772625 34.958904 
L 151.975534 31.530683 
L 152.178443 32.01298 
L 152.381352 31.834998 
L 152.584261 34.531215 
L 152.78717 32.072719 
L 152.99008 32.050211 
L 153.192989 33.813362 
L 153.395898 32.425568 
L 153.598807 33.372381 
L 153.801716 30.621825 
L 154.004625 31.651627 
L 154.207534 34.160623 
L 154.410443 32.556571 
L 154.613352 32.81753 
L 154.816261 33.933092 
L 155.01917 32.118604 
L 155.22208 34.310759 
L 155.424989 33.363229 
L 155.627898 33.782942 
L 155.830807 32.6986 
L 156.033716 30.770187 
L 156.236625 31.314797 
L 156.439534 34.621645 
L 156.642443 31.264399 
L 156.845352 35.566947 
L 157.048261 31.926214 
L 157.25117 32.477055 
L 157.45408 34.781821 
L 157.859898 32.112511 
L 158.062807 30.169036 
L 158.265716 29.960677 
L 158.671534 33.688415 
L 158.874443 28.19441 
L 159.077352 33.694873 
L 159.280261 33.020243 
L 159.48317 31.939407 
L 159.68608 31.613937 
L 159.888989 32.005987 
L 160.091898 33.045879 
L 160.294807 31.535832 
L 160.497716 33.581684 
L 160.700625 31.294775 
L 160.903534 33.876544 
L 161.106443 30.303902 
L 161.309352 30.438417 
L 161.71517 33.025895 
L 161.91808 33.287138 
L 162.120989 29.093833 
L 162.323898 32.701061 
L 162.526807 31.969695 
L 162.729716 32.498865 
L 162.932625 32.196193 
L 163.135534 29.213669 
L 163.338443 31.820168 
L 163.541352 32.568895 
L 163.744261 31.189667 
L 163.94717 28.450636 
L 164.15008 32.053012 
L 164.352989 28.337522 
L 164.555898 31.355036 
L 164.758807 32.119448 
L 164.961716 32.196344 
L 165.164625 31.055732 
L 165.367534 31.741201 
L 165.570443 30.594269 
L 166.17917 29.068933 
L 166.38208 30.450237 
L 166.584989 27.199043 
L 166.787898 28.179914 
L 166.990807 27.526407 
L 167.193716 31.860911 
L 167.599534 28.461475 
L 167.802443 30.352419 
L 168.005352 29.185345 
L 168.208261 29.610824 
L 168.41117 30.754149 
L 168.61408 25.93354 
L 168.816989 28.349456 
L 169.019898 26.073619 
L 169.222807 31.195376 
L 169.425716 28.218768 
L 169.831534 31.015606 
L 170.034443 26.907355 
L 170.237352 27.932625 
L 170.440261 24.973037 
L 170.64317 29.211472 
L 170.84608 24.496569 
L 171.048989 29.120722 
L 171.251898 27.459625 
L 171.657716 21.347001 
L 171.860625 22.942474 
L 172.063534 19.790861 
L 172.266443 23.274723 
L 172.469352 23.778269 
L 172.672261 23.975852 
L 172.87517 31.300081 
L 173.280989 26.413716 
L 173.483898 26.34621 
L 173.686807 28.19874 
L 173.889716 27.773677 
L 174.092625 28.392509 
L 174.295534 26.700734 
L 174.498443 30.857645 
L 174.701352 26.829445 
L 174.904261 28.560408 
L 175.10717 24.832008 
L 175.31008 28.697138 
L 175.512989 27.886923 
L 175.715898 28.075429 
L 175.918807 27.726621 
L 176.121716 26.344234 
L 176.324625 26.340495 
L 176.527534 29.933857 
L 176.730443 29.89983 
L 176.933352 28.473264 
L 177.136261 29.529256 
L 177.33917 26.671881 
L 177.744989 28.189399 
L 177.947898 26.061326 
L 178.150807 27.466284 
L 178.353716 27.477211 
L 178.556625 28.285796 
L 178.759534 27.752113 
L 178.962443 28.188562 
L 179.165352 28.303577 
L 179.368261 29.18678 
L 179.57117 29.03028 
L 179.77408 27.725922 
L 179.976989 31.3242 
L 180.179898 29.446544 
L 180.382807 31.284282 
L 180.585716 29.715673 
L 180.788625 32.552032 
L 181.194443 31.72172 
L 181.397352 29.913111 
L 181.80317 33.364866 
L 182.00608 28.450479 
L 182.208989 29.705363 
L 182.411898 28.577515 
L 182.614807 29.890723 
L 182.817716 30.09905 
L 183.020625 29.685259 
L 183.223534 32.748369 
L 183.426443 30.615631 
L 183.629352 31.989238 
L 183.832261 30.716893 
L 184.03517 30.907194 
L 184.23808 32.303579 
L 184.440989 30.627276 
L 184.846807 32.914544 
L 185.049716 34.863583 
L 185.252625 30.848191 
L 185.658443 33.106153 
L 185.861352 31.312946 
L 186.064261 31.398189 
L 186.26717 29.923346 
L 186.47008 33.20102 
L 186.672989 33.098707 
L 187.078807 31.944404 
L 187.484625 28.73654 
L 187.890443 31.579596 
L 188.093352 32.195589 
L 188.296261 31.700011 
L 188.49917 34.922284 
L 188.70208 33.158823 
L 188.904989 33.173854 
L 189.107898 32.539941 
L 189.310807 34.422772 
L 189.513716 33.754631 
L 189.716625 32.409877 
L 189.919534 32.412646 
L 190.122443 33.21449 
L 190.325352 35.333896 
L 190.73117 32.32965 
L 190.93408 34.90252 
L 191.339898 31.77147 
L 191.542807 34.529881 
L 191.948625 30.953305 
L 192.151534 35.88998 
L 192.354443 33.513819 
L 192.557352 34.130001 
L 192.760261 31.502592 
L 192.96317 32.682493 
L 193.16608 32.887 
L 193.368989 34.000176 
L 193.571898 33.063931 
L 193.774807 34.716273 
L 193.977716 32.804784 
L 194.180625 32.808366 
L 194.383534 33.65279 
L 194.586443 31.887964 
L 194.992261 34.636657 
L 195.19517 33.535654 
L 195.39808 34.454268 
L 195.600989 32.197654 
L 195.803898 32.305241 
L 196.006807 32.256322 
L 196.209716 33.853589 
L 196.615534 30.674678 
L 196.818443 35.02955 
L 197.021352 34.414042 
L 197.224261 31.086964 
L 197.42717 31.197283 
L 197.63008 31.119681 
L 198.035898 32.649851 
L 198.238807 30.439632 
L 198.441716 33.804374 
L 198.644625 22.911802 
L 198.847534 31.728247 
L 199.050443 28.82892 
L 199.253352 30.602149 
L 199.456261 30.892811 
L 199.65917 33.139462 
L 199.86208 30.41487 
L 200.064989 33.637822 
L 200.267898 33.520485 
L 200.470807 33.925709 
L 200.673716 29.859358 
L 200.876625 32.359114 
L 201.079534 31.069195 
L 201.485352 34.105623 
L 201.688261 31.305771 
L 201.89117 30.539578 
L 202.09408 31.270699 
L 202.296989 31.509264 
L 202.499898 33.023768 
L 202.702807 32.78205 
L 202.905716 30.865047 
L 203.108625 31.479864 
L 203.311534 31.289305 
L 203.514443 32.348495 
L 203.717352 31.490167 
L 203.920261 29.466811 
L 204.12317 31.952279 
L 204.32608 31.041954 
L 204.528989 31.700427 
L 204.731898 30.160922 
L 204.934807 30.675118 
L 205.137716 30.389781 
L 205.340625 32.908375 
L 205.543534 29.836063 
L 205.746443 28.996417 
L 205.949352 31.442148 
L 206.152261 29.939232 
L 206.35517 30.015733 
L 206.55808 30.890942 
L 206.760989 28.432307 
L 206.963898 29.159985 
L 207.166807 27.124425 
L 207.572625 30.414474 
L 207.978443 28.346416 
L 208.181352 30.764579 
L 208.384261 27.805935 
L 208.58717 27.507965 
L 208.79008 29.00064 
L 208.992989 29.420316 
L 209.195898 30.132063 
L 209.398807 28.778661 
L 209.601716 26.570959 
L 209.804625 27.129076 
L 210.007534 28.651101 
L 210.210443 26.510219 
L 210.413352 30.47583 
L 210.616261 27.726835 
L 210.81917 29.966946 
L 211.224989 26.390226 
L 211.427898 25.504027 
L 211.630807 24.085164 
L 211.833716 21.342495 
L 212.036625 24.248676 
L 212.239534 20.307795 
L 212.442443 30.808141 
L 212.645352 25.658941 
L 212.848261 24.575272 
L 213.05117 21.169843 
L 213.25408 26.478144 
L 213.456989 25.132628 
L 213.659898 24.904392 
L 213.862807 26.288145 
L 214.065716 30.457092 
L 214.674443 26.930247 
L 214.877352 27.872666 
L 215.28317 26.506178 
L 215.48608 27.579631 
L 215.688989 29.62092 
L 215.891898 32.949772 
L 216.094807 25.439536 
L 216.297716 25.756369 
L 216.703534 30.265023 
L 217.109352 28.728521 
L 217.312261 29.886694 
L 217.51517 29.358984 
L 217.71808 28.213563 
L 217.920989 28.396625 
L 218.123898 30.971307 
L 218.326807 28.816879 
L 218.529716 30.2075 
L 218.935534 26.607195 
L 219.138443 26.549791 
L 219.341352 29.385685 
L 219.544261 29.867686 
L 219.74717 31.474356 
L 219.95008 30.013423 
L 220.152989 29.959317 
L 220.355898 32.677508 
L 220.558807 30.995017 
L 220.761716 31.166592 
L 220.964625 32.651261 
L 221.167534 29.716296 
L 221.370443 31.747212 
L 221.776261 30.450565 
L 221.97917 31.136021 
L 222.18208 30.772717 
L 222.384989 30.805233 
L 222.587898 31.756704 
L 222.790807 29.288168 
L 222.993716 30.550152 
L 223.196625 29.938584 
L 223.399534 31.662806 
L 223.602443 29.390267 
L 223.805352 31.377846 
L 224.008261 29.005902 
L 224.21117 31.397163 
L 224.41408 36.602351 
L 224.616989 33.12931 
L 224.819898 33.505656 
L 225.022807 28.000276 
L 225.225716 33.617429 
L 225.834443 28.453896 
L 226.037352 33.425933 
L 226.44317 29.379642 
L 226.64608 30.83221 
L 227.051898 32.479825 
L 227.254807 30.580629 
L 227.457716 32.369764 
L 227.660625 31.501358 
L 227.863534 31.405245 
L 228.066443 30.673992 
L 228.269352 30.501284 
L 228.472261 30.608727 
L 228.67517 30.172088 
L 228.87808 32.782704 
L 229.283898 30.015726 
L 229.486807 34.311011 
L 229.689716 32.34514 
L 230.095534 36.496847 
L 230.298443 38.441424 
L 230.501352 35.71157 
L 230.704261 34.51232 
L 230.90717 34.593145 
L 231.11008 34.106429 
L 231.312989 31.800058 
L 231.515898 33.478206 
L 231.718807 36.08278 
L 231.921716 33.909822 
L 232.327534 34.207395 
L 232.530443 33.866228 
L 232.936261 30.431443 
L 233.13917 31.611753 
L 233.34208 33.467682 
L 233.544989 32.462264 
L 233.747898 33.142377 
L 233.950807 31.711423 
L 234.153716 33.946656 
L 234.356625 27.447037 
L 234.559534 33.744736 
L 234.762443 32.538865 
L 234.965352 33.238886 
L 235.168261 33.516406 
L 235.37117 33.500035 
L 235.57408 31.032418 
L 235.776989 34.935092 
L 235.979898 31.978752 
L 236.385716 35.527035 
L 236.791534 30.196724 
L 236.994443 31.905701 
L 237.197352 30.019352 
L 237.400261 29.43663 
L 237.60317 29.841816 
L 237.80608 32.793518 
L 238.008989 31.60483 
L 238.211898 33.140916 
L 238.414807 30.769362 
L 238.617716 31.92087 
L 239.023534 28.930327 
L 239.429352 32.550113 
L 239.632261 31.778935 
L 239.83517 33.664824 
L 240.03808 32.028042 
L 240.240989 33.269218 
L 240.443898 27.671943 
L 240.646807 30.443622 
L 240.849716 29.860044 
L 241.052625 31.143801 
L 241.255534 30.94642 
L 241.458443 33.367673 
L 241.661352 34.158501 
L 241.864261 32.756715 
L 242.06717 29.490024 
L 242.27008 32.187016 
L 242.472989 31.987596 
L 242.675898 33.175402 
L 242.878807 31.498287 
L 243.081716 31.399266 
L 243.284625 30.890426 
L 243.487534 31.626092 
L 243.690443 30.153199 
L 243.893352 30.23267 
L 244.096261 32.207063 
L 244.29917 31.810387 
L 244.50208 32.963664 
L 244.704989 30.04755 
L 244.907898 31.639813 
L 245.110807 31.477107 
L 245.313716 31.157233 
L 245.516625 32.558874 
L 245.719534 31.953928 
L 245.922443 30.566593 
L 246.125352 30.413038 
L 246.328261 30.949044 
L 246.53117 30.963213 
L 246.73408 29.4546 
L 246.936989 29.271123 
L 247.139898 28.610869 
L 247.342807 30.531465 
L 247.545716 30.949346 
L 247.951534 29.377433 
L 248.154443 29.227567 
L 248.357352 30.122722 
L 248.560261 28.979894 
L 248.76317 30.653787 
L 248.96608 29.544564 
L 249.168989 26.621313 
L 249.371898 28.22573 
L 249.574807 28.756713 
L 249.777716 27.067197 
L 249.980625 30.809815 
L 250.183534 28.476335 
L 250.386443 29.254613 
L 250.589352 29.563226 
L 250.792261 30.189435 
L 250.99517 32.88554 
L 250.99517 32.88554 
" style="fill:none;stroke:#1f77b4;stroke-linecap:square;stroke-width:1.5;"/>
   </g>
   <g id="line2d_24">
    <path clip-path="url(#p69ddc9aa78)" d="M 48.08608 107.910733 
L 48.288989 107.916003 
L 48.491898 109.128933 
L 48.694807 106.152699 
L 48.897716 108.21603 
L 49.100625 106.716221 
L 49.303534 107.642702 
L 49.506443 112.320485 
L 49.709352 109.523554 
L 49.912261 113.385738 
L 50.11517 111.564706 
L 50.31808 111.847214 
L 50.723898 109.340194 
L 50.926807 114.016115 
L 51.129716 114.183928 
L 51.332625 108.881759 
L 51.535534 114.500697 
L 51.941352 112.700249 
L 52.144261 111.97481 
L 52.34717 110.497507 
L 52.55008 112.910359 
L 52.752989 113.33739 
L 52.955898 110.907851 
L 53.158807 111.688314 
L 53.361716 113.439186 
L 53.767534 111.366768 
L 53.970443 111.771111 
L 54.376261 111.595237 
L 54.78208 111.153512 
L 54.984989 110.832833 
L 55.187898 112.193844 
L 55.390807 109.342095 
L 55.593716 110.342275 
L 55.796625 113.027357 
L 55.999534 111.763339 
L 56.202443 114.068995 
L 56.81117 113.581839 
L 57.01408 110.476265 
L 57.216989 114.217878 
L 57.419898 114.187903 
L 57.622807 113.769826 
L 57.825716 111.531513 
L 58.028625 110.829073 
L 58.231534 115.129173 
L 58.840261 112.61783 
L 59.04317 112.53761 
L 59.24608 114.138699 
L 59.448989 113.524096 
L 59.854807 109.998249 
L 60.057716 112.681772 
L 60.260625 111.42255 
L 60.463534 113.910084 
L 60.666443 113.165625 
L 60.869352 111.009804 
L 61.072261 113.007968 
L 61.27517 110.28609 
L 61.47808 111.482244 
L 61.680989 109.590801 
L 61.883898 113.804676 
L 62.086807 111.929165 
L 62.289716 111.320178 
L 62.492625 111.452254 
L 62.695534 113.436106 
L 62.898443 106.708373 
L 63.304261 110.350234 
L 63.50717 115.192041 
L 63.71008 110.96735 
L 63.912989 111.171316 
L 64.115898 113.260527 
L 64.521716 106.970274 
L 64.724625 115.382301 
L 65.130443 112.176613 
L 65.333352 112.456709 
L 65.536261 108.250817 
L 65.73917 113.324275 
L 65.94208 112.31033 
L 66.144989 110.648032 
L 66.347898 115.358667 
L 66.550807 114.485458 
L 66.753716 112.535936 
L 66.956625 113.191287 
L 67.159534 112.938113 
L 67.362443 113.338064 
L 67.565352 112.19321 
L 67.768261 112.999165 
L 68.17408 109.845925 
L 68.376989 110.714108 
L 68.579898 110.22483 
L 68.985716 111.617653 
L 69.188625 108.883907 
L 69.391534 108.379399 
L 69.594443 109.436299 
L 69.797352 108.142581 
L 70.20317 112.027197 
L 70.40608 111.877954 
L 70.608989 110.424903 
L 70.811898 112.125591 
L 71.014807 109.778024 
L 71.217716 113.322855 
L 71.420625 109.519146 
L 71.623534 110.421248 
L 71.826443 112.578978 
L 72.029352 110.604534 
L 72.232261 110.939242 
L 72.43517 109.185605 
L 72.63808 113.027565 
L 72.840989 108.805588 
L 73.043898 107.831617 
L 73.246807 109.051974 
L 73.449716 105.803581 
L 73.652625 108.19147 
L 73.855534 106.304425 
L 74.058443 106.978719 
L 74.261352 109.603663 
L 74.464261 107.321539 
L 74.66717 108.866222 
L 74.87008 107.084412 
L 75.072989 109.324164 
L 75.275898 107.627269 
L 75.478807 108.164715 
L 75.681716 110.124422 
L 76.087534 106.477633 
L 76.290443 107.800585 
L 76.696261 107.22939 
L 76.89917 107.214676 
L 77.507898 110.364943 
L 77.710807 109.078586 
L 77.913716 106.521553 
L 78.116625 108.64212 
L 78.319534 112.559866 
L 78.522443 113.213872 
L 78.725352 107.735418 
L 78.928261 110.555117 
L 79.13117 106.068692 
L 79.33408 109.621413 
L 79.536989 105.886966 
L 79.739898 108.866925 
L 79.942807 108.351822 
L 80.145716 111.334617 
L 80.551534 107.651466 
L 80.754443 108.324238 
L 80.957352 109.597288 
L 81.160261 105.6232 
L 81.36317 109.259328 
L 81.56608 108.412798 
L 81.768989 108.533107 
L 81.971898 108.843342 
L 82.174807 108.646902 
L 82.377716 107.250409 
L 82.580625 106.791569 
L 82.783534 108.879465 
L 82.986443 106.238106 
L 83.189352 105.791415 
L 83.392261 106.673479 
L 83.59517 105.679178 
L 83.79808 107.09756 
L 84.000989 105.900406 
L 84.203898 107.984023 
L 84.406807 105.830909 
L 84.609716 106.326822 
L 84.812625 108.416599 
L 85.015534 104.308515 
L 85.218443 107.741465 
L 85.421352 108.641839 
L 85.82717 107.545594 
L 86.03008 106.400826 
L 86.232989 106.896955 
L 86.435898 106.469866 
L 86.638807 107.252121 
L 86.841716 105.250404 
L 87.044625 111.158486 
L 87.247534 107.267071 
L 87.450443 105.66484 
L 87.653352 107.9953 
L 87.856261 108.389053 
L 88.05917 110.032022 
L 88.26208 107.501274 
L 88.464989 107.542595 
L 88.667898 104.945871 
L 88.870807 108.344354 
L 89.073716 106.086057 
L 89.276625 106.774295 
L 89.479534 107.90661 
L 89.682443 115.272139 
L 90.088261 107.234687 
L 90.29117 112.317125 
L 90.49408 107.925419 
L 90.696989 110.420388 
L 90.899898 108.887859 
L 91.102807 108.227701 
L 91.305716 111.06217 
L 91.508625 110.937936 
L 91.711534 112.762572 
L 91.914443 111.666992 
L 92.117352 114.744877 
L 92.320261 114.959947 
L 92.52317 110.172206 
L 92.72608 113.506885 
L 92.928989 114.365739 
L 93.131898 112.575343 
L 93.334807 109.517544 
L 93.537716 112.299596 
L 93.740625 112.375005 
L 93.943534 113.50931 
L 94.146443 112.615233 
L 94.349352 112.778489 
L 94.552261 110.930727 
L 94.75517 111.11132 
L 94.95808 112.847544 
L 95.160989 111.160606 
L 95.363898 114.681461 
L 95.566807 111.024495 
L 95.769716 111.512025 
L 95.972625 109.802953 
L 96.175534 110.761923 
L 96.378443 113.071138 
L 96.581352 113.547164 
L 96.784261 112.17277 
L 96.98717 112.286065 
L 97.19008 111.836684 
L 97.392989 110.872306 
L 97.595898 114.066261 
L 97.798807 114.172723 
L 98.001716 113.961252 
L 98.204625 115.534292 
L 98.610443 112.224154 
L 98.813352 114.701386 
L 99.016261 111.38 
L 99.42208 113.263618 
L 99.624989 111.765731 
L 99.827898 114.261662 
L 100.030807 111.534404 
L 100.436625 113.203144 
L 100.639534 112.24744 
L 100.842443 113.361403 
L 101.045352 110.665428 
L 101.248261 112.655595 
L 101.45117 111.852919 
L 101.65408 110.080592 
L 101.856989 113.310973 
L 102.059898 111.154981 
L 102.262807 112.367451 
L 102.465716 108.976298 
L 102.668625 111.221266 
L 102.871534 103.414553 
L 103.074443 113.256804 
L 103.277352 116.756599 
L 103.480261 111.241112 
L 103.68317 110.001207 
L 103.88608 114.872692 
L 104.088989 109.597872 
L 104.291898 108.269155 
L 104.494807 114.685291 
L 104.697716 114.744412 
L 105.103534 109.620257 
L 105.306443 113.291105 
L 105.509352 111.773474 
L 105.712261 111.36111 
L 105.91517 116.326911 
L 106.320989 112.359691 
L 106.523898 114.325182 
L 106.726807 112.371325 
L 106.929716 112.73743 
L 107.132625 115.844737 
L 107.335534 109.881452 
L 107.538443 113.022594 
L 107.741352 113.468461 
L 108.14717 111.740656 
L 108.552989 112.659395 
L 108.755898 112.226611 
L 108.958807 110.828282 
L 109.161716 108.623603 
L 109.364625 110.532617 
L 109.567534 110.117601 
L 109.770443 111.770025 
L 109.973352 109.791334 
L 110.176261 111.386555 
L 110.37917 108.958936 
L 110.58208 111.992139 
L 110.784989 109.748919 
L 110.987898 110.412188 
L 111.190807 108.982126 
L 111.393716 108.789378 
L 111.596625 111.254694 
L 111.799534 111.739565 
L 112.002443 111.274367 
L 112.205352 111.653668 
L 112.61117 110.076436 
L 112.81408 111.641906 
L 113.016989 110.854641 
L 113.219898 110.794903 
L 113.422807 112.121006 
L 113.828625 109.832409 
L 114.234443 108.406581 
L 114.437352 109.250279 
L 114.640261 106.515242 
L 114.84317 105.581176 
L 115.248989 108.308344 
L 115.451898 107.900155 
L 115.857716 106.388942 
L 116.060625 106.016409 
L 116.263534 108.478211 
L 116.466443 106.505771 
L 116.872261 108.927207 
L 117.07517 106.228994 
L 117.480989 109.359386 
L 117.683898 106.67281 
L 117.886807 111.46589 
L 118.089716 113.0065 
L 118.495534 108.151275 
L 118.698443 107.662254 
L 118.901352 108.783334 
L 119.104261 104.986735 
L 119.30717 111.219527 
L 119.51008 108.184985 
L 119.712989 111.778136 
L 119.915898 106.860416 
L 120.118807 107.856734 
L 120.321716 107.344809 
L 120.524625 108.694755 
L 120.727534 108.940419 
L 120.930443 108.644915 
L 121.133352 109.464954 
L 121.336261 106.879546 
L 121.53917 106.937596 
L 121.944989 108.876292 
L 122.147898 108.876436 
L 122.350807 107.646311 
L 122.553716 107.163193 
L 122.756625 108.336963 
L 122.959534 110.385212 
L 123.162443 110.148972 
L 123.568261 108.182538 
L 123.97408 109.472959 
L 124.176989 110.359184 
L 124.379898 105.388704 
L 124.582807 108.746854 
L 124.785716 108.204439 
L 124.988625 105.362533 
L 125.191534 108.603479 
L 125.394443 108.169865 
L 125.597352 105.471455 
L 125.800261 107.766511 
L 126.20608 104.714584 
L 126.408989 109.369493 
L 126.814807 106.29696 
L 127.423534 106.958585 
L 127.626443 107.055522 
L 127.829352 106.691319 
L 128.032261 107.811147 
L 128.23517 105.115862 
L 128.43808 109.810354 
L 128.640989 106.54496 
L 128.843898 109.287646 
L 129.046807 107.81064 
L 129.452625 106.582973 
L 129.655534 108.924987 
L 130.061352 106.449846 
L 130.264261 108.350318 
L 130.46717 108.877866 
L 130.67008 108.586458 
L 130.872989 107.236402 
L 131.075898 111.668627 
L 131.278807 110.036216 
L 131.481716 113.434322 
L 131.887534 109.799 
L 132.293352 112.048176 
L 132.69917 113.992175 
L 132.90208 109.67073 
L 133.104989 110.631738 
L 133.307898 116.015381 
L 133.510807 115.465268 
L 133.713716 110.303567 
L 133.916625 113.731565 
L 134.119534 113.960909 
L 134.322443 112.397997 
L 134.525352 113.553366 
L 134.728261 111.14605 
L 134.93117 110.575754 
L 135.13408 113.555152 
L 135.336989 110.663635 
L 135.539898 111.0689 
L 135.742807 110.784506 
L 135.945716 112.383923 
L 136.148625 111.797209 
L 136.351534 112.609437 
L 136.554443 115.178768 
L 136.757352 113.809716 
L 136.960261 111.482587 
L 137.16317 112.610939 
L 137.36608 110.077308 
L 137.771898 113.547489 
L 138.177716 115.891351 
L 138.583534 110.856292 
L 138.989352 115.019896 
L 139.192261 114.331612 
L 139.39517 111.042544 
L 139.59808 113.66648 
L 139.800989 114.032284 
L 140.003898 111.415693 
L 140.206807 113.613926 
L 140.409716 113.745621 
L 140.612625 112.580781 
L 140.815534 113.002684 
L 141.018443 114.462075 
L 141.221352 112.319159 
L 141.424261 111.417937 
L 141.62717 112.18703 
L 141.83008 113.846694 
L 142.032989 112.624987 
L 142.235898 112.886791 
L 142.438807 111.894124 
L 142.641716 113.81958 
L 142.844625 113.552742 
L 143.047534 113.948199 
L 143.250443 110.904017 
L 143.453352 113.8424 
L 143.656261 109.149764 
L 143.85917 108.352874 
L 144.06208 112.942609 
L 144.264989 113.020608 
L 144.467898 111.05303 
L 144.670807 113.86146 
L 145.076625 111.2844 
L 145.482443 110.728142 
L 145.685352 111.63765 
L 145.888261 114.538561 
L 146.09117 114.347566 
L 146.29408 113.725317 
L 146.496989 111.910903 
L 146.699898 113.240476 
L 146.902807 109.513281 
L 147.105716 114.457713 
L 147.308625 115.785045 
L 147.511534 112.037097 
L 147.714443 114.136326 
L 147.917352 112.801422 
L 148.120261 113.979794 
L 148.32317 110.648288 
L 148.52608 110.739465 
L 148.931898 112.726929 
L 149.134807 110.448914 
L 149.337716 109.541469 
L 149.540625 112.657832 
L 149.743534 112.821405 
L 150.352261 108.55805 
L 150.55517 107.930804 
L 150.75808 110.699788 
L 150.960989 110.339952 
L 151.163898 110.22057 
L 151.366807 110.802982 
L 151.569716 110.445763 
L 151.975534 111.36075 
L 152.178443 109.636648 
L 152.381352 109.584159 
L 152.584261 109.204922 
L 152.99008 111.227904 
L 153.192989 109.400273 
L 153.395898 110.362464 
L 153.801716 107.717674 
L 154.004625 107.455306 
L 154.207534 110.314622 
L 154.410443 109.028212 
L 154.613352 110.617889 
L 154.816261 108.179111 
L 155.01917 109.177741 
L 155.22208 109.364393 
L 155.424989 108.316677 
L 155.627898 108.607208 
L 155.830807 106.680103 
L 156.033716 107.182114 
L 156.236625 108.05335 
L 156.642443 108.018306 
L 156.845352 106.432389 
L 157.25117 109.319274 
L 157.45408 107.682898 
L 157.656989 107.56178 
L 157.859898 109.691457 
L 158.062807 106.722586 
L 158.265716 109.003403 
L 158.468625 106.790463 
L 158.671534 110.934078 
L 158.874443 106.47786 
L 159.077352 111.502189 
L 159.48317 110.500769 
L 159.68608 108.160358 
L 159.888989 108.863457 
L 160.091898 106.982222 
L 160.497716 110.05156 
L 160.700625 108.932895 
L 160.903534 108.669895 
L 161.106443 107.643277 
L 161.309352 108.264465 
L 161.512261 108.28471 
L 161.71517 110.573682 
L 161.91808 108.633502 
L 162.120989 109.769581 
L 162.323898 105.799124 
L 162.526807 110.802159 
L 162.729716 107.824465 
L 162.932625 106.495593 
L 163.135534 106.734046 
L 163.338443 107.385384 
L 163.541352 105.838144 
L 163.744261 110.452794 
L 163.94717 107.048775 
L 164.15008 106.343964 
L 164.352989 107.166214 
L 164.555898 106.925477 
L 164.758807 110.639989 
L 164.961716 106.842231 
L 165.164625 108.749444 
L 165.367534 108.306845 
L 165.976261 109.657048 
L 166.38208 106.687988 
L 166.584989 113.60017 
L 166.787898 107.897131 
L 166.990807 108.156893 
L 167.193716 107.540914 
L 167.396625 108.263512 
L 167.599534 104.94267 
L 167.802443 108.299384 
L 168.005352 104.694167 
L 168.41117 106.842407 
L 168.61408 106.855791 
L 168.816989 105.470669 
L 169.222807 109.578733 
L 169.628625 105.424845 
L 169.831534 108.315833 
L 170.034443 107.48554 
L 170.237352 107.758682 
L 170.440261 107.522241 
L 170.64317 111.243227 
L 170.84608 110.987667 
L 171.048989 105.619423 
L 171.251898 106.250582 
L 171.454807 110.956534 
L 171.657716 109.573542 
L 171.860625 110.318907 
L 172.063534 110.583149 
L 172.266443 113.365431 
L 172.469352 113.63009 
L 172.672261 112.277306 
L 172.87517 116.958965 
L 173.280989 110.591108 
L 173.483898 115.085559 
L 173.686807 112.291085 
L 173.889716 114.339165 
L 174.092625 111.98038 
L 174.295534 114.132645 
L 174.498443 114.064106 
L 174.701352 113.251478 
L 174.904261 111.538455 
L 175.10717 112.756144 
L 175.31008 112.110072 
L 175.512989 111.838501 
L 175.715898 113.310544 
L 175.918807 111.155767 
L 176.324625 113.6755 
L 176.527534 112.941197 
L 176.730443 109.478151 
L 176.933352 109.631453 
L 177.136261 110.166941 
L 177.33917 113.015659 
L 177.54208 111.457154 
L 177.744989 112.779427 
L 177.947898 111.238139 
L 178.150807 111.172221 
L 178.353716 112.425049 
L 178.556625 114.385791 
L 178.759534 110.945026 
L 178.962443 114.708964 
L 179.165352 114.067903 
L 179.368261 111.527485 
L 179.57117 112.213966 
L 179.77408 113.927559 
L 179.976989 114.307501 
L 180.179898 114.408238 
L 180.382807 112.623789 
L 180.585716 113.658763 
L 180.788625 111.385623 
L 180.991534 111.877644 
L 181.194443 113.974027 
L 181.397352 112.181995 
L 181.600261 114.135274 
L 181.80317 113.202658 
L 182.00608 114.62358 
L 182.208989 111.166342 
L 182.614807 112.117632 
L 182.817716 112.973489 
L 183.020625 107.840318 
L 183.223534 108.993308 
L 183.426443 112.551663 
L 183.629352 114.111882 
L 183.832261 109.850151 
L 184.03517 112.841459 
L 184.23808 111.113178 
L 184.440989 111.438563 
L 184.643898 112.327738 
L 184.846807 106.537371 
L 185.049716 107.724366 
L 185.252625 113.807437 
L 185.455534 109.802989 
L 185.658443 112.134881 
L 185.861352 115.813601 
L 186.47008 112.912307 
L 186.672989 116.38019 
L 187.078807 112.160884 
L 187.281716 111.034798 
L 187.687534 114.030436 
L 187.890443 112.163723 
L 188.093352 111.692231 
L 188.296261 114.751847 
L 188.49917 111.261944 
L 188.70208 113.184294 
L 188.904989 111.022621 
L 189.107898 112.243231 
L 189.310807 114.591847 
L 189.513716 111.988572 
L 189.716625 112.89737 
L 189.919534 114.585597 
L 190.122443 110.176758 
L 190.325352 108.801153 
L 190.528261 110.981324 
L 190.73117 110.31164 
L 190.93408 110.488144 
L 191.136989 110.987685 
L 191.339898 107.875056 
L 191.542807 110.66487 
L 191.745716 109.90742 
L 192.151534 109.491313 
L 192.354443 112.582589 
L 192.557352 112.550108 
L 192.760261 111.156028 
L 193.16608 112.811593 
L 193.368989 108.310462 
L 193.571898 110.641112 
L 193.774807 110.12538 
L 193.977716 112.666353 
L 194.383534 107.933847 
L 194.586443 112.880176 
L 194.789352 109.720576 
L 194.992261 108.324296 
L 195.19517 109.74078 
L 195.39808 108.648864 
L 195.600989 110.380384 
L 195.803898 110.420521 
L 196.006807 107.334342 
L 196.209716 106.970352 
L 196.412625 110.01771 
L 197.021352 105.515436 
L 197.42717 109.199256 
L 197.63008 107.968176 
L 197.832989 107.987471 
L 198.035898 106.245691 
L 198.238807 107.21554 
L 198.441716 107.414365 
L 198.644625 119.797922 
L 198.847534 106.127461 
L 199.050443 106.093973 
L 199.253352 108.996909 
L 199.456261 108.508541 
L 199.65917 105.842261 
L 199.86208 110.803365 
L 200.064989 107.451608 
L 200.267898 110.32591 
L 200.470807 110.289709 
L 200.673716 108.99469 
L 201.079534 109.531365 
L 201.282443 107.973574 
L 201.485352 109.933706 
L 201.688261 106.431269 
L 201.89117 108.646508 
L 202.09408 108.158536 
L 202.296989 110.630839 
L 202.702807 107.783259 
L 202.905716 106.502449 
L 203.108625 109.037401 
L 203.311534 108.006987 
L 203.514443 108.136444 
L 203.717352 106.644712 
L 203.920261 107.983787 
L 204.12317 108.390405 
L 204.32608 106.734239 
L 204.528989 107.886831 
L 204.731898 107.858083 
L 204.934807 108.849636 
L 205.137716 107.382522 
L 205.340625 108.022164 
L 205.543534 106.535294 
L 205.746443 108.810988 
L 206.152261 107.542114 
L 206.35517 105.996396 
L 206.55808 106.850105 
L 206.760989 106.005157 
L 206.963898 105.662282 
L 207.369716 110.62599 
L 207.775534 106.645467 
L 207.978443 105.376726 
L 208.181352 107.899327 
L 208.384261 107.902625 
L 208.58717 107.342168 
L 208.79008 105.27433 
L 209.195898 108.800844 
L 209.398807 107.517798 
L 209.601716 108.249653 
L 209.804625 108.4902 
L 210.007534 107.663761 
L 210.210443 108.593466 
L 210.413352 111.375622 
L 210.616261 105.497294 
L 210.81917 107.097746 
L 211.02208 109.851225 
L 211.224989 106.932189 
L 211.427898 106.56202 
L 211.630807 109.582251 
L 211.833716 110.835925 
L 212.036625 110.749782 
L 212.239534 109.782641 
L 212.442443 112.861921 
L 212.645352 110.258677 
L 212.848261 109.342914 
L 213.05117 109.495244 
L 213.25408 112.189396 
L 213.456989 112.354461 
L 213.659898 110.696183 
L 213.862807 111.8735 
L 214.065716 116.05529 
L 214.674443 111.020224 
L 215.080261 113.883213 
L 215.28317 113.076036 
L 215.48608 114.173119 
L 215.688989 109.955708 
L 216.094807 113.506287 
L 216.297716 112.12871 
L 216.500625 111.777926 
L 216.703534 112.565478 
L 216.906443 112.205183 
L 217.109352 110.909652 
L 217.312261 112.406149 
L 217.51517 111.28099 
L 217.71808 113.572086 
L 217.920989 110.847977 
L 218.326807 114.237323 
L 218.732625 112.376939 
L 218.935534 113.094771 
L 219.138443 111.72982 
L 219.341352 111.937344 
L 219.544261 111.706398 
L 219.74717 115.227056 
L 219.95008 113.754169 
L 220.152989 113.25036 
L 220.355898 113.959687 
L 220.558807 115.286659 
L 220.964625 110.798814 
L 221.167534 113.67395 
L 221.370443 112.721765 
L 221.573352 112.966251 
L 221.776261 112.979603 
L 221.97917 114.285024 
L 222.18208 111.358254 
L 222.384989 110.224168 
L 222.587898 113.391363 
L 222.790807 109.580628 
L 222.993716 113.091204 
L 223.196625 111.136422 
L 223.399534 110.698263 
L 223.602443 113.283947 
L 223.805352 112.526894 
L 224.008261 112.516427 
L 224.21117 114.636547 
L 224.41408 109.216189 
L 224.616989 111.323782 
L 224.819898 111.350324 
L 225.022807 114.226937 
L 225.225716 112.917027 
L 225.428625 112.497777 
L 225.631534 110.423026 
L 225.834443 113.948381 
L 226.037352 108.882696 
L 226.44317 113.474828 
L 226.64608 112.091177 
L 226.848989 109.2367 
L 227.254807 111.752401 
L 227.457716 111.423558 
L 227.660625 109.720867 
L 227.863534 114.382836 
L 228.269352 112.665125 
L 228.472261 113.646605 
L 228.67517 113.967583 
L 228.87808 112.678257 
L 229.080989 112.460778 
L 229.283898 111.545834 
L 229.486807 111.24213 
L 229.689716 113.824704 
L 229.892625 110.655346 
L 230.095534 116.779688 
L 230.298443 111.489213 
L 230.501352 110.801145 
L 230.90717 112.340787 
L 231.11008 112.059597 
L 231.312989 112.453657 
L 231.515898 108.597932 
L 231.718807 112.634298 
L 231.921716 109.407323 
L 232.124625 111.46639 
L 232.327534 106.163874 
L 232.530443 112.085279 
L 232.733352 110.556057 
L 232.936261 110.201959 
L 233.13917 111.227295 
L 233.34208 109.246352 
L 233.747898 111.701195 
L 233.950807 109.672493 
L 234.153716 111.529278 
L 234.356625 108.209235 
L 234.559534 108.763736 
L 234.762443 110.262152 
L 234.965352 109.885899 
L 235.168261 107.740525 
L 235.57408 110.954931 
L 235.776989 106.952583 
L 235.979898 109.292688 
L 236.182807 109.883064 
L 236.385716 106.544658 
L 236.588625 107.144944 
L 236.791534 109.199309 
L 236.994443 109.135802 
L 237.197352 109.365387 
L 237.60317 107.959853 
L 237.80608 109.807947 
L 238.008989 108.256531 
L 238.211898 104.51936 
L 238.414807 107.904487 
L 238.617716 107.712614 
L 238.820625 108.514705 
L 239.023534 109.867298 
L 239.429352 105.243384 
L 239.632261 110.472746 
L 239.83517 108.53597 
L 240.03808 108.35704 
L 240.240989 110.446101 
L 240.443898 107.674797 
L 240.646807 110.661489 
L 240.849716 104.655139 
L 241.052625 107.515012 
L 241.255534 108.602314 
L 241.458443 110.363932 
L 241.661352 110.190454 
L 241.864261 106.637608 
L 242.06717 107.816402 
L 242.27008 105.80728 
L 242.675898 108.548726 
L 242.878807 106.209662 
L 243.284625 107.489238 
L 243.487534 105.422712 
L 243.893352 110.817963 
L 244.096261 108.214984 
L 244.29917 108.21871 
L 244.50208 108.066375 
L 244.704989 107.009483 
L 244.907898 109.15599 
L 245.110807 103.938794 
L 245.313716 107.690633 
L 245.516625 104.899454 
L 245.719534 108.314494 
L 245.922443 105.449262 
L 246.125352 108.922289 
L 246.328261 106.000983 
L 246.53117 109.116996 
L 246.936989 106.053803 
L 247.139898 108.868095 
L 247.342807 109.1162 
L 247.545716 108.957755 
L 247.951534 106.657285 
L 248.357352 107.590174 
L 248.76317 105.8558 
L 248.96608 107.792694 
L 249.371898 105.415404 
L 249.574807 105.736491 
L 249.777716 108.029931 
L 249.980625 107.58889 
L 250.183534 106.473792 
L 250.386443 106.944824 
L 250.589352 109.813968 
L 250.792261 107.525377 
L 250.99517 109.083087 
L 250.99517 109.083087 
" style="fill:none;stroke:#ff7f0e;stroke-linecap:square;stroke-width:1.5;"/>
   </g>
   <g id="patch_3">
    <path d="M 37.940625 145.8 
L 37.940625 7.2 
" style="fill:none;stroke:#000000;stroke-linecap:square;stroke-linejoin:miter;stroke-width:0.8;"/>
   </g>
   <g id="patch_4">
    <path d="M 261.140625 145.8 
L 261.140625 7.2 
" style="fill:none;stroke:#000000;stroke-linecap:square;stroke-linejoin:miter;stroke-width:0.8;"/>
   </g>
   <g id="patch_5">
    <path d="M 37.940625 145.8 
L 261.140625 145.8 
" style="fill:none;stroke:#000000;stroke-linecap:square;stroke-linejoin:miter;stroke-width:0.8;"/>
   </g>
   <g id="patch_6">
    <path d="M 37.940625 7.2 
L 261.140625 7.2 
" style="fill:none;stroke:#000000;stroke-linecap:square;stroke-linejoin:miter;stroke-width:0.8;"/>
   </g>
   <g id="legend_1">
    <g id="patch_7">
     <path d="M 212.040625 92.469531 
L 254.140625 92.469531 
Q 256.140625 92.469531 256.140625 90.469531 
L 256.140625 62.530469 
Q 256.140625 60.530469 254.140625 60.530469 
L 212.040625 60.530469 
Q 210.040625 60.530469 210.040625 62.530469 
L 210.040625 90.469531 
Q 210.040625 92.469531 212.040625 92.469531 
z
" style="fill:#ffffff;opacity:0.8;stroke:#cccccc;stroke-linejoin:miter;"/>
    </g>
    <g id="line2d_25">
     <path d="M 214.040625 68.030469 
L 234.040625 68.030469 
" style="fill:none;stroke:#1f77b4;stroke-linecap:square;stroke-width:1.5;"/>
    </g>
    <g id="line2d_26"/>
    <g id="text_14">
     <!-- $V_{d}$ -->
     <g transform="translate(242.040625 71.530469)scale(0.1 -0.1)">
      <defs>
       <path d="M 4403 4179 
L 4403 4077 
Q 4198 4070 4045 3821 
L 1658 -115 
L 1536 -115 
L 1011 3104 
Q 902 3776 828 3910 
Q 755 4045 486 4077 
L 486 4179 
L 2022 4179 
L 2022 4077 
Q 1722 4045 1629 3981 
Q 1536 3917 1536 3750 
Q 1536 3686 1542 3654 
L 1958 819 
L 3302 3123 
Q 3616 3661 3616 3859 
Q 3616 4032 3219 4077 
L 3219 4179 
L 4403 4179 
z
" id="STIXGeneral-Italic-56" transform="scale(0.015625)"/>
       <path d="M 3334 4371 
L 3373 4333 
L 3123 3360 
L 2739 1958 
Q 2323 429 2323 384 
Q 2323 256 2438 256 
Q 2522 256 2614 336 
Q 2707 416 2963 710 
L 3040 646 
Q 2547 -83 2099 -83 
Q 1978 -83 1907 -6 
Q 1837 70 1837 205 
Q 1837 397 1920 774 
Q 1645 307 1379 118 
Q 1114 -70 781 -70 
Q 461 -70 278 125 
Q 96 320 96 678 
Q 96 1440 713 2131 
Q 1331 2822 1965 2822 
Q 2163 2822 2256 2732 
Q 2349 2643 2381 2451 
L 2387 2451 
L 2675 3494 
Q 2765 3808 2765 3949 
Q 2765 4051 2694 4076 
Q 2624 4102 2355 4115 
L 2355 4224 
Q 2848 4269 3334 4371 
z
M 2278 2310 
Q 2278 2477 2185 2576 
Q 2093 2675 1978 2675 
Q 1677 2675 1395 2381 
Q 1075 2042 864 1571 
Q 653 1101 653 704 
Q 653 486 752 361 
Q 851 237 1024 237 
Q 1312 237 1606 550 
Q 1901 864 2089 1350 
Q 2278 1837 2278 2310 
z
" id="STIXGeneral-Italic-64" transform="scale(0.015625)"/>
      </defs>
      <use transform="translate(0 0.703125)" xlink:href="#STIXGeneral-Italic-56"/>
      <use transform="translate(61.099991 -12.525)scale(0.7)" xlink:href="#STIXGeneral-Italic-64"/>
     </g>
    </g>
    <g id="line2d_27">
     <path d="M 214.040625 82.169531 
L 234.040625 82.169531 
" style="fill:none;stroke:#ff7f0e;stroke-linecap:square;stroke-width:1.5;"/>
    </g>
    <g id="line2d_28"/>
    <g id="text_15">
     <!-- $V_{q}$ -->
     <g transform="translate(242.040625 85.669531)scale(0.1 -0.1)">
      <defs>
       <path d="M 3098 2739 
L 2042 -966 
Q 2029 -1018 2029 -1037 
Q 2029 -1235 2394 -1235 
L 2490 -1235 
L 2490 -1338 
L 973 -1338 
L 973 -1235 
Q 1267 -1216 1382 -1139 
Q 1498 -1062 1555 -877 
L 2131 979 
Q 1754 378 1466 154 
Q 1178 -70 800 -70 
Q 499 -70 329 128 
Q 160 326 160 672 
Q 160 1165 445 1670 
Q 730 2176 1168 2499 
Q 1606 2822 2035 2822 
Q 2438 2822 2528 2426 
L 2630 2739 
L 3098 2739 
z
M 2432 2298 
Q 2432 2458 2323 2570 
Q 2214 2682 2054 2682 
Q 1792 2682 1459 2368 
Q 1133 2054 921 1606 
Q 710 1158 710 762 
Q 710 269 1050 269 
Q 1312 269 1574 499 
Q 1901 781 2166 1341 
Q 2432 1901 2432 2298 
z
" id="STIXGeneral-Italic-71" transform="scale(0.015625)"/>
      </defs>
      <use transform="translate(0 0.703125)" xlink:href="#STIXGeneral-Italic-56"/>
      <use transform="translate(61.099991 -12.525)scale(0.7)" xlink:href="#STIXGeneral-Italic-71"/>
     </g>
    </g>
   </g>
  </g>
 </g>
 <defs>
  <clipPath id="p69ddc9aa78">
   <rect height="138.6" width="223.2" x="37.940625" y="7.2"/>
  </clipPath>
 </defs>
</svg>
