<?xml version="1.0" encoding="utf-8" standalone="no"?>
<!DOCTYPE svg PUBLIC "-//W3C//DTD SVG 1.1//EN"
  "http://www.w3.org/Graphics/SVG/1.1/DTD/svg11.dtd">
<svg xmlns:xlink="http://www.w3.org/1999/xlink" width="360pt" height="216pt" viewBox="0 0 360 216" xmlns="http://www.w3.org/2000/svg" version="1.1">
 <metadata>
  <rdf:RDF xmlns:dc="http://purl.org/dc/elements/1.1/" xmlns:cc="http://creativecommons.org/ns#" xmlns:rdf="http://www.w3.org/1999/02/22-rdf-syntax-ns#">
   <cc:Work>
    <dc:type rdf:resource="http://purl.org/dc/dcmitype/StillImage"/>
    <dc:date>2026-06-15T16:48:46.628136</dc:date>
    <dc:format>image/svg+xml</dc:format>
    <dc:creator>
     <cc:Agent>
      <dc:title>Matplotlib v3.11.0, https://matplotlib.org/</dc:title>
     </cc:Agent>
    </dc:creator>
   </cc:Work>
  </rdf:RDF>
 </metadata>
 <defs>
  <style type="text/css">*{stroke-linejoin: round; stroke-linecap: butt}</style>
 </defs>
 <g id="figure_1">
  <g id="patch_1">
   <path d="M 0 216 
L 360 216 
L 360 0 
L 0 0 
z
" style="fill: #ffffff"/>
  </g>
  <g id="axes_1">
   <g id="patch_2">
    <path d="M 47.962344 173.877656 
L 349.2 173.877656 
L 349.2 14.598828 
L 47.962344 14.598828 
z
" style="fill: #ffffff"/>
   </g>
   <g id="matplotlib.axis_1">
    <g id="xtick_1">
     <g id="line2d_1">
      <defs>
       <path id="mdfb6f64b41" d="M 0 0 
L 0 3.5 
" style="stroke: #000000; stroke-width: 0.8"/>
      </defs>
      <g>
       <use xlink:href="#mdfb6f64b41" x="61.654964" y="173.877656" style="stroke: #000000; stroke-width: 0.8"/>
      </g>
     </g>
     <g id="text_1">
      <!-- 0.0 -->
      <g transform="translate(53.703402 188.475313) scale(0.1 -0.1)">
       <defs>
        <path id="DejaVuSans-13" d="M 2034 4250 
Q 1547 4250 1301 3770 
Q 1056 3291 1056 2328 
Q 1056 1369 1301 889 
Q 1547 409 2034 409 
Q 2525 409 2770 889 
Q 3016 1369 3016 2328 
Q 3016 3291 2770 3770 
Q 2525 4250 2034 4250 
z
M 2034 4750 
Q 2819 4750 3233 4129 
Q 3647 3509 3647 2328 
Q 3647 1150 3233 529 
Q 2819 -91 2034 -91 
Q 1250 -91 836 529 
Q 422 1150 422 2328 
Q 422 3509 836 4129 
Q 1250 4750 2034 4750 
z
" transform="scale(0.015625)"/>
        <path id="DejaVuSans-11" d="M 684 794 
L 1344 794 
L 1344 0 
L 684 0 
L 684 794 
z
" transform="scale(0.015625)"/>
       </defs>
       <use xlink:href="#DejaVuSans-13"/>
       <use xlink:href="#DejaVuSans-11" transform="translate(63.625 0)"/>
       <use xlink:href="#DejaVuSans-13" transform="translate(95.40625 0)"/>
      </g>
     </g>
    </g>
    <g id="xtick_2">
     <g id="line2d_2">
      <g>
       <use xlink:href="#mdfb6f64b41" x="116.425447" y="173.877656" style="stroke: #000000; stroke-width: 0.8"/>
      </g>
     </g>
     <g id="text_2">
      <!-- 0.2 -->
      <g transform="translate(108.473885 188.475313) scale(0.1 -0.1)">
       <defs>
        <path id="DejaVuSans-15" d="M 1228 531 
L 3431 531 
L 3431 0 
L 469 0 
L 469 531 
Q 828 903 1448 1529 
Q 2069 2156 2228 2338 
Q 2531 2678 2651 2914 
Q 2772 3150 2772 3378 
Q 2772 3750 2511 3984 
Q 2250 4219 1831 4219 
Q 1534 4219 1204 4116 
Q 875 4013 500 3803 
L 500 4441 
Q 881 4594 1212 4672 
Q 1544 4750 1819 4750 
Q 2544 4750 2975 4387 
Q 3406 4025 3406 3419 
Q 3406 3131 3298 2873 
Q 3191 2616 2906 2266 
Q 2828 2175 2409 1742 
Q 1991 1309 1228 531 
z
" transform="scale(0.015625)"/>
       </defs>
       <use xlink:href="#DejaVuSans-13"/>
       <use xlink:href="#DejaVuSans-11" transform="translate(63.625 0)"/>
       <use xlink:href="#DejaVuSans-15" transform="translate(95.40625 0)"/>
      </g>
     </g>
    </g>
    <g id="xtick_3">
     <g id="line2d_3">
      <g>
       <use xlink:href="#mdfb6f64b41" x="171.19593" y="173.877656" style="stroke: #000000; stroke-width: 0.8"/>
      </g>
     </g>
     <g id="text_3">
      <!-- 0.4 -->
      <g transform="translate(163.244368 188.475313) scale(0.1 -0.1)">
       <defs>
        <path id="DejaVuSans-17" d="M 2419 4116 
L 825 1625 
L 2419 1625 
L 2419 4116 
z
M 2253 4666 
L 3047 4666 
L 3047 1625 
L 3713 1625 
L 3713 1100 
L 3047 1100 
L 3047 0 
L 2419 0 
L 2419 1100 
L 313 1100 
L 313 1709 
L 2253 4666 
z
" transform="scale(0.015625)"/>
       </defs>
       <use xlink:href="#DejaVuSans-13"/>
       <use xlink:href="#DejaVuSans-11" transform="translate(63.625 0)"/>
       <use xlink:href="#DejaVuSans-17" transform="translate(95.40625 0)"/>
      </g>
     </g>
    </g>
    <g id="xtick_4">
     <g id="line2d_4">
      <g>
       <use xlink:href="#mdfb6f64b41" x="225.966413" y="173.877656" style="stroke: #000000; stroke-width: 0.8"/>
      </g>
     </g>
     <g id="text_4">
      <!-- 0.6 -->
      <g transform="translate(218.014851 188.475313) scale(0.1 -0.1)">
       <defs>
        <path id="DejaVuSans-19" d="M 2113 2584 
Q 1688 2584 1439 2293 
Q 1191 2003 1191 1497 
Q 1191 994 1439 701 
Q 1688 409 2113 409 
Q 2538 409 2786 701 
Q 3034 994 3034 1497 
Q 3034 2003 2786 2293 
Q 2538 2584 2113 2584 
z
M 3366 4563 
L 3366 3988 
Q 3128 4100 2886 4159 
Q 2644 4219 2406 4219 
Q 1781 4219 1451 3797 
Q 1122 3375 1075 2522 
Q 1259 2794 1537 2939 
Q 1816 3084 2150 3084 
Q 2853 3084 3261 2657 
Q 3669 2231 3669 1497 
Q 3669 778 3244 343 
Q 2819 -91 2113 -91 
Q 1303 -91 875 529 
Q 447 1150 447 2328 
Q 447 3434 972 4092 
Q 1497 4750 2381 4750 
Q 2619 4750 2861 4703 
Q 3103 4656 3366 4563 
z
" transform="scale(0.015625)"/>
       </defs>
       <use xlink:href="#DejaVuSans-13"/>
       <use xlink:href="#DejaVuSans-11" transform="translate(63.625 0)"/>
       <use xlink:href="#DejaVuSans-19" transform="translate(95.40625 0)"/>
      </g>
     </g>
    </g>
    <g id="xtick_5">
     <g id="line2d_5">
      <g>
       <use xlink:href="#mdfb6f64b41" x="280.736896" y="173.877656" style="stroke: #000000; stroke-width: 0.8"/>
      </g>
     </g>
     <g id="text_5">
      <!-- 0.8 -->
      <g transform="translate(272.785334 188.475313) scale(0.1 -0.1)">
       <defs>
        <path id="DejaVuSans-1b" d="M 2034 2216 
Q 1584 2216 1326 1975 
Q 1069 1734 1069 1313 
Q 1069 891 1326 650 
Q 1584 409 2034 409 
Q 2484 409 2743 651 
Q 3003 894 3003 1313 
Q 3003 1734 2745 1975 
Q 2488 2216 2034 2216 
z
M 1403 2484 
Q 997 2584 770 2862 
Q 544 3141 544 3541 
Q 544 4100 942 4425 
Q 1341 4750 2034 4750 
Q 2731 4750 3128 4425 
Q 3525 4100 3525 3541 
Q 3525 3141 3298 2862 
Q 3072 2584 2669 2484 
Q 3125 2378 3379 2068 
Q 3634 1759 3634 1313 
Q 3634 634 3220 271 
Q 2806 -91 2034 -91 
Q 1263 -91 848 271 
Q 434 634 434 1313 
Q 434 1759 690 2068 
Q 947 2378 1403 2484 
z
M 1172 3481 
Q 1172 3119 1398 2916 
Q 1625 2713 2034 2713 
Q 2441 2713 2670 2916 
Q 2900 3119 2900 3481 
Q 2900 3844 2670 4047 
Q 2441 4250 2034 4250 
Q 1625 4250 1398 4047 
Q 1172 3844 1172 3481 
z
" transform="scale(0.015625)"/>
       </defs>
       <use xlink:href="#DejaVuSans-13"/>
       <use xlink:href="#DejaVuSans-11" transform="translate(63.625 0)"/>
       <use xlink:href="#DejaVuSans-1b" transform="translate(95.40625 0)"/>
      </g>
     </g>
    </g>
    <g id="xtick_6">
     <g id="line2d_6">
      <g>
       <use xlink:href="#mdfb6f64b41" x="335.507379" y="173.877656" style="stroke: #000000; stroke-width: 0.8"/>
      </g>
     </g>
     <g id="text_6">
      <!-- 1.0 -->
      <g transform="translate(327.555817 188.475313) scale(0.1 -0.1)">
       <defs>
        <path id="DejaVuSans-14" d="M 794 531 
L 1825 531 
L 1825 4091 
L 703 3866 
L 703 4441 
L 1819 4666 
L 2450 4666 
L 2450 531 
L 3481 531 
L 3481 0 
L 794 0 
L 794 531 
z
" transform="scale(0.015625)"/>
       </defs>
       <use xlink:href="#DejaVuSans-14"/>
       <use xlink:href="#DejaVuSans-11" transform="translate(63.625 0)"/>
       <use xlink:href="#DejaVuSans-13" transform="translate(95.40625 0)"/>
      </g>
     </g>
    </g>
    <g id="text_7">
     <!-- Time (sec) -->
     <g transform="translate(172.424141 202.476094) scale(0.1 -0.1)">
      <defs>
       <path id="DejaVuSans-37" d="M -19 4666 
L 3928 4666 
L 3928 4134 
L 2272 4134 
L 2272 0 
L 1638 0 
L 1638 4134 
L -19 4134 
L -19 4666 
z
" transform="scale(0.015625)"/>
       <path id="DejaVuSans-4c" d="M 603 3500 
L 1178 3500 
L 1178 0 
L 603 0 
L 603 3500 
z
M 603 4863 
L 1178 4863 
L 1178 4134 
L 603 4134 
L 603 4863 
z
" transform="scale(0.015625)"/>
       <path id="DejaVuSans-50" d="M 3328 2828 
Q 3544 3216 3844 3400 
Q 4144 3584 4550 3584 
Q 5097 3584 5394 3201 
Q 5691 2819 5691 2113 
L 5691 0 
L 5113 0 
L 5113 2094 
Q 5113 2597 4934 2840 
Q 4756 3084 4391 3084 
Q 3944 3084 3684 2787 
Q 3425 2491 3425 1978 
L 3425 0 
L 2847 0 
L 2847 2094 
Q 2847 2600 2669 2842 
Q 2491 3084 2119 3084 
Q 1678 3084 1418 2786 
Q 1159 2488 1159 1978 
L 1159 0 
L 581 0 
L 581 3500 
L 1159 3500 
L 1159 2956 
Q 1356 3278 1631 3431 
Q 1906 3584 2284 3584 
Q 2666 3584 2933 3390 
Q 3200 3197 3328 2828 
z
" transform="scale(0.015625)"/>
       <path id="DejaVuSans-48" d="M 3597 1894 
L 3597 1613 
L 953 1613 
Q 991 1019 1311 708 
Q 1631 397 2203 397 
Q 2534 397 2845 478 
Q 3156 559 3463 722 
L 3463 178 
Q 3153 47 2828 -22 
Q 2503 -91 2169 -91 
Q 1331 -91 842 396 
Q 353 884 353 1716 
Q 353 2575 817 3079 
Q 1281 3584 2069 3584 
Q 2775 3584 3186 3129 
Q 3597 2675 3597 1894 
z
M 3022 2063 
Q 3016 2534 2758 2815 
Q 2500 3097 2075 3097 
Q 1594 3097 1305 2825 
Q 1016 2553 972 2059 
L 3022 2063 
z
" transform="scale(0.015625)"/>
       <path id="DejaVuSans-3" transform="scale(0.015625)"/>
       <path id="DejaVuSans-b" d="M 1984 4856 
Q 1566 4138 1362 3434 
Q 1159 2731 1159 2009 
Q 1159 1288 1364 580 
Q 1569 -128 1984 -844 
L 1484 -844 
Q 1016 -109 783 600 
Q 550 1309 550 2009 
Q 550 2706 781 3412 
Q 1013 4119 1484 4856 
L 1984 4856 
z
" transform="scale(0.015625)"/>
       <path id="DejaVuSans-56" d="M 2834 3397 
L 2834 2853 
Q 2591 2978 2328 3040 
Q 2066 3103 1784 3103 
Q 1356 3103 1142 2972 
Q 928 2841 928 2578 
Q 928 2378 1081 2264 
Q 1234 2150 1697 2047 
L 1894 2003 
Q 2506 1872 2764 1633 
Q 3022 1394 3022 966 
Q 3022 478 2636 193 
Q 2250 -91 1575 -91 
Q 1294 -91 989 -36 
Q 684 19 347 128 
L 347 722 
Q 666 556 975 473 
Q 1284 391 1588 391 
Q 1994 391 2212 530 
Q 2431 669 2431 922 
Q 2431 1156 2273 1281 
Q 2116 1406 1581 1522 
L 1381 1569 
Q 847 1681 609 1914 
Q 372 2147 372 2553 
Q 372 3047 722 3315 
Q 1072 3584 1716 3584 
Q 2034 3584 2315 3537 
Q 2597 3491 2834 3397 
z
" transform="scale(0.015625)"/>
       <path id="DejaVuSans-46" d="M 3122 3366 
L 3122 2828 
Q 2878 2963 2633 3030 
Q 2388 3097 2138 3097 
Q 1578 3097 1268 2742 
Q 959 2388 959 1747 
Q 959 1106 1268 751 
Q 1578 397 2138 397 
Q 2388 397 2633 464 
Q 2878 531 3122 666 
L 3122 134 
Q 2881 22 2623 -34 
Q 2366 -91 2075 -91 
Q 1284 -91 818 406 
Q 353 903 353 1747 
Q 353 2603 823 3093 
Q 1294 3584 2113 3584 
Q 2378 3584 2631 3529 
Q 2884 3475 3122 3366 
z
" transform="scale(0.015625)"/>
       <path id="DejaVuSans-c" d="M 513 4856 
L 1013 4856 
Q 1481 4119 1714 3412 
Q 1947 2706 1947 2009 
Q 1947 1309 1714 600 
Q 1481 -109 1013 -844 
L 513 -844 
Q 928 -128 1133 580 
Q 1338 1288 1338 2009 
Q 1338 2731 1133 3434 
Q 928 4138 513 4856 
z
" transform="scale(0.015625)"/>
      </defs>
      <use xlink:href="#DejaVuSans-37"/>
      <use xlink:href="#DejaVuSans-4c" transform="translate(58 0)"/>
      <use xlink:href="#DejaVuSans-50" transform="translate(85.78125 0)"/>
      <use xlink:href="#DejaVuSans-48" transform="translate(183.1875 0)"/>
      <use xlink:href="#DejaVuSans-3" transform="translate(244.71875 0)"/>
      <use xlink:href="#DejaVuSans-b" transform="translate(276.5 0)"/>
      <use xlink:href="#DejaVuSans-56" transform="translate(315.515625 0)"/>
      <use xlink:href="#DejaVuSans-48" transform="translate(367.609375 0)"/>
      <use xlink:href="#DejaVuSans-46" transform="translate(429.140625 0)"/>
      <use xlink:href="#DejaVuSans-c" transform="translate(484.125 0)"/>
     </g>
    </g>
   </g>
   <g id="matplotlib.axis_2">
    <g id="ytick_1">
     <g id="line2d_7">
      <defs>
       <path id="m1e9577b796" d="M 0 0 
L -3.5 0 
" style="stroke: #000000; stroke-width: 0.8"/>
      </defs>
      <g>
       <use xlink:href="#m1e9577b796" x="47.962344" y="159.397763" style="stroke: #000000; stroke-width: 0.8"/>
      </g>
     </g>
     <g id="text_8">
      <!-- 0.0 -->
      <g transform="translate(25.059219 163.196591) scale(0.1 -0.1)">
       <use xlink:href="#DejaVuSans-13"/>
       <use xlink:href="#DejaVuSans-11" transform="translate(63.625 0)"/>
       <use xlink:href="#DejaVuSans-13" transform="translate(95.40625 0)"/>
      </g>
     </g>
    </g>
    <g id="ytick_2">
     <g id="line2d_8">
      <g>
       <use xlink:href="#m1e9577b796" x="47.962344" y="130.437976" style="stroke: #000000; stroke-width: 0.8"/>
      </g>
     </g>
     <g id="text_9">
      <!-- 0.2 -->
      <g transform="translate(25.059219 134.236804) scale(0.1 -0.1)">
       <use xlink:href="#DejaVuSans-13"/>
       <use xlink:href="#DejaVuSans-11" transform="translate(63.625 0)"/>
       <use xlink:href="#DejaVuSans-15" transform="translate(95.40625 0)"/>
      </g>
     </g>
    </g>
    <g id="ytick_3">
     <g id="line2d_9">
      <g>
       <use xlink:href="#m1e9577b796" x="47.962344" y="101.478189" style="stroke: #000000; stroke-width: 0.8"/>
      </g>
     </g>
     <g id="text_10">
      <!-- 0.4 -->
      <g transform="translate(25.059219 105.277017) scale(0.1 -0.1)">
       <use xlink:href="#DejaVuSans-13"/>
       <use xlink:href="#DejaVuSans-11" transform="translate(63.625 0)"/>
       <use xlink:href="#DejaVuSans-17" transform="translate(95.40625 0)"/>
      </g>
     </g>
    </g>
    <g id="ytick_4">
     <g id="line2d_10">
      <g>
       <use xlink:href="#m1e9577b796" x="47.962344" y="72.518402" style="stroke: #000000; stroke-width: 0.8"/>
      </g>
     </g>
     <g id="text_11">
      <!-- 0.6 -->
      <g transform="translate(25.059219 76.31723) scale(0.1 -0.1)">
       <use xlink:href="#DejaVuSans-13"/>
       <use xlink:href="#DejaVuSans-11" transform="translate(63.625 0)"/>
       <use xlink:href="#DejaVuSans-19" transform="translate(95.40625 0)"/>
      </g>
     </g>
    </g>
    <g id="ytick_5">
     <g id="line2d_11">
      <g>
       <use xlink:href="#m1e9577b796" x="47.962344" y="43.558615" style="stroke: #000000; stroke-width: 0.8"/>
      </g>
     </g>
     <g id="text_12">
      <!-- 0.8 -->
      <g transform="translate(25.059219 47.357443) scale(0.1 -0.1)">
       <use xlink:href="#DejaVuSans-13"/>
       <use xlink:href="#DejaVuSans-11" transform="translate(63.625 0)"/>
       <use xlink:href="#DejaVuSans-1b" transform="translate(95.40625 0)"/>
      </g>
     </g>
    </g>
    <g id="ytick_6">
     <g id="line2d_12">
      <g>
       <use xlink:href="#m1e9577b796" x="47.962344" y="14.598828" style="stroke: #000000; stroke-width: 0.8"/>
      </g>
     </g>
     <g id="text_13">
      <!-- 1.0 -->
      <g transform="translate(25.059219 18.397656) scale(0.1 -0.1)">
       <use xlink:href="#DejaVuSans-14"/>
       <use xlink:href="#DejaVuSans-11" transform="translate(63.625 0)"/>
       <use xlink:href="#DejaVuSans-13" transform="translate(95.40625 0)"/>
      </g>
     </g>
    </g>
    <g id="text_14">
     <!-- Injected Signal -->
     <g transform="translate(18.656875 131.256211) rotate(-90) scale(0.1 -0.1)">
      <defs>
       <path id="DejaVuSans-2c" d="M 628 4666 
L 1259 4666 
L 1259 0 
L 628 0 
L 628 4666 
z
" transform="scale(0.015625)"/>
       <path id="DejaVuSans-51" d="M 3513 2113 
L 3513 0 
L 2938 0 
L 2938 2094 
Q 2938 2591 2744 2837 
Q 2550 3084 2163 3084 
Q 1697 3084 1428 2787 
Q 1159 2491 1159 1978 
L 1159 0 
L 581 0 
L 581 3500 
L 1159 3500 
L 1159 2956 
Q 1366 3272 1645 3428 
Q 1925 3584 2291 3584 
Q 2894 3584 3203 3211 
Q 3513 2838 3513 2113 
z
" transform="scale(0.015625)"/>
       <path id="DejaVuSans-4d" d="M 603 3500 
L 1178 3500 
L 1178 -63 
Q 1178 -731 923 -1031 
Q 669 -1331 103 -1331 
L -116 -1331 
L -116 -844 
L 38 -844 
Q 366 -844 484 -692 
Q 603 -541 603 -63 
L 603 3500 
z
M 603 4863 
L 1178 4863 
L 1178 4134 
L 603 4134 
L 603 4863 
z
" transform="scale(0.015625)"/>
       <path id="DejaVuSans-57" d="M 1172 4494 
L 1172 3500 
L 2356 3500 
L 2356 3053 
L 1172 3053 
L 1172 1153 
Q 1172 725 1289 603 
Q 1406 481 1766 481 
L 2356 481 
L 2356 0 
L 1766 0 
Q 1100 0 847 248 
Q 594 497 594 1153 
L 594 3053 
L 172 3053 
L 172 3500 
L 594 3500 
L 594 4494 
L 1172 4494 
z
" transform="scale(0.015625)"/>
       <path id="DejaVuSans-47" d="M 2906 2969 
L 2906 4863 
L 3481 4863 
L 3481 0 
L 2906 0 
L 2906 525 
Q 2725 213 2448 61 
Q 2172 -91 1784 -91 
Q 1150 -91 751 415 
Q 353 922 353 1747 
Q 353 2572 751 3078 
Q 1150 3584 1784 3584 
Q 2172 3584 2448 3432 
Q 2725 3281 2906 2969 
z
M 947 1747 
Q 947 1113 1208 752 
Q 1469 391 1925 391 
Q 2381 391 2643 752 
Q 2906 1113 2906 1747 
Q 2906 2381 2643 2742 
Q 2381 3103 1925 3103 
Q 1469 3103 1208 2742 
Q 947 2381 947 1747 
z
" transform="scale(0.015625)"/>
       <path id="DejaVuSans-36" d="M 3425 4513 
L 3425 3897 
Q 3066 4069 2747 4153 
Q 2428 4238 2131 4238 
Q 1616 4238 1336 4038 
Q 1056 3838 1056 3469 
Q 1056 3159 1242 3001 
Q 1428 2844 1947 2747 
L 2328 2669 
Q 3034 2534 3370 2195 
Q 3706 1856 3706 1288 
Q 3706 609 3251 259 
Q 2797 -91 1919 -91 
Q 1588 -91 1214 -16 
Q 841 59 441 206 
L 441 856 
Q 825 641 1194 531 
Q 1563 422 1919 422 
Q 2459 422 2753 634 
Q 3047 847 3047 1241 
Q 3047 1584 2836 1778 
Q 2625 1972 2144 2069 
L 1759 2144 
Q 1053 2284 737 2584 
Q 422 2884 422 3419 
Q 422 4038 858 4394 
Q 1294 4750 2059 4750 
Q 2388 4750 2728 4690 
Q 3069 4631 3425 4513 
z
" transform="scale(0.015625)"/>
       <path id="DejaVuSans-4a" d="M 2906 1791 
Q 2906 2416 2648 2759 
Q 2391 3103 1925 3103 
Q 1463 3103 1205 2759 
Q 947 2416 947 1791 
Q 947 1169 1205 825 
Q 1463 481 1925 481 
Q 2391 481 2648 825 
Q 2906 1169 2906 1791 
z
M 3481 434 
Q 3481 -459 3084 -895 
Q 2688 -1331 1869 -1331 
Q 1566 -1331 1297 -1286 
Q 1028 -1241 775 -1147 
L 775 -588 
Q 1028 -725 1275 -790 
Q 1522 -856 1778 -856 
Q 2344 -856 2625 -561 
Q 2906 -266 2906 331 
L 2906 616 
Q 2728 306 2450 153 
Q 2172 0 1784 0 
Q 1141 0 747 490 
Q 353 981 353 1791 
Q 353 2603 747 3093 
Q 1141 3584 1784 3584 
Q 2172 3584 2450 3431 
Q 2728 3278 2906 2969 
L 2906 3500 
L 3481 3500 
L 3481 434 
z
" transform="scale(0.015625)"/>
       <path id="DejaVuSans-44" d="M 2194 1759 
Q 1497 1759 1228 1600 
Q 959 1441 959 1056 
Q 959 750 1161 570 
Q 1363 391 1709 391 
Q 2188 391 2477 730 
Q 2766 1069 2766 1631 
L 2766 1759 
L 2194 1759 
z
M 3341 1997 
L 3341 0 
L 2766 0 
L 2766 531 
Q 2569 213 2275 61 
Q 1981 -91 1556 -91 
Q 1019 -91 701 211 
Q 384 513 384 1019 
Q 384 1609 779 1909 
Q 1175 2209 1959 2209 
L 2766 2209 
L 2766 2266 
Q 2766 2663 2505 2880 
Q 2244 3097 1772 3097 
Q 1472 3097 1187 3025 
Q 903 2953 641 2809 
L 641 3341 
Q 956 3463 1253 3523 
Q 1550 3584 1831 3584 
Q 2591 3584 2966 3190 
Q 3341 2797 3341 1997 
z
" transform="scale(0.015625)"/>
       <path id="DejaVuSans-4f" d="M 603 4863 
L 1178 4863 
L 1178 0 
L 603 0 
L 603 4863 
z
" transform="scale(0.015625)"/>
      </defs>
      <use xlink:href="#DejaVuSans-2c"/>
      <use xlink:href="#DejaVuSans-51" transform="translate(29.5 0)"/>
      <use xlink:href="#DejaVuSans-4d" transform="translate(92.875 0)"/>
      <use xlink:href="#DejaVuSans-48" transform="translate(120.65625 0)"/>
      <use xlink:href="#DejaVuSans-46" transform="translate(182.1875 0)"/>
      <use xlink:href="#DejaVuSans-57" transform="translate(237.171875 0)"/>
      <use xlink:href="#DejaVuSans-48" transform="translate(276.375 0)"/>
      <use xlink:href="#DejaVuSans-47" transform="translate(337.90625 0)"/>
      <use xlink:href="#DejaVuSans-3" transform="translate(401.390625 0)"/>
      <use xlink:href="#DejaVuSans-36" transform="translate(433.171875 0)"/>
      <use xlink:href="#DejaVuSans-4c" transform="translate(496.65625 0)"/>
      <use xlink:href="#DejaVuSans-4a" transform="translate(524.4375 0)"/>
      <use xlink:href="#DejaVuSans-51" transform="translate(587.921875 0)"/>
      <use xlink:href="#DejaVuSans-44" transform="translate(651.296875 0)"/>
      <use xlink:href="#DejaVuSans-4f" transform="translate(712.578125 0)"/>
     </g>
    </g>
   </g>
   <g id="line2d_13">
    <path d="M 61.654964 69.710939 
L 61.928817 47.012138 
L 62.202669 103.975872 
L 62.476522 116.109749 
L 62.750374 71.585571 
L 63.024227 71.337766 
L 63.298079 102.654967 
L 63.571931 73.521188 
L 63.845784 123.731359 
L 64.119636 116.478198 
L 64.393489 48.726564 
L 64.941193 106.367128 
L 65.215046 99.963621 
L 65.488898 126.762718 
L 65.762751 48.580107 
L 66.036603 70.63862 
L 66.310456 117.273076 
L 66.584308 68.878199 
L 66.85816 76.679277 
L 67.132013 105.611 
L 67.405865 84.658601 
L 67.679718 43.721349 
L 67.95357 101.576347 
L 68.227422 77.721933 
L 68.501275 118.278478 
L 68.775127 129.613662 
L 69.04898 97.240011 
L 69.322832 122.499254 
L 69.596685 45.765246 
L 69.870537 72.58409 
L 70.144389 76.564133 
L 70.418242 92.449324 
L 70.692094 117.035111 
L 70.965947 46.742328 
L 71.239799 97.52315 
L 71.513651 53.801701 
L 71.787504 62.994977 
L 72.061356 53.387416 
L 72.335209 99.860662 
L 72.609061 102.061063 
L 72.882913 53.550216 
L 73.156766 64.400239 
L 73.430618 118.4306 
L 73.978323 69.815933 
L 74.252176 111.24831 
L 74.79988 52.16302 
L 75.073733 61.707018 
L 75.347585 64.65211 
L 75.621438 90.05969 
L 76.169142 45.104535 
L 76.716847 80.874127 
L 76.9907 65.464838 
L 77.538405 113.789792 
L 78.086109 59.650004 
L 78.359962 84.96654 
L 78.633814 48.259976 
L 78.907667 81.116192 
L 79.181519 80.81832 
L 79.455371 108.207367 
L 79.729224 48.379858 
L 80.003076 122.683934 
L 80.276929 46.844819 
L 80.550781 77.911494 
L 80.824634 122.278651 
L 81.098486 78.098137 
L 81.372338 63.632296 
L 81.646191 63.70152 
L 81.920043 71.692573 
L 82.193896 71.425022 
L 82.467748 59.849219 
L 82.7416 110.413933 
L 83.015453 65.647459 
L 83.289305 67.900175 
L 83.563158 46.785314 
L 83.83701 119.390836 
L 84.110862 55.42904 
L 84.384715 45.320691 
L 84.658567 70.276978 
L 84.93242 127.724214 
L 85.206272 76.022208 
L 85.480125 74.363387 
L 85.753977 81.377296 
L 86.027829 124.476448 
L 86.575534 52.409638 
L 86.849387 46.552995 
L 87.123239 119.610454 
L 87.397091 106.281357 
L 87.670944 54.197271 
L 87.944796 69.530587 
L 88.218649 76.900738 
L 88.492501 111.916275 
L 88.766354 109.555399 
L 89.040206 64.287638 
L 89.314058 49.589856 
L 89.587911 46.009509 
L 89.861763 85.396953 
L 90.135616 53.390959 
L 90.409468 94.409478 
L 90.68332 84.359485 
L 90.957173 84.820666 
L 91.231025 99.052571 
L 91.504878 91.315591 
L 91.77873 115.38699 
L 92.052583 109.987749 
L 92.326435 90.400062 
L 92.600287 97.650273 
L 92.87414 80.211593 
L 93.421845 98.300353 
L 93.695697 66.455369 
L 93.969549 127.02367 
L 94.243402 61.624127 
L 94.517254 127.226155 
L 94.791107 100.798307 
L 95.064959 110.355462 
L 95.338812 103.132886 
L 95.886516 59.079565 
L 96.160369 74.91931 
L 96.434221 119.26307 
L 96.708074 57.094454 
L 96.981926 82.072163 
L 97.255778 48.857272 
L 97.529631 43.704579 
L 97.803483 102.254902 
L 98.077336 66.482067 
L 98.351188 87.074057 
L 98.62504 60.137138 
L 98.898893 105.705026 
L 99.172745 102.376668 
L 99.446598 47.244652 
L 99.72045 112.844971 
L 99.994303 54.977067 
L 100.268155 84.91303 
L 100.542007 50.47918 
L 100.81586 103.88114 
L 101.089712 47.221102 
L 101.363565 91.597637 
L 101.637417 102.188435 
L 101.911269 59.323418 
L 102.185122 94.208193 
L 102.732827 71.660477 
L 103.006679 68.755499 
L 103.280532 57.144364 
L 103.554384 81.997199 
L 103.828236 124.17101 
L 104.102089 109.369542 
L 104.375941 72.166652 
L 104.649794 111.220918 
L 104.923646 78.784743 
L 105.197498 72.468389 
L 105.471351 87.32518 
L 105.745203 44.841965 
L 106.019056 44.182432 
L 106.292908 99.87234 
L 106.566761 128.785819 
L 106.840613 123.021272 
L 107.114465 99.786087 
L 107.388318 96.330674 
L 107.66217 114.756181 
L 107.936023 50.910304 
L 108.209875 45.566202 
L 108.483727 67.626262 
L 108.75758 54.675932 
L 109.031432 128.213954 
L 109.305285 105.388468 
L 109.579137 60.66082 
L 109.852989 129.918584 
L 110.126842 122.6693 
L 110.400694 118.664118 
L 110.674547 57.622889 
L 110.948399 44.816288 
L 111.222252 94.414091 
L 111.496104 50.566945 
L 111.769956 95.797898 
L 112.043809 100.158153 
L 112.317661 125.216099 
L 112.591514 127.86307 
L 112.865366 103.991786 
L 113.139218 48.704386 
L 113.413071 118.17593 
L 113.686923 114.686512 
L 113.960776 86.034528 
L 114.234628 82.210038 
L 114.508481 126.68774 
L 115.056185 85.299476 
L 115.330038 118.487302 
L 115.60389 126.607254 
L 115.877743 129.442594 
L 116.151595 73.276923 
L 116.425447 104.633873 
L 116.6993 120.721738 
L 116.973152 116.045949 
L 117.247005 126.60343 
L 117.79471 45.69207 
L 118.068562 58.628616 
L 118.342414 94.125972 
L 118.616267 83.050372 
L 118.890119 122.506796 
L 119.163972 73.156954 
L 119.437824 74.419312 
L 119.711676 121.972402 
L 120.259381 73.374089 
L 120.533234 77.757294 
L 120.807086 85.451834 
L 121.080938 73.41943 
L 121.354791 94.258696 
L 121.628643 47.568007 
L 122.176348 94.803445 
L 122.450201 92.069119 
L 122.724053 99.472112 
L 122.997905 75.064404 
L 123.271758 93.957979 
L 123.54561 83.640134 
L 123.819463 126.271095 
L 124.093315 120.96943 
L 124.64102 62.156559 
L 124.914872 130.292859 
L 125.188725 95.770355 
L 125.462577 77.082343 
L 125.73643 103.37619 
L 126.010282 52.399525 
L 126.284134 68.977844 
L 126.557987 57.948901 
L 126.831839 59.851819 
L 127.105692 69.603919 
L 127.379544 87.743779 
L 127.653396 75.379839 
L 127.927249 55.816757 
L 128.201101 107.940559 
L 128.474954 120.182147 
L 128.748806 47.937241 
L 129.022659 53.781329 
L 129.570363 129.317487 
L 129.844216 84.939087 
L 130.118068 70.344758 
L 130.391921 48.804565 
L 130.665773 120.165732 
L 130.939625 123.808282 
L 131.213478 60.042974 
L 131.48733 100.93244 
L 131.761183 118.626653 
L 132.035035 95.980772 
L 132.308887 63.706679 
L 132.58274 47.924195 
L 132.856592 62.118811 
L 133.130445 70.247829 
L 133.404297 114.393943 
L 133.67815 100.364754 
L 133.952002 119.338092 
L 134.225854 113.641467 
L 134.499707 66.284004 
L 134.773559 121.099977 
L 135.321264 51.663627 
L 135.595116 84.616798 
L 135.868969 81.041483 
L 136.142821 68.245534 
L 136.416674 75.247565 
L 136.690526 74.35337 
L 136.964379 67.977335 
L 137.238231 69.761952 
L 137.512083 127.590845 
L 137.785936 118.638611 
L 138.059788 50.651376 
L 138.333641 121.090939 
L 138.607493 104.051566 
L 138.881345 77.193219 
L 139.155198 76.28416 
L 139.42905 108.251602 
L 139.702903 89.100532 
L 139.976755 126.078298 
L 140.250608 96.115434 
L 140.52446 127.03378 
L 140.798312 99.989554 
L 141.072165 56.160449 
L 141.346017 62.34547 
L 141.61987 114.938263 
L 141.893722 113.764097 
L 142.167574 68.058932 
L 142.441427 130.033385 
L 142.715279 74.005312 
L 142.989132 112.590855 
L 143.262984 57.262434 
L 143.810689 61.548631 
L 144.084541 88.879254 
L 144.358394 71.768233 
L 144.632246 104.571454 
L 145.453803 49.723525 
L 146.275361 113.607003 
L 146.549213 45.329306 
L 146.823065 76.809766 
L 147.096918 51.787409 
L 147.37077 119.590963 
L 147.644623 113.204475 
L 147.918475 70.068769 
L 148.192328 84.114896 
L 148.46618 57.868951 
L 148.740032 99.067336 
L 149.013885 120.058973 
L 149.287737 74.457369 
L 149.56159 82.978826 
L 149.835442 82.637294 
L 150.109294 95.190509 
L 150.383147 46.984656 
L 150.656999 62.255493 
L 151.204704 129.007554 
L 151.478557 116.881259 
L 151.752409 73.965598 
L 152.026261 102.549025 
L 152.300114 81.39387 
L 152.573966 87.158462 
L 152.847819 102.544118 
L 153.121671 105.137287 
L 153.395523 70.955254 
L 153.669376 95.750589 
L 153.943228 81.144627 
L 154.217081 115.002603 
L 154.490933 72.470848 
L 154.764786 94.826043 
L 155.038638 58.542969 
L 155.31249 100.421226 
L 155.586343 111.326473 
L 155.860195 59.659432 
L 156.134048 45.578749 
L 156.4079 106.649683 
L 156.681752 106.879518 
L 156.955605 103.251894 
L 157.229457 58.929468 
L 157.777162 94.694158 
L 158.051014 81.799269 
L 158.324867 76.323894 
L 158.598719 105.572011 
L 158.872572 61.529954 
L 159.146424 114.636426 
L 159.420277 47.501055 
L 159.694129 55.848957 
L 159.967981 44.559757 
L 160.241834 118.282149 
L 160.515686 68.185341 
L 160.789539 127.311785 
L 161.063391 115.29877 
L 161.337243 90.267722 
L 161.611096 109.410321 
L 161.884948 69.023263 
L 162.158801 106.930403 
L 162.432653 62.944816 
L 162.980358 83.71539 
L 163.25421 49.049749 
L 163.528063 109.215433 
L 163.801915 70.897127 
L 164.075768 120.561252 
L 164.34962 91.08512 
L 164.623472 113.877572 
L 165.171177 63.783226 
L 165.44503 112.141005 
L 165.718882 45.832757 
L 165.992735 51.705437 
L 166.266587 116.496271 
L 166.540439 98.448866 
L 166.814292 121.933974 
L 167.088144 57.501155 
L 167.361997 94.975427 
L 167.635849 112.803526 
L 167.909701 56.867257 
L 168.183554 73.476495 
L 168.457406 113.307084 
L 168.731259 80.382784 
L 169.005111 91.883994 
L 169.278963 113.47906 
L 169.552816 77.032974 
L 169.826668 74.615803 
L 170.100521 100.126377 
L 170.374373 54.113851 
L 170.648226 72.13765 
L 170.922078 50.743312 
L 171.469783 97.363578 
L 171.743635 88.977567 
L 172.017488 71.65749 
L 172.29134 127.469629 
L 172.839045 53.478557 
L 173.112897 70.443637 
L 173.38675 46.041073 
L 173.660602 53.789059 
L 174.208307 105.494513 
L 174.482159 97.288739 
L 175.029864 70.170921 
L 175.303717 79.043969 
L 175.577569 74.707008 
L 175.851421 93.018736 
L 176.125274 45.878635 
L 176.399126 114.326669 
L 176.672979 111.804751 
L 176.946831 100.497167 
L 177.220684 84.374746 
L 177.494536 109.544787 
L 177.768388 104.155567 
L 178.589946 58.679401 
L 178.863798 110.787752 
L 179.13765 114.582732 
L 179.411503 75.589528 
L 179.685355 121.153613 
L 179.959208 77.639776 
L 180.23306 62.288186 
L 180.506912 102.444237 
L 180.780765 116.336552 
L 181.054617 121.802967 
L 181.32847 113.452969 
L 181.602322 95.854084 
L 181.876175 106.092051 
L 182.150027 43.560794 
L 182.423879 75.241498 
L 182.697732 83.249805 
L 182.971584 128.813236 
L 183.245437 52.024218 
L 183.519289 55.825304 
L 183.793141 83.338034 
L 184.066994 94.768138 
L 184.340846 56.259216 
L 184.888551 123.732457 
L 185.162404 84.253422 
L 185.436256 121.39708 
L 185.710108 130.019765 
L 185.983961 114.863099 
L 186.257813 85.12073 
L 186.531666 109.525161 
L 186.805518 100.872618 
L 187.07937 105.199645 
L 187.353223 49.613195 
L 187.627075 43.659713 
L 188.17478 121.481225 
L 188.448633 88.589337 
L 188.722485 83.363755 
L 188.996337 117.164266 
L 189.27019 91.137092 
L 189.544042 106.478192 
L 189.817895 105.375882 
L 190.091747 73.729692 
L 190.365599 86.747875 
L 190.639452 130.004157 
L 191.187157 53.639992 
L 191.734862 107.950839 
L 192.008714 62.605516 
L 192.282566 68.112917 
L 192.556419 117.737246 
L 192.830271 111.975044 
L 193.104124 124.600399 
L 193.651828 113.485564 
L 193.925681 85.700785 
L 194.199533 91.26446 
L 194.473386 101.130394 
L 194.747238 106.119881 
L 195.02109 57.408771 
L 195.294943 96.084265 
L 195.568795 103.962648 
L 195.842648 58.040665 
L 196.1165 59.993006 
L 196.390353 126.769057 
L 196.664205 64.847636 
L 196.938057 79.711257 
L 197.21191 88.059346 
L 197.485762 127.845252 
L 197.759615 87.089 
L 198.033467 91.250297 
L 198.307319 111.915892 
L 198.581172 66.064442 
L 198.855024 124.195562 
L 199.128877 76.043459 
L 199.402729 121.22046 
L 199.676582 75.947483 
L 199.950434 84.603638 
L 200.224286 81.27994 
L 200.498139 118.05536 
L 200.771991 75.336591 
L 201.045844 84.112545 
L 201.319696 111.914786 
L 202.141253 74.323359 
L 202.415106 102.564076 
L 202.688958 50.070531 
L 202.962811 94.586163 
L 203.236663 96.487182 
L 203.510515 66.643902 
L 203.784368 90.038493 
L 204.05822 64.012033 
L 204.332073 70.295745 
L 204.605925 107.802061 
L 204.879777 117.804904 
L 205.15363 55.24946 
L 205.427482 61.361083 
L 205.701335 98.395158 
L 205.975187 59.98261 
L 206.249039 120.234026 
L 206.522892 105.455293 
L 206.796744 130.330272 
L 207.070597 126.720022 
L 207.344449 116.369097 
L 207.618302 54.71339 
L 207.892154 110.411586 
L 208.166006 128.009737 
L 208.713711 78.020548 
L 209.261416 48.064241 
L 209.535268 88.630264 
L 209.809121 54.644667 
L 210.082973 93.904599 
L 210.356826 75.095606 
L 210.630678 127.078713 
L 210.904531 122.423065 
L 211.178383 87.177775 
L 211.452235 82.95124 
L 211.726088 47.833277 
L 212.273793 108.696492 
L 212.547645 45.557276 
L 212.821497 96.518242 
L 213.369202 100.355128 
L 213.643055 122.077119 
L 213.916907 108.268909 
L 214.19076 52.433652 
L 214.464612 80.59433 
L 214.738464 79.717326 
L 215.012317 76.134484 
L 215.286169 96.61211 
L 215.560022 82.262594 
L 215.833874 74.388934 
L 216.107726 113.211533 
L 216.381579 64.808877 
L 216.655431 59.114388 
L 216.929284 126.168025 
L 217.203136 71.425141 
L 217.476988 66.052718 
L 217.750841 75.469803 
L 218.298546 59.464596 
L 218.572398 70.112294 
L 218.846251 106.443392 
L 219.120103 50.651333 
L 219.393955 100.550671 
L 219.667808 68.991297 
L 219.94166 117.260022 
L 220.215513 67.361067 
L 220.489365 104.805305 
L 220.763217 45.845697 
L 221.03707 101.680346 
L 221.310922 112.50805 
L 221.584775 66.03842 
L 221.858627 98.225082 
L 222.13248 115.195849 
L 222.406332 87.022778 
L 222.680184 84.644889 
L 222.954037 113.637098 
L 223.227889 62.117517 
L 223.501742 110.592522 
L 223.775594 51.071864 
L 224.049446 55.889347 
L 224.597151 116.810446 
L 224.871004 74.115961 
L 225.144856 111.671383 
L 225.418709 82.70192 
L 225.692561 92.082901 
L 225.966413 51.861775 
L 226.240266 118.701766 
L 226.514118 94.176724 
L 226.787971 93.609841 
L 227.061823 44.181317 
L 227.335675 106.206181 
L 227.609528 49.108865 
L 227.88338 109.512578 
L 228.157233 81.426739 
L 228.431085 106.348297 
L 228.704937 105.47653 
L 228.97879 80.109264 
L 229.252642 71.864105 
L 229.526495 44.519409 
L 229.800347 111.350436 
L 230.0742 77.577511 
L 230.348052 75.504304 
L 230.621904 97.749762 
L 230.895757 68.646409 
L 231.169609 87.506369 
L 231.717314 76.430935 
L 231.991166 86.879768 
L 232.265019 117.124881 
L 232.538871 92.554852 
L 232.812724 106.016357 
L 233.360429 53.828503 
L 233.634281 87.383925 
L 233.908133 69.83524 
L 234.181986 119.771076 
L 234.729691 76.525448 
L 235.003543 117.672653 
L 235.277395 130.154114 
L 235.551248 45.6669 
L 235.8251 116.340745 
L 236.098953 103.551639 
L 236.372805 77.873596 
L 236.646658 65.356174 
L 236.92051 118.986202 
L 237.194362 68.661528 
L 237.468215 121.982651 
L 237.742067 72.359776 
L 238.01592 69.750513 
L 238.289772 51.939967 
L 238.563624 57.92367 
L 238.837477 47.712881 
L 239.111329 59.18316 
L 239.385182 97.83189 
L 239.659034 59.965673 
L 239.932887 71.563036 
L 240.206739 51.26653 
L 240.480591 47.531238 
L 240.754444 93.057366 
L 241.028296 58.487137 
L 241.302149 51.004883 
L 241.576001 84.941812 
L 241.849853 72.823179 
L 242.671411 108.572426 
L 242.945263 78.621231 
L 243.219115 71.097881 
L 243.492968 57.134883 
L 243.76682 105.422806 
L 244.040673 96.403569 
L 244.314525 67.518111 
L 244.588378 86.704272 
L 244.86223 115.054573 
L 245.136082 69.005446 
L 245.409935 121.733639 
L 245.95764 47.269176 
L 246.231492 44.274546 
L 246.779197 104.892718 
L 247.053049 102.545192 
L 247.600754 67.288005 
L 248.148459 129.357283 
L 248.422311 83.201417 
L 248.696164 91.05106 
L 248.970016 63.372578 
L 249.243869 107.333954 
L 249.517721 101.298436 
L 249.791573 115.80752 
L 250.065426 75.546157 
L 250.339278 124.190541 
L 250.613131 74.668633 
L 250.886983 92.93433 
L 251.160836 90.873461 
L 251.434688 85.874865 
L 251.70854 52.094456 
L 251.982393 60.191255 
L 252.530098 124.963663 
L 252.80395 47.256115 
L 253.077802 85.83166 
L 253.351655 62.472473 
L 253.625507 107.110929 
L 253.89936 93.809541 
L 254.173212 45.957465 
L 254.447064 124.263147 
L 254.720917 57.29847 
L 254.994769 74.283477 
L 255.268622 100.073216 
L 255.542474 113.517926 
L 255.816327 116.737885 
L 256.090179 44.027394 
L 256.364031 117.098772 
L 256.637884 63.170466 
L 256.911736 74.668143 
L 257.185589 70.263631 
L 257.733293 45.295612 
L 258.007146 59.913864 
L 258.280998 94.999115 
L 258.554851 74.087363 
L 258.828703 71.396625 
L 259.102556 80.615662 
L 259.376408 54.253259 
L 259.65026 110.971019 
L 259.924113 127.334142 
L 260.197965 85.621998 
L 260.471818 85.217199 
L 260.74567 110.510181 
L 261.019522 83.423043 
L 261.293375 84.398361 
L 261.567227 71.931891 
L 261.84108 45.564066 
L 262.388785 127.927953 
L 262.662637 72.62406 
L 262.936489 49.301208 
L 263.210342 94.139696 
L 263.484194 53.54159 
L 263.758047 63.302918 
L 264.031899 125.744907 
L 264.305751 118.936674 
L 264.579604 51.166348 
L 264.853456 69.775933 
L 265.127309 100.425993 
L 265.401161 71.012222 
L 265.675013 111.218373 
L 265.948866 70.758112 
L 266.222718 70.456315 
L 266.496571 89.575825 
L 266.770423 62.313202 
L 267.044276 62.317475 
L 267.318128 110.950876 
L 267.59198 61.837165 
L 267.865833 93.620853 
L 268.139685 110.397616 
L 268.68739 71.670639 
L 268.961242 79.485486 
L 269.235095 108.4997 
L 269.508947 79.912094 
L 269.7828 112.583792 
L 270.056652 126.848926 
L 270.330505 114.109191 
L 270.604357 61.745029 
L 270.878209 60.529095 
L 271.425914 90.197318 
L 271.699767 71.935326 
L 271.973619 79.7613 
L 272.247471 97.281695 
L 272.521324 127.280976 
L 272.795176 125.998254 
L 273.069029 73.722569 
L 273.342881 70.539243 
L 273.616734 72.12276 
L 273.890586 74.432168 
L 274.164438 58.511228 
L 274.438291 64.74058 
L 274.712143 61.793606 
L 274.985996 97.251606 
L 275.259848 104.97866 
L 275.5337 103.35671 
L 275.807553 60.621511 
L 276.081405 110.136578 
L 276.355258 51.545523 
L 276.62911 98.328079 
L 276.902963 87.618226 
L 277.450667 125.526192 
L 277.72452 122.658185 
L 277.998372 126.910683 
L 278.272225 46.628417 
L 278.546077 127.785814 
L 278.819929 72.77815 
L 279.093782 129.129083 
L 279.367634 50.839565 
L 279.641487 92.300782 
L 279.915339 109.857446 
L 280.189191 63.888568 
L 280.463044 88.86848 
L 280.736896 82.860659 
L 281.010749 122.959259 
L 281.284601 127.608042 
L 281.558454 84.715712 
L 281.832306 92.021286 
L 282.106158 110.251927 
L 282.380011 93.397097 
L 282.653863 127.237378 
L 282.927716 121.002954 
L 283.201568 107.039748 
L 283.47542 59.394977 
L 283.749273 44.365084 
L 284.023125 48.381967 
L 284.296978 92.576268 
L 284.57083 87.620585 
L 284.844683 97.207967 
L 285.118535 119.060685 
L 285.392387 54.438377 
L 285.66624 113.1177 
L 285.940092 71.719301 
L 286.213945 126.178109 
L 286.487797 97.127876 
L 287.035502 76.981923 
L 287.309354 115.846918 
L 287.583207 114.135673 
L 287.857059 81.001155 
L 288.130912 112.73674 
L 288.404764 99.142186 
L 288.678616 108.950082 
L 288.952469 60.453849 
L 289.226321 60.852683 
L 289.500174 58.769381 
L 289.774026 61.887842 
L 290.047878 120.317307 
L 290.321731 79.435095 
L 290.595583 104.891004 
L 290.869436 117.704164 
L 291.143288 50.655888 
L 291.41714 44.385469 
L 291.690993 63.744892 
L 291.964845 125.297275 
L 292.238698 82.052837 
L 292.51255 124.189721 
L 293.060255 57.595443 
L 293.334107 58.288214 
L 293.60796 127.440354 
L 293.881812 55.752069 
L 294.155665 55.980312 
L 294.429517 44.949296 
L 294.977222 94.991251 
L 295.251074 76.462569 
L 295.524927 120.506448 
L 295.798779 86.796411 
L 296.072632 97.070814 
L 296.346484 124.347738 
L 296.620336 89.847054 
L 296.894189 91.80126 
L 297.168041 50.077249 
L 297.441894 61.4578 
L 297.715746 127.7564 
L 297.989598 94.215264 
L 298.263451 88.901474 
L 298.537303 128.072318 
L 299.358861 65.168088 
L 299.632713 91.644402 
L 299.906565 72.902539 
L 300.180418 96.340339 
L 300.45427 106.32293 
L 300.728123 122.022186 
L 301.001975 59.961509 
L 301.54968 127.028783 
L 301.823532 91.468262 
L 302.097385 116.23252 
L 302.371237 104.308023 
L 302.645089 48.395861 
L 302.918942 66.378483 
L 303.192794 72.896978 
L 303.466647 87.795392 
L 303.740499 84.373005 
L 304.014352 102.640191 
L 304.288204 56.479381 
L 304.562056 109.996909 
L 305.109761 46.940964 
L 305.383614 57.510872 
L 305.657466 105.898838 
L 305.931318 129.22357 
L 306.205171 82.761457 
L 306.479023 91.346208 
L 306.752876 107.564051 
L 307.026728 95.013945 
L 307.300581 59.217702 
L 307.574433 118.284919 
L 307.848285 71.637759 
L 308.122138 105.483734 
L 308.39599 70.016721 
L 308.943695 119.60647 
L 309.217547 122.557522 
L 309.4914 96.668015 
L 309.765252 83.446286 
L 310.039105 99.738897 
L 310.312957 45.377392 
L 310.58681 105.767432 
L 310.860662 106.108279 
L 311.134514 120.708298 
L 311.408367 123.920689 
L 311.682219 125.126155 
L 312.229924 90.845868 
L 312.503776 113.231028 
L 312.777629 77.555842 
L 313.051481 80.69572 
L 313.325334 122.795371 
L 313.599186 65.77246 
L 313.873038 86.458389 
L 314.146891 122.958784 
L 314.420743 64.403628 
L 314.694596 55.436553 
L 314.968448 116.187218 
L 315.516153 54.340233 
L 315.790005 124.52323 
L 316.063858 57.931878 
L 316.33771 64.886693 
L 316.611563 121.968475 
L 316.885415 68.254814 
L 317.159267 86.136765 
L 317.43312 122.331327 
L 317.980825 55.663874 
L 318.254677 89.767692 
L 318.52853 76.262774 
L 318.802382 56.054172 
L 319.076234 94.7015 
L 319.350087 46.685951 
L 319.623939 99.915458 
L 319.897792 65.717341 
L 320.171644 126.561283 
L 320.445496 50.760827 
L 320.719349 126.856942 
L 320.993201 70.246868 
L 321.267054 55.582227 
L 321.540906 70.663676 
L 321.814759 47.792176 
L 322.088611 94.426693 
L 322.362463 103.213328 
L 322.636316 121.554292 
L 322.910168 113.45076 
L 323.184021 110.929618 
L 323.457873 114.674355 
L 323.731725 102.583391 
L 324.005578 45.085393 
L 324.27943 123.42151 
L 324.553283 50.058505 
L 324.827135 102.355504 
L 325.100987 120.414226 
L 325.37484 67.140784 
L 325.648692 119.217064 
L 325.922545 74.364814 
L 326.196397 49.651359 
L 326.47025 62.49684 
L 326.744102 114.082322 
L 327.017954 84.269865 
L 327.291807 108.592269 
L 327.565659 97.092005 
L 327.839512 65.693262 
L 328.113364 112.007643 
L 328.661069 125.249597 
L 328.934921 114.164722 
L 329.208774 69.433416 
L 329.482626 106.702135 
L 329.756479 69.094952 
L 330.030331 100.57463 
L 330.304183 102.150785 
L 330.578036 112.384789 
L 330.851888 74.185828 
L 331.125741 54.794507 
L 331.399593 93.620364 
L 331.673445 56.484874 
L 331.947298 52.536664 
L 332.22115 113.235121 
L 332.495003 76.002931 
L 332.768855 125.471727 
L 333.042708 123.97017 
L 333.31656 81.271791 
L 333.590412 66.625028 
L 333.864265 79.234189 
L 334.138117 72.958505 
L 334.41197 59.083407 
L 334.685822 97.453244 
L 334.959674 97.026963 
L 335.233527 97.999797 
L 335.233527 97.999797 
" clip-path="url(#pff1138980e)" style="fill: none; stroke: #1f77b4; stroke-width: 1.5; stroke-linecap: square"/>
   </g>
   <g id="line2d_14">
    <path d="M 61.654964 86.998295 
L 335.507379 86.998295 
" clip-path="url(#pff1138980e)" style="fill: none; stroke-dasharray: 7.4,3.2; stroke-dashoffset: 0; stroke: #ff0000; stroke-width: 2"/>
   </g>
   <g id="line2d_15">
    <path d="M 193.104124 86.998295 
L 204.05822 86.998295 
" clip-path="url(#pff1138980e)" style="fill: none; stroke: #000000; stroke-width: 2; stroke-linecap: square"/>
   </g>
   <g id="line2d_16">
    <path d="M 193.104124 43.558615 
L 204.05822 43.558615 
" clip-path="url(#pff1138980e)" style="fill: none; stroke: #000000; stroke-width: 2; stroke-linecap: square"/>
   </g>
   <g id="line2d_17">
    <path d="M 198.581172 86.998295 
L 198.581172 43.558615 
" clip-path="url(#pff1138980e)" style="fill: none; stroke: #000000; stroke-width: 2; stroke-linecap: square"/>
   </g>
   <g id="line2d_18">
    <path d="M 193.104124 159.397763 
L 204.05822 159.397763 
" clip-path="url(#pff1138980e)" style="fill: none; stroke: #000000; stroke-width: 2; stroke-linecap: square"/>
   </g>
   <g id="line2d_19">
    <path d="M 198.581172 159.397763 
L 198.581172 86.998295 
" clip-path="url(#pff1138980e)" style="fill: none; stroke: #000000; stroke-width: 2; stroke-linecap: square"/>
   </g>
   <g id="patch_3">
    <path d="M 47.962344 173.877656 
L 47.962344 14.598828 
" style="fill: none; stroke: #000000; stroke-width: 0.8; stroke-linejoin: miter; stroke-linecap: square"/>
   </g>
   <g id="patch_4">
    <path d="M 349.2 173.877656 
L 349.2 14.598828 
" style="fill: none; stroke: #000000; stroke-width: 0.8; stroke-linejoin: miter; stroke-linecap: square"/>
   </g>
   <g id="patch_5">
    <path d="M 47.962344 173.877656 
L 349.2 173.877656 
" style="fill: none; stroke: #000000; stroke-width: 0.8; stroke-linejoin: miter; stroke-linecap: square"/>
   </g>
   <g id="patch_6">
    <path d="M 47.962344 14.598828 
L 349.2 14.598828 
" style="fill: none; stroke: #000000; stroke-width: 0.8; stroke-linejoin: miter; stroke-linecap: square"/>
   </g>
   <g id="text_15">
    <g id="patch_7">
     <path d="M 205.535268 71.680799 
L 235.127456 71.680799 
L 235.127456 53.680018 
L 205.535268 53.680018 
z
" style="fill: #ffffff; opacity: 0.8; stroke: #000000; stroke-linejoin: miter"/>
    </g>
    <!-- gain -->
    <g transform="translate(209.535268 65.278455) scale(0.1 -0.1)">
     <use xlink:href="#DejaVuSans-4a"/>
     <use xlink:href="#DejaVuSans-44" transform="translate(63.484375 0)"/>
     <use xlink:href="#DejaVuSans-4c" transform="translate(124.765625 0)"/>
     <use xlink:href="#DejaVuSans-51" transform="translate(152.546875 0)"/>
    </g>
   </g>
   <g id="text_16">
    <g id="patch_8">
     <path d="M 205.535268 129.600373 
L 241.825893 129.600373 
L 241.825893 111.599592 
L 205.535268 111.599592 
z
" style="fill: #ffffff; opacity: 0.8; stroke: #000000; stroke-linejoin: miter"/>
    </g>
    <!-- offset -->
    <g transform="translate(209.535268 123.198029) scale(0.1 -0.1)">
     <defs>
      <path id="DejaVuSans-52" d="M 1959 3097 
Q 1497 3097 1228 2736 
Q 959 2375 959 1747 
Q 959 1119 1226 758 
Q 1494 397 1959 397 
Q 2419 397 2687 759 
Q 2956 1122 2956 1747 
Q 2956 2369 2687 2733 
Q 2419 3097 1959 3097 
z
M 1959 3584 
Q 2709 3584 3137 3096 
Q 3566 2609 3566 1747 
Q 3566 888 3137 398 
Q 2709 -91 1959 -91 
Q 1206 -91 779 398 
Q 353 888 353 1747 
Q 353 2609 779 3096 
Q 1206 3584 1959 3584 
z
" transform="scale(0.015625)"/>
      <path id="DejaVuSans-13ae" d="M 4531 4863 
L 4531 4384 
L 3981 4384 
Q 3672 4384 3551 4259 
Q 3431 4134 3431 3809 
L 3431 3500 
L 4378 3500 
L 4378 3053 
L 3431 3053 
L 3431 0 
L 2853 0 
L 2853 3053 
L 1275 3053 
L 1275 0 
L 697 0 
L 697 3053 
L 147 3053 
L 147 3500 
L 697 3500 
L 697 3744 
Q 697 4328 969 4595 
Q 1241 4863 1831 4863 
L 2375 4863 
L 2375 4384 
L 1825 4384 
Q 1516 4384 1394 4259 
Q 1275 4134 1275 3809 
L 1275 3500 
L 2853 3500 
L 2853 3744 
Q 2853 4328 3125 4595 
Q 3397 4863 3988 4863 
L 4531 4863 
z
" transform="scale(0.015625)"/>
     </defs>
     <use xlink:href="#DejaVuSans-52"/>
     <use xlink:href="#DejaVuSans-13ae" transform="translate(61.1875 0)"/>
     <use xlink:href="#DejaVuSans-56" transform="translate(130.078125 0)"/>
     <use xlink:href="#DejaVuSans-48" transform="translate(182.171875 0)"/>
     <use xlink:href="#DejaVuSans-57" transform="translate(243.703125 0)"/>
    </g>
   </g>
  </g>
 </g>
 <defs>
  <clipPath id="pff1138980e">
   <rect x="47.962344" y="14.598828" width="301.237656" height="159.278828"/>
  </clipPath>
 </defs>
</svg>
