<?xml version="1.0" encoding="utf-8" standalone="no"?>
<!DOCTYPE svg PUBLIC "-//W3C//DTD SVG 1.1//EN"
  "http://www.w3.org/Graphics/SVG/1.1/DTD/svg11.dtd">
<svg xmlns:xlink="http://www.w3.org/1999/xlink" width="360pt" height="216pt" viewBox="0 0 360 216" xmlns="http://www.w3.org/2000/svg" version="1.1">
 <metadata>
  <rdf:RDF xmlns:dc="http://purl.org/dc/elements/1.1/" xmlns:cc="http://creativecommons.org/ns#" xmlns:rdf="http://www.w3.org/1999/02/22-rdf-syntax-ns#">
   <cc:Work>
    <dc:type rdf:resource="http://purl.org/dc/dcmitype/StillImage"/>
    <dc:date>2026-05-29T21:46:15.146783</dc:date>
    <dc:format>image/svg+xml</dc:format>
    <dc:creator>
     <cc:Agent>
      <dc:title>Matplotlib v3.10.9, https://matplotlib.org/</dc:title>
     </cc:Agent>
    </dc:creator>
   </cc:Work>
  </rdf:RDF>
 </metadata>
 <defs>
  <style type="text/css">*{stroke-linejoin: round; stroke-linecap: butt}</style>
 </defs>
 <g id="figure_1">
  <g id="patch_1">
   <path d="M 0 216 
L 360 216 
L 360 0 
L 0 0 
z
" style="fill: #ffffff"/>
  </g>
  <g id="axes_1">
   <g id="patch_2">
    <path d="M 47.72 174.04 
L 349.2 174.04 
L 349.2 14.76 
L 47.72 14.76 
z
" style="fill: #ffffff"/>
   </g>
   <g id="matplotlib.axis_1">
    <g id="xtick_1">
     <g id="line2d_1">
      <defs>
       <path id="m8a1b7d12f2" d="M 0 0 
L 0 3.5 
" style="stroke: #000000; stroke-width: 0.8"/>
      </defs>
      <g>
       <use xlink:href="#m8a1b7d12f2" x="61.423636" y="174.04" style="stroke: #000000; stroke-width: 0.8"/>
      </g>
     </g>
     <g id="text_1">
      <!-- 0.0 -->
      <g transform="translate(53.472074 188.638438) scale(0.1 -0.1)">
       <defs>
        <path id="DejaVuSans-30" d="M 2034 4250 
Q 1547 4250 1301 3770 
Q 1056 3291 1056 2328 
Q 1056 1369 1301 889 
Q 1547 409 2034 409 
Q 2525 409 2770 889 
Q 3016 1369 3016 2328 
Q 3016 3291 2770 3770 
Q 2525 4250 2034 4250 
z
M 2034 4750 
Q 2819 4750 3233 4129 
Q 3647 3509 3647 2328 
Q 3647 1150 3233 529 
Q 2819 -91 2034 -91 
Q 1250 -91 836 529 
Q 422 1150 422 2328 
Q 422 3509 836 4129 
Q 1250 4750 2034 4750 
z
" transform="scale(0.015625)"/>
        <path id="DejaVuSans-2e" d="M 684 794 
L 1344 794 
L 1344 0 
L 684 0 
L 684 794 
z
" transform="scale(0.015625)"/>
       </defs>
       <use xlink:href="#DejaVuSans-30"/>
       <use xlink:href="#DejaVuSans-2e" transform="translate(63.623047 0)"/>
       <use xlink:href="#DejaVuSans-30" transform="translate(95.410156 0)"/>
      </g>
     </g>
    </g>
    <g id="xtick_2">
     <g id="line2d_2">
      <g>
       <use xlink:href="#m8a1b7d12f2" x="116.238182" y="174.04" style="stroke: #000000; stroke-width: 0.8"/>
      </g>
     </g>
     <g id="text_2">
      <!-- 0.2 -->
      <g transform="translate(108.286619 188.638438) scale(0.1 -0.1)">
       <defs>
        <path id="DejaVuSans-32" d="M 1228 531 
L 3431 531 
L 3431 0 
L 469 0 
L 469 531 
Q 828 903 1448 1529 
Q 2069 2156 2228 2338 
Q 2531 2678 2651 2914 
Q 2772 3150 2772 3378 
Q 2772 3750 2511 3984 
Q 2250 4219 1831 4219 
Q 1534 4219 1204 4116 
Q 875 4013 500 3803 
L 500 4441 
Q 881 4594 1212 4672 
Q 1544 4750 1819 4750 
Q 2544 4750 2975 4387 
Q 3406 4025 3406 3419 
Q 3406 3131 3298 2873 
Q 3191 2616 2906 2266 
Q 2828 2175 2409 1742 
Q 1991 1309 1228 531 
z
" transform="scale(0.015625)"/>
       </defs>
       <use xlink:href="#DejaVuSans-30"/>
       <use xlink:href="#DejaVuSans-2e" transform="translate(63.623047 0)"/>
       <use xlink:href="#DejaVuSans-32" transform="translate(95.410156 0)"/>
      </g>
     </g>
    </g>
    <g id="xtick_3">
     <g id="line2d_3">
      <g>
       <use xlink:href="#m8a1b7d12f2" x="171.052727" y="174.04" style="stroke: #000000; stroke-width: 0.8"/>
      </g>
     </g>
     <g id="text_3">
      <!-- 0.4 -->
      <g transform="translate(163.101165 188.638438) scale(0.1 -0.1)">
       <defs>
        <path id="DejaVuSans-34" d="M 2419 4116 
L 825 1625 
L 2419 1625 
L 2419 4116 
z
M 2253 4666 
L 3047 4666 
L 3047 1625 
L 3713 1625 
L 3713 1100 
L 3047 1100 
L 3047 0 
L 2419 0 
L 2419 1100 
L 313 1100 
L 313 1709 
L 2253 4666 
z
" transform="scale(0.015625)"/>
       </defs>
       <use xlink:href="#DejaVuSans-30"/>
       <use xlink:href="#DejaVuSans-2e" transform="translate(63.623047 0)"/>
       <use xlink:href="#DejaVuSans-34" transform="translate(95.410156 0)"/>
      </g>
     </g>
    </g>
    <g id="xtick_4">
     <g id="line2d_4">
      <g>
       <use xlink:href="#m8a1b7d12f2" x="225.867273" y="174.04" style="stroke: #000000; stroke-width: 0.8"/>
      </g>
     </g>
     <g id="text_4">
      <!-- 0.6 -->
      <g transform="translate(217.91571 188.638438) scale(0.1 -0.1)">
       <defs>
        <path id="DejaVuSans-36" d="M 2113 2584 
Q 1688 2584 1439 2293 
Q 1191 2003 1191 1497 
Q 1191 994 1439 701 
Q 1688 409 2113 409 
Q 2538 409 2786 701 
Q 3034 994 3034 1497 
Q 3034 2003 2786 2293 
Q 2538 2584 2113 2584 
z
M 3366 4563 
L 3366 3988 
Q 3128 4100 2886 4159 
Q 2644 4219 2406 4219 
Q 1781 4219 1451 3797 
Q 1122 3375 1075 2522 
Q 1259 2794 1537 2939 
Q 1816 3084 2150 3084 
Q 2853 3084 3261 2657 
Q 3669 2231 3669 1497 
Q 3669 778 3244 343 
Q 2819 -91 2113 -91 
Q 1303 -91 875 529 
Q 447 1150 447 2328 
Q 447 3434 972 4092 
Q 1497 4750 2381 4750 
Q 2619 4750 2861 4703 
Q 3103 4656 3366 4563 
z
" transform="scale(0.015625)"/>
       </defs>
       <use xlink:href="#DejaVuSans-30"/>
       <use xlink:href="#DejaVuSans-2e" transform="translate(63.623047 0)"/>
       <use xlink:href="#DejaVuSans-36" transform="translate(95.410156 0)"/>
      </g>
     </g>
    </g>
    <g id="xtick_5">
     <g id="line2d_5">
      <g>
       <use xlink:href="#m8a1b7d12f2" x="280.681818" y="174.04" style="stroke: #000000; stroke-width: 0.8"/>
      </g>
     </g>
     <g id="text_5">
      <!-- 0.8 -->
      <g transform="translate(272.730256 188.638438) scale(0.1 -0.1)">
       <defs>
        <path id="DejaVuSans-38" d="M 2034 2216 
Q 1584 2216 1326 1975 
Q 1069 1734 1069 1313 
Q 1069 891 1326 650 
Q 1584 409 2034 409 
Q 2484 409 2743 651 
Q 3003 894 3003 1313 
Q 3003 1734 2745 1975 
Q 2488 2216 2034 2216 
z
M 1403 2484 
Q 997 2584 770 2862 
Q 544 3141 544 3541 
Q 544 4100 942 4425 
Q 1341 4750 2034 4750 
Q 2731 4750 3128 4425 
Q 3525 4100 3525 3541 
Q 3525 3141 3298 2862 
Q 3072 2584 2669 2484 
Q 3125 2378 3379 2068 
Q 3634 1759 3634 1313 
Q 3634 634 3220 271 
Q 2806 -91 2034 -91 
Q 1263 -91 848 271 
Q 434 634 434 1313 
Q 434 1759 690 2068 
Q 947 2378 1403 2484 
z
M 1172 3481 
Q 1172 3119 1398 2916 
Q 1625 2713 2034 2713 
Q 2441 2713 2670 2916 
Q 2900 3119 2900 3481 
Q 2900 3844 2670 4047 
Q 2441 4250 2034 4250 
Q 1625 4250 1398 4047 
Q 1172 3844 1172 3481 
z
" transform="scale(0.015625)"/>
       </defs>
       <use xlink:href="#DejaVuSans-30"/>
       <use xlink:href="#DejaVuSans-2e" transform="translate(63.623047 0)"/>
       <use xlink:href="#DejaVuSans-38" transform="translate(95.410156 0)"/>
      </g>
     </g>
    </g>
    <g id="xtick_6">
     <g id="line2d_6">
      <g>
       <use xlink:href="#m8a1b7d12f2" x="335.496364" y="174.04" style="stroke: #000000; stroke-width: 0.8"/>
      </g>
     </g>
     <g id="text_6">
      <!-- 1.0 -->
      <g transform="translate(327.544801 188.638438) scale(0.1 -0.1)">
       <defs>
        <path id="DejaVuSans-31" d="M 794 531 
L 1825 531 
L 1825 4091 
L 703 3866 
L 703 4441 
L 1819 4666 
L 2450 4666 
L 2450 531 
L 3481 531 
L 3481 0 
L 794 0 
L 794 531 
z
" transform="scale(0.015625)"/>
       </defs>
       <use xlink:href="#DejaVuSans-31"/>
       <use xlink:href="#DejaVuSans-2e" transform="translate(63.623047 0)"/>
       <use xlink:href="#DejaVuSans-30" transform="translate(95.410156 0)"/>
      </g>
     </g>
    </g>
    <g id="text_7">
     <!-- Time (sec) -->
     <g transform="translate(172.305312 202.316563) scale(0.1 -0.1)">
      <defs>
       <path id="DejaVuSans-54" d="M -19 4666 
L 3928 4666 
L 3928 4134 
L 2272 4134 
L 2272 0 
L 1638 0 
L 1638 4134 
L -19 4134 
L -19 4666 
z
" transform="scale(0.015625)"/>
       <path id="DejaVuSans-69" d="M 603 3500 
L 1178 3500 
L 1178 0 
L 603 0 
L 603 3500 
z
M 603 4863 
L 1178 4863 
L 1178 4134 
L 603 4134 
L 603 4863 
z
" transform="scale(0.015625)"/>
       <path id="DejaVuSans-6d" d="M 3328 2828 
Q 3544 3216 3844 3400 
Q 4144 3584 4550 3584 
Q 5097 3584 5394 3201 
Q 5691 2819 5691 2113 
L 5691 0 
L 5113 0 
L 5113 2094 
Q 5113 2597 4934 2840 
Q 4756 3084 4391 3084 
Q 3944 3084 3684 2787 
Q 3425 2491 3425 1978 
L 3425 0 
L 2847 0 
L 2847 2094 
Q 2847 2600 2669 2842 
Q 2491 3084 2119 3084 
Q 1678 3084 1418 2786 
Q 1159 2488 1159 1978 
L 1159 0 
L 581 0 
L 581 3500 
L 1159 3500 
L 1159 2956 
Q 1356 3278 1631 3431 
Q 1906 3584 2284 3584 
Q 2666 3584 2933 3390 
Q 3200 3197 3328 2828 
z
" transform="scale(0.015625)"/>
       <path id="DejaVuSans-65" d="M 3597 1894 
L 3597 1613 
L 953 1613 
Q 991 1019 1311 708 
Q 1631 397 2203 397 
Q 2534 397 2845 478 
Q 3156 559 3463 722 
L 3463 178 
Q 3153 47 2828 -22 
Q 2503 -91 2169 -91 
Q 1331 -91 842 396 
Q 353 884 353 1716 
Q 353 2575 817 3079 
Q 1281 3584 2069 3584 
Q 2775 3584 3186 3129 
Q 3597 2675 3597 1894 
z
M 3022 2063 
Q 3016 2534 2758 2815 
Q 2500 3097 2075 3097 
Q 1594 3097 1305 2825 
Q 1016 2553 972 2059 
L 3022 2063 
z
" transform="scale(0.015625)"/>
       <path id="DejaVuSans-20" transform="scale(0.015625)"/>
       <path id="DejaVuSans-28" d="M 1984 4856 
Q 1566 4138 1362 3434 
Q 1159 2731 1159 2009 
Q 1159 1288 1364 580 
Q 1569 -128 1984 -844 
L 1484 -844 
Q 1016 -109 783 600 
Q 550 1309 550 2009 
Q 550 2706 781 3412 
Q 1013 4119 1484 4856 
L 1984 4856 
z
" transform="scale(0.015625)"/>
       <path id="DejaVuSans-73" d="M 2834 3397 
L 2834 2853 
Q 2591 2978 2328 3040 
Q 2066 3103 1784 3103 
Q 1356 3103 1142 2972 
Q 928 2841 928 2578 
Q 928 2378 1081 2264 
Q 1234 2150 1697 2047 
L 1894 2003 
Q 2506 1872 2764 1633 
Q 3022 1394 3022 966 
Q 3022 478 2636 193 
Q 2250 -91 1575 -91 
Q 1294 -91 989 -36 
Q 684 19 347 128 
L 347 722 
Q 666 556 975 473 
Q 1284 391 1588 391 
Q 1994 391 2212 530 
Q 2431 669 2431 922 
Q 2431 1156 2273 1281 
Q 2116 1406 1581 1522 
L 1381 1569 
Q 847 1681 609 1914 
Q 372 2147 372 2553 
Q 372 3047 722 3315 
Q 1072 3584 1716 3584 
Q 2034 3584 2315 3537 
Q 2597 3491 2834 3397 
z
" transform="scale(0.015625)"/>
       <path id="DejaVuSans-63" d="M 3122 3366 
L 3122 2828 
Q 2878 2963 2633 3030 
Q 2388 3097 2138 3097 
Q 1578 3097 1268 2742 
Q 959 2388 959 1747 
Q 959 1106 1268 751 
Q 1578 397 2138 397 
Q 2388 397 2633 464 
Q 2878 531 3122 666 
L 3122 134 
Q 2881 22 2623 -34 
Q 2366 -91 2075 -91 
Q 1284 -91 818 406 
Q 353 903 353 1747 
Q 353 2603 823 3093 
Q 1294 3584 2113 3584 
Q 2378 3584 2631 3529 
Q 2884 3475 3122 3366 
z
" transform="scale(0.015625)"/>
       <path id="DejaVuSans-29" d="M 513 4856 
L 1013 4856 
Q 1481 4119 1714 3412 
Q 1947 2706 1947 2009 
Q 1947 1309 1714 600 
Q 1481 -109 1013 -844 
L 513 -844 
Q 928 -128 1133 580 
Q 1338 1288 1338 2009 
Q 1338 2731 1133 3434 
Q 928 4138 513 4856 
z
" transform="scale(0.015625)"/>
      </defs>
      <use xlink:href="#DejaVuSans-54"/>
      <use xlink:href="#DejaVuSans-69" transform="translate(57.958984 0)"/>
      <use xlink:href="#DejaVuSans-6d" transform="translate(85.742188 0)"/>
      <use xlink:href="#DejaVuSans-65" transform="translate(183.154297 0)"/>
      <use xlink:href="#DejaVuSans-20" transform="translate(244.677734 0)"/>
      <use xlink:href="#DejaVuSans-28" transform="translate(276.464844 0)"/>
      <use xlink:href="#DejaVuSans-73" transform="translate(315.478516 0)"/>
      <use xlink:href="#DejaVuSans-65" transform="translate(367.578125 0)"/>
      <use xlink:href="#DejaVuSans-63" transform="translate(429.101562 0)"/>
      <use xlink:href="#DejaVuSans-29" transform="translate(484.082031 0)"/>
     </g>
    </g>
   </g>
   <g id="matplotlib.axis_2">
    <g id="ytick_1">
     <g id="line2d_7">
      <defs>
       <path id="m2ac890ed16" d="M 0 0 
L -3.5 0 
" style="stroke: #000000; stroke-width: 0.8"/>
      </defs>
      <g>
       <use xlink:href="#m2ac890ed16" x="47.72" y="159.56" style="stroke: #000000; stroke-width: 0.8"/>
      </g>
     </g>
     <g id="text_8">
      <!-- 0.0 -->
      <g transform="translate(24.816875 163.359219) scale(0.1 -0.1)">
       <use xlink:href="#DejaVuSans-30"/>
       <use xlink:href="#DejaVuSans-2e" transform="translate(63.623047 0)"/>
       <use xlink:href="#DejaVuSans-30" transform="translate(95.410156 0)"/>
      </g>
     </g>
    </g>
    <g id="ytick_2">
     <g id="line2d_8">
      <g>
       <use xlink:href="#m2ac890ed16" x="47.72" y="130.6" style="stroke: #000000; stroke-width: 0.8"/>
      </g>
     </g>
     <g id="text_9">
      <!-- 0.2 -->
      <g transform="translate(24.816875 134.399219) scale(0.1 -0.1)">
       <use xlink:href="#DejaVuSans-30"/>
       <use xlink:href="#DejaVuSans-2e" transform="translate(63.623047 0)"/>
       <use xlink:href="#DejaVuSans-32" transform="translate(95.410156 0)"/>
      </g>
     </g>
    </g>
    <g id="ytick_3">
     <g id="line2d_9">
      <g>
       <use xlink:href="#m2ac890ed16" x="47.72" y="101.64" style="stroke: #000000; stroke-width: 0.8"/>
      </g>
     </g>
     <g id="text_10">
      <!-- 0.4 -->
      <g transform="translate(24.816875 105.439219) scale(0.1 -0.1)">
       <use xlink:href="#DejaVuSans-30"/>
       <use xlink:href="#DejaVuSans-2e" transform="translate(63.623047 0)"/>
       <use xlink:href="#DejaVuSans-34" transform="translate(95.410156 0)"/>
      </g>
     </g>
    </g>
    <g id="ytick_4">
     <g id="line2d_10">
      <g>
       <use xlink:href="#m2ac890ed16" x="47.72" y="72.68" style="stroke: #000000; stroke-width: 0.8"/>
      </g>
     </g>
     <g id="text_11">
      <!-- 0.6 -->
      <g transform="translate(24.816875 76.479219) scale(0.1 -0.1)">
       <use xlink:href="#DejaVuSans-30"/>
       <use xlink:href="#DejaVuSans-2e" transform="translate(63.623047 0)"/>
       <use xlink:href="#DejaVuSans-36" transform="translate(95.410156 0)"/>
      </g>
     </g>
    </g>
    <g id="ytick_5">
     <g id="line2d_11">
      <g>
       <use xlink:href="#m2ac890ed16" x="47.72" y="43.72" style="stroke: #000000; stroke-width: 0.8"/>
      </g>
     </g>
     <g id="text_12">
      <!-- 0.8 -->
      <g transform="translate(24.816875 47.519219) scale(0.1 -0.1)">
       <use xlink:href="#DejaVuSans-30"/>
       <use xlink:href="#DejaVuSans-2e" transform="translate(63.623047 0)"/>
       <use xlink:href="#DejaVuSans-38" transform="translate(95.410156 0)"/>
      </g>
     </g>
    </g>
    <g id="ytick_6">
     <g id="line2d_12">
      <g>
       <use xlink:href="#m2ac890ed16" x="47.72" y="14.76" style="stroke: #000000; stroke-width: 0.8"/>
      </g>
     </g>
     <g id="text_13">
      <!-- 1.0 -->
      <g transform="translate(24.816875 18.559219) scale(0.1 -0.1)">
       <use xlink:href="#DejaVuSans-31"/>
       <use xlink:href="#DejaVuSans-2e" transform="translate(63.623047 0)"/>
       <use xlink:href="#DejaVuSans-30" transform="translate(95.410156 0)"/>
      </g>
     </g>
    </g>
    <g id="text_14">
     <!-- Injected Signal -->
     <g transform="translate(18.737188 131.417969) rotate(-90) scale(0.1 -0.1)">
      <defs>
       <path id="DejaVuSans-49" d="M 628 4666 
L 1259 4666 
L 1259 0 
L 628 0 
L 628 4666 
z
" transform="scale(0.015625)"/>
       <path id="DejaVuSans-6e" d="M 3513 2113 
L 3513 0 
L 2938 0 
L 2938 2094 
Q 2938 2591 2744 2837 
Q 2550 3084 2163 3084 
Q 1697 3084 1428 2787 
Q 1159 2491 1159 1978 
L 1159 0 
L 581 0 
L 581 3500 
L 1159 3500 
L 1159 2956 
Q 1366 3272 1645 3428 
Q 1925 3584 2291 3584 
Q 2894 3584 3203 3211 
Q 3513 2838 3513 2113 
z
" transform="scale(0.015625)"/>
       <path id="DejaVuSans-6a" d="M 603 3500 
L 1178 3500 
L 1178 -63 
Q 1178 -731 923 -1031 
Q 669 -1331 103 -1331 
L -116 -1331 
L -116 -844 
L 38 -844 
Q 366 -844 484 -692 
Q 603 -541 603 -63 
L 603 3500 
z
M 603 4863 
L 1178 4863 
L 1178 4134 
L 603 4134 
L 603 4863 
z
" transform="scale(0.015625)"/>
       <path id="DejaVuSans-74" d="M 1172 4494 
L 1172 3500 
L 2356 3500 
L 2356 3053 
L 1172 3053 
L 1172 1153 
Q 1172 725 1289 603 
Q 1406 481 1766 481 
L 2356 481 
L 2356 0 
L 1766 0 
Q 1100 0 847 248 
Q 594 497 594 1153 
L 594 3053 
L 172 3053 
L 172 3500 
L 594 3500 
L 594 4494 
L 1172 4494 
z
" transform="scale(0.015625)"/>
       <path id="DejaVuSans-64" d="M 2906 2969 
L 2906 4863 
L 3481 4863 
L 3481 0 
L 2906 0 
L 2906 525 
Q 2725 213 2448 61 
Q 2172 -91 1784 -91 
Q 1150 -91 751 415 
Q 353 922 353 1747 
Q 353 2572 751 3078 
Q 1150 3584 1784 3584 
Q 2172 3584 2448 3432 
Q 2725 3281 2906 2969 
z
M 947 1747 
Q 947 1113 1208 752 
Q 1469 391 1925 391 
Q 2381 391 2643 752 
Q 2906 1113 2906 1747 
Q 2906 2381 2643 2742 
Q 2381 3103 1925 3103 
Q 1469 3103 1208 2742 
Q 947 2381 947 1747 
z
" transform="scale(0.015625)"/>
       <path id="DejaVuSans-53" d="M 3425 4513 
L 3425 3897 
Q 3066 4069 2747 4153 
Q 2428 4238 2131 4238 
Q 1616 4238 1336 4038 
Q 1056 3838 1056 3469 
Q 1056 3159 1242 3001 
Q 1428 2844 1947 2747 
L 2328 2669 
Q 3034 2534 3370 2195 
Q 3706 1856 3706 1288 
Q 3706 609 3251 259 
Q 2797 -91 1919 -91 
Q 1588 -91 1214 -16 
Q 841 59 441 206 
L 441 856 
Q 825 641 1194 531 
Q 1563 422 1919 422 
Q 2459 422 2753 634 
Q 3047 847 3047 1241 
Q 3047 1584 2836 1778 
Q 2625 1972 2144 2069 
L 1759 2144 
Q 1053 2284 737 2584 
Q 422 2884 422 3419 
Q 422 4038 858 4394 
Q 1294 4750 2059 4750 
Q 2388 4750 2728 4690 
Q 3069 4631 3425 4513 
z
" transform="scale(0.015625)"/>
       <path id="DejaVuSans-67" d="M 2906 1791 
Q 2906 2416 2648 2759 
Q 2391 3103 1925 3103 
Q 1463 3103 1205 2759 
Q 947 2416 947 1791 
Q 947 1169 1205 825 
Q 1463 481 1925 481 
Q 2391 481 2648 825 
Q 2906 1169 2906 1791 
z
M 3481 434 
Q 3481 -459 3084 -895 
Q 2688 -1331 1869 -1331 
Q 1566 -1331 1297 -1286 
Q 1028 -1241 775 -1147 
L 775 -588 
Q 1028 -725 1275 -790 
Q 1522 -856 1778 -856 
Q 2344 -856 2625 -561 
Q 2906 -266 2906 331 
L 2906 616 
Q 2728 306 2450 153 
Q 2172 0 1784 0 
Q 1141 0 747 490 
Q 353 981 353 1791 
Q 353 2603 747 3093 
Q 1141 3584 1784 3584 
Q 2172 3584 2450 3431 
Q 2728 3278 2906 2969 
L 2906 3500 
L 3481 3500 
L 3481 434 
z
" transform="scale(0.015625)"/>
       <path id="DejaVuSans-61" d="M 2194 1759 
Q 1497 1759 1228 1600 
Q 959 1441 959 1056 
Q 959 750 1161 570 
Q 1363 391 1709 391 
Q 2188 391 2477 730 
Q 2766 1069 2766 1631 
L 2766 1759 
L 2194 1759 
z
M 3341 1997 
L 3341 0 
L 2766 0 
L 2766 531 
Q 2569 213 2275 61 
Q 1981 -91 1556 -91 
Q 1019 -91 701 211 
Q 384 513 384 1019 
Q 384 1609 779 1909 
Q 1175 2209 1959 2209 
L 2766 2209 
L 2766 2266 
Q 2766 2663 2505 2880 
Q 2244 3097 1772 3097 
Q 1472 3097 1187 3025 
Q 903 2953 641 2809 
L 641 3341 
Q 956 3463 1253 3523 
Q 1550 3584 1831 3584 
Q 2591 3584 2966 3190 
Q 3341 2797 3341 1997 
z
" transform="scale(0.015625)"/>
       <path id="DejaVuSans-6c" d="M 603 4863 
L 1178 4863 
L 1178 0 
L 603 0 
L 603 4863 
z
" transform="scale(0.015625)"/>
      </defs>
      <use xlink:href="#DejaVuSans-49"/>
      <use xlink:href="#DejaVuSans-6e" transform="translate(29.492188 0)"/>
      <use xlink:href="#DejaVuSans-6a" transform="translate(92.871094 0)"/>
      <use xlink:href="#DejaVuSans-65" transform="translate(120.654297 0)"/>
      <use xlink:href="#DejaVuSans-63" transform="translate(182.177734 0)"/>
      <use xlink:href="#DejaVuSans-74" transform="translate(237.158203 0)"/>
      <use xlink:href="#DejaVuSans-65" transform="translate(276.367188 0)"/>
      <use xlink:href="#DejaVuSans-64" transform="translate(337.890625 0)"/>
      <use xlink:href="#DejaVuSans-20" transform="translate(401.367188 0)"/>
      <use xlink:href="#DejaVuSans-53" transform="translate(433.154297 0)"/>
      <use xlink:href="#DejaVuSans-69" transform="translate(496.630859 0)"/>
      <use xlink:href="#DejaVuSans-67" transform="translate(524.414062 0)"/>
      <use xlink:href="#DejaVuSans-6e" transform="translate(587.890625 0)"/>
      <use xlink:href="#DejaVuSans-61" transform="translate(651.269531 0)"/>
      <use xlink:href="#DejaVuSans-6c" transform="translate(712.548828 0)"/>
     </g>
    </g>
   </g>
   <g id="line2d_13">
    <path d="M 61.423636 57.246844 
L 61.697709 109.818154 
L 61.971782 63.522637 
L 62.245855 116.245849 
L 62.519927 102.752654 
L 62.794 129.884205 
L 63.068073 130.243583 
L 63.342145 115.138165 
L 63.616218 122.923301 
L 63.890291 109.447845 
L 64.164364 75.513289 
L 64.438436 83.059681 
L 64.712509 50.729316 
L 65.260655 122.39562 
L 65.534727 66.669783 
L 65.8088 63.87329 
L 66.082873 74.168154 
L 66.356945 101.879725 
L 66.631018 110.494836 
L 66.905091 105.392661 
L 67.179164 52.618578 
L 67.453236 86.360331 
L 67.727309 97.995608 
L 68.001382 114.429103 
L 68.275455 116.307907 
L 68.549527 65.471459 
L 68.8236 108.584464 
L 69.097673 61.603046 
L 69.371745 107.07262 
L 69.645818 110.401013 
L 69.919891 124.38237 
L 70.193964 80.993439 
L 70.468036 130.498714 
L 70.742109 66.755356 
L 71.016182 49.096622 
L 71.290255 119.088761 
L 71.564327 45.229354 
L 71.8384 80.830393 
L 72.112473 85.070718 
L 72.386545 46.553217 
L 72.660618 50.918958 
L 72.934691 85.341088 
L 73.208764 85.553628 
L 73.482836 108.514875 
L 73.756909 48.352948 
L 74.030982 121.618632 
L 74.305055 101.766384 
L 74.579127 45.645242 
L 74.8532 61.368844 
L 75.127273 93.767213 
L 75.401345 46.732576 
L 75.675418 129.334549 
L 75.949491 52.11731 
L 76.223564 104.497681 
L 76.497636 124.228733 
L 76.771709 67.691368 
L 77.045782 130.125958 
L 77.593927 81.838745 
L 77.868 54.677643 
L 78.142073 110.827995 
L 78.416145 65.787417 
L 78.690218 82.143956 
L 78.964291 65.974979 
L 79.238364 81.530325 
L 79.512436 128.931627 
L 79.786509 93.885567 
L 80.060582 95.252986 
L 80.334655 123.299351 
L 80.608727 62.026682 
L 80.8828 73.361437 
L 81.156873 102.512753 
L 81.430945 53.064842 
L 81.705018 118.542897 
L 81.979091 59.150947 
L 82.253164 128.524111 
L 82.527236 53.649598 
L 82.801309 70.083721 
L 83.075382 45.541098 
L 83.349455 91.819611 
L 83.623527 105.285417 
L 83.8976 103.338206 
L 84.171673 74.295208 
L 84.445745 71.553651 
L 84.719818 53.638611 
L 84.993891 117.011786 
L 85.267964 90.189197 
L 86.090182 49.114647 
L 86.364255 94.951026 
L 86.638327 109.966428 
L 86.9124 58.011904 
L 87.186473 62.134659 
L 87.460545 105.160473 
L 87.734618 85.045977 
L 88.008691 55.996634 
L 88.282764 124.523831 
L 88.556836 93.2839 
L 88.830909 107.564767 
L 89.104982 58.428618 
L 89.379055 74.165986 
L 89.653127 63.761526 
L 89.9272 47.000648 
L 90.201273 108.982818 
L 90.475345 66.454475 
L 90.749418 91.071889 
L 91.297564 112.80863 
L 91.571636 84.281376 
L 91.845709 119.438862 
L 92.119782 72.215878 
L 92.393855 69.258595 
L 92.667927 69.48969 
L 92.942 96.161635 
L 93.216073 80.248381 
L 93.490145 111.183792 
L 93.764218 78.816348 
L 94.038291 89.911858 
L 94.312364 56.46085 
L 94.586436 64.877824 
L 94.860509 121.363421 
L 95.408655 63.89651 
L 95.682727 45.919893 
L 95.9568 118.106404 
L 96.230873 75.757178 
L 96.504945 102.669102 
L 96.779018 99.766977 
L 97.053091 87.323671 
L 97.327164 90.171997 
L 97.601236 74.006494 
L 97.875309 119.533476 
L 98.149382 117.232957 
L 98.423455 90.219072 
L 98.697527 78.882031 
L 98.9716 93.103417 
L 99.245673 76.882579 
L 99.519745 101.947702 
L 99.793818 80.435289 
L 100.067891 97.297104 
L 100.341964 90.57755 
L 100.616036 51.890974 
L 100.890109 57.273788 
L 101.164182 66.178629 
L 101.438255 121.127963 
L 101.712327 111.833699 
L 101.9864 57.341886 
L 102.260473 92.37779 
L 102.534545 46.082196 
L 102.808618 114.716985 
L 103.082691 51.179837 
L 103.356764 55.114907 
L 103.630836 116.172968 
L 103.904909 75.861638 
L 104.178982 102.089327 
L 104.453055 51.851117 
L 104.727127 103.15523 
L 105.0012 73.129955 
L 105.275273 64.036082 
L 105.549345 122.558367 
L 105.823418 105.468439 
L 106.097491 109.295911 
L 106.371564 70.781408 
L 106.645636 81.212043 
L 106.919709 55.782916 
L 107.193782 49.28455 
L 107.741927 117.763357 
L 108.016 46.675008 
L 108.290073 79.492131 
L 108.564145 97.599651 
L 108.838218 127.899192 
L 109.386364 59.732975 
L 109.660436 62.465251 
L 109.934509 72.766809 
L 110.208582 118.68757 
L 110.482655 55.744988 
L 110.756727 104.097058 
L 111.0308 121.508804 
L 111.304873 67.81438 
L 111.578945 95.63781 
L 111.853018 72.961854 
L 112.127091 64.713118 
L 112.401164 62.887543 
L 112.949309 126.579836 
L 113.223382 126.589616 
L 113.497455 117.573588 
L 113.771527 94.913852 
L 114.0456 87.378882 
L 114.319673 47.563579 
L 114.593745 68.513839 
L 114.867818 68.614082 
L 115.141891 120.891428 
L 115.415964 66.625477 
L 115.690036 80.008738 
L 115.964109 61.171463 
L 116.238182 71.828775 
L 116.512255 112.346543 
L 116.786327 87.026618 
L 117.0604 121.914202 
L 117.334473 78.139113 
L 117.608545 78.861206 
L 117.882618 98.881032 
L 118.156691 128.860784 
L 118.430764 128.288941 
L 118.704836 99.255921 
L 118.978909 108.139725 
L 119.252982 70.955019 
L 119.801127 121.319532 
L 120.0752 126.53594 
L 120.349273 62.353361 
L 120.623345 52.288996 
L 121.171491 86.735412 
L 121.445564 128.554157 
L 121.719636 86.113593 
L 121.993709 121.348459 
L 122.267782 102.720305 
L 122.541855 64.611208 
L 122.815927 102.232828 
L 123.09 85.060097 
L 123.364073 85.255315 
L 123.638145 79.922722 
L 123.912218 97.953161 
L 124.186291 94.16587 
L 124.460364 97.94675 
L 124.734436 115.385803 
L 125.282582 47.803426 
L 125.556655 72.452402 
L 125.830727 62.87389 
L 126.1048 46.018629 
L 126.378873 59.296264 
L 126.652945 53.872136 
L 126.927018 51.914589 
L 127.201091 87.201646 
L 127.475164 57.052651 
L 127.749236 117.536702 
L 128.023309 94.173065 
L 128.297382 52.957775 
L 128.571455 98.393238 
L 128.845527 80.445814 
L 129.1196 48.32262 
L 129.393673 82.093912 
L 129.667745 90.366311 
L 129.941818 53.405729 
L 130.215891 111.958872 
L 130.489964 108.232187 
L 130.764036 82.429252 
L 131.038109 121.954475 
L 131.312182 124.685908 
L 131.586255 123.548645 
L 131.860327 115.862925 
L 132.1344 102.745818 
L 132.408473 62.693001 
L 132.682545 99.051398 
L 132.956618 51.034646 
L 133.230691 75.261287 
L 133.504764 46.706746 
L 133.778836 84.94313 
L 134.052909 103.75224 
L 134.326982 70.50561 
L 134.601055 116.90458 
L 134.875127 78.188003 
L 135.1492 65.705468 
L 135.423273 117.076114 
L 135.697345 108.745123 
L 135.971418 117.837464 
L 136.519564 45.6304 
L 136.793636 46.907609 
L 137.067709 104.644223 
L 137.341782 51.919559 
L 137.615855 67.630047 
L 137.889927 113.783753 
L 138.164 127.515432 
L 138.438073 45.21404 
L 138.712145 103.535764 
L 138.986218 125.052541 
L 139.260291 98.063229 
L 139.534364 106.046972 
L 139.808436 89.129026 
L 140.082509 127.22692 
L 140.356582 106.707011 
L 140.630655 66.565909 
L 140.904727 115.233159 
L 141.1788 86.264647 
L 141.452873 87.945278 
L 141.726945 71.86281 
L 142.001018 90.183904 
L 142.275091 127.750208 
L 142.549164 105.239528 
L 142.823236 99.21318 
L 143.097309 49.546126 
L 143.371382 125.061757 
L 143.645455 111.863781 
L 143.919527 82.695871 
L 144.1936 104.479886 
L 144.467673 69.881811 
L 144.741745 124.505641 
L 145.015818 97.231034 
L 145.289891 107.3312 
L 145.563964 56.35717 
L 145.838036 102.262463 
L 146.112109 102.87225 
L 146.386182 130.479781 
L 146.660255 81.889864 
L 146.934327 65.083383 
L 147.2084 80.50629 
L 147.756545 90.948562 
L 148.030618 120.287369 
L 148.304691 100.061132 
L 148.578764 52.644796 
L 148.852836 109.839755 
L 149.126909 46.732701 
L 149.400982 79.098038 
L 149.675055 89.066335 
L 149.949127 84.401377 
L 150.2232 53.826815 
L 150.497273 108.83824 
L 150.771345 67.967368 
L 151.045418 88.392136 
L 151.319491 58.769354 
L 151.593564 77.792255 
L 151.867636 82.225508 
L 152.689855 114.977146 
L 153.238 82.357531 
L 153.786145 110.860097 
L 154.060218 47.87643 
L 154.334291 110.141867 
L 154.608364 88.123191 
L 154.882436 112.683936 
L 155.156509 59.442824 
L 155.430582 112.057077 
L 155.704655 108.325772 
L 155.978727 119.421574 
L 156.2528 92.704284 
L 156.526873 47.457968 
L 156.800945 120.337902 
L 157.075018 112.439888 
L 157.623164 61.023804 
L 157.897236 123.202732 
L 158.171309 48.172292 
L 158.445382 79.442858 
L 158.719455 124.312144 
L 158.993527 46.409025 
L 159.2676 76.444247 
L 159.541673 127.810814 
L 159.815745 90.221394 
L 160.089818 77.586328 
L 160.363891 126.52032 
L 160.637964 95.4818 
L 160.912036 107.238595 
L 161.186109 83.703456 
L 161.460182 80.59546 
L 161.734255 105.324299 
L 162.008327 108.451258 
L 162.2824 91.878873 
L 162.556473 59.869604 
L 162.830545 79.646367 
L 163.104618 108.274368 
L 163.378691 73.145972 
L 163.652764 119.474557 
L 163.926836 52.166678 
L 164.200909 79.100179 
L 164.474982 56.545609 
L 164.749055 77.544536 
L 165.023127 87.219772 
L 165.2972 103.997382 
L 165.571273 109.211478 
L 166.119418 53.884161 
L 166.393491 104.769655 
L 166.667564 55.032341 
L 166.941636 85.794266 
L 167.215709 75.389762 
L 167.489782 103.079051 
L 167.763855 91.938504 
L 168.037927 73.421739 
L 168.312 76.203528 
L 168.586073 65.407859 
L 168.860145 83.705578 
L 169.134218 121.504119 
L 169.408291 64.921682 
L 169.956436 116.649713 
L 170.504582 88.961858 
L 170.778655 54.76067 
L 171.052727 98.594283 
L 171.3268 61.631954 
L 171.600873 112.625164 
L 171.874945 90.839001 
L 172.149018 108.080876 
L 172.423091 58.216825 
L 172.971236 107.642508 
L 173.245309 71.590591 
L 173.519382 102.623476 
L 174.067527 67.17957 
L 174.3416 62.551601 
L 174.615673 61.285136 
L 174.889745 93.475415 
L 175.163818 105.3558 
L 175.437891 77.196669 
L 175.711964 105.11448 
L 175.986036 97.574575 
L 176.260109 117.354752 
L 176.534182 115.510331 
L 176.808255 58.240645 
L 177.082327 115.186976 
L 177.3564 97.081272 
L 177.630473 54.100708 
L 177.904545 101.293241 
L 178.178618 44.381109 
L 178.452691 64.426382 
L 178.726764 126.583811 
L 179.000836 102.028695 
L 179.274909 49.489303 
L 179.548982 125.350163 
L 179.823055 94.031798 
L 180.3712 102.756994 
L 180.645273 122.194237 
L 180.919345 72.18476 
L 181.193418 48.157693 
L 181.467491 94.351702 
L 181.741564 116.729811 
L 182.015636 120.559954 
L 182.289709 88.331042 
L 182.563782 115.044053 
L 182.837855 49.270018 
L 183.111927 105.252172 
L 183.386 104.073796 
L 183.660073 130.516593 
L 183.934145 78.049991 
L 184.208218 72.618825 
L 184.482291 101.054879 
L 184.756364 65.200397 
L 185.030436 113.972172 
L 185.304509 65.609776 
L 185.578582 48.561439 
L 185.852655 92.368274 
L 186.126727 66.206773 
L 186.4008 125.347212 
L 186.674873 119.826478 
L 186.948945 81.094295 
L 187.223018 77.46954 
L 187.497091 82.82127 
L 188.045236 112.237959 
L 188.319309 77.269229 
L 188.593382 69.272252 
L 188.867455 113.771132 
L 189.141527 130.396893 
L 189.4156 71.410269 
L 189.689673 62.685021 
L 189.963745 129.627711 
L 190.237818 46.497269 
L 190.511891 92.127193 
L 191.060036 120.795951 
L 191.334109 76.223848 
L 191.608182 75.839461 
L 191.882255 87.548496 
L 192.156327 105.743588 
L 192.4304 61.414241 
L 192.704473 62.526614 
L 192.978545 69.059779 
L 193.252618 43.896636 
L 193.526691 107.047226 
L 193.800764 58.809227 
L 194.074836 106.565102 
L 194.348909 53.613172 
L 194.622982 72.891885 
L 194.897055 48.411244 
L 195.171127 103.640148 
L 195.719273 69.565942 
L 195.993345 116.764711 
L 196.267418 44.790008 
L 196.541491 114.759396 
L 196.815564 121.628786 
L 197.089636 82.466972 
L 197.363709 100.656803 
L 197.637782 45.440815 
L 197.911855 75.45763 
L 198.185927 56.06878 
L 198.46 118.055735 
L 198.734073 100.462764 
L 199.008145 66.538318 
L 199.282218 105.700717 
L 199.556291 85.427144 
L 199.830364 74.520259 
L 200.926655 127.475631 
L 201.200727 122.456219 
L 201.4748 91.361623 
L 201.748873 96.252545 
L 202.022945 125.490522 
L 202.297018 108.323931 
L 202.571091 110.190827 
L 202.845164 110.493195 
L 203.119236 68.625745 
L 203.393309 110.880093 
L 203.667382 87.83515 
L 203.941455 129.971365 
L 204.215527 105.899966 
L 204.4896 100.296194 
L 204.763673 120.205539 
L 205.037745 130.54119 
L 205.311818 52.163503 
L 205.585891 104.417923 
L 205.859964 63.764749 
L 206.134036 124.234437 
L 206.408109 83.525056 
L 206.682182 69.410808 
L 206.956255 115.126519 
L 207.230327 57.088566 
L 207.5044 122.173453 
L 207.778473 115.321243 
L 208.052545 51.364332 
L 208.326618 64.286541 
L 208.600691 56.400435 
L 208.874764 114.910945 
L 209.148836 78.317354 
L 209.422909 127.242303 
L 209.971055 77.195178 
L 210.245127 94.19747 
L 210.5192 55.281599 
L 210.793273 56.339923 
L 211.067345 106.644578 
L 211.341418 117.565193 
L 211.615491 81.834504 
L 211.889564 94.260023 
L 212.437709 50.629382 
L 212.711782 66.378026 
L 212.985855 57.52281 
L 213.259927 65.946572 
L 213.534 62.294673 
L 213.808073 44.166519 
L 214.082145 113.686603 
L 214.356218 107.581385 
L 214.630291 124.122548 
L 214.904364 72.927116 
L 215.452509 120.315095 
L 215.726582 123.075953 
L 216.000655 46.622242 
L 216.274727 80.48853 
L 216.5488 78.543897 
L 216.822873 120.174399 
L 217.096945 88.92965 
L 217.371018 74.75977 
L 217.645091 122.935181 
L 217.919164 68.348308 
L 218.193236 73.936094 
L 218.467309 110.477213 
L 218.741382 66.302014 
L 219.015455 98.376197 
L 219.289527 100.445017 
L 219.837673 45.747048 
L 220.111745 70.049499 
L 220.385818 129.424295 
L 220.659891 73.242833 
L 220.933964 100.467479 
L 221.208036 96.825546 
L 221.482109 128.489135 
L 221.756182 102.001734 
L 222.030255 127.937233 
L 222.304327 129.463206 
L 222.5784 70.353096 
L 222.852473 66.793712 
L 223.400618 111.308791 
L 223.674691 91.801769 
L 223.948764 99.052082 
L 224.222836 83.923331 
L 224.496909 53.039003 
L 225.045055 121.588028 
L 225.319127 88.436306 
L 226.141345 53.672744 
L 226.415418 89.085791 
L 226.689491 97.806293 
L 226.963564 50.819627 
L 227.237636 107.728195 
L 227.511709 90.065859 
L 227.785782 128.585966 
L 228.059855 99.760868 
L 228.333927 106.518684 
L 228.608 71.576437 
L 228.882073 118.266565 
L 229.156145 105.83501 
L 229.430218 53.993398 
L 229.704291 90.858461 
L 229.978364 87.091498 
L 230.252436 108.058827 
L 230.800582 53.263689 
L 231.348727 75.541986 
L 231.6228 101.781282 
L 231.896873 67.425047 
L 232.170945 101.74966 
L 232.445018 96.134903 
L 232.719091 57.532647 
L 232.993164 76.335425 
L 233.267236 104.454185 
L 233.541309 48.323237 
L 233.815382 125.788929 
L 234.089455 71.71196 
L 234.363527 46.906274 
L 234.6376 114.815213 
L 234.911673 94.406239 
L 235.185745 129.827292 
L 235.459818 112.909537 
L 235.733891 116.888801 
L 236.007964 54.757182 
L 236.556109 125.379105 
L 236.830182 112.92192 
L 237.104255 65.275504 
L 237.378327 74.371584 
L 237.6524 90.155885 
L 237.926473 69.442022 
L 238.200545 67.572233 
L 238.474618 107.744797 
L 238.748691 72.715371 
L 239.022764 56.581323 
L 239.296836 60.68964 
L 239.570909 129.323762 
L 240.119055 46.575433 
L 240.393127 44.451135 
L 240.6672 123.360571 
L 240.941273 69.161433 
L 241.215345 50.361927 
L 241.489418 118.667044 
L 241.763491 125.546348 
L 242.037564 112.349985 
L 242.311636 56.727499 
L 242.585709 72.580088 
L 242.859782 58.698871 
L 243.133855 128.086998 
L 243.407927 116.801833 
L 243.682 79.865196 
L 243.956073 103.963627 
L 244.230145 55.273959 
L 244.504218 59.101132 
L 244.778291 93.744697 
L 245.052364 55.582075 
L 245.326436 63.042068 
L 245.600509 128.697297 
L 245.874582 78.511608 
L 246.148655 81.763721 
L 246.6968 120.710992 
L 246.970873 98.859946 
L 247.244945 129.081424 
L 247.519018 96.708247 
L 247.793091 45.79262 
L 248.067164 104.641978 
L 248.341236 125.396016 
L 248.615309 122.790293 
L 248.889382 84.092538 
L 249.163455 120.986367 
L 249.437527 62.157323 
L 249.7116 88.197396 
L 249.985673 81.536725 
L 250.259745 112.367772 
L 250.533818 43.823969 
L 250.807891 127.164662 
L 251.081964 56.189947 
L 251.630109 120.944408 
L 251.904182 66.078178 
L 252.178255 109.695877 
L 252.452327 120.302563 
L 252.7264 54.292075 
L 253.000473 46.348084 
L 253.274545 81.300972 
L 253.548618 67.785234 
L 253.822691 118.000261 
L 254.096764 53.318813 
L 254.370836 45.462478 
L 254.644909 103.509197 
L 254.918982 128.537548 
L 255.193055 59.237717 
L 255.467127 82.280717 
L 255.7412 77.399962 
L 256.015273 88.722968 
L 256.289345 47.07907 
L 256.563418 108.119217 
L 256.837491 71.479615 
L 257.111564 56.641044 
L 257.385636 57.812682 
L 257.659709 87.177976 
L 257.933782 69.277559 
L 258.207855 64.26208 
L 258.481927 99.678017 
L 258.756 44.429628 
L 259.030073 95.731579 
L 259.304145 91.36126 
L 259.578218 54.15506 
L 259.852291 49.085662 
L 260.126364 88.399594 
L 260.400436 51.569042 
L 260.674509 109.6016 
L 260.948582 79.350424 
L 261.222655 108.322784 
L 261.496727 108.421667 
L 261.7708 89.265116 
L 262.044873 119.930225 
L 262.318945 67.815287 
L 262.593018 81.399637 
L 262.867091 82.133721 
L 263.141164 111.207255 
L 263.415236 119.298518 
L 263.689309 103.890209 
L 264.237455 119.230649 
L 264.511527 81.593599 
L 264.7856 69.961519 
L 265.059673 64.405782 
L 265.333745 120.022339 
L 265.607818 99.689536 
L 265.881891 69.246458 
L 266.155964 82.279483 
L 266.430036 57.216241 
L 266.704109 85.195399 
L 266.978182 94.514834 
L 267.252255 47.950704 
L 267.526327 83.55312 
L 267.8004 51.572983 
L 268.074473 118.521768 
L 268.896691 59.347951 
L 269.170764 109.048287 
L 269.444836 120.73113 
L 269.718909 83.705099 
L 269.992982 128.821437 
L 270.267055 106.286275 
L 270.541127 73.335489 
L 270.8152 100.331733 
L 271.089273 100.714127 
L 271.363345 64.541386 
L 271.637418 121.812684 
L 271.911491 98.78047 
L 272.185564 63.864431 
L 272.459636 104.700065 
L 272.733709 73.853265 
L 273.007782 83.630369 
L 273.281855 62.442297 
L 273.555927 102.142463 
L 273.83 122.849428 
L 274.104073 105.919097 
L 274.378145 61.840406 
L 274.652218 112.357534 
L 274.926291 114.182004 
L 275.200364 87.676202 
L 275.474436 113.769725 
L 275.748509 109.393151 
L 276.022582 66.45197 
L 276.296655 70.039422 
L 276.570727 112.192089 
L 276.8448 53.390986 
L 277.118873 128.654147 
L 277.392945 87.918661 
L 277.667018 122.84859 
L 277.941091 100.521671 
L 278.215164 47.203357 
L 278.489236 45.709237 
L 278.763309 95.229048 
L 279.037382 60.192619 
L 279.311455 90.418117 
L 279.585527 102.331155 
L 279.8596 89.28186 
L 280.133673 47.659535 
L 280.407745 85.352988 
L 280.681818 107.250145 
L 280.955891 111.193206 
L 281.504036 63.103564 
L 281.778109 128.175352 
L 282.052182 76.199827 
L 282.326255 109.545585 
L 282.600327 126.48871 
L 282.8744 64.681953 
L 283.148473 117.329807 
L 283.422545 90.606539 
L 283.696618 88.94114 
L 283.970691 116.871253 
L 284.792909 72.040188 
L 285.066982 93.962379 
L 285.341055 101.630014 
L 285.615127 79.700785 
L 285.8892 100.994495 
L 286.437345 69.355646 
L 286.711418 119.730111 
L 286.985491 91.94651 
L 287.259564 116.272781 
L 287.533636 58.046699 
L 287.807709 78.674113 
L 288.081782 68.813024 
L 288.629927 105.282055 
L 288.904 64.403684 
L 289.178073 101.27401 
L 289.452145 53.772909 
L 289.726218 45.057336 
L 290.274364 114.186816 
L 290.548436 72.261035 
L 290.822509 83.892867 
L 291.096582 49.818746 
L 291.370655 96.895613 
L 291.644727 93.952324 
L 291.9188 101.378975 
L 292.192873 88.389741 
L 292.466945 125.233056 
L 292.741018 56.450748 
L 293.015091 121.87467 
L 293.289164 83.926185 
L 293.563236 71.488345 
L 293.837309 104.785276 
L 294.111382 112.334041 
L 294.385455 72.920595 
L 294.659527 62.000105 
L 294.9336 118.270478 
L 295.207673 49.014399 
L 295.481745 90.806564 
L 295.755818 63.023707 
L 296.029891 59.695357 
L 296.303964 63.266942 
L 296.578036 76.010701 
L 296.852109 78.144021 
L 297.126182 60.457596 
L 297.400255 99.492936 
L 297.674327 106.213558 
L 297.9484 55.09639 
L 298.222473 52.778863 
L 298.496545 96.816968 
L 298.770618 45.678973 
L 299.044691 125.47532 
L 299.318764 67.25908 
L 299.592836 94.890853 
L 299.866909 105.060638 
L 300.140982 104.024549 
L 300.415055 58.610379 
L 300.689127 121.867206 
L 301.237273 109.150665 
L 301.511345 87.891067 
L 301.785418 81.46236 
L 302.059491 54.569645 
L 302.333564 54.605383 
L 302.607636 130.193094 
L 302.881709 87.327764 
L 303.155782 90.920762 
L 303.429855 80.943556 
L 303.703927 122.030616 
L 303.978 67.566991 
L 304.526145 96.206804 
L 304.800218 72.111822 
L 305.074291 85.58049 
L 305.348364 113.041178 
L 305.622436 53.787566 
L 305.896509 126.713223 
L 306.170582 58.330089 
L 306.444655 123.93606 
L 306.718727 58.152021 
L 306.9928 116.017078 
L 307.266873 53.894996 
L 307.540945 52.912196 
L 307.815018 47.753511 
L 308.089091 69.912423 
L 308.363164 51.712224 
L 308.637236 119.62744 
L 308.911309 98.465455 
L 309.185382 57.833742 
L 309.459455 97.269656 
L 309.733527 120.700307 
L 310.0076 82.898176 
L 310.281673 112.43283 
L 310.555745 88.766825 
L 310.829818 78.865554 
L 311.103891 63.06592 
L 311.377964 111.3399 
L 311.652036 57.256118 
L 311.926109 68.039545 
L 312.200182 122.620565 
L 312.474255 65.69663 
L 312.748327 69.908646 
L 313.0224 97.494466 
L 313.296473 112.321144 
L 313.570545 44.468993 
L 313.844618 124.295815 
L 314.118691 80.612497 
L 314.392764 123.577056 
L 314.666836 119.880005 
L 315.214982 81.083597 
L 315.489055 52.329405 
L 315.763127 126.177052 
L 316.0372 92.374102 
L 316.311273 87.316572 
L 316.585345 104.045111 
L 317.133491 61.308038 
L 317.407564 51.502008 
L 317.681636 98.98877 
L 317.955709 67.848699 
L 318.229782 51.918651 
L 318.503855 113.228777 
L 318.777927 95.950103 
L 319.052 51.494921 
L 319.326073 44.661329 
L 319.600145 101.781471 
L 319.874218 61.227552 
L 320.148291 98.98938 
L 320.422364 59.538116 
L 320.696436 94.420787 
L 320.970509 47.943044 
L 321.244582 99.402209 
L 321.518655 127.720391 
L 321.792727 95.688092 
L 322.0668 86.618519 
L 322.340873 119.00762 
L 322.614945 57.801845 
L 322.889018 103.645581 
L 323.163091 120.003231 
L 323.437164 92.95496 
L 323.711236 54.393444 
L 323.985309 97.850648 
L 324.259382 96.714671 
L 324.533455 128.169717 
L 324.807527 75.998384 
L 325.0816 47.991442 
L 325.355673 105.586443 
L 325.629745 111.992814 
L 325.903818 109.179532 
L 326.177891 45.502515 
L 326.451964 108.154675 
L 326.726036 112.286937 
L 327.000109 53.523106 
L 327.274182 46.091367 
L 327.548255 69.860107 
L 327.822327 107.110343 
L 328.0964 49.545826 
L 328.370473 126.262175 
L 328.644545 113.247613 
L 329.192691 69.213899 
L 329.466764 86.258988 
L 329.740836 86.801553 
L 330.014909 114.988816 
L 330.288982 61.874285 
L 330.563055 129.73195 
L 330.837127 124.152443 
L 331.1112 120.912886 
L 331.385273 116.352681 
L 331.933418 77.482327 
L 332.207491 74.624313 
L 332.481564 90.963958 
L 332.755636 68.748057 
L 333.029709 58.368467 
L 333.303782 65.638873 
L 333.577855 59.90533 
L 333.851927 65.283431 
L 334.126 67.963168 
L 334.400073 75.80962 
L 334.674145 95.050136 
L 334.948218 104.379775 
L 335.222291 100.394163 
L 335.222291 100.394163 
" clip-path="url(#p71f99b36cd)" style="fill: none; stroke: #1f77b4; stroke-width: 1.5; stroke-linecap: square"/>
   </g>
   <g id="line2d_14">
    <path d="M 61.423636 87.16 
L 335.496364 87.16 
" clip-path="url(#p71f99b36cd)" style="fill: none; stroke-dasharray: 7.4,3.2; stroke-dashoffset: 0; stroke: #ff0000; stroke-width: 2"/>
   </g>
   <g id="line2d_15">
    <path d="M 192.978545 87.16 
L 203.941455 87.16 
" clip-path="url(#p71f99b36cd)" style="fill: none; stroke: #000000; stroke-width: 2; stroke-linecap: square"/>
   </g>
   <g id="line2d_16">
    <path d="M 192.978545 43.72 
L 203.941455 43.72 
" clip-path="url(#p71f99b36cd)" style="fill: none; stroke: #000000; stroke-width: 2; stroke-linecap: square"/>
   </g>
   <g id="line2d_17">
    <path d="M 198.46 87.16 
L 198.46 43.72 
" clip-path="url(#p71f99b36cd)" style="fill: none; stroke: #000000; stroke-width: 2; stroke-linecap: square"/>
   </g>
   <g id="line2d_18">
    <path d="M 192.978545 159.56 
L 203.941455 159.56 
" clip-path="url(#p71f99b36cd)" style="fill: none; stroke: #000000; stroke-width: 2; stroke-linecap: square"/>
   </g>
   <g id="line2d_19">
    <path d="M 198.46 159.56 
L 198.46 87.16 
" clip-path="url(#p71f99b36cd)" style="fill: none; stroke: #000000; stroke-width: 2; stroke-linecap: square"/>
   </g>
   <g id="patch_3">
    <path d="M 47.72 174.04 
L 47.72 14.76 
" style="fill: none; stroke: #000000; stroke-width: 0.8; stroke-linejoin: miter; stroke-linecap: square"/>
   </g>
   <g id="patch_4">
    <path d="M 349.2 174.04 
L 349.2 14.76 
" style="fill: none; stroke: #000000; stroke-width: 0.8; stroke-linejoin: miter; stroke-linecap: square"/>
   </g>
   <g id="patch_5">
    <path d="M 47.72 174.04 
L 349.2 174.04 
" style="fill: none; stroke: #000000; stroke-width: 0.8; stroke-linejoin: miter; stroke-linecap: square"/>
   </g>
   <g id="patch_6">
    <path d="M 47.72 14.76 
L 349.2 14.76 
" style="fill: none; stroke: #000000; stroke-width: 0.8; stroke-linejoin: miter; stroke-linecap: square"/>
   </g>
   <g id="text_15">
    <g id="patch_7">
     <path d="M 205.422909 71.519688 
L 235.015097 71.519688 
L 235.015097 53.841563 
L 205.422909 53.841563 
z
" style="fill: #ffffff; opacity: 0.8; stroke: #000000; stroke-linejoin: miter"/>
    </g>
    <!-- gain -->
    <g transform="translate(209.422909 65.44) scale(0.1 -0.1)">
     <use xlink:href="#DejaVuSans-67"/>
     <use xlink:href="#DejaVuSans-61" transform="translate(63.476562 0)"/>
     <use xlink:href="#DejaVuSans-69" transform="translate(124.755859 0)"/>
     <use xlink:href="#DejaVuSans-6e" transform="translate(152.539062 0)"/>
    </g>
   </g>
   <g id="text_16">
    <g id="patch_8">
     <path d="M 205.422909 129.439688 
L 241.865097 129.439688 
L 241.865097 111.761563 
L 205.422909 111.761563 
z
" style="fill: #ffffff; opacity: 0.8; stroke: #000000; stroke-linejoin: miter"/>
    </g>
    <!-- offset -->
    <g transform="translate(209.422909 123.36) scale(0.1 -0.1)">
     <defs>
      <path id="DejaVuSans-6f" d="M 1959 3097 
Q 1497 3097 1228 2736 
Q 959 2375 959 1747 
Q 959 1119 1226 758 
Q 1494 397 1959 397 
Q 2419 397 2687 759 
Q 2956 1122 2956 1747 
Q 2956 2369 2687 2733 
Q 2419 3097 1959 3097 
z
M 1959 3584 
Q 2709 3584 3137 3096 
Q 3566 2609 3566 1747 
Q 3566 888 3137 398 
Q 2709 -91 1959 -91 
Q 1206 -91 779 398 
Q 353 888 353 1747 
Q 353 2609 779 3096 
Q 1206 3584 1959 3584 
z
" transform="scale(0.015625)"/>
      <path id="DejaVuSans-66" d="M 2375 4863 
L 2375 4384 
L 1825 4384 
Q 1516 4384 1395 4259 
Q 1275 4134 1275 3809 
L 1275 3500 
L 2222 3500 
L 2222 3053 
L 1275 3053 
L 1275 0 
L 697 0 
L 697 3053 
L 147 3053 
L 147 3500 
L 697 3500 
L 697 3744 
Q 697 4328 969 4595 
Q 1241 4863 1831 4863 
L 2375 4863 
z
" transform="scale(0.015625)"/>
     </defs>
     <use xlink:href="#DejaVuSans-6f"/>
     <use xlink:href="#DejaVuSans-66" transform="translate(61.181641 0)"/>
     <use xlink:href="#DejaVuSans-66" transform="translate(96.386719 0)"/>
     <use xlink:href="#DejaVuSans-73" transform="translate(131.591797 0)"/>
     <use xlink:href="#DejaVuSans-65" transform="translate(183.691406 0)"/>
     <use xlink:href="#DejaVuSans-74" transform="translate(245.214844 0)"/>
    </g>
   </g>
  </g>
 </g>
 <defs>
  <clipPath id="p71f99b36cd">
   <rect x="47.72" y="14.76" width="301.48" height="159.28"/>
  </clipPath>
 </defs>
</svg>
