<?xml version="1.0" encoding="utf-8" standalone="no"?>
<!DOCTYPE svg PUBLIC "-//W3C//DTD SVG 1.1//EN"
  "http://www.w3.org/Graphics/SVG/1.1/DTD/svg11.dtd">
<svg xmlns:xlink="http://www.w3.org/1999/xlink" width="360pt" height="216pt" viewBox="0 0 360 216" xmlns="http://www.w3.org/2000/svg" version="1.1">
 <metadata>
  <rdf:RDF xmlns:dc="http://purl.org/dc/elements/1.1/" xmlns:cc="http://creativecommons.org/ns#" xmlns:rdf="http://www.w3.org/1999/02/22-rdf-syntax-ns#">
   <cc:Work>
    <dc:type rdf:resource="http://purl.org/dc/dcmitype/StillImage"/>
    <dc:date>2026-08-02T09:50:24.355743</dc:date>
    <dc:format>image/svg+xml</dc:format>
    <dc:creator>
     <cc:Agent>
      <dc:title>Matplotlib v3.11.1, https://matplotlib.org/</dc:title>
     </cc:Agent>
    </dc:creator>
   </cc:Work>
  </rdf:RDF>
 </metadata>
 <defs>
  <style type="text/css">*{stroke-linejoin: round; stroke-linecap: butt}</style>
 </defs>
 <g id="figure_1">
  <g id="patch_1">
   <path d="M 0 216 
L 360 216 
L 360 0 
L 0 0 
z
" style="fill: #ffffff"/>
  </g>
  <g id="axes_1">
   <g id="patch_2">
    <path d="M 47.962344 173.877656 
L 349.2 173.877656 
L 349.2 14.598828 
L 47.962344 14.598828 
z
" style="fill: #ffffff"/>
   </g>
   <g id="matplotlib.axis_1">
    <g id="xtick_1">
     <g id="line2d_1">
      <defs>
       <path id="mc51e994c6d" d="M 0 0 
L 0 3.5 
" style="stroke: #000000; stroke-width: 0.8"/>
      </defs>
      <g>
       <use xlink:href="#mc51e994c6d" x="61.654964" y="173.877656" style="stroke: #000000; stroke-width: 0.8"/>
      </g>
     </g>
     <g id="text_1">
      <!-- 0.0 -->
      <g transform="translate(53.703402 188.475313) scale(0.1 -0.1)">
       <defs>
        <path id="DejaVuSans-13" d="M 2034 4250 
Q 1547 4250 1301 3770 
Q 1056 3291 1056 2328 
Q 1056 1369 1301 889 
Q 1547 409 2034 409 
Q 2525 409 2770 889 
Q 3016 1369 3016 2328 
Q 3016 3291 2770 3770 
Q 2525 4250 2034 4250 
z
M 2034 4750 
Q 2819 4750 3233 4129 
Q 3647 3509 3647 2328 
Q 3647 1150 3233 529 
Q 2819 -91 2034 -91 
Q 1250 -91 836 529 
Q 422 1150 422 2328 
Q 422 3509 836 4129 
Q 1250 4750 2034 4750 
z
" transform="scale(0.015625)"/>
        <path id="DejaVuSans-11" d="M 684 794 
L 1344 794 
L 1344 0 
L 684 0 
L 684 794 
z
" transform="scale(0.015625)"/>
       </defs>
       <use xlink:href="#DejaVuSans-13"/>
       <use xlink:href="#DejaVuSans-11" transform="translate(63.625 0)"/>
       <use xlink:href="#DejaVuSans-13" transform="translate(95.40625 0)"/>
      </g>
     </g>
    </g>
    <g id="xtick_2">
     <g id="line2d_2">
      <g>
       <use xlink:href="#mc51e994c6d" x="116.425447" y="173.877656" style="stroke: #000000; stroke-width: 0.8"/>
      </g>
     </g>
     <g id="text_2">
      <!-- 0.2 -->
      <g transform="translate(108.473885 188.475313) scale(0.1 -0.1)">
       <defs>
        <path id="DejaVuSans-15" d="M 1228 531 
L 3431 531 
L 3431 0 
L 469 0 
L 469 531 
Q 828 903 1448 1529 
Q 2069 2156 2228 2338 
Q 2531 2678 2651 2914 
Q 2772 3150 2772 3378 
Q 2772 3750 2511 3984 
Q 2250 4219 1831 4219 
Q 1534 4219 1204 4116 
Q 875 4013 500 3803 
L 500 4441 
Q 881 4594 1212 4672 
Q 1544 4750 1819 4750 
Q 2544 4750 2975 4387 
Q 3406 4025 3406 3419 
Q 3406 3131 3298 2873 
Q 3191 2616 2906 2266 
Q 2828 2175 2409 1742 
Q 1991 1309 1228 531 
z
" transform="scale(0.015625)"/>
       </defs>
       <use xlink:href="#DejaVuSans-13"/>
       <use xlink:href="#DejaVuSans-11" transform="translate(63.625 0)"/>
       <use xlink:href="#DejaVuSans-15" transform="translate(95.40625 0)"/>
      </g>
     </g>
    </g>
    <g id="xtick_3">
     <g id="line2d_3">
      <g>
       <use xlink:href="#mc51e994c6d" x="171.19593" y="173.877656" style="stroke: #000000; stroke-width: 0.8"/>
      </g>
     </g>
     <g id="text_3">
      <!-- 0.4 -->
      <g transform="translate(163.244368 188.475313) scale(0.1 -0.1)">
       <defs>
        <path id="DejaVuSans-17" d="M 2419 4116 
L 825 1625 
L 2419 1625 
L 2419 4116 
z
M 2253 4666 
L 3047 4666 
L 3047 1625 
L 3713 1625 
L 3713 1100 
L 3047 1100 
L 3047 0 
L 2419 0 
L 2419 1100 
L 313 1100 
L 313 1709 
L 2253 4666 
z
" transform="scale(0.015625)"/>
       </defs>
       <use xlink:href="#DejaVuSans-13"/>
       <use xlink:href="#DejaVuSans-11" transform="translate(63.625 0)"/>
       <use xlink:href="#DejaVuSans-17" transform="translate(95.40625 0)"/>
      </g>
     </g>
    </g>
    <g id="xtick_4">
     <g id="line2d_4">
      <g>
       <use xlink:href="#mc51e994c6d" x="225.966413" y="173.877656" style="stroke: #000000; stroke-width: 0.8"/>
      </g>
     </g>
     <g id="text_4">
      <!-- 0.6 -->
      <g transform="translate(218.014851 188.475313) scale(0.1 -0.1)">
       <defs>
        <path id="DejaVuSans-19" d="M 2113 2584 
Q 1688 2584 1439 2293 
Q 1191 2003 1191 1497 
Q 1191 994 1439 701 
Q 1688 409 2113 409 
Q 2538 409 2786 701 
Q 3034 994 3034 1497 
Q 3034 2003 2786 2293 
Q 2538 2584 2113 2584 
z
M 3366 4563 
L 3366 3988 
Q 3128 4100 2886 4159 
Q 2644 4219 2406 4219 
Q 1781 4219 1451 3797 
Q 1122 3375 1075 2522 
Q 1259 2794 1537 2939 
Q 1816 3084 2150 3084 
Q 2853 3084 3261 2657 
Q 3669 2231 3669 1497 
Q 3669 778 3244 343 
Q 2819 -91 2113 -91 
Q 1303 -91 875 529 
Q 447 1150 447 2328 
Q 447 3434 972 4092 
Q 1497 4750 2381 4750 
Q 2619 4750 2861 4703 
Q 3103 4656 3366 4563 
z
" transform="scale(0.015625)"/>
       </defs>
       <use xlink:href="#DejaVuSans-13"/>
       <use xlink:href="#DejaVuSans-11" transform="translate(63.625 0)"/>
       <use xlink:href="#DejaVuSans-19" transform="translate(95.40625 0)"/>
      </g>
     </g>
    </g>
    <g id="xtick_5">
     <g id="line2d_5">
      <g>
       <use xlink:href="#mc51e994c6d" x="280.736896" y="173.877656" style="stroke: #000000; stroke-width: 0.8"/>
      </g>
     </g>
     <g id="text_5">
      <!-- 0.8 -->
      <g transform="translate(272.785334 188.475313) scale(0.1 -0.1)">
       <defs>
        <path id="DejaVuSans-1b" d="M 2034 2216 
Q 1584 2216 1326 1975 
Q 1069 1734 1069 1313 
Q 1069 891 1326 650 
Q 1584 409 2034 409 
Q 2484 409 2743 651 
Q 3003 894 3003 1313 
Q 3003 1734 2745 1975 
Q 2488 2216 2034 2216 
z
M 1403 2484 
Q 997 2584 770 2862 
Q 544 3141 544 3541 
Q 544 4100 942 4425 
Q 1341 4750 2034 4750 
Q 2731 4750 3128 4425 
Q 3525 4100 3525 3541 
Q 3525 3141 3298 2862 
Q 3072 2584 2669 2484 
Q 3125 2378 3379 2068 
Q 3634 1759 3634 1313 
Q 3634 634 3220 271 
Q 2806 -91 2034 -91 
Q 1263 -91 848 271 
Q 434 634 434 1313 
Q 434 1759 690 2068 
Q 947 2378 1403 2484 
z
M 1172 3481 
Q 1172 3119 1398 2916 
Q 1625 2713 2034 2713 
Q 2441 2713 2670 2916 
Q 2900 3119 2900 3481 
Q 2900 3844 2670 4047 
Q 2441 4250 2034 4250 
Q 1625 4250 1398 4047 
Q 1172 3844 1172 3481 
z
" transform="scale(0.015625)"/>
       </defs>
       <use xlink:href="#DejaVuSans-13"/>
       <use xlink:href="#DejaVuSans-11" transform="translate(63.625 0)"/>
       <use xlink:href="#DejaVuSans-1b" transform="translate(95.40625 0)"/>
      </g>
     </g>
    </g>
    <g id="xtick_6">
     <g id="line2d_6">
      <g>
       <use xlink:href="#mc51e994c6d" x="335.507379" y="173.877656" style="stroke: #000000; stroke-width: 0.8"/>
      </g>
     </g>
     <g id="text_6">
      <!-- 1.0 -->
      <g transform="translate(327.555817 188.475313) scale(0.1 -0.1)">
       <defs>
        <path id="DejaVuSans-14" d="M 794 531 
L 1825 531 
L 1825 4091 
L 703 3866 
L 703 4441 
L 1819 4666 
L 2450 4666 
L 2450 531 
L 3481 531 
L 3481 0 
L 794 0 
L 794 531 
z
" transform="scale(0.015625)"/>
       </defs>
       <use xlink:href="#DejaVuSans-14"/>
       <use xlink:href="#DejaVuSans-11" transform="translate(63.625 0)"/>
       <use xlink:href="#DejaVuSans-13" transform="translate(95.40625 0)"/>
      </g>
     </g>
    </g>
    <g id="text_7">
     <!-- Time (sec) -->
     <g transform="translate(172.424141 202.476094) scale(0.1 -0.1)">
      <defs>
       <path id="DejaVuSans-37" d="M -19 4666 
L 3928 4666 
L 3928 4134 
L 2272 4134 
L 2272 0 
L 1638 0 
L 1638 4134 
L -19 4134 
L -19 4666 
z
" transform="scale(0.015625)"/>
       <path id="DejaVuSans-4c" d="M 603 3500 
L 1178 3500 
L 1178 0 
L 603 0 
L 603 3500 
z
M 603 4863 
L 1178 4863 
L 1178 4134 
L 603 4134 
L 603 4863 
z
" transform="scale(0.015625)"/>
       <path id="DejaVuSans-50" d="M 3328 2828 
Q 3544 3216 3844 3400 
Q 4144 3584 4550 3584 
Q 5097 3584 5394 3201 
Q 5691 2819 5691 2113 
L 5691 0 
L 5113 0 
L 5113 2094 
Q 5113 2597 4934 2840 
Q 4756 3084 4391 3084 
Q 3944 3084 3684 2787 
Q 3425 2491 3425 1978 
L 3425 0 
L 2847 0 
L 2847 2094 
Q 2847 2600 2669 2842 
Q 2491 3084 2119 3084 
Q 1678 3084 1418 2786 
Q 1159 2488 1159 1978 
L 1159 0 
L 581 0 
L 581 3500 
L 1159 3500 
L 1159 2956 
Q 1356 3278 1631 3431 
Q 1906 3584 2284 3584 
Q 2666 3584 2933 3390 
Q 3200 3197 3328 2828 
z
" transform="scale(0.015625)"/>
       <path id="DejaVuSans-48" d="M 3597 1894 
L 3597 1613 
L 953 1613 
Q 991 1019 1311 708 
Q 1631 397 2203 397 
Q 2534 397 2845 478 
Q 3156 559 3463 722 
L 3463 178 
Q 3153 47 2828 -22 
Q 2503 -91 2169 -91 
Q 1331 -91 842 396 
Q 353 884 353 1716 
Q 353 2575 817 3079 
Q 1281 3584 2069 3584 
Q 2775 3584 3186 3129 
Q 3597 2675 3597 1894 
z
M 3022 2063 
Q 3016 2534 2758 2815 
Q 2500 3097 2075 3097 
Q 1594 3097 1305 2825 
Q 1016 2553 972 2059 
L 3022 2063 
z
" transform="scale(0.015625)"/>
       <path id="DejaVuSans-3" transform="scale(0.015625)"/>
       <path id="DejaVuSans-b" d="M 1984 4856 
Q 1566 4138 1362 3434 
Q 1159 2731 1159 2009 
Q 1159 1288 1364 580 
Q 1569 -128 1984 -844 
L 1484 -844 
Q 1016 -109 783 600 
Q 550 1309 550 2009 
Q 550 2706 781 3412 
Q 1013 4119 1484 4856 
L 1984 4856 
z
" transform="scale(0.015625)"/>
       <path id="DejaVuSans-56" d="M 2834 3397 
L 2834 2853 
Q 2591 2978 2328 3040 
Q 2066 3103 1784 3103 
Q 1356 3103 1142 2972 
Q 928 2841 928 2578 
Q 928 2378 1081 2264 
Q 1234 2150 1697 2047 
L 1894 2003 
Q 2506 1872 2764 1633 
Q 3022 1394 3022 966 
Q 3022 478 2636 193 
Q 2250 -91 1575 -91 
Q 1294 -91 989 -36 
Q 684 19 347 128 
L 347 722 
Q 666 556 975 473 
Q 1284 391 1588 391 
Q 1994 391 2212 530 
Q 2431 669 2431 922 
Q 2431 1156 2273 1281 
Q 2116 1406 1581 1522 
L 1381 1569 
Q 847 1681 609 1914 
Q 372 2147 372 2553 
Q 372 3047 722 3315 
Q 1072 3584 1716 3584 
Q 2034 3584 2315 3537 
Q 2597 3491 2834 3397 
z
" transform="scale(0.015625)"/>
       <path id="DejaVuSans-46" d="M 3122 3366 
L 3122 2828 
Q 2878 2963 2633 3030 
Q 2388 3097 2138 3097 
Q 1578 3097 1268 2742 
Q 959 2388 959 1747 
Q 959 1106 1268 751 
Q 1578 397 2138 397 
Q 2388 397 2633 464 
Q 2878 531 3122 666 
L 3122 134 
Q 2881 22 2623 -34 
Q 2366 -91 2075 -91 
Q 1284 -91 818 406 
Q 353 903 353 1747 
Q 353 2603 823 3093 
Q 1294 3584 2113 3584 
Q 2378 3584 2631 3529 
Q 2884 3475 3122 3366 
z
" transform="scale(0.015625)"/>
       <path id="DejaVuSans-c" d="M 513 4856 
L 1013 4856 
Q 1481 4119 1714 3412 
Q 1947 2706 1947 2009 
Q 1947 1309 1714 600 
Q 1481 -109 1013 -844 
L 513 -844 
Q 928 -128 1133 580 
Q 1338 1288 1338 2009 
Q 1338 2731 1133 3434 
Q 928 4138 513 4856 
z
" transform="scale(0.015625)"/>
      </defs>
      <use xlink:href="#DejaVuSans-37"/>
      <use xlink:href="#DejaVuSans-4c" transform="translate(58 0)"/>
      <use xlink:href="#DejaVuSans-50" transform="translate(85.78125 0)"/>
      <use xlink:href="#DejaVuSans-48" transform="translate(183.1875 0)"/>
      <use xlink:href="#DejaVuSans-3" transform="translate(244.71875 0)"/>
      <use xlink:href="#DejaVuSans-b" transform="translate(276.5 0)"/>
      <use xlink:href="#DejaVuSans-56" transform="translate(315.515625 0)"/>
      <use xlink:href="#DejaVuSans-48" transform="translate(367.609375 0)"/>
      <use xlink:href="#DejaVuSans-46" transform="translate(429.140625 0)"/>
      <use xlink:href="#DejaVuSans-c" transform="translate(484.125 0)"/>
     </g>
    </g>
   </g>
   <g id="matplotlib.axis_2">
    <g id="ytick_1">
     <g id="line2d_7">
      <defs>
       <path id="ma4db4ff9ec" d="M 0 0 
L -3.5 0 
" style="stroke: #000000; stroke-width: 0.8"/>
      </defs>
      <g>
       <use xlink:href="#ma4db4ff9ec" x="47.962344" y="159.397763" style="stroke: #000000; stroke-width: 0.8"/>
      </g>
     </g>
     <g id="text_8">
      <!-- 0.0 -->
      <g transform="translate(25.059219 163.196591) scale(0.1 -0.1)">
       <use xlink:href="#DejaVuSans-13"/>
       <use xlink:href="#DejaVuSans-11" transform="translate(63.625 0)"/>
       <use xlink:href="#DejaVuSans-13" transform="translate(95.40625 0)"/>
      </g>
     </g>
    </g>
    <g id="ytick_2">
     <g id="line2d_8">
      <g>
       <use xlink:href="#ma4db4ff9ec" x="47.962344" y="130.437976" style="stroke: #000000; stroke-width: 0.8"/>
      </g>
     </g>
     <g id="text_9">
      <!-- 0.2 -->
      <g transform="translate(25.059219 134.236804) scale(0.1 -0.1)">
       <use xlink:href="#DejaVuSans-13"/>
       <use xlink:href="#DejaVuSans-11" transform="translate(63.625 0)"/>
       <use xlink:href="#DejaVuSans-15" transform="translate(95.40625 0)"/>
      </g>
     </g>
    </g>
    <g id="ytick_3">
     <g id="line2d_9">
      <g>
       <use xlink:href="#ma4db4ff9ec" x="47.962344" y="101.478189" style="stroke: #000000; stroke-width: 0.8"/>
      </g>
     </g>
     <g id="text_10">
      <!-- 0.4 -->
      <g transform="translate(25.059219 105.277017) scale(0.1 -0.1)">
       <use xlink:href="#DejaVuSans-13"/>
       <use xlink:href="#DejaVuSans-11" transform="translate(63.625 0)"/>
       <use xlink:href="#DejaVuSans-17" transform="translate(95.40625 0)"/>
      </g>
     </g>
    </g>
    <g id="ytick_4">
     <g id="line2d_10">
      <g>
       <use xlink:href="#ma4db4ff9ec" x="47.962344" y="72.518402" style="stroke: #000000; stroke-width: 0.8"/>
      </g>
     </g>
     <g id="text_11">
      <!-- 0.6 -->
      <g transform="translate(25.059219 76.31723) scale(0.1 -0.1)">
       <use xlink:href="#DejaVuSans-13"/>
       <use xlink:href="#DejaVuSans-11" transform="translate(63.625 0)"/>
       <use xlink:href="#DejaVuSans-19" transform="translate(95.40625 0)"/>
      </g>
     </g>
    </g>
    <g id="ytick_5">
     <g id="line2d_11">
      <g>
       <use xlink:href="#ma4db4ff9ec" x="47.962344" y="43.558615" style="stroke: #000000; stroke-width: 0.8"/>
      </g>
     </g>
     <g id="text_12">
      <!-- 0.8 -->
      <g transform="translate(25.059219 47.357443) scale(0.1 -0.1)">
       <use xlink:href="#DejaVuSans-13"/>
       <use xlink:href="#DejaVuSans-11" transform="translate(63.625 0)"/>
       <use xlink:href="#DejaVuSans-1b" transform="translate(95.40625 0)"/>
      </g>
     </g>
    </g>
    <g id="ytick_6">
     <g id="line2d_12">
      <g>
       <use xlink:href="#ma4db4ff9ec" x="47.962344" y="14.598828" style="stroke: #000000; stroke-width: 0.8"/>
      </g>
     </g>
     <g id="text_13">
      <!-- 1.0 -->
      <g transform="translate(25.059219 18.397656) scale(0.1 -0.1)">
       <use xlink:href="#DejaVuSans-14"/>
       <use xlink:href="#DejaVuSans-11" transform="translate(63.625 0)"/>
       <use xlink:href="#DejaVuSans-13" transform="translate(95.40625 0)"/>
      </g>
     </g>
    </g>
    <g id="text_14">
     <!-- Injected Signal -->
     <g transform="translate(18.656875 131.256211) rotate(-90) scale(0.1 -0.1)">
      <defs>
       <path id="DejaVuSans-2c" d="M 628 4666 
L 1259 4666 
L 1259 0 
L 628 0 
L 628 4666 
z
" transform="scale(0.015625)"/>
       <path id="DejaVuSans-51" d="M 3513 2113 
L 3513 0 
L 2938 0 
L 2938 2094 
Q 2938 2591 2744 2837 
Q 2550 3084 2163 3084 
Q 1697 3084 1428 2787 
Q 1159 2491 1159 1978 
L 1159 0 
L 581 0 
L 581 3500 
L 1159 3500 
L 1159 2956 
Q 1366 3272 1645 3428 
Q 1925 3584 2291 3584 
Q 2894 3584 3203 3211 
Q 3513 2838 3513 2113 
z
" transform="scale(0.015625)"/>
       <path id="DejaVuSans-4d" d="M 603 3500 
L 1178 3500 
L 1178 -63 
Q 1178 -731 923 -1031 
Q 669 -1331 103 -1331 
L -116 -1331 
L -116 -844 
L 38 -844 
Q 366 -844 484 -692 
Q 603 -541 603 -63 
L 603 3500 
z
M 603 4863 
L 1178 4863 
L 1178 4134 
L 603 4134 
L 603 4863 
z
" transform="scale(0.015625)"/>
       <path id="DejaVuSans-57" d="M 1172 4494 
L 1172 3500 
L 2356 3500 
L 2356 3053 
L 1172 3053 
L 1172 1153 
Q 1172 725 1289 603 
Q 1406 481 1766 481 
L 2356 481 
L 2356 0 
L 1766 0 
Q 1100 0 847 248 
Q 594 497 594 1153 
L 594 3053 
L 172 3053 
L 172 3500 
L 594 3500 
L 594 4494 
L 1172 4494 
z
" transform="scale(0.015625)"/>
       <path id="DejaVuSans-47" d="M 2906 2969 
L 2906 4863 
L 3481 4863 
L 3481 0 
L 2906 0 
L 2906 525 
Q 2725 213 2448 61 
Q 2172 -91 1784 -91 
Q 1150 -91 751 415 
Q 353 922 353 1747 
Q 353 2572 751 3078 
Q 1150 3584 1784 3584 
Q 2172 3584 2448 3432 
Q 2725 3281 2906 2969 
z
M 947 1747 
Q 947 1113 1208 752 
Q 1469 391 1925 391 
Q 2381 391 2643 752 
Q 2906 1113 2906 1747 
Q 2906 2381 2643 2742 
Q 2381 3103 1925 3103 
Q 1469 3103 1208 2742 
Q 947 2381 947 1747 
z
" transform="scale(0.015625)"/>
       <path id="DejaVuSans-36" d="M 3425 4513 
L 3425 3897 
Q 3066 4069 2747 4153 
Q 2428 4238 2131 4238 
Q 1616 4238 1336 4038 
Q 1056 3838 1056 3469 
Q 1056 3159 1242 3001 
Q 1428 2844 1947 2747 
L 2328 2669 
Q 3034 2534 3370 2195 
Q 3706 1856 3706 1288 
Q 3706 609 3251 259 
Q 2797 -91 1919 -91 
Q 1588 -91 1214 -16 
Q 841 59 441 206 
L 441 856 
Q 825 641 1194 531 
Q 1563 422 1919 422 
Q 2459 422 2753 634 
Q 3047 847 3047 1241 
Q 3047 1584 2836 1778 
Q 2625 1972 2144 2069 
L 1759 2144 
Q 1053 2284 737 2584 
Q 422 2884 422 3419 
Q 422 4038 858 4394 
Q 1294 4750 2059 4750 
Q 2388 4750 2728 4690 
Q 3069 4631 3425 4513 
z
" transform="scale(0.015625)"/>
       <path id="DejaVuSans-4a" d="M 2906 1791 
Q 2906 2416 2648 2759 
Q 2391 3103 1925 3103 
Q 1463 3103 1205 2759 
Q 947 2416 947 1791 
Q 947 1169 1205 825 
Q 1463 481 1925 481 
Q 2391 481 2648 825 
Q 2906 1169 2906 1791 
z
M 3481 434 
Q 3481 -459 3084 -895 
Q 2688 -1331 1869 -1331 
Q 1566 -1331 1297 -1286 
Q 1028 -1241 775 -1147 
L 775 -588 
Q 1028 -725 1275 -790 
Q 1522 -856 1778 -856 
Q 2344 -856 2625 -561 
Q 2906 -266 2906 331 
L 2906 616 
Q 2728 306 2450 153 
Q 2172 0 1784 0 
Q 1141 0 747 490 
Q 353 981 353 1791 
Q 353 2603 747 3093 
Q 1141 3584 1784 3584 
Q 2172 3584 2450 3431 
Q 2728 3278 2906 2969 
L 2906 3500 
L 3481 3500 
L 3481 434 
z
" transform="scale(0.015625)"/>
       <path id="DejaVuSans-44" d="M 2194 1759 
Q 1497 1759 1228 1600 
Q 959 1441 959 1056 
Q 959 750 1161 570 
Q 1363 391 1709 391 
Q 2188 391 2477 730 
Q 2766 1069 2766 1631 
L 2766 1759 
L 2194 1759 
z
M 3341 1997 
L 3341 0 
L 2766 0 
L 2766 531 
Q 2569 213 2275 61 
Q 1981 -91 1556 -91 
Q 1019 -91 701 211 
Q 384 513 384 1019 
Q 384 1609 779 1909 
Q 1175 2209 1959 2209 
L 2766 2209 
L 2766 2266 
Q 2766 2663 2505 2880 
Q 2244 3097 1772 3097 
Q 1472 3097 1187 3025 
Q 903 2953 641 2809 
L 641 3341 
Q 956 3463 1253 3523 
Q 1550 3584 1831 3584 
Q 2591 3584 2966 3190 
Q 3341 2797 3341 1997 
z
" transform="scale(0.015625)"/>
       <path id="DejaVuSans-4f" d="M 603 4863 
L 1178 4863 
L 1178 0 
L 603 0 
L 603 4863 
z
" transform="scale(0.015625)"/>
      </defs>
      <use xlink:href="#DejaVuSans-2c"/>
      <use xlink:href="#DejaVuSans-51" transform="translate(29.5 0)"/>
      <use xlink:href="#DejaVuSans-4d" transform="translate(92.875 0)"/>
      <use xlink:href="#DejaVuSans-48" transform="translate(120.65625 0)"/>
      <use xlink:href="#DejaVuSans-46" transform="translate(182.1875 0)"/>
      <use xlink:href="#DejaVuSans-57" transform="translate(237.171875 0)"/>
      <use xlink:href="#DejaVuSans-48" transform="translate(276.375 0)"/>
      <use xlink:href="#DejaVuSans-47" transform="translate(337.90625 0)"/>
      <use xlink:href="#DejaVuSans-3" transform="translate(401.390625 0)"/>
      <use xlink:href="#DejaVuSans-36" transform="translate(433.171875 0)"/>
      <use xlink:href="#DejaVuSans-4c" transform="translate(496.65625 0)"/>
      <use xlink:href="#DejaVuSans-4a" transform="translate(524.4375 0)"/>
      <use xlink:href="#DejaVuSans-51" transform="translate(587.921875 0)"/>
      <use xlink:href="#DejaVuSans-44" transform="translate(651.296875 0)"/>
      <use xlink:href="#DejaVuSans-4f" transform="translate(712.578125 0)"/>
     </g>
    </g>
   </g>
   <g id="line2d_13">
    <path d="M 61.654964 68.781463 
L 61.928817 64.09758 
L 62.202669 98.358599 
L 62.750374 48.467289 
L 63.024227 73.188735 
L 63.298079 113.864033 
L 63.571931 49.529064 
L 63.845784 51.025245 
L 64.119636 110.145297 
L 64.393489 73.869762 
L 64.667341 53.045957 
L 64.941193 47.105092 
L 65.215046 50.012966 
L 65.488898 121.038521 
L 65.762751 122.646986 
L 66.036603 77.773504 
L 66.310456 60.353662 
L 66.584308 119.060142 
L 67.132013 58.615237 
L 67.405865 46.187542 
L 67.679718 44.182571 
L 67.95357 109.224015 
L 68.227422 98.73199 
L 68.501275 92.979917 
L 69.04898 46.028108 
L 69.322832 54.595559 
L 69.596685 128.832814 
L 69.870537 118.784552 
L 70.144389 118.040125 
L 70.418242 70.486548 
L 70.692094 114.414276 
L 70.965947 110.881584 
L 71.239799 90.096041 
L 71.513651 58.727903 
L 71.787504 84.737871 
L 72.061356 64.054369 
L 72.335209 90.365758 
L 72.609061 59.608066 
L 72.882913 80.930915 
L 73.156766 125.880081 
L 73.430618 125.458227 
L 73.704471 62.497017 
L 73.978323 52.612643 
L 74.252176 62.505335 
L 74.526028 103.369046 
L 74.79988 72.444921 
L 75.073733 93.404686 
L 75.347585 77.113941 
L 75.621438 127.700697 
L 75.89529 109.911773 
L 76.169142 109.475398 
L 76.442995 90.096921 
L 76.716847 101.901111 
L 76.9907 106.353139 
L 77.264552 78.262224 
L 77.538405 115.649992 
L 77.812257 102.136285 
L 78.086109 59.140935 
L 78.359962 84.041285 
L 78.633814 73.554578 
L 78.907667 102.531476 
L 79.181519 117.800136 
L 79.455371 99.610191 
L 79.729224 57.115721 
L 80.003076 95.769901 
L 80.276929 93.46251 
L 80.550781 79.71892 
L 80.824634 76.526972 
L 81.098486 106.849392 
L 81.372338 94.093321 
L 81.646191 63.392711 
L 81.920043 83.631631 
L 82.193896 127.736455 
L 82.467748 107.115443 
L 82.7416 130.133804 
L 83.015453 79.367591 
L 83.289305 107.500199 
L 83.563158 78.542367 
L 83.83701 90.770218 
L 84.110862 61.612106 
L 84.384715 126.72402 
L 84.658567 63.241759 
L 84.93242 89.486171 
L 85.206272 90.857575 
L 85.480125 67.794709 
L 85.753977 94.132478 
L 86.027829 45.894586 
L 86.301682 99.985339 
L 86.575534 78.473474 
L 86.849387 90.41499 
L 87.123239 64.722539 
L 87.397091 52.497856 
L 87.670944 48.71072 
L 87.944796 111.019749 
L 88.218649 79.586448 
L 88.492501 119.952369 
L 88.766354 104.000299 
L 89.314058 50.227457 
L 89.587911 91.972521 
L 89.861763 103.997822 
L 90.135616 91.397314 
L 90.409468 49.051075 
L 90.68332 97.19579 
L 90.957173 48.948933 
L 91.231025 62.947022 
L 91.504878 89.10196 
L 91.77873 47.03913 
L 92.052583 43.798163 
L 92.326435 95.754426 
L 92.87414 60.227761 
L 93.147992 60.28117 
L 93.421845 115.579629 
L 93.695697 101.228446 
L 93.969549 100.330954 
L 94.243402 124.373692 
L 94.517254 105.579124 
L 94.791107 110.098333 
L 95.064959 67.826283 
L 95.338812 129.796264 
L 95.612664 75.676257 
L 95.886516 56.775248 
L 96.160369 110.709796 
L 96.434221 65.171818 
L 96.708074 117.14558 
L 96.981926 70.434157 
L 97.255778 45.451665 
L 97.529631 60.392758 
L 97.803483 47.871152 
L 98.077336 107.81363 
L 98.351188 114.664925 
L 98.62504 44.223286 
L 98.898893 124.550379 
L 99.172745 125.045233 
L 99.446598 55.289826 
L 99.72045 119.807239 
L 99.994303 123.85982 
L 100.268155 122.585371 
L 100.81586 45.118715 
L 101.089712 104.600344 
L 101.363565 44.737193 
L 101.911269 114.634783 
L 102.185122 101.705403 
L 102.458974 97.480259 
L 102.732827 57.391834 
L 103.006679 126.030839 
L 103.280532 113.860613 
L 103.554384 129.262102 
L 103.828236 65.83634 
L 104.102089 70.000838 
L 104.375941 115.833985 
L 104.923646 49.183637 
L 105.197498 81.69601 
L 105.745203 121.280114 
L 106.019056 61.556441 
L 106.292908 100.809641 
L 106.566761 99.138867 
L 106.840613 59.107393 
L 107.114465 57.049524 
L 107.388318 110.466012 
L 107.66217 111.777855 
L 107.936023 126.679833 
L 108.209875 114.544222 
L 108.483727 125.206568 
L 108.75758 47.385016 
L 109.031432 48.196606 
L 109.305285 58.531796 
L 109.579137 123.14475 
L 109.852989 120.351151 
L 110.126842 69.758328 
L 110.400694 119.950516 
L 110.674547 68.439185 
L 110.948399 64.043873 
L 111.222252 93.786815 
L 111.496104 97.610904 
L 111.769956 61.585752 
L 112.043809 64.986227 
L 112.317661 123.780457 
L 112.591514 87.942805 
L 112.865366 86.89202 
L 113.139218 95.338207 
L 113.413071 94.852155 
L 113.686923 58.967855 
L 113.960776 46.510407 
L 114.234628 98.598979 
L 114.508481 115.437517 
L 114.782333 105.910184 
L 115.056185 53.480629 
L 115.330038 117.7839 
L 115.60389 72.226382 
L 116.151595 116.498209 
L 116.425447 123.678424 
L 116.6993 60.693792 
L 116.973152 130.160741 
L 117.247005 74.06524 
L 117.520857 58.085291 
L 117.79471 54.034152 
L 118.068562 94.270114 
L 118.342414 103.330004 
L 118.616267 73.289013 
L 118.890119 100.500659 
L 119.163972 113.572441 
L 119.437824 46.643335 
L 119.711676 116.311933 
L 119.985529 72.285322 
L 120.259381 104.800299 
L 120.533234 105.804169 
L 120.807086 86.081873 
L 121.080938 99.644456 
L 121.354791 129.708748 
L 121.628643 85.840066 
L 121.902496 112.204601 
L 122.176348 124.37555 
L 122.450201 54.304856 
L 122.724053 86.388958 
L 122.997905 59.095972 
L 123.271758 76.049318 
L 123.54561 68.963636 
L 123.819463 58.536575 
L 124.093315 111.023 
L 124.367167 67.718999 
L 124.64102 46.11137 
L 124.914872 82.268912 
L 125.188725 95.277442 
L 125.462577 57.126232 
L 125.73643 81.686939 
L 126.010282 51.288914 
L 126.284134 65.506155 
L 126.557987 44.230226 
L 126.831839 55.746897 
L 127.105692 95.495753 
L 127.379544 99.162474 
L 127.653396 55.134646 
L 128.201101 94.701403 
L 128.474954 59.843341 
L 128.748806 70.582947 
L 129.022659 120.264336 
L 129.296511 60.411053 
L 129.570363 90.542057 
L 129.844216 52.310997 
L 130.118068 104.255542 
L 130.391921 125.658436 
L 130.665773 120.157982 
L 130.939625 70.874277 
L 131.213478 110.547631 
L 131.48733 104.838174 
L 131.761183 43.863845 
L 132.035035 118.596062 
L 132.308887 49.785554 
L 132.58274 109.697368 
L 132.856592 74.82565 
L 133.130445 108.627151 
L 133.404297 113.153242 
L 133.67815 129.405865 
L 134.225854 64.870606 
L 134.499707 46.165831 
L 134.773559 72.202953 
L 135.047412 57.9989 
L 135.321264 51.152941 
L 135.595116 57.532393 
L 135.868969 82.274952 
L 136.142821 76.483618 
L 136.690526 53.397808 
L 137.238231 102.454841 
L 137.512083 56.658634 
L 137.785936 123.749198 
L 138.059788 46.024029 
L 138.333641 70.483094 
L 138.607493 117.237399 
L 138.881345 64.903005 
L 139.155198 108.224005 
L 139.702903 47.564557 
L 139.976755 117.156995 
L 140.250608 81.29042 
L 140.52446 76.132092 
L 140.798312 58.629357 
L 141.072165 98.174607 
L 141.346017 119.610923 
L 141.61987 114.422343 
L 141.893722 105.276603 
L 142.167574 77.2855 
L 142.715279 117.254636 
L 142.989132 127.691709 
L 143.536837 65.424344 
L 143.810689 43.744569 
L 144.084541 107.03821 
L 144.358394 83.468887 
L 144.632246 110.359587 
L 144.906099 54.148116 
L 145.179951 118.123094 
L 145.453803 118.44365 
L 145.727656 128.888604 
L 146.001508 81.814752 
L 146.275361 71.942464 
L 146.549213 50.860825 
L 146.823065 76.572814 
L 147.096918 114.290755 
L 147.37077 101.256846 
L 147.644623 81.05538 
L 147.918475 82.701419 
L 148.192328 93.899247 
L 148.46618 60.731029 
L 148.740032 61.51261 
L 149.013885 113.545895 
L 149.287737 79.254105 
L 149.56159 95.044117 
L 149.835442 79.337597 
L 150.109294 116.646237 
L 150.383147 72.527458 
L 150.930852 62.295359 
L 151.204704 118.657119 
L 151.478557 126.480215 
L 151.752409 97.859373 
L 152.026261 95.862871 
L 152.300114 52.595987 
L 153.121671 120.126044 
L 153.395523 56.175214 
L 153.669376 107.943827 
L 153.943228 44.027485 
L 154.217081 92.029143 
L 154.764786 57.306205 
L 155.038638 61.310154 
L 155.31249 44.596415 
L 156.134048 118.328831 
L 156.4079 65.928221 
L 156.681752 114.576527 
L 156.955605 49.445312 
L 157.229457 78.647885 
L 157.777162 52.579509 
L 158.051014 93.756343 
L 158.324867 89.191968 
L 158.598719 61.208012 
L 158.872572 113.183965 
L 159.146424 129.254862 
L 159.420277 103.796279 
L 159.694129 96.709872 
L 159.967981 58.263596 
L 160.241834 116.062921 
L 160.515686 62.370067 
L 160.789539 97.316399 
L 161.063391 75.902416 
L 161.337243 81.553525 
L 161.611096 46.60531 
L 161.884948 98.787428 
L 162.158801 118.192705 
L 162.432653 46.317367 
L 162.706506 123.723295 
L 162.980358 122.798841 
L 163.25421 128.100756 
L 163.528063 56.071075 
L 163.801915 87.798435 
L 164.075768 53.754853 
L 164.34962 75.625431 
L 164.623472 127.726549 
L 164.897325 92.765934 
L 165.171177 129.610934 
L 165.44503 88.764228 
L 165.718882 117.199173 
L 165.992735 124.039957 
L 166.266587 109.216949 
L 166.814292 51.95022 
L 167.088144 110.856931 
L 167.361997 128.890378 
L 167.635849 71.566505 
L 167.909701 79.881105 
L 168.183554 58.33283 
L 168.457406 59.286093 
L 168.731259 89.836278 
L 169.005111 63.253245 
L 169.278963 62.573115 
L 169.552816 68.33972 
L 169.826668 80.873613 
L 170.100521 76.805001 
L 170.648226 116.962008 
L 170.922078 82.722989 
L 171.19593 128.788283 
L 171.469783 48.299468 
L 171.743635 65.281978 
L 172.017488 60.453471 
L 172.29134 58.604978 
L 172.565192 122.706071 
L 172.839045 67.726478 
L 173.112897 94.889608 
L 173.38675 52.265086 
L 173.660602 95.959112 
L 173.934455 75.63878 
L 174.208307 112.523933 
L 174.482159 111.257182 
L 174.756012 125.222476 
L 175.029864 75.769878 
L 175.303717 121.583615 
L 175.577569 50.388394 
L 175.851421 46.626868 
L 176.125274 68.333816 
L 176.399126 50.366654 
L 176.672979 86.177078 
L 176.946831 62.608896 
L 177.220684 98.367415 
L 177.494536 115.353038 
L 177.768388 49.293984 
L 178.042241 118.97784 
L 178.316093 62.001488 
L 178.589946 127.081932 
L 178.863798 92.540174 
L 179.13765 75.231637 
L 179.411503 119.196187 
L 179.685355 93.100509 
L 179.959208 81.502322 
L 180.23306 130.421281 
L 180.506912 95.541853 
L 180.780765 119.617768 
L 181.054617 104.100251 
L 181.602322 54.942347 
L 181.876175 76.802002 
L 182.150027 67.673894 
L 182.423879 46.268278 
L 182.697732 78.811794 
L 182.971584 68.929315 
L 183.245437 75.446651 
L 183.519289 127.152093 
L 183.793141 46.661876 
L 184.066994 126.349953 
L 184.340846 120.044639 
L 184.614699 121.468007 
L 184.888551 68.639323 
L 185.436256 48.695448 
L 185.983961 117.984717 
L 186.257813 50.64733 
L 186.805518 103.858154 
L 187.07937 76.202179 
L 187.353223 113.543996 
L 187.627075 110.511873 
L 187.900928 109.169289 
L 188.17478 111.202319 
L 188.448633 47.891297 
L 188.722485 96.225827 
L 188.996337 51.452747 
L 189.27019 107.835089 
L 189.544042 100.536664 
L 189.817895 113.007977 
L 190.091747 85.502271 
L 190.365599 73.580096 
L 190.913304 125.74121 
L 191.187157 62.573822 
L 191.461009 93.63274 
L 191.734862 53.194152 
L 192.008714 124.637937 
L 192.282566 107.289596 
L 192.556419 102.747974 
L 192.830271 64.901566 
L 193.104124 106.610134 
L 193.377976 61.917202 
L 193.925681 48.843307 
L 194.199533 116.686222 
L 194.473386 94.916526 
L 194.747238 119.4408 
L 195.02109 119.707214 
L 195.294943 47.222391 
L 195.568795 61.887002 
L 195.842648 117.308666 
L 196.1165 106.915202 
L 196.390353 111.372928 
L 196.664205 96.745802 
L 197.21191 56.748373 
L 197.485762 74.503613 
L 197.759615 62.328107 
L 198.033467 65.513408 
L 198.307319 73.346855 
L 198.581172 108.627913 
L 198.855024 84.565446 
L 199.128877 46.244829 
L 199.402729 105.447912 
L 199.676582 101.921015 
L 199.950434 102.497992 
L 200.224286 83.226807 
L 200.498139 123.341342 
L 200.771991 90.115933 
L 201.319696 68.337826 
L 201.593548 115.980468 
L 201.867401 125.271953 
L 202.141253 93.22615 
L 202.415106 94.134728 
L 202.688958 125.43398 
L 202.962811 95.530258 
L 203.236663 86.335058 
L 203.510515 85.490032 
L 203.784368 61.602788 
L 204.05822 117.050067 
L 204.332073 110.67229 
L 204.879777 126.281387 
L 205.15363 57.681922 
L 205.427482 92.860003 
L 205.701335 88.549289 
L 205.975187 121.078178 
L 206.249039 114.432704 
L 206.522892 67.18148 
L 206.796744 64.247269 
L 207.070597 100.781283 
L 207.344449 61.238905 
L 207.618302 76.088333 
L 207.892154 73.909108 
L 208.166006 102.582481 
L 208.439859 63.968483 
L 208.713711 95.747252 
L 208.987564 95.737081 
L 209.261416 84.367254 
L 209.535268 57.177445 
L 209.809121 43.799802 
L 210.082973 87.573521 
L 210.356826 87.590739 
L 210.630678 47.742964 
L 210.904531 46.546401 
L 211.178383 66.816027 
L 211.452235 102.333829 
L 211.726088 87.845457 
L 211.99994 105.788443 
L 212.273793 63.538273 
L 212.547645 126.984982 
L 212.821497 95.150503 
L 213.09535 104.793231 
L 213.369202 74.682947 
L 213.643055 81.763538 
L 213.916907 59.549968 
L 214.19076 98.642949 
L 214.464612 96.375003 
L 214.738464 110.8799 
L 215.012317 99.393834 
L 215.286169 62.43846 
L 215.560022 83.181423 
L 215.833874 59.237361 
L 216.107726 58.55822 
L 216.381579 116.85261 
L 216.655431 53.418251 
L 216.929284 92.509184 
L 217.203136 110.749672 
L 217.476988 89.426129 
L 217.750841 119.8963 
L 218.024693 82.147837 
L 218.298546 94.842275 
L 218.572398 116.097451 
L 218.846251 68.816067 
L 219.120103 121.571259 
L 219.667808 66.742176 
L 219.94166 98.275029 
L 220.215513 53.404323 
L 220.763217 118.259867 
L 221.03707 126.09306 
L 221.310922 123.548386 
L 221.584775 67.232235 
L 221.858627 46.523296 
L 222.13248 69.499708 
L 222.406332 53.875806 
L 222.680184 48.939216 
L 222.954037 59.39927 
L 223.501742 120.475486 
L 223.775594 56.461714 
L 224.049446 51.500169 
L 224.323299 66.910422 
L 224.597151 113.501189 
L 224.871004 68.144711 
L 225.144856 124.257457 
L 225.418709 96.338372 
L 225.692561 114.06519 
L 225.966413 66.117954 
L 226.514118 103.434529 
L 226.787971 99.88061 
L 227.061823 71.355109 
L 227.335675 104.841021 
L 227.609528 102.150372 
L 228.157233 122.683508 
L 228.704937 54.130757 
L 229.252642 107.119384 
L 229.526495 54.857969 
L 229.800347 124.025922 
L 230.0742 72.901623 
L 230.348052 47.940048 
L 230.621904 73.410303 
L 230.895757 119.453298 
L 231.169609 69.560799 
L 231.717314 129.24104 
L 231.991166 84.905728 
L 232.265019 92.332811 
L 232.538871 122.162868 
L 232.812724 122.29142 
L 233.086576 86.844208 
L 233.360429 121.872558 
L 233.634281 65.300604 
L 234.181986 83.839993 
L 234.455838 109.605604 
L 234.729691 72.476433 
L 235.003543 107.571523 
L 235.277395 76.98352 
L 235.551248 114.193299 
L 235.8251 103.852131 
L 236.372805 129.783505 
L 236.646658 93.346941 
L 236.92051 100.421602 
L 237.194362 51.580804 
L 237.468215 104.108922 
L 237.742067 96.043199 
L 238.01592 82.636949 
L 238.289772 47.416387 
L 238.563624 59.524758 
L 238.837477 117.742097 
L 239.111329 48.464197 
L 239.385182 87.037216 
L 239.659034 86.166183 
L 239.932887 95.292419 
L 240.206739 81.713787 
L 240.754444 91.690365 
L 241.028296 109.246624 
L 241.302149 58.874528 
L 241.576001 89.269402 
L 241.849853 58.177984 
L 242.123706 105.784118 
L 242.397558 118.255542 
L 242.671411 114.933741 
L 242.945263 114.460428 
L 243.492968 63.453539 
L 243.76682 99.490824 
L 244.040673 105.360812 
L 244.314525 47.033046 
L 245.136082 87.914881 
L 245.409935 80.932913 
L 245.683787 128.811507 
L 245.95764 90.537242 
L 246.231492 74.076364 
L 246.505344 82.090893 
L 246.779197 71.322819 
L 247.053049 117.271576 
L 247.326902 77.197297 
L 247.600754 122.203499 
L 247.874607 49.417412 
L 248.148459 47.714205 
L 248.422311 75.076453 
L 248.696164 123.825914 
L 248.970016 68.739998 
L 249.243869 70.024319 
L 249.517721 99.191079 
L 249.791573 46.878747 
L 250.065426 69.109285 
L 250.339278 112.253901 
L 250.613131 64.212673 
L 250.886983 111.164695 
L 251.160836 53.309613 
L 251.434688 102.02316 
L 251.70854 78.006104 
L 251.982393 78.968238 
L 252.256245 100.377 
L 252.530098 69.546549 
L 252.80395 77.18388 
L 253.077802 121.843266 
L 253.351655 124.133713 
L 253.625507 54.638222 
L 253.89936 69.521746 
L 254.173212 68.182116 
L 254.447064 113.407741 
L 254.720917 118.452851 
L 254.994769 84.384178 
L 255.268622 98.05044 
L 255.542474 63.283173 
L 255.816327 119.308224 
L 256.090179 44.108227 
L 256.364031 103.969694 
L 256.637884 54.196079 
L 256.911736 104.614418 
L 257.185589 128.090674 
L 257.459441 61.464165 
L 257.733293 108.405675 
L 258.007146 108.639194 
L 258.280998 115.131227 
L 258.554851 57.975729 
L 258.828703 109.032731 
L 259.102556 56.810912 
L 259.376408 80.340106 
L 259.65026 91.269221 
L 259.924113 126.011619 
L 260.197965 91.82229 
L 260.471818 124.449994 
L 260.74567 53.882873 
L 261.019522 106.527932 
L 261.293375 109.689988 
L 261.567227 62.241553 
L 261.84108 76.997353 
L 262.114932 64.417173 
L 262.388785 87.077243 
L 262.662637 61.501565 
L 262.936489 126.810385 
L 263.210342 103.122835 
L 263.484194 102.953591 
L 263.758047 117.493197 
L 264.031899 58.758052 
L 264.305751 62.837862 
L 264.579604 102.851805 
L 265.127309 55.591928 
L 265.401161 88.248321 
L 265.675013 101.076217 
L 265.948866 97.468032 
L 266.222718 65.187781 
L 266.496571 110.605712 
L 266.770423 93.210137 
L 267.044276 54.594089 
L 267.318128 126.603437 
L 267.59198 69.355112 
L 267.865833 110.334117 
L 268.139685 54.849893 
L 268.413538 70.406431 
L 268.68739 78.991378 
L 268.961242 109.593242 
L 269.235095 121.636572 
L 269.508947 67.568045 
L 269.7828 74.942136 
L 270.056652 44.023966 
L 270.604357 122.51634 
L 270.878209 101.639226 
L 271.152062 59.332291 
L 271.425914 78.834839 
L 271.699767 123.783482 
L 271.973619 102.521248 
L 272.247471 66.423002 
L 272.521324 112.484383 
L 272.795176 57.545577 
L 273.069029 65.054907 
L 273.616734 114.458972 
L 273.890586 53.686774 
L 274.164438 69.231461 
L 274.438291 69.357562 
L 274.712143 108.159357 
L 274.985996 48.040737 
L 275.5337 111.078939 
L 275.807553 109.385561 
L 276.081405 124.015456 
L 276.355258 76.392961 
L 276.62911 80.733023 
L 276.902963 49.90554 
L 277.176815 124.952506 
L 277.450667 127.149096 
L 277.72452 124.992752 
L 277.998372 72.305729 
L 278.272225 81.537994 
L 278.546077 117.248792 
L 278.819929 124.412232 
L 279.093782 97.647435 
L 279.641487 69.319517 
L 279.915339 82.91555 
L 280.189191 67.64888 
L 280.463044 122.076387 
L 280.736896 91.960083 
L 281.010749 101.181278 
L 281.284601 46.563313 
L 281.558454 70.986936 
L 281.832306 75.439313 
L 282.106158 77.886875 
L 282.380011 113.147418 
L 282.653863 101.824894 
L 282.927716 118.503382 
L 283.201568 126.793472 
L 283.47542 102.518792 
L 283.749273 113.431284 
L 284.023125 74.952174 
L 284.296978 110.222216 
L 284.57083 95.463614 
L 285.118535 45.101634 
L 285.66624 104.838212 
L 285.940092 59.046679 
L 286.213945 124.816544 
L 286.487797 70.829783 
L 286.761649 89.764088 
L 287.035502 130.095956 
L 287.309354 61.410741 
L 287.857059 94.394257 
L 288.130912 70.627563 
L 288.404764 126.483805 
L 288.678616 77.348034 
L 288.952469 64.899897 
L 289.500174 104.432865 
L 290.047878 81.802786 
L 290.321731 115.218888 
L 290.869436 78.592126 
L 291.143288 125.573392 
L 291.41714 44.309119 
L 291.690993 121.797753 
L 292.238698 50.792876 
L 292.51255 83.623231 
L 292.786403 77.368282 
L 293.060255 118.719032 
L 293.60796 78.839452 
L 293.881812 107.337921 
L 294.155665 93.903036 
L 294.429517 55.739713 
L 294.703369 108.203231 
L 295.251074 98.37145 
L 295.524927 127.973209 
L 295.798779 80.233082 
L 296.072632 61.457804 
L 296.346484 75.685831 
L 296.620336 129.874704 
L 297.168041 53.371556 
L 297.441894 78.111288 
L 297.715746 48.159664 
L 298.263451 85.022429 
L 298.537303 111.451145 
L 298.811156 108.069492 
L 299.085008 94.934136 
L 299.358861 115.75141 
L 299.632713 73.216513 
L 299.906565 95.665836 
L 300.180418 46.575761 
L 300.45427 112.962778 
L 300.728123 110.146091 
L 301.001975 56.168337 
L 301.275827 65.666349 
L 301.54968 85.380391 
L 301.823532 90.248961 
L 302.097385 79.138125 
L 302.371237 125.261201 
L 302.645089 48.967073 
L 302.918942 54.038044 
L 303.192794 46.368857 
L 303.466647 128.342011 
L 303.740499 62.519613 
L 304.014352 106.219676 
L 304.288204 61.783043 
L 304.562056 114.073935 
L 304.835909 95.957993 
L 305.109761 128.868727 
L 305.383614 51.047686 
L 305.657466 61.844284 
L 305.931318 54.224651 
L 306.205171 123.748561 
L 306.752876 74.013026 
L 307.026728 74.054197 
L 307.300581 52.033251 
L 307.574433 101.353847 
L 307.848285 59.854231 
L 308.122138 101.008022 
L 308.39599 68.940199 
L 308.669843 76.332542 
L 308.943695 74.151628 
L 309.217547 51.177847 
L 309.4914 89.709849 
L 309.765252 89.650402 
L 310.039105 123.090493 
L 310.312957 94.928521 
L 310.58681 44.60113 
L 310.860662 74.445635 
L 311.134514 64.440338 
L 311.408367 74.1798 
L 311.682219 105.339623 
L 311.956072 45.026343 
L 312.229924 63.31906 
L 312.503776 69.114681 
L 312.777629 56.469527 
L 313.051481 75.647056 
L 313.325334 62.779831 
L 313.599186 88.803444 
L 313.873038 78.493937 
L 314.146891 109.390813 
L 314.694596 55.370718 
L 314.968448 128.028329 
L 315.242301 59.812979 
L 315.516153 51.809835 
L 315.790005 57.517417 
L 316.063858 125.773599 
L 316.33771 65.04365 
L 316.611563 104.395515 
L 316.885415 83.520885 
L 317.159267 110.26632 
L 317.43312 68.762568 
L 317.706972 83.120214 
L 317.980825 80.577839 
L 318.254677 62.542575 
L 318.52853 98.675311 
L 318.802382 56.241175 
L 319.076234 60.497474 
L 319.350087 100.595674 
L 319.623939 69.916736 
L 319.897792 62.594347 
L 320.171644 70.572432 
L 320.445496 114.830419 
L 320.719349 107.545976 
L 320.993201 56.318385 
L 321.267054 119.468168 
L 321.540906 52.657415 
L 321.814759 47.737023 
L 322.088611 118.945444 
L 322.362463 107.21668 
L 322.636316 63.972191 
L 322.910168 78.054747 
L 323.184021 121.317966 
L 323.457873 67.988252 
L 323.731725 58.263037 
L 324.005578 65.052167 
L 324.27943 79.14004 
L 324.553283 85.705321 
L 324.827135 100.980923 
L 325.100987 97.273256 
L 325.37484 119.044703 
L 325.648692 128.209612 
L 325.922545 73.778632 
L 326.196397 75.658238 
L 326.47025 121.538528 
L 326.744102 57.655444 
L 327.017954 58.840752 
L 327.291807 81.34069 
L 327.565659 57.350715 
L 327.839512 104.533388 
L 328.113364 66.226679 
L 328.387216 82.958467 
L 328.661069 61.403415 
L 328.934921 72.991392 
L 329.208774 91.482506 
L 329.482626 95.819517 
L 329.756479 60.213707 
L 330.030331 103.851288 
L 330.304183 107.119383 
L 330.851888 54.036629 
L 331.125741 119.830845 
L 331.399593 87.347269 
L 331.673445 113.193659 
L 331.947298 119.447557 
L 332.22115 53.168421 
L 332.495003 63.629367 
L 332.768855 113.295923 
L 333.31656 86.191423 
L 333.590412 59.512923 
L 333.864265 56.863317 
L 334.138117 62.731661 
L 334.41197 54.103826 
L 334.685822 79.284613 
L 334.959674 121.397991 
L 335.233527 56.17285 
L 335.233527 56.17285 
" clip-path="url(#p96e587ca6b)" style="fill: none; stroke: #1f77b4; stroke-width: 1.5; stroke-linecap: square"/>
   </g>
   <g id="line2d_14">
    <path d="M 61.654964 86.998295 
L 335.507379 86.998295 
" clip-path="url(#p96e587ca6b)" style="fill: none; stroke-dasharray: 7.4,3.2; stroke-dashoffset: 0; stroke: #ff0000; stroke-width: 2"/>
   </g>
   <g id="line2d_15">
    <path d="M 193.104124 86.998295 
L 204.05822 86.998295 
" clip-path="url(#p96e587ca6b)" style="fill: none; stroke: #000000; stroke-width: 2; stroke-linecap: square"/>
   </g>
   <g id="line2d_16">
    <path d="M 193.104124 43.558615 
L 204.05822 43.558615 
" clip-path="url(#p96e587ca6b)" style="fill: none; stroke: #000000; stroke-width: 2; stroke-linecap: square"/>
   </g>
   <g id="line2d_17">
    <path d="M 198.581172 86.998295 
L 198.581172 43.558615 
" clip-path="url(#p96e587ca6b)" style="fill: none; stroke: #000000; stroke-width: 2; stroke-linecap: square"/>
   </g>
   <g id="line2d_18">
    <path d="M 193.104124 159.397763 
L 204.05822 159.397763 
" clip-path="url(#p96e587ca6b)" style="fill: none; stroke: #000000; stroke-width: 2; stroke-linecap: square"/>
   </g>
   <g id="line2d_19">
    <path d="M 198.581172 159.397763 
L 198.581172 86.998295 
" clip-path="url(#p96e587ca6b)" style="fill: none; stroke: #000000; stroke-width: 2; stroke-linecap: square"/>
   </g>
   <g id="patch_3">
    <path d="M 47.962344 173.877656 
L 47.962344 14.598828 
" style="fill: none; stroke: #000000; stroke-width: 0.8; stroke-linejoin: miter; stroke-linecap: square"/>
   </g>
   <g id="patch_4">
    <path d="M 349.2 173.877656 
L 349.2 14.598828 
" style="fill: none; stroke: #000000; stroke-width: 0.8; stroke-linejoin: miter; stroke-linecap: square"/>
   </g>
   <g id="patch_5">
    <path d="M 47.962344 173.877656 
L 349.2 173.877656 
" style="fill: none; stroke: #000000; stroke-width: 0.8; stroke-linejoin: miter; stroke-linecap: square"/>
   </g>
   <g id="patch_6">
    <path d="M 47.962344 14.598828 
L 349.2 14.598828 
" style="fill: none; stroke: #000000; stroke-width: 0.8; stroke-linejoin: miter; stroke-linecap: square"/>
   </g>
   <g id="text_15">
    <g id="patch_7">
     <path d="M 205.535268 71.680799 
L 235.127456 71.680799 
L 235.127456 53.680018 
L 205.535268 53.680018 
z
" style="fill: #ffffff; opacity: 0.8; stroke: #000000; stroke-linejoin: miter"/>
    </g>
    <!-- gain -->
    <g transform="translate(209.535268 65.278455) scale(0.1 -0.1)">
     <use xlink:href="#DejaVuSans-4a"/>
     <use xlink:href="#DejaVuSans-44" transform="translate(63.484375 0)"/>
     <use xlink:href="#DejaVuSans-4c" transform="translate(124.765625 0)"/>
     <use xlink:href="#DejaVuSans-51" transform="translate(152.546875 0)"/>
    </g>
   </g>
   <g id="text_16">
    <g id="patch_8">
     <path d="M 205.535268 129.600373 
L 241.825893 129.600373 
L 241.825893 111.599592 
L 205.535268 111.599592 
z
" style="fill: #ffffff; opacity: 0.8; stroke: #000000; stroke-linejoin: miter"/>
    </g>
    <!-- offset -->
    <g transform="translate(209.535268 123.198029) scale(0.1 -0.1)">
     <defs>
      <path id="DejaVuSans-52" d="M 1959 3097 
Q 1497 3097 1228 2736 
Q 959 2375 959 1747 
Q 959 1119 1226 758 
Q 1494 397 1959 397 
Q 2419 397 2687 759 
Q 2956 1122 2956 1747 
Q 2956 2369 2687 2733 
Q 2419 3097 1959 3097 
z
M 1959 3584 
Q 2709 3584 3137 3096 
Q 3566 2609 3566 1747 
Q 3566 888 3137 398 
Q 2709 -91 1959 -91 
Q 1206 -91 779 398 
Q 353 888 353 1747 
Q 353 2609 779 3096 
Q 1206 3584 1959 3584 
z
" transform="scale(0.015625)"/>
      <path id="DejaVuSans-13ae" d="M 4531 4863 
L 4531 4384 
L 3981 4384 
Q 3672 4384 3551 4259 
Q 3431 4134 3431 3809 
L 3431 3500 
L 4378 3500 
L 4378 3053 
L 3431 3053 
L 3431 0 
L 2853 0 
L 2853 3053 
L 1275 3053 
L 1275 0 
L 697 0 
L 697 3053 
L 147 3053 
L 147 3500 
L 697 3500 
L 697 3744 
Q 697 4328 969 4595 
Q 1241 4863 1831 4863 
L 2375 4863 
L 2375 4384 
L 1825 4384 
Q 1516 4384 1394 4259 
Q 1275 4134 1275 3809 
L 1275 3500 
L 2853 3500 
L 2853 3744 
Q 2853 4328 3125 4595 
Q 3397 4863 3988 4863 
L 4531 4863 
z
" transform="scale(0.015625)"/>
     </defs>
     <use xlink:href="#DejaVuSans-52"/>
     <use xlink:href="#DejaVuSans-13ae" transform="translate(61.1875 0)"/>
     <use xlink:href="#DejaVuSans-56" transform="translate(130.078125 0)"/>
     <use xlink:href="#DejaVuSans-48" transform="translate(182.171875 0)"/>
     <use xlink:href="#DejaVuSans-57" transform="translate(243.703125 0)"/>
    </g>
   </g>
  </g>
 </g>
 <defs>
  <clipPath id="p96e587ca6b">
   <rect x="47.962344" y="14.598828" width="301.237656" height="159.278828"/>
  </clipPath>
 </defs>
</svg>
