<?xml version="1.0" encoding="UTF-8" standalone="no"?>
<!-- Generator: Adobe Illustrator 24.2.1, SVG Export Plug-In . SVG Version: 6.00 Build 0)  -->

<svg
   version="1.1"
   id="Layer_1"
   x="0px"
   y="0px"
   viewBox="0 0 1239.6 502.1"
   style="enable-background:new 0 0 1239.6 502.1;"
   xml:space="preserve"
   sodipodi:docname="amdc-dac-dark.svg"
   inkscape:version="1.4.4 (dcaf3e7d9e, 2026-05-05)"
   xmlns:inkscape="http://www.inkscape.org/namespaces/inkscape"
   xmlns:sodipodi="http://sodipodi.sourceforge.net/DTD/sodipodi-0.dtd"
   xmlns="http://www.w3.org/2000/svg"
   xmlns:svg="http://www.w3.org/2000/svg"><defs
   id="defs93" /><sodipodi:namedview
   id="namedview93"
   pagecolor="#4a4a4a"
   bordercolor="#000000"
   borderopacity="0.25"
   inkscape:showpageshadow="2"
   inkscape:pageopacity="0.0"
   inkscape:pagecheckerboard="0"
   inkscape:deskcolor="#d1d1d1"
   inkscape:zoom="1.119312"
   inkscape:cx="543.19081"
   inkscape:cy="232.28554"
   inkscape:window-width="1920"
   inkscape:window-height="1022"
   inkscape:window-x="0"
   inkscape:window-y="0"
   inkscape:window-maximized="1"
   inkscape:current-layer="Layer_1" />
<style
   type="text/css"
   id="style1">
	.st0{font-family:'CambriaMath';}
	.st1{font-size:16px;}
	.st2{fill:#FFFFFF;stroke:#0000FF;stroke-width:1.42;stroke-linecap:round;stroke-linejoin:round;}
	.st3{fill:#808080;}
	.st4{font-size:20px;}
	.st5{fill:none;stroke:#808080;stroke-width:1.42;stroke-miterlimit:11.34;}
	.st6{fill:none;stroke:#E6E6E6;stroke-width:2.83;stroke-linecap:round;stroke-miterlimit:11.34;}
	.st7{fill:#D7E3F4;stroke:#000000;}
	.st8{fill:#FFF6D5;stroke:#000000;stroke-width:1.42;stroke-miterlimit:11.34;}
	.st9{fill:#D7E3F4;stroke:#000000;stroke-width:1.2;}
	.st10{fill:#FFD5D5;stroke:#000000;stroke-width:1.42;stroke-miterlimit:11.34;}
	.st11{fill-rule:evenodd;clip-rule:evenodd;stroke:#000000;stroke-width:1.13;stroke-miterlimit:4.54;}
	.st12{fill-rule:evenodd;clip-rule:evenodd;stroke:#000000;stroke-width:2.83;stroke-miterlimit:11.34;}
	.st13{fill:none;stroke:#000000;stroke-width:1.42;stroke-miterlimit:11.34;}
	.st14{fill:none;stroke:#000000;stroke-width:1.42;stroke-linejoin:round;}
	.st15{font-size:14px;}
	.st16{fill:#FFE6D5;stroke:#000000;stroke-width:1.42;stroke-miterlimit:11.34;}
	.st17{fill:none;stroke:#000000;stroke-width:2.83;stroke-miterlimit:11.34;}
	.st18{fill:none;stroke:#000000;stroke-width:1.42;stroke-miterlimit:5.99;}
	.st19{fill-rule:evenodd;clip-rule:evenodd;fill:#808080;stroke:#808080;stroke-width:1.13;stroke-miterlimit:4.54;}
	.st20{fill-rule:evenodd;clip-rule:evenodd;fill:#808080;stroke:#808080;stroke-width:2.83;stroke-miterlimit:11.34;}
	.st21{fill:#AA0000;}
	.st22{fill:none;stroke:#AA0000;stroke-width:1.42;stroke-miterlimit:11.34;stroke-dasharray:4.25,4.25;}
	.st23{fill-rule:evenodd;clip-rule:evenodd;fill:#AA0000;stroke:#AA0000;stroke-width:2.83;stroke-miterlimit:11.34;}
	.st24{fill:#0000FF;}
	.st25{fill:none;stroke:#808080;stroke-width:2.8;stroke-miterlimit:11.34;}
	.st26{fill:none;stroke:#808080;stroke-width:2.83;stroke-miterlimit:11.34;}
	.st27{fill:#D6FFD5;stroke:#000000;}
	.st28{fill:#808080;stroke:#808080;stroke-width:2.83;stroke-miterlimit:11.34;}
	.st29{fill:none;}
	.st30{fill:none;stroke:#C1272D;}
	.st31{fill:#C1272D;}
	.st32{fill:none;stroke:#000000;stroke-width:2.8;stroke-miterlimit:11.34;}
</style>
<g
   id="text11471_2_"
   style="fill:#ffffff;fill-opacity:1">
	<g
   id="g1"
   style="fill:#ffffff;fill-opacity:1">
		<text
   transform="matrix(1 0 0 1 67.0201 393.7349)"
   class="st0 st1"
   id="text1"
   style="fill:#ffffff;fill-opacity:1">Digital Isolator</text>
	</g>
</g>
<polygon
   id="rect5800"
   class="st2"
   points="603.7,72.9 1238.9,71.8 1238.9,330.7 603.7,331.8 " />
<polygon
   id="rect5800-2"
   class="st2"
   points="598.9,77.9 1234.1,76.8 1234.1,335.7 598.9,336.8 " />
<polygon
   id="rect5800-3"
   class="st2"
   points="594.1,82.9 1229.3,81.8 1229.3,340.7 594.1,341.8 "
   style="fill:#cfcfcf;fill-opacity:1" />
<g
   id="text12180">
	<text
   transform="matrix(1 0 0 1 818.35 45.05)"
   class="st3 st0 st4"
   id="text2">Stage 2</text>
</g>
<path
   id="path12176"
   class="st5"
   d="M761.7,66.1V53.8h180.1v12.3" />
<path
   id="path12176_1_"
   class="st5"
   d="M591.6,66.1V53.8h166.2v12.3" />
<g
   id="text17741"
   style="fill:#ffffff;fill-opacity:1">
	<text
   transform="matrix(1 0 0 1 10.27 330.85)"
   class="st0 st4"
   id="text3"
   style="fill:#ffffff;fill-opacity:1">Legend:</text>
</g>
<rect
   id="rect17743"
   x="1.4"
   y="308.9"
   class="st6"
   width="257.5"
   height="186.3" />
<g
   id="text17777"
   style="fill:#ffffff;fill-opacity:1">
	<text
   transform="matrix(1 0 0 1 67.02 356.01)"
   class="st0 st1"
   id="text4"
   style="fill:#ffffff;fill-opacity:1">L</text>
	<text
   transform="matrix(1 0 0 1 75.61 356.01)"
   class="st0 st1"
   id="text5"
   style="fill:#ffffff;fill-opacity:1">o</text>
	<text
   transform="matrix(1 0 0 1 84.02 356.01)"
   class="st0 st1"
   id="text6"
   style="fill:#ffffff;fill-opacity:1">w</text>
	<text
   transform="matrix(1 0 0 1 96.18 356.01)"
   class="st0 st1"
   id="text7"
   style="fill:#ffffff;fill-opacity:1">-pass fil</text>
	<text
   transform="matrix(1 0 0 1 149.11 356.01)"
   class="st0 st1"
   id="text8"
   style="fill:#ffffff;fill-opacity:1">t</text>
	<text
   transform="matrix(1 0 0 1 154.38 356.01)"
   class="st0 st1"
   id="text9"
   style="fill:#ffffff;fill-opacity:1">er</text>
</g>
<g
   id="g10482-5"
   style="stroke:#ffffff;stroke-opacity:1">
	<rect
   id="rect815-5-51"
   x="355.1"
   y="132.1"
   class="st7"
   width="142"
   height="164.8"
   style="stroke:#ffffff;stroke-opacity:1" />
</g>
<g
   id="text11471">
	<text
   transform="matrix(1 0 0 1 10.27 106.43)"
   class="st3 st0 st1"
   id="text10">F</text>
	<text
   transform="matrix(1 0 0 1 15.11 106.43)"
   class="st3 st0 st1"
   id="text11">r</text>
	<text
   transform="matrix(1 0 0 1 21.5 106.43)"
   class="st3 st0 st1"
   id="text12">om AMDC</text>
</g>
<rect
   id="rect11473"
   x="13.6"
   y="338.8"
   class="st8"
   width="42.4"
   height="26.1"
   style="stroke:#ffffff;stroke-opacity:1" />
<g
   id="text11477">
	<text
   transform="matrix(1 0 0 1 21.39 357.16)"
   class="st0 st1"
   id="text13">LPF</text>
</g>
<g
   id="g11485"
   style="stroke:#ffffff;stroke-opacity:1">
	<rect
   id="rect11479"
   x="13.4"
   y="411.8"
   class="st9"
   width="42.5"
   height="26"
   style="stroke:#ffffff;stroke-opacity:1" />
</g>
<g
   id="g11485_1_"
   style="stroke:#ffffff;stroke-opacity:1">
	<rect
   id="rect11479_1_"
   x="13.5"
   y="375.4"
   class="st10"
   width="42.5"
   height="26"
   style="stroke:#ffffff;stroke-opacity:1" />
</g>
<g
   id="text11489"
   style="fill:#ffffff;fill-opacity:1">
	<text
   transform="matrix(1 0 0 1 67.02 429.01)"
   class="st0 st1"
   id="text14"
   style="fill:#ffffff;fill-opacity:1">Digital-</text>
	<text
   transform="matrix(1 0 0 1 117.29 429.01)"
   class="st0 st1"
   id="text15"
   style="fill:#ffffff;fill-opacity:1">t</text>
	<text
   transform="matrix(1 0 0 1 122.56 429.01)"
   class="st0 st1"
   id="text16"
   style="fill:#ffffff;fill-opacity:1">o-Analog Co</text>
	<text
   transform="matrix(1 0 0 1 200.73 429.01)"
   class="st0 st1"
   id="text17"
   style="fill:#ffffff;fill-opacity:1">nv</text>
	<text
   transform="matrix(1 0 0 1 217.1 429.01)"
   class="st0 st1"
   id="text18"
   style="fill:#ffffff;fill-opacity:1">er</text>
	<text
   transform="matrix(1 0 0 1 231.52 429.01)"
   class="st0 st1"
   id="text19"
   style="fill:#ffffff;fill-opacity:1">t</text>
	<text
   transform="matrix(1 0 0 1 236.79 429.01)"
   class="st0 st1"
   id="text20"
   style="fill:#ffffff;fill-opacity:1">er</text>
</g>
<g
   id="text11477_1_">
	<text
   transform="matrix(1 0 0 1 22.1098 393.7349)"
   class="st0 st1"
   id="text21">ISO</text>
</g>
<g
   id="text11493">
	<text
   transform="matrix(1 0 0 1 19.74 430.16)"
   class="st0 st1"
   id="text22">D</text>
	<text
   transform="matrix(1 0 0 1 29.86 430.16)"
   class="st0 st1"
   id="text23">A</text>
	<text
   transform="matrix(1 0 0 1 39.57 430.16)"
   class="st0 st1"
   id="text24">C</text>
</g>
<path
   id="path12203"
   class="st5"
   d="M591.6,38V25.7h348.5v12.3" />
<path
   id="path12203-2"
   class="st5"
   d="M239.7,38V25.7h348.5v12.3" />
<g
   id="text12207">
	<text
   transform="matrix(1 0 0 1 660.47 17.41)"
   class="st3 st0 st4"
   id="text25">Analog signal conditioning</text>
</g>
<g
   id="text12213">
	<text
   transform="matrix(1 0 0 1 297.81 16.67)"
   class="st3 st0 st4"
   id="text26">Digital-</text>
	<text
   transform="matrix(1 0 0 1 360.64 16.67)"
   class="st3 st0 st4"
   id="text27">t</text>
	<text
   transform="matrix(1 0 0 1 367.23 16.67)"
   class="st3 st0 st4"
   id="text28">o-Analog Co</text>
	<text
   transform="matrix(1 0 0 1 464.95 16.67)"
   class="st3 st0 st4"
   id="text29">nv</text>
	<text
   transform="matrix(1 0 0 1 485.41 16.67)"
   class="st3 st0 st4"
   id="text30">ersion</text>
</g>
<g
   id="text12213-2">
	<text
   transform="matrix(1 0 0 1 52.46 18.41)"
   class="st3 st0 st4"
   id="text31">Pinout Selection</text>
</g>
<path
   id="path12215"
   class="st5"
   d="M945.5,38V25.7h293.4v12.3" />
<g
   id="text12219">
	<text
   transform="matrix(1 0 0 1 1032.58 17.41)"
   class="st3 st0 st4"
   id="text32">Analog Output</text>
</g>
<path
   id="path11159"
   class="st11"
   d="M455,129.8l-5.7-9.8h11.3L455,129.8z"
   style="stroke:#ffffff;stroke-opacity:1;fill:#ffffff;fill-opacity:1" />
<path
   id="path11157"
   class="st12"
   d="M455,123.2" />
<g
   id="text14087"
   style="stroke:none;stroke-opacity:1;fill:#ffffff;fill-opacity:1">
	<text
   transform="matrix(1 0 0 1 427.84 124.5)"
   class="st0 st1"
   id="text33"
   style="stroke:none;stroke-opacity:1;fill:#ffffff;fill-opacity:1">5V</text>
</g>
<path
   id="path5299"
   class="st11"
   d="M52.7,457l-9.8,5.7v-11.3L52.7,457z"
   style="stroke:#ffffff;stroke-opacity:1;fill:#ffffff;fill-opacity:1" />
<path
   id="path5297"
   class="st12"
   d="M46.2,457" />
<g
   id="text9531">
	<text
   transform="matrix(1 0 0 1 315.77 177.7)"
   class="st3 st0 st1"
   id="text34">C</text>
	<text
   transform="matrix(1 0 0 1 324.67 177.7)"
   class="st3 st0 st1"
   id="text35">S</text>
</g>
<rect
   id="rect9537"
   x="1016.6"
   y="128.6"
   class="st10"
   width="112"
   height="173" />
<g
   id="text9543">
	<text
   transform="matrix(1 0 0 1 1057.75 200.36)"
   class="st0 st1"
   id="text36">BNC</text>
	<text
   transform="matrix(1 0 0 1 1037.29 238.76)"
   class="st0 st1"
   id="text37">Connec</text>
	<text
   transform="matrix(1 0 0 1 1087.5 238.76)"
   class="st0 st1"
   id="text38">t</text>
	<text
   transform="matrix(1 0 0 1 1092.77 238.76)"
   class="st0 st1"
   id="text39">or</text>
</g>
<g
   id="text11037">
	<text
   transform="matrix(1 0 0 1 1131.92 203.19)"
   class="st0 st1"
   id="text40">Channel_out</text>
</g>
<g
   id="text11037-2"
   style="stroke:none;stroke-opacity:1;fill:#ffffff;fill-opacity:1">
	<text
   transform="matrix(1 0 0 1 504.85 186.27)"
   class="st0 st1"
   id="text41"
   style="stroke:none;stroke-opacity:1;fill:#ffffff;fill-opacity:1">D</text>
	<text
   transform="matrix(1 0 0 1 514.97 186.27)"
   class="st0 st1"
   id="text42"
   style="stroke:none;stroke-opacity:1;fill:#ffffff;fill-opacity:1">A</text>
	<text
   transform="matrix(1 0 0 1 524.68 186.27)"
   class="st0 st1"
   id="text43"
   style="stroke:none;stroke-opacity:1;fill:#ffffff;fill-opacity:1">C_OUT</text>
</g>
<g
   id="text11679">
	<text
   transform="matrix(1 0 0 1 914.51 203.19)"
   class="st0 st1"
   id="text44">Analog Out</text>
</g>
<g
   id="g13855"
   style="stroke:#ffffff;stroke-opacity:1">
	<path
   id="path13851"
   class="st13"
   d="M497,282.2h16.8v10"
   style="stroke:#ffffff;stroke-opacity:1" />
	<path
   id="path13853"
   class="st14"
   d="M506.2,292.4h15.7l-7.6,13.7L506.2,292.4z"
   style="stroke:#ffffff;stroke-opacity:1" />
</g>
<g
   id="text19619"
   style="stroke:none;stroke-opacity:1;fill:#ffffff;fill-opacity:1">
	<text
   transform="matrix(1 0 0 1 526.45 239.18)"
   class="st0 st15"
   id="text45"
   style="stroke:none;stroke-opacity:1;fill:#ffffff;fill-opacity:1">(2.5V)</text>
</g>
<rect
   id="rect19621"
   x="648.8"
   y="143.9"
   class="st16"
   width="82"
   height="141.1" />
<g
   id="text19629">
	<text
   transform="matrix(1 0 0 1 662.62 220.18)"
   class="st0 st1"
   id="text46">OP Amp</text>
</g>
<rect
   id="rect19631"
   x="801"
   y="199.8"
   class="st8"
   width="42.4"
   height="26.1" />
<g
   id="text19635">
	<text
   transform="matrix(1 0 0 1 808.81 218.18)"
   class="st0 st1"
   id="text47">LPF</text>
</g>
<path
   id="path2871"
   class="st11"
   d="M799.8,213.4l-9.8,5.7v-11.3L799.8,213.4z"
   style="stroke:#ffffff;stroke-opacity:1;fill:#ffffff;fill-opacity:1" />
<path
   id="path19637"
   class="st12"
   d="M793.3,213.4" />
<path
   id="path19647"
   class="st17"
   d="M843.8,213.4h85"
   style="stroke:#ffffff;stroke-opacity:1" />
<g
   id="text19655">
	<text
   transform="matrix(1 0 0 1 698.47 136.33)"
   class="st0 st1"
   id="text48">12V</text>
</g>
<g
   id="text19661">
	<text
   transform="matrix(1 0 0 1 699.61 304.04)"
   class="st0 st1"
   id="text49">-12V</text>
</g>
<g
   id="g19667"
   style="stroke:#ffffff;stroke-opacity:1">
	<path
   id="path19663"
   class="st18"
   d="M843.6,220.2h8.9v5.3"
   style="stroke:#ffffff;stroke-opacity:1" />
	<path
   id="path19665"
   class="st14"
   d="M848.4,225.6h8.3l-4,7.3L848.4,225.6z"
   style="stroke:#ffffff;stroke-opacity:1" />
</g>
<g
   id="g19679"
   style="stroke:#ffffff;stroke-opacity:1">
	<path
   id="path19675"
   class="st13"
   d="M729.7,271.5h16.8v10"
   style="stroke:#ffffff;stroke-opacity:1" />
	<path
   id="path19677"
   class="st14"
   d="M739,281.7h15.7l-7.6,13.7L739,281.7z"
   style="stroke:#ffffff;stroke-opacity:1" />
</g>
<g
   id="text46041">
	<text
   transform="matrix(1 0 0 1 411.82 218.33)"
   class="st0 st1"
   id="text50">D</text>
	<text
   transform="matrix(1 0 0 1 421.94 218.33)"
   class="st0 st1"
   id="text51">A</text>
	<text
   transform="matrix(1 0 0 1 431.65 218.33)"
   class="st0 st1"
   id="text52">C</text>
</g>
<g
   id="text7955"
   style="fill:#ffffff;fill-opacity:1">
	<text
   transform="matrix(1 0 0 1 67.02 460.21)"
   class="st0 st1"
   id="text53"
   style="fill:#ffffff;fill-opacity:1">Analog Signal</text>
</g>
<path
   id="path7969"
   class="st19"
   d="M52.7,478.6l-9.8,5.7v-11.4L52.7,478.6z" />
<path
   id="path7963"
   class="st20"
   d="M46.2,478.6" />
<g
   id="text7967"
   style="fill:#ffffff;fill-opacity:1">
	<text
   transform="matrix(1 0 0 1 67.02 481.72)"
   class="st0 st1"
   id="text54"
   style="fill:#ffffff;fill-opacity:1">Digital Signal</text>
</g>
<g
   id="text13401">
	<text
   transform="matrix(1 0 0 1 803.49 175.7)"
   class="st21 st0 st1"
   id="text55">±10V</text>
</g>
<rect
   id="rect13403"
   x="273.3"
   y="161"
   class="st22"
   width="8"
   height="101.6" />
<g
   id="text13505">
	<text
   transform="matrix(1 0 0 1 277.32 104.42)"
   class="st21 st0 st1"
   id="text56">Digital </text>
	<text
   transform="matrix(1 0 0 1 325.8 104.42)"
   class="st21 st0 st1"
   id="text57">L</text>
	<text
   transform="matrix(1 0 0 1 334.27 104.42)"
   class="st21 st0 st1"
   id="text58">O</text>
	<text
   transform="matrix(1 0 0 1 344.64 104.42)"
   class="st21 st0 st1"
   id="text59">W 0V</text>
</g>
<g
   id="text13513">
	<text
   transform="matrix(1 0 0 1 277.32 120.85)"
   class="st21 st0 st1"
   id="text60">Digital HIGH 5V</text>
</g>
<rect
   id="rect18148"
   x="766.5"
   y="202.6"
   class="st22"
   width="6.5"
   height="21.8" />
<rect
   id="rect18148-2"
   x="877.6"
   y="201.6"
   class="st22"
   width="6.5"
   height="21.8" />
<path
   id="path18156"
   class="st23"
   d="M785.2,199.2" />
<path
   id="path19452"
   class="st23"
   d="M884.2,201.6" />
<path
   id="path7722"
   class="st11"
   d="M689.7,142.1l-5.7-9.8h11.3L689.7,142.1z"
   style="fill:#ffffff;fill-opacity:1;stroke:none;stroke-opacity:1" />
<path
   id="path7720"
   class="st12"
   d="M689.7,135.6" />
<path
   id="path9616"
   class="st11"
   d="M689.7,286l5.7,9.8h-11.3L689.7,286z"
   style="stroke:none;stroke-opacity:1;fill:#ffffff;fill-opacity:1" />
<path
   id="path9614"
   class="st12"
   d="M689.7,292.5" />
<g
   id="text819-5-8-91-5-0-8-0-3-5-7-9-7-9">
	<text
   transform="matrix(1 0 0 1 1128.26 64.88)"
   class="st24 st0 st15"
   id="text61">8x copies on PCB</text>
</g>
<path
   id="path12164"
   class="st5"
   d="M1.4,37.9V25.6h233.1v12.3" />
<g
   id="text12168">
	<text
   transform="matrix(1 0 0 1 648.78 45.05)"
   class="st3 st0 st4"
   id="text62">Stage 1</text>
</g>
<line
   class="st17"
   x1="496.4"
   y1="192.8"
   x2="638.5"
   y2="192.8"
   id="line62"
   style="stroke:#ffffff;stroke-opacity:1" />
<polygon
   points="636.5,199.9 648.7,192.8 636.5,185.7 "
   id="polygon62"
   style="fill:#ffffff;fill-opacity:1" />
<line
   class="st25"
   x1="46.2"
   y1="479"
   x2="26.2"
   y2="479"
   id="line63" />
<line
   class="st17"
   x1="496.4"
   y1="222.8"
   x2="638.5"
   y2="222.8"
   id="line64"
   style="stroke:#ffffff;stroke-opacity:1" />
<polygon
   points="636.5,229.9 648.7,222.8 636.5,215.7 "
   id="polygon64"
   style="stroke:none;stroke-opacity:1;fill:#ffffff;fill-opacity:1" />
<line
   class="st26"
   x1="217.4"
   y1="182.8"
   x2="344.9"
   y2="182.8"
   id="line65" />
<polygon
   class="st3"
   points="342.9,189.9 355.1,182.8 342.9,175.7 "
   id="polygon65" />
<line
   class="st26"
   x1="217.4"
   y1="212.8"
   x2="344.9"
   y2="212.8"
   id="line66" />
<polygon
   class="st3"
   points="342.9,219.9 355.1,212.8 342.9,205.7 "
   id="polygon66" />
<line
   class="st26"
   x1="217.4"
   y1="242.8"
   x2="344.9"
   y2="242.8"
   id="line67" />
<polygon
   class="st3"
   points="342.9,249.9 355.1,242.8 342.9,235.7 "
   id="polygon67" />
<g
   id="text9531-2">
	<text
   transform="matrix(1 0 0 1 296.76 207.74)"
   class="st3 st0 st1"
   id="text67">SCLK</text>
</g>
<g
   id="text9531-3">
	<text
   transform="matrix(1 0 0 1 295.77 238.3)"
   class="st3 st0 st1"
   id="text68">MOSI</text>
</g>
<g
   id="text11037-3"
   style="stroke:none;stroke-opacity:1;fill:#ffffff;fill-opacity:1">
	<text
   transform="matrix(1 0 0 1 504.85 216.94)"
   class="st0 st1"
   id="text69"
   style="stroke:none;stroke-opacity:1;fill:#ffffff;fill-opacity:1">VREF</text>
</g>
<line
   class="st17"
   x1="793.3"
   y1="213.4"
   x2="730.7"
   y2="213.4"
   id="line69"
   style="stroke:#ffffff;stroke-opacity:1" />
<line
   class="st17"
   x1="1213.3"
   y1="213.1"
   x2="1128.6"
   y2="213.1"
   id="line70"
   style="fill:none;fill-opacity:1;stroke:#ffffff;stroke-opacity:1" />
<polygon
   points="1211.3,206 1223.5,213.1 1211.3,220.2 "
   id="polygon70"
   style="fill:#ffffff;fill-opacity:1" />
<line
   class="st17"
   x1="928.8"
   y1="213.4"
   x2="1006.4"
   y2="213.4"
   id="line71"
   style="stroke:#ffffff;stroke-opacity:1" />
<polygon
   points="1004.4,220.5 1016.6,213.4 1004.4,206.4 "
   id="polygon71"
   style="fill:#ffffff;fill-opacity:1" />
<rect
   x="181.2"
   y="130.9"
   class="st27"
   width="77.7"
   height="168.3"
   id="rect71"
   style="stroke:#ffffff;stroke-opacity:1" />
<g
   id="text9531-4">
	<text
   transform="matrix(1 0 0 1 0.415 164.3161)"
   class="st3 st0 st1"
   id="text71">P</text>
	<text
   transform="matrix(1 0 0 1 9.205 164.3161)"
   class="st3 st0 st1"
   id="text72">o</text>
	<text
   transform="matrix(1 0 0 1 17.615 164.3161)"
   class="st3 st0 st1"
   id="text73">w</text>
	<text
   transform="matrix(1 0 0 1 29.805 164.3161)"
   class="st3 st0 st1"
   id="text74">er Stack pinout</text>
</g>
<g
   id="text9531-5">
	<text
   transform="matrix(1 0 0 1 19.7399 222.7802)"
   class="st3 st0 st1"
   id="text75">GPIO pinout</text>
</g>
<g
   id="text9543-2">
	<text
   transform="matrix(1 0 0 1 196.37 199.57)"
   class="st0 st1"
   id="text76">Jumper</text>
	<text
   transform="matrix(1 0 0 1 196.37 237.97)"
   class="st0 st1"
   id="text77">Bloc</text>
	<text
   transform="matrix(1 0 0 1 226.04 237.97)"
   class="st0 st1"
   id="text78">k</text>
	<text
   transform="matrix(1 0 0 1 234.32 237.97)"
   class="st0 st1"
   id="text79">s</text>
</g>
<path
   id="path10776"
   class="st28"
   d="M135.5,191.9l12.4-17.1" />
<g
   id="text11530">
	<text
   transform="matrix(1 0 0 1 140.26 202.41)"
   class="st3 st0 st1"
   id="text80">5</text>
</g>
<path
   id="path10776-2"
   class="st28"
   d="M135.5,251.9l12.4-17.1" />
<g
   id="text11530-2">
	<text
   transform="matrix(1 0 0 1 140.26 262.41)"
   class="st3 st0 st1"
   id="text81">5</text>
</g>
<line
   class="st26"
   x1="1.4"
   y1="182.8"
   x2="170.9"
   y2="182.8"
   id="line81" />
<polygon
   class="st3"
   points="168.9,189.9 181.1,182.8 168.9,175.7 "
   id="polygon81" />
<line
   class="st26"
   x1="1.4"
   y1="242.8"
   x2="170.9"
   y2="242.8"
   id="line82" />
<polygon
   class="st3"
   points="168.9,249.9 181.1,242.8 168.9,235.7 "
   id="polygon82" />
<line
   class="st29"
   x1="289.6"
   y1="128.7"
   x2="281.3"
   y2="155.1"
   id="line83" />
<line
   class="st30"
   x1="289.6"
   y1="128.7"
   x2="282.4"
   y2="151.7"
   id="line84" />
<polygon
   class="st31"
   points="280.2,150.3 281.3,155.1 285,151.8 "
   id="polygon84" />
<line
   class="st29"
   x1="797.1"
   y1="177.4"
   x2="773"
   y2="199.5"
   id="line85" />
<line
   class="st30"
   x1="797.1"
   y1="177.4"
   x2="775.7"
   y2="197"
   id="line86" />
<polygon
   class="st31"
   points="774.5,194.7 773,199.5 777.9,198.4 "
   id="polygon86" />
<line
   class="st29"
   x1="843.8"
   y1="175.7"
   x2="872.7"
   y2="196.9"
   id="line87" />
<line
   class="st30"
   x1="843.8"
   y1="175.7"
   x2="869.8"
   y2="194.7"
   id="line88" />
<polygon
   class="st31"
   points="867.7,196.3 872.7,196.9 870.7,192.3 "
   id="polygon88" />
<line
   class="st32"
   x1="455"
   y1="123.2"
   x2="455"
   y2="96.2"
   id="line89"
   style="stroke:#ffffff;stroke-opacity:1" />
<line
   class="st32"
   x1="689.7"
   y1="133.5"
   x2="689.7"
   y2="106.4"
   id="line90"
   style="fill:#ffffff;fill-opacity:1;stroke:#ffffff;stroke-opacity:1" />
<line
   class="st32"
   x1="689.8"
   y1="322.1"
   x2="689.8"
   y2="295"
   id="line91"
   style="stroke:#ffffff;stroke-opacity:1" />
<line
   class="st32"
   x1="46.2"
   y1="457"
   x2="26.2"
   y2="457"
   id="line92"
   style="fill:none;fill-opacity:1;stroke:#ffffff;stroke-opacity:1" />
<g
   id="g11485_2_"
   style="stroke:#ffffff;stroke-opacity:1">
	<rect
   id="rect11479_2_"
   x="42.4"
   y="229.3"
   class="st10"
   width="42.5"
   height="26"
   style="stroke:#ffffff;stroke-opacity:1" />
</g>
<g
   id="text11477_2_">
	<text
   transform="matrix(1 0 0 1 51.0098 247.6859)"
   class="st0 st1"
   id="text92">ISO</text>
</g>
<g
   id="g11485_3_"
   style="stroke:#ffffff;stroke-opacity:1">
	<rect
   id="rect11479_3_"
   x="42.4"
   y="170.3"
   class="st10"
   width="42.5"
   height="26"
   style="stroke:#ffffff;stroke-opacity:1" />
</g>
<g
   id="text11477_3_">
	<text
   transform="matrix(1 0 0 1 51.0098 188.6498)"
   class="st0 st1"
   id="text93">ISO</text>
</g>
</svg>
