<?xml version="1.0" encoding="utf-8" standalone="no"?>
<!DOCTYPE svg PUBLIC "-//W3C//DTD SVG 1.1//EN"
  "http://www.w3.org/Graphics/SVG/1.1/DTD/svg11.dtd">
<svg xmlns:xlink="http://www.w3.org/1999/xlink" width="360pt" height="216pt" viewBox="0 0 360 216" xmlns="http://www.w3.org/2000/svg" version="1.1">
 <metadata>
  <rdf:RDF xmlns:dc="http://purl.org/dc/elements/1.1/" xmlns:cc="http://creativecommons.org/ns#" xmlns:rdf="http://www.w3.org/1999/02/22-rdf-syntax-ns#">
   <cc:Work>
    <dc:type rdf:resource="http://purl.org/dc/dcmitype/StillImage"/>
    <dc:date>2026-06-15T16:49:19.039920</dc:date>
    <dc:format>image/svg+xml</dc:format>
    <dc:creator>
     <cc:Agent>
      <dc:title>Matplotlib v3.11.0, https://matplotlib.org/</dc:title>
     </cc:Agent>
    </dc:creator>
   </cc:Work>
  </rdf:RDF>
 </metadata>
 <defs>
  <style type="text/css">*{stroke-linejoin: round; stroke-linecap: butt}</style>
 </defs>
 <g id="figure_1">
  <g id="patch_1">
   <path d="M 0 216 
L 360 216 
L 360 0 
L 0 0 
z
" style="fill: #ffffff"/>
  </g>
  <g id="axes_1">
   <g id="patch_2">
    <path d="M 63.082344 173.877656 
L 349.2 173.877656 
L 349.2 10.8 
L 63.082344 10.8 
z
" style="fill: #ffffff"/>
   </g>
   <g id="matplotlib.axis_1">
    <g id="xtick_1">
     <g id="line2d_1">
      <defs>
       <path id="m5cfda2c53b" d="M 0 0 
L 0 3.5 
" style="stroke: #000000; stroke-width: 0.8"/>
      </defs>
      <g>
       <use xlink:href="#m5cfda2c53b" x="76.087692" y="173.877656" style="stroke: #000000; stroke-width: 0.8"/>
      </g>
     </g>
     <g id="text_1">
      <!-- 0 -->
      <g transform="translate(72.906442 188.475313) scale(0.1 -0.1)">
       <defs>
        <path id="DejaVuSans-13" d="M 2034 4250 
Q 1547 4250 1301 3770 
Q 1056 3291 1056 2328 
Q 1056 1369 1301 889 
Q 1547 409 2034 409 
Q 2525 409 2770 889 
Q 3016 1369 3016 2328 
Q 3016 3291 2770 3770 
Q 2525 4250 2034 4250 
z
M 2034 4750 
Q 2819 4750 3233 4129 
Q 3647 3509 3647 2328 
Q 3647 1150 3233 529 
Q 2819 -91 2034 -91 
Q 1250 -91 836 529 
Q 422 1150 422 2328 
Q 422 3509 836 4129 
Q 1250 4750 2034 4750 
z
" transform="scale(0.015625)"/>
       </defs>
       <use xlink:href="#DejaVuSans-13"/>
      </g>
     </g>
    </g>
    <g id="xtick_2">
     <g id="line2d_2">
      <g>
       <use xlink:href="#m5cfda2c53b" x="110.773245" y="173.877656" style="stroke: #000000; stroke-width: 0.8"/>
      </g>
     </g>
     <g id="text_2">
      <!-- 1 -->
      <g transform="translate(107.591995 188.475313) scale(0.1 -0.1)">
       <defs>
        <path id="DejaVuSans-14" d="M 794 531 
L 1825 531 
L 1825 4091 
L 703 3866 
L 703 4441 
L 1819 4666 
L 2450 4666 
L 2450 531 
L 3481 531 
L 3481 0 
L 794 0 
L 794 531 
z
" transform="scale(0.015625)"/>
       </defs>
       <use xlink:href="#DejaVuSans-14"/>
      </g>
     </g>
    </g>
    <g id="xtick_3">
     <g id="line2d_3">
      <g>
       <use xlink:href="#m5cfda2c53b" x="145.458797" y="173.877656" style="stroke: #000000; stroke-width: 0.8"/>
      </g>
     </g>
     <g id="text_3">
      <!-- 2 -->
      <g transform="translate(142.277547 188.475313) scale(0.1 -0.1)">
       <defs>
        <path id="DejaVuSans-15" d="M 1228 531 
L 3431 531 
L 3431 0 
L 469 0 
L 469 531 
Q 828 903 1448 1529 
Q 2069 2156 2228 2338 
Q 2531 2678 2651 2914 
Q 2772 3150 2772 3378 
Q 2772 3750 2511 3984 
Q 2250 4219 1831 4219 
Q 1534 4219 1204 4116 
Q 875 4013 500 3803 
L 500 4441 
Q 881 4594 1212 4672 
Q 1544 4750 1819 4750 
Q 2544 4750 2975 4387 
Q 3406 4025 3406 3419 
Q 3406 3131 3298 2873 
Q 3191 2616 2906 2266 
Q 2828 2175 2409 1742 
Q 1991 1309 1228 531 
z
" transform="scale(0.015625)"/>
       </defs>
       <use xlink:href="#DejaVuSans-15"/>
      </g>
     </g>
    </g>
    <g id="xtick_4">
     <g id="line2d_4">
      <g>
       <use xlink:href="#m5cfda2c53b" x="180.14435" y="173.877656" style="stroke: #000000; stroke-width: 0.8"/>
      </g>
     </g>
     <g id="text_4">
      <!-- 3 -->
      <g transform="translate(176.9631 188.475313) scale(0.1 -0.1)">
       <defs>
        <path id="DejaVuSans-16" d="M 2597 2516 
Q 3050 2419 3304 2112 
Q 3559 1806 3559 1356 
Q 3559 666 3084 287 
Q 2609 -91 1734 -91 
Q 1441 -91 1130 -33 
Q 819 25 488 141 
L 488 750 
Q 750 597 1062 519 
Q 1375 441 1716 441 
Q 2309 441 2620 675 
Q 2931 909 2931 1356 
Q 2931 1769 2642 2001 
Q 2353 2234 1838 2234 
L 1294 2234 
L 1294 2753 
L 1863 2753 
Q 2328 2753 2575 2939 
Q 2822 3125 2822 3475 
Q 2822 3834 2567 4026 
Q 2313 4219 1838 4219 
Q 1578 4219 1281 4162 
Q 984 4106 628 3988 
L 628 4550 
Q 988 4650 1302 4700 
Q 1616 4750 1894 4750 
Q 2613 4750 3031 4423 
Q 3450 4097 3450 3541 
Q 3450 3153 3228 2886 
Q 3006 2619 2597 2516 
z
" transform="scale(0.015625)"/>
       </defs>
       <use xlink:href="#DejaVuSans-16"/>
      </g>
     </g>
    </g>
    <g id="xtick_5">
     <g id="line2d_5">
      <g>
       <use xlink:href="#m5cfda2c53b" x="214.829903" y="173.877656" style="stroke: #000000; stroke-width: 0.8"/>
      </g>
     </g>
     <g id="text_5">
      <!-- 4 -->
      <g transform="translate(211.648653 188.475313) scale(0.1 -0.1)">
       <defs>
        <path id="DejaVuSans-17" d="M 2419 4116 
L 825 1625 
L 2419 1625 
L 2419 4116 
z
M 2253 4666 
L 3047 4666 
L 3047 1625 
L 3713 1625 
L 3713 1100 
L 3047 1100 
L 3047 0 
L 2419 0 
L 2419 1100 
L 313 1100 
L 313 1709 
L 2253 4666 
z
" transform="scale(0.015625)"/>
       </defs>
       <use xlink:href="#DejaVuSans-17"/>
      </g>
     </g>
    </g>
    <g id="xtick_6">
     <g id="line2d_6">
      <g>
       <use xlink:href="#m5cfda2c53b" x="249.515456" y="173.877656" style="stroke: #000000; stroke-width: 0.8"/>
      </g>
     </g>
     <g id="text_6">
      <!-- 5 -->
      <g transform="translate(246.334206 188.475313) scale(0.1 -0.1)">
       <defs>
        <path id="DejaVuSans-18" d="M 691 4666 
L 3169 4666 
L 3169 4134 
L 1269 4134 
L 1269 2991 
Q 1406 3038 1543 3061 
Q 1681 3084 1819 3084 
Q 2600 3084 3056 2656 
Q 3513 2228 3513 1497 
Q 3513 744 3044 326 
Q 2575 -91 1722 -91 
Q 1428 -91 1123 -41 
Q 819 9 494 109 
L 494 744 
Q 775 591 1075 516 
Q 1375 441 1709 441 
Q 2250 441 2565 725 
Q 2881 1009 2881 1497 
Q 2881 1984 2565 2268 
Q 2250 2553 1709 2553 
Q 1456 2553 1204 2497 
Q 953 2441 691 2322 
L 691 4666 
z
" transform="scale(0.015625)"/>
       </defs>
       <use xlink:href="#DejaVuSans-18"/>
      </g>
     </g>
    </g>
    <g id="xtick_7">
     <g id="line2d_7">
      <g>
       <use xlink:href="#m5cfda2c53b" x="284.201008" y="173.877656" style="stroke: #000000; stroke-width: 0.8"/>
      </g>
     </g>
     <g id="text_7">
      <!-- 6 -->
      <g transform="translate(281.019758 188.475313) scale(0.1 -0.1)">
       <defs>
        <path id="DejaVuSans-19" d="M 2113 2584 
Q 1688 2584 1439 2293 
Q 1191 2003 1191 1497 
Q 1191 994 1439 701 
Q 1688 409 2113 409 
Q 2538 409 2786 701 
Q 3034 994 3034 1497 
Q 3034 2003 2786 2293 
Q 2538 2584 2113 2584 
z
M 3366 4563 
L 3366 3988 
Q 3128 4100 2886 4159 
Q 2644 4219 2406 4219 
Q 1781 4219 1451 3797 
Q 1122 3375 1075 2522 
Q 1259 2794 1537 2939 
Q 1816 3084 2150 3084 
Q 2853 3084 3261 2657 
Q 3669 2231 3669 1497 
Q 3669 778 3244 343 
Q 2819 -91 2113 -91 
Q 1303 -91 875 529 
Q 447 1150 447 2328 
Q 447 3434 972 4092 
Q 1497 4750 2381 4750 
Q 2619 4750 2861 4703 
Q 3103 4656 3366 4563 
z
" transform="scale(0.015625)"/>
       </defs>
       <use xlink:href="#DejaVuSans-19"/>
      </g>
     </g>
    </g>
    <g id="xtick_8">
     <g id="line2d_8">
      <g>
       <use xlink:href="#m5cfda2c53b" x="318.886561" y="173.877656" style="stroke: #000000; stroke-width: 0.8"/>
      </g>
     </g>
     <g id="text_8">
      <!-- 7 -->
      <g transform="translate(315.705311 188.475313) scale(0.1 -0.1)">
       <defs>
        <path id="DejaVuSans-1a" d="M 525 4666 
L 3525 4666 
L 3525 4397 
L 1831 0 
L 1172 0 
L 2766 4134 
L 525 4134 
L 525 4666 
z
" transform="scale(0.015625)"/>
       </defs>
       <use xlink:href="#DejaVuSans-1a"/>
      </g>
     </g>
    </g>
    <g id="text_9">
     <!-- Time (sec) -->
     <g transform="translate(179.984141 202.476094) scale(0.1 -0.1)">
      <defs>
       <path id="DejaVuSans-37" d="M -19 4666 
L 3928 4666 
L 3928 4134 
L 2272 4134 
L 2272 0 
L 1638 0 
L 1638 4134 
L -19 4134 
L -19 4666 
z
" transform="scale(0.015625)"/>
       <path id="DejaVuSans-4c" d="M 603 3500 
L 1178 3500 
L 1178 0 
L 603 0 
L 603 3500 
z
M 603 4863 
L 1178 4863 
L 1178 4134 
L 603 4134 
L 603 4863 
z
" transform="scale(0.015625)"/>
       <path id="DejaVuSans-50" d="M 3328 2828 
Q 3544 3216 3844 3400 
Q 4144 3584 4550 3584 
Q 5097 3584 5394 3201 
Q 5691 2819 5691 2113 
L 5691 0 
L 5113 0 
L 5113 2094 
Q 5113 2597 4934 2840 
Q 4756 3084 4391 3084 
Q 3944 3084 3684 2787 
Q 3425 2491 3425 1978 
L 3425 0 
L 2847 0 
L 2847 2094 
Q 2847 2600 2669 2842 
Q 2491 3084 2119 3084 
Q 1678 3084 1418 2786 
Q 1159 2488 1159 1978 
L 1159 0 
L 581 0 
L 581 3500 
L 1159 3500 
L 1159 2956 
Q 1356 3278 1631 3431 
Q 1906 3584 2284 3584 
Q 2666 3584 2933 3390 
Q 3200 3197 3328 2828 
z
" transform="scale(0.015625)"/>
       <path id="DejaVuSans-48" d="M 3597 1894 
L 3597 1613 
L 953 1613 
Q 991 1019 1311 708 
Q 1631 397 2203 397 
Q 2534 397 2845 478 
Q 3156 559 3463 722 
L 3463 178 
Q 3153 47 2828 -22 
Q 2503 -91 2169 -91 
Q 1331 -91 842 396 
Q 353 884 353 1716 
Q 353 2575 817 3079 
Q 1281 3584 2069 3584 
Q 2775 3584 3186 3129 
Q 3597 2675 3597 1894 
z
M 3022 2063 
Q 3016 2534 2758 2815 
Q 2500 3097 2075 3097 
Q 1594 3097 1305 2825 
Q 1016 2553 972 2059 
L 3022 2063 
z
" transform="scale(0.015625)"/>
       <path id="DejaVuSans-3" transform="scale(0.015625)"/>
       <path id="DejaVuSans-b" d="M 1984 4856 
Q 1566 4138 1362 3434 
Q 1159 2731 1159 2009 
Q 1159 1288 1364 580 
Q 1569 -128 1984 -844 
L 1484 -844 
Q 1016 -109 783 600 
Q 550 1309 550 2009 
Q 550 2706 781 3412 
Q 1013 4119 1484 4856 
L 1984 4856 
z
" transform="scale(0.015625)"/>
       <path id="DejaVuSans-56" d="M 2834 3397 
L 2834 2853 
Q 2591 2978 2328 3040 
Q 2066 3103 1784 3103 
Q 1356 3103 1142 2972 
Q 928 2841 928 2578 
Q 928 2378 1081 2264 
Q 1234 2150 1697 2047 
L 1894 2003 
Q 2506 1872 2764 1633 
Q 3022 1394 3022 966 
Q 3022 478 2636 193 
Q 2250 -91 1575 -91 
Q 1294 -91 989 -36 
Q 684 19 347 128 
L 347 722 
Q 666 556 975 473 
Q 1284 391 1588 391 
Q 1994 391 2212 530 
Q 2431 669 2431 922 
Q 2431 1156 2273 1281 
Q 2116 1406 1581 1522 
L 1381 1569 
Q 847 1681 609 1914 
Q 372 2147 372 2553 
Q 372 3047 722 3315 
Q 1072 3584 1716 3584 
Q 2034 3584 2315 3537 
Q 2597 3491 2834 3397 
z
" transform="scale(0.015625)"/>
       <path id="DejaVuSans-46" d="M 3122 3366 
L 3122 2828 
Q 2878 2963 2633 3030 
Q 2388 3097 2138 3097 
Q 1578 3097 1268 2742 
Q 959 2388 959 1747 
Q 959 1106 1268 751 
Q 1578 397 2138 397 
Q 2388 397 2633 464 
Q 2878 531 3122 666 
L 3122 134 
Q 2881 22 2623 -34 
Q 2366 -91 2075 -91 
Q 1284 -91 818 406 
Q 353 903 353 1747 
Q 353 2603 823 3093 
Q 1294 3584 2113 3584 
Q 2378 3584 2631 3529 
Q 2884 3475 3122 3366 
z
" transform="scale(0.015625)"/>
       <path id="DejaVuSans-c" d="M 513 4856 
L 1013 4856 
Q 1481 4119 1714 3412 
Q 1947 2706 1947 2009 
Q 1947 1309 1714 600 
Q 1481 -109 1013 -844 
L 513 -844 
Q 928 -128 1133 580 
Q 1338 1288 1338 2009 
Q 1338 2731 1133 3434 
Q 928 4138 513 4856 
z
" transform="scale(0.015625)"/>
      </defs>
      <use xlink:href="#DejaVuSans-37"/>
      <use xlink:href="#DejaVuSans-4c" transform="translate(58 0)"/>
      <use xlink:href="#DejaVuSans-50" transform="translate(85.78125 0)"/>
      <use xlink:href="#DejaVuSans-48" transform="translate(183.1875 0)"/>
      <use xlink:href="#DejaVuSans-3" transform="translate(244.71875 0)"/>
      <use xlink:href="#DejaVuSans-b" transform="translate(276.5 0)"/>
      <use xlink:href="#DejaVuSans-56" transform="translate(315.515625 0)"/>
      <use xlink:href="#DejaVuSans-48" transform="translate(367.609375 0)"/>
      <use xlink:href="#DejaVuSans-46" transform="translate(429.140625 0)"/>
      <use xlink:href="#DejaVuSans-c" transform="translate(484.125 0)"/>
     </g>
    </g>
   </g>
   <g id="matplotlib.axis_2">
    <g id="ytick_1">
     <g id="line2d_9">
      <defs>
       <path id="m0015be477d" d="M 0 0 
L -3.5 0 
" style="stroke: #000000; stroke-width: 0.8"/>
      </defs>
      <g>
       <use xlink:href="#m0015be477d" x="63.082344" y="173.877656" style="stroke: #000000; stroke-width: 0.8"/>
      </g>
     </g>
     <g id="text_10">
      <!-- −1.00 -->
      <g transform="translate(25.437031 177.676484) scale(0.1 -0.1)">
       <defs>
        <path id="DejaVuSans-c9c" d="M 678 2272 
L 4684 2272 
L 4684 1741 
L 678 1741 
L 678 2272 
z
" transform="scale(0.015625)"/>
        <path id="DejaVuSans-11" d="M 684 794 
L 1344 794 
L 1344 0 
L 684 0 
L 684 794 
z
" transform="scale(0.015625)"/>
       </defs>
       <use xlink:href="#DejaVuSans-c9c"/>
       <use xlink:href="#DejaVuSans-14" transform="translate(83.796875 0)"/>
       <use xlink:href="#DejaVuSans-11" transform="translate(147.421875 0)"/>
       <use xlink:href="#DejaVuSans-13" transform="translate(179.203125 0)"/>
       <use xlink:href="#DejaVuSans-13" transform="translate(242.828125 0)"/>
      </g>
     </g>
    </g>
    <g id="ytick_2">
     <g id="line2d_10">
      <g>
       <use xlink:href="#m0015be477d" x="63.082344" y="152.42007" style="stroke: #000000; stroke-width: 0.8"/>
      </g>
     </g>
     <g id="text_11">
      <!-- −0.75 -->
      <g transform="translate(25.437031 156.218898) scale(0.1 -0.1)">
       <use xlink:href="#DejaVuSans-c9c"/>
       <use xlink:href="#DejaVuSans-13" transform="translate(83.796875 0)"/>
       <use xlink:href="#DejaVuSans-11" transform="translate(147.421875 0)"/>
       <use xlink:href="#DejaVuSans-1a" transform="translate(179.203125 0)"/>
       <use xlink:href="#DejaVuSans-18" transform="translate(242.828125 0)"/>
      </g>
     </g>
    </g>
    <g id="ytick_3">
     <g id="line2d_11">
      <g>
       <use xlink:href="#m0015be477d" x="63.082344" y="130.962484" style="stroke: #000000; stroke-width: 0.8"/>
      </g>
     </g>
     <g id="text_12">
      <!-- −0.50 -->
      <g transform="translate(25.437031 134.761312) scale(0.1 -0.1)">
       <use xlink:href="#DejaVuSans-c9c"/>
       <use xlink:href="#DejaVuSans-13" transform="translate(83.796875 0)"/>
       <use xlink:href="#DejaVuSans-11" transform="translate(147.421875 0)"/>
       <use xlink:href="#DejaVuSans-18" transform="translate(179.203125 0)"/>
       <use xlink:href="#DejaVuSans-13" transform="translate(242.828125 0)"/>
      </g>
     </g>
    </g>
    <g id="ytick_4">
     <g id="line2d_12">
      <g>
       <use xlink:href="#m0015be477d" x="63.082344" y="109.504897" style="stroke: #000000; stroke-width: 0.8"/>
      </g>
     </g>
     <g id="text_13">
      <!-- −0.25 -->
      <g transform="translate(25.437031 113.303725) scale(0.1 -0.1)">
       <use xlink:href="#DejaVuSans-c9c"/>
       <use xlink:href="#DejaVuSans-13" transform="translate(83.796875 0)"/>
       <use xlink:href="#DejaVuSans-11" transform="translate(147.421875 0)"/>
       <use xlink:href="#DejaVuSans-15" transform="translate(179.203125 0)"/>
       <use xlink:href="#DejaVuSans-18" transform="translate(242.828125 0)"/>
      </g>
     </g>
    </g>
    <g id="ytick_5">
     <g id="line2d_13">
      <g>
       <use xlink:href="#m0015be477d" x="63.082344" y="88.047311" style="stroke: #000000; stroke-width: 0.8"/>
      </g>
     </g>
     <g id="text_14">
      <!-- 0.00 -->
      <g transform="translate(33.816719 91.846139) scale(0.1 -0.1)">
       <use xlink:href="#DejaVuSans-13"/>
       <use xlink:href="#DejaVuSans-11" transform="translate(63.625 0)"/>
       <use xlink:href="#DejaVuSans-13" transform="translate(95.40625 0)"/>
       <use xlink:href="#DejaVuSans-13" transform="translate(159.03125 0)"/>
      </g>
     </g>
    </g>
    <g id="ytick_6">
     <g id="line2d_14">
      <g>
       <use xlink:href="#m0015be477d" x="63.082344" y="66.589725" style="stroke: #000000; stroke-width: 0.8"/>
      </g>
     </g>
     <g id="text_15">
      <!-- 0.25 -->
      <g transform="translate(33.816719 70.388553) scale(0.1 -0.1)">
       <use xlink:href="#DejaVuSans-13"/>
       <use xlink:href="#DejaVuSans-11" transform="translate(63.625 0)"/>
       <use xlink:href="#DejaVuSans-15" transform="translate(95.40625 0)"/>
       <use xlink:href="#DejaVuSans-18" transform="translate(159.03125 0)"/>
      </g>
     </g>
    </g>
    <g id="ytick_7">
     <g id="line2d_15">
      <g>
       <use xlink:href="#m0015be477d" x="63.082344" y="45.132138" style="stroke: #000000; stroke-width: 0.8"/>
      </g>
     </g>
     <g id="text_16">
      <!-- 0.50 -->
      <g transform="translate(33.816719 48.930966) scale(0.1 -0.1)">
       <use xlink:href="#DejaVuSans-13"/>
       <use xlink:href="#DejaVuSans-11" transform="translate(63.625 0)"/>
       <use xlink:href="#DejaVuSans-18" transform="translate(95.40625 0)"/>
       <use xlink:href="#DejaVuSans-13" transform="translate(159.03125 0)"/>
      </g>
     </g>
    </g>
    <g id="ytick_8">
     <g id="line2d_16">
      <g>
       <use xlink:href="#m0015be477d" x="63.082344" y="23.674552" style="stroke: #000000; stroke-width: 0.8"/>
      </g>
     </g>
     <g id="text_17">
      <!-- 0.75 -->
      <g transform="translate(33.816719 27.47338) scale(0.1 -0.1)">
       <use xlink:href="#DejaVuSans-13"/>
       <use xlink:href="#DejaVuSans-11" transform="translate(63.625 0)"/>
       <use xlink:href="#DejaVuSans-1a" transform="translate(95.40625 0)"/>
       <use xlink:href="#DejaVuSans-18" transform="translate(159.03125 0)"/>
      </g>
     </g>
    </g>
    <g id="text_18">
     <!-- Injected Signal -->
     <g transform="translate(19.034687 129.356797) rotate(-90) scale(0.1 -0.1)">
      <defs>
       <path id="DejaVuSans-2c" d="M 628 4666 
L 1259 4666 
L 1259 0 
L 628 0 
L 628 4666 
z
" transform="scale(0.015625)"/>
       <path id="DejaVuSans-51" d="M 3513 2113 
L 3513 0 
L 2938 0 
L 2938 2094 
Q 2938 2591 2744 2837 
Q 2550 3084 2163 3084 
Q 1697 3084 1428 2787 
Q 1159 2491 1159 1978 
L 1159 0 
L 581 0 
L 581 3500 
L 1159 3500 
L 1159 2956 
Q 1366 3272 1645 3428 
Q 1925 3584 2291 3584 
Q 2894 3584 3203 3211 
Q 3513 2838 3513 2113 
z
" transform="scale(0.015625)"/>
       <path id="DejaVuSans-4d" d="M 603 3500 
L 1178 3500 
L 1178 -63 
Q 1178 -731 923 -1031 
Q 669 -1331 103 -1331 
L -116 -1331 
L -116 -844 
L 38 -844 
Q 366 -844 484 -692 
Q 603 -541 603 -63 
L 603 3500 
z
M 603 4863 
L 1178 4863 
L 1178 4134 
L 603 4134 
L 603 4863 
z
" transform="scale(0.015625)"/>
       <path id="DejaVuSans-57" d="M 1172 4494 
L 1172 3500 
L 2356 3500 
L 2356 3053 
L 1172 3053 
L 1172 1153 
Q 1172 725 1289 603 
Q 1406 481 1766 481 
L 2356 481 
L 2356 0 
L 1766 0 
Q 1100 0 847 248 
Q 594 497 594 1153 
L 594 3053 
L 172 3053 
L 172 3500 
L 594 3500 
L 594 4494 
L 1172 4494 
z
" transform="scale(0.015625)"/>
       <path id="DejaVuSans-47" d="M 2906 2969 
L 2906 4863 
L 3481 4863 
L 3481 0 
L 2906 0 
L 2906 525 
Q 2725 213 2448 61 
Q 2172 -91 1784 -91 
Q 1150 -91 751 415 
Q 353 922 353 1747 
Q 353 2572 751 3078 
Q 1150 3584 1784 3584 
Q 2172 3584 2448 3432 
Q 2725 3281 2906 2969 
z
M 947 1747 
Q 947 1113 1208 752 
Q 1469 391 1925 391 
Q 2381 391 2643 752 
Q 2906 1113 2906 1747 
Q 2906 2381 2643 2742 
Q 2381 3103 1925 3103 
Q 1469 3103 1208 2742 
Q 947 2381 947 1747 
z
" transform="scale(0.015625)"/>
       <path id="DejaVuSans-36" d="M 3425 4513 
L 3425 3897 
Q 3066 4069 2747 4153 
Q 2428 4238 2131 4238 
Q 1616 4238 1336 4038 
Q 1056 3838 1056 3469 
Q 1056 3159 1242 3001 
Q 1428 2844 1947 2747 
L 2328 2669 
Q 3034 2534 3370 2195 
Q 3706 1856 3706 1288 
Q 3706 609 3251 259 
Q 2797 -91 1919 -91 
Q 1588 -91 1214 -16 
Q 841 59 441 206 
L 441 856 
Q 825 641 1194 531 
Q 1563 422 1919 422 
Q 2459 422 2753 634 
Q 3047 847 3047 1241 
Q 3047 1584 2836 1778 
Q 2625 1972 2144 2069 
L 1759 2144 
Q 1053 2284 737 2584 
Q 422 2884 422 3419 
Q 422 4038 858 4394 
Q 1294 4750 2059 4750 
Q 2388 4750 2728 4690 
Q 3069 4631 3425 4513 
z
" transform="scale(0.015625)"/>
       <path id="DejaVuSans-4a" d="M 2906 1791 
Q 2906 2416 2648 2759 
Q 2391 3103 1925 3103 
Q 1463 3103 1205 2759 
Q 947 2416 947 1791 
Q 947 1169 1205 825 
Q 1463 481 1925 481 
Q 2391 481 2648 825 
Q 2906 1169 2906 1791 
z
M 3481 434 
Q 3481 -459 3084 -895 
Q 2688 -1331 1869 -1331 
Q 1566 -1331 1297 -1286 
Q 1028 -1241 775 -1147 
L 775 -588 
Q 1028 -725 1275 -790 
Q 1522 -856 1778 -856 
Q 2344 -856 2625 -561 
Q 2906 -266 2906 331 
L 2906 616 
Q 2728 306 2450 153 
Q 2172 0 1784 0 
Q 1141 0 747 490 
Q 353 981 353 1791 
Q 353 2603 747 3093 
Q 1141 3584 1784 3584 
Q 2172 3584 2450 3431 
Q 2728 3278 2906 2969 
L 2906 3500 
L 3481 3500 
L 3481 434 
z
" transform="scale(0.015625)"/>
       <path id="DejaVuSans-44" d="M 2194 1759 
Q 1497 1759 1228 1600 
Q 959 1441 959 1056 
Q 959 750 1161 570 
Q 1363 391 1709 391 
Q 2188 391 2477 730 
Q 2766 1069 2766 1631 
L 2766 1759 
L 2194 1759 
z
M 3341 1997 
L 3341 0 
L 2766 0 
L 2766 531 
Q 2569 213 2275 61 
Q 1981 -91 1556 -91 
Q 1019 -91 701 211 
Q 384 513 384 1019 
Q 384 1609 779 1909 
Q 1175 2209 1959 2209 
L 2766 2209 
L 2766 2266 
Q 2766 2663 2505 2880 
Q 2244 3097 1772 3097 
Q 1472 3097 1187 3025 
Q 903 2953 641 2809 
L 641 3341 
Q 956 3463 1253 3523 
Q 1550 3584 1831 3584 
Q 2591 3584 2966 3190 
Q 3341 2797 3341 1997 
z
" transform="scale(0.015625)"/>
       <path id="DejaVuSans-4f" d="M 603 4863 
L 1178 4863 
L 1178 0 
L 603 0 
L 603 4863 
z
" transform="scale(0.015625)"/>
      </defs>
      <use xlink:href="#DejaVuSans-2c"/>
      <use xlink:href="#DejaVuSans-51" transform="translate(29.5 0)"/>
      <use xlink:href="#DejaVuSans-4d" transform="translate(92.875 0)"/>
      <use xlink:href="#DejaVuSans-48" transform="translate(120.65625 0)"/>
      <use xlink:href="#DejaVuSans-46" transform="translate(182.1875 0)"/>
      <use xlink:href="#DejaVuSans-57" transform="translate(237.171875 0)"/>
      <use xlink:href="#DejaVuSans-48" transform="translate(276.375 0)"/>
      <use xlink:href="#DejaVuSans-47" transform="translate(337.90625 0)"/>
      <use xlink:href="#DejaVuSans-3" transform="translate(401.390625 0)"/>
      <use xlink:href="#DejaVuSans-36" transform="translate(433.171875 0)"/>
      <use xlink:href="#DejaVuSans-4c" transform="translate(496.65625 0)"/>
      <use xlink:href="#DejaVuSans-4a" transform="translate(524.4375 0)"/>
      <use xlink:href="#DejaVuSans-51" transform="translate(587.921875 0)"/>
      <use xlink:href="#DejaVuSans-44" transform="translate(651.296875 0)"/>
      <use xlink:href="#DejaVuSans-4f" transform="translate(712.578125 0)"/>
     </g>
    </g>
   </g>
   <g id="line2d_17">
    <path d="M 76.087692 88.047311 
L 79.521561 57.018073 
L 80.770241 47.899064 
L 81.706751 42.535329 
L 82.469833 39.321169 
L 83.094173 37.565853 
L 83.579771 36.78805 
L 83.961312 36.554902 
L 84.273482 36.618753 
L 84.620338 36.963596 
L 85.036564 37.763059 
L 85.522162 39.231401 
L 86.111817 41.787469 
L 86.805528 45.856915 
L 87.637981 52.175511 
L 88.643862 61.670561 
L 89.927227 76.082061 
L 94.158865 125.493928 
L 95.060689 132.648806 
L 95.7544 136.565926 
L 96.309369 138.568931 
L 96.725596 139.363369 
L 97.037766 139.545513 
L 97.280565 139.437117 
L 97.558049 139.04244 
L 97.904904 138.140961 
L 98.355817 136.293178 
L 98.910785 132.989469 
L 99.604497 127.338185 
L 100.43695 118.546679 
L 101.512202 104.601194 
L 103.593335 73.822887 
L 104.980757 55.082798 
L 105.882582 45.608904 
L 106.576293 40.400565 
L 107.131261 37.760574 
L 107.547488 36.746525 
L 107.824973 36.549116 
L 108.033086 36.656835 
L 108.275885 37.061664 
L 108.62274 38.161997 
L 109.073652 40.501479 
L 109.628621 44.746407 
L 110.322332 52.016119 
L 111.189471 63.709208 
L 112.438151 83.949263 
L 114.658026 120.022864 
L 115.525165 130.477504 
L 116.184191 135.992518 
L 116.669789 138.479463 
L 117.016644 139.372762 
L 117.259443 139.545167 
L 117.432871 139.436755 
L 117.67567 138.959138 
L 117.98784 137.787497 
L 118.404066 135.263646 
L 118.924349 130.624102 
L 119.583375 122.58488 
L 120.450514 108.992612 
L 121.907307 81.908752 
L 123.3641 56.20128 
L 124.196553 45.181864 
L 124.820893 39.63653 
L 125.271806 37.327696 
L 125.583976 36.621986 
L 125.792089 36.568743 
L 125.965517 36.781864 
L 126.208316 37.474055 
L 126.555171 39.25375 
L 127.006083 42.920584 
L 127.561052 49.397058 
L 128.289449 60.729679 
L 129.364701 81.502485 
L 131.411148 121.519778 
L 132.174231 132.02013 
L 132.729199 136.992478 
L 133.145426 139.027643 
L 133.42291 139.528957 
L 133.596338 139.487036 
L 133.804452 139.073791 
L 134.081936 137.908756 
L 134.463477 135.181164 
L 134.949075 129.914003 
L 135.573415 120.500588 
L 136.440554 103.640749 
L 139.111341 48.867684 
L 139.735681 41.193245 
L 140.186593 37.857907 
L 140.533449 36.675077 
L 140.741562 36.563769 
L 140.91499 36.817774 
L 141.157789 37.702694 
L 141.504644 40.023726 
L 141.955556 44.824484 
L 142.545211 53.850967 
L 143.342979 69.961607 
L 146.117823 129.623414 
L 146.672792 136.104514 
L 147.089018 138.810801 
L 147.366503 139.511443 
L 147.505245 139.522173 
L 147.678673 139.215108 
L 147.921472 138.188591 
L 148.268327 135.535258 
L 148.719239 130.099575 
L 149.308894 119.985819 
L 150.141347 101.389571 
L 152.361222 49.796812 
L 152.950877 41.414252 
L 153.401789 37.694074 
L 153.713959 36.623265 
L 153.887387 36.578958 
L 154.060814 36.931276 
L 154.303613 38.088315 
L 154.650469 41.057238 
L 155.101381 47.101957 
L 155.691035 58.253186 
L 156.59286 80.252234 
L 158.327137 123.219131 
L 158.951477 133.472818 
L 159.40239 137.914836 
L 159.714559 139.351164 
L 159.887987 139.544831 
L 160.026729 139.385239 
L 160.234843 138.621763 
L 160.512327 136.637311 
L 160.893868 132.173402 
L 161.414152 123.149015 
L 162.142548 106.055433 
L 164.501166 47.15044 
L 165.056135 39.781601 
L 165.437676 37.148703 
L 165.680475 36.563441 
L 165.819217 36.6137 
L 165.992645 37.068096 
L 166.235443 38.42415 
L 166.582299 41.764629 
L 167.067897 48.982151 
L 167.726922 62.654267 
L 168.871545 92.168452 
L 170.050854 120.755582 
L 170.70988 132.075746 
L 171.195477 137.276011 
L 171.542333 139.163346 
L 171.785132 139.54549 
L 171.923874 139.415027 
L 172.131987 138.747457 
L 172.409472 136.994088 
L 172.791013 133.046734 
L 173.311296 125.079841 
L 174.039693 109.97137 
L 176.918594 45.501415 
L 177.473563 39.33312 
L 177.855104 37.101988 
L 178.097902 36.572449 
L 178.236645 36.583178 
L 178.410072 36.915637 
L 178.652871 37.969013 
L 178.999727 40.627237 
L 179.450639 45.977422 
L 180.074979 56.432178 
L 180.976803 75.921365 
L 183.057937 122.243654 
L 183.751648 132.549807 
L 184.271931 137.385012 
L 184.653472 139.188176 
L 184.896271 139.54378 
L 185.035013 139.469519 
L 185.243126 138.982468 
L 185.520611 137.643522 
L 185.902152 134.564399 
L 186.422435 128.238968 
L 187.116146 116.607151 
L 188.156713 94.740644 
L 189.960362 56.800554 
L 190.723444 45.310988 
L 191.278413 39.773302 
L 191.694639 37.375787 
L 192.006809 36.607585 
L 192.180237 36.565665 
L 192.353665 36.797507 
L 192.596464 37.576707 
L 192.943319 39.586583 
L 193.394231 43.69273 
L 193.983886 51.340805 
L 194.781653 64.946662 
L 196.238447 94.592137 
L 197.556498 119.456888 
L 198.354265 130.594956 
L 198.94392 136.128244 
L 199.394832 138.620567 
L 199.741687 139.468772 
L 199.949801 139.527727 
L 200.123228 139.320317 
L 200.366027 138.642753 
L 200.712883 136.909732 
L 201.163795 133.375813 
L 201.753449 126.773165 
L 202.516532 115.480052 
L 203.69584 94.18587 
L 205.672917 58.588887 
L 206.540056 46.971772 
L 207.199081 40.830976 
L 207.719365 37.847172 
L 208.100906 36.755513 
L 208.343704 36.549455 
L 208.517132 36.634194 
L 208.759931 37.074328 
L 209.072101 38.181337 
L 209.488328 40.570537 
L 210.043297 45.26994 
L 210.737008 53.276137 
L 211.673518 66.969427 
L 213.650594 100.332697 
L 214.93396 119.712176 
L 215.801098 129.726662 
L 216.494809 135.371293 
L 217.049778 138.201694 
L 217.466005 139.301161 
L 217.743489 139.542842 
L 217.951603 139.467531 
L 218.194401 139.104814 
L 218.541257 138.083042 
L 218.992169 135.900491 
L 219.547138 131.973378 
L 220.240849 125.351017 
L 221.142673 114.442734 
L 222.530096 94.538214 
L 224.819342 61.770675 
L 225.859909 50.077548 
L 226.657676 43.348436 
L 227.316702 39.467783 
L 227.836985 37.538627 
L 228.253212 36.729019 
L 228.565382 36.549109 
L 228.808181 36.659783 
L 229.085665 37.050703 
L 229.467206 38.03819 
L 229.952804 40.019428 
L 230.542458 43.445816 
L 231.270855 49.062633 
L 232.207365 58.144971 
L 233.525416 73.366725 
L 237.098028 115.841775 
L 238.207965 125.916187 
L 239.10979 132.208396 
L 239.872872 136.057423 
L 240.497212 138.157156 
L 240.98281 139.131026 
L 241.364351 139.494427 
L 241.676521 139.532566 
L 241.988691 139.341705 
L 242.370232 138.804841 
L 242.821144 137.754251 
L 243.376113 135.873132 
L 244.069824 132.677248 
L 244.936963 127.514008 
L 246.012215 119.631477 
L 247.469008 107.123061 
L 253.816464 50.473436 
L 254.857031 43.971948 
L 255.689484 40.085682 
L 256.34851 37.970221 
L 256.868793 36.956091 
L 257.285019 36.584841 
L 257.597189 36.571707 
L 257.909359 36.790798 
L 258.2909 37.378561 
L 258.741813 38.531408 
L 259.296781 40.632943 
L 259.955807 44.09404 
L 260.718889 49.360558 
L 261.655399 57.516247 
L 262.800022 69.594703 
L 264.5343 90.633381 
L 266.788861 117.580003 
L 267.864113 127.919809 
L 268.696566 133.979991 
L 269.355592 137.304348 
L 269.875875 138.902733 
L 270.257416 139.46396 
L 270.534901 139.537002 
L 270.777699 139.365603 
L 271.089869 138.81964 
L 271.471411 137.653477 
L 271.957008 135.381241 
L 272.546663 131.466436 
L 273.275059 124.986718 
L 274.176884 114.759343 
L 275.390878 98.139681 
L 278.581949 53.055234 
L 279.449088 44.409285 
L 280.108113 39.797461 
L 280.628396 37.532727 
L 281.009938 36.700687 
L 281.252736 36.549116 
L 281.46085 36.656835 
L 281.703649 37.061664 
L 282.050504 38.161997 
L 282.501416 40.501479 
L 283.056385 44.746407 
L 283.750096 52.016119 
L 284.617235 63.709208 
L 285.865915 83.949263 
L 288.08579 120.022864 
L 288.952929 130.477504 
L 289.611955 135.992518 
L 290.097552 138.479463 
L 290.444408 139.372762 
L 290.687207 139.545167 
L 290.860635 139.436755 
L 291.103433 138.959138 
L 291.415603 137.787497 
L 291.83183 135.263646 
L 292.352113 130.624102 
L 293.011139 122.58488 
L 293.878278 108.992612 
L 295.335071 81.908752 
L 296.791864 56.20128 
L 297.624317 45.181864 
L 298.248657 39.63653 
L 298.699569 37.327696 
L 299.011739 36.621986 
L 299.219853 36.568743 
L 299.39328 36.781864 
L 299.636079 37.474055 
L 299.982935 39.25375 
L 300.433847 42.920584 
L 300.988816 49.397058 
L 301.717213 60.729679 
L 302.792465 81.502485 
L 304.838912 121.519778 
L 305.601994 132.02013 
L 306.156963 136.992478 
L 306.57319 139.027643 
L 306.850674 139.528957 
L 307.024102 139.487036 
L 307.232215 139.073791 
L 307.5097 137.908756 
L 307.891241 135.181164 
L 308.376839 129.914003 
L 309.001179 120.500588 
L 309.868317 103.640749 
L 312.539105 48.867684 
L 313.163445 41.193245 
L 313.614357 37.857907 
L 313.961213 36.675077 
L 314.169326 36.563769 
L 314.342754 36.817774 
L 314.585553 37.702694 
L 314.932408 40.023726 
L 315.38332 44.824484 
L 315.972975 53.850967 
L 316.770742 69.961607 
L 319.545587 129.623414 
L 320.100556 136.104514 
L 320.516782 138.810801 
L 320.794267 139.511443 
L 320.933009 139.522173 
L 321.106437 139.215108 
L 321.349235 138.188591 
L 321.696091 135.535258 
L 322.147003 130.099575 
L 322.736658 119.985819 
L 323.569111 101.389571 
L 325.788986 49.796812 
L 326.378641 41.414252 
L 326.829553 37.694074 
L 327.141723 36.623265 
L 327.31515 36.578958 
L 327.488578 36.931276 
L 327.731377 38.088315 
L 328.078233 41.057238 
L 328.529145 47.101957 
L 329.118799 58.253186 
L 330.020624 80.252234 
L 331.754901 123.219131 
L 332.379241 133.472818 
L 332.830153 137.914836 
L 333.142323 139.351164 
L 333.315751 139.544831 
L 333.454493 139.385239 
L 333.662607 138.621763 
L 333.940091 136.637311 
L 334.321632 132.173402 
L 334.841915 123.149015 
L 335.570312 106.055433 
L 336.194652 89.017842 
L 336.194652 89.017842 
" clip-path="url(#pb74bd1cf4f)" style="fill: none; stroke: #1f77b4; stroke-width: 1.5; stroke-linecap: square"/>
   </g>
   <g id="line2d_18">
    <path d="M 76.087692 165.294622 
L 249.515456 165.294622 
" clip-path="url(#pb74bd1cf4f)" style="fill: none; stroke: #000000; stroke-width: 2; stroke-linecap: square"/>
   </g>
   <g id="line2d_19">
    <path d="M 76.087692 170.444442 
L 76.087692 160.144801 
" clip-path="url(#pb74bd1cf4f)" style="fill: none; stroke: #000000; stroke-width: 2; stroke-linecap: square"/>
   </g>
   <g id="line2d_20">
    <path d="M 249.515456 170.444442 
L 249.515456 160.144801 
" clip-path="url(#pb74bd1cf4f)" style="fill: none; stroke: #000000; stroke-width: 2; stroke-linecap: square"/>
   </g>
   <g id="line2d_21">
    <path d="M 86.493358 88.047311 
L 100.367579 88.047311 
" clip-path="url(#pb74bd1cf4f)" style="fill: none; stroke: #000000; stroke-width: 2; stroke-linecap: square"/>
   </g>
   <g id="line2d_22">
    <path d="M 86.493358 36.549104 
L 100.367579 36.549104 
" clip-path="url(#pb74bd1cf4f)" style="fill: none; stroke: #000000; stroke-width: 2; stroke-linecap: square"/>
   </g>
   <g id="line2d_23">
    <path d="M 93.430468 88.047311 
L 93.430468 36.549104 
" clip-path="url(#pb74bd1cf4f)" style="fill: none; stroke: #000000; stroke-width: 2; stroke-linecap: square"/>
   </g>
   <g id="patch_3">
    <path d="M 63.082344 173.877656 
L 63.082344 10.8 
" style="fill: none; stroke: #000000; stroke-width: 0.8; stroke-linejoin: miter; stroke-linecap: square"/>
   </g>
   <g id="patch_4">
    <path d="M 349.2 173.877656 
L 349.2 10.8 
" style="fill: none; stroke: #000000; stroke-width: 0.8; stroke-linejoin: miter; stroke-linecap: square"/>
   </g>
   <g id="patch_5">
    <path d="M 63.082344 173.877656 
L 349.2 173.877656 
" style="fill: none; stroke: #000000; stroke-width: 0.8; stroke-linejoin: miter; stroke-linecap: square"/>
   </g>
   <g id="patch_6">
    <path d="M 63.082344 10.8 
L 349.2 10.8 
" style="fill: none; stroke: #000000; stroke-width: 0.8; stroke-linejoin: miter; stroke-linecap: square"/>
   </g>
   <g id="text_19">
    <g id="patch_7">
     <path d="M 142.872667 163.113931 
L 182.73048 163.113931 
L 182.73048 145.11315 
L 142.872667 145.11315 
z
" style="fill: #ffffff; opacity: 0.8; stroke: #000000; stroke-linejoin: miter"/>
    </g>
    <!-- period -->
    <g transform="translate(146.872667 156.711587) scale(0.1 -0.1)">
     <defs>
      <path id="DejaVuSans-53" d="M 1159 525 
L 1159 -1331 
L 581 -1331 
L 581 3500 
L 1159 3500 
L 1159 2969 
Q 1341 3281 1617 3432 
Q 1894 3584 2278 3584 
Q 2916 3584 3314 3078 
Q 3713 2572 3713 1747 
Q 3713 922 3314 415 
Q 2916 -91 2278 -91 
Q 1894 -91 1617 61 
Q 1341 213 1159 525 
z
M 3116 1747 
Q 3116 2381 2855 2742 
Q 2594 3103 2138 3103 
Q 1681 3103 1420 2742 
Q 1159 2381 1159 1747 
Q 1159 1113 1420 752 
Q 1681 391 2138 391 
Q 2594 391 2855 752 
Q 3116 1113 3116 1747 
z
" transform="scale(0.015625)"/>
      <path id="DejaVuSans-55" d="M 2631 2963 
Q 2534 3019 2420 3045 
Q 2306 3072 2169 3072 
Q 1681 3072 1420 2755 
Q 1159 2438 1159 1844 
L 1159 0 
L 581 0 
L 581 3500 
L 1159 3500 
L 1159 2956 
Q 1341 3275 1631 3429 
Q 1922 3584 2338 3584 
Q 2397 3584 2469 3576 
Q 2541 3569 2628 3553 
L 2631 2963 
z
" transform="scale(0.015625)"/>
      <path id="DejaVuSans-52" d="M 1959 3097 
Q 1497 3097 1228 2736 
Q 959 2375 959 1747 
Q 959 1119 1226 758 
Q 1494 397 1959 397 
Q 2419 397 2687 759 
Q 2956 1122 2956 1747 
Q 2956 2369 2687 2733 
Q 2419 3097 1959 3097 
z
M 1959 3584 
Q 2709 3584 3137 3096 
Q 3566 2609 3566 1747 
Q 3566 888 3137 398 
Q 2709 -91 1959 -91 
Q 1206 -91 779 398 
Q 353 888 353 1747 
Q 353 2609 779 3096 
Q 1206 3584 1959 3584 
z
" transform="scale(0.015625)"/>
     </defs>
     <use xlink:href="#DejaVuSans-53"/>
     <use xlink:href="#DejaVuSans-48" transform="translate(63.484375 0)"/>
     <use xlink:href="#DejaVuSans-55" transform="translate(125.015625 0)"/>
     <use xlink:href="#DejaVuSans-4c" transform="translate(166.125 0)"/>
     <use xlink:href="#DejaVuSans-52" transform="translate(193.90625 0)"/>
     <use xlink:href="#DejaVuSans-47" transform="translate(255.09375 0)"/>
    </g>
   </g>
   <g id="text_20">
    <g id="patch_8">
     <path d="M 94.633301 68.700551 
L 124.225489 68.700551 
L 124.225489 50.69977 
L 94.633301 50.69977 
z
" style="fill: #ffffff; opacity: 0.8; stroke: #000000; stroke-linejoin: miter"/>
    </g>
    <!-- gain -->
    <g transform="translate(98.633301 62.298207) scale(0.1 -0.1)">
     <use xlink:href="#DejaVuSans-4a"/>
     <use xlink:href="#DejaVuSans-44" transform="translate(63.484375 0)"/>
     <use xlink:href="#DejaVuSans-4c" transform="translate(124.765625 0)"/>
     <use xlink:href="#DejaVuSans-51" transform="translate(152.546875 0)"/>
    </g>
   </g>
  </g>
 </g>
 <defs>
  <clipPath id="pb74bd1cf4f">
   <rect x="63.082344" y="10.8" width="286.117656" height="163.077656"/>
  </clipPath>
 </defs>
</svg>
