<?xml version="1.0" encoding="utf-8" standalone="no"?>
<!DOCTYPE svg PUBLIC "-//W3C//DTD SVG 1.1//EN"
  "http://www.w3.org/Graphics/SVG/1.1/DTD/svg11.dtd">
<svg xmlns:xlink="http://www.w3.org/1999/xlink" width="360pt" height="216pt" viewBox="0 0 360 216" xmlns="http://www.w3.org/2000/svg" version="1.1">
 <metadata>
  <rdf:RDF xmlns:dc="http://purl.org/dc/elements/1.1/" xmlns:cc="http://creativecommons.org/ns#" xmlns:rdf="http://www.w3.org/1999/02/22-rdf-syntax-ns#">
   <cc:Work>
    <dc:type rdf:resource="http://purl.org/dc/dcmitype/StillImage"/>
    <dc:date>2026-06-15T16:49:18.957049</dc:date>
    <dc:format>image/svg+xml</dc:format>
    <dc:creator>
     <cc:Agent>
      <dc:title>Matplotlib v3.11.0, https://matplotlib.org/</dc:title>
     </cc:Agent>
    </dc:creator>
   </cc:Work>
  </rdf:RDF>
 </metadata>
 <defs>
  <style type="text/css">*{stroke-linejoin: round; stroke-linecap: butt}</style>
 </defs>
 <g id="figure_1">
  <g id="patch_1">
   <path d="M 0 216 
L 360 216 
L 360 0 
L 0 0 
z
" style="fill: #ffffff"/>
  </g>
  <g id="axes_1">
   <g id="patch_2">
    <path d="M 47.962344 173.877656 
L 349.2 173.877656 
L 349.2 14.598828 
L 47.962344 14.598828 
z
" style="fill: #ffffff"/>
   </g>
   <g id="matplotlib.axis_1">
    <g id="xtick_1">
     <g id="line2d_1">
      <defs>
       <path id="m59af1cc050" d="M 0 0 
L 0 3.5 
" style="stroke: #000000; stroke-width: 0.8"/>
      </defs>
      <g>
       <use xlink:href="#m59af1cc050" x="61.654964" y="173.877656" style="stroke: #000000; stroke-width: 0.8"/>
      </g>
     </g>
     <g id="text_1">
      <!-- 0.0 -->
      <g transform="translate(53.703402 188.475313) scale(0.1 -0.1)">
       <defs>
        <path id="DejaVuSans-13" d="M 2034 4250 
Q 1547 4250 1301 3770 
Q 1056 3291 1056 2328 
Q 1056 1369 1301 889 
Q 1547 409 2034 409 
Q 2525 409 2770 889 
Q 3016 1369 3016 2328 
Q 3016 3291 2770 3770 
Q 2525 4250 2034 4250 
z
M 2034 4750 
Q 2819 4750 3233 4129 
Q 3647 3509 3647 2328 
Q 3647 1150 3233 529 
Q 2819 -91 2034 -91 
Q 1250 -91 836 529 
Q 422 1150 422 2328 
Q 422 3509 836 4129 
Q 1250 4750 2034 4750 
z
" transform="scale(0.015625)"/>
        <path id="DejaVuSans-11" d="M 684 794 
L 1344 794 
L 1344 0 
L 684 0 
L 684 794 
z
" transform="scale(0.015625)"/>
       </defs>
       <use xlink:href="#DejaVuSans-13"/>
       <use xlink:href="#DejaVuSans-11" transform="translate(63.625 0)"/>
       <use xlink:href="#DejaVuSans-13" transform="translate(95.40625 0)"/>
      </g>
     </g>
    </g>
    <g id="xtick_2">
     <g id="line2d_2">
      <g>
       <use xlink:href="#m59af1cc050" x="116.425447" y="173.877656" style="stroke: #000000; stroke-width: 0.8"/>
      </g>
     </g>
     <g id="text_2">
      <!-- 0.2 -->
      <g transform="translate(108.473885 188.475313) scale(0.1 -0.1)">
       <defs>
        <path id="DejaVuSans-15" d="M 1228 531 
L 3431 531 
L 3431 0 
L 469 0 
L 469 531 
Q 828 903 1448 1529 
Q 2069 2156 2228 2338 
Q 2531 2678 2651 2914 
Q 2772 3150 2772 3378 
Q 2772 3750 2511 3984 
Q 2250 4219 1831 4219 
Q 1534 4219 1204 4116 
Q 875 4013 500 3803 
L 500 4441 
Q 881 4594 1212 4672 
Q 1544 4750 1819 4750 
Q 2544 4750 2975 4387 
Q 3406 4025 3406 3419 
Q 3406 3131 3298 2873 
Q 3191 2616 2906 2266 
Q 2828 2175 2409 1742 
Q 1991 1309 1228 531 
z
" transform="scale(0.015625)"/>
       </defs>
       <use xlink:href="#DejaVuSans-13"/>
       <use xlink:href="#DejaVuSans-11" transform="translate(63.625 0)"/>
       <use xlink:href="#DejaVuSans-15" transform="translate(95.40625 0)"/>
      </g>
     </g>
    </g>
    <g id="xtick_3">
     <g id="line2d_3">
      <g>
       <use xlink:href="#m59af1cc050" x="171.19593" y="173.877656" style="stroke: #000000; stroke-width: 0.8"/>
      </g>
     </g>
     <g id="text_3">
      <!-- 0.4 -->
      <g transform="translate(163.244368 188.475313) scale(0.1 -0.1)">
       <defs>
        <path id="DejaVuSans-17" d="M 2419 4116 
L 825 1625 
L 2419 1625 
L 2419 4116 
z
M 2253 4666 
L 3047 4666 
L 3047 1625 
L 3713 1625 
L 3713 1100 
L 3047 1100 
L 3047 0 
L 2419 0 
L 2419 1100 
L 313 1100 
L 313 1709 
L 2253 4666 
z
" transform="scale(0.015625)"/>
       </defs>
       <use xlink:href="#DejaVuSans-13"/>
       <use xlink:href="#DejaVuSans-11" transform="translate(63.625 0)"/>
       <use xlink:href="#DejaVuSans-17" transform="translate(95.40625 0)"/>
      </g>
     </g>
    </g>
    <g id="xtick_4">
     <g id="line2d_4">
      <g>
       <use xlink:href="#m59af1cc050" x="225.966413" y="173.877656" style="stroke: #000000; stroke-width: 0.8"/>
      </g>
     </g>
     <g id="text_4">
      <!-- 0.6 -->
      <g transform="translate(218.014851 188.475313) scale(0.1 -0.1)">
       <defs>
        <path id="DejaVuSans-19" d="M 2113 2584 
Q 1688 2584 1439 2293 
Q 1191 2003 1191 1497 
Q 1191 994 1439 701 
Q 1688 409 2113 409 
Q 2538 409 2786 701 
Q 3034 994 3034 1497 
Q 3034 2003 2786 2293 
Q 2538 2584 2113 2584 
z
M 3366 4563 
L 3366 3988 
Q 3128 4100 2886 4159 
Q 2644 4219 2406 4219 
Q 1781 4219 1451 3797 
Q 1122 3375 1075 2522 
Q 1259 2794 1537 2939 
Q 1816 3084 2150 3084 
Q 2853 3084 3261 2657 
Q 3669 2231 3669 1497 
Q 3669 778 3244 343 
Q 2819 -91 2113 -91 
Q 1303 -91 875 529 
Q 447 1150 447 2328 
Q 447 3434 972 4092 
Q 1497 4750 2381 4750 
Q 2619 4750 2861 4703 
Q 3103 4656 3366 4563 
z
" transform="scale(0.015625)"/>
       </defs>
       <use xlink:href="#DejaVuSans-13"/>
       <use xlink:href="#DejaVuSans-11" transform="translate(63.625 0)"/>
       <use xlink:href="#DejaVuSans-19" transform="translate(95.40625 0)"/>
      </g>
     </g>
    </g>
    <g id="xtick_5">
     <g id="line2d_5">
      <g>
       <use xlink:href="#m59af1cc050" x="280.736896" y="173.877656" style="stroke: #000000; stroke-width: 0.8"/>
      </g>
     </g>
     <g id="text_5">
      <!-- 0.8 -->
      <g transform="translate(272.785334 188.475313) scale(0.1 -0.1)">
       <defs>
        <path id="DejaVuSans-1b" d="M 2034 2216 
Q 1584 2216 1326 1975 
Q 1069 1734 1069 1313 
Q 1069 891 1326 650 
Q 1584 409 2034 409 
Q 2484 409 2743 651 
Q 3003 894 3003 1313 
Q 3003 1734 2745 1975 
Q 2488 2216 2034 2216 
z
M 1403 2484 
Q 997 2584 770 2862 
Q 544 3141 544 3541 
Q 544 4100 942 4425 
Q 1341 4750 2034 4750 
Q 2731 4750 3128 4425 
Q 3525 4100 3525 3541 
Q 3525 3141 3298 2862 
Q 3072 2584 2669 2484 
Q 3125 2378 3379 2068 
Q 3634 1759 3634 1313 
Q 3634 634 3220 271 
Q 2806 -91 2034 -91 
Q 1263 -91 848 271 
Q 434 634 434 1313 
Q 434 1759 690 2068 
Q 947 2378 1403 2484 
z
M 1172 3481 
Q 1172 3119 1398 2916 
Q 1625 2713 2034 2713 
Q 2441 2713 2670 2916 
Q 2900 3119 2900 3481 
Q 2900 3844 2670 4047 
Q 2441 4250 2034 4250 
Q 1625 4250 1398 4047 
Q 1172 3844 1172 3481 
z
" transform="scale(0.015625)"/>
       </defs>
       <use xlink:href="#DejaVuSans-13"/>
       <use xlink:href="#DejaVuSans-11" transform="translate(63.625 0)"/>
       <use xlink:href="#DejaVuSans-1b" transform="translate(95.40625 0)"/>
      </g>
     </g>
    </g>
    <g id="xtick_6">
     <g id="line2d_6">
      <g>
       <use xlink:href="#m59af1cc050" x="335.507379" y="173.877656" style="stroke: #000000; stroke-width: 0.8"/>
      </g>
     </g>
     <g id="text_6">
      <!-- 1.0 -->
      <g transform="translate(327.555817 188.475313) scale(0.1 -0.1)">
       <defs>
        <path id="DejaVuSans-14" d="M 794 531 
L 1825 531 
L 1825 4091 
L 703 3866 
L 703 4441 
L 1819 4666 
L 2450 4666 
L 2450 531 
L 3481 531 
L 3481 0 
L 794 0 
L 794 531 
z
" transform="scale(0.015625)"/>
       </defs>
       <use xlink:href="#DejaVuSans-14"/>
       <use xlink:href="#DejaVuSans-11" transform="translate(63.625 0)"/>
       <use xlink:href="#DejaVuSans-13" transform="translate(95.40625 0)"/>
      </g>
     </g>
    </g>
    <g id="text_7">
     <!-- Time (sec) -->
     <g transform="translate(172.424141 202.476094) scale(0.1 -0.1)">
      <defs>
       <path id="DejaVuSans-37" d="M -19 4666 
L 3928 4666 
L 3928 4134 
L 2272 4134 
L 2272 0 
L 1638 0 
L 1638 4134 
L -19 4134 
L -19 4666 
z
" transform="scale(0.015625)"/>
       <path id="DejaVuSans-4c" d="M 603 3500 
L 1178 3500 
L 1178 0 
L 603 0 
L 603 3500 
z
M 603 4863 
L 1178 4863 
L 1178 4134 
L 603 4134 
L 603 4863 
z
" transform="scale(0.015625)"/>
       <path id="DejaVuSans-50" d="M 3328 2828 
Q 3544 3216 3844 3400 
Q 4144 3584 4550 3584 
Q 5097 3584 5394 3201 
Q 5691 2819 5691 2113 
L 5691 0 
L 5113 0 
L 5113 2094 
Q 5113 2597 4934 2840 
Q 4756 3084 4391 3084 
Q 3944 3084 3684 2787 
Q 3425 2491 3425 1978 
L 3425 0 
L 2847 0 
L 2847 2094 
Q 2847 2600 2669 2842 
Q 2491 3084 2119 3084 
Q 1678 3084 1418 2786 
Q 1159 2488 1159 1978 
L 1159 0 
L 581 0 
L 581 3500 
L 1159 3500 
L 1159 2956 
Q 1356 3278 1631 3431 
Q 1906 3584 2284 3584 
Q 2666 3584 2933 3390 
Q 3200 3197 3328 2828 
z
" transform="scale(0.015625)"/>
       <path id="DejaVuSans-48" d="M 3597 1894 
L 3597 1613 
L 953 1613 
Q 991 1019 1311 708 
Q 1631 397 2203 397 
Q 2534 397 2845 478 
Q 3156 559 3463 722 
L 3463 178 
Q 3153 47 2828 -22 
Q 2503 -91 2169 -91 
Q 1331 -91 842 396 
Q 353 884 353 1716 
Q 353 2575 817 3079 
Q 1281 3584 2069 3584 
Q 2775 3584 3186 3129 
Q 3597 2675 3597 1894 
z
M 3022 2063 
Q 3016 2534 2758 2815 
Q 2500 3097 2075 3097 
Q 1594 3097 1305 2825 
Q 1016 2553 972 2059 
L 3022 2063 
z
" transform="scale(0.015625)"/>
       <path id="DejaVuSans-3" transform="scale(0.015625)"/>
       <path id="DejaVuSans-b" d="M 1984 4856 
Q 1566 4138 1362 3434 
Q 1159 2731 1159 2009 
Q 1159 1288 1364 580 
Q 1569 -128 1984 -844 
L 1484 -844 
Q 1016 -109 783 600 
Q 550 1309 550 2009 
Q 550 2706 781 3412 
Q 1013 4119 1484 4856 
L 1984 4856 
z
" transform="scale(0.015625)"/>
       <path id="DejaVuSans-56" d="M 2834 3397 
L 2834 2853 
Q 2591 2978 2328 3040 
Q 2066 3103 1784 3103 
Q 1356 3103 1142 2972 
Q 928 2841 928 2578 
Q 928 2378 1081 2264 
Q 1234 2150 1697 2047 
L 1894 2003 
Q 2506 1872 2764 1633 
Q 3022 1394 3022 966 
Q 3022 478 2636 193 
Q 2250 -91 1575 -91 
Q 1294 -91 989 -36 
Q 684 19 347 128 
L 347 722 
Q 666 556 975 473 
Q 1284 391 1588 391 
Q 1994 391 2212 530 
Q 2431 669 2431 922 
Q 2431 1156 2273 1281 
Q 2116 1406 1581 1522 
L 1381 1569 
Q 847 1681 609 1914 
Q 372 2147 372 2553 
Q 372 3047 722 3315 
Q 1072 3584 1716 3584 
Q 2034 3584 2315 3537 
Q 2597 3491 2834 3397 
z
" transform="scale(0.015625)"/>
       <path id="DejaVuSans-46" d="M 3122 3366 
L 3122 2828 
Q 2878 2963 2633 3030 
Q 2388 3097 2138 3097 
Q 1578 3097 1268 2742 
Q 959 2388 959 1747 
Q 959 1106 1268 751 
Q 1578 397 2138 397 
Q 2388 397 2633 464 
Q 2878 531 3122 666 
L 3122 134 
Q 2881 22 2623 -34 
Q 2366 -91 2075 -91 
Q 1284 -91 818 406 
Q 353 903 353 1747 
Q 353 2603 823 3093 
Q 1294 3584 2113 3584 
Q 2378 3584 2631 3529 
Q 2884 3475 3122 3366 
z
" transform="scale(0.015625)"/>
       <path id="DejaVuSans-c" d="M 513 4856 
L 1013 4856 
Q 1481 4119 1714 3412 
Q 1947 2706 1947 2009 
Q 1947 1309 1714 600 
Q 1481 -109 1013 -844 
L 513 -844 
Q 928 -128 1133 580 
Q 1338 1288 1338 2009 
Q 1338 2731 1133 3434 
Q 928 4138 513 4856 
z
" transform="scale(0.015625)"/>
      </defs>
      <use xlink:href="#DejaVuSans-37"/>
      <use xlink:href="#DejaVuSans-4c" transform="translate(58 0)"/>
      <use xlink:href="#DejaVuSans-50" transform="translate(85.78125 0)"/>
      <use xlink:href="#DejaVuSans-48" transform="translate(183.1875 0)"/>
      <use xlink:href="#DejaVuSans-3" transform="translate(244.71875 0)"/>
      <use xlink:href="#DejaVuSans-b" transform="translate(276.5 0)"/>
      <use xlink:href="#DejaVuSans-56" transform="translate(315.515625 0)"/>
      <use xlink:href="#DejaVuSans-48" transform="translate(367.609375 0)"/>
      <use xlink:href="#DejaVuSans-46" transform="translate(429.140625 0)"/>
      <use xlink:href="#DejaVuSans-c" transform="translate(484.125 0)"/>
     </g>
    </g>
   </g>
   <g id="matplotlib.axis_2">
    <g id="ytick_1">
     <g id="line2d_7">
      <defs>
       <path id="m92102e87c5" d="M 0 0 
L -3.5 0 
" style="stroke: #000000; stroke-width: 0.8"/>
      </defs>
      <g>
       <use xlink:href="#m92102e87c5" x="47.962344" y="159.397763" style="stroke: #000000; stroke-width: 0.8"/>
      </g>
     </g>
     <g id="text_8">
      <!-- 0.0 -->
      <g transform="translate(25.059219 163.196591) scale(0.1 -0.1)">
       <use xlink:href="#DejaVuSans-13"/>
       <use xlink:href="#DejaVuSans-11" transform="translate(63.625 0)"/>
       <use xlink:href="#DejaVuSans-13" transform="translate(95.40625 0)"/>
      </g>
     </g>
    </g>
    <g id="ytick_2">
     <g id="line2d_8">
      <g>
       <use xlink:href="#m92102e87c5" x="47.962344" y="130.437976" style="stroke: #000000; stroke-width: 0.8"/>
      </g>
     </g>
     <g id="text_9">
      <!-- 0.2 -->
      <g transform="translate(25.059219 134.236804) scale(0.1 -0.1)">
       <use xlink:href="#DejaVuSans-13"/>
       <use xlink:href="#DejaVuSans-11" transform="translate(63.625 0)"/>
       <use xlink:href="#DejaVuSans-15" transform="translate(95.40625 0)"/>
      </g>
     </g>
    </g>
    <g id="ytick_3">
     <g id="line2d_9">
      <g>
       <use xlink:href="#m92102e87c5" x="47.962344" y="101.478189" style="stroke: #000000; stroke-width: 0.8"/>
      </g>
     </g>
     <g id="text_10">
      <!-- 0.4 -->
      <g transform="translate(25.059219 105.277017) scale(0.1 -0.1)">
       <use xlink:href="#DejaVuSans-13"/>
       <use xlink:href="#DejaVuSans-11" transform="translate(63.625 0)"/>
       <use xlink:href="#DejaVuSans-17" transform="translate(95.40625 0)"/>
      </g>
     </g>
    </g>
    <g id="ytick_4">
     <g id="line2d_10">
      <g>
       <use xlink:href="#m92102e87c5" x="47.962344" y="72.518402" style="stroke: #000000; stroke-width: 0.8"/>
      </g>
     </g>
     <g id="text_11">
      <!-- 0.6 -->
      <g transform="translate(25.059219 76.31723) scale(0.1 -0.1)">
       <use xlink:href="#DejaVuSans-13"/>
       <use xlink:href="#DejaVuSans-11" transform="translate(63.625 0)"/>
       <use xlink:href="#DejaVuSans-19" transform="translate(95.40625 0)"/>
      </g>
     </g>
    </g>
    <g id="ytick_5">
     <g id="line2d_11">
      <g>
       <use xlink:href="#m92102e87c5" x="47.962344" y="43.558615" style="stroke: #000000; stroke-width: 0.8"/>
      </g>
     </g>
     <g id="text_12">
      <!-- 0.8 -->
      <g transform="translate(25.059219 47.357443) scale(0.1 -0.1)">
       <use xlink:href="#DejaVuSans-13"/>
       <use xlink:href="#DejaVuSans-11" transform="translate(63.625 0)"/>
       <use xlink:href="#DejaVuSans-1b" transform="translate(95.40625 0)"/>
      </g>
     </g>
    </g>
    <g id="ytick_6">
     <g id="line2d_12">
      <g>
       <use xlink:href="#m92102e87c5" x="47.962344" y="14.598828" style="stroke: #000000; stroke-width: 0.8"/>
      </g>
     </g>
     <g id="text_13">
      <!-- 1.0 -->
      <g transform="translate(25.059219 18.397656) scale(0.1 -0.1)">
       <use xlink:href="#DejaVuSans-14"/>
       <use xlink:href="#DejaVuSans-11" transform="translate(63.625 0)"/>
       <use xlink:href="#DejaVuSans-13" transform="translate(95.40625 0)"/>
      </g>
     </g>
    </g>
    <g id="text_14">
     <!-- Injected Signal -->
     <g transform="translate(18.656875 131.256211) rotate(-90) scale(0.1 -0.1)">
      <defs>
       <path id="DejaVuSans-2c" d="M 628 4666 
L 1259 4666 
L 1259 0 
L 628 0 
L 628 4666 
z
" transform="scale(0.015625)"/>
       <path id="DejaVuSans-51" d="M 3513 2113 
L 3513 0 
L 2938 0 
L 2938 2094 
Q 2938 2591 2744 2837 
Q 2550 3084 2163 3084 
Q 1697 3084 1428 2787 
Q 1159 2491 1159 1978 
L 1159 0 
L 581 0 
L 581 3500 
L 1159 3500 
L 1159 2956 
Q 1366 3272 1645 3428 
Q 1925 3584 2291 3584 
Q 2894 3584 3203 3211 
Q 3513 2838 3513 2113 
z
" transform="scale(0.015625)"/>
       <path id="DejaVuSans-4d" d="M 603 3500 
L 1178 3500 
L 1178 -63 
Q 1178 -731 923 -1031 
Q 669 -1331 103 -1331 
L -116 -1331 
L -116 -844 
L 38 -844 
Q 366 -844 484 -692 
Q 603 -541 603 -63 
L 603 3500 
z
M 603 4863 
L 1178 4863 
L 1178 4134 
L 603 4134 
L 603 4863 
z
" transform="scale(0.015625)"/>
       <path id="DejaVuSans-57" d="M 1172 4494 
L 1172 3500 
L 2356 3500 
L 2356 3053 
L 1172 3053 
L 1172 1153 
Q 1172 725 1289 603 
Q 1406 481 1766 481 
L 2356 481 
L 2356 0 
L 1766 0 
Q 1100 0 847 248 
Q 594 497 594 1153 
L 594 3053 
L 172 3053 
L 172 3500 
L 594 3500 
L 594 4494 
L 1172 4494 
z
" transform="scale(0.015625)"/>
       <path id="DejaVuSans-47" d="M 2906 2969 
L 2906 4863 
L 3481 4863 
L 3481 0 
L 2906 0 
L 2906 525 
Q 2725 213 2448 61 
Q 2172 -91 1784 -91 
Q 1150 -91 751 415 
Q 353 922 353 1747 
Q 353 2572 751 3078 
Q 1150 3584 1784 3584 
Q 2172 3584 2448 3432 
Q 2725 3281 2906 2969 
z
M 947 1747 
Q 947 1113 1208 752 
Q 1469 391 1925 391 
Q 2381 391 2643 752 
Q 2906 1113 2906 1747 
Q 2906 2381 2643 2742 
Q 2381 3103 1925 3103 
Q 1469 3103 1208 2742 
Q 947 2381 947 1747 
z
" transform="scale(0.015625)"/>
       <path id="DejaVuSans-36" d="M 3425 4513 
L 3425 3897 
Q 3066 4069 2747 4153 
Q 2428 4238 2131 4238 
Q 1616 4238 1336 4038 
Q 1056 3838 1056 3469 
Q 1056 3159 1242 3001 
Q 1428 2844 1947 2747 
L 2328 2669 
Q 3034 2534 3370 2195 
Q 3706 1856 3706 1288 
Q 3706 609 3251 259 
Q 2797 -91 1919 -91 
Q 1588 -91 1214 -16 
Q 841 59 441 206 
L 441 856 
Q 825 641 1194 531 
Q 1563 422 1919 422 
Q 2459 422 2753 634 
Q 3047 847 3047 1241 
Q 3047 1584 2836 1778 
Q 2625 1972 2144 2069 
L 1759 2144 
Q 1053 2284 737 2584 
Q 422 2884 422 3419 
Q 422 4038 858 4394 
Q 1294 4750 2059 4750 
Q 2388 4750 2728 4690 
Q 3069 4631 3425 4513 
z
" transform="scale(0.015625)"/>
       <path id="DejaVuSans-4a" d="M 2906 1791 
Q 2906 2416 2648 2759 
Q 2391 3103 1925 3103 
Q 1463 3103 1205 2759 
Q 947 2416 947 1791 
Q 947 1169 1205 825 
Q 1463 481 1925 481 
Q 2391 481 2648 825 
Q 2906 1169 2906 1791 
z
M 3481 434 
Q 3481 -459 3084 -895 
Q 2688 -1331 1869 -1331 
Q 1566 -1331 1297 -1286 
Q 1028 -1241 775 -1147 
L 775 -588 
Q 1028 -725 1275 -790 
Q 1522 -856 1778 -856 
Q 2344 -856 2625 -561 
Q 2906 -266 2906 331 
L 2906 616 
Q 2728 306 2450 153 
Q 2172 0 1784 0 
Q 1141 0 747 490 
Q 353 981 353 1791 
Q 353 2603 747 3093 
Q 1141 3584 1784 3584 
Q 2172 3584 2450 3431 
Q 2728 3278 2906 2969 
L 2906 3500 
L 3481 3500 
L 3481 434 
z
" transform="scale(0.015625)"/>
       <path id="DejaVuSans-44" d="M 2194 1759 
Q 1497 1759 1228 1600 
Q 959 1441 959 1056 
Q 959 750 1161 570 
Q 1363 391 1709 391 
Q 2188 391 2477 730 
Q 2766 1069 2766 1631 
L 2766 1759 
L 2194 1759 
z
M 3341 1997 
L 3341 0 
L 2766 0 
L 2766 531 
Q 2569 213 2275 61 
Q 1981 -91 1556 -91 
Q 1019 -91 701 211 
Q 384 513 384 1019 
Q 384 1609 779 1909 
Q 1175 2209 1959 2209 
L 2766 2209 
L 2766 2266 
Q 2766 2663 2505 2880 
Q 2244 3097 1772 3097 
Q 1472 3097 1187 3025 
Q 903 2953 641 2809 
L 641 3341 
Q 956 3463 1253 3523 
Q 1550 3584 1831 3584 
Q 2591 3584 2966 3190 
Q 3341 2797 3341 1997 
z
" transform="scale(0.015625)"/>
       <path id="DejaVuSans-4f" d="M 603 4863 
L 1178 4863 
L 1178 0 
L 603 0 
L 603 4863 
z
" transform="scale(0.015625)"/>
      </defs>
      <use xlink:href="#DejaVuSans-2c"/>
      <use xlink:href="#DejaVuSans-51" transform="translate(29.5 0)"/>
      <use xlink:href="#DejaVuSans-4d" transform="translate(92.875 0)"/>
      <use xlink:href="#DejaVuSans-48" transform="translate(120.65625 0)"/>
      <use xlink:href="#DejaVuSans-46" transform="translate(182.1875 0)"/>
      <use xlink:href="#DejaVuSans-57" transform="translate(237.171875 0)"/>
      <use xlink:href="#DejaVuSans-48" transform="translate(276.375 0)"/>
      <use xlink:href="#DejaVuSans-47" transform="translate(337.90625 0)"/>
      <use xlink:href="#DejaVuSans-3" transform="translate(401.390625 0)"/>
      <use xlink:href="#DejaVuSans-36" transform="translate(433.171875 0)"/>
      <use xlink:href="#DejaVuSans-4c" transform="translate(496.65625 0)"/>
      <use xlink:href="#DejaVuSans-4a" transform="translate(524.4375 0)"/>
      <use xlink:href="#DejaVuSans-51" transform="translate(587.921875 0)"/>
      <use xlink:href="#DejaVuSans-44" transform="translate(651.296875 0)"/>
      <use xlink:href="#DejaVuSans-4f" transform="translate(712.578125 0)"/>
     </g>
    </g>
   </g>
   <g id="line2d_13">
    <path d="M 61.654964 57.870569 
L 61.928817 88.653431 
L 62.202669 102.143053 
L 62.476522 67.187788 
L 62.750374 101.642633 
L 63.024227 59.710267 
L 63.298079 117.044988 
L 63.571931 59.216616 
L 63.845784 119.142881 
L 64.119636 80.817853 
L 64.393489 124.582283 
L 64.667341 90.423036 
L 64.941193 113.045078 
L 65.215046 121.386054 
L 65.488898 87.80455 
L 65.762751 101.020055 
L 66.036603 125.561837 
L 66.310456 107.766428 
L 66.584308 63.07584 
L 66.85816 81.113652 
L 67.132013 78.976585 
L 67.405865 117.003258 
L 67.679718 46.99301 
L 67.95357 101.439473 
L 68.501275 61.448407 
L 68.775127 70.871575 
L 69.04898 57.639837 
L 69.322832 117.436203 
L 69.596685 85.624326 
L 69.870537 99.36129 
L 70.144389 123.21523 
L 70.692094 84.634951 
L 70.965947 112.030787 
L 71.239799 54.803303 
L 71.513651 80.298963 
L 71.787504 88.542194 
L 72.061356 75.597192 
L 72.335209 45.621121 
L 72.609061 60.250354 
L 72.882913 68.455241 
L 73.156766 72.056337 
L 73.430618 127.415245 
L 73.704471 96.903278 
L 73.978323 52.851185 
L 74.252176 110.838797 
L 74.526028 107.647655 
L 75.073733 54.122619 
L 75.347585 88.561601 
L 75.621438 91.590268 
L 75.89529 96.368932 
L 76.442995 49.635889 
L 76.716847 49.225978 
L 76.9907 67.129076 
L 77.264552 51.595797 
L 77.538405 56.171522 
L 77.812257 74.748418 
L 78.086109 105.316995 
L 78.359962 100.680421 
L 78.633814 52.562954 
L 78.907667 85.477243 
L 79.181519 55.930759 
L 79.455371 52.536049 
L 79.729224 128.034715 
L 80.003076 95.793952 
L 80.276929 128.67158 
L 80.550781 87.953549 
L 80.824634 126.019594 
L 81.098486 94.639224 
L 81.372338 85.511511 
L 81.646191 46.528438 
L 81.920043 56.558695 
L 82.193896 50.330388 
L 82.467748 109.573556 
L 82.7416 119.516541 
L 83.015453 72.30099 
L 83.289305 58.025391 
L 83.563158 111.800019 
L 83.83701 95.583572 
L 84.110862 129.617317 
L 84.384715 52.631827 
L 84.658567 129.048494 
L 84.93242 129.662742 
L 85.206272 70.535336 
L 85.480125 128.844703 
L 86.027829 60.610263 
L 86.301682 66.834155 
L 86.575534 111.479191 
L 86.849387 95.826248 
L 87.123239 99.783202 
L 87.397091 128.060067 
L 87.670944 73.519999 
L 87.944796 65.734791 
L 88.218649 53.298965 
L 88.492501 119.179828 
L 88.766354 68.829633 
L 89.040206 48.669904 
L 89.314058 79.23142 
L 89.587911 48.846237 
L 89.861763 96.702115 
L 90.135616 60.689659 
L 90.409468 58.425332 
L 90.68332 72.38912 
L 90.957173 63.211287 
L 91.231025 119.462174 
L 91.504878 95.821061 
L 91.77873 102.182485 
L 92.052583 126.435951 
L 92.326435 94.620685 
L 92.600287 123.866815 
L 92.87414 52.096373 
L 93.147992 96.180789 
L 93.421845 92.816042 
L 93.695697 75.201107 
L 93.969549 87.594555 
L 94.243402 49.063251 
L 94.517254 115.29249 
L 94.791107 126.125043 
L 95.064959 128.848858 
L 95.338812 68.112718 
L 95.612664 68.390896 
L 95.886516 85.83524 
L 96.160369 67.410222 
L 96.434221 86.493426 
L 96.708074 124.341947 
L 96.981926 55.544843 
L 97.529631 118.971643 
L 97.803483 102.283059 
L 98.077336 99.386413 
L 98.351188 47.919227 
L 98.62504 106.473251 
L 98.898893 84.998595 
L 99.172745 84.703085 
L 99.446598 128.013195 
L 99.72045 87.387305 
L 99.994303 101.558853 
L 100.268155 124.690071 
L 100.542007 61.455766 
L 100.81586 97.798823 
L 101.089712 101.504463 
L 101.363565 124.463364 
L 101.637417 85.403036 
L 102.185122 49.603232 
L 102.458974 54.853196 
L 102.732827 95.054138 
L 103.006679 68.15835 
L 103.554384 95.62445 
L 103.828236 44.673428 
L 104.102089 125.952772 
L 104.375941 62.708546 
L 104.649794 120.065441 
L 105.197498 106.601903 
L 105.471351 59.709864 
L 105.745203 72.360919 
L 106.019056 94.465794 
L 106.292908 82.075762 
L 106.566761 104.729472 
L 106.840613 44.788872 
L 107.114465 88.21126 
L 107.388318 73.679117 
L 107.66217 116.962038 
L 107.936023 67.625904 
L 108.209875 67.694643 
L 108.483727 78.032599 
L 108.75758 120.895411 
L 109.031432 67.752811 
L 109.305285 48.669929 
L 109.579137 109.337184 
L 109.852989 94.328813 
L 110.126842 96.117513 
L 110.400694 64.899746 
L 110.674547 102.108132 
L 110.948399 91.281885 
L 111.222252 121.082307 
L 111.496104 102.835369 
L 111.769956 128.79374 
L 112.043809 77.666026 
L 112.317661 48.71691 
L 112.591514 128.875024 
L 112.865366 63.350576 
L 113.139218 59.767117 
L 113.413071 63.446421 
L 113.686923 58.160154 
L 113.960776 66.022023 
L 114.234628 65.127468 
L 114.782333 99.466203 
L 115.056185 92.307513 
L 115.330038 72.388708 
L 115.60389 85.400039 
L 115.877743 62.708681 
L 116.151595 93.854192 
L 116.425447 101.33832 
L 116.6993 52.339343 
L 116.973152 105.686876 
L 117.247005 48.469454 
L 117.520857 118.265111 
L 117.79471 103.425916 
L 118.068562 117.253826 
L 118.342414 57.520156 
L 118.616267 71.664665 
L 118.890119 67.744485 
L 119.437824 86.943491 
L 119.711676 87.001856 
L 119.985529 129.867394 
L 120.259381 58.023358 
L 120.533234 74.10185 
L 120.807086 108.425723 
L 121.080938 108.197762 
L 121.354791 47.552777 
L 121.628643 60.848906 
L 121.902496 44.897753 
L 122.176348 74.378612 
L 122.450201 123.316101 
L 122.724053 78.562486 
L 122.997905 66.406719 
L 123.271758 126.182433 
L 123.819463 52.262751 
L 124.093315 105.562388 
L 124.367167 96.083193 
L 124.914872 57.680867 
L 125.188725 80.238678 
L 125.462577 78.093501 
L 125.73643 110.768064 
L 126.010282 124.54794 
L 126.284134 69.981779 
L 126.831839 85.019544 
L 127.105692 124.115141 
L 127.379544 76.105623 
L 127.653396 98.033035 
L 127.927249 86.338185 
L 128.201101 82.250686 
L 128.474954 79.999197 
L 129.022659 127.792097 
L 129.296511 90.532914 
L 129.570363 113.772905 
L 129.844216 62.066728 
L 130.118068 110.519217 
L 130.391921 81.706857 
L 130.939625 67.91391 
L 131.213478 103.589237 
L 131.48733 61.952073 
L 131.761183 53.569522 
L 132.035035 89.574303 
L 132.308887 65.994209 
L 132.58274 54.93456 
L 132.856592 96.80107 
L 133.130445 109.026018 
L 133.404297 130.412115 
L 133.67815 48.924592 
L 133.952002 128.993989 
L 134.225854 64.397941 
L 134.499707 51.602164 
L 134.773559 104.926536 
L 135.047412 61.741788 
L 135.321264 59.453659 
L 135.595116 125.059141 
L 135.868969 113.006572 
L 136.142821 108.322941 
L 136.416674 101.256443 
L 136.690526 97.995737 
L 136.964379 52.315558 
L 137.238231 47.665002 
L 137.512083 97.830858 
L 137.785936 102.22007 
L 138.059788 63.010116 
L 138.333641 43.694275 
L 138.607493 93.415512 
L 138.881345 54.719736 
L 139.155198 99.420044 
L 139.42905 61.57494 
L 139.702903 97.637508 
L 139.976755 82.502454 
L 140.250608 56.767453 
L 140.52446 116.642216 
L 140.798312 89.660513 
L 141.072165 113.809658 
L 141.346017 64.022852 
L 141.61987 127.427351 
L 141.893722 95.206278 
L 142.167574 84.256328 
L 142.441427 90.513139 
L 142.715279 89.655506 
L 143.262984 63.862691 
L 143.536837 68.342052 
L 143.810689 113.752618 
L 144.084541 110.246037 
L 144.358394 109.981668 
L 144.632246 100.65772 
L 144.906099 81.867902 
L 145.179951 81.514591 
L 145.453803 127.66542 
L 145.727656 77.237967 
L 146.001508 63.49426 
L 146.275361 86.791895 
L 146.549213 53.147131 
L 146.823065 90.973105 
L 147.096918 87.114722 
L 147.37077 49.52376 
L 147.644623 62.342172 
L 148.192328 115.746642 
L 148.46618 49.599235 
L 149.013885 72.908808 
L 149.287737 113.760753 
L 149.56159 108.448757 
L 149.835442 123.34494 
L 150.109294 109.87339 
L 150.383147 119.559654 
L 150.656999 119.399444 
L 150.930852 113.040485 
L 151.204704 64.075501 
L 151.478557 80.558457 
L 151.752409 108.435507 
L 152.026261 84.465327 
L 152.300114 45.200522 
L 152.573966 43.773169 
L 153.121671 113.022437 
L 153.395523 71.304475 
L 153.669376 70.034932 
L 153.943228 51.157565 
L 154.217081 112.970652 
L 154.490933 117.807862 
L 154.764786 71.000265 
L 155.038638 121.299054 
L 155.31249 48.138284 
L 155.586343 121.553998 
L 155.860195 53.247112 
L 156.134048 59.209819 
L 156.4079 110.891677 
L 156.681752 103.472538 
L 157.229457 58.722518 
L 157.777162 126.053267 
L 158.051014 64.011198 
L 158.598719 123.4853 
L 158.872572 65.514282 
L 159.146424 127.954111 
L 159.420277 89.347083 
L 159.694129 67.905934 
L 159.967981 110.805241 
L 160.241834 96.311817 
L 160.515686 109.384782 
L 160.789539 116.85447 
L 161.063391 119.778811 
L 161.337243 112.072486 
L 161.611096 122.564553 
L 161.884948 110.056311 
L 162.158801 111.154422 
L 162.432653 106.944406 
L 162.706506 123.371279 
L 162.980358 111.876064 
L 163.25421 111.162904 
L 163.528063 52.405048 
L 163.801915 86.814366 
L 164.075768 77.10585 
L 164.34962 57.084086 
L 164.623472 121.462331 
L 164.897325 127.73218 
L 165.171177 118.246604 
L 165.44503 119.521038 
L 165.718882 69.348179 
L 165.992735 58.793034 
L 166.266587 122.018932 
L 166.540439 120.119332 
L 166.814292 80.691568 
L 167.088144 66.171084 
L 167.361997 64.558245 
L 167.635849 49.135853 
L 167.909701 69.491303 
L 168.183554 119.32303 
L 168.457406 60.341189 
L 168.731259 128.758061 
L 169.005111 47.130784 
L 169.278963 95.758734 
L 169.552816 59.754719 
L 169.826668 76.160885 
L 170.100521 125.100031 
L 170.374373 94.011747 
L 170.648226 84.965658 
L 170.922078 66.770378 
L 171.19593 100.092779 
L 171.469783 108.612433 
L 171.743635 63.075632 
L 172.017488 48.60328 
L 172.29134 56.705594 
L 172.839045 123.569499 
L 173.38675 86.579038 
L 173.660602 75.852587 
L 173.934455 77.24037 
L 174.208307 66.790323 
L 174.482159 107.636548 
L 174.756012 121.401583 
L 175.029864 71.183939 
L 175.303717 84.200338 
L 175.577569 64.629886 
L 175.851421 55.21908 
L 176.125274 89.814633 
L 176.399126 87.432041 
L 176.672979 77.844075 
L 177.220684 67.597547 
L 177.494536 77.08364 
L 177.768388 49.693373 
L 178.316093 129.867457 
L 178.589946 68.830668 
L 178.863798 59.162871 
L 179.13765 45.168836 
L 179.685355 120.451853 
L 179.959208 94.249135 
L 180.23306 57.354703 
L 180.506912 122.465299 
L 180.780765 113.97755 
L 181.054617 72.758099 
L 181.32847 65.615106 
L 181.602322 79.793011 
L 181.876175 44.484703 
L 182.150027 129.355885 
L 182.423879 51.854654 
L 182.697732 59.963705 
L 182.971584 94.970226 
L 183.245437 59.889558 
L 183.519289 86.850779 
L 183.793141 129.955798 
L 184.066994 76.812771 
L 184.340846 125.952492 
L 184.614699 88.539243 
L 184.888551 123.630784 
L 185.162404 101.846309 
L 185.436256 114.965342 
L 185.710108 52.639818 
L 185.983961 127.380321 
L 186.257813 101.004995 
L 186.531666 60.317437 
L 186.805518 106.286121 
L 187.353223 62.678934 
L 187.627075 113.128686 
L 188.17478 49.634955 
L 188.448633 64.281488 
L 188.722485 103.862208 
L 188.996337 69.740675 
L 189.27019 70.898665 
L 189.544042 84.412764 
L 189.817895 72.005812 
L 190.091747 46.36923 
L 190.365599 70.592631 
L 190.639452 45.793061 
L 190.913304 56.631212 
L 191.187157 48.349823 
L 191.461009 120.392036 
L 191.734862 78.036247 
L 192.008714 83.946451 
L 192.282566 79.725307 
L 192.556419 130.214675 
L 192.830271 104.57228 
L 193.104124 68.208744 
L 193.377976 114.643845 
L 193.651828 76.769774 
L 193.925681 79.778913 
L 194.199533 56.65943 
L 194.473386 46.913624 
L 194.747238 120.175444 
L 195.02109 94.979709 
L 195.294943 122.204086 
L 195.568795 82.960167 
L 195.842648 127.415371 
L 196.1165 84.596984 
L 196.390353 60.503385 
L 196.664205 48.956761 
L 196.938057 122.630679 
L 197.21191 66.854347 
L 197.485762 119.544454 
L 197.759615 78.701338 
L 198.307319 128.925078 
L 198.581172 61.326 
L 198.855024 89.756899 
L 199.128877 98.539095 
L 199.402729 75.400384 
L 199.676582 120.417848 
L 199.950434 96.913768 
L 200.224286 104.347627 
L 200.498139 120.394654 
L 200.771991 116.45868 
L 201.045844 104.523751 
L 201.319696 110.828567 
L 201.593548 60.694896 
L 201.867401 60.56235 
L 202.141253 49.980833 
L 202.415106 87.30525 
L 202.688958 69.690752 
L 202.962811 96.847001 
L 203.236663 67.25787 
L 203.510515 62.364078 
L 203.784368 119.398115 
L 204.05822 86.060767 
L 204.332073 105.500894 
L 204.605925 78.91016 
L 204.879777 68.604344 
L 205.15363 73.191535 
L 205.427482 69.731683 
L 205.701335 119.521495 
L 206.249039 87.189468 
L 206.796744 128.380842 
L 207.070597 103.916171 
L 207.344449 121.871401 
L 207.892154 69.159542 
L 208.166006 69.105614 
L 208.439859 43.846636 
L 208.713711 126.665944 
L 208.987564 115.304892 
L 209.261416 121.827358 
L 209.809121 75.036427 
L 210.082973 105.536115 
L 210.356826 83.10003 
L 210.630678 43.666668 
L 210.904531 45.242874 
L 211.178383 129.916524 
L 211.452235 49.71343 
L 211.726088 108.2044 
L 211.99994 91.630945 
L 212.273793 104.900568 
L 212.547645 67.602568 
L 212.821497 122.842298 
L 213.09535 97.83557 
L 213.369202 49.230452 
L 213.643055 80.022201 
L 213.916907 85.041423 
L 214.19076 50.97705 
L 214.464612 112.406628 
L 214.738464 105.769527 
L 215.012317 52.421654 
L 215.286169 44.118283 
L 215.560022 77.338052 
L 215.833874 44.111585 
L 216.107726 127.26908 
L 216.655431 44.719325 
L 216.929284 102.666222 
L 217.203136 73.797817 
L 217.476988 65.731814 
L 217.750841 130.36669 
L 218.024693 107.394495 
L 218.298546 47.755764 
L 218.572398 106.858583 
L 218.846251 95.977063 
L 219.120103 50.94048 
L 219.393955 118.574892 
L 219.667808 106.535193 
L 219.94166 69.360719 
L 220.215513 73.927382 
L 220.489365 116.608352 
L 220.763217 53.620308 
L 221.03707 105.081933 
L 221.584775 63.437555 
L 221.858627 62.837316 
L 222.13248 129.315206 
L 222.406332 56.773111 
L 222.680184 110.727583 
L 222.954037 48.496342 
L 223.227889 111.780591 
L 223.501742 121.132491 
L 223.775594 101.574672 
L 224.049446 59.902371 
L 224.323299 130.424484 
L 224.597151 118.393954 
L 224.871004 70.800694 
L 225.144856 52.561327 
L 225.418709 115.559085 
L 225.692561 96.35111 
L 225.966413 94.790612 
L 226.514118 51.278496 
L 226.787971 99.73502 
L 227.061823 89.307806 
L 227.609528 121.396514 
L 227.88338 107.619776 
L 228.157233 83.662254 
L 228.431085 45.877218 
L 228.704937 76.446613 
L 229.526495 123.005206 
L 229.800347 105.409863 
L 230.0742 101.469487 
L 230.348052 44.158154 
L 231.169609 107.570502 
L 231.443462 51.987477 
L 231.717314 121.69381 
L 231.991166 70.175883 
L 232.265019 104.271779 
L 233.086576 52.910363 
L 233.360429 121.309209 
L 233.634281 93.578673 
L 233.908133 107.611242 
L 234.181986 79.362397 
L 234.455838 122.134685 
L 234.729691 124.0706 
L 235.003543 114.181452 
L 235.277395 46.063721 
L 235.551248 98.799876 
L 235.8251 71.671463 
L 236.098953 78.482742 
L 236.372805 127.941694 
L 236.646658 62.445693 
L 236.92051 127.081348 
L 237.194362 110.160677 
L 237.468215 58.43933 
L 238.01592 96.785781 
L 238.289772 64.08999 
L 238.837477 120.997465 
L 239.111329 113.879589 
L 239.385182 47.19056 
L 239.932887 129.415728 
L 240.206739 90.324365 
L 240.480591 95.061608 
L 240.754444 124.861753 
L 241.028296 48.350635 
L 241.302149 83.262307 
L 241.576001 44.317596 
L 241.849853 87.291353 
L 242.123706 89.616007 
L 242.397558 128.146434 
L 242.671411 125.619676 
L 242.945263 65.1617 
L 243.219115 98.683616 
L 243.492968 52.828115 
L 243.76682 82.85472 
L 244.040673 87.161666 
L 244.314525 67.453361 
L 244.588378 86.706852 
L 244.86223 94.350823 
L 245.136082 112.83421 
L 245.409935 108.548592 
L 245.683787 96.764885 
L 245.95764 45.33445 
L 246.231492 61.391553 
L 246.505344 54.571764 
L 247.053049 100.562848 
L 247.326902 66.864029 
L 247.600754 100.229493 
L 247.874607 63.318846 
L 248.148459 76.761895 
L 248.422311 114.3319 
L 248.970016 45.81334 
L 249.243869 76.449575 
L 249.517721 125.870534 
L 249.791573 89.794838 
L 250.065426 125.055824 
L 250.339278 76.626155 
L 250.613131 48.130831 
L 250.886983 101.092984 
L 251.160836 110.373507 
L 251.434688 76.155583 
L 251.70854 129.627725 
L 251.982393 108.608612 
L 252.256245 116.015839 
L 253.077802 74.823949 
L 253.351655 126.735163 
L 253.625507 127.661272 
L 253.89936 75.163527 
L 254.173212 52.269938 
L 254.447064 54.26923 
L 254.720917 62.287065 
L 254.994769 121.092782 
L 255.268622 111.159037 
L 255.816327 62.645566 
L 256.090179 53.769664 
L 256.364031 108.116919 
L 256.637884 115.626116 
L 256.911736 113.351586 
L 257.459441 77.163986 
L 257.733293 118.026674 
L 258.007146 106.686291 
L 258.280998 122.843766 
L 258.554851 78.907013 
L 258.828703 112.049944 
L 259.102556 62.624154 
L 259.376408 73.158193 
L 259.65026 118.413049 
L 259.924113 49.730195 
L 260.197965 58.508942 
L 260.471818 87.564099 
L 260.74567 82.269318 
L 261.019522 67.224719 
L 261.293375 86.409991 
L 261.567227 60.206444 
L 262.114932 94.462463 
L 262.388785 69.905061 
L 262.662637 130.383426 
L 263.210342 73.097666 
L 263.484194 111.279501 
L 263.758047 126.08062 
L 264.031899 78.656742 
L 264.305751 120.081188 
L 264.579604 104.118054 
L 264.853456 101.235729 
L 265.127309 124.739396 
L 265.401161 89.498001 
L 265.675013 80.363811 
L 265.948866 90.572462 
L 266.222718 87.623987 
L 266.496571 119.224633 
L 266.770423 85.962552 
L 267.044276 73.556931 
L 267.318128 50.081603 
L 267.865833 121.306718 
L 268.139685 129.275649 
L 268.413538 122.59286 
L 268.68739 127.78391 
L 268.961242 51.683905 
L 269.235095 70.60115 
L 269.508947 106.59505 
L 269.7828 124.932672 
L 270.056652 80.992246 
L 270.330505 104.869549 
L 270.604357 73.552444 
L 270.878209 89.472374 
L 271.152062 43.563399 
L 271.425914 45.581569 
L 271.699767 64.408263 
L 271.973619 105.227646 
L 272.247471 80.776265 
L 272.521324 129.106562 
L 272.795176 75.486827 
L 273.069029 92.005161 
L 273.342881 44.321905 
L 273.616734 101.059877 
L 273.890586 47.753885 
L 274.164438 90.036099 
L 274.712143 53.998165 
L 274.985996 85.545171 
L 275.259848 100.088599 
L 275.5337 99.228688 
L 275.807553 65.756945 
L 276.081405 46.166143 
L 276.355258 69.855573 
L 276.62911 124.979593 
L 276.902963 79.303705 
L 277.176815 122.545109 
L 277.450667 124.118474 
L 277.72452 112.367165 
L 277.998372 114.308059 
L 278.272225 114.848767 
L 278.546077 65.922346 
L 278.819929 79.507735 
L 279.093782 48.663114 
L 279.367634 95.108794 
L 279.641487 106.710695 
L 279.915339 91.304941 
L 280.189191 116.390534 
L 280.463044 106.914765 
L 280.736896 49.249237 
L 281.010749 46.062751 
L 281.284601 47.653159 
L 281.558454 127.974531 
L 281.832306 72.109649 
L 282.106158 115.48901 
L 282.380011 95.5532 
L 282.653863 122.155777 
L 282.927716 55.499209 
L 283.201568 81.781882 
L 283.47542 76.179001 
L 283.749273 98.495418 
L 284.023125 93.657643 
L 284.296978 116.582641 
L 284.57083 52.533998 
L 284.844683 119.584651 
L 285.118535 75.813977 
L 285.392387 104.260384 
L 285.66624 76.368252 
L 285.940092 82.014527 
L 286.213945 128.299928 
L 286.487797 99.992225 
L 286.761649 51.584462 
L 287.309354 107.696349 
L 287.583207 100.155148 
L 287.857059 104.241463 
L 288.130912 72.122137 
L 288.678616 114.796319 
L 288.952469 103.927101 
L 289.226321 64.437206 
L 289.774026 49.916968 
L 290.321731 113.522565 
L 290.595583 45.545689 
L 290.869436 58.698757 
L 291.143288 44.260317 
L 291.41714 70.262897 
L 291.690993 114.794448 
L 291.964845 108.300477 
L 292.238698 86.196161 
L 292.51255 99.792539 
L 292.786403 105.030129 
L 293.060255 97.14002 
L 293.334107 44.459934 
L 293.60796 128.828927 
L 293.881812 83.469148 
L 294.155665 116.23355 
L 294.429517 121.402182 
L 294.703369 51.916403 
L 294.977222 101.884368 
L 295.251074 79.329842 
L 295.524927 82.202552 
L 295.798779 111.761366 
L 296.072632 45.521931 
L 296.346484 123.501223 
L 296.620336 46.201195 
L 296.894189 90.010519 
L 297.168041 95.096895 
L 297.441894 73.39633 
L 297.715746 123.633599 
L 297.989598 56.382259 
L 298.263451 101.798204 
L 298.537303 124.50464 
L 298.811156 77.043372 
L 299.085008 124.60175 
L 299.632713 107.522517 
L 299.906565 126.23077 
L 300.180418 130.321472 
L 300.45427 123.545816 
L 300.728123 68.170963 
L 301.001975 45.740897 
L 301.275827 113.643753 
L 301.54968 110.87955 
L 301.823532 106.58728 
L 302.097385 48.945309 
L 302.371237 51.42495 
L 302.645089 122.242443 
L 303.192794 100.653209 
L 303.466647 104.868664 
L 303.740499 72.455597 
L 304.014352 114.554304 
L 304.288204 54.888228 
L 304.562056 81.704703 
L 305.109761 61.758327 
L 305.383614 101.034766 
L 305.657466 119.098598 
L 305.931318 55.82594 
L 306.205171 83.602717 
L 306.479023 99.621353 
L 306.752876 57.786722 
L 307.026728 91.267512 
L 307.300581 96.219227 
L 307.574433 95.514516 
L 307.848285 92.481724 
L 308.122138 106.028821 
L 308.39599 72.801362 
L 308.669843 113.016498 
L 308.943695 114.056305 
L 309.217547 61.127447 
L 309.4914 51.072788 
L 309.765252 119.415331 
L 310.039105 118.767498 
L 310.312957 110.3847 
L 310.58681 62.11349 
L 310.860662 124.653018 
L 311.134514 127.367415 
L 311.408367 85.736386 
L 311.682219 104.965319 
L 311.956072 103.202382 
L 312.229924 83.065894 
L 312.777629 110.849836 
L 313.051481 60.969404 
L 313.325334 79.451504 
L 313.599186 85.083507 
L 313.873038 88.18931 
L 314.146891 118.672214 
L 314.420743 110.059019 
L 314.694596 117.988863 
L 314.968448 48.754287 
L 315.516153 121.146394 
L 315.790005 64.312567 
L 316.063858 74.165622 
L 316.33771 126.610391 
L 316.611563 90.608888 
L 316.885415 116.271104 
L 317.159267 87.776553 
L 317.43312 106.534282 
L 317.706972 71.399019 
L 317.980825 87.490877 
L 318.254677 125.564295 
L 318.52853 123.961653 
L 318.802382 129.538711 
L 319.076234 90.673348 
L 319.350087 94.326343 
L 319.623939 86.365858 
L 319.897792 92.701266 
L 320.171644 73.433597 
L 320.445496 119.107187 
L 320.719349 127.429624 
L 320.993201 102.318698 
L 321.267054 48.224858 
L 321.540906 68.453914 
L 321.814759 79.099647 
L 322.088611 108.489015 
L 322.362463 118.234358 
L 322.636316 74.509276 
L 322.910168 53.009681 
L 323.184021 116.025048 
L 323.457873 53.32148 
L 323.731725 57.982958 
L 324.005578 46.214655 
L 324.27943 56.130736 
L 324.553283 112.053663 
L 324.827135 63.295858 
L 325.100987 96.35521 
L 325.37484 67.057435 
L 325.648692 113.626406 
L 325.922545 106.568639 
L 326.196397 95.648078 
L 326.47025 63.235401 
L 326.744102 57.828511 
L 327.017954 74.840512 
L 327.291807 44.248644 
L 327.565659 110.709399 
L 327.839512 62.361585 
L 328.113364 125.062778 
L 328.387216 63.890084 
L 328.934921 55.623645 
L 329.208774 75.976747 
L 329.482626 48.689663 
L 329.756479 73.677378 
L 330.030331 123.765425 
L 330.304183 58.211344 
L 330.578036 113.25005 
L 330.851888 57.970966 
L 331.399593 73.969647 
L 331.673445 110.262648 
L 331.947298 123.207843 
L 332.22115 122.609575 
L 332.495003 108.016625 
L 332.768855 103.97916 
L 333.042708 69.55785 
L 333.31656 57.843592 
L 333.590412 97.59235 
L 333.864265 119.795152 
L 334.138117 108.242451 
L 334.41197 79.151956 
L 334.685822 94.766325 
L 334.959674 85.849711 
L 335.233527 46.464187 
L 335.233527 46.464187 
" clip-path="url(#p77f1fd1514)" style="fill: none; stroke: #1f77b4; stroke-width: 1.5; stroke-linecap: square"/>
   </g>
   <g id="line2d_14">
    <path d="M 61.654964 86.998295 
L 335.507379 86.998295 
" clip-path="url(#p77f1fd1514)" style="fill: none; stroke-dasharray: 7.4,3.2; stroke-dashoffset: 0; stroke: #ff0000; stroke-width: 2"/>
   </g>
   <g id="line2d_15">
    <path d="M 193.104124 86.998295 
L 204.05822 86.998295 
" clip-path="url(#p77f1fd1514)" style="fill: none; stroke: #000000; stroke-width: 2; stroke-linecap: square"/>
   </g>
   <g id="line2d_16">
    <path d="M 193.104124 43.558615 
L 204.05822 43.558615 
" clip-path="url(#p77f1fd1514)" style="fill: none; stroke: #000000; stroke-width: 2; stroke-linecap: square"/>
   </g>
   <g id="line2d_17">
    <path d="M 198.581172 86.998295 
L 198.581172 43.558615 
" clip-path="url(#p77f1fd1514)" style="fill: none; stroke: #000000; stroke-width: 2; stroke-linecap: square"/>
   </g>
   <g id="line2d_18">
    <path d="M 193.104124 159.397763 
L 204.05822 159.397763 
" clip-path="url(#p77f1fd1514)" style="fill: none; stroke: #000000; stroke-width: 2; stroke-linecap: square"/>
   </g>
   <g id="line2d_19">
    <path d="M 198.581172 159.397763 
L 198.581172 86.998295 
" clip-path="url(#p77f1fd1514)" style="fill: none; stroke: #000000; stroke-width: 2; stroke-linecap: square"/>
   </g>
   <g id="patch_3">
    <path d="M 47.962344 173.877656 
L 47.962344 14.598828 
" style="fill: none; stroke: #000000; stroke-width: 0.8; stroke-linejoin: miter; stroke-linecap: square"/>
   </g>
   <g id="patch_4">
    <path d="M 349.2 173.877656 
L 349.2 14.598828 
" style="fill: none; stroke: #000000; stroke-width: 0.8; stroke-linejoin: miter; stroke-linecap: square"/>
   </g>
   <g id="patch_5">
    <path d="M 47.962344 173.877656 
L 349.2 173.877656 
" style="fill: none; stroke: #000000; stroke-width: 0.8; stroke-linejoin: miter; stroke-linecap: square"/>
   </g>
   <g id="patch_6">
    <path d="M 47.962344 14.598828 
L 349.2 14.598828 
" style="fill: none; stroke: #000000; stroke-width: 0.8; stroke-linejoin: miter; stroke-linecap: square"/>
   </g>
   <g id="text_15">
    <g id="patch_7">
     <path d="M 205.535268 71.680799 
L 235.127456 71.680799 
L 235.127456 53.680018 
L 205.535268 53.680018 
z
" style="fill: #ffffff; opacity: 0.8; stroke: #000000; stroke-linejoin: miter"/>
    </g>
    <!-- gain -->
    <g transform="translate(209.535268 65.278455) scale(0.1 -0.1)">
     <use xlink:href="#DejaVuSans-4a"/>
     <use xlink:href="#DejaVuSans-44" transform="translate(63.484375 0)"/>
     <use xlink:href="#DejaVuSans-4c" transform="translate(124.765625 0)"/>
     <use xlink:href="#DejaVuSans-51" transform="translate(152.546875 0)"/>
    </g>
   </g>
   <g id="text_16">
    <g id="patch_8">
     <path d="M 205.535268 129.600373 
L 241.825893 129.600373 
L 241.825893 111.599592 
L 205.535268 111.599592 
z
" style="fill: #ffffff; opacity: 0.8; stroke: #000000; stroke-linejoin: miter"/>
    </g>
    <!-- offset -->
    <g transform="translate(209.535268 123.198029) scale(0.1 -0.1)">
     <defs>
      <path id="DejaVuSans-52" d="M 1959 3097 
Q 1497 3097 1228 2736 
Q 959 2375 959 1747 
Q 959 1119 1226 758 
Q 1494 397 1959 397 
Q 2419 397 2687 759 
Q 2956 1122 2956 1747 
Q 2956 2369 2687 2733 
Q 2419 3097 1959 3097 
z
M 1959 3584 
Q 2709 3584 3137 3096 
Q 3566 2609 3566 1747 
Q 3566 888 3137 398 
Q 2709 -91 1959 -91 
Q 1206 -91 779 398 
Q 353 888 353 1747 
Q 353 2609 779 3096 
Q 1206 3584 1959 3584 
z
" transform="scale(0.015625)"/>
      <path id="DejaVuSans-13ae" d="M 4531 4863 
L 4531 4384 
L 3981 4384 
Q 3672 4384 3551 4259 
Q 3431 4134 3431 3809 
L 3431 3500 
L 4378 3500 
L 4378 3053 
L 3431 3053 
L 3431 0 
L 2853 0 
L 2853 3053 
L 1275 3053 
L 1275 0 
L 697 0 
L 697 3053 
L 147 3053 
L 147 3500 
L 697 3500 
L 697 3744 
Q 697 4328 969 4595 
Q 1241 4863 1831 4863 
L 2375 4863 
L 2375 4384 
L 1825 4384 
Q 1516 4384 1394 4259 
Q 1275 4134 1275 3809 
L 1275 3500 
L 2853 3500 
L 2853 3744 
Q 2853 4328 3125 4595 
Q 3397 4863 3988 4863 
L 4531 4863 
z
" transform="scale(0.015625)"/>
     </defs>
     <use xlink:href="#DejaVuSans-52"/>
     <use xlink:href="#DejaVuSans-13ae" transform="translate(61.1875 0)"/>
     <use xlink:href="#DejaVuSans-56" transform="translate(130.078125 0)"/>
     <use xlink:href="#DejaVuSans-48" transform="translate(182.171875 0)"/>
     <use xlink:href="#DejaVuSans-57" transform="translate(243.703125 0)"/>
    </g>
   </g>
  </g>
 </g>
 <defs>
  <clipPath id="p77f1fd1514">
   <rect x="47.962344" y="14.598828" width="301.237656" height="159.278828"/>
  </clipPath>
 </defs>
</svg>
